<?xml version="1.0" encoding="UTF-8" standalone="no"?>
<!DOCTYPE svg PUBLIC "-//W3C//DTD SVG 1.1//EN"
 "http://www.w3.org/Graphics/SVG/1.1/DTD/svg11.dtd">
<!-- Generated by graphviz version 2.40.1 (20161225.0304)
 -->
<!-- Title: include/tvm/meta_schedule/arg_info.h Pages: 1 -->
<svg width="812pt" height="441pt"
 viewBox="0.00 0.00 812.50 441.00" xmlns="http://www.w3.org/2000/svg" xmlns:xlink="http://www.w3.org/1999/xlink">
<g id="graph0" class="graph" transform="scale(1 1) rotate(0) translate(4 437)">
<title>include/tvm/meta_schedule/arg_info.h</title>
<polygon fill="#ffffff" stroke="transparent" points="-4,4 -4,-437 808.4951,-437 808.4951,4 -4,4"/>
<!-- Node65 -->
<g id="node1" class="node">
<title>Node65</title>
<polygon fill="#bfbfbf" stroke="#000000" points="303,-402.5 303,-432.5 455,-432.5 455,-402.5 303,-402.5"/>
<text text-anchor="start" x="311" y="-420.5" font-family="Helvetica,sans-Serif" font-size="10.00" fill="#000000">include/tvm/meta_schedule</text>
<text text-anchor="middle" x="379" y="-409.5" font-family="Helvetica,sans-Serif" font-size="10.00" fill="#000000">/arg_info.h</text>
</g>
<!-- Node66 -->
<g id="node2" class="node">
<title>Node66</title>
<g id="a_node2"><a xlink:href="meta__schedule_2cost__model_8h.html" target="_top" xlink:title="include/tvm/meta_schedule\l/cost_model.h">
<polygon fill="#ffffff" stroke="#000000" points="199,-268.5 199,-298.5 351,-298.5 351,-268.5 199,-268.5"/>
<text text-anchor="start" x="207" y="-286.5" font-family="Helvetica,sans-Serif" font-size="10.00" fill="#000000">include/tvm/meta_schedule</text>
<text text-anchor="middle" x="275" y="-275.5" font-family="Helvetica,sans-Serif" font-size="10.00" fill="#000000">/cost_model.h</text>
</a>
</g>
</g>
<!-- Node65&#45;&gt;Node66 -->
<g id="edge1" class="edge">
<title>Node65&#45;&gt;Node66</title>
<path fill="none" stroke="#191970" d="M360.8739,-394.1452C339.6014,-366.7365 304.9396,-322.076 286.8447,-298.7614"/>
<polygon fill="#191970" stroke="#191970" points="358.3758,-396.635 367.272,-402.389 363.9057,-392.3431 358.3758,-396.635"/>
</g>
<!-- Node67 -->
<g id="node3" class="node">
<title>Node67</title>
<g id="a_node3"><a xlink:href="search__strategy_8h.html" target="_top" xlink:title="include/tvm/meta_schedule\l/search_strategy.h">
<polygon fill="#ffffff" stroke="#000000" points="227,-201.5 227,-231.5 379,-231.5 379,-201.5 227,-201.5"/>
<text text-anchor="start" x="235" y="-219.5" font-family="Helvetica,sans-Serif" font-size="10.00" fill="#000000">include/tvm/meta_schedule</text>
<text text-anchor="middle" x="303" y="-208.5" font-family="Helvetica,sans-Serif" font-size="10.00" fill="#000000">/search_strategy.h</text>
</a>
</g>
</g>
<!-- Node65&#45;&gt;Node67 -->
<g id="edge23" class="edge">
<title>Node65&#45;&gt;Node67</title>
<path fill="none" stroke="#191970" d="M380.9561,-392.1165C382.2293,-361.04 380.7087,-307.6586 360,-268 352.2835,-253.2225 338.5128,-240.5975 326.44,-231.5463"/>
<polygon fill="#191970" stroke="#191970" points="377.4402,-392.3142 380.391,-402.4898 384.4299,-392.695 377.4402,-392.3142"/>
</g>
<!-- Node71 -->
<g id="node7" class="node">
<title>Node71</title>
<g id="a_node7"><a xlink:href="database_8h.html" target="_top" xlink:title="include/tvm/meta_schedule\l/database.h">
<polygon fill="#ffffff" stroke="#000000" points="645,-335.5 645,-365.5 797,-365.5 797,-335.5 645,-335.5"/>
<text text-anchor="start" x="653" y="-353.5" font-family="Helvetica,sans-Serif" font-size="10.00" fill="#000000">include/tvm/meta_schedule</text>
<text text-anchor="middle" x="721" y="-342.5" font-family="Helvetica,sans-Serif" font-size="10.00" fill="#000000">/database.h</text>
</a>
</g>
</g>
<!-- Node65&#45;&gt;Node71 -->
<g id="edge9" class="edge">
<title>Node65&#45;&gt;Node71</title>
<path fill="none" stroke="#191970" d="M465.4568,-400.5626C520.7377,-389.7327 591.7699,-375.817 644.9075,-365.407"/>
<polygon fill="#191970" stroke="#191970" points="464.4663,-397.19 455.3258,-402.5473 465.8122,-404.0594 464.4663,-397.19"/>
</g>
<!-- Node73 -->
<g id="node9" class="node">
<title>Node73</title>
<g id="a_node9"><a xlink:href="measure__candidate_8h.html" target="_top" xlink:title="include/tvm/meta_schedule\l/measure_candidate.h">
<polygon fill="#ffffff" stroke="#000000" points="407,-335.5 407,-365.5 559,-365.5 559,-335.5 407,-335.5"/>
<text text-anchor="start" x="415" y="-353.5" font-family="Helvetica,sans-Serif" font-size="10.00" fill="#000000">include/tvm/meta_schedule</text>
<text text-anchor="middle" x="483" y="-342.5" font-family="Helvetica,sans-Serif" font-size="10.00" fill="#000000">/measure_candidate.h</text>
</a>
</g>
</g>
<!-- Node65&#45;&gt;Node73 -->
<g id="edge12" class="edge">
<title>Node65&#45;&gt;Node73</title>
<path fill="none" stroke="#191970" d="M411.139,-396.7951C426.7223,-386.7558 445.1061,-374.9124 459.3784,-365.7177"/>
<polygon fill="#191970" stroke="#191970" points="408.8506,-394.1058 402.3396,-402.4639 412.6417,-399.9904 408.8506,-394.1058"/>
</g>
<!-- Node75 -->
<g id="node11" class="node">
<title>Node75</title>
<g id="a_node11"><a xlink:href="runner_8h.html" target="_top" xlink:title="include/tvm/meta_schedule\l/runner.h">
<polygon fill="#ffffff" stroke="#000000" points="76,-335.5 76,-365.5 228,-365.5 228,-335.5 76,-335.5"/>
<text text-anchor="start" x="84" y="-353.5" font-family="Helvetica,sans-Serif" font-size="10.00" fill="#000000">include/tvm/meta_schedule</text>
<text text-anchor="middle" x="152" y="-342.5" font-family="Helvetica,sans-Serif" font-size="10.00" fill="#000000">/runner.h</text>
</a>
</g>
</g>
<!-- Node65&#45;&gt;Node75 -->
<g id="edge17" class="edge">
<title>Node65&#45;&gt;Node75</title>
<path fill="none" stroke="#191970" d="M318.179,-399.5484C282.248,-388.9432 237.2656,-375.6665 203.1654,-365.6017"/>
<polygon fill="#191970" stroke="#191970" points="317.475,-402.9898 328.0568,-402.4639 319.4566,-396.2762 317.475,-402.9898"/>
</g>
<!-- Node66&#45;&gt;Node67 -->
<g id="edge2" class="edge">
<title>Node66&#45;&gt;Node67</title>
<path fill="none" stroke="#191970" d="M285.2797,-258.9021C289.0963,-249.7696 293.3106,-239.6854 296.6715,-231.6432"/>
<polygon fill="#191970" stroke="#191970" points="281.9803,-257.7204 281.3536,-268.2967 288.439,-260.4196 281.9803,-257.7204"/>
</g>
<!-- Node69 -->
<g id="node5" class="node">
<title>Node69</title>
<g id="a_node5"><a xlink:href="task__scheduler_8h.html" target="_top" xlink:title="include/tvm/meta_schedule\l/task_scheduler.h">
<polygon fill="#ffffff" stroke="#000000" points="0,-.5 0,-30.5 152,-30.5 152,-.5 0,-.5"/>
<text text-anchor="start" x="8" y="-18.5" font-family="Helvetica,sans-Serif" font-size="10.00" fill="#000000">include/tvm/meta_schedule</text>
<text text-anchor="middle" x="76" y="-7.5" font-family="Helvetica,sans-Serif" font-size="10.00" fill="#000000">/task_scheduler.h</text>
</a>
</g>
</g>
<!-- Node66&#45;&gt;Node69 -->
<g id="edge8" class="edge">
<title>Node66&#45;&gt;Node69</title>
<path fill="none" stroke="#191970" d="M235.2102,-263.5544C198.7698,-243.3754 145.8089,-208.9229 114,-165 83.6841,-123.1387 77.4807,-59.4244 76.2634,-30.6002"/>
<polygon fill="#191970" stroke="#191970" points="233.6369,-266.6827 244.0958,-268.3743 236.9745,-260.5297 233.6369,-266.6827"/>
</g>
<!-- Node68 -->
<g id="node4" class="node">
<title>Node68</title>
<g id="a_node4"><a xlink:href="measure__callback_8h.html" target="_top" xlink:title="include/tvm/meta_schedule\l/measure_callback.h">
<polygon fill="#ffffff" stroke="#000000" points="123,-67.5 123,-97.5 275,-97.5 275,-67.5 123,-67.5"/>
<text text-anchor="start" x="131" y="-85.5" font-family="Helvetica,sans-Serif" font-size="10.00" fill="#000000">include/tvm/meta_schedule</text>
<text text-anchor="middle" x="199" y="-74.5" font-family="Helvetica,sans-Serif" font-size="10.00" fill="#000000">/measure_callback.h</text>
</a>
</g>
</g>
<!-- Node67&#45;&gt;Node68 -->
<g id="edge3" class="edge">
<title>Node67&#45;&gt;Node68</title>
<path fill="none" stroke="#191970" d="M302.2587,-191.286C300.6084,-173.7675 296.0557,-150.667 284,-134 272.3708,-117.9226 254.037,-105.8972 237.3689,-97.5277"/>
<polygon fill="#191970" stroke="#191970" points="298.774,-191.6288 302.9524,-201.3649 305.7575,-191.1481 298.774,-191.6288"/>
</g>
<!-- Node70 -->
<g id="node6" class="node">
<title>Node70</title>
<g id="a_node6"><a xlink:href="tune__context_8h.html" target="_top" xlink:title="include/tvm/meta_schedule\l/tune_context.h">
<polygon fill="#ffffff" stroke="#000000" points="123,-134.5 123,-164.5 275,-164.5 275,-134.5 123,-134.5"/>
<text text-anchor="start" x="131" y="-152.5" font-family="Helvetica,sans-Serif" font-size="10.00" fill="#000000">include/tvm/meta_schedule</text>
<text text-anchor="middle" x="199" y="-141.5" font-family="Helvetica,sans-Serif" font-size="10.00" fill="#000000">/tune_context.h</text>
</a>
</g>
</g>
<!-- Node67&#45;&gt;Node70 -->
<g id="edge5" class="edge">
<title>Node67&#45;&gt;Node70</title>
<path fill="none" stroke="#191970" d="M270.861,-195.7951C255.2777,-185.7558 236.8939,-173.9124 222.6216,-164.7177"/>
<polygon fill="#191970" stroke="#191970" points="269.3583,-198.9904 279.6604,-201.4639 273.1494,-193.1058 269.3583,-198.9904"/>
</g>
<!-- Node68&#45;&gt;Node69 -->
<g id="edge4" class="edge">
<title>Node68&#45;&gt;Node69</title>
<path fill="none" stroke="#191970" d="M162.5317,-62.6352C143.7823,-52.422 121.2901,-40.1702 103.937,-30.7177"/>
<polygon fill="#191970" stroke="#191970" points="160.9405,-65.7539 171.3964,-67.4639 164.289,-59.6067 160.9405,-65.7539"/>
</g>
<!-- Node70&#45;&gt;Node68 -->
<g id="edge6" class="edge">
<title>Node70&#45;&gt;Node68</title>
<path fill="none" stroke="#191970" d="M199,-124.0249C199,-115.128 199,-105.4287 199,-97.6432"/>
<polygon fill="#191970" stroke="#191970" points="195.5001,-124.2966 199,-134.2967 202.5001,-124.2967 195.5001,-124.2966"/>
</g>
<!-- Node70&#45;&gt;Node69 -->
<g id="edge7" class="edge">
<title>Node70&#45;&gt;Node69</title>
<path fill="none" stroke="#191970" d="M155.3049,-129.619C140.7819,-121.4108 125.4197,-110.7902 114,-98 96.2507,-78.1207 85.3754,-48.5342 80.0335,-30.7207"/>
<polygon fill="#191970" stroke="#191970" points="153.7336,-132.7481 164.1964,-134.4158 157.0573,-126.5875 153.7336,-132.7481"/>
</g>
<!-- Node71&#45;&gt;Node67 -->
<g id="edge10" class="edge">
<title>Node71&#45;&gt;Node67</title>
<path fill="none" stroke="#191970" d="M760.9244,-330.3341C788.6508,-313.7416 817.4116,-289.536 798,-268 770.5224,-237.5153 511.1649,-223.913 379.2601,-218.9255"/>
<polygon fill="#191970" stroke="#191970" points="758.9542,-327.4292 752.0211,-335.4407 762.4369,-333.5014 758.9542,-327.4292"/>
</g>
<!-- Node72 -->
<g id="node8" class="node">
<title>Node72</title>
<g id="a_node8"><a xlink:href="tuning__api_8h.html" target="_top" xlink:title="Relax Tuning Pass APIs. ">
<polygon fill="#ffffff" stroke="#000000" points="653,-268.5 653,-298.5 789,-298.5 789,-268.5 653,-268.5"/>
<text text-anchor="start" x="661" y="-286.5" font-family="Helvetica,sans-Serif" font-size="10.00" fill="#000000">include/tvm/relax/tuning</text>
<text text-anchor="middle" x="721" y="-275.5" font-family="Helvetica,sans-Serif" font-size="10.00" fill="#000000">_api.h</text>
</a>
</g>
</g>
<!-- Node71&#45;&gt;Node72 -->
<g id="edge11" class="edge">
<title>Node71&#45;&gt;Node72</title>
<path fill="none" stroke="#191970" d="M721,-325.0249C721,-316.128 721,-306.4287 721,-298.6432"/>
<polygon fill="#191970" stroke="#191970" points="717.5001,-325.2966 721,-335.2967 724.5001,-325.2967 717.5001,-325.2966"/>
</g>
<!-- Node73&#45;&gt;Node66 -->
<g id="edge13" class="edge">
<title>Node73&#45;&gt;Node66</title>
<path fill="none" stroke="#191970" d="M426.4237,-332.2759C393.6423,-321.7165 352.8618,-308.5805 321.8829,-298.6017"/>
<polygon fill="#191970" stroke="#191970" points="425.7292,-335.7292 436.3207,-335.4639 427.8755,-329.0664 425.7292,-335.7292"/>
</g>
<!-- Node73&#45;&gt;Node67 -->
<g id="edge16" class="edge">
<title>Node73&#45;&gt;Node67</title>
<path fill="none" stroke="#191970" d="M461.159,-327.8918C443.6389,-310.4162 417.9369,-286.2142 393,-268 374.1014,-254.1963 351.1881,-241.1315 333.211,-231.6147"/>
<polygon fill="#191970" stroke="#191970" points="459.0761,-330.7623 468.6009,-335.4022 464.0484,-325.8352 459.0761,-330.7623"/>
</g>
<!-- Node73&#45;&gt;Node68 -->
<g id="edge15" class="edge">
<title>Node73&#45;&gt;Node68</title>
<path fill="none" stroke="#191970" d="M552.3837,-332.0736C589.7573,-318.4121 624.7213,-297.1069 606,-268 532.9081,-154.3609 371.1516,-109.5036 275.0256,-92.4262"/>
<polygon fill="#191970" stroke="#191970" points="551.1586,-328.7939 542.8613,-335.3822 553.4561,-335.4062 551.1586,-328.7939"/>
</g>
<!-- Node74 -->
<g id="node10" class="node">
<title>Node74</title>
<g id="a_node10"><a xlink:href="feature__extractor_8h.html" target="_top" xlink:title="include/tvm/meta_schedule\l/feature_extractor.h">
<polygon fill="#ffffff" stroke="#000000" points="445,-268.5 445,-298.5 597,-298.5 597,-268.5 445,-268.5"/>
<text text-anchor="start" x="453" y="-286.5" font-family="Helvetica,sans-Serif" font-size="10.00" fill="#000000">include/tvm/meta_schedule</text>
<text text-anchor="middle" x="521" y="-275.5" font-family="Helvetica,sans-Serif" font-size="10.00" fill="#000000">/feature_extractor.h</text>
</a>
</g>
</g>
<!-- Node73&#45;&gt;Node74 -->
<g id="edge14" class="edge">
<title>Node73&#45;&gt;Node74</title>
<path fill="none" stroke="#191970" d="M496.6212,-326.4837C501.8868,-317.1996 507.753,-306.8565 512.4113,-298.6432"/>
<polygon fill="#191970" stroke="#191970" points="493.5118,-324.8716 491.6228,-335.2967 499.6007,-328.325 493.5118,-324.8716"/>
</g>
<!-- Node75&#45;&gt;Node66 -->
<g id="edge18" class="edge">
<title>Node75&#45;&gt;Node66</title>
<path fill="none" stroke="#191970" d="M188.4683,-330.6352C207.2177,-320.422 229.7099,-308.1702 247.063,-298.7177"/>
<polygon fill="#191970" stroke="#191970" points="186.711,-327.6067 179.6036,-335.4639 190.0595,-333.7539 186.711,-327.6067"/>
</g>
<!-- Node75&#45;&gt;Node67 -->
<g id="edge20" class="edge">
<title>Node75&#45;&gt;Node67</title>
<path fill="none" stroke="#191970" d="M158.4435,-325.4328C164.1627,-307.4935 174.1223,-283.8142 190,-268 206.6502,-251.4165 229.6074,-239.6185 250.4823,-231.5372"/>
<polygon fill="#191970" stroke="#191970" points="155.0262,-324.6473 155.5534,-335.229 161.7401,-326.628 155.0262,-324.6473"/>
</g>
<!-- Node75&#45;&gt;Node68 -->
<g id="edge19" class="edge">
<title>Node75&#45;&gt;Node68</title>
<path fill="none" stroke="#191970" d="M138.207,-326.5498C116.1005,-284.706 78.6381,-196.7712 114,-134 123.3156,-117.4638 140.3193,-105.6299 156.6841,-97.5103"/>
<polygon fill="#191970" stroke="#191970" points="135.1985,-328.3437 143.0518,-335.4554 141.3475,-324.9985 135.1985,-328.3437"/>
</g>
<!-- Node75&#45;&gt;Node69 -->
<g id="edge21" class="edge">
<title>Node75&#45;&gt;Node69</title>
<path fill="none" stroke="#191970" d="M110.3726,-330.4832C71.3585,-308.4822 19,-269.1483 19,-216.5 19,-216.5 19,-216.5 19,-149.5 19,-103.2355 48.1271,-54.6406 64.7386,-30.6882"/>
<polygon fill="#191970" stroke="#191970" points="109.009,-333.7261 119.4645,-335.4384 112.3588,-327.5796 109.009,-333.7261"/>
</g>
<!-- Node75&#45;&gt;Node70 -->
<g id="edge22" class="edge">
<title>Node75&#45;&gt;Node70</title>
<path fill="none" stroke="#191970" d="M155.5859,-325.2872C158.089,-308.8841 161.7378,-287.0739 166,-268 174.3831,-230.4849 187.2922,-187.1408 194.2181,-164.7116"/>
<polygon fill="#191970" stroke="#191970" points="152.1205,-324.7964 154.1116,-335.2025 159.0444,-325.826 152.1205,-324.7964"/>
</g>
</g>
</svg>
