<?xml version="1.0" encoding="UTF-8" standalone="no"?>
<!DOCTYPE svg PUBLIC "-//W3C//DTD SVG 1.1//EN"
 "http://www.w3.org/Graphics/SVG/1.1/DTD/svg11.dtd">
<!-- Generated by graphviz version 2.40.1 (20161225.0304)
 -->
<!-- Title: include/tvm/relax/backend.h Pages: 1 -->
<svg width="3179pt" height="901pt"
 viewBox="0.00 0.00 3178.68 901.00" xmlns="http://www.w3.org/2000/svg" xmlns:xlink="http://www.w3.org/1999/xlink">
<g id="graph0" class="graph" transform="scale(1 1) rotate(0) translate(4 897)">
<title>include/tvm/relax/backend.h</title>
<polygon fill="#ffffff" stroke="transparent" points="-4,4 -4,-897 3174.6832,-897 3174.6832,4 -4,4"/>
<!-- Node0 -->
<g id="node1" class="node">
<title>Node0</title>
<polygon fill="#bfbfbf" stroke="#000000" points="1742.5,-873.5 1742.5,-892.5 1897.5,-892.5 1897.5,-873.5 1742.5,-873.5"/>
<text text-anchor="middle" x="1820" y="-880.5" font-family="Helvetica,sans-Serif" font-size="10.00" fill="#000000">include/tvm/relax/backend.h</text>
</g>
<!-- Node1 -->
<g id="node2" class="node">
<title>Node1</title>
<g id="a_node2"><a xlink:href="relax_2transform_8h.html" target="_top" xlink:title="Relax specific transformation passes. ">
<polygon fill="#ffffff" stroke="#000000" points="1758,-817.5 1758,-836.5 1882,-836.5 1882,-817.5 1758,-817.5"/>
<text text-anchor="middle" x="1820" y="-824.5" font-family="Helvetica,sans-Serif" font-size="10.00" fill="#000000">tvm/relax/transform.h</text>
</a>
</g>
</g>
<!-- Node0&#45;&gt;Node1 -->
<g id="edge1" class="edge">
<title>Node0&#45;&gt;Node1</title>
<path fill="none" stroke="#191970" d="M1820,-873.2455C1820,-865.9382 1820,-855.6944 1820,-846.7046"/>
<polygon fill="#191970" stroke="#191970" points="1823.5001,-846.6426 1820,-836.6427 1816.5001,-846.6427 1823.5001,-846.6426"/>
</g>
<!-- Node2 -->
<g id="node3" class="node">
<title>Node2</title>
<g id="a_node3"><a xlink:href="ir_2transform_8h.html" target="_top" xlink:title="tvm/ir/transform.h">
<polygon fill="#ffffff" stroke="#000000" points="1317,-694.5 1317,-713.5 1423,-713.5 1423,-694.5 1317,-694.5"/>
<text text-anchor="middle" x="1370" y="-701.5" font-family="Helvetica,sans-Serif" font-size="10.00" fill="#000000">tvm/ir/transform.h</text>
</a>
</g>
</g>
<!-- Node1&#45;&gt;Node2 -->
<g id="edge2" class="edge">
<title>Node1&#45;&gt;Node2</title>
<path fill="none" stroke="#191970" d="M1785.0637,-817.4507C1704.2354,-795.3577 1504.4136,-740.7397 1414.774,-716.2382"/>
<polygon fill="#191970" stroke="#191970" points="1415.483,-712.8037 1404.914,-713.5432 1413.6374,-719.556 1415.483,-712.8037"/>
</g>
<!-- Node66 -->
<g id="node41" class="node">
<title>Node66</title>
<g id="a_node41"><a xlink:href="relax_2dataflow__pattern_8h.html" target="_top" xlink:title="A pattern language for matching dataflow properties. ">
<polygon fill="#ffffff" stroke="#000000" points="1765.5,-750.5 1765.5,-780.5 1874.5,-780.5 1874.5,-750.5 1765.5,-750.5"/>
<text text-anchor="start" x="1773.5" y="-768.5" font-family="Helvetica,sans-Serif" font-size="10.00" fill="#000000">tvm/relax/dataflow</text>
<text text-anchor="middle" x="1820" y="-757.5" font-family="Helvetica,sans-Serif" font-size="10.00" fill="#000000">_pattern.h</text>
</a>
</g>
</g>
<!-- Node1&#45;&gt;Node66 -->
<g id="edge131" class="edge">
<title>Node1&#45;&gt;Node66</title>
<path fill="none" stroke="#191970" d="M1820,-817.3906C1820,-810.2234 1820,-800.0862 1820,-790.671"/>
<polygon fill="#191970" stroke="#191970" points="1823.5001,-790.5446 1820,-780.5446 1816.5001,-790.5446 1823.5001,-790.5446"/>
</g>
<!-- Node67 -->
<g id="node42" class="node">
<title>Node67</title>
<g id="a_node42"><a xlink:href="relax_2expr_8h.html" target="_top" xlink:title="tvm/relax/expr.h">
<polygon fill="#ffffff" stroke="#000000" points="1972.5,-694.5 1972.5,-713.5 2069.5,-713.5 2069.5,-694.5 1972.5,-694.5"/>
<text text-anchor="middle" x="2021" y="-701.5" font-family="Helvetica,sans-Serif" font-size="10.00" fill="#000000">tvm/relax/expr.h</text>
</a>
</g>
</g>
<!-- Node1&#45;&gt;Node67 -->
<g id="edge185" class="edge">
<title>Node1&#45;&gt;Node67</title>
<path fill="none" stroke="#191970" d="M1835.7721,-817.3484C1870.7041,-795.9721 1954.7997,-744.5106 1996.5858,-718.94"/>
<polygon fill="#191970" stroke="#191970" points="1998.5983,-721.8119 2005.3011,-713.6068 1994.9446,-715.8411 1998.5983,-721.8119"/>
</g>
<!-- Node3 -->
<g id="node4" class="node">
<title>Node3</title>
<g id="a_node4"><a xlink:href="diagnostic_8h.html" target="_top" xlink:title="A new diagnostic interface for TVM error reporting. ">
<polygon fill="#ffffff" stroke="#000000" points="1398,-638.5 1398,-657.5 1506,-657.5 1506,-638.5 1398,-638.5"/>
<text text-anchor="middle" x="1452" y="-645.5" font-family="Helvetica,sans-Serif" font-size="10.00" fill="#000000">tvm/ir/diagnostic.h</text>
</a>
</g>
</g>
<!-- Node2&#45;&gt;Node3 -->
<g id="edge3" class="edge">
<title>Node2&#45;&gt;Node3</title>
<path fill="none" stroke="#191970" d="M1384.2833,-694.2455C1396.747,-685.7337 1415.0451,-673.2375 1429.4792,-663.3801"/>
<polygon fill="#191970" stroke="#191970" points="1431.5962,-666.1726 1437.8804,-657.6427 1427.6485,-660.392 1431.5962,-666.1726"/>
</g>
<!-- Node4 -->
<g id="node5" class="node">
<title>Node4</title>
<g id="a_node5"><a xlink:href="ir_2module_8h.html" target="_top" xlink:title="IRModule that holds the functions and type definitions. ">
<polygon fill="#ffffff" stroke="#000000" points="1404.5,-582.5 1404.5,-601.5 1499.5,-601.5 1499.5,-582.5 1404.5,-582.5"/>
<text text-anchor="middle" x="1452" y="-589.5" font-family="Helvetica,sans-Serif" font-size="10.00" fill="#000000">tvm/ir/module.h</text>
</a>
</g>
</g>
<!-- Node2&#45;&gt;Node4 -->
<g id="edge122" class="edge">
<title>Node2&#45;&gt;Node4</title>
<path fill="none" stroke="#191970" d="M1370.8295,-694.1967C1372.4029,-680.5077 1376.8378,-655.3938 1389,-638 1397.9925,-625.1394 1411.7518,-614.4967 1424.1202,-606.6989"/>
<polygon fill="#191970" stroke="#191970" points="1425.9926,-609.6575 1432.7925,-601.5327 1422.4101,-603.6437 1425.9926,-609.6575"/>
</g>
<!-- Node19 -->
<g id="node14" class="node">
<title>Node19</title>
<polygon fill="#ffffff" stroke="#bfbfbf" points="2455,-.5 2455,-19.5 2499,-19.5 2499,-.5 2455,-.5"/>
<text text-anchor="middle" x="2477" y="-7.5" font-family="Helvetica,sans-Serif" font-size="10.00" fill="#000000">string</text>
</g>
<!-- Node2&#45;&gt;Node19 -->
<g id="edge129" class="edge">
<title>Node2&#45;&gt;Node19</title>
<path fill="none" stroke="#191970" d="M1423.2631,-703.5585C1609.2417,-701.2853 2246.5394,-687.3419 2764,-602 2883.3324,-582.3192 3028,-656.9444 3028,-536 3028,-536 3028,-536 3028,-178 3028,-86.7979 2947.7756,-89.6292 2863,-56 2798.7604,-30.5171 2590.2552,-16.3664 2509.4299,-11.7258"/>
<polygon fill="#191970" stroke="#191970" points="2509.5208,-8.2255 2499.34,-11.1581 2509.1275,-15.2144 2509.5208,-8.2255"/>
</g>
<!-- Node21 -->
<g id="node16" class="node">
<title>Node21</title>
<polygon fill="#ffffff" stroke="#bfbfbf" points="300.5,-.5 300.5,-19.5 345.5,-19.5 345.5,-.5 300.5,-.5"/>
<text text-anchor="middle" x="323" y="-7.5" font-family="Helvetica,sans-Serif" font-size="10.00" fill="#000000">utility</text>
</g>
<!-- Node2&#45;&gt;Node21 -->
<g id="edge130" class="edge">
<title>Node2&#45;&gt;Node21</title>
<path fill="none" stroke="#191970" d="M1316.7006,-701.3797C1199.6275,-695.3096 923.2014,-679.1708 832,-658 637.7126,-612.8996 38,-438.9534 38,-239.5 38,-239.5 38,-239.5 38,-122 38,-83.2415 61.5346,-75.5522 95,-56 127.7688,-36.8547 235.3375,-21.0245 290.1954,-13.963"/>
<polygon fill="#191970" stroke="#191970" points="290.9445,-17.3962 300.4264,-12.6692 290.0663,-10.4515 290.9445,-17.3962"/>
</g>
<!-- Node37 -->
<g id="node19" class="node">
<title>Node37</title>
<g id="a_node19"><a xlink:href="array_8h.html" target="_top" xlink:title="Runtime Array container types. ">
<polygon fill="#ffffff" stroke="#000000" points="826,-291.5 826,-321.5 952,-321.5 952,-291.5 826,-291.5"/>
<text text-anchor="start" x="834" y="-309.5" font-family="Helvetica,sans-Serif" font-size="10.00" fill="#000000">tvm/runtime/container</text>
<text text-anchor="middle" x="889" y="-298.5" font-family="Helvetica,sans-Serif" font-size="10.00" fill="#000000">/array.h</text>
</a>
</g>
</g>
<!-- Node2&#45;&gt;Node37 -->
<g id="edge123" class="edge">
<title>Node2&#45;&gt;Node37</title>
<path fill="none" stroke="#191970" d="M1316.8151,-701.1576C1220.5127,-695.5056 1021.1888,-681.3479 956,-658 870.1194,-627.2411 827.4783,-626.1949 784,-546 756.0385,-494.4255 761.8684,-468.3321 784,-414 798.7665,-377.749 832.2916,-347.0642 857.5146,-327.8734"/>
<polygon fill="#191970" stroke="#191970" points="859.7502,-330.5733 865.7111,-321.8144 855.5892,-324.9443 859.7502,-330.5733"/>
</g>
<!-- Node31 -->
<g id="node26" class="node">
<title>Node31</title>
<g id="a_node26"><a xlink:href="string_8h.html" target="_top" xlink:title="Runtime String container types. ">
<polygon fill="#ffffff" stroke="#000000" points="836,-224.5 836,-254.5 962,-254.5 962,-224.5 836,-224.5"/>
<text text-anchor="start" x="844" y="-242.5" font-family="Helvetica,sans-Serif" font-size="10.00" fill="#000000">tvm/runtime/container</text>
<text text-anchor="middle" x="899" y="-231.5" font-family="Helvetica,sans-Serif" font-size="10.00" fill="#000000">/string.h</text>
</a>
</g>
</g>
<!-- Node2&#45;&gt;Node31 -->
<g id="edge124" class="edge">
<title>Node2&#45;&gt;Node31</title>
<path fill="none" stroke="#191970" d="M1316.9816,-701.7495C1209.9177,-696.7365 971.5133,-683.0716 894,-658 796.0163,-626.3073 494,-526.9817 494,-424 494,-424 494,-424 494,-368 494,-310.8444 544.4777,-313.5427 597,-291 637.1101,-273.7846 749.9269,-257.4747 825.7332,-247.9856"/>
<polygon fill="#191970" stroke="#191970" points="826.2164,-251.4526 835.71,-246.7493 825.3555,-244.5057 826.2164,-251.4526"/>
</g>
<!-- Node64 -->
<g id="node39" class="node">
<title>Node64</title>
<g id="a_node39"><a xlink:href="instrument_8h.html" target="_top" xlink:title="tvm/ir/instrument.h">
<polygon fill="#ffffff" stroke="#000000" points="1122.5,-297 1122.5,-316 1233.5,-316 1233.5,-297 1122.5,-297"/>
<text text-anchor="middle" x="1178" y="-304" font-family="Helvetica,sans-Serif" font-size="10.00" fill="#000000">tvm/ir/instrument.h</text>
</a>
</g>
</g>
<!-- Node2&#45;&gt;Node64 -->
<g id="edge117" class="edge">
<title>Node2&#45;&gt;Node64</title>
<path fill="none" stroke="#191970" d="M1316.8175,-701.2128C1204.9947,-694.0327 952.1635,-670.4032 908,-602 829.1505,-479.873 1059.4473,-360.025 1146.3077,-320.2779"/>
<polygon fill="#191970" stroke="#191970" points="1148.0116,-323.3489 1155.6854,-316.0438 1145.131,-316.969 1148.0116,-323.3489"/>
</g>
<!-- Node65 -->
<g id="node40" class="node">
<title>Node65</title>
<g id="a_node40"><a xlink:href="with_8h.html" target="_top" xlink:title="RAII wrapper function to enter and exit a context object similar to python&#39;s with syntax...">
<polygon fill="#ffffff" stroke="#000000" points="1886.5,-470.5 1886.5,-489.5 1995.5,-489.5 1995.5,-470.5 1886.5,-470.5"/>
<text text-anchor="middle" x="1941" y="-477.5" font-family="Helvetica,sans-Serif" font-size="10.00" fill="#000000">tvm/support/with.h</text>
</a>
</g>
</g>
<!-- Node2&#45;&gt;Node65 -->
<g id="edge125" class="edge">
<title>Node2&#45;&gt;Node65</title>
<path fill="none" stroke="#191970" d="M1402.8167,-694.4949C1432.3896,-685.7156 1476.9392,-671.9578 1515,-658 1665.626,-602.7619 1841.1312,-525.0884 1910.533,-493.8295"/>
<polygon fill="#191970" stroke="#191970" points="1912.3123,-496.8665 1919.9871,-489.5625 1909.4326,-490.4862 1912.3123,-496.8665"/>
</g>
<!-- Node3&#45;&gt;Node4 -->
<g id="edge4" class="edge">
<title>Node3&#45;&gt;Node4</title>
<path fill="none" stroke="#191970" d="M1452,-638.2455C1452,-630.9382 1452,-620.6944 1452,-611.7046"/>
<polygon fill="#191970" stroke="#191970" points="1455.5001,-611.6426 1452,-601.6427 1448.5001,-611.6427 1455.5001,-611.6426"/>
</g>
<!-- Node3&#45;&gt;Node19 -->
<g id="edge116" class="edge">
<title>Node3&#45;&gt;Node19</title>
<path fill="none" stroke="#191970" d="M1506.2866,-645.0029C1701.0832,-633.9454 2364.2643,-593.603 2571,-546 2639.5356,-530.219 2658.9753,-526.6498 2719,-490 2844.8563,-413.1548 2865.6933,-299.5181 2799,-168 2742.8791,-57.3305 2579.0252,-23.218 2509.1611,-13.534"/>
<polygon fill="#191970" stroke="#191970" points="2509.5413,-10.054 2499.1721,-12.2287 2508.6343,-16.995 2509.5413,-10.054"/>
</g>
<!-- Node63 -->
<g id="node38" class="node">
<title>Node63</title>
<polygon fill="#ffffff" stroke="#bfbfbf" points="940,-582.5 940,-601.5 996,-601.5 996,-582.5 940,-582.5"/>
<text text-anchor="middle" x="968" y="-589.5" font-family="Helvetica,sans-Serif" font-size="10.00" fill="#000000">sstream</text>
</g>
<!-- Node3&#45;&gt;Node63 -->
<g id="edge115" class="edge">
<title>Node3&#45;&gt;Node63</title>
<path fill="none" stroke="#191970" d="M1397.9417,-644.6487C1314.332,-638.9543 1148.8005,-625.6433 1010,-602 1008.7531,-601.7876 1007.4881,-601.5598 1006.2128,-601.3194"/>
<polygon fill="#191970" stroke="#191970" points="1006.8655,-597.8804 996.3637,-599.2815 1005.447,-604.7352 1006.8655,-597.8804"/>
</g>
<!-- Node5 -->
<g id="node6" class="node">
<title>Node5</title>
<g id="a_node6"><a xlink:href="ir_2adt_8h.html" target="_top" xlink:title="Algebraic data type definitions. ">
<polygon fill="#ffffff" stroke="#ff0000" points="1642,-470.5 1642,-489.5 1716,-489.5 1716,-470.5 1642,-470.5"/>
<text text-anchor="middle" x="1679" y="-477.5" font-family="Helvetica,sans-Serif" font-size="10.00" fill="#000000">tvm/ir/adt.h</text>
</a>
</g>
</g>
<!-- Node4&#45;&gt;Node5 -->
<g id="edge5" class="edge">
<title>Node4&#45;&gt;Node5</title>
<path fill="none" stroke="#191970" d="M1478.7367,-582.467C1502.147,-573.8254 1536.8757,-560.2875 1566,-546 1597.9102,-530.3458 1633.0199,-509.1762 1655.5014,-495.0785"/>
<polygon fill="#191970" stroke="#191970" points="1657.4493,-497.9879 1664.0332,-489.6871 1653.7098,-492.0704 1657.4493,-497.9879"/>
</g>
<!-- Node6 -->
<g id="node7" class="node">
<title>Node6</title>
<g id="a_node7"><a xlink:href="ir_2expr_8h.html" target="_top" xlink:title="Base expr nodes in TVM. ">
<polygon fill="#ffffff" stroke="#000000" points="1898.5,-414.5 1898.5,-433.5 1977.5,-433.5 1977.5,-414.5 1898.5,-414.5"/>
<text text-anchor="middle" x="1938" y="-421.5" font-family="Helvetica,sans-Serif" font-size="10.00" fill="#000000">tvm/ir/expr.h</text>
</a>
</g>
</g>
<!-- Node4&#45;&gt;Node6 -->
<g id="edge83" class="edge">
<title>Node4&#45;&gt;Node6</title>
<path fill="none" stroke="#191970" d="M1499.6489,-587.3248C1567.0214,-580.1498 1686.2437,-565.2136 1725,-546 1769.2286,-524.0735 1763.7721,-495.5684 1806,-470 1831.3826,-454.6312 1862.6303,-443.4498 1888.3504,-435.9618"/>
<polygon fill="#191970" stroke="#191970" points="1889.5934,-439.2481 1898.2741,-433.1739 1887.7001,-432.509 1889.5934,-439.2481"/>
</g>
<!-- Node7 -->
<g id="node8" class="node">
<title>Node7</title>
<g id="a_node8"><a xlink:href="source__map_8h.html" target="_top" xlink:title="A map from source names to source code. ">
<polygon fill="#ffffff" stroke="#ff0000" points="1765.5,-297 1765.5,-316 1882.5,-316 1882.5,-297 1765.5,-297"/>
<text text-anchor="middle" x="1824" y="-304" font-family="Helvetica,sans-Serif" font-size="10.00" fill="#000000">tvm/ir/source_map.h</text>
</a>
</g>
</g>
<!-- Node4&#45;&gt;Node7 -->
<g id="edge105" class="edge">
<title>Node4&#45;&gt;Node7</title>
<path fill="none" stroke="#191970" d="M1464.8051,-582.1724C1519.5817,-540.1329 1734.501,-375.1881 1802.9435,-322.6603"/>
<polygon fill="#191970" stroke="#191970" points="1805.4467,-325.1511 1811.2488,-316.2862 1801.1849,-319.5981 1805.4467,-325.1511"/>
</g>
<!-- Node4&#45;&gt;Node19 -->
<g id="edge110" class="edge">
<title>Node4&#45;&gt;Node19</title>
<path fill="none" stroke="#191970" d="M1499.6103,-590.5426C1700.6595,-584.3125 2472.1117,-559.6171 2522,-546 2679.3286,-503.0569 2800,-469.584 2800,-306.5 2800,-306.5 2800,-306.5 2800,-239.5 2800,-97.9562 2591.334,-35.6833 2509.4354,-16.693"/>
<polygon fill="#191970" stroke="#191970" points="2509.7251,-13.1709 2499.2011,-14.3936 2508.1906,-20.0007 2509.7251,-13.1709"/>
</g>
<!-- Node4&#45;&gt;Node21 -->
<g id="edge113" class="edge">
<title>Node4&#45;&gt;Node21</title>
<path fill="none" stroke="#191970" d="M1404.2244,-589.594C1286.7582,-583.4386 986.2801,-566.1745 888,-546 811.3149,-530.2584 794.3401,-517.3793 721,-490 464.2865,-394.1637 350.1935,-443.1711 151,-255 123.3997,-228.927 114,-215.9681 114,-178 114,-178 114,-178 114,-122 114,-43.1351 231.044,-19.5842 289.9536,-12.7254"/>
<polygon fill="#191970" stroke="#191970" points="290.6628,-16.1697 300.2355,-11.6294 289.9208,-9.2091 290.6628,-16.1697"/>
</g>
<!-- Node23 -->
<g id="node17" class="node">
<title>Node23</title>
<polygon fill="#ffffff" stroke="#bfbfbf" points="1572.5,-112.5 1572.5,-131.5 1619.5,-131.5 1619.5,-112.5 1572.5,-112.5"/>
<text text-anchor="middle" x="1596" y="-119.5" font-family="Helvetica,sans-Serif" font-size="10.00" fill="#000000">vector</text>
</g>
<!-- Node4&#45;&gt;Node23 -->
<g id="edge114" class="edge">
<title>Node4&#45;&gt;Node23</title>
<path fill="none" stroke="#191970" d="M1452,-582.4116C1452,-563.0538 1452,-517.9167 1452,-480 1452,-480 1452,-480 1452,-424 1452,-362.4917 1550.5529,-196.0654 1584.5967,-140.4106"/>
<polygon fill="#191970" stroke="#191970" points="1587.739,-141.9822 1589.9958,-131.6305 1581.7762,-138.3155 1587.739,-141.9822"/>
</g>
<!-- Node57 -->
<g id="node18" class="node">
<title>Node57</title>
<g id="a_node18"><a xlink:href="ir_2type_8h.html" target="_top" xlink:title="IR/AST nodes for the unified type system in TVM. ">
<polygon fill="#ffffff" stroke="#ff0000" points="2108,-358.5 2108,-377.5 2188,-377.5 2188,-358.5 2108,-358.5"/>
<text text-anchor="middle" x="2148" y="-365.5" font-family="Helvetica,sans-Serif" font-size="10.00" fill="#000000">tvm/ir/type.h</text>
</a>
</g>
</g>
<!-- Node4&#45;&gt;Node57 -->
<g id="edge106" class="edge">
<title>Node4&#45;&gt;Node57</title>
<path fill="none" stroke="#191970" d="M1499.7423,-590.6666C1667.0893,-585.8091 2218.6431,-568.1772 2249,-546 2298.822,-509.6025 2328.3906,-463.827 2292,-414 2280.6811,-398.5019 2235.2975,-385.6985 2198.4649,-377.5691"/>
<polygon fill="#191970" stroke="#191970" points="2198.8495,-374.0722 2188.3384,-375.4017 2197.3844,-380.9171 2198.8495,-374.0722"/>
</g>
<!-- Node4&#45;&gt;Node37 -->
<g id="edge107" class="edge">
<title>Node4&#45;&gt;Node37</title>
<path fill="none" stroke="#191970" d="M1404.1698,-588.8857C1303.1902,-581.9829 1075.0284,-564.535 1045,-546 962.2135,-494.9001 914.7338,-381.5999 897.0373,-331.3407"/>
<polygon fill="#191970" stroke="#191970" points="900.2596,-329.9466 893.7112,-321.6179 893.6365,-332.2125 900.2596,-329.9466"/>
</g>
<!-- Node4&#45;&gt;Node31 -->
<g id="edge109" class="edge">
<title>Node4&#45;&gt;Node31</title>
<path fill="none" stroke="#191970" d="M1404.4145,-590.8275C1306.1116,-587.7863 1084.1202,-577.5412 1016,-546 892.7166,-488.9169 842.8703,-453.3063 808,-322 804.4637,-308.6838 801.0598,-302.9022 808,-291 815.9511,-277.3641 828.9995,-267.0498 842.7651,-259.3739"/>
<polygon fill="#191970" stroke="#191970" points="844.5694,-262.382 851.8683,-254.7023 841.3734,-256.1542 844.5694,-262.382"/>
</g>
<!-- Node36 -->
<g id="node30" class="node">
<title>Node36</title>
<polygon fill="#ffffff" stroke="#bfbfbf" points="1284.5,-168.5 1284.5,-187.5 1377.5,-187.5 1377.5,-168.5 1284.5,-168.5"/>
<text text-anchor="middle" x="1331" y="-175.5" font-family="Helvetica,sans-Serif" font-size="10.00" fill="#000000">unordered_map</text>
</g>
<!-- Node4&#45;&gt;Node36 -->
<g id="edge111" class="edge">
<title>Node4&#45;&gt;Node36</title>
<path fill="none" stroke="#191970" d="M1419.1287,-582.4862C1379.6167,-569.0804 1315.1228,-540.4475 1287,-490 1231.8045,-390.9887 1294.7974,-247.8362 1320.8055,-196.8801"/>
<polygon fill="#191970" stroke="#191970" points="1324.0706,-198.1892 1325.6035,-187.7058 1317.8677,-194.9451 1324.0706,-198.1892"/>
</g>
<!-- Node59 -->
<g id="node32" class="node">
<title>Node59</title>
<g id="a_node32"><a xlink:href="ir_2function_8h.html" target="_top" xlink:title="Function nodes. ">
<polygon fill="#ffffff" stroke="#000000" points="1618,-526.5 1618,-545.5 1716,-545.5 1716,-526.5 1618,-526.5"/>
<text text-anchor="middle" x="1667" y="-533.5" font-family="Helvetica,sans-Serif" font-size="10.00" fill="#000000">tvm/ir/function.h</text>
</a>
</g>
</g>
<!-- Node4&#45;&gt;Node59 -->
<g id="edge84" class="edge">
<title>Node4&#45;&gt;Node59</title>
<path fill="none" stroke="#191970" d="M1488.9598,-582.3733C1525.4075,-572.8799 1581.2246,-558.3415 1620.6289,-548.0781"/>
<polygon fill="#191970" stroke="#191970" points="1621.7276,-551.4087 1630.5225,-545.5011 1619.9631,-544.6348 1621.7276,-551.4087"/>
</g>
<!-- Node47 -->
<g id="node36" class="node">
<title>Node47</title>
<g id="a_node36"><a xlink:href="map_8h.html" target="_top" xlink:title="Runtime Map container types. ">
<polygon fill="#ffffff" stroke="#000000" points="606,-291.5 606,-321.5 732,-321.5 732,-291.5 606,-291.5"/>
<text text-anchor="start" x="614" y="-309.5" font-family="Helvetica,sans-Serif" font-size="10.00" fill="#000000">tvm/runtime/container</text>
<text text-anchor="middle" x="669" y="-298.5" font-family="Helvetica,sans-Serif" font-size="10.00" fill="#000000">/map.h</text>
</a>
</g>
</g>
<!-- Node4&#45;&gt;Node47 -->
<g id="edge108" class="edge">
<title>Node4&#45;&gt;Node47</title>
<path fill="none" stroke="#191970" d="M1404.2069,-589.6977C1317.8234,-585.0275 1130.1615,-572.5479 974,-546 967.5707,-544.907 751.3539,-493.7238 746,-490 693.1466,-453.2387 676.4395,-372.7652 671.2608,-331.6961"/>
<polygon fill="#191970" stroke="#191970" points="674.7309,-331.2336 670.131,-321.6894 667.7751,-332.019 674.7309,-331.2336"/>
</g>
<!-- Node62 -->
<g id="node37" class="node">
<title>Node62</title>
<polygon fill="#ffffff" stroke="#bfbfbf" points="1054,-526.5 1054,-545.5 1140,-545.5 1140,-526.5 1054,-526.5"/>
<text text-anchor="middle" x="1097" y="-533.5" font-family="Helvetica,sans-Serif" font-size="10.00" fill="#000000">unordered_set</text>
</g>
<!-- Node4&#45;&gt;Node62 -->
<g id="edge112" class="edge">
<title>Node4&#45;&gt;Node62</title>
<path fill="none" stroke="#191970" d="M1404.4694,-584.9704C1345.615,-576.1952 1242.324,-560.5631 1154,-546 1152.7454,-545.7931 1151.4755,-545.5823 1150.1949,-545.3683"/>
<polygon fill="#191970" stroke="#191970" points="1150.6882,-541.9021 1140.2441,-543.6826 1149.519,-548.8038 1150.6882,-541.9021"/>
</g>
<!-- Node5&#45;&gt;Node6 -->
<g id="edge6" class="edge">
<title>Node5&#45;&gt;Node6</title>
<path fill="none" stroke="#191970" d="M1716.1084,-471.9766C1761.3857,-462.1869 1838.1041,-445.5991 1888.4101,-434.7221"/>
<polygon fill="#191970" stroke="#191970" points="1889.378,-438.0938 1898.4124,-432.5595 1887.8986,-431.2519 1889.378,-438.0938"/>
</g>
<!-- Node8 -->
<g id="node9" class="node">
<title>Node8</title>
<g id="a_node9"><a xlink:href="node_8h.html" target="_top" xlink:title="Definitions and helper macros for IR/AST nodes. ">
<polygon fill="#ffffff" stroke="#ff0000" points="1928.5,-230 1928.5,-249 2027.5,-249 2027.5,-230 1928.5,-230"/>
<text text-anchor="middle" x="1978" y="-237" font-family="Helvetica,sans-Serif" font-size="10.00" fill="#000000">tvm/node/node.h</text>
</a>
</g>
</g>
<!-- Node5&#45;&gt;Node8 -->
<g id="edge78" class="edge">
<title>Node5&#45;&gt;Node8</title>
<path fill="none" stroke="#191970" d="M1693.0743,-470.3802C1727.7248,-446.5129 1819.534,-382.1541 1891,-322 1916.6865,-300.3792 1944.5422,-273.2524 1961.6364,-256.1409"/>
<polygon fill="#191970" stroke="#191970" points="1964.1251,-258.6019 1968.6869,-249.0394 1959.1575,-253.67 1964.1251,-258.6019"/>
</g>
<!-- Node13 -->
<g id="node12" class="node">
<title>Node13</title>
<g id="a_node12"><a xlink:href="object_8h.html" target="_top" xlink:title="A managed object in the TVM runtime. ">
<polygon fill="#ffffff" stroke="#ff0000" points="1803.5,-56.5 1803.5,-75.5 1922.5,-75.5 1922.5,-56.5 1803.5,-56.5"/>
<text text-anchor="middle" x="1863" y="-63.5" font-family="Helvetica,sans-Serif" font-size="10.00" fill="#000000">tvm/runtime/object.h</text>
</a>
</g>
</g>
<!-- Node5&#45;&gt;Node13 -->
<g id="edge81" class="edge">
<title>Node5&#45;&gt;Node13</title>
<path fill="none" stroke="#191970" d="M1670.263,-470.455C1629.5622,-424.8485 1464.6131,-226.6228 1563,-112 1577.8405,-94.7105 1709.5813,-79.7849 1793.4781,-71.9218"/>
<polygon fill="#191970" stroke="#191970" points="1793.8261,-75.4046 1803.4611,-70.9982 1793.1812,-68.4344 1793.8261,-75.4046"/>
</g>
<!-- Node5&#45;&gt;Node19 -->
<g id="edge82" class="edge">
<title>Node5&#45;&gt;Node19</title>
<path fill="none" stroke="#191970" d="M1716.0405,-471.6754C1750.2546,-463.5466 1802.2463,-450.074 1846,-434 1865.7843,-426.7317 1868.7197,-419.7408 1889,-414 2021.6102,-376.4619 2062.6114,-408.5659 2197,-378 2271.693,-361.0115 2293.3475,-359.7505 2360,-322 2409.5404,-293.9414 2458,-296.4344 2458,-239.5 2458,-239.5 2458,-239.5 2458,-122 2458,-89.2688 2465.9852,-51.9052 2471.6022,-29.6716"/>
<polygon fill="#191970" stroke="#191970" points="2475.0415,-30.3545 2474.1965,-19.7934 2468.2711,-28.5763 2475.0415,-30.3545"/>
</g>
<!-- Node5&#45;&gt;Node57 -->
<g id="edge77" class="edge">
<title>Node5&#45;&gt;Node57</title>
<path fill="none" stroke="#191970" d="M1707.0875,-470.4585C1733.3246,-461.4337 1773.5108,-447.324 1808,-434 1829.5583,-425.6715 1833.7606,-420.2873 1856,-414 1938.9247,-390.5563 2038.695,-378.0762 2097.534,-372.2635"/>
<polygon fill="#191970" stroke="#191970" points="2098.0583,-375.7294 2107.6772,-371.2877 2097.3879,-368.7615 2098.0583,-375.7294"/>
</g>
<!-- Node5&#45;&gt;Node37 -->
<g id="edge79" class="edge">
<title>Node5&#45;&gt;Node37</title>
<path fill="none" stroke="#191970" d="M1641.9715,-473.1938C1558.0643,-457.6304 1347.1224,-417.7132 1172,-378 1097.4053,-361.0839 1012.3939,-339.2598 955.1805,-324.1958"/>
<polygon fill="#191970" stroke="#191970" points="955.7459,-320.7253 945.1838,-321.5581 953.9599,-327.4936 955.7459,-320.7253"/>
</g>
<!-- Node5&#45;&gt;Node31 -->
<g id="edge80" class="edge">
<title>Node5&#45;&gt;Node31</title>
<path fill="none" stroke="#191970" d="M1641.8797,-470.9499C1550.891,-448.4833 1309.8249,-387.2452 1113,-322 1108.8518,-320.6249 1009.6991,-282.3168 947.8322,-258.3918"/>
<polygon fill="#191970" stroke="#191970" points="948.8326,-255.0261 938.2433,-254.6833 946.3076,-261.5549 948.8326,-255.0261"/>
</g>
<!-- Node6&#45;&gt;Node7 -->
<g id="edge7" class="edge">
<title>Node6&#45;&gt;Node7</title>
<path fill="none" stroke="#191970" d="M1936.4734,-414.4476C1933.8373,-400.61 1927.2782,-374.8095 1913,-358 1898.7297,-341.1999 1877.5202,-328.6251 1859.3854,-320.108"/>
<polygon fill="#191970" stroke="#191970" points="1860.7935,-316.9038 1850.2353,-316.0232 1857.9399,-323.2957 1860.7935,-316.9038"/>
</g>
<!-- Node6&#45;&gt;Node8 -->
<g id="edge54" class="edge">
<title>Node6&#45;&gt;Node8</title>
<path fill="none" stroke="#191970" d="M1940.0943,-414.3402C1946.3989,-385.26 1965.2876,-298.136 1973.7813,-258.959"/>
<polygon fill="#191970" stroke="#191970" points="1977.2281,-259.5787 1975.9265,-249.0641 1970.3871,-258.0955 1977.2281,-259.5787"/>
</g>
<!-- Node6&#45;&gt;Node13 -->
<g id="edge72" class="edge">
<title>Node6&#45;&gt;Node13</title>
<path fill="none" stroke="#191970" d="M1898.1834,-414.6313C1854.3151,-401.9252 1786.0074,-374.5215 1756,-322 1707.2847,-236.7344 1804.0103,-124.9269 1845.4306,-82.9208"/>
<polygon fill="#191970" stroke="#191970" points="1848.0741,-85.2281 1852.6962,-75.6946 1843.1378,-80.2649 1848.0741,-85.2281"/>
</g>
<!-- Node6&#45;&gt;Node19 -->
<g id="edge75" class="edge">
<title>Node6&#45;&gt;Node19</title>
<path fill="none" stroke="#191970" d="M1977.5321,-415.6603C1980.7299,-415.0687 1983.9157,-414.5067 1987,-414 2095.2485,-396.2158 2405.1814,-409.0017 2472,-322 2540.6871,-232.5653 2500.9781,-82.2891 2483.7378,-29.2458"/>
<polygon fill="#191970" stroke="#191970" points="2487.0397,-28.0837 2480.5373,-19.7189 2480.4041,-30.3129 2487.0397,-28.0837"/>
</g>
<!-- Node20 -->
<g id="node15" class="node">
<title>Node20</title>
<polygon fill="#ffffff" stroke="#bfbfbf" points="2822.5,-.5 2822.5,-19.5 2891.5,-19.5 2891.5,-.5 2822.5,-.5"/>
<text text-anchor="middle" x="2857" y="-7.5" font-family="Helvetica,sans-Serif" font-size="10.00" fill="#000000">type_traits</text>
</g>
<!-- Node6&#45;&gt;Node20 -->
<g id="edge76" class="edge">
<title>Node6&#45;&gt;Node20</title>
<path fill="none" stroke="#191970" d="M1977.5123,-415.5323C1980.7145,-414.9694 1983.9068,-414.4489 1987,-414 2169.3411,-387.5353 2224.5195,-434.1716 2400,-378 2531.1673,-336.0131 2732.8919,-187.4118 2825,-76 2836.5091,-62.0789 2845.0884,-43.3224 2850.4512,-29.3627"/>
<polygon fill="#191970" stroke="#191970" points="2853.8065,-30.3764 2853.9205,-19.7822 2847.2247,-27.993 2853.8065,-30.3764"/>
</g>
<!-- Node6&#45;&gt;Node57 -->
<g id="edge32" class="edge">
<title>Node6&#45;&gt;Node57</title>
<path fill="none" stroke="#191970" d="M1974.1003,-414.3733C2009.6248,-404.9001 2063.988,-390.4032 2102.4619,-380.1435"/>
<polygon fill="#191970" stroke="#191970" points="2103.6103,-383.4596 2112.3708,-377.5011 2101.8066,-376.696 2103.6103,-383.4596"/>
</g>
<!-- Node29 -->
<g id="node20" class="node">
<title>Node29</title>
<polygon fill="#ffffff" stroke="#bfbfbf" points="973,-112.5 973,-131.5 1037,-131.5 1037,-112.5 973,-112.5"/>
<text text-anchor="middle" x="1005" y="-119.5" font-family="Helvetica,sans-Serif" font-size="10.00" fill="#000000">algorithm</text>
</g>
<!-- Node6&#45;&gt;Node29 -->
<g id="edge73" class="edge">
<title>Node6&#45;&gt;Node29</title>
<path fill="none" stroke="#191970" d="M1898.2958,-420.2993C1832.8982,-413.7075 1705.7961,-398.6605 1666,-378 1549.4096,-317.471 1576.5335,-224.6295 1458,-168 1385.9106,-133.5592 1145.24,-124.8278 1047.1521,-122.6782"/>
<polygon fill="#191970" stroke="#191970" points="1047.0832,-119.1762 1037.0129,-122.4686 1046.9384,-126.1747 1047.0832,-119.1762"/>
</g>
<!-- Node6&#45;&gt;Node31 -->
<g id="edge55" class="edge">
<title>Node6&#45;&gt;Node31</title>
<path fill="none" stroke="#191970" d="M1898.2049,-419.0581C1839.056,-411.4952 1724.541,-396.0165 1628,-378 1455.1255,-345.7381 1414.8467,-323.4106 1242,-291 1149.346,-273.6264 1041.7429,-258.2424 972.1235,-248.9118"/>
<polygon fill="#191970" stroke="#191970" points="972.5087,-245.4323 962.1337,-247.5796 971.5833,-252.3708 972.5087,-245.4323"/>
</g>
<!-- Node50 -->
<g id="node31" class="node">
<title>Node50</title>
<polygon fill="#ffffff" stroke="#bfbfbf" points="1860,-358.5 1860,-377.5 1904,-377.5 1904,-358.5 1860,-358.5"/>
<text text-anchor="middle" x="1882" y="-365.5" font-family="Helvetica,sans-Serif" font-size="10.00" fill="#000000">limits</text>
</g>
<!-- Node6&#45;&gt;Node50 -->
<g id="edge74" class="edge">
<title>Node6&#45;&gt;Node50</title>
<path fill="none" stroke="#191970" d="M1928.2455,-414.2455C1920.1352,-406.1352 1908.4075,-394.4075 1898.7919,-384.7919"/>
<polygon fill="#191970" stroke="#191970" points="1901.1887,-382.2389 1891.6427,-377.6427 1896.2389,-387.1887 1901.1887,-382.2389"/>
</g>
<!-- Node7&#45;&gt;Node8 -->
<g id="edge8" class="edge">
<title>Node7&#45;&gt;Node8</title>
<path fill="none" stroke="#191970" d="M1846.0644,-296.9005C1872.3665,-285.4574 1916.5128,-266.2509 1946.4245,-253.2374"/>
<polygon fill="#191970" stroke="#191970" points="1948.203,-256.2806 1955.9765,-249.0817 1945.4104,-249.8617 1948.203,-256.2806"/>
</g>
<!-- Node7&#45;&gt;Node13 -->
<g id="edge28" class="edge">
<title>Node7&#45;&gt;Node13</title>
<path fill="none" stroke="#191970" d="M1827.4731,-296.7863C1830.935,-286.5493 1836.0138,-269.878 1838,-255 1843.1166,-216.6734 1839.6069,-206.6333 1838,-168 1837.3328,-151.9584 1835.6672,-148.0416 1835,-132 1834.6306,-123.1188 1832.6,-120.5588 1835,-112 1837.7878,-102.0584 1843.3812,-92.1336 1848.8407,-84.0613"/>
<polygon fill="#191970" stroke="#191970" points="1851.7676,-85.9866 1854.7911,-75.8323 1846.0952,-81.8849 1851.7676,-85.9866"/>
</g>
<!-- Node7&#45;&gt;Node19 -->
<g id="edge29" class="edge">
<title>Node7&#45;&gt;Node19</title>
<path fill="none" stroke="#191970" d="M1882.6405,-299.9234C1907.9659,-297.1169 1937.9362,-293.8407 1965,-291 2044.9598,-282.6073 2264.2529,-307.6668 2325,-255 2351.6328,-231.9097 2344,-213.2487 2344,-178 2344,-178 2344,-178 2344,-122 2344,-90.7875 2346.4945,-78.6216 2368,-56 2388.5557,-34.3776 2420.8751,-22.4831 2444.9919,-16.2383"/>
<polygon fill="#191970" stroke="#191970" points="2445.858,-19.6299 2454.7672,-13.896 2444.2269,-12.8226 2445.858,-19.6299"/>
</g>
<!-- Node7&#45;&gt;Node21 -->
<g id="edge30" class="edge">
<title>Node7&#45;&gt;Node21</title>
<path fill="none" stroke="#191970" d="M1818.1807,-296.5571C1797.5758,-262.494 1724.1301,-150.4854 1628,-112 1541.1699,-77.2379 880.1342,-84.5961 787,-76 624.4432,-60.9964 431.687,-28.9716 355.9128,-15.8209"/>
<polygon fill="#191970" stroke="#191970" points="356.0521,-12.2924 345.5994,-14.0218 354.8492,-19.1882 356.0521,-12.2924"/>
</g>
<!-- Node7&#45;&gt;Node23 -->
<g id="edge31" class="edge">
<title>Node7&#45;&gt;Node23</title>
<path fill="none" stroke="#191970" d="M1812.0627,-296.8402C1775.0489,-266.8883 1661.941,-175.3601 1615.856,-138.0677"/>
<polygon fill="#191970" stroke="#191970" points="1617.7944,-135.1339 1607.8191,-131.5641 1613.3911,-140.5755 1617.7944,-135.1339"/>
</g>
<!-- Node9 -->
<g id="node10" class="node">
<title>Node9</title>
<g id="a_node10"><a xlink:href="reflection_8h.html" target="_top" xlink:title="Reflection and serialization of compiler IR/AST nodes. ">
<polygon fill="#ffffff" stroke="#ff0000" points="2004.5,-168.5 2004.5,-187.5 2125.5,-187.5 2125.5,-168.5 2004.5,-168.5"/>
<text text-anchor="middle" x="2065" y="-175.5" font-family="Helvetica,sans-Serif" font-size="10.00" fill="#000000">tvm/node/reflection.h</text>
</a>
</g>
</g>
<!-- Node8&#45;&gt;Node9 -->
<g id="edge9" class="edge">
<title>Node8&#45;&gt;Node9</title>
<path fill="none" stroke="#191970" d="M1991.5938,-229.8906C2005.3843,-220.1421 2026.9472,-204.8994 2043.141,-193.4521"/>
<polygon fill="#191970" stroke="#191970" points="2045.3563,-196.1723 2051.5017,-187.5419 2041.3156,-190.4563 2045.3563,-196.1723"/>
</g>
<!-- Node27 -->
<g id="node11" class="node">
<title>Node27</title>
<g id="a_node11"><a xlink:href="runtime_2memory_8h.html" target="_top" xlink:title="Runtime memory management. ">
<polygon fill="#ffffff" stroke="#ff0000" points="1844.5,-112.5 1844.5,-131.5 1973.5,-131.5 1973.5,-112.5 1844.5,-112.5"/>
<text text-anchor="middle" x="1909" y="-119.5" font-family="Helvetica,sans-Serif" font-size="10.00" fill="#000000">tvm/runtime/memory.h</text>
</a>
</g>
</g>
<!-- Node8&#45;&gt;Node27 -->
<g id="edge22" class="edge">
<title>Node8&#45;&gt;Node27</title>
<path fill="none" stroke="#191970" d="M1972.3534,-229.8845C1960.8804,-210.3471 1934.6745,-165.7211 1919.8113,-140.4106"/>
<polygon fill="#191970" stroke="#191970" points="1922.8065,-138.5992 1914.7246,-131.7484 1916.7703,-142.1438 1922.8065,-138.5992"/>
</g>
<!-- Node8&#45;&gt;Node13 -->
<g id="edge23" class="edge">
<title>Node8&#45;&gt;Node13</title>
<path fill="none" stroke="#191970" d="M1981.9579,-229.796C1990.5831,-206.9394 2008.354,-148.8721 1983,-112 1974.3113,-99.3642 1940.3548,-87.0353 1910.7711,-78.3269"/>
<polygon fill="#191970" stroke="#191970" points="1911.5258,-74.9025 1900.9488,-75.5172 1909.6006,-81.6325 1911.5258,-74.9025"/>
</g>
<!-- Node8&#45;&gt;Node19 -->
<g id="edge24" class="edge">
<title>Node8&#45;&gt;Node19</title>
<path fill="none" stroke="#191970" d="M2018.3809,-229.934C2050.9183,-221.3694 2097.294,-207.1973 2135,-188 2224.368,-142.5 2227.8419,-99.9136 2318,-56 2359.6114,-35.7322 2411.8028,-22.7588 2444.7887,-15.9241"/>
<polygon fill="#191970" stroke="#191970" points="2445.6692,-19.3173 2454.7858,-13.9193 2444.2928,-12.454 2445.6692,-19.3173"/>
</g>
<!-- Node8&#45;&gt;Node20 -->
<g id="edge25" class="edge">
<title>Node8&#45;&gt;Node20</title>
<path fill="none" stroke="#191970" d="M2027.8931,-233.696C2135.0371,-220.6395 2394.6383,-185.8253 2607,-132 2682.0681,-112.9732 2703.8063,-112.6995 2772,-76 2797.358,-62.3532 2822.9935,-41.2143 2839.38,-26.5519"/>
<polygon fill="#191970" stroke="#191970" points="2842.0273,-28.8744 2847.0556,-19.5488 2837.3093,-23.7033 2842.0273,-28.8744"/>
</g>
<!-- Node8&#45;&gt;Node21 -->
<g id="edge26" class="edge">
<title>Node8&#45;&gt;Node21</title>
<path fill="none" stroke="#191970" d="M1965.8312,-229.7591C1933.6155,-204.63 1842.5007,-137.7816 1754,-112 1598.702,-66.7594 1188.3405,-87.5519 1027,-76 767.978,-57.4542 456.3213,-24.4917 355.8861,-13.6022"/>
<polygon fill="#191970" stroke="#191970" points="356.0811,-10.1028 345.7614,-12.5015 355.3245,-17.0618 356.0811,-10.1028"/>
</g>
<!-- Node8&#45;&gt;Node23 -->
<g id="edge27" class="edge">
<title>Node8&#45;&gt;Node23</title>
<path fill="none" stroke="#191970" d="M1947.0629,-229.984C1876.1533,-208.1728 1702.3848,-154.7231 1629.2739,-132.2348"/>
<polygon fill="#191970" stroke="#191970" points="1630.2339,-128.8683 1619.6469,-129.2736 1628.1759,-135.5589 1630.2339,-128.8683"/>
</g>
<!-- Node9&#45;&gt;Node27 -->
<g id="edge10" class="edge">
<title>Node9&#45;&gt;Node27</title>
<path fill="none" stroke="#191970" d="M2038.1826,-168.3733C2012.4668,-159.1419 1973.462,-145.1402 1945.0401,-134.9375"/>
<polygon fill="#191970" stroke="#191970" points="1946.0619,-131.5857 1935.4674,-131.5011 1943.6968,-138.174 1946.0619,-131.5857"/>
</g>
<!-- Node9&#45;&gt;Node13 -->
<g id="edge18" class="edge">
<title>Node9&#45;&gt;Node13</title>
<path fill="none" stroke="#191970" d="M2060.4128,-168.385C2053.0557,-153.9865 2037.2575,-126.9241 2016,-112 1991.5361,-94.8248 1960.5561,-83.9582 1932.8813,-77.1324"/>
<polygon fill="#191970" stroke="#191970" points="1933.3864,-73.6565 1922.853,-74.7963 1931.7982,-80.4739 1933.3864,-73.6565"/>
</g>
<!-- Node9&#45;&gt;Node19 -->
<g id="edge19" class="edge">
<title>Node9&#45;&gt;Node19</title>
<path fill="none" stroke="#191970" d="M2076.513,-168.3377C2104.7736,-145.143 2180.6214,-86.0183 2254,-56 2318.5587,-29.5899 2400.065,-17.7329 2444.4856,-12.9143"/>
<polygon fill="#191970" stroke="#191970" points="2445.0988,-16.3697 2454.6867,-11.8617 2444.3802,-9.4067 2445.0988,-16.3697"/>
</g>
<!-- Node9&#45;&gt;Node20 -->
<g id="edge20" class="edge">
<title>Node9&#45;&gt;Node20</title>
<path fill="none" stroke="#191970" d="M2125.7693,-175.9461C2217.8471,-171.9963 2397.89,-160.9916 2548,-132 2634.4385,-115.3056 2656.7942,-109.999 2738,-76 2772.6283,-61.5019 2810.1181,-39.5726 2833.5747,-25.0237"/>
<polygon fill="#191970" stroke="#191970" points="2835.5227,-27.9334 2842.1344,-19.6547 2831.8032,-22.0034 2835.5227,-27.9334"/>
</g>
<!-- Node9&#45;&gt;Node23 -->
<g id="edge21" class="edge">
<title>Node9&#45;&gt;Node23</title>
<path fill="none" stroke="#191970" d="M2004.1673,-170.7364C1904.2725,-158.8087 1708.7204,-135.4591 1630.0147,-126.0615"/>
<polygon fill="#191970" stroke="#191970" points="1630.051,-122.541 1619.7065,-124.8306 1629.221,-129.4916 1630.051,-122.541"/>
</g>
<!-- Node27&#45;&gt;Node13 -->
<g id="edge11" class="edge">
<title>Node27&#45;&gt;Node13</title>
<path fill="none" stroke="#191970" d="M1900.9874,-112.2455C1894.5232,-104.3761 1885.2615,-93.101 1877.5017,-83.6542"/>
<polygon fill="#191970" stroke="#191970" points="1879.9727,-81.1484 1870.9208,-75.6427 1874.5636,-85.5916 1879.9727,-81.1484"/>
</g>
<!-- Node27&#45;&gt;Node20 -->
<g id="edge16" class="edge">
<title>Node27&#45;&gt;Node20</title>
<path fill="none" stroke="#191970" d="M1973.7868,-114.3459C2154.19,-93.0324 2659.0942,-33.3813 2812.3378,-15.2766"/>
<polygon fill="#191970" stroke="#191970" points="2812.8156,-18.7445 2822.3358,-14.0953 2811.9942,-11.7929 2812.8156,-18.7445"/>
</g>
<!-- Node27&#45;&gt;Node21 -->
<g id="edge17" class="edge">
<title>Node27&#45;&gt;Node21</title>
<path fill="none" stroke="#191970" d="M1844.3403,-116.2881C1827.3198,-114.8353 1808.972,-113.3144 1792,-112 1217.0621,-67.4724 514.8093,-22.223 355.969,-12.0939"/>
<polygon fill="#191970" stroke="#191970" points="356.0911,-8.5947 345.8888,-11.4517 355.646,-15.5805 356.0911,-8.5947"/>
</g>
<!-- Node18 -->
<g id="node13" class="node">
<title>Node18</title>
<polygon fill="#ffffff" stroke="#bfbfbf" points="856.5,-.5 856.5,-19.5 981.5,-19.5 981.5,-.5 856.5,-.5"/>
<text text-anchor="middle" x="919" y="-7.5" font-family="Helvetica,sans-Serif" font-size="10.00" fill="#000000">tvm/runtime/logging.h</text>
</g>
<!-- Node13&#45;&gt;Node18 -->
<g id="edge12" class="edge">
<title>Node13&#45;&gt;Node18</title>
<path fill="none" stroke="#191970" d="M1803.2324,-62.4545C1637.4433,-52.6195 1172.1514,-25.0175 991.7533,-14.3159"/>
<polygon fill="#191970" stroke="#191970" points="991.7634,-10.8104 981.5737,-13.712 991.3488,-17.7981 991.7634,-10.8104"/>
</g>
<!-- Node13&#45;&gt;Node19 -->
<g id="edge13" class="edge">
<title>Node13&#45;&gt;Node19</title>
<path fill="none" stroke="#191970" d="M1922.7106,-60.5541C2050.3713,-48.9108 2346.2286,-21.927 2444.5653,-12.9582"/>
<polygon fill="#191970" stroke="#191970" points="2445.1317,-16.4212 2454.7724,-12.0273 2444.4958,-9.4501 2445.1317,-16.4212"/>
</g>
<!-- Node13&#45;&gt;Node20 -->
<g id="edge14" class="edge">
<title>Node13&#45;&gt;Node20</title>
<path fill="none" stroke="#191970" d="M1922.5711,-62.6439C2104.7469,-52.3805 2651.7517,-21.5633 2812.2612,-12.5205"/>
<polygon fill="#191970" stroke="#191970" points="2812.4795,-16.0138 2822.2668,-11.9568 2812.0857,-9.0249 2812.4795,-16.0138"/>
</g>
<!-- Node13&#45;&gt;Node21 -->
<g id="edge15" class="edge">
<title>Node13&#45;&gt;Node21</title>
<path fill="none" stroke="#191970" d="M1803.1028,-63.8219C1547.2168,-54.517 549.993,-18.2543 355.858,-11.1948"/>
<polygon fill="#191970" stroke="#191970" points="355.8395,-7.6919 345.7189,-10.8261 355.585,-14.6873 355.8395,-7.6919"/>
</g>
<!-- Node57&#45;&gt;Node7 -->
<g id="edge33" class="edge">
<title>Node57&#45;&gt;Node7</title>
<path fill="none" stroke="#191970" d="M2107.9463,-360.3972C2051.9382,-349.7661 1949.772,-330.3734 1884.4733,-317.9787"/>
<polygon fill="#191970" stroke="#191970" points="1884.7999,-314.4783 1874.3226,-316.052 1883.4944,-321.3555 1884.7999,-314.4783"/>
</g>
<!-- Node57&#45;&gt;Node8 -->
<g id="edge34" class="edge">
<title>Node57&#45;&gt;Node8</title>
<path fill="none" stroke="#191970" d="M2138.1436,-358.4459C2122.3163,-343.3229 2089.9651,-313.3014 2060,-291 2041.9626,-277.5757 2020.3897,-264.121 2003.8992,-254.3321"/>
<polygon fill="#191970" stroke="#191970" points="2005.2389,-251.0603 1994.8423,-249.02 2001.6974,-257.0983 2005.2389,-251.0603"/>
</g>
<!-- Node57&#45;&gt;Node13 -->
<g id="edge52" class="edge">
<title>Node57&#45;&gt;Node13</title>
<path fill="none" stroke="#191970" d="M2150.3221,-358.3029C2157.0942,-327.6314 2173.9794,-231.0361 2135,-168 2109.0212,-125.9881 2084.6512,-130.8645 2039,-112 2002.0737,-96.7409 1958.6616,-85.3294 1924.1922,-77.6891"/>
<polygon fill="#191970" stroke="#191970" points="1924.7753,-74.2343 1914.2608,-75.5367 1923.2926,-81.0755 1924.7753,-74.2343"/>
</g>
<!-- Node57&#45;&gt;Node19 -->
<g id="edge53" class="edge">
<title>Node57&#45;&gt;Node19</title>
<path fill="none" stroke="#191970" d="M2188.226,-364.1316C2255.1301,-355.2413 2382,-326.8649 2382,-239.5 2382,-239.5 2382,-239.5 2382,-122 2382,-90.7875 2386.5603,-80.4196 2406,-56 2416.554,-42.7424 2432.0162,-32.0914 2445.8188,-24.3904"/>
<polygon fill="#191970" stroke="#191970" points="2447.8153,-27.2945 2455.0286,-19.5344 2444.5504,-21.1025 2447.8153,-27.2945"/>
</g>
<!-- Node57&#45;&gt;Node37 -->
<g id="edge35" class="edge">
<title>Node57&#45;&gt;Node37</title>
<path fill="none" stroke="#191970" d="M2107.9432,-366.2784C1929.7624,-358.6125 1213.5061,-327.7099 1113,-322 1062.6313,-319.1385 1005.9412,-315.2088 962.1941,-312.0223"/>
<polygon fill="#191970" stroke="#191970" points="962.4446,-308.5314 952.2158,-311.2921 961.9336,-315.5127 962.4446,-308.5314"/>
</g>
<!-- Node37&#45;&gt;Node20 -->
<g id="edge38" class="edge">
<title>Node37&#45;&gt;Node20</title>
<path fill="none" stroke="#191970" d="M952.2026,-301.4596C997.0518,-298.0461 1058.6866,-293.6847 1113,-291 1382.1235,-277.6971 2060.4125,-305.9697 2325,-255 2546.939,-212.246 2617.5538,-208.0315 2801,-76 2819.0091,-63.0384 2834.8735,-43.0721 2845.076,-28.4935"/>
<polygon fill="#191970" stroke="#191970" points="2848.2369,-30.0663 2850.9285,-19.8191 2842.4341,-26.1512 2848.2369,-30.0663"/>
</g>
<!-- Node37&#45;&gt;Node21 -->
<g id="edge39" class="edge">
<title>Node37&#45;&gt;Node21</title>
<path fill="none" stroke="#191970" d="M825.9712,-300.387C755.2685,-292.8065 637.4604,-278.0009 538,-255 490.2753,-243.9633 357.45,-227.1427 328,-188 292.4591,-140.7618 307.223,-64.7807 316.9709,-29.3514"/>
<polygon fill="#191970" stroke="#191970" points="320.3357,-30.3146 319.7738,-19.7347 313.6153,-28.3558 320.3357,-30.3146"/>
</g>
<!-- Node37&#45;&gt;Node23 -->
<g id="edge40" class="edge">
<title>Node37&#45;&gt;Node23</title>
<path fill="none" stroke="#191970" d="M940.2544,-291.4427C971.8745,-281.799 1013.1105,-268.5817 1049,-255 1071.5698,-246.4589 1224.754,-174.4782 1248,-168 1360.3769,-136.6828 1499.2735,-126.4804 1562.1947,-123.3261"/>
<polygon fill="#191970" stroke="#191970" points="1562.5088,-126.8153 1572.3323,-122.8467 1562.1781,-119.8231 1562.5088,-126.8153"/>
</g>
<!-- Node37&#45;&gt;Node29 -->
<g id="edge36" class="edge">
<title>Node37&#45;&gt;Node29</title>
<path fill="none" stroke="#191970" d="M925.0214,-291.4938C941.286,-283.0141 959.4099,-270.8913 971,-255 996.0566,-220.6446 1002.7019,-169.5744 1004.4285,-141.7756"/>
<polygon fill="#191970" stroke="#191970" points="1007.9279,-141.8673 1004.8973,-131.7152 1000.9355,-141.5414 1007.9279,-141.8673"/>
</g>
<!-- Node34 -->
<g id="node21" class="node">
<title>Node34</title>
<polygon fill="#ffffff" stroke="#bfbfbf" points="1132,-168.5 1132,-187.5 1190,-187.5 1190,-168.5 1132,-168.5"/>
<text text-anchor="middle" x="1161" y="-175.5" font-family="Helvetica,sans-Serif" font-size="10.00" fill="#000000">memory</text>
</g>
<!-- Node37&#45;&gt;Node34 -->
<g id="edge37" class="edge">
<title>Node37&#45;&gt;Node34</title>
<path fill="none" stroke="#191970" d="M923.3605,-291.4877C946.2912,-281.3772 977.0637,-267.6321 1004,-255 1049.3351,-233.7396 1101.4242,-207.9116 1132.7454,-192.2271"/>
<polygon fill="#191970" stroke="#191970" points="1134.399,-195.3133 1141.7685,-187.7014 1131.2607,-189.0562 1134.399,-195.3133"/>
</g>
<!-- Node26 -->
<g id="node22" class="node">
<title>Node26</title>
<g id="a_node22"><a xlink:href="runtime_2container_2base_8h.html" target="_top" xlink:title="Base utilities for common POD(plain old data) container types. ">
<polygon fill="#ffffff" stroke="#000000" points="754.5,-168.5 754.5,-187.5 809.5,-187.5 809.5,-168.5 754.5,-168.5"/>
<text text-anchor="middle" x="782" y="-175.5" font-family="Helvetica,sans-Serif" font-size="10.00" fill="#000000">./base.h</text>
</a>
</g>
</g>
<!-- Node37&#45;&gt;Node26 -->
<g id="edge41" class="edge">
<title>Node37&#45;&gt;Node26</title>
<path fill="none" stroke="#191970" d="M867.2761,-291.4369C854.5685,-281.9385 838.7642,-268.8748 827,-255 811.7421,-237.0047 798.705,-213.152 790.6506,-196.79"/>
<polygon fill="#191970" stroke="#191970" points="793.7723,-195.2049 786.3042,-187.6897 787.4558,-198.2218 793.7723,-195.2049"/>
</g>
<!-- Node25 -->
<g id="node25" class="node">
<title>Node25</title>
<g id="a_node25"><a xlink:href="optional_8h.html" target="_top" xlink:title="Runtime Optional container types. ">
<polygon fill="#ffffff" stroke="#000000" points="257,-224.5 257,-254.5 383,-254.5 383,-224.5 257,-224.5"/>
<text text-anchor="start" x="265" y="-242.5" font-family="Helvetica,sans-Serif" font-size="10.00" fill="#000000">tvm/runtime/container</text>
<text text-anchor="middle" x="320" y="-231.5" font-family="Helvetica,sans-Serif" font-size="10.00" fill="#000000">/optional.h</text>
</a>
</g>
</g>
<!-- Node37&#45;&gt;Node25 -->
<g id="edge49" class="edge">
<title>Node37&#45;&gt;Node25</title>
<path fill="none" stroke="#191970" d="M825.9856,-299.8994C799.711,-297.1475 768.8786,-293.9186 741,-291 588.1117,-274.9941 548.964,-278.1938 397,-255 395.8879,-254.8303 394.7675,-254.6554 393.6405,-254.4758"/>
<polygon fill="#191970" stroke="#191970" points="393.8068,-250.9547 383.3649,-252.7482 392.6461,-257.8579 393.8068,-250.9547"/>
</g>
<!-- Node26&#45;&gt;Node27 -->
<g id="edge44" class="edge">
<title>Node26&#45;&gt;Node27</title>
<path fill="none" stroke="#191970" d="M809.5787,-176.6296C952.4494,-169.5305 1610.4023,-136.8372 1834.2209,-125.7157"/>
<polygon fill="#191970" stroke="#191970" points="1834.4157,-129.2105 1844.2296,-125.2184 1834.0682,-122.2191 1834.4157,-129.2105"/>
</g>
<!-- Node26&#45;&gt;Node13 -->
<g id="edge45" class="edge">
<title>Node26&#45;&gt;Node13</title>
<path fill="none" stroke="#191970" d="M784.9639,-168.2426C790.1329,-153.131 802.3647,-124.5072 824,-112 865.9038,-87.7757 1566.7292,-71.8564 1793.0982,-67.3273"/>
<polygon fill="#191970" stroke="#191970" points="1793.2669,-70.8248 1803.1953,-67.1266 1793.1277,-63.8262 1793.2669,-70.8248"/>
</g>
<!-- Node26&#45;&gt;Node18 -->
<g id="edge43" class="edge">
<title>Node26&#45;&gt;Node18</title>
<path fill="none" stroke="#191970" d="M782.6873,-168.0941C784.0917,-154.2831 788.3271,-129.0253 801,-112 818.667,-88.2654 834.2556,-94.9248 857,-76 874.8139,-61.1778 892.6693,-41.5425 904.6122,-27.5514"/>
<polygon fill="#191970" stroke="#191970" points="907.4847,-29.5731 911.2311,-19.6627 902.1222,-25.0738 907.4847,-29.5731"/>
</g>
<!-- Node26&#45;&gt;Node21 -->
<g id="edge48" class="edge">
<title>Node26&#45;&gt;Node21</title>
<path fill="none" stroke="#191970" d="M774.0802,-168.3584C761.7012,-153.9253 736.3378,-126.8182 709,-112 588.9752,-46.9416 425.1465,-21.6138 355.9675,-13.392"/>
<polygon fill="#191970" stroke="#191970" points="356.0319,-9.8765 345.6986,-12.2158 355.2353,-16.8311 356.0319,-9.8765"/>
</g>
<!-- Node26&#45;&gt;Node29 -->
<g id="edge46" class="edge">
<title>Node26&#45;&gt;Node29</title>
<path fill="none" stroke="#191970" d="M809.7922,-171.0208C848.3263,-161.3441 918.2942,-143.7737 963.1593,-132.5071"/>
<polygon fill="#191970" stroke="#191970" points="964.0372,-135.8954 972.8835,-130.0651 962.3322,-129.1062 964.0372,-135.8954"/>
</g>
<!-- Node12 -->
<g id="node23" class="node">
<title>Node12</title>
<polygon fill="#ffffff" stroke="#bfbfbf" points="611.5,-112.5 611.5,-131.5 700.5,-131.5 700.5,-112.5 611.5,-112.5"/>
<text text-anchor="middle" x="656" y="-119.5" font-family="Helvetica,sans-Serif" font-size="10.00" fill="#000000">dmlc/logging.h</text>
</g>
<!-- Node26&#45;&gt;Node12 -->
<g id="edge42" class="edge">
<title>Node26&#45;&gt;Node12</title>
<path fill="none" stroke="#191970" d="M760.3398,-168.3733C740.0228,-159.3435 709.436,-145.7494 686.625,-135.6111"/>
<polygon fill="#191970" stroke="#191970" points="687.9372,-132.3642 677.3775,-131.5011 685.0941,-138.7609 687.9372,-132.3642"/>
</g>
<!-- Node30 -->
<g id="node24" class="node">
<title>Node30</title>
<polygon fill="#ffffff" stroke="#bfbfbf" points="833.5,-112.5 833.5,-131.5 916.5,-131.5 916.5,-112.5 833.5,-112.5"/>
<text text-anchor="middle" x="875" y="-119.5" font-family="Helvetica,sans-Serif" font-size="10.00" fill="#000000">initializer_list</text>
</g>
<!-- Node26&#45;&gt;Node30 -->
<g id="edge47" class="edge">
<title>Node26&#45;&gt;Node30</title>
<path fill="none" stroke="#191970" d="M798.1994,-168.2455C812.6018,-159.5731 833.8732,-146.7645 850.3799,-136.825"/>
<polygon fill="#191970" stroke="#191970" points="852.225,-139.7996 858.9863,-131.6427 848.614,-133.8028 852.225,-139.7996"/>
</g>
<!-- Node25&#45;&gt;Node21 -->
<g id="edge50" class="edge">
<title>Node25&#45;&gt;Node21</title>
<path fill="none" stroke="#191970" d="M308.2091,-224.2379C301.4254,-214.4664 293.5606,-201.1862 290,-188 274.7063,-131.3619 272.0389,-111.8496 290,-56 293.3946,-45.4445 300.2058,-35.2592 306.7631,-27.1676"/>
<polygon fill="#191970" stroke="#191970" points="309.447,-29.4149 313.3508,-19.5654 304.1569,-24.8307 309.447,-29.4149"/>
</g>
<!-- Node25&#45;&gt;Node26 -->
<g id="edge51" class="edge">
<title>Node25&#45;&gt;Node26</title>
<path fill="none" stroke="#191970" d="M383.2704,-231.0776C480.9492,-218.0749 665.4401,-193.5161 744.4966,-182.9923"/>
<polygon fill="#191970" stroke="#191970" points="745.0393,-186.4511 754.49,-181.662 744.1156,-179.5123 745.0393,-186.4511"/>
</g>
<!-- Node31&#45;&gt;Node27 -->
<g id="edge59" class="edge">
<title>Node31&#45;&gt;Node27</title>
<path fill="none" stroke="#191970" d="M941.3883,-224.3965C969.4488,-214.3051 1007.0181,-200.6163 1040,-188 1062.3544,-179.4489 1066.634,-173.1836 1090,-168 1161.4169,-152.1567 1645.7863,-132.1127 1834.2177,-124.8173"/>
<polygon fill="#191970" stroke="#191970" points="1834.456,-128.3108 1844.3135,-124.4276 1834.186,-121.316 1834.456,-128.3108"/>
</g>
<!-- Node31&#45;&gt;Node13 -->
<g id="edge60" class="edge">
<title>Node31&#45;&gt;Node13</title>
<path fill="none" stroke="#191970" d="M901.6512,-224.4442C907.424,-196.695 923.9729,-137.9524 964,-112 998.6158,-89.5561 1587.9135,-72.8377 1793.1768,-67.6721"/>
<polygon fill="#191970" stroke="#191970" points="1793.3303,-71.1695 1803.2396,-67.4204 1793.1552,-64.1717 1793.3303,-71.1695"/>
</g>
<!-- Node31&#45;&gt;Node18 -->
<g id="edge58" class="edge">
<title>Node31&#45;&gt;Node18</title>
<path fill="none" stroke="#191970" d="M835.6358,-226.2473C831.03,-225.437 826.4487,-224.677 822,-224 745.3573,-212.3374 526.913,-245.5774 475,-188 364.3739,-65.3031 693.7777,-25.8113 846.1455,-14.3012"/>
<polygon fill="#191970" stroke="#191970" points="846.6435,-17.7742 856.3605,-13.5515 846.1311,-10.7929 846.6435,-17.7742"/>
</g>
<!-- Node31&#45;&gt;Node19 -->
<g id="edge66" class="edge">
<title>Node31&#45;&gt;Node19</title>
<path fill="none" stroke="#191970" d="M960.1299,-224.4183C995.3068,-215.1441 1040.1078,-202.3135 1079,-188 1099.1591,-180.5808 1102.1056,-172.9856 1123,-168 1495.1105,-79.2101 1606.7929,-201.4124 1983,-132 2087.6272,-112.6957 2106.8317,-81.9963 2210,-56 2293.6746,-34.9157 2394.5367,-20.4276 2444.9841,-13.9092"/>
<polygon fill="#191970" stroke="#191970" points="2445.4813,-17.3742 2454.9594,-12.6397 2444.5976,-10.4302 2445.4813,-17.3742"/>
</g>
<!-- Node31&#45;&gt;Node20 -->
<g id="edge68" class="edge">
<title>Node31&#45;&gt;Node20</title>
<path fill="none" stroke="#191970" d="M962.1314,-234.685C1134.2195,-221.3073 1625.8864,-181.4004 2033,-132 2331.4729,-95.7824 2688.6216,-37.9259 2812.2821,-17.4652"/>
<polygon fill="#191970" stroke="#191970" points="2812.858,-20.9175 2822.1512,-15.8295 2811.7135,-14.0117 2812.858,-20.9175"/>
</g>
<!-- Node31&#45;&gt;Node21 -->
<g id="edge70" class="edge">
<title>Node31&#45;&gt;Node21</title>
<path fill="none" stroke="#191970" d="M835.639,-226.2258C831.0325,-225.4205 826.4502,-224.6675 822,-224 742.0531,-212.0085 526.5777,-233.8554 460,-188 405.9815,-150.7948 437.73,-104.8867 394,-56 382.5432,-43.1922 366.7284,-32.4832 352.932,-24.6298"/>
<polygon fill="#191970" stroke="#191970" points="354.2394,-21.3569 343.7816,-19.6583 350.8976,-27.5077 354.2394,-21.3569"/>
</g>
<!-- Node31&#45;&gt;Node23 -->
<g id="edge71" class="edge">
<title>Node31&#45;&gt;Node23</title>
<path fill="none" stroke="#191970" d="M923.9369,-224.4641C953.3888,-207.5233 1004.4078,-180.6993 1052,-168 1149.1814,-142.0685 1459.1366,-127.5169 1562.2652,-123.2997"/>
<polygon fill="#191970" stroke="#191970" points="1562.5675,-126.7905 1572.4185,-122.8908 1562.2857,-119.7961 1562.5675,-126.7905"/>
</g>
<!-- Node31&#45;&gt;Node29 -->
<g id="edge61" class="edge">
<title>Node31&#45;&gt;Node29</title>
<path fill="none" stroke="#191970" d="M912.8576,-224.1389C932.6499,-202.1994 968.8966,-162.0203 989.5372,-139.1404"/>
<polygon fill="#191970" stroke="#191970" points="992.2765,-141.329 996.3761,-131.5595 987.0789,-136.6401 992.2765,-141.329"/>
</g>
<!-- Node31&#45;&gt;Node34 -->
<g id="edge65" class="edge">
<title>Node31&#45;&gt;Node34</title>
<path fill="none" stroke="#191970" d="M962.0889,-224.691C1011.8874,-213.0016 1079.7831,-197.0643 1121.979,-187.1595"/>
<polygon fill="#191970" stroke="#191970" points="1122.9322,-190.531 1131.8678,-184.8383 1121.3325,-183.7162 1122.9322,-190.531"/>
</g>
<!-- Node31&#45;&gt;Node26 -->
<g id="edge57" class="edge">
<title>Node31&#45;&gt;Node26</title>
<path fill="none" stroke="#191970" d="M870.3786,-224.4554C851.713,-214.644 827.5001,-201.9167 809.1388,-192.2653"/>
<polygon fill="#191970" stroke="#191970" points="810.611,-189.0851 800.1308,-187.5303 807.354,-195.2812 810.611,-189.0851"/>
</g>
<!-- Node31&#45;&gt;Node12 -->
<g id="edge56" class="edge">
<title>Node31&#45;&gt;Node12</title>
<path fill="none" stroke="#191970" d="M839.8227,-224.4678C810.4159,-215.8246 774.8755,-203.5689 745,-188 718.4653,-174.1721 691.3185,-152.7818 674.0996,-138.1242"/>
<polygon fill="#191970" stroke="#191970" points="676.3403,-135.4346 666.4903,-131.532 671.7567,-140.7253 676.3403,-135.4346"/>
</g>
<!-- Node31&#45;&gt;Node30 -->
<g id="edge64" class="edge">
<title>Node31&#45;&gt;Node30</title>
<path fill="none" stroke="#191970" d="M884.1214,-224.2541C875.8592,-214.6909 866.3864,-201.6233 862,-188 857.0292,-172.562 861.2773,-154.4508 866.2049,-141.1099"/>
<polygon fill="#191970" stroke="#191970" points="869.56,-142.1547 870.1393,-131.5757 863.0893,-139.4844 869.56,-142.1547"/>
</g>
<!-- Node32 -->
<g id="node27" class="node">
<title>Node32</title>
<polygon fill="#ffffff" stroke="#bfbfbf" points="484.5,-168.5 484.5,-187.5 537.5,-187.5 537.5,-168.5 484.5,-168.5"/>
<text text-anchor="middle" x="511" y="-175.5" font-family="Helvetica,sans-Serif" font-size="10.00" fill="#000000">cstddef</text>
</g>
<!-- Node31&#45;&gt;Node32 -->
<g id="edge62" class="edge">
<title>Node31&#45;&gt;Node32</title>
<path fill="none" stroke="#191970" d="M835.6142,-226.3828C831.0135,-225.5407 826.4393,-224.7365 822,-224 703.6034,-204.3575 669.5754,-212.1161 547.7307,-187.8886"/>
<polygon fill="#191970" stroke="#191970" points="548.1301,-184.3986 537.635,-185.8487 546.7437,-191.26 548.1301,-184.3986"/>
</g>
<!-- Node33 -->
<g id="node28" class="node">
<title>Node33</title>
<polygon fill="#ffffff" stroke="#bfbfbf" points="556,-168.5 556,-187.5 606,-187.5 606,-168.5 556,-168.5"/>
<text text-anchor="middle" x="581" y="-175.5" font-family="Helvetica,sans-Serif" font-size="10.00" fill="#000000">cstring</text>
</g>
<!-- Node31&#45;&gt;Node33 -->
<g id="edge63" class="edge">
<title>Node31&#45;&gt;Node33</title>
<path fill="none" stroke="#191970" d="M835.9943,-226.6759C831.2615,-225.7558 826.5568,-224.8547 822,-224 733.3567,-207.373 707.6791,-209.0661 616.1381,-188.0654"/>
<polygon fill="#191970" stroke="#191970" points="616.6988,-184.6025 606.1662,-185.7487 615.1147,-191.4209 616.6988,-184.6025"/>
</g>
<!-- Node35 -->
<g id="node29" class="node">
<title>Node35</title>
<polygon fill="#ffffff" stroke="#bfbfbf" points="624.5,-168.5 624.5,-187.5 697.5,-187.5 697.5,-168.5 624.5,-168.5"/>
<text text-anchor="middle" x="661" y="-175.5" font-family="Helvetica,sans-Serif" font-size="10.00" fill="#000000">string_view</text>
</g>
<!-- Node31&#45;&gt;Node35 -->
<g id="edge67" class="edge">
<title>Node31&#45;&gt;Node35</title>
<path fill="none" stroke="#191970" d="M840.7787,-224.4554C799.7222,-213.8463 745.4717,-199.8278 707.3433,-189.9753"/>
<polygon fill="#191970" stroke="#191970" points="708.0865,-186.5524 697.5288,-187.4392 706.3352,-193.3298 708.0865,-186.5524"/>
</g>
<!-- Node31&#45;&gt;Node36 -->
<g id="edge69" class="edge">
<title>Node31&#45;&gt;Node36</title>
<path fill="none" stroke="#191970" d="M962.2792,-230.4915C1046.447,-218.5093 1193.9564,-197.5097 1274.5335,-186.0386"/>
<polygon fill="#191970" stroke="#191970" points="1275.088,-189.4951 1284.4948,-184.6205 1274.1013,-182.565 1275.088,-189.4951"/>
</g>
<!-- Node59&#45;&gt;Node6 -->
<g id="edge94" class="edge">
<title>Node59&#45;&gt;Node6</title>
<path fill="none" stroke="#191970" d="M1679.0195,-526.3191C1697.2406,-512.0824 1733.4055,-485.5126 1768,-470 1806.8502,-452.5791 1853.7362,-440.4997 1888.4203,-433.1053"/>
<polygon fill="#191970" stroke="#191970" points="1889.2352,-436.5109 1898.3154,-431.0519 1887.8128,-429.6569 1889.2352,-436.5109"/>
</g>
<!-- Node59&#45;&gt;Node19 -->
<g id="edge103" class="edge">
<title>Node59&#45;&gt;Node19</title>
<path fill="none" stroke="#191970" d="M1716.2521,-534.6962C1886.167,-530.0015 2439.085,-513.0131 2469,-490 2585.3874,-400.4654 2558.5997,-314.0107 2543,-168 2537.644,-117.8688 2548.4159,-100.6489 2525,-56 2518.8636,-44.2993 2508.6179,-33.8652 2499.1647,-25.9045"/>
<polygon fill="#191970" stroke="#191970" points="2501.1946,-23.0472 2491.1846,-19.5757 2496.8449,-28.5318 2501.1946,-23.0472"/>
</g>
<!-- Node59&#45;&gt;Node20 -->
<g id="edge104" class="edge">
<title>Node59&#45;&gt;Node20</title>
<path fill="none" stroke="#191970" d="M1716.0969,-534.6498C1870.1655,-530.1955 2342.7882,-514.8189 2494,-490 2678.2902,-459.7518 2753.9461,-495.6316 2899,-378 2992.0712,-302.5238 2958.6357,-230.8042 2943,-112 2939.6379,-86.454 2943.1553,-76.8379 2928,-56 2918.1733,-42.4887 2903.0615,-31.9025 2889.3014,-24.3096"/>
<polygon fill="#191970" stroke="#191970" points="2890.5624,-21.0212 2880.0727,-19.532 2887.3442,-27.2376 2890.5624,-21.0212"/>
</g>
<!-- Node59&#45;&gt;Node37 -->
<g id="edge95" class="edge">
<title>Node59&#45;&gt;Node37</title>
<path fill="none" stroke="#191970" d="M1617.8731,-534.4839C1544.6359,-531.2366 1403.0094,-521.1367 1287,-490 1225.8455,-473.5862 1213.6928,-460.0927 1156,-434 1074.7066,-397.2335 980.8167,-351.6655 928.8447,-326.1638"/>
<polygon fill="#191970" stroke="#191970" points="930.1594,-322.9102 919.6407,-321.6423 927.0729,-329.193 930.1594,-322.9102"/>
</g>
<!-- Node59&#45;&gt;Node31 -->
<g id="edge102" class="edge">
<title>Node59&#45;&gt;Node31</title>
<path fill="none" stroke="#191970" d="M1617.7359,-532.6415C1518.796,-525.6046 1299.1518,-508.4326 1226,-490 1035.4411,-441.9834 926.4192,-485.2351 817,-322 809.3286,-310.5555 810.3342,-303.0579 817,-291 824.3352,-277.7312 836.6793,-267.4197 849.5926,-259.6286"/>
<polygon fill="#191970" stroke="#191970" points="851.5337,-262.5539 858.569,-254.6321 848.1291,-256.4376 851.5337,-262.5539"/>
</g>
<!-- Node60 -->
<g id="node33" class="node">
<title>Node60</title>
<g id="a_node33"><a xlink:href="ir_2attrs_8h.html" target="_top" xlink:title="Helpers for attribute objects. ">
<polygon fill="#ffffff" stroke="#ff0000" points="2128,-470.5 2128,-489.5 2208,-489.5 2208,-470.5 2128,-470.5"/>
<text text-anchor="middle" x="2168" y="-477.5" font-family="Helvetica,sans-Serif" font-size="10.00" fill="#000000">tvm/ir/attrs.h</text>
</a>
</g>
</g>
<!-- Node59&#45;&gt;Node60 -->
<g id="edge85" class="edge">
<title>Node59&#45;&gt;Node60</title>
<path fill="none" stroke="#191970" d="M1716.4089,-530.4772C1812.0405,-519.7879 2021.4781,-496.3777 2117.7628,-485.6153"/>
<polygon fill="#191970" stroke="#191970" points="2118.2769,-489.0798 2127.8261,-484.4905 2117.4992,-482.1231 2118.2769,-489.0798"/>
</g>
<!-- Node59&#45;&gt;Node47 -->
<g id="edge96" class="edge">
<title>Node59&#45;&gt;Node47</title>
<path fill="none" stroke="#191970" d="M1617.6751,-534.9877C1485.5942,-531.8874 1126.1923,-520.7888 1012,-490 885.7342,-455.9559 754.2367,-368.4241 697.6655,-327.8001"/>
<polygon fill="#191970" stroke="#191970" points="699.3936,-324.7301 689.2418,-321.6983 695.2872,-330.3991 699.3936,-324.7301"/>
</g>
<!-- Node60&#45;&gt;Node6 -->
<g id="edge87" class="edge">
<title>Node60&#45;&gt;Node6</title>
<path fill="none" stroke="#191970" d="M2128.7229,-470.4369C2089.5256,-460.8932 2029.2,-446.2052 1986.9165,-435.9101"/>
<polygon fill="#191970" stroke="#191970" points="1987.6592,-432.4888 1977.1151,-433.5237 1986.0032,-439.2901 1987.6592,-432.4888"/>
</g>
<!-- Node60&#45;&gt;Node19 -->
<g id="edge89" class="edge">
<title>Node60&#45;&gt;Node19</title>
<path fill="none" stroke="#191970" d="M2208.0141,-471.8997C2277.0696,-455.8087 2418.5478,-413.2026 2495,-322 2555.3489,-250.0076 2532.2487,-205.0019 2519,-112 2515.4228,-86.889 2517.7249,-79.4261 2508,-56 2503.8242,-45.941 2497.2879,-35.7921 2491.2916,-27.5959"/>
<polygon fill="#191970" stroke="#191970" points="2493.9964,-25.3713 2485.1342,-19.5651 2488.4413,-29.6306 2493.9964,-25.3713"/>
</g>
<!-- Node60&#45;&gt;Node20 -->
<g id="edge90" class="edge">
<title>Node60&#45;&gt;Node20</title>
<path fill="none" stroke="#191970" d="M2208.1922,-472.1517C2248.0961,-463.9899 2310.8267,-450.1584 2364,-434 2499.3772,-392.8614 2535.5218,-385.4241 2662,-322 2791.8697,-256.8753 2871.809,-265.9773 2928,-132 2944.7631,-92.0314 2904.4773,-49.0594 2877.9671,-26.3102"/>
<polygon fill="#191970" stroke="#191970" points="2879.8698,-23.3418 2869.9337,-19.6641 2875.4077,-28.7353 2879.8698,-23.3418"/>
</g>
<!-- Node60&#45;&gt;Node21 -->
<g id="edge92" class="edge">
<title>Node60&#45;&gt;Node21</title>
<path fill="none" stroke="#191970" d="M2127.631,-474.7323C1987.1732,-456.2385 1506.9325,-391.6195 1113,-322 1045.1059,-310.0011 1029.2123,-301.033 961,-291 786.5933,-265.3473 736.9278,-298.1212 566,-255 547.6097,-250.3605 422.9912,-200.8053 409,-188 360.3586,-143.4816 336.2888,-65.5288 327.3056,-29.4002"/>
<polygon fill="#191970" stroke="#191970" points="330.6988,-28.5401 324.9916,-19.6139 323.8867,-30.1509 330.6988,-28.5401"/>
</g>
<!-- Node60&#45;&gt;Node23 -->
<g id="edge93" class="edge">
<title>Node60&#45;&gt;Node23</title>
<path fill="none" stroke="#191970" d="M2178.8026,-470.2511C2192.5958,-456.6267 2213.085,-431.5891 2199,-414 2181.2068,-391.7801 1976.8851,-363.7219 1949,-358 1863.5237,-340.4607 1830.8309,-366.8795 1756,-322 1680.0663,-276.4591 1625.4563,-180.76 1604.9391,-140.4853"/>
<polygon fill="#191970" stroke="#191970" points="1608.057,-138.8946 1600.4652,-131.5044 1601.7914,-142.0159 1608.057,-138.8946"/>
</g>
<!-- Node60&#45;&gt;Node36 -->
<g id="edge91" class="edge">
<title>Node60&#45;&gt;Node36</title>
<path fill="none" stroke="#191970" d="M2174.8127,-470.256C2183.7393,-456.1797 2196.7348,-430.0847 2183,-414 2149.8334,-375.159 2004.8489,-392.9138 1956,-378 1935.8414,-371.8455 1933.2534,-363.835 1913,-358 1790.3167,-322.6552 1750.3948,-358.3312 1628,-322 1520.3967,-290.0594 1403.581,-222.6936 1354.6457,-192.8123"/>
<polygon fill="#191970" stroke="#191970" points="1356.4014,-189.7831 1346.0507,-187.5215 1352.7319,-195.7442 1356.4014,-189.7831"/>
</g>
<!-- Node61 -->
<g id="node34" class="node">
<title>Node61</title>
<polygon fill="#ffffff" stroke="#bfbfbf" points="2078.5,-414.5 2078.5,-433.5 2173.5,-433.5 2173.5,-414.5 2078.5,-414.5"/>
<text text-anchor="middle" x="2126" y="-421.5" font-family="Helvetica,sans-Serif" font-size="10.00" fill="#000000">dmlc/common.h</text>
</g>
<!-- Node60&#45;&gt;Node61 -->
<g id="edge86" class="edge">
<title>Node60&#45;&gt;Node61</title>
<path fill="none" stroke="#191970" d="M2160.6842,-470.2455C2154.7821,-462.3761 2146.3258,-451.101 2139.2406,-441.6542"/>
<polygon fill="#191970" stroke="#191970" points="2142.0321,-439.5427 2133.232,-433.6427 2136.432,-443.7427 2142.0321,-439.5427"/>
</g>
<!-- Node45 -->
<g id="node35" class="node">
<title>Node45</title>
<polygon fill="#ffffff" stroke="#bfbfbf" points="1995.5,-414.5 1995.5,-433.5 2060.5,-433.5 2060.5,-414.5 1995.5,-414.5"/>
<text text-anchor="middle" x="2028" y="-421.5" font-family="Helvetica,sans-Serif" font-size="10.00" fill="#000000">functional</text>
</g>
<!-- Node60&#45;&gt;Node45 -->
<g id="edge88" class="edge">
<title>Node60&#45;&gt;Node45</title>
<path fill="none" stroke="#191970" d="M2143.9331,-470.3733C2121.1572,-461.2629 2086.7656,-447.5062 2061.351,-437.3404"/>
<polygon fill="#191970" stroke="#191970" points="2062.3375,-433.9654 2051.7528,-433.5011 2059.7377,-440.4648 2062.3375,-433.9654"/>
</g>
<!-- Node47&#45;&gt;Node21 -->
<g id="edge99" class="edge">
<title>Node47&#45;&gt;Node21</title>
<path fill="none" stroke="#191970" d="M605.7117,-300.636C491.4603,-289.7899 261.2956,-266.6423 248,-255 221.3991,-231.707 228,-213.3578 228,-178 228,-178 228,-178 228,-122 228,-78.9765 269.2735,-44.0102 297.4109,-25.1715"/>
<polygon fill="#191970" stroke="#191970" points="299.5021,-27.9879 306.0159,-19.632 295.713,-22.102 299.5021,-27.9879"/>
</g>
<!-- Node47&#45;&gt;Node29 -->
<g id="edge97" class="edge">
<title>Node47&#45;&gt;Node29</title>
<path fill="none" stroke="#191970" d="M696.4963,-291.4016C760.0039,-256.5291 916.2135,-170.7533 978.6194,-136.4858"/>
<polygon fill="#191970" stroke="#191970" points="980.3825,-139.5107 987.4633,-131.6295 977.0132,-133.3748 980.3825,-139.5107"/>
</g>
<!-- Node47&#45;&gt;Node26 -->
<g id="edge100" class="edge">
<title>Node47&#45;&gt;Node26</title>
<path fill="none" stroke="#191970" d="M675.6868,-291.271C683.8984,-273.7155 699.0923,-244.6338 718,-224 729.0839,-211.9042 743.8242,-201.0483 756.3645,-192.9242"/>
<polygon fill="#191970" stroke="#191970" points="758.3982,-195.7805 765.0233,-187.5126 754.6883,-189.8445 758.3982,-195.7805"/>
</g>
<!-- Node47&#45;&gt;Node25 -->
<g id="edge101" class="edge">
<title>Node47&#45;&gt;Node25</title>
<path fill="none" stroke="#191970" d="M605.7556,-294.7388C550.6032,-284.4315 468.4625,-268.9575 397,-255 395.7202,-254.75 394.4286,-254.4971 393.1278,-254.2418"/>
<polygon fill="#191970" stroke="#191970" points="393.5088,-250.7496 383.0204,-252.2474 392.1536,-257.6172 393.5088,-250.7496"/>
</g>
<!-- Node47&#45;&gt;Node36 -->
<g id="edge98" class="edge">
<title>Node47&#45;&gt;Node36</title>
<path fill="none" stroke="#191970" d="M732.1861,-296.5138C793.3829,-286.6559 888.7343,-270.8051 971,-255 1081.225,-233.8233 1209.633,-205.4658 1279.4074,-189.7448"/>
<polygon fill="#191970" stroke="#191970" points="1280.2834,-193.1352 1289.2674,-187.5193 1278.7422,-186.307 1280.2834,-193.1352"/>
</g>
<!-- Node64&#45;&gt;Node9 -->
<g id="edge118" class="edge">
<title>Node64&#45;&gt;Node9</title>
<path fill="none" stroke="#191970" d="M1233.8218,-298.4131C1388.6471,-275.9835 1823.3074,-213.0141 1994.4688,-188.2179"/>
<polygon fill="#191970" stroke="#191970" points="1994.9848,-191.6798 2004.3796,-186.7821 1993.9811,-184.7521 1994.9848,-191.6798"/>
</g>
<!-- Node64&#45;&gt;Node21 -->
<g id="edge120" class="edge">
<title>Node64&#45;&gt;Node21</title>
<path fill="none" stroke="#191970" d="M1122.2624,-300.3604C959.5107,-282.0521 492.845,-226.7081 436,-188 379.2976,-149.389 393.7999,-113.2463 356,-56 349.7956,-46.6037 342.5355,-36.4051 336.4071,-28.004"/>
<polygon fill="#191970" stroke="#191970" points="339.0526,-25.6938 330.3049,-19.7164 333.4157,-29.8443 339.0526,-25.6938"/>
</g>
<!-- Node64&#45;&gt;Node23 -->
<g id="edge121" class="edge">
<title>Node64&#45;&gt;Node23</title>
<path fill="none" stroke="#191970" d="M1181.6107,-296.7171C1191.7607,-270.7349 1223.2294,-199.8179 1275,-168 1322.5609,-138.7694 1489.0763,-127.2215 1561.6986,-123.5016"/>
<polygon fill="#191970" stroke="#191970" points="1562.2957,-126.9766 1572.1116,-122.9893 1561.9517,-119.985 1562.2957,-126.9766"/>
</g>
<!-- Node64&#45;&gt;Node31 -->
<g id="edge119" class="edge">
<title>Node64&#45;&gt;Node31</title>
<path fill="none" stroke="#191970" d="M1138.3224,-296.9717C1094.9842,-286.5643 1024.6533,-269.6748 971.423,-256.8919"/>
<polygon fill="#191970" stroke="#191970" points="972.234,-253.4872 961.6932,-254.5553 970.5994,-260.2937 972.234,-253.4872"/>
</g>
<!-- Node65&#45;&gt;Node21 -->
<g id="edge128" class="edge">
<title>Node65&#45;&gt;Node21</title>
<path fill="none" stroke="#191970" d="M1886.4311,-474.795C1703.5962,-457.0977 1096.0474,-396.204 597,-322 594.4036,-321.6139 227.0717,-256.6118 225,-255 195.3301,-231.9168 190,-215.5917 190,-178 190,-178 190,-178 190,-122 190,-69.4041 251.6083,-36.5214 290.9633,-20.8816"/>
<polygon fill="#191970" stroke="#191970" points="292.3374,-24.1036 300.4384,-17.2754 289.8474,-17.5615 292.3374,-24.1036"/>
</g>
<!-- Node65&#45;&gt;Node61 -->
<g id="edge126" class="edge">
<title>Node65&#45;&gt;Node61</title>
<path fill="none" stroke="#191970" d="M1972.8026,-470.3733C2003.8317,-460.9807 2051.1754,-446.6496 2085.0147,-436.4064"/>
<polygon fill="#191970" stroke="#191970" points="2086.0553,-439.7483 2094.6124,-433.5011 2084.0272,-433.0485 2086.0553,-439.7483"/>
</g>
<!-- Node65&#45;&gt;Node45 -->
<g id="edge127" class="edge">
<title>Node65&#45;&gt;Node45</title>
<path fill="none" stroke="#191970" d="M1956.1542,-470.2455C1969.5027,-461.6534 1989.1586,-449.0014 2004.5383,-439.1018"/>
<polygon fill="#191970" stroke="#191970" points="2006.5051,-441.9982 2013.0194,-433.6427 2002.7164,-436.1121 2006.5051,-441.9982"/>
</g>
<!-- Node66&#45;&gt;Node6 -->
<g id="edge132" class="edge">
<title>Node66&#45;&gt;Node6</title>
<path fill="none" stroke="#191970" d="M1820,-750.2899C1820,-727.892 1820,-684.7188 1820,-648 1820,-648 1820,-648 1820,-536 1820,-488.754 1870.3798,-455.4321 1905.3018,-438.0095"/>
<polygon fill="#191970" stroke="#191970" points="1907.1772,-440.9923 1914.687,-433.5187 1904.1558,-434.6779 1907.1772,-440.9923"/>
</g>
<!-- Node66&#45;&gt;Node19 -->
<g id="edge182" class="edge">
<title>Node66&#45;&gt;Node19</title>
<path fill="none" stroke="#191970" d="M1874.7429,-763.2518C2115.2227,-753.022 3066,-708.7363 3066,-648 3066,-648 3066,-648 3066,-122 3066,-45.0764 2980.5507,-74.9586 2906,-56 2830.649,-36.8378 2595.4071,-18.505 2509.135,-12.2569"/>
<polygon fill="#191970" stroke="#191970" points="2509.365,-8.7645 2499.1399,-11.5389 2508.8634,-15.7465 2509.365,-8.7645"/>
</g>
<!-- Node66&#45;&gt;Node21 -->
<g id="edge183" class="edge">
<title>Node66&#45;&gt;Node21</title>
<path fill="none" stroke="#191970" d="M1765.2579,-764.797C1531.6346,-761.6133 616.9978,-747.2366 331,-714 181.9957,-696.6838 0,-798.0071 0,-648 0,-648 0,-648 0,-122 0,-82.9495 23.9351,-75.0925 58,-56 97.3722,-33.933 228.3947,-18.9624 290.1979,-12.9541"/>
<polygon fill="#191970" stroke="#191970" points="290.5749,-16.4341 300.1979,-12.0017 289.9111,-9.4657 290.5749,-16.4341"/>
</g>
<!-- Node66&#45;&gt;Node23 -->
<g id="edge184" class="edge">
<title>Node66&#45;&gt;Node23</title>
<path fill="none" stroke="#191970" d="M1801.9891,-750.4232C1779.5148,-729.8121 1744,-690.5155 1744,-648 1744,-648 1744,-648 1744,-592 1744,-561.4754 1745.5611,-548.5609 1725,-526 1695.4241,-493.5474 1661.8064,-523.1375 1633,-490 1596.4356,-447.938 1604,-423.733 1604,-368 1604,-368 1604,-368 1604,-306.5 1604,-246.5591 1599.7333,-175.7668 1597.4318,-141.9416"/>
<polygon fill="#191970" stroke="#191970" points="1600.8977,-141.3293 1596.7099,-131.5973 1593.9147,-141.8167 1600.8977,-141.3293"/>
</g>
<!-- Node66&#45;&gt;Node37 -->
<g id="edge177" class="edge">
<title>Node66&#45;&gt;Node37</title>
<path fill="none" stroke="#191970" d="M1765.4559,-764.2798C1539.2248,-759.072 684.0734,-737.8807 632,-714 595.4173,-697.2233 570,-688.2462 570,-648 570,-648 570,-648 570,-592 570,-450.5514 746.3026,-361.6261 836.7742,-325.3051"/>
<polygon fill="#191970" stroke="#191970" points="838.2909,-328.4694 846.3092,-321.5443 835.7225,-321.9576 838.2909,-328.4694"/>
</g>
<!-- Node66&#45;&gt;Node34 -->
<g id="edge181" class="edge">
<title>Node66&#45;&gt;Node34</title>
<path fill="none" stroke="#191970" d="M1765.2829,-763.2573C1598.6997,-755.7237 1100.3441,-727.7669 956,-658 922.8644,-641.9843 911.8718,-634.708 895,-602 808.6933,-434.6838 1058.979,-246.8918 1137.9606,-193.1141"/>
<polygon fill="#191970" stroke="#191970" points="1139.9575,-195.989 1146.3,-187.5024 1136.0495,-190.1815 1139.9575,-195.989"/>
</g>
<!-- Node66&#45;&gt;Node25 -->
<g id="edge178" class="edge">
<title>Node66&#45;&gt;Node25</title>
<path fill="none" stroke="#191970" d="M1765.1758,-764.6615C1557.7462,-761.2628 821.0098,-747.0828 589,-714 467.5585,-696.6834 321,-770.6699 321,-648 321,-648 321,-648 321,-368 321,-332.0814 320.6045,-290.5169 320.3109,-264.6147"/>
<polygon fill="#191970" stroke="#191970" points="323.8098,-264.493 320.1928,-254.5348 316.8103,-264.5751 323.8098,-264.493"/>
</g>
<!-- Node66&#45;&gt;Node67 -->
<g id="edge133" class="edge">
<title>Node66&#45;&gt;Node67</title>
<path fill="none" stroke="#191970" d="M1869.1701,-750.4554C1903.1488,-740.059 1947.8281,-726.3884 1979.9086,-716.5727"/>
<polygon fill="#191970" stroke="#191970" points="1981.3138,-719.803 1989.8521,-713.5303 1979.2657,-713.1094 1981.3138,-719.803"/>
</g>
<!-- Node68 -->
<g id="node43" class="node">
<title>Node68</title>
<g id="a_node43"><a xlink:href="relax_2type_8h.html" target="_top" xlink:title="Relax Types. ">
<polygon fill="#ffffff" stroke="#ff0000" points="2415,-526.5 2415,-545.5 2513,-545.5 2513,-526.5 2415,-526.5"/>
<text text-anchor="middle" x="2464" y="-533.5" font-family="Helvetica,sans-Serif" font-size="10.00" fill="#000000">tvm/relax/type.h</text>
</a>
</g>
</g>
<!-- Node66&#45;&gt;Node68 -->
<g id="edge176" class="edge">
<title>Node66&#45;&gt;Node68</title>
<path fill="none" stroke="#191970" d="M1874.7113,-758.2534C1927.7534,-750.3837 2010.0817,-735.9239 2079,-714 2195.4093,-676.9685 2219.4092,-653.8859 2330,-602 2366.8004,-584.7343 2408.7736,-563.8678 2435.7878,-550.2833"/>
<polygon fill="#191970" stroke="#191970" points="2437.671,-553.2537 2445.0263,-545.6281 2434.521,-547.0025 2437.671,-553.2537"/>
</g>
<!-- Node87 -->
<g id="node49" class="node">
<title>Node87</title>
<polygon fill="#ffffff" stroke="#bfbfbf" points="1848,-694.5 1848,-713.5 1898,-713.5 1898,-694.5 1848,-694.5"/>
<text text-anchor="middle" x="1873" y="-701.5" font-family="Helvetica,sans-Serif" font-size="10.00" fill="#000000">cstdint</text>
</g>
<!-- Node66&#45;&gt;Node87 -->
<g id="edge179" class="edge">
<title>Node66&#45;&gt;Node87</title>
<path fill="none" stroke="#191970" d="M1833.1011,-750.2977C1840.6113,-741.5831 1850.07,-730.6075 1857.8927,-721.5302"/>
<polygon fill="#191970" stroke="#191970" points="1860.6371,-723.707 1864.514,-713.8469 1855.3345,-719.1372 1860.6371,-723.707"/>
</g>
<!-- Node88 -->
<g id="node50" class="node">
<title>Node88</title>
<polygon fill="#ffffff" stroke="#bfbfbf" points="1916,-694.5 1916,-713.5 1954,-713.5 1954,-694.5 1916,-694.5"/>
<text text-anchor="middle" x="1935" y="-701.5" font-family="Helvetica,sans-Serif" font-size="10.00" fill="#000000">map</text>
</g>
<!-- Node66&#45;&gt;Node88 -->
<g id="edge180" class="edge">
<title>Node66&#45;&gt;Node88</title>
<path fill="none" stroke="#191970" d="M1848.1322,-750.4554C1866.4786,-740.644 1890.2777,-727.9167 1908.3251,-718.2653"/>
<polygon fill="#191970" stroke="#191970" points="1910.0114,-721.3326 1917.1791,-713.5303 1906.7103,-715.1598 1910.0114,-721.3326"/>
</g>
<!-- Node67&#45;&gt;Node6 -->
<g id="edge134" class="edge">
<title>Node67&#45;&gt;Node6</title>
<path fill="none" stroke="#191970" d="M1978.5992,-694.4558C1930.303,-680.7844 1858,-650.5413 1858,-592 1858,-592 1858,-592 1858,-536 1858,-505.4754 1859.7019,-495.1501 1877,-470 1885.6852,-457.3724 1898.9572,-446.7727 1910.9061,-438.9428"/>
<polygon fill="#191970" stroke="#191970" points="1913.0267,-441.7465 1919.6876,-433.5074 1909.3426,-435.7944 1913.0267,-441.7465"/>
</g>
<!-- Node67&#45;&gt;Node8 -->
<g id="edge135" class="edge">
<title>Node67&#45;&gt;Node8</title>
<path fill="none" stroke="#191970" d="M2069.5545,-694.9058C2071.392,-694.5942 2073.212,-694.2912 2075,-694 2155.2911,-680.9239 2800,-673.3489 2800,-592 2800,-592 2800,-592 2800,-480 2800,-400.5187 2226.5805,-286.0354 2037.6031,-250.4642"/>
<polygon fill="#191970" stroke="#191970" points="2038.0426,-246.9857 2027.5686,-248.5816 2036.7518,-253.8656 2038.0426,-246.9857"/>
</g>
<!-- Node67&#45;&gt;Node13 -->
<g id="edge167" class="edge">
<title>Node67&#45;&gt;Node13</title>
<path fill="none" stroke="#191970" d="M2069.7169,-703.5471C2266.2136,-701.0877 2990,-685.6713 2990,-592 2990,-592 2990,-592 2990,-480 2990,-287.7507 2759.8305,-410.8913 2575,-358 2564.7431,-355.0649 2213.4815,-261.4716 2205,-255 2169.1876,-227.6741 2182.8467,-201.7404 2153,-168 2126.1398,-137.6357 2117.7726,-129.0654 2081,-112 2055.0424,-99.9536 1986.2647,-86.4654 1932.8371,-77.2264"/>
<polygon fill="#191970" stroke="#191970" points="1933.1609,-73.7311 1922.7139,-75.4946 1931.9804,-80.6308 1933.1609,-73.7311"/>
</g>
<!-- Node67&#45;&gt;Node37 -->
<g id="edge165" class="edge">
<title>Node67&#45;&gt;Node37</title>
<path fill="none" stroke="#191970" d="M1972.3307,-695.1288C1969.1792,-694.7029 1966.0486,-694.3203 1963,-694 1757.0901,-672.3638 1233.524,-705.4878 1032,-658 973.1415,-644.1304 942.4135,-651.7232 908,-602 849.8535,-517.9857 870.5409,-386.3119 882.7017,-331.6204"/>
<polygon fill="#191970" stroke="#191970" points="886.142,-332.2779 884.9942,-321.7454 879.3234,-330.6948 886.142,-332.2779"/>
</g>
<!-- Node67&#45;&gt;Node47 -->
<g id="edge166" class="edge">
<title>Node67&#45;&gt;Node47</title>
<path fill="none" stroke="#191970" d="M1972.332,-695.1169C1969.1802,-694.6939 1966.0492,-694.3153 1963,-694 1850.3079,-682.3487 1050.7891,-695.8332 944,-658 801.4946,-607.5133 747.6253,-572.9299 688,-434 677.7913,-410.2133 676.1269,-403.5537 672,-378 669.5461,-362.8055 668.7646,-345.5732 668.6116,-331.8335"/>
<polygon fill="#191970" stroke="#191970" points="672.1116,-331.6663 668.6037,-321.669 665.1116,-331.6718 672.1116,-331.6663"/>
</g>
<!-- Node67&#45;&gt;Node68 -->
<g id="edge136" class="edge">
<title>Node67&#45;&gt;Node68</title>
<path fill="none" stroke="#191970" d="M2046.0869,-694.4862C2121.002,-666.076 2343.2078,-581.8083 2429.3409,-549.1439"/>
<polygon fill="#191970" stroke="#191970" points="2430.8052,-552.3318 2438.9144,-545.5133 2428.3231,-545.7867 2430.8052,-552.3318"/>
</g>
<!-- Node72 -->
<g id="node46" class="node">
<title>Node72</title>
<g id="a_node46"><a xlink:href="tir_2expr_8h.html" target="_top" xlink:title="TIR expressions. ">
<polygon fill="#ffffff" stroke="#ff0000" points="1296.5,-470.5 1296.5,-489.5 1379.5,-489.5 1379.5,-470.5 1296.5,-470.5"/>
<text text-anchor="middle" x="1338" y="-477.5" font-family="Helvetica,sans-Serif" font-size="10.00" fill="#000000">tvm/tir/expr.h</text>
</a>
</g>
</g>
<!-- Node67&#45;&gt;Node72 -->
<g id="edge168" class="edge">
<title>Node67&#45;&gt;Node72</title>
<path fill="none" stroke="#191970" d="M1972.3212,-695.2142C1969.1721,-694.7674 1966.0446,-694.3569 1963,-694 1848.6614,-680.5975 1007.3036,-688.2015 931,-602 876.564,-540.5027 859.2775,-584.7078 1045,-526 1126.9789,-500.0861 1226.6661,-488.4071 1286.0857,-483.4182"/>
<polygon fill="#191970" stroke="#191970" points="1286.6547,-486.8837 1296.3405,-482.5903 1286.0913,-479.9064 1286.6547,-486.8837"/>
</g>
<!-- Node75 -->
<g id="node47" class="node">
<title>Node75</title>
<g id="a_node47"><a xlink:href="relay_2expr_8h.html" target="_top" xlink:title="Relay expression language. ">
<polygon fill="#ffffff" stroke="#ff0000" points="1975.5,-638.5 1975.5,-657.5 2072.5,-657.5 2072.5,-638.5 1975.5,-638.5"/>
<text text-anchor="middle" x="2024" y="-645.5" font-family="Helvetica,sans-Serif" font-size="10.00" fill="#000000">tvm/relay/expr.h</text>
</a>
</g>
</g>
<!-- Node67&#45;&gt;Node75 -->
<g id="edge158" class="edge">
<title>Node67&#45;&gt;Node75</title>
<path fill="none" stroke="#191970" d="M2021.5226,-694.2455C2021.914,-686.9382 2022.4628,-676.6944 2022.9444,-667.7046"/>
<polygon fill="#191970" stroke="#191970" points="2026.4434,-667.8156 2023.4834,-657.6427 2019.4534,-667.4411 2026.4434,-667.8156"/>
</g>
<!-- Node85 -->
<g id="node48" class="node">
<title>Node85</title>
<g id="a_node48"><a xlink:href="tir_2op_8h.html" target="_top" xlink:title="Common operators defined for Expr. ">
<polygon fill="#ffffff" stroke="#ff0000" points="2166,-526.5 2166,-545.5 2240,-545.5 2240,-526.5 2166,-526.5"/>
<text text-anchor="middle" x="2203" y="-533.5" font-family="Helvetica,sans-Serif" font-size="10.00" fill="#000000">tvm/tir/op.h</text>
</a>
</g>
</g>
<!-- Node67&#45;&gt;Node85 -->
<g id="edge169" class="edge">
<title>Node67&#45;&gt;Node85</title>
<path fill="none" stroke="#191970" d="M2035.0071,-694.3101C2047.6647,-685.3526 2066.6139,-671.4353 2082,-658 2121.9997,-623.0718 2164.8775,-577.729 2187.2899,-553.344"/>
<polygon fill="#191970" stroke="#191970" points="2190.1639,-555.3873 2194.3257,-545.6441 2184.9963,-550.6654 2190.1639,-555.3873"/>
</g>
<!-- Node68&#45;&gt;Node19 -->
<g id="edge157" class="edge">
<title>Node68&#45;&gt;Node19</title>
<path fill="none" stroke="#191970" d="M2513.03,-527.6944C2540.9573,-521.0791 2575.3753,-509.5655 2601,-490 2679.0357,-430.4166 2724,-404.6822 2724,-306.5 2724,-306.5 2724,-306.5 2724,-239.5 2724,-137.4555 2666.4473,-118.7799 2586,-56 2563.0084,-38.0577 2531.9896,-25.8676 2508.9209,-18.5685"/>
<polygon fill="#191970" stroke="#191970" points="2509.8387,-15.1896 2499.2537,-15.6466 2507.8134,-21.8902 2509.8387,-15.1896"/>
</g>
<!-- Node68&#45;&gt;Node57 -->
<g id="edge145" class="edge">
<title>Node68&#45;&gt;Node57</title>
<path fill="none" stroke="#191970" d="M2471.4569,-526.1851C2480.5591,-512.9131 2493.6196,-488.7484 2484,-470 2464.5182,-432.0303 2445.3145,-430.6013 2406,-414 2337.6272,-385.1283 2251.6332,-374.3736 2198.2363,-370.3702"/>
<polygon fill="#191970" stroke="#191970" points="2198.2259,-366.861 2188.0064,-369.6561 2197.7384,-373.844 2198.2259,-366.861"/>
</g>
<!-- Node68&#45;&gt;Node60 -->
<g id="edge137" class="edge">
<title>Node68&#45;&gt;Node60</title>
<path fill="none" stroke="#191970" d="M2414.7893,-526.6899C2360.3139,-516.3837 2272.9758,-499.8603 2218.1328,-489.4846"/>
<polygon fill="#191970" stroke="#191970" points="2218.7621,-486.0416 2208.2858,-487.6216 2217.4608,-492.9196 2218.7621,-486.0416"/>
</g>
<!-- Node69 -->
<g id="node44" class="node">
<title>Node69</title>
<g id="a_node44"><a xlink:href="env__func_8h.html" target="_top" xlink:title="Serializable global function used in IR. ">
<polygon fill="#ffffff" stroke="#000000" points="2214,-230 2214,-249 2316,-249 2316,-230 2214,-230"/>
<text text-anchor="middle" x="2265" y="-237" font-family="Helvetica,sans-Serif" font-size="10.00" fill="#000000">tvm/ir/env_func.h</text>
</a>
</g>
</g>
<!-- Node68&#45;&gt;Node69 -->
<g id="edge138" class="edge">
<title>Node68&#45;&gt;Node69</title>
<path fill="none" stroke="#191970" d="M2513.1534,-528.956C2554.0937,-520.6213 2603.1481,-503.4247 2586,-470 2525.281,-351.648 2372.4152,-280.3541 2301.8038,-252.7234"/>
<polygon fill="#191970" stroke="#191970" points="2302.9943,-249.4315 2292.4043,-249.114 2300.485,-255.9663 2302.9943,-249.4315"/>
</g>
<!-- Node70 -->
<g id="node45" class="node">
<title>Node70</title>
<g id="a_node45"><a xlink:href="tensor__type_8h.html" target="_top" xlink:title="Polymorphic tensor types. ">
<polygon fill="#ffffff" stroke="#000000" points="2344,-470.5 2344,-489.5 2460,-489.5 2460,-470.5 2344,-470.5"/>
<text text-anchor="middle" x="2402" y="-477.5" font-family="Helvetica,sans-Serif" font-size="10.00" fill="#000000">tvm/ir/tensor_type.h</text>
</a>
</g>
</g>
<!-- Node68&#45;&gt;Node70 -->
<g id="edge142" class="edge">
<title>Node68&#45;&gt;Node70</title>
<path fill="none" stroke="#191970" d="M2453.2004,-526.2455C2444.1322,-518.0549 2430.9794,-506.1749 2420.2755,-496.5069"/>
<polygon fill="#191970" stroke="#191970" points="2422.4429,-493.7482 2412.6758,-489.6427 2417.7509,-498.9429 2422.4429,-493.7482"/>
</g>
<!-- Node68&#45;&gt;Node72 -->
<g id="edge146" class="edge">
<title>Node68&#45;&gt;Node72</title>
<path fill="none" stroke="#191970" d="M2414.8932,-533.5577C2230.3373,-524.3791 1579.1644,-491.994 1389.9312,-482.5827"/>
<polygon fill="#191970" stroke="#191970" points="1389.8617,-479.075 1379.7002,-482.0739 1389.5139,-486.0664 1389.8617,-479.075"/>
</g>
<!-- Node69&#45;&gt;Node9 -->
<g id="edge139" class="edge">
<title>Node69&#45;&gt;Node9</title>
<path fill="none" stroke="#191970" d="M2233.75,-229.8906C2199.2589,-219.2846 2143.6188,-202.1753 2105.7338,-190.5257"/>
<polygon fill="#191970" stroke="#191970" points="2106.6176,-187.1357 2096.0306,-187.5419 2104.5601,-193.8266 2106.6176,-187.1357"/>
</g>
<!-- Node69&#45;&gt;Node19 -->
<g id="edge140" class="edge">
<title>Node69&#45;&gt;Node19</title>
<path fill="none" stroke="#191970" d="M2268.2961,-229.8255C2281.0546,-192.4263 2326.6535,-59.2244 2330,-56 2346.5019,-40.1002 2406.7942,-24.8723 2444.8472,-16.5429"/>
<polygon fill="#191970" stroke="#191970" points="2445.8905,-19.8989 2454.9355,-14.3817 2444.4242,-13.0542 2445.8905,-19.8989"/>
</g>
<!-- Node69&#45;&gt;Node21 -->
<g id="edge141" class="edge">
<title>Node69&#45;&gt;Node21</title>
<path fill="none" stroke="#191970" d="M2263.5167,-229.6757C2259.3202,-205.5025 2245.0268,-142.8647 2206,-112 2108.167,-34.6279 2054.9104,-70.2808 1931,-56 1769.4236,-37.3782 570.4361,-14.5573 355.8319,-10.5987"/>
<polygon fill="#191970" stroke="#191970" points="355.604,-7.094 345.5413,-10.4095 355.4752,-14.0929 355.604,-7.094"/>
</g>
<!-- Node70&#45;&gt;Node6 -->
<g id="edge143" class="edge">
<title>Node70&#45;&gt;Node6</title>
<path fill="none" stroke="#191970" d="M2343.7007,-475.2222C2265.1595,-468.412 2120.8374,-454.5847 1987.512,-433.9494"/>
<polygon fill="#191970" stroke="#191970" points="1987.9452,-430.4747 1977.5244,-432.3874 1986.8635,-437.3906 1987.9452,-430.4747"/>
</g>
<!-- Node70&#45;&gt;Node57 -->
<g id="edge144" class="edge">
<title>Node70&#45;&gt;Node57</title>
<path fill="none" stroke="#191970" d="M2394.2382,-470.3172C2382.0936,-455.8302 2357.1611,-428.6537 2330,-414 2288.707,-391.7219 2236.2994,-379.953 2198.3372,-373.9188"/>
<polygon fill="#191970" stroke="#191970" points="2198.4443,-370.3954 2188.0341,-372.3649 2197.4003,-377.3172 2198.4443,-370.3954"/>
</g>
<!-- Node72&#45;&gt;Node6 -->
<g id="edge147" class="edge">
<title>Node72&#45;&gt;Node6</title>
<path fill="none" stroke="#191970" d="M1379.7145,-476.1066C1487.0297,-466.0906 1772.3436,-439.4613 1888.1279,-428.6547"/>
<polygon fill="#191970" stroke="#191970" points="1888.5071,-432.1346 1898.1385,-427.7204 1887.8565,-425.1649 1888.5071,-432.1346"/>
</g>
<!-- Node72&#45;&gt;Node8 -->
<g id="edge148" class="edge">
<title>Node72&#45;&gt;Node8</title>
<path fill="none" stroke="#191970" d="M1355.8172,-470.3967C1412.6474,-440.107 1595.3116,-345.3757 1756,-291 1809.8315,-272.7838 1873.1436,-258.7964 1918.3507,-250.0269"/>
<polygon fill="#191970" stroke="#191970" points="1919.1205,-253.4432 1928.2851,-248.1272 1917.8057,-246.5678 1919.1205,-253.4432"/>
</g>
<!-- Node72&#45;&gt;Node19 -->
<g id="edge154" class="edge">
<title>Node72&#45;&gt;Node19</title>
<path fill="none" stroke="#191970" d="M1372.9514,-470.4863C1421.9803,-457.2477 1514.0327,-432.7816 1593,-414 1707.1524,-386.8499 1736.2178,-382.3504 1851,-358 2071.6716,-311.1859 2151.3056,-365.4483 2348,-255 2388.8526,-232.0604 2420,-224.8525 2420,-178 2420,-178 2420,-178 2420,-122 2420,-85.1826 2444.7675,-48.2377 2461.6501,-27.3313"/>
<polygon fill="#191970" stroke="#191970" points="2464.3511,-29.5574 2468.0938,-19.6456 2458.9869,-25.06 2464.3511,-29.5574"/>
</g>
<!-- Node72&#45;&gt;Node21 -->
<g id="edge156" class="edge">
<title>Node72&#45;&gt;Node21</title>
<path fill="none" stroke="#191970" d="M1296.4351,-477.6311C1166.2728,-469.1851 756.308,-434.7529 439,-322 408.8413,-311.2833 404.4567,-300.8379 374,-291 288.8874,-263.5074 242.9922,-314.2626 176,-255 149.1515,-231.2493 152,-213.846 152,-178 152,-178 152,-178 152,-122 152,-90.7875 153.4331,-77.5628 176,-56 192.4797,-40.2536 252.1963,-25.0805 290.2585,-16.6997"/>
<polygon fill="#191970" stroke="#191970" points="291.3278,-20.0497 300.3658,-14.5212 289.8528,-13.2069 291.3278,-20.0497"/>
</g>
<!-- Node72&#45;&gt;Node37 -->
<g id="edge149" class="edge">
<title>Node72&#45;&gt;Node37</title>
<path fill="none" stroke="#191970" d="M1305.9588,-470.4796C1278.1172,-461.8965 1236.893,-448.4367 1202,-434 1131.4727,-404.8198 1118.7143,-386.724 1048,-358 1016.8432,-345.3442 981.3084,-333.592 951.7457,-324.5193"/>
<polygon fill="#191970" stroke="#191970" points="952.5496,-321.1057 941.964,-321.5478 950.5149,-327.8035 952.5496,-321.1057"/>
</g>
<!-- Node72&#45;&gt;Node29 -->
<g id="edge152" class="edge">
<title>Node72&#45;&gt;Node29</title>
<path fill="none" stroke="#191970" d="M1344.2287,-470.3421C1370.479,-428.3239 1467.073,-259.4501 1386,-168 1363.7941,-142.9518 1141.6561,-128.8824 1047.1739,-123.9908"/>
<polygon fill="#191970" stroke="#191970" points="1047.2684,-120.4912 1037.1037,-123.4793 1046.9133,-127.4822 1047.2684,-120.4912"/>
</g>
<!-- Node72&#45;&gt;Node31 -->
<g id="edge151" class="edge">
<title>Node72&#45;&gt;Node31</title>
<path fill="none" stroke="#191970" d="M1318.5838,-470.329C1300.2854,-461.1552 1272.1472,-446.8943 1248,-434 1132.2366,-372.1838 996.9627,-295.5042 934.2449,-259.6937"/>
<polygon fill="#191970" stroke="#191970" points="935.9479,-256.6358 925.5289,-254.7134 932.4751,-262.7136 935.9479,-256.6358"/>
</g>
<!-- Node72&#45;&gt;Node36 -->
<g id="edge155" class="edge">
<title>Node72&#45;&gt;Node36</title>
<path fill="none" stroke="#191970" d="M1334.1376,-470.3228C1330.6962,-461.1446 1325.9167,-446.8807 1324,-434 1310.2628,-341.6831 1316.9593,-317.0674 1324,-224 1324.6536,-215.361 1325.9881,-205.8868 1327.3183,-197.7935"/>
<polygon fill="#191970" stroke="#191970" points="1330.7872,-198.2753 1329.0653,-187.8213 1323.8922,-197.0674 1330.7872,-198.2753"/>
</g>
<!-- Node72&#45;&gt;Node50 -->
<g id="edge153" class="edge">
<title>Node72&#45;&gt;Node50</title>
<path fill="none" stroke="#191970" d="M1379.7086,-472.6886C1466.7821,-457.1918 1674.0789,-419.0801 1846,-378 1847.2776,-377.6947 1848.5783,-377.3752 1849.8905,-377.0455"/>
<polygon fill="#191970" stroke="#191970" points="1851.2014,-380.3198 1859.9812,-374.3897 1849.4196,-373.5503 1851.2014,-380.3198"/>
</g>
<!-- Node72&#45;&gt;Node47 -->
<g id="edge150" class="edge">
<title>Node72&#45;&gt;Node47</title>
<path fill="none" stroke="#191970" d="M1299.9807,-470.4906C1263.1442,-461.2535 1205.7117,-446.7894 1156,-434 1005.7342,-395.3408 829.6751,-348.9836 735.8624,-324.1971"/>
<polygon fill="#191970" stroke="#191970" points="736.5028,-320.7463 725.9404,-321.575 734.7142,-327.5139 736.5028,-320.7463"/>
</g>
<!-- Node75&#45;&gt;Node4 -->
<g id="edge161" class="edge">
<title>Node75&#45;&gt;Node4</title>
<path fill="none" stroke="#191970" d="M1975.2316,-643.2255C1870.1743,-632.9401 1622.8822,-608.7297 1510.008,-597.6791"/>
<polygon fill="#191970" stroke="#191970" points="1510.1316,-594.1746 1499.8381,-596.6835 1509.4495,-601.1413 1510.1316,-594.1746"/>
</g>
<!-- Node75&#45;&gt;Node6 -->
<g id="edge160" class="edge">
<title>Node75&#45;&gt;Node6</title>
<path fill="none" stroke="#191970" d="M2025.618,-638.2533C2029.7986,-609.9227 2038.4283,-526.0536 2005,-470 1996.9748,-456.543 1983.305,-446.1053 1970.3976,-438.5994"/>
<polygon fill="#191970" stroke="#191970" points="1971.6882,-435.3188 1961.2255,-433.651 1968.3645,-441.4795 1971.6882,-435.3188"/>
</g>
<!-- Node75&#45;&gt;Node19 -->
<g id="edge163" class="edge">
<title>Node75&#45;&gt;Node19</title>
<path fill="none" stroke="#191970" d="M2072.5574,-646.7673C2253.1952,-641.5482 2876,-617.6345 2876,-536 2876,-536 2876,-536 2876,-480 2876,-371.7851 2914,-347.7149 2914,-239.5 2914,-239.5 2914,-239.5 2914,-122 2914,-38.4988 2610.8204,-16.3964 2509.5168,-11.3418"/>
<polygon fill="#191970" stroke="#191970" points="2509.4266,-7.8337 2499.2717,-10.855 2509.0943,-14.8258 2509.4266,-7.8337"/>
</g>
<!-- Node75&#45;&gt;Node21 -->
<g id="edge164" class="edge">
<title>Node75&#45;&gt;Node21</title>
<path fill="none" stroke="#191970" d="M1975.436,-644.8211C1869.8108,-637.8253 1611.3005,-620.2598 1395,-602 1134.7372,-580.029 1066.2732,-596.4331 810,-546 641.0027,-512.7423 602.3849,-488.5119 439,-434 404.6553,-422.5412 318.7655,-393.4042 286,-378 169.3586,-323.1628 76,-306.8889 76,-178 76,-178 76,-178 76,-122 76,-84.6561 96.5114,-76.0757 128,-56 154.7098,-38.971 242.1196,-22.8886 290.3371,-15.0257"/>
<polygon fill="#191970" stroke="#191970" points="290.9594,-18.4707 300.2785,-13.4305 289.8503,-11.5591 290.9594,-18.4707"/>
</g>
<!-- Node75&#45;&gt;Node60 -->
<g id="edge159" class="edge">
<title>Node75&#45;&gt;Node60</title>
<path fill="none" stroke="#191970" d="M2054.4032,-638.4202C2073.5848,-631.0625 2097.7229,-619.2116 2114,-602 2141.9909,-572.4021 2157.0088,-525.8902 2163.6677,-499.6744"/>
<polygon fill="#191970" stroke="#191970" points="2167.1096,-500.329 2166.0231,-489.7901 2160.3003,-498.7063 2167.1096,-500.329"/>
</g>
<!-- Node75&#45;&gt;Node45 -->
<g id="edge162" class="edge">
<title>Node75&#45;&gt;Node45</title>
<path fill="none" stroke="#191970" d="M2027.8624,-638.3228C2031.3038,-629.1446 2036.0833,-614.8807 2038,-602 2046.6348,-543.9723 2044.2671,-528.331 2038,-470 2037.0637,-461.285 2035.1567,-451.7985 2033.2568,-443.7166"/>
<polygon fill="#191970" stroke="#191970" points="2036.5899,-442.6187 2030.7621,-433.7707 2029.8002,-444.3218 2036.5899,-442.6187"/>
</g>
<!-- Node85&#45;&gt;Node6 -->
<g id="edge170" class="edge">
<title>Node85&#45;&gt;Node6</title>
<path fill="none" stroke="#191970" d="M2180.4062,-526.4509C2133.2739,-506.5308 2024.348,-460.4942 1970.0185,-437.5323"/>
<polygon fill="#191970" stroke="#191970" points="1971.1103,-434.1941 1960.5366,-433.5249 1968.3851,-440.6418 1971.1103,-434.1941"/>
</g>
<!-- Node85&#45;&gt;Node20 -->
<g id="edge175" class="edge">
<title>Node85&#45;&gt;Node20</title>
<path fill="none" stroke="#191970" d="M2240.1218,-534.1444C2386.1108,-526.7844 2913.499,-499.5824 2928,-490 3103.6733,-373.9143 3253.354,-217.2956 3118,-56 3090.9781,-23.7992 2969.5606,-14.1308 2902.2674,-11.2342"/>
<polygon fill="#191970" stroke="#191970" points="2902.0856,-7.7243 2891.9547,-10.825 2901.808,-14.7188 2902.0856,-7.7243"/>
</g>
<!-- Node85&#45;&gt;Node57 -->
<g id="edge171" class="edge">
<title>Node85&#45;&gt;Node57</title>
<path fill="none" stroke="#191970" d="M2240.1625,-535.2312C2306.2915,-532.9929 2440.1743,-524.2384 2469,-490 2474.7249,-483.2001 2473.6596,-477.5697 2469,-470 2440.2368,-423.2724 2281.1313,-390.2386 2198.2484,-375.9337"/>
<polygon fill="#191970" stroke="#191970" points="2198.7353,-372.4663 2188.2903,-374.2419 2197.5627,-379.3674 2198.7353,-372.4663"/>
</g>
<!-- Node85&#45;&gt;Node29 -->
<g id="edge173" class="edge">
<title>Node85&#45;&gt;Node29</title>
<path fill="none" stroke="#191970" d="M2165.8692,-534.5569C2047.0053,-529.7232 1680.8299,-513.0973 1633,-490 1540.9724,-445.5593 1532.5518,-407.1231 1476,-322 1434.4973,-259.5291 1467.5252,-212.2921 1407,-168 1378.3529,-147.0362 1144.3175,-130.4992 1047.0985,-124.4682"/>
<polygon fill="#191970" stroke="#191970" points="1047.2283,-120.9697 1037.0328,-123.8511 1046.7999,-127.9566 1047.2283,-120.9697"/>
</g>
<!-- Node85&#45;&gt;Node50 -->
<g id="edge174" class="edge">
<title>Node85&#45;&gt;Node50</title>
<path fill="none" stroke="#191970" d="M2208.0794,-526.0645C2214.0505,-513.0641 2222.4918,-489.6273 2217,-470 2209.1543,-441.9599 2207.2205,-430.1608 2183,-414 2139.381,-384.8959 1982.603,-373.2751 1914.2459,-369.5186"/>
<polygon fill="#191970" stroke="#191970" points="1914.2355,-366.0133 1904.065,-368.9817 1913.8668,-373.0036 1914.2355,-366.0133"/>
</g>
<!-- Node85&#45;&gt;Node72 -->
<g id="edge172" class="edge">
<title>Node85&#45;&gt;Node72</title>
<path fill="none" stroke="#191970" d="M2165.9198,-533.774C2058.9111,-527.3241 1740.3417,-507.9402 1476,-490 1447.4374,-488.0615 1415.56,-485.7606 1389.6447,-483.8549"/>
<polygon fill="#191970" stroke="#191970" points="1389.8917,-480.3637 1379.6614,-483.1186 1389.3768,-487.3447 1389.8917,-480.3637"/>
</g>
</g>
</svg>
