<?xml version="1.0" encoding="UTF-8" standalone="no"?>
<!DOCTYPE svg PUBLIC "-//W3C//DTD SVG 1.1//EN"
 "http://www.w3.org/Graphics/SVG/1.1/DTD/svg11.dtd">
<!-- Generated by graphviz version 2.40.1 (20161225.0304)
 -->
<!-- Title: include/tvm/relax/block_builder.h Pages: 1 -->
<svg width="789pt" height="240pt"
 viewBox="0.00 0.00 789.05 240.00" xmlns="http://www.w3.org/2000/svg" xmlns:xlink="http://www.w3.org/1999/xlink">
<g id="graph0" class="graph" transform="scale(1 1) rotate(0) translate(4 236)">
<title>include/tvm/relax/block_builder.h</title>
<polygon fill="#ffffff" stroke="transparent" points="-4,4 -4,-236 785.047,-236 785.047,4 -4,4"/>
<!-- Node90 -->
<g id="node1" class="node">
<title>Node90</title>
<polygon fill="#bfbfbf" stroke="#000000" points="355.047,-201.5 355.047,-231.5 486.047,-231.5 486.047,-201.5 355.047,-201.5"/>
<text text-anchor="start" x="363.047" y="-219.5" font-family="Helvetica,sans-Serif" font-size="10.00" fill="#000000">include/tvm/relax/block</text>
<text text-anchor="middle" x="420.547" y="-208.5" font-family="Helvetica,sans-Serif" font-size="10.00" fill="#000000">_builder.h</text>
</g>
<!-- Node91 -->
<g id="node2" class="node">
<title>Node91</title>
<g id="a_node2"><a xlink:href="relax_2expr__functor_8h.html" target="_top" xlink:title="A more powerful visitor which enables defining arbitrary function signatures with type based dispatch...">
<polygon fill="#ffffff" stroke="#000000" points="310.047,-.5 310.047,-30.5 437.047,-30.5 437.047,-.5 310.047,-.5"/>
<text text-anchor="start" x="318.047" y="-18.5" font-family="Helvetica,sans-Serif" font-size="10.00" fill="#000000">include/tvm/relax/expr</text>
<text text-anchor="middle" x="373.547" y="-7.5" font-family="Helvetica,sans-Serif" font-size="10.00" fill="#000000">_functor.h</text>
</a>
</g>
</g>
<!-- Node90&#45;&gt;Node91 -->
<g id="edge1" class="edge">
<title>Node90&#45;&gt;Node91</title>
<path fill="none" stroke="#191970" d="M344.6663,-205.7653C236.6799,-188.759 47.2042,-151.9273 6.547,-98 -1.7473,-86.9985 -2.4931,-77.3973 6.547,-67 26.1245,-44.4834 210.0265,-27.5578 309.8315,-19.9431"/>
<polygon fill="#191970" stroke="#191970" points="344.4355,-209.2714 354.8545,-207.3491 345.5108,-202.3545 344.4355,-209.2714"/>
</g>
<!-- Node92 -->
<g id="node3" class="node">
<title>Node92</title>
<g id="a_node3"><a xlink:href="struct__info_8h.html" target="_top" xlink:title="include/tvm/relax/struct\l_info.h">
<polygon fill="#ffffff" stroke="#000000" points="354.047,-134.5 354.047,-164.5 487.047,-164.5 487.047,-134.5 354.047,-134.5"/>
<text text-anchor="start" x="362.047" y="-152.5" font-family="Helvetica,sans-Serif" font-size="10.00" fill="#000000">include/tvm/relax/struct</text>
<text text-anchor="middle" x="420.547" y="-141.5" font-family="Helvetica,sans-Serif" font-size="10.00" fill="#000000">_info.h</text>
</a>
</g>
</g>
<!-- Node90&#45;&gt;Node92 -->
<g id="edge2" class="edge">
<title>Node90&#45;&gt;Node92</title>
<path fill="none" stroke="#191970" d="M420.547,-191.0249C420.547,-182.128 420.547,-172.4287 420.547,-164.6432"/>
<polygon fill="#191970" stroke="#191970" points="417.0471,-191.2966 420.547,-201.2967 424.0471,-191.2967 417.0471,-191.2966"/>
</g>
<!-- Node99 -->
<g id="node10" class="node">
<title>Node99</title>
<g id="a_node10"><a xlink:href="relax_2frame_8h.html" target="_top" xlink:title="include/tvm/script\l/ir_builder/relax/frame.h">
<polygon fill="#ffffff" stroke="#000000" points="605.547,-134.5 605.547,-164.5 739.547,-164.5 739.547,-134.5 605.547,-134.5"/>
<text text-anchor="start" x="613.547" y="-152.5" font-family="Helvetica,sans-Serif" font-size="10.00" fill="#000000">include/tvm/script</text>
<text text-anchor="middle" x="672.547" y="-141.5" font-family="Helvetica,sans-Serif" font-size="10.00" fill="#000000">/ir_builder/relax/frame.h</text>
</a>
</g>
</g>
<!-- Node90&#45;&gt;Node99 -->
<g id="edge11" class="edge">
<title>Node90&#45;&gt;Node99</title>
<path fill="none" stroke="#191970" d="M486.7914,-198.8874C526.8861,-188.2273 577.4864,-174.774 615.7466,-164.6017"/>
<polygon fill="#191970" stroke="#191970" points="485.8657,-195.5119 477.1007,-201.4639 487.6643,-202.2768 485.8657,-195.5119"/>
</g>
<!-- Node92&#45;&gt;Node91 -->
<g id="edge5" class="edge">
<title>Node92&#45;&gt;Node91</title>
<path fill="none" stroke="#191970" d="M438.8345,-126.091C449.7103,-109.136 459.6021,-85.9599 449.547,-67 441.034,-50.9479 425.0318,-38.9795 409.8987,-30.6411"/>
<polygon fill="#191970" stroke="#191970" points="435.9465,-124.1138 433.1579,-134.335 441.7119,-128.0837 435.9465,-124.1138"/>
</g>
<!-- Node93 -->
<g id="node4" class="node">
<title>Node93</title>
<g id="a_node4"><a xlink:href="relax_2analysis_8h.html" target="_top" xlink:title="The set of Relax specific analysis on IR. ">
<polygon fill="#ffffff" stroke="#000000" points="497.047,-73 497.047,-92 652.047,-92 652.047,-73 497.047,-73"/>
<text text-anchor="middle" x="574.547" y="-80" font-family="Helvetica,sans-Serif" font-size="10.00" fill="#000000">include/tvm/relax/analysis.h</text>
</a>
</g>
</g>
<!-- Node92&#45;&gt;Node93 -->
<g id="edge3" class="edge">
<title>Node92&#45;&gt;Node93</title>
<path fill="none" stroke="#191970" d="M464.5374,-130.3613C493.2891,-117.8525 529.6149,-102.0484 552.4723,-92.1039"/>
<polygon fill="#191970" stroke="#191970" points="462.8811,-127.265 455.1076,-134.4639 465.6737,-133.6838 462.8811,-127.265"/>
</g>
<!-- Node95 -->
<g id="node6" class="node">
<title>Node95</title>
<g id="a_node6"><a xlink:href="nested__msg_8h.html" target="_top" xlink:title="Helper container to store nested message for robust tuple&#45;aware analysis. ">
<polygon fill="#ffffff" stroke="#000000" points="15.547,-67.5 15.547,-97.5 153.547,-97.5 153.547,-67.5 15.547,-67.5"/>
<text text-anchor="start" x="23.547" y="-85.5" font-family="Helvetica,sans-Serif" font-size="10.00" fill="#000000">include/tvm/relax/nested</text>
<text text-anchor="middle" x="84.547" y="-74.5" font-family="Helvetica,sans-Serif" font-size="10.00" fill="#000000">_msg.h</text>
</a>
</g>
</g>
<!-- Node92&#45;&gt;Node95 -->
<g id="edge6" class="edge">
<title>Node92&#45;&gt;Node95</title>
<path fill="none" stroke="#191970" d="M343.6883,-134.174C286.4948,-122.7693 209.0909,-107.3346 153.804,-96.3102"/>
<polygon fill="#191970" stroke="#191970" points="343.2711,-137.6596 353.7625,-136.1828 344.64,-130.7948 343.2711,-137.6596"/>
</g>
<!-- Node96 -->
<g id="node7" class="node">
<title>Node96</title>
<g id="a_node7"><a xlink:href="relax_2op__attr__types_8h.html" target="_top" xlink:title="Data structures that can appear in operator attributes. ">
<polygon fill="#ffffff" stroke="#000000" points="172.047,-67.5 172.047,-97.5 289.047,-97.5 289.047,-67.5 172.047,-67.5"/>
<text text-anchor="start" x="180.047" y="-85.5" font-family="Helvetica,sans-Serif" font-size="10.00" fill="#000000">include/tvm/relax/op</text>
<text text-anchor="middle" x="230.547" y="-74.5" font-family="Helvetica,sans-Serif" font-size="10.00" fill="#000000">_attr_types.h</text>
</a>
</g>
</g>
<!-- Node92&#45;&gt;Node96 -->
<g id="edge7" class="edge">
<title>Node92&#45;&gt;Node96</title>
<path fill="none" stroke="#191970" d="M368.0907,-131.0023C338.2806,-120.4903 301.4268,-107.4945 273.3727,-97.6017"/>
<polygon fill="#191970" stroke="#191970" points="367.3125,-134.439 377.9073,-134.4639 369.6405,-127.8374 367.3125,-134.439"/>
</g>
<!-- Node97 -->
<g id="node8" class="node">
<title>Node97</title>
<g id="a_node8"><a xlink:href="struct__info__functor_8h.html" target="_top" xlink:title="Functors and visitors for struct info. ">
<polygon fill="#ffffff" stroke="#000000" points="307.047,-67.5 307.047,-97.5 440.047,-97.5 440.047,-67.5 307.047,-67.5"/>
<text text-anchor="start" x="315.047" y="-85.5" font-family="Helvetica,sans-Serif" font-size="10.00" fill="#000000">include/tvm/relax/struct</text>
<text text-anchor="middle" x="373.547" y="-74.5" font-family="Helvetica,sans-Serif" font-size="10.00" fill="#000000">_info_functor.h</text>
</a>
</g>
</g>
<!-- Node92&#45;&gt;Node97 -->
<g id="edge8" class="edge">
<title>Node92&#45;&gt;Node97</title>
<path fill="none" stroke="#191970" d="M404.1058,-126.0626C397.49,-116.6315 390.0515,-106.0276 384.1698,-97.6432"/>
<polygon fill="#191970" stroke="#191970" points="401.2738,-128.1201 409.882,-134.2967 407.0044,-124.1001 401.2738,-128.1201"/>
</g>
<!-- Node98 -->
<g id="node9" class="node">
<title>Node98</title>
<g id="a_node9"><a xlink:href="relax_2ir_8h.html" target="_top" xlink:title="include/tvm/script\l/ir_builder/relax/ir.h">
<polygon fill="#ffffff" stroke="#000000" points="670.047,-67.5 670.047,-97.5 781.047,-97.5 781.047,-67.5 670.047,-67.5"/>
<text text-anchor="start" x="678.047" y="-85.5" font-family="Helvetica,sans-Serif" font-size="10.00" fill="#000000">include/tvm/script</text>
<text text-anchor="middle" x="725.547" y="-74.5" font-family="Helvetica,sans-Serif" font-size="10.00" fill="#000000">/ir_builder/relax/ir.h</text>
</a>
</g>
</g>
<!-- Node92&#45;&gt;Node98 -->
<g id="edge10" class="edge">
<title>Node92&#45;&gt;Node98</title>
<path fill="none" stroke="#191970" d="M497.0354,-133.7072C544.4722,-123.7758 606.6343,-110.5144 661.547,-98 664.2222,-97.3903 666.9583,-96.7588 669.7203,-96.1147"/>
<polygon fill="#191970" stroke="#191970" points="496.2168,-130.3025 487.1443,-135.7744 497.6489,-137.1545 496.2168,-130.3025"/>
</g>
<!-- Node94 -->
<g id="node5" class="node">
<title>Node94</title>
<g id="a_node5"><a xlink:href="binding__rewrite_8h.html" target="_top" xlink:title="An IR rewriter to easily add/remove/replace bindings (statements). ">
<polygon fill="#ffffff" stroke="#000000" points="504.047,-.5 504.047,-30.5 645.047,-30.5 645.047,-.5 504.047,-.5"/>
<text text-anchor="start" x="512.047" y="-18.5" font-family="Helvetica,sans-Serif" font-size="10.00" fill="#000000">include/tvm/relax/binding</text>
<text text-anchor="middle" x="574.547" y="-7.5" font-family="Helvetica,sans-Serif" font-size="10.00" fill="#000000">_rewrite.h</text>
</a>
</g>
</g>
<!-- Node93&#45;&gt;Node94 -->
<g id="edge4" class="edge">
<title>Node93&#45;&gt;Node94</title>
<path fill="none" stroke="#191970" d="M574.547,-62.7758C574.547,-52.4641 574.547,-40.0437 574.547,-30.5218"/>
<polygon fill="#191970" stroke="#191970" points="571.0471,-62.9005 574.547,-72.9005 578.0471,-62.9006 571.0471,-62.9005"/>
</g>
<!-- Node97&#45;&gt;Node91 -->
<g id="edge9" class="edge">
<title>Node97&#45;&gt;Node91</title>
<path fill="none" stroke="#191970" d="M373.547,-57.0249C373.547,-48.128 373.547,-38.4287 373.547,-30.6432"/>
<polygon fill="#191970" stroke="#191970" points="370.0471,-57.2966 373.547,-67.2967 377.0471,-57.2967 370.0471,-57.2966"/>
</g>
<!-- Node99&#45;&gt;Node98 -->
<g id="edge12" class="edge">
<title>Node99&#45;&gt;Node98</title>
<path fill="none" stroke="#191970" d="M690.859,-126.3509C698.3761,-116.8482 706.8679,-106.1132 713.5681,-97.6432"/>
<polygon fill="#191970" stroke="#191970" points="688.0326,-124.2824 684.5735,-134.2967 693.5226,-128.6252 688.0326,-124.2824"/>
</g>
</g>
</svg>
