<?xml version="1.0" encoding="UTF-8" standalone="no"?>
<!DOCTYPE svg PUBLIC "-//W3C//DTD SVG 1.1//EN"
 "http://www.w3.org/Graphics/SVG/1.1/DTD/svg11.dtd">
<!-- Generated by graphviz version 2.40.1 (20161225.0304)
 -->
<!-- Title: include/tvm/tir/schedule/block_scope.h Pages: 1 -->
<svg width="1517pt" height="575pt"
 viewBox="0.00 0.00 1516.50 575.00" xmlns="http://www.w3.org/2000/svg" xmlns:xlink="http://www.w3.org/1999/xlink">
<g id="graph0" class="graph" transform="scale(1 1) rotate(0) translate(4 571)">
<title>include/tvm/tir/schedule/block_scope.h</title>
<polygon fill="#ffffff" stroke="transparent" points="-4,4 -4,-571 1512.5,-571 1512.5,4 -4,4"/>
<!-- Node57 -->
<g id="node1" class="node">
<title>Node57</title>
<polygon fill="#bfbfbf" stroke="#000000" points="718,-536.5 718,-566.5 852,-566.5 852,-536.5 718,-536.5"/>
<text text-anchor="start" x="726" y="-554.5" font-family="Helvetica,sans-Serif" font-size="10.00" fill="#000000">include/tvm/tir/schedule</text>
<text text-anchor="middle" x="785" y="-543.5" font-family="Helvetica,sans-Serif" font-size="10.00" fill="#000000">/block_scope.h</text>
</g>
<!-- Node58 -->
<g id="node2" class="node">
<title>Node58</title>
<g id="a_node2"><a xlink:href="state_8h.html" target="_top" xlink:title="This file defines ScheduleState, the core data structure of TensorIR scheduling. ">
<polygon fill="#ffffff" stroke="#000000" points="718,-469.5 718,-499.5 852,-499.5 852,-469.5 718,-469.5"/>
<text text-anchor="start" x="726" y="-487.5" font-family="Helvetica,sans-Serif" font-size="10.00" fill="#000000">include/tvm/tir/schedule</text>
<text text-anchor="middle" x="785" y="-476.5" font-family="Helvetica,sans-Serif" font-size="10.00" fill="#000000">/state.h</text>
</a>
</g>
</g>
<!-- Node57&#45;&gt;Node58 -->
<g id="edge1" class="edge">
<title>Node57&#45;&gt;Node58</title>
<path fill="none" stroke="#191970" d="M785,-526.0249C785,-517.128 785,-507.4287 785,-499.6432"/>
<polygon fill="#191970" stroke="#191970" points="781.5001,-526.2966 785,-536.2967 788.5001,-526.2967 781.5001,-526.2966"/>
</g>
<!-- Node59 -->
<g id="node3" class="node">
<title>Node59</title>
<g id="a_node3"><a xlink:href="tir_2schedule_2schedule_8h.html" target="_top" xlink:title="include/tvm/tir/schedule\l/schedule.h">
<polygon fill="#ffffff" stroke="#000000" points="718,-402.5 718,-432.5 852,-432.5 852,-402.5 718,-402.5"/>
<text text-anchor="start" x="726" y="-420.5" font-family="Helvetica,sans-Serif" font-size="10.00" fill="#000000">include/tvm/tir/schedule</text>
<text text-anchor="middle" x="785" y="-409.5" font-family="Helvetica,sans-Serif" font-size="10.00" fill="#000000">/schedule.h</text>
</a>
</g>
</g>
<!-- Node58&#45;&gt;Node59 -->
<g id="edge2" class="edge">
<title>Node58&#45;&gt;Node59</title>
<path fill="none" stroke="#191970" d="M785,-459.0249C785,-450.128 785,-440.4287 785,-432.6432"/>
<polygon fill="#191970" stroke="#191970" points="781.5001,-459.2966 785,-469.2967 788.5001,-459.2967 781.5001,-459.2966"/>
</g>
<!-- Node60 -->
<g id="node4" class="node">
<title>Node60</title>
<g id="a_node4"><a xlink:href="meta__schedule_2cost__model_8h.html" target="_top" xlink:title="include/tvm/meta_schedule\l/cost_model.h">
<polygon fill="#ffffff" stroke="#000000" points="0,-268.5 0,-298.5 152,-298.5 152,-268.5 0,-268.5"/>
<text text-anchor="start" x="8" y="-286.5" font-family="Helvetica,sans-Serif" font-size="10.00" fill="#000000">include/tvm/meta_schedule</text>
<text text-anchor="middle" x="76" y="-275.5" font-family="Helvetica,sans-Serif" font-size="10.00" fill="#000000">/cost_model.h</text>
</a>
</g>
</g>
<!-- Node59&#45;&gt;Node60 -->
<g id="edge3" class="edge">
<title>Node59&#45;&gt;Node60</title>
<path fill="none" stroke="#191970" d="M707.7873,-415.4756C570.7451,-411.0965 290.7839,-398.3884 199,-366 156.5671,-351.0264 114.67,-317.9722 92.405,-298.5542"/>
<polygon fill="#191970" stroke="#191970" points="707.6975,-418.9744 717.802,-415.7889 707.9164,-411.9778 707.6975,-418.9744"/>
</g>
<!-- Node61 -->
<g id="node5" class="node">
<title>Node61</title>
<g id="a_node5"><a xlink:href="search__strategy_8h.html" target="_top" xlink:title="include/tvm/meta_schedule\l/search_strategy.h">
<polygon fill="#ffffff" stroke="#000000" points="312,-201.5 312,-231.5 464,-231.5 464,-201.5 312,-201.5"/>
<text text-anchor="start" x="320" y="-219.5" font-family="Helvetica,sans-Serif" font-size="10.00" fill="#000000">include/tvm/meta_schedule</text>
<text text-anchor="middle" x="388" y="-208.5" font-family="Helvetica,sans-Serif" font-size="10.00" fill="#000000">/search_strategy.h</text>
</a>
</g>
</g>
<!-- Node59&#45;&gt;Node61 -->
<g id="edge28" class="edge">
<title>Node59&#45;&gt;Node61</title>
<path fill="none" stroke="#191970" d="M707.5824,-414.6731C619.9602,-409.9708 484.2893,-397.6701 445,-366 402.6125,-331.8326 391.7185,-262.3499 388.9404,-231.6567"/>
<polygon fill="#191970" stroke="#191970" points="707.5887,-418.1779 717.7554,-415.1966 707.9485,-411.1872 707.5887,-418.1779"/>
</g>
<!-- Node65 -->
<g id="node9" class="node">
<title>Node65</title>
<g id="a_node9"><a xlink:href="database_8h.html" target="_top" xlink:title="include/tvm/meta_schedule\l/database.h">
<polygon fill="#ffffff" stroke="#000000" points="454,-335.5 454,-365.5 606,-365.5 606,-335.5 454,-335.5"/>
<text text-anchor="start" x="462" y="-353.5" font-family="Helvetica,sans-Serif" font-size="10.00" fill="#000000">include/tvm/meta_schedule</text>
<text text-anchor="middle" x="530" y="-342.5" font-family="Helvetica,sans-Serif" font-size="10.00" fill="#000000">/database.h</text>
</a>
</g>
</g>
<!-- Node59&#45;&gt;Node65 -->
<g id="edge11" class="edge">
<title>Node59&#45;&gt;Node65</title>
<path fill="none" stroke="#191970" d="M717.967,-399.8874C677.3949,-389.2273 626.1922,-375.774 587.4766,-365.6017"/>
<polygon fill="#191970" stroke="#191970" points="717.2118,-403.3077 727.773,-402.4639 718.9907,-396.5375 717.2118,-403.3077"/>
</g>
<!-- Node67 -->
<g id="node11" class="node">
<title>Node67</title>
<g id="a_node11"><a xlink:href="measure__candidate_8h.html" target="_top" xlink:title="include/tvm/meta_schedule\l/measure_candidate.h">
<polygon fill="#ffffff" stroke="#000000" points="208,-335.5 208,-365.5 360,-365.5 360,-335.5 208,-335.5"/>
<text text-anchor="start" x="216" y="-353.5" font-family="Helvetica,sans-Serif" font-size="10.00" fill="#000000">include/tvm/meta_schedule</text>
<text text-anchor="middle" x="284" y="-342.5" font-family="Helvetica,sans-Serif" font-size="10.00" fill="#000000">/measure_candidate.h</text>
</a>
</g>
</g>
<!-- Node59&#45;&gt;Node67 -->
<g id="edge14" class="edge">
<title>Node59&#45;&gt;Node67</title>
<path fill="none" stroke="#191970" d="M707.8822,-407.1868C613.3407,-394.5436 454.1264,-373.2514 360.0672,-360.6727"/>
<polygon fill="#191970" stroke="#191970" points="707.577,-410.6771 717.9528,-408.5336 708.505,-403.7389 707.577,-410.6771"/>
</g>
<!-- Node69 -->
<g id="node13" class="node">
<title>Node69</title>
<g id="a_node13"><a xlink:href="mutator_8h.html" target="_top" xlink:title="include/tvm/meta_schedule\l/mutator.h">
<polygon fill="#ffffff" stroke="#000000" points="1002,-335.5 1002,-365.5 1154,-365.5 1154,-335.5 1002,-335.5"/>
<text text-anchor="start" x="1010" y="-353.5" font-family="Helvetica,sans-Serif" font-size="10.00" fill="#000000">include/tvm/meta_schedule</text>
<text text-anchor="middle" x="1078" y="-342.5" font-family="Helvetica,sans-Serif" font-size="10.00" fill="#000000">/mutator.h</text>
</a>
</g>
</g>
<!-- Node59&#45;&gt;Node69 -->
<g id="edge19" class="edge">
<title>Node59&#45;&gt;Node69</title>
<path fill="none" stroke="#191970" d="M860.5655,-400.2205C907.4978,-389.4886 967.2327,-375.8291 1012.2116,-365.5438"/>
<polygon fill="#191970" stroke="#191970" points="859.7231,-396.8227 850.7549,-402.4639 861.2835,-403.6466 859.7231,-396.8227"/>
</g>
<!-- Node70 -->
<g id="node14" class="node">
<title>Node70</title>
<g id="a_node14"><a xlink:href="space__generator_8h.html" target="_top" xlink:title="include/tvm/meta_schedule\l/space_generator.h">
<polygon fill="#ffffff" stroke="#000000" points="794,-268.5 794,-298.5 946,-298.5 946,-268.5 794,-268.5"/>
<text text-anchor="start" x="802" y="-286.5" font-family="Helvetica,sans-Serif" font-size="10.00" fill="#000000">include/tvm/meta_schedule</text>
<text text-anchor="middle" x="870" y="-275.5" font-family="Helvetica,sans-Serif" font-size="10.00" fill="#000000">/space_generator.h</text>
</a>
</g>
</g>
<!-- Node59&#45;&gt;Node70 -->
<g id="edge29" class="edge">
<title>Node59&#45;&gt;Node70</title>
<path fill="none" stroke="#191970" d="M862.3325,-403.3772C901.562,-394.4752 943.3541,-381.6966 955,-366 963.2095,-354.9351 961.7624,-347.004 955,-335 945.6844,-318.4638 928.6807,-306.6299 912.3159,-298.5103"/>
<polygon fill="#191970" stroke="#191970" points="861.4477,-399.9881 852.4341,-405.5563 862.9527,-406.8244 861.4477,-399.9881"/>
</g>
<!-- Node71 -->
<g id="node15" class="node">
<title>Node71</title>
<g id="a_node15"><a xlink:href="postproc_8h.html" target="_top" xlink:title="include/tvm/meta_schedule\l/postproc.h">
<polygon fill="#ffffff" stroke="#000000" points="624,-335.5 624,-365.5 776,-365.5 776,-335.5 624,-335.5"/>
<text text-anchor="start" x="632" y="-353.5" font-family="Helvetica,sans-Serif" font-size="10.00" fill="#000000">include/tvm/meta_schedule</text>
<text text-anchor="middle" x="700" y="-342.5" font-family="Helvetica,sans-Serif" font-size="10.00" fill="#000000">/postproc.h</text>
</a>
</g>
</g>
<!-- Node59&#45;&gt;Node71 -->
<g id="edge22" class="edge">
<title>Node59&#45;&gt;Node71</title>
<path fill="none" stroke="#191970" d="M757.8055,-396.0643C745.2374,-386.1577 730.6083,-374.6265 719.2115,-365.6432"/>
<polygon fill="#191970" stroke="#191970" points="755.6919,-398.8549 765.7122,-402.2967 760.0253,-393.3574 755.6919,-398.8549"/>
</g>
<!-- Node72 -->
<g id="node16" class="node">
<title>Node72</title>
<g id="a_node16"><a xlink:href="thread__bind_8h.html" target="_top" xlink:title="include/tvm/meta_schedule\l/schedule/cuda/thread_bind.h">
<polygon fill="#ffffff" stroke="#000000" points="1172.5,-335.5 1172.5,-365.5 1331.5,-365.5 1331.5,-335.5 1172.5,-335.5"/>
<text text-anchor="start" x="1180.5" y="-353.5" font-family="Helvetica,sans-Serif" font-size="10.00" fill="#000000">include/tvm/meta_schedule</text>
<text text-anchor="middle" x="1252" y="-342.5" font-family="Helvetica,sans-Serif" font-size="10.00" fill="#000000">/schedule/cuda/thread_bind.h</text>
</a>
</g>
</g>
<!-- Node59&#45;&gt;Node72 -->
<g id="edge24" class="edge">
<title>Node59&#45;&gt;Node72</title>
<path fill="none" stroke="#191970" d="M862.0531,-407.8509C938.5251,-398.0747 1059.0242,-382.1314 1163,-366 1166.0997,-365.5191 1169.2583,-365.0187 1172.4477,-364.5049"/>
<polygon fill="#191970" stroke="#191970" points="861.5014,-404.3928 852.0245,-409.1298 862.387,-411.3365 861.5014,-404.3928"/>
</g>
<!-- Node73 -->
<g id="node17" class="node">
<title>Node73</title>
<g id="a_node17"><a xlink:href="winograd_8h.html" target="_top" xlink:title="include/tvm/meta_schedule\l/schedule/generic/winograd.h">
<polygon fill="#ffffff" stroke="#000000" points="1349.5,-335.5 1349.5,-365.5 1508.5,-365.5 1508.5,-335.5 1349.5,-335.5"/>
<text text-anchor="start" x="1357.5" y="-353.5" font-family="Helvetica,sans-Serif" font-size="10.00" fill="#000000">include/tvm/meta_schedule</text>
<text text-anchor="middle" x="1429" y="-342.5" font-family="Helvetica,sans-Serif" font-size="10.00" fill="#000000">/schedule/generic/winograd.h</text>
</a>
</g>
</g>
<!-- Node59&#45;&gt;Node73 -->
<g id="edge25" class="edge">
<title>Node59&#45;&gt;Node73</title>
<path fill="none" stroke="#191970" d="M862.5086,-412.3367C970.1595,-404.7068 1170.9004,-388.8191 1341,-366 1343.7675,-365.6287 1346.581,-365.233 1349.4201,-364.8182"/>
<polygon fill="#191970" stroke="#191970" points="862.1151,-408.8556 852.3856,-413.0492 862.6067,-415.8383 862.1151,-408.8556"/>
</g>
<!-- Node74 -->
<g id="node18" class="node">
<title>Node74</title>
<g id="a_node18"><a xlink:href="schedule__rule_8h.html" target="_top" xlink:title="include/tvm/meta_schedule\l/schedule_rule.h">
<polygon fill="#ffffff" stroke="#000000" points="794,-335.5 794,-365.5 946,-365.5 946,-335.5 794,-335.5"/>
<text text-anchor="start" x="802" y="-353.5" font-family="Helvetica,sans-Serif" font-size="10.00" fill="#000000">include/tvm/meta_schedule</text>
<text text-anchor="middle" x="870" y="-342.5" font-family="Helvetica,sans-Serif" font-size="10.00" fill="#000000">/schedule_rule.h</text>
</a>
</g>
</g>
<!-- Node59&#45;&gt;Node74 -->
<g id="edge26" class="edge">
<title>Node59&#45;&gt;Node74</title>
<path fill="none" stroke="#191970" d="M812.1945,-396.0643C824.7626,-386.1577 839.3917,-374.6265 850.7885,-365.6432"/>
<polygon fill="#191970" stroke="#191970" points="809.9747,-393.3574 804.2878,-402.2967 814.3081,-398.8549 809.9747,-393.3574"/>
</g>
<!-- Node60&#45;&gt;Node61 -->
<g id="edge4" class="edge">
<title>Node60&#45;&gt;Node61</title>
<path fill="none" stroke="#191970" d="M155.8391,-266.3551C205.9088,-255.6029 269.8494,-241.8721 317.9454,-231.5438"/>
<polygon fill="#191970" stroke="#191970" points="155.0611,-262.9423 146.0189,-268.4639 156.5309,-269.7862 155.0611,-262.9423"/>
</g>
<!-- Node63 -->
<g id="node7" class="node">
<title>Node63</title>
<g id="a_node7"><a xlink:href="task__scheduler_8h.html" target="_top" xlink:title="include/tvm/meta_schedule\l/task_scheduler.h">
<polygon fill="#ffffff" stroke="#000000" points="208,-.5 208,-30.5 360,-30.5 360,-.5 208,-.5"/>
<text text-anchor="start" x="216" y="-18.5" font-family="Helvetica,sans-Serif" font-size="10.00" fill="#000000">include/tvm/meta_schedule</text>
<text text-anchor="middle" x="284" y="-7.5" font-family="Helvetica,sans-Serif" font-size="10.00" fill="#000000">/task_scheduler.h</text>
</a>
</g>
</g>
<!-- Node60&#45;&gt;Node63 -->
<g id="edge10" class="edge">
<title>Node60&#45;&gt;Node63</title>
<path fill="none" stroke="#191970" d="M85.0747,-259.0313C102.0087,-215.9747 141.9467,-125.6782 199,-67 213.6743,-51.9078 233.6666,-39.5041 250.5756,-30.654"/>
<polygon fill="#191970" stroke="#191970" points="81.7807,-257.8455 81.4485,-268.4352 88.312,-260.3641 81.7807,-257.8455"/>
</g>
<!-- Node62 -->
<g id="node6" class="node">
<title>Node62</title>
<g id="a_node6"><a xlink:href="measure__callback_8h.html" target="_top" xlink:title="include/tvm/meta_schedule\l/measure_callback.h">
<polygon fill="#ffffff" stroke="#000000" points="208,-67.5 208,-97.5 360,-97.5 360,-67.5 208,-67.5"/>
<text text-anchor="start" x="216" y="-85.5" font-family="Helvetica,sans-Serif" font-size="10.00" fill="#000000">include/tvm/meta_schedule</text>
<text text-anchor="middle" x="284" y="-74.5" font-family="Helvetica,sans-Serif" font-size="10.00" fill="#000000">/measure_callback.h</text>
</a>
</g>
</g>
<!-- Node61&#45;&gt;Node62 -->
<g id="edge5" class="edge">
<title>Node61&#45;&gt;Node62</title>
<path fill="none" stroke="#191970" d="M340.5332,-196.6042C326.5908,-188.6503 312.5396,-178.1885 303,-165 288.4422,-144.8738 284.8249,-115.3664 284.0476,-97.6351"/>
<polygon fill="#191970" stroke="#191970" points="339.1627,-199.8404 349.6311,-201.4723 342.4653,-193.6684 339.1627,-199.8404"/>
</g>
<!-- Node64 -->
<g id="node8" class="node">
<title>Node64</title>
<g id="a_node8"><a xlink:href="tune__context_8h.html" target="_top" xlink:title="include/tvm/meta_schedule\l/tune_context.h">
<polygon fill="#ffffff" stroke="#000000" points="312,-134.5 312,-164.5 464,-164.5 464,-134.5 312,-134.5"/>
<text text-anchor="start" x="320" y="-152.5" font-family="Helvetica,sans-Serif" font-size="10.00" fill="#000000">include/tvm/meta_schedule</text>
<text text-anchor="middle" x="388" y="-141.5" font-family="Helvetica,sans-Serif" font-size="10.00" fill="#000000">/tune_context.h</text>
</a>
</g>
</g>
<!-- Node61&#45;&gt;Node64 -->
<g id="edge7" class="edge">
<title>Node61&#45;&gt;Node64</title>
<path fill="none" stroke="#191970" d="M388,-191.0249C388,-182.128 388,-172.4287 388,-164.6432"/>
<polygon fill="#191970" stroke="#191970" points="384.5001,-191.2966 388,-201.2967 391.5001,-191.2967 384.5001,-191.2966"/>
</g>
<!-- Node62&#45;&gt;Node63 -->
<g id="edge6" class="edge">
<title>Node62&#45;&gt;Node63</title>
<path fill="none" stroke="#191970" d="M284,-57.0249C284,-48.128 284,-38.4287 284,-30.6432"/>
<polygon fill="#191970" stroke="#191970" points="280.5001,-57.2966 284,-67.2967 287.5001,-57.2967 280.5001,-57.2966"/>
</g>
<!-- Node64&#45;&gt;Node62 -->
<g id="edge8" class="edge">
<title>Node64&#45;&gt;Node62</title>
<path fill="none" stroke="#191970" d="M355.861,-128.7951C340.2777,-118.7558 321.8939,-106.9124 307.6216,-97.7177"/>
<polygon fill="#191970" stroke="#191970" points="354.3583,-131.9904 364.6604,-134.4639 358.1494,-126.1058 354.3583,-131.9904"/>
</g>
<!-- Node64&#45;&gt;Node63 -->
<g id="edge9" class="edge">
<title>Node64&#45;&gt;Node63</title>
<path fill="none" stroke="#191970" d="M387.2587,-124.286C385.6084,-106.7675 381.0557,-83.667 369,-67 357.3708,-50.9226 339.037,-38.8972 322.3689,-30.5277"/>
<polygon fill="#191970" stroke="#191970" points="383.774,-124.6288 387.9524,-134.3649 390.7575,-124.1481 383.774,-124.6288"/>
</g>
<!-- Node65&#45;&gt;Node61 -->
<g id="edge12" class="edge">
<title>Node65&#45;&gt;Node61</title>
<path fill="none" stroke="#191970" d="M566.6925,-329.7046C591.0914,-313.1967 615.8147,-289.4124 599,-268 582.2323,-246.6475 517.5666,-233.0217 464.1935,-225.186"/>
<polygon fill="#191970" stroke="#191970" points="564.6466,-326.8594 558.1445,-335.2244 568.4439,-332.74 564.6466,-326.8594"/>
</g>
<!-- Node66 -->
<g id="node10" class="node">
<title>Node66</title>
<g id="a_node10"><a xlink:href="tuning__api_8h.html" target="_top" xlink:title="Relax Tuning Pass APIs. ">
<polygon fill="#ffffff" stroke="#000000" points="454,-268.5 454,-298.5 590,-298.5 590,-268.5 454,-268.5"/>
<text text-anchor="start" x="462" y="-286.5" font-family="Helvetica,sans-Serif" font-size="10.00" fill="#000000">include/tvm/relax/tuning</text>
<text text-anchor="middle" x="522" y="-275.5" font-family="Helvetica,sans-Serif" font-size="10.00" fill="#000000">_api.h</text>
</a>
</g>
</g>
<!-- Node65&#45;&gt;Node66 -->
<g id="edge13" class="edge">
<title>Node65&#45;&gt;Node66</title>
<path fill="none" stroke="#191970" d="M526.9932,-325.3179C525.9214,-316.3414 524.748,-306.5143 523.8081,-298.6432"/>
<polygon fill="#191970" stroke="#191970" points="523.5237,-325.7822 528.1847,-335.2967 530.4743,-324.9522 523.5237,-325.7822"/>
</g>
<!-- Node67&#45;&gt;Node60 -->
<g id="edge15" class="edge">
<title>Node67&#45;&gt;Node60</title>
<path fill="none" stroke="#191970" d="M227.4237,-332.2759C194.6423,-321.7165 153.8618,-308.5805 122.8829,-298.6017"/>
<polygon fill="#191970" stroke="#191970" points="226.7292,-335.7292 237.3207,-335.4639 228.8755,-329.0664 226.7292,-335.7292"/>
</g>
<!-- Node67&#45;&gt;Node61 -->
<g id="edge18" class="edge">
<title>Node67&#45;&gt;Node61</title>
<path fill="none" stroke="#191970" d="M331.4668,-330.6042C345.4092,-322.6503 359.4604,-312.1885 369,-299 383.5578,-278.8738 387.1751,-249.3664 387.9524,-231.6351"/>
<polygon fill="#191970" stroke="#191970" points="329.5347,-327.6684 322.3689,-335.4723 332.8373,-333.8404 329.5347,-327.6684"/>
</g>
<!-- Node67&#45;&gt;Node62 -->
<g id="edge17" class="edge">
<title>Node67&#45;&gt;Node62</title>
<path fill="none" stroke="#191970" d="M232.8489,-330.7472C219.4568,-322.9655 206.6417,-312.5649 199,-299 192.2376,-286.996 196.0628,-281.461 199,-268 213.7266,-200.5095 255.3364,-128.2066 274.33,-97.5817"/>
<polygon fill="#191970" stroke="#191970" points="231.2179,-333.8441 241.6841,-335.4897 234.5285,-327.6764 231.2179,-333.8441"/>
</g>
<!-- Node68 -->
<g id="node12" class="node">
<title>Node68</title>
<g id="a_node12"><a xlink:href="feature__extractor_8h.html" target="_top" xlink:title="include/tvm/meta_schedule\l/feature_extractor.h">
<polygon fill="#ffffff" stroke="#000000" points="208,-268.5 208,-298.5 360,-298.5 360,-268.5 208,-268.5"/>
<text text-anchor="start" x="216" y="-286.5" font-family="Helvetica,sans-Serif" font-size="10.00" fill="#000000">include/tvm/meta_schedule</text>
<text text-anchor="middle" x="284" y="-275.5" font-family="Helvetica,sans-Serif" font-size="10.00" fill="#000000">/feature_extractor.h</text>
</a>
</g>
</g>
<!-- Node67&#45;&gt;Node68 -->
<g id="edge16" class="edge">
<title>Node67&#45;&gt;Node68</title>
<path fill="none" stroke="#191970" d="M284,-325.0249C284,-316.128 284,-306.4287 284,-298.6432"/>
<polygon fill="#191970" stroke="#191970" points="280.5001,-325.2966 284,-335.2967 287.5001,-325.2967 280.5001,-325.2966"/>
</g>
<!-- Node69&#45;&gt;Node70 -->
<g id="edge20" class="edge">
<title>Node69&#45;&gt;Node70</title>
<path fill="none" stroke="#191970" d="M1021.4237,-332.2759C988.6423,-321.7165 947.8618,-308.5805 916.8829,-298.6017"/>
<polygon fill="#191970" stroke="#191970" points="1020.7292,-335.7292 1031.3207,-335.4639 1022.8755,-329.0664 1020.7292,-335.7292"/>
</g>
<!-- Node70&#45;&gt;Node64 -->
<g id="edge21" class="edge">
<title>Node70&#45;&gt;Node64</title>
<path fill="none" stroke="#191970" d="M805.802,-265.6524C710.0879,-239.0431 531.6702,-189.4415 442.1559,-164.5558"/>
<polygon fill="#191970" stroke="#191970" points="805.0733,-269.0825 815.6454,-268.389 806.9483,-262.3383 805.0733,-269.0825"/>
</g>
<!-- Node71&#45;&gt;Node70 -->
<g id="edge23" class="edge">
<title>Node71&#45;&gt;Node70</title>
<path fill="none" stroke="#191970" d="M747.6318,-331.7275C774.1796,-321.2645 806.7995,-308.4084 831.6823,-298.6017"/>
<polygon fill="#191970" stroke="#191970" points="746.1715,-328.5409 738.1513,-335.4639 748.7382,-335.0534 746.1715,-328.5409"/>
</g>
<!-- Node74&#45;&gt;Node70 -->
<g id="edge27" class="edge">
<title>Node74&#45;&gt;Node70</title>
<path fill="none" stroke="#191970" d="M870,-325.0249C870,-316.128 870,-306.4287 870,-298.6432"/>
<polygon fill="#191970" stroke="#191970" points="866.5001,-325.2966 870,-335.2967 873.5001,-325.2967 866.5001,-325.2966"/>
</g>
</g>
</svg>
