<?xml version="1.0" encoding="UTF-8" standalone="no"?>
<!DOCTYPE svg PUBLIC "-//W3C//DTD SVG 1.1//EN"
 "http://www.w3.org/Graphics/SVG/1.1/DTD/svg11.dtd">
<!-- Generated by graphviz version 2.40.1 (20161225.0304)
 -->
<!-- Title: tvm::script::ir_builder::relax::FunctionFrameNode Pages: 1 -->
<svg width="976pt" height="1425pt"
 viewBox="0.00 0.00 976.00 1425.00" xmlns="http://www.w3.org/2000/svg" xmlns:xlink="http://www.w3.org/1999/xlink">
<g id="graph0" class="graph" transform="scale(1 1) rotate(0) translate(4 1421)">
<title>tvm::script::ir_builder::relax::FunctionFrameNode</title>
<polygon fill="#ffffff" stroke="transparent" points="-4,4 -4,-1421 972,-1421 972,4 -4,4"/>
<!-- Node5 -->
<g id="node1" class="node">
<title>Node5</title>
<polygon fill="#bfbfbf" stroke="#000000" points="452,-.5 452,-90.5 661,-90.5 661,-.5 452,-.5"/>
<text text-anchor="start" x="460" y="-78.5" font-family="Helvetica,sans-Serif" font-size="10.00" fill="#000000">tvm::script::ir_builder</text>
<text text-anchor="middle" x="556.5" y="-67.5" font-family="Helvetica,sans-Serif" font-size="10.00" fill="#000000">::relax::FunctionFrameNode</text>
<polyline fill="none" stroke="#000000" points="452,-60.5 661,-60.5 "/>
<text text-anchor="start" x="460" y="-48.5" font-family="Helvetica,sans-Serif" font-size="10.00" fill="#000000">+ _type_key</text>
<polyline fill="none" stroke="#000000" points="452,-41.5 661,-41.5 "/>
<text text-anchor="start" x="460" y="-29.5" font-family="Helvetica,sans-Serif" font-size="10.00" fill="#000000">+ VisitAttrs()</text>
<text text-anchor="start" x="460" y="-18.5" font-family="Helvetica,sans-Serif" font-size="10.00" fill="#000000">+ TVM_DECLARE_FINAL_OBJECT_INFO()</text>
<text text-anchor="start" x="460" y="-7.5" font-family="Helvetica,sans-Serif" font-size="10.00" fill="#000000">+ ExitWithScope()</text>
</g>
<!-- Node6 -->
<g id="node2" class="node">
<title>Node6</title>
<g id="a_node2"><a xlink:href="classtvm_1_1script_1_1ir__builder_1_1relax_1_1SeqExprFrameNode.html" target="_top" xlink:title="The base ir_builder frame for frames with SeqExpr i.e. Functions, If branches. ">
<polygon fill="#ffffff" stroke="#000000" points="133,-182.5 133,-283.5 340,-283.5 340,-182.5 133,-182.5"/>
<text text-anchor="start" x="141" y="-271.5" font-family="Helvetica,sans-Serif" font-size="10.00" fill="#000000">tvm::script::ir_builder</text>
<text text-anchor="middle" x="236.5" y="-260.5" font-family="Helvetica,sans-Serif" font-size="10.00" fill="#000000">::relax::SeqExprFrameNode</text>
<polyline fill="none" stroke="#000000" points="133,-253.5 340,-253.5 "/>
<text text-anchor="start" x="141" y="-241.5" font-family="Helvetica,sans-Serif" font-size="10.00" fill="#000000">+ _type_key</text>
<polyline fill="none" stroke="#000000" points="133,-234.5 340,-234.5 "/>
<text text-anchor="start" x="141" y="-222.5" font-family="Helvetica,sans-Serif" font-size="10.00" fill="#000000">+ VisitAttrs()</text>
<text text-anchor="start" x="141" y="-211.5" font-family="Helvetica,sans-Serif" font-size="10.00" fill="#000000">+ TVM_DECLARE_BASE_OBJECT_INFO()</text>
<text text-anchor="start" x="141" y="-200.5" font-family="Helvetica,sans-Serif" font-size="10.00" fill="#000000">+ EnterWithScope()</text>
<text text-anchor="start" x="141" y="-189.5" font-family="Helvetica,sans-Serif" font-size="10.00" fill="#000000">+ ExitWithScope()</text>
</a>
</g>
</g>
<!-- Node6&#45;&gt;Node5 -->
<g id="edge1" class="edge">
<title>Node6&#45;&gt;Node5</title>
<path fill="none" stroke="#191970" d="M297.3239,-175.7699C323.8781,-152.8687 356.2734,-127.5733 388.5,-109 408.221,-97.6341 430.3556,-87.5869 451.9238,-79.0305"/>
<polygon fill="none" stroke="#191970" points="294.8735,-173.2628 289.6367,-182.473 299.474,-178.5387 294.8735,-173.2628"/>
</g>
<!-- Node7 -->
<g id="node3" class="node">
<title>Node7</title>
<g id="a_node3"><a xlink:href="classtvm_1_1script_1_1ir__builder_1_1relax_1_1RelaxFrameNode.html" target="_top" xlink:title="The base ir_builder frame for the relax dialect. ">
<polygon fill="#ffffff" stroke="#000000" points="0,-593 0,-672 207,-672 207,-593 0,-593"/>
<text text-anchor="start" x="8" y="-660" font-family="Helvetica,sans-Serif" font-size="10.00" fill="#000000">tvm::script::ir_builder</text>
<text text-anchor="middle" x="103.5" y="-649" font-family="Helvetica,sans-Serif" font-size="10.00" fill="#000000">::relax::RelaxFrameNode</text>
<polyline fill="none" stroke="#000000" points="0,-642 207,-642 "/>
<text text-anchor="start" x="8" y="-630" font-family="Helvetica,sans-Serif" font-size="10.00" fill="#000000">+ _type_key</text>
<polyline fill="none" stroke="#000000" points="0,-623 207,-623 "/>
<text text-anchor="start" x="8" y="-611" font-family="Helvetica,sans-Serif" font-size="10.00" fill="#000000">+ VisitAttrs()</text>
<text text-anchor="start" x="8" y="-600" font-family="Helvetica,sans-Serif" font-size="10.00" fill="#000000">+ TVM_DECLARE_BASE_OBJECT_INFO()</text>
</a>
</g>
</g>
<!-- Node7&#45;&gt;Node6 -->
<g id="edge2" class="edge">
<title>Node7&#45;&gt;Node6</title>
<path fill="none" stroke="#191970" d="M114.3561,-582.9137C127.6521,-525.1166 152.1884,-427.1633 182.5,-346 190.2972,-325.1219 200.5075,-302.8473 209.9484,-283.6414"/>
<polygon fill="none" stroke="#191970" points="110.8949,-582.3499 112.0839,-592.8778 117.7197,-583.9063 110.8949,-582.3499"/>
</g>
<!-- Node8 -->
<g id="node4" class="node">
<title>Node8</title>
<g id="a_node4"><a xlink:href="classtvm_1_1script_1_1ir__builder_1_1IRBuilderFrameNode.html" target="_top" xlink:title="{tvm::script::ir_builder\l::IRBuilderFrameNode\n|+ callbacks\l+ _type_key\l|+ VisitAttrs()\l+ TVM_DECLARE_BASE_OBJECT_INFO()\l+ ~IRBuilderFrameNode()\l+ EnterWithScope()\l+ ExitWithScope()\l+ AddCallback()\l}">
<polygon fill="#ffffff" stroke="#000000" points="0,-803.5 0,-937.5 207,-937.5 207,-803.5 0,-803.5"/>
<text text-anchor="start" x="8" y="-925.5" font-family="Helvetica,sans-Serif" font-size="10.00" fill="#000000">tvm::script::ir_builder</text>
<text text-anchor="middle" x="103.5" y="-914.5" font-family="Helvetica,sans-Serif" font-size="10.00" fill="#000000">::IRBuilderFrameNode</text>
<polyline fill="none" stroke="#000000" points="0,-907.5 207,-907.5 "/>
<text text-anchor="start" x="8" y="-895.5" font-family="Helvetica,sans-Serif" font-size="10.00" fill="#000000">+ callbacks</text>
<text text-anchor="start" x="8" y="-884.5" font-family="Helvetica,sans-Serif" font-size="10.00" fill="#000000">+ _type_key</text>
<polyline fill="none" stroke="#000000" points="0,-877.5 207,-877.5 "/>
<text text-anchor="start" x="8" y="-865.5" font-family="Helvetica,sans-Serif" font-size="10.00" fill="#000000">+ VisitAttrs()</text>
<text text-anchor="start" x="8" y="-854.5" font-family="Helvetica,sans-Serif" font-size="10.00" fill="#000000">+ TVM_DECLARE_BASE_OBJECT_INFO()</text>
<text text-anchor="start" x="8" y="-843.5" font-family="Helvetica,sans-Serif" font-size="10.00" fill="#000000">+ ~IRBuilderFrameNode()</text>
<text text-anchor="start" x="8" y="-832.5" font-family="Helvetica,sans-Serif" font-size="10.00" fill="#000000">+ EnterWithScope()</text>
<text text-anchor="start" x="8" y="-821.5" font-family="Helvetica,sans-Serif" font-size="10.00" fill="#000000">+ ExitWithScope()</text>
<text text-anchor="start" x="8" y="-810.5" font-family="Helvetica,sans-Serif" font-size="10.00" fill="#000000">+ AddCallback()</text>
</a>
</g>
</g>
<!-- Node8&#45;&gt;Node7 -->
<g id="edge3" class="edge">
<title>Node8&#45;&gt;Node7</title>
<path fill="none" stroke="#191970" d="M103.5,-793.145C103.5,-752.7113 103.5,-704.9373 103.5,-672.0576"/>
<polygon fill="none" stroke="#191970" points="100.0001,-793.253 103.5,-803.2531 107.0001,-793.2531 100.0001,-793.253"/>
</g>
<!-- Node9 -->
<g id="node5" class="node">
<title>Node9</title>
<g id="a_node5"><a xlink:href="classtvm_1_1runtime_1_1Object.html" target="_top" xlink:title="base class of all object containers. ">
<polygon fill="#ffffff" stroke="#000000" points="12,-1029.5 12,-1416.5 195,-1416.5 195,-1029.5 12,-1029.5"/>
<text text-anchor="middle" x="103.5" y="-1404.5" font-family="Helvetica,sans-Serif" font-size="10.00" fill="#000000">tvm::runtime::Object</text>
<polyline fill="none" stroke="#000000" points="12,-1397.5 195,-1397.5 "/>
<text text-anchor="start" x="20" y="-1385.5" font-family="Helvetica,sans-Serif" font-size="10.00" fill="#000000">+ _type_key</text>
<text text-anchor="start" x="20" y="-1374.5" font-family="Helvetica,sans-Serif" font-size="10.00" fill="#000000">+ _type_final</text>
<text text-anchor="start" x="20" y="-1363.5" font-family="Helvetica,sans-Serif" font-size="10.00" fill="#000000">+ _type_child_slots</text>
<text text-anchor="start" x="20" y="-1352.5" font-family="Helvetica,sans-Serif" font-size="10.00" fill="#000000">+ _type_child_slots_can</text>
<text text-anchor="start" x="20" y="-1341.5" font-family="Helvetica,sans-Serif" font-size="10.00" fill="#000000">_overflow</text>
<text text-anchor="start" x="20" y="-1330.5" font-family="Helvetica,sans-Serif" font-size="10.00" fill="#000000">+ _type_has_method_visit</text>
<text text-anchor="start" x="20" y="-1319.5" font-family="Helvetica,sans-Serif" font-size="10.00" fill="#000000">_attrs</text>
<text text-anchor="start" x="20" y="-1308.5" font-family="Helvetica,sans-Serif" font-size="10.00" fill="#000000">+ _type_has_method_sequal</text>
<text text-anchor="start" x="20" y="-1297.5" font-family="Helvetica,sans-Serif" font-size="10.00" fill="#000000">_reduce</text>
<text text-anchor="start" x="20" y="-1286.5" font-family="Helvetica,sans-Serif" font-size="10.00" fill="#000000">+ _type_has_method_shash</text>
<text text-anchor="start" x="20" y="-1275.5" font-family="Helvetica,sans-Serif" font-size="10.00" fill="#000000">_reduce</text>
<text text-anchor="start" x="20" y="-1264.5" font-family="Helvetica,sans-Serif" font-size="10.00" fill="#000000">+ _type_index</text>
<text text-anchor="start" x="20" y="-1253.5" font-family="Helvetica,sans-Serif" font-size="10.00" fill="#000000"># type_index_</text>
<text text-anchor="start" x="20" y="-1242.5" font-family="Helvetica,sans-Serif" font-size="10.00" fill="#000000"># ref_counter_</text>
<polyline fill="none" stroke="#000000" points="12,-1235.5 195,-1235.5 "/>
<text text-anchor="start" x="20" y="-1223.5" font-family="Helvetica,sans-Serif" font-size="10.00" fill="#000000">+ type_index()</text>
<text text-anchor="start" x="20" y="-1212.5" font-family="Helvetica,sans-Serif" font-size="10.00" fill="#000000">+ GetTypeKey()</text>
<text text-anchor="start" x="20" y="-1201.5" font-family="Helvetica,sans-Serif" font-size="10.00" fill="#000000">+ GetTypeKeyHash()</text>
<text text-anchor="start" x="20" y="-1190.5" font-family="Helvetica,sans-Serif" font-size="10.00" fill="#000000">+ IsInstance()</text>
<text text-anchor="start" x="20" y="-1179.5" font-family="Helvetica,sans-Serif" font-size="10.00" fill="#000000">+ unique()</text>
<text text-anchor="start" x="20" y="-1168.5" font-family="Helvetica,sans-Serif" font-size="10.00" fill="#000000">+ Object()</text>
<text text-anchor="start" x="20" y="-1157.5" font-family="Helvetica,sans-Serif" font-size="10.00" fill="#000000">+ Object()</text>
<text text-anchor="start" x="20" y="-1146.5" font-family="Helvetica,sans-Serif" font-size="10.00" fill="#000000">+ Object()</text>
<text text-anchor="start" x="20" y="-1135.5" font-family="Helvetica,sans-Serif" font-size="10.00" fill="#000000">+ operator=()</text>
<text text-anchor="start" x="20" y="-1124.5" font-family="Helvetica,sans-Serif" font-size="10.00" fill="#000000">+ operator=()</text>
<text text-anchor="start" x="20" y="-1113.5" font-family="Helvetica,sans-Serif" font-size="10.00" fill="#000000">+ TypeIndex2Key()</text>
<text text-anchor="start" x="20" y="-1102.5" font-family="Helvetica,sans-Serif" font-size="10.00" fill="#000000">+ TypeIndex2KeyHash()</text>
<text text-anchor="start" x="20" y="-1091.5" font-family="Helvetica,sans-Serif" font-size="10.00" fill="#000000">+ TypeKey2Index()</text>
<text text-anchor="start" x="20" y="-1080.5" font-family="Helvetica,sans-Serif" font-size="10.00" fill="#000000">+ _GetOrAllocRuntimeTypeIndex()</text>
<text text-anchor="start" x="20" y="-1069.5" font-family="Helvetica,sans-Serif" font-size="10.00" fill="#000000">+ RuntimeTypeIndex()</text>
<text text-anchor="start" x="20" y="-1058.5" font-family="Helvetica,sans-Serif" font-size="10.00" fill="#000000"># IncRef()</text>
<text text-anchor="start" x="20" y="-1047.5" font-family="Helvetica,sans-Serif" font-size="10.00" fill="#000000"># DecRef()</text>
<text text-anchor="start" x="20" y="-1036.5" font-family="Helvetica,sans-Serif" font-size="10.00" fill="#000000"># GetOrAllocRuntimeTypeIndex()</text>
</a>
</g>
</g>
<!-- Node9&#45;&gt;Node8 -->
<g id="edge4" class="edge">
<title>Node9&#45;&gt;Node8</title>
<path fill="none" stroke="#191970" d="M103.5,-1019.4538C103.5,-990.0022 103.5,-961.5928 103.5,-937.6233"/>
<polygon fill="none" stroke="#191970" points="100.0001,-1019.4767 103.5,-1029.4767 107.0001,-1019.4767 100.0001,-1019.4767"/>
</g>
<!-- Node9&#45;&gt;Node9 -->
<g id="edge5" class="edge">
<title>Node9&#45;&gt;Node9</title>
<path fill="none" stroke="#404040" d="M195.3625,-1257.5649C206.0482,-1251.1857 213,-1239.6641 213,-1223 213,-1211.8038 209.8618,-1202.929 204.5615,-1196.3756"/>
<polygon fill="none" stroke="#404040" points="204.4464,-1196.2763 197.2907,-1195.3836 195.3625,-1188.4351 202.5182,-1189.3277 204.4464,-1196.2763"/>
<text text-anchor="middle" x="239" y="-1220.5" font-family="Helvetica,sans-Serif" font-size="10.00" fill="#000000"> #deleter_</text>
</g>
<!-- Node10 -->
<g id="node6" class="node">
<title>Node10</title>
<g id="a_node6"><a xlink:href="classtvm_1_1runtime_1_1Array.html" target="_top" xlink:title="{tvm::runtime::Array\l\&lt; tvm::relax::BindingBlock \&gt;\n||+ Array()\l+ Array()\l+ Array()\l+ Array()\l+ Array()\l+ Array()\l+ Array()\l+ Array()\l+ operator=()\l+ operator=()\land 25 more...\l}">
<polygon fill="#ffffff" stroke="#000000" points="225,-543.5 225,-721.5 384,-721.5 384,-543.5 225,-543.5"/>
<text text-anchor="start" x="233" y="-709.5" font-family="Helvetica,sans-Serif" font-size="10.00" fill="#000000">tvm::runtime::Array</text>
<text text-anchor="middle" x="304.5" y="-698.5" font-family="Helvetica,sans-Serif" font-size="10.00" fill="#000000">&lt; tvm::relax::BindingBlock &gt;</text>
<polyline fill="none" stroke="#000000" points="225,-691.5 384,-691.5 "/>
<text text-anchor="middle" x="304.5" y="-679.5" font-family="Helvetica,sans-Serif" font-size="10.00" fill="#000000"> </text>
<polyline fill="none" stroke="#000000" points="225,-672.5 384,-672.5 "/>
<text text-anchor="start" x="233" y="-660.5" font-family="Helvetica,sans-Serif" font-size="10.00" fill="#000000">+ Array()</text>
<text text-anchor="start" x="233" y="-649.5" font-family="Helvetica,sans-Serif" font-size="10.00" fill="#000000">+ Array()</text>
<text text-anchor="start" x="233" y="-638.5" font-family="Helvetica,sans-Serif" font-size="10.00" fill="#000000">+ Array()</text>
<text text-anchor="start" x="233" y="-627.5" font-family="Helvetica,sans-Serif" font-size="10.00" fill="#000000">+ Array()</text>
<text text-anchor="start" x="233" y="-616.5" font-family="Helvetica,sans-Serif" font-size="10.00" fill="#000000">+ Array()</text>
<text text-anchor="start" x="233" y="-605.5" font-family="Helvetica,sans-Serif" font-size="10.00" fill="#000000">+ Array()</text>
<text text-anchor="start" x="233" y="-594.5" font-family="Helvetica,sans-Serif" font-size="10.00" fill="#000000">+ Array()</text>
<text text-anchor="start" x="233" y="-583.5" font-family="Helvetica,sans-Serif" font-size="10.00" fill="#000000">+ Array()</text>
<text text-anchor="start" x="233" y="-572.5" font-family="Helvetica,sans-Serif" font-size="10.00" fill="#000000">+ operator=()</text>
<text text-anchor="start" x="233" y="-561.5" font-family="Helvetica,sans-Serif" font-size="10.00" fill="#000000">+ operator=()</text>
<text text-anchor="start" x="233" y="-550.5" font-family="Helvetica,sans-Serif" font-size="10.00" fill="#000000">and 25 more...</text>
</a>
</g>
</g>
<!-- Node10&#45;&gt;Node6 -->
<g id="edge6" class="edge">
<title>Node10&#45;&gt;Node6</title>
<path fill="none" stroke="#404040" d="M224.9551,-551.4442C211.9898,-537.8158 202.4214,-527.2935 201.5,-525 171.3437,-449.9372 191.9208,-355.941 211.9847,-295.1986"/>
<polygon fill="none" stroke="#404040" points="212.0984,-294.8654 210.2515,-287.8948 215.9755,-283.5089 217.8224,-290.4795 212.0984,-294.8654"/>
<text text-anchor="middle" x="244" y="-433" font-family="Helvetica,sans-Serif" font-size="10.00" fill="#000000"> +binding_blocks</text>
</g>
<!-- Node11 -->
<g id="node7" class="node">
<title>Node11</title>
<g id="a_node7"><a xlink:href="classtvm_1_1runtime_1_1ObjectRef.html" target="_top" xlink:title="Base class of all object reference. ">
<polygon fill="#ffffff" stroke="#000000" points="529.5,-759.5 529.5,-981.5 663.5,-981.5 663.5,-759.5 529.5,-759.5"/>
<text text-anchor="middle" x="596.5" y="-969.5" font-family="Helvetica,sans-Serif" font-size="10.00" fill="#000000">tvm::runtime::ObjectRef</text>
<polyline fill="none" stroke="#000000" points="529.5,-962.5 663.5,-962.5 "/>
<text text-anchor="start" x="537.5" y="-950.5" font-family="Helvetica,sans-Serif" font-size="10.00" fill="#000000">+ _type_is_nullable</text>
<polyline fill="none" stroke="#000000" points="529.5,-943.5 663.5,-943.5 "/>
<text text-anchor="start" x="537.5" y="-931.5" font-family="Helvetica,sans-Serif" font-size="10.00" fill="#000000">+ ObjectRef()</text>
<text text-anchor="start" x="537.5" y="-920.5" font-family="Helvetica,sans-Serif" font-size="10.00" fill="#000000">+ ObjectRef()</text>
<text text-anchor="start" x="537.5" y="-909.5" font-family="Helvetica,sans-Serif" font-size="10.00" fill="#000000">+ same_as()</text>
<text text-anchor="start" x="537.5" y="-898.5" font-family="Helvetica,sans-Serif" font-size="10.00" fill="#000000">+ operator==()</text>
<text text-anchor="start" x="537.5" y="-887.5" font-family="Helvetica,sans-Serif" font-size="10.00" fill="#000000">+ operator!=()</text>
<text text-anchor="start" x="537.5" y="-876.5" font-family="Helvetica,sans-Serif" font-size="10.00" fill="#000000">+ operator&lt;()</text>
<text text-anchor="start" x="537.5" y="-865.5" font-family="Helvetica,sans-Serif" font-size="10.00" fill="#000000">+ defined()</text>
<text text-anchor="start" x="537.5" y="-854.5" font-family="Helvetica,sans-Serif" font-size="10.00" fill="#000000">+ get()</text>
<text text-anchor="start" x="537.5" y="-843.5" font-family="Helvetica,sans-Serif" font-size="10.00" fill="#000000">+ operator&#45;&gt;()</text>
<text text-anchor="start" x="537.5" y="-832.5" font-family="Helvetica,sans-Serif" font-size="10.00" fill="#000000">+ unique()</text>
<text text-anchor="start" x="537.5" y="-821.5" font-family="Helvetica,sans-Serif" font-size="10.00" fill="#000000">+ use_count()</text>
<text text-anchor="start" x="537.5" y="-810.5" font-family="Helvetica,sans-Serif" font-size="10.00" fill="#000000">+ as()</text>
<text text-anchor="start" x="537.5" y="-799.5" font-family="Helvetica,sans-Serif" font-size="10.00" fill="#000000"># get_mutable()</text>
<text text-anchor="start" x="537.5" y="-788.5" font-family="Helvetica,sans-Serif" font-size="10.00" fill="#000000"># DowncastNoCheck()</text>
<text text-anchor="start" x="537.5" y="-777.5" font-family="Helvetica,sans-Serif" font-size="10.00" fill="#000000"># FFIClearAfterMove()</text>
<text text-anchor="start" x="537.5" y="-766.5" font-family="Helvetica,sans-Serif" font-size="10.00" fill="#000000"># GetDataPtr()</text>
</a>
</g>
</g>
<!-- Node11&#45;&gt;Node10 -->
<g id="edge7" class="edge">
<title>Node11&#45;&gt;Node10</title>
<path fill="none" stroke="#191970" d="M520.9191,-819.4597C481.7711,-791.9779 433.8491,-756.6732 393.5,-722 390.4254,-719.3579 387.3303,-716.6302 384.2339,-713.8432"/>
<polygon fill="none" stroke="#191970" points="518.9325,-822.3413 529.1338,-825.2022 522.9431,-816.6041 518.9325,-822.3413"/>
</g>
<!-- Node13 -->
<g id="node9" class="node">
<title>Node13</title>
<g id="a_node9"><a xlink:href="classtvm_1_1runtime_1_1Optional.html" target="_top" xlink:title="{tvm::runtime::Optional\l\&lt; tvm::RelayExpr \&gt;\n|+ _type_is_nullable\l|+ Optional()\l+ Optional()\l+ Optional()\l+ Optional()\l+ Optional()\l+ Optional()\l+ Optional()\l+ Optional()\l+ operator=()\l+ operator=()\land 15 more...\l}">
<polygon fill="#ffffff" stroke="#000000" points="402.5,-543.5 402.5,-721.5 530.5,-721.5 530.5,-543.5 402.5,-543.5"/>
<text text-anchor="start" x="410.5" y="-709.5" font-family="Helvetica,sans-Serif" font-size="10.00" fill="#000000">tvm::runtime::Optional</text>
<text text-anchor="middle" x="466.5" y="-698.5" font-family="Helvetica,sans-Serif" font-size="10.00" fill="#000000">&lt; tvm::RelayExpr &gt;</text>
<polyline fill="none" stroke="#000000" points="402.5,-691.5 530.5,-691.5 "/>
<text text-anchor="start" x="410.5" y="-679.5" font-family="Helvetica,sans-Serif" font-size="10.00" fill="#000000">+ _type_is_nullable</text>
<polyline fill="none" stroke="#000000" points="402.5,-672.5 530.5,-672.5 "/>
<text text-anchor="start" x="410.5" y="-660.5" font-family="Helvetica,sans-Serif" font-size="10.00" fill="#000000">+ Optional()</text>
<text text-anchor="start" x="410.5" y="-649.5" font-family="Helvetica,sans-Serif" font-size="10.00" fill="#000000">+ Optional()</text>
<text text-anchor="start" x="410.5" y="-638.5" font-family="Helvetica,sans-Serif" font-size="10.00" fill="#000000">+ Optional()</text>
<text text-anchor="start" x="410.5" y="-627.5" font-family="Helvetica,sans-Serif" font-size="10.00" fill="#000000">+ Optional()</text>
<text text-anchor="start" x="410.5" y="-616.5" font-family="Helvetica,sans-Serif" font-size="10.00" fill="#000000">+ Optional()</text>
<text text-anchor="start" x="410.5" y="-605.5" font-family="Helvetica,sans-Serif" font-size="10.00" fill="#000000">+ Optional()</text>
<text text-anchor="start" x="410.5" y="-594.5" font-family="Helvetica,sans-Serif" font-size="10.00" fill="#000000">+ Optional()</text>
<text text-anchor="start" x="410.5" y="-583.5" font-family="Helvetica,sans-Serif" font-size="10.00" fill="#000000">+ Optional()</text>
<text text-anchor="start" x="410.5" y="-572.5" font-family="Helvetica,sans-Serif" font-size="10.00" fill="#000000">+ operator=()</text>
<text text-anchor="start" x="410.5" y="-561.5" font-family="Helvetica,sans-Serif" font-size="10.00" fill="#000000">+ operator=()</text>
<text text-anchor="start" x="410.5" y="-550.5" font-family="Helvetica,sans-Serif" font-size="10.00" fill="#000000">and 15 more...</text>
</a>
</g>
</g>
<!-- Node11&#45;&gt;Node13 -->
<g id="edge10" class="edge">
<title>Node11&#45;&gt;Node13</title>
<path fill="none" stroke="#191970" d="M530.8483,-750.3069C525.577,-740.6564 520.3115,-731.0164 515.1903,-721.6408"/>
<polygon fill="none" stroke="#191970" points="527.8215,-752.0669 535.6869,-759.1652 533.9648,-748.7112 527.8215,-752.0669"/>
</g>
<!-- Node14 -->
<g id="node10" class="node">
<title>Node14</title>
<g id="a_node10"><a xlink:href="classtvm_1_1relax_1_1BlockBuilder.html" target="_top" xlink:title="{tvm::relax::BlockBuilder\n||+ TVM_DEFINE_MUTABLE\l_OBJECT_REF_METHODS()\l+ Create()\l}">
<polygon fill="#ffffff" stroke="#000000" points="357,-396 357,-475 500,-475 500,-396 357,-396"/>
<text text-anchor="middle" x="428.5" y="-463" font-family="Helvetica,sans-Serif" font-size="10.00" fill="#000000">tvm::relax::BlockBuilder</text>
<polyline fill="none" stroke="#000000" points="357,-456 500,-456 "/>
<text text-anchor="middle" x="428.5" y="-444" font-family="Helvetica,sans-Serif" font-size="10.00" fill="#000000"> </text>
<polyline fill="none" stroke="#000000" points="357,-437 500,-437 "/>
<text text-anchor="start" x="365" y="-425" font-family="Helvetica,sans-Serif" font-size="10.00" fill="#000000">+ TVM_DEFINE_MUTABLE</text>
<text text-anchor="start" x="365" y="-414" font-family="Helvetica,sans-Serif" font-size="10.00" fill="#000000">_OBJECT_REF_METHODS()</text>
<text text-anchor="start" x="365" y="-403" font-family="Helvetica,sans-Serif" font-size="10.00" fill="#000000">+ Create()</text>
</a>
</g>
</g>
<!-- Node11&#45;&gt;Node14 -->
<g id="edge12" class="edge">
<title>Node11&#45;&gt;Node14</title>
<path fill="none" stroke="#191970" d="M578.0153,-749.3057C563.9176,-659.6192 545.8719,-551.5628 539.5,-543 528.8209,-528.6488 517.5383,-536.0872 503.5,-525 485.6817,-510.9274 469.099,-492.0374 456.0812,-475.2389"/>
<polygon fill="none" stroke="#191970" points="574.5768,-749.971 579.5833,-759.3083 581.4923,-748.8869 574.5768,-749.971"/>
</g>
<!-- Node15 -->
<g id="node11" class="node">
<title>Node15</title>
<g id="a_node11"><a xlink:href="classtvm_1_1runtime_1_1Optional.html" target="_top" xlink:title="{tvm::runtime::Optional\l\&lt; tvm::runtime::String \&gt;\n|+ _type_is_nullable\l|+ Optional()\l+ Optional()\l+ Optional()\l+ Optional()\l+ Optional()\l+ Optional()\l+ Optional()\l+ Optional()\l+ operator=()\l+ operator=()\land 15 more...\l}">
<polygon fill="#ffffff" stroke="#000000" points="505,-346.5 505,-524.5 642,-524.5 642,-346.5 505,-346.5"/>
<text text-anchor="start" x="513" y="-512.5" font-family="Helvetica,sans-Serif" font-size="10.00" fill="#000000">tvm::runtime::Optional</text>
<text text-anchor="middle" x="573.5" y="-501.5" font-family="Helvetica,sans-Serif" font-size="10.00" fill="#000000">&lt; tvm::runtime::String &gt;</text>
<polyline fill="none" stroke="#000000" points="505,-494.5 642,-494.5 "/>
<text text-anchor="start" x="513" y="-482.5" font-family="Helvetica,sans-Serif" font-size="10.00" fill="#000000">+ _type_is_nullable</text>
<polyline fill="none" stroke="#000000" points="505,-475.5 642,-475.5 "/>
<text text-anchor="start" x="513" y="-463.5" font-family="Helvetica,sans-Serif" font-size="10.00" fill="#000000">+ Optional()</text>
<text text-anchor="start" x="513" y="-452.5" font-family="Helvetica,sans-Serif" font-size="10.00" fill="#000000">+ Optional()</text>
<text text-anchor="start" x="513" y="-441.5" font-family="Helvetica,sans-Serif" font-size="10.00" fill="#000000">+ Optional()</text>
<text text-anchor="start" x="513" y="-430.5" font-family="Helvetica,sans-Serif" font-size="10.00" fill="#000000">+ Optional()</text>
<text text-anchor="start" x="513" y="-419.5" font-family="Helvetica,sans-Serif" font-size="10.00" fill="#000000">+ Optional()</text>
<text text-anchor="start" x="513" y="-408.5" font-family="Helvetica,sans-Serif" font-size="10.00" fill="#000000">+ Optional()</text>
<text text-anchor="start" x="513" y="-397.5" font-family="Helvetica,sans-Serif" font-size="10.00" fill="#000000">+ Optional()</text>
<text text-anchor="start" x="513" y="-386.5" font-family="Helvetica,sans-Serif" font-size="10.00" fill="#000000">+ Optional()</text>
<text text-anchor="start" x="513" y="-375.5" font-family="Helvetica,sans-Serif" font-size="10.00" fill="#000000">+ operator=()</text>
<text text-anchor="start" x="513" y="-364.5" font-family="Helvetica,sans-Serif" font-size="10.00" fill="#000000">+ operator=()</text>
<text text-anchor="start" x="513" y="-353.5" font-family="Helvetica,sans-Serif" font-size="10.00" fill="#000000">and 15 more...</text>
</a>
</g>
</g>
<!-- Node11&#45;&gt;Node15 -->
<g id="edge14" class="edge">
<title>Node11&#45;&gt;Node15</title>
<path fill="none" stroke="#191970" d="M590.0728,-748.9415C586.3057,-677.6952 581.6305,-589.2719 578.2071,-524.5248"/>
<polygon fill="none" stroke="#191970" points="586.5985,-749.5225 590.6217,-759.3237 593.5887,-749.1528 586.5985,-749.5225"/>
</g>
<!-- Node16 -->
<g id="node12" class="node">
<title>Node16</title>
<g id="a_node12"><a xlink:href="classtvm_1_1runtime_1_1Map.html" target="_top" xlink:title="{tvm::runtime::Map\&lt;\l tvm::runtime::String,\l tvm::runtime::ObjectRef \&gt;\n||+ Map()\l+ Map()\l+ Map()\l+ Map()\l+ Map()\l+ Map()\l+ Map()\l+ operator=()\l+ operator=()\l+ at()\land 12 more...\l}">
<polygon fill="#ffffff" stroke="#000000" points="573.5,-138.5 573.5,-327.5 721.5,-327.5 721.5,-138.5 573.5,-138.5"/>
<text text-anchor="start" x="581.5" y="-315.5" font-family="Helvetica,sans-Serif" font-size="10.00" fill="#000000">tvm::runtime::Map&lt;</text>
<text text-anchor="start" x="581.5" y="-304.5" font-family="Helvetica,sans-Serif" font-size="10.00" fill="#000000"> tvm::runtime::String,</text>
<text text-anchor="middle" x="647.5" y="-293.5" font-family="Helvetica,sans-Serif" font-size="10.00" fill="#000000"> tvm::runtime::ObjectRef &gt;</text>
<polyline fill="none" stroke="#000000" points="573.5,-286.5 721.5,-286.5 "/>
<text text-anchor="middle" x="647.5" y="-274.5" font-family="Helvetica,sans-Serif" font-size="10.00" fill="#000000"> </text>
<polyline fill="none" stroke="#000000" points="573.5,-267.5 721.5,-267.5 "/>
<text text-anchor="start" x="581.5" y="-255.5" font-family="Helvetica,sans-Serif" font-size="10.00" fill="#000000">+ Map()</text>
<text text-anchor="start" x="581.5" y="-244.5" font-family="Helvetica,sans-Serif" font-size="10.00" fill="#000000">+ Map()</text>
<text text-anchor="start" x="581.5" y="-233.5" font-family="Helvetica,sans-Serif" font-size="10.00" fill="#000000">+ Map()</text>
<text text-anchor="start" x="581.5" y="-222.5" font-family="Helvetica,sans-Serif" font-size="10.00" fill="#000000">+ Map()</text>
<text text-anchor="start" x="581.5" y="-211.5" font-family="Helvetica,sans-Serif" font-size="10.00" fill="#000000">+ Map()</text>
<text text-anchor="start" x="581.5" y="-200.5" font-family="Helvetica,sans-Serif" font-size="10.00" fill="#000000">+ Map()</text>
<text text-anchor="start" x="581.5" y="-189.5" font-family="Helvetica,sans-Serif" font-size="10.00" fill="#000000">+ Map()</text>
<text text-anchor="start" x="581.5" y="-178.5" font-family="Helvetica,sans-Serif" font-size="10.00" fill="#000000">+ operator=()</text>
<text text-anchor="start" x="581.5" y="-167.5" font-family="Helvetica,sans-Serif" font-size="10.00" fill="#000000">+ operator=()</text>
<text text-anchor="start" x="581.5" y="-156.5" font-family="Helvetica,sans-Serif" font-size="10.00" fill="#000000">+ at()</text>
<text text-anchor="start" x="581.5" y="-145.5" font-family="Helvetica,sans-Serif" font-size="10.00" fill="#000000">and 12 more...</text>
</a>
</g>
</g>
<!-- Node11&#45;&gt;Node16 -->
<g id="edge16" class="edge">
<title>Node11&#45;&gt;Node16</title>
<path fill="none" stroke="#191970" d="M616.6746,-749.1846C626.7348,-683.108 637.9215,-599.7893 643.5,-525 648.4025,-459.2736 649.3574,-385.0015 649.1097,-327.812"/>
<polygon fill="none" stroke="#191970" points="613.1918,-748.8058 615.1351,-759.2209 620.1109,-749.8672 613.1918,-748.8058"/>
</g>
<!-- Node17 -->
<g id="node13" class="node">
<title>Node17</title>
<g id="a_node13"><a xlink:href="classtvm_1_1runtime_1_1Array.html" target="_top" xlink:title="{tvm::runtime::Array\l\&lt; tvm::relax::Var \&gt;\n||+ Array()\l+ Array()\l+ Array()\l+ Array()\l+ Array()\l+ Array()\l+ Array()\l+ Array()\l+ operator=()\l+ operator=()\land 25 more...\l}">
<polygon fill="#ffffff" stroke="#000000" points="692,-346.5 692,-524.5 805,-524.5 805,-346.5 692,-346.5"/>
<text text-anchor="start" x="700" y="-512.5" font-family="Helvetica,sans-Serif" font-size="10.00" fill="#000000">tvm::runtime::Array</text>
<text text-anchor="middle" x="748.5" y="-501.5" font-family="Helvetica,sans-Serif" font-size="10.00" fill="#000000">&lt; tvm::relax::Var &gt;</text>
<polyline fill="none" stroke="#000000" points="692,-494.5 805,-494.5 "/>
<text text-anchor="middle" x="748.5" y="-482.5" font-family="Helvetica,sans-Serif" font-size="10.00" fill="#000000"> </text>
<polyline fill="none" stroke="#000000" points="692,-475.5 805,-475.5 "/>
<text text-anchor="start" x="700" y="-463.5" font-family="Helvetica,sans-Serif" font-size="10.00" fill="#000000">+ Array()</text>
<text text-anchor="start" x="700" y="-452.5" font-family="Helvetica,sans-Serif" font-size="10.00" fill="#000000">+ Array()</text>
<text text-anchor="start" x="700" y="-441.5" font-family="Helvetica,sans-Serif" font-size="10.00" fill="#000000">+ Array()</text>
<text text-anchor="start" x="700" y="-430.5" font-family="Helvetica,sans-Serif" font-size="10.00" fill="#000000">+ Array()</text>
<text text-anchor="start" x="700" y="-419.5" font-family="Helvetica,sans-Serif" font-size="10.00" fill="#000000">+ Array()</text>
<text text-anchor="start" x="700" y="-408.5" font-family="Helvetica,sans-Serif" font-size="10.00" fill="#000000">+ Array()</text>
<text text-anchor="start" x="700" y="-397.5" font-family="Helvetica,sans-Serif" font-size="10.00" fill="#000000">+ Array()</text>
<text text-anchor="start" x="700" y="-386.5" font-family="Helvetica,sans-Serif" font-size="10.00" fill="#000000">+ Array()</text>
<text text-anchor="start" x="700" y="-375.5" font-family="Helvetica,sans-Serif" font-size="10.00" fill="#000000">+ operator=()</text>
<text text-anchor="start" x="700" y="-364.5" font-family="Helvetica,sans-Serif" font-size="10.00" fill="#000000">+ operator=()</text>
<text text-anchor="start" x="700" y="-353.5" font-family="Helvetica,sans-Serif" font-size="10.00" fill="#000000">and 25 more...</text>
</a>
</g>
</g>
<!-- Node11&#45;&gt;Node17 -->
<g id="edge18" class="edge">
<title>Node11&#45;&gt;Node17</title>
<path fill="none" stroke="#191970" d="M667.7878,-749.7784C669.0757,-746.8435 670.3157,-743.9147 671.5,-741 700.067,-670.6898 720.287,-586.8525 732.8163,-524.8052"/>
<polygon fill="none" stroke="#191970" points="664.474,-748.6107 663.5218,-759.1626 670.8465,-751.5076 664.474,-748.6107"/>
</g>
<!-- Node18 -->
<g id="node14" class="node">
<title>Node18</title>
<g id="a_node14"><a xlink:href="classtvm_1_1runtime_1_1Optional.html" target="_top" xlink:title="{tvm::runtime::Optional\l\&lt; tvm::relax::StructInfo \&gt;\n|+ _type_is_nullable\l|+ Optional()\l+ Optional()\l+ Optional()\l+ Optional()\l+ Optional()\l+ Optional()\l+ Optional()\l+ Optional()\l+ operator=()\l+ operator=()\land 15 more...\l}">
<polygon fill="#ffffff" stroke="#000000" points="825,-144 825,-322 968,-322 968,-144 825,-144"/>
<text text-anchor="start" x="833" y="-310" font-family="Helvetica,sans-Serif" font-size="10.00" fill="#000000">tvm::runtime::Optional</text>
<text text-anchor="middle" x="896.5" y="-299" font-family="Helvetica,sans-Serif" font-size="10.00" fill="#000000">&lt; tvm::relax::StructInfo &gt;</text>
<polyline fill="none" stroke="#000000" points="825,-292 968,-292 "/>
<text text-anchor="start" x="833" y="-280" font-family="Helvetica,sans-Serif" font-size="10.00" fill="#000000">+ _type_is_nullable</text>
<polyline fill="none" stroke="#000000" points="825,-273 968,-273 "/>
<text text-anchor="start" x="833" y="-261" font-family="Helvetica,sans-Serif" font-size="10.00" fill="#000000">+ Optional()</text>
<text text-anchor="start" x="833" y="-250" font-family="Helvetica,sans-Serif" font-size="10.00" fill="#000000">+ Optional()</text>
<text text-anchor="start" x="833" y="-239" font-family="Helvetica,sans-Serif" font-size="10.00" fill="#000000">+ Optional()</text>
<text text-anchor="start" x="833" y="-228" font-family="Helvetica,sans-Serif" font-size="10.00" fill="#000000">+ Optional()</text>
<text text-anchor="start" x="833" y="-217" font-family="Helvetica,sans-Serif" font-size="10.00" fill="#000000">+ Optional()</text>
<text text-anchor="start" x="833" y="-206" font-family="Helvetica,sans-Serif" font-size="10.00" fill="#000000">+ Optional()</text>
<text text-anchor="start" x="833" y="-195" font-family="Helvetica,sans-Serif" font-size="10.00" fill="#000000">+ Optional()</text>
<text text-anchor="start" x="833" y="-184" font-family="Helvetica,sans-Serif" font-size="10.00" fill="#000000">+ Optional()</text>
<text text-anchor="start" x="833" y="-173" font-family="Helvetica,sans-Serif" font-size="10.00" fill="#000000">+ operator=()</text>
<text text-anchor="start" x="833" y="-162" font-family="Helvetica,sans-Serif" font-size="10.00" fill="#000000">+ operator=()</text>
<text text-anchor="start" x="833" y="-151" font-family="Helvetica,sans-Serif" font-size="10.00" fill="#000000">and 15 more...</text>
</a>
</g>
</g>
<!-- Node11&#45;&gt;Node18 -->
<g id="edge20" class="edge">
<title>Node11&#45;&gt;Node18</title>
<path fill="none" stroke="#191970" d="M670.0238,-786.9922C686.5789,-766.4147 703.4032,-743.9628 717.5,-722 770.2159,-639.8686 779.6043,-616.1418 814.5,-525 839.9642,-458.4917 861.4099,-380.755 875.9756,-322.2183"/>
<polygon fill="none" stroke="#191970" points="667.285,-784.8127 663.6983,-794.782 672.7191,-789.2253 667.285,-784.8127"/>
</g>
<!-- Node12 -->
<g id="node8" class="node">
<title>Node12</title>
<g id="a_node8"><a xlink:href="classtvm_1_1runtime_1_1ObjectPtr.html" target="_top" xlink:title="{tvm::runtime::ObjectPtr\l\&lt; tvm::runtime::Object \&gt;\n||+ ObjectPtr()\l+ ObjectPtr()\l+ ObjectPtr()\l+ ObjectPtr()\l+ ObjectPtr()\l+ ObjectPtr()\l+ ~ObjectPtr()\l+ swap()\l+ get()\l+ operator&#45;\&gt;()\land 11 more...\l}">
<polygon fill="#ffffff" stroke="#000000" points="526.5,-1134 526.5,-1312 666.5,-1312 666.5,-1134 526.5,-1134"/>
<text text-anchor="start" x="534.5" y="-1300" font-family="Helvetica,sans-Serif" font-size="10.00" fill="#000000">tvm::runtime::ObjectPtr</text>
<text text-anchor="middle" x="596.5" y="-1289" font-family="Helvetica,sans-Serif" font-size="10.00" fill="#000000">&lt; tvm::runtime::Object &gt;</text>
<polyline fill="none" stroke="#000000" points="526.5,-1282 666.5,-1282 "/>
<text text-anchor="middle" x="596.5" y="-1270" font-family="Helvetica,sans-Serif" font-size="10.00" fill="#000000"> </text>
<polyline fill="none" stroke="#000000" points="526.5,-1263 666.5,-1263 "/>
<text text-anchor="start" x="534.5" y="-1251" font-family="Helvetica,sans-Serif" font-size="10.00" fill="#000000">+ ObjectPtr()</text>
<text text-anchor="start" x="534.5" y="-1240" font-family="Helvetica,sans-Serif" font-size="10.00" fill="#000000">+ ObjectPtr()</text>
<text text-anchor="start" x="534.5" y="-1229" font-family="Helvetica,sans-Serif" font-size="10.00" fill="#000000">+ ObjectPtr()</text>
<text text-anchor="start" x="534.5" y="-1218" font-family="Helvetica,sans-Serif" font-size="10.00" fill="#000000">+ ObjectPtr()</text>
<text text-anchor="start" x="534.5" y="-1207" font-family="Helvetica,sans-Serif" font-size="10.00" fill="#000000">+ ObjectPtr()</text>
<text text-anchor="start" x="534.5" y="-1196" font-family="Helvetica,sans-Serif" font-size="10.00" fill="#000000">+ ObjectPtr()</text>
<text text-anchor="start" x="534.5" y="-1185" font-family="Helvetica,sans-Serif" font-size="10.00" fill="#000000">+ ~ObjectPtr()</text>
<text text-anchor="start" x="534.5" y="-1174" font-family="Helvetica,sans-Serif" font-size="10.00" fill="#000000">+ swap()</text>
<text text-anchor="start" x="534.5" y="-1163" font-family="Helvetica,sans-Serif" font-size="10.00" fill="#000000">+ get()</text>
<text text-anchor="start" x="534.5" y="-1152" font-family="Helvetica,sans-Serif" font-size="10.00" fill="#000000">+ operator&#45;&gt;()</text>
<text text-anchor="start" x="534.5" y="-1141" font-family="Helvetica,sans-Serif" font-size="10.00" fill="#000000">and 11 more...</text>
</a>
</g>
</g>
<!-- Node12&#45;&gt;Node11 -->
<g id="edge8" class="edge">
<title>Node12&#45;&gt;Node11</title>
<path fill="none" stroke="#404040" d="M596.5,-1133.5937C596.5,-1091.1846 596.5,-1039.8323 596.5,-993.7942"/>
<polygon fill="none" stroke="#404040" points="596.5001,-993.5895 592.5,-987.5895 596.5,-981.5895 600.5,-987.5895 596.5001,-993.5895"/>
<text text-anchor="middle" x="616" y="-1003" font-family="Helvetica,sans-Serif" font-size="10.00" fill="#000000"> #data_</text>
</g>
<!-- Node13&#45;&gt;Node6 -->
<g id="edge9" class="edge">
<title>Node13&#45;&gt;Node6</title>
<path fill="none" stroke="#404040" d="M402.1061,-549.4769C398.9881,-547.1448 395.784,-544.9723 392.5,-543 358.2767,-522.4465 331.2594,-554.6245 304.5,-525 277.702,-495.3328 296.7159,-384.6511 286.5,-346 281.9568,-328.8113 275.1151,-310.9091 267.9392,-294.5567"/>
<polygon fill="none" stroke="#404040" points="267.8885,-294.4443 261.7709,-290.6266 262.942,-283.5112 269.0596,-287.329 267.8885,-294.4443"/>
<text text-anchor="middle" x="326" y="-433" font-family="Helvetica,sans-Serif" font-size="10.00" fill="#000000"> +output</text>
</g>
<!-- Node14&#45;&gt;Node5 -->
<g id="edge11" class="edge">
<title>Node14&#45;&gt;Node5</title>
<path fill="none" stroke="#404040" d="M418.2868,-395.7939C405.1879,-336.1417 388.8836,-221.5019 431.5,-138 439.1535,-123.0039 450.4961,-109.8247 463.2763,-98.4672"/>
<polygon fill="none" stroke="#404040" points="463.5893,-98.2061 465.6344,-91.2911 472.8041,-90.5192 470.759,-97.4343 463.5893,-98.2061"/>
<text text-anchor="middle" x="470" y="-230.5" font-family="Helvetica,sans-Serif" font-size="10.00" fill="#000000"> +block_builder</text>
</g>
<!-- Node15&#45;&gt;Node5 -->
<g id="edge13" class="edge">
<title>Node15&#45;&gt;Node5</title>
<path fill="none" stroke="#404040" d="M529.511,-346.4441C527.5343,-340.2957 525.8275,-334.1132 524.5,-328 506.5798,-245.4789 510.5024,-221.2762 524.5,-138 526.4858,-126.1858 529.8047,-113.8634 533.572,-102.2088"/>
<polygon fill="none" stroke="#404040" points="533.5824,-102.1779 531.7332,-95.208 537.4558,-90.8202 539.305,-97.7902 533.5824,-102.1779"/>
<text text-anchor="middle" x="544.5" y="-230.5" font-family="Helvetica,sans-Serif" font-size="10.00" fill="#000000"> +name</text>
</g>
<!-- Node16&#45;&gt;Node5 -->
<g id="edge15" class="edge">
<title>Node16&#45;&gt;Node5</title>
<path fill="none" stroke="#404040" d="M601.6001,-138.426C595.5079,-125.8733 589.4252,-113.3403 583.789,-101.7273"/>
<polygon fill="none" stroke="#404040" points="583.7758,-101.7001 577.5575,-98.0488 578.5363,-90.9044 584.7546,-94.5557 583.7758,-101.7001"/>
<text text-anchor="middle" x="608.5" y="-112" font-family="Helvetica,sans-Serif" font-size="10.00" fill="#000000"> +attrs</text>
</g>
<!-- Node17&#45;&gt;Node5 -->
<g id="edge17" class="edge">
<title>Node17&#45;&gt;Node5</title>
<path fill="none" stroke="#404040" d="M752.4899,-346.3127C754.1605,-271.3855 751.9393,-171.3523 730.5,-138 716.2223,-115.7887 694.7383,-98.5626 671.691,-85.3345"/>
<polygon fill="none" stroke="#404040" points="671.557,-85.2618 664.3754,-85.9132 661.0119,-79.5346 668.1936,-78.8832 671.557,-85.2618"/>
<text text-anchor="middle" x="777" y="-230.5" font-family="Helvetica,sans-Serif" font-size="10.00" fill="#000000"> +params</text>
</g>
<!-- Node18&#45;&gt;Node5 -->
<g id="edge19" class="edge">
<title>Node18&#45;&gt;Node5</title>
<path fill="none" stroke="#404040" d="M824.8274,-151.6115C820.0743,-146.9107 815.2764,-142.3371 810.5,-138 794.5087,-123.4794 790.8233,-118.6529 771.5,-109 740.8005,-93.6642 705.7436,-81.3596 672.9725,-71.8174"/>
<polygon fill="none" stroke="#404040" points="672.5594,-71.7003 665.6957,-73.9116 661.0147,-68.4263 667.8784,-66.2151 672.5594,-71.7003"/>
<text text-anchor="middle" x="830.5" y="-112" font-family="Helvetica,sans-Serif" font-size="10.00" fill="#000000"> +ret_struct_info</text>
</g>
</g>
</svg>
