<?xml version="1.0" encoding="UTF-8" standalone="no"?>
<!DOCTYPE svg PUBLIC "-//W3C//DTD SVG 1.1//EN"
 "http://www.w3.org/Graphics/SVG/1.1/DTD/svg11.dtd">
<!-- Generated by graphviz version 2.40.1 (20161225.0304)
 -->
<!-- Title: tvm::script::ir_builder::relax::RelaxFrame Pages: 1 -->
<svg width="622pt" height="805pt"
 viewBox="0.00 0.00 622.00 805.00" xmlns="http://www.w3.org/2000/svg" xmlns:xlink="http://www.w3.org/1999/xlink">
<g id="graph0" class="graph" transform="scale(1 1) rotate(0) translate(4 801)">
<title>tvm::script::ir_builder::relax::RelaxFrame</title>
<polygon fill="#ffffff" stroke="transparent" points="-4,4 -4,-801 618,-801 618,4 -4,4"/>
<!-- Node0 -->
<g id="node1" class="node">
<title>Node0</title>
<polygon fill="#bfbfbf" stroke="#000000" points="158,-254.5 158,-355.5 298,-355.5 298,-254.5 158,-254.5"/>
<text text-anchor="start" x="166" y="-343.5" font-family="Helvetica,sans-Serif" font-size="10.00" fill="#000000">tvm::script::ir_builder</text>
<text text-anchor="middle" x="228" y="-332.5" font-family="Helvetica,sans-Serif" font-size="10.00" fill="#000000">::relax::RelaxFrame</text>
<polyline fill="none" stroke="#000000" points="158,-325.5 298,-325.5 "/>
<text text-anchor="middle" x="228" y="-313.5" font-family="Helvetica,sans-Serif" font-size="10.00" fill="#000000"> </text>
<polyline fill="none" stroke="#000000" points="158,-306.5 298,-306.5 "/>
<text text-anchor="start" x="166" y="-294.5" font-family="Helvetica,sans-Serif" font-size="10.00" fill="#000000">+ TVM_DEFINE_MUTABLE</text>
<text text-anchor="start" x="166" y="-283.5" font-family="Helvetica,sans-Serif" font-size="10.00" fill="#000000">_NOTNULLABLE_OBJECT</text>
<text text-anchor="start" x="166" y="-272.5" font-family="Helvetica,sans-Serif" font-size="10.00" fill="#000000">_REF_METHODS()</text>
<text text-anchor="start" x="166" y="-261.5" font-family="Helvetica,sans-Serif" font-size="10.00" fill="#000000"># RelaxFrame()</text>
</g>
<!-- Node3 -->
<g id="node4" class="node">
<title>Node3</title>
<g id="a_node4"><a xlink:href="classtvm_1_1script_1_1ir__builder_1_1relax_1_1BlockFrame.html" target="_top" xlink:title="{tvm::script::ir_builder\l::relax::BlockFrame\n||+ TVM_DEFINE_MUTABLE\l_NOTNULLABLE_OBJECT\l_REF_METHODS()\l}">
<polygon fill="#ffffff" stroke="#000000" points="0,-127.5 0,-217.5 140,-217.5 140,-127.5 0,-127.5"/>
<text text-anchor="start" x="8" y="-205.5" font-family="Helvetica,sans-Serif" font-size="10.00" fill="#000000">tvm::script::ir_builder</text>
<text text-anchor="middle" x="70" y="-194.5" font-family="Helvetica,sans-Serif" font-size="10.00" fill="#000000">::relax::BlockFrame</text>
<polyline fill="none" stroke="#000000" points="0,-187.5 140,-187.5 "/>
<text text-anchor="middle" x="70" y="-175.5" font-family="Helvetica,sans-Serif" font-size="10.00" fill="#000000"> </text>
<polyline fill="none" stroke="#000000" points="0,-168.5 140,-168.5 "/>
<text text-anchor="start" x="8" y="-156.5" font-family="Helvetica,sans-Serif" font-size="10.00" fill="#000000">+ TVM_DEFINE_MUTABLE</text>
<text text-anchor="start" x="8" y="-145.5" font-family="Helvetica,sans-Serif" font-size="10.00" fill="#000000">_NOTNULLABLE_OBJECT</text>
<text text-anchor="start" x="8" y="-134.5" font-family="Helvetica,sans-Serif" font-size="10.00" fill="#000000">_REF_METHODS()</text>
</a>
</g>
</g>
<!-- Node0&#45;&gt;Node3 -->
<g id="edge3" class="edge">
<title>Node0&#45;&gt;Node3</title>
<path fill="none" stroke="#191970" d="M159.5533,-247.6001C147.5758,-237.5557 135.2688,-227.2349 123.7603,-217.5838"/>
<polygon fill="none" stroke="#191970" points="157.4536,-250.4071 167.3649,-254.151 161.9516,-245.0435 157.4536,-250.4071"/>
</g>
<!-- Node4 -->
<g id="node5" class="node">
<title>Node4</title>
<g id="a_node5"><a xlink:href="classtvm_1_1script_1_1ir__builder_1_1relax_1_1IfFrame.html" target="_top" xlink:title="Managed reference to IfFrameNode. ">
<polygon fill="#ffffff" stroke="#000000" points="158,-127.5 158,-217.5 298,-217.5 298,-127.5 158,-127.5"/>
<text text-anchor="start" x="166" y="-205.5" font-family="Helvetica,sans-Serif" font-size="10.00" fill="#000000">tvm::script::ir_builder</text>
<text text-anchor="middle" x="228" y="-194.5" font-family="Helvetica,sans-Serif" font-size="10.00" fill="#000000">::relax::IfFrame</text>
<polyline fill="none" stroke="#000000" points="158,-187.5 298,-187.5 "/>
<text text-anchor="middle" x="228" y="-175.5" font-family="Helvetica,sans-Serif" font-size="10.00" fill="#000000"> </text>
<polyline fill="none" stroke="#000000" points="158,-168.5 298,-168.5 "/>
<text text-anchor="start" x="166" y="-156.5" font-family="Helvetica,sans-Serif" font-size="10.00" fill="#000000">+ TVM_DEFINE_MUTABLE</text>
<text text-anchor="start" x="166" y="-145.5" font-family="Helvetica,sans-Serif" font-size="10.00" fill="#000000">_NOTNULLABLE_OBJECT</text>
<text text-anchor="start" x="166" y="-134.5" font-family="Helvetica,sans-Serif" font-size="10.00" fill="#000000">_REF_METHODS()</text>
</a>
</g>
</g>
<!-- Node0&#45;&gt;Node4 -->
<g id="edge4" class="edge">
<title>Node0&#45;&gt;Node4</title>
<path fill="none" stroke="#191970" d="M228,-243.9214C228,-235.1275 228,-226.2114 228,-217.7978"/>
<polygon fill="none" stroke="#191970" points="224.5001,-244.1509 228,-254.151 231.5001,-244.151 224.5001,-244.1509"/>
</g>
<!-- Node5 -->
<g id="node6" class="node">
<title>Node5</title>
<g id="a_node6"><a xlink:href="classtvm_1_1script_1_1ir__builder_1_1relax_1_1SeqExprFrame.html" target="_top" xlink:title="{tvm::script::ir_builder\l::relax::SeqExprFrame\n||+ TVM_DEFINE_MUTABLE\l_NOTNULLABLE_OBJECT\l_REF_METHODS()\l}">
<polygon fill="#ffffff" stroke="#000000" points="316,-127.5 316,-217.5 456,-217.5 456,-127.5 316,-127.5"/>
<text text-anchor="start" x="324" y="-205.5" font-family="Helvetica,sans-Serif" font-size="10.00" fill="#000000">tvm::script::ir_builder</text>
<text text-anchor="middle" x="386" y="-194.5" font-family="Helvetica,sans-Serif" font-size="10.00" fill="#000000">::relax::SeqExprFrame</text>
<polyline fill="none" stroke="#000000" points="316,-187.5 456,-187.5 "/>
<text text-anchor="middle" x="386" y="-175.5" font-family="Helvetica,sans-Serif" font-size="10.00" fill="#000000"> </text>
<polyline fill="none" stroke="#000000" points="316,-168.5 456,-168.5 "/>
<text text-anchor="start" x="324" y="-156.5" font-family="Helvetica,sans-Serif" font-size="10.00" fill="#000000">+ TVM_DEFINE_MUTABLE</text>
<text text-anchor="start" x="324" y="-145.5" font-family="Helvetica,sans-Serif" font-size="10.00" fill="#000000">_NOTNULLABLE_OBJECT</text>
<text text-anchor="start" x="324" y="-134.5" font-family="Helvetica,sans-Serif" font-size="10.00" fill="#000000">_REF_METHODS()</text>
</a>
</g>
</g>
<!-- Node0&#45;&gt;Node5 -->
<g id="edge5" class="edge">
<title>Node0&#45;&gt;Node5</title>
<path fill="none" stroke="#191970" d="M296.4467,-247.6001C308.4242,-237.5557 320.7312,-227.2349 332.2397,-217.5838"/>
<polygon fill="none" stroke="#191970" points="294.0484,-245.0435 288.6351,-254.151 298.5464,-250.4071 294.0484,-245.0435"/>
</g>
<!-- Node1 -->
<g id="node2" class="node">
<title>Node1</title>
<g id="a_node2"><a xlink:href="classtvm_1_1script_1_1ir__builder_1_1IRBuilderFrame.html" target="_top" xlink:title="Managed reference to an IRBuilderFrameNode. ">
<polygon fill="#ffffff" stroke="#000000" points="158,-392.5 158,-526.5 298,-526.5 298,-392.5 158,-392.5"/>
<text text-anchor="start" x="166" y="-514.5" font-family="Helvetica,sans-Serif" font-size="10.00" fill="#000000">tvm::script::ir_builder</text>
<text text-anchor="middle" x="228" y="-503.5" font-family="Helvetica,sans-Serif" font-size="10.00" fill="#000000">::IRBuilderFrame</text>
<polyline fill="none" stroke="#000000" points="158,-496.5 298,-496.5 "/>
<text text-anchor="middle" x="228" y="-484.5" font-family="Helvetica,sans-Serif" font-size="10.00" fill="#000000"> </text>
<polyline fill="none" stroke="#000000" points="158,-477.5 298,-477.5 "/>
<text text-anchor="start" x="166" y="-465.5" font-family="Helvetica,sans-Serif" font-size="10.00" fill="#000000">+ ~IRBuilderFrame()</text>
<text text-anchor="start" x="166" y="-454.5" font-family="Helvetica,sans-Serif" font-size="10.00" fill="#000000">+ TVM_DEFINE_MUTABLE</text>
<text text-anchor="start" x="166" y="-443.5" font-family="Helvetica,sans-Serif" font-size="10.00" fill="#000000">_NOTNULLABLE_OBJECT</text>
<text text-anchor="start" x="166" y="-432.5" font-family="Helvetica,sans-Serif" font-size="10.00" fill="#000000">_REF_METHODS()</text>
<text text-anchor="start" x="166" y="-421.5" font-family="Helvetica,sans-Serif" font-size="10.00" fill="#000000">+ EnterWithScope()</text>
<text text-anchor="start" x="166" y="-410.5" font-family="Helvetica,sans-Serif" font-size="10.00" fill="#000000">+ ExitWithScope()</text>
<text text-anchor="start" x="166" y="-399.5" font-family="Helvetica,sans-Serif" font-size="10.00" fill="#000000"># IRBuilderFrame()</text>
</a>
</g>
</g>
<!-- Node1&#45;&gt;Node0 -->
<g id="edge1" class="edge">
<title>Node1&#45;&gt;Node0</title>
<path fill="none" stroke="#191970" d="M228,-382.1277C228,-373.1994 228,-364.2733 228,-355.8265"/>
<polygon fill="none" stroke="#191970" points="224.5001,-382.1835 228,-392.1835 231.5001,-382.1835 224.5001,-382.1835"/>
</g>
<!-- Node2 -->
<g id="node3" class="node">
<title>Node2</title>
<g id="a_node3"><a xlink:href="classtvm_1_1runtime_1_1ObjectRef.html" target="_top" xlink:title="Base class of all object reference. ">
<polygon fill="#ffffff" stroke="#000000" points="161,-563.5 161,-796.5 295,-796.5 295,-563.5 161,-563.5"/>
<text text-anchor="middle" x="228" y="-784.5" font-family="Helvetica,sans-Serif" font-size="10.00" fill="#000000">tvm::runtime::ObjectRef</text>
<polyline fill="none" stroke="#000000" points="161,-777.5 295,-777.5 "/>
<text text-anchor="start" x="169" y="-765.5" font-family="Helvetica,sans-Serif" font-size="10.00" fill="#000000">+ _type_is_nullable</text>
<text text-anchor="start" x="169" y="-754.5" font-family="Helvetica,sans-Serif" font-size="10.00" fill="#000000"># data_</text>
<polyline fill="none" stroke="#000000" points="161,-747.5 295,-747.5 "/>
<text text-anchor="start" x="169" y="-735.5" font-family="Helvetica,sans-Serif" font-size="10.00" fill="#000000">+ ObjectRef()</text>
<text text-anchor="start" x="169" y="-724.5" font-family="Helvetica,sans-Serif" font-size="10.00" fill="#000000">+ ObjectRef()</text>
<text text-anchor="start" x="169" y="-713.5" font-family="Helvetica,sans-Serif" font-size="10.00" fill="#000000">+ same_as()</text>
<text text-anchor="start" x="169" y="-702.5" font-family="Helvetica,sans-Serif" font-size="10.00" fill="#000000">+ operator==()</text>
<text text-anchor="start" x="169" y="-691.5" font-family="Helvetica,sans-Serif" font-size="10.00" fill="#000000">+ operator!=()</text>
<text text-anchor="start" x="169" y="-680.5" font-family="Helvetica,sans-Serif" font-size="10.00" fill="#000000">+ operator&lt;()</text>
<text text-anchor="start" x="169" y="-669.5" font-family="Helvetica,sans-Serif" font-size="10.00" fill="#000000">+ defined()</text>
<text text-anchor="start" x="169" y="-658.5" font-family="Helvetica,sans-Serif" font-size="10.00" fill="#000000">+ get()</text>
<text text-anchor="start" x="169" y="-647.5" font-family="Helvetica,sans-Serif" font-size="10.00" fill="#000000">+ operator&#45;&gt;()</text>
<text text-anchor="start" x="169" y="-636.5" font-family="Helvetica,sans-Serif" font-size="10.00" fill="#000000">+ unique()</text>
<text text-anchor="start" x="169" y="-625.5" font-family="Helvetica,sans-Serif" font-size="10.00" fill="#000000">+ use_count()</text>
<text text-anchor="start" x="169" y="-614.5" font-family="Helvetica,sans-Serif" font-size="10.00" fill="#000000">+ as()</text>
<text text-anchor="start" x="169" y="-603.5" font-family="Helvetica,sans-Serif" font-size="10.00" fill="#000000"># get_mutable()</text>
<text text-anchor="start" x="169" y="-592.5" font-family="Helvetica,sans-Serif" font-size="10.00" fill="#000000"># DowncastNoCheck()</text>
<text text-anchor="start" x="169" y="-581.5" font-family="Helvetica,sans-Serif" font-size="10.00" fill="#000000"># FFIClearAfterMove()</text>
<text text-anchor="start" x="169" y="-570.5" font-family="Helvetica,sans-Serif" font-size="10.00" fill="#000000"># GetDataPtr()</text>
</a>
</g>
</g>
<!-- Node2&#45;&gt;Node1 -->
<g id="edge2" class="edge">
<title>Node2&#45;&gt;Node1</title>
<path fill="none" stroke="#191970" d="M228,-553.0779C228,-544.0753 228,-535.2246 228,-526.7733"/>
<polygon fill="none" stroke="#191970" points="224.5001,-553.2933 228,-563.2933 231.5001,-553.2934 224.5001,-553.2933"/>
</g>
<!-- Node6 -->
<g id="node7" class="node">
<title>Node6</title>
<g id="a_node7"><a xlink:href="classtvm_1_1script_1_1ir__builder_1_1relax_1_1ElseFrame.html" target="_top" xlink:title="Managed reference to ElseFrameNode. ">
<polygon fill="#ffffff" stroke="#000000" points="158,-.5 158,-90.5 298,-90.5 298,-.5 158,-.5"/>
<text text-anchor="start" x="166" y="-78.5" font-family="Helvetica,sans-Serif" font-size="10.00" fill="#000000">tvm::script::ir_builder</text>
<text text-anchor="middle" x="228" y="-67.5" font-family="Helvetica,sans-Serif" font-size="10.00" fill="#000000">::relax::ElseFrame</text>
<polyline fill="none" stroke="#000000" points="158,-60.5 298,-60.5 "/>
<text text-anchor="middle" x="228" y="-48.5" font-family="Helvetica,sans-Serif" font-size="10.00" fill="#000000"> </text>
<polyline fill="none" stroke="#000000" points="158,-41.5 298,-41.5 "/>
<text text-anchor="start" x="166" y="-29.5" font-family="Helvetica,sans-Serif" font-size="10.00" fill="#000000">+ TVM_DEFINE_MUTABLE</text>
<text text-anchor="start" x="166" y="-18.5" font-family="Helvetica,sans-Serif" font-size="10.00" fill="#000000">_NOTNULLABLE_OBJECT</text>
<text text-anchor="start" x="166" y="-7.5" font-family="Helvetica,sans-Serif" font-size="10.00" fill="#000000">_REF_METHODS()</text>
</a>
</g>
</g>
<!-- Node5&#45;&gt;Node6 -->
<g id="edge6" class="edge">
<title>Node5&#45;&gt;Node6</title>
<path fill="none" stroke="#191970" d="M321.7653,-120.8683C309.3305,-110.8733 296.3897,-100.4715 284.235,-90.7016"/>
<polygon fill="none" stroke="#191970" points="319.8632,-123.8299 329.8502,-127.367 324.2487,-118.374 319.8632,-123.8299"/>
</g>
<!-- Node7 -->
<g id="node8" class="node">
<title>Node7</title>
<g id="a_node8"><a xlink:href="classtvm_1_1script_1_1ir__builder_1_1relax_1_1FunctionFrame.html" target="_top" xlink:title="{tvm::script::ir_builder\l::relax::FunctionFrame\n||+ TVM_DEFINE_MUTABLE\l_NOTNULLABLE_OBJECT\l_REF_METHODS()\l}">
<polygon fill="#ffffff" stroke="#000000" points="316,-.5 316,-90.5 456,-90.5 456,-.5 316,-.5"/>
<text text-anchor="start" x="324" y="-78.5" font-family="Helvetica,sans-Serif" font-size="10.00" fill="#000000">tvm::script::ir_builder</text>
<text text-anchor="middle" x="386" y="-67.5" font-family="Helvetica,sans-Serif" font-size="10.00" fill="#000000">::relax::FunctionFrame</text>
<polyline fill="none" stroke="#000000" points="316,-60.5 456,-60.5 "/>
<text text-anchor="middle" x="386" y="-48.5" font-family="Helvetica,sans-Serif" font-size="10.00" fill="#000000"> </text>
<polyline fill="none" stroke="#000000" points="316,-41.5 456,-41.5 "/>
<text text-anchor="start" x="324" y="-29.5" font-family="Helvetica,sans-Serif" font-size="10.00" fill="#000000">+ TVM_DEFINE_MUTABLE</text>
<text text-anchor="start" x="324" y="-18.5" font-family="Helvetica,sans-Serif" font-size="10.00" fill="#000000">_NOTNULLABLE_OBJECT</text>
<text text-anchor="start" x="324" y="-7.5" font-family="Helvetica,sans-Serif" font-size="10.00" fill="#000000">_REF_METHODS()</text>
</a>
</g>
</g>
<!-- Node5&#45;&gt;Node7 -->
<g id="edge7" class="edge">
<title>Node5&#45;&gt;Node7</title>
<path fill="none" stroke="#191970" d="M386,-117.2012C386,-108.4232 386,-99.4326 386,-90.9156"/>
<polygon fill="none" stroke="#191970" points="382.5001,-117.3669 386,-127.367 389.5001,-117.367 382.5001,-117.3669"/>
</g>
<!-- Node8 -->
<g id="node9" class="node">
<title>Node8</title>
<g id="a_node9"><a xlink:href="classtvm_1_1script_1_1ir__builder_1_1relax_1_1ThenFrame.html" target="_top" xlink:title="Managed reference to ThenFrameNode. ">
<polygon fill="#ffffff" stroke="#000000" points="474,-.5 474,-90.5 614,-90.5 614,-.5 474,-.5"/>
<text text-anchor="start" x="482" y="-78.5" font-family="Helvetica,sans-Serif" font-size="10.00" fill="#000000">tvm::script::ir_builder</text>
<text text-anchor="middle" x="544" y="-67.5" font-family="Helvetica,sans-Serif" font-size="10.00" fill="#000000">::relax::ThenFrame</text>
<polyline fill="none" stroke="#000000" points="474,-60.5 614,-60.5 "/>
<text text-anchor="middle" x="544" y="-48.5" font-family="Helvetica,sans-Serif" font-size="10.00" fill="#000000"> </text>
<polyline fill="none" stroke="#000000" points="474,-41.5 614,-41.5 "/>
<text text-anchor="start" x="482" y="-29.5" font-family="Helvetica,sans-Serif" font-size="10.00" fill="#000000">+ TVM_DEFINE_MUTABLE</text>
<text text-anchor="start" x="482" y="-18.5" font-family="Helvetica,sans-Serif" font-size="10.00" fill="#000000">_NOTNULLABLE_OBJECT</text>
<text text-anchor="start" x="482" y="-7.5" font-family="Helvetica,sans-Serif" font-size="10.00" fill="#000000">_REF_METHODS()</text>
</a>
</g>
</g>
<!-- Node5&#45;&gt;Node8 -->
<g id="edge8" class="edge">
<title>Node5&#45;&gt;Node8</title>
<path fill="none" stroke="#191970" d="M450.2347,-120.8683C462.6695,-110.8733 475.6103,-100.4715 487.765,-90.7016"/>
<polygon fill="none" stroke="#191970" points="447.7513,-118.374 442.1498,-127.367 452.1368,-123.8299 447.7513,-118.374"/>
</g>
</g>
</svg>
