<?xml version="1.0" encoding="UTF-8" standalone="no"?>
<!DOCTYPE svg PUBLIC "-//W3C//DTD SVG 1.1//EN"
 "http://www.w3.org/Graphics/SVG/1.1/DTD/svg11.dtd">
<!-- Generated by graphviz version 2.40.1 (20161225.0304)
 -->
<!-- Title: tvm::relax::MatchCastNode Pages: 1 -->
<svg width="694pt" height="1747pt"
 viewBox="0.00 0.00 693.50 1747.00" xmlns="http://www.w3.org/2000/svg" xmlns:xlink="http://www.w3.org/1999/xlink">
<g id="graph0" class="graph" transform="scale(1 1) rotate(0) translate(4 1743)">
<title>tvm::relax::MatchCastNode</title>
<polygon fill="#ffffff" stroke="transparent" points="-4,4 -4,-1743 689.5,-1743 689.5,4 -4,4"/>
<!-- Node3 -->
<g id="node1" class="node">
<title>Node3</title>
<polygon fill="#bfbfbf" stroke="#000000" points="412,-.5 412,-134.5 621,-134.5 621,-.5 412,-.5"/>
<text text-anchor="middle" x="516.5" y="-122.5" font-family="Helvetica,sans-Serif" font-size="10.00" fill="#000000">tvm::relax::MatchCastNode</text>
<polyline fill="none" stroke="#000000" points="412,-115.5 621,-115.5 "/>
<text text-anchor="start" x="420" y="-103.5" font-family="Helvetica,sans-Serif" font-size="10.00" fill="#000000">+ _type_key</text>
<text text-anchor="start" x="420" y="-92.5" font-family="Helvetica,sans-Serif" font-size="10.00" fill="#000000">+ _type_has_method_sequal</text>
<text text-anchor="start" x="420" y="-81.5" font-family="Helvetica,sans-Serif" font-size="10.00" fill="#000000">_reduce</text>
<text text-anchor="start" x="420" y="-70.5" font-family="Helvetica,sans-Serif" font-size="10.00" fill="#000000">+ _type_has_method_shash</text>
<text text-anchor="start" x="420" y="-59.5" font-family="Helvetica,sans-Serif" font-size="10.00" fill="#000000">_reduce</text>
<polyline fill="none" stroke="#000000" points="412,-52.5 621,-52.5 "/>
<text text-anchor="start" x="420" y="-40.5" font-family="Helvetica,sans-Serif" font-size="10.00" fill="#000000">+ VisitAttrs()</text>
<text text-anchor="start" x="420" y="-29.5" font-family="Helvetica,sans-Serif" font-size="10.00" fill="#000000">+ SEqualReduce()</text>
<text text-anchor="start" x="420" y="-18.5" font-family="Helvetica,sans-Serif" font-size="10.00" fill="#000000">+ SHashReduce()</text>
<text text-anchor="start" x="420" y="-7.5" font-family="Helvetica,sans-Serif" font-size="10.00" fill="#000000">+ TVM_DECLARE_FINAL_OBJECT_INFO()</text>
</g>
<!-- Node4 -->
<g id="node2" class="node">
<title>Node4</title>
<g id="a_node2"><a xlink:href="classtvm_1_1relax_1_1BindingNode.html" target="_top" xlink:title="The base class of a variable binding in Relax. ">
<polygon fill="#ffffff" stroke="#000000" points="230,-172.5 230,-273.5 437,-273.5 437,-172.5 230,-172.5"/>
<text text-anchor="middle" x="333.5" y="-261.5" font-family="Helvetica,sans-Serif" font-size="10.00" fill="#000000">tvm::relax::BindingNode</text>
<polyline fill="none" stroke="#000000" points="230,-254.5 437,-254.5 "/>
<text text-anchor="start" x="238" y="-242.5" font-family="Helvetica,sans-Serif" font-size="10.00" fill="#000000">+ _type_key</text>
<text text-anchor="start" x="238" y="-231.5" font-family="Helvetica,sans-Serif" font-size="10.00" fill="#000000">+ _type_has_method_sequal</text>
<text text-anchor="start" x="238" y="-220.5" font-family="Helvetica,sans-Serif" font-size="10.00" fill="#000000">_reduce</text>
<text text-anchor="start" x="238" y="-209.5" font-family="Helvetica,sans-Serif" font-size="10.00" fill="#000000">+ _type_has_method_shash</text>
<text text-anchor="start" x="238" y="-198.5" font-family="Helvetica,sans-Serif" font-size="10.00" fill="#000000">_reduce</text>
<polyline fill="none" stroke="#000000" points="230,-191.5 437,-191.5 "/>
<text text-anchor="start" x="238" y="-179.5" font-family="Helvetica,sans-Serif" font-size="10.00" fill="#000000">+ TVM_DECLARE_BASE_OBJECT_INFO()</text>
</a>
</g>
</g>
<!-- Node4&#45;&gt;Node3 -->
<g id="edge1" class="edge">
<title>Node4&#45;&gt;Node3</title>
<path fill="none" stroke="#191970" d="M400.9181,-165.7131C412.8552,-155.5698 425.381,-144.9263 437.6011,-134.5425"/>
<polygon fill="none" stroke="#191970" points="398.5219,-163.1562 393.1678,-172.2987 403.0546,-168.4905 398.5219,-163.1562"/>
</g>
<!-- Node5 -->
<g id="node3" class="node">
<title>Node5</title>
<g id="a_node3"><a xlink:href="classtvm_1_1runtime_1_1Object.html" target="_top" xlink:title="base class of all object containers. ">
<polygon fill="#ffffff" stroke="#000000" points="0,-321.5 0,-708.5 183,-708.5 183,-321.5 0,-321.5"/>
<text text-anchor="middle" x="91.5" y="-696.5" font-family="Helvetica,sans-Serif" font-size="10.00" fill="#000000">tvm::runtime::Object</text>
<polyline fill="none" stroke="#000000" points="0,-689.5 183,-689.5 "/>
<text text-anchor="start" x="8" y="-677.5" font-family="Helvetica,sans-Serif" font-size="10.00" fill="#000000">+ _type_key</text>
<text text-anchor="start" x="8" y="-666.5" font-family="Helvetica,sans-Serif" font-size="10.00" fill="#000000">+ _type_final</text>
<text text-anchor="start" x="8" y="-655.5" font-family="Helvetica,sans-Serif" font-size="10.00" fill="#000000">+ _type_child_slots</text>
<text text-anchor="start" x="8" y="-644.5" font-family="Helvetica,sans-Serif" font-size="10.00" fill="#000000">+ _type_child_slots_can</text>
<text text-anchor="start" x="8" y="-633.5" font-family="Helvetica,sans-Serif" font-size="10.00" fill="#000000">_overflow</text>
<text text-anchor="start" x="8" y="-622.5" font-family="Helvetica,sans-Serif" font-size="10.00" fill="#000000">+ _type_has_method_visit</text>
<text text-anchor="start" x="8" y="-611.5" font-family="Helvetica,sans-Serif" font-size="10.00" fill="#000000">_attrs</text>
<text text-anchor="start" x="8" y="-600.5" font-family="Helvetica,sans-Serif" font-size="10.00" fill="#000000">+ _type_has_method_sequal</text>
<text text-anchor="start" x="8" y="-589.5" font-family="Helvetica,sans-Serif" font-size="10.00" fill="#000000">_reduce</text>
<text text-anchor="start" x="8" y="-578.5" font-family="Helvetica,sans-Serif" font-size="10.00" fill="#000000">+ _type_has_method_shash</text>
<text text-anchor="start" x="8" y="-567.5" font-family="Helvetica,sans-Serif" font-size="10.00" fill="#000000">_reduce</text>
<text text-anchor="start" x="8" y="-556.5" font-family="Helvetica,sans-Serif" font-size="10.00" fill="#000000">+ _type_index</text>
<text text-anchor="start" x="8" y="-545.5" font-family="Helvetica,sans-Serif" font-size="10.00" fill="#000000"># type_index_</text>
<text text-anchor="start" x="8" y="-534.5" font-family="Helvetica,sans-Serif" font-size="10.00" fill="#000000"># ref_counter_</text>
<polyline fill="none" stroke="#000000" points="0,-527.5 183,-527.5 "/>
<text text-anchor="start" x="8" y="-515.5" font-family="Helvetica,sans-Serif" font-size="10.00" fill="#000000">+ type_index()</text>
<text text-anchor="start" x="8" y="-504.5" font-family="Helvetica,sans-Serif" font-size="10.00" fill="#000000">+ GetTypeKey()</text>
<text text-anchor="start" x="8" y="-493.5" font-family="Helvetica,sans-Serif" font-size="10.00" fill="#000000">+ GetTypeKeyHash()</text>
<text text-anchor="start" x="8" y="-482.5" font-family="Helvetica,sans-Serif" font-size="10.00" fill="#000000">+ IsInstance()</text>
<text text-anchor="start" x="8" y="-471.5" font-family="Helvetica,sans-Serif" font-size="10.00" fill="#000000">+ unique()</text>
<text text-anchor="start" x="8" y="-460.5" font-family="Helvetica,sans-Serif" font-size="10.00" fill="#000000">+ Object()</text>
<text text-anchor="start" x="8" y="-449.5" font-family="Helvetica,sans-Serif" font-size="10.00" fill="#000000">+ Object()</text>
<text text-anchor="start" x="8" y="-438.5" font-family="Helvetica,sans-Serif" font-size="10.00" fill="#000000">+ Object()</text>
<text text-anchor="start" x="8" y="-427.5" font-family="Helvetica,sans-Serif" font-size="10.00" fill="#000000">+ operator=()</text>
<text text-anchor="start" x="8" y="-416.5" font-family="Helvetica,sans-Serif" font-size="10.00" fill="#000000">+ operator=()</text>
<text text-anchor="start" x="8" y="-405.5" font-family="Helvetica,sans-Serif" font-size="10.00" fill="#000000">+ TypeIndex2Key()</text>
<text text-anchor="start" x="8" y="-394.5" font-family="Helvetica,sans-Serif" font-size="10.00" fill="#000000">+ TypeIndex2KeyHash()</text>
<text text-anchor="start" x="8" y="-383.5" font-family="Helvetica,sans-Serif" font-size="10.00" fill="#000000">+ TypeKey2Index()</text>
<text text-anchor="start" x="8" y="-372.5" font-family="Helvetica,sans-Serif" font-size="10.00" fill="#000000">+ _GetOrAllocRuntimeTypeIndex()</text>
<text text-anchor="start" x="8" y="-361.5" font-family="Helvetica,sans-Serif" font-size="10.00" fill="#000000">+ RuntimeTypeIndex()</text>
<text text-anchor="start" x="8" y="-350.5" font-family="Helvetica,sans-Serif" font-size="10.00" fill="#000000"># IncRef()</text>
<text text-anchor="start" x="8" y="-339.5" font-family="Helvetica,sans-Serif" font-size="10.00" fill="#000000"># DecRef()</text>
<text text-anchor="start" x="8" y="-328.5" font-family="Helvetica,sans-Serif" font-size="10.00" fill="#000000"># GetOrAllocRuntimeTypeIndex()</text>
</a>
</g>
</g>
<!-- Node5&#45;&gt;Node4 -->
<g id="edge2" class="edge">
<title>Node5&#45;&gt;Node4</title>
<path fill="none" stroke="#191970" d="M189.3555,-386.72C214.2699,-355.2667 241.3971,-322.0233 267.5,-292 272.7207,-285.9952 278.3039,-279.8165 283.9302,-273.7401"/>
<polygon fill="none" stroke="#191970" points="186.5237,-384.6585 183.071,-394.675 192.0164,-388.9979 186.5237,-384.6585"/>
</g>
<!-- Node5&#45;&gt;Node5 -->
<g id="edge3" class="edge">
<title>Node5&#45;&gt;Node5</title>
<path fill="none" stroke="#404040" d="M183.3625,-549.5649C194.0482,-543.1857 201,-531.6641 201,-515 201,-503.8038 197.8618,-494.929 192.5615,-488.3756"/>
<polygon fill="none" stroke="#404040" points="192.4464,-488.2763 185.2907,-487.3836 183.3625,-480.4351 190.5182,-481.3277 192.4464,-488.2763"/>
<text text-anchor="middle" x="227" y="-512.5" font-family="Helvetica,sans-Serif" font-size="10.00" fill="#000000"> #deleter_</text>
</g>
<!-- Node6 -->
<g id="node4" class="node">
<title>Node6</title>
<g id="a_node4"><a xlink:href="classtvm_1_1Span.html" target="_top" xlink:title="{tvm::Span\n||+ Span()\l+ Merge()\l+ TVM_DEFINE_OBJECT_REF\l_METHODS()\l}">
<polygon fill="#ffffff" stroke="#000000" points="223.5,-1075.5 223.5,-1165.5 377.5,-1165.5 377.5,-1075.5 223.5,-1075.5"/>
<text text-anchor="middle" x="300.5" y="-1153.5" font-family="Helvetica,sans-Serif" font-size="10.00" fill="#000000">tvm::Span</text>
<polyline fill="none" stroke="#000000" points="223.5,-1146.5 377.5,-1146.5 "/>
<text text-anchor="middle" x="300.5" y="-1134.5" font-family="Helvetica,sans-Serif" font-size="10.00" fill="#000000"> </text>
<polyline fill="none" stroke="#000000" points="223.5,-1127.5 377.5,-1127.5 "/>
<text text-anchor="start" x="231.5" y="-1115.5" font-family="Helvetica,sans-Serif" font-size="10.00" fill="#000000">+ Span()</text>
<text text-anchor="start" x="231.5" y="-1104.5" font-family="Helvetica,sans-Serif" font-size="10.00" fill="#000000">+ Merge()</text>
<text text-anchor="start" x="231.5" y="-1093.5" font-family="Helvetica,sans-Serif" font-size="10.00" fill="#000000">+ TVM_DEFINE_OBJECT_REF</text>
<text text-anchor="start" x="231.5" y="-1082.5" font-family="Helvetica,sans-Serif" font-size="10.00" fill="#000000">_METHODS()</text>
</a>
</g>
</g>
<!-- Node6&#45;&gt;Node4 -->
<g id="edge4" class="edge">
<title>Node6&#45;&gt;Node4</title>
<path fill="none" stroke="#404040" d="M293.2627,-1075.3954C287.8933,-1038.0181 281.5,-983.4462 281.5,-935.5 281.5,-935.5 281.5,-935.5 281.5,-515 281.5,-434.7916 300.7523,-344.083 315.828,-285.3484"/>
<polygon fill="none" stroke="#404040" points="315.8435,-285.2887 313.49,-278.4724 318.8767,-273.6783 321.2302,-280.4946 315.8435,-285.2887"/>
<text text-anchor="middle" x="299" y="-846" font-family="Helvetica,sans-Serif" font-size="10.00" fill="#000000"> +span</text>
</g>
<!-- Node7 -->
<g id="node5" class="node">
<title>Node7</title>
<g id="a_node5"><a xlink:href="classtvm_1_1runtime_1_1ObjectRef.html" target="_top" xlink:title="Base class of all object reference. ">
<polygon fill="#ffffff" stroke="#000000" points="412.5,-1290.5 412.5,-1512.5 546.5,-1512.5 546.5,-1290.5 412.5,-1290.5"/>
<text text-anchor="middle" x="479.5" y="-1500.5" font-family="Helvetica,sans-Serif" font-size="10.00" fill="#000000">tvm::runtime::ObjectRef</text>
<polyline fill="none" stroke="#000000" points="412.5,-1493.5 546.5,-1493.5 "/>
<text text-anchor="start" x="420.5" y="-1481.5" font-family="Helvetica,sans-Serif" font-size="10.00" fill="#000000">+ _type_is_nullable</text>
<polyline fill="none" stroke="#000000" points="412.5,-1474.5 546.5,-1474.5 "/>
<text text-anchor="start" x="420.5" y="-1462.5" font-family="Helvetica,sans-Serif" font-size="10.00" fill="#000000">+ ObjectRef()</text>
<text text-anchor="start" x="420.5" y="-1451.5" font-family="Helvetica,sans-Serif" font-size="10.00" fill="#000000">+ ObjectRef()</text>
<text text-anchor="start" x="420.5" y="-1440.5" font-family="Helvetica,sans-Serif" font-size="10.00" fill="#000000">+ same_as()</text>
<text text-anchor="start" x="420.5" y="-1429.5" font-family="Helvetica,sans-Serif" font-size="10.00" fill="#000000">+ operator==()</text>
<text text-anchor="start" x="420.5" y="-1418.5" font-family="Helvetica,sans-Serif" font-size="10.00" fill="#000000">+ operator!=()</text>
<text text-anchor="start" x="420.5" y="-1407.5" font-family="Helvetica,sans-Serif" font-size="10.00" fill="#000000">+ operator&lt;()</text>
<text text-anchor="start" x="420.5" y="-1396.5" font-family="Helvetica,sans-Serif" font-size="10.00" fill="#000000">+ defined()</text>
<text text-anchor="start" x="420.5" y="-1385.5" font-family="Helvetica,sans-Serif" font-size="10.00" fill="#000000">+ get()</text>
<text text-anchor="start" x="420.5" y="-1374.5" font-family="Helvetica,sans-Serif" font-size="10.00" fill="#000000">+ operator&#45;&gt;()</text>
<text text-anchor="start" x="420.5" y="-1363.5" font-family="Helvetica,sans-Serif" font-size="10.00" fill="#000000">+ unique()</text>
<text text-anchor="start" x="420.5" y="-1352.5" font-family="Helvetica,sans-Serif" font-size="10.00" fill="#000000">+ use_count()</text>
<text text-anchor="start" x="420.5" y="-1341.5" font-family="Helvetica,sans-Serif" font-size="10.00" fill="#000000">+ as()</text>
<text text-anchor="start" x="420.5" y="-1330.5" font-family="Helvetica,sans-Serif" font-size="10.00" fill="#000000"># get_mutable()</text>
<text text-anchor="start" x="420.5" y="-1319.5" font-family="Helvetica,sans-Serif" font-size="10.00" fill="#000000"># DowncastNoCheck()</text>
<text text-anchor="start" x="420.5" y="-1308.5" font-family="Helvetica,sans-Serif" font-size="10.00" fill="#000000"># FFIClearAfterMove()</text>
<text text-anchor="start" x="420.5" y="-1297.5" font-family="Helvetica,sans-Serif" font-size="10.00" fill="#000000"># GetDataPtr()</text>
</a>
</g>
</g>
<!-- Node7&#45;&gt;Node6 -->
<g id="edge5" class="edge">
<title>Node7&#45;&gt;Node6</title>
<path fill="none" stroke="#191970" d="M406.927,-1287.5726C379.7133,-1244.8516 350.3326,-1198.7288 329.3503,-1165.7901"/>
<polygon fill="none" stroke="#191970" points="404.0131,-1289.5128 412.3377,-1296.0665 409.917,-1285.7519 404.0131,-1289.5128"/>
</g>
<!-- Node12 -->
<g id="node10" class="node">
<title>Node12</title>
<g id="a_node10"><a xlink:href="classtvm_1_1BaseExpr.html" target="_top" xlink:title="Managed reference to BaseExprNode. ">
<polygon fill="#ffffff" stroke="#000000" points="402.5,-1184.5 402.5,-1252.5 556.5,-1252.5 556.5,-1184.5 402.5,-1184.5"/>
<text text-anchor="middle" x="479.5" y="-1240.5" font-family="Helvetica,sans-Serif" font-size="10.00" fill="#000000">tvm::BaseExpr</text>
<polyline fill="none" stroke="#000000" points="402.5,-1233.5 556.5,-1233.5 "/>
<text text-anchor="middle" x="479.5" y="-1221.5" font-family="Helvetica,sans-Serif" font-size="10.00" fill="#000000"> </text>
<polyline fill="none" stroke="#000000" points="402.5,-1214.5 556.5,-1214.5 "/>
<text text-anchor="start" x="410.5" y="-1202.5" font-family="Helvetica,sans-Serif" font-size="10.00" fill="#000000">+ TVM_DEFINE_OBJECT_REF</text>
<text text-anchor="start" x="410.5" y="-1191.5" font-family="Helvetica,sans-Serif" font-size="10.00" fill="#000000">_METHODS()</text>
</a>
</g>
</g>
<!-- Node7&#45;&gt;Node12 -->
<g id="edge11" class="edge">
<title>Node7&#45;&gt;Node12</title>
<path fill="none" stroke="#191970" d="M479.5,-1280.2198C479.5,-1270.2931 479.5,-1260.8914 479.5,-1252.5572"/>
<polygon fill="none" stroke="#191970" points="476.0001,-1280.3012 479.5,-1290.3012 483.0001,-1280.3012 476.0001,-1280.3012"/>
</g>
<!-- Node14 -->
<g id="node12" class="node">
<title>Node14</title>
<g id="a_node12"><a xlink:href="classtvm_1_1relax_1_1StructInfo.html" target="_top" xlink:title="Managed reference to StructInfoNode. ">
<polygon fill="#ffffff" stroke="#000000" points="531.5,-727.5 531.5,-795.5 685.5,-795.5 685.5,-727.5 531.5,-727.5"/>
<text text-anchor="middle" x="608.5" y="-783.5" font-family="Helvetica,sans-Serif" font-size="10.00" fill="#000000">tvm::relax::StructInfo</text>
<polyline fill="none" stroke="#000000" points="531.5,-776.5 685.5,-776.5 "/>
<text text-anchor="middle" x="608.5" y="-764.5" font-family="Helvetica,sans-Serif" font-size="10.00" fill="#000000"> </text>
<polyline fill="none" stroke="#000000" points="531.5,-757.5 685.5,-757.5 "/>
<text text-anchor="start" x="539.5" y="-745.5" font-family="Helvetica,sans-Serif" font-size="10.00" fill="#000000">+ TVM_DEFINE_OBJECT_REF</text>
<text text-anchor="start" x="539.5" y="-734.5" font-family="Helvetica,sans-Serif" font-size="10.00" fill="#000000">_METHODS()</text>
</a>
</g>
</g>
<!-- Node7&#45;&gt;Node14 -->
<g id="edge15" class="edge">
<title>Node7&#45;&gt;Node14</title>
<path fill="none" stroke="#191970" d="M553.598,-1337.0081C582.3504,-1304.858 608.5,-1263.3027 608.5,-1218.5 608.5,-1218.5 608.5,-1218.5 608.5,-935.5 608.5,-886.8646 608.5,-830.5824 608.5,-795.5081"/>
<polygon fill="none" stroke="#191970" points="550.8461,-1334.8297 546.6448,-1344.5559 555.9945,-1339.5725 550.8461,-1334.8297"/>
</g>
<!-- Node8 -->
<g id="node6" class="node">
<title>Node8</title>
<g id="a_node6"><a xlink:href="classtvm_1_1runtime_1_1ObjectPtr.html" target="_top" xlink:title="{tvm::runtime::ObjectPtr\l\&lt; tvm::runtime::Object \&gt;\n||+ ObjectPtr()\l+ ObjectPtr()\l+ ObjectPtr()\l+ ObjectPtr()\l+ ObjectPtr()\l+ ObjectPtr()\l+ ~ObjectPtr()\l+ swap()\l+ get()\l+ operator&#45;\&gt;()\land 11 more...\l}">
<polygon fill="#ffffff" stroke="#000000" points="409.5,-1560.5 409.5,-1738.5 549.5,-1738.5 549.5,-1560.5 409.5,-1560.5"/>
<text text-anchor="start" x="417.5" y="-1726.5" font-family="Helvetica,sans-Serif" font-size="10.00" fill="#000000">tvm::runtime::ObjectPtr</text>
<text text-anchor="middle" x="479.5" y="-1715.5" font-family="Helvetica,sans-Serif" font-size="10.00" fill="#000000">&lt; tvm::runtime::Object &gt;</text>
<polyline fill="none" stroke="#000000" points="409.5,-1708.5 549.5,-1708.5 "/>
<text text-anchor="middle" x="479.5" y="-1696.5" font-family="Helvetica,sans-Serif" font-size="10.00" fill="#000000"> </text>
<polyline fill="none" stroke="#000000" points="409.5,-1689.5 549.5,-1689.5 "/>
<text text-anchor="start" x="417.5" y="-1677.5" font-family="Helvetica,sans-Serif" font-size="10.00" fill="#000000">+ ObjectPtr()</text>
<text text-anchor="start" x="417.5" y="-1666.5" font-family="Helvetica,sans-Serif" font-size="10.00" fill="#000000">+ ObjectPtr()</text>
<text text-anchor="start" x="417.5" y="-1655.5" font-family="Helvetica,sans-Serif" font-size="10.00" fill="#000000">+ ObjectPtr()</text>
<text text-anchor="start" x="417.5" y="-1644.5" font-family="Helvetica,sans-Serif" font-size="10.00" fill="#000000">+ ObjectPtr()</text>
<text text-anchor="start" x="417.5" y="-1633.5" font-family="Helvetica,sans-Serif" font-size="10.00" fill="#000000">+ ObjectPtr()</text>
<text text-anchor="start" x="417.5" y="-1622.5" font-family="Helvetica,sans-Serif" font-size="10.00" fill="#000000">+ ObjectPtr()</text>
<text text-anchor="start" x="417.5" y="-1611.5" font-family="Helvetica,sans-Serif" font-size="10.00" fill="#000000">+ ~ObjectPtr()</text>
<text text-anchor="start" x="417.5" y="-1600.5" font-family="Helvetica,sans-Serif" font-size="10.00" fill="#000000">+ swap()</text>
<text text-anchor="start" x="417.5" y="-1589.5" font-family="Helvetica,sans-Serif" font-size="10.00" fill="#000000">+ get()</text>
<text text-anchor="start" x="417.5" y="-1578.5" font-family="Helvetica,sans-Serif" font-size="10.00" fill="#000000">+ operator&#45;&gt;()</text>
<text text-anchor="start" x="417.5" y="-1567.5" font-family="Helvetica,sans-Serif" font-size="10.00" fill="#000000">and 11 more...</text>
</a>
</g>
</g>
<!-- Node8&#45;&gt;Node7 -->
<g id="edge6" class="edge">
<title>Node8&#45;&gt;Node7</title>
<path fill="none" stroke="#404040" d="M479.5,-1560.3167C479.5,-1548.8765 479.5,-1537.0062 479.5,-1525.1402"/>
<polygon fill="none" stroke="#404040" points="479.5001,-1524.7944 475.5,-1518.7944 479.5,-1512.7944 483.5,-1518.7943 479.5001,-1524.7944"/>
<text text-anchor="middle" x="499" y="-1534" font-family="Helvetica,sans-Serif" font-size="10.00" fill="#000000"> #data_</text>
</g>
<!-- Node9 -->
<g id="node7" class="node">
<title>Node9</title>
<g id="a_node7"><a xlink:href="classtvm_1_1relax_1_1Var.html" target="_top" xlink:title="{tvm::relax::Var\n||+ Var()\l+ Var()\l+ TVM_DEFINE_OBJECT_REF\l_METHODS()\l+ TVM_DEFINE_OBJECT_REF\l_COW_METHOD()\l}">
<polygon fill="#ffffff" stroke="#000000" points="318.5,-459 318.5,-571 472.5,-571 472.5,-459 318.5,-459"/>
<text text-anchor="middle" x="395.5" y="-559" font-family="Helvetica,sans-Serif" font-size="10.00" fill="#000000">tvm::relax::Var</text>
<polyline fill="none" stroke="#000000" points="318.5,-552 472.5,-552 "/>
<text text-anchor="middle" x="395.5" y="-540" font-family="Helvetica,sans-Serif" font-size="10.00" fill="#000000"> </text>
<polyline fill="none" stroke="#000000" points="318.5,-533 472.5,-533 "/>
<text text-anchor="start" x="326.5" y="-521" font-family="Helvetica,sans-Serif" font-size="10.00" fill="#000000">+ Var()</text>
<text text-anchor="start" x="326.5" y="-510" font-family="Helvetica,sans-Serif" font-size="10.00" fill="#000000">+ Var()</text>
<text text-anchor="start" x="326.5" y="-499" font-family="Helvetica,sans-Serif" font-size="10.00" fill="#000000">+ TVM_DEFINE_OBJECT_REF</text>
<text text-anchor="start" x="326.5" y="-488" font-family="Helvetica,sans-Serif" font-size="10.00" fill="#000000">_METHODS()</text>
<text text-anchor="start" x="326.5" y="-477" font-family="Helvetica,sans-Serif" font-size="10.00" fill="#000000">+ TVM_DEFINE_OBJECT_REF</text>
<text text-anchor="start" x="326.5" y="-466" font-family="Helvetica,sans-Serif" font-size="10.00" fill="#000000">_COW_METHOD()</text>
</a>
</g>
</g>
<!-- Node9&#45;&gt;Node4 -->
<g id="edge7" class="edge">
<title>Node9&#45;&gt;Node4</title>
<path fill="none" stroke="#404040" d="M383.5458,-458.6995C373.0235,-409.1428 357.7214,-337.0749 346.8118,-285.6945"/>
<polygon fill="none" stroke="#404040" points="346.7699,-285.4966 341.6109,-280.4582 344.2774,-273.7583 349.4364,-278.7966 346.7699,-285.4966"/>
<text text-anchor="middle" x="363.5" y="-295" font-family="Helvetica,sans-Serif" font-size="10.00" fill="#000000"> +var</text>
</g>
<!-- Node10 -->
<g id="node8" class="node">
<title>Node10</title>
<g id="a_node8"><a xlink:href="classtvm_1_1relax_1_1LeafExpr.html" target="_top" xlink:title="Managed reference to BaseExprNode. ">
<polygon fill="#ffffff" stroke="#000000" points="334.5,-814.5 334.5,-882.5 488.5,-882.5 488.5,-814.5 334.5,-814.5"/>
<text text-anchor="middle" x="411.5" y="-870.5" font-family="Helvetica,sans-Serif" font-size="10.00" fill="#000000">tvm::relax::LeafExpr</text>
<polyline fill="none" stroke="#000000" points="334.5,-863.5 488.5,-863.5 "/>
<text text-anchor="middle" x="411.5" y="-851.5" font-family="Helvetica,sans-Serif" font-size="10.00" fill="#000000"> </text>
<polyline fill="none" stroke="#000000" points="334.5,-844.5 488.5,-844.5 "/>
<text text-anchor="start" x="342.5" y="-832.5" font-family="Helvetica,sans-Serif" font-size="10.00" fill="#000000">+ TVM_DEFINE_OBJECT_REF</text>
<text text-anchor="start" x="342.5" y="-821.5" font-family="Helvetica,sans-Serif" font-size="10.00" fill="#000000">_METHODS()</text>
</a>
</g>
</g>
<!-- Node10&#45;&gt;Node9 -->
<g id="edge8" class="edge">
<title>Node10&#45;&gt;Node9</title>
<path fill="none" stroke="#191970" d="M409.369,-804.0829C406.4864,-743.9983 401.3439,-636.8081 398.1958,-571.1911"/>
<polygon fill="none" stroke="#191970" points="405.8876,-804.5562 409.8629,-814.3769 412.8796,-804.2207 405.8876,-804.5562"/>
</g>
<!-- Node11 -->
<g id="node9" class="node">
<title>Node11</title>
<g id="a_node9"><a xlink:href="classtvm_1_1RelayExpr.html" target="_top" xlink:title="Managed reference to RelayExprNode. ">
<polygon fill="#ffffff" stroke="#000000" points="334.5,-988.5 334.5,-1056.5 488.5,-1056.5 488.5,-988.5 334.5,-988.5"/>
<text text-anchor="middle" x="411.5" y="-1044.5" font-family="Helvetica,sans-Serif" font-size="10.00" fill="#000000">Expr</text>
<polyline fill="none" stroke="#000000" points="334.5,-1037.5 488.5,-1037.5 "/>
<text text-anchor="middle" x="411.5" y="-1025.5" font-family="Helvetica,sans-Serif" font-size="10.00" fill="#000000"> </text>
<polyline fill="none" stroke="#000000" points="334.5,-1018.5 488.5,-1018.5 "/>
<text text-anchor="start" x="342.5" y="-1006.5" font-family="Helvetica,sans-Serif" font-size="10.00" fill="#000000">+ TVM_DEFINE_OBJECT_REF</text>
<text text-anchor="start" x="342.5" y="-995.5" font-family="Helvetica,sans-Serif" font-size="10.00" fill="#000000">_METHODS()</text>
</a>
</g>
</g>
<!-- Node11&#45;&gt;Node10 -->
<g id="edge9" class="edge">
<title>Node11&#45;&gt;Node10</title>
<path fill="none" stroke="#191970" d="M411.5,-978.0084C411.5,-948.2848 411.5,-909.7845 411.5,-882.5089"/>
<polygon fill="none" stroke="#191970" points="408.0001,-978.1232 411.5,-988.1232 415.0001,-978.1232 408.0001,-978.1232"/>
</g>
<!-- Node12&#45;&gt;Node11 -->
<g id="edge10" class="edge">
<title>Node12&#45;&gt;Node11</title>
<path fill="none" stroke="#191970" d="M464.3009,-1174.6909C451.9204,-1139.006 434.6889,-1089.3386 423.3228,-1056.5776"/>
<polygon fill="none" stroke="#191970" points="461.0709,-1176.0591 467.6553,-1184.3594 467.6842,-1173.7646 461.0709,-1176.0591"/>
</g>
<!-- Node13 -->
<g id="node11" class="node">
<title>Node13</title>
<g id="a_node11"><a xlink:href="classtvm_1_1RelayExpr.html" target="_top" xlink:title="Managed reference to RelayExprNode. ">
<polygon fill="#ffffff" stroke="#000000" points="439.5,-901.5 439.5,-969.5 593.5,-969.5 593.5,-901.5 439.5,-901.5"/>
<text text-anchor="middle" x="516.5" y="-957.5" font-family="Helvetica,sans-Serif" font-size="10.00" fill="#000000">tvm::RelayExpr</text>
<polyline fill="none" stroke="#000000" points="439.5,-950.5 593.5,-950.5 "/>
<text text-anchor="middle" x="516.5" y="-938.5" font-family="Helvetica,sans-Serif" font-size="10.00" fill="#000000"> </text>
<polyline fill="none" stroke="#000000" points="439.5,-931.5 593.5,-931.5 "/>
<text text-anchor="start" x="447.5" y="-919.5" font-family="Helvetica,sans-Serif" font-size="10.00" fill="#000000">+ TVM_DEFINE_OBJECT_REF</text>
<text text-anchor="start" x="447.5" y="-908.5" font-family="Helvetica,sans-Serif" font-size="10.00" fill="#000000">_METHODS()</text>
</a>
</g>
</g>
<!-- Node12&#45;&gt;Node13 -->
<g id="edge13" class="edge">
<title>Node12&#45;&gt;Node13</title>
<path fill="none" stroke="#191970" d="M485.2796,-1174.2939C492.6717,-1117.7541 505.3169,-1021.0358 512.0211,-969.7575"/>
<polygon fill="none" stroke="#191970" points="481.7891,-1173.9942 483.9631,-1184.3636 488.73,-1174.9017 481.7891,-1173.9942"/>
</g>
<!-- Node13&#45;&gt;Node3 -->
<g id="edge12" class="edge">
<title>Node13&#45;&gt;Node3</title>
<path fill="none" stroke="#404040" d="M516.5,-901.4919C516.5,-866.4176 516.5,-810.1354 516.5,-761.5 516.5,-761.5 516.5,-761.5 516.5,-223 516.5,-198.2887 516.5,-171.3684 516.5,-146.9782"/>
<polygon fill="none" stroke="#404040" points="516.5001,-146.8555 512.5,-140.8556 516.5,-134.8555 520.5,-140.8555 516.5001,-146.8555"/>
<text text-anchor="middle" x="536" y="-512.5" font-family="Helvetica,sans-Serif" font-size="10.00" fill="#000000"> +value</text>
</g>
<!-- Node14&#45;&gt;Node3 -->
<g id="edge14" class="edge">
<title>Node14&#45;&gt;Node3</title>
<path fill="none" stroke="#404040" d="M605.3804,-727.4271C598.4496,-653.3332 580.697,-472.0683 559.5,-321 551.2771,-262.3964 540.0394,-196.5079 531.1145,-146.5951"/>
<polygon fill="none" stroke="#404040" points="531.0793,-146.3985 526.0812,-141.2005 528.957,-134.5877 533.9551,-139.7857 531.0793,-146.3985"/>
<text text-anchor="middle" x="588.5" y="-295" font-family="Helvetica,sans-Serif" font-size="10.00" fill="#000000"> +struct_info</text>
</g>
</g>
</svg>
