<?xml version="1.0" encoding="UTF-8" standalone="no"?>
<!DOCTYPE svg PUBLIC "-//W3C//DTD SVG 1.1//EN"
 "http://www.w3.org/Graphics/SVG/1.1/DTD/svg11.dtd">
<!-- Generated by graphviz version 2.40.1 (20161225.0304)
 -->
<!-- Title: tvm::relay::TupleGetItemNode Pages: 1 -->
<svg width="751pt" height="1556pt"
 viewBox="0.00 0.00 751.00 1556.00" xmlns="http://www.w3.org/2000/svg" xmlns:xlink="http://www.w3.org/1999/xlink">
<g id="graph0" class="graph" transform="scale(1 1) rotate(0) translate(4 1552)">
<title>tvm::relay::TupleGetItemNode</title>
<polygon fill="#ffffff" stroke="transparent" points="-4,4 -4,-1552 747,-1552 747,4 -4,4"/>
<!-- Node4 -->
<g id="node1" class="node">
<title>Node4</title>
<polygon fill="#bfbfbf" stroke="#000000" points="451.5,-.5 451.5,-101.5 660.5,-101.5 660.5,-.5 451.5,-.5"/>
<text text-anchor="middle" x="556" y="-89.5" font-family="Helvetica,sans-Serif" font-size="10.00" fill="#000000">tvm::relay::TupleGetItemNode</text>
<polyline fill="none" stroke="#000000" points="451.5,-82.5 660.5,-82.5 "/>
<text text-anchor="start" x="459.5" y="-70.5" font-family="Helvetica,sans-Serif" font-size="10.00" fill="#000000">+ index</text>
<text text-anchor="start" x="459.5" y="-59.5" font-family="Helvetica,sans-Serif" font-size="10.00" fill="#000000">+ _type_key</text>
<polyline fill="none" stroke="#000000" points="451.5,-52.5 660.5,-52.5 "/>
<text text-anchor="start" x="459.5" y="-40.5" font-family="Helvetica,sans-Serif" font-size="10.00" fill="#000000">+ VisitAttrs()</text>
<text text-anchor="start" x="459.5" y="-29.5" font-family="Helvetica,sans-Serif" font-size="10.00" fill="#000000">+ SEqualReduce()</text>
<text text-anchor="start" x="459.5" y="-18.5" font-family="Helvetica,sans-Serif" font-size="10.00" fill="#000000">+ SHashReduce()</text>
<text text-anchor="start" x="459.5" y="-7.5" font-family="Helvetica,sans-Serif" font-size="10.00" fill="#000000">+ TVM_DECLARE_FINAL_OBJECT_INFO()</text>
</g>
<!-- Node5 -->
<g id="node2" class="node">
<title>Node5</title>
<g id="a_node2"><a xlink:href="classtvm_1_1RelayExprNode.html" target="_top" xlink:title="Base node of all non&#45;primitive expressions. ">
<polygon fill="#ffffff" stroke="#000000" points="358.5,-139.5 358.5,-240.5 565.5,-240.5 565.5,-139.5 358.5,-139.5"/>
<text text-anchor="middle" x="462" y="-228.5" font-family="Helvetica,sans-Serif" font-size="10.00" fill="#000000">ExprNode</text>
<polyline fill="none" stroke="#000000" points="358.5,-221.5 565.5,-221.5 "/>
<text text-anchor="start" x="366.5" y="-209.5" font-family="Helvetica,sans-Serif" font-size="10.00" fill="#000000">+ _type_key</text>
<text text-anchor="start" x="366.5" y="-198.5" font-family="Helvetica,sans-Serif" font-size="10.00" fill="#000000">+ _type_child_slots</text>
<polyline fill="none" stroke="#000000" points="358.5,-191.5 565.5,-191.5 "/>
<text text-anchor="start" x="366.5" y="-179.5" font-family="Helvetica,sans-Serif" font-size="10.00" fill="#000000">+ checked_type()</text>
<text text-anchor="start" x="366.5" y="-168.5" font-family="Helvetica,sans-Serif" font-size="10.00" fill="#000000">+ type_as()</text>
<text text-anchor="start" x="366.5" y="-157.5" font-family="Helvetica,sans-Serif" font-size="10.00" fill="#000000">+ virtual_device()</text>
<text text-anchor="start" x="366.5" y="-146.5" font-family="Helvetica,sans-Serif" font-size="10.00" fill="#000000">+ TVM_DECLARE_BASE_OBJECT_INFO()</text>
</a>
</g>
</g>
<!-- Node5&#45;&gt;Node4 -->
<g id="edge1" class="edge">
<title>Node5&#45;&gt;Node4</title>
<path fill="none" stroke="#191970" d="M501.9147,-130.9771C508.4859,-121.2602 515.2462,-111.2635 521.6659,-101.7707"/>
<polygon fill="none" stroke="#191970" points="498.9047,-129.1803 496.2021,-139.4246 504.7033,-133.1016 498.9047,-129.1803"/>
</g>
<!-- Node6 -->
<g id="node3" class="node">
<title>Node6</title>
<g id="a_node3"><a xlink:href="classtvm_1_1BaseExprNode.html" target="_top" xlink:title="Base type of all the expressions. ">
<polygon fill="#ffffff" stroke="#000000" points="97.5,-346.5 97.5,-458.5 304.5,-458.5 304.5,-346.5 97.5,-346.5"/>
<text text-anchor="middle" x="201" y="-446.5" font-family="Helvetica,sans-Serif" font-size="10.00" fill="#000000">tvm::BaseExprNode</text>
<polyline fill="none" stroke="#000000" points="97.5,-439.5 304.5,-439.5 "/>
<text text-anchor="start" x="105.5" y="-427.5" font-family="Helvetica,sans-Serif" font-size="10.00" fill="#000000">+ _type_key</text>
<text text-anchor="start" x="105.5" y="-416.5" font-family="Helvetica,sans-Serif" font-size="10.00" fill="#000000">+ _type_has_method_sequal</text>
<text text-anchor="start" x="105.5" y="-405.5" font-family="Helvetica,sans-Serif" font-size="10.00" fill="#000000">_reduce</text>
<text text-anchor="start" x="105.5" y="-394.5" font-family="Helvetica,sans-Serif" font-size="10.00" fill="#000000">+ _type_has_method_shash</text>
<text text-anchor="start" x="105.5" y="-383.5" font-family="Helvetica,sans-Serif" font-size="10.00" fill="#000000">_reduce</text>
<text text-anchor="start" x="105.5" y="-372.5" font-family="Helvetica,sans-Serif" font-size="10.00" fill="#000000">+ _type_child_slots</text>
<polyline fill="none" stroke="#000000" points="97.5,-365.5 304.5,-365.5 "/>
<text text-anchor="start" x="105.5" y="-353.5" font-family="Helvetica,sans-Serif" font-size="10.00" fill="#000000">+ TVM_DECLARE_BASE_OBJECT_INFO()</text>
</a>
</g>
</g>
<!-- Node6&#45;&gt;Node5 -->
<g id="edge2" class="edge">
<title>Node6&#45;&gt;Node5</title>
<path fill="none" stroke="#191970" d="M248.2341,-338.6509C270.1678,-311.8506 297.8293,-281.7036 327,-259 336.6588,-251.4825 347.2628,-244.4195 358.15,-237.8938"/>
<polygon fill="none" stroke="#191970" points="245.4716,-336.5009 241.9102,-346.4792 250.9169,-340.8997 245.4716,-336.5009"/>
</g>
<!-- Node7 -->
<g id="node4" class="node">
<title>Node7</title>
<g id="a_node4"><a xlink:href="classtvm_1_1runtime_1_1Object.html" target="_top" xlink:title="base class of all object containers. ">
<polygon fill="#ffffff" stroke="#000000" points="172.5,-674.5 172.5,-1061.5 355.5,-1061.5 355.5,-674.5 172.5,-674.5"/>
<text text-anchor="middle" x="264" y="-1049.5" font-family="Helvetica,sans-Serif" font-size="10.00" fill="#000000">tvm::runtime::Object</text>
<polyline fill="none" stroke="#000000" points="172.5,-1042.5 355.5,-1042.5 "/>
<text text-anchor="start" x="180.5" y="-1030.5" font-family="Helvetica,sans-Serif" font-size="10.00" fill="#000000">+ _type_key</text>
<text text-anchor="start" x="180.5" y="-1019.5" font-family="Helvetica,sans-Serif" font-size="10.00" fill="#000000">+ _type_final</text>
<text text-anchor="start" x="180.5" y="-1008.5" font-family="Helvetica,sans-Serif" font-size="10.00" fill="#000000">+ _type_child_slots</text>
<text text-anchor="start" x="180.5" y="-997.5" font-family="Helvetica,sans-Serif" font-size="10.00" fill="#000000">+ _type_child_slots_can</text>
<text text-anchor="start" x="180.5" y="-986.5" font-family="Helvetica,sans-Serif" font-size="10.00" fill="#000000">_overflow</text>
<text text-anchor="start" x="180.5" y="-975.5" font-family="Helvetica,sans-Serif" font-size="10.00" fill="#000000">+ _type_has_method_visit</text>
<text text-anchor="start" x="180.5" y="-964.5" font-family="Helvetica,sans-Serif" font-size="10.00" fill="#000000">_attrs</text>
<text text-anchor="start" x="180.5" y="-953.5" font-family="Helvetica,sans-Serif" font-size="10.00" fill="#000000">+ _type_has_method_sequal</text>
<text text-anchor="start" x="180.5" y="-942.5" font-family="Helvetica,sans-Serif" font-size="10.00" fill="#000000">_reduce</text>
<text text-anchor="start" x="180.5" y="-931.5" font-family="Helvetica,sans-Serif" font-size="10.00" fill="#000000">+ _type_has_method_shash</text>
<text text-anchor="start" x="180.5" y="-920.5" font-family="Helvetica,sans-Serif" font-size="10.00" fill="#000000">_reduce</text>
<text text-anchor="start" x="180.5" y="-909.5" font-family="Helvetica,sans-Serif" font-size="10.00" fill="#000000">+ _type_index</text>
<text text-anchor="start" x="180.5" y="-898.5" font-family="Helvetica,sans-Serif" font-size="10.00" fill="#000000"># type_index_</text>
<text text-anchor="start" x="180.5" y="-887.5" font-family="Helvetica,sans-Serif" font-size="10.00" fill="#000000"># ref_counter_</text>
<polyline fill="none" stroke="#000000" points="172.5,-880.5 355.5,-880.5 "/>
<text text-anchor="start" x="180.5" y="-868.5" font-family="Helvetica,sans-Serif" font-size="10.00" fill="#000000">+ type_index()</text>
<text text-anchor="start" x="180.5" y="-857.5" font-family="Helvetica,sans-Serif" font-size="10.00" fill="#000000">+ GetTypeKey()</text>
<text text-anchor="start" x="180.5" y="-846.5" font-family="Helvetica,sans-Serif" font-size="10.00" fill="#000000">+ GetTypeKeyHash()</text>
<text text-anchor="start" x="180.5" y="-835.5" font-family="Helvetica,sans-Serif" font-size="10.00" fill="#000000">+ IsInstance()</text>
<text text-anchor="start" x="180.5" y="-824.5" font-family="Helvetica,sans-Serif" font-size="10.00" fill="#000000">+ unique()</text>
<text text-anchor="start" x="180.5" y="-813.5" font-family="Helvetica,sans-Serif" font-size="10.00" fill="#000000">+ Object()</text>
<text text-anchor="start" x="180.5" y="-802.5" font-family="Helvetica,sans-Serif" font-size="10.00" fill="#000000">+ Object()</text>
<text text-anchor="start" x="180.5" y="-791.5" font-family="Helvetica,sans-Serif" font-size="10.00" fill="#000000">+ Object()</text>
<text text-anchor="start" x="180.5" y="-780.5" font-family="Helvetica,sans-Serif" font-size="10.00" fill="#000000">+ operator=()</text>
<text text-anchor="start" x="180.5" y="-769.5" font-family="Helvetica,sans-Serif" font-size="10.00" fill="#000000">+ operator=()</text>
<text text-anchor="start" x="180.5" y="-758.5" font-family="Helvetica,sans-Serif" font-size="10.00" fill="#000000">+ TypeIndex2Key()</text>
<text text-anchor="start" x="180.5" y="-747.5" font-family="Helvetica,sans-Serif" font-size="10.00" fill="#000000">+ TypeIndex2KeyHash()</text>
<text text-anchor="start" x="180.5" y="-736.5" font-family="Helvetica,sans-Serif" font-size="10.00" fill="#000000">+ TypeKey2Index()</text>
<text text-anchor="start" x="180.5" y="-725.5" font-family="Helvetica,sans-Serif" font-size="10.00" fill="#000000">+ _GetOrAllocRuntimeTypeIndex()</text>
<text text-anchor="start" x="180.5" y="-714.5" font-family="Helvetica,sans-Serif" font-size="10.00" fill="#000000">+ RuntimeTypeIndex()</text>
<text text-anchor="start" x="180.5" y="-703.5" font-family="Helvetica,sans-Serif" font-size="10.00" fill="#000000"># IncRef()</text>
<text text-anchor="start" x="180.5" y="-692.5" font-family="Helvetica,sans-Serif" font-size="10.00" fill="#000000"># DecRef()</text>
<text text-anchor="start" x="180.5" y="-681.5" font-family="Helvetica,sans-Serif" font-size="10.00" fill="#000000"># GetOrAllocRuntimeTypeIndex()</text>
</a>
</g>
</g>
<!-- Node7&#45;&gt;Node6 -->
<g id="edge3" class="edge">
<title>Node7&#45;&gt;Node6</title>
<path fill="none" stroke="#191970" d="M220.2038,-664.2795C219.7883,-661.5043 219.3867,-658.7434 219,-656 209.4861,-588.4999 204.8997,-510.1419 202.7583,-458.6175"/>
<polygon fill="none" stroke="#191970" points="216.7792,-665.0368 221.7662,-674.3845 223.697,-663.967 216.7792,-665.0368"/>
</g>
<!-- Node7&#45;&gt;Node7 -->
<g id="edge4" class="edge">
<title>Node7&#45;&gt;Node7</title>
<path fill="none" stroke="#404040" d="M355.8625,-901.9248C366.5482,-895.6637 373.5,-884.3555 373.5,-868 373.5,-857.0112 370.3618,-848.3007 365.0615,-841.8687"/>
<polygon fill="none" stroke="#404040" points="365.0184,-841.8322 357.8548,-841.0056 355.8625,-834.0752 363.0261,-834.9017 365.0184,-841.8322"/>
<text text-anchor="middle" x="399.5" y="-865.5" font-family="Helvetica,sans-Serif" font-size="10.00" fill="#000000"> #deleter_</text>
</g>
<!-- Node8 -->
<g id="node5" class="node">
<title>Node8</title>
<g id="a_node5"><a xlink:href="classtvm_1_1Span.html" target="_top" xlink:title="{tvm::Span\n||+ Span()\l+ Merge()\l+ TVM_DEFINE_OBJECT_REF\l_METHODS()\l}">
<polygon fill="#ffffff" stroke="#000000" points="0,-823 0,-913 154,-913 154,-823 0,-823"/>
<text text-anchor="middle" x="77" y="-901" font-family="Helvetica,sans-Serif" font-size="10.00" fill="#000000">tvm::Span</text>
<polyline fill="none" stroke="#000000" points="0,-894 154,-894 "/>
<text text-anchor="middle" x="77" y="-882" font-family="Helvetica,sans-Serif" font-size="10.00" fill="#000000"> </text>
<polyline fill="none" stroke="#000000" points="0,-875 154,-875 "/>
<text text-anchor="start" x="8" y="-863" font-family="Helvetica,sans-Serif" font-size="10.00" fill="#000000">+ Span()</text>
<text text-anchor="start" x="8" y="-852" font-family="Helvetica,sans-Serif" font-size="10.00" fill="#000000">+ Merge()</text>
<text text-anchor="start" x="8" y="-841" font-family="Helvetica,sans-Serif" font-size="10.00" fill="#000000">+ TVM_DEFINE_OBJECT_REF</text>
<text text-anchor="start" x="8" y="-830" font-family="Helvetica,sans-Serif" font-size="10.00" fill="#000000">_METHODS()</text>
</a>
</g>
</g>
<!-- Node8&#45;&gt;Node6 -->
<g id="edge5" class="edge">
<title>Node8&#45;&gt;Node6</title>
<path fill="none" stroke="#404040" d="M83.7176,-822.8004C95.4451,-749.0125 122.5308,-598.6995 165,-477 165.7809,-474.7621 166.6108,-472.5033 167.4799,-470.2354"/>
<polygon fill="none" stroke="#404040" points="167.5803,-469.989 166.1407,-462.923 172.1094,-458.8764 173.549,-465.9424 167.5803,-469.989"/>
<text text-anchor="middle" x="182.5" y="-564" font-family="Helvetica,sans-Serif" font-size="10.00" fill="#000000"> +span</text>
</g>
<!-- Node9 -->
<g id="node6" class="node">
<title>Node9</title>
<g id="a_node6"><a xlink:href="classtvm_1_1runtime_1_1ObjectRef.html" target="_top" xlink:title="Base class of all object reference. ">
<polygon fill="#ffffff" stroke="#000000" points="425,-1099.5 425,-1321.5 559,-1321.5 559,-1099.5 425,-1099.5"/>
<text text-anchor="middle" x="492" y="-1309.5" font-family="Helvetica,sans-Serif" font-size="10.00" fill="#000000">tvm::runtime::ObjectRef</text>
<polyline fill="none" stroke="#000000" points="425,-1302.5 559,-1302.5 "/>
<text text-anchor="start" x="433" y="-1290.5" font-family="Helvetica,sans-Serif" font-size="10.00" fill="#000000">+ _type_is_nullable</text>
<polyline fill="none" stroke="#000000" points="425,-1283.5 559,-1283.5 "/>
<text text-anchor="start" x="433" y="-1271.5" font-family="Helvetica,sans-Serif" font-size="10.00" fill="#000000">+ ObjectRef()</text>
<text text-anchor="start" x="433" y="-1260.5" font-family="Helvetica,sans-Serif" font-size="10.00" fill="#000000">+ ObjectRef()</text>
<text text-anchor="start" x="433" y="-1249.5" font-family="Helvetica,sans-Serif" font-size="10.00" fill="#000000">+ same_as()</text>
<text text-anchor="start" x="433" y="-1238.5" font-family="Helvetica,sans-Serif" font-size="10.00" fill="#000000">+ operator==()</text>
<text text-anchor="start" x="433" y="-1227.5" font-family="Helvetica,sans-Serif" font-size="10.00" fill="#000000">+ operator!=()</text>
<text text-anchor="start" x="433" y="-1216.5" font-family="Helvetica,sans-Serif" font-size="10.00" fill="#000000">+ operator&lt;()</text>
<text text-anchor="start" x="433" y="-1205.5" font-family="Helvetica,sans-Serif" font-size="10.00" fill="#000000">+ defined()</text>
<text text-anchor="start" x="433" y="-1194.5" font-family="Helvetica,sans-Serif" font-size="10.00" fill="#000000">+ get()</text>
<text text-anchor="start" x="433" y="-1183.5" font-family="Helvetica,sans-Serif" font-size="10.00" fill="#000000">+ operator&#45;&gt;()</text>
<text text-anchor="start" x="433" y="-1172.5" font-family="Helvetica,sans-Serif" font-size="10.00" fill="#000000">+ unique()</text>
<text text-anchor="start" x="433" y="-1161.5" font-family="Helvetica,sans-Serif" font-size="10.00" fill="#000000">+ use_count()</text>
<text text-anchor="start" x="433" y="-1150.5" font-family="Helvetica,sans-Serif" font-size="10.00" fill="#000000">+ as()</text>
<text text-anchor="start" x="433" y="-1139.5" font-family="Helvetica,sans-Serif" font-size="10.00" fill="#000000"># get_mutable()</text>
<text text-anchor="start" x="433" y="-1128.5" font-family="Helvetica,sans-Serif" font-size="10.00" fill="#000000"># DowncastNoCheck()</text>
<text text-anchor="start" x="433" y="-1117.5" font-family="Helvetica,sans-Serif" font-size="10.00" fill="#000000"># FFIClearAfterMove()</text>
<text text-anchor="start" x="433" y="-1106.5" font-family="Helvetica,sans-Serif" font-size="10.00" fill="#000000"># GetDataPtr()</text>
</a>
</g>
</g>
<!-- Node9&#45;&gt;Node5 -->
<g id="edge8" class="edge">
<title>Node9&#45;&gt;Node5</title>
<path fill="none" stroke="#404040" d="M517.2249,-1099.1559C550.5395,-932.7358 598.0506,-610.3911 535,-346 527.2232,-313.3892 512.2563,-279.4208 497.8888,-251.539"/>
<polygon fill="none" stroke="#404040" points="497.811,-251.3912 491.4753,-247.9476 492.2172,-240.7747 498.553,-244.2184 497.811,-251.3912"/>
<text text-anchor="middle" x="608" y="-564" font-family="Helvetica,sans-Serif" font-size="10.00" fill="#000000"> +virtual_device_</text>
</g>
<!-- Node9&#45;&gt;Node8 -->
<g id="edge6" class="edge">
<title>Node9&#45;&gt;Node8</title>
<path fill="none" stroke="#191970" d="M414.7088,-1192.692C341.5072,-1172.2625 232.701,-1132.1712 163,-1062 121.9781,-1020.7014 98.8335,-956.4822 87.1249,-913.3665"/>
<polygon fill="none" stroke="#191970" points="414.225,-1196.1879 424.7938,-1195.4453 416.0686,-1189.4351 414.225,-1196.1879"/>
</g>
<!-- Node11 -->
<g id="node8" class="node">
<title>Node11</title>
<g id="a_node8"><a xlink:href="classtvm_1_1Type.html" target="_top" xlink:title="Managed reference to TypeNode. ">
<polygon fill="#ffffff" stroke="#000000" points="223,-532.5 223,-600.5 377,-600.5 377,-532.5 223,-532.5"/>
<text text-anchor="middle" x="300" y="-588.5" font-family="Helvetica,sans-Serif" font-size="10.00" fill="#000000">tvm::Type</text>
<polyline fill="none" stroke="#000000" points="223,-581.5 377,-581.5 "/>
<text text-anchor="middle" x="300" y="-569.5" font-family="Helvetica,sans-Serif" font-size="10.00" fill="#000000"> </text>
<polyline fill="none" stroke="#000000" points="223,-562.5 377,-562.5 "/>
<text text-anchor="start" x="231" y="-550.5" font-family="Helvetica,sans-Serif" font-size="10.00" fill="#000000">+ TVM_DEFINE_OBJECT_REF</text>
<text text-anchor="start" x="231" y="-539.5" font-family="Helvetica,sans-Serif" font-size="10.00" fill="#000000">_METHODS()</text>
</a>
</g>
</g>
<!-- Node9&#45;&gt;Node11 -->
<g id="edge10" class="edge">
<title>Node9&#45;&gt;Node11</title>
<path fill="none" stroke="#191970" d="M471.6487,-1089.161C470.336,-1079.981 469.1014,-1070.8499 468,-1062 457.3106,-976.11 487.4354,-742.0883 434,-674 418.6416,-654.43 401.7909,-669.6603 381,-656 358.7564,-641.3852 338.6478,-619.2443 324.0302,-600.6414"/>
<polygon fill="none" stroke="#191970" points="468.1959,-1089.7395 473.1011,-1099.1305 475.1228,-1088.7303 468.1959,-1089.7395"/>
</g>
<!-- Node12 -->
<g id="node9" class="node">
<title>Node12</title>
<g id="a_node9"><a xlink:href="classtvm_1_1runtime_1_1Optional.html" target="_top" xlink:title="{tvm::runtime::Optional\l\&lt; tvm::runtime::ObjectRef \&gt;\n|+ _type_is_nullable\l|+ Optional()\l+ Optional()\l+ Optional()\l+ Optional()\l+ Optional()\l+ Optional()\l+ Optional()\l+ Optional()\l+ operator=()\l+ operator=()\land 15 more...\l}">
<polygon fill="#ffffff" stroke="#000000" points="382,-477.5 382,-655.5 538,-655.5 538,-477.5 382,-477.5"/>
<text text-anchor="start" x="390" y="-643.5" font-family="Helvetica,sans-Serif" font-size="10.00" fill="#000000">tvm::runtime::Optional</text>
<text text-anchor="middle" x="460" y="-632.5" font-family="Helvetica,sans-Serif" font-size="10.00" fill="#000000">&lt; tvm::runtime::ObjectRef &gt;</text>
<polyline fill="none" stroke="#000000" points="382,-625.5 538,-625.5 "/>
<text text-anchor="start" x="390" y="-613.5" font-family="Helvetica,sans-Serif" font-size="10.00" fill="#000000">+ _type_is_nullable</text>
<polyline fill="none" stroke="#000000" points="382,-606.5 538,-606.5 "/>
<text text-anchor="start" x="390" y="-594.5" font-family="Helvetica,sans-Serif" font-size="10.00" fill="#000000">+ Optional()</text>
<text text-anchor="start" x="390" y="-583.5" font-family="Helvetica,sans-Serif" font-size="10.00" fill="#000000">+ Optional()</text>
<text text-anchor="start" x="390" y="-572.5" font-family="Helvetica,sans-Serif" font-size="10.00" fill="#000000">+ Optional()</text>
<text text-anchor="start" x="390" y="-561.5" font-family="Helvetica,sans-Serif" font-size="10.00" fill="#000000">+ Optional()</text>
<text text-anchor="start" x="390" y="-550.5" font-family="Helvetica,sans-Serif" font-size="10.00" fill="#000000">+ Optional()</text>
<text text-anchor="start" x="390" y="-539.5" font-family="Helvetica,sans-Serif" font-size="10.00" fill="#000000">+ Optional()</text>
<text text-anchor="start" x="390" y="-528.5" font-family="Helvetica,sans-Serif" font-size="10.00" fill="#000000">+ Optional()</text>
<text text-anchor="start" x="390" y="-517.5" font-family="Helvetica,sans-Serif" font-size="10.00" fill="#000000">+ Optional()</text>
<text text-anchor="start" x="390" y="-506.5" font-family="Helvetica,sans-Serif" font-size="10.00" fill="#000000">+ operator=()</text>
<text text-anchor="start" x="390" y="-495.5" font-family="Helvetica,sans-Serif" font-size="10.00" fill="#000000">+ operator=()</text>
<text text-anchor="start" x="390" y="-484.5" font-family="Helvetica,sans-Serif" font-size="10.00" fill="#000000">and 15 more...</text>
</a>
</g>
</g>
<!-- Node9&#45;&gt;Node12 -->
<g id="edge12" class="edge">
<title>Node9&#45;&gt;Node12</title>
<path fill="none" stroke="#191970" d="M487.6078,-1089.456C483.4174,-980.6842 476.4937,-816.5997 468,-674 467.6439,-668.0219 467.2519,-661.8586 466.8384,-655.6498"/>
<polygon fill="none" stroke="#191970" points="484.1114,-1089.6205 487.9922,-1099.479 491.1063,-1089.3522 484.1114,-1089.6205"/>
</g>
<!-- Node14 -->
<g id="node11" class="node">
<title>Node14</title>
<g id="a_node11"><a xlink:href="classtvm_1_1BaseExpr.html" target="_top" xlink:title="Managed reference to BaseExprNode. ">
<polygon fill="#ffffff" stroke="#000000" points="589,-834 589,-902 743,-902 743,-834 589,-834"/>
<text text-anchor="middle" x="666" y="-890" font-family="Helvetica,sans-Serif" font-size="10.00" fill="#000000">tvm::BaseExpr</text>
<polyline fill="none" stroke="#000000" points="589,-883 743,-883 "/>
<text text-anchor="middle" x="666" y="-871" font-family="Helvetica,sans-Serif" font-size="10.00" fill="#000000"> </text>
<polyline fill="none" stroke="#000000" points="589,-864 743,-864 "/>
<text text-anchor="start" x="597" y="-852" font-family="Helvetica,sans-Serif" font-size="10.00" fill="#000000">+ TVM_DEFINE_OBJECT_REF</text>
<text text-anchor="start" x="597" y="-841" font-family="Helvetica,sans-Serif" font-size="10.00" fill="#000000">_METHODS()</text>
</a>
</g>
</g>
<!-- Node9&#45;&gt;Node14 -->
<g id="edge15" class="edge">
<title>Node9&#45;&gt;Node14</title>
<path fill="none" stroke="#191970" d="M564.2627,-1100.4272C568.0002,-1093.9159 571.6072,-1087.4092 575,-1081 607.3596,-1019.871 637.3149,-944.7325 653.489,-902.0044"/>
<polygon fill="none" stroke="#191970" points="561.1029,-1098.898 559.093,-1109.3005 567.1513,-1102.4219 561.1029,-1098.898"/>
</g>
<!-- Node10 -->
<g id="node7" class="node">
<title>Node10</title>
<g id="a_node7"><a xlink:href="classtvm_1_1runtime_1_1ObjectPtr.html" target="_top" xlink:title="{tvm::runtime::ObjectPtr\l\&lt; tvm::runtime::Object \&gt;\n||+ ObjectPtr()\l+ ObjectPtr()\l+ ObjectPtr()\l+ ObjectPtr()\l+ ObjectPtr()\l+ ObjectPtr()\l+ ~ObjectPtr()\l+ swap()\l+ get()\l+ operator&#45;\&gt;()\land 11 more...\l}">
<polygon fill="#ffffff" stroke="#000000" points="422,-1369.5 422,-1547.5 562,-1547.5 562,-1369.5 422,-1369.5"/>
<text text-anchor="start" x="430" y="-1535.5" font-family="Helvetica,sans-Serif" font-size="10.00" fill="#000000">tvm::runtime::ObjectPtr</text>
<text text-anchor="middle" x="492" y="-1524.5" font-family="Helvetica,sans-Serif" font-size="10.00" fill="#000000">&lt; tvm::runtime::Object &gt;</text>
<polyline fill="none" stroke="#000000" points="422,-1517.5 562,-1517.5 "/>
<text text-anchor="middle" x="492" y="-1505.5" font-family="Helvetica,sans-Serif" font-size="10.00" fill="#000000"> </text>
<polyline fill="none" stroke="#000000" points="422,-1498.5 562,-1498.5 "/>
<text text-anchor="start" x="430" y="-1486.5" font-family="Helvetica,sans-Serif" font-size="10.00" fill="#000000">+ ObjectPtr()</text>
<text text-anchor="start" x="430" y="-1475.5" font-family="Helvetica,sans-Serif" font-size="10.00" fill="#000000">+ ObjectPtr()</text>
<text text-anchor="start" x="430" y="-1464.5" font-family="Helvetica,sans-Serif" font-size="10.00" fill="#000000">+ ObjectPtr()</text>
<text text-anchor="start" x="430" y="-1453.5" font-family="Helvetica,sans-Serif" font-size="10.00" fill="#000000">+ ObjectPtr()</text>
<text text-anchor="start" x="430" y="-1442.5" font-family="Helvetica,sans-Serif" font-size="10.00" fill="#000000">+ ObjectPtr()</text>
<text text-anchor="start" x="430" y="-1431.5" font-family="Helvetica,sans-Serif" font-size="10.00" fill="#000000">+ ObjectPtr()</text>
<text text-anchor="start" x="430" y="-1420.5" font-family="Helvetica,sans-Serif" font-size="10.00" fill="#000000">+ ~ObjectPtr()</text>
<text text-anchor="start" x="430" y="-1409.5" font-family="Helvetica,sans-Serif" font-size="10.00" fill="#000000">+ swap()</text>
<text text-anchor="start" x="430" y="-1398.5" font-family="Helvetica,sans-Serif" font-size="10.00" fill="#000000">+ get()</text>
<text text-anchor="start" x="430" y="-1387.5" font-family="Helvetica,sans-Serif" font-size="10.00" fill="#000000">+ operator&#45;&gt;()</text>
<text text-anchor="start" x="430" y="-1376.5" font-family="Helvetica,sans-Serif" font-size="10.00" fill="#000000">and 11 more...</text>
</a>
</g>
</g>
<!-- Node10&#45;&gt;Node9 -->
<g id="edge7" class="edge">
<title>Node10&#45;&gt;Node9</title>
<path fill="none" stroke="#404040" d="M492,-1369.3167C492,-1357.8765 492,-1346.0062 492,-1334.1402"/>
<polygon fill="none" stroke="#404040" points="492.0001,-1333.7944 488,-1327.7944 492,-1321.7944 496,-1327.7943 492.0001,-1333.7944"/>
<text text-anchor="middle" x="511.5" y="-1343" font-family="Helvetica,sans-Serif" font-size="10.00" fill="#000000"> #data_</text>
</g>
<!-- Node11&#45;&gt;Node5 -->
<g id="edge9" class="edge">
<title>Node11&#45;&gt;Node5</title>
<path fill="none" stroke="#404040" d="M308.7477,-532.4414C320.5888,-488.41 343.5454,-409.8125 372,-346 386.4529,-313.5879 405.7812,-279.2517 422.8208,-251.0687"/>
<polygon fill="none" stroke="#404040" points="422.969,-250.826 422.6832,-243.6205 429.2244,-240.5854 429.5103,-247.7908 422.969,-250.826"/>
<text text-anchor="middle" x="414.5" y="-400" font-family="Helvetica,sans-Serif" font-size="10.00" fill="#000000"> +checked_type_</text>
</g>
<!-- Node12&#45;&gt;Node5 -->
<g id="edge11" class="edge">
<title>Node12&#45;&gt;Node5</title>
<path fill="none" stroke="#404040" d="M460.474,-477.2748C460.8409,-408.2076 461.3398,-314.2794 461.6658,-252.9143"/>
<polygon fill="none" stroke="#404040" points="461.6668,-252.7136 457.6987,-246.6925 461.7306,-240.7138 465.6986,-246.735 461.6668,-252.7136"/>
<text text-anchor="middle" x="496.5" y="-400" font-family="Helvetica,sans-Serif" font-size="10.00" fill="#000000"> +struct_info_</text>
</g>
<!-- Node13 -->
<g id="node10" class="node">
<title>Node13</title>
<g id="a_node10"><a xlink:href="classtvm_1_1RelayExpr.html" target="_top" xlink:title="Managed reference to RelayExprNode. ">
<polygon fill="#ffffff" stroke="#000000" points="580,-259.5 580,-327.5 734,-327.5 734,-259.5 580,-259.5"/>
<text text-anchor="middle" x="657" y="-315.5" font-family="Helvetica,sans-Serif" font-size="10.00" fill="#000000">tvm::RelayExpr</text>
<polyline fill="none" stroke="#000000" points="580,-308.5 734,-308.5 "/>
<text text-anchor="middle" x="657" y="-296.5" font-family="Helvetica,sans-Serif" font-size="10.00" fill="#000000"> </text>
<polyline fill="none" stroke="#000000" points="580,-289.5 734,-289.5 "/>
<text text-anchor="start" x="588" y="-277.5" font-family="Helvetica,sans-Serif" font-size="10.00" fill="#000000">+ TVM_DEFINE_OBJECT_REF</text>
<text text-anchor="start" x="588" y="-266.5" font-family="Helvetica,sans-Serif" font-size="10.00" fill="#000000">_METHODS()</text>
</a>
</g>
</g>
<!-- Node13&#45;&gt;Node4 -->
<g id="edge13" class="edge">
<title>Node13&#45;&gt;Node4</title>
<path fill="none" stroke="#404040" d="M642.7434,-259.27C626.9195,-221.2771 601.0613,-159.1916 581.6869,-112.6741"/>
<polygon fill="none" stroke="#404040" points="581.6499,-112.585 575.6504,-108.5841 577.0361,-101.5074 583.0355,-105.5082 581.6499,-112.585"/>
<text text-anchor="middle" x="652.5" y="-187.5" font-family="Helvetica,sans-Serif" font-size="10.00" fill="#000000"> +tuple</text>
</g>
<!-- Node14&#45;&gt;Node13 -->
<g id="edge14" class="edge">
<title>Node14&#45;&gt;Node13</title>
<path fill="none" stroke="#191970" d="M665.3049,-823.6299C663.5705,-712.9157 659.0804,-426.298 657.5332,-327.5378"/>
<polygon fill="none" stroke="#191970" points="661.8077,-823.839 665.464,-833.7829 668.8068,-823.7293 661.8077,-823.839"/>
</g>
</g>
</svg>
