<?xml version="1.0" encoding="UTF-8" standalone="no"?>
<!DOCTYPE svg PUBLIC "-//W3C//DTD SVG 1.1//EN"
 "http://www.w3.org/Graphics/SVG/1.1/DTD/svg11.dtd">
<!-- Generated by graphviz version 2.40.1 (20161225.0304)
 -->
<!-- Title: tvm::relax::VarBindingNode Pages: 1 -->
<svg width="602pt" height="1679pt"
 viewBox="0.00 0.00 601.50 1679.00" xmlns="http://www.w3.org/2000/svg" xmlns:xlink="http://www.w3.org/1999/xlink">
<g id="graph0" class="graph" transform="scale(1 1) rotate(0) translate(4 1675)">
<title>tvm::relax::VarBindingNode</title>
<polygon fill="#ffffff" stroke="transparent" points="-4,4 -4,-1675 597.5,-1675 597.5,4 -4,4"/>
<!-- Node3 -->
<g id="node1" class="node">
<title>Node3</title>
<polygon fill="#bfbfbf" stroke="#000000" points="320,-.5 320,-134.5 529,-134.5 529,-.5 320,-.5"/>
<text text-anchor="middle" x="424.5" y="-122.5" font-family="Helvetica,sans-Serif" font-size="10.00" fill="#000000">tvm::relax::VarBindingNode</text>
<polyline fill="none" stroke="#000000" points="320,-115.5 529,-115.5 "/>
<text text-anchor="start" x="328" y="-103.5" font-family="Helvetica,sans-Serif" font-size="10.00" fill="#000000">+ _type_key</text>
<text text-anchor="start" x="328" y="-92.5" font-family="Helvetica,sans-Serif" font-size="10.00" fill="#000000">+ _type_has_method_sequal</text>
<text text-anchor="start" x="328" y="-81.5" font-family="Helvetica,sans-Serif" font-size="10.00" fill="#000000">_reduce</text>
<text text-anchor="start" x="328" y="-70.5" font-family="Helvetica,sans-Serif" font-size="10.00" fill="#000000">+ _type_has_method_shash</text>
<text text-anchor="start" x="328" y="-59.5" font-family="Helvetica,sans-Serif" font-size="10.00" fill="#000000">_reduce</text>
<polyline fill="none" stroke="#000000" points="320,-52.5 529,-52.5 "/>
<text text-anchor="start" x="328" y="-40.5" font-family="Helvetica,sans-Serif" font-size="10.00" fill="#000000">+ VisitAttrs()</text>
<text text-anchor="start" x="328" y="-29.5" font-family="Helvetica,sans-Serif" font-size="10.00" fill="#000000">+ SEqualReduce()</text>
<text text-anchor="start" x="328" y="-18.5" font-family="Helvetica,sans-Serif" font-size="10.00" fill="#000000">+ SHashReduce()</text>
<text text-anchor="start" x="328" y="-7.5" font-family="Helvetica,sans-Serif" font-size="10.00" fill="#000000">+ TVM_DECLARE_FINAL_OBJECT_INFO()</text>
</g>
<!-- Node4 -->
<g id="node2" class="node">
<title>Node4</title>
<g id="a_node2"><a xlink:href="classtvm_1_1relax_1_1BindingNode.html" target="_top" xlink:title="The base class of a variable binding in Relax. ">
<polygon fill="#ffffff" stroke="#000000" points="230,-172.5 230,-273.5 437,-273.5 437,-172.5 230,-172.5"/>
<text text-anchor="middle" x="333.5" y="-261.5" font-family="Helvetica,sans-Serif" font-size="10.00" fill="#000000">tvm::relax::BindingNode</text>
<polyline fill="none" stroke="#000000" points="230,-254.5 437,-254.5 "/>
<text text-anchor="start" x="238" y="-242.5" font-family="Helvetica,sans-Serif" font-size="10.00" fill="#000000">+ _type_key</text>
<text text-anchor="start" x="238" y="-231.5" font-family="Helvetica,sans-Serif" font-size="10.00" fill="#000000">+ _type_has_method_sequal</text>
<text text-anchor="start" x="238" y="-220.5" font-family="Helvetica,sans-Serif" font-size="10.00" fill="#000000">_reduce</text>
<text text-anchor="start" x="238" y="-209.5" font-family="Helvetica,sans-Serif" font-size="10.00" fill="#000000">+ _type_has_method_shash</text>
<text text-anchor="start" x="238" y="-198.5" font-family="Helvetica,sans-Serif" font-size="10.00" fill="#000000">_reduce</text>
<polyline fill="none" stroke="#000000" points="230,-191.5 437,-191.5 "/>
<text text-anchor="start" x="238" y="-179.5" font-family="Helvetica,sans-Serif" font-size="10.00" fill="#000000">+ TVM_DECLARE_BASE_OBJECT_INFO()</text>
</a>
</g>
</g>
<!-- Node4&#45;&gt;Node3 -->
<g id="edge1" class="edge">
<title>Node4&#45;&gt;Node3</title>
<path fill="none" stroke="#191970" d="M368.4693,-163.2447C373.9447,-153.8884 379.6354,-144.1642 385.2,-134.6554"/>
<polygon fill="none" stroke="#191970" points="365.3269,-161.6849 363.2968,-172.0835 371.3684,-165.2205 365.3269,-161.6849"/>
</g>
<!-- Node5 -->
<g id="node3" class="node">
<title>Node5</title>
<g id="a_node3"><a xlink:href="classtvm_1_1runtime_1_1Object.html" target="_top" xlink:title="base class of all object containers. ">
<polygon fill="#ffffff" stroke="#000000" points="0,-321.5 0,-708.5 183,-708.5 183,-321.5 0,-321.5"/>
<text text-anchor="middle" x="91.5" y="-696.5" font-family="Helvetica,sans-Serif" font-size="10.00" fill="#000000">tvm::runtime::Object</text>
<polyline fill="none" stroke="#000000" points="0,-689.5 183,-689.5 "/>
<text text-anchor="start" x="8" y="-677.5" font-family="Helvetica,sans-Serif" font-size="10.00" fill="#000000">+ _type_key</text>
<text text-anchor="start" x="8" y="-666.5" font-family="Helvetica,sans-Serif" font-size="10.00" fill="#000000">+ _type_final</text>
<text text-anchor="start" x="8" y="-655.5" font-family="Helvetica,sans-Serif" font-size="10.00" fill="#000000">+ _type_child_slots</text>
<text text-anchor="start" x="8" y="-644.5" font-family="Helvetica,sans-Serif" font-size="10.00" fill="#000000">+ _type_child_slots_can</text>
<text text-anchor="start" x="8" y="-633.5" font-family="Helvetica,sans-Serif" font-size="10.00" fill="#000000">_overflow</text>
<text text-anchor="start" x="8" y="-622.5" font-family="Helvetica,sans-Serif" font-size="10.00" fill="#000000">+ _type_has_method_visit</text>
<text text-anchor="start" x="8" y="-611.5" font-family="Helvetica,sans-Serif" font-size="10.00" fill="#000000">_attrs</text>
<text text-anchor="start" x="8" y="-600.5" font-family="Helvetica,sans-Serif" font-size="10.00" fill="#000000">+ _type_has_method_sequal</text>
<text text-anchor="start" x="8" y="-589.5" font-family="Helvetica,sans-Serif" font-size="10.00" fill="#000000">_reduce</text>
<text text-anchor="start" x="8" y="-578.5" font-family="Helvetica,sans-Serif" font-size="10.00" fill="#000000">+ _type_has_method_shash</text>
<text text-anchor="start" x="8" y="-567.5" font-family="Helvetica,sans-Serif" font-size="10.00" fill="#000000">_reduce</text>
<text text-anchor="start" x="8" y="-556.5" font-family="Helvetica,sans-Serif" font-size="10.00" fill="#000000">+ _type_index</text>
<text text-anchor="start" x="8" y="-545.5" font-family="Helvetica,sans-Serif" font-size="10.00" fill="#000000"># type_index_</text>
<text text-anchor="start" x="8" y="-534.5" font-family="Helvetica,sans-Serif" font-size="10.00" fill="#000000"># ref_counter_</text>
<polyline fill="none" stroke="#000000" points="0,-527.5 183,-527.5 "/>
<text text-anchor="start" x="8" y="-515.5" font-family="Helvetica,sans-Serif" font-size="10.00" fill="#000000">+ type_index()</text>
<text text-anchor="start" x="8" y="-504.5" font-family="Helvetica,sans-Serif" font-size="10.00" fill="#000000">+ GetTypeKey()</text>
<text text-anchor="start" x="8" y="-493.5" font-family="Helvetica,sans-Serif" font-size="10.00" fill="#000000">+ GetTypeKeyHash()</text>
<text text-anchor="start" x="8" y="-482.5" font-family="Helvetica,sans-Serif" font-size="10.00" fill="#000000">+ IsInstance()</text>
<text text-anchor="start" x="8" y="-471.5" font-family="Helvetica,sans-Serif" font-size="10.00" fill="#000000">+ unique()</text>
<text text-anchor="start" x="8" y="-460.5" font-family="Helvetica,sans-Serif" font-size="10.00" fill="#000000">+ Object()</text>
<text text-anchor="start" x="8" y="-449.5" font-family="Helvetica,sans-Serif" font-size="10.00" fill="#000000">+ Object()</text>
<text text-anchor="start" x="8" y="-438.5" font-family="Helvetica,sans-Serif" font-size="10.00" fill="#000000">+ Object()</text>
<text text-anchor="start" x="8" y="-427.5" font-family="Helvetica,sans-Serif" font-size="10.00" fill="#000000">+ operator=()</text>
<text text-anchor="start" x="8" y="-416.5" font-family="Helvetica,sans-Serif" font-size="10.00" fill="#000000">+ operator=()</text>
<text text-anchor="start" x="8" y="-405.5" font-family="Helvetica,sans-Serif" font-size="10.00" fill="#000000">+ TypeIndex2Key()</text>
<text text-anchor="start" x="8" y="-394.5" font-family="Helvetica,sans-Serif" font-size="10.00" fill="#000000">+ TypeIndex2KeyHash()</text>
<text text-anchor="start" x="8" y="-383.5" font-family="Helvetica,sans-Serif" font-size="10.00" fill="#000000">+ TypeKey2Index()</text>
<text text-anchor="start" x="8" y="-372.5" font-family="Helvetica,sans-Serif" font-size="10.00" fill="#000000">+ _GetOrAllocRuntimeTypeIndex()</text>
<text text-anchor="start" x="8" y="-361.5" font-family="Helvetica,sans-Serif" font-size="10.00" fill="#000000">+ RuntimeTypeIndex()</text>
<text text-anchor="start" x="8" y="-350.5" font-family="Helvetica,sans-Serif" font-size="10.00" fill="#000000"># IncRef()</text>
<text text-anchor="start" x="8" y="-339.5" font-family="Helvetica,sans-Serif" font-size="10.00" fill="#000000"># DecRef()</text>
<text text-anchor="start" x="8" y="-328.5" font-family="Helvetica,sans-Serif" font-size="10.00" fill="#000000"># GetOrAllocRuntimeTypeIndex()</text>
</a>
</g>
</g>
<!-- Node5&#45;&gt;Node4 -->
<g id="edge2" class="edge">
<title>Node5&#45;&gt;Node4</title>
<path fill="none" stroke="#191970" d="M189.3555,-386.72C214.2699,-355.2667 241.3971,-322.0233 267.5,-292 272.7207,-285.9952 278.3039,-279.8165 283.9302,-273.7401"/>
<polygon fill="none" stroke="#191970" points="186.5237,-384.6585 183.071,-394.675 192.0164,-388.9979 186.5237,-384.6585"/>
</g>
<!-- Node5&#45;&gt;Node5 -->
<g id="edge3" class="edge">
<title>Node5&#45;&gt;Node5</title>
<path fill="none" stroke="#404040" d="M183.3625,-548.9248C194.0482,-542.6637 201,-531.3555 201,-515 201,-504.0112 197.8618,-495.3007 192.5615,-488.8687"/>
<polygon fill="none" stroke="#404040" points="192.5184,-488.8322 185.3548,-488.0056 183.3625,-481.0752 190.5261,-481.9017 192.5184,-488.8322"/>
<text text-anchor="middle" x="227" y="-512.5" font-family="Helvetica,sans-Serif" font-size="10.00" fill="#000000"> #deleter_</text>
</g>
<!-- Node6 -->
<g id="node4" class="node">
<title>Node6</title>
<g id="a_node4"><a xlink:href="classtvm_1_1Span.html" target="_top" xlink:title="{tvm::Span\n||+ Span()\l+ Merge()\l+ TVM_DEFINE_OBJECT_REF\l_METHODS()\l}">
<polygon fill="#ffffff" stroke="#000000" points="216.5,-1007.5 216.5,-1097.5 370.5,-1097.5 370.5,-1007.5 216.5,-1007.5"/>
<text text-anchor="middle" x="293.5" y="-1085.5" font-family="Helvetica,sans-Serif" font-size="10.00" fill="#000000">tvm::Span</text>
<polyline fill="none" stroke="#000000" points="216.5,-1078.5 370.5,-1078.5 "/>
<text text-anchor="middle" x="293.5" y="-1066.5" font-family="Helvetica,sans-Serif" font-size="10.00" fill="#000000"> </text>
<polyline fill="none" stroke="#000000" points="216.5,-1059.5 370.5,-1059.5 "/>
<text text-anchor="start" x="224.5" y="-1047.5" font-family="Helvetica,sans-Serif" font-size="10.00" fill="#000000">+ Span()</text>
<text text-anchor="start" x="224.5" y="-1036.5" font-family="Helvetica,sans-Serif" font-size="10.00" fill="#000000">+ Merge()</text>
<text text-anchor="start" x="224.5" y="-1025.5" font-family="Helvetica,sans-Serif" font-size="10.00" fill="#000000">+ TVM_DEFINE_OBJECT_REF</text>
<text text-anchor="start" x="224.5" y="-1014.5" font-family="Helvetica,sans-Serif" font-size="10.00" fill="#000000">_METHODS()</text>
</a>
</g>
</g>
<!-- Node6&#45;&gt;Node4 -->
<g id="edge4" class="edge">
<title>Node6&#45;&gt;Node4</title>
<path fill="none" stroke="#404040" d="M288.9291,-1007.3157C285.5379,-969.8916 281.5,-915.2955 281.5,-867.5 281.5,-867.5 281.5,-867.5 281.5,-515 281.5,-434.7916 300.7523,-344.083 315.828,-285.3484"/>
<polygon fill="none" stroke="#404040" points="315.8435,-285.2887 313.49,-278.4724 318.8767,-273.6783 321.2302,-280.4946 315.8435,-285.2887"/>
<text text-anchor="middle" x="299" y="-778" font-family="Helvetica,sans-Serif" font-size="10.00" fill="#000000"> +span</text>
</g>
<!-- Node7 -->
<g id="node5" class="node">
<title>Node7</title>
<g id="a_node5"><a xlink:href="classtvm_1_1runtime_1_1ObjectRef.html" target="_top" xlink:title="Base class of all object reference. ">
<polygon fill="#ffffff" stroke="#000000" points="245.5,-1222.5 245.5,-1444.5 379.5,-1444.5 379.5,-1222.5 245.5,-1222.5"/>
<text text-anchor="middle" x="312.5" y="-1432.5" font-family="Helvetica,sans-Serif" font-size="10.00" fill="#000000">tvm::runtime::ObjectRef</text>
<polyline fill="none" stroke="#000000" points="245.5,-1425.5 379.5,-1425.5 "/>
<text text-anchor="start" x="253.5" y="-1413.5" font-family="Helvetica,sans-Serif" font-size="10.00" fill="#000000">+ _type_is_nullable</text>
<polyline fill="none" stroke="#000000" points="245.5,-1406.5 379.5,-1406.5 "/>
<text text-anchor="start" x="253.5" y="-1394.5" font-family="Helvetica,sans-Serif" font-size="10.00" fill="#000000">+ ObjectRef()</text>
<text text-anchor="start" x="253.5" y="-1383.5" font-family="Helvetica,sans-Serif" font-size="10.00" fill="#000000">+ ObjectRef()</text>
<text text-anchor="start" x="253.5" y="-1372.5" font-family="Helvetica,sans-Serif" font-size="10.00" fill="#000000">+ same_as()</text>
<text text-anchor="start" x="253.5" y="-1361.5" font-family="Helvetica,sans-Serif" font-size="10.00" fill="#000000">+ operator==()</text>
<text text-anchor="start" x="253.5" y="-1350.5" font-family="Helvetica,sans-Serif" font-size="10.00" fill="#000000">+ operator!=()</text>
<text text-anchor="start" x="253.5" y="-1339.5" font-family="Helvetica,sans-Serif" font-size="10.00" fill="#000000">+ operator&lt;()</text>
<text text-anchor="start" x="253.5" y="-1328.5" font-family="Helvetica,sans-Serif" font-size="10.00" fill="#000000">+ defined()</text>
<text text-anchor="start" x="253.5" y="-1317.5" font-family="Helvetica,sans-Serif" font-size="10.00" fill="#000000">+ get()</text>
<text text-anchor="start" x="253.5" y="-1306.5" font-family="Helvetica,sans-Serif" font-size="10.00" fill="#000000">+ operator&#45;&gt;()</text>
<text text-anchor="start" x="253.5" y="-1295.5" font-family="Helvetica,sans-Serif" font-size="10.00" fill="#000000">+ unique()</text>
<text text-anchor="start" x="253.5" y="-1284.5" font-family="Helvetica,sans-Serif" font-size="10.00" fill="#000000">+ use_count()</text>
<text text-anchor="start" x="253.5" y="-1273.5" font-family="Helvetica,sans-Serif" font-size="10.00" fill="#000000">+ as()</text>
<text text-anchor="start" x="253.5" y="-1262.5" font-family="Helvetica,sans-Serif" font-size="10.00" fill="#000000"># get_mutable()</text>
<text text-anchor="start" x="253.5" y="-1251.5" font-family="Helvetica,sans-Serif" font-size="10.00" fill="#000000"># DowncastNoCheck()</text>
<text text-anchor="start" x="253.5" y="-1240.5" font-family="Helvetica,sans-Serif" font-size="10.00" fill="#000000"># FFIClearAfterMove()</text>
<text text-anchor="start" x="253.5" y="-1229.5" font-family="Helvetica,sans-Serif" font-size="10.00" fill="#000000"># GetDataPtr()</text>
</a>
</g>
</g>
<!-- Node7&#45;&gt;Node6 -->
<g id="edge5" class="edge">
<title>Node7&#45;&gt;Node6</title>
<path fill="none" stroke="#191970" d="M304.3134,-1212.4245C301.5608,-1171.7144 298.6581,-1128.7859 296.554,-1097.667"/>
<polygon fill="none" stroke="#191970" points="300.824,-1212.7003 304.9907,-1222.4414 307.808,-1212.228 300.824,-1212.7003"/>
</g>
<!-- Node12 -->
<g id="node10" class="node">
<title>Node12</title>
<g id="a_node10"><a xlink:href="classtvm_1_1BaseExpr.html" target="_top" xlink:title="Managed reference to BaseExprNode. ">
<polygon fill="#ffffff" stroke="#000000" points="334.5,-1116.5 334.5,-1184.5 488.5,-1184.5 488.5,-1116.5 334.5,-1116.5"/>
<text text-anchor="middle" x="411.5" y="-1172.5" font-family="Helvetica,sans-Serif" font-size="10.00" fill="#000000">tvm::BaseExpr</text>
<polyline fill="none" stroke="#000000" points="334.5,-1165.5 488.5,-1165.5 "/>
<text text-anchor="middle" x="411.5" y="-1153.5" font-family="Helvetica,sans-Serif" font-size="10.00" fill="#000000"> </text>
<polyline fill="none" stroke="#000000" points="334.5,-1146.5 488.5,-1146.5 "/>
<text text-anchor="start" x="342.5" y="-1134.5" font-family="Helvetica,sans-Serif" font-size="10.00" fill="#000000">+ TVM_DEFINE_OBJECT_REF</text>
<text text-anchor="start" x="342.5" y="-1123.5" font-family="Helvetica,sans-Serif" font-size="10.00" fill="#000000">_METHODS()</text>
</a>
</g>
</g>
<!-- Node7&#45;&gt;Node12 -->
<g id="edge11" class="edge">
<title>Node7&#45;&gt;Node12</title>
<path fill="none" stroke="#191970" d="M377.4379,-1213.4633C383.0559,-1203.0785 388.3791,-1193.2386 393.0756,-1184.5572"/>
<polygon fill="none" stroke="#191970" points="374.3366,-1211.8404 372.6567,-1222.3012 380.4934,-1215.1711 374.3366,-1211.8404"/>
</g>
<!-- Node8 -->
<g id="node6" class="node">
<title>Node8</title>
<g id="a_node6"><a xlink:href="classtvm_1_1runtime_1_1ObjectPtr.html" target="_top" xlink:title="{tvm::runtime::ObjectPtr\l\&lt; tvm::runtime::Object \&gt;\n||+ ObjectPtr()\l+ ObjectPtr()\l+ ObjectPtr()\l+ ObjectPtr()\l+ ObjectPtr()\l+ ObjectPtr()\l+ ~ObjectPtr()\l+ swap()\l+ get()\l+ operator&#45;\&gt;()\land 11 more...\l}">
<polygon fill="#ffffff" stroke="#000000" points="242.5,-1492.5 242.5,-1670.5 382.5,-1670.5 382.5,-1492.5 242.5,-1492.5"/>
<text text-anchor="start" x="250.5" y="-1658.5" font-family="Helvetica,sans-Serif" font-size="10.00" fill="#000000">tvm::runtime::ObjectPtr</text>
<text text-anchor="middle" x="312.5" y="-1647.5" font-family="Helvetica,sans-Serif" font-size="10.00" fill="#000000">&lt; tvm::runtime::Object &gt;</text>
<polyline fill="none" stroke="#000000" points="242.5,-1640.5 382.5,-1640.5 "/>
<text text-anchor="middle" x="312.5" y="-1628.5" font-family="Helvetica,sans-Serif" font-size="10.00" fill="#000000"> </text>
<polyline fill="none" stroke="#000000" points="242.5,-1621.5 382.5,-1621.5 "/>
<text text-anchor="start" x="250.5" y="-1609.5" font-family="Helvetica,sans-Serif" font-size="10.00" fill="#000000">+ ObjectPtr()</text>
<text text-anchor="start" x="250.5" y="-1598.5" font-family="Helvetica,sans-Serif" font-size="10.00" fill="#000000">+ ObjectPtr()</text>
<text text-anchor="start" x="250.5" y="-1587.5" font-family="Helvetica,sans-Serif" font-size="10.00" fill="#000000">+ ObjectPtr()</text>
<text text-anchor="start" x="250.5" y="-1576.5" font-family="Helvetica,sans-Serif" font-size="10.00" fill="#000000">+ ObjectPtr()</text>
<text text-anchor="start" x="250.5" y="-1565.5" font-family="Helvetica,sans-Serif" font-size="10.00" fill="#000000">+ ObjectPtr()</text>
<text text-anchor="start" x="250.5" y="-1554.5" font-family="Helvetica,sans-Serif" font-size="10.00" fill="#000000">+ ObjectPtr()</text>
<text text-anchor="start" x="250.5" y="-1543.5" font-family="Helvetica,sans-Serif" font-size="10.00" fill="#000000">+ ~ObjectPtr()</text>
<text text-anchor="start" x="250.5" y="-1532.5" font-family="Helvetica,sans-Serif" font-size="10.00" fill="#000000">+ swap()</text>
<text text-anchor="start" x="250.5" y="-1521.5" font-family="Helvetica,sans-Serif" font-size="10.00" fill="#000000">+ get()</text>
<text text-anchor="start" x="250.5" y="-1510.5" font-family="Helvetica,sans-Serif" font-size="10.00" fill="#000000">+ operator&#45;&gt;()</text>
<text text-anchor="start" x="250.5" y="-1499.5" font-family="Helvetica,sans-Serif" font-size="10.00" fill="#000000">and 11 more...</text>
</a>
</g>
</g>
<!-- Node8&#45;&gt;Node7 -->
<g id="edge6" class="edge">
<title>Node8&#45;&gt;Node7</title>
<path fill="none" stroke="#404040" d="M312.5,-1492.3167C312.5,-1480.8765 312.5,-1469.0062 312.5,-1457.1402"/>
<polygon fill="none" stroke="#404040" points="312.5001,-1456.7944 308.5,-1450.7944 312.5,-1444.7944 316.5,-1450.7943 312.5001,-1456.7944"/>
<text text-anchor="middle" x="332" y="-1466" font-family="Helvetica,sans-Serif" font-size="10.00" fill="#000000"> #data_</text>
</g>
<!-- Node9 -->
<g id="node7" class="node">
<title>Node9</title>
<g id="a_node7"><a xlink:href="classtvm_1_1relax_1_1Var.html" target="_top" xlink:title="{tvm::relax::Var\n||+ Var()\l+ Var()\l+ TVM_DEFINE_OBJECT_REF\l_METHODS()\l+ TVM_DEFINE_OBJECT_REF\l_COW_METHOD()\l}">
<polygon fill="#ffffff" stroke="#000000" points="318.5,-459 318.5,-571 472.5,-571 472.5,-459 318.5,-459"/>
<text text-anchor="middle" x="395.5" y="-559" font-family="Helvetica,sans-Serif" font-size="10.00" fill="#000000">tvm::relax::Var</text>
<polyline fill="none" stroke="#000000" points="318.5,-552 472.5,-552 "/>
<text text-anchor="middle" x="395.5" y="-540" font-family="Helvetica,sans-Serif" font-size="10.00" fill="#000000"> </text>
<polyline fill="none" stroke="#000000" points="318.5,-533 472.5,-533 "/>
<text text-anchor="start" x="326.5" y="-521" font-family="Helvetica,sans-Serif" font-size="10.00" fill="#000000">+ Var()</text>
<text text-anchor="start" x="326.5" y="-510" font-family="Helvetica,sans-Serif" font-size="10.00" fill="#000000">+ Var()</text>
<text text-anchor="start" x="326.5" y="-499" font-family="Helvetica,sans-Serif" font-size="10.00" fill="#000000">+ TVM_DEFINE_OBJECT_REF</text>
<text text-anchor="start" x="326.5" y="-488" font-family="Helvetica,sans-Serif" font-size="10.00" fill="#000000">_METHODS()</text>
<text text-anchor="start" x="326.5" y="-477" font-family="Helvetica,sans-Serif" font-size="10.00" fill="#000000">+ TVM_DEFINE_OBJECT_REF</text>
<text text-anchor="start" x="326.5" y="-466" font-family="Helvetica,sans-Serif" font-size="10.00" fill="#000000">_COW_METHOD()</text>
</a>
</g>
</g>
<!-- Node9&#45;&gt;Node4 -->
<g id="edge7" class="edge">
<title>Node9&#45;&gt;Node4</title>
<path fill="none" stroke="#404040" d="M383.5458,-458.6995C373.0235,-409.1428 357.7214,-337.0749 346.8118,-285.6945"/>
<polygon fill="none" stroke="#404040" points="346.7699,-285.4966 341.6109,-280.4582 344.2774,-273.7583 349.4364,-278.7966 346.7699,-285.4966"/>
<text text-anchor="middle" x="363.5" y="-295" font-family="Helvetica,sans-Serif" font-size="10.00" fill="#000000"> +var</text>
</g>
<!-- Node10 -->
<g id="node8" class="node">
<title>Node10</title>
<g id="a_node8"><a xlink:href="classtvm_1_1relax_1_1LeafExpr.html" target="_top" xlink:title="Managed reference to BaseExprNode. ">
<polygon fill="#ffffff" stroke="#000000" points="334.5,-746.5 334.5,-814.5 488.5,-814.5 488.5,-746.5 334.5,-746.5"/>
<text text-anchor="middle" x="411.5" y="-802.5" font-family="Helvetica,sans-Serif" font-size="10.00" fill="#000000">tvm::relax::LeafExpr</text>
<polyline fill="none" stroke="#000000" points="334.5,-795.5 488.5,-795.5 "/>
<text text-anchor="middle" x="411.5" y="-783.5" font-family="Helvetica,sans-Serif" font-size="10.00" fill="#000000"> </text>
<polyline fill="none" stroke="#000000" points="334.5,-776.5 488.5,-776.5 "/>
<text text-anchor="start" x="342.5" y="-764.5" font-family="Helvetica,sans-Serif" font-size="10.00" fill="#000000">+ TVM_DEFINE_OBJECT_REF</text>
<text text-anchor="start" x="342.5" y="-753.5" font-family="Helvetica,sans-Serif" font-size="10.00" fill="#000000">_METHODS()</text>
</a>
</g>
</g>
<!-- Node10&#45;&gt;Node9 -->
<g id="edge8" class="edge">
<title>Node10&#45;&gt;Node9</title>
<path fill="none" stroke="#191970" d="M408.8315,-736.2198C406.0989,-690.8747 401.8428,-620.2506 398.8771,-571.0389"/>
<polygon fill="none" stroke="#191970" points="405.3457,-736.5627 409.441,-746.3341 412.3331,-736.1416 405.3457,-736.5627"/>
</g>
<!-- Node11 -->
<g id="node9" class="node">
<title>Node11</title>
<g id="a_node9"><a xlink:href="classtvm_1_1RelayExpr.html" target="_top" xlink:title="Managed reference to RelayExprNode. ">
<polygon fill="#ffffff" stroke="#000000" points="334.5,-920.5 334.5,-988.5 488.5,-988.5 488.5,-920.5 334.5,-920.5"/>
<text text-anchor="middle" x="411.5" y="-976.5" font-family="Helvetica,sans-Serif" font-size="10.00" fill="#000000">Expr</text>
<polyline fill="none" stroke="#000000" points="334.5,-969.5 488.5,-969.5 "/>
<text text-anchor="middle" x="411.5" y="-957.5" font-family="Helvetica,sans-Serif" font-size="10.00" fill="#000000"> </text>
<polyline fill="none" stroke="#000000" points="334.5,-950.5 488.5,-950.5 "/>
<text text-anchor="start" x="342.5" y="-938.5" font-family="Helvetica,sans-Serif" font-size="10.00" fill="#000000">+ TVM_DEFINE_OBJECT_REF</text>
<text text-anchor="start" x="342.5" y="-927.5" font-family="Helvetica,sans-Serif" font-size="10.00" fill="#000000">_METHODS()</text>
</a>
</g>
</g>
<!-- Node11&#45;&gt;Node10 -->
<g id="edge9" class="edge">
<title>Node11&#45;&gt;Node10</title>
<path fill="none" stroke="#191970" d="M411.5,-910.0084C411.5,-880.2848 411.5,-841.7845 411.5,-814.5089"/>
<polygon fill="none" stroke="#191970" points="408.0001,-910.1232 411.5,-920.1232 415.0001,-910.1232 408.0001,-910.1232"/>
</g>
<!-- Node12&#45;&gt;Node11 -->
<g id="edge10" class="edge">
<title>Node12&#45;&gt;Node11</title>
<path fill="none" stroke="#191970" d="M411.5,-1106.2326C411.5,-1070.5818 411.5,-1021.1986 411.5,-988.5776"/>
<polygon fill="none" stroke="#191970" points="408.0001,-1106.3594 411.5,-1116.3594 415.0001,-1106.3594 408.0001,-1106.3594"/>
</g>
<!-- Node13 -->
<g id="node11" class="node">
<title>Node13</title>
<g id="a_node11"><a xlink:href="classtvm_1_1RelayExpr.html" target="_top" xlink:title="Managed reference to RelayExprNode. ">
<polygon fill="#ffffff" stroke="#000000" points="439.5,-833.5 439.5,-901.5 593.5,-901.5 593.5,-833.5 439.5,-833.5"/>
<text text-anchor="middle" x="516.5" y="-889.5" font-family="Helvetica,sans-Serif" font-size="10.00" fill="#000000">tvm::RelayExpr</text>
<polyline fill="none" stroke="#000000" points="439.5,-882.5 593.5,-882.5 "/>
<text text-anchor="middle" x="516.5" y="-870.5" font-family="Helvetica,sans-Serif" font-size="10.00" fill="#000000"> </text>
<polyline fill="none" stroke="#000000" points="439.5,-863.5 593.5,-863.5 "/>
<text text-anchor="start" x="447.5" y="-851.5" font-family="Helvetica,sans-Serif" font-size="10.00" fill="#000000">+ TVM_DEFINE_OBJECT_REF</text>
<text text-anchor="start" x="447.5" y="-840.5" font-family="Helvetica,sans-Serif" font-size="10.00" fill="#000000">_METHODS()</text>
</a>
</g>
</g>
<!-- Node12&#45;&gt;Node13 -->
<g id="edge13" class="edge">
<title>Node12&#45;&gt;Node13</title>
<path fill="none" stroke="#191970" d="M439.2938,-1107.8788C458.5901,-1076.3035 483.294,-1031.5517 497.5,-989 507.033,-960.4456 511.8286,-926.4874 514.2135,-901.7403"/>
<polygon fill="none" stroke="#191970" points="436.2929,-1106.0769 434.0078,-1116.4224 442.2457,-1109.7599 436.2929,-1106.0769"/>
</g>
<!-- Node13&#45;&gt;Node3 -->
<g id="edge12" class="edge">
<title>Node13&#45;&gt;Node3</title>
<path fill="none" stroke="#404040" d="M516.5,-833.2663C516.5,-804.9218 516.5,-763.5938 516.5,-727.5 516.5,-727.5 516.5,-727.5 516.5,-223 516.5,-195.4027 505.6337,-168.4079 491.3701,-144.8612"/>
<polygon fill="none" stroke="#404040" points="491.3018,-144.7543 484.7,-141.8532 484.8388,-134.6434 491.4406,-137.5445 491.3018,-144.7543"/>
<text text-anchor="middle" x="536" y="-512.5" font-family="Helvetica,sans-Serif" font-size="10.00" fill="#000000"> +value</text>
</g>
</g>
</svg>
