<?xml version="1.0" encoding="UTF-8" standalone="no"?>
<!DOCTYPE svg PUBLIC "-//W3C//DTD SVG 1.1//EN"
 "http://www.w3.org/Graphics/SVG/1.1/DTD/svg11.dtd">
<!-- Generated by graphviz version 2.40.1 (20161225.0304)
 -->
<!-- Title: tvm::relax::DFPatternNode Pages: 1 -->
<svg width="4074pt" height="733pt"
 viewBox="0.00 0.00 4074.00 733.00" xmlns="http://www.w3.org/2000/svg" xmlns:xlink="http://www.w3.org/1999/xlink">
<g id="graph0" class="graph" transform="scale(1 1) rotate(0) translate(4 729)">
<title>tvm::relax::DFPatternNode</title>
<polygon fill="#ffffff" stroke="transparent" points="-4,4 -4,-729 4070,-729 4070,4 -4,4"/>
<!-- Node0 -->
<g id="node1" class="node">
<title>Node0</title>
<polygon fill="#bfbfbf" stroke="#000000" points="1930,-232.5 1930,-289.5 2137,-289.5 2137,-232.5 1930,-232.5"/>
<text text-anchor="middle" x="2033.5" y="-277.5" font-family="Helvetica,sans-Serif" font-size="10.00" fill="#000000">tvm::relax::DFPatternNode</text>
<polyline fill="none" stroke="#000000" points="1930,-270.5 2137,-270.5 "/>
<text text-anchor="start" x="1938" y="-258.5" font-family="Helvetica,sans-Serif" font-size="10.00" fill="#000000">+ _type_key</text>
<polyline fill="none" stroke="#000000" points="1930,-251.5 2137,-251.5 "/>
<text text-anchor="start" x="1938" y="-239.5" font-family="Helvetica,sans-Serif" font-size="10.00" fill="#000000">+ TVM_DECLARE_BASE_OBJECT_INFO()</text>
</g>
<!-- Node2 -->
<g id="node3" class="node">
<title>Node2</title>
<g id="a_node3"><a xlink:href="classtvm_1_1relax_1_1AndPatternNode.html" target="_top" xlink:title="Match a conjunction of other patterns. ">
<polygon fill="#ffffff" stroke="#000000" points="0,-100 0,-190 209,-190 209,-100 0,-100"/>
<text text-anchor="middle" x="104.5" y="-178" font-family="Helvetica,sans-Serif" font-size="10.00" fill="#000000">tvm::relax::AndPatternNode</text>
<polyline fill="none" stroke="#000000" points="0,-171 209,-171 "/>
<text text-anchor="start" x="8" y="-159" font-family="Helvetica,sans-Serif" font-size="10.00" fill="#000000">+ left</text>
<text text-anchor="start" x="8" y="-148" font-family="Helvetica,sans-Serif" font-size="10.00" fill="#000000">+ right</text>
<text text-anchor="start" x="8" y="-137" font-family="Helvetica,sans-Serif" font-size="10.00" fill="#000000">+ _type_key</text>
<polyline fill="none" stroke="#000000" points="0,-130 209,-130 "/>
<text text-anchor="start" x="8" y="-118" font-family="Helvetica,sans-Serif" font-size="10.00" fill="#000000">+ VisitAttrs()</text>
<text text-anchor="start" x="8" y="-107" font-family="Helvetica,sans-Serif" font-size="10.00" fill="#000000">+ TVM_DECLARE_FINAL_OBJECT_INFO()</text>
</a>
</g>
</g>
<!-- Node0&#45;&gt;Node2 -->
<g id="edge2" class="edge">
<title>Node0&#45;&gt;Node2</title>
<path fill="none" stroke="#191970" d="M1919.7119,-259.4815C1547.7729,-254.1638 382.3622,-234.5783 217.5,-196 210.6888,-194.4062 203.7858,-192.395 196.9241,-190.0983"/>
<polygon fill="none" stroke="#191970" points="1919.9016,-262.9844 1929.9504,-259.6271 1920.0012,-255.9851 1919.9016,-262.9844"/>
</g>
<!-- Node3 -->
<g id="node4" class="node">
<title>Node3</title>
<g id="a_node4"><a xlink:href="classtvm_1_1relax_1_1AttrPatternNode.html" target="_top" xlink:title="A pattern that asserting a root pattern has certain attributes. ">
<polygon fill="#ffffff" stroke="#000000" points="227,-100 227,-190 436,-190 436,-100 227,-100"/>
<text text-anchor="middle" x="331.5" y="-178" font-family="Helvetica,sans-Serif" font-size="10.00" fill="#000000">tvm::relax::AttrPatternNode</text>
<polyline fill="none" stroke="#000000" points="227,-171 436,-171 "/>
<text text-anchor="start" x="235" y="-159" font-family="Helvetica,sans-Serif" font-size="10.00" fill="#000000">+ pattern</text>
<text text-anchor="start" x="235" y="-148" font-family="Helvetica,sans-Serif" font-size="10.00" fill="#000000">+ attrs</text>
<text text-anchor="start" x="235" y="-137" font-family="Helvetica,sans-Serif" font-size="10.00" fill="#000000">+ _type_key</text>
<polyline fill="none" stroke="#000000" points="227,-130 436,-130 "/>
<text text-anchor="start" x="235" y="-118" font-family="Helvetica,sans-Serif" font-size="10.00" fill="#000000">+ VisitAttrs()</text>
<text text-anchor="start" x="235" y="-107" font-family="Helvetica,sans-Serif" font-size="10.00" fill="#000000">+ TVM_DECLARE_FINAL_OBJECT_INFO()</text>
</a>
</g>
</g>
<!-- Node0&#45;&gt;Node3 -->
<g id="edge3" class="edge">
<title>Node0&#45;&gt;Node3</title>
<path fill="none" stroke="#191970" d="M1919.8602,-258.8553C1580.0931,-252.0931 586.6776,-229.6531 444.5,-196 437.6929,-194.3888 430.793,-192.3647 423.9334,-190.0585"/>
<polygon fill="none" stroke="#191970" points="1919.8968,-262.3566 1929.9643,-259.0556 1920.0356,-255.358 1919.8968,-262.3566"/>
</g>
<!-- Node4 -->
<g id="node5" class="node">
<title>Node4</title>
<g id="a_node5"><a xlink:href="classtvm_1_1relax_1_1CallPatternNode.html" target="_top" xlink:title="A pattern to match a callable node in Relax. ">
<polygon fill="#ffffff" stroke="#000000" points="454,-94.5 454,-195.5 663,-195.5 663,-94.5 454,-94.5"/>
<text text-anchor="middle" x="558.5" y="-183.5" font-family="Helvetica,sans-Serif" font-size="10.00" fill="#000000">tvm::relax::CallPatternNode</text>
<polyline fill="none" stroke="#000000" points="454,-176.5 663,-176.5 "/>
<text text-anchor="start" x="462" y="-164.5" font-family="Helvetica,sans-Serif" font-size="10.00" fill="#000000">+ op</text>
<text text-anchor="start" x="462" y="-153.5" font-family="Helvetica,sans-Serif" font-size="10.00" fill="#000000">+ args</text>
<text text-anchor="start" x="462" y="-142.5" font-family="Helvetica,sans-Serif" font-size="10.00" fill="#000000">+ varg_default_wildcard</text>
<text text-anchor="start" x="462" y="-131.5" font-family="Helvetica,sans-Serif" font-size="10.00" fill="#000000">+ _type_key</text>
<polyline fill="none" stroke="#000000" points="454,-124.5 663,-124.5 "/>
<text text-anchor="start" x="462" y="-112.5" font-family="Helvetica,sans-Serif" font-size="10.00" fill="#000000">+ VisitAttrs()</text>
<text text-anchor="start" x="462" y="-101.5" font-family="Helvetica,sans-Serif" font-size="10.00" fill="#000000">+ TVM_DECLARE_FINAL_OBJECT_INFO()</text>
</a>
</g>
</g>
<!-- Node0&#45;&gt;Node4 -->
<g id="edge4" class="edge">
<title>Node0&#45;&gt;Node4</title>
<path fill="none" stroke="#191970" d="M1919.6694,-258.014C1614.1462,-249.6541 791.0917,-224.7371 671.5,-196 668.7794,-195.3463 666.0437,-194.6274 663.3014,-193.8517"/>
<polygon fill="none" stroke="#191970" points="1919.786,-261.5184 1929.8777,-258.2924 1919.9769,-254.521 1919.786,-261.5184"/>
</g>
<!-- Node5 -->
<g id="node6" class="node">
<title>Node5</title>
<g id="a_node6"><a xlink:href="classtvm_1_1relax_1_1ConstantPatternNode.html" target="_top" xlink:title="A Pattern to Match a Relax Constant. ">
<polygon fill="#ffffff" stroke="#000000" points="681,-111 681,-179 890,-179 890,-111 681,-111"/>
<text text-anchor="middle" x="785.5" y="-167" font-family="Helvetica,sans-Serif" font-size="10.00" fill="#000000">tvm::relax::ConstantPatternNode</text>
<polyline fill="none" stroke="#000000" points="681,-160 890,-160 "/>
<text text-anchor="start" x="689" y="-148" font-family="Helvetica,sans-Serif" font-size="10.00" fill="#000000">+ _type_key</text>
<polyline fill="none" stroke="#000000" points="681,-141 890,-141 "/>
<text text-anchor="start" x="689" y="-129" font-family="Helvetica,sans-Serif" font-size="10.00" fill="#000000">+ VisitAttrs()</text>
<text text-anchor="start" x="689" y="-118" font-family="Helvetica,sans-Serif" font-size="10.00" fill="#000000">+ TVM_DECLARE_FINAL_OBJECT_INFO()</text>
</a>
</g>
</g>
<!-- Node0&#45;&gt;Node5 -->
<g id="edge5" class="edge">
<title>Node0&#45;&gt;Node5</title>
<path fill="none" stroke="#191970" d="M1919.4712,-259.7466C1671.3818,-256.1625 1089.5752,-242.8771 898.5,-196 882.2996,-192.0255 865.5519,-185.7834 850.0728,-179.0109"/>
<polygon fill="none" stroke="#191970" points="1919.5448,-263.2479 1929.5935,-259.8901 1919.6441,-256.2486 1919.5448,-263.2479"/>
</g>
<!-- Node6 -->
<g id="node7" class="node">
<title>Node6</title>
<g id="a_node7"><a xlink:href="classtvm_1_1relax_1_1DataTypePatternNode.html" target="_top" xlink:title="A pattern that asserting a root pattern has a certain data type. ">
<polygon fill="#ffffff" stroke="#000000" points="908,-100 908,-190 1117,-190 1117,-100 908,-100"/>
<text text-anchor="middle" x="1012.5" y="-178" font-family="Helvetica,sans-Serif" font-size="10.00" fill="#000000">tvm::relax::DataTypePatternNode</text>
<polyline fill="none" stroke="#000000" points="908,-171 1117,-171 "/>
<text text-anchor="start" x="916" y="-159" font-family="Helvetica,sans-Serif" font-size="10.00" fill="#000000">+ pattern</text>
<text text-anchor="start" x="916" y="-148" font-family="Helvetica,sans-Serif" font-size="10.00" fill="#000000">+ dtype</text>
<text text-anchor="start" x="916" y="-137" font-family="Helvetica,sans-Serif" font-size="10.00" fill="#000000">+ _type_key</text>
<polyline fill="none" stroke="#000000" points="908,-130 1117,-130 "/>
<text text-anchor="start" x="916" y="-118" font-family="Helvetica,sans-Serif" font-size="10.00" fill="#000000">+ VisitAttrs()</text>
<text text-anchor="start" x="916" y="-107" font-family="Helvetica,sans-Serif" font-size="10.00" fill="#000000">+ TVM_DECLARE_FINAL_OBJECT_INFO()</text>
</a>
</g>
</g>
<!-- Node0&#45;&gt;Node6 -->
<g id="edge6" class="edge">
<title>Node0&#45;&gt;Node6</title>
<path fill="none" stroke="#191970" d="M1919.544,-257.8295C1710.2679,-251.1817 1272.6691,-233.2198 1125.5,-196 1118.927,-194.3377 1112.2607,-192.3122 1105.6236,-190.0383"/>
<polygon fill="none" stroke="#191970" points="1919.5349,-261.3308 1929.64,-258.147 1919.755,-254.3343 1919.5349,-261.3308"/>
</g>
<!-- Node7 -->
<g id="node8" class="node">
<title>Node7</title>
<g id="a_node8"><a xlink:href="classtvm_1_1relax_1_1ExprPatternNode.html" target="_top" xlink:title="Pattern for Relax Expression. ">
<polygon fill="#ffffff" stroke="#000000" points="1135,-105.5 1135,-184.5 1344,-184.5 1344,-105.5 1135,-105.5"/>
<text text-anchor="middle" x="1239.5" y="-172.5" font-family="Helvetica,sans-Serif" font-size="10.00" fill="#000000">tvm::relax::ExprPatternNode</text>
<polyline fill="none" stroke="#000000" points="1135,-165.5 1344,-165.5 "/>
<text text-anchor="start" x="1143" y="-153.5" font-family="Helvetica,sans-Serif" font-size="10.00" fill="#000000">+ expr</text>
<text text-anchor="start" x="1143" y="-142.5" font-family="Helvetica,sans-Serif" font-size="10.00" fill="#000000">+ _type_key</text>
<polyline fill="none" stroke="#000000" points="1135,-135.5 1344,-135.5 "/>
<text text-anchor="start" x="1143" y="-123.5" font-family="Helvetica,sans-Serif" font-size="10.00" fill="#000000">+ VisitAttrs()</text>
<text text-anchor="start" x="1143" y="-112.5" font-family="Helvetica,sans-Serif" font-size="10.00" fill="#000000">+ TVM_DECLARE_FINAL_OBJECT_INFO()</text>
</a>
</g>
</g>
<!-- Node0&#45;&gt;Node7 -->
<g id="edge7" class="edge">
<title>Node0&#45;&gt;Node7</title>
<path fill="none" stroke="#191970" d="M1919.7097,-254.6692C1754.4738,-244.7048 1456.5016,-223.6175 1352.5,-196 1341.2666,-193.017 1329.7444,-189.0232 1318.555,-184.5778"/>
<polygon fill="none" stroke="#191970" points="1919.7194,-258.176 1929.9109,-255.2804 1920.1381,-251.1885 1919.7194,-258.176"/>
</g>
<!-- Node8 -->
<g id="node9" class="node">
<title>Node8</title>
<g id="a_node9"><a xlink:href="classtvm_1_1relax_1_1ExternFuncPatternNode.html" target="_top" xlink:title="A pattern of external function. ">
<polygon fill="#ffffff" stroke="#000000" points="1362,-100 1362,-190 1571,-190 1571,-100 1362,-100"/>
<text text-anchor="middle" x="1466.5" y="-178" font-family="Helvetica,sans-Serif" font-size="10.00" fill="#000000">tvm::relax::ExternFuncPatternNode</text>
<polyline fill="none" stroke="#000000" points="1362,-171 1571,-171 "/>
<text text-anchor="start" x="1370" y="-159" font-family="Helvetica,sans-Serif" font-size="10.00" fill="#000000">+ global_symbol_</text>
<text text-anchor="start" x="1370" y="-148" font-family="Helvetica,sans-Serif" font-size="10.00" fill="#000000">+ _type_key</text>
<polyline fill="none" stroke="#000000" points="1362,-141 1571,-141 "/>
<text text-anchor="start" x="1370" y="-129" font-family="Helvetica,sans-Serif" font-size="10.00" fill="#000000">+ global_symbol()</text>
<text text-anchor="start" x="1370" y="-118" font-family="Helvetica,sans-Serif" font-size="10.00" fill="#000000">+ VisitAttrs()</text>
<text text-anchor="start" x="1370" y="-107" font-family="Helvetica,sans-Serif" font-size="10.00" fill="#000000">+ TVM_DECLARE_FINAL_OBJECT_INFO()</text>
</a>
</g>
</g>
<!-- Node0&#45;&gt;Node8 -->
<g id="edge8" class="edge">
<title>Node0&#45;&gt;Node8</title>
<path fill="none" stroke="#191970" d="M1919.8811,-253.6468C1826.8994,-245.5202 1692.7312,-228.9382 1579.5,-196 1573.5066,-194.2566 1567.421,-192.2536 1561.341,-190.0724"/>
<polygon fill="none" stroke="#191970" points="1919.6161,-257.1369 1929.8781,-254.5019 1920.2127,-250.1623 1919.6161,-257.1369"/>
</g>
<!-- Node9 -->
<g id="node10" class="node">
<title>Node9</title>
<g id="a_node10"><a xlink:href="classtvm_1_1relax_1_1FunctionPatternNode.html" target="_top" xlink:title="A pattern to match a Relax Function. ">
<polygon fill="#ffffff" stroke="#000000" points="1589,-100 1589,-190 1798,-190 1798,-100 1589,-100"/>
<text text-anchor="middle" x="1693.5" y="-178" font-family="Helvetica,sans-Serif" font-size="10.00" fill="#000000">tvm::relax::FunctionPatternNode</text>
<polyline fill="none" stroke="#000000" points="1589,-171 1798,-171 "/>
<text text-anchor="start" x="1597" y="-159" font-family="Helvetica,sans-Serif" font-size="10.00" fill="#000000">+ params</text>
<text text-anchor="start" x="1597" y="-148" font-family="Helvetica,sans-Serif" font-size="10.00" fill="#000000">+ body</text>
<text text-anchor="start" x="1597" y="-137" font-family="Helvetica,sans-Serif" font-size="10.00" fill="#000000">+ _type_key</text>
<polyline fill="none" stroke="#000000" points="1589,-130 1798,-130 "/>
<text text-anchor="start" x="1597" y="-118" font-family="Helvetica,sans-Serif" font-size="10.00" fill="#000000">+ VisitAttrs()</text>
<text text-anchor="start" x="1597" y="-107" font-family="Helvetica,sans-Serif" font-size="10.00" fill="#000000">+ TVM_DECLARE_FINAL_OBJECT_INFO()</text>
</a>
</g>
</g>
<!-- Node0&#45;&gt;Node9 -->
<g id="edge9" class="edge">
<title>Node0&#45;&gt;Node9</title>
<path fill="none" stroke="#191970" d="M1920.2106,-232.0453C1883.5625,-221.7556 1842.9793,-209.3747 1806.5,-196 1801.448,-194.1477 1796.305,-192.1709 1791.137,-190.1114"/>
<polygon fill="none" stroke="#191970" points="1919.363,-235.4424 1929.9354,-234.753 1921.2406,-228.6989 1919.363,-235.4424"/>
</g>
<!-- Node10 -->
<g id="node11" class="node">
<title>Node10</title>
<g id="a_node11"><a xlink:href="classtvm_1_1relax_1_1NotPatternNode.html" target="_top" xlink:title="Pattern for rejecting a certain pattern. ">
<polygon fill="#ffffff" stroke="#000000" points="1816,-105.5 1816,-184.5 2025,-184.5 2025,-105.5 1816,-105.5"/>
<text text-anchor="middle" x="1920.5" y="-172.5" font-family="Helvetica,sans-Serif" font-size="10.00" fill="#000000">tvm::relax::NotPatternNode</text>
<polyline fill="none" stroke="#000000" points="1816,-165.5 2025,-165.5 "/>
<text text-anchor="start" x="1824" y="-153.5" font-family="Helvetica,sans-Serif" font-size="10.00" fill="#000000">+ reject</text>
<text text-anchor="start" x="1824" y="-142.5" font-family="Helvetica,sans-Serif" font-size="10.00" fill="#000000">+ _type_key</text>
<polyline fill="none" stroke="#000000" points="1816,-135.5 2025,-135.5 "/>
<text text-anchor="start" x="1824" y="-123.5" font-family="Helvetica,sans-Serif" font-size="10.00" fill="#000000">+ VisitAttrs()</text>
<text text-anchor="start" x="1824" y="-112.5" font-family="Helvetica,sans-Serif" font-size="10.00" fill="#000000">+ TVM_DECLARE_FINAL_OBJECT_INFO()</text>
</a>
</g>
</g>
<!-- Node0&#45;&gt;Node10 -->
<g id="edge10" class="edge">
<title>Node0&#45;&gt;Node10</title>
<path fill="none" stroke="#191970" d="M1998.4501,-225.0196C1986.0037,-212.2427 1971.9263,-197.7916 1959.1931,-184.7203"/>
<polygon fill="none" stroke="#191970" points="1996.0825,-227.605 2005.5674,-232.3258 2001.0966,-222.7205 1996.0825,-227.605"/>
</g>
<!-- Node11 -->
<g id="node12" class="node">
<title>Node11</title>
<g id="a_node12"><a xlink:href="classtvm_1_1relax_1_1OrPatternNode.html" target="_top" xlink:title="Match a disjunction of other patterns. ">
<polygon fill="#ffffff" stroke="#000000" points="2043,-100 2043,-190 2252,-190 2252,-100 2043,-100"/>
<text text-anchor="middle" x="2147.5" y="-178" font-family="Helvetica,sans-Serif" font-size="10.00" fill="#000000">tvm::relax::OrPatternNode</text>
<polyline fill="none" stroke="#000000" points="2043,-171 2252,-171 "/>
<text text-anchor="start" x="2051" y="-159" font-family="Helvetica,sans-Serif" font-size="10.00" fill="#000000">+ left</text>
<text text-anchor="start" x="2051" y="-148" font-family="Helvetica,sans-Serif" font-size="10.00" fill="#000000">+ right</text>
<text text-anchor="start" x="2051" y="-137" font-family="Helvetica,sans-Serif" font-size="10.00" fill="#000000">+ _type_key</text>
<polyline fill="none" stroke="#000000" points="2043,-130 2252,-130 "/>
<text text-anchor="start" x="2051" y="-118" font-family="Helvetica,sans-Serif" font-size="10.00" fill="#000000">+ VisitAttrs()</text>
<text text-anchor="start" x="2051" y="-107" font-family="Helvetica,sans-Serif" font-size="10.00" fill="#000000">+ TVM_DECLARE_FINAL_OBJECT_INFO()</text>
</a>
</g>
</g>
<!-- Node0&#45;&gt;Node11 -->
<g id="edge11" class="edge">
<title>Node0&#45;&gt;Node11</title>
<path fill="none" stroke="#191970" d="M2068.9687,-224.909C2079.8127,-213.8748 2091.8754,-201.6004 2103.2283,-190.0484"/>
<polygon fill="none" stroke="#191970" points="2066.1928,-222.7403 2061.6798,-232.3258 2071.1854,-227.6468 2066.1928,-222.7403"/>
</g>
<!-- Node12 -->
<g id="node13" class="node">
<title>Node12</title>
<g id="a_node13"><a xlink:href="classtvm_1_1relax_1_1PrimArrPatternNode.html" target="_top" xlink:title="A pattern to match an array of PrimExpr. ">
<polygon fill="#ffffff" stroke="#000000" points="2270,-105.5 2270,-184.5 2479,-184.5 2479,-105.5 2270,-105.5"/>
<text text-anchor="middle" x="2374.5" y="-172.5" font-family="Helvetica,sans-Serif" font-size="10.00" fill="#000000">tvm::relax::PrimArrPatternNode</text>
<polyline fill="none" stroke="#000000" points="2270,-165.5 2479,-165.5 "/>
<text text-anchor="start" x="2278" y="-153.5" font-family="Helvetica,sans-Serif" font-size="10.00" fill="#000000">+ fields</text>
<text text-anchor="start" x="2278" y="-142.5" font-family="Helvetica,sans-Serif" font-size="10.00" fill="#000000">+ _type_key</text>
<polyline fill="none" stroke="#000000" points="2270,-135.5 2479,-135.5 "/>
<text text-anchor="start" x="2278" y="-123.5" font-family="Helvetica,sans-Serif" font-size="10.00" fill="#000000">+ VisitAttrs()</text>
<text text-anchor="start" x="2278" y="-112.5" font-family="Helvetica,sans-Serif" font-size="10.00" fill="#000000">+ TVM_DECLARE_FINAL_OBJECT_INFO()</text>
</a>
</g>
</g>
<!-- Node0&#45;&gt;Node12 -->
<g id="edge12" class="edge">
<title>Node0&#45;&gt;Node12</title>
<path fill="none" stroke="#191970" d="M2146.7633,-231.9738C2183.4098,-221.6799 2223.9988,-209.3146 2260.5,-196 2269.9716,-192.545 2279.7636,-188.6625 2289.4471,-184.6218"/>
<polygon fill="none" stroke="#191970" points="2145.7328,-228.6275 2137.0391,-234.6831 2147.6116,-235.3707 2145.7328,-228.6275"/>
</g>
<!-- Node13 -->
<g id="node14" class="node">
<title>Node13</title>
<g id="a_node14"><a xlink:href="classtvm_1_1relax_1_1ShapePatternNode.html" target="_top" xlink:title="A pattern that asserting a root pattern has a certain shape. ">
<polygon fill="#ffffff" stroke="#000000" points="2497,-100 2497,-190 2706,-190 2706,-100 2497,-100"/>
<text text-anchor="middle" x="2601.5" y="-178" font-family="Helvetica,sans-Serif" font-size="10.00" fill="#000000">tvm::relax::ShapePatternNode</text>
<polyline fill="none" stroke="#000000" points="2497,-171 2706,-171 "/>
<text text-anchor="start" x="2505" y="-159" font-family="Helvetica,sans-Serif" font-size="10.00" fill="#000000">+ pattern</text>
<text text-anchor="start" x="2505" y="-148" font-family="Helvetica,sans-Serif" font-size="10.00" fill="#000000">+ shape</text>
<text text-anchor="start" x="2505" y="-137" font-family="Helvetica,sans-Serif" font-size="10.00" fill="#000000">+ _type_key</text>
<polyline fill="none" stroke="#000000" points="2497,-130 2706,-130 "/>
<text text-anchor="start" x="2505" y="-118" font-family="Helvetica,sans-Serif" font-size="10.00" fill="#000000">+ VisitAttrs()</text>
<text text-anchor="start" x="2505" y="-107" font-family="Helvetica,sans-Serif" font-size="10.00" fill="#000000">+ TVM_DECLARE_FINAL_OBJECT_INFO()</text>
</a>
</g>
</g>
<!-- Node0&#45;&gt;Node13 -->
<g id="edge13" class="edge">
<title>Node0&#45;&gt;Node13</title>
<path fill="none" stroke="#191970" d="M2147.0901,-253.5474C2240.055,-245.363 2374.2147,-228.7517 2487.5,-196 2493.5404,-194.2537 2499.6752,-192.2485 2505.8055,-190.0656"/>
<polygon fill="none" stroke="#191970" points="2146.7575,-250.063 2137.095,-254.4089 2147.3586,-257.0372 2146.7575,-250.063"/>
</g>
<!-- Node14 -->
<g id="node15" class="node">
<title>Node14</title>
<g id="a_node15"><a xlink:href="classtvm_1_1relax_1_1TupleGetItemPatternNode.html" target="_top" xlink:title="A pattern to match n&#39;th indexing to a tuple. ">
<polygon fill="#ffffff" stroke="#000000" points="2724,-94.5 2724,-195.5 2933,-195.5 2933,-94.5 2724,-94.5"/>
<text text-anchor="start" x="2732" y="-183.5" font-family="Helvetica,sans-Serif" font-size="10.00" fill="#000000">tvm::relax::TupleGetItem</text>
<text text-anchor="middle" x="2828.5" y="-172.5" font-family="Helvetica,sans-Serif" font-size="10.00" fill="#000000">PatternNode</text>
<polyline fill="none" stroke="#000000" points="2724,-165.5 2933,-165.5 "/>
<text text-anchor="start" x="2732" y="-153.5" font-family="Helvetica,sans-Serif" font-size="10.00" fill="#000000">+ tuple</text>
<text text-anchor="start" x="2732" y="-142.5" font-family="Helvetica,sans-Serif" font-size="10.00" fill="#000000">+ index</text>
<text text-anchor="start" x="2732" y="-131.5" font-family="Helvetica,sans-Serif" font-size="10.00" fill="#000000">+ _type_key</text>
<polyline fill="none" stroke="#000000" points="2724,-124.5 2933,-124.5 "/>
<text text-anchor="start" x="2732" y="-112.5" font-family="Helvetica,sans-Serif" font-size="10.00" fill="#000000">+ VisitAttrs()</text>
<text text-anchor="start" x="2732" y="-101.5" font-family="Helvetica,sans-Serif" font-size="10.00" fill="#000000">+ TVM_DECLARE_FINAL_OBJECT_INFO()</text>
</a>
</g>
</g>
<!-- Node0&#45;&gt;Node14 -->
<g id="edge14" class="edge">
<title>Node0&#45;&gt;Node14</title>
<path fill="none" stroke="#191970" d="M2147.2787,-254.6253C2312.4997,-244.6046 2610.4531,-223.4462 2714.5,-196 2717.6447,-195.1705 2720.8123,-194.263 2723.9893,-193.2897"/>
<polygon fill="none" stroke="#191970" points="2146.8498,-251.1447 2137.0785,-255.24 2147.2709,-258.132 2146.8498,-251.1447"/>
</g>
<!-- Node15 -->
<g id="node16" class="node">
<title>Node15</title>
<g id="a_node16"><a xlink:href="classtvm_1_1relax_1_1TuplePatternNode.html" target="_top" xlink:title="Pattern to match a tuple of ordered expressions. ">
<polygon fill="#ffffff" stroke="#000000" points="2951,-105.5 2951,-184.5 3160,-184.5 3160,-105.5 2951,-105.5"/>
<text text-anchor="middle" x="3055.5" y="-172.5" font-family="Helvetica,sans-Serif" font-size="10.00" fill="#000000">tvm::relax::TuplePatternNode</text>
<polyline fill="none" stroke="#000000" points="2951,-165.5 3160,-165.5 "/>
<text text-anchor="start" x="2959" y="-153.5" font-family="Helvetica,sans-Serif" font-size="10.00" fill="#000000">+ fields</text>
<text text-anchor="start" x="2959" y="-142.5" font-family="Helvetica,sans-Serif" font-size="10.00" fill="#000000">+ _type_key</text>
<polyline fill="none" stroke="#000000" points="2951,-135.5 3160,-135.5 "/>
<text text-anchor="start" x="2959" y="-123.5" font-family="Helvetica,sans-Serif" font-size="10.00" fill="#000000">+ VisitAttrs()</text>
<text text-anchor="start" x="2959" y="-112.5" font-family="Helvetica,sans-Serif" font-size="10.00" fill="#000000">+ TVM_DECLARE_FINAL_OBJECT_INFO()</text>
</a>
</g>
</g>
<!-- Node0&#45;&gt;Node15 -->
<g id="edge15" class="edge">
<title>Node0&#45;&gt;Node15</title>
<path fill="none" stroke="#191970" d="M2147.4446,-257.7842C2356.7016,-251.0607 2794.2698,-232.9773 2941.5,-196 2953.0659,-193.0952 2964.924,-189.0845 2976.415,-184.5772"/>
<polygon fill="none" stroke="#191970" points="2147.2331,-254.289 2137.3495,-258.1054 2147.4558,-261.2855 2147.2331,-254.289"/>
</g>
<!-- Node16 -->
<g id="node17" class="node">
<title>Node16</title>
<g id="a_node17"><a xlink:href="classtvm_1_1relax_1_1TypePatternNode.html" target="_top" xlink:title="Pattern for matching a certain type. ">
<polygon fill="#ffffff" stroke="#000000" points="3178,-100 3178,-190 3387,-190 3387,-100 3178,-100"/>
<text text-anchor="middle" x="3282.5" y="-178" font-family="Helvetica,sans-Serif" font-size="10.00" fill="#000000">tvm::relax::TypePatternNode</text>
<polyline fill="none" stroke="#000000" points="3178,-171 3387,-171 "/>
<text text-anchor="start" x="3186" y="-159" font-family="Helvetica,sans-Serif" font-size="10.00" fill="#000000">+ pattern</text>
<text text-anchor="start" x="3186" y="-148" font-family="Helvetica,sans-Serif" font-size="10.00" fill="#000000">+ type</text>
<text text-anchor="start" x="3186" y="-137" font-family="Helvetica,sans-Serif" font-size="10.00" fill="#000000">+ _type_key</text>
<polyline fill="none" stroke="#000000" points="3178,-130 3387,-130 "/>
<text text-anchor="start" x="3186" y="-118" font-family="Helvetica,sans-Serif" font-size="10.00" fill="#000000">+ VisitAttrs()</text>
<text text-anchor="start" x="3186" y="-107" font-family="Helvetica,sans-Serif" font-size="10.00" fill="#000000">+ TVM_DECLARE_FINAL_OBJECT_INFO()</text>
</a>
</g>
</g>
<!-- Node0&#45;&gt;Node16 -->
<g id="edge16" class="edge">
<title>Node0&#45;&gt;Node16</title>
<path fill="none" stroke="#191970" d="M2147.5175,-259.7003C2395.5841,-256.0232 2977.3479,-242.5624 3168.5,-196 3175.2411,-194.3579 3182.0782,-192.3295 3188.8819,-190.037"/>
<polygon fill="none" stroke="#191970" points="2147.3441,-256.2024 2137.3962,-259.8477 2147.4461,-263.2017 2147.3441,-256.2024"/>
</g>
<!-- Node17 -->
<g id="node18" class="node">
<title>Node17</title>
<g id="a_node18"><a xlink:href="classtvm_1_1relax_1_1UnorderedTuplePatternNode.html" target="_top" xlink:title="A pattern to match multiple expressions unorderedly. ">
<polygon fill="#ffffff" stroke="#000000" points="3405,-100 3405,-190 3614,-190 3614,-100 3405,-100"/>
<text text-anchor="start" x="3413" y="-178" font-family="Helvetica,sans-Serif" font-size="10.00" fill="#000000">tvm::relax::UnorderedTuple</text>
<text text-anchor="middle" x="3509.5" y="-167" font-family="Helvetica,sans-Serif" font-size="10.00" fill="#000000">PatternNode</text>
<polyline fill="none" stroke="#000000" points="3405,-160 3614,-160 "/>
<text text-anchor="start" x="3413" y="-148" font-family="Helvetica,sans-Serif" font-size="10.00" fill="#000000">+ fields</text>
<text text-anchor="start" x="3413" y="-137" font-family="Helvetica,sans-Serif" font-size="10.00" fill="#000000">+ _type_key</text>
<polyline fill="none" stroke="#000000" points="3405,-130 3614,-130 "/>
<text text-anchor="start" x="3413" y="-118" font-family="Helvetica,sans-Serif" font-size="10.00" fill="#000000">+ VisitAttrs()</text>
<text text-anchor="start" x="3413" y="-107" font-family="Helvetica,sans-Serif" font-size="10.00" fill="#000000">+ TVM_DECLARE_FINAL_OBJECT_INFO()</text>
</a>
</g>
</g>
<!-- Node0&#45;&gt;Node17 -->
<g id="edge17" class="edge">
<title>Node0&#45;&gt;Node17</title>
<path fill="none" stroke="#191970" d="M2147.3256,-257.9931C2452.836,-249.5799 3275.8612,-224.5401 3395.5,-196 3402.3543,-194.3649 3409.3056,-192.323 3416.2188,-190.0039"/>
<polygon fill="none" stroke="#191970" points="2147.0179,-254.5001 2137.1177,-258.2733 2147.21,-261.4975 2147.0179,-254.5001"/>
</g>
<!-- Node18 -->
<g id="node19" class="node">
<title>Node18</title>
<g id="a_node19"><a xlink:href="classtvm_1_1relax_1_1VarPatternNode.html" target="_top" xlink:title="A Pattern to Match a Relax Variable. ">
<polygon fill="#ffffff" stroke="#000000" points="3632,-100 3632,-190 3839,-190 3839,-100 3632,-100"/>
<text text-anchor="middle" x="3735.5" y="-178" font-family="Helvetica,sans-Serif" font-size="10.00" fill="#000000">tvm::relax::VarPatternNode</text>
<polyline fill="none" stroke="#000000" points="3632,-171 3839,-171 "/>
<text text-anchor="start" x="3640" y="-159" font-family="Helvetica,sans-Serif" font-size="10.00" fill="#000000">+ name</text>
<text text-anchor="start" x="3640" y="-148" font-family="Helvetica,sans-Serif" font-size="10.00" fill="#000000">+ _type_key</text>
<polyline fill="none" stroke="#000000" points="3632,-141 3839,-141 "/>
<text text-anchor="start" x="3640" y="-129" font-family="Helvetica,sans-Serif" font-size="10.00" fill="#000000">+ name_hint()</text>
<text text-anchor="start" x="3640" y="-118" font-family="Helvetica,sans-Serif" font-size="10.00" fill="#000000">+ VisitAttrs()</text>
<text text-anchor="start" x="3640" y="-107" font-family="Helvetica,sans-Serif" font-size="10.00" fill="#000000">+ TVM_DECLARE_BASE_OBJECT_INFO()</text>
</a>
</g>
</g>
<!-- Node0&#45;&gt;Node18 -->
<g id="edge18" class="edge">
<title>Node0&#45;&gt;Node18</title>
<path fill="none" stroke="#191970" d="M2147.1398,-258.8553C2486.9069,-252.0931 3480.3224,-229.6531 3622.5,-196 3629.3071,-194.3888 3636.207,-192.3647 3643.0666,-190.0585"/>
<polygon fill="none" stroke="#191970" points="2146.9644,-255.358 2137.0357,-259.0556 2147.1032,-262.3566 2146.9644,-255.358"/>
</g>
<!-- Node21 -->
<g id="node22" class="node">
<title>Node21</title>
<g id="a_node22"><a xlink:href="classtvm_1_1relax_1_1WildcardPatternNode.html" target="_top" xlink:title="Wildcard Pattern is a pattern that can match anything. ">
<polygon fill="#ffffff" stroke="#000000" points="3857,-111 3857,-179 4066,-179 4066,-111 3857,-111"/>
<text text-anchor="middle" x="3961.5" y="-167" font-family="Helvetica,sans-Serif" font-size="10.00" fill="#000000">tvm::relax::WildcardPatternNode</text>
<polyline fill="none" stroke="#000000" points="3857,-160 4066,-160 "/>
<text text-anchor="start" x="3865" y="-148" font-family="Helvetica,sans-Serif" font-size="10.00" fill="#000000">+ _type_key</text>
<polyline fill="none" stroke="#000000" points="3857,-141 4066,-141 "/>
<text text-anchor="start" x="3865" y="-129" font-family="Helvetica,sans-Serif" font-size="10.00" fill="#000000">+ VisitAttrs()</text>
<text text-anchor="start" x="3865" y="-118" font-family="Helvetica,sans-Serif" font-size="10.00" fill="#000000">+ TVM_DECLARE_FINAL_OBJECT_INFO()</text>
</a>
</g>
</g>
<!-- Node0&#45;&gt;Node21 -->
<g id="edge21" class="edge">
<title>Node0&#45;&gt;Node21</title>
<path fill="none" stroke="#191970" d="M2147.4796,-259.4525C2519.3433,-254.0521 3682.8042,-234.2568 3847.5,-196 3864.0789,-192.1489 3881.2095,-185.8642 3896.9946,-179.0004"/>
<polygon fill="none" stroke="#191970" points="2147.191,-255.9562 2137.2427,-259.6005 2147.2922,-262.9555 2147.191,-255.9562"/>
</g>
<!-- Node1 -->
<g id="node2" class="node">
<title>Node1</title>
<g id="a_node2"><a xlink:href="classtvm_1_1runtime_1_1Object.html" target="_top" xlink:title="base class of all object containers. ">
<polygon fill="#ffffff" stroke="#000000" points="1942,-326.5 1942,-724.5 2125,-724.5 2125,-326.5 1942,-326.5"/>
<text text-anchor="middle" x="2033.5" y="-712.5" font-family="Helvetica,sans-Serif" font-size="10.00" fill="#000000">tvm::runtime::Object</text>
<polyline fill="none" stroke="#000000" points="1942,-705.5 2125,-705.5 "/>
<text text-anchor="start" x="1950" y="-693.5" font-family="Helvetica,sans-Serif" font-size="10.00" fill="#000000">+ _type_key</text>
<text text-anchor="start" x="1950" y="-682.5" font-family="Helvetica,sans-Serif" font-size="10.00" fill="#000000">+ _type_final</text>
<text text-anchor="start" x="1950" y="-671.5" font-family="Helvetica,sans-Serif" font-size="10.00" fill="#000000">+ _type_child_slots</text>
<text text-anchor="start" x="1950" y="-660.5" font-family="Helvetica,sans-Serif" font-size="10.00" fill="#000000">+ _type_child_slots_can</text>
<text text-anchor="start" x="1950" y="-649.5" font-family="Helvetica,sans-Serif" font-size="10.00" fill="#000000">_overflow</text>
<text text-anchor="start" x="1950" y="-638.5" font-family="Helvetica,sans-Serif" font-size="10.00" fill="#000000">+ _type_has_method_visit</text>
<text text-anchor="start" x="1950" y="-627.5" font-family="Helvetica,sans-Serif" font-size="10.00" fill="#000000">_attrs</text>
<text text-anchor="start" x="1950" y="-616.5" font-family="Helvetica,sans-Serif" font-size="10.00" fill="#000000">+ _type_has_method_sequal</text>
<text text-anchor="start" x="1950" y="-605.5" font-family="Helvetica,sans-Serif" font-size="10.00" fill="#000000">_reduce</text>
<text text-anchor="start" x="1950" y="-594.5" font-family="Helvetica,sans-Serif" font-size="10.00" fill="#000000">+ _type_has_method_shash</text>
<text text-anchor="start" x="1950" y="-583.5" font-family="Helvetica,sans-Serif" font-size="10.00" fill="#000000">_reduce</text>
<text text-anchor="start" x="1950" y="-572.5" font-family="Helvetica,sans-Serif" font-size="10.00" fill="#000000">+ _type_index</text>
<text text-anchor="start" x="1950" y="-561.5" font-family="Helvetica,sans-Serif" font-size="10.00" fill="#000000"># type_index_</text>
<text text-anchor="start" x="1950" y="-550.5" font-family="Helvetica,sans-Serif" font-size="10.00" fill="#000000"># ref_counter_</text>
<text text-anchor="start" x="1950" y="-539.5" font-family="Helvetica,sans-Serif" font-size="10.00" fill="#000000"># deleter_</text>
<polyline fill="none" stroke="#000000" points="1942,-532.5 2125,-532.5 "/>
<text text-anchor="start" x="1950" y="-520.5" font-family="Helvetica,sans-Serif" font-size="10.00" fill="#000000">+ type_index()</text>
<text text-anchor="start" x="1950" y="-509.5" font-family="Helvetica,sans-Serif" font-size="10.00" fill="#000000">+ GetTypeKey()</text>
<text text-anchor="start" x="1950" y="-498.5" font-family="Helvetica,sans-Serif" font-size="10.00" fill="#000000">+ GetTypeKeyHash()</text>
<text text-anchor="start" x="1950" y="-487.5" font-family="Helvetica,sans-Serif" font-size="10.00" fill="#000000">+ IsInstance()</text>
<text text-anchor="start" x="1950" y="-476.5" font-family="Helvetica,sans-Serif" font-size="10.00" fill="#000000">+ unique()</text>
<text text-anchor="start" x="1950" y="-465.5" font-family="Helvetica,sans-Serif" font-size="10.00" fill="#000000">+ Object()</text>
<text text-anchor="start" x="1950" y="-454.5" font-family="Helvetica,sans-Serif" font-size="10.00" fill="#000000">+ Object()</text>
<text text-anchor="start" x="1950" y="-443.5" font-family="Helvetica,sans-Serif" font-size="10.00" fill="#000000">+ Object()</text>
<text text-anchor="start" x="1950" y="-432.5" font-family="Helvetica,sans-Serif" font-size="10.00" fill="#000000">+ operator=()</text>
<text text-anchor="start" x="1950" y="-421.5" font-family="Helvetica,sans-Serif" font-size="10.00" fill="#000000">+ operator=()</text>
<text text-anchor="start" x="1950" y="-410.5" font-family="Helvetica,sans-Serif" font-size="10.00" fill="#000000">+ TypeIndex2Key()</text>
<text text-anchor="start" x="1950" y="-399.5" font-family="Helvetica,sans-Serif" font-size="10.00" fill="#000000">+ TypeIndex2KeyHash()</text>
<text text-anchor="start" x="1950" y="-388.5" font-family="Helvetica,sans-Serif" font-size="10.00" fill="#000000">+ TypeKey2Index()</text>
<text text-anchor="start" x="1950" y="-377.5" font-family="Helvetica,sans-Serif" font-size="10.00" fill="#000000">+ _GetOrAllocRuntimeTypeIndex()</text>
<text text-anchor="start" x="1950" y="-366.5" font-family="Helvetica,sans-Serif" font-size="10.00" fill="#000000">+ RuntimeTypeIndex()</text>
<text text-anchor="start" x="1950" y="-355.5" font-family="Helvetica,sans-Serif" font-size="10.00" fill="#000000"># IncRef()</text>
<text text-anchor="start" x="1950" y="-344.5" font-family="Helvetica,sans-Serif" font-size="10.00" fill="#000000"># DecRef()</text>
<text text-anchor="start" x="1950" y="-333.5" font-family="Helvetica,sans-Serif" font-size="10.00" fill="#000000"># GetOrAllocRuntimeTypeIndex()</text>
</a>
</g>
</g>
<!-- Node1&#45;&gt;Node0 -->
<g id="edge1" class="edge">
<title>Node1&#45;&gt;Node0</title>
<path fill="none" stroke="#191970" d="M2033.5,-316.19C2033.5,-306.2791 2033.5,-297.255 2033.5,-289.5063"/>
<polygon fill="none" stroke="#191970" points="2030.0001,-316.382 2033.5,-326.382 2037.0001,-316.3821 2030.0001,-316.382"/>
</g>
<!-- Node19 -->
<g id="node20" class="node">
<title>Node19</title>
<g id="a_node20"><a xlink:href="classtvm_1_1relax_1_1DataflowVarPatternNode.html" target="_top" xlink:title="A Pattern to Match a Relax Dataflow Variable. ">
<polygon fill="#ffffff" stroke="#000000" points="3517,-.5 3517,-57.5 3726,-57.5 3726,-.5 3517,-.5"/>
<text text-anchor="middle" x="3621.5" y="-45.5" font-family="Helvetica,sans-Serif" font-size="10.00" fill="#000000">tvm::relax::DataflowVarPatternNode</text>
<polyline fill="none" stroke="#000000" points="3517,-38.5 3726,-38.5 "/>
<text text-anchor="start" x="3525" y="-26.5" font-family="Helvetica,sans-Serif" font-size="10.00" fill="#000000">+ _type_key</text>
<polyline fill="none" stroke="#000000" points="3517,-19.5 3726,-19.5 "/>
<text text-anchor="start" x="3525" y="-7.5" font-family="Helvetica,sans-Serif" font-size="10.00" fill="#000000">+ TVM_DECLARE_FINAL_OBJECT_INFO()</text>
</a>
</g>
</g>
<!-- Node18&#45;&gt;Node19 -->
<g id="edge19" class="edge">
<title>Node18&#45;&gt;Node19</title>
<path fill="none" stroke="#191970" d="M3683.8667,-92.4609C3672.1606,-80.5494 3660.1499,-68.328 3649.8331,-57.8302"/>
<polygon fill="none" stroke="#191970" points="3681.5925,-95.1402 3691.0982,-99.8192 3686.5852,-90.2336 3681.5925,-95.1402"/>
</g>
<!-- Node20 -->
<g id="node21" class="node">
<title>Node20</title>
<g id="a_node21"><a xlink:href="classtvm_1_1relax_1_1GlobalVarPatternNode.html" target="_top" xlink:title="A Pattern to Match a Relax Global Variable. ">
<polygon fill="#ffffff" stroke="#000000" points="3744,-.5 3744,-57.5 3953,-57.5 3953,-.5 3744,-.5"/>
<text text-anchor="middle" x="3848.5" y="-45.5" font-family="Helvetica,sans-Serif" font-size="10.00" fill="#000000">tvm::relax::GlobalVarPatternNode</text>
<polyline fill="none" stroke="#000000" points="3744,-38.5 3953,-38.5 "/>
<text text-anchor="start" x="3752" y="-26.5" font-family="Helvetica,sans-Serif" font-size="10.00" fill="#000000">+ _type_key</text>
<polyline fill="none" stroke="#000000" points="3744,-19.5 3953,-19.5 "/>
<text text-anchor="start" x="3752" y="-7.5" font-family="Helvetica,sans-Serif" font-size="10.00" fill="#000000">+ TVM_DECLARE_FINAL_OBJECT_INFO()</text>
</a>
</g>
</g>
<!-- Node18&#45;&gt;Node20 -->
<g id="edge20" class="edge">
<title>Node18&#45;&gt;Node20</title>
<path fill="none" stroke="#191970" d="M3786.6804,-92.4609C3798.2838,-80.5494 3810.1891,-68.328 3820.4154,-57.8302"/>
<polygon fill="none" stroke="#191970" points="3783.9831,-90.2138 3779.5123,-99.8192 3788.9973,-95.0984 3783.9831,-90.2138"/>
</g>
</g>
</svg>
