<?xml version="1.0" encoding="UTF-8" standalone="no"?>
<!DOCTYPE svg PUBLIC "-//W3C//DTD SVG 1.1//EN"
 "http://www.w3.org/Graphics/SVG/1.1/DTD/svg11.dtd">
<!-- Generated by graphviz version 2.40.1 (20161225.0304)
 -->
<!-- Title: tvm::runtime::Closure Pages: 1 -->
<svg width="520pt" height="485pt"
 viewBox="0.00 0.00 519.50 485.00" xmlns="http://www.w3.org/2000/svg" xmlns:xlink="http://www.w3.org/1999/xlink">
<g id="graph0" class="graph" transform="scale(1 1) rotate(0) translate(4 481)">
<title>tvm::runtime::Closure</title>
<polygon fill="#ffffff" stroke="transparent" points="-4,4 -4,-481 515.5,-481 515.5,4 -4,4"/>
<!-- Node0 -->
<g id="node1" class="node">
<title>Node0</title>
<polygon fill="#bfbfbf" stroke="#000000" points="179.5,-138.5 179.5,-206.5 333.5,-206.5 333.5,-138.5 179.5,-138.5"/>
<text text-anchor="middle" x="256.5" y="-194.5" font-family="Helvetica,sans-Serif" font-size="10.00" fill="#000000">tvm::runtime::Closure</text>
<polyline fill="none" stroke="#000000" points="179.5,-187.5 333.5,-187.5 "/>
<text text-anchor="middle" x="256.5" y="-175.5" font-family="Helvetica,sans-Serif" font-size="10.00" fill="#000000"> </text>
<polyline fill="none" stroke="#000000" points="179.5,-168.5 333.5,-168.5 "/>
<text text-anchor="start" x="187.5" y="-156.5" font-family="Helvetica,sans-Serif" font-size="10.00" fill="#000000">+ TVM_DEFINE_OBJECT_REF</text>
<text text-anchor="start" x="187.5" y="-145.5" font-family="Helvetica,sans-Serif" font-size="10.00" fill="#000000">_METHODS()</text>
</g>
<!-- Node2 -->
<g id="node3" class="node">
<title>Node2</title>
<g id="a_node3"><a xlink:href="classtvm_1_1relay_1_1InterpreterClosure.html" target="_top" xlink:title="{tvm::relay::InterpreterClosure\n||+ InterpreterClosure()\l+ TVM_DEFINE_OBJECT_REF\l_METHODS()\l}">
<polygon fill="#ffffff" stroke="#000000" points="0,-11.5 0,-90.5 161,-90.5 161,-11.5 0,-11.5"/>
<text text-anchor="middle" x="80.5" y="-78.5" font-family="Helvetica,sans-Serif" font-size="10.00" fill="#000000">tvm::relay::InterpreterClosure</text>
<polyline fill="none" stroke="#000000" points="0,-71.5 161,-71.5 "/>
<text text-anchor="middle" x="80.5" y="-59.5" font-family="Helvetica,sans-Serif" font-size="10.00" fill="#000000"> </text>
<polyline fill="none" stroke="#000000" points="0,-52.5 161,-52.5 "/>
<text text-anchor="start" x="8" y="-40.5" font-family="Helvetica,sans-Serif" font-size="10.00" fill="#000000">+ InterpreterClosure()</text>
<text text-anchor="start" x="8" y="-29.5" font-family="Helvetica,sans-Serif" font-size="10.00" fill="#000000">+ TVM_DEFINE_OBJECT_REF</text>
<text text-anchor="start" x="8" y="-18.5" font-family="Helvetica,sans-Serif" font-size="10.00" fill="#000000">_METHODS()</text>
</a>
</g>
</g>
<!-- Node0&#45;&gt;Node2 -->
<g id="edge2" class="edge">
<title>Node0&#45;&gt;Node2</title>
<path fill="none" stroke="#191970" d="M198.5345,-132.484C179.091,-119.0614 157.4247,-104.1043 138.0157,-90.7055"/>
<polygon fill="none" stroke="#191970" points="196.7879,-135.5313 207.0058,-138.3321 200.7647,-129.7706 196.7879,-135.5313"/>
</g>
<!-- Node3 -->
<g id="node4" class="node">
<title>Node3</title>
<g id="a_node4"><a xlink:href="classtvm_1_1runtime_1_1relax__vm_1_1VMClosure.html" target="_top" xlink:title="reference to closure. ">
<polygon fill="#ffffff" stroke="#000000" points="179.5,-.5 179.5,-101.5 333.5,-101.5 333.5,-.5 179.5,-.5"/>
<text text-anchor="start" x="187.5" y="-89.5" font-family="Helvetica,sans-Serif" font-size="10.00" fill="#000000">tvm::runtime::relax</text>
<text text-anchor="middle" x="256.5" y="-78.5" font-family="Helvetica,sans-Serif" font-size="10.00" fill="#000000">_vm::VMClosure</text>
<polyline fill="none" stroke="#000000" points="179.5,-71.5 333.5,-71.5 "/>
<text text-anchor="middle" x="256.5" y="-59.5" font-family="Helvetica,sans-Serif" font-size="10.00" fill="#000000"> </text>
<polyline fill="none" stroke="#000000" points="179.5,-52.5 333.5,-52.5 "/>
<text text-anchor="start" x="187.5" y="-40.5" font-family="Helvetica,sans-Serif" font-size="10.00" fill="#000000">+ VMClosure()</text>
<text text-anchor="start" x="187.5" y="-29.5" font-family="Helvetica,sans-Serif" font-size="10.00" fill="#000000">+ TVM_DEFINE_OBJECT_REF</text>
<text text-anchor="start" x="187.5" y="-18.5" font-family="Helvetica,sans-Serif" font-size="10.00" fill="#000000">_METHODS()</text>
<text text-anchor="start" x="187.5" y="-7.5" font-family="Helvetica,sans-Serif" font-size="10.00" fill="#000000">+ BindLastArgs()</text>
</a>
</g>
</g>
<!-- Node0&#45;&gt;Node3 -->
<g id="edge3" class="edge">
<title>Node0&#45;&gt;Node3</title>
<path fill="none" stroke="#191970" d="M256.5,-128.1349C256.5,-119.5408 256.5,-110.474 256.5,-101.6952"/>
<polygon fill="none" stroke="#191970" points="253.0001,-128.3321 256.5,-138.3321 260.0001,-128.3322 253.0001,-128.3321"/>
</g>
<!-- Node4 -->
<g id="node5" class="node">
<title>Node4</title>
<g id="a_node5"><a xlink:href="classtvm_1_1runtime_1_1vm_1_1VMClosure.html" target="_top" xlink:title="reference to closure. ">
<polygon fill="#ffffff" stroke="#000000" points="351.5,-11.5 351.5,-90.5 511.5,-90.5 511.5,-11.5 351.5,-11.5"/>
<text text-anchor="middle" x="431.5" y="-78.5" font-family="Helvetica,sans-Serif" font-size="10.00" fill="#000000">tvm::runtime::vm::VMClosure</text>
<polyline fill="none" stroke="#000000" points="351.5,-71.5 511.5,-71.5 "/>
<text text-anchor="middle" x="431.5" y="-59.5" font-family="Helvetica,sans-Serif" font-size="10.00" fill="#000000"> </text>
<polyline fill="none" stroke="#000000" points="351.5,-52.5 511.5,-52.5 "/>
<text text-anchor="start" x="359.5" y="-40.5" font-family="Helvetica,sans-Serif" font-size="10.00" fill="#000000">+ VMClosure()</text>
<text text-anchor="start" x="359.5" y="-29.5" font-family="Helvetica,sans-Serif" font-size="10.00" fill="#000000">+ TVM_DEFINE_OBJECT_REF</text>
<text text-anchor="start" x="359.5" y="-18.5" font-family="Helvetica,sans-Serif" font-size="10.00" fill="#000000">_METHODS()</text>
</a>
</g>
</g>
<!-- Node0&#45;&gt;Node4 -->
<g id="edge4" class="edge">
<title>Node0&#45;&gt;Node4</title>
<path fill="none" stroke="#191970" d="M314.1362,-132.484C333.4692,-119.0614 355.0124,-104.1043 374.311,-90.7055"/>
<polygon fill="none" stroke="#191970" points="311.9312,-129.754 305.713,-138.3321 315.9234,-135.504 311.9312,-129.754"/>
</g>
<!-- Node1 -->
<g id="node2" class="node">
<title>Node1</title>
<g id="a_node2"><a xlink:href="classtvm_1_1runtime_1_1ObjectRef.html" target="_top" xlink:title="Base class of all object reference. ">
<polygon fill="#ffffff" stroke="#000000" points="189.5,-243.5 189.5,-476.5 323.5,-476.5 323.5,-243.5 189.5,-243.5"/>
<text text-anchor="middle" x="256.5" y="-464.5" font-family="Helvetica,sans-Serif" font-size="10.00" fill="#000000">tvm::runtime::ObjectRef</text>
<polyline fill="none" stroke="#000000" points="189.5,-457.5 323.5,-457.5 "/>
<text text-anchor="start" x="197.5" y="-445.5" font-family="Helvetica,sans-Serif" font-size="10.00" fill="#000000">+ _type_is_nullable</text>
<text text-anchor="start" x="197.5" y="-434.5" font-family="Helvetica,sans-Serif" font-size="10.00" fill="#000000"># data_</text>
<polyline fill="none" stroke="#000000" points="189.5,-427.5 323.5,-427.5 "/>
<text text-anchor="start" x="197.5" y="-415.5" font-family="Helvetica,sans-Serif" font-size="10.00" fill="#000000">+ ObjectRef()</text>
<text text-anchor="start" x="197.5" y="-404.5" font-family="Helvetica,sans-Serif" font-size="10.00" fill="#000000">+ ObjectRef()</text>
<text text-anchor="start" x="197.5" y="-393.5" font-family="Helvetica,sans-Serif" font-size="10.00" fill="#000000">+ same_as()</text>
<text text-anchor="start" x="197.5" y="-382.5" font-family="Helvetica,sans-Serif" font-size="10.00" fill="#000000">+ operator==()</text>
<text text-anchor="start" x="197.5" y="-371.5" font-family="Helvetica,sans-Serif" font-size="10.00" fill="#000000">+ operator!=()</text>
<text text-anchor="start" x="197.5" y="-360.5" font-family="Helvetica,sans-Serif" font-size="10.00" fill="#000000">+ operator&lt;()</text>
<text text-anchor="start" x="197.5" y="-349.5" font-family="Helvetica,sans-Serif" font-size="10.00" fill="#000000">+ defined()</text>
<text text-anchor="start" x="197.5" y="-338.5" font-family="Helvetica,sans-Serif" font-size="10.00" fill="#000000">+ get()</text>
<text text-anchor="start" x="197.5" y="-327.5" font-family="Helvetica,sans-Serif" font-size="10.00" fill="#000000">+ operator&#45;&gt;()</text>
<text text-anchor="start" x="197.5" y="-316.5" font-family="Helvetica,sans-Serif" font-size="10.00" fill="#000000">+ unique()</text>
<text text-anchor="start" x="197.5" y="-305.5" font-family="Helvetica,sans-Serif" font-size="10.00" fill="#000000">+ use_count()</text>
<text text-anchor="start" x="197.5" y="-294.5" font-family="Helvetica,sans-Serif" font-size="10.00" fill="#000000">+ as()</text>
<text text-anchor="start" x="197.5" y="-283.5" font-family="Helvetica,sans-Serif" font-size="10.00" fill="#000000"># get_mutable()</text>
<text text-anchor="start" x="197.5" y="-272.5" font-family="Helvetica,sans-Serif" font-size="10.00" fill="#000000"># DowncastNoCheck()</text>
<text text-anchor="start" x="197.5" y="-261.5" font-family="Helvetica,sans-Serif" font-size="10.00" fill="#000000"># FFIClearAfterMove()</text>
<text text-anchor="start" x="197.5" y="-250.5" font-family="Helvetica,sans-Serif" font-size="10.00" fill="#000000"># GetDataPtr()</text>
</a>
</g>
</g>
<!-- Node1&#45;&gt;Node0 -->
<g id="edge1" class="edge">
<title>Node1&#45;&gt;Node0</title>
<path fill="none" stroke="#191970" d="M256.5,-233.2822C256.5,-223.749 256.5,-214.737 256.5,-206.7166"/>
<polygon fill="none" stroke="#191970" points="253.0001,-233.3857 256.5,-243.3857 260.0001,-233.3857 253.0001,-233.3857"/>
</g>
</g>
</svg>
