<?xml version="1.0" encoding="UTF-8" standalone="no"?>
<!DOCTYPE svg PUBLIC "-//W3C//DTD SVG 1.1//EN"
 "http://www.w3.org/Graphics/SVG/1.1/DTD/svg11.dtd">
<!-- Generated by graphviz version 2.40.1 (20161225.0304)
 -->
<!-- Title: tvm::tir::PrimFuncNode Pages: 1 -->
<svg width="1099pt" height="2005pt"
 viewBox="0.00 0.00 1099.00 2005.00" xmlns="http://www.w3.org/2000/svg" xmlns:xlink="http://www.w3.org/1999/xlink">
<g id="graph0" class="graph" transform="scale(1 1) rotate(0) translate(4 2001)">
<title>tvm::tir::PrimFuncNode</title>
<polygon fill="#ffffff" stroke="transparent" points="-4,4 -4,-2001 1095,-2001 1095,4 -4,4"/>
<!-- Node5 -->
<g id="node1" class="node">
<title>Node5</title>
<polygon fill="#bfbfbf" stroke="#000000" points="739.5,-.5 739.5,-101.5 948.5,-101.5 948.5,-.5 739.5,-.5"/>
<text text-anchor="middle" x="844" y="-89.5" font-family="Helvetica,sans-Serif" font-size="10.00" fill="#000000">tvm::tir::PrimFuncNode</text>
<polyline fill="none" stroke="#000000" points="739.5,-82.5 948.5,-82.5 "/>
<text text-anchor="start" x="747.5" y="-70.5" font-family="Helvetica,sans-Serif" font-size="10.00" fill="#000000">+ _type_key</text>
<polyline fill="none" stroke="#000000" points="739.5,-63.5 948.5,-63.5 "/>
<text text-anchor="start" x="747.5" y="-51.5" font-family="Helvetica,sans-Serif" font-size="10.00" fill="#000000">+ VisitAttrs()</text>
<text text-anchor="start" x="747.5" y="-40.5" font-family="Helvetica,sans-Serif" font-size="10.00" fill="#000000">+ SEqualReduce()</text>
<text text-anchor="start" x="747.5" y="-29.5" font-family="Helvetica,sans-Serif" font-size="10.00" fill="#000000">+ SHashReduce()</text>
<text text-anchor="start" x="747.5" y="-18.5" font-family="Helvetica,sans-Serif" font-size="10.00" fill="#000000">+ func_type_annotation()</text>
<text text-anchor="start" x="747.5" y="-7.5" font-family="Helvetica,sans-Serif" font-size="10.00" fill="#000000">+ TVM_DECLARE_FINAL_OBJECT_INFO()</text>
</g>
<!-- Node6 -->
<g id="node2" class="node">
<title>Node6</title>
<g id="a_node2"><a xlink:href="classtvm_1_1BaseFuncNode.html" target="_top" xlink:title="Base node of all functions. ">
<polygon fill="#ffffff" stroke="#000000" points="600.5,-139.5 600.5,-251.5 807.5,-251.5 807.5,-139.5 600.5,-139.5"/>
<text text-anchor="middle" x="704" y="-239.5" font-family="Helvetica,sans-Serif" font-size="10.00" fill="#000000">tvm::BaseFuncNode</text>
<polyline fill="none" stroke="#000000" points="600.5,-232.5 807.5,-232.5 "/>
<text text-anchor="start" x="608.5" y="-220.5" font-family="Helvetica,sans-Serif" font-size="10.00" fill="#000000">+ _type_key</text>
<text text-anchor="start" x="608.5" y="-209.5" font-family="Helvetica,sans-Serif" font-size="10.00" fill="#000000">+ _type_child_slots</text>
<polyline fill="none" stroke="#000000" points="600.5,-202.5 807.5,-202.5 "/>
<text text-anchor="start" x="608.5" y="-190.5" font-family="Helvetica,sans-Serif" font-size="10.00" fill="#000000">+ GetAttr()</text>
<text text-anchor="start" x="608.5" y="-179.5" font-family="Helvetica,sans-Serif" font-size="10.00" fill="#000000">+ GetAttr()</text>
<text text-anchor="start" x="608.5" y="-168.5" font-family="Helvetica,sans-Serif" font-size="10.00" fill="#000000">+ HasNonzeroAttr()</text>
<text text-anchor="start" x="608.5" y="-157.5" font-family="Helvetica,sans-Serif" font-size="10.00" fill="#000000">+ GetLinkageType()</text>
<text text-anchor="start" x="608.5" y="-146.5" font-family="Helvetica,sans-Serif" font-size="10.00" fill="#000000">+ TVM_DECLARE_BASE_OBJECT_INFO()</text>
</a>
</g>
</g>
<!-- Node6&#45;&gt;Node5 -->
<g id="edge1" class="edge">
<title>Node6&#45;&gt;Node5</title>
<path fill="none" stroke="#191970" d="M765.608,-131.9117C775.3998,-121.8052 785.4139,-111.4693 794.8688,-101.7104"/>
<polygon fill="none" stroke="#191970" points="762.9732,-129.6013 758.5285,-139.2188 768.0006,-134.4722 762.9732,-129.6013"/>
</g>
<!-- Node7 -->
<g id="node3" class="node">
<title>Node7</title>
<g id="a_node3"><a xlink:href="classtvm_1_1RelayExprNode.html" target="_top" xlink:title="Base node of all non&#45;primitive expressions. ">
<polygon fill="#ffffff" stroke="#000000" points="143.5,-467.5 143.5,-568.5 350.5,-568.5 350.5,-467.5 143.5,-467.5"/>
<text text-anchor="middle" x="247" y="-556.5" font-family="Helvetica,sans-Serif" font-size="10.00" fill="#000000">tvm::RelayExprNode</text>
<polyline fill="none" stroke="#000000" points="143.5,-549.5 350.5,-549.5 "/>
<text text-anchor="start" x="151.5" y="-537.5" font-family="Helvetica,sans-Serif" font-size="10.00" fill="#000000">+ _type_key</text>
<text text-anchor="start" x="151.5" y="-526.5" font-family="Helvetica,sans-Serif" font-size="10.00" fill="#000000">+ _type_child_slots</text>
<polyline fill="none" stroke="#000000" points="143.5,-519.5 350.5,-519.5 "/>
<text text-anchor="start" x="151.5" y="-507.5" font-family="Helvetica,sans-Serif" font-size="10.00" fill="#000000">+ checked_type()</text>
<text text-anchor="start" x="151.5" y="-496.5" font-family="Helvetica,sans-Serif" font-size="10.00" fill="#000000">+ type_as()</text>
<text text-anchor="start" x="151.5" y="-485.5" font-family="Helvetica,sans-Serif" font-size="10.00" fill="#000000">+ virtual_device()</text>
<text text-anchor="start" x="151.5" y="-474.5" font-family="Helvetica,sans-Serif" font-size="10.00" fill="#000000">+ TVM_DECLARE_BASE_OBJECT_INFO()</text>
</a>
</g>
</g>
<!-- Node7&#45;&gt;Node6 -->
<g id="edge2" class="edge">
<title>Node7&#45;&gt;Node6</title>
<path fill="none" stroke="#191970" d="M326.8468,-461.653C410.4188,-402.6771 540.8636,-310.6236 624.3587,-251.702"/>
<polygon fill="none" stroke="#191970" points="324.8099,-458.8066 318.6575,-467.4321 328.8459,-464.5259 324.8099,-458.8066"/>
</g>
<!-- Node8 -->
<g id="node4" class="node">
<title>Node8</title>
<g id="a_node4"><a xlink:href="classtvm_1_1BaseExprNode.html" target="_top" xlink:title="Base type of all the expressions. ">
<polygon fill="#ffffff" stroke="#000000" points="334.5,-795.5 334.5,-907.5 541.5,-907.5 541.5,-795.5 334.5,-795.5"/>
<text text-anchor="middle" x="438" y="-895.5" font-family="Helvetica,sans-Serif" font-size="10.00" fill="#000000">tvm::BaseExprNode</text>
<polyline fill="none" stroke="#000000" points="334.5,-888.5 541.5,-888.5 "/>
<text text-anchor="start" x="342.5" y="-876.5" font-family="Helvetica,sans-Serif" font-size="10.00" fill="#000000">+ _type_key</text>
<text text-anchor="start" x="342.5" y="-865.5" font-family="Helvetica,sans-Serif" font-size="10.00" fill="#000000">+ _type_has_method_sequal</text>
<text text-anchor="start" x="342.5" y="-854.5" font-family="Helvetica,sans-Serif" font-size="10.00" fill="#000000">_reduce</text>
<text text-anchor="start" x="342.5" y="-843.5" font-family="Helvetica,sans-Serif" font-size="10.00" fill="#000000">+ _type_has_method_shash</text>
<text text-anchor="start" x="342.5" y="-832.5" font-family="Helvetica,sans-Serif" font-size="10.00" fill="#000000">_reduce</text>
<text text-anchor="start" x="342.5" y="-821.5" font-family="Helvetica,sans-Serif" font-size="10.00" fill="#000000">+ _type_child_slots</text>
<polyline fill="none" stroke="#000000" points="334.5,-814.5 541.5,-814.5 "/>
<text text-anchor="start" x="342.5" y="-802.5" font-family="Helvetica,sans-Serif" font-size="10.00" fill="#000000">+ TVM_DECLARE_BASE_OBJECT_INFO()</text>
</a>
</g>
</g>
<!-- Node8&#45;&gt;Node7 -->
<g id="edge3" class="edge">
<title>Node8&#45;&gt;Node7</title>
<path fill="none" stroke="#191970" d="M400.7922,-786.5324C364.2979,-722.8108 309.4108,-626.9738 276.0268,-568.683"/>
<polygon fill="none" stroke="#191970" points="397.8084,-788.3652 405.8154,-795.3034 403.8828,-784.8863 397.8084,-788.3652"/>
</g>
<!-- Node9 -->
<g id="node5" class="node">
<title>Node9</title>
<g id="a_node5"><a xlink:href="classtvm_1_1runtime_1_1Object.html" target="_top" xlink:title="base class of all object containers. ">
<polygon fill="#ffffff" stroke="#000000" points="384.5,-1123.5 384.5,-1510.5 567.5,-1510.5 567.5,-1123.5 384.5,-1123.5"/>
<text text-anchor="middle" x="476" y="-1498.5" font-family="Helvetica,sans-Serif" font-size="10.00" fill="#000000">tvm::runtime::Object</text>
<polyline fill="none" stroke="#000000" points="384.5,-1491.5 567.5,-1491.5 "/>
<text text-anchor="start" x="392.5" y="-1479.5" font-family="Helvetica,sans-Serif" font-size="10.00" fill="#000000">+ _type_key</text>
<text text-anchor="start" x="392.5" y="-1468.5" font-family="Helvetica,sans-Serif" font-size="10.00" fill="#000000">+ _type_final</text>
<text text-anchor="start" x="392.5" y="-1457.5" font-family="Helvetica,sans-Serif" font-size="10.00" fill="#000000">+ _type_child_slots</text>
<text text-anchor="start" x="392.5" y="-1446.5" font-family="Helvetica,sans-Serif" font-size="10.00" fill="#000000">+ _type_child_slots_can</text>
<text text-anchor="start" x="392.5" y="-1435.5" font-family="Helvetica,sans-Serif" font-size="10.00" fill="#000000">_overflow</text>
<text text-anchor="start" x="392.5" y="-1424.5" font-family="Helvetica,sans-Serif" font-size="10.00" fill="#000000">+ _type_has_method_visit</text>
<text text-anchor="start" x="392.5" y="-1413.5" font-family="Helvetica,sans-Serif" font-size="10.00" fill="#000000">_attrs</text>
<text text-anchor="start" x="392.5" y="-1402.5" font-family="Helvetica,sans-Serif" font-size="10.00" fill="#000000">+ _type_has_method_sequal</text>
<text text-anchor="start" x="392.5" y="-1391.5" font-family="Helvetica,sans-Serif" font-size="10.00" fill="#000000">_reduce</text>
<text text-anchor="start" x="392.5" y="-1380.5" font-family="Helvetica,sans-Serif" font-size="10.00" fill="#000000">+ _type_has_method_shash</text>
<text text-anchor="start" x="392.5" y="-1369.5" font-family="Helvetica,sans-Serif" font-size="10.00" fill="#000000">_reduce</text>
<text text-anchor="start" x="392.5" y="-1358.5" font-family="Helvetica,sans-Serif" font-size="10.00" fill="#000000">+ _type_index</text>
<text text-anchor="start" x="392.5" y="-1347.5" font-family="Helvetica,sans-Serif" font-size="10.00" fill="#000000"># type_index_</text>
<text text-anchor="start" x="392.5" y="-1336.5" font-family="Helvetica,sans-Serif" font-size="10.00" fill="#000000"># ref_counter_</text>
<polyline fill="none" stroke="#000000" points="384.5,-1329.5 567.5,-1329.5 "/>
<text text-anchor="start" x="392.5" y="-1317.5" font-family="Helvetica,sans-Serif" font-size="10.00" fill="#000000">+ type_index()</text>
<text text-anchor="start" x="392.5" y="-1306.5" font-family="Helvetica,sans-Serif" font-size="10.00" fill="#000000">+ GetTypeKey()</text>
<text text-anchor="start" x="392.5" y="-1295.5" font-family="Helvetica,sans-Serif" font-size="10.00" fill="#000000">+ GetTypeKeyHash()</text>
<text text-anchor="start" x="392.5" y="-1284.5" font-family="Helvetica,sans-Serif" font-size="10.00" fill="#000000">+ IsInstance()</text>
<text text-anchor="start" x="392.5" y="-1273.5" font-family="Helvetica,sans-Serif" font-size="10.00" fill="#000000">+ unique()</text>
<text text-anchor="start" x="392.5" y="-1262.5" font-family="Helvetica,sans-Serif" font-size="10.00" fill="#000000">+ Object()</text>
<text text-anchor="start" x="392.5" y="-1251.5" font-family="Helvetica,sans-Serif" font-size="10.00" fill="#000000">+ Object()</text>
<text text-anchor="start" x="392.5" y="-1240.5" font-family="Helvetica,sans-Serif" font-size="10.00" fill="#000000">+ Object()</text>
<text text-anchor="start" x="392.5" y="-1229.5" font-family="Helvetica,sans-Serif" font-size="10.00" fill="#000000">+ operator=()</text>
<text text-anchor="start" x="392.5" y="-1218.5" font-family="Helvetica,sans-Serif" font-size="10.00" fill="#000000">+ operator=()</text>
<text text-anchor="start" x="392.5" y="-1207.5" font-family="Helvetica,sans-Serif" font-size="10.00" fill="#000000">+ TypeIndex2Key()</text>
<text text-anchor="start" x="392.5" y="-1196.5" font-family="Helvetica,sans-Serif" font-size="10.00" fill="#000000">+ TypeIndex2KeyHash()</text>
<text text-anchor="start" x="392.5" y="-1185.5" font-family="Helvetica,sans-Serif" font-size="10.00" fill="#000000">+ TypeKey2Index()</text>
<text text-anchor="start" x="392.5" y="-1174.5" font-family="Helvetica,sans-Serif" font-size="10.00" fill="#000000">+ _GetOrAllocRuntimeTypeIndex()</text>
<text text-anchor="start" x="392.5" y="-1163.5" font-family="Helvetica,sans-Serif" font-size="10.00" fill="#000000">+ RuntimeTypeIndex()</text>
<text text-anchor="start" x="392.5" y="-1152.5" font-family="Helvetica,sans-Serif" font-size="10.00" fill="#000000"># IncRef()</text>
<text text-anchor="start" x="392.5" y="-1141.5" font-family="Helvetica,sans-Serif" font-size="10.00" fill="#000000"># DecRef()</text>
<text text-anchor="start" x="392.5" y="-1130.5" font-family="Helvetica,sans-Serif" font-size="10.00" fill="#000000"># GetOrAllocRuntimeTypeIndex()</text>
</a>
</g>
</g>
<!-- Node9&#45;&gt;Node8 -->
<g id="edge4" class="edge">
<title>Node9&#45;&gt;Node8</title>
<path fill="none" stroke="#191970" d="M473.8567,-1113.2783C471.1333,-1052.7557 466.0871,-986.4804 457,-926 456.1075,-920.0601 454.9417,-913.9064 453.6263,-907.7977"/>
<polygon fill="none" stroke="#191970" points="470.3625,-1113.4909 474.2903,-1123.3308 477.356,-1113.1892 470.3625,-1113.4909"/>
</g>
<!-- Node9&#45;&gt;Node9 -->
<g id="edge5" class="edge">
<title>Node9&#45;&gt;Node9</title>
<path fill="none" stroke="#404040" d="M567.8625,-1350.9248C578.5482,-1344.6637 585.5,-1333.3555 585.5,-1317 585.5,-1306.0112 582.3618,-1297.3007 577.0615,-1290.8687"/>
<polygon fill="none" stroke="#404040" points="577.0184,-1290.8322 569.8548,-1290.0056 567.8625,-1283.0752 575.0261,-1283.9017 577.0184,-1290.8322"/>
<text text-anchor="middle" x="611.5" y="-1314.5" font-family="Helvetica,sans-Serif" font-size="10.00" fill="#000000"> #deleter_</text>
</g>
<!-- Node10 -->
<g id="node6" class="node">
<title>Node10</title>
<g id="a_node6"><a xlink:href="classtvm_1_1Span.html" target="_top" xlink:title="{tvm::Span\n||+ Span()\l+ Merge()\l+ TVM_DEFINE_OBJECT_REF\l_METHODS()\l}">
<polygon fill="#ffffff" stroke="#000000" points="212,-1272 212,-1362 366,-1362 366,-1272 212,-1272"/>
<text text-anchor="middle" x="289" y="-1350" font-family="Helvetica,sans-Serif" font-size="10.00" fill="#000000">tvm::Span</text>
<polyline fill="none" stroke="#000000" points="212,-1343 366,-1343 "/>
<text text-anchor="middle" x="289" y="-1331" font-family="Helvetica,sans-Serif" font-size="10.00" fill="#000000"> </text>
<polyline fill="none" stroke="#000000" points="212,-1324 366,-1324 "/>
<text text-anchor="start" x="220" y="-1312" font-family="Helvetica,sans-Serif" font-size="10.00" fill="#000000">+ Span()</text>
<text text-anchor="start" x="220" y="-1301" font-family="Helvetica,sans-Serif" font-size="10.00" fill="#000000">+ Merge()</text>
<text text-anchor="start" x="220" y="-1290" font-family="Helvetica,sans-Serif" font-size="10.00" fill="#000000">+ TVM_DEFINE_OBJECT_REF</text>
<text text-anchor="start" x="220" y="-1279" font-family="Helvetica,sans-Serif" font-size="10.00" fill="#000000">_METHODS()</text>
</a>
</g>
</g>
<!-- Node10&#45;&gt;Node8 -->
<g id="edge6" class="edge">
<title>Node10&#45;&gt;Node8</title>
<path fill="none" stroke="#404040" d="M302.3013,-1271.8464C316.0059,-1230.355 340.2765,-1168.5661 375,-1123 382.6573,-1112.9516 390.9329,-1116.0813 397,-1105 435.4676,-1034.7402 402.9093,-1004.6668 418,-926 418.3903,-923.9655 418.8064,-921.9049 419.2439,-919.8287"/>
<polygon fill="none" stroke="#404040" points="419.3074,-919.5467 416.7272,-912.8131 421.9505,-907.8414 424.5308,-914.5751 419.3074,-919.5467"/>
<text text-anchor="middle" x="435.5" y="-1013" font-family="Helvetica,sans-Serif" font-size="10.00" fill="#000000"> +span</text>
</g>
<!-- Node11 -->
<g id="node7" class="node">
<title>Node11</title>
<g id="a_node7"><a xlink:href="classtvm_1_1runtime_1_1ObjectRef.html" target="_top" xlink:title="Base class of all object reference. ">
<polygon fill="#ffffff" stroke="#000000" points="499,-1548.5 499,-1770.5 633,-1770.5 633,-1548.5 499,-1548.5"/>
<text text-anchor="middle" x="566" y="-1758.5" font-family="Helvetica,sans-Serif" font-size="10.00" fill="#000000">tvm::runtime::ObjectRef</text>
<polyline fill="none" stroke="#000000" points="499,-1751.5 633,-1751.5 "/>
<text text-anchor="start" x="507" y="-1739.5" font-family="Helvetica,sans-Serif" font-size="10.00" fill="#000000">+ _type_is_nullable</text>
<polyline fill="none" stroke="#000000" points="499,-1732.5 633,-1732.5 "/>
<text text-anchor="start" x="507" y="-1720.5" font-family="Helvetica,sans-Serif" font-size="10.00" fill="#000000">+ ObjectRef()</text>
<text text-anchor="start" x="507" y="-1709.5" font-family="Helvetica,sans-Serif" font-size="10.00" fill="#000000">+ ObjectRef()</text>
<text text-anchor="start" x="507" y="-1698.5" font-family="Helvetica,sans-Serif" font-size="10.00" fill="#000000">+ same_as()</text>
<text text-anchor="start" x="507" y="-1687.5" font-family="Helvetica,sans-Serif" font-size="10.00" fill="#000000">+ operator==()</text>
<text text-anchor="start" x="507" y="-1676.5" font-family="Helvetica,sans-Serif" font-size="10.00" fill="#000000">+ operator!=()</text>
<text text-anchor="start" x="507" y="-1665.5" font-family="Helvetica,sans-Serif" font-size="10.00" fill="#000000">+ operator&lt;()</text>
<text text-anchor="start" x="507" y="-1654.5" font-family="Helvetica,sans-Serif" font-size="10.00" fill="#000000">+ defined()</text>
<text text-anchor="start" x="507" y="-1643.5" font-family="Helvetica,sans-Serif" font-size="10.00" fill="#000000">+ get()</text>
<text text-anchor="start" x="507" y="-1632.5" font-family="Helvetica,sans-Serif" font-size="10.00" fill="#000000">+ operator&#45;&gt;()</text>
<text text-anchor="start" x="507" y="-1621.5" font-family="Helvetica,sans-Serif" font-size="10.00" fill="#000000">+ unique()</text>
<text text-anchor="start" x="507" y="-1610.5" font-family="Helvetica,sans-Serif" font-size="10.00" fill="#000000">+ use_count()</text>
<text text-anchor="start" x="507" y="-1599.5" font-family="Helvetica,sans-Serif" font-size="10.00" fill="#000000">+ as()</text>
<text text-anchor="start" x="507" y="-1588.5" font-family="Helvetica,sans-Serif" font-size="10.00" fill="#000000"># get_mutable()</text>
<text text-anchor="start" x="507" y="-1577.5" font-family="Helvetica,sans-Serif" font-size="10.00" fill="#000000"># DowncastNoCheck()</text>
<text text-anchor="start" x="507" y="-1566.5" font-family="Helvetica,sans-Serif" font-size="10.00" fill="#000000"># FFIClearAfterMove()</text>
<text text-anchor="start" x="507" y="-1555.5" font-family="Helvetica,sans-Serif" font-size="10.00" fill="#000000"># GetDataPtr()</text>
</a>
</g>
</g>
<!-- Node11&#45;&gt;Node7 -->
<g id="edge9" class="edge">
<title>Node11&#45;&gt;Node7</title>
<path fill="none" stroke="#404040" d="M498.7305,-1644.1056C395.517,-1618.994 205.8085,-1566.4282 166,-1511 60.5556,-1364.1822 147.3357,-1285.6807 142,-1105 139.6517,-1025.4791 108.7572,-998.2772 142,-926 147.1366,-914.8319 156.7436,-918.5815 163,-908 237.1756,-782.5469 197.6736,-729.1109 230,-587 230.4819,-584.8816 230.9779,-582.7281 231.4839,-580.5545"/>
<polygon fill="none" stroke="#404040" points="231.4969,-580.4992 228.986,-573.7393 234.2602,-568.8216 236.771,-575.5815 231.4969,-580.4992"/>
<text text-anchor="middle" x="185" y="-1013" font-family="Helvetica,sans-Serif" font-size="10.00" fill="#000000"> +virtual_device_</text>
</g>
<!-- Node11&#45;&gt;Node10 -->
<g id="edge7" class="edge">
<title>Node11&#45;&gt;Node10</title>
<path fill="none" stroke="#191970" d="M489.9734,-1613.3781C451.6085,-1587.1352 406.6295,-1551.4526 375,-1511 339.7126,-1465.8692 315.5632,-1403.9868 302.0406,-1362.3548"/>
<polygon fill="none" stroke="#191970" points="488.3086,-1616.477 498.5559,-1619.1684 492.2236,-1610.6741 488.3086,-1616.477"/>
</g>
<!-- Node13 -->
<g id="node9" class="node">
<title>Node13</title>
<g id="a_node9"><a xlink:href="classtvm_1_1Type.html" target="_top" xlink:title="Managed reference to TypeNode. ">
<polygon fill="#ffffff" stroke="#000000" points="0,-817.5 0,-885.5 154,-885.5 154,-817.5 0,-817.5"/>
<text text-anchor="middle" x="77" y="-873.5" font-family="Helvetica,sans-Serif" font-size="10.00" fill="#000000">tvm::Type</text>
<polyline fill="none" stroke="#000000" points="0,-866.5 154,-866.5 "/>
<text text-anchor="middle" x="77" y="-854.5" font-family="Helvetica,sans-Serif" font-size="10.00" fill="#000000"> </text>
<polyline fill="none" stroke="#000000" points="0,-847.5 154,-847.5 "/>
<text text-anchor="start" x="8" y="-835.5" font-family="Helvetica,sans-Serif" font-size="10.00" fill="#000000">+ TVM_DEFINE_OBJECT_REF</text>
<text text-anchor="start" x="8" y="-824.5" font-family="Helvetica,sans-Serif" font-size="10.00" fill="#000000">_METHODS()</text>
</a>
</g>
</g>
<!-- Node11&#45;&gt;Node13 -->
<g id="edge11" class="edge">
<title>Node11&#45;&gt;Node13</title>
<path fill="none" stroke="#191970" d="M489.0277,-1647.1545C376.8771,-1627.4881 176.9812,-1585.5275 132,-1530 -26.6367,-1334.1696 40.8532,-993.7832 67.8176,-885.5604"/>
<polygon fill="none" stroke="#191970" points="488.4845,-1650.6125 498.9357,-1648.874 489.6815,-1643.7156 488.4845,-1650.6125"/>
</g>
<!-- Node14 -->
<g id="node10" class="node">
<title>Node14</title>
<g id="a_node10"><a xlink:href="classtvm_1_1runtime_1_1Optional.html" target="_top" xlink:title="{tvm::runtime::Optional\l\&lt; tvm::runtime::ObjectRef \&gt;\n|+ _type_is_nullable\l|+ Optional()\l+ Optional()\l+ Optional()\l+ Optional()\l+ Optional()\l+ Optional()\l+ Optional()\l+ Optional()\l+ operator=()\l+ operator=()\land 15 more...\l}">
<polygon fill="#ffffff" stroke="#000000" points="237,-926.5 237,-1104.5 393,-1104.5 393,-926.5 237,-926.5"/>
<text text-anchor="start" x="245" y="-1092.5" font-family="Helvetica,sans-Serif" font-size="10.00" fill="#000000">tvm::runtime::Optional</text>
<text text-anchor="middle" x="315" y="-1081.5" font-family="Helvetica,sans-Serif" font-size="10.00" fill="#000000">&lt; tvm::runtime::ObjectRef &gt;</text>
<polyline fill="none" stroke="#000000" points="237,-1074.5 393,-1074.5 "/>
<text text-anchor="start" x="245" y="-1062.5" font-family="Helvetica,sans-Serif" font-size="10.00" fill="#000000">+ _type_is_nullable</text>
<polyline fill="none" stroke="#000000" points="237,-1055.5 393,-1055.5 "/>
<text text-anchor="start" x="245" y="-1043.5" font-family="Helvetica,sans-Serif" font-size="10.00" fill="#000000">+ Optional()</text>
<text text-anchor="start" x="245" y="-1032.5" font-family="Helvetica,sans-Serif" font-size="10.00" fill="#000000">+ Optional()</text>
<text text-anchor="start" x="245" y="-1021.5" font-family="Helvetica,sans-Serif" font-size="10.00" fill="#000000">+ Optional()</text>
<text text-anchor="start" x="245" y="-1010.5" font-family="Helvetica,sans-Serif" font-size="10.00" fill="#000000">+ Optional()</text>
<text text-anchor="start" x="245" y="-999.5" font-family="Helvetica,sans-Serif" font-size="10.00" fill="#000000">+ Optional()</text>
<text text-anchor="start" x="245" y="-988.5" font-family="Helvetica,sans-Serif" font-size="10.00" fill="#000000">+ Optional()</text>
<text text-anchor="start" x="245" y="-977.5" font-family="Helvetica,sans-Serif" font-size="10.00" fill="#000000">+ Optional()</text>
<text text-anchor="start" x="245" y="-966.5" font-family="Helvetica,sans-Serif" font-size="10.00" fill="#000000">+ Optional()</text>
<text text-anchor="start" x="245" y="-955.5" font-family="Helvetica,sans-Serif" font-size="10.00" fill="#000000">+ operator=()</text>
<text text-anchor="start" x="245" y="-944.5" font-family="Helvetica,sans-Serif" font-size="10.00" fill="#000000">+ operator=()</text>
<text text-anchor="start" x="245" y="-933.5" font-family="Helvetica,sans-Serif" font-size="10.00" fill="#000000">and 15 more...</text>
</a>
</g>
</g>
<!-- Node11&#45;&gt;Node14 -->
<g id="edge13" class="edge">
<title>Node11&#45;&gt;Node14</title>
<path fill="none" stroke="#191970" d="M488.8154,-1652.5037C402.5394,-1640.0902 266.6142,-1605.7554 203,-1511 154.9406,-1439.4139 160.5184,-1198.0306 203,-1123 210.6611,-1109.4691 220.956,-1114.8347 233,-1105 234.3058,-1103.9337 235.6102,-1102.8466 236.9118,-1101.7411"/>
<polygon fill="none" stroke="#191970" points="488.4392,-1655.9848 498.8223,-1653.8775 489.3913,-1649.0499 488.4392,-1655.9848"/>
</g>
<!-- Node16 -->
<g id="node12" class="node">
<title>Node16</title>
<g id="a_node12"><a xlink:href="classtvm_1_1Attrs.html" target="_top" xlink:title="Managed reference to BaseAttrsNode. ">
<polygon fill="#ffffff" stroke="#000000" points="656,-1283 656,-1351 810,-1351 810,-1283 656,-1283"/>
<text text-anchor="middle" x="733" y="-1339" font-family="Helvetica,sans-Serif" font-size="10.00" fill="#000000">tvm::Attrs</text>
<polyline fill="none" stroke="#000000" points="656,-1332 810,-1332 "/>
<text text-anchor="middle" x="733" y="-1320" font-family="Helvetica,sans-Serif" font-size="10.00" fill="#000000"> </text>
<polyline fill="none" stroke="#000000" points="656,-1313 810,-1313 "/>
<text text-anchor="start" x="664" y="-1301" font-family="Helvetica,sans-Serif" font-size="10.00" fill="#000000">+ TVM_DEFINE_OBJECT_REF</text>
<text text-anchor="start" x="664" y="-1290" font-family="Helvetica,sans-Serif" font-size="10.00" fill="#000000">_METHODS()</text>
</a>
</g>
</g>
<!-- Node11&#45;&gt;Node16 -->
<g id="edge16" class="edge">
<title>Node11&#45;&gt;Node16</title>
<path fill="none" stroke="#191970" d="M631.6937,-1539.3171C636.6172,-1529.7783 641.4386,-1520.2564 646,-1511 673.1664,-1455.8712 701.7969,-1390.3893 718.4955,-1351.3414"/>
<polygon fill="none" stroke="#191970" points="628.4487,-1537.9717 626.9472,-1548.4596 634.6613,-1541.1971 628.4487,-1537.9717"/>
</g>
<!-- Node17 -->
<g id="node13" class="node">
<title>Node17</title>
<g id="a_node13"><a xlink:href="classtvm_1_1runtime_1_1Array.html" target="_top" xlink:title="{tvm::runtime::Array\l\&lt; tvm::tir::Var \&gt;\n||+ Array()\l+ Array()\l+ Array()\l+ Array()\l+ Array()\l+ Array()\l+ Array()\l+ Array()\l+ operator=()\l+ operator=()\land 25 more...\l}">
<polygon fill="#ffffff" stroke="#000000" points="783.5,-270.5 783.5,-448.5 896.5,-448.5 896.5,-270.5 783.5,-270.5"/>
<text text-anchor="start" x="791.5" y="-436.5" font-family="Helvetica,sans-Serif" font-size="10.00" fill="#000000">tvm::runtime::Array</text>
<text text-anchor="middle" x="840" y="-425.5" font-family="Helvetica,sans-Serif" font-size="10.00" fill="#000000">&lt; tvm::tir::Var &gt;</text>
<polyline fill="none" stroke="#000000" points="783.5,-418.5 896.5,-418.5 "/>
<text text-anchor="middle" x="840" y="-406.5" font-family="Helvetica,sans-Serif" font-size="10.00" fill="#000000"> </text>
<polyline fill="none" stroke="#000000" points="783.5,-399.5 896.5,-399.5 "/>
<text text-anchor="start" x="791.5" y="-387.5" font-family="Helvetica,sans-Serif" font-size="10.00" fill="#000000">+ Array()</text>
<text text-anchor="start" x="791.5" y="-376.5" font-family="Helvetica,sans-Serif" font-size="10.00" fill="#000000">+ Array()</text>
<text text-anchor="start" x="791.5" y="-365.5" font-family="Helvetica,sans-Serif" font-size="10.00" fill="#000000">+ Array()</text>
<text text-anchor="start" x="791.5" y="-354.5" font-family="Helvetica,sans-Serif" font-size="10.00" fill="#000000">+ Array()</text>
<text text-anchor="start" x="791.5" y="-343.5" font-family="Helvetica,sans-Serif" font-size="10.00" fill="#000000">+ Array()</text>
<text text-anchor="start" x="791.5" y="-332.5" font-family="Helvetica,sans-Serif" font-size="10.00" fill="#000000">+ Array()</text>
<text text-anchor="start" x="791.5" y="-321.5" font-family="Helvetica,sans-Serif" font-size="10.00" fill="#000000">+ Array()</text>
<text text-anchor="start" x="791.5" y="-310.5" font-family="Helvetica,sans-Serif" font-size="10.00" fill="#000000">+ Array()</text>
<text text-anchor="start" x="791.5" y="-299.5" font-family="Helvetica,sans-Serif" font-size="10.00" fill="#000000">+ operator=()</text>
<text text-anchor="start" x="791.5" y="-288.5" font-family="Helvetica,sans-Serif" font-size="10.00" fill="#000000">+ operator=()</text>
<text text-anchor="start" x="791.5" y="-277.5" font-family="Helvetica,sans-Serif" font-size="10.00" fill="#000000">and 25 more...</text>
</a>
</g>
</g>
<!-- Node11&#45;&gt;Node17 -->
<g id="edge18" class="edge">
<title>Node11&#45;&gt;Node17</title>
<path fill="none" stroke="#191970" d="M642.8162,-1635.8885C701.4209,-1613.5867 778.7204,-1574.0046 819,-1511 865.6651,-1438.0072 838,-1403.6348 838,-1317 838,-1317 838,-1317 838,-682 838,-603.1931 838.6046,-513.5561 839.1489,-448.8199"/>
<polygon fill="none" stroke="#191970" points="641.3689,-1632.6923 633.212,-1639.4535 643.805,-1639.2548 641.3689,-1632.6923"/>
</g>
<!-- Node18 -->
<g id="node14" class="node">
<title>Node18</title>
<g id="a_node14"><a xlink:href="classtvm_1_1tir_1_1Stmt.html" target="_top" xlink:title="Container of all statements. ">
<polygon fill="#ffffff" stroke="#000000" points="853,-981.5 853,-1049.5 1007,-1049.5 1007,-981.5 853,-981.5"/>
<text text-anchor="middle" x="930" y="-1037.5" font-family="Helvetica,sans-Serif" font-size="10.00" fill="#000000">tvm::tir::Stmt</text>
<polyline fill="none" stroke="#000000" points="853,-1030.5 1007,-1030.5 "/>
<text text-anchor="middle" x="930" y="-1018.5" font-family="Helvetica,sans-Serif" font-size="10.00" fill="#000000"> </text>
<polyline fill="none" stroke="#000000" points="853,-1011.5 1007,-1011.5 "/>
<text text-anchor="start" x="861" y="-999.5" font-family="Helvetica,sans-Serif" font-size="10.00" fill="#000000">+ TVM_DEFINE_OBJECT_REF</text>
<text text-anchor="start" x="861" y="-988.5" font-family="Helvetica,sans-Serif" font-size="10.00" fill="#000000">_METHODS()</text>
</a>
</g>
</g>
<!-- Node11&#45;&gt;Node18 -->
<g id="edge21" class="edge">
<title>Node11&#45;&gt;Node18</title>
<path fill="none" stroke="#191970" d="M643.012,-1645.811C709.1687,-1629.8182 801.616,-1596.5475 852,-1530 964.339,-1381.622 946.3891,-1138.8898 935.0921,-1049.7327"/>
<polygon fill="none" stroke="#191970" points="641.9827,-1642.4571 633.0407,-1648.1395 643.5746,-1649.2737 641.9827,-1642.4571"/>
</g>
<!-- Node19 -->
<g id="node15" class="node">
<title>Node19</title>
<g id="a_node15"><a xlink:href="classtvm_1_1runtime_1_1Map.html" target="_top" xlink:title="{tvm::runtime::Map\&lt;\l tvm::tir::Var, tvm\l::tir::Buffer \&gt;\n||+ Map()\l+ Map()\l+ Map()\l+ Map()\l+ Map()\l+ Map()\l+ Map()\l+ operator=()\l+ operator=()\l+ at()\land 12 more...\l}">
<polygon fill="#ffffff" stroke="#000000" points="954.5,-587.5 954.5,-776.5 1069.5,-776.5 1069.5,-587.5 954.5,-587.5"/>
<text text-anchor="start" x="962.5" y="-764.5" font-family="Helvetica,sans-Serif" font-size="10.00" fill="#000000">tvm::runtime::Map&lt;</text>
<text text-anchor="start" x="962.5" y="-753.5" font-family="Helvetica,sans-Serif" font-size="10.00" fill="#000000"> tvm::tir::Var, tvm</text>
<text text-anchor="middle" x="1012" y="-742.5" font-family="Helvetica,sans-Serif" font-size="10.00" fill="#000000">::tir::Buffer &gt;</text>
<polyline fill="none" stroke="#000000" points="954.5,-735.5 1069.5,-735.5 "/>
<text text-anchor="middle" x="1012" y="-723.5" font-family="Helvetica,sans-Serif" font-size="10.00" fill="#000000"> </text>
<polyline fill="none" stroke="#000000" points="954.5,-716.5 1069.5,-716.5 "/>
<text text-anchor="start" x="962.5" y="-704.5" font-family="Helvetica,sans-Serif" font-size="10.00" fill="#000000">+ Map()</text>
<text text-anchor="start" x="962.5" y="-693.5" font-family="Helvetica,sans-Serif" font-size="10.00" fill="#000000">+ Map()</text>
<text text-anchor="start" x="962.5" y="-682.5" font-family="Helvetica,sans-Serif" font-size="10.00" fill="#000000">+ Map()</text>
<text text-anchor="start" x="962.5" y="-671.5" font-family="Helvetica,sans-Serif" font-size="10.00" fill="#000000">+ Map()</text>
<text text-anchor="start" x="962.5" y="-660.5" font-family="Helvetica,sans-Serif" font-size="10.00" fill="#000000">+ Map()</text>
<text text-anchor="start" x="962.5" y="-649.5" font-family="Helvetica,sans-Serif" font-size="10.00" fill="#000000">+ Map()</text>
<text text-anchor="start" x="962.5" y="-638.5" font-family="Helvetica,sans-Serif" font-size="10.00" fill="#000000">+ Map()</text>
<text text-anchor="start" x="962.5" y="-627.5" font-family="Helvetica,sans-Serif" font-size="10.00" fill="#000000">+ operator=()</text>
<text text-anchor="start" x="962.5" y="-616.5" font-family="Helvetica,sans-Serif" font-size="10.00" fill="#000000">+ operator=()</text>
<text text-anchor="start" x="962.5" y="-605.5" font-family="Helvetica,sans-Serif" font-size="10.00" fill="#000000">+ at()</text>
<text text-anchor="start" x="962.5" y="-594.5" font-family="Helvetica,sans-Serif" font-size="10.00" fill="#000000">and 12 more...</text>
</a>
</g>
</g>
<!-- Node11&#45;&gt;Node19 -->
<g id="edge23" class="edge">
<title>Node11&#45;&gt;Node19</title>
<path fill="none" stroke="#191970" d="M643.2459,-1648.3104C724.5197,-1632.3507 850.1352,-1595.0451 920,-1511 1095.8794,-1299.4227 1061.3653,-945.2572 1031.8788,-776.7036"/>
<polygon fill="none" stroke="#191970" points="642.2403,-1644.9387 633.0688,-1650.243 643.5463,-1651.8158 642.2403,-1644.9387"/>
</g>
<!-- Node12 -->
<g id="node8" class="node">
<title>Node12</title>
<g id="a_node8"><a xlink:href="classtvm_1_1runtime_1_1ObjectPtr.html" target="_top" xlink:title="{tvm::runtime::ObjectPtr\l\&lt; tvm::runtime::Object \&gt;\n||+ ObjectPtr()\l+ ObjectPtr()\l+ ObjectPtr()\l+ ObjectPtr()\l+ ObjectPtr()\l+ ObjectPtr()\l+ ~ObjectPtr()\l+ swap()\l+ get()\l+ operator&#45;\&gt;()\land 11 more...\l}">
<polygon fill="#ffffff" stroke="#000000" points="496,-1818.5 496,-1996.5 636,-1996.5 636,-1818.5 496,-1818.5"/>
<text text-anchor="start" x="504" y="-1984.5" font-family="Helvetica,sans-Serif" font-size="10.00" fill="#000000">tvm::runtime::ObjectPtr</text>
<text text-anchor="middle" x="566" y="-1973.5" font-family="Helvetica,sans-Serif" font-size="10.00" fill="#000000">&lt; tvm::runtime::Object &gt;</text>
<polyline fill="none" stroke="#000000" points="496,-1966.5 636,-1966.5 "/>
<text text-anchor="middle" x="566" y="-1954.5" font-family="Helvetica,sans-Serif" font-size="10.00" fill="#000000"> </text>
<polyline fill="none" stroke="#000000" points="496,-1947.5 636,-1947.5 "/>
<text text-anchor="start" x="504" y="-1935.5" font-family="Helvetica,sans-Serif" font-size="10.00" fill="#000000">+ ObjectPtr()</text>
<text text-anchor="start" x="504" y="-1924.5" font-family="Helvetica,sans-Serif" font-size="10.00" fill="#000000">+ ObjectPtr()</text>
<text text-anchor="start" x="504" y="-1913.5" font-family="Helvetica,sans-Serif" font-size="10.00" fill="#000000">+ ObjectPtr()</text>
<text text-anchor="start" x="504" y="-1902.5" font-family="Helvetica,sans-Serif" font-size="10.00" fill="#000000">+ ObjectPtr()</text>
<text text-anchor="start" x="504" y="-1891.5" font-family="Helvetica,sans-Serif" font-size="10.00" fill="#000000">+ ObjectPtr()</text>
<text text-anchor="start" x="504" y="-1880.5" font-family="Helvetica,sans-Serif" font-size="10.00" fill="#000000">+ ObjectPtr()</text>
<text text-anchor="start" x="504" y="-1869.5" font-family="Helvetica,sans-Serif" font-size="10.00" fill="#000000">+ ~ObjectPtr()</text>
<text text-anchor="start" x="504" y="-1858.5" font-family="Helvetica,sans-Serif" font-size="10.00" fill="#000000">+ swap()</text>
<text text-anchor="start" x="504" y="-1847.5" font-family="Helvetica,sans-Serif" font-size="10.00" fill="#000000">+ get()</text>
<text text-anchor="start" x="504" y="-1836.5" font-family="Helvetica,sans-Serif" font-size="10.00" fill="#000000">+ operator&#45;&gt;()</text>
<text text-anchor="start" x="504" y="-1825.5" font-family="Helvetica,sans-Serif" font-size="10.00" fill="#000000">and 11 more...</text>
</a>
</g>
</g>
<!-- Node12&#45;&gt;Node11 -->
<g id="edge8" class="edge">
<title>Node12&#45;&gt;Node11</title>
<path fill="none" stroke="#404040" d="M566,-1818.3167C566,-1806.8765 566,-1795.0062 566,-1783.1402"/>
<polygon fill="none" stroke="#404040" points="566.0001,-1782.7944 562,-1776.7944 566,-1770.7944 570,-1776.7943 566.0001,-1782.7944"/>
<text text-anchor="middle" x="585.5" y="-1792" font-family="Helvetica,sans-Serif" font-size="10.00" fill="#000000"> #data_</text>
</g>
<!-- Node13&#45;&gt;Node5 -->
<g id="edge19" class="edge">
<title>Node13&#45;&gt;Node5</title>
<path fill="none" stroke="#404040" d="M68.4419,-817.3668C57.1251,-766.2606 41.0294,-667.2797 63,-587 108.7423,-419.8597 152.6556,-375.6635 290,-270 422.4807,-168.0783 608.4913,-107.5612 727.6405,-76.7921"/>
<polygon fill="none" stroke="#404040" points="727.6881,-76.78 732.5146,-71.4223 739.3165,-73.8168 734.49,-79.1746 727.6881,-76.78"/>
<text text-anchor="middle" x="316" y="-357" font-family="Helvetica,sans-Serif" font-size="10.00" fill="#000000"> +ret_type</text>
</g>
<!-- Node13&#45;&gt;Node7 -->
<g id="edge10" class="edge">
<title>Node13&#45;&gt;Node7</title>
<path fill="none" stroke="#404040" d="M73.3328,-817.4975C67.2669,-754.688 58.1246,-623.5471 83,-587 95.1719,-569.1169 112.9573,-555.8544 132.3739,-546.0228"/>
<polygon fill="none" stroke="#404040" points="132.4355,-545.994 136.1735,-539.8274 143.3035,-540.9061 139.5654,-547.0728 132.4355,-545.994"/>
<text text-anchor="middle" x="125.5" y="-679.5" font-family="Helvetica,sans-Serif" font-size="10.00" fill="#000000"> +checked_type_</text>
</g>
<!-- Node14&#45;&gt;Node7 -->
<g id="edge12" class="edge">
<title>Node14&#45;&gt;Node7</title>
<path fill="none" stroke="#404040" d="M261.9973,-926.1972C259.6674,-920.16 257.6298,-914.0652 256,-908 225.8456,-795.7818 232.0676,-658.8053 239.4516,-580.6613"/>
<polygon fill="none" stroke="#404040" points="239.4596,-580.5793 236.0698,-574.2146 240.6412,-568.6377 244.031,-575.0024 239.4596,-580.5793"/>
<text text-anchor="middle" x="290.5" y="-849" font-family="Helvetica,sans-Serif" font-size="10.00" fill="#000000"> +struct_info_</text>
</g>
<!-- Node15 -->
<g id="node11" class="node">
<title>Node15</title>
<g id="a_node11"><a xlink:href="classtvm_1_1DictAttrs.html" target="_top" xlink:title="Managed reference to DictAttrsNode. ">
<polygon fill="#ffffff" stroke="#000000" points="645,-615 645,-749 799,-749 799,-615 645,-615"/>
<text text-anchor="middle" x="722" y="-737" font-family="Helvetica,sans-Serif" font-size="10.00" fill="#000000">tvm::DictAttrs</text>
<polyline fill="none" stroke="#000000" points="645,-730 799,-730 "/>
<text text-anchor="middle" x="722" y="-718" font-family="Helvetica,sans-Serif" font-size="10.00" fill="#000000"> </text>
<polyline fill="none" stroke="#000000" points="645,-711 799,-711 "/>
<text text-anchor="start" x="653" y="-699" font-family="Helvetica,sans-Serif" font-size="10.00" fill="#000000">+ DictAttrs()</text>
<text text-anchor="start" x="653" y="-688" font-family="Helvetica,sans-Serif" font-size="10.00" fill="#000000">+ GetAttr()</text>
<text text-anchor="start" x="653" y="-677" font-family="Helvetica,sans-Serif" font-size="10.00" fill="#000000">+ GetAttr()</text>
<text text-anchor="start" x="653" y="-666" font-family="Helvetica,sans-Serif" font-size="10.00" fill="#000000">+ HasNonzeroAttr()</text>
<text text-anchor="start" x="653" y="-655" font-family="Helvetica,sans-Serif" font-size="10.00" fill="#000000">+ TVM_DEFINE_OBJECT_REF</text>
<text text-anchor="start" x="653" y="-644" font-family="Helvetica,sans-Serif" font-size="10.00" fill="#000000">_METHODS()</text>
<text text-anchor="start" x="653" y="-633" font-family="Helvetica,sans-Serif" font-size="10.00" fill="#000000">+ TVM_DEFINE_OBJECT_REF</text>
<text text-anchor="start" x="653" y="-622" font-family="Helvetica,sans-Serif" font-size="10.00" fill="#000000">_COW_METHOD()</text>
</a>
</g>
</g>
<!-- Node15&#45;&gt;Node6 -->
<g id="edge14" class="edge">
<title>Node15&#45;&gt;Node6</title>
<path fill="none" stroke="#404040" d="M719.5161,-614.865C716.0964,-522.439 709.9716,-356.8983 706.5285,-263.8411"/>
<polygon fill="none" stroke="#404040" points="706.5253,-263.7502 702.3061,-257.9022 706.0815,-251.7584 710.3007,-257.6063 706.5253,-263.7502"/>
<text text-anchor="middle" x="734" y="-515.5" font-family="Helvetica,sans-Serif" font-size="10.00" fill="#000000"> +attrs</text>
</g>
<!-- Node16&#45;&gt;Node15 -->
<g id="edge15" class="edge">
<title>Node16&#45;&gt;Node15</title>
<path fill="none" stroke="#191970" d="M732.2349,-1272.8314C730.3403,-1163.4605 725.421,-879.4877 723.1635,-749.1628"/>
<polygon fill="none" stroke="#191970" points="728.7358,-1272.9218 732.4086,-1282.8596 735.7348,-1272.8005 728.7358,-1272.9218"/>
</g>
<!-- Node17&#45;&gt;Node5 -->
<g id="edge17" class="edge">
<title>Node17&#45;&gt;Node5</title>
<path fill="none" stroke="#404040" d="M841.157,-270.269C841.8066,-220.1698 842.6014,-158.8697 843.1853,-113.8344"/>
<polygon fill="none" stroke="#404040" points="843.1884,-113.5853 839.2666,-107.5339 843.3441,-101.5863 847.2659,-107.6377 843.1884,-113.5853"/>
<text text-anchor="middle" x="866.5" y="-193" font-family="Helvetica,sans-Serif" font-size="10.00" fill="#000000"> +params</text>
</g>
<!-- Node18&#45;&gt;Node5 -->
<g id="edge20" class="edge">
<title>Node18&#45;&gt;Node5</title>
<path fill="none" stroke="#404040" d="M929.6607,-981.4134C929.0901,-921.0579 928,-791.4317 928,-682 928,-682 928,-682 928,-195.5 928,-165.4124 914.2199,-135.9924 897.8224,-111.6352"/>
<polygon fill="none" stroke="#404040" points="897.5968,-111.3161 890.8663,-108.7275 890.6672,-101.5191 897.3977,-104.1078 897.5968,-111.3161"/>
<text text-anchor="middle" x="946" y="-515.5" font-family="Helvetica,sans-Serif" font-size="10.00" fill="#000000"> +body</text>
</g>
<!-- Node19&#45;&gt;Node5 -->
<g id="edge22" class="edge">
<title>Node19&#45;&gt;Node5</title>
<path fill="none" stroke="#404040" d="M1022.4316,-587.2752C1030.7213,-469.147 1029.1029,-265.1033 942,-120 940.0807,-116.8026 937.9498,-113.7148 935.6464,-110.7368"/>
<polygon fill="none" stroke="#404040" points="935.5971,-110.6797 928.6475,-108.7554 927.7508,-101.6002 934.7005,-103.5246 935.5971,-110.6797"/>
<text text-anchor="middle" x="1057.5" y="-357" font-family="Helvetica,sans-Serif" font-size="10.00" fill="#000000"> +buffer_map</text>
</g>
</g>
</svg>
