<?xml version="1.0" encoding="UTF-8" standalone="no"?>
<!DOCTYPE svg PUBLIC "-//W3C//DTD SVG 1.1//EN"
 "http://www.w3.org/Graphics/SVG/1.1/DTD/svg11.dtd">
<!-- Generated by graphviz version 2.40.1 (20161225.0304)
 -->
<!-- Title: tvm::relax::StructInfo Pages: 1 -->
<svg width="1094pt" height="485pt"
 viewBox="0.00 0.00 1094.00 485.00" xmlns="http://www.w3.org/2000/svg" xmlns:xlink="http://www.w3.org/1999/xlink">
<g id="graph0" class="graph" transform="scale(1 1) rotate(0) translate(4 481)">
<title>tvm::relax::StructInfo</title>
<polygon fill="#ffffff" stroke="transparent" points="-4,4 -4,-481 1090,-481 1090,4 -4,4"/>
<!-- Node0 -->
<g id="node1" class="node">
<title>Node0</title>
<polygon fill="#bfbfbf" stroke="#000000" points="466,-138.5 466,-206.5 620,-206.5 620,-138.5 466,-138.5"/>
<text text-anchor="middle" x="543" y="-194.5" font-family="Helvetica,sans-Serif" font-size="10.00" fill="#000000">tvm::relax::StructInfo</text>
<polyline fill="none" stroke="#000000" points="466,-187.5 620,-187.5 "/>
<text text-anchor="middle" x="543" y="-175.5" font-family="Helvetica,sans-Serif" font-size="10.00" fill="#000000"> </text>
<polyline fill="none" stroke="#000000" points="466,-168.5 620,-168.5 "/>
<text text-anchor="start" x="474" y="-156.5" font-family="Helvetica,sans-Serif" font-size="10.00" fill="#000000">+ TVM_DEFINE_OBJECT_REF</text>
<text text-anchor="start" x="474" y="-145.5" font-family="Helvetica,sans-Serif" font-size="10.00" fill="#000000">_METHODS()</text>
</g>
<!-- Node2 -->
<g id="node3" class="node">
<title>Node2</title>
<g id="a_node3"><a xlink:href="classtvm_1_1relax_1_1FuncStructInfo.html" target="_top" xlink:title="Managed reference to FuncStructInfoNode. ">
<polygon fill="#ffffff" stroke="#000000" points="0,-.5 0,-101.5 166,-101.5 166,-.5 0,-.5"/>
<text text-anchor="middle" x="83" y="-89.5" font-family="Helvetica,sans-Serif" font-size="10.00" fill="#000000">tvm::relax::FuncStructInfo</text>
<polyline fill="none" stroke="#000000" points="0,-82.5 166,-82.5 "/>
<text text-anchor="middle" x="83" y="-70.5" font-family="Helvetica,sans-Serif" font-size="10.00" fill="#000000"> </text>
<polyline fill="none" stroke="#000000" points="0,-63.5 166,-63.5 "/>
<text text-anchor="start" x="8" y="-51.5" font-family="Helvetica,sans-Serif" font-size="10.00" fill="#000000">+ FuncStructInfo()</text>
<text text-anchor="start" x="8" y="-40.5" font-family="Helvetica,sans-Serif" font-size="10.00" fill="#000000">+ TVM_DEFINE_NOTNULLABLE</text>
<text text-anchor="start" x="8" y="-29.5" font-family="Helvetica,sans-Serif" font-size="10.00" fill="#000000">_OBJECT_REF_METHODS()</text>
<text text-anchor="start" x="8" y="-18.5" font-family="Helvetica,sans-Serif" font-size="10.00" fill="#000000">+ OpaqueFunc()</text>
<text text-anchor="start" x="8" y="-7.5" font-family="Helvetica,sans-Serif" font-size="10.00" fill="#000000">+ OpaqueFunc()</text>
</a>
</g>
</g>
<!-- Node0&#45;&gt;Node2 -->
<g id="edge2" class="edge">
<title>Node0&#45;&gt;Node2</title>
<path fill="none" stroke="#191970" d="M455.7036,-163.6719C379.8049,-154.1543 267.7693,-135.6249 175,-102 172.0812,-100.9421 169.1444,-99.7998 166.2048,-98.5889"/>
<polygon fill="none" stroke="#191970" points="455.351,-167.1548 465.7031,-164.8999 456.2043,-160.207 455.351,-167.1548"/>
</g>
<!-- Node3 -->
<g id="node4" class="node">
<title>Node3</title>
<g id="a_node4"><a xlink:href="classtvm_1_1relax_1_1ObjectStructInfo.html" target="_top" xlink:title="Managed reference to ObjectStructInfoNode. ">
<polygon fill="#ffffff" stroke="#000000" points="184,-11.5 184,-90.5 350,-90.5 350,-11.5 184,-11.5"/>
<text text-anchor="middle" x="267" y="-78.5" font-family="Helvetica,sans-Serif" font-size="10.00" fill="#000000">tvm::relax::ObjectStructInfo</text>
<polyline fill="none" stroke="#000000" points="184,-71.5 350,-71.5 "/>
<text text-anchor="middle" x="267" y="-59.5" font-family="Helvetica,sans-Serif" font-size="10.00" fill="#000000"> </text>
<polyline fill="none" stroke="#000000" points="184,-52.5 350,-52.5 "/>
<text text-anchor="start" x="192" y="-40.5" font-family="Helvetica,sans-Serif" font-size="10.00" fill="#000000">+ ObjectStructInfo()</text>
<text text-anchor="start" x="192" y="-29.5" font-family="Helvetica,sans-Serif" font-size="10.00" fill="#000000">+ TVM_DEFINE_NOTNULLABLE</text>
<text text-anchor="start" x="192" y="-18.5" font-family="Helvetica,sans-Serif" font-size="10.00" fill="#000000">_OBJECT_REF_METHODS()</text>
</a>
</g>
</g>
<!-- Node0&#45;&gt;Node3 -->
<g id="edge3" class="edge">
<title>Node0&#45;&gt;Node3</title>
<path fill="none" stroke="#191970" d="M456.3887,-142.1699C425.2814,-130.5314 390.1923,-116.534 359,-102 351.4682,-98.4906 343.7074,-94.6176 336.0371,-90.6211"/>
<polygon fill="none" stroke="#191970" points="455.3132,-145.504 465.9062,-145.7041 457.7501,-138.9418 455.3132,-145.504"/>
</g>
<!-- Node4 -->
<g id="node5" class="node">
<title>Node4</title>
<g id="a_node5"><a xlink:href="classtvm_1_1relax_1_1PrimStructInfo.html" target="_top" xlink:title="Managed reference to PrimStructInfoNode. ">
<polygon fill="#ffffff" stroke="#000000" points="368,-11.5 368,-90.5 534,-90.5 534,-11.5 368,-11.5"/>
<text text-anchor="middle" x="451" y="-78.5" font-family="Helvetica,sans-Serif" font-size="10.00" fill="#000000">tvm::relax::PrimStructInfo</text>
<polyline fill="none" stroke="#000000" points="368,-71.5 534,-71.5 "/>
<text text-anchor="middle" x="451" y="-59.5" font-family="Helvetica,sans-Serif" font-size="10.00" fill="#000000"> </text>
<polyline fill="none" stroke="#000000" points="368,-52.5 534,-52.5 "/>
<text text-anchor="start" x="376" y="-40.5" font-family="Helvetica,sans-Serif" font-size="10.00" fill="#000000">+ PrimStructInfo()</text>
<text text-anchor="start" x="376" y="-29.5" font-family="Helvetica,sans-Serif" font-size="10.00" fill="#000000">+ TVM_DEFINE_NOTNULLABLE</text>
<text text-anchor="start" x="376" y="-18.5" font-family="Helvetica,sans-Serif" font-size="10.00" fill="#000000">_OBJECT_REF_METHODS()</text>
</a>
</g>
</g>
<!-- Node0&#45;&gt;Node4 -->
<g id="edge4" class="edge">
<title>Node0&#45;&gt;Node4</title>
<path fill="none" stroke="#191970" d="M510.9411,-130.1614C501.2977,-117.4258 490.7516,-103.498 481.2308,-90.9243"/>
<polygon fill="none" stroke="#191970" points="508.301,-132.4726 517.128,-138.3321 513.8817,-128.2469 508.301,-132.4726"/>
</g>
<!-- Node5 -->
<g id="node6" class="node">
<title>Node5</title>
<g id="a_node6"><a xlink:href="classtvm_1_1relax_1_1ShapeStructInfo.html" target="_top" xlink:title="Managed reference to ShapeStructInfoNode. ">
<polygon fill="#ffffff" stroke="#000000" points="552,-6 552,-96 718,-96 718,-6 552,-6"/>
<text text-anchor="middle" x="635" y="-84" font-family="Helvetica,sans-Serif" font-size="10.00" fill="#000000">tvm::relax::ShapeStructInfo</text>
<polyline fill="none" stroke="#000000" points="552,-77 718,-77 "/>
<text text-anchor="middle" x="635" y="-65" font-family="Helvetica,sans-Serif" font-size="10.00" fill="#000000"> </text>
<polyline fill="none" stroke="#000000" points="552,-58 718,-58 "/>
<text text-anchor="start" x="560" y="-46" font-family="Helvetica,sans-Serif" font-size="10.00" fill="#000000">+ ShapeStructInfo()</text>
<text text-anchor="start" x="560" y="-35" font-family="Helvetica,sans-Serif" font-size="10.00" fill="#000000">+ ShapeStructInfo()</text>
<text text-anchor="start" x="560" y="-24" font-family="Helvetica,sans-Serif" font-size="10.00" fill="#000000">+ TVM_DEFINE_NOTNULLABLE</text>
<text text-anchor="start" x="560" y="-13" font-family="Helvetica,sans-Serif" font-size="10.00" fill="#000000">_OBJECT_REF_METHODS()</text>
</a>
</g>
</g>
<!-- Node0&#45;&gt;Node5 -->
<g id="edge5" class="edge">
<title>Node0&#45;&gt;Node5</title>
<path fill="none" stroke="#191970" d="M575.0667,-130.151C583.3644,-119.1926 592.33,-107.3522 600.7354,-96.2516"/>
<polygon fill="none" stroke="#191970" points="572.1183,-128.2469 568.872,-138.3321 577.699,-132.4726 572.1183,-128.2469"/>
</g>
<!-- Node6 -->
<g id="node7" class="node">
<title>Node6</title>
<g id="a_node7"><a xlink:href="classtvm_1_1relax_1_1TensorStructInfo.html" target="_top" xlink:title="Managed reference to TensorStructInfoNode. ">
<polygon fill="#ffffff" stroke="#000000" points="736,-6 736,-96 902,-96 902,-6 736,-6"/>
<text text-anchor="middle" x="819" y="-84" font-family="Helvetica,sans-Serif" font-size="10.00" fill="#000000">tvm::relax::TensorStructInfo</text>
<polyline fill="none" stroke="#000000" points="736,-77 902,-77 "/>
<text text-anchor="middle" x="819" y="-65" font-family="Helvetica,sans-Serif" font-size="10.00" fill="#000000"> </text>
<polyline fill="none" stroke="#000000" points="736,-58 902,-58 "/>
<text text-anchor="start" x="744" y="-46" font-family="Helvetica,sans-Serif" font-size="10.00" fill="#000000">+ TensorStructInfo()</text>
<text text-anchor="start" x="744" y="-35" font-family="Helvetica,sans-Serif" font-size="10.00" fill="#000000">+ TensorStructInfo()</text>
<text text-anchor="start" x="744" y="-24" font-family="Helvetica,sans-Serif" font-size="10.00" fill="#000000">+ TVM_DEFINE_NOTNULLABLE</text>
<text text-anchor="start" x="744" y="-13" font-family="Helvetica,sans-Serif" font-size="10.00" fill="#000000">_OBJECT_REF_METHODS()</text>
</a>
</g>
</g>
<!-- Node0&#45;&gt;Node6 -->
<g id="edge6" class="edge">
<title>Node0&#45;&gt;Node6</title>
<path fill="none" stroke="#191970" d="M629.6113,-142.1699C660.7186,-130.5314 695.8077,-116.534 727,-102 731.0556,-100.1103 735.1776,-98.1152 739.3161,-96.0522"/>
<polygon fill="none" stroke="#191970" points="628.2499,-138.9418 620.0938,-145.7041 630.6868,-145.504 628.2499,-138.9418"/>
</g>
<!-- Node7 -->
<g id="node8" class="node">
<title>Node7</title>
<g id="a_node8"><a xlink:href="classtvm_1_1relax_1_1TupleStructInfo.html" target="_top" xlink:title="Managed reference to TupleStructInfoNode. ">
<polygon fill="#ffffff" stroke="#000000" points="920,-11.5 920,-90.5 1086,-90.5 1086,-11.5 920,-11.5"/>
<text text-anchor="middle" x="1003" y="-78.5" font-family="Helvetica,sans-Serif" font-size="10.00" fill="#000000">tvm::relax::TupleStructInfo</text>
<polyline fill="none" stroke="#000000" points="920,-71.5 1086,-71.5 "/>
<text text-anchor="middle" x="1003" y="-59.5" font-family="Helvetica,sans-Serif" font-size="10.00" fill="#000000"> </text>
<polyline fill="none" stroke="#000000" points="920,-52.5 1086,-52.5 "/>
<text text-anchor="start" x="928" y="-40.5" font-family="Helvetica,sans-Serif" font-size="10.00" fill="#000000">+ TupleStructInfo()</text>
<text text-anchor="start" x="928" y="-29.5" font-family="Helvetica,sans-Serif" font-size="10.00" fill="#000000">+ TVM_DEFINE_NOTNULLABLE</text>
<text text-anchor="start" x="928" y="-18.5" font-family="Helvetica,sans-Serif" font-size="10.00" fill="#000000">_OBJECT_REF_METHODS()</text>
</a>
</g>
</g>
<!-- Node0&#45;&gt;Node7 -->
<g id="edge7" class="edge">
<title>Node0&#45;&gt;Node7</title>
<path fill="none" stroke="#191970" d="M630.2964,-163.6719C706.1951,-154.1543 818.2307,-135.6249 911,-102 919.8421,-98.7951 928.8499,-94.8157 937.5989,-90.5031"/>
<polygon fill="none" stroke="#191970" points="629.7957,-160.207 620.2969,-164.8999 630.649,-167.1548 629.7957,-160.207"/>
</g>
<!-- Node1 -->
<g id="node2" class="node">
<title>Node1</title>
<g id="a_node2"><a xlink:href="classtvm_1_1runtime_1_1ObjectRef.html" target="_top" xlink:title="Base class of all object reference. ">
<polygon fill="#ffffff" stroke="#000000" points="476,-243.5 476,-476.5 610,-476.5 610,-243.5 476,-243.5"/>
<text text-anchor="middle" x="543" y="-464.5" font-family="Helvetica,sans-Serif" font-size="10.00" fill="#000000">tvm::runtime::ObjectRef</text>
<polyline fill="none" stroke="#000000" points="476,-457.5 610,-457.5 "/>
<text text-anchor="start" x="484" y="-445.5" font-family="Helvetica,sans-Serif" font-size="10.00" fill="#000000">+ _type_is_nullable</text>
<text text-anchor="start" x="484" y="-434.5" font-family="Helvetica,sans-Serif" font-size="10.00" fill="#000000"># data_</text>
<polyline fill="none" stroke="#000000" points="476,-427.5 610,-427.5 "/>
<text text-anchor="start" x="484" y="-415.5" font-family="Helvetica,sans-Serif" font-size="10.00" fill="#000000">+ ObjectRef()</text>
<text text-anchor="start" x="484" y="-404.5" font-family="Helvetica,sans-Serif" font-size="10.00" fill="#000000">+ ObjectRef()</text>
<text text-anchor="start" x="484" y="-393.5" font-family="Helvetica,sans-Serif" font-size="10.00" fill="#000000">+ same_as()</text>
<text text-anchor="start" x="484" y="-382.5" font-family="Helvetica,sans-Serif" font-size="10.00" fill="#000000">+ operator==()</text>
<text text-anchor="start" x="484" y="-371.5" font-family="Helvetica,sans-Serif" font-size="10.00" fill="#000000">+ operator!=()</text>
<text text-anchor="start" x="484" y="-360.5" font-family="Helvetica,sans-Serif" font-size="10.00" fill="#000000">+ operator&lt;()</text>
<text text-anchor="start" x="484" y="-349.5" font-family="Helvetica,sans-Serif" font-size="10.00" fill="#000000">+ defined()</text>
<text text-anchor="start" x="484" y="-338.5" font-family="Helvetica,sans-Serif" font-size="10.00" fill="#000000">+ get()</text>
<text text-anchor="start" x="484" y="-327.5" font-family="Helvetica,sans-Serif" font-size="10.00" fill="#000000">+ operator&#45;&gt;()</text>
<text text-anchor="start" x="484" y="-316.5" font-family="Helvetica,sans-Serif" font-size="10.00" fill="#000000">+ unique()</text>
<text text-anchor="start" x="484" y="-305.5" font-family="Helvetica,sans-Serif" font-size="10.00" fill="#000000">+ use_count()</text>
<text text-anchor="start" x="484" y="-294.5" font-family="Helvetica,sans-Serif" font-size="10.00" fill="#000000">+ as()</text>
<text text-anchor="start" x="484" y="-283.5" font-family="Helvetica,sans-Serif" font-size="10.00" fill="#000000"># get_mutable()</text>
<text text-anchor="start" x="484" y="-272.5" font-family="Helvetica,sans-Serif" font-size="10.00" fill="#000000"># DowncastNoCheck()</text>
<text text-anchor="start" x="484" y="-261.5" font-family="Helvetica,sans-Serif" font-size="10.00" fill="#000000"># FFIClearAfterMove()</text>
<text text-anchor="start" x="484" y="-250.5" font-family="Helvetica,sans-Serif" font-size="10.00" fill="#000000"># GetDataPtr()</text>
</a>
</g>
</g>
<!-- Node1&#45;&gt;Node0 -->
<g id="edge1" class="edge">
<title>Node1&#45;&gt;Node0</title>
<path fill="none" stroke="#191970" d="M543,-233.2822C543,-223.749 543,-214.737 543,-206.7166"/>
<polygon fill="none" stroke="#191970" points="539.5001,-233.3857 543,-243.3857 546.5001,-233.3857 539.5001,-233.3857"/>
</g>
</g>
</svg>
