<?xml version="1.0" encoding="UTF-8" standalone="no"?>
<!DOCTYPE svg PUBLIC "-//W3C//DTD SVG 1.1//EN"
 "http://www.w3.org/Graphics/SVG/1.1/DTD/svg11.dtd">
<!-- Generated by graphviz version 2.40.1 (20161225.0304)
 -->
<!-- Title: tvm::RelayExprNode Pages: 1 -->
<svg width="868pt" height="1349pt"
 viewBox="0.00 0.00 867.50 1349.00" xmlns="http://www.w3.org/2000/svg" xmlns:xlink="http://www.w3.org/1999/xlink">
<g id="graph0" class="graph" transform="scale(1 1) rotate(0) translate(4 1345)">
<title>tvm::RelayExprNode</title>
<polygon fill="#ffffff" stroke="transparent" points="-4,4 -4,-1345 863.5,-1345 863.5,4 -4,4"/>
<!-- Node36 -->
<g id="node1" class="node">
<title>Node36</title>
<polygon fill="#bfbfbf" stroke="#000000" points="403,-.5 403,-101.5 610,-101.5 610,-.5 403,-.5"/>
<text text-anchor="middle" x="506.5" y="-89.5" font-family="Helvetica,sans-Serif" font-size="10.00" fill="#000000">tvm::RelayExprNode</text>
<polyline fill="none" stroke="#000000" points="403,-82.5 610,-82.5 "/>
<text text-anchor="start" x="411" y="-70.5" font-family="Helvetica,sans-Serif" font-size="10.00" fill="#000000">+ _type_key</text>
<text text-anchor="start" x="411" y="-59.5" font-family="Helvetica,sans-Serif" font-size="10.00" fill="#000000">+ _type_child_slots</text>
<polyline fill="none" stroke="#000000" points="403,-52.5 610,-52.5 "/>
<text text-anchor="start" x="411" y="-40.5" font-family="Helvetica,sans-Serif" font-size="10.00" fill="#000000">+ checked_type()</text>
<text text-anchor="start" x="411" y="-29.5" font-family="Helvetica,sans-Serif" font-size="10.00" fill="#000000">+ type_as()</text>
<text text-anchor="start" x="411" y="-18.5" font-family="Helvetica,sans-Serif" font-size="10.00" fill="#000000">+ virtual_device()</text>
<text text-anchor="start" x="411" y="-7.5" font-family="Helvetica,sans-Serif" font-size="10.00" fill="#000000">+ TVM_DECLARE_BASE_OBJECT_INFO()</text>
</g>
<!-- Node37 -->
<g id="node2" class="node">
<title>Node37</title>
<g id="a_node2"><a xlink:href="classtvm_1_1BaseExprNode.html" target="_top" xlink:title="Base type of all the expressions. ">
<polygon fill="#ffffff" stroke="#000000" points="218,-139.5 218,-251.5 425,-251.5 425,-139.5 218,-139.5"/>
<text text-anchor="middle" x="321.5" y="-239.5" font-family="Helvetica,sans-Serif" font-size="10.00" fill="#000000">tvm::BaseExprNode</text>
<polyline fill="none" stroke="#000000" points="218,-232.5 425,-232.5 "/>
<text text-anchor="start" x="226" y="-220.5" font-family="Helvetica,sans-Serif" font-size="10.00" fill="#000000">+ _type_key</text>
<text text-anchor="start" x="226" y="-209.5" font-family="Helvetica,sans-Serif" font-size="10.00" fill="#000000">+ _type_has_method_sequal</text>
<text text-anchor="start" x="226" y="-198.5" font-family="Helvetica,sans-Serif" font-size="10.00" fill="#000000">_reduce</text>
<text text-anchor="start" x="226" y="-187.5" font-family="Helvetica,sans-Serif" font-size="10.00" fill="#000000">+ _type_has_method_shash</text>
<text text-anchor="start" x="226" y="-176.5" font-family="Helvetica,sans-Serif" font-size="10.00" fill="#000000">_reduce</text>
<text text-anchor="start" x="226" y="-165.5" font-family="Helvetica,sans-Serif" font-size="10.00" fill="#000000">+ _type_child_slots</text>
<polyline fill="none" stroke="#000000" points="218,-158.5 425,-158.5 "/>
<text text-anchor="start" x="226" y="-146.5" font-family="Helvetica,sans-Serif" font-size="10.00" fill="#000000">+ TVM_DECLARE_BASE_OBJECT_INFO()</text>
</a>
</g>
</g>
<!-- Node37&#45;&gt;Node36 -->
<g id="edge1" class="edge">
<title>Node37&#45;&gt;Node36</title>
<path fill="none" stroke="#191970" d="M401.2,-133.2479C414.7215,-122.6864 428.6152,-111.8344 441.695,-101.618"/>
<polygon fill="none" stroke="#191970" points="399.017,-130.5117 393.2906,-139.4257 403.326,-136.0284 399.017,-130.5117"/>
</g>
<!-- Node38 -->
<g id="node3" class="node">
<title>Node38</title>
<g id="a_node3"><a xlink:href="classtvm_1_1runtime_1_1Object.html" target="_top" xlink:title="base class of all object containers. ">
<polygon fill="#ffffff" stroke="#000000" points="0,-467.5 0,-854.5 183,-854.5 183,-467.5 0,-467.5"/>
<text text-anchor="middle" x="91.5" y="-842.5" font-family="Helvetica,sans-Serif" font-size="10.00" fill="#000000">tvm::runtime::Object</text>
<polyline fill="none" stroke="#000000" points="0,-835.5 183,-835.5 "/>
<text text-anchor="start" x="8" y="-823.5" font-family="Helvetica,sans-Serif" font-size="10.00" fill="#000000">+ _type_key</text>
<text text-anchor="start" x="8" y="-812.5" font-family="Helvetica,sans-Serif" font-size="10.00" fill="#000000">+ _type_final</text>
<text text-anchor="start" x="8" y="-801.5" font-family="Helvetica,sans-Serif" font-size="10.00" fill="#000000">+ _type_child_slots</text>
<text text-anchor="start" x="8" y="-790.5" font-family="Helvetica,sans-Serif" font-size="10.00" fill="#000000">+ _type_child_slots_can</text>
<text text-anchor="start" x="8" y="-779.5" font-family="Helvetica,sans-Serif" font-size="10.00" fill="#000000">_overflow</text>
<text text-anchor="start" x="8" y="-768.5" font-family="Helvetica,sans-Serif" font-size="10.00" fill="#000000">+ _type_has_method_visit</text>
<text text-anchor="start" x="8" y="-757.5" font-family="Helvetica,sans-Serif" font-size="10.00" fill="#000000">_attrs</text>
<text text-anchor="start" x="8" y="-746.5" font-family="Helvetica,sans-Serif" font-size="10.00" fill="#000000">+ _type_has_method_sequal</text>
<text text-anchor="start" x="8" y="-735.5" font-family="Helvetica,sans-Serif" font-size="10.00" fill="#000000">_reduce</text>
<text text-anchor="start" x="8" y="-724.5" font-family="Helvetica,sans-Serif" font-size="10.00" fill="#000000">+ _type_has_method_shash</text>
<text text-anchor="start" x="8" y="-713.5" font-family="Helvetica,sans-Serif" font-size="10.00" fill="#000000">_reduce</text>
<text text-anchor="start" x="8" y="-702.5" font-family="Helvetica,sans-Serif" font-size="10.00" fill="#000000">+ _type_index</text>
<text text-anchor="start" x="8" y="-691.5" font-family="Helvetica,sans-Serif" font-size="10.00" fill="#000000"># type_index_</text>
<text text-anchor="start" x="8" y="-680.5" font-family="Helvetica,sans-Serif" font-size="10.00" fill="#000000"># ref_counter_</text>
<polyline fill="none" stroke="#000000" points="0,-673.5 183,-673.5 "/>
<text text-anchor="start" x="8" y="-661.5" font-family="Helvetica,sans-Serif" font-size="10.00" fill="#000000">+ type_index()</text>
<text text-anchor="start" x="8" y="-650.5" font-family="Helvetica,sans-Serif" font-size="10.00" fill="#000000">+ GetTypeKey()</text>
<text text-anchor="start" x="8" y="-639.5" font-family="Helvetica,sans-Serif" font-size="10.00" fill="#000000">+ GetTypeKeyHash()</text>
<text text-anchor="start" x="8" y="-628.5" font-family="Helvetica,sans-Serif" font-size="10.00" fill="#000000">+ IsInstance()</text>
<text text-anchor="start" x="8" y="-617.5" font-family="Helvetica,sans-Serif" font-size="10.00" fill="#000000">+ unique()</text>
<text text-anchor="start" x="8" y="-606.5" font-family="Helvetica,sans-Serif" font-size="10.00" fill="#000000">+ Object()</text>
<text text-anchor="start" x="8" y="-595.5" font-family="Helvetica,sans-Serif" font-size="10.00" fill="#000000">+ Object()</text>
<text text-anchor="start" x="8" y="-584.5" font-family="Helvetica,sans-Serif" font-size="10.00" fill="#000000">+ Object()</text>
<text text-anchor="start" x="8" y="-573.5" font-family="Helvetica,sans-Serif" font-size="10.00" fill="#000000">+ operator=()</text>
<text text-anchor="start" x="8" y="-562.5" font-family="Helvetica,sans-Serif" font-size="10.00" fill="#000000">+ operator=()</text>
<text text-anchor="start" x="8" y="-551.5" font-family="Helvetica,sans-Serif" font-size="10.00" fill="#000000">+ TypeIndex2Key()</text>
<text text-anchor="start" x="8" y="-540.5" font-family="Helvetica,sans-Serif" font-size="10.00" fill="#000000">+ TypeIndex2KeyHash()</text>
<text text-anchor="start" x="8" y="-529.5" font-family="Helvetica,sans-Serif" font-size="10.00" fill="#000000">+ TypeKey2Index()</text>
<text text-anchor="start" x="8" y="-518.5" font-family="Helvetica,sans-Serif" font-size="10.00" fill="#000000">+ _GetOrAllocRuntimeTypeIndex()</text>
<text text-anchor="start" x="8" y="-507.5" font-family="Helvetica,sans-Serif" font-size="10.00" fill="#000000">+ RuntimeTypeIndex()</text>
<text text-anchor="start" x="8" y="-496.5" font-family="Helvetica,sans-Serif" font-size="10.00" fill="#000000"># IncRef()</text>
<text text-anchor="start" x="8" y="-485.5" font-family="Helvetica,sans-Serif" font-size="10.00" fill="#000000"># DecRef()</text>
<text text-anchor="start" x="8" y="-474.5" font-family="Helvetica,sans-Serif" font-size="10.00" fill="#000000"># GetOrAllocRuntimeTypeIndex()</text>
</a>
</g>
</g>
<!-- Node38&#45;&gt;Node37 -->
<g id="edge2" class="edge">
<title>Node38&#45;&gt;Node37</title>
<path fill="none" stroke="#191970" d="M187.7259,-466.2472C226.088,-388.6055 267.3149,-305.166 293.7043,-251.756"/>
<polygon fill="none" stroke="#191970" points="184.3548,-465.1687 183.063,-475.6845 190.6306,-468.2696 184.3548,-465.1687"/>
</g>
<!-- Node38&#45;&gt;Node38 -->
<g id="edge3" class="edge">
<title>Node38&#45;&gt;Node38</title>
<path fill="none" stroke="#404040" d="M183.3625,-694.9248C194.0482,-688.6637 201,-677.3555 201,-661 201,-650.0112 197.8618,-641.3007 192.5615,-634.8687"/>
<polygon fill="none" stroke="#404040" points="192.5184,-634.8322 185.3548,-634.0056 183.3625,-627.0752 190.5261,-627.9017 192.5184,-634.8322"/>
<text text-anchor="middle" x="227" y="-658.5" font-family="Helvetica,sans-Serif" font-size="10.00" fill="#000000"> #deleter_</text>
</g>
<!-- Node39 -->
<g id="node4" class="node">
<title>Node39</title>
<g id="a_node4"><a xlink:href="classtvm_1_1Span.html" target="_top" xlink:title="{tvm::Span\n||+ Span()\l+ Merge()\l+ TVM_DEFINE_OBJECT_REF\l_METHODS()\l}">
<polygon fill="#ffffff" stroke="#000000" points="271.5,-616 271.5,-706 425.5,-706 425.5,-616 271.5,-616"/>
<text text-anchor="middle" x="348.5" y="-694" font-family="Helvetica,sans-Serif" font-size="10.00" fill="#000000">tvm::Span</text>
<polyline fill="none" stroke="#000000" points="271.5,-687 425.5,-687 "/>
<text text-anchor="middle" x="348.5" y="-675" font-family="Helvetica,sans-Serif" font-size="10.00" fill="#000000"> </text>
<polyline fill="none" stroke="#000000" points="271.5,-668 425.5,-668 "/>
<text text-anchor="start" x="279.5" y="-656" font-family="Helvetica,sans-Serif" font-size="10.00" fill="#000000">+ Span()</text>
<text text-anchor="start" x="279.5" y="-645" font-family="Helvetica,sans-Serif" font-size="10.00" fill="#000000">+ Merge()</text>
<text text-anchor="start" x="279.5" y="-634" font-family="Helvetica,sans-Serif" font-size="10.00" fill="#000000">+ TVM_DEFINE_OBJECT_REF</text>
<text text-anchor="start" x="279.5" y="-623" font-family="Helvetica,sans-Serif" font-size="10.00" fill="#000000">_METHODS()</text>
</a>
</g>
</g>
<!-- Node39&#45;&gt;Node37 -->
<g id="edge4" class="edge">
<title>Node39&#45;&gt;Node37</title>
<path fill="none" stroke="#404040" d="M345.8866,-615.9429C341.1385,-534.0818 331.0703,-360.4987 325.4693,-263.934"/>
<polygon fill="none" stroke="#404040" points="325.4543,-263.6739 321.1136,-257.9156 324.7594,-251.6941 329.1001,-257.4523 325.4543,-263.6739"/>
<text text-anchor="middle" x="353" y="-357" font-family="Helvetica,sans-Serif" font-size="10.00" fill="#000000"> +span</text>
</g>
<!-- Node40 -->
<g id="node5" class="node">
<title>Node40</title>
<g id="a_node5"><a xlink:href="classtvm_1_1runtime_1_1ObjectRef.html" target="_top" xlink:title="Base class of all object reference. ">
<polygon fill="#ffffff" stroke="#000000" points="470.5,-892.5 470.5,-1114.5 604.5,-1114.5 604.5,-892.5 470.5,-892.5"/>
<text text-anchor="middle" x="537.5" y="-1102.5" font-family="Helvetica,sans-Serif" font-size="10.00" fill="#000000">tvm::runtime::ObjectRef</text>
<polyline fill="none" stroke="#000000" points="470.5,-1095.5 604.5,-1095.5 "/>
<text text-anchor="start" x="478.5" y="-1083.5" font-family="Helvetica,sans-Serif" font-size="10.00" fill="#000000">+ _type_is_nullable</text>
<polyline fill="none" stroke="#000000" points="470.5,-1076.5 604.5,-1076.5 "/>
<text text-anchor="start" x="478.5" y="-1064.5" font-family="Helvetica,sans-Serif" font-size="10.00" fill="#000000">+ ObjectRef()</text>
<text text-anchor="start" x="478.5" y="-1053.5" font-family="Helvetica,sans-Serif" font-size="10.00" fill="#000000">+ ObjectRef()</text>
<text text-anchor="start" x="478.5" y="-1042.5" font-family="Helvetica,sans-Serif" font-size="10.00" fill="#000000">+ same_as()</text>
<text text-anchor="start" x="478.5" y="-1031.5" font-family="Helvetica,sans-Serif" font-size="10.00" fill="#000000">+ operator==()</text>
<text text-anchor="start" x="478.5" y="-1020.5" font-family="Helvetica,sans-Serif" font-size="10.00" fill="#000000">+ operator!=()</text>
<text text-anchor="start" x="478.5" y="-1009.5" font-family="Helvetica,sans-Serif" font-size="10.00" fill="#000000">+ operator&lt;()</text>
<text text-anchor="start" x="478.5" y="-998.5" font-family="Helvetica,sans-Serif" font-size="10.00" fill="#000000">+ defined()</text>
<text text-anchor="start" x="478.5" y="-987.5" font-family="Helvetica,sans-Serif" font-size="10.00" fill="#000000">+ get()</text>
<text text-anchor="start" x="478.5" y="-976.5" font-family="Helvetica,sans-Serif" font-size="10.00" fill="#000000">+ operator&#45;&gt;()</text>
<text text-anchor="start" x="478.5" y="-965.5" font-family="Helvetica,sans-Serif" font-size="10.00" fill="#000000">+ unique()</text>
<text text-anchor="start" x="478.5" y="-954.5" font-family="Helvetica,sans-Serif" font-size="10.00" fill="#000000">+ use_count()</text>
<text text-anchor="start" x="478.5" y="-943.5" font-family="Helvetica,sans-Serif" font-size="10.00" fill="#000000">+ as()</text>
<text text-anchor="start" x="478.5" y="-932.5" font-family="Helvetica,sans-Serif" font-size="10.00" fill="#000000"># get_mutable()</text>
<text text-anchor="start" x="478.5" y="-921.5" font-family="Helvetica,sans-Serif" font-size="10.00" fill="#000000"># DowncastNoCheck()</text>
<text text-anchor="start" x="478.5" y="-910.5" font-family="Helvetica,sans-Serif" font-size="10.00" fill="#000000"># FFIClearAfterMove()</text>
<text text-anchor="start" x="478.5" y="-899.5" font-family="Helvetica,sans-Serif" font-size="10.00" fill="#000000"># GetDataPtr()</text>
</a>
</g>
</g>
<!-- Node40&#45;&gt;Node36 -->
<g id="edge7" class="edge">
<title>Node40&#45;&gt;Node36</title>
<path fill="none" stroke="#404040" d="M507.0165,-892.2142C471.5648,-748.4334 421.2869,-490.4068 449.5,-270 456.3997,-216.0979 472.4836,-156.5103 485.8128,-113.1166"/>
<polygon fill="none" stroke="#404040" points="485.8296,-113.0627 483.7962,-106.1442 489.4004,-101.6063 491.4338,-108.5248 485.8296,-113.0627"/>
<text text-anchor="middle" x="492.5" y="-357" font-family="Helvetica,sans-Serif" font-size="10.00" fill="#000000"> +virtual_device_</text>
</g>
<!-- Node40&#45;&gt;Node39 -->
<g id="edge5" class="edge">
<title>Node40&#45;&gt;Node39</title>
<path fill="none" stroke="#191970" d="M464.4646,-912.6704C455.5657,-900.0041 446.9872,-886.9029 439.5,-874 407.5109,-818.8719 380.2498,-750.3575 364.1247,-706.1654"/>
<polygon fill="none" stroke="#191970" points="461.6949,-914.8147 470.3504,-920.9247 467.3943,-910.7506 461.6949,-914.8147"/>
</g>
<!-- Node42 -->
<g id="node7" class="node">
<title>Node42</title>
<g id="a_node7"><a xlink:href="classtvm_1_1Type.html" target="_top" xlink:title="Managed reference to TypeNode. ">
<polygon fill="#ffffff" stroke="#000000" points="544.5,-325.5 544.5,-393.5 698.5,-393.5 698.5,-325.5 544.5,-325.5"/>
<text text-anchor="middle" x="621.5" y="-381.5" font-family="Helvetica,sans-Serif" font-size="10.00" fill="#000000">tvm::Type</text>
<polyline fill="none" stroke="#000000" points="544.5,-374.5 698.5,-374.5 "/>
<text text-anchor="middle" x="621.5" y="-362.5" font-family="Helvetica,sans-Serif" font-size="10.00" fill="#000000"> </text>
<polyline fill="none" stroke="#000000" points="544.5,-355.5 698.5,-355.5 "/>
<text text-anchor="start" x="552.5" y="-343.5" font-family="Helvetica,sans-Serif" font-size="10.00" fill="#000000">+ TVM_DEFINE_OBJECT_REF</text>
<text text-anchor="start" x="552.5" y="-332.5" font-family="Helvetica,sans-Serif" font-size="10.00" fill="#000000">_METHODS()</text>
</a>
</g>
</g>
<!-- Node40&#45;&gt;Node42 -->
<g id="edge9" class="edge">
<title>Node40&#45;&gt;Node42</title>
<path fill="none" stroke="#191970" d="M553.3213,-882.2037C572.9621,-731.6238 605.3064,-483.6513 617.0577,-393.5576"/>
<polygon fill="none" stroke="#191970" points="549.8108,-882.0572 551.9879,-892.4259 556.752,-882.9626 549.8108,-882.0572"/>
</g>
<!-- Node43 -->
<g id="node8" class="node">
<title>Node43</title>
<g id="a_node8"><a xlink:href="classtvm_1_1runtime_1_1Optional.html" target="_top" xlink:title="{tvm::runtime::Optional\l\&lt; tvm::runtime::ObjectRef \&gt;\n|+ _type_is_nullable\l|+ Optional()\l+ Optional()\l+ Optional()\l+ Optional()\l+ Optional()\l+ Optional()\l+ Optional()\l+ Optional()\l+ operator=()\l+ operator=()\land 15 more...\l}">
<polygon fill="#ffffff" stroke="#000000" points="703.5,-270.5 703.5,-448.5 859.5,-448.5 859.5,-270.5 703.5,-270.5"/>
<text text-anchor="start" x="711.5" y="-436.5" font-family="Helvetica,sans-Serif" font-size="10.00" fill="#000000">tvm::runtime::Optional</text>
<text text-anchor="middle" x="781.5" y="-425.5" font-family="Helvetica,sans-Serif" font-size="10.00" fill="#000000">&lt; tvm::runtime::ObjectRef &gt;</text>
<polyline fill="none" stroke="#000000" points="703.5,-418.5 859.5,-418.5 "/>
<text text-anchor="start" x="711.5" y="-406.5" font-family="Helvetica,sans-Serif" font-size="10.00" fill="#000000">+ _type_is_nullable</text>
<polyline fill="none" stroke="#000000" points="703.5,-399.5 859.5,-399.5 "/>
<text text-anchor="start" x="711.5" y="-387.5" font-family="Helvetica,sans-Serif" font-size="10.00" fill="#000000">+ Optional()</text>
<text text-anchor="start" x="711.5" y="-376.5" font-family="Helvetica,sans-Serif" font-size="10.00" fill="#000000">+ Optional()</text>
<text text-anchor="start" x="711.5" y="-365.5" font-family="Helvetica,sans-Serif" font-size="10.00" fill="#000000">+ Optional()</text>
<text text-anchor="start" x="711.5" y="-354.5" font-family="Helvetica,sans-Serif" font-size="10.00" fill="#000000">+ Optional()</text>
<text text-anchor="start" x="711.5" y="-343.5" font-family="Helvetica,sans-Serif" font-size="10.00" fill="#000000">+ Optional()</text>
<text text-anchor="start" x="711.5" y="-332.5" font-family="Helvetica,sans-Serif" font-size="10.00" fill="#000000">+ Optional()</text>
<text text-anchor="start" x="711.5" y="-321.5" font-family="Helvetica,sans-Serif" font-size="10.00" fill="#000000">+ Optional()</text>
<text text-anchor="start" x="711.5" y="-310.5" font-family="Helvetica,sans-Serif" font-size="10.00" fill="#000000">+ Optional()</text>
<text text-anchor="start" x="711.5" y="-299.5" font-family="Helvetica,sans-Serif" font-size="10.00" fill="#000000">+ operator=()</text>
<text text-anchor="start" x="711.5" y="-288.5" font-family="Helvetica,sans-Serif" font-size="10.00" fill="#000000">+ operator=()</text>
<text text-anchor="start" x="711.5" y="-277.5" font-family="Helvetica,sans-Serif" font-size="10.00" fill="#000000">and 15 more...</text>
</a>
</g>
</g>
<!-- Node40&#45;&gt;Node43 -->
<g id="edge11" class="edge">
<title>Node40&#45;&gt;Node43</title>
<path fill="none" stroke="#191970" d="M584.7204,-882.9957C588.3828,-873.5288 592.0108,-864.1112 595.5,-855 649.8026,-713.2015 711.5022,-548.002 748.4224,-448.6972"/>
<polygon fill="none" stroke="#191970" points="581.3991,-881.8805 581.0504,-892.4696 587.9264,-884.4091 581.3991,-881.8805"/>
</g>
<!-- Node41 -->
<g id="node6" class="node">
<title>Node41</title>
<g id="a_node6"><a xlink:href="classtvm_1_1runtime_1_1ObjectPtr.html" target="_top" xlink:title="{tvm::runtime::ObjectPtr\l\&lt; tvm::runtime::Object \&gt;\n||+ ObjectPtr()\l+ ObjectPtr()\l+ ObjectPtr()\l+ ObjectPtr()\l+ ObjectPtr()\l+ ObjectPtr()\l+ ~ObjectPtr()\l+ swap()\l+ get()\l+ operator&#45;\&gt;()\land 11 more...\l}">
<polygon fill="#ffffff" stroke="#000000" points="467.5,-1162.5 467.5,-1340.5 607.5,-1340.5 607.5,-1162.5 467.5,-1162.5"/>
<text text-anchor="start" x="475.5" y="-1328.5" font-family="Helvetica,sans-Serif" font-size="10.00" fill="#000000">tvm::runtime::ObjectPtr</text>
<text text-anchor="middle" x="537.5" y="-1317.5" font-family="Helvetica,sans-Serif" font-size="10.00" fill="#000000">&lt; tvm::runtime::Object &gt;</text>
<polyline fill="none" stroke="#000000" points="467.5,-1310.5 607.5,-1310.5 "/>
<text text-anchor="middle" x="537.5" y="-1298.5" font-family="Helvetica,sans-Serif" font-size="10.00" fill="#000000"> </text>
<polyline fill="none" stroke="#000000" points="467.5,-1291.5 607.5,-1291.5 "/>
<text text-anchor="start" x="475.5" y="-1279.5" font-family="Helvetica,sans-Serif" font-size="10.00" fill="#000000">+ ObjectPtr()</text>
<text text-anchor="start" x="475.5" y="-1268.5" font-family="Helvetica,sans-Serif" font-size="10.00" fill="#000000">+ ObjectPtr()</text>
<text text-anchor="start" x="475.5" y="-1257.5" font-family="Helvetica,sans-Serif" font-size="10.00" fill="#000000">+ ObjectPtr()</text>
<text text-anchor="start" x="475.5" y="-1246.5" font-family="Helvetica,sans-Serif" font-size="10.00" fill="#000000">+ ObjectPtr()</text>
<text text-anchor="start" x="475.5" y="-1235.5" font-family="Helvetica,sans-Serif" font-size="10.00" fill="#000000">+ ObjectPtr()</text>
<text text-anchor="start" x="475.5" y="-1224.5" font-family="Helvetica,sans-Serif" font-size="10.00" fill="#000000">+ ObjectPtr()</text>
<text text-anchor="start" x="475.5" y="-1213.5" font-family="Helvetica,sans-Serif" font-size="10.00" fill="#000000">+ ~ObjectPtr()</text>
<text text-anchor="start" x="475.5" y="-1202.5" font-family="Helvetica,sans-Serif" font-size="10.00" fill="#000000">+ swap()</text>
<text text-anchor="start" x="475.5" y="-1191.5" font-family="Helvetica,sans-Serif" font-size="10.00" fill="#000000">+ get()</text>
<text text-anchor="start" x="475.5" y="-1180.5" font-family="Helvetica,sans-Serif" font-size="10.00" fill="#000000">+ operator&#45;&gt;()</text>
<text text-anchor="start" x="475.5" y="-1169.5" font-family="Helvetica,sans-Serif" font-size="10.00" fill="#000000">and 11 more...</text>
</a>
</g>
</g>
<!-- Node41&#45;&gt;Node40 -->
<g id="edge6" class="edge">
<title>Node41&#45;&gt;Node40</title>
<path fill="none" stroke="#404040" d="M537.5,-1162.3167C537.5,-1150.8765 537.5,-1139.0062 537.5,-1127.1402"/>
<polygon fill="none" stroke="#404040" points="537.5001,-1126.7944 533.5,-1120.7944 537.5,-1114.7944 541.5,-1120.7943 537.5001,-1126.7944"/>
<text text-anchor="middle" x="557" y="-1136" font-family="Helvetica,sans-Serif" font-size="10.00" fill="#000000"> #data_</text>
</g>
<!-- Node42&#45;&gt;Node36 -->
<g id="edge8" class="edge">
<title>Node42&#45;&gt;Node36</title>
<path fill="none" stroke="#404040" d="M608.7536,-325.3064C589.7052,-274.2069 553.5082,-177.1046 529.6914,-113.2135"/>
<polygon fill="none" stroke="#404040" points="529.5869,-112.9329 523.743,-108.708 525.3953,-101.6887 531.2392,-105.9136 529.5869,-112.9329"/>
<text text-anchor="middle" x="623" y="-193" font-family="Helvetica,sans-Serif" font-size="10.00" fill="#000000"> +checked_type_</text>
</g>
<!-- Node43&#45;&gt;Node36 -->
<g id="edge10" class="edge">
<title>Node43&#45;&gt;Node36</title>
<path fill="none" stroke="#404040" d="M750.8296,-270.4304C732.443,-226.8531 705.5484,-175.9633 669.5,-139 655.329,-124.4693 638.2381,-111.7546 620.5284,-100.8437"/>
<polygon fill="none" stroke="#404040" points="620.3686,-100.749 613.1675,-101.1289 610.0471,-94.6279 617.2483,-94.2479 620.3686,-100.749"/>
<text text-anchor="middle" x="777" y="-193" font-family="Helvetica,sans-Serif" font-size="10.00" fill="#000000"> +struct_info_</text>
</g>
</g>
</svg>
