<?xml version="1.0" encoding="UTF-8" standalone="no"?>
<!DOCTYPE svg PUBLIC "-//W3C//DTD SVG 1.1//EN"
 "http://www.w3.org/Graphics/SVG/1.1/DTD/svg11.dtd">
<!-- Generated by graphviz version 2.40.1 (20161225.0304)
 -->
<!-- Title: tvm::relax::LeafExprNode Pages: 1 -->
<svg width="868pt" height="1455pt"
 viewBox="0.00 0.00 867.50 1455.00" xmlns="http://www.w3.org/2000/svg" xmlns:xlink="http://www.w3.org/1999/xlink">
<g id="graph0" class="graph" transform="scale(1 1) rotate(0) translate(4 1451)">
<title>tvm::relax::LeafExprNode</title>
<polygon fill="#ffffff" stroke="transparent" points="-4,4 -4,-1451 863.5,-1451 863.5,4 -4,4"/>
<!-- Node11 -->
<g id="node1" class="node">
<title>Node11</title>
<polygon fill="#bfbfbf" stroke="#000000" points="403,-.5 403,-68.5 610,-68.5 610,-.5 403,-.5"/>
<text text-anchor="middle" x="506.5" y="-56.5" font-family="Helvetica,sans-Serif" font-size="10.00" fill="#000000">tvm::relax::LeafExprNode</text>
<polyline fill="none" stroke="#000000" points="403,-49.5 610,-49.5 "/>
<text text-anchor="start" x="411" y="-37.5" font-family="Helvetica,sans-Serif" font-size="10.00" fill="#000000">+ _type_key</text>
<text text-anchor="start" x="411" y="-26.5" font-family="Helvetica,sans-Serif" font-size="10.00" fill="#000000">+ _type_child_slots</text>
<polyline fill="none" stroke="#000000" points="403,-19.5 610,-19.5 "/>
<text text-anchor="start" x="411" y="-7.5" font-family="Helvetica,sans-Serif" font-size="10.00" fill="#000000">+ TVM_DECLARE_BASE_OBJECT_INFO()</text>
</g>
<!-- Node12 -->
<g id="node2" class="node">
<title>Node12</title>
<g id="a_node2"><a xlink:href="classtvm_1_1RelayExprNode.html" target="_top" xlink:title="Base node of all non&#45;primitive expressions. ">
<polygon fill="#ffffff" stroke="#000000" points="403,-106.5 403,-207.5 610,-207.5 610,-106.5 403,-106.5"/>
<text text-anchor="middle" x="506.5" y="-195.5" font-family="Helvetica,sans-Serif" font-size="10.00" fill="#000000">ExprNode</text>
<polyline fill="none" stroke="#000000" points="403,-188.5 610,-188.5 "/>
<text text-anchor="start" x="411" y="-176.5" font-family="Helvetica,sans-Serif" font-size="10.00" fill="#000000">+ _type_key</text>
<text text-anchor="start" x="411" y="-165.5" font-family="Helvetica,sans-Serif" font-size="10.00" fill="#000000">+ _type_child_slots</text>
<polyline fill="none" stroke="#000000" points="403,-158.5 610,-158.5 "/>
<text text-anchor="start" x="411" y="-146.5" font-family="Helvetica,sans-Serif" font-size="10.00" fill="#000000">+ checked_type()</text>
<text text-anchor="start" x="411" y="-135.5" font-family="Helvetica,sans-Serif" font-size="10.00" fill="#000000">+ type_as()</text>
<text text-anchor="start" x="411" y="-124.5" font-family="Helvetica,sans-Serif" font-size="10.00" fill="#000000">+ virtual_device()</text>
<text text-anchor="start" x="411" y="-113.5" font-family="Helvetica,sans-Serif" font-size="10.00" fill="#000000">+ TVM_DECLARE_BASE_OBJECT_INFO()</text>
</a>
</g>
</g>
<!-- Node12&#45;&gt;Node11 -->
<g id="edge1" class="edge">
<title>Node12&#45;&gt;Node11</title>
<path fill="none" stroke="#191970" d="M506.5,-96.186C506.5,-86.6659 506.5,-77.1318 506.5,-68.5036"/>
<polygon fill="none" stroke="#191970" points="503.0001,-96.4673 506.5,-106.4673 510.0001,-96.4674 503.0001,-96.4673"/>
</g>
<!-- Node13 -->
<g id="node3" class="node">
<title>Node13</title>
<g id="a_node3"><a xlink:href="classtvm_1_1BaseExprNode.html" target="_top" xlink:title="Base type of all the expressions. ">
<polygon fill="#ffffff" stroke="#000000" points="218,-245.5 218,-357.5 425,-357.5 425,-245.5 218,-245.5"/>
<text text-anchor="middle" x="321.5" y="-345.5" font-family="Helvetica,sans-Serif" font-size="10.00" fill="#000000">tvm::BaseExprNode</text>
<polyline fill="none" stroke="#000000" points="218,-338.5 425,-338.5 "/>
<text text-anchor="start" x="226" y="-326.5" font-family="Helvetica,sans-Serif" font-size="10.00" fill="#000000">+ _type_key</text>
<text text-anchor="start" x="226" y="-315.5" font-family="Helvetica,sans-Serif" font-size="10.00" fill="#000000">+ _type_has_method_sequal</text>
<text text-anchor="start" x="226" y="-304.5" font-family="Helvetica,sans-Serif" font-size="10.00" fill="#000000">_reduce</text>
<text text-anchor="start" x="226" y="-293.5" font-family="Helvetica,sans-Serif" font-size="10.00" fill="#000000">+ _type_has_method_shash</text>
<text text-anchor="start" x="226" y="-282.5" font-family="Helvetica,sans-Serif" font-size="10.00" fill="#000000">_reduce</text>
<text text-anchor="start" x="226" y="-271.5" font-family="Helvetica,sans-Serif" font-size="10.00" fill="#000000">+ _type_child_slots</text>
<polyline fill="none" stroke="#000000" points="218,-264.5 425,-264.5 "/>
<text text-anchor="start" x="226" y="-252.5" font-family="Helvetica,sans-Serif" font-size="10.00" fill="#000000">+ TVM_DECLARE_BASE_OBJECT_INFO()</text>
</a>
</g>
</g>
<!-- Node13&#45;&gt;Node12 -->
<g id="edge2" class="edge">
<title>Node13&#45;&gt;Node12</title>
<path fill="none" stroke="#191970" d="M401.2,-239.2479C414.7215,-228.6864 428.6152,-217.8344 441.695,-207.618"/>
<polygon fill="none" stroke="#191970" points="399.017,-236.5117 393.2906,-245.4257 403.326,-242.0284 399.017,-236.5117"/>
</g>
<!-- Node14 -->
<g id="node4" class="node">
<title>Node14</title>
<g id="a_node4"><a xlink:href="classtvm_1_1runtime_1_1Object.html" target="_top" xlink:title="base class of all object containers. ">
<polygon fill="#ffffff" stroke="#000000" points="0,-573.5 0,-960.5 183,-960.5 183,-573.5 0,-573.5"/>
<text text-anchor="middle" x="91.5" y="-948.5" font-family="Helvetica,sans-Serif" font-size="10.00" fill="#000000">tvm::runtime::Object</text>
<polyline fill="none" stroke="#000000" points="0,-941.5 183,-941.5 "/>
<text text-anchor="start" x="8" y="-929.5" font-family="Helvetica,sans-Serif" font-size="10.00" fill="#000000">+ _type_key</text>
<text text-anchor="start" x="8" y="-918.5" font-family="Helvetica,sans-Serif" font-size="10.00" fill="#000000">+ _type_final</text>
<text text-anchor="start" x="8" y="-907.5" font-family="Helvetica,sans-Serif" font-size="10.00" fill="#000000">+ _type_child_slots</text>
<text text-anchor="start" x="8" y="-896.5" font-family="Helvetica,sans-Serif" font-size="10.00" fill="#000000">+ _type_child_slots_can</text>
<text text-anchor="start" x="8" y="-885.5" font-family="Helvetica,sans-Serif" font-size="10.00" fill="#000000">_overflow</text>
<text text-anchor="start" x="8" y="-874.5" font-family="Helvetica,sans-Serif" font-size="10.00" fill="#000000">+ _type_has_method_visit</text>
<text text-anchor="start" x="8" y="-863.5" font-family="Helvetica,sans-Serif" font-size="10.00" fill="#000000">_attrs</text>
<text text-anchor="start" x="8" y="-852.5" font-family="Helvetica,sans-Serif" font-size="10.00" fill="#000000">+ _type_has_method_sequal</text>
<text text-anchor="start" x="8" y="-841.5" font-family="Helvetica,sans-Serif" font-size="10.00" fill="#000000">_reduce</text>
<text text-anchor="start" x="8" y="-830.5" font-family="Helvetica,sans-Serif" font-size="10.00" fill="#000000">+ _type_has_method_shash</text>
<text text-anchor="start" x="8" y="-819.5" font-family="Helvetica,sans-Serif" font-size="10.00" fill="#000000">_reduce</text>
<text text-anchor="start" x="8" y="-808.5" font-family="Helvetica,sans-Serif" font-size="10.00" fill="#000000">+ _type_index</text>
<text text-anchor="start" x="8" y="-797.5" font-family="Helvetica,sans-Serif" font-size="10.00" fill="#000000"># type_index_</text>
<text text-anchor="start" x="8" y="-786.5" font-family="Helvetica,sans-Serif" font-size="10.00" fill="#000000"># ref_counter_</text>
<polyline fill="none" stroke="#000000" points="0,-779.5 183,-779.5 "/>
<text text-anchor="start" x="8" y="-767.5" font-family="Helvetica,sans-Serif" font-size="10.00" fill="#000000">+ type_index()</text>
<text text-anchor="start" x="8" y="-756.5" font-family="Helvetica,sans-Serif" font-size="10.00" fill="#000000">+ GetTypeKey()</text>
<text text-anchor="start" x="8" y="-745.5" font-family="Helvetica,sans-Serif" font-size="10.00" fill="#000000">+ GetTypeKeyHash()</text>
<text text-anchor="start" x="8" y="-734.5" font-family="Helvetica,sans-Serif" font-size="10.00" fill="#000000">+ IsInstance()</text>
<text text-anchor="start" x="8" y="-723.5" font-family="Helvetica,sans-Serif" font-size="10.00" fill="#000000">+ unique()</text>
<text text-anchor="start" x="8" y="-712.5" font-family="Helvetica,sans-Serif" font-size="10.00" fill="#000000">+ Object()</text>
<text text-anchor="start" x="8" y="-701.5" font-family="Helvetica,sans-Serif" font-size="10.00" fill="#000000">+ Object()</text>
<text text-anchor="start" x="8" y="-690.5" font-family="Helvetica,sans-Serif" font-size="10.00" fill="#000000">+ Object()</text>
<text text-anchor="start" x="8" y="-679.5" font-family="Helvetica,sans-Serif" font-size="10.00" fill="#000000">+ operator=()</text>
<text text-anchor="start" x="8" y="-668.5" font-family="Helvetica,sans-Serif" font-size="10.00" fill="#000000">+ operator=()</text>
<text text-anchor="start" x="8" y="-657.5" font-family="Helvetica,sans-Serif" font-size="10.00" fill="#000000">+ TypeIndex2Key()</text>
<text text-anchor="start" x="8" y="-646.5" font-family="Helvetica,sans-Serif" font-size="10.00" fill="#000000">+ TypeIndex2KeyHash()</text>
<text text-anchor="start" x="8" y="-635.5" font-family="Helvetica,sans-Serif" font-size="10.00" fill="#000000">+ TypeKey2Index()</text>
<text text-anchor="start" x="8" y="-624.5" font-family="Helvetica,sans-Serif" font-size="10.00" fill="#000000">+ _GetOrAllocRuntimeTypeIndex()</text>
<text text-anchor="start" x="8" y="-613.5" font-family="Helvetica,sans-Serif" font-size="10.00" fill="#000000">+ RuntimeTypeIndex()</text>
<text text-anchor="start" x="8" y="-602.5" font-family="Helvetica,sans-Serif" font-size="10.00" fill="#000000"># IncRef()</text>
<text text-anchor="start" x="8" y="-591.5" font-family="Helvetica,sans-Serif" font-size="10.00" fill="#000000"># DecRef()</text>
<text text-anchor="start" x="8" y="-580.5" font-family="Helvetica,sans-Serif" font-size="10.00" fill="#000000"># GetOrAllocRuntimeTypeIndex()</text>
</a>
</g>
</g>
<!-- Node14&#45;&gt;Node13 -->
<g id="edge3" class="edge">
<title>Node14&#45;&gt;Node13</title>
<path fill="none" stroke="#191970" d="M187.7259,-572.2472C226.088,-494.6055 267.3149,-411.166 293.7043,-357.756"/>
<polygon fill="none" stroke="#191970" points="184.3548,-571.1687 183.063,-581.6845 190.6306,-574.2696 184.3548,-571.1687"/>
</g>
<!-- Node14&#45;&gt;Node14 -->
<g id="edge4" class="edge">
<title>Node14&#45;&gt;Node14</title>
<path fill="none" stroke="#404040" d="M183.3625,-800.9248C194.0482,-794.6637 201,-783.3555 201,-767 201,-756.0112 197.8618,-747.3007 192.5615,-740.8687"/>
<polygon fill="none" stroke="#404040" points="192.5184,-740.8322 185.3548,-740.0056 183.3625,-733.0752 190.5261,-733.9017 192.5184,-740.8322"/>
<text text-anchor="middle" x="227" y="-764.5" font-family="Helvetica,sans-Serif" font-size="10.00" fill="#000000"> #deleter_</text>
</g>
<!-- Node15 -->
<g id="node5" class="node">
<title>Node15</title>
<g id="a_node5"><a xlink:href="classtvm_1_1Span.html" target="_top" xlink:title="{tvm::Span\n||+ Span()\l+ Merge()\l+ TVM_DEFINE_OBJECT_REF\l_METHODS()\l}">
<polygon fill="#ffffff" stroke="#000000" points="271.5,-722 271.5,-812 425.5,-812 425.5,-722 271.5,-722"/>
<text text-anchor="middle" x="348.5" y="-800" font-family="Helvetica,sans-Serif" font-size="10.00" fill="#000000">tvm::Span</text>
<polyline fill="none" stroke="#000000" points="271.5,-793 425.5,-793 "/>
<text text-anchor="middle" x="348.5" y="-781" font-family="Helvetica,sans-Serif" font-size="10.00" fill="#000000"> </text>
<polyline fill="none" stroke="#000000" points="271.5,-774 425.5,-774 "/>
<text text-anchor="start" x="279.5" y="-762" font-family="Helvetica,sans-Serif" font-size="10.00" fill="#000000">+ Span()</text>
<text text-anchor="start" x="279.5" y="-751" font-family="Helvetica,sans-Serif" font-size="10.00" fill="#000000">+ Merge()</text>
<text text-anchor="start" x="279.5" y="-740" font-family="Helvetica,sans-Serif" font-size="10.00" fill="#000000">+ TVM_DEFINE_OBJECT_REF</text>
<text text-anchor="start" x="279.5" y="-729" font-family="Helvetica,sans-Serif" font-size="10.00" fill="#000000">_METHODS()</text>
</a>
</g>
</g>
<!-- Node15&#45;&gt;Node13 -->
<g id="edge5" class="edge">
<title>Node15&#45;&gt;Node13</title>
<path fill="none" stroke="#404040" d="M345.8866,-721.9429C341.1385,-640.0818 331.0703,-466.4987 325.4693,-369.934"/>
<polygon fill="none" stroke="#404040" points="325.4543,-369.6739 321.1136,-363.9156 324.7594,-357.6941 329.1001,-363.4523 325.4543,-369.6739"/>
<text text-anchor="middle" x="353" y="-463" font-family="Helvetica,sans-Serif" font-size="10.00" fill="#000000"> +span</text>
</g>
<!-- Node16 -->
<g id="node6" class="node">
<title>Node16</title>
<g id="a_node6"><a xlink:href="classtvm_1_1runtime_1_1ObjectRef.html" target="_top" xlink:title="Base class of all object reference. ">
<polygon fill="#ffffff" stroke="#000000" points="470.5,-998.5 470.5,-1220.5 604.5,-1220.5 604.5,-998.5 470.5,-998.5"/>
<text text-anchor="middle" x="537.5" y="-1208.5" font-family="Helvetica,sans-Serif" font-size="10.00" fill="#000000">tvm::runtime::ObjectRef</text>
<polyline fill="none" stroke="#000000" points="470.5,-1201.5 604.5,-1201.5 "/>
<text text-anchor="start" x="478.5" y="-1189.5" font-family="Helvetica,sans-Serif" font-size="10.00" fill="#000000">+ _type_is_nullable</text>
<polyline fill="none" stroke="#000000" points="470.5,-1182.5 604.5,-1182.5 "/>
<text text-anchor="start" x="478.5" y="-1170.5" font-family="Helvetica,sans-Serif" font-size="10.00" fill="#000000">+ ObjectRef()</text>
<text text-anchor="start" x="478.5" y="-1159.5" font-family="Helvetica,sans-Serif" font-size="10.00" fill="#000000">+ ObjectRef()</text>
<text text-anchor="start" x="478.5" y="-1148.5" font-family="Helvetica,sans-Serif" font-size="10.00" fill="#000000">+ same_as()</text>
<text text-anchor="start" x="478.5" y="-1137.5" font-family="Helvetica,sans-Serif" font-size="10.00" fill="#000000">+ operator==()</text>
<text text-anchor="start" x="478.5" y="-1126.5" font-family="Helvetica,sans-Serif" font-size="10.00" fill="#000000">+ operator!=()</text>
<text text-anchor="start" x="478.5" y="-1115.5" font-family="Helvetica,sans-Serif" font-size="10.00" fill="#000000">+ operator&lt;()</text>
<text text-anchor="start" x="478.5" y="-1104.5" font-family="Helvetica,sans-Serif" font-size="10.00" fill="#000000">+ defined()</text>
<text text-anchor="start" x="478.5" y="-1093.5" font-family="Helvetica,sans-Serif" font-size="10.00" fill="#000000">+ get()</text>
<text text-anchor="start" x="478.5" y="-1082.5" font-family="Helvetica,sans-Serif" font-size="10.00" fill="#000000">+ operator&#45;&gt;()</text>
<text text-anchor="start" x="478.5" y="-1071.5" font-family="Helvetica,sans-Serif" font-size="10.00" fill="#000000">+ unique()</text>
<text text-anchor="start" x="478.5" y="-1060.5" font-family="Helvetica,sans-Serif" font-size="10.00" fill="#000000">+ use_count()</text>
<text text-anchor="start" x="478.5" y="-1049.5" font-family="Helvetica,sans-Serif" font-size="10.00" fill="#000000">+ as()</text>
<text text-anchor="start" x="478.5" y="-1038.5" font-family="Helvetica,sans-Serif" font-size="10.00" fill="#000000"># get_mutable()</text>
<text text-anchor="start" x="478.5" y="-1027.5" font-family="Helvetica,sans-Serif" font-size="10.00" fill="#000000"># DowncastNoCheck()</text>
<text text-anchor="start" x="478.5" y="-1016.5" font-family="Helvetica,sans-Serif" font-size="10.00" fill="#000000"># FFIClearAfterMove()</text>
<text text-anchor="start" x="478.5" y="-1005.5" font-family="Helvetica,sans-Serif" font-size="10.00" fill="#000000"># GetDataPtr()</text>
</a>
</g>
</g>
<!-- Node16&#45;&gt;Node12 -->
<g id="edge8" class="edge">
<title>Node16&#45;&gt;Node12</title>
<path fill="none" stroke="#404040" d="M507.0165,-998.2142C471.5648,-854.4334 421.2869,-596.4068 449.5,-376 456.3997,-322.0979 472.4836,-262.5103 485.8128,-219.1166"/>
<polygon fill="none" stroke="#404040" points="485.8296,-219.0627 483.7962,-212.1442 489.4004,-207.6063 491.4338,-214.5248 485.8296,-219.0627"/>
<text text-anchor="middle" x="492.5" y="-463" font-family="Helvetica,sans-Serif" font-size="10.00" fill="#000000"> +virtual_device_</text>
</g>
<!-- Node16&#45;&gt;Node15 -->
<g id="edge6" class="edge">
<title>Node16&#45;&gt;Node15</title>
<path fill="none" stroke="#191970" d="M464.4646,-1018.6704C455.5657,-1006.0041 446.9872,-992.9029 439.5,-980 407.5109,-924.8719 380.2498,-856.3575 364.1247,-812.1654"/>
<polygon fill="none" stroke="#191970" points="461.6949,-1020.8147 470.3504,-1026.9247 467.3943,-1016.7506 461.6949,-1020.8147"/>
</g>
<!-- Node18 -->
<g id="node8" class="node">
<title>Node18</title>
<g id="a_node8"><a xlink:href="classtvm_1_1Type.html" target="_top" xlink:title="Managed reference to TypeNode. ">
<polygon fill="#ffffff" stroke="#000000" points="544.5,-431.5 544.5,-499.5 698.5,-499.5 698.5,-431.5 544.5,-431.5"/>
<text text-anchor="middle" x="621.5" y="-487.5" font-family="Helvetica,sans-Serif" font-size="10.00" fill="#000000">tvm::Type</text>
<polyline fill="none" stroke="#000000" points="544.5,-480.5 698.5,-480.5 "/>
<text text-anchor="middle" x="621.5" y="-468.5" font-family="Helvetica,sans-Serif" font-size="10.00" fill="#000000"> </text>
<polyline fill="none" stroke="#000000" points="544.5,-461.5 698.5,-461.5 "/>
<text text-anchor="start" x="552.5" y="-449.5" font-family="Helvetica,sans-Serif" font-size="10.00" fill="#000000">+ TVM_DEFINE_OBJECT_REF</text>
<text text-anchor="start" x="552.5" y="-438.5" font-family="Helvetica,sans-Serif" font-size="10.00" fill="#000000">_METHODS()</text>
</a>
</g>
</g>
<!-- Node16&#45;&gt;Node18 -->
<g id="edge10" class="edge">
<title>Node16&#45;&gt;Node18</title>
<path fill="none" stroke="#191970" d="M553.3213,-988.2037C572.9621,-837.6238 605.3064,-589.6513 617.0577,-499.5576"/>
<polygon fill="none" stroke="#191970" points="549.8108,-988.0572 551.9879,-998.4259 556.752,-988.9626 549.8108,-988.0572"/>
</g>
<!-- Node19 -->
<g id="node9" class="node">
<title>Node19</title>
<g id="a_node9"><a xlink:href="classtvm_1_1runtime_1_1Optional.html" target="_top" xlink:title="{tvm::runtime::Optional\l\&lt; tvm::runtime::ObjectRef \&gt;\n|+ _type_is_nullable\l|+ Optional()\l+ Optional()\l+ Optional()\l+ Optional()\l+ Optional()\l+ Optional()\l+ Optional()\l+ Optional()\l+ operator=()\l+ operator=()\land 15 more...\l}">
<polygon fill="#ffffff" stroke="#000000" points="703.5,-376.5 703.5,-554.5 859.5,-554.5 859.5,-376.5 703.5,-376.5"/>
<text text-anchor="start" x="711.5" y="-542.5" font-family="Helvetica,sans-Serif" font-size="10.00" fill="#000000">tvm::runtime::Optional</text>
<text text-anchor="middle" x="781.5" y="-531.5" font-family="Helvetica,sans-Serif" font-size="10.00" fill="#000000">&lt; tvm::runtime::ObjectRef &gt;</text>
<polyline fill="none" stroke="#000000" points="703.5,-524.5 859.5,-524.5 "/>
<text text-anchor="start" x="711.5" y="-512.5" font-family="Helvetica,sans-Serif" font-size="10.00" fill="#000000">+ _type_is_nullable</text>
<polyline fill="none" stroke="#000000" points="703.5,-505.5 859.5,-505.5 "/>
<text text-anchor="start" x="711.5" y="-493.5" font-family="Helvetica,sans-Serif" font-size="10.00" fill="#000000">+ Optional()</text>
<text text-anchor="start" x="711.5" y="-482.5" font-family="Helvetica,sans-Serif" font-size="10.00" fill="#000000">+ Optional()</text>
<text text-anchor="start" x="711.5" y="-471.5" font-family="Helvetica,sans-Serif" font-size="10.00" fill="#000000">+ Optional()</text>
<text text-anchor="start" x="711.5" y="-460.5" font-family="Helvetica,sans-Serif" font-size="10.00" fill="#000000">+ Optional()</text>
<text text-anchor="start" x="711.5" y="-449.5" font-family="Helvetica,sans-Serif" font-size="10.00" fill="#000000">+ Optional()</text>
<text text-anchor="start" x="711.5" y="-438.5" font-family="Helvetica,sans-Serif" font-size="10.00" fill="#000000">+ Optional()</text>
<text text-anchor="start" x="711.5" y="-427.5" font-family="Helvetica,sans-Serif" font-size="10.00" fill="#000000">+ Optional()</text>
<text text-anchor="start" x="711.5" y="-416.5" font-family="Helvetica,sans-Serif" font-size="10.00" fill="#000000">+ Optional()</text>
<text text-anchor="start" x="711.5" y="-405.5" font-family="Helvetica,sans-Serif" font-size="10.00" fill="#000000">+ operator=()</text>
<text text-anchor="start" x="711.5" y="-394.5" font-family="Helvetica,sans-Serif" font-size="10.00" fill="#000000">+ operator=()</text>
<text text-anchor="start" x="711.5" y="-383.5" font-family="Helvetica,sans-Serif" font-size="10.00" fill="#000000">and 15 more...</text>
</a>
</g>
</g>
<!-- Node16&#45;&gt;Node19 -->
<g id="edge12" class="edge">
<title>Node16&#45;&gt;Node19</title>
<path fill="none" stroke="#191970" d="M584.7204,-988.9957C588.3828,-979.5288 592.0108,-970.1112 595.5,-961 649.8026,-819.2015 711.5022,-654.002 748.4224,-554.6972"/>
<polygon fill="none" stroke="#191970" points="581.3991,-987.8805 581.0504,-998.4696 587.9264,-990.4091 581.3991,-987.8805"/>
</g>
<!-- Node17 -->
<g id="node7" class="node">
<title>Node17</title>
<g id="a_node7"><a xlink:href="classtvm_1_1runtime_1_1ObjectPtr.html" target="_top" xlink:title="{tvm::runtime::ObjectPtr\l\&lt; tvm::runtime::Object \&gt;\n||+ ObjectPtr()\l+ ObjectPtr()\l+ ObjectPtr()\l+ ObjectPtr()\l+ ObjectPtr()\l+ ObjectPtr()\l+ ~ObjectPtr()\l+ swap()\l+ get()\l+ operator&#45;\&gt;()\land 11 more...\l}">
<polygon fill="#ffffff" stroke="#000000" points="467.5,-1268.5 467.5,-1446.5 607.5,-1446.5 607.5,-1268.5 467.5,-1268.5"/>
<text text-anchor="start" x="475.5" y="-1434.5" font-family="Helvetica,sans-Serif" font-size="10.00" fill="#000000">tvm::runtime::ObjectPtr</text>
<text text-anchor="middle" x="537.5" y="-1423.5" font-family="Helvetica,sans-Serif" font-size="10.00" fill="#000000">&lt; tvm::runtime::Object &gt;</text>
<polyline fill="none" stroke="#000000" points="467.5,-1416.5 607.5,-1416.5 "/>
<text text-anchor="middle" x="537.5" y="-1404.5" font-family="Helvetica,sans-Serif" font-size="10.00" fill="#000000"> </text>
<polyline fill="none" stroke="#000000" points="467.5,-1397.5 607.5,-1397.5 "/>
<text text-anchor="start" x="475.5" y="-1385.5" font-family="Helvetica,sans-Serif" font-size="10.00" fill="#000000">+ ObjectPtr()</text>
<text text-anchor="start" x="475.5" y="-1374.5" font-family="Helvetica,sans-Serif" font-size="10.00" fill="#000000">+ ObjectPtr()</text>
<text text-anchor="start" x="475.5" y="-1363.5" font-family="Helvetica,sans-Serif" font-size="10.00" fill="#000000">+ ObjectPtr()</text>
<text text-anchor="start" x="475.5" y="-1352.5" font-family="Helvetica,sans-Serif" font-size="10.00" fill="#000000">+ ObjectPtr()</text>
<text text-anchor="start" x="475.5" y="-1341.5" font-family="Helvetica,sans-Serif" font-size="10.00" fill="#000000">+ ObjectPtr()</text>
<text text-anchor="start" x="475.5" y="-1330.5" font-family="Helvetica,sans-Serif" font-size="10.00" fill="#000000">+ ObjectPtr()</text>
<text text-anchor="start" x="475.5" y="-1319.5" font-family="Helvetica,sans-Serif" font-size="10.00" fill="#000000">+ ~ObjectPtr()</text>
<text text-anchor="start" x="475.5" y="-1308.5" font-family="Helvetica,sans-Serif" font-size="10.00" fill="#000000">+ swap()</text>
<text text-anchor="start" x="475.5" y="-1297.5" font-family="Helvetica,sans-Serif" font-size="10.00" fill="#000000">+ get()</text>
<text text-anchor="start" x="475.5" y="-1286.5" font-family="Helvetica,sans-Serif" font-size="10.00" fill="#000000">+ operator&#45;&gt;()</text>
<text text-anchor="start" x="475.5" y="-1275.5" font-family="Helvetica,sans-Serif" font-size="10.00" fill="#000000">and 11 more...</text>
</a>
</g>
</g>
<!-- Node17&#45;&gt;Node16 -->
<g id="edge7" class="edge">
<title>Node17&#45;&gt;Node16</title>
<path fill="none" stroke="#404040" d="M537.5,-1268.3167C537.5,-1256.8765 537.5,-1245.0062 537.5,-1233.1402"/>
<polygon fill="none" stroke="#404040" points="537.5001,-1232.7944 533.5,-1226.7944 537.5,-1220.7944 541.5,-1226.7943 537.5001,-1232.7944"/>
<text text-anchor="middle" x="557" y="-1242" font-family="Helvetica,sans-Serif" font-size="10.00" fill="#000000"> #data_</text>
</g>
<!-- Node18&#45;&gt;Node12 -->
<g id="edge9" class="edge">
<title>Node18&#45;&gt;Node12</title>
<path fill="none" stroke="#404040" d="M608.7536,-431.3064C589.7052,-380.2069 553.5082,-283.1046 529.6914,-219.2135"/>
<polygon fill="none" stroke="#404040" points="529.5869,-218.9329 523.743,-214.708 525.3953,-207.6887 531.2392,-211.9136 529.5869,-218.9329"/>
<text text-anchor="middle" x="623" y="-299" font-family="Helvetica,sans-Serif" font-size="10.00" fill="#000000"> +checked_type_</text>
</g>
<!-- Node19&#45;&gt;Node12 -->
<g id="edge11" class="edge">
<title>Node19&#45;&gt;Node12</title>
<path fill="none" stroke="#404040" d="M750.8296,-376.4304C732.443,-332.8531 705.5484,-281.9633 669.5,-245 655.329,-230.4693 638.2381,-217.7546 620.5284,-206.8437"/>
<polygon fill="none" stroke="#404040" points="620.3686,-206.749 613.1675,-207.1289 610.0471,-200.6279 617.2483,-200.2479 620.3686,-206.749"/>
<text text-anchor="middle" x="777" y="-299" font-family="Helvetica,sans-Serif" font-size="10.00" fill="#000000"> +struct_info_</text>
</g>
</g>
</svg>
