<?xml version="1.0" encoding="UTF-8" standalone="no"?>
<!DOCTYPE svg PUBLIC "-//W3C//DTD SVG 1.1//EN"
 "http://www.w3.org/Graphics/SVG/1.1/DTD/svg11.dtd">
<!-- Generated by graphviz version 2.40.1 (20161225.0304)
 -->
<!-- Title: tvm::relay::MatchNode Pages: 1 -->
<svg width="873pt" height="1622pt"
 viewBox="0.00 0.00 873.00 1622.00" xmlns="http://www.w3.org/2000/svg" xmlns:xlink="http://www.w3.org/1999/xlink">
<g id="graph0" class="graph" transform="scale(1 1) rotate(0) translate(4 1618)">
<title>tvm::relay::MatchNode</title>
<polygon fill="#ffffff" stroke="transparent" points="-4,4 -4,-1618 869,-1618 869,4 -4,4"/>
<!-- Node4 -->
<g id="node1" class="node">
<title>Node4</title>
<polygon fill="#bfbfbf" stroke="#000000" points="594.5,-.5 594.5,-101.5 803.5,-101.5 803.5,-.5 594.5,-.5"/>
<text text-anchor="middle" x="699" y="-89.5" font-family="Helvetica,sans-Serif" font-size="10.00" fill="#000000">tvm::relay::MatchNode</text>
<polyline fill="none" stroke="#000000" points="594.5,-82.5 803.5,-82.5 "/>
<text text-anchor="start" x="602.5" y="-70.5" font-family="Helvetica,sans-Serif" font-size="10.00" fill="#000000">+ complete</text>
<text text-anchor="start" x="602.5" y="-59.5" font-family="Helvetica,sans-Serif" font-size="10.00" fill="#000000">+ _type_key</text>
<polyline fill="none" stroke="#000000" points="594.5,-52.5 803.5,-52.5 "/>
<text text-anchor="start" x="602.5" y="-40.5" font-family="Helvetica,sans-Serif" font-size="10.00" fill="#000000">+ VisitAttrs()</text>
<text text-anchor="start" x="602.5" y="-29.5" font-family="Helvetica,sans-Serif" font-size="10.00" fill="#000000">+ SEqualReduce()</text>
<text text-anchor="start" x="602.5" y="-18.5" font-family="Helvetica,sans-Serif" font-size="10.00" fill="#000000">+ SHashReduce()</text>
<text text-anchor="start" x="602.5" y="-7.5" font-family="Helvetica,sans-Serif" font-size="10.00" fill="#000000">+ TVM_DECLARE_FINAL_OBJECT_INFO()</text>
</g>
<!-- Node5 -->
<g id="node2" class="node">
<title>Node5</title>
<g id="a_node2"><a xlink:href="classtvm_1_1RelayExprNode.html" target="_top" xlink:title="Base node of all non&#45;primitive expressions. ">
<polygon fill="#ffffff" stroke="#000000" points="349.5,-139.5 349.5,-240.5 556.5,-240.5 556.5,-139.5 349.5,-139.5"/>
<text text-anchor="middle" x="453" y="-228.5" font-family="Helvetica,sans-Serif" font-size="10.00" fill="#000000">ExprNode</text>
<polyline fill="none" stroke="#000000" points="349.5,-221.5 556.5,-221.5 "/>
<text text-anchor="start" x="357.5" y="-209.5" font-family="Helvetica,sans-Serif" font-size="10.00" fill="#000000">+ _type_key</text>
<text text-anchor="start" x="357.5" y="-198.5" font-family="Helvetica,sans-Serif" font-size="10.00" fill="#000000">+ _type_child_slots</text>
<polyline fill="none" stroke="#000000" points="349.5,-191.5 556.5,-191.5 "/>
<text text-anchor="start" x="357.5" y="-179.5" font-family="Helvetica,sans-Serif" font-size="10.00" fill="#000000">+ checked_type()</text>
<text text-anchor="start" x="357.5" y="-168.5" font-family="Helvetica,sans-Serif" font-size="10.00" fill="#000000">+ type_as()</text>
<text text-anchor="start" x="357.5" y="-157.5" font-family="Helvetica,sans-Serif" font-size="10.00" fill="#000000">+ virtual_device()</text>
<text text-anchor="start" x="357.5" y="-146.5" font-family="Helvetica,sans-Serif" font-size="10.00" fill="#000000">+ TVM_DECLARE_BASE_OBJECT_INFO()</text>
</a>
</g>
</g>
<!-- Node5&#45;&gt;Node4 -->
<g id="edge1" class="edge">
<title>Node5&#45;&gt;Node4</title>
<path fill="none" stroke="#191970" d="M551.2842,-134.4654C570.5309,-123.5903 590.6198,-112.2392 609.5591,-101.5377"/>
<polygon fill="none" stroke="#191970" points="549.492,-131.4579 542.5075,-139.4246 552.9356,-137.5524 549.492,-131.4579"/>
</g>
<!-- Node6 -->
<g id="node3" class="node">
<title>Node6</title>
<g id="a_node3"><a xlink:href="classtvm_1_1BaseExprNode.html" target="_top" xlink:title="Base type of all the expressions. ">
<polygon fill="#ffffff" stroke="#000000" points="349.5,-379.5 349.5,-491.5 556.5,-491.5 556.5,-379.5 349.5,-379.5"/>
<text text-anchor="middle" x="453" y="-479.5" font-family="Helvetica,sans-Serif" font-size="10.00" fill="#000000">tvm::BaseExprNode</text>
<polyline fill="none" stroke="#000000" points="349.5,-472.5 556.5,-472.5 "/>
<text text-anchor="start" x="357.5" y="-460.5" font-family="Helvetica,sans-Serif" font-size="10.00" fill="#000000">+ _type_key</text>
<text text-anchor="start" x="357.5" y="-449.5" font-family="Helvetica,sans-Serif" font-size="10.00" fill="#000000">+ _type_has_method_sequal</text>
<text text-anchor="start" x="357.5" y="-438.5" font-family="Helvetica,sans-Serif" font-size="10.00" fill="#000000">_reduce</text>
<text text-anchor="start" x="357.5" y="-427.5" font-family="Helvetica,sans-Serif" font-size="10.00" fill="#000000">+ _type_has_method_shash</text>
<text text-anchor="start" x="357.5" y="-416.5" font-family="Helvetica,sans-Serif" font-size="10.00" fill="#000000">_reduce</text>
<text text-anchor="start" x="357.5" y="-405.5" font-family="Helvetica,sans-Serif" font-size="10.00" fill="#000000">+ _type_child_slots</text>
<polyline fill="none" stroke="#000000" points="349.5,-398.5 556.5,-398.5 "/>
<text text-anchor="start" x="357.5" y="-386.5" font-family="Helvetica,sans-Serif" font-size="10.00" fill="#000000">+ TVM_DECLARE_BASE_OBJECT_INFO()</text>
</a>
</g>
</g>
<!-- Node6&#45;&gt;Node5 -->
<g id="edge2" class="edge">
<title>Node6&#45;&gt;Node5</title>
<path fill="none" stroke="#191970" d="M453,-369.4443C453,-329.0008 453,-278.0346 453,-240.7625"/>
<polygon fill="none" stroke="#191970" points="449.5001,-369.485 453,-379.4851 456.5001,-369.4851 449.5001,-369.485"/>
</g>
<!-- Node7 -->
<g id="node4" class="node">
<title>Node7</title>
<g id="a_node4"><a xlink:href="classtvm_1_1runtime_1_1Object.html" target="_top" xlink:title="base class of all object containers. ">
<polygon fill="#ffffff" stroke="#000000" points="140.5,-740.5 140.5,-1127.5 323.5,-1127.5 323.5,-740.5 140.5,-740.5"/>
<text text-anchor="middle" x="232" y="-1115.5" font-family="Helvetica,sans-Serif" font-size="10.00" fill="#000000">tvm::runtime::Object</text>
<polyline fill="none" stroke="#000000" points="140.5,-1108.5 323.5,-1108.5 "/>
<text text-anchor="start" x="148.5" y="-1096.5" font-family="Helvetica,sans-Serif" font-size="10.00" fill="#000000">+ _type_key</text>
<text text-anchor="start" x="148.5" y="-1085.5" font-family="Helvetica,sans-Serif" font-size="10.00" fill="#000000">+ _type_final</text>
<text text-anchor="start" x="148.5" y="-1074.5" font-family="Helvetica,sans-Serif" font-size="10.00" fill="#000000">+ _type_child_slots</text>
<text text-anchor="start" x="148.5" y="-1063.5" font-family="Helvetica,sans-Serif" font-size="10.00" fill="#000000">+ _type_child_slots_can</text>
<text text-anchor="start" x="148.5" y="-1052.5" font-family="Helvetica,sans-Serif" font-size="10.00" fill="#000000">_overflow</text>
<text text-anchor="start" x="148.5" y="-1041.5" font-family="Helvetica,sans-Serif" font-size="10.00" fill="#000000">+ _type_has_method_visit</text>
<text text-anchor="start" x="148.5" y="-1030.5" font-family="Helvetica,sans-Serif" font-size="10.00" fill="#000000">_attrs</text>
<text text-anchor="start" x="148.5" y="-1019.5" font-family="Helvetica,sans-Serif" font-size="10.00" fill="#000000">+ _type_has_method_sequal</text>
<text text-anchor="start" x="148.5" y="-1008.5" font-family="Helvetica,sans-Serif" font-size="10.00" fill="#000000">_reduce</text>
<text text-anchor="start" x="148.5" y="-997.5" font-family="Helvetica,sans-Serif" font-size="10.00" fill="#000000">+ _type_has_method_shash</text>
<text text-anchor="start" x="148.5" y="-986.5" font-family="Helvetica,sans-Serif" font-size="10.00" fill="#000000">_reduce</text>
<text text-anchor="start" x="148.5" y="-975.5" font-family="Helvetica,sans-Serif" font-size="10.00" fill="#000000">+ _type_index</text>
<text text-anchor="start" x="148.5" y="-964.5" font-family="Helvetica,sans-Serif" font-size="10.00" fill="#000000"># type_index_</text>
<text text-anchor="start" x="148.5" y="-953.5" font-family="Helvetica,sans-Serif" font-size="10.00" fill="#000000"># ref_counter_</text>
<polyline fill="none" stroke="#000000" points="140.5,-946.5 323.5,-946.5 "/>
<text text-anchor="start" x="148.5" y="-934.5" font-family="Helvetica,sans-Serif" font-size="10.00" fill="#000000">+ type_index()</text>
<text text-anchor="start" x="148.5" y="-923.5" font-family="Helvetica,sans-Serif" font-size="10.00" fill="#000000">+ GetTypeKey()</text>
<text text-anchor="start" x="148.5" y="-912.5" font-family="Helvetica,sans-Serif" font-size="10.00" fill="#000000">+ GetTypeKeyHash()</text>
<text text-anchor="start" x="148.5" y="-901.5" font-family="Helvetica,sans-Serif" font-size="10.00" fill="#000000">+ IsInstance()</text>
<text text-anchor="start" x="148.5" y="-890.5" font-family="Helvetica,sans-Serif" font-size="10.00" fill="#000000">+ unique()</text>
<text text-anchor="start" x="148.5" y="-879.5" font-family="Helvetica,sans-Serif" font-size="10.00" fill="#000000">+ Object()</text>
<text text-anchor="start" x="148.5" y="-868.5" font-family="Helvetica,sans-Serif" font-size="10.00" fill="#000000">+ Object()</text>
<text text-anchor="start" x="148.5" y="-857.5" font-family="Helvetica,sans-Serif" font-size="10.00" fill="#000000">+ Object()</text>
<text text-anchor="start" x="148.5" y="-846.5" font-family="Helvetica,sans-Serif" font-size="10.00" fill="#000000">+ operator=()</text>
<text text-anchor="start" x="148.5" y="-835.5" font-family="Helvetica,sans-Serif" font-size="10.00" fill="#000000">+ operator=()</text>
<text text-anchor="start" x="148.5" y="-824.5" font-family="Helvetica,sans-Serif" font-size="10.00" fill="#000000">+ TypeIndex2Key()</text>
<text text-anchor="start" x="148.5" y="-813.5" font-family="Helvetica,sans-Serif" font-size="10.00" fill="#000000">+ TypeIndex2KeyHash()</text>
<text text-anchor="start" x="148.5" y="-802.5" font-family="Helvetica,sans-Serif" font-size="10.00" fill="#000000">+ TypeKey2Index()</text>
<text text-anchor="start" x="148.5" y="-791.5" font-family="Helvetica,sans-Serif" font-size="10.00" fill="#000000">+ _GetOrAllocRuntimeTypeIndex()</text>
<text text-anchor="start" x="148.5" y="-780.5" font-family="Helvetica,sans-Serif" font-size="10.00" fill="#000000">+ RuntimeTypeIndex()</text>
<text text-anchor="start" x="148.5" y="-769.5" font-family="Helvetica,sans-Serif" font-size="10.00" fill="#000000"># IncRef()</text>
<text text-anchor="start" x="148.5" y="-758.5" font-family="Helvetica,sans-Serif" font-size="10.00" fill="#000000"># DecRef()</text>
<text text-anchor="start" x="148.5" y="-747.5" font-family="Helvetica,sans-Serif" font-size="10.00" fill="#000000"># GetOrAllocRuntimeTypeIndex()</text>
</a>
</g>
</g>
<!-- Node7&#45;&gt;Node6 -->
<g id="edge3" class="edge">
<title>Node7&#45;&gt;Node6</title>
<path fill="none" stroke="#191970" d="M324.9517,-731.0773C326.3125,-728.0317 327.6627,-725.0044 329,-722 364.4845,-642.2813 404.381,-549.5164 429.1051,-491.6456"/>
<polygon fill="none" stroke="#191970" points="321.7303,-729.7075 320.8395,-740.2648 328.1195,-732.5673 321.7303,-729.7075"/>
</g>
<!-- Node7&#45;&gt;Node7 -->
<g id="edge4" class="edge">
<title>Node7&#45;&gt;Node7</title>
<path fill="none" stroke="#404040" d="M323.8625,-967.9248C334.5482,-961.6637 341.5,-950.3555 341.5,-934 341.5,-923.0112 338.3618,-914.3007 333.0615,-907.8687"/>
<polygon fill="none" stroke="#404040" points="333.0184,-907.8322 325.8548,-907.0056 323.8625,-900.0752 331.0261,-900.9017 333.0184,-907.8322"/>
<text text-anchor="middle" x="367.5" y="-931.5" font-family="Helvetica,sans-Serif" font-size="10.00" fill="#000000"> #deleter_</text>
</g>
<!-- Node8 -->
<g id="node5" class="node">
<title>Node8</title>
<g id="a_node5"><a xlink:href="classtvm_1_1Span.html" target="_top" xlink:title="{tvm::Span\n||+ Span()\l+ Merge()\l+ TVM_DEFINE_OBJECT_REF\l_METHODS()\l}">
<polygon fill="#ffffff" stroke="#000000" points="412,-889 412,-979 566,-979 566,-889 412,-889"/>
<text text-anchor="middle" x="489" y="-967" font-family="Helvetica,sans-Serif" font-size="10.00" fill="#000000">tvm::Span</text>
<polyline fill="none" stroke="#000000" points="412,-960 566,-960 "/>
<text text-anchor="middle" x="489" y="-948" font-family="Helvetica,sans-Serif" font-size="10.00" fill="#000000"> </text>
<polyline fill="none" stroke="#000000" points="412,-941 566,-941 "/>
<text text-anchor="start" x="420" y="-929" font-family="Helvetica,sans-Serif" font-size="10.00" fill="#000000">+ Span()</text>
<text text-anchor="start" x="420" y="-918" font-family="Helvetica,sans-Serif" font-size="10.00" fill="#000000">+ Merge()</text>
<text text-anchor="start" x="420" y="-907" font-family="Helvetica,sans-Serif" font-size="10.00" fill="#000000">+ TVM_DEFINE_OBJECT_REF</text>
<text text-anchor="start" x="420" y="-896" font-family="Helvetica,sans-Serif" font-size="10.00" fill="#000000">_METHODS()</text>
</a>
</g>
</g>
<!-- Node8&#45;&gt;Node6 -->
<g id="edge5" class="edge">
<title>Node8&#45;&gt;Node6</title>
<path fill="none" stroke="#404040" d="M485.7417,-888.8822C479.4133,-801.2506 465.4257,-607.5611 457.9457,-503.9839"/>
<polygon fill="none" stroke="#404040" points="457.9311,-503.7813 453.5093,-498.085 457.0667,-491.8124 461.4885,-497.5087 457.9311,-503.7813"/>
<text text-anchor="middle" x="491.5" y="-630" font-family="Helvetica,sans-Serif" font-size="10.00" fill="#000000"> +span</text>
</g>
<!-- Node9 -->
<g id="node6" class="node">
<title>Node9</title>
<g id="a_node6"><a xlink:href="classtvm_1_1runtime_1_1ObjectRef.html" target="_top" xlink:title="Base class of all object reference. ">
<polygon fill="#ffffff" stroke="#000000" points="500,-1165.5 500,-1387.5 634,-1387.5 634,-1165.5 500,-1165.5"/>
<text text-anchor="middle" x="567" y="-1375.5" font-family="Helvetica,sans-Serif" font-size="10.00" fill="#000000">tvm::runtime::ObjectRef</text>
<polyline fill="none" stroke="#000000" points="500,-1368.5 634,-1368.5 "/>
<text text-anchor="start" x="508" y="-1356.5" font-family="Helvetica,sans-Serif" font-size="10.00" fill="#000000">+ _type_is_nullable</text>
<polyline fill="none" stroke="#000000" points="500,-1349.5 634,-1349.5 "/>
<text text-anchor="start" x="508" y="-1337.5" font-family="Helvetica,sans-Serif" font-size="10.00" fill="#000000">+ ObjectRef()</text>
<text text-anchor="start" x="508" y="-1326.5" font-family="Helvetica,sans-Serif" font-size="10.00" fill="#000000">+ ObjectRef()</text>
<text text-anchor="start" x="508" y="-1315.5" font-family="Helvetica,sans-Serif" font-size="10.00" fill="#000000">+ same_as()</text>
<text text-anchor="start" x="508" y="-1304.5" font-family="Helvetica,sans-Serif" font-size="10.00" fill="#000000">+ operator==()</text>
<text text-anchor="start" x="508" y="-1293.5" font-family="Helvetica,sans-Serif" font-size="10.00" fill="#000000">+ operator!=()</text>
<text text-anchor="start" x="508" y="-1282.5" font-family="Helvetica,sans-Serif" font-size="10.00" fill="#000000">+ operator&lt;()</text>
<text text-anchor="start" x="508" y="-1271.5" font-family="Helvetica,sans-Serif" font-size="10.00" fill="#000000">+ defined()</text>
<text text-anchor="start" x="508" y="-1260.5" font-family="Helvetica,sans-Serif" font-size="10.00" fill="#000000">+ get()</text>
<text text-anchor="start" x="508" y="-1249.5" font-family="Helvetica,sans-Serif" font-size="10.00" fill="#000000">+ operator&#45;&gt;()</text>
<text text-anchor="start" x="508" y="-1238.5" font-family="Helvetica,sans-Serif" font-size="10.00" fill="#000000">+ unique()</text>
<text text-anchor="start" x="508" y="-1227.5" font-family="Helvetica,sans-Serif" font-size="10.00" fill="#000000">+ use_count()</text>
<text text-anchor="start" x="508" y="-1216.5" font-family="Helvetica,sans-Serif" font-size="10.00" fill="#000000">+ as()</text>
<text text-anchor="start" x="508" y="-1205.5" font-family="Helvetica,sans-Serif" font-size="10.00" fill="#000000"># get_mutable()</text>
<text text-anchor="start" x="508" y="-1194.5" font-family="Helvetica,sans-Serif" font-size="10.00" fill="#000000"># DowncastNoCheck()</text>
<text text-anchor="start" x="508" y="-1183.5" font-family="Helvetica,sans-Serif" font-size="10.00" fill="#000000"># FFIClearAfterMove()</text>
<text text-anchor="start" x="508" y="-1172.5" font-family="Helvetica,sans-Serif" font-size="10.00" fill="#000000"># GetDataPtr()</text>
</a>
</g>
</g>
<!-- Node9&#45;&gt;Node5 -->
<g id="edge8" class="edge">
<title>Node9&#45;&gt;Node5</title>
<path fill="none" stroke="#404040" d="M575.4838,-1165.3401C590.3142,-952.3188 614.8903,-494.5449 565,-346 553.2731,-311.0838 530.8099,-277.2516 509.0607,-250.0702"/>
<polygon fill="none" stroke="#404040" points="509.0226,-250.0238 502.1256,-247.9185 501.4162,-240.7423 508.3132,-242.8476 509.0226,-250.0238"/>
<text text-anchor="middle" x="638" y="-630" font-family="Helvetica,sans-Serif" font-size="10.00" fill="#000000"> +virtual_device_</text>
</g>
<!-- Node9&#45;&gt;Node8 -->
<g id="edge6" class="edge">
<title>Node9&#45;&gt;Node8</title>
<path fill="none" stroke="#191970" d="M539.3731,-1155.1895C525.4602,-1094.0976 509.4312,-1023.7137 499.261,-979.0565"/>
<polygon fill="none" stroke="#191970" points="536.0424,-1156.3269 541.6756,-1165.3001 542.8677,-1154.7725 536.0424,-1156.3269"/>
</g>
<!-- Node11 -->
<g id="node8" class="node">
<title>Node11</title>
<g id="a_node8"><a xlink:href="classtvm_1_1Type.html" target="_top" xlink:title="Managed reference to TypeNode. ">
<polygon fill="#ffffff" stroke="#000000" points="0,-598.5 0,-666.5 154,-666.5 154,-598.5 0,-598.5"/>
<text text-anchor="middle" x="77" y="-654.5" font-family="Helvetica,sans-Serif" font-size="10.00" fill="#000000">tvm::Type</text>
<polyline fill="none" stroke="#000000" points="0,-647.5 154,-647.5 "/>
<text text-anchor="middle" x="77" y="-635.5" font-family="Helvetica,sans-Serif" font-size="10.00" fill="#000000"> </text>
<polyline fill="none" stroke="#000000" points="0,-628.5 154,-628.5 "/>
<text text-anchor="start" x="8" y="-616.5" font-family="Helvetica,sans-Serif" font-size="10.00" fill="#000000">+ TVM_DEFINE_OBJECT_REF</text>
<text text-anchor="start" x="8" y="-605.5" font-family="Helvetica,sans-Serif" font-size="10.00" fill="#000000">_METHODS()</text>
</a>
</g>
</g>
<!-- Node9&#45;&gt;Node11 -->
<g id="edge10" class="edge">
<title>Node9&#45;&gt;Node11</title>
<path fill="none" stroke="#191970" d="M489.7352,-1263.639C367.8953,-1241.6005 140.0936,-1192.6678 93,-1128 -10.8682,-985.3708 41.355,-753.4315 66.285,-666.6789"/>
<polygon fill="none" stroke="#191970" points="489.2928,-1267.1154 499.7533,-1265.4337 490.5272,-1260.2251 489.2928,-1267.1154"/>
</g>
<!-- Node12 -->
<g id="node9" class="node">
<title>Node12</title>
<g id="a_node9"><a xlink:href="classtvm_1_1runtime_1_1Optional.html" target="_top" xlink:title="{tvm::runtime::Optional\l\&lt; tvm::runtime::ObjectRef \&gt;\n|+ _type_is_nullable\l|+ Optional()\l+ Optional()\l+ Optional()\l+ Optional()\l+ Optional()\l+ Optional()\l+ Optional()\l+ Optional()\l+ operator=()\l+ operator=()\land 15 more...\l}">
<polygon fill="#ffffff" stroke="#000000" points="164,-543.5 164,-721.5 320,-721.5 320,-543.5 164,-543.5"/>
<text text-anchor="start" x="172" y="-709.5" font-family="Helvetica,sans-Serif" font-size="10.00" fill="#000000">tvm::runtime::Optional</text>
<text text-anchor="middle" x="242" y="-698.5" font-family="Helvetica,sans-Serif" font-size="10.00" fill="#000000">&lt; tvm::runtime::ObjectRef &gt;</text>
<polyline fill="none" stroke="#000000" points="164,-691.5 320,-691.5 "/>
<text text-anchor="start" x="172" y="-679.5" font-family="Helvetica,sans-Serif" font-size="10.00" fill="#000000">+ _type_is_nullable</text>
<polyline fill="none" stroke="#000000" points="164,-672.5 320,-672.5 "/>
<text text-anchor="start" x="172" y="-660.5" font-family="Helvetica,sans-Serif" font-size="10.00" fill="#000000">+ Optional()</text>
<text text-anchor="start" x="172" y="-649.5" font-family="Helvetica,sans-Serif" font-size="10.00" fill="#000000">+ Optional()</text>
<text text-anchor="start" x="172" y="-638.5" font-family="Helvetica,sans-Serif" font-size="10.00" fill="#000000">+ Optional()</text>
<text text-anchor="start" x="172" y="-627.5" font-family="Helvetica,sans-Serif" font-size="10.00" fill="#000000">+ Optional()</text>
<text text-anchor="start" x="172" y="-616.5" font-family="Helvetica,sans-Serif" font-size="10.00" fill="#000000">+ Optional()</text>
<text text-anchor="start" x="172" y="-605.5" font-family="Helvetica,sans-Serif" font-size="10.00" fill="#000000">+ Optional()</text>
<text text-anchor="start" x="172" y="-594.5" font-family="Helvetica,sans-Serif" font-size="10.00" fill="#000000">+ Optional()</text>
<text text-anchor="start" x="172" y="-583.5" font-family="Helvetica,sans-Serif" font-size="10.00" fill="#000000">+ Optional()</text>
<text text-anchor="start" x="172" y="-572.5" font-family="Helvetica,sans-Serif" font-size="10.00" fill="#000000">+ operator=()</text>
<text text-anchor="start" x="172" y="-561.5" font-family="Helvetica,sans-Serif" font-size="10.00" fill="#000000">+ operator=()</text>
<text text-anchor="start" x="172" y="-550.5" font-family="Helvetica,sans-Serif" font-size="10.00" fill="#000000">and 15 more...</text>
</a>
</g>
</g>
<!-- Node9&#45;&gt;Node12 -->
<g id="edge12" class="edge">
<title>Node9&#45;&gt;Node12</title>
<path fill="none" stroke="#191970" d="M489.8526,-1261.3798C376.4106,-1237.402 173.4133,-1187.2518 131,-1128 80.8134,-1057.8889 89.0851,-815.3486 131,-740 138.3744,-726.7433 148.3226,-731.683 160,-722 161.2978,-720.9239 162.5945,-719.8276 163.889,-718.7135"/>
<polygon fill="none" stroke="#191970" points="489.3672,-1264.8541 499.8724,-1263.4789 490.8025,-1258.0028 489.3672,-1264.8541"/>
</g>
<!-- Node14 -->
<g id="node11" class="node">
<title>Node14</title>
<g id="a_node11"><a xlink:href="classtvm_1_1BaseExpr.html" target="_top" xlink:title="Managed reference to BaseExprNode. ">
<polygon fill="#ffffff" stroke="#000000" points="622,-900 622,-968 776,-968 776,-900 622,-900"/>
<text text-anchor="middle" x="699" y="-956" font-family="Helvetica,sans-Serif" font-size="10.00" fill="#000000">tvm::BaseExpr</text>
<polyline fill="none" stroke="#000000" points="622,-949 776,-949 "/>
<text text-anchor="middle" x="699" y="-937" font-family="Helvetica,sans-Serif" font-size="10.00" fill="#000000"> </text>
<polyline fill="none" stroke="#000000" points="622,-930 776,-930 "/>
<text text-anchor="start" x="630" y="-918" font-family="Helvetica,sans-Serif" font-size="10.00" fill="#000000">+ TVM_DEFINE_OBJECT_REF</text>
<text text-anchor="start" x="630" y="-907" font-family="Helvetica,sans-Serif" font-size="10.00" fill="#000000">_METHODS()</text>
</a>
</g>
</g>
<!-- Node9&#45;&gt;Node14 -->
<g id="edge15" class="edge">
<title>Node9&#45;&gt;Node14</title>
<path fill="none" stroke="#191970" d="M613.5969,-1155.5953C639.1712,-1089.2376 669.0117,-1011.8107 685.7875,-968.2823"/>
<polygon fill="none" stroke="#191970" points="610.187,-1154.7104 609.8566,-1165.3001 616.7187,-1157.2277 610.187,-1154.7104"/>
</g>
<!-- Node15 -->
<g id="node12" class="node">
<title>Node15</title>
<g id="a_node12"><a xlink:href="classtvm_1_1runtime_1_1Array.html" target="_top" xlink:title="{tvm::runtime::Array\l\&lt; tvm::relay::Clause \&gt;\n||+ Array()\l+ Array()\l+ Array()\l+ Array()\l+ Array()\l+ Array()\l+ Array()\l+ Array()\l+ operator=()\l+ operator=()\land 25 more...\l}">
<polygon fill="#ffffff" stroke="#000000" points="737,-346.5 737,-524.5 865,-524.5 865,-346.5 737,-346.5"/>
<text text-anchor="start" x="745" y="-512.5" font-family="Helvetica,sans-Serif" font-size="10.00" fill="#000000">tvm::runtime::Array</text>
<text text-anchor="middle" x="801" y="-501.5" font-family="Helvetica,sans-Serif" font-size="10.00" fill="#000000">&lt; tvm::relay::Clause &gt;</text>
<polyline fill="none" stroke="#000000" points="737,-494.5 865,-494.5 "/>
<text text-anchor="middle" x="801" y="-482.5" font-family="Helvetica,sans-Serif" font-size="10.00" fill="#000000"> </text>
<polyline fill="none" stroke="#000000" points="737,-475.5 865,-475.5 "/>
<text text-anchor="start" x="745" y="-463.5" font-family="Helvetica,sans-Serif" font-size="10.00" fill="#000000">+ Array()</text>
<text text-anchor="start" x="745" y="-452.5" font-family="Helvetica,sans-Serif" font-size="10.00" fill="#000000">+ Array()</text>
<text text-anchor="start" x="745" y="-441.5" font-family="Helvetica,sans-Serif" font-size="10.00" fill="#000000">+ Array()</text>
<text text-anchor="start" x="745" y="-430.5" font-family="Helvetica,sans-Serif" font-size="10.00" fill="#000000">+ Array()</text>
<text text-anchor="start" x="745" y="-419.5" font-family="Helvetica,sans-Serif" font-size="10.00" fill="#000000">+ Array()</text>
<text text-anchor="start" x="745" y="-408.5" font-family="Helvetica,sans-Serif" font-size="10.00" fill="#000000">+ Array()</text>
<text text-anchor="start" x="745" y="-397.5" font-family="Helvetica,sans-Serif" font-size="10.00" fill="#000000">+ Array()</text>
<text text-anchor="start" x="745" y="-386.5" font-family="Helvetica,sans-Serif" font-size="10.00" fill="#000000">+ Array()</text>
<text text-anchor="start" x="745" y="-375.5" font-family="Helvetica,sans-Serif" font-size="10.00" fill="#000000">+ operator=()</text>
<text text-anchor="start" x="745" y="-364.5" font-family="Helvetica,sans-Serif" font-size="10.00" fill="#000000">+ operator=()</text>
<text text-anchor="start" x="745" y="-353.5" font-family="Helvetica,sans-Serif" font-size="10.00" fill="#000000">and 25 more...</text>
</a>
</g>
</g>
<!-- Node9&#45;&gt;Node15 -->
<g id="edge17" class="edge">
<title>Node9&#45;&gt;Node15</title>
<path fill="none" stroke="#191970" d="M643.3406,-1246.6457C693.2754,-1222.6857 754.6799,-1183.7716 785,-1128 890.256,-934.3891 853.0216,-663.1233 823.3588,-524.5825"/>
<polygon fill="none" stroke="#191970" points="641.7312,-1243.5346 634.1603,-1250.9462 644.7007,-1249.8735 641.7312,-1243.5346"/>
</g>
<!-- Node10 -->
<g id="node7" class="node">
<title>Node10</title>
<g id="a_node7"><a xlink:href="classtvm_1_1runtime_1_1ObjectPtr.html" target="_top" xlink:title="{tvm::runtime::ObjectPtr\l\&lt; tvm::runtime::Object \&gt;\n||+ ObjectPtr()\l+ ObjectPtr()\l+ ObjectPtr()\l+ ObjectPtr()\l+ ObjectPtr()\l+ ObjectPtr()\l+ ~ObjectPtr()\l+ swap()\l+ get()\l+ operator&#45;\&gt;()\land 11 more...\l}">
<polygon fill="#ffffff" stroke="#000000" points="497,-1435.5 497,-1613.5 637,-1613.5 637,-1435.5 497,-1435.5"/>
<text text-anchor="start" x="505" y="-1601.5" font-family="Helvetica,sans-Serif" font-size="10.00" fill="#000000">tvm::runtime::ObjectPtr</text>
<text text-anchor="middle" x="567" y="-1590.5" font-family="Helvetica,sans-Serif" font-size="10.00" fill="#000000">&lt; tvm::runtime::Object &gt;</text>
<polyline fill="none" stroke="#000000" points="497,-1583.5 637,-1583.5 "/>
<text text-anchor="middle" x="567" y="-1571.5" font-family="Helvetica,sans-Serif" font-size="10.00" fill="#000000"> </text>
<polyline fill="none" stroke="#000000" points="497,-1564.5 637,-1564.5 "/>
<text text-anchor="start" x="505" y="-1552.5" font-family="Helvetica,sans-Serif" font-size="10.00" fill="#000000">+ ObjectPtr()</text>
<text text-anchor="start" x="505" y="-1541.5" font-family="Helvetica,sans-Serif" font-size="10.00" fill="#000000">+ ObjectPtr()</text>
<text text-anchor="start" x="505" y="-1530.5" font-family="Helvetica,sans-Serif" font-size="10.00" fill="#000000">+ ObjectPtr()</text>
<text text-anchor="start" x="505" y="-1519.5" font-family="Helvetica,sans-Serif" font-size="10.00" fill="#000000">+ ObjectPtr()</text>
<text text-anchor="start" x="505" y="-1508.5" font-family="Helvetica,sans-Serif" font-size="10.00" fill="#000000">+ ObjectPtr()</text>
<text text-anchor="start" x="505" y="-1497.5" font-family="Helvetica,sans-Serif" font-size="10.00" fill="#000000">+ ObjectPtr()</text>
<text text-anchor="start" x="505" y="-1486.5" font-family="Helvetica,sans-Serif" font-size="10.00" fill="#000000">+ ~ObjectPtr()</text>
<text text-anchor="start" x="505" y="-1475.5" font-family="Helvetica,sans-Serif" font-size="10.00" fill="#000000">+ swap()</text>
<text text-anchor="start" x="505" y="-1464.5" font-family="Helvetica,sans-Serif" font-size="10.00" fill="#000000">+ get()</text>
<text text-anchor="start" x="505" y="-1453.5" font-family="Helvetica,sans-Serif" font-size="10.00" fill="#000000">+ operator&#45;&gt;()</text>
<text text-anchor="start" x="505" y="-1442.5" font-family="Helvetica,sans-Serif" font-size="10.00" fill="#000000">and 11 more...</text>
</a>
</g>
</g>
<!-- Node10&#45;&gt;Node9 -->
<g id="edge7" class="edge">
<title>Node10&#45;&gt;Node9</title>
<path fill="none" stroke="#404040" d="M567,-1435.3167C567,-1423.8765 567,-1412.0062 567,-1400.1402"/>
<polygon fill="none" stroke="#404040" points="567.0001,-1399.7944 563,-1393.7944 567,-1387.7944 571,-1393.7943 567.0001,-1399.7944"/>
<text text-anchor="middle" x="586.5" y="-1409" font-family="Helvetica,sans-Serif" font-size="10.00" fill="#000000"> #data_</text>
</g>
<!-- Node11&#45;&gt;Node5 -->
<g id="edge9" class="edge">
<title>Node11&#45;&gt;Node5</title>
<path fill="none" stroke="#404040" d="M77.3239,-598.323C79.4721,-541.0277 90.8847,-424.2019 146,-346 191.2551,-281.7885 270.9331,-242.3949 337.7747,-219.259"/>
<polygon fill="none" stroke="#404040" points="337.8629,-219.2295 342.2754,-213.5259 349.2373,-215.4053 344.8248,-221.1088 337.8629,-219.2295"/>
<text text-anchor="middle" x="188.5" y="-433" font-family="Helvetica,sans-Serif" font-size="10.00" fill="#000000"> +checked_type_</text>
</g>
<!-- Node12&#45;&gt;Node5 -->
<g id="edge11" class="edge">
<title>Node12&#45;&gt;Node5</title>
<path fill="none" stroke="#404040" d="M234.4042,-543.3595C233.2268,-484.2026 239.3374,-406.5925 271,-346 291.3487,-307.0587 325.8689,-273.704 359.4104,-247.9512"/>
<polygon fill="none" stroke="#404040" points="359.693,-247.7396 362.0997,-240.9419 369.3001,-240.549 366.8934,-247.3466 359.693,-247.7396"/>
<text text-anchor="middle" x="305.5" y="-433" font-family="Helvetica,sans-Serif" font-size="10.00" fill="#000000"> +struct_info_</text>
</g>
<!-- Node13 -->
<g id="node10" class="node">
<title>Node13</title>
<g id="a_node10"><a xlink:href="classtvm_1_1RelayExpr.html" target="_top" xlink:title="Managed reference to RelayExprNode. ">
<polygon fill="#ffffff" stroke="#000000" points="622,-259.5 622,-327.5 776,-327.5 776,-259.5 622,-259.5"/>
<text text-anchor="middle" x="699" y="-315.5" font-family="Helvetica,sans-Serif" font-size="10.00" fill="#000000">tvm::RelayExpr</text>
<polyline fill="none" stroke="#000000" points="622,-308.5 776,-308.5 "/>
<text text-anchor="middle" x="699" y="-296.5" font-family="Helvetica,sans-Serif" font-size="10.00" fill="#000000"> </text>
<polyline fill="none" stroke="#000000" points="622,-289.5 776,-289.5 "/>
<text text-anchor="start" x="630" y="-277.5" font-family="Helvetica,sans-Serif" font-size="10.00" fill="#000000">+ TVM_DEFINE_OBJECT_REF</text>
<text text-anchor="start" x="630" y="-266.5" font-family="Helvetica,sans-Serif" font-size="10.00" fill="#000000">_METHODS()</text>
</a>
</g>
</g>
<!-- Node13&#45;&gt;Node4 -->
<g id="edge13" class="edge">
<title>Node13&#45;&gt;Node4</title>
<path fill="none" stroke="#404040" d="M699,-259.27C699,-221.5181 699,-159.9782 699,-113.5611"/>
<polygon fill="none" stroke="#404040" points="699.0001,-113.5074 695,-107.5074 699,-101.5074 703,-107.5073 699.0001,-113.5074"/>
<text text-anchor="middle" x="716" y="-187.5" font-family="Helvetica,sans-Serif" font-size="10.00" fill="#000000"> +data</text>
</g>
<!-- Node14&#45;&gt;Node13 -->
<g id="edge14" class="edge">
<title>Node14&#45;&gt;Node13</title>
<path fill="none" stroke="#191970" d="M699,-889.5421C699,-768.6188 699,-435.6006 699,-327.7167"/>
<polygon fill="none" stroke="#191970" points="695.5001,-889.5639 699,-899.5639 702.5001,-889.564 695.5001,-889.5639"/>
</g>
<!-- Node15&#45;&gt;Node4 -->
<g id="edge16" class="edge">
<title>Node15&#45;&gt;Node4</title>
<path fill="none" stroke="#404040" d="M796.516,-346.2993C793.8731,-318.1108 789.6733,-287.0154 783,-259 769.7648,-203.437 758.5486,-191.8969 737,-139 733.5126,-130.4393 729.7496,-121.4506 725.9947,-112.6226"/>
<polygon fill="none" stroke="#404040" points="725.9862,-112.6026 719.9479,-108.6607 721.2642,-101.5707 727.3025,-105.5127 725.9862,-112.6026"/>
<text text-anchor="middle" x="802.5" y="-187.5" font-family="Helvetica,sans-Serif" font-size="10.00" fill="#000000"> +clauses</text>
</g>
</g>
</svg>
