<?xml version="1.0" encoding="UTF-8" standalone="no"?>
<!DOCTYPE svg PUBLIC "-//W3C//DTD SVG 1.1//EN"
 "http://www.w3.org/Graphics/SVG/1.1/DTD/svg11.dtd">
<!-- Generated by graphviz version 2.40.1 (20161225.0304)
 -->
<!-- Title: tvm::relax::BindingNode Pages: 1 -->
<svg width="497pt" height="1439pt"
 viewBox="0.00 0.00 496.50 1439.00" xmlns="http://www.w3.org/2000/svg" xmlns:xlink="http://www.w3.org/1999/xlink">
<g id="graph0" class="graph" transform="scale(1 1) rotate(0) translate(4 1435)">
<title>tvm::relax::BindingNode</title>
<polygon fill="#ffffff" stroke="transparent" points="-4,4 -4,-1435 492.5,-1435 492.5,4 -4,4"/>
<!-- Node4 -->
<g id="node1" class="node">
<title>Node4</title>
<polygon fill="#bfbfbf" stroke="#000000" points="178,-.5 178,-101.5 385,-101.5 385,-.5 178,-.5"/>
<text text-anchor="middle" x="281.5" y="-89.5" font-family="Helvetica,sans-Serif" font-size="10.00" fill="#000000">tvm::relax::BindingNode</text>
<polyline fill="none" stroke="#000000" points="178,-82.5 385,-82.5 "/>
<text text-anchor="start" x="186" y="-70.5" font-family="Helvetica,sans-Serif" font-size="10.00" fill="#000000">+ _type_key</text>
<text text-anchor="start" x="186" y="-59.5" font-family="Helvetica,sans-Serif" font-size="10.00" fill="#000000">+ _type_has_method_sequal</text>
<text text-anchor="start" x="186" y="-48.5" font-family="Helvetica,sans-Serif" font-size="10.00" fill="#000000">_reduce</text>
<text text-anchor="start" x="186" y="-37.5" font-family="Helvetica,sans-Serif" font-size="10.00" fill="#000000">+ _type_has_method_shash</text>
<text text-anchor="start" x="186" y="-26.5" font-family="Helvetica,sans-Serif" font-size="10.00" fill="#000000">_reduce</text>
<polyline fill="none" stroke="#000000" points="178,-19.5 385,-19.5 "/>
<text text-anchor="start" x="186" y="-7.5" font-family="Helvetica,sans-Serif" font-size="10.00" fill="#000000">+ TVM_DECLARE_BASE_OBJECT_INFO()</text>
</g>
<!-- Node5 -->
<g id="node2" class="node">
<title>Node5</title>
<g id="a_node2"><a xlink:href="classtvm_1_1runtime_1_1Object.html" target="_top" xlink:title="base class of all object containers. ">
<polygon fill="#ffffff" stroke="#000000" points="0,-149.5 0,-536.5 183,-536.5 183,-149.5 0,-149.5"/>
<text text-anchor="middle" x="91.5" y="-524.5" font-family="Helvetica,sans-Serif" font-size="10.00" fill="#000000">tvm::runtime::Object</text>
<polyline fill="none" stroke="#000000" points="0,-517.5 183,-517.5 "/>
<text text-anchor="start" x="8" y="-505.5" font-family="Helvetica,sans-Serif" font-size="10.00" fill="#000000">+ _type_key</text>
<text text-anchor="start" x="8" y="-494.5" font-family="Helvetica,sans-Serif" font-size="10.00" fill="#000000">+ _type_final</text>
<text text-anchor="start" x="8" y="-483.5" font-family="Helvetica,sans-Serif" font-size="10.00" fill="#000000">+ _type_child_slots</text>
<text text-anchor="start" x="8" y="-472.5" font-family="Helvetica,sans-Serif" font-size="10.00" fill="#000000">+ _type_child_slots_can</text>
<text text-anchor="start" x="8" y="-461.5" font-family="Helvetica,sans-Serif" font-size="10.00" fill="#000000">_overflow</text>
<text text-anchor="start" x="8" y="-450.5" font-family="Helvetica,sans-Serif" font-size="10.00" fill="#000000">+ _type_has_method_visit</text>
<text text-anchor="start" x="8" y="-439.5" font-family="Helvetica,sans-Serif" font-size="10.00" fill="#000000">_attrs</text>
<text text-anchor="start" x="8" y="-428.5" font-family="Helvetica,sans-Serif" font-size="10.00" fill="#000000">+ _type_has_method_sequal</text>
<text text-anchor="start" x="8" y="-417.5" font-family="Helvetica,sans-Serif" font-size="10.00" fill="#000000">_reduce</text>
<text text-anchor="start" x="8" y="-406.5" font-family="Helvetica,sans-Serif" font-size="10.00" fill="#000000">+ _type_has_method_shash</text>
<text text-anchor="start" x="8" y="-395.5" font-family="Helvetica,sans-Serif" font-size="10.00" fill="#000000">_reduce</text>
<text text-anchor="start" x="8" y="-384.5" font-family="Helvetica,sans-Serif" font-size="10.00" fill="#000000">+ _type_index</text>
<text text-anchor="start" x="8" y="-373.5" font-family="Helvetica,sans-Serif" font-size="10.00" fill="#000000"># type_index_</text>
<text text-anchor="start" x="8" y="-362.5" font-family="Helvetica,sans-Serif" font-size="10.00" fill="#000000"># ref_counter_</text>
<polyline fill="none" stroke="#000000" points="0,-355.5 183,-355.5 "/>
<text text-anchor="start" x="8" y="-343.5" font-family="Helvetica,sans-Serif" font-size="10.00" fill="#000000">+ type_index()</text>
<text text-anchor="start" x="8" y="-332.5" font-family="Helvetica,sans-Serif" font-size="10.00" fill="#000000">+ GetTypeKey()</text>
<text text-anchor="start" x="8" y="-321.5" font-family="Helvetica,sans-Serif" font-size="10.00" fill="#000000">+ GetTypeKeyHash()</text>
<text text-anchor="start" x="8" y="-310.5" font-family="Helvetica,sans-Serif" font-size="10.00" fill="#000000">+ IsInstance()</text>
<text text-anchor="start" x="8" y="-299.5" font-family="Helvetica,sans-Serif" font-size="10.00" fill="#000000">+ unique()</text>
<text text-anchor="start" x="8" y="-288.5" font-family="Helvetica,sans-Serif" font-size="10.00" fill="#000000">+ Object()</text>
<text text-anchor="start" x="8" y="-277.5" font-family="Helvetica,sans-Serif" font-size="10.00" fill="#000000">+ Object()</text>
<text text-anchor="start" x="8" y="-266.5" font-family="Helvetica,sans-Serif" font-size="10.00" fill="#000000">+ Object()</text>
<text text-anchor="start" x="8" y="-255.5" font-family="Helvetica,sans-Serif" font-size="10.00" fill="#000000">+ operator=()</text>
<text text-anchor="start" x="8" y="-244.5" font-family="Helvetica,sans-Serif" font-size="10.00" fill="#000000">+ operator=()</text>
<text text-anchor="start" x="8" y="-233.5" font-family="Helvetica,sans-Serif" font-size="10.00" fill="#000000">+ TypeIndex2Key()</text>
<text text-anchor="start" x="8" y="-222.5" font-family="Helvetica,sans-Serif" font-size="10.00" fill="#000000">+ TypeIndex2KeyHash()</text>
<text text-anchor="start" x="8" y="-211.5" font-family="Helvetica,sans-Serif" font-size="10.00" fill="#000000">+ TypeKey2Index()</text>
<text text-anchor="start" x="8" y="-200.5" font-family="Helvetica,sans-Serif" font-size="10.00" fill="#000000">+ _GetOrAllocRuntimeTypeIndex()</text>
<text text-anchor="start" x="8" y="-189.5" font-family="Helvetica,sans-Serif" font-size="10.00" fill="#000000">+ RuntimeTypeIndex()</text>
<text text-anchor="start" x="8" y="-178.5" font-family="Helvetica,sans-Serif" font-size="10.00" fill="#000000"># IncRef()</text>
<text text-anchor="start" x="8" y="-167.5" font-family="Helvetica,sans-Serif" font-size="10.00" fill="#000000"># DecRef()</text>
<text text-anchor="start" x="8" y="-156.5" font-family="Helvetica,sans-Serif" font-size="10.00" fill="#000000"># GetOrAllocRuntimeTypeIndex()</text>
</a>
</g>
</g>
<!-- Node5&#45;&gt;Node4 -->
<g id="edge1" class="edge">
<title>Node5&#45;&gt;Node4</title>
<path fill="none" stroke="#191970" d="M188.6566,-193.6857C210.2715,-160.4669 231.7376,-127.477 248.5757,-101.5994"/>
<polygon fill="none" stroke="#191970" points="185.6811,-191.8412 183.1608,-202.1319 191.5484,-195.6589 185.6811,-191.8412"/>
</g>
<!-- Node5&#45;&gt;Node5 -->
<g id="edge2" class="edge">
<title>Node5&#45;&gt;Node5</title>
<path fill="none" stroke="#404040" d="M183.3625,-376.9248C194.0482,-370.6637 201,-359.3555 201,-343 201,-332.0112 197.8618,-323.3007 192.5615,-316.8687"/>
<polygon fill="none" stroke="#404040" points="192.5184,-316.8322 185.3548,-316.0056 183.3625,-309.0752 190.5261,-309.9017 192.5184,-316.8322"/>
<text text-anchor="middle" x="227" y="-340.5" font-family="Helvetica,sans-Serif" font-size="10.00" fill="#000000"> #deleter_</text>
</g>
<!-- Node6 -->
<g id="node3" class="node">
<title>Node6</title>
<g id="a_node3"><a xlink:href="classtvm_1_1Span.html" target="_top" xlink:title="{tvm::Span\n||+ Span()\l+ Merge()\l+ TVM_DEFINE_OBJECT_REF\l_METHODS()\l}">
<polygon fill="#ffffff" stroke="#000000" points="204.5,-767.5 204.5,-857.5 358.5,-857.5 358.5,-767.5 204.5,-767.5"/>
<text text-anchor="middle" x="281.5" y="-845.5" font-family="Helvetica,sans-Serif" font-size="10.00" fill="#000000">tvm::Span</text>
<polyline fill="none" stroke="#000000" points="204.5,-838.5 358.5,-838.5 "/>
<text text-anchor="middle" x="281.5" y="-826.5" font-family="Helvetica,sans-Serif" font-size="10.00" fill="#000000"> </text>
<polyline fill="none" stroke="#000000" points="204.5,-819.5 358.5,-819.5 "/>
<text text-anchor="start" x="212.5" y="-807.5" font-family="Helvetica,sans-Serif" font-size="10.00" fill="#000000">+ Span()</text>
<text text-anchor="start" x="212.5" y="-796.5" font-family="Helvetica,sans-Serif" font-size="10.00" fill="#000000">+ Merge()</text>
<text text-anchor="start" x="212.5" y="-785.5" font-family="Helvetica,sans-Serif" font-size="10.00" fill="#000000">+ TVM_DEFINE_OBJECT_REF</text>
<text text-anchor="start" x="212.5" y="-774.5" font-family="Helvetica,sans-Serif" font-size="10.00" fill="#000000">_METHODS()</text>
</a>
</g>
</g>
<!-- Node6&#45;&gt;Node4 -->
<g id="edge3" class="edge">
<title>Node6&#45;&gt;Node4</title>
<path fill="none" stroke="#404040" d="M281.5,-767.2389C281.5,-737.2438 281.5,-697.0217 281.5,-661.5 281.5,-661.5 281.5,-661.5 281.5,-343 281.5,-263.9622 281.5,-172.8904 281.5,-113.7586"/>
<polygon fill="none" stroke="#404040" points="281.5001,-113.6411 277.5,-107.6412 281.5,-101.6411 285.5,-107.6411 281.5001,-113.6411"/>
<text text-anchor="middle" x="299" y="-606" font-family="Helvetica,sans-Serif" font-size="10.00" fill="#000000"> +span</text>
</g>
<!-- Node7 -->
<g id="node4" class="node">
<title>Node7</title>
<g id="a_node4"><a xlink:href="classtvm_1_1runtime_1_1ObjectRef.html" target="_top" xlink:title="Base class of all object reference. ">
<polygon fill="#ffffff" stroke="#000000" points="226.5,-982.5 226.5,-1204.5 360.5,-1204.5 360.5,-982.5 226.5,-982.5"/>
<text text-anchor="middle" x="293.5" y="-1192.5" font-family="Helvetica,sans-Serif" font-size="10.00" fill="#000000">tvm::runtime::ObjectRef</text>
<polyline fill="none" stroke="#000000" points="226.5,-1185.5 360.5,-1185.5 "/>
<text text-anchor="start" x="234.5" y="-1173.5" font-family="Helvetica,sans-Serif" font-size="10.00" fill="#000000">+ _type_is_nullable</text>
<polyline fill="none" stroke="#000000" points="226.5,-1166.5 360.5,-1166.5 "/>
<text text-anchor="start" x="234.5" y="-1154.5" font-family="Helvetica,sans-Serif" font-size="10.00" fill="#000000">+ ObjectRef()</text>
<text text-anchor="start" x="234.5" y="-1143.5" font-family="Helvetica,sans-Serif" font-size="10.00" fill="#000000">+ ObjectRef()</text>
<text text-anchor="start" x="234.5" y="-1132.5" font-family="Helvetica,sans-Serif" font-size="10.00" fill="#000000">+ same_as()</text>
<text text-anchor="start" x="234.5" y="-1121.5" font-family="Helvetica,sans-Serif" font-size="10.00" fill="#000000">+ operator==()</text>
<text text-anchor="start" x="234.5" y="-1110.5" font-family="Helvetica,sans-Serif" font-size="10.00" fill="#000000">+ operator!=()</text>
<text text-anchor="start" x="234.5" y="-1099.5" font-family="Helvetica,sans-Serif" font-size="10.00" fill="#000000">+ operator&lt;()</text>
<text text-anchor="start" x="234.5" y="-1088.5" font-family="Helvetica,sans-Serif" font-size="10.00" fill="#000000">+ defined()</text>
<text text-anchor="start" x="234.5" y="-1077.5" font-family="Helvetica,sans-Serif" font-size="10.00" fill="#000000">+ get()</text>
<text text-anchor="start" x="234.5" y="-1066.5" font-family="Helvetica,sans-Serif" font-size="10.00" fill="#000000">+ operator&#45;&gt;()</text>
<text text-anchor="start" x="234.5" y="-1055.5" font-family="Helvetica,sans-Serif" font-size="10.00" fill="#000000">+ unique()</text>
<text text-anchor="start" x="234.5" y="-1044.5" font-family="Helvetica,sans-Serif" font-size="10.00" fill="#000000">+ use_count()</text>
<text text-anchor="start" x="234.5" y="-1033.5" font-family="Helvetica,sans-Serif" font-size="10.00" fill="#000000">+ as()</text>
<text text-anchor="start" x="234.5" y="-1022.5" font-family="Helvetica,sans-Serif" font-size="10.00" fill="#000000"># get_mutable()</text>
<text text-anchor="start" x="234.5" y="-1011.5" font-family="Helvetica,sans-Serif" font-size="10.00" fill="#000000"># DowncastNoCheck()</text>
<text text-anchor="start" x="234.5" y="-1000.5" font-family="Helvetica,sans-Serif" font-size="10.00" fill="#000000"># FFIClearAfterMove()</text>
<text text-anchor="start" x="234.5" y="-989.5" font-family="Helvetica,sans-Serif" font-size="10.00" fill="#000000"># GetDataPtr()</text>
</a>
</g>
</g>
<!-- Node7&#45;&gt;Node6 -->
<g id="edge4" class="edge">
<title>Node7&#45;&gt;Node6</title>
<path fill="none" stroke="#191970" d="M288.3295,-972.4245C286.591,-931.7144 284.7578,-888.7859 283.4288,-857.667"/>
<polygon fill="none" stroke="#191970" points="284.8337,-972.5998 288.7573,-982.4414 291.8273,-972.3011 284.8337,-972.5998"/>
</g>
<!-- Node12 -->
<g id="node9" class="node">
<title>Node12</title>
<g id="a_node9"><a xlink:href="classtvm_1_1BaseExpr.html" target="_top" xlink:title="Managed reference to BaseExprNode. ">
<polygon fill="#ffffff" stroke="#000000" points="315.5,-876.5 315.5,-944.5 469.5,-944.5 469.5,-876.5 315.5,-876.5"/>
<text text-anchor="middle" x="392.5" y="-932.5" font-family="Helvetica,sans-Serif" font-size="10.00" fill="#000000">tvm::BaseExpr</text>
<polyline fill="none" stroke="#000000" points="315.5,-925.5 469.5,-925.5 "/>
<text text-anchor="middle" x="392.5" y="-913.5" font-family="Helvetica,sans-Serif" font-size="10.00" fill="#000000"> </text>
<polyline fill="none" stroke="#000000" points="315.5,-906.5 469.5,-906.5 "/>
<text text-anchor="start" x="323.5" y="-894.5" font-family="Helvetica,sans-Serif" font-size="10.00" fill="#000000">+ TVM_DEFINE_OBJECT_REF</text>
<text text-anchor="start" x="323.5" y="-883.5" font-family="Helvetica,sans-Serif" font-size="10.00" fill="#000000">_METHODS()</text>
</a>
</g>
</g>
<!-- Node7&#45;&gt;Node12 -->
<g id="edge10" class="edge">
<title>Node7&#45;&gt;Node12</title>
<path fill="none" stroke="#191970" d="M358.4379,-973.4633C364.0559,-963.0785 369.3791,-953.2386 374.0756,-944.5572"/>
<polygon fill="none" stroke="#191970" points="355.3366,-971.8404 353.6567,-982.3012 361.4934,-975.1711 355.3366,-971.8404"/>
</g>
<!-- Node8 -->
<g id="node5" class="node">
<title>Node8</title>
<g id="a_node5"><a xlink:href="classtvm_1_1runtime_1_1ObjectPtr.html" target="_top" xlink:title="{tvm::runtime::ObjectPtr\l\&lt; tvm::runtime::Object \&gt;\n||+ ObjectPtr()\l+ ObjectPtr()\l+ ObjectPtr()\l+ ObjectPtr()\l+ ObjectPtr()\l+ ObjectPtr()\l+ ~ObjectPtr()\l+ swap()\l+ get()\l+ operator&#45;\&gt;()\land 11 more...\l}">
<polygon fill="#ffffff" stroke="#000000" points="223.5,-1252.5 223.5,-1430.5 363.5,-1430.5 363.5,-1252.5 223.5,-1252.5"/>
<text text-anchor="start" x="231.5" y="-1418.5" font-family="Helvetica,sans-Serif" font-size="10.00" fill="#000000">tvm::runtime::ObjectPtr</text>
<text text-anchor="middle" x="293.5" y="-1407.5" font-family="Helvetica,sans-Serif" font-size="10.00" fill="#000000">&lt; tvm::runtime::Object &gt;</text>
<polyline fill="none" stroke="#000000" points="223.5,-1400.5 363.5,-1400.5 "/>
<text text-anchor="middle" x="293.5" y="-1388.5" font-family="Helvetica,sans-Serif" font-size="10.00" fill="#000000"> </text>
<polyline fill="none" stroke="#000000" points="223.5,-1381.5 363.5,-1381.5 "/>
<text text-anchor="start" x="231.5" y="-1369.5" font-family="Helvetica,sans-Serif" font-size="10.00" fill="#000000">+ ObjectPtr()</text>
<text text-anchor="start" x="231.5" y="-1358.5" font-family="Helvetica,sans-Serif" font-size="10.00" fill="#000000">+ ObjectPtr()</text>
<text text-anchor="start" x="231.5" y="-1347.5" font-family="Helvetica,sans-Serif" font-size="10.00" fill="#000000">+ ObjectPtr()</text>
<text text-anchor="start" x="231.5" y="-1336.5" font-family="Helvetica,sans-Serif" font-size="10.00" fill="#000000">+ ObjectPtr()</text>
<text text-anchor="start" x="231.5" y="-1325.5" font-family="Helvetica,sans-Serif" font-size="10.00" fill="#000000">+ ObjectPtr()</text>
<text text-anchor="start" x="231.5" y="-1314.5" font-family="Helvetica,sans-Serif" font-size="10.00" fill="#000000">+ ObjectPtr()</text>
<text text-anchor="start" x="231.5" y="-1303.5" font-family="Helvetica,sans-Serif" font-size="10.00" fill="#000000">+ ~ObjectPtr()</text>
<text text-anchor="start" x="231.5" y="-1292.5" font-family="Helvetica,sans-Serif" font-size="10.00" fill="#000000">+ swap()</text>
<text text-anchor="start" x="231.5" y="-1281.5" font-family="Helvetica,sans-Serif" font-size="10.00" fill="#000000">+ get()</text>
<text text-anchor="start" x="231.5" y="-1270.5" font-family="Helvetica,sans-Serif" font-size="10.00" fill="#000000">+ operator&#45;&gt;()</text>
<text text-anchor="start" x="231.5" y="-1259.5" font-family="Helvetica,sans-Serif" font-size="10.00" fill="#000000">and 11 more...</text>
</a>
</g>
</g>
<!-- Node8&#45;&gt;Node7 -->
<g id="edge5" class="edge">
<title>Node8&#45;&gt;Node7</title>
<path fill="none" stroke="#404040" d="M293.5,-1252.3167C293.5,-1240.8765 293.5,-1229.0062 293.5,-1217.1402"/>
<polygon fill="none" stroke="#404040" points="293.5001,-1216.7944 289.5,-1210.7944 293.5,-1204.7944 297.5,-1210.7943 293.5001,-1216.7944"/>
<text text-anchor="middle" x="313" y="-1226" font-family="Helvetica,sans-Serif" font-size="10.00" fill="#000000"> #data_</text>
</g>
<!-- Node9 -->
<g id="node6" class="node">
<title>Node9</title>
<g id="a_node6"><a xlink:href="classtvm_1_1relax_1_1Var.html" target="_top" xlink:title="{tvm::relax::Var\n||+ Var()\l+ Var()\l+ TVM_DEFINE_OBJECT_REF\l_METHODS()\l+ TVM_DEFINE_OBJECT_REF\l_COW_METHOD()\l}">
<polygon fill="#ffffff" stroke="#000000" points="321.5,-287 321.5,-399 475.5,-399 475.5,-287 321.5,-287"/>
<text text-anchor="middle" x="398.5" y="-387" font-family="Helvetica,sans-Serif" font-size="10.00" fill="#000000">tvm::relax::Var</text>
<polyline fill="none" stroke="#000000" points="321.5,-380 475.5,-380 "/>
<text text-anchor="middle" x="398.5" y="-368" font-family="Helvetica,sans-Serif" font-size="10.00" fill="#000000"> </text>
<polyline fill="none" stroke="#000000" points="321.5,-361 475.5,-361 "/>
<text text-anchor="start" x="329.5" y="-349" font-family="Helvetica,sans-Serif" font-size="10.00" fill="#000000">+ Var()</text>
<text text-anchor="start" x="329.5" y="-338" font-family="Helvetica,sans-Serif" font-size="10.00" fill="#000000">+ Var()</text>
<text text-anchor="start" x="329.5" y="-327" font-family="Helvetica,sans-Serif" font-size="10.00" fill="#000000">+ TVM_DEFINE_OBJECT_REF</text>
<text text-anchor="start" x="329.5" y="-316" font-family="Helvetica,sans-Serif" font-size="10.00" fill="#000000">_METHODS()</text>
<text text-anchor="start" x="329.5" y="-305" font-family="Helvetica,sans-Serif" font-size="10.00" fill="#000000">+ TVM_DEFINE_OBJECT_REF</text>
<text text-anchor="start" x="329.5" y="-294" font-family="Helvetica,sans-Serif" font-size="10.00" fill="#000000">_COW_METHOD()</text>
</a>
</g>
</g>
<!-- Node9&#45;&gt;Node4 -->
<g id="edge6" class="edge">
<title>Node9&#45;&gt;Node4</title>
<path fill="none" stroke="#404040" d="M375.9412,-286.6995C356.0008,-236.9337 326.9643,-164.4664 306.3606,-113.0452"/>
<polygon fill="none" stroke="#404040" points="306.3014,-112.8974 300.3567,-108.8156 301.8381,-101.7583 307.7828,-105.84 306.3014,-112.8974"/>
<text text-anchor="middle" x="326.5" y="-123" font-family="Helvetica,sans-Serif" font-size="10.00" fill="#000000"> +var</text>
</g>
<!-- Node10 -->
<g id="node7" class="node">
<title>Node10</title>
<g id="a_node7"><a xlink:href="classtvm_1_1relax_1_1LeafExpr.html" target="_top" xlink:title="Managed reference to BaseExprNode. ">
<polygon fill="#ffffff" stroke="#000000" points="334.5,-574.5 334.5,-642.5 488.5,-642.5 488.5,-574.5 334.5,-574.5"/>
<text text-anchor="middle" x="411.5" y="-630.5" font-family="Helvetica,sans-Serif" font-size="10.00" fill="#000000">tvm::relax::LeafExpr</text>
<polyline fill="none" stroke="#000000" points="334.5,-623.5 488.5,-623.5 "/>
<text text-anchor="middle" x="411.5" y="-611.5" font-family="Helvetica,sans-Serif" font-size="10.00" fill="#000000"> </text>
<polyline fill="none" stroke="#000000" points="334.5,-604.5 488.5,-604.5 "/>
<text text-anchor="start" x="342.5" y="-592.5" font-family="Helvetica,sans-Serif" font-size="10.00" fill="#000000">+ TVM_DEFINE_OBJECT_REF</text>
<text text-anchor="start" x="342.5" y="-581.5" font-family="Helvetica,sans-Serif" font-size="10.00" fill="#000000">_METHODS()</text>
</a>
</g>
</g>
<!-- Node10&#45;&gt;Node9 -->
<g id="edge7" class="edge">
<title>Node10&#45;&gt;Node9</title>
<path fill="none" stroke="#191970" d="M409.3319,-564.2198C407.1116,-518.8747 403.6535,-448.2506 401.2439,-399.0389"/>
<polygon fill="none" stroke="#191970" points="405.8421,-564.5172 409.8271,-574.3341 412.8338,-564.1748 405.8421,-564.5172"/>
</g>
<!-- Node11 -->
<g id="node8" class="node">
<title>Node11</title>
<g id="a_node8"><a xlink:href="classtvm_1_1RelayExpr.html" target="_top" xlink:title="Managed reference to RelayExprNode. ">
<polygon fill="#ffffff" stroke="#000000" points="321.5,-680.5 321.5,-748.5 475.5,-748.5 475.5,-680.5 321.5,-680.5"/>
<text text-anchor="middle" x="398.5" y="-736.5" font-family="Helvetica,sans-Serif" font-size="10.00" fill="#000000">Expr</text>
<polyline fill="none" stroke="#000000" points="321.5,-729.5 475.5,-729.5 "/>
<text text-anchor="middle" x="398.5" y="-717.5" font-family="Helvetica,sans-Serif" font-size="10.00" fill="#000000"> </text>
<polyline fill="none" stroke="#000000" points="321.5,-710.5 475.5,-710.5 "/>
<text text-anchor="start" x="329.5" y="-698.5" font-family="Helvetica,sans-Serif" font-size="10.00" fill="#000000">+ TVM_DEFINE_OBJECT_REF</text>
<text text-anchor="start" x="329.5" y="-687.5" font-family="Helvetica,sans-Serif" font-size="10.00" fill="#000000">_METHODS()</text>
</a>
</g>
</g>
<!-- Node11&#45;&gt;Node10 -->
<g id="edge8" class="edge">
<title>Node11&#45;&gt;Node10</title>
<path fill="none" stroke="#191970" d="M403.9366,-670.1711C405.0686,-660.9405 406.2449,-651.3493 407.323,-642.5586"/>
<polygon fill="none" stroke="#191970" points="400.4282,-670.0257 402.6848,-680.3775 407.3762,-670.8779 400.4282,-670.0257"/>
</g>
<!-- Node12&#45;&gt;Node11 -->
<g id="edge9" class="edge">
<title>Node12&#45;&gt;Node11</title>
<path fill="none" stroke="#191970" d="M393.8551,-866.2326C394.9465,-830.5818 396.4582,-781.1986 397.4568,-748.5776"/>
<polygon fill="none" stroke="#191970" points="390.3528,-866.257 393.5451,-876.3594 397.3496,-866.4712 390.3528,-866.257"/>
</g>
</g>
</svg>
