<?xml version="1.0" encoding="UTF-8" standalone="no"?>
<!DOCTYPE svg PUBLIC "-//W3C//DTD SVG 1.1//EN"
 "http://www.w3.org/Graphics/SVG/1.1/DTD/svg11.dtd">
<!-- Generated by graphviz version 2.40.1 (20161225.0304)
 -->
<!-- Title: tvm::TypeNode Pages: 1 -->
<svg width="3505pt" height="909pt"
 viewBox="0.00 0.00 3505.00 909.00" xmlns="http://www.w3.org/2000/svg" xmlns:xlink="http://www.w3.org/1999/xlink">
<g id="graph0" class="graph" transform="scale(1 1) rotate(0) translate(4 905)">
<title>tvm::TypeNode</title>
<polygon fill="#ffffff" stroke="transparent" points="-4,4 -4,-905 3501,-905 3501,4 -4,4"/>
<!-- Node0 -->
<g id="node1" class="node">
<title>Node0</title>
<polygon fill="#bfbfbf" stroke="#000000" points="1702,-342.5 1702,-465.5 1909,-465.5 1909,-342.5 1702,-342.5"/>
<text text-anchor="middle" x="1805.5" y="-453.5" font-family="Helvetica,sans-Serif" font-size="10.00" fill="#000000">tvm::TypeNode</text>
<polyline fill="none" stroke="#000000" points="1702,-446.5 1909,-446.5 "/>
<text text-anchor="start" x="1710" y="-434.5" font-family="Helvetica,sans-Serif" font-size="10.00" fill="#000000">+ span</text>
<text text-anchor="start" x="1710" y="-423.5" font-family="Helvetica,sans-Serif" font-size="10.00" fill="#000000">+ _type_key</text>
<text text-anchor="start" x="1710" y="-412.5" font-family="Helvetica,sans-Serif" font-size="10.00" fill="#000000">+ _type_has_method_sequal</text>
<text text-anchor="start" x="1710" y="-401.5" font-family="Helvetica,sans-Serif" font-size="10.00" fill="#000000">_reduce</text>
<text text-anchor="start" x="1710" y="-390.5" font-family="Helvetica,sans-Serif" font-size="10.00" fill="#000000">+ _type_has_method_shash</text>
<text text-anchor="start" x="1710" y="-379.5" font-family="Helvetica,sans-Serif" font-size="10.00" fill="#000000">_reduce</text>
<text text-anchor="start" x="1710" y="-368.5" font-family="Helvetica,sans-Serif" font-size="10.00" fill="#000000">+ _type_child_slots</text>
<polyline fill="none" stroke="#000000" points="1702,-361.5 1909,-361.5 "/>
<text text-anchor="start" x="1710" y="-349.5" font-family="Helvetica,sans-Serif" font-size="10.00" fill="#000000">+ TVM_DECLARE_BASE_OBJECT_INFO()</text>
</g>
<!-- Node2 -->
<g id="node3" class="node">
<title>Node2</title>
<g id="a_node3"><a xlink:href="classtvm_1_1BaseTensorTypeNode.html" target="_top" xlink:title="Base of all Tensor types This container can hold TensorType or GenericTensorType. ...">
<polygon fill="#ffffff" stroke="#000000" points="114,-204.5 114,-272.5 321,-272.5 321,-204.5 114,-204.5"/>
<text text-anchor="middle" x="217.5" y="-260.5" font-family="Helvetica,sans-Serif" font-size="10.00" fill="#000000">tvm::BaseTensorTypeNode</text>
<polyline fill="none" stroke="#000000" points="114,-253.5 321,-253.5 "/>
<text text-anchor="start" x="122" y="-241.5" font-family="Helvetica,sans-Serif" font-size="10.00" fill="#000000">+ _type_key</text>
<text text-anchor="start" x="122" y="-230.5" font-family="Helvetica,sans-Serif" font-size="10.00" fill="#000000">+ _type_child_slots</text>
<polyline fill="none" stroke="#000000" points="114,-223.5 321,-223.5 "/>
<text text-anchor="start" x="122" y="-211.5" font-family="Helvetica,sans-Serif" font-size="10.00" fill="#000000">+ TVM_DECLARE_BASE_OBJECT_INFO()</text>
</a>
</g>
</g>
<!-- Node0&#45;&gt;Node2 -->
<g id="edge2" class="edge">
<title>Node0&#45;&gt;Node2</title>
<path fill="none" stroke="#191970" d="M1691.4062,-399.5294C1367.6132,-386.4067 458.0372,-346.3736 329.5,-306 305.9995,-298.6185 282.3008,-285.3689 262.7932,-272.5513"/>
<polygon fill="none" stroke="#191970" points="1691.612,-403.0404 1701.7453,-399.9473 1691.8948,-396.0462 1691.612,-403.0404"/>
</g>
<!-- Node5 -->
<g id="node6" class="node">
<title>Node5</title>
<g id="a_node6"><a xlink:href="classtvm_1_1FuncTypeNode.html" target="_top" xlink:title="Function type. ">
<polygon fill="#ffffff" stroke="#000000" points="339,-171.5 339,-305.5 548,-305.5 548,-171.5 339,-171.5"/>
<text text-anchor="middle" x="443.5" y="-293.5" font-family="Helvetica,sans-Serif" font-size="10.00" fill="#000000">tvm::FuncTypeNode</text>
<polyline fill="none" stroke="#000000" points="339,-286.5 548,-286.5 "/>
<text text-anchor="start" x="347" y="-274.5" font-family="Helvetica,sans-Serif" font-size="10.00" fill="#000000">+ arg_types</text>
<text text-anchor="start" x="347" y="-263.5" font-family="Helvetica,sans-Serif" font-size="10.00" fill="#000000">+ ret_type</text>
<text text-anchor="start" x="347" y="-252.5" font-family="Helvetica,sans-Serif" font-size="10.00" fill="#000000">+ type_params</text>
<text text-anchor="start" x="347" y="-241.5" font-family="Helvetica,sans-Serif" font-size="10.00" fill="#000000">+ type_constraints</text>
<text text-anchor="start" x="347" y="-230.5" font-family="Helvetica,sans-Serif" font-size="10.00" fill="#000000">+ _type_key</text>
<polyline fill="none" stroke="#000000" points="339,-223.5 548,-223.5 "/>
<text text-anchor="start" x="347" y="-211.5" font-family="Helvetica,sans-Serif" font-size="10.00" fill="#000000">+ VisitAttrs()</text>
<text text-anchor="start" x="347" y="-200.5" font-family="Helvetica,sans-Serif" font-size="10.00" fill="#000000">+ SEqualReduce()</text>
<text text-anchor="start" x="347" y="-189.5" font-family="Helvetica,sans-Serif" font-size="10.00" fill="#000000">+ SHashReduce()</text>
<text text-anchor="start" x="347" y="-178.5" font-family="Helvetica,sans-Serif" font-size="10.00" fill="#000000">+ TVM_DECLARE_FINAL_OBJECT_INFO()</text>
</a>
</g>
</g>
<!-- Node0&#45;&gt;Node5 -->
<g id="edge5" class="edge">
<title>Node0&#45;&gt;Node5</title>
<path fill="none" stroke="#191970" d="M1691.7402,-401.6968C1425.0439,-395.2346 766.2303,-372.8088 556.5,-306 553.6694,-305.0983 550.8349,-304.1142 548.0042,-303.0582"/>
<polygon fill="none" stroke="#191970" points="1691.751,-405.198 1701.8319,-401.9382 1691.9185,-398.2 1691.751,-405.198"/>
</g>
<!-- Node6 -->
<g id="node7" class="node">
<title>Node6</title>
<g id="a_node7"><a xlink:href="classtvm_1_1GlobalTypeVarNode.html" target="_top" xlink:title="A global type variable that is used for defining new types or type aliases. ">
<polygon fill="#ffffff" stroke="#000000" points="566,-182.5 566,-294.5 775,-294.5 775,-182.5 566,-182.5"/>
<text text-anchor="middle" x="670.5" y="-282.5" font-family="Helvetica,sans-Serif" font-size="10.00" fill="#000000">tvm::GlobalTypeVarNode</text>
<polyline fill="none" stroke="#000000" points="566,-275.5 775,-275.5 "/>
<text text-anchor="start" x="574" y="-263.5" font-family="Helvetica,sans-Serif" font-size="10.00" fill="#000000">+ name_hint</text>
<text text-anchor="start" x="574" y="-252.5" font-family="Helvetica,sans-Serif" font-size="10.00" fill="#000000">+ kind</text>
<text text-anchor="start" x="574" y="-241.5" font-family="Helvetica,sans-Serif" font-size="10.00" fill="#000000">+ _type_key</text>
<polyline fill="none" stroke="#000000" points="566,-234.5 775,-234.5 "/>
<text text-anchor="start" x="574" y="-222.5" font-family="Helvetica,sans-Serif" font-size="10.00" fill="#000000">+ VisitAttrs()</text>
<text text-anchor="start" x="574" y="-211.5" font-family="Helvetica,sans-Serif" font-size="10.00" fill="#000000">+ SEqualReduce()</text>
<text text-anchor="start" x="574" y="-200.5" font-family="Helvetica,sans-Serif" font-size="10.00" fill="#000000">+ SHashReduce()</text>
<text text-anchor="start" x="574" y="-189.5" font-family="Helvetica,sans-Serif" font-size="10.00" fill="#000000">+ TVM_DECLARE_FINAL_OBJECT_INFO()</text>
</a>
</g>
</g>
<!-- Node0&#45;&gt;Node6 -->
<g id="edge6" class="edge">
<title>Node0&#45;&gt;Node6</title>
<path fill="none" stroke="#191970" d="M1691.9128,-399.4C1462.1063,-389.0683 949.7549,-360.548 783.5,-306 774.1635,-302.9367 764.7753,-298.9981 755.6163,-294.5646"/>
<polygon fill="none" stroke="#191970" points="1691.8264,-402.8996 1701.9724,-399.8488 1692.1384,-395.9065 1691.8264,-402.8996"/>
</g>
<!-- Node7 -->
<g id="node8" class="node">
<title>Node7</title>
<g id="a_node8"><a xlink:href="classtvm_1_1IncompleteTypeNode.html" target="_top" xlink:title="Intermediate values that is used to indicate incomplete type during type inference. ">
<polygon fill="#ffffff" stroke="#000000" points="793,-188 793,-289 1002,-289 1002,-188 793,-188"/>
<text text-anchor="middle" x="897.5" y="-277" font-family="Helvetica,sans-Serif" font-size="10.00" fill="#000000">tvm::IncompleteTypeNode</text>
<polyline fill="none" stroke="#000000" points="793,-270 1002,-270 "/>
<text text-anchor="start" x="801" y="-258" font-family="Helvetica,sans-Serif" font-size="10.00" fill="#000000">+ kind</text>
<text text-anchor="start" x="801" y="-247" font-family="Helvetica,sans-Serif" font-size="10.00" fill="#000000">+ _type_key</text>
<polyline fill="none" stroke="#000000" points="793,-240 1002,-240 "/>
<text text-anchor="start" x="801" y="-228" font-family="Helvetica,sans-Serif" font-size="10.00" fill="#000000">+ VisitAttrs()</text>
<text text-anchor="start" x="801" y="-217" font-family="Helvetica,sans-Serif" font-size="10.00" fill="#000000">+ SEqualReduce()</text>
<text text-anchor="start" x="801" y="-206" font-family="Helvetica,sans-Serif" font-size="10.00" fill="#000000">+ SHashReduce()</text>
<text text-anchor="start" x="801" y="-195" font-family="Helvetica,sans-Serif" font-size="10.00" fill="#000000">+ TVM_DECLARE_FINAL_OBJECT_INFO()</text>
</a>
</g>
</g>
<!-- Node0&#45;&gt;Node7 -->
<g id="edge7" class="edge">
<title>Node0&#45;&gt;Node7</title>
<path fill="none" stroke="#191970" d="M1691.4657,-395.7772C1502.6753,-381.191 1133.7674,-348.2991 1010.5,-306 997.7475,-301.624 984.871,-295.6797 972.605,-289.1225"/>
<polygon fill="none" stroke="#191970" points="1691.4619,-399.2871 1701.7006,-396.5636 1691.9982,-392.3077 1691.4619,-399.2871"/>
</g>
<!-- Node8 -->
<g id="node9" class="node">
<title>Node8</title>
<g id="a_node9"><a xlink:href="classtvm_1_1PointerTypeNode.html" target="_top" xlink:title="Low&#45;level raw pointer type. ">
<polygon fill="#ffffff" stroke="#000000" points="1020,-182.5 1020,-294.5 1229,-294.5 1229,-182.5 1020,-182.5"/>
<text text-anchor="middle" x="1124.5" y="-282.5" font-family="Helvetica,sans-Serif" font-size="10.00" fill="#000000">tvm::PointerTypeNode</text>
<polyline fill="none" stroke="#000000" points="1020,-275.5 1229,-275.5 "/>
<text text-anchor="start" x="1028" y="-263.5" font-family="Helvetica,sans-Serif" font-size="10.00" fill="#000000">+ element_type</text>
<text text-anchor="start" x="1028" y="-252.5" font-family="Helvetica,sans-Serif" font-size="10.00" fill="#000000">+ storage_scope</text>
<text text-anchor="start" x="1028" y="-241.5" font-family="Helvetica,sans-Serif" font-size="10.00" fill="#000000">+ _type_key</text>
<polyline fill="none" stroke="#000000" points="1020,-234.5 1229,-234.5 "/>
<text text-anchor="start" x="1028" y="-222.5" font-family="Helvetica,sans-Serif" font-size="10.00" fill="#000000">+ VisitAttrs()</text>
<text text-anchor="start" x="1028" y="-211.5" font-family="Helvetica,sans-Serif" font-size="10.00" fill="#000000">+ SEqualReduce()</text>
<text text-anchor="start" x="1028" y="-200.5" font-family="Helvetica,sans-Serif" font-size="10.00" fill="#000000">+ SHashReduce()</text>
<text text-anchor="start" x="1028" y="-189.5" font-family="Helvetica,sans-Serif" font-size="10.00" fill="#000000">+ TVM_DECLARE_FINAL_OBJECT_INFO()</text>
</a>
</g>
</g>
<!-- Node0&#45;&gt;Node8 -->
<g id="edge8" class="edge">
<title>Node0&#45;&gt;Node8</title>
<path fill="none" stroke="#191970" d="M1691.6985,-396.6777C1574.6982,-386.3392 1388.7494,-362.0103 1237.5,-306 1228.8211,-302.786 1220.06,-298.8996 1211.46,-294.6339"/>
<polygon fill="none" stroke="#191970" points="1691.4861,-400.1723 1701.7504,-397.5465 1692.0889,-393.1983 1691.4861,-400.1723"/>
</g>
<!-- Node9 -->
<g id="node10" class="node">
<title>Node9</title>
<g id="a_node10"><a xlink:href="classtvm_1_1PrimTypeNode.html" target="_top" xlink:title="Primitive data types used in the low&#45;level IR. ">
<polygon fill="#ffffff" stroke="#000000" points="1247,-188 1247,-289 1456,-289 1456,-188 1247,-188"/>
<text text-anchor="middle" x="1351.5" y="-277" font-family="Helvetica,sans-Serif" font-size="10.00" fill="#000000">tvm::PrimTypeNode</text>
<polyline fill="none" stroke="#000000" points="1247,-270 1456,-270 "/>
<text text-anchor="start" x="1255" y="-258" font-family="Helvetica,sans-Serif" font-size="10.00" fill="#000000">+ dtype</text>
<text text-anchor="start" x="1255" y="-247" font-family="Helvetica,sans-Serif" font-size="10.00" fill="#000000">+ _type_key</text>
<polyline fill="none" stroke="#000000" points="1247,-240 1456,-240 "/>
<text text-anchor="start" x="1255" y="-228" font-family="Helvetica,sans-Serif" font-size="10.00" fill="#000000">+ VisitAttrs()</text>
<text text-anchor="start" x="1255" y="-217" font-family="Helvetica,sans-Serif" font-size="10.00" fill="#000000">+ SEqualReduce()</text>
<text text-anchor="start" x="1255" y="-206" font-family="Helvetica,sans-Serif" font-size="10.00" fill="#000000">+ SHashReduce()</text>
<text text-anchor="start" x="1255" y="-195" font-family="Helvetica,sans-Serif" font-size="10.00" fill="#000000">+ TVM_DECLARE_FINAL_OBJECT_INFO()</text>
</a>
</g>
</g>
<!-- Node0&#45;&gt;Node9 -->
<g id="edge9" class="edge">
<title>Node0&#45;&gt;Node9</title>
<path fill="none" stroke="#191970" d="M1691.802,-379.1562C1624.2536,-362.4883 1537.7553,-337.7656 1464.5,-306 1453.1787,-301.0908 1441.6057,-295.2492 1430.3909,-289.0871"/>
<polygon fill="none" stroke="#191970" points="1691.0818,-382.5831 1701.6268,-381.5568 1692.7433,-375.7832 1691.0818,-382.5831"/>
</g>
<!-- Node10 -->
<g id="node11" class="node">
<title>Node10</title>
<g id="a_node11"><a xlink:href="classtvm_1_1relax_1_1ObjectTypeNode.html" target="_top" xlink:title="{tvm::relax::ObjectTypeNode\n|+ _type_key\l|+ VisitAttrs()\l+ SEqualReduce()\l+ SHashReduce()\l+ TVM_DECLARE_FINAL_OBJECT_INFO()\l}">
<polygon fill="#ffffff" stroke="#000000" points="1474,-193.5 1474,-283.5 1683,-283.5 1683,-193.5 1474,-193.5"/>
<text text-anchor="middle" x="1578.5" y="-271.5" font-family="Helvetica,sans-Serif" font-size="10.00" fill="#000000">tvm::relax::ObjectTypeNode</text>
<polyline fill="none" stroke="#000000" points="1474,-264.5 1683,-264.5 "/>
<text text-anchor="start" x="1482" y="-252.5" font-family="Helvetica,sans-Serif" font-size="10.00" fill="#000000">+ _type_key</text>
<polyline fill="none" stroke="#000000" points="1474,-245.5 1683,-245.5 "/>
<text text-anchor="start" x="1482" y="-233.5" font-family="Helvetica,sans-Serif" font-size="10.00" fill="#000000">+ VisitAttrs()</text>
<text text-anchor="start" x="1482" y="-222.5" font-family="Helvetica,sans-Serif" font-size="10.00" fill="#000000">+ SEqualReduce()</text>
<text text-anchor="start" x="1482" y="-211.5" font-family="Helvetica,sans-Serif" font-size="10.00" fill="#000000">+ SHashReduce()</text>
<text text-anchor="start" x="1482" y="-200.5" font-family="Helvetica,sans-Serif" font-size="10.00" fill="#000000">+ TVM_DECLARE_FINAL_OBJECT_INFO()</text>
</a>
</g>
</g>
<!-- Node0&#45;&gt;Node10 -->
<g id="edge10" class="edge">
<title>Node0&#45;&gt;Node10</title>
<path fill="none" stroke="#191970" d="M1712.767,-336.3907C1688.3988,-318.6245 1662.7083,-299.8942 1640.3975,-283.6279"/>
<polygon fill="none" stroke="#191970" points="1710.8312,-339.3108 1720.9736,-342.3739 1714.9551,-333.6545 1710.8312,-339.3108"/>
</g>
<!-- Node11 -->
<g id="node12" class="node">
<title>Node11</title>
<g id="a_node12"><a xlink:href="classtvm_1_1relax_1_1PackedFuncTypeNode.html" target="_top" xlink:title="{tvm::relax::PackedFuncTypeNode\n|+ _type_key\l|+ VisitAttrs()\l+ SEqualReduce()\l+ SHashReduce()\l+ TVM_DECLARE_FINAL_OBJECT_INFO()\l}">
<polygon fill="#ffffff" stroke="#000000" points="1701,-193.5 1701,-283.5 1910,-283.5 1910,-193.5 1701,-193.5"/>
<text text-anchor="middle" x="1805.5" y="-271.5" font-family="Helvetica,sans-Serif" font-size="10.00" fill="#000000">tvm::relax::PackedFuncTypeNode</text>
<polyline fill="none" stroke="#000000" points="1701,-264.5 1910,-264.5 "/>
<text text-anchor="start" x="1709" y="-252.5" font-family="Helvetica,sans-Serif" font-size="10.00" fill="#000000">+ _type_key</text>
<polyline fill="none" stroke="#000000" points="1701,-245.5 1910,-245.5 "/>
<text text-anchor="start" x="1709" y="-233.5" font-family="Helvetica,sans-Serif" font-size="10.00" fill="#000000">+ VisitAttrs()</text>
<text text-anchor="start" x="1709" y="-222.5" font-family="Helvetica,sans-Serif" font-size="10.00" fill="#000000">+ SEqualReduce()</text>
<text text-anchor="start" x="1709" y="-211.5" font-family="Helvetica,sans-Serif" font-size="10.00" fill="#000000">+ SHashReduce()</text>
<text text-anchor="start" x="1709" y="-200.5" font-family="Helvetica,sans-Serif" font-size="10.00" fill="#000000">+ TVM_DECLARE_FINAL_OBJECT_INFO()</text>
</a>
</g>
</g>
<!-- Node0&#45;&gt;Node11 -->
<g id="edge11" class="edge">
<title>Node0&#45;&gt;Node11</title>
<path fill="none" stroke="#191970" d="M1805.5,-332.2034C1805.5,-315.7079 1805.5,-298.6212 1805.5,-283.6279"/>
<polygon fill="none" stroke="#191970" points="1802.0001,-332.3739 1805.5,-342.3739 1809.0001,-332.3739 1802.0001,-332.3739"/>
</g>
<!-- Node12 -->
<g id="node13" class="node">
<title>Node12</title>
<g id="a_node13"><a xlink:href="classtvm_1_1relax_1_1ShapeTypeNode.html" target="_top" xlink:title="{tvm::relax::ShapeTypeNode\n|+ ndim\l+ _type_key\l|+ VisitAttrs()\l+ SEqualReduce()\l+ SHashReduce()\l+ TVM_DECLARE_FINAL_OBJECT_INFO()\l}">
<polygon fill="#ffffff" stroke="#000000" points="1928,-188 1928,-289 2137,-289 2137,-188 1928,-188"/>
<text text-anchor="middle" x="2032.5" y="-277" font-family="Helvetica,sans-Serif" font-size="10.00" fill="#000000">tvm::relax::ShapeTypeNode</text>
<polyline fill="none" stroke="#000000" points="1928,-270 2137,-270 "/>
<text text-anchor="start" x="1936" y="-258" font-family="Helvetica,sans-Serif" font-size="10.00" fill="#000000">+ ndim</text>
<text text-anchor="start" x="1936" y="-247" font-family="Helvetica,sans-Serif" font-size="10.00" fill="#000000">+ _type_key</text>
<polyline fill="none" stroke="#000000" points="1928,-240 2137,-240 "/>
<text text-anchor="start" x="1936" y="-228" font-family="Helvetica,sans-Serif" font-size="10.00" fill="#000000">+ VisitAttrs()</text>
<text text-anchor="start" x="1936" y="-217" font-family="Helvetica,sans-Serif" font-size="10.00" fill="#000000">+ SEqualReduce()</text>
<text text-anchor="start" x="1936" y="-206" font-family="Helvetica,sans-Serif" font-size="10.00" fill="#000000">+ SHashReduce()</text>
<text text-anchor="start" x="1936" y="-195" font-family="Helvetica,sans-Serif" font-size="10.00" fill="#000000">+ TVM_DECLARE_FINAL_OBJECT_INFO()</text>
</a>
</g>
</g>
<!-- Node0&#45;&gt;Node12 -->
<g id="edge12" class="edge">
<title>Node0&#45;&gt;Node12</title>
<path fill="none" stroke="#191970" d="M1898.2734,-336.3612C1919.9428,-320.5626 1942.6555,-304.0034 1963.1059,-289.0935"/>
<polygon fill="none" stroke="#191970" points="1896.0449,-333.6545 1890.0264,-342.3739 1900.1688,-339.3108 1896.0449,-333.6545"/>
</g>
<!-- Node13 -->
<g id="node14" class="node">
<title>Node13</title>
<g id="a_node14"><a xlink:href="classtvm_1_1RelayRefTypeNode.html" target="_top" xlink:title="Reference Type High&#45;level Relay IR. ">
<polygon fill="#ffffff" stroke="#000000" points="2155,-182.5 2155,-294.5 2364,-294.5 2364,-182.5 2155,-182.5"/>
<text text-anchor="middle" x="2259.5" y="-282.5" font-family="Helvetica,sans-Serif" font-size="10.00" fill="#000000">tvm::RelayRefTypeNode</text>
<polyline fill="none" stroke="#000000" points="2155,-275.5 2364,-275.5 "/>
<text text-anchor="start" x="2163" y="-263.5" font-family="Helvetica,sans-Serif" font-size="10.00" fill="#000000">+ value</text>
<text text-anchor="start" x="2163" y="-252.5" font-family="Helvetica,sans-Serif" font-size="10.00" fill="#000000">+ _type_key</text>
<polyline fill="none" stroke="#000000" points="2155,-245.5 2364,-245.5 "/>
<text text-anchor="start" x="2163" y="-233.5" font-family="Helvetica,sans-Serif" font-size="10.00" fill="#000000">+ RelayRefTypeNode()</text>
<text text-anchor="start" x="2163" y="-222.5" font-family="Helvetica,sans-Serif" font-size="10.00" fill="#000000">+ VisitAttrs()</text>
<text text-anchor="start" x="2163" y="-211.5" font-family="Helvetica,sans-Serif" font-size="10.00" fill="#000000">+ SEqualReduce()</text>
<text text-anchor="start" x="2163" y="-200.5" font-family="Helvetica,sans-Serif" font-size="10.00" fill="#000000">+ SHashReduce()</text>
<text text-anchor="start" x="2163" y="-189.5" font-family="Helvetica,sans-Serif" font-size="10.00" fill="#000000">+ TVM_DECLARE_FINAL_OBJECT_INFO()</text>
</a>
</g>
</g>
<!-- Node0&#45;&gt;Node13 -->
<g id="edge13" class="edge">
<title>Node0&#45;&gt;Node13</title>
<path fill="none" stroke="#191970" d="M1919.198,-379.1562C1986.7464,-362.4883 2073.2447,-337.7656 2146.5,-306 2154.362,-302.5908 2162.3454,-298.732 2170.246,-294.6285"/>
<polygon fill="none" stroke="#191970" points="1918.2567,-375.7832 1909.3732,-381.5568 1919.9182,-382.5831 1918.2567,-375.7832"/>
</g>
<!-- Node14 -->
<g id="node15" class="node">
<title>Node14</title>
<g id="a_node15"><a xlink:href="classtvm_1_1TupleTypeNode.html" target="_top" xlink:title="The type of tuple values. ">
<polygon fill="#ffffff" stroke="#000000" points="2382,-182.5 2382,-294.5 2591,-294.5 2591,-182.5 2382,-182.5"/>
<text text-anchor="middle" x="2486.5" y="-282.5" font-family="Helvetica,sans-Serif" font-size="10.00" fill="#000000">tvm::TupleTypeNode</text>
<polyline fill="none" stroke="#000000" points="2382,-275.5 2591,-275.5 "/>
<text text-anchor="start" x="2390" y="-263.5" font-family="Helvetica,sans-Serif" font-size="10.00" fill="#000000">+ fields</text>
<text text-anchor="start" x="2390" y="-252.5" font-family="Helvetica,sans-Serif" font-size="10.00" fill="#000000">+ _type_key</text>
<polyline fill="none" stroke="#000000" points="2382,-245.5 2591,-245.5 "/>
<text text-anchor="start" x="2390" y="-233.5" font-family="Helvetica,sans-Serif" font-size="10.00" fill="#000000">+ TupleTypeNode()</text>
<text text-anchor="start" x="2390" y="-222.5" font-family="Helvetica,sans-Serif" font-size="10.00" fill="#000000">+ VisitAttrs()</text>
<text text-anchor="start" x="2390" y="-211.5" font-family="Helvetica,sans-Serif" font-size="10.00" fill="#000000">+ SEqualReduce()</text>
<text text-anchor="start" x="2390" y="-200.5" font-family="Helvetica,sans-Serif" font-size="10.00" fill="#000000">+ SHashReduce()</text>
<text text-anchor="start" x="2390" y="-189.5" font-family="Helvetica,sans-Serif" font-size="10.00" fill="#000000">+ TVM_DECLARE_FINAL_OBJECT_INFO()</text>
</a>
</g>
</g>
<!-- Node0&#45;&gt;Node14 -->
<g id="edge14" class="edge">
<title>Node0&#45;&gt;Node14</title>
<path fill="none" stroke="#191970" d="M1919.3015,-396.6777C2036.3018,-386.3392 2222.2506,-362.0103 2373.5,-306 2382.1789,-302.786 2390.94,-298.8996 2399.54,-294.6339"/>
<polygon fill="none" stroke="#191970" points="1918.9111,-393.1983 1909.2496,-397.5465 1919.5139,-400.1723 1918.9111,-393.1983"/>
</g>
<!-- Node15 -->
<g id="node16" class="node">
<title>Node15</title>
<g id="a_node16"><a xlink:href="classtvm_1_1TypeCallNode.html" target="_top" xlink:title="Type function application. ">
<polygon fill="#ffffff" stroke="#000000" points="2609,-182.5 2609,-294.5 2818,-294.5 2818,-182.5 2609,-182.5"/>
<text text-anchor="middle" x="2713.5" y="-282.5" font-family="Helvetica,sans-Serif" font-size="10.00" fill="#000000">tvm::TypeCallNode</text>
<polyline fill="none" stroke="#000000" points="2609,-275.5 2818,-275.5 "/>
<text text-anchor="start" x="2617" y="-263.5" font-family="Helvetica,sans-Serif" font-size="10.00" fill="#000000">+ func</text>
<text text-anchor="start" x="2617" y="-252.5" font-family="Helvetica,sans-Serif" font-size="10.00" fill="#000000">+ args</text>
<text text-anchor="start" x="2617" y="-241.5" font-family="Helvetica,sans-Serif" font-size="10.00" fill="#000000">+ _type_key</text>
<polyline fill="none" stroke="#000000" points="2609,-234.5 2818,-234.5 "/>
<text text-anchor="start" x="2617" y="-222.5" font-family="Helvetica,sans-Serif" font-size="10.00" fill="#000000">+ VisitAttrs()</text>
<text text-anchor="start" x="2617" y="-211.5" font-family="Helvetica,sans-Serif" font-size="10.00" fill="#000000">+ SEqualReduce()</text>
<text text-anchor="start" x="2617" y="-200.5" font-family="Helvetica,sans-Serif" font-size="10.00" fill="#000000">+ SHashReduce()</text>
<text text-anchor="start" x="2617" y="-189.5" font-family="Helvetica,sans-Serif" font-size="10.00" fill="#000000">+ TVM_DECLARE_FINAL_OBJECT_INFO()</text>
</a>
</g>
</g>
<!-- Node0&#45;&gt;Node15 -->
<g id="edge15" class="edge">
<title>Node0&#45;&gt;Node15</title>
<path fill="none" stroke="#191970" d="M1919.5343,-395.7772C2108.3247,-381.191 2477.2326,-348.2991 2600.5,-306 2609.5781,-302.8849 2618.719,-298.975 2627.6577,-294.6151"/>
<polygon fill="none" stroke="#191970" points="1919.0018,-392.3077 1909.2994,-396.5636 1919.5381,-399.2871 1919.0018,-392.3077"/>
</g>
<!-- Node16 -->
<g id="node17" class="node">
<title>Node16</title>
<g id="a_node17"><a xlink:href="classtvm_1_1TypeConstraintNode.html" target="_top" xlink:title="Potential Constraints in a function. ">
<polygon fill="#ffffff" stroke="#000000" points="2836,-204.5 2836,-272.5 3043,-272.5 3043,-204.5 2836,-204.5"/>
<text text-anchor="middle" x="2939.5" y="-260.5" font-family="Helvetica,sans-Serif" font-size="10.00" fill="#000000">tvm::TypeConstraintNode</text>
<polyline fill="none" stroke="#000000" points="2836,-253.5 3043,-253.5 "/>
<text text-anchor="start" x="2844" y="-241.5" font-family="Helvetica,sans-Serif" font-size="10.00" fill="#000000">+ _type_key</text>
<text text-anchor="start" x="2844" y="-230.5" font-family="Helvetica,sans-Serif" font-size="10.00" fill="#000000">+ _type_child_slots</text>
<polyline fill="none" stroke="#000000" points="2836,-223.5 3043,-223.5 "/>
<text text-anchor="start" x="2844" y="-211.5" font-family="Helvetica,sans-Serif" font-size="10.00" fill="#000000">+ TVM_DECLARE_BASE_OBJECT_INFO()</text>
</a>
</g>
</g>
<!-- Node0&#45;&gt;Node16 -->
<g id="edge16" class="edge">
<title>Node0&#45;&gt;Node16</title>
<path fill="none" stroke="#191970" d="M1919.1047,-399.4531C2148.9437,-389.2203 2661.3524,-360.8738 2827.5,-306 2850.6743,-298.3462 2874.1352,-285.2178 2893.5557,-272.5623"/>
<polygon fill="none" stroke="#191970" points="1918.8794,-395.9596 1909.0436,-399.8975 1919.1883,-402.9528 1918.8794,-395.9596"/>
</g>
<!-- Node18 -->
<g id="node19" class="node">
<title>Node18</title>
<g id="a_node19"><a xlink:href="classtvm_1_1TypeDataNode.html" target="_top" xlink:title="TypeData container node. ">
<polygon fill="#ffffff" stroke="#000000" points="3061,-177 3061,-300 3270,-300 3270,-177 3061,-177"/>
<text text-anchor="middle" x="3165.5" y="-288" font-family="Helvetica,sans-Serif" font-size="10.00" fill="#000000">tvm::TypeDataNode</text>
<polyline fill="none" stroke="#000000" points="3061,-281 3270,-281 "/>
<text text-anchor="start" x="3069" y="-269" font-family="Helvetica,sans-Serif" font-size="10.00" fill="#000000">+ header</text>
<text text-anchor="start" x="3069" y="-258" font-family="Helvetica,sans-Serif" font-size="10.00" fill="#000000">+ type_vars</text>
<text text-anchor="start" x="3069" y="-247" font-family="Helvetica,sans-Serif" font-size="10.00" fill="#000000">+ constructors</text>
<text text-anchor="start" x="3069" y="-236" font-family="Helvetica,sans-Serif" font-size="10.00" fill="#000000">+ _type_key</text>
<polyline fill="none" stroke="#000000" points="3061,-229 3270,-229 "/>
<text text-anchor="start" x="3069" y="-217" font-family="Helvetica,sans-Serif" font-size="10.00" fill="#000000">+ VisitAttrs()</text>
<text text-anchor="start" x="3069" y="-206" font-family="Helvetica,sans-Serif" font-size="10.00" fill="#000000">+ SEqualReduce()</text>
<text text-anchor="start" x="3069" y="-195" font-family="Helvetica,sans-Serif" font-size="10.00" fill="#000000">+ SHashReduce()</text>
<text text-anchor="start" x="3069" y="-184" font-family="Helvetica,sans-Serif" font-size="10.00" fill="#000000">+ TVM_DECLARE_FINAL_OBJECT_INFO()</text>
</a>
</g>
</g>
<!-- Node0&#45;&gt;Node18 -->
<g id="edge18" class="edge">
<title>Node0&#45;&gt;Node18</title>
<path fill="none" stroke="#191970" d="M1919.0779,-401.6845C2185.3478,-395.1955 2843.1077,-372.7156 3052.5,-306 3057.8344,-304.3004 3063.1828,-302.3078 3068.4936,-300.094"/>
<polygon fill="none" stroke="#191970" points="1918.9153,-398.1873 1909.0024,-401.927 1919.0837,-405.1853 1918.9153,-398.1873"/>
</g>
<!-- Node19 -->
<g id="node20" class="node">
<title>Node19</title>
<g id="a_node20"><a xlink:href="classtvm_1_1TypeVarNode.html" target="_top" xlink:title="Type parameter in functions. ">
<polygon fill="#ffffff" stroke="#000000" points="3288,-182.5 3288,-294.5 3497,-294.5 3497,-182.5 3288,-182.5"/>
<text text-anchor="middle" x="3392.5" y="-282.5" font-family="Helvetica,sans-Serif" font-size="10.00" fill="#000000">tvm::TypeVarNode</text>
<polyline fill="none" stroke="#000000" points="3288,-275.5 3497,-275.5 "/>
<text text-anchor="start" x="3296" y="-263.5" font-family="Helvetica,sans-Serif" font-size="10.00" fill="#000000">+ name_hint</text>
<text text-anchor="start" x="3296" y="-252.5" font-family="Helvetica,sans-Serif" font-size="10.00" fill="#000000">+ kind</text>
<text text-anchor="start" x="3296" y="-241.5" font-family="Helvetica,sans-Serif" font-size="10.00" fill="#000000">+ _type_key</text>
<polyline fill="none" stroke="#000000" points="3288,-234.5 3497,-234.5 "/>
<text text-anchor="start" x="3296" y="-222.5" font-family="Helvetica,sans-Serif" font-size="10.00" fill="#000000">+ VisitAttrs()</text>
<text text-anchor="start" x="3296" y="-211.5" font-family="Helvetica,sans-Serif" font-size="10.00" fill="#000000">+ SEqualReduce()</text>
<text text-anchor="start" x="3296" y="-200.5" font-family="Helvetica,sans-Serif" font-size="10.00" fill="#000000">+ SHashReduce()</text>
<text text-anchor="start" x="3296" y="-189.5" font-family="Helvetica,sans-Serif" font-size="10.00" fill="#000000">+ TVM_DECLARE_FINAL_OBJECT_INFO()</text>
</a>
</g>
</g>
<!-- Node0&#45;&gt;Node19 -->
<g id="edge19" class="edge">
<title>Node0&#45;&gt;Node19</title>
<path fill="none" stroke="#191970" d="M1919.1486,-403.291C2219.0577,-400.334 3026.1494,-385.0446 3279.5,-306 3289.0984,-303.0053 3298.7355,-299.0461 3308.1144,-294.5422"/>
<polygon fill="none" stroke="#191970" points="1919.0932,-399.7913 1909.1273,-403.3871 1919.1604,-406.791 1919.0932,-399.7913"/>
</g>
<!-- Node1 -->
<g id="node2" class="node">
<title>Node1</title>
<g id="a_node2"><a xlink:href="classtvm_1_1runtime_1_1Object.html" target="_top" xlink:title="base class of all object containers. ">
<polygon fill="#ffffff" stroke="#000000" points="1714,-502.5 1714,-900.5 1897,-900.5 1897,-502.5 1714,-502.5"/>
<text text-anchor="middle" x="1805.5" y="-888.5" font-family="Helvetica,sans-Serif" font-size="10.00" fill="#000000">tvm::runtime::Object</text>
<polyline fill="none" stroke="#000000" points="1714,-881.5 1897,-881.5 "/>
<text text-anchor="start" x="1722" y="-869.5" font-family="Helvetica,sans-Serif" font-size="10.00" fill="#000000">+ _type_key</text>
<text text-anchor="start" x="1722" y="-858.5" font-family="Helvetica,sans-Serif" font-size="10.00" fill="#000000">+ _type_final</text>
<text text-anchor="start" x="1722" y="-847.5" font-family="Helvetica,sans-Serif" font-size="10.00" fill="#000000">+ _type_child_slots</text>
<text text-anchor="start" x="1722" y="-836.5" font-family="Helvetica,sans-Serif" font-size="10.00" fill="#000000">+ _type_child_slots_can</text>
<text text-anchor="start" x="1722" y="-825.5" font-family="Helvetica,sans-Serif" font-size="10.00" fill="#000000">_overflow</text>
<text text-anchor="start" x="1722" y="-814.5" font-family="Helvetica,sans-Serif" font-size="10.00" fill="#000000">+ _type_has_method_visit</text>
<text text-anchor="start" x="1722" y="-803.5" font-family="Helvetica,sans-Serif" font-size="10.00" fill="#000000">_attrs</text>
<text text-anchor="start" x="1722" y="-792.5" font-family="Helvetica,sans-Serif" font-size="10.00" fill="#000000">+ _type_has_method_sequal</text>
<text text-anchor="start" x="1722" y="-781.5" font-family="Helvetica,sans-Serif" font-size="10.00" fill="#000000">_reduce</text>
<text text-anchor="start" x="1722" y="-770.5" font-family="Helvetica,sans-Serif" font-size="10.00" fill="#000000">+ _type_has_method_shash</text>
<text text-anchor="start" x="1722" y="-759.5" font-family="Helvetica,sans-Serif" font-size="10.00" fill="#000000">_reduce</text>
<text text-anchor="start" x="1722" y="-748.5" font-family="Helvetica,sans-Serif" font-size="10.00" fill="#000000">+ _type_index</text>
<text text-anchor="start" x="1722" y="-737.5" font-family="Helvetica,sans-Serif" font-size="10.00" fill="#000000"># type_index_</text>
<text text-anchor="start" x="1722" y="-726.5" font-family="Helvetica,sans-Serif" font-size="10.00" fill="#000000"># ref_counter_</text>
<text text-anchor="start" x="1722" y="-715.5" font-family="Helvetica,sans-Serif" font-size="10.00" fill="#000000"># deleter_</text>
<polyline fill="none" stroke="#000000" points="1714,-708.5 1897,-708.5 "/>
<text text-anchor="start" x="1722" y="-696.5" font-family="Helvetica,sans-Serif" font-size="10.00" fill="#000000">+ type_index()</text>
<text text-anchor="start" x="1722" y="-685.5" font-family="Helvetica,sans-Serif" font-size="10.00" fill="#000000">+ GetTypeKey()</text>
<text text-anchor="start" x="1722" y="-674.5" font-family="Helvetica,sans-Serif" font-size="10.00" fill="#000000">+ GetTypeKeyHash()</text>
<text text-anchor="start" x="1722" y="-663.5" font-family="Helvetica,sans-Serif" font-size="10.00" fill="#000000">+ IsInstance()</text>
<text text-anchor="start" x="1722" y="-652.5" font-family="Helvetica,sans-Serif" font-size="10.00" fill="#000000">+ unique()</text>
<text text-anchor="start" x="1722" y="-641.5" font-family="Helvetica,sans-Serif" font-size="10.00" fill="#000000">+ Object()</text>
<text text-anchor="start" x="1722" y="-630.5" font-family="Helvetica,sans-Serif" font-size="10.00" fill="#000000">+ Object()</text>
<text text-anchor="start" x="1722" y="-619.5" font-family="Helvetica,sans-Serif" font-size="10.00" fill="#000000">+ Object()</text>
<text text-anchor="start" x="1722" y="-608.5" font-family="Helvetica,sans-Serif" font-size="10.00" fill="#000000">+ operator=()</text>
<text text-anchor="start" x="1722" y="-597.5" font-family="Helvetica,sans-Serif" font-size="10.00" fill="#000000">+ operator=()</text>
<text text-anchor="start" x="1722" y="-586.5" font-family="Helvetica,sans-Serif" font-size="10.00" fill="#000000">+ TypeIndex2Key()</text>
<text text-anchor="start" x="1722" y="-575.5" font-family="Helvetica,sans-Serif" font-size="10.00" fill="#000000">+ TypeIndex2KeyHash()</text>
<text text-anchor="start" x="1722" y="-564.5" font-family="Helvetica,sans-Serif" font-size="10.00" fill="#000000">+ TypeKey2Index()</text>
<text text-anchor="start" x="1722" y="-553.5" font-family="Helvetica,sans-Serif" font-size="10.00" fill="#000000">+ _GetOrAllocRuntimeTypeIndex()</text>
<text text-anchor="start" x="1722" y="-542.5" font-family="Helvetica,sans-Serif" font-size="10.00" fill="#000000">+ RuntimeTypeIndex()</text>
<text text-anchor="start" x="1722" y="-531.5" font-family="Helvetica,sans-Serif" font-size="10.00" fill="#000000"># IncRef()</text>
<text text-anchor="start" x="1722" y="-520.5" font-family="Helvetica,sans-Serif" font-size="10.00" fill="#000000"># DecRef()</text>
<text text-anchor="start" x="1722" y="-509.5" font-family="Helvetica,sans-Serif" font-size="10.00" fill="#000000"># GetOrAllocRuntimeTypeIndex()</text>
</a>
</g>
</g>
<!-- Node1&#45;&gt;Node0 -->
<g id="edge1" class="edge">
<title>Node1&#45;&gt;Node0</title>
<path fill="none" stroke="#191970" d="M1805.5,-492.0774C1805.5,-482.8427 1805.5,-473.9846 1805.5,-465.6845"/>
<polygon fill="none" stroke="#191970" points="1802.0001,-492.2371 1805.5,-502.2371 1809.0001,-492.2372 1802.0001,-492.2371"/>
</g>
<!-- Node3 -->
<g id="node4" class="node">
<title>Node3</title>
<g id="a_node4"><a xlink:href="classtvm_1_1relax_1_1DynTensorTypeNode.html" target="_top" xlink:title="{tvm::relax::DynTensorTypeNode\n|+ ndim\l+ dtype\l+ _type_key\l|+ VisitAttrs()\l+ SEqualReduce()\l+ SHashReduce()\l+ IsUnknownNdim()\l+ IsUnknownDtype()\l+ TVM_DECLARE_FINAL_OBJECT_INFO()\l}">
<polygon fill="#ffffff" stroke="#000000" points="0,-.5 0,-134.5 209,-134.5 209,-.5 0,-.5"/>
<text text-anchor="middle" x="104.5" y="-122.5" font-family="Helvetica,sans-Serif" font-size="10.00" fill="#000000">tvm::relax::DynTensorTypeNode</text>
<polyline fill="none" stroke="#000000" points="0,-115.5 209,-115.5 "/>
<text text-anchor="start" x="8" y="-103.5" font-family="Helvetica,sans-Serif" font-size="10.00" fill="#000000">+ ndim</text>
<text text-anchor="start" x="8" y="-92.5" font-family="Helvetica,sans-Serif" font-size="10.00" fill="#000000">+ dtype</text>
<text text-anchor="start" x="8" y="-81.5" font-family="Helvetica,sans-Serif" font-size="10.00" fill="#000000">+ _type_key</text>
<polyline fill="none" stroke="#000000" points="0,-74.5 209,-74.5 "/>
<text text-anchor="start" x="8" y="-62.5" font-family="Helvetica,sans-Serif" font-size="10.00" fill="#000000">+ VisitAttrs()</text>
<text text-anchor="start" x="8" y="-51.5" font-family="Helvetica,sans-Serif" font-size="10.00" fill="#000000">+ SEqualReduce()</text>
<text text-anchor="start" x="8" y="-40.5" font-family="Helvetica,sans-Serif" font-size="10.00" fill="#000000">+ SHashReduce()</text>
<text text-anchor="start" x="8" y="-29.5" font-family="Helvetica,sans-Serif" font-size="10.00" fill="#000000">+ IsUnknownNdim()</text>
<text text-anchor="start" x="8" y="-18.5" font-family="Helvetica,sans-Serif" font-size="10.00" fill="#000000">+ IsUnknownDtype()</text>
<text text-anchor="start" x="8" y="-7.5" font-family="Helvetica,sans-Serif" font-size="10.00" fill="#000000">+ TVM_DECLARE_FINAL_OBJECT_INFO()</text>
</a>
</g>
</g>
<!-- Node2&#45;&gt;Node3 -->
<g id="edge3" class="edge">
<title>Node2&#45;&gt;Node3</title>
<path fill="none" stroke="#191970" d="M189.2825,-195.7992C177.0438,-177.2786 162.4192,-155.1476 148.7901,-134.523"/>
<polygon fill="none" stroke="#191970" points="186.4711,-197.8932 194.9044,-204.3066 192.3112,-194.034 186.4711,-197.8932"/>
</g>
<!-- Node4 -->
<g id="node5" class="node">
<title>Node4</title>
<g id="a_node5"><a xlink:href="classtvm_1_1TensorTypeNode.html" target="_top" xlink:title="This is the most commonly used type in relay. TensorType have a fixed dimension, data type...">
<polygon fill="#ffffff" stroke="#000000" points="227,-6 227,-129 436,-129 436,-6 227,-6"/>
<text text-anchor="middle" x="331.5" y="-117" font-family="Helvetica,sans-Serif" font-size="10.00" fill="#000000">tvm::TensorTypeNode</text>
<polyline fill="none" stroke="#000000" points="227,-110 436,-110 "/>
<text text-anchor="start" x="235" y="-98" font-family="Helvetica,sans-Serif" font-size="10.00" fill="#000000">+ shape</text>
<text text-anchor="start" x="235" y="-87" font-family="Helvetica,sans-Serif" font-size="10.00" fill="#000000">+ dtype</text>
<text text-anchor="start" x="235" y="-76" font-family="Helvetica,sans-Serif" font-size="10.00" fill="#000000">+ _type_key</text>
<polyline fill="none" stroke="#000000" points="227,-69 436,-69 "/>
<text text-anchor="start" x="235" y="-57" font-family="Helvetica,sans-Serif" font-size="10.00" fill="#000000">+ VisitAttrs()</text>
<text text-anchor="start" x="235" y="-46" font-family="Helvetica,sans-Serif" font-size="10.00" fill="#000000">+ SEqualReduce()</text>
<text text-anchor="start" x="235" y="-35" font-family="Helvetica,sans-Serif" font-size="10.00" fill="#000000">+ SHashReduce()</text>
<text text-anchor="start" x="235" y="-24" font-family="Helvetica,sans-Serif" font-size="10.00" fill="#000000">+ Size()</text>
<text text-anchor="start" x="235" y="-13" font-family="Helvetica,sans-Serif" font-size="10.00" fill="#000000">+ TVM_DECLARE_FINAL_OBJECT_INFO()</text>
</a>
</g>
</g>
<!-- Node2&#45;&gt;Node4 -->
<g id="edge4" class="edge">
<title>Node2&#45;&gt;Node4</title>
<path fill="none" stroke="#191970" d="M245.8569,-195.9647C259.2716,-175.8426 275.5462,-151.4307 290.2905,-129.3142"/>
<polygon fill="none" stroke="#191970" points="242.9305,-194.0446 240.2956,-204.3066 248.7548,-197.9275 242.9305,-194.0446"/>
</g>
<!-- Node17 -->
<g id="node18" class="node">
<title>Node17</title>
<g id="a_node18"><a xlink:href="classtvm_1_1TypeRelationNode.html" target="_top" xlink:title="User defined type relation, it is an input&#45;output relation on types. ">
<polygon fill="#ffffff" stroke="#000000" points="2835,-.5 2835,-134.5 3044,-134.5 3044,-.5 2835,-.5"/>
<text text-anchor="middle" x="2939.5" y="-122.5" font-family="Helvetica,sans-Serif" font-size="10.00" fill="#000000">tvm::TypeRelationNode</text>
<polyline fill="none" stroke="#000000" points="2835,-115.5 3044,-115.5 "/>
<text text-anchor="start" x="2843" y="-103.5" font-family="Helvetica,sans-Serif" font-size="10.00" fill="#000000">+ func</text>
<text text-anchor="start" x="2843" y="-92.5" font-family="Helvetica,sans-Serif" font-size="10.00" fill="#000000">+ args</text>
<text text-anchor="start" x="2843" y="-81.5" font-family="Helvetica,sans-Serif" font-size="10.00" fill="#000000">+ num_inputs</text>
<text text-anchor="start" x="2843" y="-70.5" font-family="Helvetica,sans-Serif" font-size="10.00" fill="#000000">+ attrs</text>
<text text-anchor="start" x="2843" y="-59.5" font-family="Helvetica,sans-Serif" font-size="10.00" fill="#000000">+ _type_key</text>
<polyline fill="none" stroke="#000000" points="2835,-52.5 3044,-52.5 "/>
<text text-anchor="start" x="2843" y="-40.5" font-family="Helvetica,sans-Serif" font-size="10.00" fill="#000000">+ VisitAttrs()</text>
<text text-anchor="start" x="2843" y="-29.5" font-family="Helvetica,sans-Serif" font-size="10.00" fill="#000000">+ SEqualReduce()</text>
<text text-anchor="start" x="2843" y="-18.5" font-family="Helvetica,sans-Serif" font-size="10.00" fill="#000000">+ SHashReduce()</text>
<text text-anchor="start" x="2843" y="-7.5" font-family="Helvetica,sans-Serif" font-size="10.00" fill="#000000">+ TVM_DECLARE_FINAL_OBJECT_INFO()</text>
</a>
</g>
</g>
<!-- Node16&#45;&gt;Node17 -->
<g id="edge17" class="edge">
<title>Node16&#45;&gt;Node17</title>
<path fill="none" stroke="#191970" d="M2939.5,-194.2829C2939.5,-176.078 2939.5,-154.5877 2939.5,-134.523"/>
<polygon fill="none" stroke="#191970" points="2936.0001,-194.3065 2939.5,-204.3066 2943.0001,-194.3066 2936.0001,-194.3065"/>
</g>
</g>
</svg>
