<?xml version="1.0" encoding="UTF-8" standalone="no"?>
<!DOCTYPE svg PUBLIC "-//W3C//DTD SVG 1.1//EN"
 "http://www.w3.org/Graphics/SVG/1.1/DTD/svg11.dtd">
<!-- Generated by graphviz version 2.40.1 (20161225.0304)
 -->
<!-- Title: tvm::relax::StructInfoMutator Pages: 1 -->
<svg width="192pt" height="248pt"
 viewBox="0.00 0.00 192.00 248.00" xmlns="http://www.w3.org/2000/svg" xmlns:xlink="http://www.w3.org/1999/xlink">
<g id="graph0" class="graph" transform="scale(1 1) rotate(0) translate(4 244)">
<title>tvm::relax::StructInfoMutator</title>
<polygon fill="#ffffff" stroke="transparent" points="-4,4 -4,-244 188,-244 188,4 -4,4"/>
<!-- Node2 -->
<g id="node1" class="node">
<title>Node2</title>
<polygon fill="#bfbfbf" stroke="#000000" points="13,-.5 13,-134.5 171,-134.5 171,-.5 13,-.5"/>
<text text-anchor="middle" x="92" y="-122.5" font-family="Helvetica,sans-Serif" font-size="10.00" fill="#000000">tvm::relax::StructInfoMutator</text>
<polyline fill="none" stroke="#000000" points="13,-115.5 171,-115.5 "/>
<text text-anchor="middle" x="92" y="-103.5" font-family="Helvetica,sans-Serif" font-size="10.00" fill="#000000"> </text>
<polyline fill="none" stroke="#000000" points="13,-96.5 171,-96.5 "/>
<text text-anchor="start" x="21" y="-84.5" font-family="Helvetica,sans-Serif" font-size="10.00" fill="#000000">+ VisitStructInfo_()</text>
<text text-anchor="start" x="21" y="-73.5" font-family="Helvetica,sans-Serif" font-size="10.00" fill="#000000">+ VisitStructInfo_()</text>
<text text-anchor="start" x="21" y="-62.5" font-family="Helvetica,sans-Serif" font-size="10.00" fill="#000000">+ VisitStructInfo_()</text>
<text text-anchor="start" x="21" y="-51.5" font-family="Helvetica,sans-Serif" font-size="10.00" fill="#000000">+ VisitStructInfo_()</text>
<text text-anchor="start" x="21" y="-40.5" font-family="Helvetica,sans-Serif" font-size="10.00" fill="#000000">+ VisitStructInfo_()</text>
<text text-anchor="start" x="21" y="-29.5" font-family="Helvetica,sans-Serif" font-size="10.00" fill="#000000">+ VisitStructInfo_()</text>
<text text-anchor="start" x="21" y="-18.5" font-family="Helvetica,sans-Serif" font-size="10.00" fill="#000000"># VisitStructInfoExprField()</text>
<text text-anchor="start" x="21" y="-7.5" font-family="Helvetica,sans-Serif" font-size="10.00" fill="#000000"># VisitStructInfoExprField()</text>
</g>
<!-- Node3 -->
<g id="node2" class="node">
<title>Node3</title>
<g id="a_node2"><a xlink:href="classtvm_1_1relax_1_1StructInfoFunctor.html" target="_top" xlink:title="{tvm::relax::StructInfoFunctor\l\&lt; StructInfo(const StructInfo &amp;n)\&gt;\n||}">
<polygon fill="#ffffff" stroke="#000000" points="0,-171.5 0,-239.5 184,-239.5 184,-171.5 0,-171.5"/>
<text text-anchor="start" x="8" y="-227.5" font-family="Helvetica,sans-Serif" font-size="10.00" fill="#000000">tvm::relax::StructInfoFunctor</text>
<text text-anchor="middle" x="92" y="-216.5" font-family="Helvetica,sans-Serif" font-size="10.00" fill="#000000">&lt; StructInfo(const StructInfo &amp;n)&gt;</text>
<polyline fill="none" stroke="#000000" points="0,-209.5 184,-209.5 "/>
<text text-anchor="middle" x="92" y="-197.5" font-family="Helvetica,sans-Serif" font-size="10.00" fill="#000000"> </text>
<polyline fill="none" stroke="#000000" points="0,-190.5 184,-190.5 "/>
<text text-anchor="middle" x="92" y="-178.5" font-family="Helvetica,sans-Serif" font-size="10.00" fill="#000000"> </text>
</a>
</g>
</g>
<!-- Node3&#45;&gt;Node2 -->
<g id="edge1" class="edge">
<title>Node3&#45;&gt;Node2</title>
<path fill="none" stroke="#191970" d="M92,-161.3243C92,-152.8027 92,-143.6982 92,-134.6366"/>
<polygon fill="none" stroke="#191970" points="88.5001,-161.3876 92,-171.3876 95.5001,-161.3877 88.5001,-161.3876"/>
</g>
</g>
</svg>
