<?xml version="1.0" encoding="UTF-8" standalone="no"?>
<!DOCTYPE svg PUBLIC "-//W3C//DTD SVG 1.1//EN"
 "http://www.w3.org/Graphics/SVG/1.1/DTD/svg11.dtd">
<!-- Generated by graphviz version 2.40.1 (20161225.0304)
 -->
<!-- Title: tvm::relax::FunctionNode Pages: 1 -->
<svg width="1243pt" height="1917pt"
 viewBox="0.00 0.00 1242.50 1917.00" xmlns="http://www.w3.org/2000/svg" xmlns:xlink="http://www.w3.org/1999/xlink">
<g id="graph0" class="graph" transform="scale(1 1) rotate(0) translate(4 1913)">
<title>tvm::relax::FunctionNode</title>
<polygon fill="#ffffff" stroke="transparent" points="-4,4 -4,-1913 1238.5,-1913 1238.5,4 -4,4"/>
<!-- Node5 -->
<g id="node1" class="node">
<title>Node5</title>
<polygon fill="#bfbfbf" stroke="#000000" points="916.5,-.5 916.5,-134.5 1125.5,-134.5 1125.5,-.5 916.5,-.5"/>
<text text-anchor="middle" x="1021" y="-122.5" font-family="Helvetica,sans-Serif" font-size="10.00" fill="#000000">tvm::relax::FunctionNode</text>
<polyline fill="none" stroke="#000000" points="916.5,-115.5 1125.5,-115.5 "/>
<text text-anchor="start" x="924.5" y="-103.5" font-family="Helvetica,sans-Serif" font-size="10.00" fill="#000000">+ _type_key</text>
<text text-anchor="start" x="924.5" y="-92.5" font-family="Helvetica,sans-Serif" font-size="10.00" fill="#000000">+ _type_has_method_sequal</text>
<text text-anchor="start" x="924.5" y="-81.5" font-family="Helvetica,sans-Serif" font-size="10.00" fill="#000000">_reduce</text>
<text text-anchor="start" x="924.5" y="-70.5" font-family="Helvetica,sans-Serif" font-size="10.00" fill="#000000">+ _type_has_method_shash</text>
<text text-anchor="start" x="924.5" y="-59.5" font-family="Helvetica,sans-Serif" font-size="10.00" fill="#000000">_reduce</text>
<polyline fill="none" stroke="#000000" points="916.5,-52.5 1125.5,-52.5 "/>
<text text-anchor="start" x="924.5" y="-40.5" font-family="Helvetica,sans-Serif" font-size="10.00" fill="#000000">+ VisitAttrs()</text>
<text text-anchor="start" x="924.5" y="-29.5" font-family="Helvetica,sans-Serif" font-size="10.00" fill="#000000">+ SEqualReduce()</text>
<text text-anchor="start" x="924.5" y="-18.5" font-family="Helvetica,sans-Serif" font-size="10.00" fill="#000000">+ SHashReduce()</text>
<text text-anchor="start" x="924.5" y="-7.5" font-family="Helvetica,sans-Serif" font-size="10.00" fill="#000000">+ TVM_DECLARE_FINAL_OBJECT_INFO()</text>
</g>
<!-- Node6 -->
<g id="node2" class="node">
<title>Node6</title>
<g id="a_node2"><a xlink:href="classtvm_1_1BaseFuncNode.html" target="_top" xlink:title="Base node of all functions. ">
<polygon fill="#ffffff" stroke="#000000" points="486.5,-172.5 486.5,-284.5 693.5,-284.5 693.5,-172.5 486.5,-172.5"/>
<text text-anchor="middle" x="590" y="-272.5" font-family="Helvetica,sans-Serif" font-size="10.00" fill="#000000">tvm::BaseFuncNode</text>
<polyline fill="none" stroke="#000000" points="486.5,-265.5 693.5,-265.5 "/>
<text text-anchor="start" x="494.5" y="-253.5" font-family="Helvetica,sans-Serif" font-size="10.00" fill="#000000">+ _type_key</text>
<text text-anchor="start" x="494.5" y="-242.5" font-family="Helvetica,sans-Serif" font-size="10.00" fill="#000000">+ _type_child_slots</text>
<polyline fill="none" stroke="#000000" points="486.5,-235.5 693.5,-235.5 "/>
<text text-anchor="start" x="494.5" y="-223.5" font-family="Helvetica,sans-Serif" font-size="10.00" fill="#000000">+ GetAttr()</text>
<text text-anchor="start" x="494.5" y="-212.5" font-family="Helvetica,sans-Serif" font-size="10.00" fill="#000000">+ GetAttr()</text>
<text text-anchor="start" x="494.5" y="-201.5" font-family="Helvetica,sans-Serif" font-size="10.00" fill="#000000">+ HasNonzeroAttr()</text>
<text text-anchor="start" x="494.5" y="-190.5" font-family="Helvetica,sans-Serif" font-size="10.00" fill="#000000">+ GetLinkageType()</text>
<text text-anchor="start" x="494.5" y="-179.5" font-family="Helvetica,sans-Serif" font-size="10.00" fill="#000000">+ TVM_DECLARE_BASE_OBJECT_INFO()</text>
</a>
</g>
</g>
<!-- Node6&#45;&gt;Node5 -->
<g id="edge1" class="edge">
<title>Node6&#45;&gt;Node5</title>
<path fill="none" stroke="#191970" d="M703.1306,-186.2401C769.1919,-161.5629 851.972,-130.6404 916.4935,-106.5384"/>
<polygon fill="none" stroke="#191970" points="701.6523,-183.056 693.5094,-189.8341 704.1019,-189.6134 701.6523,-183.056"/>
</g>
<!-- Node7 -->
<g id="node3" class="node">
<title>Node7</title>
<g id="a_node3"><a xlink:href="classtvm_1_1RelayExprNode.html" target="_top" xlink:title="Base node of all non&#45;primitive expressions. ">
<polygon fill="#ffffff" stroke="#000000" points="486.5,-390.5 486.5,-491.5 693.5,-491.5 693.5,-390.5 486.5,-390.5"/>
<text text-anchor="middle" x="590" y="-479.5" font-family="Helvetica,sans-Serif" font-size="10.00" fill="#000000">tvm::RelayExprNode</text>
<polyline fill="none" stroke="#000000" points="486.5,-472.5 693.5,-472.5 "/>
<text text-anchor="start" x="494.5" y="-460.5" font-family="Helvetica,sans-Serif" font-size="10.00" fill="#000000">+ _type_key</text>
<text text-anchor="start" x="494.5" y="-449.5" font-family="Helvetica,sans-Serif" font-size="10.00" fill="#000000">+ _type_child_slots</text>
<polyline fill="none" stroke="#000000" points="486.5,-442.5 693.5,-442.5 "/>
<text text-anchor="start" x="494.5" y="-430.5" font-family="Helvetica,sans-Serif" font-size="10.00" fill="#000000">+ checked_type()</text>
<text text-anchor="start" x="494.5" y="-419.5" font-family="Helvetica,sans-Serif" font-size="10.00" fill="#000000">+ type_as()</text>
<text text-anchor="start" x="494.5" y="-408.5" font-family="Helvetica,sans-Serif" font-size="10.00" fill="#000000">+ virtual_device()</text>
<text text-anchor="start" x="494.5" y="-397.5" font-family="Helvetica,sans-Serif" font-size="10.00" fill="#000000">+ TVM_DECLARE_BASE_OBJECT_INFO()</text>
</a>
</g>
</g>
<!-- Node7&#45;&gt;Node6 -->
<g id="edge2" class="edge">
<title>Node7&#45;&gt;Node6</title>
<path fill="none" stroke="#191970" d="M590,-380.0226C590,-350.009 590,-314.0671 590,-284.7223"/>
<polygon fill="none" stroke="#191970" points="586.5001,-380.3709 590,-390.3709 593.5001,-380.371 586.5001,-380.3709"/>
</g>
<!-- Node8 -->
<g id="node4" class="node">
<title>Node8</title>
<g id="a_node4"><a xlink:href="classtvm_1_1BaseExprNode.html" target="_top" xlink:title="Base type of all the expressions. ">
<polygon fill="#ffffff" stroke="#000000" points="312.5,-707.5 312.5,-819.5 519.5,-819.5 519.5,-707.5 312.5,-707.5"/>
<text text-anchor="middle" x="416" y="-807.5" font-family="Helvetica,sans-Serif" font-size="10.00" fill="#000000">tvm::BaseExprNode</text>
<polyline fill="none" stroke="#000000" points="312.5,-800.5 519.5,-800.5 "/>
<text text-anchor="start" x="320.5" y="-788.5" font-family="Helvetica,sans-Serif" font-size="10.00" fill="#000000">+ _type_key</text>
<text text-anchor="start" x="320.5" y="-777.5" font-family="Helvetica,sans-Serif" font-size="10.00" fill="#000000">+ _type_has_method_sequal</text>
<text text-anchor="start" x="320.5" y="-766.5" font-family="Helvetica,sans-Serif" font-size="10.00" fill="#000000">_reduce</text>
<text text-anchor="start" x="320.5" y="-755.5" font-family="Helvetica,sans-Serif" font-size="10.00" fill="#000000">+ _type_has_method_shash</text>
<text text-anchor="start" x="320.5" y="-744.5" font-family="Helvetica,sans-Serif" font-size="10.00" fill="#000000">_reduce</text>
<text text-anchor="start" x="320.5" y="-733.5" font-family="Helvetica,sans-Serif" font-size="10.00" fill="#000000">+ _type_child_slots</text>
<polyline fill="none" stroke="#000000" points="312.5,-726.5 519.5,-726.5 "/>
<text text-anchor="start" x="320.5" y="-714.5" font-family="Helvetica,sans-Serif" font-size="10.00" fill="#000000">+ TVM_DECLARE_BASE_OBJECT_INFO()</text>
</a>
</g>
</g>
<!-- Node8&#45;&gt;Node7 -->
<g id="edge3" class="edge">
<title>Node8&#45;&gt;Node7</title>
<path fill="none" stroke="#191970" d="M441.3447,-697.7753C462.8363,-645.2097 496.1476,-570.5486 534,-510 537.8438,-503.8515 542.1638,-497.6349 546.6555,-491.5824"/>
<polygon fill="none" stroke="#191970" points="437.9867,-696.7426 437.4709,-707.3249 444.4733,-699.374 437.9867,-696.7426"/>
</g>
<!-- Node9 -->
<g id="node5" class="node">
<title>Node9</title>
<g id="a_node5"><a xlink:href="classtvm_1_1runtime_1_1Object.html" target="_top" xlink:title="base class of all object containers. ">
<polygon fill="#ffffff" stroke="#000000" points="172.5,-1035.5 172.5,-1422.5 355.5,-1422.5 355.5,-1035.5 172.5,-1035.5"/>
<text text-anchor="middle" x="264" y="-1410.5" font-family="Helvetica,sans-Serif" font-size="10.00" fill="#000000">tvm::runtime::Object</text>
<polyline fill="none" stroke="#000000" points="172.5,-1403.5 355.5,-1403.5 "/>
<text text-anchor="start" x="180.5" y="-1391.5" font-family="Helvetica,sans-Serif" font-size="10.00" fill="#000000">+ _type_key</text>
<text text-anchor="start" x="180.5" y="-1380.5" font-family="Helvetica,sans-Serif" font-size="10.00" fill="#000000">+ _type_final</text>
<text text-anchor="start" x="180.5" y="-1369.5" font-family="Helvetica,sans-Serif" font-size="10.00" fill="#000000">+ _type_child_slots</text>
<text text-anchor="start" x="180.5" y="-1358.5" font-family="Helvetica,sans-Serif" font-size="10.00" fill="#000000">+ _type_child_slots_can</text>
<text text-anchor="start" x="180.5" y="-1347.5" font-family="Helvetica,sans-Serif" font-size="10.00" fill="#000000">_overflow</text>
<text text-anchor="start" x="180.5" y="-1336.5" font-family="Helvetica,sans-Serif" font-size="10.00" fill="#000000">+ _type_has_method_visit</text>
<text text-anchor="start" x="180.5" y="-1325.5" font-family="Helvetica,sans-Serif" font-size="10.00" fill="#000000">_attrs</text>
<text text-anchor="start" x="180.5" y="-1314.5" font-family="Helvetica,sans-Serif" font-size="10.00" fill="#000000">+ _type_has_method_sequal</text>
<text text-anchor="start" x="180.5" y="-1303.5" font-family="Helvetica,sans-Serif" font-size="10.00" fill="#000000">_reduce</text>
<text text-anchor="start" x="180.5" y="-1292.5" font-family="Helvetica,sans-Serif" font-size="10.00" fill="#000000">+ _type_has_method_shash</text>
<text text-anchor="start" x="180.5" y="-1281.5" font-family="Helvetica,sans-Serif" font-size="10.00" fill="#000000">_reduce</text>
<text text-anchor="start" x="180.5" y="-1270.5" font-family="Helvetica,sans-Serif" font-size="10.00" fill="#000000">+ _type_index</text>
<text text-anchor="start" x="180.5" y="-1259.5" font-family="Helvetica,sans-Serif" font-size="10.00" fill="#000000"># type_index_</text>
<text text-anchor="start" x="180.5" y="-1248.5" font-family="Helvetica,sans-Serif" font-size="10.00" fill="#000000"># ref_counter_</text>
<polyline fill="none" stroke="#000000" points="172.5,-1241.5 355.5,-1241.5 "/>
<text text-anchor="start" x="180.5" y="-1229.5" font-family="Helvetica,sans-Serif" font-size="10.00" fill="#000000">+ type_index()</text>
<text text-anchor="start" x="180.5" y="-1218.5" font-family="Helvetica,sans-Serif" font-size="10.00" fill="#000000">+ GetTypeKey()</text>
<text text-anchor="start" x="180.5" y="-1207.5" font-family="Helvetica,sans-Serif" font-size="10.00" fill="#000000">+ GetTypeKeyHash()</text>
<text text-anchor="start" x="180.5" y="-1196.5" font-family="Helvetica,sans-Serif" font-size="10.00" fill="#000000">+ IsInstance()</text>
<text text-anchor="start" x="180.5" y="-1185.5" font-family="Helvetica,sans-Serif" font-size="10.00" fill="#000000">+ unique()</text>
<text text-anchor="start" x="180.5" y="-1174.5" font-family="Helvetica,sans-Serif" font-size="10.00" fill="#000000">+ Object()</text>
<text text-anchor="start" x="180.5" y="-1163.5" font-family="Helvetica,sans-Serif" font-size="10.00" fill="#000000">+ Object()</text>
<text text-anchor="start" x="180.5" y="-1152.5" font-family="Helvetica,sans-Serif" font-size="10.00" fill="#000000">+ Object()</text>
<text text-anchor="start" x="180.5" y="-1141.5" font-family="Helvetica,sans-Serif" font-size="10.00" fill="#000000">+ operator=()</text>
<text text-anchor="start" x="180.5" y="-1130.5" font-family="Helvetica,sans-Serif" font-size="10.00" fill="#000000">+ operator=()</text>
<text text-anchor="start" x="180.5" y="-1119.5" font-family="Helvetica,sans-Serif" font-size="10.00" fill="#000000">+ TypeIndex2Key()</text>
<text text-anchor="start" x="180.5" y="-1108.5" font-family="Helvetica,sans-Serif" font-size="10.00" fill="#000000">+ TypeIndex2KeyHash()</text>
<text text-anchor="start" x="180.5" y="-1097.5" font-family="Helvetica,sans-Serif" font-size="10.00" fill="#000000">+ TypeKey2Index()</text>
<text text-anchor="start" x="180.5" y="-1086.5" font-family="Helvetica,sans-Serif" font-size="10.00" fill="#000000">+ _GetOrAllocRuntimeTypeIndex()</text>
<text text-anchor="start" x="180.5" y="-1075.5" font-family="Helvetica,sans-Serif" font-size="10.00" fill="#000000">+ RuntimeTypeIndex()</text>
<text text-anchor="start" x="180.5" y="-1064.5" font-family="Helvetica,sans-Serif" font-size="10.00" fill="#000000"># IncRef()</text>
<text text-anchor="start" x="180.5" y="-1053.5" font-family="Helvetica,sans-Serif" font-size="10.00" fill="#000000"># DecRef()</text>
<text text-anchor="start" x="180.5" y="-1042.5" font-family="Helvetica,sans-Serif" font-size="10.00" fill="#000000"># GetOrAllocRuntimeTypeIndex()</text>
</a>
</g>
</g>
<!-- Node9&#45;&gt;Node8 -->
<g id="edge4" class="edge">
<title>Node9&#45;&gt;Node8</title>
<path fill="none" stroke="#191970" d="M330.3945,-1025.6667C354.958,-950.4411 380.8819,-871.0493 397.6796,-819.6061"/>
<polygon fill="none" stroke="#191970" points="327.0281,-1024.701 327.2511,-1035.2935 333.6823,-1026.8739 327.0281,-1024.701"/>
</g>
<!-- Node9&#45;&gt;Node9 -->
<g id="edge5" class="edge">
<title>Node9&#45;&gt;Node9</title>
<path fill="none" stroke="#404040" d="M355.8625,-1262.9248C366.5482,-1256.6637 373.5,-1245.3555 373.5,-1229 373.5,-1218.0112 370.3618,-1209.3007 365.0615,-1202.8687"/>
<polygon fill="none" stroke="#404040" points="365.0184,-1202.8322 357.8548,-1202.0056 355.8625,-1195.0752 363.0261,-1195.9017 365.0184,-1202.8322"/>
<text text-anchor="middle" x="399.5" y="-1226.5" font-family="Helvetica,sans-Serif" font-size="10.00" fill="#000000"> #deleter_</text>
</g>
<!-- Node10 -->
<g id="node6" class="node">
<title>Node10</title>
<g id="a_node6"><a xlink:href="classtvm_1_1Span.html" target="_top" xlink:title="{tvm::Span\n||+ Span()\l+ Merge()\l+ TVM_DEFINE_OBJECT_REF\l_METHODS()\l}">
<polygon fill="#ffffff" stroke="#000000" points="444,-1184 444,-1274 598,-1274 598,-1184 444,-1184"/>
<text text-anchor="middle" x="521" y="-1262" font-family="Helvetica,sans-Serif" font-size="10.00" fill="#000000">tvm::Span</text>
<polyline fill="none" stroke="#000000" points="444,-1255 598,-1255 "/>
<text text-anchor="middle" x="521" y="-1243" font-family="Helvetica,sans-Serif" font-size="10.00" fill="#000000"> </text>
<polyline fill="none" stroke="#000000" points="444,-1236 598,-1236 "/>
<text text-anchor="start" x="452" y="-1224" font-family="Helvetica,sans-Serif" font-size="10.00" fill="#000000">+ Span()</text>
<text text-anchor="start" x="452" y="-1213" font-family="Helvetica,sans-Serif" font-size="10.00" fill="#000000">+ Merge()</text>
<text text-anchor="start" x="452" y="-1202" font-family="Helvetica,sans-Serif" font-size="10.00" fill="#000000">+ TVM_DEFINE_OBJECT_REF</text>
<text text-anchor="start" x="452" y="-1191" font-family="Helvetica,sans-Serif" font-size="10.00" fill="#000000">_METHODS()</text>
</a>
</g>
</g>
<!-- Node10&#45;&gt;Node8 -->
<g id="edge6" class="edge">
<title>Node10&#45;&gt;Node8</title>
<path fill="none" stroke="#404040" d="M510.8368,-1183.9429C492.353,-1101.9983 453.1379,-928.1447 431.3697,-831.639"/>
<polygon fill="none" stroke="#404040" points="431.3159,-831.4 426.0936,-826.4272 428.6754,-819.6941 433.8976,-824.6668 431.3159,-831.4"/>
<text text-anchor="middle" x="489.5" y="-925" font-family="Helvetica,sans-Serif" font-size="10.00" fill="#000000"> +span</text>
</g>
<!-- Node11 -->
<g id="node7" class="node">
<title>Node11</title>
<g id="a_node7"><a xlink:href="classtvm_1_1runtime_1_1ObjectRef.html" target="_top" xlink:title="Base class of all object reference. ">
<polygon fill="#ffffff" stroke="#000000" points="770,-1460.5 770,-1682.5 904,-1682.5 904,-1460.5 770,-1460.5"/>
<text text-anchor="middle" x="837" y="-1670.5" font-family="Helvetica,sans-Serif" font-size="10.00" fill="#000000">tvm::runtime::ObjectRef</text>
<polyline fill="none" stroke="#000000" points="770,-1663.5 904,-1663.5 "/>
<text text-anchor="start" x="778" y="-1651.5" font-family="Helvetica,sans-Serif" font-size="10.00" fill="#000000">+ _type_is_nullable</text>
<polyline fill="none" stroke="#000000" points="770,-1644.5 904,-1644.5 "/>
<text text-anchor="start" x="778" y="-1632.5" font-family="Helvetica,sans-Serif" font-size="10.00" fill="#000000">+ ObjectRef()</text>
<text text-anchor="start" x="778" y="-1621.5" font-family="Helvetica,sans-Serif" font-size="10.00" fill="#000000">+ ObjectRef()</text>
<text text-anchor="start" x="778" y="-1610.5" font-family="Helvetica,sans-Serif" font-size="10.00" fill="#000000">+ same_as()</text>
<text text-anchor="start" x="778" y="-1599.5" font-family="Helvetica,sans-Serif" font-size="10.00" fill="#000000">+ operator==()</text>
<text text-anchor="start" x="778" y="-1588.5" font-family="Helvetica,sans-Serif" font-size="10.00" fill="#000000">+ operator!=()</text>
<text text-anchor="start" x="778" y="-1577.5" font-family="Helvetica,sans-Serif" font-size="10.00" fill="#000000">+ operator&lt;()</text>
<text text-anchor="start" x="778" y="-1566.5" font-family="Helvetica,sans-Serif" font-size="10.00" fill="#000000">+ defined()</text>
<text text-anchor="start" x="778" y="-1555.5" font-family="Helvetica,sans-Serif" font-size="10.00" fill="#000000">+ get()</text>
<text text-anchor="start" x="778" y="-1544.5" font-family="Helvetica,sans-Serif" font-size="10.00" fill="#000000">+ operator&#45;&gt;()</text>
<text text-anchor="start" x="778" y="-1533.5" font-family="Helvetica,sans-Serif" font-size="10.00" fill="#000000">+ unique()</text>
<text text-anchor="start" x="778" y="-1522.5" font-family="Helvetica,sans-Serif" font-size="10.00" fill="#000000">+ use_count()</text>
<text text-anchor="start" x="778" y="-1511.5" font-family="Helvetica,sans-Serif" font-size="10.00" fill="#000000">+ as()</text>
<text text-anchor="start" x="778" y="-1500.5" font-family="Helvetica,sans-Serif" font-size="10.00" fill="#000000"># get_mutable()</text>
<text text-anchor="start" x="778" y="-1489.5" font-family="Helvetica,sans-Serif" font-size="10.00" fill="#000000"># DowncastNoCheck()</text>
<text text-anchor="start" x="778" y="-1478.5" font-family="Helvetica,sans-Serif" font-size="10.00" fill="#000000"># FFIClearAfterMove()</text>
<text text-anchor="start" x="778" y="-1467.5" font-family="Helvetica,sans-Serif" font-size="10.00" fill="#000000"># GetDataPtr()</text>
</a>
</g>
</g>
<!-- Node11&#45;&gt;Node7 -->
<g id="edge9" class="edge">
<title>Node11&#45;&gt;Node7</title>
<path fill="none" stroke="#404040" d="M769.8031,-1484.658C756.4659,-1465.0469 743.3918,-1443.8448 733,-1423 652.1061,-1260.737 737.4729,-1160.8964 607,-1035 586.0445,-1014.7795 561.5362,-1040.2483 544,-1017 513.6531,-976.7682 559.2845,-644.8334 580.3187,-503.8994"/>
<polygon fill="none" stroke="#404040" points="580.3724,-503.5411 577.3071,-497.014 582.1533,-491.674 585.2185,-498.2012 580.3724,-503.5411"/>
<text text-anchor="middle" x="587" y="-925" font-family="Helvetica,sans-Serif" font-size="10.00" fill="#000000"> +virtual_device_</text>
</g>
<!-- Node11&#45;&gt;Node10 -->
<g id="edge7" class="edge">
<title>Node11&#45;&gt;Node10</title>
<path fill="none" stroke="#191970" d="M760.5462,-1542.436C712.5526,-1520.9044 652.3308,-1487.4171 612,-1442 568.7443,-1393.2892 543.793,-1320.9318 531.3014,-1274.3618"/>
<polygon fill="none" stroke="#191970" points="759.4096,-1545.7596 769.9724,-1546.5829 762.2285,-1539.3523 759.4096,-1545.7596"/>
</g>
<!-- Node13 -->
<g id="node9" class="node">
<title>Node13</title>
<g id="a_node9"><a xlink:href="classtvm_1_1Type.html" target="_top" xlink:title="Managed reference to TypeNode. ">
<polygon fill="#ffffff" stroke="#000000" points="639,-893.5 639,-961.5 793,-961.5 793,-893.5 639,-893.5"/>
<text text-anchor="middle" x="716" y="-949.5" font-family="Helvetica,sans-Serif" font-size="10.00" fill="#000000">tvm::Type</text>
<polyline fill="none" stroke="#000000" points="639,-942.5 793,-942.5 "/>
<text text-anchor="middle" x="716" y="-930.5" font-family="Helvetica,sans-Serif" font-size="10.00" fill="#000000"> </text>
<polyline fill="none" stroke="#000000" points="639,-923.5 793,-923.5 "/>
<text text-anchor="start" x="647" y="-911.5" font-family="Helvetica,sans-Serif" font-size="10.00" fill="#000000">+ TVM_DEFINE_OBJECT_REF</text>
<text text-anchor="start" x="647" y="-900.5" font-family="Helvetica,sans-Serif" font-size="10.00" fill="#000000">_METHODS()</text>
</a>
</g>
</g>
<!-- Node11&#45;&gt;Node13 -->
<g id="edge11" class="edge">
<title>Node11&#45;&gt;Node13</title>
<path fill="none" stroke="#191970" d="M814.2098,-1450.2037C785.9177,-1299.6238 739.3266,-1051.6513 722.399,-961.5576"/>
<polygon fill="none" stroke="#191970" points="810.844,-1451.2442 816.1305,-1460.4259 817.7237,-1449.9516 810.844,-1451.2442"/>
</g>
<!-- Node14 -->
<g id="node10" class="node">
<title>Node14</title>
<g id="a_node10"><a xlink:href="classtvm_1_1runtime_1_1Optional.html" target="_top" xlink:title="{tvm::runtime::Optional\l\&lt; tvm::runtime::ObjectRef \&gt;\n|+ _type_is_nullable\l|+ Optional()\l+ Optional()\l+ Optional()\l+ Optional()\l+ Optional()\l+ Optional()\l+ Optional()\l+ Optional()\l+ operator=()\l+ operator=()\land 15 more...\l}">
<polygon fill="#ffffff" stroke="#000000" points="798,-838.5 798,-1016.5 954,-1016.5 954,-838.5 798,-838.5"/>
<text text-anchor="start" x="806" y="-1004.5" font-family="Helvetica,sans-Serif" font-size="10.00" fill="#000000">tvm::runtime::Optional</text>
<text text-anchor="middle" x="876" y="-993.5" font-family="Helvetica,sans-Serif" font-size="10.00" fill="#000000">&lt; tvm::runtime::ObjectRef &gt;</text>
<polyline fill="none" stroke="#000000" points="798,-986.5 954,-986.5 "/>
<text text-anchor="start" x="806" y="-974.5" font-family="Helvetica,sans-Serif" font-size="10.00" fill="#000000">+ _type_is_nullable</text>
<polyline fill="none" stroke="#000000" points="798,-967.5 954,-967.5 "/>
<text text-anchor="start" x="806" y="-955.5" font-family="Helvetica,sans-Serif" font-size="10.00" fill="#000000">+ Optional()</text>
<text text-anchor="start" x="806" y="-944.5" font-family="Helvetica,sans-Serif" font-size="10.00" fill="#000000">+ Optional()</text>
<text text-anchor="start" x="806" y="-933.5" font-family="Helvetica,sans-Serif" font-size="10.00" fill="#000000">+ Optional()</text>
<text text-anchor="start" x="806" y="-922.5" font-family="Helvetica,sans-Serif" font-size="10.00" fill="#000000">+ Optional()</text>
<text text-anchor="start" x="806" y="-911.5" font-family="Helvetica,sans-Serif" font-size="10.00" fill="#000000">+ Optional()</text>
<text text-anchor="start" x="806" y="-900.5" font-family="Helvetica,sans-Serif" font-size="10.00" fill="#000000">+ Optional()</text>
<text text-anchor="start" x="806" y="-889.5" font-family="Helvetica,sans-Serif" font-size="10.00" fill="#000000">+ Optional()</text>
<text text-anchor="start" x="806" y="-878.5" font-family="Helvetica,sans-Serif" font-size="10.00" fill="#000000">+ Optional()</text>
<text text-anchor="start" x="806" y="-867.5" font-family="Helvetica,sans-Serif" font-size="10.00" fill="#000000">+ operator=()</text>
<text text-anchor="start" x="806" y="-856.5" font-family="Helvetica,sans-Serif" font-size="10.00" fill="#000000">+ operator=()</text>
<text text-anchor="start" x="806" y="-845.5" font-family="Helvetica,sans-Serif" font-size="10.00" fill="#000000">and 15 more...</text>
</a>
</g>
</g>
<!-- Node11&#45;&gt;Node14 -->
<g id="edge13" class="edge">
<title>Node11&#45;&gt;Node14</title>
<path fill="none" stroke="#191970" d="M844.3376,-1450.3363C851.9727,-1324.2581 863.749,-1129.7985 870.582,-1016.9668"/>
<polygon fill="none" stroke="#191970" points="840.8375,-1450.2326 843.7265,-1460.4259 847.8247,-1450.6558 840.8375,-1450.2326"/>
</g>
<!-- Node16 -->
<g id="node12" class="node">
<title>Node16</title>
<g id="a_node12"><a xlink:href="classtvm_1_1Attrs.html" target="_top" xlink:title="Managed reference to BaseAttrsNode. ">
<polygon fill="#ffffff" stroke="#000000" points="0,-1195 0,-1263 154,-1263 154,-1195 0,-1195"/>
<text text-anchor="middle" x="77" y="-1251" font-family="Helvetica,sans-Serif" font-size="10.00" fill="#000000">tvm::Attrs</text>
<polyline fill="none" stroke="#000000" points="0,-1244 154,-1244 "/>
<text text-anchor="middle" x="77" y="-1232" font-family="Helvetica,sans-Serif" font-size="10.00" fill="#000000"> </text>
<polyline fill="none" stroke="#000000" points="0,-1225 154,-1225 "/>
<text text-anchor="start" x="8" y="-1213" font-family="Helvetica,sans-Serif" font-size="10.00" fill="#000000">+ TVM_DEFINE_OBJECT_REF</text>
<text text-anchor="start" x="8" y="-1202" font-family="Helvetica,sans-Serif" font-size="10.00" fill="#000000">_METHODS()</text>
</a>
</g>
</g>
<!-- Node11&#45;&gt;Node16 -->
<g id="edge16" class="edge">
<title>Node11&#45;&gt;Node16</title>
<path fill="none" stroke="#191970" d="M759.9035,-1563.2864C603.1207,-1545.2108 254.2371,-1497.5672 163,-1423 113.2217,-1382.3167 91.3467,-1306.9572 82.4636,-1263.0977"/>
<polygon fill="none" stroke="#191970" points="759.6152,-1566.7762 769.9479,-1564.4342 760.41,-1559.8214 759.6152,-1566.7762"/>
</g>
<!-- Node18 -->
<g id="node14" class="node">
<title>Node18</title>
<g id="a_node14"><a xlink:href="classtvm_1_1BaseExpr.html" target="_top" xlink:title="Managed reference to BaseExprNode. ">
<polygon fill="#ffffff" stroke="#000000" points="887,-1195 887,-1263 1041,-1263 1041,-1195 887,-1195"/>
<text text-anchor="middle" x="964" y="-1251" font-family="Helvetica,sans-Serif" font-size="10.00" fill="#000000">tvm::BaseExpr</text>
<polyline fill="none" stroke="#000000" points="887,-1244 1041,-1244 "/>
<text text-anchor="middle" x="964" y="-1232" font-family="Helvetica,sans-Serif" font-size="10.00" fill="#000000"> </text>
<polyline fill="none" stroke="#000000" points="887,-1225 1041,-1225 "/>
<text text-anchor="start" x="895" y="-1213" font-family="Helvetica,sans-Serif" font-size="10.00" fill="#000000">+ TVM_DEFINE_OBJECT_REF</text>
<text text-anchor="start" x="895" y="-1202" font-family="Helvetica,sans-Serif" font-size="10.00" fill="#000000">_METHODS()</text>
</a>
</g>
</g>
<!-- Node11&#45;&gt;Node18 -->
<g id="edge19" class="edge">
<title>Node11&#45;&gt;Node18</title>
<path fill="none" stroke="#191970" d="M881.8318,-1450.5953C906.4374,-1384.2376 935.1476,-1306.8107 951.288,-1263.2823"/>
<polygon fill="none" stroke="#191970" points="878.4284,-1449.707 878.2333,-1460.3001 884.9917,-1452.1408 878.4284,-1449.707"/>
</g>
<!-- Node19 -->
<g id="node15" class="node">
<title>Node19</title>
<g id="a_node15"><a xlink:href="classtvm_1_1relax_1_1StructInfo.html" target="_top" xlink:title="Managed reference to StructInfoNode. ">
<polygon fill="#ffffff" stroke="#000000" points="997,-729.5 997,-797.5 1151,-797.5 1151,-729.5 997,-729.5"/>
<text text-anchor="middle" x="1074" y="-785.5" font-family="Helvetica,sans-Serif" font-size="10.00" fill="#000000">tvm::relax::StructInfo</text>
<polyline fill="none" stroke="#000000" points="997,-778.5 1151,-778.5 "/>
<text text-anchor="middle" x="1074" y="-766.5" font-family="Helvetica,sans-Serif" font-size="10.00" fill="#000000"> </text>
<polyline fill="none" stroke="#000000" points="997,-759.5 1151,-759.5 "/>
<text text-anchor="start" x="1005" y="-747.5" font-family="Helvetica,sans-Serif" font-size="10.00" fill="#000000">+ TVM_DEFINE_OBJECT_REF</text>
<text text-anchor="start" x="1005" y="-736.5" font-family="Helvetica,sans-Serif" font-size="10.00" fill="#000000">_METHODS()</text>
</a>
</g>
</g>
<!-- Node11&#45;&gt;Node19 -->
<g id="edge21" class="edge">
<title>Node11&#45;&gt;Node19</title>
<path fill="none" stroke="#191970" d="M913.45,-1540.0526C961.7797,-1515.7644 1020.5033,-1477.1002 1050,-1423 1165.7237,-1210.7503 1106.9882,-900.3585 1082.7632,-797.7947"/>
<polygon fill="none" stroke="#191970" points="911.6809,-1537.022 904.2458,-1544.5699 914.765,-1543.3061 911.6809,-1537.022"/>
</g>
<!-- Node20 -->
<g id="node16" class="node">
<title>Node20</title>
<g id="a_node16"><a xlink:href="classtvm_1_1runtime_1_1Array.html" target="_top" xlink:title="{tvm::runtime::Array\l\&lt; tvm::relax::Var \&gt;\n||+ Array()\l+ Array()\l+ Array()\l+ Array()\l+ Array()\l+ Array()\l+ Array()\l+ Array()\l+ operator=()\l+ operator=()\land 25 more...\l}">
<polygon fill="#ffffff" stroke="#000000" points="1121.5,-510.5 1121.5,-688.5 1234.5,-688.5 1234.5,-510.5 1121.5,-510.5"/>
<text text-anchor="start" x="1129.5" y="-676.5" font-family="Helvetica,sans-Serif" font-size="10.00" fill="#000000">tvm::runtime::Array</text>
<text text-anchor="middle" x="1178" y="-665.5" font-family="Helvetica,sans-Serif" font-size="10.00" fill="#000000">&lt; tvm::relax::Var &gt;</text>
<polyline fill="none" stroke="#000000" points="1121.5,-658.5 1234.5,-658.5 "/>
<text text-anchor="middle" x="1178" y="-646.5" font-family="Helvetica,sans-Serif" font-size="10.00" fill="#000000"> </text>
<polyline fill="none" stroke="#000000" points="1121.5,-639.5 1234.5,-639.5 "/>
<text text-anchor="start" x="1129.5" y="-627.5" font-family="Helvetica,sans-Serif" font-size="10.00" fill="#000000">+ Array()</text>
<text text-anchor="start" x="1129.5" y="-616.5" font-family="Helvetica,sans-Serif" font-size="10.00" fill="#000000">+ Array()</text>
<text text-anchor="start" x="1129.5" y="-605.5" font-family="Helvetica,sans-Serif" font-size="10.00" fill="#000000">+ Array()</text>
<text text-anchor="start" x="1129.5" y="-594.5" font-family="Helvetica,sans-Serif" font-size="10.00" fill="#000000">+ Array()</text>
<text text-anchor="start" x="1129.5" y="-583.5" font-family="Helvetica,sans-Serif" font-size="10.00" fill="#000000">+ Array()</text>
<text text-anchor="start" x="1129.5" y="-572.5" font-family="Helvetica,sans-Serif" font-size="10.00" fill="#000000">+ Array()</text>
<text text-anchor="start" x="1129.5" y="-561.5" font-family="Helvetica,sans-Serif" font-size="10.00" fill="#000000">+ Array()</text>
<text text-anchor="start" x="1129.5" y="-550.5" font-family="Helvetica,sans-Serif" font-size="10.00" fill="#000000">+ Array()</text>
<text text-anchor="start" x="1129.5" y="-539.5" font-family="Helvetica,sans-Serif" font-size="10.00" fill="#000000">+ operator=()</text>
<text text-anchor="start" x="1129.5" y="-528.5" font-family="Helvetica,sans-Serif" font-size="10.00" fill="#000000">+ operator=()</text>
<text text-anchor="start" x="1129.5" y="-517.5" font-family="Helvetica,sans-Serif" font-size="10.00" fill="#000000">and 25 more...</text>
</a>
</g>
</g>
<!-- Node11&#45;&gt;Node20 -->
<g id="edge23" class="edge">
<title>Node11&#45;&gt;Node20</title>
<path fill="none" stroke="#191970" d="M913.6876,-1549.3645C974.3369,-1527.5812 1055.621,-1487.9694 1098,-1423 1247.4982,-1193.8105 1218.8007,-849.7102 1194.3288,-688.6313"/>
<polygon fill="none" stroke="#191970" points="912.4209,-1546.0997 904.1401,-1552.7087 914.7349,-1552.7061 912.4209,-1546.0997"/>
</g>
<!-- Node12 -->
<g id="node8" class="node">
<title>Node12</title>
<g id="a_node8"><a xlink:href="classtvm_1_1runtime_1_1ObjectPtr.html" target="_top" xlink:title="{tvm::runtime::ObjectPtr\l\&lt; tvm::runtime::Object \&gt;\n||+ ObjectPtr()\l+ ObjectPtr()\l+ ObjectPtr()\l+ ObjectPtr()\l+ ObjectPtr()\l+ ObjectPtr()\l+ ~ObjectPtr()\l+ swap()\l+ get()\l+ operator&#45;\&gt;()\land 11 more...\l}">
<polygon fill="#ffffff" stroke="#000000" points="767,-1730.5 767,-1908.5 907,-1908.5 907,-1730.5 767,-1730.5"/>
<text text-anchor="start" x="775" y="-1896.5" font-family="Helvetica,sans-Serif" font-size="10.00" fill="#000000">tvm::runtime::ObjectPtr</text>
<text text-anchor="middle" x="837" y="-1885.5" font-family="Helvetica,sans-Serif" font-size="10.00" fill="#000000">&lt; tvm::runtime::Object &gt;</text>
<polyline fill="none" stroke="#000000" points="767,-1878.5 907,-1878.5 "/>
<text text-anchor="middle" x="837" y="-1866.5" font-family="Helvetica,sans-Serif" font-size="10.00" fill="#000000"> </text>
<polyline fill="none" stroke="#000000" points="767,-1859.5 907,-1859.5 "/>
<text text-anchor="start" x="775" y="-1847.5" font-family="Helvetica,sans-Serif" font-size="10.00" fill="#000000">+ ObjectPtr()</text>
<text text-anchor="start" x="775" y="-1836.5" font-family="Helvetica,sans-Serif" font-size="10.00" fill="#000000">+ ObjectPtr()</text>
<text text-anchor="start" x="775" y="-1825.5" font-family="Helvetica,sans-Serif" font-size="10.00" fill="#000000">+ ObjectPtr()</text>
<text text-anchor="start" x="775" y="-1814.5" font-family="Helvetica,sans-Serif" font-size="10.00" fill="#000000">+ ObjectPtr()</text>
<text text-anchor="start" x="775" y="-1803.5" font-family="Helvetica,sans-Serif" font-size="10.00" fill="#000000">+ ObjectPtr()</text>
<text text-anchor="start" x="775" y="-1792.5" font-family="Helvetica,sans-Serif" font-size="10.00" fill="#000000">+ ObjectPtr()</text>
<text text-anchor="start" x="775" y="-1781.5" font-family="Helvetica,sans-Serif" font-size="10.00" fill="#000000">+ ~ObjectPtr()</text>
<text text-anchor="start" x="775" y="-1770.5" font-family="Helvetica,sans-Serif" font-size="10.00" fill="#000000">+ swap()</text>
<text text-anchor="start" x="775" y="-1759.5" font-family="Helvetica,sans-Serif" font-size="10.00" fill="#000000">+ get()</text>
<text text-anchor="start" x="775" y="-1748.5" font-family="Helvetica,sans-Serif" font-size="10.00" fill="#000000">+ operator&#45;&gt;()</text>
<text text-anchor="start" x="775" y="-1737.5" font-family="Helvetica,sans-Serif" font-size="10.00" fill="#000000">and 11 more...</text>
</a>
</g>
</g>
<!-- Node12&#45;&gt;Node11 -->
<g id="edge8" class="edge">
<title>Node12&#45;&gt;Node11</title>
<path fill="none" stroke="#404040" d="M837,-1730.3167C837,-1718.8765 837,-1707.0062 837,-1695.1402"/>
<polygon fill="none" stroke="#404040" points="837.0001,-1694.7944 833,-1688.7944 837,-1682.7944 841,-1688.7943 837.0001,-1694.7944"/>
<text text-anchor="middle" x="856.5" y="-1704" font-family="Helvetica,sans-Serif" font-size="10.00" fill="#000000"> #data_</text>
</g>
<!-- Node13&#45;&gt;Node7 -->
<g id="edge10" class="edge">
<title>Node13&#45;&gt;Node7</title>
<path fill="none" stroke="#404040" d="M707.1399,-893.2903C686.1526,-812.2559 633.1543,-607.6235 606.2327,-503.6762"/>
<polygon fill="none" stroke="#404040" points="606.1698,-503.4333 600.7932,-498.6278 603.1611,-491.8166 608.5377,-496.622 606.1698,-503.4333"/>
<text text-anchor="middle" x="729.5" y="-761" font-family="Helvetica,sans-Serif" font-size="10.00" fill="#000000"> +checked_type_</text>
</g>
<!-- Node14&#45;&gt;Node7 -->
<g id="edge12" class="edge">
<title>Node14&#45;&gt;Node7</title>
<path fill="none" stroke="#404040" d="M839.5113,-838.451C821.8063,-797.6405 799.34,-749.0909 776,-707 725.0096,-615.0447 706.9381,-594.9675 645,-510 642.9696,-507.2147 640.8713,-504.386 638.7326,-501.543"/>
<polygon fill="none" stroke="#404040" points="638.6262,-501.4036 631.8063,-499.0608 631.3459,-491.8644 638.1658,-494.2072 638.6262,-501.4036"/>
<text text-anchor="middle" x="865.5" y="-761" font-family="Helvetica,sans-Serif" font-size="10.00" fill="#000000"> +struct_info_</text>
</g>
<!-- Node15 -->
<g id="node11" class="node">
<title>Node15</title>
<g id="a_node11"><a xlink:href="classtvm_1_1DictAttrs.html" target="_top" xlink:title="Managed reference to DictAttrsNode. ">
<polygon fill="#ffffff" stroke="#000000" points="244,-532.5 244,-666.5 398,-666.5 398,-532.5 244,-532.5"/>
<text text-anchor="middle" x="321" y="-654.5" font-family="Helvetica,sans-Serif" font-size="10.00" fill="#000000">tvm::DictAttrs</text>
<polyline fill="none" stroke="#000000" points="244,-647.5 398,-647.5 "/>
<text text-anchor="middle" x="321" y="-635.5" font-family="Helvetica,sans-Serif" font-size="10.00" fill="#000000"> </text>
<polyline fill="none" stroke="#000000" points="244,-628.5 398,-628.5 "/>
<text text-anchor="start" x="252" y="-616.5" font-family="Helvetica,sans-Serif" font-size="10.00" fill="#000000">+ DictAttrs()</text>
<text text-anchor="start" x="252" y="-605.5" font-family="Helvetica,sans-Serif" font-size="10.00" fill="#000000">+ GetAttr()</text>
<text text-anchor="start" x="252" y="-594.5" font-family="Helvetica,sans-Serif" font-size="10.00" fill="#000000">+ GetAttr()</text>
<text text-anchor="start" x="252" y="-583.5" font-family="Helvetica,sans-Serif" font-size="10.00" fill="#000000">+ HasNonzeroAttr()</text>
<text text-anchor="start" x="252" y="-572.5" font-family="Helvetica,sans-Serif" font-size="10.00" fill="#000000">+ TVM_DEFINE_OBJECT_REF</text>
<text text-anchor="start" x="252" y="-561.5" font-family="Helvetica,sans-Serif" font-size="10.00" fill="#000000">_METHODS()</text>
<text text-anchor="start" x="252" y="-550.5" font-family="Helvetica,sans-Serif" font-size="10.00" fill="#000000">+ TVM_DEFINE_OBJECT_REF</text>
<text text-anchor="start" x="252" y="-539.5" font-family="Helvetica,sans-Serif" font-size="10.00" fill="#000000">_COW_METHOD()</text>
</a>
</g>
</g>
<!-- Node15&#45;&gt;Node6 -->
<g id="edge14" class="edge">
<title>Node15&#45;&gt;Node6</title>
<path fill="none" stroke="#404040" d="M355.4974,-532.1443C378.2542,-489.9206 409.8902,-435.1371 443,-390 467.5855,-356.4837 498.0738,-322.0546 524.9,-293.6416"/>
<polygon fill="none" stroke="#404040" points="525.1966,-293.3298 526.4351,-286.2258 533.4689,-284.6368 532.2305,-291.7407 525.1966,-293.3298"/>
<text text-anchor="middle" x="460" y="-438.5" font-family="Helvetica,sans-Serif" font-size="10.00" fill="#000000"> +attrs</text>
</g>
<!-- Node16&#45;&gt;Node15 -->
<g id="edge15" class="edge">
<title>Node16&#45;&gt;Node15</title>
<path fill="none" stroke="#191970" d="M94.0261,-1185.0741C136.0237,-1076.7236 244.7845,-796.1297 294.9496,-666.7078"/>
<polygon fill="none" stroke="#191970" points="90.6425,-1184.1193 90.2918,-1194.7083 97.1694,-1186.6492 90.6425,-1184.1193"/>
</g>
<!-- Node17 -->
<g id="node13" class="node">
<title>Node17</title>
<g id="a_node13"><a xlink:href="classtvm_1_1RelayExpr.html" target="_top" xlink:title="Managed reference to RelayExprNode. ">
<polygon fill="#ffffff" stroke="#000000" points="892,-303.5 892,-371.5 1046,-371.5 1046,-303.5 892,-303.5"/>
<text text-anchor="middle" x="969" y="-359.5" font-family="Helvetica,sans-Serif" font-size="10.00" fill="#000000">tvm::RelayExpr</text>
<polyline fill="none" stroke="#000000" points="892,-352.5 1046,-352.5 "/>
<text text-anchor="middle" x="969" y="-340.5" font-family="Helvetica,sans-Serif" font-size="10.00" fill="#000000"> </text>
<polyline fill="none" stroke="#000000" points="892,-333.5 1046,-333.5 "/>
<text text-anchor="start" x="900" y="-321.5" font-family="Helvetica,sans-Serif" font-size="10.00" fill="#000000">+ TVM_DEFINE_OBJECT_REF</text>
<text text-anchor="start" x="900" y="-310.5" font-family="Helvetica,sans-Serif" font-size="10.00" fill="#000000">_METHODS()</text>
</a>
</g>
</g>
<!-- Node17&#45;&gt;Node5 -->
<g id="edge17" class="edge">
<title>Node17&#45;&gt;Node5</title>
<path fill="none" stroke="#404040" d="M975.5858,-303.3043C983.1287,-264.1395 995.7363,-198.677 1005.7563,-146.6499"/>
<polygon fill="none" stroke="#404040" points="1005.7776,-146.5388 1002.9846,-139.8906 1008.0471,-134.7553 1010.8402,-141.4036 1005.7776,-146.5388"/>
<text text-anchor="middle" x="1018" y="-226" font-family="Helvetica,sans-Serif" font-size="10.00" fill="#000000"> +body</text>
</g>
<!-- Node18&#45;&gt;Node17 -->
<g id="edge18" class="edge">
<title>Node18&#45;&gt;Node17</title>
<path fill="none" stroke="#191970" d="M964.2482,-1184.7426C965.1198,-1029.3399 968.0296,-510.5214 968.8074,-371.8355"/>
<polygon fill="none" stroke="#191970" points="960.7477,-1184.8506 964.1914,-1194.8701 967.7475,-1184.8899 960.7477,-1184.8506"/>
</g>
<!-- Node19&#45;&gt;Node5 -->
<g id="edge20" class="edge">
<title>Node19&#45;&gt;Node5</title>
<path fill="none" stroke="#404040" d="M1073.63,-729.3482C1072.3005,-638.3795 1066.3182,-382.7701 1040,-172 1038.9673,-163.7296 1037.707,-155.122 1036.3316,-146.5541"/>
<polygon fill="none" stroke="#404040" points="1036.2965,-146.3433 1031.3639,-141.0832 1034.3222,-134.5068 1039.2549,-139.767 1036.2965,-146.3433"/>
<text text-anchor="middle" x="1099" y="-335" font-family="Helvetica,sans-Serif" font-size="10.00" fill="#000000"> +ret_struct_info</text>
</g>
<!-- Node20&#45;&gt;Node5 -->
<g id="edge22" class="edge">
<title>Node20&#45;&gt;Node5</title>
<path fill="none" stroke="#404040" d="M1179.3488,-510.2239C1178.2447,-450.6386 1172.8821,-371.0355 1155,-303 1136.2987,-231.848 1122.7988,-216.1157 1085,-153 1083.4162,-150.3554 1081.7682,-147.6938 1080.071,-145.0283"/>
<polygon fill="none" stroke="#404040" points="1079.909,-144.782 1073.2694,-141.9684 1073.3128,-134.7575 1079.9524,-137.571 1079.909,-144.782"/>
<text text-anchor="middle" x="1192.5" y="-335" font-family="Helvetica,sans-Serif" font-size="10.00" fill="#000000"> +params</text>
</g>
</g>
</svg>
