<?xml version="1.0" encoding="UTF-8" standalone="no"?>
<!DOCTYPE svg PUBLIC "-//W3C//DTD SVG 1.1//EN"
 "http://www.w3.org/Graphics/SVG/1.1/DTD/svg11.dtd">
<!-- Generated by graphviz version 2.40.1 (20161225.0304)
 -->
<!-- Title: tvm::BaseFunc Pages: 1 -->
<svg width="678pt" height="706pt"
 viewBox="0.00 0.00 678.00 706.00" xmlns="http://www.w3.org/2000/svg" xmlns:xlink="http://www.w3.org/1999/xlink">
<g id="graph0" class="graph" transform="scale(1 1) rotate(0) translate(4 702)">
<title>tvm::BaseFunc</title>
<polygon fill="#ffffff" stroke="transparent" points="-4,4 -4,-702 674,-702 674,4 -4,4"/>
<!-- Node0 -->
<g id="node1" class="node">
<title>Node0</title>
<polygon fill="#bfbfbf" stroke="#000000" points="258,-149.5 258,-217.5 412,-217.5 412,-149.5 258,-149.5"/>
<text text-anchor="middle" x="335" y="-205.5" font-family="Helvetica,sans-Serif" font-size="10.00" fill="#000000">tvm::BaseFunc</text>
<polyline fill="none" stroke="#000000" points="258,-198.5 412,-198.5 "/>
<text text-anchor="middle" x="335" y="-186.5" font-family="Helvetica,sans-Serif" font-size="10.00" fill="#000000"> </text>
<polyline fill="none" stroke="#000000" points="258,-179.5 412,-179.5 "/>
<text text-anchor="start" x="266" y="-167.5" font-family="Helvetica,sans-Serif" font-size="10.00" fill="#000000">+ TVM_DEFINE_OBJECT_REF</text>
<text text-anchor="start" x="266" y="-156.5" font-family="Helvetica,sans-Serif" font-size="10.00" fill="#000000">_METHODS()</text>
</g>
<!-- Node4 -->
<g id="node5" class="node">
<title>Node4</title>
<g id="a_node5"><a xlink:href="classtvm_1_1relax_1_1ExternFunc.html" target="_top" xlink:title="{tvm::relax::ExternFunc\n||+ ExternFunc()\l+ TVM_DEFINE_OBJECT_REF\l_METHODS()\l+ TVM_DEFINE_OBJECT_REF\l_COW_METHOD()\l}">
<polygon fill="#ffffff" stroke="#000000" points="0,-6 0,-107 154,-107 154,-6 0,-6"/>
<text text-anchor="middle" x="77" y="-95" font-family="Helvetica,sans-Serif" font-size="10.00" fill="#000000">tvm::relax::ExternFunc</text>
<polyline fill="none" stroke="#000000" points="0,-88 154,-88 "/>
<text text-anchor="middle" x="77" y="-76" font-family="Helvetica,sans-Serif" font-size="10.00" fill="#000000"> </text>
<polyline fill="none" stroke="#000000" points="0,-69 154,-69 "/>
<text text-anchor="start" x="8" y="-57" font-family="Helvetica,sans-Serif" font-size="10.00" fill="#000000">+ ExternFunc()</text>
<text text-anchor="start" x="8" y="-46" font-family="Helvetica,sans-Serif" font-size="10.00" fill="#000000">+ TVM_DEFINE_OBJECT_REF</text>
<text text-anchor="start" x="8" y="-35" font-family="Helvetica,sans-Serif" font-size="10.00" fill="#000000">_METHODS()</text>
<text text-anchor="start" x="8" y="-24" font-family="Helvetica,sans-Serif" font-size="10.00" fill="#000000">+ TVM_DEFINE_OBJECT_REF</text>
<text text-anchor="start" x="8" y="-13" font-family="Helvetica,sans-Serif" font-size="10.00" fill="#000000">_COW_METHOD()</text>
</a>
</g>
</g>
<!-- Node0&#45;&gt;Node4 -->
<g id="edge4" class="edge">
<title>Node0&#45;&gt;Node4</title>
<path fill="none" stroke="#191970" d="M248.4709,-151.8084C220.6606,-140.6307 190.0597,-127.2645 163,-113 159.5233,-111.1673 156.009,-109.2323 152.4893,-107.2261"/>
<polygon fill="none" stroke="#191970" points="247.2006,-155.0698 257.7861,-155.5133 249.7876,-148.5653 247.2006,-155.0698"/>
</g>
<!-- Node5 -->
<g id="node6" class="node">
<title>Node5</title>
<g id="a_node6"><a xlink:href="classtvm_1_1relax_1_1Function.html" target="_top" xlink:title="{tvm::relax::Function\n||+ Function()\l+ TVM_DEFINE_OBJECT_REF\l_METHODS()\l+ TVM_DEFINE_OBJECT_REF\l_COW_METHOD()\l+ CreateEmpty()\l}">
<polygon fill="#ffffff" stroke="#000000" points="172,-.5 172,-112.5 326,-112.5 326,-.5 172,-.5"/>
<text text-anchor="middle" x="249" y="-100.5" font-family="Helvetica,sans-Serif" font-size="10.00" fill="#000000">tvm::relax::Function</text>
<polyline fill="none" stroke="#000000" points="172,-93.5 326,-93.5 "/>
<text text-anchor="middle" x="249" y="-81.5" font-family="Helvetica,sans-Serif" font-size="10.00" fill="#000000"> </text>
<polyline fill="none" stroke="#000000" points="172,-74.5 326,-74.5 "/>
<text text-anchor="start" x="180" y="-62.5" font-family="Helvetica,sans-Serif" font-size="10.00" fill="#000000">+ Function()</text>
<text text-anchor="start" x="180" y="-51.5" font-family="Helvetica,sans-Serif" font-size="10.00" fill="#000000">+ TVM_DEFINE_OBJECT_REF</text>
<text text-anchor="start" x="180" y="-40.5" font-family="Helvetica,sans-Serif" font-size="10.00" fill="#000000">_METHODS()</text>
<text text-anchor="start" x="180" y="-29.5" font-family="Helvetica,sans-Serif" font-size="10.00" fill="#000000">+ TVM_DEFINE_OBJECT_REF</text>
<text text-anchor="start" x="180" y="-18.5" font-family="Helvetica,sans-Serif" font-size="10.00" fill="#000000">_COW_METHOD()</text>
<text text-anchor="start" x="180" y="-7.5" font-family="Helvetica,sans-Serif" font-size="10.00" fill="#000000">+ CreateEmpty()</text>
</a>
</g>
</g>
<!-- Node0&#45;&gt;Node5 -->
<g id="edge5" class="edge">
<title>Node0&#45;&gt;Node5</title>
<path fill="none" stroke="#191970" d="M306.2145,-140.9912C300.0692,-131.9162 293.4875,-122.1966 287.0553,-112.698"/>
<polygon fill="none" stroke="#191970" points="303.4484,-143.1486 311.9536,-149.4663 309.2446,-139.2237 303.4484,-143.1486"/>
</g>
<!-- Node6 -->
<g id="node7" class="node">
<title>Node6</title>
<g id="a_node7"><a xlink:href="classtvm_1_1relay_1_1Function.html" target="_top" xlink:title="Managed reference to FunctionNode. ">
<polygon fill="#ffffff" stroke="#000000" points="344,-6 344,-107 498,-107 498,-6 344,-6"/>
<text text-anchor="middle" x="421" y="-95" font-family="Helvetica,sans-Serif" font-size="10.00" fill="#000000">tvm::relay::Function</text>
<polyline fill="none" stroke="#000000" points="344,-88 498,-88 "/>
<text text-anchor="middle" x="421" y="-76" font-family="Helvetica,sans-Serif" font-size="10.00" fill="#000000"> </text>
<polyline fill="none" stroke="#000000" points="344,-69 498,-69 "/>
<text text-anchor="start" x="352" y="-57" font-family="Helvetica,sans-Serif" font-size="10.00" fill="#000000">+ Function()</text>
<text text-anchor="start" x="352" y="-46" font-family="Helvetica,sans-Serif" font-size="10.00" fill="#000000">+ TVM_DEFINE_OBJECT_REF</text>
<text text-anchor="start" x="352" y="-35" font-family="Helvetica,sans-Serif" font-size="10.00" fill="#000000">_METHODS()</text>
<text text-anchor="start" x="352" y="-24" font-family="Helvetica,sans-Serif" font-size="10.00" fill="#000000">+ TVM_DEFINE_OBJECT_REF</text>
<text text-anchor="start" x="352" y="-13" font-family="Helvetica,sans-Serif" font-size="10.00" fill="#000000">_COW_METHOD()</text>
</a>
</g>
</g>
<!-- Node0&#45;&gt;Node6 -->
<g id="edge6" class="edge">
<title>Node0&#45;&gt;Node6</title>
<path fill="none" stroke="#191970" d="M363.7583,-141.0313C371.0696,-130.2344 379.0001,-118.5231 386.5624,-107.3555"/>
<polygon fill="none" stroke="#191970" points="360.7554,-139.2237 358.0464,-149.4663 366.5516,-143.1486 360.7554,-139.2237"/>
</g>
<!-- Node7 -->
<g id="node8" class="node">
<title>Node7</title>
<g id="a_node8"><a xlink:href="classtvm_1_1tir_1_1PrimFunc.html" target="_top" xlink:title="Managed reference to PrimFuncNode. ">
<polygon fill="#ffffff" stroke="#000000" points="516,-6 516,-107 670,-107 670,-6 516,-6"/>
<text text-anchor="middle" x="593" y="-95" font-family="Helvetica,sans-Serif" font-size="10.00" fill="#000000">tvm::tir::PrimFunc</text>
<polyline fill="none" stroke="#000000" points="516,-88 670,-88 "/>
<text text-anchor="middle" x="593" y="-76" font-family="Helvetica,sans-Serif" font-size="10.00" fill="#000000"> </text>
<polyline fill="none" stroke="#000000" points="516,-69 670,-69 "/>
<text text-anchor="start" x="524" y="-57" font-family="Helvetica,sans-Serif" font-size="10.00" fill="#000000">+ PrimFunc()</text>
<text text-anchor="start" x="524" y="-46" font-family="Helvetica,sans-Serif" font-size="10.00" fill="#000000">+ TVM_DEFINE_OBJECT_REF</text>
<text text-anchor="start" x="524" y="-35" font-family="Helvetica,sans-Serif" font-size="10.00" fill="#000000">_METHODS()</text>
<text text-anchor="start" x="524" y="-24" font-family="Helvetica,sans-Serif" font-size="10.00" fill="#000000">+ TVM_DEFINE_OBJECT_REF</text>
<text text-anchor="start" x="524" y="-13" font-family="Helvetica,sans-Serif" font-size="10.00" fill="#000000">_COW_METHOD()</text>
</a>
</g>
</g>
<!-- Node0&#45;&gt;Node7 -->
<g id="edge7" class="edge">
<title>Node0&#45;&gt;Node7</title>
<path fill="none" stroke="#191970" d="M421.5291,-151.8084C449.3394,-140.6307 479.9403,-127.2645 507,-113 510.4767,-111.1673 513.991,-109.2323 517.5107,-107.2261"/>
<polygon fill="none" stroke="#191970" points="420.2124,-148.5653 412.2139,-155.5133 422.7994,-155.0698 420.2124,-148.5653"/>
</g>
<!-- Node1 -->
<g id="node2" class="node">
<title>Node1</title>
<g id="a_node2"><a xlink:href="classtvm_1_1RelayExpr.html" target="_top" xlink:title="Managed reference to RelayExprNode. ">
<polygon fill="#ffffff" stroke="#000000" points="258,-254.5 258,-322.5 412,-322.5 412,-254.5 258,-254.5"/>
<text text-anchor="middle" x="335" y="-310.5" font-family="Helvetica,sans-Serif" font-size="10.00" fill="#000000">tvm::RelayExpr</text>
<polyline fill="none" stroke="#000000" points="258,-303.5 412,-303.5 "/>
<text text-anchor="middle" x="335" y="-291.5" font-family="Helvetica,sans-Serif" font-size="10.00" fill="#000000"> </text>
<polyline fill="none" stroke="#000000" points="258,-284.5 412,-284.5 "/>
<text text-anchor="start" x="266" y="-272.5" font-family="Helvetica,sans-Serif" font-size="10.00" fill="#000000">+ TVM_DEFINE_OBJECT_REF</text>
<text text-anchor="start" x="266" y="-261.5" font-family="Helvetica,sans-Serif" font-size="10.00" fill="#000000">_METHODS()</text>
</a>
</g>
</g>
<!-- Node1&#45;&gt;Node0 -->
<g id="edge1" class="edge">
<title>Node1&#45;&gt;Node0</title>
<path fill="none" stroke="#191970" d="M335,-244.2353C335,-235.3902 335,-226.2253 335,-217.7788"/>
<polygon fill="none" stroke="#191970" points="331.5001,-244.4095 335,-254.4095 338.5001,-244.4095 331.5001,-244.4095"/>
</g>
<!-- Node2 -->
<g id="node3" class="node">
<title>Node2</title>
<g id="a_node3"><a xlink:href="classtvm_1_1BaseExpr.html" target="_top" xlink:title="Managed reference to BaseExprNode. ">
<polygon fill="#ffffff" stroke="#000000" points="258,-359.5 258,-427.5 412,-427.5 412,-359.5 258,-359.5"/>
<text text-anchor="middle" x="335" y="-415.5" font-family="Helvetica,sans-Serif" font-size="10.00" fill="#000000">tvm::BaseExpr</text>
<polyline fill="none" stroke="#000000" points="258,-408.5 412,-408.5 "/>
<text text-anchor="middle" x="335" y="-396.5" font-family="Helvetica,sans-Serif" font-size="10.00" fill="#000000"> </text>
<polyline fill="none" stroke="#000000" points="258,-389.5 412,-389.5 "/>
<text text-anchor="start" x="266" y="-377.5" font-family="Helvetica,sans-Serif" font-size="10.00" fill="#000000">+ TVM_DEFINE_OBJECT_REF</text>
<text text-anchor="start" x="266" y="-366.5" font-family="Helvetica,sans-Serif" font-size="10.00" fill="#000000">_METHODS()</text>
</a>
</g>
</g>
<!-- Node2&#45;&gt;Node1 -->
<g id="edge2" class="edge">
<title>Node2&#45;&gt;Node1</title>
<path fill="none" stroke="#191970" d="M335,-349.2353C335,-340.3902 335,-331.2253 335,-322.7788"/>
<polygon fill="none" stroke="#191970" points="331.5001,-349.4095 335,-359.4095 338.5001,-349.4095 331.5001,-349.4095"/>
</g>
<!-- Node3 -->
<g id="node4" class="node">
<title>Node3</title>
<g id="a_node4"><a xlink:href="classtvm_1_1runtime_1_1ObjectRef.html" target="_top" xlink:title="Base class of all object reference. ">
<polygon fill="#ffffff" stroke="#000000" points="268,-464.5 268,-697.5 402,-697.5 402,-464.5 268,-464.5"/>
<text text-anchor="middle" x="335" y="-685.5" font-family="Helvetica,sans-Serif" font-size="10.00" fill="#000000">tvm::runtime::ObjectRef</text>
<polyline fill="none" stroke="#000000" points="268,-678.5 402,-678.5 "/>
<text text-anchor="start" x="276" y="-666.5" font-family="Helvetica,sans-Serif" font-size="10.00" fill="#000000">+ _type_is_nullable</text>
<text text-anchor="start" x="276" y="-655.5" font-family="Helvetica,sans-Serif" font-size="10.00" fill="#000000"># data_</text>
<polyline fill="none" stroke="#000000" points="268,-648.5 402,-648.5 "/>
<text text-anchor="start" x="276" y="-636.5" font-family="Helvetica,sans-Serif" font-size="10.00" fill="#000000">+ ObjectRef()</text>
<text text-anchor="start" x="276" y="-625.5" font-family="Helvetica,sans-Serif" font-size="10.00" fill="#000000">+ ObjectRef()</text>
<text text-anchor="start" x="276" y="-614.5" font-family="Helvetica,sans-Serif" font-size="10.00" fill="#000000">+ same_as()</text>
<text text-anchor="start" x="276" y="-603.5" font-family="Helvetica,sans-Serif" font-size="10.00" fill="#000000">+ operator==()</text>
<text text-anchor="start" x="276" y="-592.5" font-family="Helvetica,sans-Serif" font-size="10.00" fill="#000000">+ operator!=()</text>
<text text-anchor="start" x="276" y="-581.5" font-family="Helvetica,sans-Serif" font-size="10.00" fill="#000000">+ operator&lt;()</text>
<text text-anchor="start" x="276" y="-570.5" font-family="Helvetica,sans-Serif" font-size="10.00" fill="#000000">+ defined()</text>
<text text-anchor="start" x="276" y="-559.5" font-family="Helvetica,sans-Serif" font-size="10.00" fill="#000000">+ get()</text>
<text text-anchor="start" x="276" y="-548.5" font-family="Helvetica,sans-Serif" font-size="10.00" fill="#000000">+ operator&#45;&gt;()</text>
<text text-anchor="start" x="276" y="-537.5" font-family="Helvetica,sans-Serif" font-size="10.00" fill="#000000">+ unique()</text>
<text text-anchor="start" x="276" y="-526.5" font-family="Helvetica,sans-Serif" font-size="10.00" fill="#000000">+ use_count()</text>
<text text-anchor="start" x="276" y="-515.5" font-family="Helvetica,sans-Serif" font-size="10.00" fill="#000000">+ as()</text>
<text text-anchor="start" x="276" y="-504.5" font-family="Helvetica,sans-Serif" font-size="10.00" fill="#000000"># get_mutable()</text>
<text text-anchor="start" x="276" y="-493.5" font-family="Helvetica,sans-Serif" font-size="10.00" fill="#000000"># DowncastNoCheck()</text>
<text text-anchor="start" x="276" y="-482.5" font-family="Helvetica,sans-Serif" font-size="10.00" fill="#000000"># FFIClearAfterMove()</text>
<text text-anchor="start" x="276" y="-471.5" font-family="Helvetica,sans-Serif" font-size="10.00" fill="#000000"># GetDataPtr()</text>
</a>
</g>
</g>
<!-- Node3&#45;&gt;Node2 -->
<g id="edge3" class="edge">
<title>Node3&#45;&gt;Node2</title>
<path fill="none" stroke="#191970" d="M335,-454.2822C335,-444.749 335,-435.737 335,-427.7166"/>
<polygon fill="none" stroke="#191970" points="331.5001,-454.3857 335,-464.3857 338.5001,-454.3857 331.5001,-454.3857"/>
</g>
</g>
</svg>
