<?xml version="1.0" encoding="UTF-8" standalone="no"?>
<!DOCTYPE svg PUBLIC "-//W3C//DTD SVG 1.1//EN"
 "http://www.w3.org/Graphics/SVG/1.1/DTD/svg11.dtd">
<!-- Generated by graphviz version 2.40.1 (20161225.0304)
 -->
<!-- Title: tvm::Type Pages: 1 -->
<svg width="2950pt" height="590pt"
 viewBox="0.00 0.00 2950.00 590.00" xmlns="http://www.w3.org/2000/svg" xmlns:xlink="http://www.w3.org/1999/xlink">
<g id="graph0" class="graph" transform="scale(1 1) rotate(0) translate(4 586)">
<title>tvm::Type</title>
<polygon fill="#ffffff" stroke="transparent" points="-4,4 -4,-586 2946,-586 2946,4 -4,4"/>
<!-- Node0 -->
<g id="node1" class="node">
<title>Node0</title>
<polygon fill="#bfbfbf" stroke="#000000" points="1394,-243.5 1394,-311.5 1548,-311.5 1548,-243.5 1394,-243.5"/>
<text text-anchor="middle" x="1471" y="-299.5" font-family="Helvetica,sans-Serif" font-size="10.00" fill="#000000">tvm::Type</text>
<polyline fill="none" stroke="#000000" points="1394,-292.5 1548,-292.5 "/>
<text text-anchor="middle" x="1471" y="-280.5" font-family="Helvetica,sans-Serif" font-size="10.00" fill="#000000"> </text>
<polyline fill="none" stroke="#000000" points="1394,-273.5 1548,-273.5 "/>
<text text-anchor="start" x="1402" y="-261.5" font-family="Helvetica,sans-Serif" font-size="10.00" fill="#000000">+ TVM_DEFINE_OBJECT_REF</text>
<text text-anchor="start" x="1402" y="-250.5" font-family="Helvetica,sans-Serif" font-size="10.00" fill="#000000">_METHODS()</text>
</g>
<!-- Node2 -->
<g id="node3" class="node">
<title>Node2</title>
<g id="a_node3"><a xlink:href="classtvm_1_1BaseTensorType.html" target="_top" xlink:title="Managed reference to BaseTensorTypeNode. ">
<polygon fill="#ffffff" stroke="#000000" points="0,-127.5 0,-195.5 154,-195.5 154,-127.5 0,-127.5"/>
<text text-anchor="middle" x="77" y="-183.5" font-family="Helvetica,sans-Serif" font-size="10.00" fill="#000000">tvm::BaseTensorType</text>
<polyline fill="none" stroke="#000000" points="0,-176.5 154,-176.5 "/>
<text text-anchor="middle" x="77" y="-164.5" font-family="Helvetica,sans-Serif" font-size="10.00" fill="#000000"> </text>
<polyline fill="none" stroke="#000000" points="0,-157.5 154,-157.5 "/>
<text text-anchor="start" x="8" y="-145.5" font-family="Helvetica,sans-Serif" font-size="10.00" fill="#000000">+ TVM_DEFINE_OBJECT_REF</text>
<text text-anchor="start" x="8" y="-134.5" font-family="Helvetica,sans-Serif" font-size="10.00" fill="#000000">_METHODS()</text>
</a>
</g>
</g>
<!-- Node0&#45;&gt;Node2 -->
<g id="edge2" class="edge">
<title>Node0&#45;&gt;Node2</title>
<path fill="none" stroke="#191970" d="M1383.5608,-274.9673C1109.7072,-266.732 279.8437,-239.3676 163,-207 153.0702,-204.2493 142.9896,-200.2261 133.394,-195.6929"/>
<polygon fill="none" stroke="#191970" points="1383.746,-278.4743 1393.8464,-275.2755 1383.9557,-271.4775 1383.746,-278.4743"/>
</g>
<!-- Node3 -->
<g id="node4" class="node">
<title>Node3</title>
<g id="a_node4"><a xlink:href="classtvm_1_1FuncType.html" target="_top" xlink:title="Managed reference to FuncTypeNode. ">
<polygon fill="#ffffff" stroke="#000000" points="172,-122 172,-201 326,-201 326,-122 172,-122"/>
<text text-anchor="middle" x="249" y="-189" font-family="Helvetica,sans-Serif" font-size="10.00" fill="#000000">tvm::FuncType</text>
<polyline fill="none" stroke="#000000" points="172,-182 326,-182 "/>
<text text-anchor="middle" x="249" y="-170" font-family="Helvetica,sans-Serif" font-size="10.00" fill="#000000"> </text>
<polyline fill="none" stroke="#000000" points="172,-163 326,-163 "/>
<text text-anchor="start" x="180" y="-151" font-family="Helvetica,sans-Serif" font-size="10.00" fill="#000000">+ FuncType()</text>
<text text-anchor="start" x="180" y="-140" font-family="Helvetica,sans-Serif" font-size="10.00" fill="#000000">+ TVM_DEFINE_OBJECT_REF</text>
<text text-anchor="start" x="180" y="-129" font-family="Helvetica,sans-Serif" font-size="10.00" fill="#000000">_METHODS()</text>
</a>
</g>
</g>
<!-- Node0&#45;&gt;Node3 -->
<g id="edge3" class="edge">
<title>Node0&#45;&gt;Node3</title>
<path fill="none" stroke="#191970" d="M1383.8705,-276.8308C1153.3909,-274.3076 531.9162,-262.4122 335,-207 329.309,-205.3986 323.5667,-203.3845 317.8933,-201.1007"/>
<polygon fill="none" stroke="#191970" points="1383.851,-280.3307 1393.8877,-276.9372 1383.9255,-273.3311 1383.851,-280.3307"/>
</g>
<!-- Node4 -->
<g id="node5" class="node">
<title>Node4</title>
<g id="a_node5"><a xlink:href="classtvm_1_1GlobalTypeVar.html" target="_top" xlink:title="Managed reference to GlobalTypeVarNode. ">
<polygon fill="#ffffff" stroke="#000000" points="344,-122 344,-201 498,-201 498,-122 344,-122"/>
<text text-anchor="middle" x="421" y="-189" font-family="Helvetica,sans-Serif" font-size="10.00" fill="#000000">tvm::GlobalTypeVar</text>
<polyline fill="none" stroke="#000000" points="344,-182 498,-182 "/>
<text text-anchor="middle" x="421" y="-170" font-family="Helvetica,sans-Serif" font-size="10.00" fill="#000000"> </text>
<polyline fill="none" stroke="#000000" points="344,-163 498,-163 "/>
<text text-anchor="start" x="352" y="-151" font-family="Helvetica,sans-Serif" font-size="10.00" fill="#000000">+ GlobalTypeVar()</text>
<text text-anchor="start" x="352" y="-140" font-family="Helvetica,sans-Serif" font-size="10.00" fill="#000000">+ TVM_DEFINE_OBJECT_REF</text>
<text text-anchor="start" x="352" y="-129" font-family="Helvetica,sans-Serif" font-size="10.00" fill="#000000">_METHODS()</text>
</a>
</g>
</g>
<!-- Node0&#45;&gt;Node4 -->
<g id="edge4" class="edge">
<title>Node0&#45;&gt;Node4</title>
<path fill="none" stroke="#191970" d="M1383.5563,-275.6949C1178.2185,-270.7182 670.2628,-253.9147 507,-207 501.3179,-205.3672 495.5821,-203.3304 489.9133,-201.0306"/>
<polygon fill="none" stroke="#191970" points="1383.6131,-279.1971 1393.6939,-275.9369 1383.7803,-272.1991 1383.6131,-279.1971"/>
</g>
<!-- Node5 -->
<g id="node6" class="node">
<title>Node5</title>
<g id="a_node6"><a xlink:href="classtvm_1_1IncompleteType.html" target="_top" xlink:title="Managed reference to IncompleteTypeNode. ">
<polygon fill="#ffffff" stroke="#000000" points="516,-122 516,-201 670,-201 670,-122 516,-122"/>
<text text-anchor="middle" x="593" y="-189" font-family="Helvetica,sans-Serif" font-size="10.00" fill="#000000">tvm::IncompleteType</text>
<polyline fill="none" stroke="#000000" points="516,-182 670,-182 "/>
<text text-anchor="middle" x="593" y="-170" font-family="Helvetica,sans-Serif" font-size="10.00" fill="#000000"> </text>
<polyline fill="none" stroke="#000000" points="516,-163 670,-163 "/>
<text text-anchor="start" x="524" y="-151" font-family="Helvetica,sans-Serif" font-size="10.00" fill="#000000">+ IncompleteType()</text>
<text text-anchor="start" x="524" y="-140" font-family="Helvetica,sans-Serif" font-size="10.00" fill="#000000">+ TVM_DEFINE_OBJECT_REF</text>
<text text-anchor="start" x="524" y="-129" font-family="Helvetica,sans-Serif" font-size="10.00" fill="#000000">_METHODS()</text>
</a>
</g>
</g>
<!-- Node0&#45;&gt;Node5 -->
<g id="edge5" class="edge">
<title>Node0&#45;&gt;Node5</title>
<path fill="none" stroke="#191970" d="M1383.7734,-274.0889C1206.3215,-266.439 809.0924,-245.4965 679,-207 673.493,-205.3704 667.9318,-203.371 662.4279,-201.1289"/>
<polygon fill="none" stroke="#191970" points="1383.7156,-277.5895 1393.8558,-274.5194 1384.0142,-270.5959 1383.7156,-277.5895"/>
</g>
<!-- Node6 -->
<g id="node7" class="node">
<title>Node6</title>
<g id="a_node7"><a xlink:href="classtvm_1_1PointerType.html" target="_top" xlink:title="{tvm::PointerType\n||+ PointerType()\l+ TVM_DEFINE_OBJECT_REF\l_METHODS()\l}">
<polygon fill="#ffffff" stroke="#000000" points="688,-122 688,-201 842,-201 842,-122 688,-122"/>
<text text-anchor="middle" x="765" y="-189" font-family="Helvetica,sans-Serif" font-size="10.00" fill="#000000">tvm::PointerType</text>
<polyline fill="none" stroke="#000000" points="688,-182 842,-182 "/>
<text text-anchor="middle" x="765" y="-170" font-family="Helvetica,sans-Serif" font-size="10.00" fill="#000000"> </text>
<polyline fill="none" stroke="#000000" points="688,-163 842,-163 "/>
<text text-anchor="start" x="696" y="-151" font-family="Helvetica,sans-Serif" font-size="10.00" fill="#000000">+ PointerType()</text>
<text text-anchor="start" x="696" y="-140" font-family="Helvetica,sans-Serif" font-size="10.00" fill="#000000">+ TVM_DEFINE_OBJECT_REF</text>
<text text-anchor="start" x="696" y="-129" font-family="Helvetica,sans-Serif" font-size="10.00" fill="#000000">_METHODS()</text>
</a>
</g>
</g>
<!-- Node0&#45;&gt;Node6 -->
<g id="edge6" class="edge">
<title>Node0&#45;&gt;Node6</title>
<path fill="none" stroke="#191970" d="M1383.5695,-271.5863C1237.0176,-261.0016 948.2805,-237.0847 851,-207 845.6747,-205.3531 840.2932,-203.3747 834.9586,-201.1777"/>
<polygon fill="none" stroke="#191970" points="1383.6461,-275.1007 1393.8709,-272.3252 1384.147,-268.1186 1383.6461,-275.1007"/>
</g>
<!-- Node7 -->
<g id="node8" class="node">
<title>Node7</title>
<g id="a_node8"><a xlink:href="classtvm_1_1PrimType.html" target="_top" xlink:title="{tvm::PrimType\n||+ PrimType()\l+ TVM_DEFINE_OBJECT_REF\l_METHODS()\l}">
<polygon fill="#ffffff" stroke="#000000" points="860,-122 860,-201 1014,-201 1014,-122 860,-122"/>
<text text-anchor="middle" x="937" y="-189" font-family="Helvetica,sans-Serif" font-size="10.00" fill="#000000">tvm::PrimType</text>
<polyline fill="none" stroke="#000000" points="860,-182 1014,-182 "/>
<text text-anchor="middle" x="937" y="-170" font-family="Helvetica,sans-Serif" font-size="10.00" fill="#000000"> </text>
<polyline fill="none" stroke="#000000" points="860,-163 1014,-163 "/>
<text text-anchor="start" x="868" y="-151" font-family="Helvetica,sans-Serif" font-size="10.00" fill="#000000">+ PrimType()</text>
<text text-anchor="start" x="868" y="-140" font-family="Helvetica,sans-Serif" font-size="10.00" fill="#000000">+ TVM_DEFINE_OBJECT_REF</text>
<text text-anchor="start" x="868" y="-129" font-family="Helvetica,sans-Serif" font-size="10.00" fill="#000000">_METHODS()</text>
</a>
</g>
</g>
<!-- Node0&#45;&gt;Node7 -->
<g id="edge7" class="edge">
<title>Node0&#45;&gt;Node7</title>
<path fill="none" stroke="#191970" d="M1383.8003,-272.3167C1292.0256,-264.907 1144.3284,-247.39 1023,-207 1017.8715,-205.2927 1012.6813,-203.3013 1007.5251,-201.1235"/>
<polygon fill="none" stroke="#191970" points="1383.6381,-275.8146 1393.8814,-273.1081 1384.186,-268.8361 1383.6381,-275.8146"/>
</g>
<!-- Node8 -->
<g id="node9" class="node">
<title>Node8</title>
<g id="a_node9"><a xlink:href="classtvm_1_1relax_1_1DynTensorType.html" target="_top" xlink:title="Managed reference to DynTensorTypeNode. ">
<polygon fill="#ffffff" stroke="#000000" points="1032,-116.5 1032,-206.5 1186,-206.5 1186,-116.5 1032,-116.5"/>
<text text-anchor="middle" x="1109" y="-194.5" font-family="Helvetica,sans-Serif" font-size="10.00" fill="#000000">tvm::relax::DynTensorType</text>
<polyline fill="none" stroke="#000000" points="1032,-187.5 1186,-187.5 "/>
<text text-anchor="middle" x="1109" y="-175.5" font-family="Helvetica,sans-Serif" font-size="10.00" fill="#000000"> </text>
<polyline fill="none" stroke="#000000" points="1032,-168.5 1186,-168.5 "/>
<text text-anchor="start" x="1040" y="-156.5" font-family="Helvetica,sans-Serif" font-size="10.00" fill="#000000">+ DynTensorType()</text>
<text text-anchor="start" x="1040" y="-145.5" font-family="Helvetica,sans-Serif" font-size="10.00" fill="#000000">+ TVM_DEFINE_OBJECT_REF</text>
<text text-anchor="start" x="1040" y="-134.5" font-family="Helvetica,sans-Serif" font-size="10.00" fill="#000000">_METHODS()</text>
<text text-anchor="start" x="1040" y="-123.5" font-family="Helvetica,sans-Serif" font-size="10.00" fill="#000000">+ CreateUnknownNDim()</text>
</a>
</g>
</g>
<!-- Node0&#45;&gt;Node8 -->
<g id="edge8" class="edge">
<title>Node0&#45;&gt;Node8</title>
<path fill="none" stroke="#191970" d="M1383.8386,-260.7735C1328.6886,-248.8453 1256.4595,-230.722 1195,-207 1192.1635,-205.9052 1189.3007,-204.7394 1186.4294,-203.518"/>
<polygon fill="none" stroke="#191970" points="1383.4206,-264.2631 1393.9311,-262.9286 1384.8825,-257.4174 1383.4206,-264.2631"/>
</g>
<!-- Node9 -->
<g id="node10" class="node">
<title>Node9</title>
<g id="a_node10"><a xlink:href="classtvm_1_1relax_1_1ObjectType.html" target="_top" xlink:title="{tvm::relax::ObjectType\n||+ ObjectType()\l+ TVM_DEFINE_NOTNULLABLE\l_OBJECT_REF_METHODS()\l}">
<polygon fill="#ffffff" stroke="#000000" points="1204,-122 1204,-201 1370,-201 1370,-122 1204,-122"/>
<text text-anchor="middle" x="1287" y="-189" font-family="Helvetica,sans-Serif" font-size="10.00" fill="#000000">tvm::relax::ObjectType</text>
<polyline fill="none" stroke="#000000" points="1204,-182 1370,-182 "/>
<text text-anchor="middle" x="1287" y="-170" font-family="Helvetica,sans-Serif" font-size="10.00" fill="#000000"> </text>
<polyline fill="none" stroke="#000000" points="1204,-163 1370,-163 "/>
<text text-anchor="start" x="1212" y="-151" font-family="Helvetica,sans-Serif" font-size="10.00" fill="#000000">+ ObjectType()</text>
<text text-anchor="start" x="1212" y="-140" font-family="Helvetica,sans-Serif" font-size="10.00" fill="#000000">+ TVM_DEFINE_NOTNULLABLE</text>
<text text-anchor="start" x="1212" y="-129" font-family="Helvetica,sans-Serif" font-size="10.00" fill="#000000">_OBJECT_REF_METHODS()</text>
</a>
</g>
</g>
<!-- Node0&#45;&gt;Node9 -->
<g id="edge9" class="edge">
<title>Node0&#45;&gt;Node9</title>
<path fill="none" stroke="#191970" d="M1408.2712,-237.9536C1389.4235,-226.0713 1368.7461,-213.0356 1349.8881,-201.1468"/>
<polygon fill="none" stroke="#191970" points="1406.4633,-240.9513 1416.7891,-243.3236 1410.1964,-235.0298 1406.4633,-240.9513"/>
</g>
<!-- Node10 -->
<g id="node11" class="node">
<title>Node10</title>
<g id="a_node11"><a xlink:href="classtvm_1_1relax_1_1PackedFuncType.html" target="_top" xlink:title="{tvm::relax::PackedFuncType\n||+ PackedFuncType()\l+ TVM_DEFINE_NOTNULLABLE\l_OBJECT_REF_METHODS()\l}">
<polygon fill="#ffffff" stroke="#000000" points="1388,-122 1388,-201 1554,-201 1554,-122 1388,-122"/>
<text text-anchor="middle" x="1471" y="-189" font-family="Helvetica,sans-Serif" font-size="10.00" fill="#000000">tvm::relax::PackedFuncType</text>
<polyline fill="none" stroke="#000000" points="1388,-182 1554,-182 "/>
<text text-anchor="middle" x="1471" y="-170" font-family="Helvetica,sans-Serif" font-size="10.00" fill="#000000"> </text>
<polyline fill="none" stroke="#000000" points="1388,-163 1554,-163 "/>
<text text-anchor="start" x="1396" y="-151" font-family="Helvetica,sans-Serif" font-size="10.00" fill="#000000">+ PackedFuncType()</text>
<text text-anchor="start" x="1396" y="-140" font-family="Helvetica,sans-Serif" font-size="10.00" fill="#000000">+ TVM_DEFINE_NOTNULLABLE</text>
<text text-anchor="start" x="1396" y="-129" font-family="Helvetica,sans-Serif" font-size="10.00" fill="#000000">_OBJECT_REF_METHODS()</text>
</a>
</g>
</g>
<!-- Node0&#45;&gt;Node10 -->
<g id="edge10" class="edge">
<title>Node0&#45;&gt;Node10</title>
<path fill="none" stroke="#191970" d="M1471,-233.0789C1471,-222.5691 1471,-211.429 1471,-201.1468"/>
<polygon fill="none" stroke="#191970" points="1467.5001,-233.3235 1471,-243.3236 1474.5001,-233.3236 1467.5001,-233.3235"/>
</g>
<!-- Node11 -->
<g id="node12" class="node">
<title>Node11</title>
<g id="a_node12"><a xlink:href="classtvm_1_1relax_1_1ShapeType.html" target="_top" xlink:title="{tvm::relax::ShapeType\n||+ ShapeType()\l+ TVM_DEFINE_NOTNULLABLE\l_OBJECT_REF_METHODS()\l}">
<polygon fill="#ffffff" stroke="#000000" points="1572,-122 1572,-201 1738,-201 1738,-122 1572,-122"/>
<text text-anchor="middle" x="1655" y="-189" font-family="Helvetica,sans-Serif" font-size="10.00" fill="#000000">tvm::relax::ShapeType</text>
<polyline fill="none" stroke="#000000" points="1572,-182 1738,-182 "/>
<text text-anchor="middle" x="1655" y="-170" font-family="Helvetica,sans-Serif" font-size="10.00" fill="#000000"> </text>
<polyline fill="none" stroke="#000000" points="1572,-163 1738,-163 "/>
<text text-anchor="start" x="1580" y="-151" font-family="Helvetica,sans-Serif" font-size="10.00" fill="#000000">+ ShapeType()</text>
<text text-anchor="start" x="1580" y="-140" font-family="Helvetica,sans-Serif" font-size="10.00" fill="#000000">+ TVM_DEFINE_NOTNULLABLE</text>
<text text-anchor="start" x="1580" y="-129" font-family="Helvetica,sans-Serif" font-size="10.00" fill="#000000">_OBJECT_REF_METHODS()</text>
</a>
</g>
</g>
<!-- Node0&#45;&gt;Node11 -->
<g id="edge11" class="edge">
<title>Node0&#45;&gt;Node11</title>
<path fill="none" stroke="#191970" d="M1533.7288,-237.9536C1552.5765,-226.0713 1573.2539,-213.0356 1592.1119,-201.1468"/>
<polygon fill="none" stroke="#191970" points="1531.8036,-235.0298 1525.2109,-243.3236 1535.5367,-240.9513 1531.8036,-235.0298"/>
</g>
<!-- Node12 -->
<g id="node13" class="node">
<title>Node12</title>
<g id="a_node13"><a xlink:href="classtvm_1_1RelayRefType.html" target="_top" xlink:title="Managed reference to RelayRefTypeNode. ">
<polygon fill="#ffffff" stroke="#000000" points="1756,-122 1756,-201 1910,-201 1910,-122 1756,-122"/>
<text text-anchor="middle" x="1833" y="-189" font-family="Helvetica,sans-Serif" font-size="10.00" fill="#000000">tvm::RelayRefType</text>
<polyline fill="none" stroke="#000000" points="1756,-182 1910,-182 "/>
<text text-anchor="middle" x="1833" y="-170" font-family="Helvetica,sans-Serif" font-size="10.00" fill="#000000"> </text>
<polyline fill="none" stroke="#000000" points="1756,-163 1910,-163 "/>
<text text-anchor="start" x="1764" y="-151" font-family="Helvetica,sans-Serif" font-size="10.00" fill="#000000">+ RelayRefType()</text>
<text text-anchor="start" x="1764" y="-140" font-family="Helvetica,sans-Serif" font-size="10.00" fill="#000000">+ TVM_DEFINE_OBJECT_REF</text>
<text text-anchor="start" x="1764" y="-129" font-family="Helvetica,sans-Serif" font-size="10.00" fill="#000000">_METHODS()</text>
</a>
</g>
</g>
<!-- Node0&#45;&gt;Node12 -->
<g id="edge12" class="edge">
<title>Node0&#45;&gt;Node12</title>
<path fill="none" stroke="#191970" d="M1558.1614,-260.7735C1613.3114,-248.8453 1685.5405,-230.722 1747,-207 1751.7275,-205.1753 1756.528,-203.1534 1761.3195,-201.0056"/>
<polygon fill="none" stroke="#191970" points="1557.1175,-257.4174 1548.0689,-262.9286 1558.5794,-264.2631 1557.1175,-257.4174"/>
</g>
<!-- Node13 -->
<g id="node14" class="node">
<title>Node13</title>
<g id="a_node14"><a xlink:href="classtvm_1_1TensorType.html" target="_top" xlink:title="Managed reference to TensorTypeNode. ">
<polygon fill="#ffffff" stroke="#000000" points="1928,-116.5 1928,-206.5 2082,-206.5 2082,-116.5 1928,-116.5"/>
<text text-anchor="middle" x="2005" y="-194.5" font-family="Helvetica,sans-Serif" font-size="10.00" fill="#000000">tvm::TensorType</text>
<polyline fill="none" stroke="#000000" points="1928,-187.5 2082,-187.5 "/>
<text text-anchor="middle" x="2005" y="-175.5" font-family="Helvetica,sans-Serif" font-size="10.00" fill="#000000"> </text>
<polyline fill="none" stroke="#000000" points="1928,-168.5 2082,-168.5 "/>
<text text-anchor="start" x="1936" y="-156.5" font-family="Helvetica,sans-Serif" font-size="10.00" fill="#000000">+ TensorType()</text>
<text text-anchor="start" x="1936" y="-145.5" font-family="Helvetica,sans-Serif" font-size="10.00" fill="#000000">+ TVM_DEFINE_OBJECT_REF</text>
<text text-anchor="start" x="1936" y="-134.5" font-family="Helvetica,sans-Serif" font-size="10.00" fill="#000000">_METHODS()</text>
<text text-anchor="start" x="1936" y="-123.5" font-family="Helvetica,sans-Serif" font-size="10.00" fill="#000000">+ Scalar()</text>
</a>
</g>
</g>
<!-- Node0&#45;&gt;Node13 -->
<g id="edge13" class="edge">
<title>Node0&#45;&gt;Node13</title>
<path fill="none" stroke="#191970" d="M1558.1997,-272.3167C1649.9744,-264.907 1797.6716,-247.39 1919,-207 1921.8848,-206.0397 1924.7891,-204.9894 1927.6959,-203.8667"/>
<polygon fill="none" stroke="#191970" points="1557.814,-268.8361 1548.1186,-273.1081 1558.3619,-275.8146 1557.814,-268.8361"/>
</g>
<!-- Node14 -->
<g id="node15" class="node">
<title>Node14</title>
<g id="a_node15"><a xlink:href="classtvm_1_1TupleType.html" target="_top" xlink:title="Managed reference to TupleTypeNode. ">
<polygon fill="#ffffff" stroke="#000000" points="2100,-116.5 2100,-206.5 2254,-206.5 2254,-116.5 2100,-116.5"/>
<text text-anchor="middle" x="2177" y="-194.5" font-family="Helvetica,sans-Serif" font-size="10.00" fill="#000000">tvm::TupleType</text>
<polyline fill="none" stroke="#000000" points="2100,-187.5 2254,-187.5 "/>
<text text-anchor="middle" x="2177" y="-175.5" font-family="Helvetica,sans-Serif" font-size="10.00" fill="#000000"> </text>
<polyline fill="none" stroke="#000000" points="2100,-168.5 2254,-168.5 "/>
<text text-anchor="start" x="2108" y="-156.5" font-family="Helvetica,sans-Serif" font-size="10.00" fill="#000000">+ TupleType()</text>
<text text-anchor="start" x="2108" y="-145.5" font-family="Helvetica,sans-Serif" font-size="10.00" fill="#000000">+ TVM_DEFINE_OBJECT_REF</text>
<text text-anchor="start" x="2108" y="-134.5" font-family="Helvetica,sans-Serif" font-size="10.00" fill="#000000">_METHODS()</text>
<text text-anchor="start" x="2108" y="-123.5" font-family="Helvetica,sans-Serif" font-size="10.00" fill="#000000">+ Empty()</text>
</a>
</g>
</g>
<!-- Node0&#45;&gt;Node14 -->
<g id="edge14" class="edge">
<title>Node0&#45;&gt;Node14</title>
<path fill="none" stroke="#191970" d="M1558.4305,-271.5863C1704.9824,-261.0016 1993.7195,-237.0847 2091,-207 2093.9047,-206.1017 2096.8261,-205.1048 2099.7475,-204.0275"/>
<polygon fill="none" stroke="#191970" points="1557.853,-268.1186 1548.1291,-272.3252 1558.3539,-275.1007 1557.853,-268.1186"/>
</g>
<!-- Node15 -->
<g id="node16" class="node">
<title>Node15</title>
<g id="a_node16"><a xlink:href="classtvm_1_1TypeCall.html" target="_top" xlink:title="Managed reference to TypeCallNode. ">
<polygon fill="#ffffff" stroke="#000000" points="2272,-122 2272,-201 2426,-201 2426,-122 2272,-122"/>
<text text-anchor="middle" x="2349" y="-189" font-family="Helvetica,sans-Serif" font-size="10.00" fill="#000000">tvm::TypeCall</text>
<polyline fill="none" stroke="#000000" points="2272,-182 2426,-182 "/>
<text text-anchor="middle" x="2349" y="-170" font-family="Helvetica,sans-Serif" font-size="10.00" fill="#000000"> </text>
<polyline fill="none" stroke="#000000" points="2272,-163 2426,-163 "/>
<text text-anchor="start" x="2280" y="-151" font-family="Helvetica,sans-Serif" font-size="10.00" fill="#000000">+ TypeCall()</text>
<text text-anchor="start" x="2280" y="-140" font-family="Helvetica,sans-Serif" font-size="10.00" fill="#000000">+ TVM_DEFINE_OBJECT_REF</text>
<text text-anchor="start" x="2280" y="-129" font-family="Helvetica,sans-Serif" font-size="10.00" fill="#000000">_METHODS()</text>
</a>
</g>
</g>
<!-- Node0&#45;&gt;Node15 -->
<g id="edge15" class="edge">
<title>Node0&#45;&gt;Node15</title>
<path fill="none" stroke="#191970" d="M1558.2266,-274.0889C1735.6785,-266.439 2132.9076,-245.4965 2263,-207 2268.507,-205.3704 2274.0682,-203.371 2279.5721,-201.1289"/>
<polygon fill="none" stroke="#191970" points="1557.9858,-270.5959 1548.1442,-274.5194 1558.2844,-277.5895 1557.9858,-270.5959"/>
</g>
<!-- Node16 -->
<g id="node17" class="node">
<title>Node16</title>
<g id="a_node17"><a xlink:href="classtvm_1_1TypeConstraint.html" target="_top" xlink:title="Managed reference to TypeConstraintNode. ">
<polygon fill="#ffffff" stroke="#000000" points="2444,-127.5 2444,-195.5 2598,-195.5 2598,-127.5 2444,-127.5"/>
<text text-anchor="middle" x="2521" y="-183.5" font-family="Helvetica,sans-Serif" font-size="10.00" fill="#000000">tvm::TypeConstraint</text>
<polyline fill="none" stroke="#000000" points="2444,-176.5 2598,-176.5 "/>
<text text-anchor="middle" x="2521" y="-164.5" font-family="Helvetica,sans-Serif" font-size="10.00" fill="#000000"> </text>
<polyline fill="none" stroke="#000000" points="2444,-157.5 2598,-157.5 "/>
<text text-anchor="start" x="2452" y="-145.5" font-family="Helvetica,sans-Serif" font-size="10.00" fill="#000000">+ TVM_DEFINE_OBJECT_REF</text>
<text text-anchor="start" x="2452" y="-134.5" font-family="Helvetica,sans-Serif" font-size="10.00" fill="#000000">_METHODS()</text>
</a>
</g>
</g>
<!-- Node0&#45;&gt;Node16 -->
<g id="edge16" class="edge">
<title>Node0&#45;&gt;Node16</title>
<path fill="none" stroke="#191970" d="M1558.4437,-275.6949C1763.7815,-270.7182 2271.7372,-253.9147 2435,-207 2444.903,-204.1543 2454.9695,-200.0814 2464.5594,-195.5276"/>
<polygon fill="none" stroke="#191970" points="1558.2197,-272.1991 1548.3061,-275.9369 1558.3869,-279.1971 1558.2197,-272.1991"/>
</g>
<!-- Node18 -->
<g id="node19" class="node">
<title>Node18</title>
<g id="a_node19"><a xlink:href="classtvm_1_1TypeData.html" target="_top" xlink:title="Stores all data for an Algebraic Data Type (ADT). ">
<polygon fill="#ffffff" stroke="#000000" points="2616,-122 2616,-201 2770,-201 2770,-122 2616,-122"/>
<text text-anchor="middle" x="2693" y="-189" font-family="Helvetica,sans-Serif" font-size="10.00" fill="#000000">tvm::TypeData</text>
<polyline fill="none" stroke="#000000" points="2616,-182 2770,-182 "/>
<text text-anchor="middle" x="2693" y="-170" font-family="Helvetica,sans-Serif" font-size="10.00" fill="#000000"> </text>
<polyline fill="none" stroke="#000000" points="2616,-163 2770,-163 "/>
<text text-anchor="start" x="2624" y="-151" font-family="Helvetica,sans-Serif" font-size="10.00" fill="#000000">+ TypeData()</text>
<text text-anchor="start" x="2624" y="-140" font-family="Helvetica,sans-Serif" font-size="10.00" fill="#000000">+ TVM_DEFINE_OBJECT_REF</text>
<text text-anchor="start" x="2624" y="-129" font-family="Helvetica,sans-Serif" font-size="10.00" fill="#000000">_METHODS()</text>
</a>
</g>
</g>
<!-- Node0&#45;&gt;Node18 -->
<g id="edge18" class="edge">
<title>Node0&#45;&gt;Node18</title>
<path fill="none" stroke="#191970" d="M1558.1295,-276.8308C1788.6091,-274.3076 2410.0838,-262.4122 2607,-207 2612.691,-205.3986 2618.4333,-203.3845 2624.1067,-201.1007"/>
<polygon fill="none" stroke="#191970" points="1558.0745,-273.3311 1548.1123,-276.9372 1558.149,-280.3307 1558.0745,-273.3311"/>
</g>
<!-- Node19 -->
<g id="node20" class="node">
<title>Node19</title>
<g id="a_node20"><a xlink:href="classtvm_1_1TypeVar.html" target="_top" xlink:title="Managed reference to TypeVarNode. ">
<polygon fill="#ffffff" stroke="#000000" points="2788,-122 2788,-201 2942,-201 2942,-122 2788,-122"/>
<text text-anchor="middle" x="2865" y="-189" font-family="Helvetica,sans-Serif" font-size="10.00" fill="#000000">tvm::TypeVar</text>
<polyline fill="none" stroke="#000000" points="2788,-182 2942,-182 "/>
<text text-anchor="middle" x="2865" y="-170" font-family="Helvetica,sans-Serif" font-size="10.00" fill="#000000"> </text>
<polyline fill="none" stroke="#000000" points="2788,-163 2942,-163 "/>
<text text-anchor="start" x="2796" y="-151" font-family="Helvetica,sans-Serif" font-size="10.00" fill="#000000">+ TypeVar()</text>
<text text-anchor="start" x="2796" y="-140" font-family="Helvetica,sans-Serif" font-size="10.00" fill="#000000">+ TVM_DEFINE_OBJECT_REF</text>
<text text-anchor="start" x="2796" y="-129" font-family="Helvetica,sans-Serif" font-size="10.00" fill="#000000">_METHODS()</text>
</a>
</g>
</g>
<!-- Node0&#45;&gt;Node19 -->
<g id="edge19" class="edge">
<title>Node0&#45;&gt;Node19</title>
<path fill="none" stroke="#191970" d="M1558.4392,-274.9673C1832.2928,-266.732 2662.1563,-239.3676 2779,-207 2784.6974,-205.4217 2790.4445,-203.4245 2796.1211,-201.1524"/>
<polygon fill="none" stroke="#191970" points="1558.0443,-271.4775 1548.1536,-275.2755 1558.254,-278.4743 1558.0443,-271.4775"/>
</g>
<!-- Node1 -->
<g id="node2" class="node">
<title>Node1</title>
<g id="a_node2"><a xlink:href="classtvm_1_1runtime_1_1ObjectRef.html" target="_top" xlink:title="Base class of all object reference. ">
<polygon fill="#ffffff" stroke="#000000" points="1404,-348.5 1404,-581.5 1538,-581.5 1538,-348.5 1404,-348.5"/>
<text text-anchor="middle" x="1471" y="-569.5" font-family="Helvetica,sans-Serif" font-size="10.00" fill="#000000">tvm::runtime::ObjectRef</text>
<polyline fill="none" stroke="#000000" points="1404,-562.5 1538,-562.5 "/>
<text text-anchor="start" x="1412" y="-550.5" font-family="Helvetica,sans-Serif" font-size="10.00" fill="#000000">+ _type_is_nullable</text>
<text text-anchor="start" x="1412" y="-539.5" font-family="Helvetica,sans-Serif" font-size="10.00" fill="#000000"># data_</text>
<polyline fill="none" stroke="#000000" points="1404,-532.5 1538,-532.5 "/>
<text text-anchor="start" x="1412" y="-520.5" font-family="Helvetica,sans-Serif" font-size="10.00" fill="#000000">+ ObjectRef()</text>
<text text-anchor="start" x="1412" y="-509.5" font-family="Helvetica,sans-Serif" font-size="10.00" fill="#000000">+ ObjectRef()</text>
<text text-anchor="start" x="1412" y="-498.5" font-family="Helvetica,sans-Serif" font-size="10.00" fill="#000000">+ same_as()</text>
<text text-anchor="start" x="1412" y="-487.5" font-family="Helvetica,sans-Serif" font-size="10.00" fill="#000000">+ operator==()</text>
<text text-anchor="start" x="1412" y="-476.5" font-family="Helvetica,sans-Serif" font-size="10.00" fill="#000000">+ operator!=()</text>
<text text-anchor="start" x="1412" y="-465.5" font-family="Helvetica,sans-Serif" font-size="10.00" fill="#000000">+ operator&lt;()</text>
<text text-anchor="start" x="1412" y="-454.5" font-family="Helvetica,sans-Serif" font-size="10.00" fill="#000000">+ defined()</text>
<text text-anchor="start" x="1412" y="-443.5" font-family="Helvetica,sans-Serif" font-size="10.00" fill="#000000">+ get()</text>
<text text-anchor="start" x="1412" y="-432.5" font-family="Helvetica,sans-Serif" font-size="10.00" fill="#000000">+ operator&#45;&gt;()</text>
<text text-anchor="start" x="1412" y="-421.5" font-family="Helvetica,sans-Serif" font-size="10.00" fill="#000000">+ unique()</text>
<text text-anchor="start" x="1412" y="-410.5" font-family="Helvetica,sans-Serif" font-size="10.00" fill="#000000">+ use_count()</text>
<text text-anchor="start" x="1412" y="-399.5" font-family="Helvetica,sans-Serif" font-size="10.00" fill="#000000">+ as()</text>
<text text-anchor="start" x="1412" y="-388.5" font-family="Helvetica,sans-Serif" font-size="10.00" fill="#000000"># get_mutable()</text>
<text text-anchor="start" x="1412" y="-377.5" font-family="Helvetica,sans-Serif" font-size="10.00" fill="#000000"># DowncastNoCheck()</text>
<text text-anchor="start" x="1412" y="-366.5" font-family="Helvetica,sans-Serif" font-size="10.00" fill="#000000"># FFIClearAfterMove()</text>
<text text-anchor="start" x="1412" y="-355.5" font-family="Helvetica,sans-Serif" font-size="10.00" fill="#000000"># GetDataPtr()</text>
</a>
</g>
</g>
<!-- Node1&#45;&gt;Node0 -->
<g id="edge1" class="edge">
<title>Node1&#45;&gt;Node0</title>
<path fill="none" stroke="#191970" d="M1471,-338.2822C1471,-328.749 1471,-319.737 1471,-311.7166"/>
<polygon fill="none" stroke="#191970" points="1467.5001,-338.3857 1471,-348.3857 1474.5001,-338.3857 1467.5001,-338.3857"/>
</g>
<!-- Node17 -->
<g id="node18" class="node">
<title>Node17</title>
<g id="a_node18"><a xlink:href="classtvm_1_1TypeRelation.html" target="_top" xlink:title="Managed reference to TypeRelationNode. ">
<polygon fill="#ffffff" stroke="#000000" points="2444,-.5 2444,-79.5 2598,-79.5 2598,-.5 2444,-.5"/>
<text text-anchor="middle" x="2521" y="-67.5" font-family="Helvetica,sans-Serif" font-size="10.00" fill="#000000">tvm::TypeRelation</text>
<polyline fill="none" stroke="#000000" points="2444,-60.5 2598,-60.5 "/>
<text text-anchor="middle" x="2521" y="-48.5" font-family="Helvetica,sans-Serif" font-size="10.00" fill="#000000"> </text>
<polyline fill="none" stroke="#000000" points="2444,-41.5 2598,-41.5 "/>
<text text-anchor="start" x="2452" y="-29.5" font-family="Helvetica,sans-Serif" font-size="10.00" fill="#000000">+ TypeRelation()</text>
<text text-anchor="start" x="2452" y="-18.5" font-family="Helvetica,sans-Serif" font-size="10.00" fill="#000000">+ TVM_DEFINE_OBJECT_REF</text>
<text text-anchor="start" x="2452" y="-7.5" font-family="Helvetica,sans-Serif" font-size="10.00" fill="#000000">_METHODS()</text>
</a>
</g>
</g>
<!-- Node16&#45;&gt;Node17 -->
<g id="edge17" class="edge">
<title>Node16&#45;&gt;Node17</title>
<path fill="none" stroke="#191970" d="M2521,-116.967C2521,-104.8385 2521,-91.7795 2521,-79.9243"/>
<polygon fill="none" stroke="#191970" points="2517.5001,-117.3321 2521,-127.3321 2524.5001,-117.3322 2517.5001,-117.3321"/>
</g>
</g>
</svg>
