<?xml version="1.0" encoding="UTF-8" standalone="no"?>
<!DOCTYPE svg PUBLIC "-//W3C//DTD SVG 1.1//EN"
 "http://www.w3.org/Graphics/SVG/1.1/DTD/svg11.dtd">
<!-- Generated by graphviz version 2.40.1 (20161225.0304)
 -->
<!-- Title: tvm::relax::LeafExpr Pages: 1 -->
<svg width="1022pt" height="855pt"
 viewBox="0.00 0.00 1022.00 855.00" xmlns="http://www.w3.org/2000/svg" xmlns:xlink="http://www.w3.org/1999/xlink">
<g id="graph0" class="graph" transform="scale(1 1) rotate(0) translate(4 851)">
<title>tvm::relax::LeafExpr</title>
<polygon fill="#ffffff" stroke="transparent" points="-4,4 -4,-851 1018,-851 1018,4 -4,4"/>
<!-- Node0 -->
<g id="node1" class="node">
<title>Node0</title>
<polygon fill="#bfbfbf" stroke="#000000" points="430,-298.5 430,-366.5 584,-366.5 584,-298.5 430,-298.5"/>
<text text-anchor="middle" x="507" y="-354.5" font-family="Helvetica,sans-Serif" font-size="10.00" fill="#000000">tvm::relax::LeafExpr</text>
<polyline fill="none" stroke="#000000" points="430,-347.5 584,-347.5 "/>
<text text-anchor="middle" x="507" y="-335.5" font-family="Helvetica,sans-Serif" font-size="10.00" fill="#000000"> </text>
<polyline fill="none" stroke="#000000" points="430,-328.5 584,-328.5 "/>
<text text-anchor="start" x="438" y="-316.5" font-family="Helvetica,sans-Serif" font-size="10.00" fill="#000000">+ TVM_DEFINE_OBJECT_REF</text>
<text text-anchor="start" x="438" y="-305.5" font-family="Helvetica,sans-Serif" font-size="10.00" fill="#000000">_METHODS()</text>
</g>
<!-- Node4 -->
<g id="node5" class="node">
<title>Node4</title>
<g id="a_node5"><a xlink:href="classtvm_1_1relax_1_1Constant.html" target="_top" xlink:title="{tvm::relax::Constant\n||+ Constant()\l+ TVM_DEFINE_OBJECT_REF\l_METHODS()\l+ TVM_DEFINE_OBJECT_REF\l_COW_METHOD()\l}">
<polygon fill="#ffffff" stroke="#000000" points="0,-155 0,-256 154,-256 154,-155 0,-155"/>
<text text-anchor="middle" x="77" y="-244" font-family="Helvetica,sans-Serif" font-size="10.00" fill="#000000">tvm::relax::Constant</text>
<polyline fill="none" stroke="#000000" points="0,-237 154,-237 "/>
<text text-anchor="middle" x="77" y="-225" font-family="Helvetica,sans-Serif" font-size="10.00" fill="#000000"> </text>
<polyline fill="none" stroke="#000000" points="0,-218 154,-218 "/>
<text text-anchor="start" x="8" y="-206" font-family="Helvetica,sans-Serif" font-size="10.00" fill="#000000">+ Constant()</text>
<text text-anchor="start" x="8" y="-195" font-family="Helvetica,sans-Serif" font-size="10.00" fill="#000000">+ TVM_DEFINE_OBJECT_REF</text>
<text text-anchor="start" x="8" y="-184" font-family="Helvetica,sans-Serif" font-size="10.00" fill="#000000">_METHODS()</text>
<text text-anchor="start" x="8" y="-173" font-family="Helvetica,sans-Serif" font-size="10.00" fill="#000000">+ TVM_DEFINE_OBJECT_REF</text>
<text text-anchor="start" x="8" y="-162" font-family="Helvetica,sans-Serif" font-size="10.00" fill="#000000">_COW_METHOD()</text>
</a>
</g>
</g>
<!-- Node0&#45;&gt;Node4 -->
<g id="edge4" class="edge">
<title>Node0&#45;&gt;Node4</title>
<path fill="none" stroke="#191970" d="M419.4711,-323.8308C348.2992,-314.6194 246.3769,-296.4386 163,-262 158.707,-260.2268 154.399,-258.231 150.1232,-256.0761"/>
<polygon fill="none" stroke="#191970" points="419.3836,-327.3474 429.7429,-325.1256 420.2592,-320.4023 419.3836,-327.3474"/>
</g>
<!-- Node5 -->
<g id="node6" class="node">
<title>Node5</title>
<g id="a_node6"><a xlink:href="classtvm_1_1relax_1_1DataTypeImm.html" target="_top" xlink:title="Managed reference to DataTypeImm. ">
<polygon fill="#ffffff" stroke="#000000" points="172,-155 172,-256 326,-256 326,-155 172,-155"/>
<text text-anchor="middle" x="249" y="-244" font-family="Helvetica,sans-Serif" font-size="10.00" fill="#000000">tvm::relax::DataTypeImm</text>
<polyline fill="none" stroke="#000000" points="172,-237 326,-237 "/>
<text text-anchor="middle" x="249" y="-225" font-family="Helvetica,sans-Serif" font-size="10.00" fill="#000000"> </text>
<polyline fill="none" stroke="#000000" points="172,-218 326,-218 "/>
<text text-anchor="start" x="180" y="-206" font-family="Helvetica,sans-Serif" font-size="10.00" fill="#000000">+ DataTypeImm()</text>
<text text-anchor="start" x="180" y="-195" font-family="Helvetica,sans-Serif" font-size="10.00" fill="#000000">+ TVM_DEFINE_OBJECT_REF</text>
<text text-anchor="start" x="180" y="-184" font-family="Helvetica,sans-Serif" font-size="10.00" fill="#000000">_METHODS()</text>
<text text-anchor="start" x="180" y="-173" font-family="Helvetica,sans-Serif" font-size="10.00" fill="#000000">+ TVM_DEFINE_OBJECT_REF</text>
<text text-anchor="start" x="180" y="-162" font-family="Helvetica,sans-Serif" font-size="10.00" fill="#000000">_COW_METHOD()</text>
</a>
</g>
</g>
<!-- Node0&#45;&gt;Node5 -->
<g id="edge5" class="edge">
<title>Node0&#45;&gt;Node5</title>
<path fill="none" stroke="#191970" d="M420.4709,-300.8084C392.6606,-289.6307 362.0597,-276.2645 335,-262 331.5233,-260.1673 328.009,-258.2323 324.4893,-256.2261"/>
<polygon fill="none" stroke="#191970" points="419.2006,-304.0698 429.7861,-304.5133 421.7876,-297.5653 419.2006,-304.0698"/>
</g>
<!-- Node6 -->
<g id="node7" class="node">
<title>Node6</title>
<g id="a_node7"><a xlink:href="classtvm_1_1relax_1_1PrimValue.html" target="_top" xlink:title="Managed reference to PrimValueNode. ">
<polygon fill="#ffffff" stroke="#000000" points="344,-149.5 344,-261.5 498,-261.5 498,-149.5 344,-149.5"/>
<text text-anchor="middle" x="421" y="-249.5" font-family="Helvetica,sans-Serif" font-size="10.00" fill="#000000">tvm::relax::PrimValue</text>
<polyline fill="none" stroke="#000000" points="344,-242.5 498,-242.5 "/>
<text text-anchor="middle" x="421" y="-230.5" font-family="Helvetica,sans-Serif" font-size="10.00" fill="#000000"> </text>
<polyline fill="none" stroke="#000000" points="344,-223.5 498,-223.5 "/>
<text text-anchor="start" x="352" y="-211.5" font-family="Helvetica,sans-Serif" font-size="10.00" fill="#000000">+ PrimValue()</text>
<text text-anchor="start" x="352" y="-200.5" font-family="Helvetica,sans-Serif" font-size="10.00" fill="#000000">+ TVM_DEFINE_OBJECT_REF</text>
<text text-anchor="start" x="352" y="-189.5" font-family="Helvetica,sans-Serif" font-size="10.00" fill="#000000">_METHODS()</text>
<text text-anchor="start" x="352" y="-178.5" font-family="Helvetica,sans-Serif" font-size="10.00" fill="#000000">+ TVM_DEFINE_OBJECT_REF</text>
<text text-anchor="start" x="352" y="-167.5" font-family="Helvetica,sans-Serif" font-size="10.00" fill="#000000">_COW_METHOD()</text>
<text text-anchor="start" x="352" y="-156.5" font-family="Helvetica,sans-Serif" font-size="10.00" fill="#000000">+ Int64()</text>
</a>
</g>
</g>
<!-- Node0&#45;&gt;Node6 -->
<g id="edge6" class="edge">
<title>Node0&#45;&gt;Node6</title>
<path fill="none" stroke="#191970" d="M478.2145,-289.9912C472.0692,-280.9162 465.4875,-271.1966 459.0553,-261.698"/>
<polygon fill="none" stroke="#191970" points="475.4484,-292.1486 483.9536,-298.4663 481.2446,-288.2237 475.4484,-292.1486"/>
</g>
<!-- Node7 -->
<g id="node8" class="node">
<title>Node7</title>
<g id="a_node8"><a xlink:href="classtvm_1_1relax_1_1ShapeExpr.html" target="_top" xlink:title="{tvm::relax::ShapeExpr\n||+ ShapeExpr()\l+ TVM_DEFINE_OBJECT_REF\l_METHODS()\l+ TVM_DEFINE_OBJECT_REF\l_COW_METHOD()\l}">
<polygon fill="#ffffff" stroke="#000000" points="516,-155 516,-256 670,-256 670,-155 516,-155"/>
<text text-anchor="middle" x="593" y="-244" font-family="Helvetica,sans-Serif" font-size="10.00" fill="#000000">tvm::relax::ShapeExpr</text>
<polyline fill="none" stroke="#000000" points="516,-237 670,-237 "/>
<text text-anchor="middle" x="593" y="-225" font-family="Helvetica,sans-Serif" font-size="10.00" fill="#000000"> </text>
<polyline fill="none" stroke="#000000" points="516,-218 670,-218 "/>
<text text-anchor="start" x="524" y="-206" font-family="Helvetica,sans-Serif" font-size="10.00" fill="#000000">+ ShapeExpr()</text>
<text text-anchor="start" x="524" y="-195" font-family="Helvetica,sans-Serif" font-size="10.00" fill="#000000">+ TVM_DEFINE_OBJECT_REF</text>
<text text-anchor="start" x="524" y="-184" font-family="Helvetica,sans-Serif" font-size="10.00" fill="#000000">_METHODS()</text>
<text text-anchor="start" x="524" y="-173" font-family="Helvetica,sans-Serif" font-size="10.00" fill="#000000">+ TVM_DEFINE_OBJECT_REF</text>
<text text-anchor="start" x="524" y="-162" font-family="Helvetica,sans-Serif" font-size="10.00" fill="#000000">_COW_METHOD()</text>
</a>
</g>
</g>
<!-- Node0&#45;&gt;Node7 -->
<g id="edge7" class="edge">
<title>Node0&#45;&gt;Node7</title>
<path fill="none" stroke="#191970" d="M535.7583,-290.0313C543.0696,-279.2344 551.0001,-267.5231 558.5624,-256.3555"/>
<polygon fill="none" stroke="#191970" points="532.7554,-288.2237 530.0464,-298.4663 538.5516,-292.1486 532.7554,-288.2237"/>
</g>
<!-- Node8 -->
<g id="node9" class="node">
<title>Node8</title>
<g id="a_node9"><a xlink:href="classtvm_1_1relax_1_1StringImm.html" target="_top" xlink:title="Managed reference to StringImm. ">
<polygon fill="#ffffff" stroke="#000000" points="688,-155 688,-256 842,-256 842,-155 688,-155"/>
<text text-anchor="middle" x="765" y="-244" font-family="Helvetica,sans-Serif" font-size="10.00" fill="#000000">tvm::relax::StringImm</text>
<polyline fill="none" stroke="#000000" points="688,-237 842,-237 "/>
<text text-anchor="middle" x="765" y="-225" font-family="Helvetica,sans-Serif" font-size="10.00" fill="#000000"> </text>
<polyline fill="none" stroke="#000000" points="688,-218 842,-218 "/>
<text text-anchor="start" x="696" y="-206" font-family="Helvetica,sans-Serif" font-size="10.00" fill="#000000">+ StringImm()</text>
<text text-anchor="start" x="696" y="-195" font-family="Helvetica,sans-Serif" font-size="10.00" fill="#000000">+ TVM_DEFINE_OBJECT_REF</text>
<text text-anchor="start" x="696" y="-184" font-family="Helvetica,sans-Serif" font-size="10.00" fill="#000000">_METHODS()</text>
<text text-anchor="start" x="696" y="-173" font-family="Helvetica,sans-Serif" font-size="10.00" fill="#000000">+ TVM_DEFINE_OBJECT_REF</text>
<text text-anchor="start" x="696" y="-162" font-family="Helvetica,sans-Serif" font-size="10.00" fill="#000000">_COW_METHOD()</text>
</a>
</g>
</g>
<!-- Node0&#45;&gt;Node8 -->
<g id="edge8" class="edge">
<title>Node0&#45;&gt;Node8</title>
<path fill="none" stroke="#191970" d="M593.5291,-300.8084C621.3394,-289.6307 651.9403,-276.2645 679,-262 682.4767,-260.1673 685.991,-258.2323 689.5107,-256.2261"/>
<polygon fill="none" stroke="#191970" points="592.2124,-297.5653 584.2139,-304.5133 594.7994,-304.0698 592.2124,-297.5653"/>
</g>
<!-- Node9 -->
<g id="node10" class="node">
<title>Node9</title>
<g id="a_node10"><a xlink:href="classtvm_1_1relax_1_1Var.html" target="_top" xlink:title="{tvm::relax::Var\n||+ Var()\l+ Var()\l+ TVM_DEFINE_OBJECT_REF\l_METHODS()\l+ TVM_DEFINE_OBJECT_REF\l_COW_METHOD()\l}">
<polygon fill="#ffffff" stroke="#000000" points="860,-149.5 860,-261.5 1014,-261.5 1014,-149.5 860,-149.5"/>
<text text-anchor="middle" x="937" y="-249.5" font-family="Helvetica,sans-Serif" font-size="10.00" fill="#000000">tvm::relax::Var</text>
<polyline fill="none" stroke="#000000" points="860,-242.5 1014,-242.5 "/>
<text text-anchor="middle" x="937" y="-230.5" font-family="Helvetica,sans-Serif" font-size="10.00" fill="#000000"> </text>
<polyline fill="none" stroke="#000000" points="860,-223.5 1014,-223.5 "/>
<text text-anchor="start" x="868" y="-211.5" font-family="Helvetica,sans-Serif" font-size="10.00" fill="#000000">+ Var()</text>
<text text-anchor="start" x="868" y="-200.5" font-family="Helvetica,sans-Serif" font-size="10.00" fill="#000000">+ Var()</text>
<text text-anchor="start" x="868" y="-189.5" font-family="Helvetica,sans-Serif" font-size="10.00" fill="#000000">+ TVM_DEFINE_OBJECT_REF</text>
<text text-anchor="start" x="868" y="-178.5" font-family="Helvetica,sans-Serif" font-size="10.00" fill="#000000">_METHODS()</text>
<text text-anchor="start" x="868" y="-167.5" font-family="Helvetica,sans-Serif" font-size="10.00" fill="#000000">+ TVM_DEFINE_OBJECT_REF</text>
<text text-anchor="start" x="868" y="-156.5" font-family="Helvetica,sans-Serif" font-size="10.00" fill="#000000">_COW_METHOD()</text>
</a>
</g>
</g>
<!-- Node0&#45;&gt;Node9 -->
<g id="edge9" class="edge">
<title>Node0&#45;&gt;Node9</title>
<path fill="none" stroke="#191970" d="M594.5289,-323.8308C665.7008,-314.6194 767.6231,-296.4386 851,-262 853.9721,-260.7724 856.9513,-259.4381 859.9221,-258.0182"/>
<polygon fill="none" stroke="#191970" points="593.7408,-320.4023 584.2571,-325.1256 594.6164,-327.3474 593.7408,-320.4023"/>
</g>
<!-- Node1 -->
<g id="node2" class="node">
<title>Node1</title>
<g id="a_node2"><a xlink:href="classtvm_1_1RelayExpr.html" target="_top" xlink:title="Managed reference to RelayExprNode. ">
<polygon fill="#ffffff" stroke="#000000" points="430,-403.5 430,-471.5 584,-471.5 584,-403.5 430,-403.5"/>
<text text-anchor="middle" x="507" y="-459.5" font-family="Helvetica,sans-Serif" font-size="10.00" fill="#000000">Expr</text>
<polyline fill="none" stroke="#000000" points="430,-452.5 584,-452.5 "/>
<text text-anchor="middle" x="507" y="-440.5" font-family="Helvetica,sans-Serif" font-size="10.00" fill="#000000"> </text>
<polyline fill="none" stroke="#000000" points="430,-433.5 584,-433.5 "/>
<text text-anchor="start" x="438" y="-421.5" font-family="Helvetica,sans-Serif" font-size="10.00" fill="#000000">+ TVM_DEFINE_OBJECT_REF</text>
<text text-anchor="start" x="438" y="-410.5" font-family="Helvetica,sans-Serif" font-size="10.00" fill="#000000">_METHODS()</text>
</a>
</g>
</g>
<!-- Node1&#45;&gt;Node0 -->
<g id="edge1" class="edge">
<title>Node1&#45;&gt;Node0</title>
<path fill="none" stroke="#191970" d="M507,-393.2353C507,-384.3902 507,-375.2253 507,-366.7788"/>
<polygon fill="none" stroke="#191970" points="503.5001,-393.4095 507,-403.4095 510.5001,-393.4095 503.5001,-393.4095"/>
</g>
<!-- Node2 -->
<g id="node3" class="node">
<title>Node2</title>
<g id="a_node3"><a xlink:href="classtvm_1_1BaseExpr.html" target="_top" xlink:title="Managed reference to BaseExprNode. ">
<polygon fill="#ffffff" stroke="#000000" points="430,-508.5 430,-576.5 584,-576.5 584,-508.5 430,-508.5"/>
<text text-anchor="middle" x="507" y="-564.5" font-family="Helvetica,sans-Serif" font-size="10.00" fill="#000000">tvm::BaseExpr</text>
<polyline fill="none" stroke="#000000" points="430,-557.5 584,-557.5 "/>
<text text-anchor="middle" x="507" y="-545.5" font-family="Helvetica,sans-Serif" font-size="10.00" fill="#000000"> </text>
<polyline fill="none" stroke="#000000" points="430,-538.5 584,-538.5 "/>
<text text-anchor="start" x="438" y="-526.5" font-family="Helvetica,sans-Serif" font-size="10.00" fill="#000000">+ TVM_DEFINE_OBJECT_REF</text>
<text text-anchor="start" x="438" y="-515.5" font-family="Helvetica,sans-Serif" font-size="10.00" fill="#000000">_METHODS()</text>
</a>
</g>
</g>
<!-- Node2&#45;&gt;Node1 -->
<g id="edge2" class="edge">
<title>Node2&#45;&gt;Node1</title>
<path fill="none" stroke="#191970" d="M507,-498.2353C507,-489.3902 507,-480.2253 507,-471.7788"/>
<polygon fill="none" stroke="#191970" points="503.5001,-498.4095 507,-508.4095 510.5001,-498.4095 503.5001,-498.4095"/>
</g>
<!-- Node3 -->
<g id="node4" class="node">
<title>Node3</title>
<g id="a_node4"><a xlink:href="classtvm_1_1runtime_1_1ObjectRef.html" target="_top" xlink:title="Base class of all object reference. ">
<polygon fill="#ffffff" stroke="#000000" points="440,-613.5 440,-846.5 574,-846.5 574,-613.5 440,-613.5"/>
<text text-anchor="middle" x="507" y="-834.5" font-family="Helvetica,sans-Serif" font-size="10.00" fill="#000000">tvm::runtime::ObjectRef</text>
<polyline fill="none" stroke="#000000" points="440,-827.5 574,-827.5 "/>
<text text-anchor="start" x="448" y="-815.5" font-family="Helvetica,sans-Serif" font-size="10.00" fill="#000000">+ _type_is_nullable</text>
<text text-anchor="start" x="448" y="-804.5" font-family="Helvetica,sans-Serif" font-size="10.00" fill="#000000"># data_</text>
<polyline fill="none" stroke="#000000" points="440,-797.5 574,-797.5 "/>
<text text-anchor="start" x="448" y="-785.5" font-family="Helvetica,sans-Serif" font-size="10.00" fill="#000000">+ ObjectRef()</text>
<text text-anchor="start" x="448" y="-774.5" font-family="Helvetica,sans-Serif" font-size="10.00" fill="#000000">+ ObjectRef()</text>
<text text-anchor="start" x="448" y="-763.5" font-family="Helvetica,sans-Serif" font-size="10.00" fill="#000000">+ same_as()</text>
<text text-anchor="start" x="448" y="-752.5" font-family="Helvetica,sans-Serif" font-size="10.00" fill="#000000">+ operator==()</text>
<text text-anchor="start" x="448" y="-741.5" font-family="Helvetica,sans-Serif" font-size="10.00" fill="#000000">+ operator!=()</text>
<text text-anchor="start" x="448" y="-730.5" font-family="Helvetica,sans-Serif" font-size="10.00" fill="#000000">+ operator&lt;()</text>
<text text-anchor="start" x="448" y="-719.5" font-family="Helvetica,sans-Serif" font-size="10.00" fill="#000000">+ defined()</text>
<text text-anchor="start" x="448" y="-708.5" font-family="Helvetica,sans-Serif" font-size="10.00" fill="#000000">+ get()</text>
<text text-anchor="start" x="448" y="-697.5" font-family="Helvetica,sans-Serif" font-size="10.00" fill="#000000">+ operator&#45;&gt;()</text>
<text text-anchor="start" x="448" y="-686.5" font-family="Helvetica,sans-Serif" font-size="10.00" fill="#000000">+ unique()</text>
<text text-anchor="start" x="448" y="-675.5" font-family="Helvetica,sans-Serif" font-size="10.00" fill="#000000">+ use_count()</text>
<text text-anchor="start" x="448" y="-664.5" font-family="Helvetica,sans-Serif" font-size="10.00" fill="#000000">+ as()</text>
<text text-anchor="start" x="448" y="-653.5" font-family="Helvetica,sans-Serif" font-size="10.00" fill="#000000"># get_mutable()</text>
<text text-anchor="start" x="448" y="-642.5" font-family="Helvetica,sans-Serif" font-size="10.00" fill="#000000"># DowncastNoCheck()</text>
<text text-anchor="start" x="448" y="-631.5" font-family="Helvetica,sans-Serif" font-size="10.00" fill="#000000"># FFIClearAfterMove()</text>
<text text-anchor="start" x="448" y="-620.5" font-family="Helvetica,sans-Serif" font-size="10.00" fill="#000000"># GetDataPtr()</text>
</a>
</g>
</g>
<!-- Node3&#45;&gt;Node2 -->
<g id="edge3" class="edge">
<title>Node3&#45;&gt;Node2</title>
<path fill="none" stroke="#191970" d="M507,-603.2822C507,-593.749 507,-584.737 507,-576.7166"/>
<polygon fill="none" stroke="#191970" points="503.5001,-603.3857 507,-613.3857 510.5001,-603.3857 503.5001,-603.3857"/>
</g>
<!-- Node10 -->
<g id="node11" class="node">
<title>Node10</title>
<g id="a_node11"><a xlink:href="classtvm_1_1relax_1_1DataflowVar.html" target="_top" xlink:title="{tvm::relax::DataflowVar\n||+ DataflowVar()\l+ DataflowVar()\l+ TVM_DEFINE_OBJECT_REF\l_METHODS()\l+ TVM_DEFINE_OBJECT_REF\l_COW_METHOD()\l}">
<polygon fill="#ffffff" stroke="#000000" points="860,-.5 860,-112.5 1014,-112.5 1014,-.5 860,-.5"/>
<text text-anchor="middle" x="937" y="-100.5" font-family="Helvetica,sans-Serif" font-size="10.00" fill="#000000">tvm::relax::DataflowVar</text>
<polyline fill="none" stroke="#000000" points="860,-93.5 1014,-93.5 "/>
<text text-anchor="middle" x="937" y="-81.5" font-family="Helvetica,sans-Serif" font-size="10.00" fill="#000000"> </text>
<polyline fill="none" stroke="#000000" points="860,-74.5 1014,-74.5 "/>
<text text-anchor="start" x="868" y="-62.5" font-family="Helvetica,sans-Serif" font-size="10.00" fill="#000000">+ DataflowVar()</text>
<text text-anchor="start" x="868" y="-51.5" font-family="Helvetica,sans-Serif" font-size="10.00" fill="#000000">+ DataflowVar()</text>
<text text-anchor="start" x="868" y="-40.5" font-family="Helvetica,sans-Serif" font-size="10.00" fill="#000000">+ TVM_DEFINE_OBJECT_REF</text>
<text text-anchor="start" x="868" y="-29.5" font-family="Helvetica,sans-Serif" font-size="10.00" fill="#000000">_METHODS()</text>
<text text-anchor="start" x="868" y="-18.5" font-family="Helvetica,sans-Serif" font-size="10.00" fill="#000000">+ TVM_DEFINE_OBJECT_REF</text>
<text text-anchor="start" x="868" y="-7.5" font-family="Helvetica,sans-Serif" font-size="10.00" fill="#000000">_COW_METHOD()</text>
</a>
</g>
</g>
<!-- Node9&#45;&gt;Node10 -->
<g id="edge10" class="edge">
<title>Node9&#45;&gt;Node10</title>
<path fill="none" stroke="#191970" d="M937,-139.0302C937,-130.3102 937,-121.4418 937,-112.9102"/>
<polygon fill="none" stroke="#191970" points="933.5001,-139.1695 937,-149.1695 940.5001,-139.1695 933.5001,-139.1695"/>
</g>
</g>
</svg>
