<?xml version="1.0" encoding="UTF-8" standalone="no"?>
<!DOCTYPE svg PUBLIC "-//W3C//DTD SVG 1.1//EN"
 "http://www.w3.org/Graphics/SVG/1.1/DTD/svg11.dtd">
<!-- Generated by graphviz version 2.40.1 (20161225.0304)
 -->
<!-- Title: tvm::relax::DFPattern Pages: 1 -->
<svg width="3454pt" height="606pt"
 viewBox="0.00 0.00 3454.00 606.00" xmlns="http://www.w3.org/2000/svg" xmlns:xlink="http://www.w3.org/1999/xlink">
<g id="graph0" class="graph" transform="scale(1 1) rotate(0) translate(4 602)">
<title>tvm::relax::DFPattern</title>
<polygon fill="#ffffff" stroke="transparent" points="-4,4 -4,-602 3450,-602 3450,4 -4,4"/>
<!-- Node0 -->
<g id="node1" class="node">
<title>Node0</title>
<polygon fill="#bfbfbf" stroke="#000000" points="1657,-127.5 1657,-327.5 1811,-327.5 1811,-127.5 1657,-127.5"/>
<text text-anchor="middle" x="1734" y="-315.5" font-family="Helvetica,sans-Serif" font-size="10.00" fill="#000000">tvm::relax::DFPattern</text>
<polyline fill="none" stroke="#000000" points="1657,-308.5 1811,-308.5 "/>
<text text-anchor="middle" x="1734" y="-296.5" font-family="Helvetica,sans-Serif" font-size="10.00" fill="#000000"> </text>
<polyline fill="none" stroke="#000000" points="1657,-289.5 1811,-289.5 "/>
<text text-anchor="start" x="1665" y="-277.5" font-family="Helvetica,sans-Serif" font-size="10.00" fill="#000000">+ operator()()</text>
<text text-anchor="start" x="1665" y="-266.5" font-family="Helvetica,sans-Serif" font-size="10.00" fill="#000000">+ operator()()</text>
<text text-anchor="start" x="1665" y="-255.5" font-family="Helvetica,sans-Serif" font-size="10.00" fill="#000000">+ operator|()</text>
<text text-anchor="start" x="1665" y="-244.5" font-family="Helvetica,sans-Serif" font-size="10.00" fill="#000000">+ operator &amp;()</text>
<text text-anchor="start" x="1665" y="-233.5" font-family="Helvetica,sans-Serif" font-size="10.00" fill="#000000">+ operator~()</text>
<text text-anchor="start" x="1665" y="-222.5" font-family="Helvetica,sans-Serif" font-size="10.00" fill="#000000">+ HasAttr()</text>
<text text-anchor="start" x="1665" y="-211.5" font-family="Helvetica,sans-Serif" font-size="10.00" fill="#000000">+ HasType()</text>
<text text-anchor="start" x="1665" y="-200.5" font-family="Helvetica,sans-Serif" font-size="10.00" fill="#000000">+ HasDtype()</text>
<text text-anchor="start" x="1665" y="-189.5" font-family="Helvetica,sans-Serif" font-size="10.00" fill="#000000">+ HasDtype()</text>
<text text-anchor="start" x="1665" y="-178.5" font-family="Helvetica,sans-Serif" font-size="10.00" fill="#000000">+ HasShape()</text>
<text text-anchor="start" x="1665" y="-167.5" font-family="Helvetica,sans-Serif" font-size="10.00" fill="#000000">+ dup()</text>
<text text-anchor="start" x="1665" y="-156.5" font-family="Helvetica,sans-Serif" font-size="10.00" fill="#000000">+ operator PatternSeq()</text>
<text text-anchor="start" x="1665" y="-145.5" font-family="Helvetica,sans-Serif" font-size="10.00" fill="#000000">+ TVM_DEFINE_OBJECT_REF</text>
<text text-anchor="start" x="1665" y="-134.5" font-family="Helvetica,sans-Serif" font-size="10.00" fill="#000000">_METHODS()</text>
</g>
<!-- Node2 -->
<g id="node3" class="node">
<title>Node2</title>
<g id="a_node3"><a xlink:href="classtvm_1_1relax_1_1AndPattern.html" target="_top" xlink:title="Managed reference to AndPatternNode. ">
<polygon fill="#ffffff" stroke="#000000" points="0,-6 0,-85 154,-85 154,-6 0,-6"/>
<text text-anchor="middle" x="77" y="-73" font-family="Helvetica,sans-Serif" font-size="10.00" fill="#000000">tvm::relax::AndPattern</text>
<polyline fill="none" stroke="#000000" points="0,-66 154,-66 "/>
<text text-anchor="middle" x="77" y="-54" font-family="Helvetica,sans-Serif" font-size="10.00" fill="#000000"> </text>
<polyline fill="none" stroke="#000000" points="0,-47 154,-47 "/>
<text text-anchor="start" x="8" y="-35" font-family="Helvetica,sans-Serif" font-size="10.00" fill="#000000">+ AndPattern()</text>
<text text-anchor="start" x="8" y="-24" font-family="Helvetica,sans-Serif" font-size="10.00" fill="#000000">+ TVM_DEFINE_OBJECT_REF</text>
<text text-anchor="start" x="8" y="-13" font-family="Helvetica,sans-Serif" font-size="10.00" fill="#000000">_METHODS()</text>
</a>
</g>
</g>
<!-- Node0&#45;&gt;Node2 -->
<g id="edge2" class="edge">
<title>Node0&#45;&gt;Node2</title>
<path fill="none" stroke="#191970" d="M1646.6259,-224.4797C1359.1352,-213.8294 444.9291,-174.104 163,-91 157.4913,-89.3762 151.9288,-87.3811 146.4241,-85.1421"/>
<polygon fill="none" stroke="#191970" points="1646.8728,-227.991 1656.9947,-224.8612 1647.1302,-220.9958 1646.8728,-227.991"/>
</g>
<!-- Node3 -->
<g id="node4" class="node">
<title>Node3</title>
<g id="a_node4"><a xlink:href="classtvm_1_1relax_1_1AttrPattern.html" target="_top" xlink:title="Managed reference to AttrPatternNode. ">
<polygon fill="#ffffff" stroke="#000000" points="172,-6 172,-85 326,-85 326,-6 172,-6"/>
<text text-anchor="middle" x="249" y="-73" font-family="Helvetica,sans-Serif" font-size="10.00" fill="#000000">tvm::relax::AttrPattern</text>
<polyline fill="none" stroke="#000000" points="172,-66 326,-66 "/>
<text text-anchor="middle" x="249" y="-54" font-family="Helvetica,sans-Serif" font-size="10.00" fill="#000000"> </text>
<polyline fill="none" stroke="#000000" points="172,-47 326,-47 "/>
<text text-anchor="start" x="180" y="-35" font-family="Helvetica,sans-Serif" font-size="10.00" fill="#000000">+ AttrPattern()</text>
<text text-anchor="start" x="180" y="-24" font-family="Helvetica,sans-Serif" font-size="10.00" fill="#000000">+ TVM_DEFINE_OBJECT_REF</text>
<text text-anchor="start" x="180" y="-13" font-family="Helvetica,sans-Serif" font-size="10.00" fill="#000000">_METHODS()</text>
</a>
</g>
</g>
<!-- Node0&#45;&gt;Node3 -->
<g id="edge3" class="edge">
<title>Node0&#45;&gt;Node3</title>
<path fill="none" stroke="#191970" d="M1646.7317,-223.4146C1380.6854,-210.2654 582.9035,-165.5035 335,-91 329.4999,-89.347 323.9438,-87.3306 318.4436,-85.0763"/>
<polygon fill="none" stroke="#191970" points="1646.5687,-226.9107 1656.7286,-223.9062 1646.9126,-219.9192 1646.5687,-226.9107"/>
</g>
<!-- Node4 -->
<g id="node5" class="node">
<title>Node4</title>
<g id="a_node5"><a xlink:href="classtvm_1_1relax_1_1CallPattern.html" target="_top" xlink:title="{tvm::relax::CallPattern\n||+ CallPattern()\l+ TVM_DEFINE_OBJECT_REF\l_METHODS()\l}">
<polygon fill="#ffffff" stroke="#000000" points="344,-6 344,-85 498,-85 498,-6 344,-6"/>
<text text-anchor="middle" x="421" y="-73" font-family="Helvetica,sans-Serif" font-size="10.00" fill="#000000">tvm::relax::CallPattern</text>
<polyline fill="none" stroke="#000000" points="344,-66 498,-66 "/>
<text text-anchor="middle" x="421" y="-54" font-family="Helvetica,sans-Serif" font-size="10.00" fill="#000000"> </text>
<polyline fill="none" stroke="#000000" points="344,-47 498,-47 "/>
<text text-anchor="start" x="352" y="-35" font-family="Helvetica,sans-Serif" font-size="10.00" fill="#000000">+ CallPattern()</text>
<text text-anchor="start" x="352" y="-24" font-family="Helvetica,sans-Serif" font-size="10.00" fill="#000000">+ TVM_DEFINE_OBJECT_REF</text>
<text text-anchor="start" x="352" y="-13" font-family="Helvetica,sans-Serif" font-size="10.00" fill="#000000">_METHODS()</text>
</a>
</g>
</g>
<!-- Node0&#45;&gt;Node4 -->
<g id="edge4" class="edge">
<title>Node0&#45;&gt;Node4</title>
<path fill="none" stroke="#191970" d="M1646.751,-222.0514C1403.4069,-206.1821 721.0594,-156.9143 507,-91 501.6727,-89.3596 496.2897,-87.386 490.9541,-85.1925"/>
<polygon fill="none" stroke="#191970" points="1646.7566,-225.5591 1656.9624,-222.7145 1647.2103,-218.5738 1646.7566,-225.5591"/>
</g>
<!-- Node5 -->
<g id="node6" class="node">
<title>Node5</title>
<g id="a_node6"><a xlink:href="classtvm_1_1relax_1_1ConstantPattern.html" target="_top" xlink:title="Managed reference to a ConstantPattern. ">
<polygon fill="#ffffff" stroke="#000000" points="516,-11.5 516,-79.5 670,-79.5 670,-11.5 516,-11.5"/>
<text text-anchor="middle" x="593" y="-67.5" font-family="Helvetica,sans-Serif" font-size="10.00" fill="#000000">tvm::relax::ConstantPattern</text>
<polyline fill="none" stroke="#000000" points="516,-60.5 670,-60.5 "/>
<text text-anchor="middle" x="593" y="-48.5" font-family="Helvetica,sans-Serif" font-size="10.00" fill="#000000"> </text>
<polyline fill="none" stroke="#000000" points="516,-41.5 670,-41.5 "/>
<text text-anchor="start" x="524" y="-29.5" font-family="Helvetica,sans-Serif" font-size="10.00" fill="#000000">+ TVM_DEFINE_OBJECT_REF</text>
<text text-anchor="start" x="524" y="-18.5" font-family="Helvetica,sans-Serif" font-size="10.00" fill="#000000">_METHODS()</text>
</a>
</g>
</g>
<!-- Node0&#45;&gt;Node5 -->
<g id="edge5" class="edge">
<title>Node0&#45;&gt;Node5</title>
<path fill="none" stroke="#191970" d="M1646.5386,-220.2305C1427.382,-201.3691 859.4119,-148.3239 679,-91 669.502,-87.9821 659.814,-83.9385 650.5281,-79.5023"/>
<polygon fill="none" stroke="#191970" points="1646.4455,-223.7353 1656.708,-221.1027 1647.0437,-216.7609 1646.4455,-223.7353"/>
</g>
<!-- Node6 -->
<g id="node7" class="node">
<title>Node6</title>
<g id="a_node7"><a xlink:href="classtvm_1_1relax_1_1DataflowVarPattern.html" target="_top" xlink:title="Managed reference to a DataflowVarPattern. ">
<polygon fill="#ffffff" stroke="#000000" points="688.5,-6 688.5,-85 855.5,-85 855.5,-6 688.5,-6"/>
<text text-anchor="middle" x="772" y="-73" font-family="Helvetica,sans-Serif" font-size="10.00" fill="#000000">tvm::relax::DataflowVarPattern</text>
<polyline fill="none" stroke="#000000" points="688.5,-66 855.5,-66 "/>
<text text-anchor="middle" x="772" y="-54" font-family="Helvetica,sans-Serif" font-size="10.00" fill="#000000"> </text>
<polyline fill="none" stroke="#000000" points="688.5,-47 855.5,-47 "/>
<text text-anchor="start" x="696.5" y="-35" font-family="Helvetica,sans-Serif" font-size="10.00" fill="#000000">+ DataflowVarPattern()</text>
<text text-anchor="start" x="696.5" y="-24" font-family="Helvetica,sans-Serif" font-size="10.00" fill="#000000">+ TVM_DEFINE_OBJECT_REF</text>
<text text-anchor="start" x="696.5" y="-13" font-family="Helvetica,sans-Serif" font-size="10.00" fill="#000000">_METHODS()</text>
</a>
</g>
</g>
<!-- Node0&#45;&gt;Node6 -->
<g id="edge6" class="edge">
<title>Node0&#45;&gt;Node6</title>
<path fill="none" stroke="#191970" d="M1646.7969,-222.4349C1487.9839,-211.33 1142.3828,-178.4504 865,-91 859.5143,-89.2705 853.9469,-87.2625 848.4039,-85.0725"/>
<polygon fill="none" stroke="#191970" points="1646.7683,-225.9411 1656.9848,-223.1352 1647.2484,-218.9576 1646.7683,-225.9411"/>
</g>
<!-- Node7 -->
<g id="node8" class="node">
<title>Node7</title>
<g id="a_node8"><a xlink:href="classtvm_1_1relax_1_1DataTypePattern.html" target="_top" xlink:title="Managed reference to DataTypePatternNode. ">
<polygon fill="#ffffff" stroke="#000000" points="874,-6 874,-85 1028,-85 1028,-6 874,-6"/>
<text text-anchor="middle" x="951" y="-73" font-family="Helvetica,sans-Serif" font-size="10.00" fill="#000000">tvm::relax::DataTypePattern</text>
<polyline fill="none" stroke="#000000" points="874,-66 1028,-66 "/>
<text text-anchor="middle" x="951" y="-54" font-family="Helvetica,sans-Serif" font-size="10.00" fill="#000000"> </text>
<polyline fill="none" stroke="#000000" points="874,-47 1028,-47 "/>
<text text-anchor="start" x="882" y="-35" font-family="Helvetica,sans-Serif" font-size="10.00" fill="#000000">+ DataTypePattern()</text>
<text text-anchor="start" x="882" y="-24" font-family="Helvetica,sans-Serif" font-size="10.00" fill="#000000">+ TVM_DEFINE_OBJECT_REF</text>
<text text-anchor="start" x="882" y="-13" font-family="Helvetica,sans-Serif" font-size="10.00" fill="#000000">_METHODS()</text>
</a>
</g>
</g>
<!-- Node0&#45;&gt;Node7 -->
<g id="edge7" class="edge">
<title>Node0&#45;&gt;Node7</title>
<path fill="none" stroke="#191970" d="M1646.5432,-218.7018C1512.3276,-203.3633 1248.8614,-165.946 1037,-91 1032.0634,-89.2537 1027.0614,-87.2631 1022.082,-85.113"/>
<polygon fill="none" stroke="#191970" points="1646.4371,-222.212 1656.7666,-219.8559 1647.2224,-215.2561 1646.4371,-222.212"/>
</g>
<!-- Node8 -->
<g id="node9" class="node">
<title>Node8</title>
<g id="a_node9"><a xlink:href="classtvm_1_1relax_1_1ExprPattern.html" target="_top" xlink:title="Managed reference to an ExprPattern. ">
<polygon fill="#ffffff" stroke="#000000" points="1046,-6 1046,-85 1200,-85 1200,-6 1046,-6"/>
<text text-anchor="middle" x="1123" y="-73" font-family="Helvetica,sans-Serif" font-size="10.00" fill="#000000">tvm::relax::ExprPattern</text>
<polyline fill="none" stroke="#000000" points="1046,-66 1200,-66 "/>
<text text-anchor="middle" x="1123" y="-54" font-family="Helvetica,sans-Serif" font-size="10.00" fill="#000000"> </text>
<polyline fill="none" stroke="#000000" points="1046,-47 1200,-47 "/>
<text text-anchor="start" x="1054" y="-35" font-family="Helvetica,sans-Serif" font-size="10.00" fill="#000000">+ ExprPattern()</text>
<text text-anchor="start" x="1054" y="-24" font-family="Helvetica,sans-Serif" font-size="10.00" fill="#000000">+ TVM_DEFINE_OBJECT_REF</text>
<text text-anchor="start" x="1054" y="-13" font-family="Helvetica,sans-Serif" font-size="10.00" fill="#000000">_METHODS()</text>
</a>
</g>
</g>
<!-- Node0&#45;&gt;Node8 -->
<g id="edge8" class="edge">
<title>Node0&#45;&gt;Node8</title>
<path fill="none" stroke="#191970" d="M1646.6173,-211.2682C1540.8156,-190.1492 1358.2499,-148.9744 1209,-91 1204.4339,-89.2263 1199.7986,-87.2706 1195.1686,-85.1969"/>
<polygon fill="none" stroke="#191970" points="1646.1232,-214.7383 1656.6128,-213.2492 1647.4841,-207.8718 1646.1232,-214.7383"/>
</g>
<!-- Node9 -->
<g id="node10" class="node">
<title>Node9</title>
<g id="a_node10"><a xlink:href="classtvm_1_1relax_1_1ExternFuncPattern.html" target="_top" xlink:title="Managed reference to ExternFuncPatternNode. ">
<polygon fill="#ffffff" stroke="#000000" points="1218.5,-6 1218.5,-85 1379.5,-85 1379.5,-6 1218.5,-6"/>
<text text-anchor="middle" x="1299" y="-73" font-family="Helvetica,sans-Serif" font-size="10.00" fill="#000000">tvm::relax::ExternFuncPattern</text>
<polyline fill="none" stroke="#000000" points="1218.5,-66 1379.5,-66 "/>
<text text-anchor="middle" x="1299" y="-54" font-family="Helvetica,sans-Serif" font-size="10.00" fill="#000000"> </text>
<polyline fill="none" stroke="#000000" points="1218.5,-47 1379.5,-47 "/>
<text text-anchor="start" x="1226.5" y="-35" font-family="Helvetica,sans-Serif" font-size="10.00" fill="#000000">+ ExternFuncPattern()</text>
<text text-anchor="start" x="1226.5" y="-24" font-family="Helvetica,sans-Serif" font-size="10.00" fill="#000000">+ TVM_DEFINE_OBJECT_REF</text>
<text text-anchor="start" x="1226.5" y="-13" font-family="Helvetica,sans-Serif" font-size="10.00" fill="#000000">_METHODS()</text>
</a>
</g>
</g>
<!-- Node0&#45;&gt;Node9 -->
<g id="edge9" class="edge">
<title>Node0&#45;&gt;Node9</title>
<path fill="none" stroke="#191970" d="M1647.0571,-195.6196C1576.7416,-169.2357 1475.5533,-129.9036 1389,-91 1384.848,-89.1338 1380.611,-87.1773 1376.3491,-85.1681"/>
<polygon fill="none" stroke="#191970" points="1646.1769,-199.0272 1656.7693,-199.2551 1648.6309,-192.4715 1646.1769,-199.0272"/>
</g>
<!-- Node10 -->
<g id="node11" class="node">
<title>Node10</title>
<g id="a_node11"><a xlink:href="classtvm_1_1relax_1_1FunctionPattern.html" target="_top" xlink:title="Managed reference to FunctionPatternNode. ">
<polygon fill="#ffffff" stroke="#000000" points="1398,-6 1398,-85 1552,-85 1552,-6 1398,-6"/>
<text text-anchor="middle" x="1475" y="-73" font-family="Helvetica,sans-Serif" font-size="10.00" fill="#000000">tvm::relax::FunctionPattern</text>
<polyline fill="none" stroke="#000000" points="1398,-66 1552,-66 "/>
<text text-anchor="middle" x="1475" y="-54" font-family="Helvetica,sans-Serif" font-size="10.00" fill="#000000"> </text>
<polyline fill="none" stroke="#000000" points="1398,-47 1552,-47 "/>
<text text-anchor="start" x="1406" y="-35" font-family="Helvetica,sans-Serif" font-size="10.00" fill="#000000">+ FunctionPattern()</text>
<text text-anchor="start" x="1406" y="-24" font-family="Helvetica,sans-Serif" font-size="10.00" fill="#000000">+ TVM_DEFINE_OBJECT_REF</text>
<text text-anchor="start" x="1406" y="-13" font-family="Helvetica,sans-Serif" font-size="10.00" fill="#000000">_METHODS()</text>
</a>
</g>
</g>
<!-- Node0&#45;&gt;Node10 -->
<g id="edge10" class="edge">
<title>Node0&#45;&gt;Node10</title>
<path fill="none" stroke="#191970" d="M1648.3862,-167.339C1609.9821,-140.3523 1565.738,-109.2618 1531.5561,-85.2421"/>
<polygon fill="none" stroke="#191970" points="1646.7984,-170.5009 1656.9927,-173.3868 1650.8231,-164.7736 1646.7984,-170.5009"/>
</g>
<!-- Node11 -->
<g id="node12" class="node">
<title>Node11</title>
<g id="a_node12"><a xlink:href="classtvm_1_1relax_1_1GlobalVarPattern.html" target="_top" xlink:title="Managed reference to a GlobalVarPattern. ">
<polygon fill="#ffffff" stroke="#000000" points="1570.5,-6 1570.5,-85 1725.5,-85 1725.5,-6 1570.5,-6"/>
<text text-anchor="middle" x="1648" y="-73" font-family="Helvetica,sans-Serif" font-size="10.00" fill="#000000">tvm::relax::GlobalVarPattern</text>
<polyline fill="none" stroke="#000000" points="1570.5,-66 1725.5,-66 "/>
<text text-anchor="middle" x="1648" y="-54" font-family="Helvetica,sans-Serif" font-size="10.00" fill="#000000"> </text>
<polyline fill="none" stroke="#000000" points="1570.5,-47 1725.5,-47 "/>
<text text-anchor="start" x="1578.5" y="-35" font-family="Helvetica,sans-Serif" font-size="10.00" fill="#000000">+ GlobalVarPattern()</text>
<text text-anchor="start" x="1578.5" y="-24" font-family="Helvetica,sans-Serif" font-size="10.00" fill="#000000">+ TVM_DEFINE_OBJECT_REF</text>
<text text-anchor="start" x="1578.5" y="-13" font-family="Helvetica,sans-Serif" font-size="10.00" fill="#000000">_METHODS()</text>
</a>
</g>
</g>
<!-- Node0&#45;&gt;Node11 -->
<g id="edge11" class="edge">
<title>Node0&#45;&gt;Node11</title>
<path fill="none" stroke="#191970" d="M1682.4204,-118.3431C1676.8364,-106.526 1671.4537,-95.1346 1666.6698,-85.0106"/>
<polygon fill="none" stroke="#191970" points="1679.2862,-119.9028 1686.7231,-127.4489 1685.6152,-116.9121 1679.2862,-119.9028"/>
</g>
<!-- Node12 -->
<g id="node13" class="node">
<title>Node12</title>
<g id="a_node13"><a xlink:href="classtvm_1_1relax_1_1NotPattern.html" target="_top" xlink:title="Managed reference to NotPatternNode. ">
<polygon fill="#ffffff" stroke="#000000" points="1744,-6 1744,-85 1898,-85 1898,-6 1744,-6"/>
<text text-anchor="middle" x="1821" y="-73" font-family="Helvetica,sans-Serif" font-size="10.00" fill="#000000">tvm::relax::NotPattern</text>
<polyline fill="none" stroke="#000000" points="1744,-66 1898,-66 "/>
<text text-anchor="middle" x="1821" y="-54" font-family="Helvetica,sans-Serif" font-size="10.00" fill="#000000"> </text>
<polyline fill="none" stroke="#000000" points="1744,-47 1898,-47 "/>
<text text-anchor="start" x="1752" y="-35" font-family="Helvetica,sans-Serif" font-size="10.00" fill="#000000">+ NotPattern()</text>
<text text-anchor="start" x="1752" y="-24" font-family="Helvetica,sans-Serif" font-size="10.00" fill="#000000">+ TVM_DEFINE_OBJECT_REF</text>
<text text-anchor="start" x="1752" y="-13" font-family="Helvetica,sans-Serif" font-size="10.00" fill="#000000">_METHODS()</text>
</a>
</g>
</g>
<!-- Node0&#45;&gt;Node12 -->
<g id="edge12" class="edge">
<title>Node0&#45;&gt;Node12</title>
<path fill="none" stroke="#191970" d="M1786.1794,-118.3431C1791.8282,-106.526 1797.2736,-95.1346 1802.1131,-85.0106"/>
<polygon fill="none" stroke="#191970" points="1782.9817,-116.9172 1781.8266,-127.4489 1789.2973,-119.9362 1782.9817,-116.9172"/>
</g>
<!-- Node13 -->
<g id="node14" class="node">
<title>Node13</title>
<g id="a_node14"><a xlink:href="classtvm_1_1relax_1_1OrPattern.html" target="_top" xlink:title="Managed reference to OrPatternNode. ">
<polygon fill="#ffffff" stroke="#000000" points="1916,-6 1916,-85 2070,-85 2070,-6 1916,-6"/>
<text text-anchor="middle" x="1993" y="-73" font-family="Helvetica,sans-Serif" font-size="10.00" fill="#000000">tvm::relax::OrPattern</text>
<polyline fill="none" stroke="#000000" points="1916,-66 2070,-66 "/>
<text text-anchor="middle" x="1993" y="-54" font-family="Helvetica,sans-Serif" font-size="10.00" fill="#000000"> </text>
<polyline fill="none" stroke="#000000" points="1916,-47 2070,-47 "/>
<text text-anchor="start" x="1924" y="-35" font-family="Helvetica,sans-Serif" font-size="10.00" fill="#000000">+ OrPattern()</text>
<text text-anchor="start" x="1924" y="-24" font-family="Helvetica,sans-Serif" font-size="10.00" fill="#000000">+ TVM_DEFINE_OBJECT_REF</text>
<text text-anchor="start" x="1924" y="-13" font-family="Helvetica,sans-Serif" font-size="10.00" fill="#000000">_METHODS()</text>
</a>
</g>
</g>
<!-- Node0&#45;&gt;Node13 -->
<g id="edge13" class="edge">
<title>Node0&#45;&gt;Node13</title>
<path fill="none" stroke="#191970" d="M1819.6138,-167.339C1858.0179,-140.3523 1902.262,-109.2618 1936.4439,-85.2421"/>
<polygon fill="none" stroke="#191970" points="1817.1769,-164.7736 1811.0073,-173.3868 1821.2016,-170.5009 1817.1769,-164.7736"/>
</g>
<!-- Node14 -->
<g id="node15" class="node">
<title>Node14</title>
<g id="a_node15"><a xlink:href="classtvm_1_1relax_1_1PrimArrPattern.html" target="_top" xlink:title="Managed reference to a PrimArrPattern. ">
<polygon fill="#ffffff" stroke="#000000" points="2088,-6 2088,-85 2242,-85 2242,-6 2088,-6"/>
<text text-anchor="middle" x="2165" y="-73" font-family="Helvetica,sans-Serif" font-size="10.00" fill="#000000">tvm::relax::PrimArrPattern</text>
<polyline fill="none" stroke="#000000" points="2088,-66 2242,-66 "/>
<text text-anchor="middle" x="2165" y="-54" font-family="Helvetica,sans-Serif" font-size="10.00" fill="#000000"> </text>
<polyline fill="none" stroke="#000000" points="2088,-47 2242,-47 "/>
<text text-anchor="start" x="2096" y="-35" font-family="Helvetica,sans-Serif" font-size="10.00" fill="#000000">+ PrimArrPattern()</text>
<text text-anchor="start" x="2096" y="-24" font-family="Helvetica,sans-Serif" font-size="10.00" fill="#000000">+ TVM_DEFINE_OBJECT_REF</text>
<text text-anchor="start" x="2096" y="-13" font-family="Helvetica,sans-Serif" font-size="10.00" fill="#000000">_METHODS()</text>
</a>
</g>
</g>
<!-- Node0&#45;&gt;Node14 -->
<g id="edge14" class="edge">
<title>Node0&#45;&gt;Node14</title>
<path fill="none" stroke="#191970" d="M1820.7978,-196.1797C1891.2397,-170.043 1992.6715,-130.769 2079,-91 2083.1423,-89.0918 2087.3674,-87.0799 2091.6119,-85.0076"/>
<polygon fill="none" stroke="#191970" points="1819.2329,-193.0268 1811.0686,-199.7792 1821.6618,-199.5919 1819.2329,-193.0268"/>
</g>
<!-- Node15 -->
<g id="node16" class="node">
<title>Node15</title>
<g id="a_node16"><a xlink:href="classtvm_1_1relax_1_1ShapePattern.html" target="_top" xlink:title="Managed reference to ShapePatternNode. ">
<polygon fill="#ffffff" stroke="#000000" points="2260,-6 2260,-85 2414,-85 2414,-6 2260,-6"/>
<text text-anchor="middle" x="2337" y="-73" font-family="Helvetica,sans-Serif" font-size="10.00" fill="#000000">tvm::relax::ShapePattern</text>
<polyline fill="none" stroke="#000000" points="2260,-66 2414,-66 "/>
<text text-anchor="middle" x="2337" y="-54" font-family="Helvetica,sans-Serif" font-size="10.00" fill="#000000"> </text>
<polyline fill="none" stroke="#000000" points="2260,-47 2414,-47 "/>
<text text-anchor="start" x="2268" y="-35" font-family="Helvetica,sans-Serif" font-size="10.00" fill="#000000">+ ShapePattern()</text>
<text text-anchor="start" x="2268" y="-24" font-family="Helvetica,sans-Serif" font-size="10.00" fill="#000000">+ TVM_DEFINE_OBJECT_REF</text>
<text text-anchor="start" x="2268" y="-13" font-family="Helvetica,sans-Serif" font-size="10.00" fill="#000000">_METHODS()</text>
</a>
</g>
</g>
<!-- Node0&#45;&gt;Node15 -->
<g id="edge15" class="edge">
<title>Node0&#45;&gt;Node15</title>
<path fill="none" stroke="#191970" d="M1820.9308,-210.8994C1925.2397,-189.5438 2104.406,-148.2606 2251,-91 2255.5628,-89.2177 2260.1954,-87.2554 2264.8235,-85.1766"/>
<polygon fill="none" stroke="#191970" points="1820.1757,-207.4812 1811.0737,-212.9037 1821.5706,-214.3409 1820.1757,-207.4812"/>
</g>
<!-- Node16 -->
<g id="node17" class="node">
<title>Node16</title>
<g id="a_node17"><a xlink:href="classtvm_1_1relax_1_1TupleGetItemPattern.html" target="_top" xlink:title="Managed reference to TupleGetItemPatternNode. ">
<polygon fill="#ffffff" stroke="#000000" points="2432,-.5 2432,-90.5 2586,-90.5 2586,-.5 2432,-.5"/>
<text text-anchor="start" x="2440" y="-78.5" font-family="Helvetica,sans-Serif" font-size="10.00" fill="#000000">tvm::relax::TupleGetItem</text>
<text text-anchor="middle" x="2509" y="-67.5" font-family="Helvetica,sans-Serif" font-size="10.00" fill="#000000">Pattern</text>
<polyline fill="none" stroke="#000000" points="2432,-60.5 2586,-60.5 "/>
<text text-anchor="middle" x="2509" y="-48.5" font-family="Helvetica,sans-Serif" font-size="10.00" fill="#000000"> </text>
<polyline fill="none" stroke="#000000" points="2432,-41.5 2586,-41.5 "/>
<text text-anchor="start" x="2440" y="-29.5" font-family="Helvetica,sans-Serif" font-size="10.00" fill="#000000">+ TupleGetItemPattern()</text>
<text text-anchor="start" x="2440" y="-18.5" font-family="Helvetica,sans-Serif" font-size="10.00" fill="#000000">+ TVM_DEFINE_OBJECT_REF</text>
<text text-anchor="start" x="2440" y="-7.5" font-family="Helvetica,sans-Serif" font-size="10.00" fill="#000000">_METHODS()</text>
</a>
</g>
</g>
<!-- Node0&#45;&gt;Node16 -->
<g id="edge16" class="edge">
<title>Node0&#45;&gt;Node16</title>
<path fill="none" stroke="#191970" d="M1821.2504,-218.4589C1954.1672,-202.8669 2213.9812,-165.1979 2423,-91 2425.8653,-89.9829 2428.7528,-88.8838 2431.6453,-87.7194"/>
<polygon fill="none" stroke="#191970" points="1820.6541,-215.0045 1811.1237,-219.6328 1821.4602,-221.958 1820.6541,-215.0045"/>
</g>
<!-- Node17 -->
<g id="node18" class="node">
<title>Node17</title>
<g id="a_node18"><a xlink:href="classtvm_1_1relax_1_1TuplePattern.html" target="_top" xlink:title="Managed reference to TuplePatternNode. ">
<polygon fill="#ffffff" stroke="#000000" points="2604,-6 2604,-85 2758,-85 2758,-6 2604,-6"/>
<text text-anchor="middle" x="2681" y="-73" font-family="Helvetica,sans-Serif" font-size="10.00" fill="#000000">tvm::relax::TuplePattern</text>
<polyline fill="none" stroke="#000000" points="2604,-66 2758,-66 "/>
<text text-anchor="middle" x="2681" y="-54" font-family="Helvetica,sans-Serif" font-size="10.00" fill="#000000"> </text>
<polyline fill="none" stroke="#000000" points="2604,-47 2758,-47 "/>
<text text-anchor="start" x="2612" y="-35" font-family="Helvetica,sans-Serif" font-size="10.00" fill="#000000">+ TuplePattern()</text>
<text text-anchor="start" x="2612" y="-24" font-family="Helvetica,sans-Serif" font-size="10.00" fill="#000000">+ TVM_DEFINE_OBJECT_REF</text>
<text text-anchor="start" x="2612" y="-13" font-family="Helvetica,sans-Serif" font-size="10.00" fill="#000000">_METHODS()</text>
</a>
</g>
</g>
<!-- Node0&#45;&gt;Node17 -->
<g id="edge17" class="edge">
<title>Node0&#45;&gt;Node17</title>
<path fill="none" stroke="#191970" d="M1821.2862,-223.1332C1979.3536,-213.168 2321.9298,-182.0779 2595,-91 2600.1276,-89.2898 2605.317,-87.2962 2610.4727,-85.1168"/>
<polygon fill="none" stroke="#191970" points="1820.9094,-219.6498 1811.1441,-223.7595 1821.3408,-226.6364 1820.9094,-219.6498"/>
</g>
<!-- Node18 -->
<g id="node19" class="node">
<title>Node18</title>
<g id="a_node19"><a xlink:href="classtvm_1_1relax_1_1TypePattern.html" target="_top" xlink:title="Managed reference to TypePatternNode. ">
<polygon fill="#ffffff" stroke="#000000" points="2776,-6 2776,-85 2930,-85 2930,-6 2776,-6"/>
<text text-anchor="middle" x="2853" y="-73" font-family="Helvetica,sans-Serif" font-size="10.00" fill="#000000">tvm::relax::TypePattern</text>
<polyline fill="none" stroke="#000000" points="2776,-66 2930,-66 "/>
<text text-anchor="middle" x="2853" y="-54" font-family="Helvetica,sans-Serif" font-size="10.00" fill="#000000"> </text>
<polyline fill="none" stroke="#000000" points="2776,-47 2930,-47 "/>
<text text-anchor="start" x="2784" y="-35" font-family="Helvetica,sans-Serif" font-size="10.00" fill="#000000">+ TypePattern()</text>
<text text-anchor="start" x="2784" y="-24" font-family="Helvetica,sans-Serif" font-size="10.00" fill="#000000">+ TVM_DEFINE_OBJECT_REF</text>
<text text-anchor="start" x="2784" y="-13" font-family="Helvetica,sans-Serif" font-size="10.00" fill="#000000">_METHODS()</text>
</a>
</g>
</g>
<!-- Node0&#45;&gt;Node18 -->
<g id="edge18" class="edge">
<title>Node0&#45;&gt;Node18</title>
<path fill="none" stroke="#191970" d="M1821.1908,-219.9807C2036.8978,-200.7386 2590.788,-147.2523 2767,-91 2772.3102,-89.3048 2777.6803,-87.2906 2783.0068,-85.0678"/>
<polygon fill="none" stroke="#191970" points="1820.8282,-216.499 1811.1775,-220.871 1821.4482,-223.4715 1820.8282,-216.499"/>
</g>
<!-- Node19 -->
<g id="node20" class="node">
<title>Node19</title>
<g id="a_node20"><a xlink:href="classtvm_1_1relax_1_1UnorderedTuplePattern.html" target="_top" xlink:title="Managed reference to UnorderedTuplePatternNode. ">
<polygon fill="#ffffff" stroke="#000000" points="2948,-.5 2948,-90.5 3102,-90.5 3102,-.5 2948,-.5"/>
<text text-anchor="start" x="2956" y="-78.5" font-family="Helvetica,sans-Serif" font-size="10.00" fill="#000000">tvm::relax::UnorderedTuple</text>
<text text-anchor="middle" x="3025" y="-67.5" font-family="Helvetica,sans-Serif" font-size="10.00" fill="#000000">Pattern</text>
<polyline fill="none" stroke="#000000" points="2948,-60.5 3102,-60.5 "/>
<text text-anchor="middle" x="3025" y="-48.5" font-family="Helvetica,sans-Serif" font-size="10.00" fill="#000000"> </text>
<polyline fill="none" stroke="#000000" points="2948,-41.5 3102,-41.5 "/>
<text text-anchor="start" x="2956" y="-29.5" font-family="Helvetica,sans-Serif" font-size="10.00" fill="#000000">+ UnorderedTuplePattern()</text>
<text text-anchor="start" x="2956" y="-18.5" font-family="Helvetica,sans-Serif" font-size="10.00" fill="#000000">+ TVM_DEFINE_OBJECT_REF</text>
<text text-anchor="start" x="2956" y="-7.5" font-family="Helvetica,sans-Serif" font-size="10.00" fill="#000000">_METHODS()</text>
</a>
</g>
</g>
<!-- Node0&#45;&gt;Node19 -->
<g id="edge19" class="edge">
<title>Node0&#45;&gt;Node19</title>
<path fill="none" stroke="#191970" d="M1821.3845,-221.84C2061.8305,-205.5955 2729.2922,-155.8047 2939,-91 2941.9049,-90.1023 2944.8265,-89.1059 2947.748,-88.0291"/>
<polygon fill="none" stroke="#191970" points="1821.0329,-218.3557 1811.2905,-222.5192 1821.5029,-225.3399 1821.0329,-218.3557"/>
</g>
<!-- Node20 -->
<g id="node21" class="node">
<title>Node20</title>
<g id="a_node21"><a xlink:href="classtvm_1_1relax_1_1VarPattern.html" target="_top" xlink:title="Managed reference to a VarPattern. ">
<polygon fill="#ffffff" stroke="#000000" points="3120,-6 3120,-85 3274,-85 3274,-6 3120,-6"/>
<text text-anchor="middle" x="3197" y="-73" font-family="Helvetica,sans-Serif" font-size="10.00" fill="#000000">tvm::relax::VarPattern</text>
<polyline fill="none" stroke="#000000" points="3120,-66 3274,-66 "/>
<text text-anchor="middle" x="3197" y="-54" font-family="Helvetica,sans-Serif" font-size="10.00" fill="#000000"> </text>
<polyline fill="none" stroke="#000000" points="3120,-47 3274,-47 "/>
<text text-anchor="start" x="3128" y="-35" font-family="Helvetica,sans-Serif" font-size="10.00" fill="#000000">+ VarPattern()</text>
<text text-anchor="start" x="3128" y="-24" font-family="Helvetica,sans-Serif" font-size="10.00" fill="#000000">+ TVM_DEFINE_OBJECT_REF</text>
<text text-anchor="start" x="3128" y="-13" font-family="Helvetica,sans-Serif" font-size="10.00" fill="#000000">_METHODS()</text>
</a>
</g>
</g>
<!-- Node0&#45;&gt;Node20 -->
<g id="edge20" class="edge">
<title>Node0&#45;&gt;Node20</title>
<path fill="none" stroke="#191970" d="M1821.6644,-223.2386C2085.2787,-209.7289 2867.5608,-164.3668 3111,-91 3116.4988,-89.3428 3122.0539,-87.3232 3127.5535,-85.0667"/>
<polygon fill="none" stroke="#191970" points="1821.188,-219.7582 1811.3792,-223.763 1821.5445,-226.7492 1821.188,-219.7582"/>
</g>
<!-- Node21 -->
<g id="node22" class="node">
<title>Node21</title>
<g id="a_node22"><a xlink:href="classtvm_1_1relax_1_1WildcardPattern.html" target="_top" xlink:title="Managed reference to WildcardPatternNode. ">
<polygon fill="#ffffff" stroke="#000000" points="3292,-11.5 3292,-79.5 3446,-79.5 3446,-11.5 3292,-11.5"/>
<text text-anchor="middle" x="3369" y="-67.5" font-family="Helvetica,sans-Serif" font-size="10.00" fill="#000000">tvm::relax::WildcardPattern</text>
<polyline fill="none" stroke="#000000" points="3292,-60.5 3446,-60.5 "/>
<text text-anchor="middle" x="3369" y="-48.5" font-family="Helvetica,sans-Serif" font-size="10.00" fill="#000000"> </text>
<polyline fill="none" stroke="#000000" points="3292,-41.5 3446,-41.5 "/>
<text text-anchor="start" x="3300" y="-29.5" font-family="Helvetica,sans-Serif" font-size="10.00" fill="#000000">+ TVM_DEFINE_OBJECT_REF</text>
<text text-anchor="start" x="3300" y="-18.5" font-family="Helvetica,sans-Serif" font-size="10.00" fill="#000000">_METHODS()</text>
</a>
</g>
</g>
<!-- Node0&#45;&gt;Node21 -->
<g id="edge21" class="edge">
<title>Node0&#45;&gt;Node21</title>
<path fill="none" stroke="#191970" d="M1821.6247,-224.3462C2106.7301,-213.3723 3005.519,-172.9775 3283,-91 3292.7196,-88.1285 3302.6072,-84.1036 3312.0502,-79.6238"/>
<polygon fill="none" stroke="#191970" points="1821.1972,-220.8599 1811.3383,-224.7396 1821.4648,-227.8548 1821.1972,-220.8599"/>
</g>
<!-- Node1 -->
<g id="node2" class="node">
<title>Node1</title>
<g id="a_node2"><a xlink:href="classtvm_1_1runtime_1_1ObjectRef.html" target="_top" xlink:title="Base class of all object reference. ">
<polygon fill="#ffffff" stroke="#000000" points="1667,-364.5 1667,-597.5 1801,-597.5 1801,-364.5 1667,-364.5"/>
<text text-anchor="middle" x="1734" y="-585.5" font-family="Helvetica,sans-Serif" font-size="10.00" fill="#000000">tvm::runtime::ObjectRef</text>
<polyline fill="none" stroke="#000000" points="1667,-578.5 1801,-578.5 "/>
<text text-anchor="start" x="1675" y="-566.5" font-family="Helvetica,sans-Serif" font-size="10.00" fill="#000000">+ _type_is_nullable</text>
<text text-anchor="start" x="1675" y="-555.5" font-family="Helvetica,sans-Serif" font-size="10.00" fill="#000000"># data_</text>
<polyline fill="none" stroke="#000000" points="1667,-548.5 1801,-548.5 "/>
<text text-anchor="start" x="1675" y="-536.5" font-family="Helvetica,sans-Serif" font-size="10.00" fill="#000000">+ ObjectRef()</text>
<text text-anchor="start" x="1675" y="-525.5" font-family="Helvetica,sans-Serif" font-size="10.00" fill="#000000">+ ObjectRef()</text>
<text text-anchor="start" x="1675" y="-514.5" font-family="Helvetica,sans-Serif" font-size="10.00" fill="#000000">+ same_as()</text>
<text text-anchor="start" x="1675" y="-503.5" font-family="Helvetica,sans-Serif" font-size="10.00" fill="#000000">+ operator==()</text>
<text text-anchor="start" x="1675" y="-492.5" font-family="Helvetica,sans-Serif" font-size="10.00" fill="#000000">+ operator!=()</text>
<text text-anchor="start" x="1675" y="-481.5" font-family="Helvetica,sans-Serif" font-size="10.00" fill="#000000">+ operator&lt;()</text>
<text text-anchor="start" x="1675" y="-470.5" font-family="Helvetica,sans-Serif" font-size="10.00" fill="#000000">+ defined()</text>
<text text-anchor="start" x="1675" y="-459.5" font-family="Helvetica,sans-Serif" font-size="10.00" fill="#000000">+ get()</text>
<text text-anchor="start" x="1675" y="-448.5" font-family="Helvetica,sans-Serif" font-size="10.00" fill="#000000">+ operator&#45;&gt;()</text>
<text text-anchor="start" x="1675" y="-437.5" font-family="Helvetica,sans-Serif" font-size="10.00" fill="#000000">+ unique()</text>
<text text-anchor="start" x="1675" y="-426.5" font-family="Helvetica,sans-Serif" font-size="10.00" fill="#000000">+ use_count()</text>
<text text-anchor="start" x="1675" y="-415.5" font-family="Helvetica,sans-Serif" font-size="10.00" fill="#000000">+ as()</text>
<text text-anchor="start" x="1675" y="-404.5" font-family="Helvetica,sans-Serif" font-size="10.00" fill="#000000"># get_mutable()</text>
<text text-anchor="start" x="1675" y="-393.5" font-family="Helvetica,sans-Serif" font-size="10.00" fill="#000000"># DowncastNoCheck()</text>
<text text-anchor="start" x="1675" y="-382.5" font-family="Helvetica,sans-Serif" font-size="10.00" fill="#000000"># FFIClearAfterMove()</text>
<text text-anchor="start" x="1675" y="-371.5" font-family="Helvetica,sans-Serif" font-size="10.00" fill="#000000"># GetDataPtr()</text>
</a>
</g>
</g>
<!-- Node1&#45;&gt;Node0 -->
<g id="edge1" class="edge">
<title>Node1&#45;&gt;Node0</title>
<path fill="none" stroke="#191970" d="M1734,-354.2283C1734,-345.3287 1734,-336.4293 1734,-327.7056"/>
<polygon fill="none" stroke="#191970" points="1730.5001,-354.2668 1734,-364.2668 1737.5001,-354.2669 1730.5001,-354.2668"/>
</g>
</g>
</svg>
