<?xml version="1.0" encoding="UTF-8" standalone="no"?>
<!DOCTYPE svg PUBLIC "-//W3C//DTD SVG 1.1//EN"
 "http://www.w3.org/Graphics/SVG/1.1/DTD/svg11.dtd">
<!-- Generated by graphviz version 2.40.1 (20161225.0304)
 -->
<!-- Title: tvm::relay::VarNode Pages: 1 -->
<svg width="746pt" height="1567pt"
 viewBox="0.00 0.00 746.00 1567.00" xmlns="http://www.w3.org/2000/svg" xmlns:xlink="http://www.w3.org/1999/xlink">
<g id="graph0" class="graph" transform="scale(1 1) rotate(0) translate(4 1563)">
<title>tvm::relay::VarNode</title>
<polygon fill="#ffffff" stroke="transparent" points="-4,4 -4,-1563 742,-1563 742,4 -4,4"/>
<!-- Node4 -->
<g id="node1" class="node">
<title>Node4</title>
<polygon fill="#bfbfbf" stroke="#000000" points="240.5,-.5 240.5,-101.5 449.5,-101.5 449.5,-.5 240.5,-.5"/>
<text text-anchor="middle" x="345" y="-89.5" font-family="Helvetica,sans-Serif" font-size="10.00" fill="#000000">tvm::relay::VarNode</text>
<polyline fill="none" stroke="#000000" points="240.5,-82.5 449.5,-82.5 "/>
<text text-anchor="start" x="248.5" y="-70.5" font-family="Helvetica,sans-Serif" font-size="10.00" fill="#000000">+ _type_key</text>
<polyline fill="none" stroke="#000000" points="240.5,-63.5 449.5,-63.5 "/>
<text text-anchor="start" x="248.5" y="-51.5" font-family="Helvetica,sans-Serif" font-size="10.00" fill="#000000">+ name_hint()</text>
<text text-anchor="start" x="248.5" y="-40.5" font-family="Helvetica,sans-Serif" font-size="10.00" fill="#000000">+ VisitAttrs()</text>
<text text-anchor="start" x="248.5" y="-29.5" font-family="Helvetica,sans-Serif" font-size="10.00" fill="#000000">+ SEqualReduce()</text>
<text text-anchor="start" x="248.5" y="-18.5" font-family="Helvetica,sans-Serif" font-size="10.00" fill="#000000">+ SHashReduce()</text>
<text text-anchor="start" x="248.5" y="-7.5" font-family="Helvetica,sans-Serif" font-size="10.00" fill="#000000">+ TVM_DECLARE_FINAL_OBJECT_INFO()</text>
</g>
<!-- Node5 -->
<g id="node2" class="node">
<title>Node5</title>
<g id="a_node2"><a xlink:href="classtvm_1_1RelayExprNode.html" target="_top" xlink:title="Base node of all non&#45;primitive expressions. ">
<polygon fill="#ffffff" stroke="#000000" points="241.5,-139.5 241.5,-240.5 448.5,-240.5 448.5,-139.5 241.5,-139.5"/>
<text text-anchor="middle" x="345" y="-228.5" font-family="Helvetica,sans-Serif" font-size="10.00" fill="#000000">ExprNode</text>
<polyline fill="none" stroke="#000000" points="241.5,-221.5 448.5,-221.5 "/>
<text text-anchor="start" x="249.5" y="-209.5" font-family="Helvetica,sans-Serif" font-size="10.00" fill="#000000">+ _type_key</text>
<text text-anchor="start" x="249.5" y="-198.5" font-family="Helvetica,sans-Serif" font-size="10.00" fill="#000000">+ _type_child_slots</text>
<polyline fill="none" stroke="#000000" points="241.5,-191.5 448.5,-191.5 "/>
<text text-anchor="start" x="249.5" y="-179.5" font-family="Helvetica,sans-Serif" font-size="10.00" fill="#000000">+ checked_type()</text>
<text text-anchor="start" x="249.5" y="-168.5" font-family="Helvetica,sans-Serif" font-size="10.00" fill="#000000">+ type_as()</text>
<text text-anchor="start" x="249.5" y="-157.5" font-family="Helvetica,sans-Serif" font-size="10.00" fill="#000000">+ virtual_device()</text>
<text text-anchor="start" x="249.5" y="-146.5" font-family="Helvetica,sans-Serif" font-size="10.00" fill="#000000">+ TVM_DECLARE_BASE_OBJECT_INFO()</text>
</a>
</g>
</g>
<!-- Node5&#45;&gt;Node4 -->
<g id="edge1" class="edge">
<title>Node5&#45;&gt;Node4</title>
<path fill="none" stroke="#191970" d="M345,-129.2075C345,-120.0503 345,-110.6882 345,-101.7707"/>
<polygon fill="none" stroke="#191970" points="341.5001,-129.4246 345,-139.4246 348.5001,-129.4246 341.5001,-129.4246"/>
</g>
<!-- Node6 -->
<g id="node3" class="node">
<title>Node6</title>
<g id="a_node3"><a xlink:href="classtvm_1_1BaseExprNode.html" target="_top" xlink:title="Base type of all the expressions. ">
<polygon fill="#ffffff" stroke="#000000" points="297.5,-357.5 297.5,-469.5 504.5,-469.5 504.5,-357.5 297.5,-357.5"/>
<text text-anchor="middle" x="401" y="-457.5" font-family="Helvetica,sans-Serif" font-size="10.00" fill="#000000">tvm::BaseExprNode</text>
<polyline fill="none" stroke="#000000" points="297.5,-450.5 504.5,-450.5 "/>
<text text-anchor="start" x="305.5" y="-438.5" font-family="Helvetica,sans-Serif" font-size="10.00" fill="#000000">+ _type_key</text>
<text text-anchor="start" x="305.5" y="-427.5" font-family="Helvetica,sans-Serif" font-size="10.00" fill="#000000">+ _type_has_method_sequal</text>
<text text-anchor="start" x="305.5" y="-416.5" font-family="Helvetica,sans-Serif" font-size="10.00" fill="#000000">_reduce</text>
<text text-anchor="start" x="305.5" y="-405.5" font-family="Helvetica,sans-Serif" font-size="10.00" fill="#000000">+ _type_has_method_shash</text>
<text text-anchor="start" x="305.5" y="-394.5" font-family="Helvetica,sans-Serif" font-size="10.00" fill="#000000">_reduce</text>
<text text-anchor="start" x="305.5" y="-383.5" font-family="Helvetica,sans-Serif" font-size="10.00" fill="#000000">+ _type_child_slots</text>
<polyline fill="none" stroke="#000000" points="297.5,-376.5 504.5,-376.5 "/>
<text text-anchor="start" x="305.5" y="-364.5" font-family="Helvetica,sans-Serif" font-size="10.00" fill="#000000">+ TVM_DECLARE_BASE_OBJECT_INFO()</text>
</a>
</g>
</g>
<!-- Node6&#45;&gt;Node5 -->
<g id="edge2" class="edge">
<title>Node6&#45;&gt;Node5</title>
<path fill="none" stroke="#191970" d="M384.464,-347.5036C375.9159,-313.3877 365.6448,-272.395 357.7241,-240.7827"/>
<polygon fill="none" stroke="#191970" points="381.1155,-348.5405 386.9411,-357.39 387.9056,-346.8392 381.1155,-348.5405"/>
</g>
<!-- Node7 -->
<g id="node4" class="node">
<title>Node7</title>
<g id="a_node4"><a xlink:href="classtvm_1_1runtime_1_1Object.html" target="_top" xlink:title="base class of all object containers. ">
<polygon fill="#ffffff" stroke="#000000" points="111.5,-685.5 111.5,-1072.5 294.5,-1072.5 294.5,-685.5 111.5,-685.5"/>
<text text-anchor="middle" x="203" y="-1060.5" font-family="Helvetica,sans-Serif" font-size="10.00" fill="#000000">tvm::runtime::Object</text>
<polyline fill="none" stroke="#000000" points="111.5,-1053.5 294.5,-1053.5 "/>
<text text-anchor="start" x="119.5" y="-1041.5" font-family="Helvetica,sans-Serif" font-size="10.00" fill="#000000">+ _type_key</text>
<text text-anchor="start" x="119.5" y="-1030.5" font-family="Helvetica,sans-Serif" font-size="10.00" fill="#000000">+ _type_final</text>
<text text-anchor="start" x="119.5" y="-1019.5" font-family="Helvetica,sans-Serif" font-size="10.00" fill="#000000">+ _type_child_slots</text>
<text text-anchor="start" x="119.5" y="-1008.5" font-family="Helvetica,sans-Serif" font-size="10.00" fill="#000000">+ _type_child_slots_can</text>
<text text-anchor="start" x="119.5" y="-997.5" font-family="Helvetica,sans-Serif" font-size="10.00" fill="#000000">_overflow</text>
<text text-anchor="start" x="119.5" y="-986.5" font-family="Helvetica,sans-Serif" font-size="10.00" fill="#000000">+ _type_has_method_visit</text>
<text text-anchor="start" x="119.5" y="-975.5" font-family="Helvetica,sans-Serif" font-size="10.00" fill="#000000">_attrs</text>
<text text-anchor="start" x="119.5" y="-964.5" font-family="Helvetica,sans-Serif" font-size="10.00" fill="#000000">+ _type_has_method_sequal</text>
<text text-anchor="start" x="119.5" y="-953.5" font-family="Helvetica,sans-Serif" font-size="10.00" fill="#000000">_reduce</text>
<text text-anchor="start" x="119.5" y="-942.5" font-family="Helvetica,sans-Serif" font-size="10.00" fill="#000000">+ _type_has_method_shash</text>
<text text-anchor="start" x="119.5" y="-931.5" font-family="Helvetica,sans-Serif" font-size="10.00" fill="#000000">_reduce</text>
<text text-anchor="start" x="119.5" y="-920.5" font-family="Helvetica,sans-Serif" font-size="10.00" fill="#000000">+ _type_index</text>
<text text-anchor="start" x="119.5" y="-909.5" font-family="Helvetica,sans-Serif" font-size="10.00" fill="#000000"># type_index_</text>
<text text-anchor="start" x="119.5" y="-898.5" font-family="Helvetica,sans-Serif" font-size="10.00" fill="#000000"># ref_counter_</text>
<polyline fill="none" stroke="#000000" points="111.5,-891.5 294.5,-891.5 "/>
<text text-anchor="start" x="119.5" y="-879.5" font-family="Helvetica,sans-Serif" font-size="10.00" fill="#000000">+ type_index()</text>
<text text-anchor="start" x="119.5" y="-868.5" font-family="Helvetica,sans-Serif" font-size="10.00" fill="#000000">+ GetTypeKey()</text>
<text text-anchor="start" x="119.5" y="-857.5" font-family="Helvetica,sans-Serif" font-size="10.00" fill="#000000">+ GetTypeKeyHash()</text>
<text text-anchor="start" x="119.5" y="-846.5" font-family="Helvetica,sans-Serif" font-size="10.00" fill="#000000">+ IsInstance()</text>
<text text-anchor="start" x="119.5" y="-835.5" font-family="Helvetica,sans-Serif" font-size="10.00" fill="#000000">+ unique()</text>
<text text-anchor="start" x="119.5" y="-824.5" font-family="Helvetica,sans-Serif" font-size="10.00" fill="#000000">+ Object()</text>
<text text-anchor="start" x="119.5" y="-813.5" font-family="Helvetica,sans-Serif" font-size="10.00" fill="#000000">+ Object()</text>
<text text-anchor="start" x="119.5" y="-802.5" font-family="Helvetica,sans-Serif" font-size="10.00" fill="#000000">+ Object()</text>
<text text-anchor="start" x="119.5" y="-791.5" font-family="Helvetica,sans-Serif" font-size="10.00" fill="#000000">+ operator=()</text>
<text text-anchor="start" x="119.5" y="-780.5" font-family="Helvetica,sans-Serif" font-size="10.00" fill="#000000">+ operator=()</text>
<text text-anchor="start" x="119.5" y="-769.5" font-family="Helvetica,sans-Serif" font-size="10.00" fill="#000000">+ TypeIndex2Key()</text>
<text text-anchor="start" x="119.5" y="-758.5" font-family="Helvetica,sans-Serif" font-size="10.00" fill="#000000">+ TypeIndex2KeyHash()</text>
<text text-anchor="start" x="119.5" y="-747.5" font-family="Helvetica,sans-Serif" font-size="10.00" fill="#000000">+ TypeKey2Index()</text>
<text text-anchor="start" x="119.5" y="-736.5" font-family="Helvetica,sans-Serif" font-size="10.00" fill="#000000">+ _GetOrAllocRuntimeTypeIndex()</text>
<text text-anchor="start" x="119.5" y="-725.5" font-family="Helvetica,sans-Serif" font-size="10.00" fill="#000000">+ RuntimeTypeIndex()</text>
<text text-anchor="start" x="119.5" y="-714.5" font-family="Helvetica,sans-Serif" font-size="10.00" fill="#000000"># IncRef()</text>
<text text-anchor="start" x="119.5" y="-703.5" font-family="Helvetica,sans-Serif" font-size="10.00" fill="#000000"># DecRef()</text>
<text text-anchor="start" x="119.5" y="-692.5" font-family="Helvetica,sans-Serif" font-size="10.00" fill="#000000"># GetOrAllocRuntimeTypeIndex()</text>
</a>
</g>
</g>
<!-- Node7&#45;&gt;Node6 -->
<g id="edge3" class="edge">
<title>Node7&#45;&gt;Node6</title>
<path fill="none" stroke="#191970" d="M289.4876,-675.6667C321.4848,-600.4411 355.254,-521.0493 377.1353,-469.6061"/>
<polygon fill="none" stroke="#191970" points="286.0863,-674.7214 285.3929,-685.2935 292.5278,-677.4613 286.0863,-674.7214"/>
</g>
<!-- Node7&#45;&gt;Node7 -->
<g id="edge4" class="edge">
<title>Node7&#45;&gt;Node7</title>
<path fill="none" stroke="#404040" d="M294.8625,-912.9248C305.5482,-906.6637 312.5,-895.3555 312.5,-879 312.5,-868.0112 309.3618,-859.3007 304.0615,-852.8687"/>
<polygon fill="none" stroke="#404040" points="304.0184,-852.8322 296.8548,-852.0056 294.8625,-845.0752 302.0261,-845.9017 304.0184,-852.8322"/>
<text text-anchor="middle" x="338.5" y="-876.5" font-family="Helvetica,sans-Serif" font-size="10.00" fill="#000000"> #deleter_</text>
</g>
<!-- Node8 -->
<g id="node5" class="node">
<title>Node8</title>
<g id="a_node5"><a xlink:href="classtvm_1_1Span.html" target="_top" xlink:title="{tvm::Span\n||+ Span()\l+ Merge()\l+ TVM_DEFINE_OBJECT_REF\l_METHODS()\l}">
<polygon fill="#ffffff" stroke="#000000" points="383,-834 383,-924 537,-924 537,-834 383,-834"/>
<text text-anchor="middle" x="460" y="-912" font-family="Helvetica,sans-Serif" font-size="10.00" fill="#000000">tvm::Span</text>
<polyline fill="none" stroke="#000000" points="383,-905 537,-905 "/>
<text text-anchor="middle" x="460" y="-893" font-family="Helvetica,sans-Serif" font-size="10.00" fill="#000000"> </text>
<polyline fill="none" stroke="#000000" points="383,-886 537,-886 "/>
<text text-anchor="start" x="391" y="-874" font-family="Helvetica,sans-Serif" font-size="10.00" fill="#000000">+ Span()</text>
<text text-anchor="start" x="391" y="-863" font-family="Helvetica,sans-Serif" font-size="10.00" fill="#000000">+ Merge()</text>
<text text-anchor="start" x="391" y="-852" font-family="Helvetica,sans-Serif" font-size="10.00" fill="#000000">+ TVM_DEFINE_OBJECT_REF</text>
<text text-anchor="start" x="391" y="-841" font-family="Helvetica,sans-Serif" font-size="10.00" fill="#000000">_METHODS()</text>
</a>
</g>
</g>
<!-- Node8&#45;&gt;Node6 -->
<g id="edge5" class="edge">
<title>Node8&#45;&gt;Node6</title>
<path fill="none" stroke="#404040" d="M454.2892,-833.9429C443.9031,-751.9983 421.868,-578.1447 409.6363,-481.639"/>
<polygon fill="none" stroke="#404040" points="409.6313,-481.5988 404.9086,-476.1494 408.1223,-469.6941 412.8451,-475.1434 409.6313,-481.5988"/>
<text text-anchor="middle" x="450.5" y="-575" font-family="Helvetica,sans-Serif" font-size="10.00" fill="#000000"> +span</text>
</g>
<!-- Node9 -->
<g id="node6" class="node">
<title>Node9</title>
<g id="a_node6"><a xlink:href="classtvm_1_1runtime_1_1ObjectRef.html" target="_top" xlink:title="Base class of all object reference. ">
<polygon fill="#ffffff" stroke="#000000" points="393,-1110.5 393,-1332.5 527,-1332.5 527,-1110.5 393,-1110.5"/>
<text text-anchor="middle" x="460" y="-1320.5" font-family="Helvetica,sans-Serif" font-size="10.00" fill="#000000">tvm::runtime::ObjectRef</text>
<polyline fill="none" stroke="#000000" points="393,-1313.5 527,-1313.5 "/>
<text text-anchor="start" x="401" y="-1301.5" font-family="Helvetica,sans-Serif" font-size="10.00" fill="#000000">+ _type_is_nullable</text>
<polyline fill="none" stroke="#000000" points="393,-1294.5 527,-1294.5 "/>
<text text-anchor="start" x="401" y="-1282.5" font-family="Helvetica,sans-Serif" font-size="10.00" fill="#000000">+ ObjectRef()</text>
<text text-anchor="start" x="401" y="-1271.5" font-family="Helvetica,sans-Serif" font-size="10.00" fill="#000000">+ ObjectRef()</text>
<text text-anchor="start" x="401" y="-1260.5" font-family="Helvetica,sans-Serif" font-size="10.00" fill="#000000">+ same_as()</text>
<text text-anchor="start" x="401" y="-1249.5" font-family="Helvetica,sans-Serif" font-size="10.00" fill="#000000">+ operator==()</text>
<text text-anchor="start" x="401" y="-1238.5" font-family="Helvetica,sans-Serif" font-size="10.00" fill="#000000">+ operator!=()</text>
<text text-anchor="start" x="401" y="-1227.5" font-family="Helvetica,sans-Serif" font-size="10.00" fill="#000000">+ operator&lt;()</text>
<text text-anchor="start" x="401" y="-1216.5" font-family="Helvetica,sans-Serif" font-size="10.00" fill="#000000">+ defined()</text>
<text text-anchor="start" x="401" y="-1205.5" font-family="Helvetica,sans-Serif" font-size="10.00" fill="#000000">+ get()</text>
<text text-anchor="start" x="401" y="-1194.5" font-family="Helvetica,sans-Serif" font-size="10.00" fill="#000000">+ operator&#45;&gt;()</text>
<text text-anchor="start" x="401" y="-1183.5" font-family="Helvetica,sans-Serif" font-size="10.00" fill="#000000">+ unique()</text>
<text text-anchor="start" x="401" y="-1172.5" font-family="Helvetica,sans-Serif" font-size="10.00" fill="#000000">+ use_count()</text>
<text text-anchor="start" x="401" y="-1161.5" font-family="Helvetica,sans-Serif" font-size="10.00" fill="#000000">+ as()</text>
<text text-anchor="start" x="401" y="-1150.5" font-family="Helvetica,sans-Serif" font-size="10.00" fill="#000000"># get_mutable()</text>
<text text-anchor="start" x="401" y="-1139.5" font-family="Helvetica,sans-Serif" font-size="10.00" fill="#000000"># DowncastNoCheck()</text>
<text text-anchor="start" x="401" y="-1128.5" font-family="Helvetica,sans-Serif" font-size="10.00" fill="#000000"># FFIClearAfterMove()</text>
<text text-anchor="start" x="401" y="-1117.5" font-family="Helvetica,sans-Serif" font-size="10.00" fill="#000000"># GetDataPtr()</text>
</a>
</g>
</g>
<!-- Node9&#45;&gt;Node5 -->
<g id="edge8" class="edge">
<title>Node9&#45;&gt;Node5</title>
<path fill="none" stroke="#404040" d="M527.1207,-1121.5377C534.8864,-1105.8592 541.5939,-1089.4002 546,-1073 587.3244,-919.1845 582.4586,-500.8066 514,-357 493.9044,-314.7864 458.4749,-277.2164 425.2289,-248.4531"/>
<polygon fill="none" stroke="#404040" points="425.0837,-248.3302 417.9197,-247.5069 415.9243,-240.5774 423.0883,-241.4007 425.0837,-248.3302"/>
<text text-anchor="middle" x="612" y="-575" font-family="Helvetica,sans-Serif" font-size="10.00" fill="#000000"> +virtual_device_</text>
</g>
<!-- Node9&#45;&gt;Node8 -->
<g id="edge6" class="edge">
<title>Node9&#45;&gt;Node8</title>
<path fill="none" stroke="#191970" d="M460,-1100.1895C460,-1039.0976 460,-968.7137 460,-924.0565"/>
<polygon fill="none" stroke="#191970" points="456.5001,-1100.3 460,-1110.3001 463.5001,-1100.3001 456.5001,-1100.3"/>
</g>
<!-- Node11 -->
<g id="node8" class="node">
<title>Node11</title>
<g id="a_node8"><a xlink:href="classtvm_1_1Type.html" target="_top" xlink:title="Managed reference to TypeNode. ">
<polygon fill="#ffffff" stroke="#000000" points="0,-379.5 0,-447.5 154,-447.5 154,-379.5 0,-379.5"/>
<text text-anchor="middle" x="77" y="-435.5" font-family="Helvetica,sans-Serif" font-size="10.00" fill="#000000">tvm::Type</text>
<polyline fill="none" stroke="#000000" points="0,-428.5 154,-428.5 "/>
<text text-anchor="middle" x="77" y="-416.5" font-family="Helvetica,sans-Serif" font-size="10.00" fill="#000000"> </text>
<polyline fill="none" stroke="#000000" points="0,-409.5 154,-409.5 "/>
<text text-anchor="start" x="8" y="-397.5" font-family="Helvetica,sans-Serif" font-size="10.00" fill="#000000">+ TVM_DEFINE_OBJECT_REF</text>
<text text-anchor="start" x="8" y="-386.5" font-family="Helvetica,sans-Serif" font-size="10.00" fill="#000000">_METHODS()</text>
</a>
</g>
</g>
<!-- Node9&#45;&gt;Node11 -->
<g id="edge10" class="edge">
<title>Node9&#45;&gt;Node11</title>
<path fill="none" stroke="#191970" d="M382.9058,-1203.5414C279.7106,-1177.7007 105.587,-1127.1484 71,-1073 -59.3608,-868.9107 29.7746,-551.8988 64.7021,-447.8544"/>
<polygon fill="none" stroke="#191970" points="382.1152,-1206.9513 392.6639,-1205.9642 383.802,-1200.1575 382.1152,-1206.9513"/>
</g>
<!-- Node12 -->
<g id="node9" class="node">
<title>Node12</title>
<g id="a_node9"><a xlink:href="classtvm_1_1runtime_1_1Optional.html" target="_top" xlink:title="{tvm::runtime::Optional\l\&lt; tvm::runtime::ObjectRef \&gt;\n|+ _type_is_nullable\l|+ Optional()\l+ Optional()\l+ Optional()\l+ Optional()\l+ Optional()\l+ Optional()\l+ Optional()\l+ Optional()\l+ operator=()\l+ operator=()\land 15 more...\l}">
<polygon fill="#ffffff" stroke="#000000" points="96,-488.5 96,-666.5 252,-666.5 252,-488.5 96,-488.5"/>
<text text-anchor="start" x="104" y="-654.5" font-family="Helvetica,sans-Serif" font-size="10.00" fill="#000000">tvm::runtime::Optional</text>
<text text-anchor="middle" x="174" y="-643.5" font-family="Helvetica,sans-Serif" font-size="10.00" fill="#000000">&lt; tvm::runtime::ObjectRef &gt;</text>
<polyline fill="none" stroke="#000000" points="96,-636.5 252,-636.5 "/>
<text text-anchor="start" x="104" y="-624.5" font-family="Helvetica,sans-Serif" font-size="10.00" fill="#000000">+ _type_is_nullable</text>
<polyline fill="none" stroke="#000000" points="96,-617.5 252,-617.5 "/>
<text text-anchor="start" x="104" y="-605.5" font-family="Helvetica,sans-Serif" font-size="10.00" fill="#000000">+ Optional()</text>
<text text-anchor="start" x="104" y="-594.5" font-family="Helvetica,sans-Serif" font-size="10.00" fill="#000000">+ Optional()</text>
<text text-anchor="start" x="104" y="-583.5" font-family="Helvetica,sans-Serif" font-size="10.00" fill="#000000">+ Optional()</text>
<text text-anchor="start" x="104" y="-572.5" font-family="Helvetica,sans-Serif" font-size="10.00" fill="#000000">+ Optional()</text>
<text text-anchor="start" x="104" y="-561.5" font-family="Helvetica,sans-Serif" font-size="10.00" fill="#000000">+ Optional()</text>
<text text-anchor="start" x="104" y="-550.5" font-family="Helvetica,sans-Serif" font-size="10.00" fill="#000000">+ Optional()</text>
<text text-anchor="start" x="104" y="-539.5" font-family="Helvetica,sans-Serif" font-size="10.00" fill="#000000">+ Optional()</text>
<text text-anchor="start" x="104" y="-528.5" font-family="Helvetica,sans-Serif" font-size="10.00" fill="#000000">+ Optional()</text>
<text text-anchor="start" x="104" y="-517.5" font-family="Helvetica,sans-Serif" font-size="10.00" fill="#000000">+ operator=()</text>
<text text-anchor="start" x="104" y="-506.5" font-family="Helvetica,sans-Serif" font-size="10.00" fill="#000000">+ operator=()</text>
<text text-anchor="start" x="104" y="-495.5" font-family="Helvetica,sans-Serif" font-size="10.00" fill="#000000">and 15 more...</text>
</a>
</g>
</g>
<!-- Node9&#45;&gt;Node12 -->
<g id="edge12" class="edge">
<title>Node9&#45;&gt;Node12</title>
<path fill="none" stroke="#191970" d="M382.8484,-1214.0098C297.6803,-1201.1549 164.3923,-1166.4277 102,-1073 54.1156,-1001.2968 76.9257,-767.4958 102,-685 103.8617,-678.8749 106.2013,-672.7812 108.8892,-666.7879"/>
<polygon fill="none" stroke="#191970" points="382.5911,-1217.5088 392.9882,-1215.4715 383.5899,-1210.5804 382.5911,-1217.5088"/>
</g>
<!-- Node13 -->
<g id="node10" class="node">
<title>Node13</title>
<g id="a_node10"><a xlink:href="classtvm_1_1relay_1_1Id.html" target="_top" xlink:title="{tvm::relay::Id\n||+ Id()\l+ TVM_DEFINE_OBJECT_REF\l_METHODS()\l}">
<polygon fill="#ffffff" stroke="#000000" points="584,-259.5 584,-338.5 738,-338.5 738,-259.5 584,-259.5"/>
<text text-anchor="middle" x="661" y="-326.5" font-family="Helvetica,sans-Serif" font-size="10.00" fill="#000000">tvm::relay::Id</text>
<polyline fill="none" stroke="#000000" points="584,-319.5 738,-319.5 "/>
<text text-anchor="middle" x="661" y="-307.5" font-family="Helvetica,sans-Serif" font-size="10.00" fill="#000000"> </text>
<polyline fill="none" stroke="#000000" points="584,-300.5 738,-300.5 "/>
<text text-anchor="start" x="592" y="-288.5" font-family="Helvetica,sans-Serif" font-size="10.00" fill="#000000">+ Id()</text>
<text text-anchor="start" x="592" y="-277.5" font-family="Helvetica,sans-Serif" font-size="10.00" fill="#000000">+ TVM_DEFINE_OBJECT_REF</text>
<text text-anchor="start" x="592" y="-266.5" font-family="Helvetica,sans-Serif" font-size="10.00" fill="#000000">_METHODS()</text>
</a>
</g>
</g>
<!-- Node9&#45;&gt;Node13 -->
<g id="edge14" class="edge">
<title>Node9&#45;&gt;Node13</title>
<path fill="none" stroke="#191970" d="M534.0114,-1155.4638C551.2192,-1136.5773 567.7682,-1114.8629 579,-1092 708.0752,-829.261 679.8437,-459.3871 666.1287,-338.7371"/>
<polygon fill="none" stroke="#191970" points="531.3993,-1153.1329 527.1348,-1162.8316 536.5167,-1157.9092 531.3993,-1153.1329"/>
</g>
<!-- Node10 -->
<g id="node7" class="node">
<title>Node10</title>
<g id="a_node7"><a xlink:href="classtvm_1_1runtime_1_1ObjectPtr.html" target="_top" xlink:title="{tvm::runtime::ObjectPtr\l\&lt; tvm::runtime::Object \&gt;\n||+ ObjectPtr()\l+ ObjectPtr()\l+ ObjectPtr()\l+ ObjectPtr()\l+ ObjectPtr()\l+ ObjectPtr()\l+ ~ObjectPtr()\l+ swap()\l+ get()\l+ operator&#45;\&gt;()\land 11 more...\l}">
<polygon fill="#ffffff" stroke="#000000" points="390,-1380.5 390,-1558.5 530,-1558.5 530,-1380.5 390,-1380.5"/>
<text text-anchor="start" x="398" y="-1546.5" font-family="Helvetica,sans-Serif" font-size="10.00" fill="#000000">tvm::runtime::ObjectPtr</text>
<text text-anchor="middle" x="460" y="-1535.5" font-family="Helvetica,sans-Serif" font-size="10.00" fill="#000000">&lt; tvm::runtime::Object &gt;</text>
<polyline fill="none" stroke="#000000" points="390,-1528.5 530,-1528.5 "/>
<text text-anchor="middle" x="460" y="-1516.5" font-family="Helvetica,sans-Serif" font-size="10.00" fill="#000000"> </text>
<polyline fill="none" stroke="#000000" points="390,-1509.5 530,-1509.5 "/>
<text text-anchor="start" x="398" y="-1497.5" font-family="Helvetica,sans-Serif" font-size="10.00" fill="#000000">+ ObjectPtr()</text>
<text text-anchor="start" x="398" y="-1486.5" font-family="Helvetica,sans-Serif" font-size="10.00" fill="#000000">+ ObjectPtr()</text>
<text text-anchor="start" x="398" y="-1475.5" font-family="Helvetica,sans-Serif" font-size="10.00" fill="#000000">+ ObjectPtr()</text>
<text text-anchor="start" x="398" y="-1464.5" font-family="Helvetica,sans-Serif" font-size="10.00" fill="#000000">+ ObjectPtr()</text>
<text text-anchor="start" x="398" y="-1453.5" font-family="Helvetica,sans-Serif" font-size="10.00" fill="#000000">+ ObjectPtr()</text>
<text text-anchor="start" x="398" y="-1442.5" font-family="Helvetica,sans-Serif" font-size="10.00" fill="#000000">+ ObjectPtr()</text>
<text text-anchor="start" x="398" y="-1431.5" font-family="Helvetica,sans-Serif" font-size="10.00" fill="#000000">+ ~ObjectPtr()</text>
<text text-anchor="start" x="398" y="-1420.5" font-family="Helvetica,sans-Serif" font-size="10.00" fill="#000000">+ swap()</text>
<text text-anchor="start" x="398" y="-1409.5" font-family="Helvetica,sans-Serif" font-size="10.00" fill="#000000">+ get()</text>
<text text-anchor="start" x="398" y="-1398.5" font-family="Helvetica,sans-Serif" font-size="10.00" fill="#000000">+ operator&#45;&gt;()</text>
<text text-anchor="start" x="398" y="-1387.5" font-family="Helvetica,sans-Serif" font-size="10.00" fill="#000000">and 11 more...</text>
</a>
</g>
</g>
<!-- Node10&#45;&gt;Node9 -->
<g id="edge7" class="edge">
<title>Node10&#45;&gt;Node9</title>
<path fill="none" stroke="#404040" d="M460,-1380.3167C460,-1368.8765 460,-1357.0062 460,-1345.1402"/>
<polygon fill="none" stroke="#404040" points="460.0001,-1344.7944 456,-1338.7944 460,-1332.7944 464,-1338.7943 460.0001,-1344.7944"/>
<text text-anchor="middle" x="479.5" y="-1354" font-family="Helvetica,sans-Serif" font-size="10.00" fill="#000000"> #data_</text>
</g>
<!-- Node11&#45;&gt;Node4 -->
<g id="edge15" class="edge">
<title>Node11&#45;&gt;Node4</title>
<path fill="none" stroke="#404040" d="M74.4462,-379.0789C72.1647,-321.1891 76.5271,-204.2815 141,-139 165.245,-114.4509 197.4544,-96.3133 229.1021,-83.104"/>
<polygon fill="none" stroke="#404040" points="229.1194,-83.0971 233.2016,-77.1528 240.2588,-78.6347 236.1766,-84.5791 229.1194,-83.0971"/>
<text text-anchor="middle" x="186.5" y="-187.5" font-family="Helvetica,sans-Serif" font-size="10.00" fill="#000000"> +type_annotation</text>
</g>
<!-- Node11&#45;&gt;Node5 -->
<g id="edge9" class="edge">
<title>Node11&#45;&gt;Node5</title>
<path fill="none" stroke="#404040" d="M82.6597,-379.1582C90.0005,-336.3662 102.83,-267.764 111,-259 111,-259 170.5472,-241.4412 229.5639,-224.0389"/>
<polygon fill="none" stroke="#404040" points="229.8323,-223.9598 234.4559,-218.4261 241.3423,-220.5657 236.7186,-226.0994 229.8323,-223.9598"/>
<text text-anchor="middle" x="153.5" y="-296.5" font-family="Helvetica,sans-Serif" font-size="10.00" fill="#000000"> +checked_type_</text>
</g>
<!-- Node12&#45;&gt;Node5 -->
<g id="edge11" class="edge">
<title>Node12&#45;&gt;Node5</title>
<path fill="none" stroke="#404040" d="M183.0149,-488.3209C189.4687,-447.0343 200.4411,-398.1332 219,-357 236.4544,-318.3146 264.2271,-280.1506 289.2616,-250.0922"/>
<polygon fill="none" stroke="#404040" points="289.5218,-249.7849 290.3469,-242.6211 297.2769,-240.6274 296.4519,-247.7912 289.5218,-249.7849"/>
<text text-anchor="middle" x="253.5" y="-411" font-family="Helvetica,sans-Serif" font-size="10.00" fill="#000000"> +struct_info_</text>
</g>
<!-- Node13&#45;&gt;Node4 -->
<g id="edge13" class="edge">
<title>Node13&#45;&gt;Node4</title>
<path fill="none" stroke="#404040" d="M610.5794,-259.4294C558.9157,-218.8832 478.027,-155.401 419.0864,-109.1437"/>
<polygon fill="none" stroke="#404040" points="418.8956,-108.994 411.706,-108.4364 409.4556,-101.5854 416.6451,-102.143 418.8956,-108.994"/>
<text text-anchor="middle" x="599.5" y="-187.5" font-family="Helvetica,sans-Serif" font-size="10.00" fill="#000000"> +vid</text>
</g>
</g>
</svg>
