<?xml version="1.0" encoding="UTF-8" standalone="no"?>
<!DOCTYPE svg PUBLIC "-//W3C//DTD SVG 1.1//EN"
 "http://www.w3.org/Graphics/SVG/1.1/DTD/svg11.dtd">
<!-- Generated by graphviz version 2.40.1 (20161225.0304)
 -->
<!-- Title: tvm::relay::LetNode Pages: 1 -->
<svg width="889pt" height="1599pt"
 viewBox="0.00 0.00 889.00 1599.00" xmlns="http://www.w3.org/2000/svg" xmlns:xlink="http://www.w3.org/1999/xlink">
<g id="graph0" class="graph" transform="scale(1 1) rotate(0) translate(4 1595)">
<title>tvm::relay::LetNode</title>
<polygon fill="#ffffff" stroke="transparent" points="-4,4 -4,-1595 885,-1595 885,4 -4,4"/>
<!-- Node4 -->
<g id="node1" class="node">
<title>Node4</title>
<polygon fill="#bfbfbf" stroke="#000000" points="586.5,-.5 586.5,-112.5 795.5,-112.5 795.5,-.5 586.5,-.5"/>
<text text-anchor="middle" x="691" y="-100.5" font-family="Helvetica,sans-Serif" font-size="10.00" fill="#000000">tvm::relay::LetNode</text>
<polyline fill="none" stroke="#000000" points="586.5,-93.5 795.5,-93.5 "/>
<text text-anchor="start" x="594.5" y="-81.5" font-family="Helvetica,sans-Serif" font-size="10.00" fill="#000000">+ _type_key</text>
<text text-anchor="start" x="594.5" y="-70.5" font-family="Helvetica,sans-Serif" font-size="10.00" fill="#000000"># saved_deleter_</text>
<polyline fill="none" stroke="#000000" points="586.5,-63.5 795.5,-63.5 "/>
<text text-anchor="start" x="594.5" y="-51.5" font-family="Helvetica,sans-Serif" font-size="10.00" fill="#000000">+ VisitAttrs()</text>
<text text-anchor="start" x="594.5" y="-40.5" font-family="Helvetica,sans-Serif" font-size="10.00" fill="#000000">+ SEqualReduce()</text>
<text text-anchor="start" x="594.5" y="-29.5" font-family="Helvetica,sans-Serif" font-size="10.00" fill="#000000">+ SHashReduce()</text>
<text text-anchor="start" x="594.5" y="-18.5" font-family="Helvetica,sans-Serif" font-size="10.00" fill="#000000">+ TVM_DECLARE_FINAL_OBJECT_INFO()</text>
<text text-anchor="start" x="594.5" y="-7.5" font-family="Helvetica,sans-Serif" font-size="10.00" fill="#000000"># Deleter_()</text>
</g>
<!-- Node5 -->
<g id="node2" class="node">
<title>Node5</title>
<g id="a_node2"><a xlink:href="classtvm_1_1RelayExprNode.html" target="_top" xlink:title="Base node of all non&#45;primitive expressions. ">
<polygon fill="#ffffff" stroke="#000000" points="340.5,-171.5 340.5,-272.5 547.5,-272.5 547.5,-171.5 340.5,-171.5"/>
<text text-anchor="middle" x="444" y="-260.5" font-family="Helvetica,sans-Serif" font-size="10.00" fill="#000000">ExprNode</text>
<polyline fill="none" stroke="#000000" points="340.5,-253.5 547.5,-253.5 "/>
<text text-anchor="start" x="348.5" y="-241.5" font-family="Helvetica,sans-Serif" font-size="10.00" fill="#000000">+ _type_key</text>
<text text-anchor="start" x="348.5" y="-230.5" font-family="Helvetica,sans-Serif" font-size="10.00" fill="#000000">+ _type_child_slots</text>
<polyline fill="none" stroke="#000000" points="340.5,-223.5 547.5,-223.5 "/>
<text text-anchor="start" x="348.5" y="-211.5" font-family="Helvetica,sans-Serif" font-size="10.00" fill="#000000">+ checked_type()</text>
<text text-anchor="start" x="348.5" y="-200.5" font-family="Helvetica,sans-Serif" font-size="10.00" fill="#000000">+ type_as()</text>
<text text-anchor="start" x="348.5" y="-189.5" font-family="Helvetica,sans-Serif" font-size="10.00" fill="#000000">+ virtual_device()</text>
<text text-anchor="start" x="348.5" y="-178.5" font-family="Helvetica,sans-Serif" font-size="10.00" fill="#000000">+ TVM_DECLARE_BASE_OBJECT_INFO()</text>
</a>
</g>
</g>
<!-- Node5&#45;&gt;Node4 -->
<g id="edge1" class="edge">
<title>Node5&#45;&gt;Node4</title>
<path fill="none" stroke="#191970" d="M528.0344,-165.6935C553.6547,-148.5269 581.8071,-129.6637 607.3986,-112.5163"/>
<polygon fill="none" stroke="#191970" points="525.8096,-162.9712 519.4503,-171.4453 529.7061,-168.7865 525.8096,-162.9712"/>
</g>
<!-- Node6 -->
<g id="node3" class="node">
<title>Node6</title>
<g id="a_node3"><a xlink:href="classtvm_1_1BaseExprNode.html" target="_top" xlink:title="Base type of all the expressions. ">
<polygon fill="#ffffff" stroke="#000000" points="340.5,-389.5 340.5,-501.5 547.5,-501.5 547.5,-389.5 340.5,-389.5"/>
<text text-anchor="middle" x="444" y="-489.5" font-family="Helvetica,sans-Serif" font-size="10.00" fill="#000000">tvm::BaseExprNode</text>
<polyline fill="none" stroke="#000000" points="340.5,-482.5 547.5,-482.5 "/>
<text text-anchor="start" x="348.5" y="-470.5" font-family="Helvetica,sans-Serif" font-size="10.00" fill="#000000">+ _type_key</text>
<text text-anchor="start" x="348.5" y="-459.5" font-family="Helvetica,sans-Serif" font-size="10.00" fill="#000000">+ _type_has_method_sequal</text>
<text text-anchor="start" x="348.5" y="-448.5" font-family="Helvetica,sans-Serif" font-size="10.00" fill="#000000">_reduce</text>
<text text-anchor="start" x="348.5" y="-437.5" font-family="Helvetica,sans-Serif" font-size="10.00" fill="#000000">+ _type_has_method_shash</text>
<text text-anchor="start" x="348.5" y="-426.5" font-family="Helvetica,sans-Serif" font-size="10.00" fill="#000000">_reduce</text>
<text text-anchor="start" x="348.5" y="-415.5" font-family="Helvetica,sans-Serif" font-size="10.00" fill="#000000">+ _type_child_slots</text>
<polyline fill="none" stroke="#000000" points="340.5,-408.5 547.5,-408.5 "/>
<text text-anchor="start" x="348.5" y="-396.5" font-family="Helvetica,sans-Serif" font-size="10.00" fill="#000000">+ TVM_DECLARE_BASE_OBJECT_INFO()</text>
</a>
</g>
</g>
<!-- Node6&#45;&gt;Node5 -->
<g id="edge2" class="edge">
<title>Node6&#45;&gt;Node5</title>
<path fill="none" stroke="#191970" d="M444,-379.064C444,-345.036 444,-304.2593 444,-272.7827"/>
<polygon fill="none" stroke="#191970" points="440.5001,-379.39 444,-389.39 447.5001,-379.39 440.5001,-379.39"/>
</g>
<!-- Node7 -->
<g id="node4" class="node">
<title>Node7</title>
<g id="a_node4"><a xlink:href="classtvm_1_1runtime_1_1Object.html" target="_top" xlink:title="base class of all object containers. ">
<polygon fill="#ffffff" stroke="#000000" points="140.5,-717.5 140.5,-1104.5 323.5,-1104.5 323.5,-717.5 140.5,-717.5"/>
<text text-anchor="middle" x="232" y="-1092.5" font-family="Helvetica,sans-Serif" font-size="10.00" fill="#000000">tvm::runtime::Object</text>
<polyline fill="none" stroke="#000000" points="140.5,-1085.5 323.5,-1085.5 "/>
<text text-anchor="start" x="148.5" y="-1073.5" font-family="Helvetica,sans-Serif" font-size="10.00" fill="#000000">+ _type_key</text>
<text text-anchor="start" x="148.5" y="-1062.5" font-family="Helvetica,sans-Serif" font-size="10.00" fill="#000000">+ _type_final</text>
<text text-anchor="start" x="148.5" y="-1051.5" font-family="Helvetica,sans-Serif" font-size="10.00" fill="#000000">+ _type_child_slots</text>
<text text-anchor="start" x="148.5" y="-1040.5" font-family="Helvetica,sans-Serif" font-size="10.00" fill="#000000">+ _type_child_slots_can</text>
<text text-anchor="start" x="148.5" y="-1029.5" font-family="Helvetica,sans-Serif" font-size="10.00" fill="#000000">_overflow</text>
<text text-anchor="start" x="148.5" y="-1018.5" font-family="Helvetica,sans-Serif" font-size="10.00" fill="#000000">+ _type_has_method_visit</text>
<text text-anchor="start" x="148.5" y="-1007.5" font-family="Helvetica,sans-Serif" font-size="10.00" fill="#000000">_attrs</text>
<text text-anchor="start" x="148.5" y="-996.5" font-family="Helvetica,sans-Serif" font-size="10.00" fill="#000000">+ _type_has_method_sequal</text>
<text text-anchor="start" x="148.5" y="-985.5" font-family="Helvetica,sans-Serif" font-size="10.00" fill="#000000">_reduce</text>
<text text-anchor="start" x="148.5" y="-974.5" font-family="Helvetica,sans-Serif" font-size="10.00" fill="#000000">+ _type_has_method_shash</text>
<text text-anchor="start" x="148.5" y="-963.5" font-family="Helvetica,sans-Serif" font-size="10.00" fill="#000000">_reduce</text>
<text text-anchor="start" x="148.5" y="-952.5" font-family="Helvetica,sans-Serif" font-size="10.00" fill="#000000">+ _type_index</text>
<text text-anchor="start" x="148.5" y="-941.5" font-family="Helvetica,sans-Serif" font-size="10.00" fill="#000000"># type_index_</text>
<text text-anchor="start" x="148.5" y="-930.5" font-family="Helvetica,sans-Serif" font-size="10.00" fill="#000000"># ref_counter_</text>
<polyline fill="none" stroke="#000000" points="140.5,-923.5 323.5,-923.5 "/>
<text text-anchor="start" x="148.5" y="-911.5" font-family="Helvetica,sans-Serif" font-size="10.00" fill="#000000">+ type_index()</text>
<text text-anchor="start" x="148.5" y="-900.5" font-family="Helvetica,sans-Serif" font-size="10.00" fill="#000000">+ GetTypeKey()</text>
<text text-anchor="start" x="148.5" y="-889.5" font-family="Helvetica,sans-Serif" font-size="10.00" fill="#000000">+ GetTypeKeyHash()</text>
<text text-anchor="start" x="148.5" y="-878.5" font-family="Helvetica,sans-Serif" font-size="10.00" fill="#000000">+ IsInstance()</text>
<text text-anchor="start" x="148.5" y="-867.5" font-family="Helvetica,sans-Serif" font-size="10.00" fill="#000000">+ unique()</text>
<text text-anchor="start" x="148.5" y="-856.5" font-family="Helvetica,sans-Serif" font-size="10.00" fill="#000000">+ Object()</text>
<text text-anchor="start" x="148.5" y="-845.5" font-family="Helvetica,sans-Serif" font-size="10.00" fill="#000000">+ Object()</text>
<text text-anchor="start" x="148.5" y="-834.5" font-family="Helvetica,sans-Serif" font-size="10.00" fill="#000000">+ Object()</text>
<text text-anchor="start" x="148.5" y="-823.5" font-family="Helvetica,sans-Serif" font-size="10.00" fill="#000000">+ operator=()</text>
<text text-anchor="start" x="148.5" y="-812.5" font-family="Helvetica,sans-Serif" font-size="10.00" fill="#000000">+ operator=()</text>
<text text-anchor="start" x="148.5" y="-801.5" font-family="Helvetica,sans-Serif" font-size="10.00" fill="#000000">+ TypeIndex2Key()</text>
<text text-anchor="start" x="148.5" y="-790.5" font-family="Helvetica,sans-Serif" font-size="10.00" fill="#000000">+ TypeIndex2KeyHash()</text>
<text text-anchor="start" x="148.5" y="-779.5" font-family="Helvetica,sans-Serif" font-size="10.00" fill="#000000">+ TypeKey2Index()</text>
<text text-anchor="start" x="148.5" y="-768.5" font-family="Helvetica,sans-Serif" font-size="10.00" fill="#000000">+ _GetOrAllocRuntimeTypeIndex()</text>
<text text-anchor="start" x="148.5" y="-757.5" font-family="Helvetica,sans-Serif" font-size="10.00" fill="#000000">+ RuntimeTypeIndex()</text>
<text text-anchor="start" x="148.5" y="-746.5" font-family="Helvetica,sans-Serif" font-size="10.00" fill="#000000"># IncRef()</text>
<text text-anchor="start" x="148.5" y="-735.5" font-family="Helvetica,sans-Serif" font-size="10.00" fill="#000000"># DecRef()</text>
<text text-anchor="start" x="148.5" y="-724.5" font-family="Helvetica,sans-Serif" font-size="10.00" fill="#000000"># GetOrAllocRuntimeTypeIndex()</text>
</a>
</g>
</g>
<!-- Node7&#45;&gt;Node6 -->
<g id="edge3" class="edge">
<title>Node7&#45;&gt;Node6</title>
<path fill="none" stroke="#191970" d="M324.8144,-708.1843C326.2197,-705.1017 327.6156,-702.0387 329,-699 359.8559,-631.2737 395.2042,-553.2947 418.4739,-501.9068"/>
<polygon fill="none" stroke="#191970" points="321.5372,-706.9354 320.5728,-717.4862 327.9063,-709.8397 321.5372,-706.9354"/>
</g>
<!-- Node7&#45;&gt;Node7 -->
<g id="edge4" class="edge">
<title>Node7&#45;&gt;Node7</title>
<path fill="none" stroke="#404040" d="M323.8625,-944.9248C334.5482,-938.6637 341.5,-927.3555 341.5,-911 341.5,-900.0112 338.3618,-891.3007 333.0615,-884.8687"/>
<polygon fill="none" stroke="#404040" points="333.0184,-884.8322 325.8548,-884.0056 323.8625,-877.0752 331.0261,-877.9017 333.0184,-884.8322"/>
<text text-anchor="middle" x="367.5" y="-908.5" font-family="Helvetica,sans-Serif" font-size="10.00" fill="#000000"> #deleter_</text>
</g>
<!-- Node8 -->
<g id="node5" class="node">
<title>Node8</title>
<g id="a_node5"><a xlink:href="classtvm_1_1Span.html" target="_top" xlink:title="{tvm::Span\n||+ Span()\l+ Merge()\l+ TVM_DEFINE_OBJECT_REF\l_METHODS()\l}">
<polygon fill="#ffffff" stroke="#000000" points="412,-866 412,-956 566,-956 566,-866 412,-866"/>
<text text-anchor="middle" x="489" y="-944" font-family="Helvetica,sans-Serif" font-size="10.00" fill="#000000">tvm::Span</text>
<polyline fill="none" stroke="#000000" points="412,-937 566,-937 "/>
<text text-anchor="middle" x="489" y="-925" font-family="Helvetica,sans-Serif" font-size="10.00" fill="#000000"> </text>
<polyline fill="none" stroke="#000000" points="412,-918 566,-918 "/>
<text text-anchor="start" x="420" y="-906" font-family="Helvetica,sans-Serif" font-size="10.00" fill="#000000">+ Span()</text>
<text text-anchor="start" x="420" y="-895" font-family="Helvetica,sans-Serif" font-size="10.00" fill="#000000">+ Merge()</text>
<text text-anchor="start" x="420" y="-884" font-family="Helvetica,sans-Serif" font-size="10.00" fill="#000000">+ TVM_DEFINE_OBJECT_REF</text>
<text text-anchor="start" x="420" y="-873" font-family="Helvetica,sans-Serif" font-size="10.00" fill="#000000">_METHODS()</text>
</a>
</g>
</g>
<!-- Node8&#45;&gt;Node6 -->
<g id="edge5" class="edge">
<title>Node8&#45;&gt;Node6</title>
<path fill="none" stroke="#404040" d="M484.6443,-865.9429C476.7227,-783.9983 459.9162,-610.1447 450.587,-513.639"/>
<polygon fill="none" stroke="#404040" points="450.587,-513.6384 446.0282,-508.0511 449.4323,-501.6941 453.9911,-507.2813 450.587,-513.6384"/>
<text text-anchor="middle" x="485.5" y="-607" font-family="Helvetica,sans-Serif" font-size="10.00" fill="#000000"> +span</text>
</g>
<!-- Node9 -->
<g id="node6" class="node">
<title>Node9</title>
<g id="a_node6"><a xlink:href="classtvm_1_1runtime_1_1ObjectRef.html" target="_top" xlink:title="Base class of all object reference. ">
<polygon fill="#ffffff" stroke="#000000" points="422,-1142.5 422,-1364.5 556,-1364.5 556,-1142.5 422,-1142.5"/>
<text text-anchor="middle" x="489" y="-1352.5" font-family="Helvetica,sans-Serif" font-size="10.00" fill="#000000">tvm::runtime::ObjectRef</text>
<polyline fill="none" stroke="#000000" points="422,-1345.5 556,-1345.5 "/>
<text text-anchor="start" x="430" y="-1333.5" font-family="Helvetica,sans-Serif" font-size="10.00" fill="#000000">+ _type_is_nullable</text>
<polyline fill="none" stroke="#000000" points="422,-1326.5 556,-1326.5 "/>
<text text-anchor="start" x="430" y="-1314.5" font-family="Helvetica,sans-Serif" font-size="10.00" fill="#000000">+ ObjectRef()</text>
<text text-anchor="start" x="430" y="-1303.5" font-family="Helvetica,sans-Serif" font-size="10.00" fill="#000000">+ ObjectRef()</text>
<text text-anchor="start" x="430" y="-1292.5" font-family="Helvetica,sans-Serif" font-size="10.00" fill="#000000">+ same_as()</text>
<text text-anchor="start" x="430" y="-1281.5" font-family="Helvetica,sans-Serif" font-size="10.00" fill="#000000">+ operator==()</text>
<text text-anchor="start" x="430" y="-1270.5" font-family="Helvetica,sans-Serif" font-size="10.00" fill="#000000">+ operator!=()</text>
<text text-anchor="start" x="430" y="-1259.5" font-family="Helvetica,sans-Serif" font-size="10.00" fill="#000000">+ operator&lt;()</text>
<text text-anchor="start" x="430" y="-1248.5" font-family="Helvetica,sans-Serif" font-size="10.00" fill="#000000">+ defined()</text>
<text text-anchor="start" x="430" y="-1237.5" font-family="Helvetica,sans-Serif" font-size="10.00" fill="#000000">+ get()</text>
<text text-anchor="start" x="430" y="-1226.5" font-family="Helvetica,sans-Serif" font-size="10.00" fill="#000000">+ operator&#45;&gt;()</text>
<text text-anchor="start" x="430" y="-1215.5" font-family="Helvetica,sans-Serif" font-size="10.00" fill="#000000">+ unique()</text>
<text text-anchor="start" x="430" y="-1204.5" font-family="Helvetica,sans-Serif" font-size="10.00" fill="#000000">+ use_count()</text>
<text text-anchor="start" x="430" y="-1193.5" font-family="Helvetica,sans-Serif" font-size="10.00" fill="#000000">+ as()</text>
<text text-anchor="start" x="430" y="-1182.5" font-family="Helvetica,sans-Serif" font-size="10.00" fill="#000000"># get_mutable()</text>
<text text-anchor="start" x="430" y="-1171.5" font-family="Helvetica,sans-Serif" font-size="10.00" fill="#000000"># DowncastNoCheck()</text>
<text text-anchor="start" x="430" y="-1160.5" font-family="Helvetica,sans-Serif" font-size="10.00" fill="#000000"># FFIClearAfterMove()</text>
<text text-anchor="start" x="430" y="-1149.5" font-family="Helvetica,sans-Serif" font-size="10.00" fill="#000000"># GetDataPtr()</text>
</a>
</g>
</g>
<!-- Node9&#45;&gt;Node5 -->
<g id="edge8" class="edge">
<title>Node9&#45;&gt;Node5</title>
<path fill="none" stroke="#404040" d="M556.1207,-1153.5377C563.8864,-1137.8592 570.5939,-1121.4002 575,-1105 616.2962,-951.2893 607.7992,-539.8369 557,-389 544.0005,-350.4008 519.4764,-312.3923 496.5883,-282.4104"/>
<polygon fill="none" stroke="#404040" points="496.2871,-282.0242 489.4432,-279.7524 488.9079,-272.5611 495.7519,-274.8329 496.2871,-282.0242"/>
<text text-anchor="middle" x="641" y="-607" font-family="Helvetica,sans-Serif" font-size="10.00" fill="#000000"> +virtual_device_</text>
</g>
<!-- Node9&#45;&gt;Node8 -->
<g id="edge6" class="edge">
<title>Node9&#45;&gt;Node8</title>
<path fill="none" stroke="#191970" d="M489,-1132.1895C489,-1071.0976 489,-1000.7137 489,-956.0565"/>
<polygon fill="none" stroke="#191970" points="485.5001,-1132.3 489,-1142.3001 492.5001,-1132.3001 485.5001,-1132.3"/>
</g>
<!-- Node11 -->
<g id="node8" class="node">
<title>Node11</title>
<g id="a_node8"><a xlink:href="classtvm_1_1Type.html" target="_top" xlink:title="Managed reference to TypeNode. ">
<polygon fill="#ffffff" stroke="#000000" points="0,-575.5 0,-643.5 154,-643.5 154,-575.5 0,-575.5"/>
<text text-anchor="middle" x="77" y="-631.5" font-family="Helvetica,sans-Serif" font-size="10.00" fill="#000000">tvm::Type</text>
<polyline fill="none" stroke="#000000" points="0,-624.5 154,-624.5 "/>
<text text-anchor="middle" x="77" y="-612.5" font-family="Helvetica,sans-Serif" font-size="10.00" fill="#000000"> </text>
<polyline fill="none" stroke="#000000" points="0,-605.5 154,-605.5 "/>
<text text-anchor="start" x="8" y="-593.5" font-family="Helvetica,sans-Serif" font-size="10.00" fill="#000000">+ TVM_DEFINE_OBJECT_REF</text>
<text text-anchor="start" x="8" y="-582.5" font-family="Helvetica,sans-Serif" font-size="10.00" fill="#000000">_METHODS()</text>
</a>
</g>
</g>
<!-- Node9&#45;&gt;Node11 -->
<g id="edge10" class="edge">
<title>Node9&#45;&gt;Node11</title>
<path fill="none" stroke="#191970" d="M411.7602,-1235.426C307.759,-1209.3552 131.3793,-1158.4291 94,-1105 -7.0278,-960.5931 42.6747,-730.2157 66.6242,-643.7623"/>
<polygon fill="none" stroke="#191970" points="411.0427,-1238.8541 421.5918,-1237.8707 412.7319,-1232.061 411.0427,-1238.8541"/>
</g>
<!-- Node12 -->
<g id="node9" class="node">
<title>Node12</title>
<g id="a_node9"><a xlink:href="classtvm_1_1runtime_1_1Optional.html" target="_top" xlink:title="{tvm::runtime::Optional\l\&lt; tvm::runtime::ObjectRef \&gt;\n|+ _type_is_nullable\l|+ Optional()\l+ Optional()\l+ Optional()\l+ Optional()\l+ Optional()\l+ Optional()\l+ Optional()\l+ Optional()\l+ operator=()\l+ operator=()\land 15 more...\l}">
<polygon fill="#ffffff" stroke="#000000" points="164,-520.5 164,-698.5 320,-698.5 320,-520.5 164,-520.5"/>
<text text-anchor="start" x="172" y="-686.5" font-family="Helvetica,sans-Serif" font-size="10.00" fill="#000000">tvm::runtime::Optional</text>
<text text-anchor="middle" x="242" y="-675.5" font-family="Helvetica,sans-Serif" font-size="10.00" fill="#000000">&lt; tvm::runtime::ObjectRef &gt;</text>
<polyline fill="none" stroke="#000000" points="164,-668.5 320,-668.5 "/>
<text text-anchor="start" x="172" y="-656.5" font-family="Helvetica,sans-Serif" font-size="10.00" fill="#000000">+ _type_is_nullable</text>
<polyline fill="none" stroke="#000000" points="164,-649.5 320,-649.5 "/>
<text text-anchor="start" x="172" y="-637.5" font-family="Helvetica,sans-Serif" font-size="10.00" fill="#000000">+ Optional()</text>
<text text-anchor="start" x="172" y="-626.5" font-family="Helvetica,sans-Serif" font-size="10.00" fill="#000000">+ Optional()</text>
<text text-anchor="start" x="172" y="-615.5" font-family="Helvetica,sans-Serif" font-size="10.00" fill="#000000">+ Optional()</text>
<text text-anchor="start" x="172" y="-604.5" font-family="Helvetica,sans-Serif" font-size="10.00" fill="#000000">+ Optional()</text>
<text text-anchor="start" x="172" y="-593.5" font-family="Helvetica,sans-Serif" font-size="10.00" fill="#000000">+ Optional()</text>
<text text-anchor="start" x="172" y="-582.5" font-family="Helvetica,sans-Serif" font-size="10.00" fill="#000000">+ Optional()</text>
<text text-anchor="start" x="172" y="-571.5" font-family="Helvetica,sans-Serif" font-size="10.00" fill="#000000">+ Optional()</text>
<text text-anchor="start" x="172" y="-560.5" font-family="Helvetica,sans-Serif" font-size="10.00" fill="#000000">+ Optional()</text>
<text text-anchor="start" x="172" y="-549.5" font-family="Helvetica,sans-Serif" font-size="10.00" fill="#000000">+ operator=()</text>
<text text-anchor="start" x="172" y="-538.5" font-family="Helvetica,sans-Serif" font-size="10.00" fill="#000000">+ operator=()</text>
<text text-anchor="start" x="172" y="-527.5" font-family="Helvetica,sans-Serif" font-size="10.00" fill="#000000">and 15 more...</text>
</a>
</g>
</g>
<!-- Node9&#45;&gt;Node12 -->
<g id="edge12" class="edge">
<title>Node9&#45;&gt;Node12</title>
<path fill="none" stroke="#191970" d="M411.8484,-1246.0098C326.6803,-1233.1549 193.3923,-1198.4277 131,-1105 83.1156,-1033.2968 89.0851,-792.3486 131,-717 138.3744,-703.7433 148.3226,-708.683 160,-699 161.2978,-697.9239 162.5945,-696.8276 163.889,-695.7135"/>
<polygon fill="none" stroke="#191970" points="411.5911,-1249.5088 421.9882,-1247.4715 412.5899,-1242.5804 411.5911,-1249.5088"/>
</g>
<!-- Node14 -->
<g id="node11" class="node">
<title>Node14</title>
<g id="a_node11"><a xlink:href="classtvm_1_1BaseExpr.html" target="_top" xlink:title="Managed reference to BaseExprNode. ">
<polygon fill="#ffffff" stroke="#000000" points="622,-877 622,-945 776,-945 776,-877 622,-877"/>
<text text-anchor="middle" x="699" y="-933" font-family="Helvetica,sans-Serif" font-size="10.00" fill="#000000">tvm::BaseExpr</text>
<polyline fill="none" stroke="#000000" points="622,-926 776,-926 "/>
<text text-anchor="middle" x="699" y="-914" font-family="Helvetica,sans-Serif" font-size="10.00" fill="#000000"> </text>
<polyline fill="none" stroke="#000000" points="622,-907 776,-907 "/>
<text text-anchor="start" x="630" y="-895" font-family="Helvetica,sans-Serif" font-size="10.00" fill="#000000">+ TVM_DEFINE_OBJECT_REF</text>
<text text-anchor="start" x="630" y="-884" font-family="Helvetica,sans-Serif" font-size="10.00" fill="#000000">_METHODS()</text>
</a>
</g>
</g>
<!-- Node9&#45;&gt;Node14 -->
<g id="edge15" class="edge">
<title>Node9&#45;&gt;Node14</title>
<path fill="none" stroke="#191970" d="M562.9268,-1181.6706C579.0356,-1163.7796 595.0994,-1143.9741 608,-1124 645.7437,-1065.5612 674.0323,-988.8332 688.4082,-945.2228"/>
<polygon fill="none" stroke="#191970" points="560.1932,-1179.4736 556.0294,-1189.2159 565.3598,-1184.1965 560.1932,-1179.4736"/>
</g>
<!-- Node10 -->
<g id="node7" class="node">
<title>Node10</title>
<g id="a_node7"><a xlink:href="classtvm_1_1runtime_1_1ObjectPtr.html" target="_top" xlink:title="{tvm::runtime::ObjectPtr\l\&lt; tvm::runtime::Object \&gt;\n||+ ObjectPtr()\l+ ObjectPtr()\l+ ObjectPtr()\l+ ObjectPtr()\l+ ObjectPtr()\l+ ObjectPtr()\l+ ~ObjectPtr()\l+ swap()\l+ get()\l+ operator&#45;\&gt;()\land 11 more...\l}">
<polygon fill="#ffffff" stroke="#000000" points="419,-1412.5 419,-1590.5 559,-1590.5 559,-1412.5 419,-1412.5"/>
<text text-anchor="start" x="427" y="-1578.5" font-family="Helvetica,sans-Serif" font-size="10.00" fill="#000000">tvm::runtime::ObjectPtr</text>
<text text-anchor="middle" x="489" y="-1567.5" font-family="Helvetica,sans-Serif" font-size="10.00" fill="#000000">&lt; tvm::runtime::Object &gt;</text>
<polyline fill="none" stroke="#000000" points="419,-1560.5 559,-1560.5 "/>
<text text-anchor="middle" x="489" y="-1548.5" font-family="Helvetica,sans-Serif" font-size="10.00" fill="#000000"> </text>
<polyline fill="none" stroke="#000000" points="419,-1541.5 559,-1541.5 "/>
<text text-anchor="start" x="427" y="-1529.5" font-family="Helvetica,sans-Serif" font-size="10.00" fill="#000000">+ ObjectPtr()</text>
<text text-anchor="start" x="427" y="-1518.5" font-family="Helvetica,sans-Serif" font-size="10.00" fill="#000000">+ ObjectPtr()</text>
<text text-anchor="start" x="427" y="-1507.5" font-family="Helvetica,sans-Serif" font-size="10.00" fill="#000000">+ ObjectPtr()</text>
<text text-anchor="start" x="427" y="-1496.5" font-family="Helvetica,sans-Serif" font-size="10.00" fill="#000000">+ ObjectPtr()</text>
<text text-anchor="start" x="427" y="-1485.5" font-family="Helvetica,sans-Serif" font-size="10.00" fill="#000000">+ ObjectPtr()</text>
<text text-anchor="start" x="427" y="-1474.5" font-family="Helvetica,sans-Serif" font-size="10.00" fill="#000000">+ ObjectPtr()</text>
<text text-anchor="start" x="427" y="-1463.5" font-family="Helvetica,sans-Serif" font-size="10.00" fill="#000000">+ ~ObjectPtr()</text>
<text text-anchor="start" x="427" y="-1452.5" font-family="Helvetica,sans-Serif" font-size="10.00" fill="#000000">+ swap()</text>
<text text-anchor="start" x="427" y="-1441.5" font-family="Helvetica,sans-Serif" font-size="10.00" fill="#000000">+ get()</text>
<text text-anchor="start" x="427" y="-1430.5" font-family="Helvetica,sans-Serif" font-size="10.00" fill="#000000">+ operator&#45;&gt;()</text>
<text text-anchor="start" x="427" y="-1419.5" font-family="Helvetica,sans-Serif" font-size="10.00" fill="#000000">and 11 more...</text>
</a>
</g>
</g>
<!-- Node10&#45;&gt;Node9 -->
<g id="edge7" class="edge">
<title>Node10&#45;&gt;Node9</title>
<path fill="none" stroke="#404040" d="M489,-1412.3167C489,-1400.8765 489,-1389.0062 489,-1377.1402"/>
<polygon fill="none" stroke="#404040" points="489.0001,-1376.7944 485,-1370.7944 489,-1364.7944 493,-1370.7943 489.0001,-1376.7944"/>
<text text-anchor="middle" x="508.5" y="-1386" font-family="Helvetica,sans-Serif" font-size="10.00" fill="#000000"> #data_</text>
</g>
<!-- Node11&#45;&gt;Node5 -->
<g id="edge9" class="edge">
<title>Node11&#45;&gt;Node5</title>
<path fill="none" stroke="#404040" d="M81.1663,-575.4898C88.2264,-529.4003 106.0997,-446.2967 148,-389 192.5204,-328.1205 266.3793,-286.4013 329.1784,-259.8866"/>
<polygon fill="none" stroke="#404040" points="329.2682,-259.8497 333.2898,-253.8641 340.3617,-255.2743 336.3401,-261.2598 329.2682,-259.8497"/>
<text text-anchor="middle" x="190.5" y="-443" font-family="Helvetica,sans-Serif" font-size="10.00" fill="#000000"> +checked_type_</text>
</g>
<!-- Node12&#45;&gt;Node5 -->
<g id="edge11" class="edge">
<title>Node12&#45;&gt;Node5</title>
<path fill="none" stroke="#404040" d="M235.652,-520.4564C236.1924,-478.6201 242.101,-429.2239 262,-389 283.2048,-346.1366 320.4709,-308.9276 355.7817,-280.5802"/>
<polygon fill="none" stroke="#404040" points="356.2316,-280.2274 358.4847,-273.3773 365.6744,-272.8224 363.4213,-279.6725 356.2316,-280.2274"/>
<text text-anchor="middle" x="296.5" y="-443" font-family="Helvetica,sans-Serif" font-size="10.00" fill="#000000"> +struct_info_</text>
</g>
<!-- Node13 -->
<g id="node10" class="node">
<title>Node13</title>
<g id="a_node10"><a xlink:href="classtvm_1_1RelayExpr.html" target="_top" xlink:title="Managed reference to RelayExprNode. ">
<polygon fill="#ffffff" stroke="#000000" points="727,-302.5 727,-370.5 881,-370.5 881,-302.5 727,-302.5"/>
<text text-anchor="middle" x="804" y="-358.5" font-family="Helvetica,sans-Serif" font-size="10.00" fill="#000000">tvm::RelayExpr</text>
<polyline fill="none" stroke="#000000" points="727,-351.5 881,-351.5 "/>
<text text-anchor="middle" x="804" y="-339.5" font-family="Helvetica,sans-Serif" font-size="10.00" fill="#000000"> </text>
<polyline fill="none" stroke="#000000" points="727,-332.5 881,-332.5 "/>
<text text-anchor="start" x="735" y="-320.5" font-family="Helvetica,sans-Serif" font-size="10.00" fill="#000000">+ TVM_DEFINE_OBJECT_REF</text>
<text text-anchor="start" x="735" y="-309.5" font-family="Helvetica,sans-Serif" font-size="10.00" fill="#000000">_METHODS()</text>
</a>
</g>
</g>
<!-- Node13&#45;&gt;Node4 -->
<g id="edge13" class="edge">
<title>Node13&#45;&gt;Node4</title>
<path fill="none" stroke="#404040" d="M804.1228,-302.4636C803.0655,-265.7616 797.8483,-206.3666 777,-160 771.1243,-146.9325 763.1283,-134.1861 754.365,-122.3569"/>
<polygon fill="none" stroke="#404040" points="754.1969,-122.1396 747.3615,-119.8423 746.8531,-112.6491 753.6885,-114.9464 754.1969,-122.1396"/>
<text text-anchor="middle" x="822.5" y="-225" font-family="Helvetica,sans-Serif" font-size="10.00" fill="#000000"> +value</text>
<text text-anchor="middle" x="822.5" y="-214" font-family="Helvetica,sans-Serif" font-size="10.00" fill="#000000">+body</text>
</g>
<!-- Node14&#45;&gt;Node13 -->
<g id="edge14" class="edge">
<title>Node14&#45;&gt;Node13</title>
<path fill="none" stroke="#191970" d="M709.6535,-867.0173C727.4192,-792.3636 763.2837,-635.9056 785,-502 792.3383,-456.7508 797.8731,-404.0909 801.0246,-370.5424"/>
<polygon fill="none" stroke="#191970" points="706.1887,-866.458 707.2701,-876.9975 712.9973,-868.084 706.1887,-866.458"/>
</g>
<!-- Node16 -->
<g id="node13" class="node">
<title>Node16</title>
<g id="a_node13"><a xlink:href="classtvm_1_1RelayExpr.html" target="_top" xlink:title="Managed reference to RelayExprNode. ">
<polygon fill="#ffffff" stroke="#000000" points="622,-411.5 622,-479.5 776,-479.5 776,-411.5 622,-411.5"/>
<text text-anchor="middle" x="699" y="-467.5" font-family="Helvetica,sans-Serif" font-size="10.00" fill="#000000">Expr</text>
<polyline fill="none" stroke="#000000" points="622,-460.5 776,-460.5 "/>
<text text-anchor="middle" x="699" y="-448.5" font-family="Helvetica,sans-Serif" font-size="10.00" fill="#000000"> </text>
<polyline fill="none" stroke="#000000" points="622,-441.5 776,-441.5 "/>
<text text-anchor="start" x="630" y="-429.5" font-family="Helvetica,sans-Serif" font-size="10.00" fill="#000000">+ TVM_DEFINE_OBJECT_REF</text>
<text text-anchor="start" x="630" y="-418.5" font-family="Helvetica,sans-Serif" font-size="10.00" fill="#000000">_METHODS()</text>
</a>
</g>
</g>
<!-- Node14&#45;&gt;Node16 -->
<g id="edge18" class="edge">
<title>Node14&#45;&gt;Node16</title>
<path fill="none" stroke="#191970" d="M699,-866.6282C699,-774.1945 699,-562.722 699,-479.7795"/>
<polygon fill="none" stroke="#191970" points="695.5001,-866.7706 699,-876.7707 702.5001,-866.7707 695.5001,-866.7706"/>
</g>
<!-- Node15 -->
<g id="node12" class="node">
<title>Node15</title>
<g id="a_node12"><a xlink:href="classtvm_1_1relay_1_1Var.html" target="_top" xlink:title="{tvm::relay::Var\n||+ Var()\l+ Var()\l+ TVM_DEFINE_OBJECT_REF\l_METHODS()\l+ TVM_DEFINE_OBJECT_REF\l_COW_METHOD()\l+ GenSym()\l}">
<polygon fill="#ffffff" stroke="#000000" points="614,-160.5 614,-283.5 768,-283.5 768,-160.5 614,-160.5"/>
<text text-anchor="middle" x="691" y="-271.5" font-family="Helvetica,sans-Serif" font-size="10.00" fill="#000000">tvm::relay::Var</text>
<polyline fill="none" stroke="#000000" points="614,-264.5 768,-264.5 "/>
<text text-anchor="middle" x="691" y="-252.5" font-family="Helvetica,sans-Serif" font-size="10.00" fill="#000000"> </text>
<polyline fill="none" stroke="#000000" points="614,-245.5 768,-245.5 "/>
<text text-anchor="start" x="622" y="-233.5" font-family="Helvetica,sans-Serif" font-size="10.00" fill="#000000">+ Var()</text>
<text text-anchor="start" x="622" y="-222.5" font-family="Helvetica,sans-Serif" font-size="10.00" fill="#000000">+ Var()</text>
<text text-anchor="start" x="622" y="-211.5" font-family="Helvetica,sans-Serif" font-size="10.00" fill="#000000">+ TVM_DEFINE_OBJECT_REF</text>
<text text-anchor="start" x="622" y="-200.5" font-family="Helvetica,sans-Serif" font-size="10.00" fill="#000000">_METHODS()</text>
<text text-anchor="start" x="622" y="-189.5" font-family="Helvetica,sans-Serif" font-size="10.00" fill="#000000">+ TVM_DEFINE_OBJECT_REF</text>
<text text-anchor="start" x="622" y="-178.5" font-family="Helvetica,sans-Serif" font-size="10.00" fill="#000000">_COW_METHOD()</text>
<text text-anchor="start" x="622" y="-167.5" font-family="Helvetica,sans-Serif" font-size="10.00" fill="#000000">+ GenSym()</text>
</a>
</g>
</g>
<!-- Node15&#45;&gt;Node4 -->
<g id="edge16" class="edge">
<title>Node15&#45;&gt;Node4</title>
<path fill="none" stroke="#404040" d="M691,-160.3739C691,-148.7784 691,-136.5899 691,-124.8047"/>
<polygon fill="none" stroke="#404040" points="691.0001,-124.7111 687,-118.7112 691,-112.7111 695,-118.7111 691.0001,-124.7111"/>
<text text-anchor="middle" x="705" y="-134" font-family="Helvetica,sans-Serif" font-size="10.00" fill="#000000"> +var</text>
</g>
<!-- Node16&#45;&gt;Node15 -->
<g id="edge17" class="edge">
<title>Node16&#45;&gt;Node15</title>
<path fill="none" stroke="#191970" d="M697.3952,-400.6651C696.1961,-367.1647 694.5423,-320.9643 693.217,-283.9372"/>
<polygon fill="none" stroke="#191970" points="693.912,-401.1996 697.7675,-411.0679 700.9075,-400.9491 693.912,-401.1996"/>
</g>
</g>
</svg>
