<?xml version="1.0" encoding="UTF-8" standalone="no"?>
<!DOCTYPE svg PUBLIC "-//W3C//DTD SVG 1.1//EN"
 "http://www.w3.org/Graphics/SVG/1.1/DTD/svg11.dtd">
<!-- Generated by graphviz version 2.40.1 (20161225.0304)
 -->
<!-- Title: tvm::OpNode Pages: 1 -->
<svg width="899pt" height="1720pt"
 viewBox="0.00 0.00 898.50 1720.00" xmlns="http://www.w3.org/2000/svg" xmlns:xlink="http://www.w3.org/1999/xlink">
<g id="graph0" class="graph" transform="scale(1 1) rotate(0) translate(4 1716)">
<title>tvm::OpNode</title>
<polygon fill="#ffffff" stroke="transparent" points="-4,4 -4,-1716 894.5,-1716 894.5,4 -4,4"/>
<!-- Node4 -->
<g id="node1" class="node">
<title>Node4</title>
<polygon fill="#bfbfbf" stroke="#000000" points="565,-.5 565,-134.5 774,-134.5 774,-.5 565,-.5"/>
<text text-anchor="middle" x="669.5" y="-122.5" font-family="Helvetica,sans-Serif" font-size="10.00" fill="#000000">tvm::OpNode</text>
<polyline fill="none" stroke="#000000" points="565,-115.5 774,-115.5 "/>
<text text-anchor="start" x="573" y="-103.5" font-family="Helvetica,sans-Serif" font-size="10.00" fill="#000000">+ attrs_type_index</text>
<text text-anchor="start" x="573" y="-92.5" font-family="Helvetica,sans-Serif" font-size="10.00" fill="#000000">+ num_inputs</text>
<text text-anchor="start" x="573" y="-81.5" font-family="Helvetica,sans-Serif" font-size="10.00" fill="#000000">+ support_level</text>
<text text-anchor="start" x="573" y="-70.5" font-family="Helvetica,sans-Serif" font-size="10.00" fill="#000000">+ _type_key</text>
<polyline fill="none" stroke="#000000" points="565,-63.5 774,-63.5 "/>
<text text-anchor="start" x="573" y="-51.5" font-family="Helvetica,sans-Serif" font-size="10.00" fill="#000000">+ VisitAttrs()</text>
<text text-anchor="start" x="573" y="-40.5" font-family="Helvetica,sans-Serif" font-size="10.00" fill="#000000">+ SEqualReduce()</text>
<text text-anchor="start" x="573" y="-29.5" font-family="Helvetica,sans-Serif" font-size="10.00" fill="#000000">+ SHashReduce()</text>
<text text-anchor="start" x="573" y="-18.5" font-family="Helvetica,sans-Serif" font-size="10.00" fill="#000000">+ IsPrimitiveOp()</text>
<text text-anchor="start" x="573" y="-7.5" font-family="Helvetica,sans-Serif" font-size="10.00" fill="#000000">+ TVM_DECLARE_FINAL_OBJECT_INFO()</text>
</g>
<!-- Node5 -->
<g id="node2" class="node">
<title>Node5</title>
<g id="a_node2"><a xlink:href="classtvm_1_1RelayExprNode.html" target="_top" xlink:title="Base node of all non&#45;primitive expressions. ">
<polygon fill="#ffffff" stroke="#000000" points="288,-182.5 288,-283.5 495,-283.5 495,-182.5 288,-182.5"/>
<text text-anchor="middle" x="391.5" y="-271.5" font-family="Helvetica,sans-Serif" font-size="10.00" fill="#000000">tvm::RelayExprNode</text>
<polyline fill="none" stroke="#000000" points="288,-264.5 495,-264.5 "/>
<text text-anchor="start" x="296" y="-252.5" font-family="Helvetica,sans-Serif" font-size="10.00" fill="#000000">+ _type_key</text>
<text text-anchor="start" x="296" y="-241.5" font-family="Helvetica,sans-Serif" font-size="10.00" fill="#000000">+ _type_child_slots</text>
<polyline fill="none" stroke="#000000" points="288,-234.5 495,-234.5 "/>
<text text-anchor="start" x="296" y="-222.5" font-family="Helvetica,sans-Serif" font-size="10.00" fill="#000000">+ checked_type()</text>
<text text-anchor="start" x="296" y="-211.5" font-family="Helvetica,sans-Serif" font-size="10.00" fill="#000000">+ type_as()</text>
<text text-anchor="start" x="296" y="-200.5" font-family="Helvetica,sans-Serif" font-size="10.00" fill="#000000">+ virtual_device()</text>
<text text-anchor="start" x="296" y="-189.5" font-family="Helvetica,sans-Serif" font-size="10.00" fill="#000000">+ TVM_DECLARE_BASE_OBJECT_INFO()</text>
</a>
</g>
</g>
<!-- Node5&#45;&gt;Node4 -->
<g id="edge1" class="edge">
<title>Node5&#45;&gt;Node4</title>
<path fill="none" stroke="#191970" d="M485.0348,-177.3165C510.7186,-162.0263 538.7297,-145.3507 564.988,-129.7185"/>
<polygon fill="none" stroke="#191970" points="483.2219,-174.3224 476.4197,-182.4453 486.8027,-180.3373 483.2219,-174.3224"/>
</g>
<!-- Node6 -->
<g id="node3" class="node">
<title>Node6</title>
<g id="a_node3"><a xlink:href="classtvm_1_1BaseExprNode.html" target="_top" xlink:title="Base type of all the expressions. ">
<polygon fill="#ffffff" stroke="#000000" points="148,-499.5 148,-611.5 355,-611.5 355,-499.5 148,-499.5"/>
<text text-anchor="middle" x="251.5" y="-599.5" font-family="Helvetica,sans-Serif" font-size="10.00" fill="#000000">tvm::BaseExprNode</text>
<polyline fill="none" stroke="#000000" points="148,-592.5 355,-592.5 "/>
<text text-anchor="start" x="156" y="-580.5" font-family="Helvetica,sans-Serif" font-size="10.00" fill="#000000">+ _type_key</text>
<text text-anchor="start" x="156" y="-569.5" font-family="Helvetica,sans-Serif" font-size="10.00" fill="#000000">+ _type_has_method_sequal</text>
<text text-anchor="start" x="156" y="-558.5" font-family="Helvetica,sans-Serif" font-size="10.00" fill="#000000">_reduce</text>
<text text-anchor="start" x="156" y="-547.5" font-family="Helvetica,sans-Serif" font-size="10.00" fill="#000000">+ _type_has_method_shash</text>
<text text-anchor="start" x="156" y="-536.5" font-family="Helvetica,sans-Serif" font-size="10.00" fill="#000000">_reduce</text>
<text text-anchor="start" x="156" y="-525.5" font-family="Helvetica,sans-Serif" font-size="10.00" fill="#000000">+ _type_child_slots</text>
<polyline fill="none" stroke="#000000" points="148,-518.5 355,-518.5 "/>
<text text-anchor="start" x="156" y="-506.5" font-family="Helvetica,sans-Serif" font-size="10.00" fill="#000000">+ TVM_DECLARE_BASE_OBJECT_INFO()</text>
</a>
</g>
</g>
<!-- Node6&#45;&gt;Node5 -->
<g id="edge2" class="edge">
<title>Node6&#45;&gt;Node5</title>
<path fill="none" stroke="#191970" d="M280.0227,-489.796C306.4839,-428.8407 345.3135,-339.394 369.4662,-283.7565"/>
<polygon fill="none" stroke="#191970" points="276.6577,-488.7581 275.8861,-499.3248 283.0788,-491.5456 276.6577,-488.7581"/>
</g>
<!-- Node7 -->
<g id="node4" class="node">
<title>Node7</title>
<g id="a_node4"><a xlink:href="classtvm_1_1runtime_1_1Object.html" target="_top" xlink:title="base class of all object containers. ">
<polygon fill="#ffffff" stroke="#000000" points="0,-838.5 0,-1225.5 183,-1225.5 183,-838.5 0,-838.5"/>
<text text-anchor="middle" x="91.5" y="-1213.5" font-family="Helvetica,sans-Serif" font-size="10.00" fill="#000000">tvm::runtime::Object</text>
<polyline fill="none" stroke="#000000" points="0,-1206.5 183,-1206.5 "/>
<text text-anchor="start" x="8" y="-1194.5" font-family="Helvetica,sans-Serif" font-size="10.00" fill="#000000">+ _type_key</text>
<text text-anchor="start" x="8" y="-1183.5" font-family="Helvetica,sans-Serif" font-size="10.00" fill="#000000">+ _type_final</text>
<text text-anchor="start" x="8" y="-1172.5" font-family="Helvetica,sans-Serif" font-size="10.00" fill="#000000">+ _type_child_slots</text>
<text text-anchor="start" x="8" y="-1161.5" font-family="Helvetica,sans-Serif" font-size="10.00" fill="#000000">+ _type_child_slots_can</text>
<text text-anchor="start" x="8" y="-1150.5" font-family="Helvetica,sans-Serif" font-size="10.00" fill="#000000">_overflow</text>
<text text-anchor="start" x="8" y="-1139.5" font-family="Helvetica,sans-Serif" font-size="10.00" fill="#000000">+ _type_has_method_visit</text>
<text text-anchor="start" x="8" y="-1128.5" font-family="Helvetica,sans-Serif" font-size="10.00" fill="#000000">_attrs</text>
<text text-anchor="start" x="8" y="-1117.5" font-family="Helvetica,sans-Serif" font-size="10.00" fill="#000000">+ _type_has_method_sequal</text>
<text text-anchor="start" x="8" y="-1106.5" font-family="Helvetica,sans-Serif" font-size="10.00" fill="#000000">_reduce</text>
<text text-anchor="start" x="8" y="-1095.5" font-family="Helvetica,sans-Serif" font-size="10.00" fill="#000000">+ _type_has_method_shash</text>
<text text-anchor="start" x="8" y="-1084.5" font-family="Helvetica,sans-Serif" font-size="10.00" fill="#000000">_reduce</text>
<text text-anchor="start" x="8" y="-1073.5" font-family="Helvetica,sans-Serif" font-size="10.00" fill="#000000">+ _type_index</text>
<text text-anchor="start" x="8" y="-1062.5" font-family="Helvetica,sans-Serif" font-size="10.00" fill="#000000"># type_index_</text>
<text text-anchor="start" x="8" y="-1051.5" font-family="Helvetica,sans-Serif" font-size="10.00" fill="#000000"># ref_counter_</text>
<polyline fill="none" stroke="#000000" points="0,-1044.5 183,-1044.5 "/>
<text text-anchor="start" x="8" y="-1032.5" font-family="Helvetica,sans-Serif" font-size="10.00" fill="#000000">+ type_index()</text>
<text text-anchor="start" x="8" y="-1021.5" font-family="Helvetica,sans-Serif" font-size="10.00" fill="#000000">+ GetTypeKey()</text>
<text text-anchor="start" x="8" y="-1010.5" font-family="Helvetica,sans-Serif" font-size="10.00" fill="#000000">+ GetTypeKeyHash()</text>
<text text-anchor="start" x="8" y="-999.5" font-family="Helvetica,sans-Serif" font-size="10.00" fill="#000000">+ IsInstance()</text>
<text text-anchor="start" x="8" y="-988.5" font-family="Helvetica,sans-Serif" font-size="10.00" fill="#000000">+ unique()</text>
<text text-anchor="start" x="8" y="-977.5" font-family="Helvetica,sans-Serif" font-size="10.00" fill="#000000">+ Object()</text>
<text text-anchor="start" x="8" y="-966.5" font-family="Helvetica,sans-Serif" font-size="10.00" fill="#000000">+ Object()</text>
<text text-anchor="start" x="8" y="-955.5" font-family="Helvetica,sans-Serif" font-size="10.00" fill="#000000">+ Object()</text>
<text text-anchor="start" x="8" y="-944.5" font-family="Helvetica,sans-Serif" font-size="10.00" fill="#000000">+ operator=()</text>
<text text-anchor="start" x="8" y="-933.5" font-family="Helvetica,sans-Serif" font-size="10.00" fill="#000000">+ operator=()</text>
<text text-anchor="start" x="8" y="-922.5" font-family="Helvetica,sans-Serif" font-size="10.00" fill="#000000">+ TypeIndex2Key()</text>
<text text-anchor="start" x="8" y="-911.5" font-family="Helvetica,sans-Serif" font-size="10.00" fill="#000000">+ TypeIndex2KeyHash()</text>
<text text-anchor="start" x="8" y="-900.5" font-family="Helvetica,sans-Serif" font-size="10.00" fill="#000000">+ TypeKey2Index()</text>
<text text-anchor="start" x="8" y="-889.5" font-family="Helvetica,sans-Serif" font-size="10.00" fill="#000000">+ _GetOrAllocRuntimeTypeIndex()</text>
<text text-anchor="start" x="8" y="-878.5" font-family="Helvetica,sans-Serif" font-size="10.00" fill="#000000">+ RuntimeTypeIndex()</text>
<text text-anchor="start" x="8" y="-867.5" font-family="Helvetica,sans-Serif" font-size="10.00" fill="#000000"># IncRef()</text>
<text text-anchor="start" x="8" y="-856.5" font-family="Helvetica,sans-Serif" font-size="10.00" fill="#000000"># DecRef()</text>
<text text-anchor="start" x="8" y="-845.5" font-family="Helvetica,sans-Serif" font-size="10.00" fill="#000000"># GetOrAllocRuntimeTypeIndex()</text>
</a>
</g>
</g>
<!-- Node7&#45;&gt;Node6 -->
<g id="edge3" class="edge">
<title>Node7&#45;&gt;Node6</title>
<path fill="none" stroke="#191970" d="M159.8024,-828.5869C186.3194,-749.6161 214.5887,-665.4264 232.6163,-611.7379"/>
<polygon fill="none" stroke="#191970" points="156.4434,-827.5952 156.5781,-838.1892 163.0793,-829.8235 156.4434,-827.5952"/>
</g>
<!-- Node7&#45;&gt;Node7 -->
<g id="edge4" class="edge">
<title>Node7&#45;&gt;Node7</title>
<path fill="none" stroke="#404040" d="M183.3625,-1065.9248C194.0482,-1059.6637 201,-1048.3555 201,-1032 201,-1021.0112 197.8618,-1012.3007 192.5615,-1005.8687"/>
<polygon fill="none" stroke="#404040" points="192.5184,-1005.8322 185.3548,-1005.0056 183.3625,-998.0752 190.5261,-998.9017 192.5184,-1005.8322"/>
<text text-anchor="middle" x="227" y="-1029.5" font-family="Helvetica,sans-Serif" font-size="10.00" fill="#000000"> #deleter_</text>
</g>
<!-- Node8 -->
<g id="node5" class="node">
<title>Node8</title>
<g id="a_node5"><a xlink:href="classtvm_1_1Span.html" target="_top" xlink:title="{tvm::Span\n||+ Span()\l+ Merge()\l+ TVM_DEFINE_OBJECT_REF\l_METHODS()\l}">
<polygon fill="#ffffff" stroke="#000000" points="271.5,-987 271.5,-1077 425.5,-1077 425.5,-987 271.5,-987"/>
<text text-anchor="middle" x="348.5" y="-1065" font-family="Helvetica,sans-Serif" font-size="10.00" fill="#000000">tvm::Span</text>
<polyline fill="none" stroke="#000000" points="271.5,-1058 425.5,-1058 "/>
<text text-anchor="middle" x="348.5" y="-1046" font-family="Helvetica,sans-Serif" font-size="10.00" fill="#000000"> </text>
<polyline fill="none" stroke="#000000" points="271.5,-1039 425.5,-1039 "/>
<text text-anchor="start" x="279.5" y="-1027" font-family="Helvetica,sans-Serif" font-size="10.00" fill="#000000">+ Span()</text>
<text text-anchor="start" x="279.5" y="-1016" font-family="Helvetica,sans-Serif" font-size="10.00" fill="#000000">+ Merge()</text>
<text text-anchor="start" x="279.5" y="-1005" font-family="Helvetica,sans-Serif" font-size="10.00" fill="#000000">+ TVM_DEFINE_OBJECT_REF</text>
<text text-anchor="start" x="279.5" y="-994" font-family="Helvetica,sans-Serif" font-size="10.00" fill="#000000">_METHODS()</text>
</a>
</g>
</g>
<!-- Node8&#45;&gt;Node6 -->
<g id="edge5" class="edge">
<title>Node8&#45;&gt;Node6</title>
<path fill="none" stroke="#404040" d="M326.974,-986.8744C307.9752,-944.7486 281.3606,-879.6036 268.5,-820 254.3414,-754.3807 250.7992,-677.6538 250.3714,-623.7889"/>
<polygon fill="none" stroke="#404040" points="250.3709,-623.6336 246.3478,-617.6491 250.3246,-611.6337 254.3477,-617.6183 250.3709,-623.6336"/>
<text text-anchor="middle" x="286" y="-722.5" font-family="Helvetica,sans-Serif" font-size="10.00" fill="#000000"> +span</text>
</g>
<!-- Node9 -->
<g id="node6" class="node">
<title>Node9</title>
<g id="a_node6"><a xlink:href="classtvm_1_1runtime_1_1ObjectRef.html" target="_top" xlink:title="Base class of all object reference. ">
<polygon fill="#ffffff" stroke="#000000" points="476.5,-1263.5 476.5,-1485.5 610.5,-1485.5 610.5,-1263.5 476.5,-1263.5"/>
<text text-anchor="middle" x="543.5" y="-1473.5" font-family="Helvetica,sans-Serif" font-size="10.00" fill="#000000">tvm::runtime::ObjectRef</text>
<polyline fill="none" stroke="#000000" points="476.5,-1466.5 610.5,-1466.5 "/>
<text text-anchor="start" x="484.5" y="-1454.5" font-family="Helvetica,sans-Serif" font-size="10.00" fill="#000000">+ _type_is_nullable</text>
<polyline fill="none" stroke="#000000" points="476.5,-1447.5 610.5,-1447.5 "/>
<text text-anchor="start" x="484.5" y="-1435.5" font-family="Helvetica,sans-Serif" font-size="10.00" fill="#000000">+ ObjectRef()</text>
<text text-anchor="start" x="484.5" y="-1424.5" font-family="Helvetica,sans-Serif" font-size="10.00" fill="#000000">+ ObjectRef()</text>
<text text-anchor="start" x="484.5" y="-1413.5" font-family="Helvetica,sans-Serif" font-size="10.00" fill="#000000">+ same_as()</text>
<text text-anchor="start" x="484.5" y="-1402.5" font-family="Helvetica,sans-Serif" font-size="10.00" fill="#000000">+ operator==()</text>
<text text-anchor="start" x="484.5" y="-1391.5" font-family="Helvetica,sans-Serif" font-size="10.00" fill="#000000">+ operator!=()</text>
<text text-anchor="start" x="484.5" y="-1380.5" font-family="Helvetica,sans-Serif" font-size="10.00" fill="#000000">+ operator&lt;()</text>
<text text-anchor="start" x="484.5" y="-1369.5" font-family="Helvetica,sans-Serif" font-size="10.00" fill="#000000">+ defined()</text>
<text text-anchor="start" x="484.5" y="-1358.5" font-family="Helvetica,sans-Serif" font-size="10.00" fill="#000000">+ get()</text>
<text text-anchor="start" x="484.5" y="-1347.5" font-family="Helvetica,sans-Serif" font-size="10.00" fill="#000000">+ operator&#45;&gt;()</text>
<text text-anchor="start" x="484.5" y="-1336.5" font-family="Helvetica,sans-Serif" font-size="10.00" fill="#000000">+ unique()</text>
<text text-anchor="start" x="484.5" y="-1325.5" font-family="Helvetica,sans-Serif" font-size="10.00" fill="#000000">+ use_count()</text>
<text text-anchor="start" x="484.5" y="-1314.5" font-family="Helvetica,sans-Serif" font-size="10.00" fill="#000000">+ as()</text>
<text text-anchor="start" x="484.5" y="-1303.5" font-family="Helvetica,sans-Serif" font-size="10.00" fill="#000000"># get_mutable()</text>
<text text-anchor="start" x="484.5" y="-1292.5" font-family="Helvetica,sans-Serif" font-size="10.00" fill="#000000"># DowncastNoCheck()</text>
<text text-anchor="start" x="484.5" y="-1281.5" font-family="Helvetica,sans-Serif" font-size="10.00" fill="#000000"># FFIClearAfterMove()</text>
<text text-anchor="start" x="484.5" y="-1270.5" font-family="Helvetica,sans-Serif" font-size="10.00" fill="#000000"># GetDataPtr()</text>
</a>
</g>
</g>
<!-- Node9&#45;&gt;Node5 -->
<g id="edge8" class="edge">
<title>Node9&#45;&gt;Node5</title>
<path fill="none" stroke="#404040" d="M532.1341,-1263.2948C520.8215,-1151.3755 503.2152,-973.7833 489.5,-820 476.7851,-677.432 488.0798,-640.0076 463.5,-499 451.1645,-428.2344 428.5317,-348.9772 411.9236,-295.5314"/>
<polygon fill="none" stroke="#404040" points="411.8553,-295.3134 406.2437,-290.7846 408.2658,-283.8628 413.8774,-288.3916 411.8553,-295.3134"/>
<text text-anchor="middle" x="532.5" y="-722.5" font-family="Helvetica,sans-Serif" font-size="10.00" fill="#000000"> +virtual_device_</text>
</g>
<!-- Node9&#45;&gt;Node8 -->
<g id="edge6" class="edge">
<title>Node9&#45;&gt;Node8</title>
<path fill="none" stroke="#191970" d="M470.2397,-1289.9341C459.2463,-1275.4197 448.5718,-1260.1275 439.5,-1245 406.7201,-1190.3384 379.6475,-1121.7129 363.7806,-1077.3684"/>
<polygon fill="none" stroke="#191970" points="467.5025,-1292.1163 476.3717,-1297.9117 473.0524,-1287.8503 467.5025,-1292.1163"/>
</g>
<!-- Node11 -->
<g id="node8" class="node">
<title>Node11</title>
<g id="a_node8"><a xlink:href="classtvm_1_1Type.html" target="_top" xlink:title="Managed reference to TypeNode. ">
<polygon fill="#ffffff" stroke="#000000" points="517.5,-521.5 517.5,-589.5 671.5,-589.5 671.5,-521.5 517.5,-521.5"/>
<text text-anchor="middle" x="594.5" y="-577.5" font-family="Helvetica,sans-Serif" font-size="10.00" fill="#000000">tvm::Type</text>
<polyline fill="none" stroke="#000000" points="517.5,-570.5 671.5,-570.5 "/>
<text text-anchor="middle" x="594.5" y="-558.5" font-family="Helvetica,sans-Serif" font-size="10.00" fill="#000000"> </text>
<polyline fill="none" stroke="#000000" points="517.5,-551.5 671.5,-551.5 "/>
<text text-anchor="start" x="525.5" y="-539.5" font-family="Helvetica,sans-Serif" font-size="10.00" fill="#000000">+ TVM_DEFINE_OBJECT_REF</text>
<text text-anchor="start" x="525.5" y="-528.5" font-family="Helvetica,sans-Serif" font-size="10.00" fill="#000000">_METHODS()</text>
</a>
</g>
</g>
<!-- Node9&#45;&gt;Node11 -->
<g id="edge10" class="edge">
<title>Node9&#45;&gt;Node11</title>
<path fill="none" stroke="#191970" d="M551.658,-1253.2563C559.1479,-1140.9311 570.4261,-969.2032 579.5,-820 584.5256,-737.3636 589.8997,-640.1699 592.6477,-589.7442"/>
<polygon fill="none" stroke="#191970" points="548.164,-1253.0512 550.9904,-1263.262 555.1485,-1253.5173 548.164,-1253.0512"/>
</g>
<!-- Node12 -->
<g id="node9" class="node">
<title>Node12</title>
<g id="a_node9"><a xlink:href="classtvm_1_1runtime_1_1Optional.html" target="_top" xlink:title="{tvm::runtime::Optional\l\&lt; tvm::runtime::ObjectRef \&gt;\n|+ _type_is_nullable\l|+ Optional()\l+ Optional()\l+ Optional()\l+ Optional()\l+ Optional()\l+ Optional()\l+ Optional()\l+ Optional()\l+ operator=()\l+ operator=()\land 15 more...\l}">
<polygon fill="#ffffff" stroke="#000000" points="312.5,-636 312.5,-814 468.5,-814 468.5,-636 312.5,-636"/>
<text text-anchor="start" x="320.5" y="-802" font-family="Helvetica,sans-Serif" font-size="10.00" fill="#000000">tvm::runtime::Optional</text>
<text text-anchor="middle" x="390.5" y="-791" font-family="Helvetica,sans-Serif" font-size="10.00" fill="#000000">&lt; tvm::runtime::ObjectRef &gt;</text>
<polyline fill="none" stroke="#000000" points="312.5,-784 468.5,-784 "/>
<text text-anchor="start" x="320.5" y="-772" font-family="Helvetica,sans-Serif" font-size="10.00" fill="#000000">+ _type_is_nullable</text>
<polyline fill="none" stroke="#000000" points="312.5,-765 468.5,-765 "/>
<text text-anchor="start" x="320.5" y="-753" font-family="Helvetica,sans-Serif" font-size="10.00" fill="#000000">+ Optional()</text>
<text text-anchor="start" x="320.5" y="-742" font-family="Helvetica,sans-Serif" font-size="10.00" fill="#000000">+ Optional()</text>
<text text-anchor="start" x="320.5" y="-731" font-family="Helvetica,sans-Serif" font-size="10.00" fill="#000000">+ Optional()</text>
<text text-anchor="start" x="320.5" y="-720" font-family="Helvetica,sans-Serif" font-size="10.00" fill="#000000">+ Optional()</text>
<text text-anchor="start" x="320.5" y="-709" font-family="Helvetica,sans-Serif" font-size="10.00" fill="#000000">+ Optional()</text>
<text text-anchor="start" x="320.5" y="-698" font-family="Helvetica,sans-Serif" font-size="10.00" fill="#000000">+ Optional()</text>
<text text-anchor="start" x="320.5" y="-687" font-family="Helvetica,sans-Serif" font-size="10.00" fill="#000000">+ Optional()</text>
<text text-anchor="start" x="320.5" y="-676" font-family="Helvetica,sans-Serif" font-size="10.00" fill="#000000">+ Optional()</text>
<text text-anchor="start" x="320.5" y="-665" font-family="Helvetica,sans-Serif" font-size="10.00" fill="#000000">+ operator=()</text>
<text text-anchor="start" x="320.5" y="-654" font-family="Helvetica,sans-Serif" font-size="10.00" fill="#000000">+ operator=()</text>
<text text-anchor="start" x="320.5" y="-643" font-family="Helvetica,sans-Serif" font-size="10.00" fill="#000000">and 15 more...</text>
</a>
</g>
</g>
<!-- Node9&#45;&gt;Node12 -->
<g id="edge12" class="edge">
<title>Node9&#45;&gt;Node12</title>
<path fill="none" stroke="#191970" d="M480.1989,-1253.5336C479.2429,-1250.682 478.3408,-1247.8351 477.5,-1245 425.7829,-1070.6115 477.4348,-1014.7558 434.5,-838 432.5868,-830.1237 430.2539,-822.0607 427.6708,-814.0453"/>
<polygon fill="none" stroke="#191970" points="477.0007,-1254.9864 483.6467,-1263.2375 483.5967,-1252.6428 477.0007,-1254.9864"/>
</g>
<!-- Node14 -->
<g id="node11" class="node">
<title>Node14</title>
<g id="a_node11"><a xlink:href="classtvm_1_1runtime_1_1Array.html" target="_top" xlink:title="{tvm::runtime::Array\l\&lt; tvm::AttrFieldInfo \&gt;\n||+ Array()\l+ Array()\l+ Array()\l+ Array()\l+ Array()\l+ Array()\l+ Array()\l+ Array()\l+ operator=()\l+ operator=()\land 25 more...\l}">
<polygon fill="#ffffff" stroke="#000000" points="640.5,-302.5 640.5,-480.5 764.5,-480.5 764.5,-302.5 640.5,-302.5"/>
<text text-anchor="start" x="648.5" y="-468.5" font-family="Helvetica,sans-Serif" font-size="10.00" fill="#000000">tvm::runtime::Array</text>
<text text-anchor="middle" x="702.5" y="-457.5" font-family="Helvetica,sans-Serif" font-size="10.00" fill="#000000">&lt; tvm::AttrFieldInfo &gt;</text>
<polyline fill="none" stroke="#000000" points="640.5,-450.5 764.5,-450.5 "/>
<text text-anchor="middle" x="702.5" y="-438.5" font-family="Helvetica,sans-Serif" font-size="10.00" fill="#000000"> </text>
<polyline fill="none" stroke="#000000" points="640.5,-431.5 764.5,-431.5 "/>
<text text-anchor="start" x="648.5" y="-419.5" font-family="Helvetica,sans-Serif" font-size="10.00" fill="#000000">+ Array()</text>
<text text-anchor="start" x="648.5" y="-408.5" font-family="Helvetica,sans-Serif" font-size="10.00" fill="#000000">+ Array()</text>
<text text-anchor="start" x="648.5" y="-397.5" font-family="Helvetica,sans-Serif" font-size="10.00" fill="#000000">+ Array()</text>
<text text-anchor="start" x="648.5" y="-386.5" font-family="Helvetica,sans-Serif" font-size="10.00" fill="#000000">+ Array()</text>
<text text-anchor="start" x="648.5" y="-375.5" font-family="Helvetica,sans-Serif" font-size="10.00" fill="#000000">+ Array()</text>
<text text-anchor="start" x="648.5" y="-364.5" font-family="Helvetica,sans-Serif" font-size="10.00" fill="#000000">+ Array()</text>
<text text-anchor="start" x="648.5" y="-353.5" font-family="Helvetica,sans-Serif" font-size="10.00" fill="#000000">+ Array()</text>
<text text-anchor="start" x="648.5" y="-342.5" font-family="Helvetica,sans-Serif" font-size="10.00" fill="#000000">+ Array()</text>
<text text-anchor="start" x="648.5" y="-331.5" font-family="Helvetica,sans-Serif" font-size="10.00" fill="#000000">+ operator=()</text>
<text text-anchor="start" x="648.5" y="-320.5" font-family="Helvetica,sans-Serif" font-size="10.00" fill="#000000">+ operator=()</text>
<text text-anchor="start" x="648.5" y="-309.5" font-family="Helvetica,sans-Serif" font-size="10.00" fill="#000000">and 25 more...</text>
</a>
</g>
</g>
<!-- Node9&#45;&gt;Node14 -->
<g id="edge16" class="edge">
<title>Node9&#45;&gt;Node14</title>
<path fill="none" stroke="#191970" d="M573.6857,-1253.2234C575.7334,-1244.029 577.6964,-1234.8775 579.5,-1226 634.5613,-954.9804 644.309,-886.178 680.5,-612 686.189,-568.9013 691.1421,-520.8885 694.9006,-480.6973"/>
<polygon fill="none" stroke="#191970" points="570.2201,-1252.6811 571.4339,-1263.2062 577.0485,-1254.2214 570.2201,-1252.6811"/>
</g>
<!-- Node15 -->
<g id="node12" class="node">
<title>Node15</title>
<g id="a_node12"><a xlink:href="classtvm_1_1runtime_1_1String.html" target="_top" xlink:title="Reference to string objects. ">
<polygon fill="#ffffff" stroke="#000000" points="725.5,-630.5 725.5,-819.5 841.5,-819.5 841.5,-630.5 725.5,-630.5"/>
<text text-anchor="middle" x="783.5" y="-807.5" font-family="Helvetica,sans-Serif" font-size="10.00" fill="#000000">tvm::runtime::String</text>
<polyline fill="none" stroke="#000000" points="725.5,-800.5 841.5,-800.5 "/>
<text text-anchor="middle" x="783.5" y="-788.5" font-family="Helvetica,sans-Serif" font-size="10.00" fill="#000000"> </text>
<polyline fill="none" stroke="#000000" points="725.5,-781.5 841.5,-781.5 "/>
<text text-anchor="start" x="733.5" y="-769.5" font-family="Helvetica,sans-Serif" font-size="10.00" fill="#000000">+ String()</text>
<text text-anchor="start" x="733.5" y="-758.5" font-family="Helvetica,sans-Serif" font-size="10.00" fill="#000000">+ String()</text>
<text text-anchor="start" x="733.5" y="-747.5" font-family="Helvetica,sans-Serif" font-size="10.00" fill="#000000">+ String()</text>
<text text-anchor="start" x="733.5" y="-736.5" font-family="Helvetica,sans-Serif" font-size="10.00" fill="#000000">+ String()</text>
<text text-anchor="start" x="733.5" y="-725.5" font-family="Helvetica,sans-Serif" font-size="10.00" fill="#000000">+ operator=()</text>
<text text-anchor="start" x="733.5" y="-714.5" font-family="Helvetica,sans-Serif" font-size="10.00" fill="#000000">+ operator=()</text>
<text text-anchor="start" x="733.5" y="-703.5" font-family="Helvetica,sans-Serif" font-size="10.00" fill="#000000">+ compare()</text>
<text text-anchor="start" x="733.5" y="-692.5" font-family="Helvetica,sans-Serif" font-size="10.00" fill="#000000">+ compare()</text>
<text text-anchor="start" x="733.5" y="-681.5" font-family="Helvetica,sans-Serif" font-size="10.00" fill="#000000">+ compare()</text>
<text text-anchor="start" x="733.5" y="-670.5" font-family="Helvetica,sans-Serif" font-size="10.00" fill="#000000">+ c_str()</text>
<text text-anchor="start" x="733.5" y="-659.5" font-family="Helvetica,sans-Serif" font-size="10.00" fill="#000000">and 6 more...</text>
<text text-anchor="start" x="733.5" y="-648.5" font-family="Helvetica,sans-Serif" font-size="10.00" fill="#000000">+ CanConvertFrom()</text>
<text text-anchor="start" x="733.5" y="-637.5" font-family="Helvetica,sans-Serif" font-size="10.00" fill="#000000">+ HashBytes()</text>
</a>
</g>
</g>
<!-- Node9&#45;&gt;Node15 -->
<g id="edge18" class="edge">
<title>Node9&#45;&gt;Node15</title>
<path fill="none" stroke="#191970" d="M619.3794,-1335.9063C654.4108,-1314.073 693.1154,-1283.4037 715.5,-1245 792.6408,-1112.6553 797.756,-929.6592 792.1992,-819.7564"/>
<polygon fill="none" stroke="#191970" points="617.2905,-1333.0802 610.5644,-1341.2662 620.9273,-1339.0614 617.2905,-1333.0802"/>
</g>
<!-- Node10 -->
<g id="node7" class="node">
<title>Node10</title>
<g id="a_node7"><a xlink:href="classtvm_1_1runtime_1_1ObjectPtr.html" target="_top" xlink:title="{tvm::runtime::ObjectPtr\l\&lt; tvm::runtime::Object \&gt;\n||+ ObjectPtr()\l+ ObjectPtr()\l+ ObjectPtr()\l+ ObjectPtr()\l+ ObjectPtr()\l+ ObjectPtr()\l+ ~ObjectPtr()\l+ swap()\l+ get()\l+ operator&#45;\&gt;()\land 11 more...\l}">
<polygon fill="#ffffff" stroke="#000000" points="473.5,-1533.5 473.5,-1711.5 613.5,-1711.5 613.5,-1533.5 473.5,-1533.5"/>
<text text-anchor="start" x="481.5" y="-1699.5" font-family="Helvetica,sans-Serif" font-size="10.00" fill="#000000">tvm::runtime::ObjectPtr</text>
<text text-anchor="middle" x="543.5" y="-1688.5" font-family="Helvetica,sans-Serif" font-size="10.00" fill="#000000">&lt; tvm::runtime::Object &gt;</text>
<polyline fill="none" stroke="#000000" points="473.5,-1681.5 613.5,-1681.5 "/>
<text text-anchor="middle" x="543.5" y="-1669.5" font-family="Helvetica,sans-Serif" font-size="10.00" fill="#000000"> </text>
<polyline fill="none" stroke="#000000" points="473.5,-1662.5 613.5,-1662.5 "/>
<text text-anchor="start" x="481.5" y="-1650.5" font-family="Helvetica,sans-Serif" font-size="10.00" fill="#000000">+ ObjectPtr()</text>
<text text-anchor="start" x="481.5" y="-1639.5" font-family="Helvetica,sans-Serif" font-size="10.00" fill="#000000">+ ObjectPtr()</text>
<text text-anchor="start" x="481.5" y="-1628.5" font-family="Helvetica,sans-Serif" font-size="10.00" fill="#000000">+ ObjectPtr()</text>
<text text-anchor="start" x="481.5" y="-1617.5" font-family="Helvetica,sans-Serif" font-size="10.00" fill="#000000">+ ObjectPtr()</text>
<text text-anchor="start" x="481.5" y="-1606.5" font-family="Helvetica,sans-Serif" font-size="10.00" fill="#000000">+ ObjectPtr()</text>
<text text-anchor="start" x="481.5" y="-1595.5" font-family="Helvetica,sans-Serif" font-size="10.00" fill="#000000">+ ObjectPtr()</text>
<text text-anchor="start" x="481.5" y="-1584.5" font-family="Helvetica,sans-Serif" font-size="10.00" fill="#000000">+ ~ObjectPtr()</text>
<text text-anchor="start" x="481.5" y="-1573.5" font-family="Helvetica,sans-Serif" font-size="10.00" fill="#000000">+ swap()</text>
<text text-anchor="start" x="481.5" y="-1562.5" font-family="Helvetica,sans-Serif" font-size="10.00" fill="#000000">+ get()</text>
<text text-anchor="start" x="481.5" y="-1551.5" font-family="Helvetica,sans-Serif" font-size="10.00" fill="#000000">+ operator&#45;&gt;()</text>
<text text-anchor="start" x="481.5" y="-1540.5" font-family="Helvetica,sans-Serif" font-size="10.00" fill="#000000">and 11 more...</text>
</a>
</g>
</g>
<!-- Node10&#45;&gt;Node9 -->
<g id="edge7" class="edge">
<title>Node10&#45;&gt;Node9</title>
<path fill="none" stroke="#404040" d="M543.5,-1533.3167C543.5,-1521.8765 543.5,-1510.0062 543.5,-1498.1402"/>
<polygon fill="none" stroke="#404040" points="543.5001,-1497.7944 539.5,-1491.7944 543.5,-1485.7944 547.5,-1491.7943 543.5001,-1497.7944"/>
<text text-anchor="middle" x="563" y="-1507" font-family="Helvetica,sans-Serif" font-size="10.00" fill="#000000"> #data_</text>
</g>
<!-- Node11&#45;&gt;Node5 -->
<g id="edge9" class="edge">
<title>Node11&#45;&gt;Node5</title>
<path fill="none" stroke="#404040" d="M550.1949,-521.3153C538.2878,-509.825 526.723,-496.0585 519.5,-481 484.9002,-408.8664 542.7313,-369.9478 500.5,-302 498.4957,-298.7752 496.2789,-295.6749 493.8864,-292.6968"/>
<polygon fill="none" stroke="#404040" points="493.7235,-292.5159 486.736,-290.7339 485.6935,-283.5985 492.6809,-285.3805 493.7235,-292.5159"/>
<text text-anchor="middle" x="562" y="-389" font-family="Helvetica,sans-Serif" font-size="10.00" fill="#000000"> +checked_type_</text>
</g>
<!-- Node13 -->
<g id="node10" class="node">
<title>Node13</title>
<g id="a_node10"><a xlink:href="classtvm_1_1FuncType.html" target="_top" xlink:title="Managed reference to FuncTypeNode. ">
<polygon fill="#ffffff" stroke="#000000" points="513.5,-193.5 513.5,-272.5 667.5,-272.5 667.5,-193.5 513.5,-193.5"/>
<text text-anchor="middle" x="590.5" y="-260.5" font-family="Helvetica,sans-Serif" font-size="10.00" fill="#000000">tvm::FuncType</text>
<polyline fill="none" stroke="#000000" points="513.5,-253.5 667.5,-253.5 "/>
<text text-anchor="middle" x="590.5" y="-241.5" font-family="Helvetica,sans-Serif" font-size="10.00" fill="#000000"> </text>
<polyline fill="none" stroke="#000000" points="513.5,-234.5 667.5,-234.5 "/>
<text text-anchor="start" x="521.5" y="-222.5" font-family="Helvetica,sans-Serif" font-size="10.00" fill="#000000">+ FuncType()</text>
<text text-anchor="start" x="521.5" y="-211.5" font-family="Helvetica,sans-Serif" font-size="10.00" fill="#000000">+ TVM_DEFINE_OBJECT_REF</text>
<text text-anchor="start" x="521.5" y="-200.5" font-family="Helvetica,sans-Serif" font-size="10.00" fill="#000000">_METHODS()</text>
</a>
</g>
</g>
<!-- Node11&#45;&gt;Node13 -->
<g id="edge14" class="edge">
<title>Node11&#45;&gt;Node13</title>
<path fill="none" stroke="#191970" d="M604.2292,-511.1595C606.0056,-501.2806 607.5851,-490.8227 608.5,-481 615.8782,-401.7873 618.6231,-380.9089 608.5,-302 607.2713,-292.422 605.1203,-282.2751 602.7231,-272.795"/>
<polygon fill="none" stroke="#191970" points="600.7508,-510.7169 602.3263,-521.1939 607.6282,-512.0212 600.7508,-510.7169"/>
</g>
<!-- Node12&#45;&gt;Node5 -->
<g id="edge11" class="edge">
<title>Node12&#45;&gt;Node5</title>
<path fill="none" stroke="#404040" d="M390.6811,-635.9025C390.8807,-537.7186 391.1965,-382.3032 391.3719,-296.0079"/>
<polygon fill="none" stroke="#404040" points="391.3723,-295.7923 387.3845,-289.7842 391.3968,-283.7924 395.3845,-289.8005 391.3723,-295.7923"/>
<text text-anchor="middle" x="425" y="-553" font-family="Helvetica,sans-Serif" font-size="10.00" fill="#000000"> +struct_info_</text>
</g>
<!-- Node13&#45;&gt;Node4 -->
<g id="edge13" class="edge">
<title>Node13&#45;&gt;Node4</title>
<path fill="none" stroke="#404040" d="M609.4225,-193.3586C616.3124,-178.9247 624.3611,-162.0631 632.2867,-145.4594"/>
<polygon fill="none" stroke="#404040" points="632.2944,-145.4434 631.2692,-138.3055 637.4638,-134.6139 638.4889,-141.7518 632.2944,-145.4434"/>
<text text-anchor="middle" x="653" y="-156" font-family="Helvetica,sans-Serif" font-size="10.00" fill="#000000"> +op_type</text>
</g>
<!-- Node14&#45;&gt;Node4 -->
<g id="edge15" class="edge">
<title>Node14&#45;&gt;Node4</title>
<path fill="none" stroke="#404040" d="M696.4607,-302.449C693.0537,-257.5567 688.3099,-202.3131 682.5,-153 682.2584,-150.9497 682.0053,-148.873 681.7426,-146.7786"/>
<polygon fill="none" stroke="#404040" points="681.7124,-146.5489 676.9635,-141.1223 680.1462,-134.6515 684.8951,-140.0781 681.7124,-146.5489"/>
<text text-anchor="middle" x="726.5" y="-230.5" font-family="Helvetica,sans-Serif" font-size="10.00" fill="#000000"> +arguments</text>
</g>
<!-- Node15&#45;&gt;Node4 -->
<g id="edge17" class="edge">
<title>Node15&#45;&gt;Node4</title>
<path fill="none" stroke="#404040" d="M798.7715,-630.151C812.5589,-518.4446 822.5522,-329.4404 762.5,-182 757.2171,-169.0294 749.9473,-156.3753 741.7805,-144.4944"/>
<polygon fill="none" stroke="#404040" points="741.7449,-144.4448 734.9929,-141.9127 734.7334,-134.7062 741.4853,-137.2383 741.7449,-144.4448"/>
<text text-anchor="middle" x="849.5" y="-400" font-family="Helvetica,sans-Serif" font-size="10.00" fill="#000000"> +name</text>
<text text-anchor="middle" x="849.5" y="-389" font-family="Helvetica,sans-Serif" font-size="10.00" fill="#000000">+description</text>
<text text-anchor="middle" x="849.5" y="-378" font-family="Helvetica,sans-Serif" font-size="10.00" fill="#000000">+attrs_type_key</text>
</g>
</g>
</svg>
