<?xml version="1.0" encoding="UTF-8" standalone="no"?>
<!DOCTYPE svg PUBLIC "-//W3C//DTD SVG 1.1//EN"
 "http://www.w3.org/Graphics/SVG/1.1/DTD/svg11.dtd">
<!-- Generated by graphviz version 2.40.1 (20161225.0304)
 -->
<!-- Title: tvm::relax::DataTypeImmNode Pages: 1 -->
<svg width="868pt" height="1780pt"
 viewBox="0.00 0.00 867.50 1780.00" xmlns="http://www.w3.org/2000/svg" xmlns:xlink="http://www.w3.org/1999/xlink">
<g id="graph0" class="graph" transform="scale(1 1) rotate(0) translate(4 1776)">
<title>tvm::relax::DataTypeImmNode</title>
<polygon fill="#ffffff" stroke="transparent" points="-4,4 -4,-1776 863.5,-1776 863.5,4 -4,4"/>
<!-- Node5 -->
<g id="node1" class="node">
<title>Node5</title>
<polygon fill="#bfbfbf" stroke="#000000" points="496,-.5 496,-90.5 705,-90.5 705,-.5 496,-.5"/>
<text text-anchor="middle" x="600.5" y="-78.5" font-family="Helvetica,sans-Serif" font-size="10.00" fill="#000000">tvm::relax::DataTypeImmNode</text>
<polyline fill="none" stroke="#000000" points="496,-71.5 705,-71.5 "/>
<text text-anchor="start" x="504" y="-59.5" font-family="Helvetica,sans-Serif" font-size="10.00" fill="#000000">+ _type_key</text>
<polyline fill="none" stroke="#000000" points="496,-52.5 705,-52.5 "/>
<text text-anchor="start" x="504" y="-40.5" font-family="Helvetica,sans-Serif" font-size="10.00" fill="#000000">+ VisitAttrs()</text>
<text text-anchor="start" x="504" y="-29.5" font-family="Helvetica,sans-Serif" font-size="10.00" fill="#000000">+ SEqualReduce()</text>
<text text-anchor="start" x="504" y="-18.5" font-family="Helvetica,sans-Serif" font-size="10.00" fill="#000000">+ SHashReduce()</text>
<text text-anchor="start" x="504" y="-7.5" font-family="Helvetica,sans-Serif" font-size="10.00" fill="#000000">+ TVM_DECLARE_FINAL_OBJECT_INFO()</text>
</g>
<!-- Node6 -->
<g id="node2" class="node">
<title>Node6</title>
<g id="a_node2"><a xlink:href="classtvm_1_1relax_1_1LeafExprNode.html" target="_top" xlink:title="Base type of all (non&#45;function) leaf Exprs. ">
<polygon fill="#ffffff" stroke="#000000" points="403,-232 403,-300 610,-300 610,-232 403,-232"/>
<text text-anchor="middle" x="506.5" y="-288" font-family="Helvetica,sans-Serif" font-size="10.00" fill="#000000">tvm::relax::LeafExprNode</text>
<polyline fill="none" stroke="#000000" points="403,-281 610,-281 "/>
<text text-anchor="start" x="411" y="-269" font-family="Helvetica,sans-Serif" font-size="10.00" fill="#000000">+ _type_key</text>
<text text-anchor="start" x="411" y="-258" font-family="Helvetica,sans-Serif" font-size="10.00" fill="#000000">+ _type_child_slots</text>
<polyline fill="none" stroke="#000000" points="403,-251 610,-251 "/>
<text text-anchor="start" x="411" y="-239" font-family="Helvetica,sans-Serif" font-size="10.00" fill="#000000">+ TVM_DECLARE_BASE_OBJECT_INFO()</text>
</a>
</g>
</g>
<!-- Node6&#45;&gt;Node5 -->
<g id="edge1" class="edge">
<title>Node6&#45;&gt;Node5</title>
<path fill="none" stroke="#191970" d="M525.1477,-222.2572C541.3683,-184.2079 564.7826,-129.284 581.194,-90.7869"/>
<polygon fill="none" stroke="#191970" points="521.8895,-220.9753 521.1875,-231.5469 528.3288,-223.7204 521.8895,-220.9753"/>
</g>
<!-- Node7 -->
<g id="node3" class="node">
<title>Node7</title>
<g id="a_node3"><a xlink:href="classtvm_1_1RelayExprNode.html" target="_top" xlink:title="Base node of all non&#45;primitive expressions. ">
<polygon fill="#ffffff" stroke="#000000" points="403,-431.5 403,-532.5 610,-532.5 610,-431.5 403,-431.5"/>
<text text-anchor="middle" x="506.5" y="-520.5" font-family="Helvetica,sans-Serif" font-size="10.00" fill="#000000">ExprNode</text>
<polyline fill="none" stroke="#000000" points="403,-513.5 610,-513.5 "/>
<text text-anchor="start" x="411" y="-501.5" font-family="Helvetica,sans-Serif" font-size="10.00" fill="#000000">+ _type_key</text>
<text text-anchor="start" x="411" y="-490.5" font-family="Helvetica,sans-Serif" font-size="10.00" fill="#000000">+ _type_child_slots</text>
<polyline fill="none" stroke="#000000" points="403,-483.5 610,-483.5 "/>
<text text-anchor="start" x="411" y="-471.5" font-family="Helvetica,sans-Serif" font-size="10.00" fill="#000000">+ checked_type()</text>
<text text-anchor="start" x="411" y="-460.5" font-family="Helvetica,sans-Serif" font-size="10.00" fill="#000000">+ type_as()</text>
<text text-anchor="start" x="411" y="-449.5" font-family="Helvetica,sans-Serif" font-size="10.00" fill="#000000">+ virtual_device()</text>
<text text-anchor="start" x="411" y="-438.5" font-family="Helvetica,sans-Serif" font-size="10.00" fill="#000000">+ TVM_DECLARE_BASE_OBJECT_INFO()</text>
</a>
</g>
</g>
<!-- Node7&#45;&gt;Node6 -->
<g id="edge2" class="edge">
<title>Node7&#45;&gt;Node6</title>
<path fill="none" stroke="#191970" d="M506.5,-421.1302C506.5,-381.9895 506.5,-332.5748 506.5,-300.17"/>
<polygon fill="none" stroke="#191970" points="503.0001,-421.3576 506.5,-431.3576 510.0001,-421.3576 503.0001,-421.3576"/>
</g>
<!-- Node8 -->
<g id="node4" class="node">
<title>Node8</title>
<g id="a_node4"><a xlink:href="classtvm_1_1BaseExprNode.html" target="_top" xlink:title="Base type of all the expressions. ">
<polygon fill="#ffffff" stroke="#000000" points="218,-570.5 218,-682.5 425,-682.5 425,-570.5 218,-570.5"/>
<text text-anchor="middle" x="321.5" y="-670.5" font-family="Helvetica,sans-Serif" font-size="10.00" fill="#000000">tvm::BaseExprNode</text>
<polyline fill="none" stroke="#000000" points="218,-663.5 425,-663.5 "/>
<text text-anchor="start" x="226" y="-651.5" font-family="Helvetica,sans-Serif" font-size="10.00" fill="#000000">+ _type_key</text>
<text text-anchor="start" x="226" y="-640.5" font-family="Helvetica,sans-Serif" font-size="10.00" fill="#000000">+ _type_has_method_sequal</text>
<text text-anchor="start" x="226" y="-629.5" font-family="Helvetica,sans-Serif" font-size="10.00" fill="#000000">_reduce</text>
<text text-anchor="start" x="226" y="-618.5" font-family="Helvetica,sans-Serif" font-size="10.00" fill="#000000">+ _type_has_method_shash</text>
<text text-anchor="start" x="226" y="-607.5" font-family="Helvetica,sans-Serif" font-size="10.00" fill="#000000">_reduce</text>
<text text-anchor="start" x="226" y="-596.5" font-family="Helvetica,sans-Serif" font-size="10.00" fill="#000000">+ _type_child_slots</text>
<polyline fill="none" stroke="#000000" points="218,-589.5 425,-589.5 "/>
<text text-anchor="start" x="226" y="-577.5" font-family="Helvetica,sans-Serif" font-size="10.00" fill="#000000">+ TVM_DECLARE_BASE_OBJECT_INFO()</text>
</a>
</g>
</g>
<!-- Node8&#45;&gt;Node7 -->
<g id="edge3" class="edge">
<title>Node8&#45;&gt;Node7</title>
<path fill="none" stroke="#191970" d="M401.2,-564.2479C414.7215,-553.6864 428.6152,-542.8344 441.695,-532.618"/>
<polygon fill="none" stroke="#191970" points="399.017,-561.5117 393.2906,-570.4257 403.326,-567.0284 399.017,-561.5117"/>
</g>
<!-- Node9 -->
<g id="node5" class="node">
<title>Node9</title>
<g id="a_node5"><a xlink:href="classtvm_1_1runtime_1_1Object.html" target="_top" xlink:title="base class of all object containers. ">
<polygon fill="#ffffff" stroke="#000000" points="0,-898.5 0,-1285.5 183,-1285.5 183,-898.5 0,-898.5"/>
<text text-anchor="middle" x="91.5" y="-1273.5" font-family="Helvetica,sans-Serif" font-size="10.00" fill="#000000">tvm::runtime::Object</text>
<polyline fill="none" stroke="#000000" points="0,-1266.5 183,-1266.5 "/>
<text text-anchor="start" x="8" y="-1254.5" font-family="Helvetica,sans-Serif" font-size="10.00" fill="#000000">+ _type_key</text>
<text text-anchor="start" x="8" y="-1243.5" font-family="Helvetica,sans-Serif" font-size="10.00" fill="#000000">+ _type_final</text>
<text text-anchor="start" x="8" y="-1232.5" font-family="Helvetica,sans-Serif" font-size="10.00" fill="#000000">+ _type_child_slots</text>
<text text-anchor="start" x="8" y="-1221.5" font-family="Helvetica,sans-Serif" font-size="10.00" fill="#000000">+ _type_child_slots_can</text>
<text text-anchor="start" x="8" y="-1210.5" font-family="Helvetica,sans-Serif" font-size="10.00" fill="#000000">_overflow</text>
<text text-anchor="start" x="8" y="-1199.5" font-family="Helvetica,sans-Serif" font-size="10.00" fill="#000000">+ _type_has_method_visit</text>
<text text-anchor="start" x="8" y="-1188.5" font-family="Helvetica,sans-Serif" font-size="10.00" fill="#000000">_attrs</text>
<text text-anchor="start" x="8" y="-1177.5" font-family="Helvetica,sans-Serif" font-size="10.00" fill="#000000">+ _type_has_method_sequal</text>
<text text-anchor="start" x="8" y="-1166.5" font-family="Helvetica,sans-Serif" font-size="10.00" fill="#000000">_reduce</text>
<text text-anchor="start" x="8" y="-1155.5" font-family="Helvetica,sans-Serif" font-size="10.00" fill="#000000">+ _type_has_method_shash</text>
<text text-anchor="start" x="8" y="-1144.5" font-family="Helvetica,sans-Serif" font-size="10.00" fill="#000000">_reduce</text>
<text text-anchor="start" x="8" y="-1133.5" font-family="Helvetica,sans-Serif" font-size="10.00" fill="#000000">+ _type_index</text>
<text text-anchor="start" x="8" y="-1122.5" font-family="Helvetica,sans-Serif" font-size="10.00" fill="#000000"># type_index_</text>
<text text-anchor="start" x="8" y="-1111.5" font-family="Helvetica,sans-Serif" font-size="10.00" fill="#000000"># ref_counter_</text>
<polyline fill="none" stroke="#000000" points="0,-1104.5 183,-1104.5 "/>
<text text-anchor="start" x="8" y="-1092.5" font-family="Helvetica,sans-Serif" font-size="10.00" fill="#000000">+ type_index()</text>
<text text-anchor="start" x="8" y="-1081.5" font-family="Helvetica,sans-Serif" font-size="10.00" fill="#000000">+ GetTypeKey()</text>
<text text-anchor="start" x="8" y="-1070.5" font-family="Helvetica,sans-Serif" font-size="10.00" fill="#000000">+ GetTypeKeyHash()</text>
<text text-anchor="start" x="8" y="-1059.5" font-family="Helvetica,sans-Serif" font-size="10.00" fill="#000000">+ IsInstance()</text>
<text text-anchor="start" x="8" y="-1048.5" font-family="Helvetica,sans-Serif" font-size="10.00" fill="#000000">+ unique()</text>
<text text-anchor="start" x="8" y="-1037.5" font-family="Helvetica,sans-Serif" font-size="10.00" fill="#000000">+ Object()</text>
<text text-anchor="start" x="8" y="-1026.5" font-family="Helvetica,sans-Serif" font-size="10.00" fill="#000000">+ Object()</text>
<text text-anchor="start" x="8" y="-1015.5" font-family="Helvetica,sans-Serif" font-size="10.00" fill="#000000">+ Object()</text>
<text text-anchor="start" x="8" y="-1004.5" font-family="Helvetica,sans-Serif" font-size="10.00" fill="#000000">+ operator=()</text>
<text text-anchor="start" x="8" y="-993.5" font-family="Helvetica,sans-Serif" font-size="10.00" fill="#000000">+ operator=()</text>
<text text-anchor="start" x="8" y="-982.5" font-family="Helvetica,sans-Serif" font-size="10.00" fill="#000000">+ TypeIndex2Key()</text>
<text text-anchor="start" x="8" y="-971.5" font-family="Helvetica,sans-Serif" font-size="10.00" fill="#000000">+ TypeIndex2KeyHash()</text>
<text text-anchor="start" x="8" y="-960.5" font-family="Helvetica,sans-Serif" font-size="10.00" fill="#000000">+ TypeKey2Index()</text>
<text text-anchor="start" x="8" y="-949.5" font-family="Helvetica,sans-Serif" font-size="10.00" fill="#000000">+ _GetOrAllocRuntimeTypeIndex()</text>
<text text-anchor="start" x="8" y="-938.5" font-family="Helvetica,sans-Serif" font-size="10.00" fill="#000000">+ RuntimeTypeIndex()</text>
<text text-anchor="start" x="8" y="-927.5" font-family="Helvetica,sans-Serif" font-size="10.00" fill="#000000"># IncRef()</text>
<text text-anchor="start" x="8" y="-916.5" font-family="Helvetica,sans-Serif" font-size="10.00" fill="#000000"># DecRef()</text>
<text text-anchor="start" x="8" y="-905.5" font-family="Helvetica,sans-Serif" font-size="10.00" fill="#000000"># GetOrAllocRuntimeTypeIndex()</text>
</a>
</g>
</g>
<!-- Node9&#45;&gt;Node8 -->
<g id="edge4" class="edge">
<title>Node9&#45;&gt;Node8</title>
<path fill="none" stroke="#191970" d="M187.7259,-897.2472C226.088,-819.6055 267.3149,-736.166 293.7043,-682.756"/>
<polygon fill="none" stroke="#191970" points="184.3548,-896.1687 183.063,-906.6845 190.6306,-899.2696 184.3548,-896.1687"/>
</g>
<!-- Node9&#45;&gt;Node9 -->
<g id="edge5" class="edge">
<title>Node9&#45;&gt;Node9</title>
<path fill="none" stroke="#404040" d="M183.3625,-1125.9248C194.0482,-1119.6637 201,-1108.3555 201,-1092 201,-1081.0112 197.8618,-1072.3007 192.5615,-1065.8687"/>
<polygon fill="none" stroke="#404040" points="192.5184,-1065.8322 185.3548,-1065.0056 183.3625,-1058.0752 190.5261,-1058.9017 192.5184,-1065.8322"/>
<text text-anchor="middle" x="227" y="-1089.5" font-family="Helvetica,sans-Serif" font-size="10.00" fill="#000000"> #deleter_</text>
</g>
<!-- Node10 -->
<g id="node6" class="node">
<title>Node10</title>
<g id="a_node6"><a xlink:href="classtvm_1_1Span.html" target="_top" xlink:title="{tvm::Span\n||+ Span()\l+ Merge()\l+ TVM_DEFINE_OBJECT_REF\l_METHODS()\l}">
<polygon fill="#ffffff" stroke="#000000" points="271.5,-1047 271.5,-1137 425.5,-1137 425.5,-1047 271.5,-1047"/>
<text text-anchor="middle" x="348.5" y="-1125" font-family="Helvetica,sans-Serif" font-size="10.00" fill="#000000">tvm::Span</text>
<polyline fill="none" stroke="#000000" points="271.5,-1118 425.5,-1118 "/>
<text text-anchor="middle" x="348.5" y="-1106" font-family="Helvetica,sans-Serif" font-size="10.00" fill="#000000"> </text>
<polyline fill="none" stroke="#000000" points="271.5,-1099 425.5,-1099 "/>
<text text-anchor="start" x="279.5" y="-1087" font-family="Helvetica,sans-Serif" font-size="10.00" fill="#000000">+ Span()</text>
<text text-anchor="start" x="279.5" y="-1076" font-family="Helvetica,sans-Serif" font-size="10.00" fill="#000000">+ Merge()</text>
<text text-anchor="start" x="279.5" y="-1065" font-family="Helvetica,sans-Serif" font-size="10.00" fill="#000000">+ TVM_DEFINE_OBJECT_REF</text>
<text text-anchor="start" x="279.5" y="-1054" font-family="Helvetica,sans-Serif" font-size="10.00" fill="#000000">_METHODS()</text>
</a>
</g>
</g>
<!-- Node10&#45;&gt;Node8 -->
<g id="edge6" class="edge">
<title>Node10&#45;&gt;Node8</title>
<path fill="none" stroke="#404040" d="M345.8866,-1046.9429C341.1385,-965.0818 331.0703,-791.4987 325.4693,-694.934"/>
<polygon fill="none" stroke="#404040" points="325.4543,-694.6739 321.1136,-688.9156 324.7594,-682.6941 329.1001,-688.4523 325.4543,-694.6739"/>
<text text-anchor="middle" x="354" y="-788" font-family="Helvetica,sans-Serif" font-size="10.00" fill="#000000"> +span</text>
</g>
<!-- Node11 -->
<g id="node7" class="node">
<title>Node11</title>
<g id="a_node7"><a xlink:href="classtvm_1_1runtime_1_1ObjectRef.html" target="_top" xlink:title="Base class of all object reference. ">
<polygon fill="#ffffff" stroke="#000000" points="470.5,-1323.5 470.5,-1545.5 604.5,-1545.5 604.5,-1323.5 470.5,-1323.5"/>
<text text-anchor="middle" x="537.5" y="-1533.5" font-family="Helvetica,sans-Serif" font-size="10.00" fill="#000000">tvm::runtime::ObjectRef</text>
<polyline fill="none" stroke="#000000" points="470.5,-1526.5 604.5,-1526.5 "/>
<text text-anchor="start" x="478.5" y="-1514.5" font-family="Helvetica,sans-Serif" font-size="10.00" fill="#000000">+ _type_is_nullable</text>
<polyline fill="none" stroke="#000000" points="470.5,-1507.5 604.5,-1507.5 "/>
<text text-anchor="start" x="478.5" y="-1495.5" font-family="Helvetica,sans-Serif" font-size="10.00" fill="#000000">+ ObjectRef()</text>
<text text-anchor="start" x="478.5" y="-1484.5" font-family="Helvetica,sans-Serif" font-size="10.00" fill="#000000">+ ObjectRef()</text>
<text text-anchor="start" x="478.5" y="-1473.5" font-family="Helvetica,sans-Serif" font-size="10.00" fill="#000000">+ same_as()</text>
<text text-anchor="start" x="478.5" y="-1462.5" font-family="Helvetica,sans-Serif" font-size="10.00" fill="#000000">+ operator==()</text>
<text text-anchor="start" x="478.5" y="-1451.5" font-family="Helvetica,sans-Serif" font-size="10.00" fill="#000000">+ operator!=()</text>
<text text-anchor="start" x="478.5" y="-1440.5" font-family="Helvetica,sans-Serif" font-size="10.00" fill="#000000">+ operator&lt;()</text>
<text text-anchor="start" x="478.5" y="-1429.5" font-family="Helvetica,sans-Serif" font-size="10.00" fill="#000000">+ defined()</text>
<text text-anchor="start" x="478.5" y="-1418.5" font-family="Helvetica,sans-Serif" font-size="10.00" fill="#000000">+ get()</text>
<text text-anchor="start" x="478.5" y="-1407.5" font-family="Helvetica,sans-Serif" font-size="10.00" fill="#000000">+ operator&#45;&gt;()</text>
<text text-anchor="start" x="478.5" y="-1396.5" font-family="Helvetica,sans-Serif" font-size="10.00" fill="#000000">+ unique()</text>
<text text-anchor="start" x="478.5" y="-1385.5" font-family="Helvetica,sans-Serif" font-size="10.00" fill="#000000">+ use_count()</text>
<text text-anchor="start" x="478.5" y="-1374.5" font-family="Helvetica,sans-Serif" font-size="10.00" fill="#000000">+ as()</text>
<text text-anchor="start" x="478.5" y="-1363.5" font-family="Helvetica,sans-Serif" font-size="10.00" fill="#000000"># get_mutable()</text>
<text text-anchor="start" x="478.5" y="-1352.5" font-family="Helvetica,sans-Serif" font-size="10.00" fill="#000000"># DowncastNoCheck()</text>
<text text-anchor="start" x="478.5" y="-1341.5" font-family="Helvetica,sans-Serif" font-size="10.00" fill="#000000"># FFIClearAfterMove()</text>
<text text-anchor="start" x="478.5" y="-1330.5" font-family="Helvetica,sans-Serif" font-size="10.00" fill="#000000"># GetDataPtr()</text>
</a>
</g>
</g>
<!-- Node11&#45;&gt;Node7 -->
<g id="edge9" class="edge">
<title>Node11&#45;&gt;Node7</title>
<path fill="none" stroke="#404040" d="M507.0165,-1323.2142C471.5648,-1179.4334 421.2869,-921.4068 449.5,-701 456.3997,-647.0979 472.4836,-587.5103 485.8128,-544.1166"/>
<polygon fill="none" stroke="#404040" points="485.8296,-544.0627 483.7962,-537.1442 489.4004,-532.6063 491.4338,-539.5248 485.8296,-544.0627"/>
<text text-anchor="middle" x="492.5" y="-788" font-family="Helvetica,sans-Serif" font-size="10.00" fill="#000000"> +virtual_device_</text>
</g>
<!-- Node11&#45;&gt;Node10 -->
<g id="edge7" class="edge">
<title>Node11&#45;&gt;Node10</title>
<path fill="none" stroke="#191970" d="M464.4646,-1343.6704C455.5657,-1331.0041 446.9872,-1317.9029 439.5,-1305 407.5109,-1249.8719 380.2498,-1181.3575 364.1247,-1137.1654"/>
<polygon fill="none" stroke="#191970" points="461.6949,-1345.8147 470.3504,-1351.9247 467.3943,-1341.7506 461.6949,-1345.8147"/>
</g>
<!-- Node13 -->
<g id="node9" class="node">
<title>Node13</title>
<g id="a_node9"><a xlink:href="classtvm_1_1Type.html" target="_top" xlink:title="Managed reference to TypeNode. ">
<polygon fill="#ffffff" stroke="#000000" points="544.5,-756.5 544.5,-824.5 698.5,-824.5 698.5,-756.5 544.5,-756.5"/>
<text text-anchor="middle" x="621.5" y="-812.5" font-family="Helvetica,sans-Serif" font-size="10.00" fill="#000000">tvm::Type</text>
<polyline fill="none" stroke="#000000" points="544.5,-805.5 698.5,-805.5 "/>
<text text-anchor="middle" x="621.5" y="-793.5" font-family="Helvetica,sans-Serif" font-size="10.00" fill="#000000"> </text>
<polyline fill="none" stroke="#000000" points="544.5,-786.5 698.5,-786.5 "/>
<text text-anchor="start" x="552.5" y="-774.5" font-family="Helvetica,sans-Serif" font-size="10.00" fill="#000000">+ TVM_DEFINE_OBJECT_REF</text>
<text text-anchor="start" x="552.5" y="-763.5" font-family="Helvetica,sans-Serif" font-size="10.00" fill="#000000">_METHODS()</text>
</a>
</g>
</g>
<!-- Node11&#45;&gt;Node13 -->
<g id="edge11" class="edge">
<title>Node11&#45;&gt;Node13</title>
<path fill="none" stroke="#191970" d="M553.3213,-1313.2037C572.9621,-1162.6238 605.3064,-914.6513 617.0577,-824.5576"/>
<polygon fill="none" stroke="#191970" points="549.8108,-1313.0572 551.9879,-1323.4259 556.752,-1313.9626 549.8108,-1313.0572"/>
</g>
<!-- Node14 -->
<g id="node10" class="node">
<title>Node14</title>
<g id="a_node10"><a xlink:href="classtvm_1_1runtime_1_1Optional.html" target="_top" xlink:title="{tvm::runtime::Optional\l\&lt; tvm::runtime::ObjectRef \&gt;\n|+ _type_is_nullable\l|+ Optional()\l+ Optional()\l+ Optional()\l+ Optional()\l+ Optional()\l+ Optional()\l+ Optional()\l+ Optional()\l+ operator=()\l+ operator=()\land 15 more...\l}">
<polygon fill="#ffffff" stroke="#000000" points="703.5,-701.5 703.5,-879.5 859.5,-879.5 859.5,-701.5 703.5,-701.5"/>
<text text-anchor="start" x="711.5" y="-867.5" font-family="Helvetica,sans-Serif" font-size="10.00" fill="#000000">tvm::runtime::Optional</text>
<text text-anchor="middle" x="781.5" y="-856.5" font-family="Helvetica,sans-Serif" font-size="10.00" fill="#000000">&lt; tvm::runtime::ObjectRef &gt;</text>
<polyline fill="none" stroke="#000000" points="703.5,-849.5 859.5,-849.5 "/>
<text text-anchor="start" x="711.5" y="-837.5" font-family="Helvetica,sans-Serif" font-size="10.00" fill="#000000">+ _type_is_nullable</text>
<polyline fill="none" stroke="#000000" points="703.5,-830.5 859.5,-830.5 "/>
<text text-anchor="start" x="711.5" y="-818.5" font-family="Helvetica,sans-Serif" font-size="10.00" fill="#000000">+ Optional()</text>
<text text-anchor="start" x="711.5" y="-807.5" font-family="Helvetica,sans-Serif" font-size="10.00" fill="#000000">+ Optional()</text>
<text text-anchor="start" x="711.5" y="-796.5" font-family="Helvetica,sans-Serif" font-size="10.00" fill="#000000">+ Optional()</text>
<text text-anchor="start" x="711.5" y="-785.5" font-family="Helvetica,sans-Serif" font-size="10.00" fill="#000000">+ Optional()</text>
<text text-anchor="start" x="711.5" y="-774.5" font-family="Helvetica,sans-Serif" font-size="10.00" fill="#000000">+ Optional()</text>
<text text-anchor="start" x="711.5" y="-763.5" font-family="Helvetica,sans-Serif" font-size="10.00" fill="#000000">+ Optional()</text>
<text text-anchor="start" x="711.5" y="-752.5" font-family="Helvetica,sans-Serif" font-size="10.00" fill="#000000">+ Optional()</text>
<text text-anchor="start" x="711.5" y="-741.5" font-family="Helvetica,sans-Serif" font-size="10.00" fill="#000000">+ Optional()</text>
<text text-anchor="start" x="711.5" y="-730.5" font-family="Helvetica,sans-Serif" font-size="10.00" fill="#000000">+ operator=()</text>
<text text-anchor="start" x="711.5" y="-719.5" font-family="Helvetica,sans-Serif" font-size="10.00" fill="#000000">+ operator=()</text>
<text text-anchor="start" x="711.5" y="-708.5" font-family="Helvetica,sans-Serif" font-size="10.00" fill="#000000">and 15 more...</text>
</a>
</g>
</g>
<!-- Node11&#45;&gt;Node14 -->
<g id="edge13" class="edge">
<title>Node11&#45;&gt;Node14</title>
<path fill="none" stroke="#191970" d="M585.7279,-1313.7243C589.3961,-1304.3521 593.0217,-1295.028 596.5,-1286 651.0541,-1144.4059 712.2639,-979.1469 748.8051,-879.7742"/>
<polygon fill="none" stroke="#191970" points="582.4424,-1312.5156 582.0494,-1323.1032 588.9591,-1315.0716 582.4424,-1312.5156"/>
</g>
<!-- Node12 -->
<g id="node8" class="node">
<title>Node12</title>
<g id="a_node8"><a xlink:href="classtvm_1_1runtime_1_1ObjectPtr.html" target="_top" xlink:title="{tvm::runtime::ObjectPtr\l\&lt; tvm::runtime::Object \&gt;\n||+ ObjectPtr()\l+ ObjectPtr()\l+ ObjectPtr()\l+ ObjectPtr()\l+ ObjectPtr()\l+ ObjectPtr()\l+ ~ObjectPtr()\l+ swap()\l+ get()\l+ operator&#45;\&gt;()\land 11 more...\l}">
<polygon fill="#ffffff" stroke="#000000" points="467.5,-1593.5 467.5,-1771.5 607.5,-1771.5 607.5,-1593.5 467.5,-1593.5"/>
<text text-anchor="start" x="475.5" y="-1759.5" font-family="Helvetica,sans-Serif" font-size="10.00" fill="#000000">tvm::runtime::ObjectPtr</text>
<text text-anchor="middle" x="537.5" y="-1748.5" font-family="Helvetica,sans-Serif" font-size="10.00" fill="#000000">&lt; tvm::runtime::Object &gt;</text>
<polyline fill="none" stroke="#000000" points="467.5,-1741.5 607.5,-1741.5 "/>
<text text-anchor="middle" x="537.5" y="-1729.5" font-family="Helvetica,sans-Serif" font-size="10.00" fill="#000000"> </text>
<polyline fill="none" stroke="#000000" points="467.5,-1722.5 607.5,-1722.5 "/>
<text text-anchor="start" x="475.5" y="-1710.5" font-family="Helvetica,sans-Serif" font-size="10.00" fill="#000000">+ ObjectPtr()</text>
<text text-anchor="start" x="475.5" y="-1699.5" font-family="Helvetica,sans-Serif" font-size="10.00" fill="#000000">+ ObjectPtr()</text>
<text text-anchor="start" x="475.5" y="-1688.5" font-family="Helvetica,sans-Serif" font-size="10.00" fill="#000000">+ ObjectPtr()</text>
<text text-anchor="start" x="475.5" y="-1677.5" font-family="Helvetica,sans-Serif" font-size="10.00" fill="#000000">+ ObjectPtr()</text>
<text text-anchor="start" x="475.5" y="-1666.5" font-family="Helvetica,sans-Serif" font-size="10.00" fill="#000000">+ ObjectPtr()</text>
<text text-anchor="start" x="475.5" y="-1655.5" font-family="Helvetica,sans-Serif" font-size="10.00" fill="#000000">+ ObjectPtr()</text>
<text text-anchor="start" x="475.5" y="-1644.5" font-family="Helvetica,sans-Serif" font-size="10.00" fill="#000000">+ ~ObjectPtr()</text>
<text text-anchor="start" x="475.5" y="-1633.5" font-family="Helvetica,sans-Serif" font-size="10.00" fill="#000000">+ swap()</text>
<text text-anchor="start" x="475.5" y="-1622.5" font-family="Helvetica,sans-Serif" font-size="10.00" fill="#000000">+ get()</text>
<text text-anchor="start" x="475.5" y="-1611.5" font-family="Helvetica,sans-Serif" font-size="10.00" fill="#000000">+ operator&#45;&gt;()</text>
<text text-anchor="start" x="475.5" y="-1600.5" font-family="Helvetica,sans-Serif" font-size="10.00" fill="#000000">and 11 more...</text>
</a>
</g>
</g>
<!-- Node12&#45;&gt;Node11 -->
<g id="edge8" class="edge">
<title>Node12&#45;&gt;Node11</title>
<path fill="none" stroke="#404040" d="M537.5,-1593.3167C537.5,-1581.8765 537.5,-1570.0062 537.5,-1558.1402"/>
<polygon fill="none" stroke="#404040" points="537.5001,-1557.7944 533.5,-1551.7944 537.5,-1545.7944 541.5,-1551.7943 537.5001,-1557.7944"/>
<text text-anchor="middle" x="557" y="-1567" font-family="Helvetica,sans-Serif" font-size="10.00" fill="#000000"> #data_</text>
</g>
<!-- Node13&#45;&gt;Node7 -->
<g id="edge10" class="edge">
<title>Node13&#45;&gt;Node7</title>
<path fill="none" stroke="#404040" d="M608.7536,-756.3064C589.7052,-705.2069 553.5082,-608.1046 529.6914,-544.2135"/>
<polygon fill="none" stroke="#404040" points="529.5869,-543.9329 523.743,-539.708 525.3953,-532.6887 531.2392,-536.9136 529.5869,-543.9329"/>
<text text-anchor="middle" x="624" y="-624" font-family="Helvetica,sans-Serif" font-size="10.00" fill="#000000"> +checked_type_</text>
</g>
<!-- Node14&#45;&gt;Node7 -->
<g id="edge12" class="edge">
<title>Node14&#45;&gt;Node7</title>
<path fill="none" stroke="#404040" d="M751.303,-701.3896C733.1319,-657.8018 706.463,-606.9149 670.5,-570 656.1081,-555.2272 638.6979,-542.3505 620.669,-531.3427"/>
<polygon fill="none" stroke="#404040" points="620.6486,-531.3308 613.449,-531.7381 610.304,-525.2489 617.5036,-524.8416 620.6486,-531.3308"/>
<text text-anchor="middle" x="777" y="-624" font-family="Helvetica,sans-Serif" font-size="10.00" fill="#000000"> +struct_info_</text>
</g>
<!-- Node15 -->
<g id="node11" class="node">
<title>Node15</title>
<g id="a_node11"><a xlink:href="classtvm_1_1runtime_1_1DataType.html" target="_top" xlink:title="Runtime primitive data type. ">
<polygon fill="#ffffff" stroke="#000000" points="628.5,-138.5 628.5,-393.5 760.5,-393.5 760.5,-138.5 628.5,-138.5"/>
<text text-anchor="middle" x="694.5" y="-381.5" font-family="Helvetica,sans-Serif" font-size="10.00" fill="#000000">tvm::runtime::DataType</text>
<polyline fill="none" stroke="#000000" points="628.5,-374.5 760.5,-374.5 "/>
<text text-anchor="middle" x="694.5" y="-362.5" font-family="Helvetica,sans-Serif" font-size="10.00" fill="#000000"> </text>
<polyline fill="none" stroke="#000000" points="628.5,-355.5 760.5,-355.5 "/>
<text text-anchor="start" x="636.5" y="-343.5" font-family="Helvetica,sans-Serif" font-size="10.00" fill="#000000">+ DataType()</text>
<text text-anchor="start" x="636.5" y="-332.5" font-family="Helvetica,sans-Serif" font-size="10.00" fill="#000000">+ DataType()</text>
<text text-anchor="start" x="636.5" y="-321.5" font-family="Helvetica,sans-Serif" font-size="10.00" fill="#000000">+ DataType()</text>
<text text-anchor="start" x="636.5" y="-310.5" font-family="Helvetica,sans-Serif" font-size="10.00" fill="#000000">+ code()</text>
<text text-anchor="start" x="636.5" y="-299.5" font-family="Helvetica,sans-Serif" font-size="10.00" fill="#000000">+ bits()</text>
<text text-anchor="start" x="636.5" y="-288.5" font-family="Helvetica,sans-Serif" font-size="10.00" fill="#000000">+ bytes()</text>
<text text-anchor="start" x="636.5" y="-277.5" font-family="Helvetica,sans-Serif" font-size="10.00" fill="#000000">+ lanes()</text>
<text text-anchor="start" x="636.5" y="-266.5" font-family="Helvetica,sans-Serif" font-size="10.00" fill="#000000">+ is_scalar()</text>
<text text-anchor="start" x="636.5" y="-255.5" font-family="Helvetica,sans-Serif" font-size="10.00" fill="#000000">+ is_bool()</text>
<text text-anchor="start" x="636.5" y="-244.5" font-family="Helvetica,sans-Serif" font-size="10.00" fill="#000000">+ is_float()</text>
<text text-anchor="start" x="636.5" y="-233.5" font-family="Helvetica,sans-Serif" font-size="10.00" fill="#000000">and 15 more...</text>
<text text-anchor="start" x="636.5" y="-222.5" font-family="Helvetica,sans-Serif" font-size="10.00" fill="#000000">+ Int()</text>
<text text-anchor="start" x="636.5" y="-211.5" font-family="Helvetica,sans-Serif" font-size="10.00" fill="#000000">+ UInt()</text>
<text text-anchor="start" x="636.5" y="-200.5" font-family="Helvetica,sans-Serif" font-size="10.00" fill="#000000">+ Float()</text>
<text text-anchor="start" x="636.5" y="-189.5" font-family="Helvetica,sans-Serif" font-size="10.00" fill="#000000">+ BFloat()</text>
<text text-anchor="start" x="636.5" y="-178.5" font-family="Helvetica,sans-Serif" font-size="10.00" fill="#000000">+ Bool()</text>
<text text-anchor="start" x="636.5" y="-167.5" font-family="Helvetica,sans-Serif" font-size="10.00" fill="#000000">+ Handle()</text>
<text text-anchor="start" x="636.5" y="-156.5" font-family="Helvetica,sans-Serif" font-size="10.00" fill="#000000">+ Void()</text>
<text text-anchor="start" x="636.5" y="-145.5" font-family="Helvetica,sans-Serif" font-size="10.00" fill="#000000">+ ShapeIndex()</text>
</a>
</g>
</g>
<!-- Node15&#45;&gt;Node5 -->
<g id="edge14" class="edge">
<title>Node15&#45;&gt;Node5</title>
<path fill="none" stroke="#404040" d="M640.092,-138.3728C634.7283,-125.7908 629.4966,-113.5185 624.6858,-102.2338"/>
<polygon fill="none" stroke="#404040" points="624.543,-101.8987 618.5105,-97.9479 619.8371,-90.8599 625.8697,-94.8106 624.543,-101.8987"/>
<text text-anchor="middle" x="651" y="-112" font-family="Helvetica,sans-Serif" font-size="10.00" fill="#000000"> +value</text>
</g>
</g>
</svg>
