<?xml version="1.0" encoding="UTF-8" standalone="no"?>
<!DOCTYPE svg PUBLIC "-//W3C//DTD SVG 1.1//EN"
 "http://www.w3.org/Graphics/SVG/1.1/DTD/svg11.dtd">
<!-- Generated by graphviz version 2.40.1 (20161225.0304)
 -->
<!-- Title: tvm::relax::ConstantNode Pages: 1 -->
<svg width="768pt" height="1892pt"
 viewBox="0.00 0.00 767.50 1892.00" xmlns="http://www.w3.org/2000/svg" xmlns:xlink="http://www.w3.org/1999/xlink">
<g id="graph0" class="graph" transform="scale(1 1) rotate(0) translate(4 1888)">
<title>tvm::relax::ConstantNode</title>
<polygon fill="#ffffff" stroke="transparent" points="-4,4 -4,-1888 763.5,-1888 763.5,4 -4,4"/>
<!-- Node5 -->
<g id="node1" class="node">
<title>Node5</title>
<polygon fill="#bfbfbf" stroke="#000000" points="486.5,-.5 486.5,-112.5 695.5,-112.5 695.5,-.5 486.5,-.5"/>
<text text-anchor="middle" x="591" y="-100.5" font-family="Helvetica,sans-Serif" font-size="10.00" fill="#000000">tvm::relax::ConstantNode</text>
<polyline fill="none" stroke="#000000" points="486.5,-93.5 695.5,-93.5 "/>
<text text-anchor="start" x="494.5" y="-81.5" font-family="Helvetica,sans-Serif" font-size="10.00" fill="#000000">+ _type_key</text>
<polyline fill="none" stroke="#000000" points="486.5,-74.5 695.5,-74.5 "/>
<text text-anchor="start" x="494.5" y="-62.5" font-family="Helvetica,sans-Serif" font-size="10.00" fill="#000000">+ tensor_type()</text>
<text text-anchor="start" x="494.5" y="-51.5" font-family="Helvetica,sans-Serif" font-size="10.00" fill="#000000">+ is_scalar()</text>
<text text-anchor="start" x="494.5" y="-40.5" font-family="Helvetica,sans-Serif" font-size="10.00" fill="#000000">+ VisitAttrs()</text>
<text text-anchor="start" x="494.5" y="-29.5" font-family="Helvetica,sans-Serif" font-size="10.00" fill="#000000">+ SEqualReduce()</text>
<text text-anchor="start" x="494.5" y="-18.5" font-family="Helvetica,sans-Serif" font-size="10.00" fill="#000000">+ SHashReduce()</text>
<text text-anchor="start" x="494.5" y="-7.5" font-family="Helvetica,sans-Serif" font-size="10.00" fill="#000000">+ TVM_DECLARE_FINAL_OBJECT_INFO()</text>
</g>
<!-- Node6 -->
<g id="node2" class="node">
<title>Node6</title>
<g id="a_node2"><a xlink:href="classtvm_1_1relax_1_1LeafExprNode.html" target="_top" xlink:title="Base type of all (non&#45;function) leaf Exprs. ">
<polygon fill="#ffffff" stroke="#000000" points="412.5,-150.5 412.5,-218.5 619.5,-218.5 619.5,-150.5 412.5,-150.5"/>
<text text-anchor="middle" x="516" y="-206.5" font-family="Helvetica,sans-Serif" font-size="10.00" fill="#000000">tvm::relax::LeafExprNode</text>
<polyline fill="none" stroke="#000000" points="412.5,-199.5 619.5,-199.5 "/>
<text text-anchor="start" x="420.5" y="-187.5" font-family="Helvetica,sans-Serif" font-size="10.00" fill="#000000">+ _type_key</text>
<text text-anchor="start" x="420.5" y="-176.5" font-family="Helvetica,sans-Serif" font-size="10.00" fill="#000000">+ _type_child_slots</text>
<polyline fill="none" stroke="#000000" points="412.5,-169.5 619.5,-169.5 "/>
<text text-anchor="start" x="420.5" y="-157.5" font-family="Helvetica,sans-Serif" font-size="10.00" fill="#000000">+ TVM_DECLARE_BASE_OBJECT_INFO()</text>
</a>
</g>
</g>
<!-- Node6&#45;&gt;Node5 -->
<g id="edge1" class="edge">
<title>Node6&#45;&gt;Node5</title>
<path fill="none" stroke="#191970" d="M541.1703,-141.5426C546.6024,-132.2719 552.4229,-122.3383 558.1005,-112.6485"/>
<polygon fill="none" stroke="#191970" points="538.1343,-139.8009 536.0986,-150.1983 544.1739,-143.3398 538.1343,-139.8009"/>
</g>
<!-- Node7 -->
<g id="node3" class="node">
<title>Node7</title>
<g id="a_node3"><a xlink:href="classtvm_1_1RelayExprNode.html" target="_top" xlink:title="Base node of all non&#45;primitive expressions. ">
<polygon fill="#ffffff" stroke="#000000" points="358.5,-266.5 358.5,-367.5 565.5,-367.5 565.5,-266.5 358.5,-266.5"/>
<text text-anchor="middle" x="462" y="-355.5" font-family="Helvetica,sans-Serif" font-size="10.00" fill="#000000">ExprNode</text>
<polyline fill="none" stroke="#000000" points="358.5,-348.5 565.5,-348.5 "/>
<text text-anchor="start" x="366.5" y="-336.5" font-family="Helvetica,sans-Serif" font-size="10.00" fill="#000000">+ _type_key</text>
<text text-anchor="start" x="366.5" y="-325.5" font-family="Helvetica,sans-Serif" font-size="10.00" fill="#000000">+ _type_child_slots</text>
<polyline fill="none" stroke="#000000" points="358.5,-318.5 565.5,-318.5 "/>
<text text-anchor="start" x="366.5" y="-306.5" font-family="Helvetica,sans-Serif" font-size="10.00" fill="#000000">+ checked_type()</text>
<text text-anchor="start" x="366.5" y="-295.5" font-family="Helvetica,sans-Serif" font-size="10.00" fill="#000000">+ type_as()</text>
<text text-anchor="start" x="366.5" y="-284.5" font-family="Helvetica,sans-Serif" font-size="10.00" fill="#000000">+ virtual_device()</text>
<text text-anchor="start" x="366.5" y="-273.5" font-family="Helvetica,sans-Serif" font-size="10.00" fill="#000000">+ TVM_DECLARE_BASE_OBJECT_INFO()</text>
</a>
</g>
</g>
<!-- Node7&#45;&gt;Node6 -->
<g id="edge2" class="edge">
<title>Node7&#45;&gt;Node6</title>
<path fill="none" stroke="#191970" d="M486.5691,-256.7148C491.8978,-243.6396 497.3539,-230.2519 502.098,-218.6113"/>
<polygon fill="none" stroke="#191970" points="483.2563,-255.5696 482.7234,-266.151 489.7387,-258.2115 483.2563,-255.5696"/>
</g>
<!-- Node8 -->
<g id="node4" class="node">
<title>Node8</title>
<g id="a_node4"><a xlink:href="classtvm_1_1BaseExprNode.html" target="_top" xlink:title="Base type of all the expressions. ">
<polygon fill="#ffffff" stroke="#000000" points="97.5,-682.5 97.5,-794.5 304.5,-794.5 304.5,-682.5 97.5,-682.5"/>
<text text-anchor="middle" x="201" y="-782.5" font-family="Helvetica,sans-Serif" font-size="10.00" fill="#000000">tvm::BaseExprNode</text>
<polyline fill="none" stroke="#000000" points="97.5,-775.5 304.5,-775.5 "/>
<text text-anchor="start" x="105.5" y="-763.5" font-family="Helvetica,sans-Serif" font-size="10.00" fill="#000000">+ _type_key</text>
<text text-anchor="start" x="105.5" y="-752.5" font-family="Helvetica,sans-Serif" font-size="10.00" fill="#000000">+ _type_has_method_sequal</text>
<text text-anchor="start" x="105.5" y="-741.5" font-family="Helvetica,sans-Serif" font-size="10.00" fill="#000000">_reduce</text>
<text text-anchor="start" x="105.5" y="-730.5" font-family="Helvetica,sans-Serif" font-size="10.00" fill="#000000">+ _type_has_method_shash</text>
<text text-anchor="start" x="105.5" y="-719.5" font-family="Helvetica,sans-Serif" font-size="10.00" fill="#000000">_reduce</text>
<text text-anchor="start" x="105.5" y="-708.5" font-family="Helvetica,sans-Serif" font-size="10.00" fill="#000000">+ _type_child_slots</text>
<polyline fill="none" stroke="#000000" points="97.5,-701.5 304.5,-701.5 "/>
<text text-anchor="start" x="105.5" y="-689.5" font-family="Helvetica,sans-Serif" font-size="10.00" fill="#000000">+ TVM_DECLARE_BASE_OBJECT_INFO()</text>
</a>
</g>
</g>
<!-- Node8&#45;&gt;Node7 -->
<g id="edge3" class="edge">
<title>Node8&#45;&gt;Node7</title>
<path fill="none" stroke="#191970" d="M209.7257,-672.1846C222.9406,-595.22 254.6506,-468.3576 327,-386 335.9464,-375.816 346.7568,-366.937 358.3191,-359.2502"/>
<polygon fill="none" stroke="#191970" points="206.2413,-671.8026 208.0556,-682.241 213.1467,-672.9495 206.2413,-671.8026"/>
</g>
<!-- Node9 -->
<g id="node5" class="node">
<title>Node9</title>
<g id="a_node5"><a xlink:href="classtvm_1_1runtime_1_1Object.html" target="_top" xlink:title="base class of all object containers. ">
<polygon fill="#ffffff" stroke="#000000" points="172.5,-1010.5 172.5,-1397.5 355.5,-1397.5 355.5,-1010.5 172.5,-1010.5"/>
<text text-anchor="middle" x="264" y="-1385.5" font-family="Helvetica,sans-Serif" font-size="10.00" fill="#000000">tvm::runtime::Object</text>
<polyline fill="none" stroke="#000000" points="172.5,-1378.5 355.5,-1378.5 "/>
<text text-anchor="start" x="180.5" y="-1366.5" font-family="Helvetica,sans-Serif" font-size="10.00" fill="#000000">+ _type_key</text>
<text text-anchor="start" x="180.5" y="-1355.5" font-family="Helvetica,sans-Serif" font-size="10.00" fill="#000000">+ _type_final</text>
<text text-anchor="start" x="180.5" y="-1344.5" font-family="Helvetica,sans-Serif" font-size="10.00" fill="#000000">+ _type_child_slots</text>
<text text-anchor="start" x="180.5" y="-1333.5" font-family="Helvetica,sans-Serif" font-size="10.00" fill="#000000">+ _type_child_slots_can</text>
<text text-anchor="start" x="180.5" y="-1322.5" font-family="Helvetica,sans-Serif" font-size="10.00" fill="#000000">_overflow</text>
<text text-anchor="start" x="180.5" y="-1311.5" font-family="Helvetica,sans-Serif" font-size="10.00" fill="#000000">+ _type_has_method_visit</text>
<text text-anchor="start" x="180.5" y="-1300.5" font-family="Helvetica,sans-Serif" font-size="10.00" fill="#000000">_attrs</text>
<text text-anchor="start" x="180.5" y="-1289.5" font-family="Helvetica,sans-Serif" font-size="10.00" fill="#000000">+ _type_has_method_sequal</text>
<text text-anchor="start" x="180.5" y="-1278.5" font-family="Helvetica,sans-Serif" font-size="10.00" fill="#000000">_reduce</text>
<text text-anchor="start" x="180.5" y="-1267.5" font-family="Helvetica,sans-Serif" font-size="10.00" fill="#000000">+ _type_has_method_shash</text>
<text text-anchor="start" x="180.5" y="-1256.5" font-family="Helvetica,sans-Serif" font-size="10.00" fill="#000000">_reduce</text>
<text text-anchor="start" x="180.5" y="-1245.5" font-family="Helvetica,sans-Serif" font-size="10.00" fill="#000000">+ _type_index</text>
<text text-anchor="start" x="180.5" y="-1234.5" font-family="Helvetica,sans-Serif" font-size="10.00" fill="#000000"># type_index_</text>
<text text-anchor="start" x="180.5" y="-1223.5" font-family="Helvetica,sans-Serif" font-size="10.00" fill="#000000"># ref_counter_</text>
<polyline fill="none" stroke="#000000" points="172.5,-1216.5 355.5,-1216.5 "/>
<text text-anchor="start" x="180.5" y="-1204.5" font-family="Helvetica,sans-Serif" font-size="10.00" fill="#000000">+ type_index()</text>
<text text-anchor="start" x="180.5" y="-1193.5" font-family="Helvetica,sans-Serif" font-size="10.00" fill="#000000">+ GetTypeKey()</text>
<text text-anchor="start" x="180.5" y="-1182.5" font-family="Helvetica,sans-Serif" font-size="10.00" fill="#000000">+ GetTypeKeyHash()</text>
<text text-anchor="start" x="180.5" y="-1171.5" font-family="Helvetica,sans-Serif" font-size="10.00" fill="#000000">+ IsInstance()</text>
<text text-anchor="start" x="180.5" y="-1160.5" font-family="Helvetica,sans-Serif" font-size="10.00" fill="#000000">+ unique()</text>
<text text-anchor="start" x="180.5" y="-1149.5" font-family="Helvetica,sans-Serif" font-size="10.00" fill="#000000">+ Object()</text>
<text text-anchor="start" x="180.5" y="-1138.5" font-family="Helvetica,sans-Serif" font-size="10.00" fill="#000000">+ Object()</text>
<text text-anchor="start" x="180.5" y="-1127.5" font-family="Helvetica,sans-Serif" font-size="10.00" fill="#000000">+ Object()</text>
<text text-anchor="start" x="180.5" y="-1116.5" font-family="Helvetica,sans-Serif" font-size="10.00" fill="#000000">+ operator=()</text>
<text text-anchor="start" x="180.5" y="-1105.5" font-family="Helvetica,sans-Serif" font-size="10.00" fill="#000000">+ operator=()</text>
<text text-anchor="start" x="180.5" y="-1094.5" font-family="Helvetica,sans-Serif" font-size="10.00" fill="#000000">+ TypeIndex2Key()</text>
<text text-anchor="start" x="180.5" y="-1083.5" font-family="Helvetica,sans-Serif" font-size="10.00" fill="#000000">+ TypeIndex2KeyHash()</text>
<text text-anchor="start" x="180.5" y="-1072.5" font-family="Helvetica,sans-Serif" font-size="10.00" fill="#000000">+ TypeKey2Index()</text>
<text text-anchor="start" x="180.5" y="-1061.5" font-family="Helvetica,sans-Serif" font-size="10.00" fill="#000000">+ _GetOrAllocRuntimeTypeIndex()</text>
<text text-anchor="start" x="180.5" y="-1050.5" font-family="Helvetica,sans-Serif" font-size="10.00" fill="#000000">+ RuntimeTypeIndex()</text>
<text text-anchor="start" x="180.5" y="-1039.5" font-family="Helvetica,sans-Serif" font-size="10.00" fill="#000000"># IncRef()</text>
<text text-anchor="start" x="180.5" y="-1028.5" font-family="Helvetica,sans-Serif" font-size="10.00" fill="#000000"># DecRef()</text>
<text text-anchor="start" x="180.5" y="-1017.5" font-family="Helvetica,sans-Serif" font-size="10.00" fill="#000000"># GetOrAllocRuntimeTypeIndex()</text>
</a>
</g>
</g>
<!-- Node9&#45;&gt;Node8 -->
<g id="edge4" class="edge">
<title>Node9&#45;&gt;Node8</title>
<path fill="none" stroke="#191970" d="M220.2038,-1000.2795C219.7883,-997.5043 219.3867,-994.7434 219,-992 209.4861,-924.4999 204.8997,-846.1419 202.7583,-794.6175"/>
<polygon fill="none" stroke="#191970" points="216.7792,-1001.0368 221.7662,-1010.3845 223.697,-999.967 216.7792,-1001.0368"/>
</g>
<!-- Node9&#45;&gt;Node9 -->
<g id="edge5" class="edge">
<title>Node9&#45;&gt;Node9</title>
<path fill="none" stroke="#404040" d="M355.8625,-1237.9248C366.5482,-1231.6637 373.5,-1220.3555 373.5,-1204 373.5,-1193.0112 370.3618,-1184.3007 365.0615,-1177.8687"/>
<polygon fill="none" stroke="#404040" points="365.0184,-1177.8322 357.8548,-1177.0056 355.8625,-1170.0752 363.0261,-1170.9017 365.0184,-1177.8322"/>
<text text-anchor="middle" x="399.5" y="-1201.5" font-family="Helvetica,sans-Serif" font-size="10.00" fill="#000000"> #deleter_</text>
</g>
<!-- Node10 -->
<g id="node6" class="node">
<title>Node10</title>
<g id="a_node6"><a xlink:href="classtvm_1_1Span.html" target="_top" xlink:title="{tvm::Span\n||+ Span()\l+ Merge()\l+ TVM_DEFINE_OBJECT_REF\l_METHODS()\l}">
<polygon fill="#ffffff" stroke="#000000" points="0,-1159 0,-1249 154,-1249 154,-1159 0,-1159"/>
<text text-anchor="middle" x="77" y="-1237" font-family="Helvetica,sans-Serif" font-size="10.00" fill="#000000">tvm::Span</text>
<polyline fill="none" stroke="#000000" points="0,-1230 154,-1230 "/>
<text text-anchor="middle" x="77" y="-1218" font-family="Helvetica,sans-Serif" font-size="10.00" fill="#000000"> </text>
<polyline fill="none" stroke="#000000" points="0,-1211 154,-1211 "/>
<text text-anchor="start" x="8" y="-1199" font-family="Helvetica,sans-Serif" font-size="10.00" fill="#000000">+ Span()</text>
<text text-anchor="start" x="8" y="-1188" font-family="Helvetica,sans-Serif" font-size="10.00" fill="#000000">+ Merge()</text>
<text text-anchor="start" x="8" y="-1177" font-family="Helvetica,sans-Serif" font-size="10.00" fill="#000000">+ TVM_DEFINE_OBJECT_REF</text>
<text text-anchor="start" x="8" y="-1166" font-family="Helvetica,sans-Serif" font-size="10.00" fill="#000000">_METHODS()</text>
</a>
</g>
</g>
<!-- Node10&#45;&gt;Node8 -->
<g id="edge6" class="edge">
<title>Node10&#45;&gt;Node8</title>
<path fill="none" stroke="#404040" d="M83.7176,-1158.8004C95.4451,-1085.0125 122.5308,-934.6995 165,-813 165.7809,-810.7621 166.6108,-808.5033 167.4799,-806.2354"/>
<polygon fill="none" stroke="#404040" points="167.5803,-805.989 166.1407,-798.923 172.1094,-794.8764 173.549,-801.9424 167.5803,-805.989"/>
<text text-anchor="middle" x="182.5" y="-900" font-family="Helvetica,sans-Serif" font-size="10.00" fill="#000000"> +span</text>
</g>
<!-- Node11 -->
<g id="node7" class="node">
<title>Node11</title>
<g id="a_node7"><a xlink:href="classtvm_1_1runtime_1_1ObjectRef.html" target="_top" xlink:title="Base class of all object reference. ">
<polygon fill="#ffffff" stroke="#000000" points="425,-1435.5 425,-1657.5 559,-1657.5 559,-1435.5 425,-1435.5"/>
<text text-anchor="middle" x="492" y="-1645.5" font-family="Helvetica,sans-Serif" font-size="10.00" fill="#000000">tvm::runtime::ObjectRef</text>
<polyline fill="none" stroke="#000000" points="425,-1638.5 559,-1638.5 "/>
<text text-anchor="start" x="433" y="-1626.5" font-family="Helvetica,sans-Serif" font-size="10.00" fill="#000000">+ _type_is_nullable</text>
<polyline fill="none" stroke="#000000" points="425,-1619.5 559,-1619.5 "/>
<text text-anchor="start" x="433" y="-1607.5" font-family="Helvetica,sans-Serif" font-size="10.00" fill="#000000">+ ObjectRef()</text>
<text text-anchor="start" x="433" y="-1596.5" font-family="Helvetica,sans-Serif" font-size="10.00" fill="#000000">+ ObjectRef()</text>
<text text-anchor="start" x="433" y="-1585.5" font-family="Helvetica,sans-Serif" font-size="10.00" fill="#000000">+ same_as()</text>
<text text-anchor="start" x="433" y="-1574.5" font-family="Helvetica,sans-Serif" font-size="10.00" fill="#000000">+ operator==()</text>
<text text-anchor="start" x="433" y="-1563.5" font-family="Helvetica,sans-Serif" font-size="10.00" fill="#000000">+ operator!=()</text>
<text text-anchor="start" x="433" y="-1552.5" font-family="Helvetica,sans-Serif" font-size="10.00" fill="#000000">+ operator&lt;()</text>
<text text-anchor="start" x="433" y="-1541.5" font-family="Helvetica,sans-Serif" font-size="10.00" fill="#000000">+ defined()</text>
<text text-anchor="start" x="433" y="-1530.5" font-family="Helvetica,sans-Serif" font-size="10.00" fill="#000000">+ get()</text>
<text text-anchor="start" x="433" y="-1519.5" font-family="Helvetica,sans-Serif" font-size="10.00" fill="#000000">+ operator&#45;&gt;()</text>
<text text-anchor="start" x="433" y="-1508.5" font-family="Helvetica,sans-Serif" font-size="10.00" fill="#000000">+ unique()</text>
<text text-anchor="start" x="433" y="-1497.5" font-family="Helvetica,sans-Serif" font-size="10.00" fill="#000000">+ use_count()</text>
<text text-anchor="start" x="433" y="-1486.5" font-family="Helvetica,sans-Serif" font-size="10.00" fill="#000000">+ as()</text>
<text text-anchor="start" x="433" y="-1475.5" font-family="Helvetica,sans-Serif" font-size="10.00" fill="#000000"># get_mutable()</text>
<text text-anchor="start" x="433" y="-1464.5" font-family="Helvetica,sans-Serif" font-size="10.00" fill="#000000"># DowncastNoCheck()</text>
<text text-anchor="start" x="433" y="-1453.5" font-family="Helvetica,sans-Serif" font-size="10.00" fill="#000000"># FFIClearAfterMove()</text>
<text text-anchor="start" x="433" y="-1442.5" font-family="Helvetica,sans-Serif" font-size="10.00" fill="#000000"># GetDataPtr()</text>
</a>
</g>
</g>
<!-- Node11&#45;&gt;Node7 -->
<g id="edge9" class="edge">
<title>Node11&#45;&gt;Node7</title>
<path fill="none" stroke="#404040" d="M509.0303,-1435.2284C531.6549,-1270.2404 565.322,-951.2225 534,-682 521.5286,-574.8049 494.6661,-452.0533 477.5104,-379.7149"/>
<polygon fill="none" stroke="#404040" points="477.4234,-379.3508 472.1387,-374.4445 474.635,-367.6792 479.9198,-372.5855 477.4234,-379.3508"/>
<text text-anchor="middle" x="589" y="-900" font-family="Helvetica,sans-Serif" font-size="10.00" fill="#000000"> +virtual_device_</text>
</g>
<!-- Node11&#45;&gt;Node10 -->
<g id="edge7" class="edge">
<title>Node11&#45;&gt;Node10</title>
<path fill="none" stroke="#191970" d="M414.7088,-1528.692C341.5072,-1508.2625 232.701,-1468.1712 163,-1398 121.9781,-1356.7014 98.8335,-1292.4822 87.1249,-1249.3665"/>
<polygon fill="none" stroke="#191970" points="414.225,-1532.1879 424.7938,-1531.4453 416.0686,-1525.4351 414.225,-1532.1879"/>
</g>
<!-- Node13 -->
<g id="node9" class="node">
<title>Node13</title>
<g id="a_node9"><a xlink:href="classtvm_1_1Type.html" target="_top" xlink:title="Managed reference to TypeNode. ">
<polygon fill="#ffffff" stroke="#000000" points="223,-868.5 223,-936.5 377,-936.5 377,-868.5 223,-868.5"/>
<text text-anchor="middle" x="300" y="-924.5" font-family="Helvetica,sans-Serif" font-size="10.00" fill="#000000">tvm::Type</text>
<polyline fill="none" stroke="#000000" points="223,-917.5 377,-917.5 "/>
<text text-anchor="middle" x="300" y="-905.5" font-family="Helvetica,sans-Serif" font-size="10.00" fill="#000000"> </text>
<polyline fill="none" stroke="#000000" points="223,-898.5 377,-898.5 "/>
<text text-anchor="start" x="231" y="-886.5" font-family="Helvetica,sans-Serif" font-size="10.00" fill="#000000">+ TVM_DEFINE_OBJECT_REF</text>
<text text-anchor="start" x="231" y="-875.5" font-family="Helvetica,sans-Serif" font-size="10.00" fill="#000000">_METHODS()</text>
</a>
</g>
</g>
<!-- Node11&#45;&gt;Node13 -->
<g id="edge11" class="edge">
<title>Node11&#45;&gt;Node13</title>
<path fill="none" stroke="#191970" d="M471.6487,-1425.161C470.336,-1415.981 469.1014,-1406.8499 468,-1398 457.3106,-1312.11 487.4354,-1078.0883 434,-1010 418.6416,-990.43 401.7909,-1005.6603 381,-992 358.7564,-977.3852 338.6478,-955.2443 324.0302,-936.6414"/>
<polygon fill="none" stroke="#191970" points="468.1959,-1425.7395 473.1011,-1435.1305 475.1228,-1424.7303 468.1959,-1425.7395"/>
</g>
<!-- Node14 -->
<g id="node10" class="node">
<title>Node14</title>
<g id="a_node10"><a xlink:href="classtvm_1_1runtime_1_1Optional.html" target="_top" xlink:title="{tvm::runtime::Optional\l\&lt; tvm::runtime::ObjectRef \&gt;\n|+ _type_is_nullable\l|+ Optional()\l+ Optional()\l+ Optional()\l+ Optional()\l+ Optional()\l+ Optional()\l+ Optional()\l+ Optional()\l+ operator=()\l+ operator=()\land 15 more...\l}">
<polygon fill="#ffffff" stroke="#000000" points="382,-813.5 382,-991.5 538,-991.5 538,-813.5 382,-813.5"/>
<text text-anchor="start" x="390" y="-979.5" font-family="Helvetica,sans-Serif" font-size="10.00" fill="#000000">tvm::runtime::Optional</text>
<text text-anchor="middle" x="460" y="-968.5" font-family="Helvetica,sans-Serif" font-size="10.00" fill="#000000">&lt; tvm::runtime::ObjectRef &gt;</text>
<polyline fill="none" stroke="#000000" points="382,-961.5 538,-961.5 "/>
<text text-anchor="start" x="390" y="-949.5" font-family="Helvetica,sans-Serif" font-size="10.00" fill="#000000">+ _type_is_nullable</text>
<polyline fill="none" stroke="#000000" points="382,-942.5 538,-942.5 "/>
<text text-anchor="start" x="390" y="-930.5" font-family="Helvetica,sans-Serif" font-size="10.00" fill="#000000">+ Optional()</text>
<text text-anchor="start" x="390" y="-919.5" font-family="Helvetica,sans-Serif" font-size="10.00" fill="#000000">+ Optional()</text>
<text text-anchor="start" x="390" y="-908.5" font-family="Helvetica,sans-Serif" font-size="10.00" fill="#000000">+ Optional()</text>
<text text-anchor="start" x="390" y="-897.5" font-family="Helvetica,sans-Serif" font-size="10.00" fill="#000000">+ Optional()</text>
<text text-anchor="start" x="390" y="-886.5" font-family="Helvetica,sans-Serif" font-size="10.00" fill="#000000">+ Optional()</text>
<text text-anchor="start" x="390" y="-875.5" font-family="Helvetica,sans-Serif" font-size="10.00" fill="#000000">+ Optional()</text>
<text text-anchor="start" x="390" y="-864.5" font-family="Helvetica,sans-Serif" font-size="10.00" fill="#000000">+ Optional()</text>
<text text-anchor="start" x="390" y="-853.5" font-family="Helvetica,sans-Serif" font-size="10.00" fill="#000000">+ Optional()</text>
<text text-anchor="start" x="390" y="-842.5" font-family="Helvetica,sans-Serif" font-size="10.00" fill="#000000">+ operator=()</text>
<text text-anchor="start" x="390" y="-831.5" font-family="Helvetica,sans-Serif" font-size="10.00" fill="#000000">+ operator=()</text>
<text text-anchor="start" x="390" y="-820.5" font-family="Helvetica,sans-Serif" font-size="10.00" fill="#000000">and 15 more...</text>
</a>
</g>
</g>
<!-- Node11&#45;&gt;Node14 -->
<g id="edge13" class="edge">
<title>Node11&#45;&gt;Node14</title>
<path fill="none" stroke="#191970" d="M487.6078,-1425.456C483.4174,-1316.6842 476.4937,-1152.5997 468,-1010 467.6439,-1004.0219 467.2519,-997.8586 466.8384,-991.6498"/>
<polygon fill="none" stroke="#191970" points="484.1114,-1425.6205 487.9922,-1435.479 491.1063,-1425.3522 484.1114,-1425.6205"/>
</g>
<!-- Node15 -->
<g id="node11" class="node">
<title>Node15</title>
<g id="a_node11"><a xlink:href="classtvm_1_1runtime_1_1NDArray.html" target="_top" xlink:title="Managed NDArray. The array is backed by reference counted blocks. ">
<polygon fill="#ffffff" stroke="#000000" points="576.5,-386.5 576.5,-663.5 759.5,-663.5 759.5,-386.5 576.5,-386.5"/>
<text text-anchor="middle" x="668" y="-651.5" font-family="Helvetica,sans-Serif" font-size="10.00" fill="#000000">tvm::runtime::NDArray</text>
<polyline fill="none" stroke="#000000" points="576.5,-644.5 759.5,-644.5 "/>
<text text-anchor="middle" x="668" y="-632.5" font-family="Helvetica,sans-Serif" font-size="10.00" fill="#000000"> </text>
<polyline fill="none" stroke="#000000" points="576.5,-625.5 759.5,-625.5 "/>
<text text-anchor="start" x="584.5" y="-613.5" font-family="Helvetica,sans-Serif" font-size="10.00" fill="#000000">+ NDArray()</text>
<text text-anchor="start" x="584.5" y="-602.5" font-family="Helvetica,sans-Serif" font-size="10.00" fill="#000000">+ NDArray()</text>
<text text-anchor="start" x="584.5" y="-591.5" font-family="Helvetica,sans-Serif" font-size="10.00" fill="#000000">+ reset()</text>
<text text-anchor="start" x="584.5" y="-580.5" font-family="Helvetica,sans-Serif" font-size="10.00" fill="#000000">+ use_count()</text>
<text text-anchor="start" x="584.5" y="-569.5" font-family="Helvetica,sans-Serif" font-size="10.00" fill="#000000">+ operator&#45;&gt;()</text>
<text text-anchor="start" x="584.5" y="-558.5" font-family="Helvetica,sans-Serif" font-size="10.00" fill="#000000">+ IsContiguous()</text>
<text text-anchor="start" x="584.5" y="-547.5" font-family="Helvetica,sans-Serif" font-size="10.00" fill="#000000">+ CopyFrom()</text>
<text text-anchor="start" x="584.5" y="-536.5" font-family="Helvetica,sans-Serif" font-size="10.00" fill="#000000">+ CopyFrom()</text>
<text text-anchor="start" x="584.5" y="-525.5" font-family="Helvetica,sans-Serif" font-size="10.00" fill="#000000">+ CopyFromBytes()</text>
<text text-anchor="start" x="584.5" y="-514.5" font-family="Helvetica,sans-Serif" font-size="10.00" fill="#000000">+ CopyTo()</text>
<text text-anchor="start" x="584.5" y="-503.5" font-family="Helvetica,sans-Serif" font-size="10.00" fill="#000000">and 9 more...</text>
<text text-anchor="start" x="584.5" y="-492.5" font-family="Helvetica,sans-Serif" font-size="10.00" fill="#000000">+ Empty()</text>
<text text-anchor="start" x="584.5" y="-481.5" font-family="Helvetica,sans-Serif" font-size="10.00" fill="#000000">+ FromExternalDLTensor()</text>
<text text-anchor="start" x="584.5" y="-470.5" font-family="Helvetica,sans-Serif" font-size="10.00" fill="#000000">+ NewFromDLTensor()</text>
<text text-anchor="start" x="584.5" y="-459.5" font-family="Helvetica,sans-Serif" font-size="10.00" fill="#000000">+ FromDLPack()</text>
<text text-anchor="start" x="584.5" y="-448.5" font-family="Helvetica,sans-Serif" font-size="10.00" fill="#000000">+ CopyFromTo()</text>
<text text-anchor="start" x="584.5" y="-437.5" font-family="Helvetica,sans-Serif" font-size="10.00" fill="#000000">+ AbilityOfZeroCopyForDLTensor()</text>
<text text-anchor="start" x="584.5" y="-426.5" font-family="Helvetica,sans-Serif" font-size="10.00" fill="#000000"># get_mutable()</text>
<text text-anchor="start" x="584.5" y="-415.5" font-family="Helvetica,sans-Serif" font-size="10.00" fill="#000000"># FFIDataFromHandle()</text>
<text text-anchor="start" x="584.5" y="-404.5" font-family="Helvetica,sans-Serif" font-size="10.00" fill="#000000"># FFIDecRef()</text>
<text text-anchor="start" x="584.5" y="-393.5" font-family="Helvetica,sans-Serif" font-size="10.00" fill="#000000"># FFIGetHandle()</text>
</a>
</g>
</g>
<!-- Node11&#45;&gt;Node15 -->
<g id="edge15" class="edge">
<title>Node11&#45;&gt;Node15</title>
<path fill="none" stroke="#191970" d="M563.7438,-1441.8847C567.9249,-1433.6532 571.7446,-1425.3079 575,-1417 673.7712,-1164.9368 681.2738,-843.7859 675.9225,-663.6756"/>
<polygon fill="none" stroke="#191970" points="560.6307,-1440.2849 559.0746,-1450.7649 566.8264,-1443.5427 560.6307,-1440.2849"/>
</g>
<!-- Node12 -->
<g id="node8" class="node">
<title>Node12</title>
<g id="a_node8"><a xlink:href="classtvm_1_1runtime_1_1ObjectPtr.html" target="_top" xlink:title="{tvm::runtime::ObjectPtr\l\&lt; tvm::runtime::Object \&gt;\n||+ ObjectPtr()\l+ ObjectPtr()\l+ ObjectPtr()\l+ ObjectPtr()\l+ ObjectPtr()\l+ ObjectPtr()\l+ ~ObjectPtr()\l+ swap()\l+ get()\l+ operator&#45;\&gt;()\land 11 more...\l}">
<polygon fill="#ffffff" stroke="#000000" points="422,-1705.5 422,-1883.5 562,-1883.5 562,-1705.5 422,-1705.5"/>
<text text-anchor="start" x="430" y="-1871.5" font-family="Helvetica,sans-Serif" font-size="10.00" fill="#000000">tvm::runtime::ObjectPtr</text>
<text text-anchor="middle" x="492" y="-1860.5" font-family="Helvetica,sans-Serif" font-size="10.00" fill="#000000">&lt; tvm::runtime::Object &gt;</text>
<polyline fill="none" stroke="#000000" points="422,-1853.5 562,-1853.5 "/>
<text text-anchor="middle" x="492" y="-1841.5" font-family="Helvetica,sans-Serif" font-size="10.00" fill="#000000"> </text>
<polyline fill="none" stroke="#000000" points="422,-1834.5 562,-1834.5 "/>
<text text-anchor="start" x="430" y="-1822.5" font-family="Helvetica,sans-Serif" font-size="10.00" fill="#000000">+ ObjectPtr()</text>
<text text-anchor="start" x="430" y="-1811.5" font-family="Helvetica,sans-Serif" font-size="10.00" fill="#000000">+ ObjectPtr()</text>
<text text-anchor="start" x="430" y="-1800.5" font-family="Helvetica,sans-Serif" font-size="10.00" fill="#000000">+ ObjectPtr()</text>
<text text-anchor="start" x="430" y="-1789.5" font-family="Helvetica,sans-Serif" font-size="10.00" fill="#000000">+ ObjectPtr()</text>
<text text-anchor="start" x="430" y="-1778.5" font-family="Helvetica,sans-Serif" font-size="10.00" fill="#000000">+ ObjectPtr()</text>
<text text-anchor="start" x="430" y="-1767.5" font-family="Helvetica,sans-Serif" font-size="10.00" fill="#000000">+ ObjectPtr()</text>
<text text-anchor="start" x="430" y="-1756.5" font-family="Helvetica,sans-Serif" font-size="10.00" fill="#000000">+ ~ObjectPtr()</text>
<text text-anchor="start" x="430" y="-1745.5" font-family="Helvetica,sans-Serif" font-size="10.00" fill="#000000">+ swap()</text>
<text text-anchor="start" x="430" y="-1734.5" font-family="Helvetica,sans-Serif" font-size="10.00" fill="#000000">+ get()</text>
<text text-anchor="start" x="430" y="-1723.5" font-family="Helvetica,sans-Serif" font-size="10.00" fill="#000000">+ operator&#45;&gt;()</text>
<text text-anchor="start" x="430" y="-1712.5" font-family="Helvetica,sans-Serif" font-size="10.00" fill="#000000">and 11 more...</text>
</a>
</g>
</g>
<!-- Node12&#45;&gt;Node11 -->
<g id="edge8" class="edge">
<title>Node12&#45;&gt;Node11</title>
<path fill="none" stroke="#404040" d="M492,-1705.3167C492,-1693.8765 492,-1682.0062 492,-1670.1402"/>
<polygon fill="none" stroke="#404040" points="492.0001,-1669.7944 488,-1663.7944 492,-1657.7944 496,-1663.7943 492.0001,-1669.7944"/>
<text text-anchor="middle" x="511.5" y="-1679" font-family="Helvetica,sans-Serif" font-size="10.00" fill="#000000"> #data_</text>
</g>
<!-- Node13&#45;&gt;Node7 -->
<g id="edge10" class="edge">
<title>Node13&#45;&gt;Node7</title>
<path fill="none" stroke="#404040" d="M309.41,-868.4903C335.7798,-773.1847 410.6864,-502.4575 444.7537,-379.3315"/>
<polygon fill="none" stroke="#404040" points="444.8178,-379.0998 442.5626,-372.2504 448.0178,-367.5343 450.2729,-374.3837 444.8178,-379.0998"/>
<text text-anchor="middle" x="403.5" y="-736" font-family="Helvetica,sans-Serif" font-size="10.00" fill="#000000"> +checked_type_</text>
</g>
<!-- Node14&#45;&gt;Node7 -->
<g id="edge12" class="edge">
<title>Node14&#45;&gt;Node7</title>
<path fill="none" stroke="#404040" d="M460.3048,-813.2567C460.7136,-693.5923 461.4291,-484.1404 461.7855,-379.7908"/>
<polygon fill="none" stroke="#404040" points="461.7861,-379.5993 457.8066,-373.5856 461.8272,-367.5994 465.8066,-373.613 461.7861,-379.5993"/>
<text text-anchor="middle" x="495.5" y="-736" font-family="Helvetica,sans-Serif" font-size="10.00" fill="#000000"> +struct_info_</text>
</g>
<!-- Node15&#45;&gt;Node5 -->
<g id="edge14" class="edge">
<title>Node15&#45;&gt;Node5</title>
<path fill="none" stroke="#404040" d="M662.9179,-386.2394C657.96,-314.8177 648.1974,-226.8391 629,-150 626.8442,-141.3714 624.0495,-132.4888 620.9539,-123.792"/>
<polygon fill="none" stroke="#404040" points="620.9365,-123.7455 615.0906,-119.5234 616.7395,-112.5034 622.5854,-116.7254 620.9365,-123.7455"/>
<text text-anchor="middle" x="664" y="-240" font-family="Helvetica,sans-Serif" font-size="10.00" fill="#000000"> +data</text>
</g>
</g>
</svg>
