<?xml version="1.0" encoding="UTF-8" standalone="no"?>
<!DOCTYPE svg PUBLIC "-//W3C//DTD SVG 1.1//EN"
 "http://www.w3.org/Graphics/SVG/1.1/DTD/svg11.dtd">
<!-- Generated by graphviz version 2.40.1 (20161225.0304)
 -->
<!-- Title: tvm::tir::PrimFuncNode Pages: 1 -->
<svg width="1096pt" height="2027pt"
 viewBox="0.00 0.00 1096.00 2027.00" xmlns="http://www.w3.org/2000/svg" xmlns:xlink="http://www.w3.org/1999/xlink">
<g id="graph0" class="graph" transform="scale(1 1) rotate(0) translate(4 2023)">
<title>tvm::tir::PrimFuncNode</title>
<polygon fill="#ffffff" stroke="transparent" points="-4,4 -4,-2023 1092,-2023 1092,4 -4,4"/>
<!-- Node5 -->
<g id="node1" class="node">
<title>Node5</title>
<polygon fill="#bfbfbf" stroke="#000000" points="739.5,-.5 739.5,-123.5 948.5,-123.5 948.5,-.5 739.5,-.5"/>
<text text-anchor="middle" x="844" y="-111.5" font-family="Helvetica,sans-Serif" font-size="10.00" fill="#000000">tvm::tir::PrimFuncNode</text>
<polyline fill="none" stroke="#000000" points="739.5,-104.5 948.5,-104.5 "/>
<text text-anchor="start" x="747.5" y="-92.5" font-family="Helvetica,sans-Serif" font-size="10.00" fill="#000000">+ _type_key</text>
<polyline fill="none" stroke="#000000" points="739.5,-85.5 948.5,-85.5 "/>
<text text-anchor="start" x="747.5" y="-73.5" font-family="Helvetica,sans-Serif" font-size="10.00" fill="#000000">+ VisitAttrs()</text>
<text text-anchor="start" x="747.5" y="-62.5" font-family="Helvetica,sans-Serif" font-size="10.00" fill="#000000">+ SEqualReduce()</text>
<text text-anchor="start" x="747.5" y="-51.5" font-family="Helvetica,sans-Serif" font-size="10.00" fill="#000000">+ SHashReduce()</text>
<text text-anchor="start" x="747.5" y="-40.5" font-family="Helvetica,sans-Serif" font-size="10.00" fill="#000000">+ func_type_annotation()</text>
<text text-anchor="start" x="747.5" y="-29.5" font-family="Helvetica,sans-Serif" font-size="10.00" fill="#000000">+ TVM_OBJECT_ENABLE_SCRIPT</text>
<text text-anchor="start" x="747.5" y="-18.5" font-family="Helvetica,sans-Serif" font-size="10.00" fill="#000000">_PRINTER()</text>
<text text-anchor="start" x="747.5" y="-7.5" font-family="Helvetica,sans-Serif" font-size="10.00" fill="#000000">+ TVM_DECLARE_FINAL_OBJECT_INFO()</text>
</g>
<!-- Node6 -->
<g id="node2" class="node">
<title>Node6</title>
<g id="a_node2"><a xlink:href="classtvm_1_1BaseFuncNode.html" target="_top" xlink:title="Base node of all functions. ">
<polygon fill="#ffffff" stroke="#000000" points="600.5,-161.5 600.5,-273.5 807.5,-273.5 807.5,-161.5 600.5,-161.5"/>
<text text-anchor="middle" x="704" y="-261.5" font-family="Helvetica,sans-Serif" font-size="10.00" fill="#000000">tvm::BaseFuncNode</text>
<polyline fill="none" stroke="#000000" points="600.5,-254.5 807.5,-254.5 "/>
<text text-anchor="start" x="608.5" y="-242.5" font-family="Helvetica,sans-Serif" font-size="10.00" fill="#000000">+ _type_key</text>
<text text-anchor="start" x="608.5" y="-231.5" font-family="Helvetica,sans-Serif" font-size="10.00" fill="#000000">+ _type_child_slots</text>
<polyline fill="none" stroke="#000000" points="600.5,-224.5 807.5,-224.5 "/>
<text text-anchor="start" x="608.5" y="-212.5" font-family="Helvetica,sans-Serif" font-size="10.00" fill="#000000">+ GetAttr()</text>
<text text-anchor="start" x="608.5" y="-201.5" font-family="Helvetica,sans-Serif" font-size="10.00" fill="#000000">+ GetAttr()</text>
<text text-anchor="start" x="608.5" y="-190.5" font-family="Helvetica,sans-Serif" font-size="10.00" fill="#000000">+ HasNonzeroAttr()</text>
<text text-anchor="start" x="608.5" y="-179.5" font-family="Helvetica,sans-Serif" font-size="10.00" fill="#000000">+ GetLinkageType()</text>
<text text-anchor="start" x="608.5" y="-168.5" font-family="Helvetica,sans-Serif" font-size="10.00" fill="#000000">+ TVM_DECLARE_BASE_OBJECT_INFO()</text>
</a>
</g>
</g>
<!-- Node6&#45;&gt;Node5 -->
<g id="edge1" class="edge">
<title>Node6&#45;&gt;Node5</title>
<path fill="none" stroke="#191970" d="M761.3495,-153.8011C770.3367,-143.8188 779.6118,-133.5169 788.5552,-123.5833"/>
<polygon fill="none" stroke="#191970" points="758.6331,-151.5873 754.5432,-161.3609 763.8353,-156.271 758.6331,-151.5873"/>
</g>
<!-- Node7 -->
<g id="node3" class="node">
<title>Node7</title>
<g id="a_node3"><a xlink:href="classtvm_1_1RelayExprNode.html" target="_top" xlink:title="Base node of all non&#45;primitive expressions. ">
<polygon fill="#ffffff" stroke="#000000" points="143.5,-489.5 143.5,-590.5 350.5,-590.5 350.5,-489.5 143.5,-489.5"/>
<text text-anchor="middle" x="247" y="-578.5" font-family="Helvetica,sans-Serif" font-size="10.00" fill="#000000">tvm::RelayExprNode</text>
<polyline fill="none" stroke="#000000" points="143.5,-571.5 350.5,-571.5 "/>
<text text-anchor="start" x="151.5" y="-559.5" font-family="Helvetica,sans-Serif" font-size="10.00" fill="#000000">+ _type_key</text>
<text text-anchor="start" x="151.5" y="-548.5" font-family="Helvetica,sans-Serif" font-size="10.00" fill="#000000">+ _type_child_slots</text>
<polyline fill="none" stroke="#000000" points="143.5,-541.5 350.5,-541.5 "/>
<text text-anchor="start" x="151.5" y="-529.5" font-family="Helvetica,sans-Serif" font-size="10.00" fill="#000000">+ checked_type()</text>
<text text-anchor="start" x="151.5" y="-518.5" font-family="Helvetica,sans-Serif" font-size="10.00" fill="#000000">+ type_as()</text>
<text text-anchor="start" x="151.5" y="-507.5" font-family="Helvetica,sans-Serif" font-size="10.00" fill="#000000">+ virtual_device()</text>
<text text-anchor="start" x="151.5" y="-496.5" font-family="Helvetica,sans-Serif" font-size="10.00" fill="#000000">+ TVM_DECLARE_BASE_OBJECT_INFO()</text>
</a>
</g>
</g>
<!-- Node7&#45;&gt;Node6 -->
<g id="edge2" class="edge">
<title>Node7&#45;&gt;Node6</title>
<path fill="none" stroke="#191970" d="M326.8468,-483.653C410.4188,-424.6771 540.8636,-332.6236 624.3587,-273.702"/>
<polygon fill="none" stroke="#191970" points="324.8099,-480.8066 318.6575,-489.4321 328.8459,-486.5259 324.8099,-480.8066"/>
</g>
<!-- Node8 -->
<g id="node4" class="node">
<title>Node8</title>
<g id="a_node4"><a xlink:href="classtvm_1_1BaseExprNode.html" target="_top" xlink:title="Base type of all the expressions. ">
<polygon fill="#ffffff" stroke="#000000" points="334.5,-817.5 334.5,-929.5 541.5,-929.5 541.5,-817.5 334.5,-817.5"/>
<text text-anchor="middle" x="438" y="-917.5" font-family="Helvetica,sans-Serif" font-size="10.00" fill="#000000">tvm::BaseExprNode</text>
<polyline fill="none" stroke="#000000" points="334.5,-910.5 541.5,-910.5 "/>
<text text-anchor="start" x="342.5" y="-898.5" font-family="Helvetica,sans-Serif" font-size="10.00" fill="#000000">+ _type_key</text>
<text text-anchor="start" x="342.5" y="-887.5" font-family="Helvetica,sans-Serif" font-size="10.00" fill="#000000">+ _type_has_method_sequal</text>
<text text-anchor="start" x="342.5" y="-876.5" font-family="Helvetica,sans-Serif" font-size="10.00" fill="#000000">_reduce</text>
<text text-anchor="start" x="342.5" y="-865.5" font-family="Helvetica,sans-Serif" font-size="10.00" fill="#000000">+ _type_has_method_shash</text>
<text text-anchor="start" x="342.5" y="-854.5" font-family="Helvetica,sans-Serif" font-size="10.00" fill="#000000">_reduce</text>
<text text-anchor="start" x="342.5" y="-843.5" font-family="Helvetica,sans-Serif" font-size="10.00" fill="#000000">+ _type_child_slots</text>
<polyline fill="none" stroke="#000000" points="334.5,-836.5 541.5,-836.5 "/>
<text text-anchor="start" x="342.5" y="-824.5" font-family="Helvetica,sans-Serif" font-size="10.00" fill="#000000">+ TVM_DECLARE_BASE_OBJECT_INFO()</text>
</a>
</g>
</g>
<!-- Node8&#45;&gt;Node7 -->
<g id="edge3" class="edge">
<title>Node8&#45;&gt;Node7</title>
<path fill="none" stroke="#191970" d="M400.7922,-808.5324C364.2979,-744.8108 309.4108,-648.9738 276.0268,-590.683"/>
<polygon fill="none" stroke="#191970" points="397.8084,-810.3652 405.8154,-817.3034 403.8828,-806.8863 397.8084,-810.3652"/>
</g>
<!-- Node9 -->
<g id="node5" class="node">
<title>Node9</title>
<g id="a_node5"><a xlink:href="classtvm_1_1runtime_1_1Object.html" target="_top" xlink:title="base class of all object containers. ">
<polygon fill="#ffffff" stroke="#000000" points="384.5,-1145.5 384.5,-1532.5 567.5,-1532.5 567.5,-1145.5 384.5,-1145.5"/>
<text text-anchor="middle" x="476" y="-1520.5" font-family="Helvetica,sans-Serif" font-size="10.00" fill="#000000">tvm::runtime::Object</text>
<polyline fill="none" stroke="#000000" points="384.5,-1513.5 567.5,-1513.5 "/>
<text text-anchor="start" x="392.5" y="-1501.5" font-family="Helvetica,sans-Serif" font-size="10.00" fill="#000000">+ _type_key</text>
<text text-anchor="start" x="392.5" y="-1490.5" font-family="Helvetica,sans-Serif" font-size="10.00" fill="#000000">+ _type_final</text>
<text text-anchor="start" x="392.5" y="-1479.5" font-family="Helvetica,sans-Serif" font-size="10.00" fill="#000000">+ _type_child_slots</text>
<text text-anchor="start" x="392.5" y="-1468.5" font-family="Helvetica,sans-Serif" font-size="10.00" fill="#000000">+ _type_child_slots_can</text>
<text text-anchor="start" x="392.5" y="-1457.5" font-family="Helvetica,sans-Serif" font-size="10.00" fill="#000000">_overflow</text>
<text text-anchor="start" x="392.5" y="-1446.5" font-family="Helvetica,sans-Serif" font-size="10.00" fill="#000000">+ _type_has_method_visit</text>
<text text-anchor="start" x="392.5" y="-1435.5" font-family="Helvetica,sans-Serif" font-size="10.00" fill="#000000">_attrs</text>
<text text-anchor="start" x="392.5" y="-1424.5" font-family="Helvetica,sans-Serif" font-size="10.00" fill="#000000">+ _type_has_method_sequal</text>
<text text-anchor="start" x="392.5" y="-1413.5" font-family="Helvetica,sans-Serif" font-size="10.00" fill="#000000">_reduce</text>
<text text-anchor="start" x="392.5" y="-1402.5" font-family="Helvetica,sans-Serif" font-size="10.00" fill="#000000">+ _type_has_method_shash</text>
<text text-anchor="start" x="392.5" y="-1391.5" font-family="Helvetica,sans-Serif" font-size="10.00" fill="#000000">_reduce</text>
<text text-anchor="start" x="392.5" y="-1380.5" font-family="Helvetica,sans-Serif" font-size="10.00" fill="#000000">+ _type_index</text>
<text text-anchor="start" x="392.5" y="-1369.5" font-family="Helvetica,sans-Serif" font-size="10.00" fill="#000000"># type_index_</text>
<text text-anchor="start" x="392.5" y="-1358.5" font-family="Helvetica,sans-Serif" font-size="10.00" fill="#000000"># ref_counter_</text>
<polyline fill="none" stroke="#000000" points="384.5,-1351.5 567.5,-1351.5 "/>
<text text-anchor="start" x="392.5" y="-1339.5" font-family="Helvetica,sans-Serif" font-size="10.00" fill="#000000">+ type_index()</text>
<text text-anchor="start" x="392.5" y="-1328.5" font-family="Helvetica,sans-Serif" font-size="10.00" fill="#000000">+ GetTypeKey()</text>
<text text-anchor="start" x="392.5" y="-1317.5" font-family="Helvetica,sans-Serif" font-size="10.00" fill="#000000">+ GetTypeKeyHash()</text>
<text text-anchor="start" x="392.5" y="-1306.5" font-family="Helvetica,sans-Serif" font-size="10.00" fill="#000000">+ IsInstance()</text>
<text text-anchor="start" x="392.5" y="-1295.5" font-family="Helvetica,sans-Serif" font-size="10.00" fill="#000000">+ unique()</text>
<text text-anchor="start" x="392.5" y="-1284.5" font-family="Helvetica,sans-Serif" font-size="10.00" fill="#000000">+ Object()</text>
<text text-anchor="start" x="392.5" y="-1273.5" font-family="Helvetica,sans-Serif" font-size="10.00" fill="#000000">+ Object()</text>
<text text-anchor="start" x="392.5" y="-1262.5" font-family="Helvetica,sans-Serif" font-size="10.00" fill="#000000">+ Object()</text>
<text text-anchor="start" x="392.5" y="-1251.5" font-family="Helvetica,sans-Serif" font-size="10.00" fill="#000000">+ operator=()</text>
<text text-anchor="start" x="392.5" y="-1240.5" font-family="Helvetica,sans-Serif" font-size="10.00" fill="#000000">+ operator=()</text>
<text text-anchor="start" x="392.5" y="-1229.5" font-family="Helvetica,sans-Serif" font-size="10.00" fill="#000000">+ TypeIndex2Key()</text>
<text text-anchor="start" x="392.5" y="-1218.5" font-family="Helvetica,sans-Serif" font-size="10.00" fill="#000000">+ TypeIndex2KeyHash()</text>
<text text-anchor="start" x="392.5" y="-1207.5" font-family="Helvetica,sans-Serif" font-size="10.00" fill="#000000">+ TypeKey2Index()</text>
<text text-anchor="start" x="392.5" y="-1196.5" font-family="Helvetica,sans-Serif" font-size="10.00" fill="#000000">+ _GetOrAllocRuntimeTypeIndex()</text>
<text text-anchor="start" x="392.5" y="-1185.5" font-family="Helvetica,sans-Serif" font-size="10.00" fill="#000000">+ RuntimeTypeIndex()</text>
<text text-anchor="start" x="392.5" y="-1174.5" font-family="Helvetica,sans-Serif" font-size="10.00" fill="#000000"># IncRef()</text>
<text text-anchor="start" x="392.5" y="-1163.5" font-family="Helvetica,sans-Serif" font-size="10.00" fill="#000000"># DecRef()</text>
<text text-anchor="start" x="392.5" y="-1152.5" font-family="Helvetica,sans-Serif" font-size="10.00" fill="#000000"># GetOrAllocRuntimeTypeIndex()</text>
</a>
</g>
</g>
<!-- Node9&#45;&gt;Node8 -->
<g id="edge4" class="edge">
<title>Node9&#45;&gt;Node8</title>
<path fill="none" stroke="#191970" d="M473.8567,-1135.2783C471.1333,-1074.7557 466.0871,-1008.4804 457,-948 456.1075,-942.0601 454.9417,-935.9064 453.6263,-929.7977"/>
<polygon fill="none" stroke="#191970" points="470.3625,-1135.4909 474.2903,-1145.3308 477.356,-1135.1892 470.3625,-1135.4909"/>
</g>
<!-- Node9&#45;&gt;Node9 -->
<g id="edge5" class="edge">
<title>Node9&#45;&gt;Node9</title>
<path fill="none" stroke="#404040" d="M567.8625,-1372.9248C578.5482,-1366.6637 585.5,-1355.3555 585.5,-1339 585.5,-1328.0112 582.3618,-1319.3007 577.0615,-1312.8687"/>
<polygon fill="none" stroke="#404040" points="577.0184,-1312.8322 569.8548,-1312.0056 567.8625,-1305.0752 575.0261,-1305.9017 577.0184,-1312.8322"/>
<text text-anchor="middle" x="611.5" y="-1336.5" font-family="Helvetica,sans-Serif" font-size="10.00" fill="#000000"> #deleter_</text>
</g>
<!-- Node10 -->
<g id="node6" class="node">
<title>Node10</title>
<g id="a_node6"><a xlink:href="classtvm_1_1Span.html" target="_top" xlink:title="{tvm::Span\n||+ Span()\l+ Merge()\l+ TVM_DEFINE_OBJECT_REF\l_METHODS()\l}">
<polygon fill="#ffffff" stroke="#000000" points="212,-1294 212,-1384 366,-1384 366,-1294 212,-1294"/>
<text text-anchor="middle" x="289" y="-1372" font-family="Helvetica,sans-Serif" font-size="10.00" fill="#000000">tvm::Span</text>
<polyline fill="none" stroke="#000000" points="212,-1365 366,-1365 "/>
<text text-anchor="middle" x="289" y="-1353" font-family="Helvetica,sans-Serif" font-size="10.00" fill="#000000"> </text>
<polyline fill="none" stroke="#000000" points="212,-1346 366,-1346 "/>
<text text-anchor="start" x="220" y="-1334" font-family="Helvetica,sans-Serif" font-size="10.00" fill="#000000">+ Span()</text>
<text text-anchor="start" x="220" y="-1323" font-family="Helvetica,sans-Serif" font-size="10.00" fill="#000000">+ Merge()</text>
<text text-anchor="start" x="220" y="-1312" font-family="Helvetica,sans-Serif" font-size="10.00" fill="#000000">+ TVM_DEFINE_OBJECT_REF</text>
<text text-anchor="start" x="220" y="-1301" font-family="Helvetica,sans-Serif" font-size="10.00" fill="#000000">_METHODS()</text>
</a>
</g>
</g>
<!-- Node10&#45;&gt;Node8 -->
<g id="edge6" class="edge">
<title>Node10&#45;&gt;Node8</title>
<path fill="none" stroke="#404040" d="M302.3013,-1293.8464C316.0059,-1252.355 340.2765,-1190.5661 375,-1145 382.6573,-1134.9516 390.9329,-1138.0813 397,-1127 435.4676,-1056.7402 402.9093,-1026.6668 418,-948 418.3903,-945.9655 418.8064,-943.9049 419.2439,-941.8287"/>
<polygon fill="none" stroke="#404040" points="419.3074,-941.5467 416.7272,-934.8131 421.9505,-929.8414 424.5308,-936.5751 419.3074,-941.5467"/>
<text text-anchor="middle" x="435.5" y="-1035" font-family="Helvetica,sans-Serif" font-size="10.00" fill="#000000"> +span</text>
</g>
<!-- Node11 -->
<g id="node7" class="node">
<title>Node11</title>
<g id="a_node7"><a xlink:href="classtvm_1_1runtime_1_1ObjectRef.html" target="_top" xlink:title="Base class of all object reference. ">
<polygon fill="#ffffff" stroke="#000000" points="499,-1570.5 499,-1792.5 633,-1792.5 633,-1570.5 499,-1570.5"/>
<text text-anchor="middle" x="566" y="-1780.5" font-family="Helvetica,sans-Serif" font-size="10.00" fill="#000000">tvm::runtime::ObjectRef</text>
<polyline fill="none" stroke="#000000" points="499,-1773.5 633,-1773.5 "/>
<text text-anchor="start" x="507" y="-1761.5" font-family="Helvetica,sans-Serif" font-size="10.00" fill="#000000">+ _type_is_nullable</text>
<polyline fill="none" stroke="#000000" points="499,-1754.5 633,-1754.5 "/>
<text text-anchor="start" x="507" y="-1742.5" font-family="Helvetica,sans-Serif" font-size="10.00" fill="#000000">+ ObjectRef()</text>
<text text-anchor="start" x="507" y="-1731.5" font-family="Helvetica,sans-Serif" font-size="10.00" fill="#000000">+ ObjectRef()</text>
<text text-anchor="start" x="507" y="-1720.5" font-family="Helvetica,sans-Serif" font-size="10.00" fill="#000000">+ same_as()</text>
<text text-anchor="start" x="507" y="-1709.5" font-family="Helvetica,sans-Serif" font-size="10.00" fill="#000000">+ operator==()</text>
<text text-anchor="start" x="507" y="-1698.5" font-family="Helvetica,sans-Serif" font-size="10.00" fill="#000000">+ operator!=()</text>
<text text-anchor="start" x="507" y="-1687.5" font-family="Helvetica,sans-Serif" font-size="10.00" fill="#000000">+ operator&lt;()</text>
<text text-anchor="start" x="507" y="-1676.5" font-family="Helvetica,sans-Serif" font-size="10.00" fill="#000000">+ defined()</text>
<text text-anchor="start" x="507" y="-1665.5" font-family="Helvetica,sans-Serif" font-size="10.00" fill="#000000">+ get()</text>
<text text-anchor="start" x="507" y="-1654.5" font-family="Helvetica,sans-Serif" font-size="10.00" fill="#000000">+ operator&#45;&gt;()</text>
<text text-anchor="start" x="507" y="-1643.5" font-family="Helvetica,sans-Serif" font-size="10.00" fill="#000000">+ unique()</text>
<text text-anchor="start" x="507" y="-1632.5" font-family="Helvetica,sans-Serif" font-size="10.00" fill="#000000">+ use_count()</text>
<text text-anchor="start" x="507" y="-1621.5" font-family="Helvetica,sans-Serif" font-size="10.00" fill="#000000">+ as()</text>
<text text-anchor="start" x="507" y="-1610.5" font-family="Helvetica,sans-Serif" font-size="10.00" fill="#000000"># get_mutable()</text>
<text text-anchor="start" x="507" y="-1599.5" font-family="Helvetica,sans-Serif" font-size="10.00" fill="#000000"># DowncastNoCheck()</text>
<text text-anchor="start" x="507" y="-1588.5" font-family="Helvetica,sans-Serif" font-size="10.00" fill="#000000"># FFIClearAfterMove()</text>
<text text-anchor="start" x="507" y="-1577.5" font-family="Helvetica,sans-Serif" font-size="10.00" fill="#000000"># GetDataPtr()</text>
</a>
</g>
</g>
<!-- Node11&#45;&gt;Node7 -->
<g id="edge9" class="edge">
<title>Node11&#45;&gt;Node7</title>
<path fill="none" stroke="#404040" d="M498.7305,-1666.1056C395.517,-1640.994 205.8085,-1588.4282 166,-1533 60.5556,-1386.1822 147.3357,-1307.6807 142,-1127 139.6517,-1047.4791 108.7572,-1020.2772 142,-948 147.1366,-936.8319 156.7436,-940.5815 163,-930 237.1756,-804.5469 197.6736,-751.1109 230,-609 230.4819,-606.8816 230.9779,-604.7281 231.4839,-602.5545"/>
<polygon fill="none" stroke="#404040" points="231.4969,-602.4992 228.986,-595.7393 234.2602,-590.8216 236.771,-597.5815 231.4969,-602.4992"/>
<text text-anchor="middle" x="185" y="-1035" font-family="Helvetica,sans-Serif" font-size="10.00" fill="#000000"> +virtual_device_</text>
</g>
<!-- Node11&#45;&gt;Node10 -->
<g id="edge7" class="edge">
<title>Node11&#45;&gt;Node10</title>
<path fill="none" stroke="#191970" d="M489.9734,-1635.3781C451.6085,-1609.1352 406.6295,-1573.4526 375,-1533 339.7126,-1487.8692 315.5632,-1425.9868 302.0406,-1384.3548"/>
<polygon fill="none" stroke="#191970" points="488.3086,-1638.477 498.5559,-1641.1684 492.2236,-1632.6741 488.3086,-1638.477"/>
</g>
<!-- Node13 -->
<g id="node9" class="node">
<title>Node13</title>
<g id="a_node9"><a xlink:href="classtvm_1_1Type.html" target="_top" xlink:title="Managed reference to TypeNode. ">
<polygon fill="#ffffff" stroke="#000000" points="0,-839.5 0,-907.5 154,-907.5 154,-839.5 0,-839.5"/>
<text text-anchor="middle" x="77" y="-895.5" font-family="Helvetica,sans-Serif" font-size="10.00" fill="#000000">tvm::Type</text>
<polyline fill="none" stroke="#000000" points="0,-888.5 154,-888.5 "/>
<text text-anchor="middle" x="77" y="-876.5" font-family="Helvetica,sans-Serif" font-size="10.00" fill="#000000"> </text>
<polyline fill="none" stroke="#000000" points="0,-869.5 154,-869.5 "/>
<text text-anchor="start" x="8" y="-857.5" font-family="Helvetica,sans-Serif" font-size="10.00" fill="#000000">+ TVM_DEFINE_OBJECT_REF</text>
<text text-anchor="start" x="8" y="-846.5" font-family="Helvetica,sans-Serif" font-size="10.00" fill="#000000">_METHODS()</text>
</a>
</g>
</g>
<!-- Node11&#45;&gt;Node13 -->
<g id="edge11" class="edge">
<title>Node11&#45;&gt;Node13</title>
<path fill="none" stroke="#191970" d="M489.0277,-1669.1545C376.8771,-1649.4881 176.9812,-1607.5275 132,-1552 -26.6367,-1356.1696 40.8532,-1015.7832 67.8176,-907.5604"/>
<polygon fill="none" stroke="#191970" points="488.4845,-1672.6125 498.9357,-1670.874 489.6815,-1665.7156 488.4845,-1672.6125"/>
</g>
<!-- Node14 -->
<g id="node10" class="node">
<title>Node14</title>
<g id="a_node10"><a xlink:href="classtvm_1_1runtime_1_1Optional.html" target="_top" xlink:title="{tvm::runtime::Optional\l\&lt; tvm::runtime::ObjectRef \&gt;\n|+ _type_is_nullable\l|+ Optional()\l+ Optional()\l+ Optional()\l+ Optional()\l+ Optional()\l+ Optional()\l+ Optional()\l+ Optional()\l+ operator=()\l+ operator=()\land 15 more...\l}">
<polygon fill="#ffffff" stroke="#000000" points="237,-948.5 237,-1126.5 393,-1126.5 393,-948.5 237,-948.5"/>
<text text-anchor="start" x="245" y="-1114.5" font-family="Helvetica,sans-Serif" font-size="10.00" fill="#000000">tvm::runtime::Optional</text>
<text text-anchor="middle" x="315" y="-1103.5" font-family="Helvetica,sans-Serif" font-size="10.00" fill="#000000">&lt; tvm::runtime::ObjectRef &gt;</text>
<polyline fill="none" stroke="#000000" points="237,-1096.5 393,-1096.5 "/>
<text text-anchor="start" x="245" y="-1084.5" font-family="Helvetica,sans-Serif" font-size="10.00" fill="#000000">+ _type_is_nullable</text>
<polyline fill="none" stroke="#000000" points="237,-1077.5 393,-1077.5 "/>
<text text-anchor="start" x="245" y="-1065.5" font-family="Helvetica,sans-Serif" font-size="10.00" fill="#000000">+ Optional()</text>
<text text-anchor="start" x="245" y="-1054.5" font-family="Helvetica,sans-Serif" font-size="10.00" fill="#000000">+ Optional()</text>
<text text-anchor="start" x="245" y="-1043.5" font-family="Helvetica,sans-Serif" font-size="10.00" fill="#000000">+ Optional()</text>
<text text-anchor="start" x="245" y="-1032.5" font-family="Helvetica,sans-Serif" font-size="10.00" fill="#000000">+ Optional()</text>
<text text-anchor="start" x="245" y="-1021.5" font-family="Helvetica,sans-Serif" font-size="10.00" fill="#000000">+ Optional()</text>
<text text-anchor="start" x="245" y="-1010.5" font-family="Helvetica,sans-Serif" font-size="10.00" fill="#000000">+ Optional()</text>
<text text-anchor="start" x="245" y="-999.5" font-family="Helvetica,sans-Serif" font-size="10.00" fill="#000000">+ Optional()</text>
<text text-anchor="start" x="245" y="-988.5" font-family="Helvetica,sans-Serif" font-size="10.00" fill="#000000">+ Optional()</text>
<text text-anchor="start" x="245" y="-977.5" font-family="Helvetica,sans-Serif" font-size="10.00" fill="#000000">+ operator=()</text>
<text text-anchor="start" x="245" y="-966.5" font-family="Helvetica,sans-Serif" font-size="10.00" fill="#000000">+ operator=()</text>
<text text-anchor="start" x="245" y="-955.5" font-family="Helvetica,sans-Serif" font-size="10.00" fill="#000000">and 15 more...</text>
</a>
</g>
</g>
<!-- Node11&#45;&gt;Node14 -->
<g id="edge13" class="edge">
<title>Node11&#45;&gt;Node14</title>
<path fill="none" stroke="#191970" d="M488.8154,-1674.5037C402.5394,-1662.0902 266.6142,-1627.7554 203,-1533 154.9406,-1461.4139 160.5184,-1220.0306 203,-1145 210.6611,-1131.4691 220.956,-1136.8347 233,-1127 234.3058,-1125.9337 235.6102,-1124.8466 236.9118,-1123.7411"/>
<polygon fill="none" stroke="#191970" points="488.4392,-1677.9848 498.8223,-1675.8775 489.3913,-1671.0499 488.4392,-1677.9848"/>
</g>
<!-- Node16 -->
<g id="node12" class="node">
<title>Node16</title>
<g id="a_node12"><a xlink:href="classtvm_1_1Attrs.html" target="_top" xlink:title="Managed reference to BaseAttrsNode. ">
<polygon fill="#ffffff" stroke="#000000" points="656,-1305 656,-1373 810,-1373 810,-1305 656,-1305"/>
<text text-anchor="middle" x="733" y="-1361" font-family="Helvetica,sans-Serif" font-size="10.00" fill="#000000">tvm::Attrs</text>
<polyline fill="none" stroke="#000000" points="656,-1354 810,-1354 "/>
<text text-anchor="middle" x="733" y="-1342" font-family="Helvetica,sans-Serif" font-size="10.00" fill="#000000"> </text>
<polyline fill="none" stroke="#000000" points="656,-1335 810,-1335 "/>
<text text-anchor="start" x="664" y="-1323" font-family="Helvetica,sans-Serif" font-size="10.00" fill="#000000">+ TVM_DEFINE_OBJECT_REF</text>
<text text-anchor="start" x="664" y="-1312" font-family="Helvetica,sans-Serif" font-size="10.00" fill="#000000">_METHODS()</text>
</a>
</g>
</g>
<!-- Node11&#45;&gt;Node16 -->
<g id="edge16" class="edge">
<title>Node11&#45;&gt;Node16</title>
<path fill="none" stroke="#191970" d="M631.6937,-1561.3171C636.6172,-1551.7783 641.4386,-1542.2564 646,-1533 673.1664,-1477.8712 701.7969,-1412.3893 718.4955,-1373.3414"/>
<polygon fill="none" stroke="#191970" points="628.4487,-1559.9717 626.9472,-1570.4596 634.6613,-1563.1971 628.4487,-1559.9717"/>
</g>
<!-- Node17 -->
<g id="node13" class="node">
<title>Node17</title>
<g id="a_node13"><a xlink:href="classtvm_1_1runtime_1_1Array.html" target="_top" xlink:title="{tvm::runtime::Array\l\&lt; tvm::tir::Var \&gt;\n||+ Array()\l+ Array()\l+ Array()\l+ Array()\l+ Array()\l+ Array()\l+ Array()\l+ Array()\l+ operator=()\l+ operator=()\land 25 more...\l}">
<polygon fill="#ffffff" stroke="#000000" points="783.5,-292.5 783.5,-470.5 896.5,-470.5 896.5,-292.5 783.5,-292.5"/>
<text text-anchor="start" x="791.5" y="-458.5" font-family="Helvetica,sans-Serif" font-size="10.00" fill="#000000">tvm::runtime::Array</text>
<text text-anchor="middle" x="840" y="-447.5" font-family="Helvetica,sans-Serif" font-size="10.00" fill="#000000">&lt; tvm::tir::Var &gt;</text>
<polyline fill="none" stroke="#000000" points="783.5,-440.5 896.5,-440.5 "/>
<text text-anchor="middle" x="840" y="-428.5" font-family="Helvetica,sans-Serif" font-size="10.00" fill="#000000"> </text>
<polyline fill="none" stroke="#000000" points="783.5,-421.5 896.5,-421.5 "/>
<text text-anchor="start" x="791.5" y="-409.5" font-family="Helvetica,sans-Serif" font-size="10.00" fill="#000000">+ Array()</text>
<text text-anchor="start" x="791.5" y="-398.5" font-family="Helvetica,sans-Serif" font-size="10.00" fill="#000000">+ Array()</text>
<text text-anchor="start" x="791.5" y="-387.5" font-family="Helvetica,sans-Serif" font-size="10.00" fill="#000000">+ Array()</text>
<text text-anchor="start" x="791.5" y="-376.5" font-family="Helvetica,sans-Serif" font-size="10.00" fill="#000000">+ Array()</text>
<text text-anchor="start" x="791.5" y="-365.5" font-family="Helvetica,sans-Serif" font-size="10.00" fill="#000000">+ Array()</text>
<text text-anchor="start" x="791.5" y="-354.5" font-family="Helvetica,sans-Serif" font-size="10.00" fill="#000000">+ Array()</text>
<text text-anchor="start" x="791.5" y="-343.5" font-family="Helvetica,sans-Serif" font-size="10.00" fill="#000000">+ Array()</text>
<text text-anchor="start" x="791.5" y="-332.5" font-family="Helvetica,sans-Serif" font-size="10.00" fill="#000000">+ Array()</text>
<text text-anchor="start" x="791.5" y="-321.5" font-family="Helvetica,sans-Serif" font-size="10.00" fill="#000000">+ operator=()</text>
<text text-anchor="start" x="791.5" y="-310.5" font-family="Helvetica,sans-Serif" font-size="10.00" fill="#000000">+ operator=()</text>
<text text-anchor="start" x="791.5" y="-299.5" font-family="Helvetica,sans-Serif" font-size="10.00" fill="#000000">and 25 more...</text>
</a>
</g>
</g>
<!-- Node11&#45;&gt;Node17 -->
<g id="edge18" class="edge">
<title>Node11&#45;&gt;Node17</title>
<path fill="none" stroke="#191970" d="M642.8162,-1657.8885C701.4209,-1635.5867 778.7204,-1596.0046 819,-1533 865.6651,-1460.0072 838,-1425.6348 838,-1339 838,-1339 838,-1339 838,-704 838,-625.1931 838.6046,-535.5561 839.1489,-470.8199"/>
<polygon fill="none" stroke="#191970" points="641.3689,-1654.6923 633.212,-1661.4535 643.805,-1661.2548 641.3689,-1654.6923"/>
</g>
<!-- Node18 -->
<g id="node14" class="node">
<title>Node18</title>
<g id="a_node14"><a xlink:href="classtvm_1_1tir_1_1Stmt.html" target="_top" xlink:title="Container of all statements. ">
<polygon fill="#ffffff" stroke="#000000" points="853,-1003.5 853,-1071.5 1007,-1071.5 1007,-1003.5 853,-1003.5"/>
<text text-anchor="middle" x="930" y="-1059.5" font-family="Helvetica,sans-Serif" font-size="10.00" fill="#000000">tvm::tir::Stmt</text>
<polyline fill="none" stroke="#000000" points="853,-1052.5 1007,-1052.5 "/>
<text text-anchor="middle" x="930" y="-1040.5" font-family="Helvetica,sans-Serif" font-size="10.00" fill="#000000"> </text>
<polyline fill="none" stroke="#000000" points="853,-1033.5 1007,-1033.5 "/>
<text text-anchor="start" x="861" y="-1021.5" font-family="Helvetica,sans-Serif" font-size="10.00" fill="#000000">+ TVM_DEFINE_OBJECT_REF</text>
<text text-anchor="start" x="861" y="-1010.5" font-family="Helvetica,sans-Serif" font-size="10.00" fill="#000000">_METHODS()</text>
</a>
</g>
</g>
<!-- Node11&#45;&gt;Node18 -->
<g id="edge21" class="edge">
<title>Node11&#45;&gt;Node18</title>
<path fill="none" stroke="#191970" d="M643.012,-1667.811C709.1687,-1651.8182 801.616,-1618.5475 852,-1552 964.339,-1403.622 946.3891,-1160.8898 935.0921,-1071.7327"/>
<polygon fill="none" stroke="#191970" points="641.9827,-1664.4571 633.0407,-1670.1395 643.5746,-1671.2737 641.9827,-1664.4571"/>
</g>
<!-- Node19 -->
<g id="node15" class="node">
<title>Node19</title>
<g id="a_node15"><a xlink:href="classtvm_1_1runtime_1_1Map.html" target="_top" xlink:title="{tvm::runtime::Map\&lt;\l tvm::tir::Var, tvm\l::tir::Buffer \&gt;\n||+ Map()\l+ Map()\l+ Map()\l+ Map()\l+ Map()\l+ Map()\l+ Map()\l+ operator=()\l+ operator=()\l+ at()\land 12 more...\l}">
<polygon fill="#ffffff" stroke="#000000" points="954.5,-609.5 954.5,-798.5 1069.5,-798.5 1069.5,-609.5 954.5,-609.5"/>
<text text-anchor="start" x="962.5" y="-786.5" font-family="Helvetica,sans-Serif" font-size="10.00" fill="#000000">tvm::runtime::Map&lt;</text>
<text text-anchor="start" x="962.5" y="-775.5" font-family="Helvetica,sans-Serif" font-size="10.00" fill="#000000"> tvm::tir::Var, tvm</text>
<text text-anchor="middle" x="1012" y="-764.5" font-family="Helvetica,sans-Serif" font-size="10.00" fill="#000000">::tir::Buffer &gt;</text>
<polyline fill="none" stroke="#000000" points="954.5,-757.5 1069.5,-757.5 "/>
<text text-anchor="middle" x="1012" y="-745.5" font-family="Helvetica,sans-Serif" font-size="10.00" fill="#000000"> </text>
<polyline fill="none" stroke="#000000" points="954.5,-738.5 1069.5,-738.5 "/>
<text text-anchor="start" x="962.5" y="-726.5" font-family="Helvetica,sans-Serif" font-size="10.00" fill="#000000">+ Map()</text>
<text text-anchor="start" x="962.5" y="-715.5" font-family="Helvetica,sans-Serif" font-size="10.00" fill="#000000">+ Map()</text>
<text text-anchor="start" x="962.5" y="-704.5" font-family="Helvetica,sans-Serif" font-size="10.00" fill="#000000">+ Map()</text>
<text text-anchor="start" x="962.5" y="-693.5" font-family="Helvetica,sans-Serif" font-size="10.00" fill="#000000">+ Map()</text>
<text text-anchor="start" x="962.5" y="-682.5" font-family="Helvetica,sans-Serif" font-size="10.00" fill="#000000">+ Map()</text>
<text text-anchor="start" x="962.5" y="-671.5" font-family="Helvetica,sans-Serif" font-size="10.00" fill="#000000">+ Map()</text>
<text text-anchor="start" x="962.5" y="-660.5" font-family="Helvetica,sans-Serif" font-size="10.00" fill="#000000">+ Map()</text>
<text text-anchor="start" x="962.5" y="-649.5" font-family="Helvetica,sans-Serif" font-size="10.00" fill="#000000">+ operator=()</text>
<text text-anchor="start" x="962.5" y="-638.5" font-family="Helvetica,sans-Serif" font-size="10.00" fill="#000000">+ operator=()</text>
<text text-anchor="start" x="962.5" y="-627.5" font-family="Helvetica,sans-Serif" font-size="10.00" fill="#000000">+ at()</text>
<text text-anchor="start" x="962.5" y="-616.5" font-family="Helvetica,sans-Serif" font-size="10.00" fill="#000000">and 12 more...</text>
</a>
</g>
</g>
<!-- Node11&#45;&gt;Node19 -->
<g id="edge23" class="edge">
<title>Node11&#45;&gt;Node19</title>
<path fill="none" stroke="#191970" d="M643.2459,-1670.3104C724.5197,-1654.3507 850.1352,-1617.0451 920,-1533 1095.8794,-1321.4227 1061.3653,-967.2572 1031.8788,-798.7036"/>
<polygon fill="none" stroke="#191970" points="642.2403,-1666.9387 633.0688,-1672.243 643.5463,-1673.8158 642.2403,-1666.9387"/>
</g>
<!-- Node12 -->
<g id="node8" class="node">
<title>Node12</title>
<g id="a_node8"><a xlink:href="classtvm_1_1runtime_1_1ObjectPtr.html" target="_top" xlink:title="{tvm::runtime::ObjectPtr\l\&lt; tvm::runtime::Object \&gt;\n||+ ObjectPtr()\l+ ObjectPtr()\l+ ObjectPtr()\l+ ObjectPtr()\l+ ObjectPtr()\l+ ObjectPtr()\l+ ~ObjectPtr()\l+ swap()\l+ get()\l+ operator&#45;\&gt;()\land 11 more...\l}">
<polygon fill="#ffffff" stroke="#000000" points="496,-1840.5 496,-2018.5 636,-2018.5 636,-1840.5 496,-1840.5"/>
<text text-anchor="start" x="504" y="-2006.5" font-family="Helvetica,sans-Serif" font-size="10.00" fill="#000000">tvm::runtime::ObjectPtr</text>
<text text-anchor="middle" x="566" y="-1995.5" font-family="Helvetica,sans-Serif" font-size="10.00" fill="#000000">&lt; tvm::runtime::Object &gt;</text>
<polyline fill="none" stroke="#000000" points="496,-1988.5 636,-1988.5 "/>
<text text-anchor="middle" x="566" y="-1976.5" font-family="Helvetica,sans-Serif" font-size="10.00" fill="#000000"> </text>
<polyline fill="none" stroke="#000000" points="496,-1969.5 636,-1969.5 "/>
<text text-anchor="start" x="504" y="-1957.5" font-family="Helvetica,sans-Serif" font-size="10.00" fill="#000000">+ ObjectPtr()</text>
<text text-anchor="start" x="504" y="-1946.5" font-family="Helvetica,sans-Serif" font-size="10.00" fill="#000000">+ ObjectPtr()</text>
<text text-anchor="start" x="504" y="-1935.5" font-family="Helvetica,sans-Serif" font-size="10.00" fill="#000000">+ ObjectPtr()</text>
<text text-anchor="start" x="504" y="-1924.5" font-family="Helvetica,sans-Serif" font-size="10.00" fill="#000000">+ ObjectPtr()</text>
<text text-anchor="start" x="504" y="-1913.5" font-family="Helvetica,sans-Serif" font-size="10.00" fill="#000000">+ ObjectPtr()</text>
<text text-anchor="start" x="504" y="-1902.5" font-family="Helvetica,sans-Serif" font-size="10.00" fill="#000000">+ ObjectPtr()</text>
<text text-anchor="start" x="504" y="-1891.5" font-family="Helvetica,sans-Serif" font-size="10.00" fill="#000000">+ ~ObjectPtr()</text>
<text text-anchor="start" x="504" y="-1880.5" font-family="Helvetica,sans-Serif" font-size="10.00" fill="#000000">+ swap()</text>
<text text-anchor="start" x="504" y="-1869.5" font-family="Helvetica,sans-Serif" font-size="10.00" fill="#000000">+ get()</text>
<text text-anchor="start" x="504" y="-1858.5" font-family="Helvetica,sans-Serif" font-size="10.00" fill="#000000">+ operator&#45;&gt;()</text>
<text text-anchor="start" x="504" y="-1847.5" font-family="Helvetica,sans-Serif" font-size="10.00" fill="#000000">and 11 more...</text>
</a>
</g>
</g>
<!-- Node12&#45;&gt;Node11 -->
<g id="edge8" class="edge">
<title>Node12&#45;&gt;Node11</title>
<path fill="none" stroke="#404040" d="M566,-1840.3167C566,-1828.8765 566,-1817.0062 566,-1805.1402"/>
<polygon fill="none" stroke="#404040" points="566.0001,-1804.7944 562,-1798.7944 566,-1792.7944 570,-1798.7943 566.0001,-1804.7944"/>
<text text-anchor="middle" x="585.5" y="-1814" font-family="Helvetica,sans-Serif" font-size="10.00" fill="#000000"> #data_</text>
</g>
<!-- Node13&#45;&gt;Node5 -->
<g id="edge19" class="edge">
<title>Node13&#45;&gt;Node5</title>
<path fill="none" stroke="#404040" d="M68.4419,-839.3668C57.1251,-788.2606 41.0294,-689.2797 63,-609 108.7423,-441.8597 152.6556,-397.6635 290,-292 423.2995,-189.4483 608.8907,-124.7528 727.7481,-90.9628"/>
<polygon fill="none" stroke="#404040" points="727.8429,-90.9362 732.5371,-85.4622 739.3955,-87.6898 734.7014,-93.1638 727.8429,-90.9362"/>
<text text-anchor="middle" x="316" y="-379" font-family="Helvetica,sans-Serif" font-size="10.00" fill="#000000"> +ret_type</text>
</g>
<!-- Node13&#45;&gt;Node7 -->
<g id="edge10" class="edge">
<title>Node13&#45;&gt;Node7</title>
<path fill="none" stroke="#404040" d="M73.3328,-839.4975C67.2669,-776.688 58.1246,-645.5471 83,-609 95.1719,-591.1169 112.9573,-577.8544 132.3739,-568.0228"/>
<polygon fill="none" stroke="#404040" points="132.4355,-567.994 136.1735,-561.8274 143.3035,-562.9061 139.5654,-569.0728 132.4355,-567.994"/>
<text text-anchor="middle" x="125.5" y="-701.5" font-family="Helvetica,sans-Serif" font-size="10.00" fill="#000000"> +checked_type_</text>
</g>
<!-- Node14&#45;&gt;Node7 -->
<g id="edge12" class="edge">
<title>Node14&#45;&gt;Node7</title>
<path fill="none" stroke="#404040" d="M261.9973,-948.1972C259.6674,-942.16 257.6298,-936.0652 256,-930 225.8456,-817.7818 232.0676,-680.8053 239.4516,-602.6613"/>
<polygon fill="none" stroke="#404040" points="239.4596,-602.5793 236.0698,-596.2146 240.6412,-590.6377 244.031,-597.0024 239.4596,-602.5793"/>
<text text-anchor="middle" x="290.5" y="-871" font-family="Helvetica,sans-Serif" font-size="10.00" fill="#000000"> +struct_info_</text>
</g>
<!-- Node15 -->
<g id="node11" class="node">
<title>Node15</title>
<g id="a_node11"><a xlink:href="classtvm_1_1DictAttrs.html" target="_top" xlink:title="Managed reference to DictAttrsNode. ">
<polygon fill="#ffffff" stroke="#000000" points="645,-637 645,-771 799,-771 799,-637 645,-637"/>
<text text-anchor="middle" x="722" y="-759" font-family="Helvetica,sans-Serif" font-size="10.00" fill="#000000">tvm::DictAttrs</text>
<polyline fill="none" stroke="#000000" points="645,-752 799,-752 "/>
<text text-anchor="middle" x="722" y="-740" font-family="Helvetica,sans-Serif" font-size="10.00" fill="#000000"> </text>
<polyline fill="none" stroke="#000000" points="645,-733 799,-733 "/>
<text text-anchor="start" x="653" y="-721" font-family="Helvetica,sans-Serif" font-size="10.00" fill="#000000">+ DictAttrs()</text>
<text text-anchor="start" x="653" y="-710" font-family="Helvetica,sans-Serif" font-size="10.00" fill="#000000">+ GetAttr()</text>
<text text-anchor="start" x="653" y="-699" font-family="Helvetica,sans-Serif" font-size="10.00" fill="#000000">+ GetAttr()</text>
<text text-anchor="start" x="653" y="-688" font-family="Helvetica,sans-Serif" font-size="10.00" fill="#000000">+ HasNonzeroAttr()</text>
<text text-anchor="start" x="653" y="-677" font-family="Helvetica,sans-Serif" font-size="10.00" fill="#000000">+ TVM_DEFINE_OBJECT_REF</text>
<text text-anchor="start" x="653" y="-666" font-family="Helvetica,sans-Serif" font-size="10.00" fill="#000000">_METHODS()</text>
<text text-anchor="start" x="653" y="-655" font-family="Helvetica,sans-Serif" font-size="10.00" fill="#000000">+ TVM_DEFINE_OBJECT_REF</text>
<text text-anchor="start" x="653" y="-644" font-family="Helvetica,sans-Serif" font-size="10.00" fill="#000000">_COW_METHOD()</text>
</a>
</g>
</g>
<!-- Node15&#45;&gt;Node6 -->
<g id="edge14" class="edge">
<title>Node15&#45;&gt;Node6</title>
<path fill="none" stroke="#404040" d="M719.5161,-636.865C716.0964,-544.439 709.9716,-378.8983 706.5285,-285.8411"/>
<polygon fill="none" stroke="#404040" points="706.5253,-285.7502 702.3061,-279.9022 706.0815,-273.7584 710.3007,-279.6063 706.5253,-285.7502"/>
<text text-anchor="middle" x="734" y="-537.5" font-family="Helvetica,sans-Serif" font-size="10.00" fill="#000000"> +attrs</text>
</g>
<!-- Node16&#45;&gt;Node15 -->
<g id="edge15" class="edge">
<title>Node16&#45;&gt;Node15</title>
<path fill="none" stroke="#191970" d="M732.2349,-1294.8314C730.3403,-1185.4605 725.421,-901.4877 723.1635,-771.1628"/>
<polygon fill="none" stroke="#191970" points="728.7358,-1294.9218 732.4086,-1304.8596 735.7348,-1294.8005 728.7358,-1294.9218"/>
</g>
<!-- Node17&#45;&gt;Node5 -->
<g id="edge17" class="edge">
<title>Node17&#45;&gt;Node5</title>
<path fill="none" stroke="#404040" d="M841.1195,-292.0766C841.7369,-242.7624 842.4942,-182.2774 843.0773,-135.7017"/>
<polygon fill="none" stroke="#404040" points="843.0789,-135.5657 839.1544,-129.516 843.2292,-123.5666 847.1537,-129.6162 843.0789,-135.5657"/>
<text text-anchor="middle" x="866.5" y="-215" font-family="Helvetica,sans-Serif" font-size="10.00" fill="#000000"> +params</text>
</g>
<!-- Node18&#45;&gt;Node5 -->
<g id="edge20" class="edge">
<title>Node18&#45;&gt;Node5</title>
<path fill="none" stroke="#404040" d="M929.6607,-1003.4134C929.0901,-943.0579 928,-813.4317 928,-704 928,-704 928,-704 928,-217.5 928,-188.2355 916.3408,-159.1931 901.7099,-134.2692"/>
<polygon fill="none" stroke="#404040" points="901.5834,-134.064 895.0288,-131.0577 895.2829,-123.851 901.8374,-126.8574 901.5834,-134.064"/>
<text text-anchor="middle" x="946" y="-537.5" font-family="Helvetica,sans-Serif" font-size="10.00" fill="#000000"> +body</text>
</g>
<!-- Node19&#45;&gt;Node5 -->
<g id="edge22" class="edge">
<title>Node19&#45;&gt;Node5</title>
<path fill="none" stroke="#404040" d="M1020.7944,-609.4767C1027.2877,-492.2328 1023.7079,-289.7871 942,-142 940.3869,-139.0823 938.6205,-136.2294 936.7247,-133.4437"/>
<polygon fill="none" stroke="#404040" points="936.5666,-133.2343 929.7592,-130.8553 929.337,-123.6565 936.1444,-126.0355 936.5666,-133.2343"/>
<text text-anchor="middle" x="1054.5" y="-379" font-family="Helvetica,sans-Serif" font-size="10.00" fill="#000000"> +buffer_map</text>
</g>
</g>
</svg>
