<?xml version="1.0" encoding="UTF-8" standalone="no"?>
<!DOCTYPE svg PUBLIC "-//W3C//DTD SVG 1.1//EN"
 "http://www.w3.org/Graphics/SVG/1.1/DTD/svg11.dtd">
<!-- Generated by graphviz version 2.40.1 (20161225.0304)
 -->
<!-- Title: tvm::ConstructorNode Pages: 1 -->
<svg width="867pt" height="1698pt"
 viewBox="0.00 0.00 866.50 1698.00" xmlns="http://www.w3.org/2000/svg" xmlns:xlink="http://www.w3.org/1999/xlink">
<g id="graph0" class="graph" transform="scale(1 1) rotate(0) translate(4 1694)">
<title>tvm::ConstructorNode</title>
<polygon fill="#ffffff" stroke="transparent" points="-4,4 -4,-1694 862.5,-1694 862.5,4 -4,4"/>
<!-- Node4 -->
<g id="node1" class="node">
<title>Node4</title>
<polygon fill="#bfbfbf" stroke="#000000" points="567,-.5 567,-112.5 776,-112.5 776,-.5 567,-.5"/>
<text text-anchor="middle" x="671.5" y="-100.5" font-family="Helvetica,sans-Serif" font-size="10.00" fill="#000000">tvm::ConstructorNode</text>
<polyline fill="none" stroke="#000000" points="567,-93.5 776,-93.5 "/>
<text text-anchor="start" x="575" y="-81.5" font-family="Helvetica,sans-Serif" font-size="10.00" fill="#000000">+ tag</text>
<text text-anchor="start" x="575" y="-70.5" font-family="Helvetica,sans-Serif" font-size="10.00" fill="#000000">+ _type_key</text>
<polyline fill="none" stroke="#000000" points="567,-63.5 776,-63.5 "/>
<text text-anchor="start" x="575" y="-51.5" font-family="Helvetica,sans-Serif" font-size="10.00" fill="#000000">+ ConstructorNode()</text>
<text text-anchor="start" x="575" y="-40.5" font-family="Helvetica,sans-Serif" font-size="10.00" fill="#000000">+ VisitAttrs()</text>
<text text-anchor="start" x="575" y="-29.5" font-family="Helvetica,sans-Serif" font-size="10.00" fill="#000000">+ SEqualReduce()</text>
<text text-anchor="start" x="575" y="-18.5" font-family="Helvetica,sans-Serif" font-size="10.00" fill="#000000">+ SHashReduce()</text>
<text text-anchor="start" x="575" y="-7.5" font-family="Helvetica,sans-Serif" font-size="10.00" fill="#000000">+ TVM_DECLARE_FINAL_OBJECT_INFO()</text>
</g>
<!-- Node5 -->
<g id="node2" class="node">
<title>Node5</title>
<g id="a_node2"><a xlink:href="classtvm_1_1RelayExprNode.html" target="_top" xlink:title="Base node of all non&#45;primitive expressions. ">
<polygon fill="#ffffff" stroke="#000000" points="294,-160.5 294,-261.5 501,-261.5 501,-160.5 294,-160.5"/>
<text text-anchor="middle" x="397.5" y="-249.5" font-family="Helvetica,sans-Serif" font-size="10.00" fill="#000000">tvm::RelayExprNode</text>
<polyline fill="none" stroke="#000000" points="294,-242.5 501,-242.5 "/>
<text text-anchor="start" x="302" y="-230.5" font-family="Helvetica,sans-Serif" font-size="10.00" fill="#000000">+ _type_key</text>
<text text-anchor="start" x="302" y="-219.5" font-family="Helvetica,sans-Serif" font-size="10.00" fill="#000000">+ _type_child_slots</text>
<polyline fill="none" stroke="#000000" points="294,-212.5 501,-212.5 "/>
<text text-anchor="start" x="302" y="-200.5" font-family="Helvetica,sans-Serif" font-size="10.00" fill="#000000">+ checked_type()</text>
<text text-anchor="start" x="302" y="-189.5" font-family="Helvetica,sans-Serif" font-size="10.00" fill="#000000">+ type_as()</text>
<text text-anchor="start" x="302" y="-178.5" font-family="Helvetica,sans-Serif" font-size="10.00" fill="#000000">+ virtual_device()</text>
<text text-anchor="start" x="302" y="-167.5" font-family="Helvetica,sans-Serif" font-size="10.00" fill="#000000">+ TVM_DECLARE_BASE_OBJECT_INFO()</text>
</a>
</g>
</g>
<!-- Node5&#45;&gt;Node4 -->
<g id="edge1" class="edge">
<title>Node5&#45;&gt;Node4</title>
<path fill="none" stroke="#191970" d="M496.2235,-155.3329C520.9066,-141.4149 547.3921,-126.4805 572.1075,-112.5443"/>
<polygon fill="none" stroke="#191970" points="494.2094,-152.4505 487.2178,-160.4109 497.6476,-158.5479 494.2094,-152.4505"/>
</g>
<!-- Node6 -->
<g id="node3" class="node">
<title>Node6</title>
<g id="a_node3"><a xlink:href="classtvm_1_1BaseExprNode.html" target="_top" xlink:title="Base type of all the expressions. ">
<polygon fill="#ffffff" stroke="#000000" points="149,-477.5 149,-589.5 356,-589.5 356,-477.5 149,-477.5"/>
<text text-anchor="middle" x="252.5" y="-577.5" font-family="Helvetica,sans-Serif" font-size="10.00" fill="#000000">tvm::BaseExprNode</text>
<polyline fill="none" stroke="#000000" points="149,-570.5 356,-570.5 "/>
<text text-anchor="start" x="157" y="-558.5" font-family="Helvetica,sans-Serif" font-size="10.00" fill="#000000">+ _type_key</text>
<text text-anchor="start" x="157" y="-547.5" font-family="Helvetica,sans-Serif" font-size="10.00" fill="#000000">+ _type_has_method_sequal</text>
<text text-anchor="start" x="157" y="-536.5" font-family="Helvetica,sans-Serif" font-size="10.00" fill="#000000">_reduce</text>
<text text-anchor="start" x="157" y="-525.5" font-family="Helvetica,sans-Serif" font-size="10.00" fill="#000000">+ _type_has_method_shash</text>
<text text-anchor="start" x="157" y="-514.5" font-family="Helvetica,sans-Serif" font-size="10.00" fill="#000000">_reduce</text>
<text text-anchor="start" x="157" y="-503.5" font-family="Helvetica,sans-Serif" font-size="10.00" fill="#000000">+ _type_child_slots</text>
<polyline fill="none" stroke="#000000" points="149,-496.5 356,-496.5 "/>
<text text-anchor="start" x="157" y="-484.5" font-family="Helvetica,sans-Serif" font-size="10.00" fill="#000000">+ TVM_DECLARE_BASE_OBJECT_INFO()</text>
</a>
</g>
</g>
<!-- Node6&#45;&gt;Node5 -->
<g id="edge2" class="edge">
<title>Node6&#45;&gt;Node5</title>
<path fill="none" stroke="#191970" d="M281.8723,-468.1719C309.282,-407.2089 349.6125,-317.5085 374.6792,-261.7565"/>
<polygon fill="none" stroke="#191970" points="278.6656,-466.769 277.7571,-477.3248 285.05,-469.6395 278.6656,-466.769"/>
</g>
<!-- Node7 -->
<g id="node4" class="node">
<title>Node7</title>
<g id="a_node4"><a xlink:href="classtvm_1_1runtime_1_1Object.html" target="_top" xlink:title="base class of all object containers. ">
<polygon fill="#ffffff" stroke="#000000" points="0,-816.5 0,-1203.5 183,-1203.5 183,-816.5 0,-816.5"/>
<text text-anchor="middle" x="91.5" y="-1191.5" font-family="Helvetica,sans-Serif" font-size="10.00" fill="#000000">tvm::runtime::Object</text>
<polyline fill="none" stroke="#000000" points="0,-1184.5 183,-1184.5 "/>
<text text-anchor="start" x="8" y="-1172.5" font-family="Helvetica,sans-Serif" font-size="10.00" fill="#000000">+ _type_key</text>
<text text-anchor="start" x="8" y="-1161.5" font-family="Helvetica,sans-Serif" font-size="10.00" fill="#000000">+ _type_final</text>
<text text-anchor="start" x="8" y="-1150.5" font-family="Helvetica,sans-Serif" font-size="10.00" fill="#000000">+ _type_child_slots</text>
<text text-anchor="start" x="8" y="-1139.5" font-family="Helvetica,sans-Serif" font-size="10.00" fill="#000000">+ _type_child_slots_can</text>
<text text-anchor="start" x="8" y="-1128.5" font-family="Helvetica,sans-Serif" font-size="10.00" fill="#000000">_overflow</text>
<text text-anchor="start" x="8" y="-1117.5" font-family="Helvetica,sans-Serif" font-size="10.00" fill="#000000">+ _type_has_method_visit</text>
<text text-anchor="start" x="8" y="-1106.5" font-family="Helvetica,sans-Serif" font-size="10.00" fill="#000000">_attrs</text>
<text text-anchor="start" x="8" y="-1095.5" font-family="Helvetica,sans-Serif" font-size="10.00" fill="#000000">+ _type_has_method_sequal</text>
<text text-anchor="start" x="8" y="-1084.5" font-family="Helvetica,sans-Serif" font-size="10.00" fill="#000000">_reduce</text>
<text text-anchor="start" x="8" y="-1073.5" font-family="Helvetica,sans-Serif" font-size="10.00" fill="#000000">+ _type_has_method_shash</text>
<text text-anchor="start" x="8" y="-1062.5" font-family="Helvetica,sans-Serif" font-size="10.00" fill="#000000">_reduce</text>
<text text-anchor="start" x="8" y="-1051.5" font-family="Helvetica,sans-Serif" font-size="10.00" fill="#000000">+ _type_index</text>
<text text-anchor="start" x="8" y="-1040.5" font-family="Helvetica,sans-Serif" font-size="10.00" fill="#000000"># type_index_</text>
<text text-anchor="start" x="8" y="-1029.5" font-family="Helvetica,sans-Serif" font-size="10.00" fill="#000000"># ref_counter_</text>
<polyline fill="none" stroke="#000000" points="0,-1022.5 183,-1022.5 "/>
<text text-anchor="start" x="8" y="-1010.5" font-family="Helvetica,sans-Serif" font-size="10.00" fill="#000000">+ type_index()</text>
<text text-anchor="start" x="8" y="-999.5" font-family="Helvetica,sans-Serif" font-size="10.00" fill="#000000">+ GetTypeKey()</text>
<text text-anchor="start" x="8" y="-988.5" font-family="Helvetica,sans-Serif" font-size="10.00" fill="#000000">+ GetTypeKeyHash()</text>
<text text-anchor="start" x="8" y="-977.5" font-family="Helvetica,sans-Serif" font-size="10.00" fill="#000000">+ IsInstance()</text>
<text text-anchor="start" x="8" y="-966.5" font-family="Helvetica,sans-Serif" font-size="10.00" fill="#000000">+ unique()</text>
<text text-anchor="start" x="8" y="-955.5" font-family="Helvetica,sans-Serif" font-size="10.00" fill="#000000">+ Object()</text>
<text text-anchor="start" x="8" y="-944.5" font-family="Helvetica,sans-Serif" font-size="10.00" fill="#000000">+ Object()</text>
<text text-anchor="start" x="8" y="-933.5" font-family="Helvetica,sans-Serif" font-size="10.00" fill="#000000">+ Object()</text>
<text text-anchor="start" x="8" y="-922.5" font-family="Helvetica,sans-Serif" font-size="10.00" fill="#000000">+ operator=()</text>
<text text-anchor="start" x="8" y="-911.5" font-family="Helvetica,sans-Serif" font-size="10.00" fill="#000000">+ operator=()</text>
<text text-anchor="start" x="8" y="-900.5" font-family="Helvetica,sans-Serif" font-size="10.00" fill="#000000">+ TypeIndex2Key()</text>
<text text-anchor="start" x="8" y="-889.5" font-family="Helvetica,sans-Serif" font-size="10.00" fill="#000000">+ TypeIndex2KeyHash()</text>
<text text-anchor="start" x="8" y="-878.5" font-family="Helvetica,sans-Serif" font-size="10.00" fill="#000000">+ TypeKey2Index()</text>
<text text-anchor="start" x="8" y="-867.5" font-family="Helvetica,sans-Serif" font-size="10.00" fill="#000000">+ _GetOrAllocRuntimeTypeIndex()</text>
<text text-anchor="start" x="8" y="-856.5" font-family="Helvetica,sans-Serif" font-size="10.00" fill="#000000">+ RuntimeTypeIndex()</text>
<text text-anchor="start" x="8" y="-845.5" font-family="Helvetica,sans-Serif" font-size="10.00" fill="#000000"># IncRef()</text>
<text text-anchor="start" x="8" y="-834.5" font-family="Helvetica,sans-Serif" font-size="10.00" fill="#000000"># DecRef()</text>
<text text-anchor="start" x="8" y="-823.5" font-family="Helvetica,sans-Serif" font-size="10.00" fill="#000000"># GetOrAllocRuntimeTypeIndex()</text>
</a>
</g>
</g>
<!-- Node7&#45;&gt;Node6 -->
<g id="edge3" class="edge">
<title>Node7&#45;&gt;Node6</title>
<path fill="none" stroke="#191970" d="M160.2293,-806.5869C186.912,-727.6161 215.358,-643.4264 233.4983,-589.7379"/>
<polygon fill="none" stroke="#191970" points="156.8701,-805.595 156.9849,-816.1892 163.5018,-807.8358 156.8701,-805.595"/>
</g>
<!-- Node7&#45;&gt;Node7 -->
<g id="edge4" class="edge">
<title>Node7&#45;&gt;Node7</title>
<path fill="none" stroke="#404040" d="M183.3625,-1043.9248C194.0482,-1037.6637 201,-1026.3555 201,-1010 201,-999.0112 197.8618,-990.3007 192.5615,-983.8687"/>
<polygon fill="none" stroke="#404040" points="192.5184,-983.8322 185.3548,-983.0056 183.3625,-976.0752 190.5261,-976.9017 192.5184,-983.8322"/>
<text text-anchor="middle" x="227" y="-1007.5" font-family="Helvetica,sans-Serif" font-size="10.00" fill="#000000"> #deleter_</text>
</g>
<!-- Node8 -->
<g id="node5" class="node">
<title>Node8</title>
<g id="a_node5"><a xlink:href="classtvm_1_1Span.html" target="_top" xlink:title="{tvm::Span\n||+ Span()\l+ Merge()\l+ TVM_DEFINE_OBJECT_REF\l_METHODS()\l}">
<polygon fill="#ffffff" stroke="#000000" points="271.5,-965 271.5,-1055 425.5,-1055 425.5,-965 271.5,-965"/>
<text text-anchor="middle" x="348.5" y="-1043" font-family="Helvetica,sans-Serif" font-size="10.00" fill="#000000">tvm::Span</text>
<polyline fill="none" stroke="#000000" points="271.5,-1036 425.5,-1036 "/>
<text text-anchor="middle" x="348.5" y="-1024" font-family="Helvetica,sans-Serif" font-size="10.00" fill="#000000"> </text>
<polyline fill="none" stroke="#000000" points="271.5,-1017 425.5,-1017 "/>
<text text-anchor="start" x="279.5" y="-1005" font-family="Helvetica,sans-Serif" font-size="10.00" fill="#000000">+ Span()</text>
<text text-anchor="start" x="279.5" y="-994" font-family="Helvetica,sans-Serif" font-size="10.00" fill="#000000">+ Merge()</text>
<text text-anchor="start" x="279.5" y="-983" font-family="Helvetica,sans-Serif" font-size="10.00" fill="#000000">+ TVM_DEFINE_OBJECT_REF</text>
<text text-anchor="start" x="279.5" y="-972" font-family="Helvetica,sans-Serif" font-size="10.00" fill="#000000">_METHODS()</text>
</a>
</g>
</g>
<!-- Node8&#45;&gt;Node6 -->
<g id="edge5" class="edge">
<title>Node8&#45;&gt;Node6</title>
<path fill="none" stroke="#404040" d="M326.9216,-964.8857C307.8866,-922.7676 281.2483,-857.6278 268.5,-798 254.4683,-732.3696 251.2331,-655.6443 251.0459,-601.7827"/>
<polygon fill="none" stroke="#404040" points="251.0459,-601.6284 247.05,-595.6257 251.054,-589.6284 255.05,-595.6311 251.0459,-601.6284"/>
<text text-anchor="middle" x="286" y="-700.5" font-family="Helvetica,sans-Serif" font-size="10.00" fill="#000000"> +span</text>
</g>
<!-- Node9 -->
<g id="node6" class="node">
<title>Node9</title>
<g id="a_node6"><a xlink:href="classtvm_1_1runtime_1_1ObjectRef.html" target="_top" xlink:title="Base class of all object reference. ">
<polygon fill="#ffffff" stroke="#000000" points="474.5,-1241.5 474.5,-1463.5 608.5,-1463.5 608.5,-1241.5 474.5,-1241.5"/>
<text text-anchor="middle" x="541.5" y="-1451.5" font-family="Helvetica,sans-Serif" font-size="10.00" fill="#000000">tvm::runtime::ObjectRef</text>
<polyline fill="none" stroke="#000000" points="474.5,-1444.5 608.5,-1444.5 "/>
<text text-anchor="start" x="482.5" y="-1432.5" font-family="Helvetica,sans-Serif" font-size="10.00" fill="#000000">+ _type_is_nullable</text>
<polyline fill="none" stroke="#000000" points="474.5,-1425.5 608.5,-1425.5 "/>
<text text-anchor="start" x="482.5" y="-1413.5" font-family="Helvetica,sans-Serif" font-size="10.00" fill="#000000">+ ObjectRef()</text>
<text text-anchor="start" x="482.5" y="-1402.5" font-family="Helvetica,sans-Serif" font-size="10.00" fill="#000000">+ ObjectRef()</text>
<text text-anchor="start" x="482.5" y="-1391.5" font-family="Helvetica,sans-Serif" font-size="10.00" fill="#000000">+ same_as()</text>
<text text-anchor="start" x="482.5" y="-1380.5" font-family="Helvetica,sans-Serif" font-size="10.00" fill="#000000">+ operator==()</text>
<text text-anchor="start" x="482.5" y="-1369.5" font-family="Helvetica,sans-Serif" font-size="10.00" fill="#000000">+ operator!=()</text>
<text text-anchor="start" x="482.5" y="-1358.5" font-family="Helvetica,sans-Serif" font-size="10.00" fill="#000000">+ operator&lt;()</text>
<text text-anchor="start" x="482.5" y="-1347.5" font-family="Helvetica,sans-Serif" font-size="10.00" fill="#000000">+ defined()</text>
<text text-anchor="start" x="482.5" y="-1336.5" font-family="Helvetica,sans-Serif" font-size="10.00" fill="#000000">+ get()</text>
<text text-anchor="start" x="482.5" y="-1325.5" font-family="Helvetica,sans-Serif" font-size="10.00" fill="#000000">+ operator&#45;&gt;()</text>
<text text-anchor="start" x="482.5" y="-1314.5" font-family="Helvetica,sans-Serif" font-size="10.00" fill="#000000">+ unique()</text>
<text text-anchor="start" x="482.5" y="-1303.5" font-family="Helvetica,sans-Serif" font-size="10.00" fill="#000000">+ use_count()</text>
<text text-anchor="start" x="482.5" y="-1292.5" font-family="Helvetica,sans-Serif" font-size="10.00" fill="#000000">+ as()</text>
<text text-anchor="start" x="482.5" y="-1281.5" font-family="Helvetica,sans-Serif" font-size="10.00" fill="#000000"># get_mutable()</text>
<text text-anchor="start" x="482.5" y="-1270.5" font-family="Helvetica,sans-Serif" font-size="10.00" fill="#000000"># DowncastNoCheck()</text>
<text text-anchor="start" x="482.5" y="-1259.5" font-family="Helvetica,sans-Serif" font-size="10.00" fill="#000000"># FFIClearAfterMove()</text>
<text text-anchor="start" x="482.5" y="-1248.5" font-family="Helvetica,sans-Serif" font-size="10.00" fill="#000000"># GetDataPtr()</text>
</a>
</g>
</g>
<!-- Node9&#45;&gt;Node5 -->
<g id="edge8" class="edge">
<title>Node9&#45;&gt;Node5</title>
<path fill="none" stroke="#404040" d="M530.7089,-1241.2942C519.9811,-1129.3744 503.3199,-951.7819 490.5,-798 478.6147,-655.4297 489.8881,-618.1402 466.5,-477 454.7896,-406.3313 433.0806,-327.0574 417.1296,-273.5811"/>
<polygon fill="none" stroke="#404040" points="417.0741,-273.3964 411.5148,-268.8036 413.6161,-261.9054 419.1754,-266.4982 417.0741,-273.3964"/>
<text text-anchor="middle" x="533.5" y="-700.5" font-family="Helvetica,sans-Serif" font-size="10.00" fill="#000000"> +virtual_device_</text>
</g>
<!-- Node9&#45;&gt;Node8 -->
<g id="edge6" class="edge">
<title>Node9&#45;&gt;Node8</title>
<path fill="none" stroke="#191970" d="M468.3062,-1265.9178C458.0125,-1251.9872 448.0448,-1237.4027 439.5,-1223 406.979,-1168.184 379.8447,-1099.5952 363.8932,-1055.3012"/>
<polygon fill="none" stroke="#191970" points="465.5963,-1268.1381 474.3964,-1274.0381 471.1964,-1263.9381 465.5963,-1268.1381"/>
</g>
<!-- Node11 -->
<g id="node8" class="node">
<title>Node11</title>
<g id="a_node8"><a xlink:href="classtvm_1_1Type.html" target="_top" xlink:title="Managed reference to TypeNode. ">
<polygon fill="#ffffff" stroke="#000000" points="517.5,-499.5 517.5,-567.5 671.5,-567.5 671.5,-499.5 517.5,-499.5"/>
<text text-anchor="middle" x="594.5" y="-555.5" font-family="Helvetica,sans-Serif" font-size="10.00" fill="#000000">tvm::Type</text>
<polyline fill="none" stroke="#000000" points="517.5,-548.5 671.5,-548.5 "/>
<text text-anchor="middle" x="594.5" y="-536.5" font-family="Helvetica,sans-Serif" font-size="10.00" fill="#000000"> </text>
<polyline fill="none" stroke="#000000" points="517.5,-529.5 671.5,-529.5 "/>
<text text-anchor="start" x="525.5" y="-517.5" font-family="Helvetica,sans-Serif" font-size="10.00" fill="#000000">+ TVM_DEFINE_OBJECT_REF</text>
<text text-anchor="start" x="525.5" y="-506.5" font-family="Helvetica,sans-Serif" font-size="10.00" fill="#000000">_METHODS()</text>
</a>
</g>
</g>
<!-- Node9&#45;&gt;Node11 -->
<g id="edge10" class="edge">
<title>Node9&#45;&gt;Node11</title>
<path fill="none" stroke="#191970" d="M550.6334,-1231.2783C558.951,-1118.9682 571.3021,-947.2502 580.5,-798 585.5913,-715.3848 590.4444,-618.1824 592.8771,-567.7498"/>
<polygon fill="none" stroke="#191970" points="547.1407,-1231.0511 549.8915,-1241.2826 554.1215,-1231.5689 547.1407,-1231.0511"/>
</g>
<!-- Node12 -->
<g id="node9" class="node">
<title>Node12</title>
<g id="a_node9"><a xlink:href="classtvm_1_1runtime_1_1Optional.html" target="_top" xlink:title="{tvm::runtime::Optional\l\&lt; tvm::runtime::ObjectRef \&gt;\n|+ _type_is_nullable\l|+ Optional()\l+ Optional()\l+ Optional()\l+ Optional()\l+ Optional()\l+ Optional()\l+ Optional()\l+ Optional()\l+ operator=()\l+ operator=()\land 15 more...\l}">
<polygon fill="#ffffff" stroke="#000000" points="312.5,-614 312.5,-792 468.5,-792 468.5,-614 312.5,-614"/>
<text text-anchor="start" x="320.5" y="-780" font-family="Helvetica,sans-Serif" font-size="10.00" fill="#000000">tvm::runtime::Optional</text>
<text text-anchor="middle" x="390.5" y="-769" font-family="Helvetica,sans-Serif" font-size="10.00" fill="#000000">&lt; tvm::runtime::ObjectRef &gt;</text>
<polyline fill="none" stroke="#000000" points="312.5,-762 468.5,-762 "/>
<text text-anchor="start" x="320.5" y="-750" font-family="Helvetica,sans-Serif" font-size="10.00" fill="#000000">+ _type_is_nullable</text>
<polyline fill="none" stroke="#000000" points="312.5,-743 468.5,-743 "/>
<text text-anchor="start" x="320.5" y="-731" font-family="Helvetica,sans-Serif" font-size="10.00" fill="#000000">+ Optional()</text>
<text text-anchor="start" x="320.5" y="-720" font-family="Helvetica,sans-Serif" font-size="10.00" fill="#000000">+ Optional()</text>
<text text-anchor="start" x="320.5" y="-709" font-family="Helvetica,sans-Serif" font-size="10.00" fill="#000000">+ Optional()</text>
<text text-anchor="start" x="320.5" y="-698" font-family="Helvetica,sans-Serif" font-size="10.00" fill="#000000">+ Optional()</text>
<text text-anchor="start" x="320.5" y="-687" font-family="Helvetica,sans-Serif" font-size="10.00" fill="#000000">+ Optional()</text>
<text text-anchor="start" x="320.5" y="-676" font-family="Helvetica,sans-Serif" font-size="10.00" fill="#000000">+ Optional()</text>
<text text-anchor="start" x="320.5" y="-665" font-family="Helvetica,sans-Serif" font-size="10.00" fill="#000000">+ Optional()</text>
<text text-anchor="start" x="320.5" y="-654" font-family="Helvetica,sans-Serif" font-size="10.00" fill="#000000">+ Optional()</text>
<text text-anchor="start" x="320.5" y="-643" font-family="Helvetica,sans-Serif" font-size="10.00" fill="#000000">+ operator=()</text>
<text text-anchor="start" x="320.5" y="-632" font-family="Helvetica,sans-Serif" font-size="10.00" fill="#000000">+ operator=()</text>
<text text-anchor="start" x="320.5" y="-621" font-family="Helvetica,sans-Serif" font-size="10.00" fill="#000000">and 15 more...</text>
</a>
</g>
</g>
<!-- Node9&#45;&gt;Node12 -->
<g id="edge12" class="edge">
<title>Node9&#45;&gt;Node12</title>
<path fill="none" stroke="#191970" d="M480.1251,-1231.4998C479.1956,-1228.6583 478.3182,-1225.8227 477.5,-1223 426.8595,-1048.2958 477.4348,-992.7558 434.5,-816 432.5868,-808.1237 430.2539,-800.0607 427.6708,-792.0453"/>
<polygon fill="none" stroke="#191970" points="476.8953,-1232.8692 483.4755,-1241.1729 483.5098,-1230.5781 476.8953,-1232.8692"/>
</g>
<!-- Node14 -->
<g id="node11" class="node">
<title>Node14</title>
<g id="a_node11"><a xlink:href="classtvm_1_1runtime_1_1Array.html" target="_top" xlink:title="{tvm::runtime::Array\l\&lt; tvm::Type \&gt;\n||+ Array()\l+ Array()\l+ Array()\l+ Array()\l+ Array()\l+ Array()\l+ Array()\l+ Array()\l+ operator=()\l+ operator=()\land 25 more...\l}">
<polygon fill="#ffffff" stroke="#000000" points="643,-280.5 643,-458.5 756,-458.5 756,-280.5 643,-280.5"/>
<text text-anchor="start" x="651" y="-446.5" font-family="Helvetica,sans-Serif" font-size="10.00" fill="#000000">tvm::runtime::Array</text>
<text text-anchor="middle" x="699.5" y="-435.5" font-family="Helvetica,sans-Serif" font-size="10.00" fill="#000000">&lt; tvm::Type &gt;</text>
<polyline fill="none" stroke="#000000" points="643,-428.5 756,-428.5 "/>
<text text-anchor="middle" x="699.5" y="-416.5" font-family="Helvetica,sans-Serif" font-size="10.00" fill="#000000"> </text>
<polyline fill="none" stroke="#000000" points="643,-409.5 756,-409.5 "/>
<text text-anchor="start" x="651" y="-397.5" font-family="Helvetica,sans-Serif" font-size="10.00" fill="#000000">+ Array()</text>
<text text-anchor="start" x="651" y="-386.5" font-family="Helvetica,sans-Serif" font-size="10.00" fill="#000000">+ Array()</text>
<text text-anchor="start" x="651" y="-375.5" font-family="Helvetica,sans-Serif" font-size="10.00" fill="#000000">+ Array()</text>
<text text-anchor="start" x="651" y="-364.5" font-family="Helvetica,sans-Serif" font-size="10.00" fill="#000000">+ Array()</text>
<text text-anchor="start" x="651" y="-353.5" font-family="Helvetica,sans-Serif" font-size="10.00" fill="#000000">+ Array()</text>
<text text-anchor="start" x="651" y="-342.5" font-family="Helvetica,sans-Serif" font-size="10.00" fill="#000000">+ Array()</text>
<text text-anchor="start" x="651" y="-331.5" font-family="Helvetica,sans-Serif" font-size="10.00" fill="#000000">+ Array()</text>
<text text-anchor="start" x="651" y="-320.5" font-family="Helvetica,sans-Serif" font-size="10.00" fill="#000000">+ Array()</text>
<text text-anchor="start" x="651" y="-309.5" font-family="Helvetica,sans-Serif" font-size="10.00" fill="#000000">+ operator=()</text>
<text text-anchor="start" x="651" y="-298.5" font-family="Helvetica,sans-Serif" font-size="10.00" fill="#000000">+ operator=()</text>
<text text-anchor="start" x="651" y="-287.5" font-family="Helvetica,sans-Serif" font-size="10.00" fill="#000000">and 25 more...</text>
</a>
</g>
</g>
<!-- Node9&#45;&gt;Node14 -->
<g id="edge16" class="edge">
<title>Node9&#45;&gt;Node14</title>
<path fill="none" stroke="#191970" d="M573.4484,-1231.2605C575.5901,-1222.0575 577.6343,-1212.894 579.5,-1204 636.2785,-933.335 646.1589,-864.4158 680.5,-590 685.8914,-546.9179 690.2252,-498.9071 693.3845,-458.7129"/>
<polygon fill="none" stroke="#191970" points="569.9811,-1230.7145 571.0899,-1241.2512 576.7939,-1232.3229 569.9811,-1230.7145"/>
</g>
<!-- Node15 -->
<g id="node12" class="node">
<title>Node15</title>
<g id="a_node12"><a xlink:href="classtvm_1_1runtime_1_1String.html" target="_top" xlink:title="Reference to string objects. ">
<polygon fill="#ffffff" stroke="#000000" points="717.5,-608.5 717.5,-797.5 833.5,-797.5 833.5,-608.5 717.5,-608.5"/>
<text text-anchor="middle" x="775.5" y="-785.5" font-family="Helvetica,sans-Serif" font-size="10.00" fill="#000000">tvm::runtime::String</text>
<polyline fill="none" stroke="#000000" points="717.5,-778.5 833.5,-778.5 "/>
<text text-anchor="middle" x="775.5" y="-766.5" font-family="Helvetica,sans-Serif" font-size="10.00" fill="#000000"> </text>
<polyline fill="none" stroke="#000000" points="717.5,-759.5 833.5,-759.5 "/>
<text text-anchor="start" x="725.5" y="-747.5" font-family="Helvetica,sans-Serif" font-size="10.00" fill="#000000">+ String()</text>
<text text-anchor="start" x="725.5" y="-736.5" font-family="Helvetica,sans-Serif" font-size="10.00" fill="#000000">+ String()</text>
<text text-anchor="start" x="725.5" y="-725.5" font-family="Helvetica,sans-Serif" font-size="10.00" fill="#000000">+ String()</text>
<text text-anchor="start" x="725.5" y="-714.5" font-family="Helvetica,sans-Serif" font-size="10.00" fill="#000000">+ String()</text>
<text text-anchor="start" x="725.5" y="-703.5" font-family="Helvetica,sans-Serif" font-size="10.00" fill="#000000">+ operator=()</text>
<text text-anchor="start" x="725.5" y="-692.5" font-family="Helvetica,sans-Serif" font-size="10.00" fill="#000000">+ operator=()</text>
<text text-anchor="start" x="725.5" y="-681.5" font-family="Helvetica,sans-Serif" font-size="10.00" fill="#000000">+ compare()</text>
<text text-anchor="start" x="725.5" y="-670.5" font-family="Helvetica,sans-Serif" font-size="10.00" fill="#000000">+ compare()</text>
<text text-anchor="start" x="725.5" y="-659.5" font-family="Helvetica,sans-Serif" font-size="10.00" fill="#000000">+ compare()</text>
<text text-anchor="start" x="725.5" y="-648.5" font-family="Helvetica,sans-Serif" font-size="10.00" fill="#000000">+ c_str()</text>
<text text-anchor="start" x="725.5" y="-637.5" font-family="Helvetica,sans-Serif" font-size="10.00" fill="#000000">and 6 more...</text>
<text text-anchor="start" x="725.5" y="-626.5" font-family="Helvetica,sans-Serif" font-size="10.00" fill="#000000">+ CanConvertFrom()</text>
<text text-anchor="start" x="725.5" y="-615.5" font-family="Helvetica,sans-Serif" font-size="10.00" fill="#000000">+ HashBytes()</text>
</a>
</g>
</g>
<!-- Node9&#45;&gt;Node15 -->
<g id="edge18" class="edge">
<title>Node9&#45;&gt;Node15</title>
<path fill="none" stroke="#191970" d="M617.5674,-1314.0152C652.6449,-1292.2085 691.3339,-1261.5302 713.5,-1223 789.7794,-1090.4077 792.5738,-907.4894 785.5271,-797.6692"/>
<polygon fill="none" stroke="#191970" points="615.4759,-1311.1901 608.7394,-1319.3675 619.1051,-1317.1759 615.4759,-1311.1901"/>
</g>
<!-- Node10 -->
<g id="node7" class="node">
<title>Node10</title>
<g id="a_node7"><a xlink:href="classtvm_1_1runtime_1_1ObjectPtr.html" target="_top" xlink:title="{tvm::runtime::ObjectPtr\l\&lt; tvm::runtime::Object \&gt;\n||+ ObjectPtr()\l+ ObjectPtr()\l+ ObjectPtr()\l+ ObjectPtr()\l+ ObjectPtr()\l+ ObjectPtr()\l+ ~ObjectPtr()\l+ swap()\l+ get()\l+ operator&#45;\&gt;()\land 11 more...\l}">
<polygon fill="#ffffff" stroke="#000000" points="471.5,-1511.5 471.5,-1689.5 611.5,-1689.5 611.5,-1511.5 471.5,-1511.5"/>
<text text-anchor="start" x="479.5" y="-1677.5" font-family="Helvetica,sans-Serif" font-size="10.00" fill="#000000">tvm::runtime::ObjectPtr</text>
<text text-anchor="middle" x="541.5" y="-1666.5" font-family="Helvetica,sans-Serif" font-size="10.00" fill="#000000">&lt; tvm::runtime::Object &gt;</text>
<polyline fill="none" stroke="#000000" points="471.5,-1659.5 611.5,-1659.5 "/>
<text text-anchor="middle" x="541.5" y="-1647.5" font-family="Helvetica,sans-Serif" font-size="10.00" fill="#000000"> </text>
<polyline fill="none" stroke="#000000" points="471.5,-1640.5 611.5,-1640.5 "/>
<text text-anchor="start" x="479.5" y="-1628.5" font-family="Helvetica,sans-Serif" font-size="10.00" fill="#000000">+ ObjectPtr()</text>
<text text-anchor="start" x="479.5" y="-1617.5" font-family="Helvetica,sans-Serif" font-size="10.00" fill="#000000">+ ObjectPtr()</text>
<text text-anchor="start" x="479.5" y="-1606.5" font-family="Helvetica,sans-Serif" font-size="10.00" fill="#000000">+ ObjectPtr()</text>
<text text-anchor="start" x="479.5" y="-1595.5" font-family="Helvetica,sans-Serif" font-size="10.00" fill="#000000">+ ObjectPtr()</text>
<text text-anchor="start" x="479.5" y="-1584.5" font-family="Helvetica,sans-Serif" font-size="10.00" fill="#000000">+ ObjectPtr()</text>
<text text-anchor="start" x="479.5" y="-1573.5" font-family="Helvetica,sans-Serif" font-size="10.00" fill="#000000">+ ObjectPtr()</text>
<text text-anchor="start" x="479.5" y="-1562.5" font-family="Helvetica,sans-Serif" font-size="10.00" fill="#000000">+ ~ObjectPtr()</text>
<text text-anchor="start" x="479.5" y="-1551.5" font-family="Helvetica,sans-Serif" font-size="10.00" fill="#000000">+ swap()</text>
<text text-anchor="start" x="479.5" y="-1540.5" font-family="Helvetica,sans-Serif" font-size="10.00" fill="#000000">+ get()</text>
<text text-anchor="start" x="479.5" y="-1529.5" font-family="Helvetica,sans-Serif" font-size="10.00" fill="#000000">+ operator&#45;&gt;()</text>
<text text-anchor="start" x="479.5" y="-1518.5" font-family="Helvetica,sans-Serif" font-size="10.00" fill="#000000">and 11 more...</text>
</a>
</g>
</g>
<!-- Node10&#45;&gt;Node9 -->
<g id="edge7" class="edge">
<title>Node10&#45;&gt;Node9</title>
<path fill="none" stroke="#404040" d="M541.5,-1511.3167C541.5,-1499.8765 541.5,-1488.0062 541.5,-1476.1402"/>
<polygon fill="none" stroke="#404040" points="541.5001,-1475.7944 537.5,-1469.7944 541.5,-1463.7944 545.5,-1469.7943 541.5001,-1475.7944"/>
<text text-anchor="middle" x="561" y="-1485" font-family="Helvetica,sans-Serif" font-size="10.00" fill="#000000"> #data_</text>
</g>
<!-- Node11&#45;&gt;Node5 -->
<g id="edge9" class="edge">
<title>Node11&#45;&gt;Node5</title>
<path fill="none" stroke="#404040" d="M550.1949,-499.3153C538.2878,-487.825 526.723,-474.0585 519.5,-459 484.9002,-386.8664 541.8483,-348.4888 500.5,-280 498.5602,-276.787 496.4068,-273.6915 494.0779,-270.7125"/>
<polygon fill="none" stroke="#404040" points="493.9968,-270.62 487.0344,-268.7425 486.0895,-261.5936 493.052,-263.471 493.9968,-270.62"/>
<text text-anchor="middle" x="562" y="-367" font-family="Helvetica,sans-Serif" font-size="10.00" fill="#000000"> +checked_type_</text>
</g>
<!-- Node13 -->
<g id="node10" class="node">
<title>Node13</title>
<g id="a_node10"><a xlink:href="classtvm_1_1GlobalTypeVar.html" target="_top" xlink:title="Managed reference to GlobalTypeVarNode. ">
<polygon fill="#ffffff" stroke="#000000" points="519.5,-171.5 519.5,-250.5 673.5,-250.5 673.5,-171.5 519.5,-171.5"/>
<text text-anchor="middle" x="596.5" y="-238.5" font-family="Helvetica,sans-Serif" font-size="10.00" fill="#000000">tvm::GlobalTypeVar</text>
<polyline fill="none" stroke="#000000" points="519.5,-231.5 673.5,-231.5 "/>
<text text-anchor="middle" x="596.5" y="-219.5" font-family="Helvetica,sans-Serif" font-size="10.00" fill="#000000"> </text>
<polyline fill="none" stroke="#000000" points="519.5,-212.5 673.5,-212.5 "/>
<text text-anchor="start" x="527.5" y="-200.5" font-family="Helvetica,sans-Serif" font-size="10.00" fill="#000000">+ GlobalTypeVar()</text>
<text text-anchor="start" x="527.5" y="-189.5" font-family="Helvetica,sans-Serif" font-size="10.00" fill="#000000">+ TVM_DEFINE_OBJECT_REF</text>
<text text-anchor="start" x="527.5" y="-178.5" font-family="Helvetica,sans-Serif" font-size="10.00" fill="#000000">_METHODS()</text>
</a>
</g>
</g>
<!-- Node11&#45;&gt;Node13 -->
<g id="edge14" class="edge">
<title>Node11&#45;&gt;Node13</title>
<path fill="none" stroke="#191970" d="M604.2292,-489.1595C606.0056,-479.2806 607.5851,-468.8227 608.5,-459 615.8782,-379.7873 615.3409,-359.2609 608.5,-280 607.674,-270.43 606.2151,-260.1956 604.5925,-250.6182"/>
<polygon fill="none" stroke="#191970" points="600.7508,-488.7169 602.3263,-499.1939 607.6282,-490.0212 600.7508,-488.7169"/>
</g>
<!-- Node12&#45;&gt;Node5 -->
<g id="edge11" class="edge">
<title>Node12&#45;&gt;Node5</title>
<path fill="none" stroke="#404040" d="M391.7676,-613.9025C393.1646,-515.7186 395.3758,-360.3032 396.6035,-274.0079"/>
<polygon fill="none" stroke="#404040" points="396.6065,-273.7911 392.6923,-267.7348 396.7773,-261.7924 400.6915,-267.8487 396.6065,-273.7911"/>
<text text-anchor="middle" x="428" y="-531" font-family="Helvetica,sans-Serif" font-size="10.00" fill="#000000"> +struct_info_</text>
</g>
<!-- Node13&#45;&gt;Node4 -->
<g id="edge13" class="edge">
<title>Node13&#45;&gt;Node4</title>
<path fill="none" stroke="#404040" d="M615.8144,-171.2124C622.832,-156.7561 630.9707,-139.9904 638.8226,-123.8155"/>
<polygon fill="none" stroke="#404040" points="638.9549,-123.5428 637.9767,-116.3984 644.1954,-112.7476 645.1735,-119.892 638.9549,-123.5428"/>
<text text-anchor="middle" x="663.5" y="-134" font-family="Helvetica,sans-Serif" font-size="10.00" fill="#000000"> +belong_to</text>
</g>
<!-- Node14&#45;&gt;Node4 -->
<g id="edge15" class="edge">
<title>Node14&#45;&gt;Node4</title>
<path fill="none" stroke="#404040" d="M704.196,-280.3122C705.0045,-235.2638 703.6068,-179.9239 695.5,-131 695.1408,-128.832 694.7311,-126.6407 694.2789,-124.4375"/>
<polygon fill="none" stroke="#404040" points="694.2444,-124.2905 688.9777,-119.3649 691.4988,-112.6088 696.7655,-117.5344 694.2444,-124.2905"/>
<text text-anchor="middle" x="724.5" y="-208.5" font-family="Helvetica,sans-Serif" font-size="10.00" fill="#000000"> +inputs</text>
</g>
<!-- Node15&#45;&gt;Node4 -->
<g id="edge17" class="edge">
<title>Node15&#45;&gt;Node4</title>
<path fill="none" stroke="#404040" d="M787.8994,-608.2935C798.6723,-497.1318 804.9544,-309.0464 749.5,-160 744.706,-147.115 737.757,-134.4847 729.9548,-122.7214"/>
<polygon fill="none" stroke="#404040" points="729.7762,-122.4652 723.0629,-119.8322 722.9114,-112.6226 729.6247,-115.2557 729.7762,-122.4652"/>
<text text-anchor="middle" x="826.5" y="-367" font-family="Helvetica,sans-Serif" font-size="10.00" fill="#000000"> +name_hint</text>
</g>
</g>
</svg>
