<?xml version="1.0" encoding="UTF-8" standalone="no"?>
<!DOCTYPE svg PUBLIC "-//W3C//DTD SVG 1.1//EN"
 "http://www.w3.org/Graphics/SVG/1.1/DTD/svg11.dtd">
<!-- Generated by graphviz version 2.40.1 (20161225.0304)
 -->
<!-- Title: tvm::relay::CallNode Pages: 1 -->
<svg width="1258pt" height="1753pt"
 viewBox="0.00 0.00 1257.50 1753.00" xmlns="http://www.w3.org/2000/svg" xmlns:xlink="http://www.w3.org/1999/xlink">
<g id="graph0" class="graph" transform="scale(1 1) rotate(0) translate(4 1749)">
<title>tvm::relay::CallNode</title>
<polygon fill="#ffffff" stroke="transparent" points="-4,4 -4,-1749 1253.5,-1749 1253.5,4 -4,4"/>
<!-- Node4 -->
<g id="node1" class="node">
<title>Node4</title>
<polygon fill="#bfbfbf" stroke="#000000" points="844,-.5 844,-112.5 1053,-112.5 1053,-.5 844,-.5"/>
<text text-anchor="middle" x="948.5" y="-100.5" font-family="Helvetica,sans-Serif" font-size="10.00" fill="#000000">tvm::relay::CallNode</text>
<polyline fill="none" stroke="#000000" points="844,-93.5 1053,-93.5 "/>
<text text-anchor="start" x="852" y="-81.5" font-family="Helvetica,sans-Serif" font-size="10.00" fill="#000000">+ _type_key</text>
<text text-anchor="start" x="852" y="-70.5" font-family="Helvetica,sans-Serif" font-size="10.00" fill="#000000"># saved_deleter_</text>
<polyline fill="none" stroke="#000000" points="844,-63.5 1053,-63.5 "/>
<text text-anchor="start" x="852" y="-51.5" font-family="Helvetica,sans-Serif" font-size="10.00" fill="#000000">+ VisitAttrs()</text>
<text text-anchor="start" x="852" y="-40.5" font-family="Helvetica,sans-Serif" font-size="10.00" fill="#000000">+ SEqualReduce()</text>
<text text-anchor="start" x="852" y="-29.5" font-family="Helvetica,sans-Serif" font-size="10.00" fill="#000000">+ SHashReduce()</text>
<text text-anchor="start" x="852" y="-18.5" font-family="Helvetica,sans-Serif" font-size="10.00" fill="#000000">+ TVM_DECLARE_FINAL_OBJECT_INFO()</text>
<text text-anchor="start" x="852" y="-7.5" font-family="Helvetica,sans-Serif" font-size="10.00" fill="#000000"># Deleter_()</text>
</g>
<!-- Node5 -->
<g id="node2" class="node">
<title>Node5</title>
<g id="a_node2"><a xlink:href="classtvm_1_1RelayExprNode.html" target="_top" xlink:title="Base node of all non&#45;primitive expressions. ">
<polygon fill="#ffffff" stroke="#000000" points="518,-160.5 518,-261.5 725,-261.5 725,-160.5 518,-160.5"/>
<text text-anchor="middle" x="621.5" y="-249.5" font-family="Helvetica,sans-Serif" font-size="10.00" fill="#000000">ExprNode</text>
<polyline fill="none" stroke="#000000" points="518,-242.5 725,-242.5 "/>
<text text-anchor="start" x="526" y="-230.5" font-family="Helvetica,sans-Serif" font-size="10.00" fill="#000000">+ _type_key</text>
<text text-anchor="start" x="526" y="-219.5" font-family="Helvetica,sans-Serif" font-size="10.00" fill="#000000">+ _type_child_slots</text>
<polyline fill="none" stroke="#000000" points="518,-212.5 725,-212.5 "/>
<text text-anchor="start" x="526" y="-200.5" font-family="Helvetica,sans-Serif" font-size="10.00" fill="#000000">+ checked_type()</text>
<text text-anchor="start" x="526" y="-189.5" font-family="Helvetica,sans-Serif" font-size="10.00" fill="#000000">+ type_as()</text>
<text text-anchor="start" x="526" y="-178.5" font-family="Helvetica,sans-Serif" font-size="10.00" fill="#000000">+ virtual_device()</text>
<text text-anchor="start" x="526" y="-167.5" font-family="Helvetica,sans-Serif" font-size="10.00" fill="#000000">+ TVM_DECLARE_BASE_OBJECT_INFO()</text>
</a>
</g>
</g>
<!-- Node5&#45;&gt;Node4 -->
<g id="edge1" class="edge">
<title>Node5&#45;&gt;Node4</title>
<path fill="none" stroke="#191970" d="M734.8046,-157.4662C770.1624,-140.7604 808.9884,-122.416 843.7334,-105.9998"/>
<polygon fill="none" stroke="#191970" points="732.9605,-154.4664 725.4141,-161.903 735.9509,-160.7955 732.9605,-154.4664"/>
</g>
<!-- Node6 -->
<g id="node3" class="node">
<title>Node6</title>
<g id="a_node3"><a xlink:href="classtvm_1_1BaseExprNode.html" target="_top" xlink:title="Base type of all the expressions. ">
<polygon fill="#ffffff" stroke="#000000" points="218,-510.5 218,-622.5 425,-622.5 425,-510.5 218,-510.5"/>
<text text-anchor="middle" x="321.5" y="-610.5" font-family="Helvetica,sans-Serif" font-size="10.00" fill="#000000">tvm::BaseExprNode</text>
<polyline fill="none" stroke="#000000" points="218,-603.5 425,-603.5 "/>
<text text-anchor="start" x="226" y="-591.5" font-family="Helvetica,sans-Serif" font-size="10.00" fill="#000000">+ _type_key</text>
<text text-anchor="start" x="226" y="-580.5" font-family="Helvetica,sans-Serif" font-size="10.00" fill="#000000">+ _type_has_method_sequal</text>
<text text-anchor="start" x="226" y="-569.5" font-family="Helvetica,sans-Serif" font-size="10.00" fill="#000000">_reduce</text>
<text text-anchor="start" x="226" y="-558.5" font-family="Helvetica,sans-Serif" font-size="10.00" fill="#000000">+ _type_has_method_shash</text>
<text text-anchor="start" x="226" y="-547.5" font-family="Helvetica,sans-Serif" font-size="10.00" fill="#000000">_reduce</text>
<text text-anchor="start" x="226" y="-536.5" font-family="Helvetica,sans-Serif" font-size="10.00" fill="#000000">+ _type_child_slots</text>
<polyline fill="none" stroke="#000000" points="218,-529.5 425,-529.5 "/>
<text text-anchor="start" x="226" y="-517.5" font-family="Helvetica,sans-Serif" font-size="10.00" fill="#000000">+ TVM_DECLARE_BASE_OBJECT_INFO()</text>
</a>
</g>
</g>
<!-- Node6&#45;&gt;Node5 -->
<g id="edge2" class="edge">
<title>Node6&#45;&gt;Node5</title>
<path fill="none" stroke="#191970" d="M333.0072,-500.2307C347.4149,-435.9781 378.0809,-339.7041 439.5,-280 461.065,-259.0372 489.6329,-244.3104 517.7282,-234.0173"/>
<polygon fill="none" stroke="#191970" points="329.5317,-499.7427 330.8322,-510.2574 336.3726,-501.2267 329.5317,-499.7427"/>
</g>
<!-- Node7 -->
<g id="node4" class="node">
<title>Node7</title>
<g id="a_node4"><a xlink:href="classtvm_1_1runtime_1_1Object.html" target="_top" xlink:title="base class of all object containers. ">
<polygon fill="#ffffff" stroke="#000000" points="0,-871.5 0,-1258.5 183,-1258.5 183,-871.5 0,-871.5"/>
<text text-anchor="middle" x="91.5" y="-1246.5" font-family="Helvetica,sans-Serif" font-size="10.00" fill="#000000">tvm::runtime::Object</text>
<polyline fill="none" stroke="#000000" points="0,-1239.5 183,-1239.5 "/>
<text text-anchor="start" x="8" y="-1227.5" font-family="Helvetica,sans-Serif" font-size="10.00" fill="#000000">+ _type_key</text>
<text text-anchor="start" x="8" y="-1216.5" font-family="Helvetica,sans-Serif" font-size="10.00" fill="#000000">+ _type_final</text>
<text text-anchor="start" x="8" y="-1205.5" font-family="Helvetica,sans-Serif" font-size="10.00" fill="#000000">+ _type_child_slots</text>
<text text-anchor="start" x="8" y="-1194.5" font-family="Helvetica,sans-Serif" font-size="10.00" fill="#000000">+ _type_child_slots_can</text>
<text text-anchor="start" x="8" y="-1183.5" font-family="Helvetica,sans-Serif" font-size="10.00" fill="#000000">_overflow</text>
<text text-anchor="start" x="8" y="-1172.5" font-family="Helvetica,sans-Serif" font-size="10.00" fill="#000000">+ _type_has_method_visit</text>
<text text-anchor="start" x="8" y="-1161.5" font-family="Helvetica,sans-Serif" font-size="10.00" fill="#000000">_attrs</text>
<text text-anchor="start" x="8" y="-1150.5" font-family="Helvetica,sans-Serif" font-size="10.00" fill="#000000">+ _type_has_method_sequal</text>
<text text-anchor="start" x="8" y="-1139.5" font-family="Helvetica,sans-Serif" font-size="10.00" fill="#000000">_reduce</text>
<text text-anchor="start" x="8" y="-1128.5" font-family="Helvetica,sans-Serif" font-size="10.00" fill="#000000">+ _type_has_method_shash</text>
<text text-anchor="start" x="8" y="-1117.5" font-family="Helvetica,sans-Serif" font-size="10.00" fill="#000000">_reduce</text>
<text text-anchor="start" x="8" y="-1106.5" font-family="Helvetica,sans-Serif" font-size="10.00" fill="#000000">+ _type_index</text>
<text text-anchor="start" x="8" y="-1095.5" font-family="Helvetica,sans-Serif" font-size="10.00" fill="#000000"># type_index_</text>
<text text-anchor="start" x="8" y="-1084.5" font-family="Helvetica,sans-Serif" font-size="10.00" fill="#000000"># ref_counter_</text>
<polyline fill="none" stroke="#000000" points="0,-1077.5 183,-1077.5 "/>
<text text-anchor="start" x="8" y="-1065.5" font-family="Helvetica,sans-Serif" font-size="10.00" fill="#000000">+ type_index()</text>
<text text-anchor="start" x="8" y="-1054.5" font-family="Helvetica,sans-Serif" font-size="10.00" fill="#000000">+ GetTypeKey()</text>
<text text-anchor="start" x="8" y="-1043.5" font-family="Helvetica,sans-Serif" font-size="10.00" fill="#000000">+ GetTypeKeyHash()</text>
<text text-anchor="start" x="8" y="-1032.5" font-family="Helvetica,sans-Serif" font-size="10.00" fill="#000000">+ IsInstance()</text>
<text text-anchor="start" x="8" y="-1021.5" font-family="Helvetica,sans-Serif" font-size="10.00" fill="#000000">+ unique()</text>
<text text-anchor="start" x="8" y="-1010.5" font-family="Helvetica,sans-Serif" font-size="10.00" fill="#000000">+ Object()</text>
<text text-anchor="start" x="8" y="-999.5" font-family="Helvetica,sans-Serif" font-size="10.00" fill="#000000">+ Object()</text>
<text text-anchor="start" x="8" y="-988.5" font-family="Helvetica,sans-Serif" font-size="10.00" fill="#000000">+ Object()</text>
<text text-anchor="start" x="8" y="-977.5" font-family="Helvetica,sans-Serif" font-size="10.00" fill="#000000">+ operator=()</text>
<text text-anchor="start" x="8" y="-966.5" font-family="Helvetica,sans-Serif" font-size="10.00" fill="#000000">+ operator=()</text>
<text text-anchor="start" x="8" y="-955.5" font-family="Helvetica,sans-Serif" font-size="10.00" fill="#000000">+ TypeIndex2Key()</text>
<text text-anchor="start" x="8" y="-944.5" font-family="Helvetica,sans-Serif" font-size="10.00" fill="#000000">+ TypeIndex2KeyHash()</text>
<text text-anchor="start" x="8" y="-933.5" font-family="Helvetica,sans-Serif" font-size="10.00" fill="#000000">+ TypeKey2Index()</text>
<text text-anchor="start" x="8" y="-922.5" font-family="Helvetica,sans-Serif" font-size="10.00" fill="#000000">+ _GetOrAllocRuntimeTypeIndex()</text>
<text text-anchor="start" x="8" y="-911.5" font-family="Helvetica,sans-Serif" font-size="10.00" fill="#000000">+ RuntimeTypeIndex()</text>
<text text-anchor="start" x="8" y="-900.5" font-family="Helvetica,sans-Serif" font-size="10.00" fill="#000000"># IncRef()</text>
<text text-anchor="start" x="8" y="-889.5" font-family="Helvetica,sans-Serif" font-size="10.00" fill="#000000"># DecRef()</text>
<text text-anchor="start" x="8" y="-878.5" font-family="Helvetica,sans-Serif" font-size="10.00" fill="#000000"># GetOrAllocRuntimeTypeIndex()</text>
</a>
</g>
</g>
<!-- Node7&#45;&gt;Node6 -->
<g id="edge3" class="edge">
<title>Node7&#45;&gt;Node6</title>
<path fill="none" stroke="#191970" d="M185.1518,-862.02C225.166,-775.2934 268.7541,-680.821 295.6097,-622.6144"/>
<polygon fill="none" stroke="#191970" points="181.9293,-860.65 180.9179,-871.1965 188.2854,-863.5827 181.9293,-860.65"/>
</g>
<!-- Node7&#45;&gt;Node7 -->
<g id="edge4" class="edge">
<title>Node7&#45;&gt;Node7</title>
<path fill="none" stroke="#404040" d="M183.3625,-1098.9248C194.0482,-1092.6637 201,-1081.3555 201,-1065 201,-1054.0112 197.8618,-1045.3007 192.5615,-1038.8687"/>
<polygon fill="none" stroke="#404040" points="192.5184,-1038.8322 185.3548,-1038.0056 183.3625,-1031.0752 190.5261,-1031.9017 192.5184,-1038.8322"/>
<text text-anchor="middle" x="227" y="-1062.5" font-family="Helvetica,sans-Serif" font-size="10.00" fill="#000000"> #deleter_</text>
</g>
<!-- Node8 -->
<g id="node5" class="node">
<title>Node8</title>
<g id="a_node5"><a xlink:href="classtvm_1_1Span.html" target="_top" xlink:title="{tvm::Span\n||+ Span()\l+ Merge()\l+ TVM_DEFINE_OBJECT_REF\l_METHODS()\l}">
<polygon fill="#ffffff" stroke="#000000" points="271.5,-1020 271.5,-1110 425.5,-1110 425.5,-1020 271.5,-1020"/>
<text text-anchor="middle" x="348.5" y="-1098" font-family="Helvetica,sans-Serif" font-size="10.00" fill="#000000">tvm::Span</text>
<polyline fill="none" stroke="#000000" points="271.5,-1091 425.5,-1091 "/>
<text text-anchor="middle" x="348.5" y="-1079" font-family="Helvetica,sans-Serif" font-size="10.00" fill="#000000"> </text>
<polyline fill="none" stroke="#000000" points="271.5,-1072 425.5,-1072 "/>
<text text-anchor="start" x="279.5" y="-1060" font-family="Helvetica,sans-Serif" font-size="10.00" fill="#000000">+ Span()</text>
<text text-anchor="start" x="279.5" y="-1049" font-family="Helvetica,sans-Serif" font-size="10.00" fill="#000000">+ Merge()</text>
<text text-anchor="start" x="279.5" y="-1038" font-family="Helvetica,sans-Serif" font-size="10.00" fill="#000000">+ TVM_DEFINE_OBJECT_REF</text>
<text text-anchor="start" x="279.5" y="-1027" font-family="Helvetica,sans-Serif" font-size="10.00" fill="#000000">_METHODS()</text>
</a>
</g>
</g>
<!-- Node8&#45;&gt;Node6 -->
<g id="edge5" class="edge">
<title>Node8&#45;&gt;Node6</title>
<path fill="none" stroke="#404040" d="M346.0563,-1019.8822C341.31,-932.2506 330.8193,-738.5611 325.2093,-634.9839"/>
<polygon fill="none" stroke="#404040" points="325.1991,-634.7949 320.8804,-629.02 324.55,-622.8124 328.8687,-628.5873 325.1991,-634.7949"/>
<text text-anchor="middle" x="355" y="-761" font-family="Helvetica,sans-Serif" font-size="10.00" fill="#000000"> +span</text>
</g>
<!-- Node9 -->
<g id="node6" class="node">
<title>Node9</title>
<g id="a_node6"><a xlink:href="classtvm_1_1runtime_1_1ObjectRef.html" target="_top" xlink:title="Base class of all object reference. ">
<polygon fill="#ffffff" stroke="#000000" points="724.5,-1296.5 724.5,-1518.5 858.5,-1518.5 858.5,-1296.5 724.5,-1296.5"/>
<text text-anchor="middle" x="791.5" y="-1506.5" font-family="Helvetica,sans-Serif" font-size="10.00" fill="#000000">tvm::runtime::ObjectRef</text>
<polyline fill="none" stroke="#000000" points="724.5,-1499.5 858.5,-1499.5 "/>
<text text-anchor="start" x="732.5" y="-1487.5" font-family="Helvetica,sans-Serif" font-size="10.00" fill="#000000">+ _type_is_nullable</text>
<polyline fill="none" stroke="#000000" points="724.5,-1480.5 858.5,-1480.5 "/>
<text text-anchor="start" x="732.5" y="-1468.5" font-family="Helvetica,sans-Serif" font-size="10.00" fill="#000000">+ ObjectRef()</text>
<text text-anchor="start" x="732.5" y="-1457.5" font-family="Helvetica,sans-Serif" font-size="10.00" fill="#000000">+ ObjectRef()</text>
<text text-anchor="start" x="732.5" y="-1446.5" font-family="Helvetica,sans-Serif" font-size="10.00" fill="#000000">+ same_as()</text>
<text text-anchor="start" x="732.5" y="-1435.5" font-family="Helvetica,sans-Serif" font-size="10.00" fill="#000000">+ operator==()</text>
<text text-anchor="start" x="732.5" y="-1424.5" font-family="Helvetica,sans-Serif" font-size="10.00" fill="#000000">+ operator!=()</text>
<text text-anchor="start" x="732.5" y="-1413.5" font-family="Helvetica,sans-Serif" font-size="10.00" fill="#000000">+ operator&lt;()</text>
<text text-anchor="start" x="732.5" y="-1402.5" font-family="Helvetica,sans-Serif" font-size="10.00" fill="#000000">+ defined()</text>
<text text-anchor="start" x="732.5" y="-1391.5" font-family="Helvetica,sans-Serif" font-size="10.00" fill="#000000">+ get()</text>
<text text-anchor="start" x="732.5" y="-1380.5" font-family="Helvetica,sans-Serif" font-size="10.00" fill="#000000">+ operator&#45;&gt;()</text>
<text text-anchor="start" x="732.5" y="-1369.5" font-family="Helvetica,sans-Serif" font-size="10.00" fill="#000000">+ unique()</text>
<text text-anchor="start" x="732.5" y="-1358.5" font-family="Helvetica,sans-Serif" font-size="10.00" fill="#000000">+ use_count()</text>
<text text-anchor="start" x="732.5" y="-1347.5" font-family="Helvetica,sans-Serif" font-size="10.00" fill="#000000">+ as()</text>
<text text-anchor="start" x="732.5" y="-1336.5" font-family="Helvetica,sans-Serif" font-size="10.00" fill="#000000"># get_mutable()</text>
<text text-anchor="start" x="732.5" y="-1325.5" font-family="Helvetica,sans-Serif" font-size="10.00" fill="#000000"># DowncastNoCheck()</text>
<text text-anchor="start" x="732.5" y="-1314.5" font-family="Helvetica,sans-Serif" font-size="10.00" fill="#000000"># FFIClearAfterMove()</text>
<text text-anchor="start" x="732.5" y="-1303.5" font-family="Helvetica,sans-Serif" font-size="10.00" fill="#000000"># GetDataPtr()</text>
</a>
</g>
</g>
<!-- Node9&#45;&gt;Node5 -->
<g id="edge8" class="edge">
<title>Node9&#45;&gt;Node5</title>
<path fill="none" stroke="#404040" d="M724.4347,-1348.361C697.7452,-1322.6398 668.0794,-1291.0778 645.5,-1259 530.167,-1095.15 494.1806,-1048.3259 449.5,-853 400.3326,-638.0594 520.3962,-386.3001 584.4467,-272.4428"/>
<polygon fill="none" stroke="#404040" points="584.532,-272.2927 584.02,-265.0998 590.4627,-261.8607 590.9747,-269.0536 584.532,-272.2927"/>
<text text-anchor="middle" x="492.5" y="-761" font-family="Helvetica,sans-Serif" font-size="10.00" fill="#000000"> +virtual_device_</text>
</g>
<!-- Node9&#45;&gt;Node8 -->
<g id="edge6" class="edge">
<title>Node9&#45;&gt;Node8</title>
<path fill="none" stroke="#191970" d="M714.1815,-1397.1984C635.8758,-1383.0134 515.7401,-1350.4312 439.5,-1278 391.6882,-1232.5769 367.7888,-1157.9368 356.7861,-1110.1557"/>
<polygon fill="none" stroke="#191970" points="714.0142,-1400.7223 724.4681,-1398.9998 715.2217,-1393.8273 714.0142,-1400.7223"/>
</g>
<!-- Node11 -->
<g id="node8" class="node">
<title>Node11</title>
<g id="a_node8"><a xlink:href="classtvm_1_1Type.html" target="_top" xlink:title="Managed reference to TypeNode. ">
<polygon fill="#ffffff" stroke="#000000" points="544.5,-729.5 544.5,-797.5 698.5,-797.5 698.5,-729.5 544.5,-729.5"/>
<text text-anchor="middle" x="621.5" y="-785.5" font-family="Helvetica,sans-Serif" font-size="10.00" fill="#000000">tvm::Type</text>
<polyline fill="none" stroke="#000000" points="544.5,-778.5 698.5,-778.5 "/>
<text text-anchor="middle" x="621.5" y="-766.5" font-family="Helvetica,sans-Serif" font-size="10.00" fill="#000000"> </text>
<polyline fill="none" stroke="#000000" points="544.5,-759.5 698.5,-759.5 "/>
<text text-anchor="start" x="552.5" y="-747.5" font-family="Helvetica,sans-Serif" font-size="10.00" fill="#000000">+ TVM_DEFINE_OBJECT_REF</text>
<text text-anchor="start" x="552.5" y="-736.5" font-family="Helvetica,sans-Serif" font-size="10.00" fill="#000000">_METHODS()</text>
</a>
</g>
</g>
<!-- Node9&#45;&gt;Node11 -->
<g id="edge10" class="edge">
<title>Node9&#45;&gt;Node11</title>
<path fill="none" stroke="#191970" d="M759.5998,-1286.6546C719.8623,-1136.1194 654.2966,-887.7413 630.4904,-797.5576"/>
<polygon fill="none" stroke="#191970" points="756.2427,-1287.6505 762.1792,-1296.4259 763.0109,-1285.8638 756.2427,-1287.6505"/>
</g>
<!-- Node12 -->
<g id="node9" class="node">
<title>Node12</title>
<g id="a_node9"><a xlink:href="classtvm_1_1runtime_1_1Optional.html" target="_top" xlink:title="{tvm::runtime::Optional\l\&lt; tvm::runtime::ObjectRef \&gt;\n|+ _type_is_nullable\l|+ Optional()\l+ Optional()\l+ Optional()\l+ Optional()\l+ Optional()\l+ Optional()\l+ Optional()\l+ Optional()\l+ operator=()\l+ operator=()\land 15 more...\l}">
<polygon fill="#ffffff" stroke="#000000" points="703.5,-674.5 703.5,-852.5 859.5,-852.5 859.5,-674.5 703.5,-674.5"/>
<text text-anchor="start" x="711.5" y="-840.5" font-family="Helvetica,sans-Serif" font-size="10.00" fill="#000000">tvm::runtime::Optional</text>
<text text-anchor="middle" x="781.5" y="-829.5" font-family="Helvetica,sans-Serif" font-size="10.00" fill="#000000">&lt; tvm::runtime::ObjectRef &gt;</text>
<polyline fill="none" stroke="#000000" points="703.5,-822.5 859.5,-822.5 "/>
<text text-anchor="start" x="711.5" y="-810.5" font-family="Helvetica,sans-Serif" font-size="10.00" fill="#000000">+ _type_is_nullable</text>
<polyline fill="none" stroke="#000000" points="703.5,-803.5 859.5,-803.5 "/>
<text text-anchor="start" x="711.5" y="-791.5" font-family="Helvetica,sans-Serif" font-size="10.00" fill="#000000">+ Optional()</text>
<text text-anchor="start" x="711.5" y="-780.5" font-family="Helvetica,sans-Serif" font-size="10.00" fill="#000000">+ Optional()</text>
<text text-anchor="start" x="711.5" y="-769.5" font-family="Helvetica,sans-Serif" font-size="10.00" fill="#000000">+ Optional()</text>
<text text-anchor="start" x="711.5" y="-758.5" font-family="Helvetica,sans-Serif" font-size="10.00" fill="#000000">+ Optional()</text>
<text text-anchor="start" x="711.5" y="-747.5" font-family="Helvetica,sans-Serif" font-size="10.00" fill="#000000">+ Optional()</text>
<text text-anchor="start" x="711.5" y="-736.5" font-family="Helvetica,sans-Serif" font-size="10.00" fill="#000000">+ Optional()</text>
<text text-anchor="start" x="711.5" y="-725.5" font-family="Helvetica,sans-Serif" font-size="10.00" fill="#000000">+ Optional()</text>
<text text-anchor="start" x="711.5" y="-714.5" font-family="Helvetica,sans-Serif" font-size="10.00" fill="#000000">+ Optional()</text>
<text text-anchor="start" x="711.5" y="-703.5" font-family="Helvetica,sans-Serif" font-size="10.00" fill="#000000">+ operator=()</text>
<text text-anchor="start" x="711.5" y="-692.5" font-family="Helvetica,sans-Serif" font-size="10.00" fill="#000000">+ operator=()</text>
<text text-anchor="start" x="711.5" y="-681.5" font-family="Helvetica,sans-Serif" font-size="10.00" fill="#000000">and 15 more...</text>
</a>
</g>
</g>
<!-- Node9&#45;&gt;Node12 -->
<g id="edge12" class="edge">
<title>Node9&#45;&gt;Node12</title>
<path fill="none" stroke="#191970" d="M780.0207,-1286.4102C779.4109,-1277.1412 778.8899,-1267.9241 778.5,-1259 772.2954,-1116.9777 775.3511,-951.8433 778.2972,-852.6128"/>
<polygon fill="none" stroke="#191970" points="776.5352,-1286.7415 780.7152,-1296.4769 783.5186,-1286.2597 776.5352,-1286.7415"/>
</g>
<!-- Node14 -->
<g id="node11" class="node">
<title>Node14</title>
<g id="a_node11"><a xlink:href="classtvm_1_1BaseExpr.html" target="_top" xlink:title="Managed reference to BaseExprNode. ">
<polygon fill="#ffffff" stroke="#000000" points="787.5,-1031 787.5,-1099 941.5,-1099 941.5,-1031 787.5,-1031"/>
<text text-anchor="middle" x="864.5" y="-1087" font-family="Helvetica,sans-Serif" font-size="10.00" fill="#000000">tvm::BaseExpr</text>
<polyline fill="none" stroke="#000000" points="787.5,-1080 941.5,-1080 "/>
<text text-anchor="middle" x="864.5" y="-1068" font-family="Helvetica,sans-Serif" font-size="10.00" fill="#000000"> </text>
<polyline fill="none" stroke="#000000" points="787.5,-1061 941.5,-1061 "/>
<text text-anchor="start" x="795.5" y="-1049" font-family="Helvetica,sans-Serif" font-size="10.00" fill="#000000">+ TVM_DEFINE_OBJECT_REF</text>
<text text-anchor="start" x="795.5" y="-1038" font-family="Helvetica,sans-Serif" font-size="10.00" fill="#000000">_METHODS()</text>
</a>
</g>
</g>
<!-- Node9&#45;&gt;Node14 -->
<g id="edge15" class="edge">
<title>Node9&#45;&gt;Node14</title>
<path fill="none" stroke="#191970" d="M817.3565,-1286.1872C831.4805,-1219.9204 847.9345,-1142.7215 857.1931,-1099.2823"/>
<polygon fill="none" stroke="#191970" points="813.8625,-1285.7901 815.201,-1296.3001 820.7088,-1287.2494 813.8625,-1285.7901"/>
</g>
<!-- Node15 -->
<g id="node12" class="node">
<title>Node15</title>
<g id="a_node12"><a xlink:href="classtvm_1_1runtime_1_1Array.html" target="_top" xlink:title="{tvm::runtime::Array\l\&lt; tvm::Type \&gt;\n||+ Array()\l+ Array()\l+ Array()\l+ Array()\l+ Array()\l+ Array()\l+ Array()\l+ Array()\l+ operator=()\l+ operator=()\land 25 more...\l}">
<polygon fill="#ffffff" stroke="#000000" points="903,-477.5 903,-655.5 1016,-655.5 1016,-477.5 903,-477.5"/>
<text text-anchor="start" x="911" y="-643.5" font-family="Helvetica,sans-Serif" font-size="10.00" fill="#000000">tvm::runtime::Array</text>
<text text-anchor="middle" x="959.5" y="-632.5" font-family="Helvetica,sans-Serif" font-size="10.00" fill="#000000">&lt; tvm::Type &gt;</text>
<polyline fill="none" stroke="#000000" points="903,-625.5 1016,-625.5 "/>
<text text-anchor="middle" x="959.5" y="-613.5" font-family="Helvetica,sans-Serif" font-size="10.00" fill="#000000"> </text>
<polyline fill="none" stroke="#000000" points="903,-606.5 1016,-606.5 "/>
<text text-anchor="start" x="911" y="-594.5" font-family="Helvetica,sans-Serif" font-size="10.00" fill="#000000">+ Array()</text>
<text text-anchor="start" x="911" y="-583.5" font-family="Helvetica,sans-Serif" font-size="10.00" fill="#000000">+ Array()</text>
<text text-anchor="start" x="911" y="-572.5" font-family="Helvetica,sans-Serif" font-size="10.00" fill="#000000">+ Array()</text>
<text text-anchor="start" x="911" y="-561.5" font-family="Helvetica,sans-Serif" font-size="10.00" fill="#000000">+ Array()</text>
<text text-anchor="start" x="911" y="-550.5" font-family="Helvetica,sans-Serif" font-size="10.00" fill="#000000">+ Array()</text>
<text text-anchor="start" x="911" y="-539.5" font-family="Helvetica,sans-Serif" font-size="10.00" fill="#000000">+ Array()</text>
<text text-anchor="start" x="911" y="-528.5" font-family="Helvetica,sans-Serif" font-size="10.00" fill="#000000">+ Array()</text>
<text text-anchor="start" x="911" y="-517.5" font-family="Helvetica,sans-Serif" font-size="10.00" fill="#000000">+ Array()</text>
<text text-anchor="start" x="911" y="-506.5" font-family="Helvetica,sans-Serif" font-size="10.00" fill="#000000">+ operator=()</text>
<text text-anchor="start" x="911" y="-495.5" font-family="Helvetica,sans-Serif" font-size="10.00" fill="#000000">+ operator=()</text>
<text text-anchor="start" x="911" y="-484.5" font-family="Helvetica,sans-Serif" font-size="10.00" fill="#000000">and 25 more...</text>
</a>
</g>
</g>
<!-- Node9&#45;&gt;Node15 -->
<g id="edge17" class="edge">
<title>Node9&#45;&gt;Node15</title>
<path fill="none" stroke="#191970" d="M866.89,-1358.2879C898.9288,-1332.868 932.9007,-1298.8086 950.5,-1259 1039.165,-1058.445 1006.0673,-792.1861 979.696,-655.6236"/>
<polygon fill="none" stroke="#191970" points="864.5554,-1355.6692 858.7973,-1364.5627 868.8447,-1361.2011 864.5554,-1355.6692"/>
</g>
<!-- Node16 -->
<g id="node13" class="node">
<title>Node16</title>
<g id="a_node13"><a xlink:href="classtvm_1_1runtime_1_1Array.html" target="_top" xlink:title="{tvm::runtime::Array\l\&lt; tvm::RelayExpr \&gt;\n||+ Array()\l+ Array()\l+ Array()\l+ Array()\l+ Array()\l+ Array()\l+ Array()\l+ Array()\l+ operator=()\l+ operator=()\land 25 more...\l}">
<polygon fill="#ffffff" stroke="#000000" points="988,-280.5 988,-458.5 1101,-458.5 1101,-280.5 988,-280.5"/>
<text text-anchor="start" x="996" y="-446.5" font-family="Helvetica,sans-Serif" font-size="10.00" fill="#000000">tvm::runtime::Array</text>
<text text-anchor="middle" x="1044.5" y="-435.5" font-family="Helvetica,sans-Serif" font-size="10.00" fill="#000000">&lt; tvm::RelayExpr &gt;</text>
<polyline fill="none" stroke="#000000" points="988,-428.5 1101,-428.5 "/>
<text text-anchor="middle" x="1044.5" y="-416.5" font-family="Helvetica,sans-Serif" font-size="10.00" fill="#000000"> </text>
<polyline fill="none" stroke="#000000" points="988,-409.5 1101,-409.5 "/>
<text text-anchor="start" x="996" y="-397.5" font-family="Helvetica,sans-Serif" font-size="10.00" fill="#000000">+ Array()</text>
<text text-anchor="start" x="996" y="-386.5" font-family="Helvetica,sans-Serif" font-size="10.00" fill="#000000">+ Array()</text>
<text text-anchor="start" x="996" y="-375.5" font-family="Helvetica,sans-Serif" font-size="10.00" fill="#000000">+ Array()</text>
<text text-anchor="start" x="996" y="-364.5" font-family="Helvetica,sans-Serif" font-size="10.00" fill="#000000">+ Array()</text>
<text text-anchor="start" x="996" y="-353.5" font-family="Helvetica,sans-Serif" font-size="10.00" fill="#000000">+ Array()</text>
<text text-anchor="start" x="996" y="-342.5" font-family="Helvetica,sans-Serif" font-size="10.00" fill="#000000">+ Array()</text>
<text text-anchor="start" x="996" y="-331.5" font-family="Helvetica,sans-Serif" font-size="10.00" fill="#000000">+ Array()</text>
<text text-anchor="start" x="996" y="-320.5" font-family="Helvetica,sans-Serif" font-size="10.00" fill="#000000">+ Array()</text>
<text text-anchor="start" x="996" y="-309.5" font-family="Helvetica,sans-Serif" font-size="10.00" fill="#000000">+ operator=()</text>
<text text-anchor="start" x="996" y="-298.5" font-family="Helvetica,sans-Serif" font-size="10.00" fill="#000000">+ operator=()</text>
<text text-anchor="start" x="996" y="-287.5" font-family="Helvetica,sans-Serif" font-size="10.00" fill="#000000">and 25 more...</text>
</a>
</g>
</g>
<!-- Node9&#45;&gt;Node16 -->
<g id="edge19" class="edge">
<title>Node9&#45;&gt;Node16</title>
<path fill="none" stroke="#191970" d="M867.427,-1372.5438C912.1112,-1347.6412 965.0864,-1309.607 992.5,-1259 1134.2413,-997.338 1092.3198,-626.6355 1062.7265,-458.533"/>
<polygon fill="none" stroke="#191970" points="865.7162,-1369.4901 858.6107,-1377.349 869.0663,-1375.6364 865.7162,-1369.4901"/>
</g>
<!-- Node17 -->
<g id="node14" class="node">
<title>Node17</title>
<g id="a_node14"><a xlink:href="classtvm_1_1Attrs.html" target="_top" xlink:title="Managed reference to BaseAttrsNode. ">
<polygon fill="#ffffff" stroke="#000000" points="1095.5,-177 1095.5,-245 1249.5,-245 1249.5,-177 1095.5,-177"/>
<text text-anchor="middle" x="1172.5" y="-233" font-family="Helvetica,sans-Serif" font-size="10.00" fill="#000000">tvm::Attrs</text>
<polyline fill="none" stroke="#000000" points="1095.5,-226 1249.5,-226 "/>
<text text-anchor="middle" x="1172.5" y="-214" font-family="Helvetica,sans-Serif" font-size="10.00" fill="#000000"> </text>
<polyline fill="none" stroke="#000000" points="1095.5,-207 1249.5,-207 "/>
<text text-anchor="start" x="1103.5" y="-195" font-family="Helvetica,sans-Serif" font-size="10.00" fill="#000000">+ TVM_DEFINE_OBJECT_REF</text>
<text text-anchor="start" x="1103.5" y="-184" font-family="Helvetica,sans-Serif" font-size="10.00" fill="#000000">_METHODS()</text>
</a>
</g>
</g>
<!-- Node9&#45;&gt;Node17 -->
<g id="edge21" class="edge">
<title>Node9&#45;&gt;Node17</title>
<path fill="none" stroke="#191970" d="M868.1258,-1385.4027C929.058,-1363.6023 1011.0462,-1323.9472 1054.5,-1259 1279.7649,-922.3128 1203.795,-384.7999 1179.0196,-245.0774"/>
<polygon fill="none" stroke="#191970" points="866.8247,-1382.1497 858.5365,-1388.7494 869.1313,-1388.7587 866.8247,-1382.1497"/>
</g>
<!-- Node10 -->
<g id="node7" class="node">
<title>Node10</title>
<g id="a_node7"><a xlink:href="classtvm_1_1runtime_1_1ObjectPtr.html" target="_top" xlink:title="{tvm::runtime::ObjectPtr\l\&lt; tvm::runtime::Object \&gt;\n||+ ObjectPtr()\l+ ObjectPtr()\l+ ObjectPtr()\l+ ObjectPtr()\l+ ObjectPtr()\l+ ObjectPtr()\l+ ~ObjectPtr()\l+ swap()\l+ get()\l+ operator&#45;\&gt;()\land 11 more...\l}">
<polygon fill="#ffffff" stroke="#000000" points="721.5,-1566.5 721.5,-1744.5 861.5,-1744.5 861.5,-1566.5 721.5,-1566.5"/>
<text text-anchor="start" x="729.5" y="-1732.5" font-family="Helvetica,sans-Serif" font-size="10.00" fill="#000000">tvm::runtime::ObjectPtr</text>
<text text-anchor="middle" x="791.5" y="-1721.5" font-family="Helvetica,sans-Serif" font-size="10.00" fill="#000000">&lt; tvm::runtime::Object &gt;</text>
<polyline fill="none" stroke="#000000" points="721.5,-1714.5 861.5,-1714.5 "/>
<text text-anchor="middle" x="791.5" y="-1702.5" font-family="Helvetica,sans-Serif" font-size="10.00" fill="#000000"> </text>
<polyline fill="none" stroke="#000000" points="721.5,-1695.5 861.5,-1695.5 "/>
<text text-anchor="start" x="729.5" y="-1683.5" font-family="Helvetica,sans-Serif" font-size="10.00" fill="#000000">+ ObjectPtr()</text>
<text text-anchor="start" x="729.5" y="-1672.5" font-family="Helvetica,sans-Serif" font-size="10.00" fill="#000000">+ ObjectPtr()</text>
<text text-anchor="start" x="729.5" y="-1661.5" font-family="Helvetica,sans-Serif" font-size="10.00" fill="#000000">+ ObjectPtr()</text>
<text text-anchor="start" x="729.5" y="-1650.5" font-family="Helvetica,sans-Serif" font-size="10.00" fill="#000000">+ ObjectPtr()</text>
<text text-anchor="start" x="729.5" y="-1639.5" font-family="Helvetica,sans-Serif" font-size="10.00" fill="#000000">+ ObjectPtr()</text>
<text text-anchor="start" x="729.5" y="-1628.5" font-family="Helvetica,sans-Serif" font-size="10.00" fill="#000000">+ ObjectPtr()</text>
<text text-anchor="start" x="729.5" y="-1617.5" font-family="Helvetica,sans-Serif" font-size="10.00" fill="#000000">+ ~ObjectPtr()</text>
<text text-anchor="start" x="729.5" y="-1606.5" font-family="Helvetica,sans-Serif" font-size="10.00" fill="#000000">+ swap()</text>
<text text-anchor="start" x="729.5" y="-1595.5" font-family="Helvetica,sans-Serif" font-size="10.00" fill="#000000">+ get()</text>
<text text-anchor="start" x="729.5" y="-1584.5" font-family="Helvetica,sans-Serif" font-size="10.00" fill="#000000">+ operator&#45;&gt;()</text>
<text text-anchor="start" x="729.5" y="-1573.5" font-family="Helvetica,sans-Serif" font-size="10.00" fill="#000000">and 11 more...</text>
</a>
</g>
</g>
<!-- Node10&#45;&gt;Node9 -->
<g id="edge7" class="edge">
<title>Node10&#45;&gt;Node9</title>
<path fill="none" stroke="#404040" d="M791.5,-1566.3167C791.5,-1554.8765 791.5,-1543.0062 791.5,-1531.1402"/>
<polygon fill="none" stroke="#404040" points="791.5001,-1530.7944 787.5,-1524.7944 791.5,-1518.7944 795.5,-1524.7943 791.5001,-1530.7944"/>
<text text-anchor="middle" x="811" y="-1540" font-family="Helvetica,sans-Serif" font-size="10.00" fill="#000000"> #data_</text>
</g>
<!-- Node11&#45;&gt;Node5 -->
<g id="edge9" class="edge">
<title>Node11&#45;&gt;Node5</title>
<path fill="none" stroke="#404040" d="M621.5,-729.3556C621.5,-638.7837 621.5,-391.3598 621.5,-274.1629"/>
<polygon fill="none" stroke="#404040" points="621.5001,-273.8845 617.5,-267.8846 621.5,-261.8845 625.5,-267.8845 621.5001,-273.8845"/>
<text text-anchor="middle" x="664" y="-564" font-family="Helvetica,sans-Serif" font-size="10.00" fill="#000000"> +checked_type_</text>
</g>
<!-- Node12&#45;&gt;Node5 -->
<g id="edge11" class="edge">
<title>Node12&#45;&gt;Node5</title>
<path fill="none" stroke="#404040" d="M761.3297,-674.2835C748.0148,-617.5002 729.5607,-542.5686 710.5,-477 689.9841,-406.4253 662.7246,-326.6112 643.8037,-272.9818"/>
<polygon fill="none" stroke="#404040" points="643.7839,-272.9256 638.0109,-268.6044 639.7794,-261.6135 645.5523,-265.9347 643.7839,-272.9256"/>
<text text-anchor="middle" x="790" y="-564" font-family="Helvetica,sans-Serif" font-size="10.00" fill="#000000"> +struct_info_</text>
</g>
<!-- Node13 -->
<g id="node10" class="node">
<title>Node13</title>
<g id="a_node10"><a xlink:href="classtvm_1_1RelayExpr.html" target="_top" xlink:title="Managed reference to RelayExprNode. ">
<polygon fill="#ffffff" stroke="#000000" points="779.5,-335.5 779.5,-403.5 933.5,-403.5 933.5,-335.5 779.5,-335.5"/>
<text text-anchor="middle" x="856.5" y="-391.5" font-family="Helvetica,sans-Serif" font-size="10.00" fill="#000000">tvm::RelayExpr</text>
<polyline fill="none" stroke="#000000" points="779.5,-384.5 933.5,-384.5 "/>
<text text-anchor="middle" x="856.5" y="-372.5" font-family="Helvetica,sans-Serif" font-size="10.00" fill="#000000"> </text>
<polyline fill="none" stroke="#000000" points="779.5,-365.5 933.5,-365.5 "/>
<text text-anchor="start" x="787.5" y="-353.5" font-family="Helvetica,sans-Serif" font-size="10.00" fill="#000000">+ TVM_DEFINE_OBJECT_REF</text>
<text text-anchor="start" x="787.5" y="-342.5" font-family="Helvetica,sans-Serif" font-size="10.00" fill="#000000">_METHODS()</text>
</a>
</g>
</g>
<!-- Node13&#45;&gt;Node4 -->
<g id="edge13" class="edge">
<title>Node13&#45;&gt;Node4</title>
<path fill="none" stroke="#404040" d="M861.8393,-335.1898C868.8682,-293.2237 882.6978,-220.3237 902.5,-160 906.404,-148.1073 911.2106,-135.7296 916.2297,-123.8434"/>
<polygon fill="none" stroke="#404040" points="916.3168,-123.6421 915.0298,-116.5468 921.0843,-112.6298 922.3713,-119.7251 916.3168,-123.6421"/>
<text text-anchor="middle" x="914.5" y="-208.5" font-family="Helvetica,sans-Serif" font-size="10.00" fill="#000000"> +op</text>
</g>
<!-- Node14&#45;&gt;Node13 -->
<g id="edge14" class="edge">
<title>Node14&#45;&gt;Node13</title>
<path fill="none" stroke="#191970" d="M864.0878,-1020.6045C863.405,-948.0819 861.9683,-799.6777 860.5,-674 859.3543,-575.9344 857.7687,-460.1069 856.9823,-403.7486"/>
<polygon fill="none" stroke="#191970" points="860.5891,-1020.7755 864.183,-1030.7422 867.5888,-1020.7097 860.5891,-1020.7755"/>
</g>
<!-- Node15&#45;&gt;Node4 -->
<g id="edge16" class="edge">
<title>Node15&#45;&gt;Node4</title>
<path fill="none" stroke="#404040" d="M955.4273,-477.2525C952.8667,-416.5715 949.8084,-334.4599 948.5,-262 947.674,-216.2572 947.6756,-164.7776 947.8828,-124.7862"/>
<polygon fill="none" stroke="#404040" points="947.8828,-124.7627 943.918,-118.7394 947.953,-112.7629 951.9179,-118.7862 947.8828,-124.7627"/>
<text text-anchor="middle" x="978.5" y="-208.5" font-family="Helvetica,sans-Serif" font-size="10.00" fill="#000000"> +type_args</text>
</g>
<!-- Node16&#45;&gt;Node4 -->
<g id="edge18" class="edge">
<title>Node16&#45;&gt;Node4</title>
<path fill="none" stroke="#404040" d="M1038.849,-280.377C1034.4259,-242.4032 1026.5438,-198.1541 1012.5,-160 1007.9464,-147.6288 1001.8103,-135.1393 995.1337,-123.3243"/>
<polygon fill="none" stroke="#404040" points="994.9614,-123.031 988.4724,-119.8856 988.8801,-112.686 995.369,-115.8314 994.9614,-123.031"/>
<text text-anchor="middle" x="1052" y="-208.5" font-family="Helvetica,sans-Serif" font-size="10.00" fill="#000000"> +args</text>
</g>
<!-- Node17&#45;&gt;Node4 -->
<g id="edge20" class="edge">
<title>Node17&#45;&gt;Node4</title>
<path fill="none" stroke="#404040" d="M1124.3648,-176.9567C1104.0856,-162.6831 1080.1978,-145.9594 1058.5,-131 1053.0999,-127.277 1047.5422,-123.4617 1041.9285,-119.6208"/>
<polygon fill="none" stroke="#404040" points="1041.6949,-119.4613 1034.4843,-119.3806 1031.7854,-112.6936 1038.9961,-112.7743 1041.6949,-119.4613"/>
<text text-anchor="middle" x="1090.5" y="-134" font-family="Helvetica,sans-Serif" font-size="10.00" fill="#000000"> +attrs</text>
</g>
</g>
</svg>
