<?xml version="1.0" encoding="UTF-8" standalone="no"?>
<!DOCTYPE svg PUBLIC "-//W3C//DTD SVG 1.1//EN"
 "http://www.w3.org/Graphics/SVG/1.1/DTD/svg11.dtd">
<!-- Generated by graphviz version 2.40.1 (20161225.0304)
 -->
<!-- Title: tvm::BaseFuncNode Pages: 1 -->
<svg width="751pt" height="1633pt"
 viewBox="0.00 0.00 751.00 1633.00" xmlns="http://www.w3.org/2000/svg" xmlns:xlink="http://www.w3.org/1999/xlink">
<g id="graph0" class="graph" transform="scale(1 1) rotate(0) translate(4 1629)">
<title>tvm::BaseFuncNode</title>
<polygon fill="#ffffff" stroke="transparent" points="-4,4 -4,-1629 747,-1629 747,4 -4,4"/>
<!-- Node8 -->
<g id="node1" class="node">
<title>Node8</title>
<polygon fill="#bfbfbf" stroke="#000000" points="452.5,-.5 452.5,-112.5 659.5,-112.5 659.5,-.5 452.5,-.5"/>
<text text-anchor="middle" x="556" y="-100.5" font-family="Helvetica,sans-Serif" font-size="10.00" fill="#000000">tvm::BaseFuncNode</text>
<polyline fill="none" stroke="#000000" points="452.5,-93.5 659.5,-93.5 "/>
<text text-anchor="start" x="460.5" y="-81.5" font-family="Helvetica,sans-Serif" font-size="10.00" fill="#000000">+ _type_key</text>
<text text-anchor="start" x="460.5" y="-70.5" font-family="Helvetica,sans-Serif" font-size="10.00" fill="#000000">+ _type_child_slots</text>
<polyline fill="none" stroke="#000000" points="452.5,-63.5 659.5,-63.5 "/>
<text text-anchor="start" x="460.5" y="-51.5" font-family="Helvetica,sans-Serif" font-size="10.00" fill="#000000">+ GetAttr()</text>
<text text-anchor="start" x="460.5" y="-40.5" font-family="Helvetica,sans-Serif" font-size="10.00" fill="#000000">+ GetAttr()</text>
<text text-anchor="start" x="460.5" y="-29.5" font-family="Helvetica,sans-Serif" font-size="10.00" fill="#000000">+ HasNonzeroAttr()</text>
<text text-anchor="start" x="460.5" y="-18.5" font-family="Helvetica,sans-Serif" font-size="10.00" fill="#000000">+ GetLinkageType()</text>
<text text-anchor="start" x="460.5" y="-7.5" font-family="Helvetica,sans-Serif" font-size="10.00" fill="#000000">+ TVM_DECLARE_BASE_OBJECT_INFO()</text>
</g>
<!-- Node9 -->
<g id="node2" class="node">
<title>Node9</title>
<g id="a_node2"><a xlink:href="classtvm_1_1RelayExprNode.html" target="_top" xlink:title="Base node of all non&#45;primitive expressions. ">
<polygon fill="#ffffff" stroke="#000000" points="358.5,-150.5 358.5,-251.5 565.5,-251.5 565.5,-150.5 358.5,-150.5"/>
<text text-anchor="middle" x="462" y="-239.5" font-family="Helvetica,sans-Serif" font-size="10.00" fill="#000000">tvm::RelayExprNode</text>
<polyline fill="none" stroke="#000000" points="358.5,-232.5 565.5,-232.5 "/>
<text text-anchor="start" x="366.5" y="-220.5" font-family="Helvetica,sans-Serif" font-size="10.00" fill="#000000">+ _type_key</text>
<text text-anchor="start" x="366.5" y="-209.5" font-family="Helvetica,sans-Serif" font-size="10.00" fill="#000000">+ _type_child_slots</text>
<polyline fill="none" stroke="#000000" points="358.5,-202.5 565.5,-202.5 "/>
<text text-anchor="start" x="366.5" y="-190.5" font-family="Helvetica,sans-Serif" font-size="10.00" fill="#000000">+ checked_type()</text>
<text text-anchor="start" x="366.5" y="-179.5" font-family="Helvetica,sans-Serif" font-size="10.00" fill="#000000">+ type_as()</text>
<text text-anchor="start" x="366.5" y="-168.5" font-family="Helvetica,sans-Serif" font-size="10.00" fill="#000000">+ virtual_device()</text>
<text text-anchor="start" x="366.5" y="-157.5" font-family="Helvetica,sans-Serif" font-size="10.00" fill="#000000">+ TVM_DECLARE_BASE_OBJECT_INFO()</text>
</a>
</g>
</g>
<!-- Node9&#45;&gt;Node8 -->
<g id="edge1" class="edge">
<title>Node9&#45;&gt;Node8</title>
<path fill="none" stroke="#191970" d="M500.3537,-142.0414C506.6629,-132.3426 513.1874,-122.3129 519.4511,-112.6842"/>
<polygon fill="none" stroke="#191970" points="497.3958,-140.1699 494.8766,-150.4609 503.2635,-143.987 497.3958,-140.1699"/>
</g>
<!-- Node10 -->
<g id="node3" class="node">
<title>Node10</title>
<g id="a_node3"><a xlink:href="classtvm_1_1BaseExprNode.html" target="_top" xlink:title="Base type of all the expressions. ">
<polygon fill="#ffffff" stroke="#000000" points="97.5,-423.5 97.5,-535.5 304.5,-535.5 304.5,-423.5 97.5,-423.5"/>
<text text-anchor="middle" x="201" y="-523.5" font-family="Helvetica,sans-Serif" font-size="10.00" fill="#000000">tvm::BaseExprNode</text>
<polyline fill="none" stroke="#000000" points="97.5,-516.5 304.5,-516.5 "/>
<text text-anchor="start" x="105.5" y="-504.5" font-family="Helvetica,sans-Serif" font-size="10.00" fill="#000000">+ _type_key</text>
<text text-anchor="start" x="105.5" y="-493.5" font-family="Helvetica,sans-Serif" font-size="10.00" fill="#000000">+ _type_has_method_sequal</text>
<text text-anchor="start" x="105.5" y="-482.5" font-family="Helvetica,sans-Serif" font-size="10.00" fill="#000000">_reduce</text>
<text text-anchor="start" x="105.5" y="-471.5" font-family="Helvetica,sans-Serif" font-size="10.00" fill="#000000">+ _type_has_method_shash</text>
<text text-anchor="start" x="105.5" y="-460.5" font-family="Helvetica,sans-Serif" font-size="10.00" fill="#000000">_reduce</text>
<text text-anchor="start" x="105.5" y="-449.5" font-family="Helvetica,sans-Serif" font-size="10.00" fill="#000000">+ _type_child_slots</text>
<polyline fill="none" stroke="#000000" points="97.5,-442.5 304.5,-442.5 "/>
<text text-anchor="start" x="105.5" y="-430.5" font-family="Helvetica,sans-Serif" font-size="10.00" fill="#000000">+ TVM_DECLARE_BASE_OBJECT_INFO()</text>
</a>
</g>
</g>
<!-- Node10&#45;&gt;Node9 -->
<g id="edge2" class="edge">
<title>Node10&#45;&gt;Node9</title>
<path fill="none" stroke="#191970" d="M228.4716,-414.2793C250.0145,-369.2833 283.602,-310.5033 327,-270 336.4289,-261.2 347.1943,-253.2408 358.439,-246.123"/>
<polygon fill="none" stroke="#191970" points="225.2836,-412.8339 224.1913,-423.3723 231.617,-415.8152 225.2836,-412.8339"/>
</g>
<!-- Node11 -->
<g id="node4" class="node">
<title>Node11</title>
<g id="a_node4"><a xlink:href="classtvm_1_1runtime_1_1Object.html" target="_top" xlink:title="base class of all object containers. ">
<polygon fill="#ffffff" stroke="#000000" points="172.5,-751.5 172.5,-1138.5 355.5,-1138.5 355.5,-751.5 172.5,-751.5"/>
<text text-anchor="middle" x="264" y="-1126.5" font-family="Helvetica,sans-Serif" font-size="10.00" fill="#000000">tvm::runtime::Object</text>
<polyline fill="none" stroke="#000000" points="172.5,-1119.5 355.5,-1119.5 "/>
<text text-anchor="start" x="180.5" y="-1107.5" font-family="Helvetica,sans-Serif" font-size="10.00" fill="#000000">+ _type_key</text>
<text text-anchor="start" x="180.5" y="-1096.5" font-family="Helvetica,sans-Serif" font-size="10.00" fill="#000000">+ _type_final</text>
<text text-anchor="start" x="180.5" y="-1085.5" font-family="Helvetica,sans-Serif" font-size="10.00" fill="#000000">+ _type_child_slots</text>
<text text-anchor="start" x="180.5" y="-1074.5" font-family="Helvetica,sans-Serif" font-size="10.00" fill="#000000">+ _type_child_slots_can</text>
<text text-anchor="start" x="180.5" y="-1063.5" font-family="Helvetica,sans-Serif" font-size="10.00" fill="#000000">_overflow</text>
<text text-anchor="start" x="180.5" y="-1052.5" font-family="Helvetica,sans-Serif" font-size="10.00" fill="#000000">+ _type_has_method_visit</text>
<text text-anchor="start" x="180.5" y="-1041.5" font-family="Helvetica,sans-Serif" font-size="10.00" fill="#000000">_attrs</text>
<text text-anchor="start" x="180.5" y="-1030.5" font-family="Helvetica,sans-Serif" font-size="10.00" fill="#000000">+ _type_has_method_sequal</text>
<text text-anchor="start" x="180.5" y="-1019.5" font-family="Helvetica,sans-Serif" font-size="10.00" fill="#000000">_reduce</text>
<text text-anchor="start" x="180.5" y="-1008.5" font-family="Helvetica,sans-Serif" font-size="10.00" fill="#000000">+ _type_has_method_shash</text>
<text text-anchor="start" x="180.5" y="-997.5" font-family="Helvetica,sans-Serif" font-size="10.00" fill="#000000">_reduce</text>
<text text-anchor="start" x="180.5" y="-986.5" font-family="Helvetica,sans-Serif" font-size="10.00" fill="#000000">+ _type_index</text>
<text text-anchor="start" x="180.5" y="-975.5" font-family="Helvetica,sans-Serif" font-size="10.00" fill="#000000"># type_index_</text>
<text text-anchor="start" x="180.5" y="-964.5" font-family="Helvetica,sans-Serif" font-size="10.00" fill="#000000"># ref_counter_</text>
<polyline fill="none" stroke="#000000" points="172.5,-957.5 355.5,-957.5 "/>
<text text-anchor="start" x="180.5" y="-945.5" font-family="Helvetica,sans-Serif" font-size="10.00" fill="#000000">+ type_index()</text>
<text text-anchor="start" x="180.5" y="-934.5" font-family="Helvetica,sans-Serif" font-size="10.00" fill="#000000">+ GetTypeKey()</text>
<text text-anchor="start" x="180.5" y="-923.5" font-family="Helvetica,sans-Serif" font-size="10.00" fill="#000000">+ GetTypeKeyHash()</text>
<text text-anchor="start" x="180.5" y="-912.5" font-family="Helvetica,sans-Serif" font-size="10.00" fill="#000000">+ IsInstance()</text>
<text text-anchor="start" x="180.5" y="-901.5" font-family="Helvetica,sans-Serif" font-size="10.00" fill="#000000">+ unique()</text>
<text text-anchor="start" x="180.5" y="-890.5" font-family="Helvetica,sans-Serif" font-size="10.00" fill="#000000">+ Object()</text>
<text text-anchor="start" x="180.5" y="-879.5" font-family="Helvetica,sans-Serif" font-size="10.00" fill="#000000">+ Object()</text>
<text text-anchor="start" x="180.5" y="-868.5" font-family="Helvetica,sans-Serif" font-size="10.00" fill="#000000">+ Object()</text>
<text text-anchor="start" x="180.5" y="-857.5" font-family="Helvetica,sans-Serif" font-size="10.00" fill="#000000">+ operator=()</text>
<text text-anchor="start" x="180.5" y="-846.5" font-family="Helvetica,sans-Serif" font-size="10.00" fill="#000000">+ operator=()</text>
<text text-anchor="start" x="180.5" y="-835.5" font-family="Helvetica,sans-Serif" font-size="10.00" fill="#000000">+ TypeIndex2Key()</text>
<text text-anchor="start" x="180.5" y="-824.5" font-family="Helvetica,sans-Serif" font-size="10.00" fill="#000000">+ TypeIndex2KeyHash()</text>
<text text-anchor="start" x="180.5" y="-813.5" font-family="Helvetica,sans-Serif" font-size="10.00" fill="#000000">+ TypeKey2Index()</text>
<text text-anchor="start" x="180.5" y="-802.5" font-family="Helvetica,sans-Serif" font-size="10.00" fill="#000000">+ _GetOrAllocRuntimeTypeIndex()</text>
<text text-anchor="start" x="180.5" y="-791.5" font-family="Helvetica,sans-Serif" font-size="10.00" fill="#000000">+ RuntimeTypeIndex()</text>
<text text-anchor="start" x="180.5" y="-780.5" font-family="Helvetica,sans-Serif" font-size="10.00" fill="#000000"># IncRef()</text>
<text text-anchor="start" x="180.5" y="-769.5" font-family="Helvetica,sans-Serif" font-size="10.00" fill="#000000"># DecRef()</text>
<text text-anchor="start" x="180.5" y="-758.5" font-family="Helvetica,sans-Serif" font-size="10.00" fill="#000000"># GetOrAllocRuntimeTypeIndex()</text>
</a>
</g>
</g>
<!-- Node11&#45;&gt;Node10 -->
<g id="edge3" class="edge">
<title>Node11&#45;&gt;Node10</title>
<path fill="none" stroke="#191970" d="M220.2038,-741.2795C219.7883,-738.5043 219.3867,-735.7434 219,-733 209.4861,-665.4999 204.8997,-587.1419 202.7583,-535.6175"/>
<polygon fill="none" stroke="#191970" points="216.7792,-742.0368 221.7662,-751.3845 223.697,-740.967 216.7792,-742.0368"/>
</g>
<!-- Node11&#45;&gt;Node11 -->
<g id="edge4" class="edge">
<title>Node11&#45;&gt;Node11</title>
<path fill="none" stroke="#404040" d="M355.8625,-978.9248C366.5482,-972.6637 373.5,-961.3555 373.5,-945 373.5,-934.0112 370.3618,-925.3007 365.0615,-918.8687"/>
<polygon fill="none" stroke="#404040" points="365.0184,-918.8322 357.8548,-918.0056 355.8625,-911.0752 363.0261,-911.9017 365.0184,-918.8322"/>
<text text-anchor="middle" x="399.5" y="-942.5" font-family="Helvetica,sans-Serif" font-size="10.00" fill="#000000"> #deleter_</text>
</g>
<!-- Node12 -->
<g id="node5" class="node">
<title>Node12</title>
<g id="a_node5"><a xlink:href="classtvm_1_1Span.html" target="_top" xlink:title="{tvm::Span\n||+ Span()\l+ Merge()\l+ TVM_DEFINE_OBJECT_REF\l_METHODS()\l}">
<polygon fill="#ffffff" stroke="#000000" points="0,-900 0,-990 154,-990 154,-900 0,-900"/>
<text text-anchor="middle" x="77" y="-978" font-family="Helvetica,sans-Serif" font-size="10.00" fill="#000000">tvm::Span</text>
<polyline fill="none" stroke="#000000" points="0,-971 154,-971 "/>
<text text-anchor="middle" x="77" y="-959" font-family="Helvetica,sans-Serif" font-size="10.00" fill="#000000"> </text>
<polyline fill="none" stroke="#000000" points="0,-952 154,-952 "/>
<text text-anchor="start" x="8" y="-940" font-family="Helvetica,sans-Serif" font-size="10.00" fill="#000000">+ Span()</text>
<text text-anchor="start" x="8" y="-929" font-family="Helvetica,sans-Serif" font-size="10.00" fill="#000000">+ Merge()</text>
<text text-anchor="start" x="8" y="-918" font-family="Helvetica,sans-Serif" font-size="10.00" fill="#000000">+ TVM_DEFINE_OBJECT_REF</text>
<text text-anchor="start" x="8" y="-907" font-family="Helvetica,sans-Serif" font-size="10.00" fill="#000000">_METHODS()</text>
</a>
</g>
</g>
<!-- Node12&#45;&gt;Node10 -->
<g id="edge5" class="edge">
<title>Node12&#45;&gt;Node10</title>
<path fill="none" stroke="#404040" d="M83.7176,-899.8004C95.4451,-826.0125 122.5308,-675.6995 165,-554 165.7809,-551.7621 166.6108,-549.5033 167.4799,-547.2354"/>
<polygon fill="none" stroke="#404040" points="167.5803,-546.989 166.1407,-539.923 172.1094,-535.8764 173.549,-542.9424 167.5803,-546.989"/>
<text text-anchor="middle" x="182.5" y="-641" font-family="Helvetica,sans-Serif" font-size="10.00" fill="#000000"> +span</text>
</g>
<!-- Node13 -->
<g id="node6" class="node">
<title>Node13</title>
<g id="a_node6"><a xlink:href="classtvm_1_1runtime_1_1ObjectRef.html" target="_top" xlink:title="Base class of all object reference. ">
<polygon fill="#ffffff" stroke="#000000" points="425,-1176.5 425,-1398.5 559,-1398.5 559,-1176.5 425,-1176.5"/>
<text text-anchor="middle" x="492" y="-1386.5" font-family="Helvetica,sans-Serif" font-size="10.00" fill="#000000">tvm::runtime::ObjectRef</text>
<polyline fill="none" stroke="#000000" points="425,-1379.5 559,-1379.5 "/>
<text text-anchor="start" x="433" y="-1367.5" font-family="Helvetica,sans-Serif" font-size="10.00" fill="#000000">+ _type_is_nullable</text>
<polyline fill="none" stroke="#000000" points="425,-1360.5 559,-1360.5 "/>
<text text-anchor="start" x="433" y="-1348.5" font-family="Helvetica,sans-Serif" font-size="10.00" fill="#000000">+ ObjectRef()</text>
<text text-anchor="start" x="433" y="-1337.5" font-family="Helvetica,sans-Serif" font-size="10.00" fill="#000000">+ ObjectRef()</text>
<text text-anchor="start" x="433" y="-1326.5" font-family="Helvetica,sans-Serif" font-size="10.00" fill="#000000">+ same_as()</text>
<text text-anchor="start" x="433" y="-1315.5" font-family="Helvetica,sans-Serif" font-size="10.00" fill="#000000">+ operator==()</text>
<text text-anchor="start" x="433" y="-1304.5" font-family="Helvetica,sans-Serif" font-size="10.00" fill="#000000">+ operator!=()</text>
<text text-anchor="start" x="433" y="-1293.5" font-family="Helvetica,sans-Serif" font-size="10.00" fill="#000000">+ operator&lt;()</text>
<text text-anchor="start" x="433" y="-1282.5" font-family="Helvetica,sans-Serif" font-size="10.00" fill="#000000">+ defined()</text>
<text text-anchor="start" x="433" y="-1271.5" font-family="Helvetica,sans-Serif" font-size="10.00" fill="#000000">+ get()</text>
<text text-anchor="start" x="433" y="-1260.5" font-family="Helvetica,sans-Serif" font-size="10.00" fill="#000000">+ operator&#45;&gt;()</text>
<text text-anchor="start" x="433" y="-1249.5" font-family="Helvetica,sans-Serif" font-size="10.00" fill="#000000">+ unique()</text>
<text text-anchor="start" x="433" y="-1238.5" font-family="Helvetica,sans-Serif" font-size="10.00" fill="#000000">+ use_count()</text>
<text text-anchor="start" x="433" y="-1227.5" font-family="Helvetica,sans-Serif" font-size="10.00" fill="#000000">+ as()</text>
<text text-anchor="start" x="433" y="-1216.5" font-family="Helvetica,sans-Serif" font-size="10.00" fill="#000000"># get_mutable()</text>
<text text-anchor="start" x="433" y="-1205.5" font-family="Helvetica,sans-Serif" font-size="10.00" fill="#000000"># DowncastNoCheck()</text>
<text text-anchor="start" x="433" y="-1194.5" font-family="Helvetica,sans-Serif" font-size="10.00" fill="#000000"># FFIClearAfterMove()</text>
<text text-anchor="start" x="433" y="-1183.5" font-family="Helvetica,sans-Serif" font-size="10.00" fill="#000000"># GetDataPtr()</text>
</a>
</g>
</g>
<!-- Node13&#45;&gt;Node9 -->
<g id="edge8" class="edge">
<title>Node13&#45;&gt;Node9</title>
<path fill="none" stroke="#404040" d="M513.1304,-1176.2974C541.0578,-1010.7298 581.4919,-690.2267 534,-423 524.14,-367.52 503.7442,-306.8021 487.1696,-262.9107"/>
<polygon fill="none" stroke="#404040" points="487.1161,-262.7706 481.2361,-258.5961 482.828,-251.5629 488.7079,-255.7374 487.1161,-262.7706"/>
<text text-anchor="middle" x="598" y="-641" font-family="Helvetica,sans-Serif" font-size="10.00" fill="#000000"> +virtual_device_</text>
</g>
<!-- Node13&#45;&gt;Node12 -->
<g id="edge6" class="edge">
<title>Node13&#45;&gt;Node12</title>
<path fill="none" stroke="#191970" d="M414.7088,-1269.692C341.5072,-1249.2625 232.701,-1209.1712 163,-1139 121.9781,-1097.7014 98.8335,-1033.4822 87.1249,-990.3665"/>
<polygon fill="none" stroke="#191970" points="414.225,-1273.1879 424.7938,-1272.4453 416.0686,-1266.4351 414.225,-1273.1879"/>
</g>
<!-- Node15 -->
<g id="node8" class="node">
<title>Node15</title>
<g id="a_node8"><a xlink:href="classtvm_1_1Type.html" target="_top" xlink:title="Managed reference to TypeNode. ">
<polygon fill="#ffffff" stroke="#000000" points="223,-609.5 223,-677.5 377,-677.5 377,-609.5 223,-609.5"/>
<text text-anchor="middle" x="300" y="-665.5" font-family="Helvetica,sans-Serif" font-size="10.00" fill="#000000">tvm::Type</text>
<polyline fill="none" stroke="#000000" points="223,-658.5 377,-658.5 "/>
<text text-anchor="middle" x="300" y="-646.5" font-family="Helvetica,sans-Serif" font-size="10.00" fill="#000000"> </text>
<polyline fill="none" stroke="#000000" points="223,-639.5 377,-639.5 "/>
<text text-anchor="start" x="231" y="-627.5" font-family="Helvetica,sans-Serif" font-size="10.00" fill="#000000">+ TVM_DEFINE_OBJECT_REF</text>
<text text-anchor="start" x="231" y="-616.5" font-family="Helvetica,sans-Serif" font-size="10.00" fill="#000000">_METHODS()</text>
</a>
</g>
</g>
<!-- Node13&#45;&gt;Node15 -->
<g id="edge10" class="edge">
<title>Node13&#45;&gt;Node15</title>
<path fill="none" stroke="#191970" d="M471.6487,-1166.161C470.336,-1156.981 469.1014,-1147.8499 468,-1139 457.3106,-1053.11 487.4354,-819.0883 434,-751 418.6416,-731.43 401.7909,-746.6603 381,-733 358.7564,-718.3852 338.6478,-696.2443 324.0302,-677.6414"/>
<polygon fill="none" stroke="#191970" points="468.1959,-1166.7395 473.1011,-1176.1305 475.1228,-1165.7303 468.1959,-1166.7395"/>
</g>
<!-- Node16 -->
<g id="node9" class="node">
<title>Node16</title>
<g id="a_node9"><a xlink:href="classtvm_1_1runtime_1_1Optional.html" target="_top" xlink:title="{tvm::runtime::Optional\l\&lt; tvm::runtime::ObjectRef \&gt;\n|+ _type_is_nullable\l|+ Optional()\l+ Optional()\l+ Optional()\l+ Optional()\l+ Optional()\l+ Optional()\l+ Optional()\l+ Optional()\l+ operator=()\l+ operator=()\land 15 more...\l}">
<polygon fill="#ffffff" stroke="#000000" points="382,-554.5 382,-732.5 538,-732.5 538,-554.5 382,-554.5"/>
<text text-anchor="start" x="390" y="-720.5" font-family="Helvetica,sans-Serif" font-size="10.00" fill="#000000">tvm::runtime::Optional</text>
<text text-anchor="middle" x="460" y="-709.5" font-family="Helvetica,sans-Serif" font-size="10.00" fill="#000000">&lt; tvm::runtime::ObjectRef &gt;</text>
<polyline fill="none" stroke="#000000" points="382,-702.5 538,-702.5 "/>
<text text-anchor="start" x="390" y="-690.5" font-family="Helvetica,sans-Serif" font-size="10.00" fill="#000000">+ _type_is_nullable</text>
<polyline fill="none" stroke="#000000" points="382,-683.5 538,-683.5 "/>
<text text-anchor="start" x="390" y="-671.5" font-family="Helvetica,sans-Serif" font-size="10.00" fill="#000000">+ Optional()</text>
<text text-anchor="start" x="390" y="-660.5" font-family="Helvetica,sans-Serif" font-size="10.00" fill="#000000">+ Optional()</text>
<text text-anchor="start" x="390" y="-649.5" font-family="Helvetica,sans-Serif" font-size="10.00" fill="#000000">+ Optional()</text>
<text text-anchor="start" x="390" y="-638.5" font-family="Helvetica,sans-Serif" font-size="10.00" fill="#000000">+ Optional()</text>
<text text-anchor="start" x="390" y="-627.5" font-family="Helvetica,sans-Serif" font-size="10.00" fill="#000000">+ Optional()</text>
<text text-anchor="start" x="390" y="-616.5" font-family="Helvetica,sans-Serif" font-size="10.00" fill="#000000">+ Optional()</text>
<text text-anchor="start" x="390" y="-605.5" font-family="Helvetica,sans-Serif" font-size="10.00" fill="#000000">+ Optional()</text>
<text text-anchor="start" x="390" y="-594.5" font-family="Helvetica,sans-Serif" font-size="10.00" fill="#000000">+ Optional()</text>
<text text-anchor="start" x="390" y="-583.5" font-family="Helvetica,sans-Serif" font-size="10.00" fill="#000000">+ operator=()</text>
<text text-anchor="start" x="390" y="-572.5" font-family="Helvetica,sans-Serif" font-size="10.00" fill="#000000">+ operator=()</text>
<text text-anchor="start" x="390" y="-561.5" font-family="Helvetica,sans-Serif" font-size="10.00" fill="#000000">and 15 more...</text>
</a>
</g>
</g>
<!-- Node13&#45;&gt;Node16 -->
<g id="edge12" class="edge">
<title>Node13&#45;&gt;Node16</title>
<path fill="none" stroke="#191970" d="M487.6078,-1166.456C483.4174,-1057.6842 476.4937,-893.5997 468,-751 467.6439,-745.0219 467.2519,-738.8586 466.8384,-732.6498"/>
<polygon fill="none" stroke="#191970" points="484.1114,-1166.6205 487.9922,-1176.479 491.1063,-1166.3522 484.1114,-1166.6205"/>
</g>
<!-- Node18 -->
<g id="node11" class="node">
<title>Node18</title>
<g id="a_node11"><a xlink:href="classtvm_1_1Attrs.html" target="_top" xlink:title="Managed reference to BaseAttrsNode. ">
<polygon fill="#ffffff" stroke="#000000" points="589,-911 589,-979 743,-979 743,-911 589,-911"/>
<text text-anchor="middle" x="666" y="-967" font-family="Helvetica,sans-Serif" font-size="10.00" fill="#000000">tvm::Attrs</text>
<polyline fill="none" stroke="#000000" points="589,-960 743,-960 "/>
<text text-anchor="middle" x="666" y="-948" font-family="Helvetica,sans-Serif" font-size="10.00" fill="#000000"> </text>
<polyline fill="none" stroke="#000000" points="589,-941 743,-941 "/>
<text text-anchor="start" x="597" y="-929" font-family="Helvetica,sans-Serif" font-size="10.00" fill="#000000">+ TVM_DEFINE_OBJECT_REF</text>
<text text-anchor="start" x="597" y="-918" font-family="Helvetica,sans-Serif" font-size="10.00" fill="#000000">_METHODS()</text>
</a>
</g>
</g>
<!-- Node13&#45;&gt;Node18 -->
<g id="edge15" class="edge">
<title>Node13&#45;&gt;Node18</title>
<path fill="none" stroke="#191970" d="M564.2627,-1177.4272C568.0002,-1170.9159 571.6072,-1164.4092 575,-1158 607.3596,-1096.871 637.3149,-1021.7325 653.489,-979.0044"/>
<polygon fill="none" stroke="#191970" points="561.1029,-1175.898 559.093,-1186.3005 567.1513,-1179.4219 561.1029,-1175.898"/>
</g>
<!-- Node14 -->
<g id="node7" class="node">
<title>Node14</title>
<g id="a_node7"><a xlink:href="classtvm_1_1runtime_1_1ObjectPtr.html" target="_top" xlink:title="{tvm::runtime::ObjectPtr\l\&lt; tvm::runtime::Object \&gt;\n||+ ObjectPtr()\l+ ObjectPtr()\l+ ObjectPtr()\l+ ObjectPtr()\l+ ObjectPtr()\l+ ObjectPtr()\l+ ~ObjectPtr()\l+ swap()\l+ get()\l+ operator&#45;\&gt;()\land 11 more...\l}">
<polygon fill="#ffffff" stroke="#000000" points="422,-1446.5 422,-1624.5 562,-1624.5 562,-1446.5 422,-1446.5"/>
<text text-anchor="start" x="430" y="-1612.5" font-family="Helvetica,sans-Serif" font-size="10.00" fill="#000000">tvm::runtime::ObjectPtr</text>
<text text-anchor="middle" x="492" y="-1601.5" font-family="Helvetica,sans-Serif" font-size="10.00" fill="#000000">&lt; tvm::runtime::Object &gt;</text>
<polyline fill="none" stroke="#000000" points="422,-1594.5 562,-1594.5 "/>
<text text-anchor="middle" x="492" y="-1582.5" font-family="Helvetica,sans-Serif" font-size="10.00" fill="#000000"> </text>
<polyline fill="none" stroke="#000000" points="422,-1575.5 562,-1575.5 "/>
<text text-anchor="start" x="430" y="-1563.5" font-family="Helvetica,sans-Serif" font-size="10.00" fill="#000000">+ ObjectPtr()</text>
<text text-anchor="start" x="430" y="-1552.5" font-family="Helvetica,sans-Serif" font-size="10.00" fill="#000000">+ ObjectPtr()</text>
<text text-anchor="start" x="430" y="-1541.5" font-family="Helvetica,sans-Serif" font-size="10.00" fill="#000000">+ ObjectPtr()</text>
<text text-anchor="start" x="430" y="-1530.5" font-family="Helvetica,sans-Serif" font-size="10.00" fill="#000000">+ ObjectPtr()</text>
<text text-anchor="start" x="430" y="-1519.5" font-family="Helvetica,sans-Serif" font-size="10.00" fill="#000000">+ ObjectPtr()</text>
<text text-anchor="start" x="430" y="-1508.5" font-family="Helvetica,sans-Serif" font-size="10.00" fill="#000000">+ ObjectPtr()</text>
<text text-anchor="start" x="430" y="-1497.5" font-family="Helvetica,sans-Serif" font-size="10.00" fill="#000000">+ ~ObjectPtr()</text>
<text text-anchor="start" x="430" y="-1486.5" font-family="Helvetica,sans-Serif" font-size="10.00" fill="#000000">+ swap()</text>
<text text-anchor="start" x="430" y="-1475.5" font-family="Helvetica,sans-Serif" font-size="10.00" fill="#000000">+ get()</text>
<text text-anchor="start" x="430" y="-1464.5" font-family="Helvetica,sans-Serif" font-size="10.00" fill="#000000">+ operator&#45;&gt;()</text>
<text text-anchor="start" x="430" y="-1453.5" font-family="Helvetica,sans-Serif" font-size="10.00" fill="#000000">and 11 more...</text>
</a>
</g>
</g>
<!-- Node14&#45;&gt;Node13 -->
<g id="edge7" class="edge">
<title>Node14&#45;&gt;Node13</title>
<path fill="none" stroke="#404040" d="M492,-1446.3167C492,-1434.8765 492,-1423.0062 492,-1411.1402"/>
<polygon fill="none" stroke="#404040" points="492.0001,-1410.7944 488,-1404.7944 492,-1398.7944 496,-1404.7943 492.0001,-1410.7944"/>
<text text-anchor="middle" x="511.5" y="-1420" font-family="Helvetica,sans-Serif" font-size="10.00" fill="#000000"> #data_</text>
</g>
<!-- Node15&#45;&gt;Node9 -->
<g id="edge9" class="edge">
<title>Node15&#45;&gt;Node9</title>
<path fill="none" stroke="#404040" d="M310.3724,-609.2514C323.7536,-565.6794 348.1549,-488.2456 372,-423 391.9614,-368.381 416.9673,-307.197 435.5518,-262.9147"/>
<polygon fill="none" stroke="#404040" points="435.5957,-262.8102 434.2369,-255.7283 440.2515,-251.7502 441.6103,-258.8322 435.5957,-262.8102"/>
<text text-anchor="middle" x="414.5" y="-477" font-family="Helvetica,sans-Serif" font-size="10.00" fill="#000000"> +checked_type_</text>
</g>
<!-- Node16&#45;&gt;Node9 -->
<g id="edge11" class="edge">
<title>Node16&#45;&gt;Node9</title>
<path fill="none" stroke="#404040" d="M460.4023,-554.4858C460.7919,-468.3016 461.3725,-339.8338 461.716,-263.8254"/>
<polygon fill="none" stroke="#404040" points="461.7168,-263.6351 457.744,-257.6171 461.7711,-251.6353 465.7439,-257.6533 461.7168,-263.6351"/>
<text text-anchor="middle" x="495.5" y="-477" font-family="Helvetica,sans-Serif" font-size="10.00" fill="#000000"> +struct_info_</text>
</g>
<!-- Node17 -->
<g id="node10" class="node">
<title>Node17</title>
<g id="a_node10"><a xlink:href="classtvm_1_1DictAttrs.html" target="_top" xlink:title="Managed reference to DictAttrsNode. ">
<polygon fill="#ffffff" stroke="#000000" points="580,-270.5 580,-404.5 734,-404.5 734,-270.5 580,-270.5"/>
<text text-anchor="middle" x="657" y="-392.5" font-family="Helvetica,sans-Serif" font-size="10.00" fill="#000000">tvm::DictAttrs</text>
<polyline fill="none" stroke="#000000" points="580,-385.5 734,-385.5 "/>
<text text-anchor="middle" x="657" y="-373.5" font-family="Helvetica,sans-Serif" font-size="10.00" fill="#000000"> </text>
<polyline fill="none" stroke="#000000" points="580,-366.5 734,-366.5 "/>
<text text-anchor="start" x="588" y="-354.5" font-family="Helvetica,sans-Serif" font-size="10.00" fill="#000000">+ DictAttrs()</text>
<text text-anchor="start" x="588" y="-343.5" font-family="Helvetica,sans-Serif" font-size="10.00" fill="#000000">+ GetAttr()</text>
<text text-anchor="start" x="588" y="-332.5" font-family="Helvetica,sans-Serif" font-size="10.00" fill="#000000">+ GetAttr()</text>
<text text-anchor="start" x="588" y="-321.5" font-family="Helvetica,sans-Serif" font-size="10.00" fill="#000000">+ HasNonzeroAttr()</text>
<text text-anchor="start" x="588" y="-310.5" font-family="Helvetica,sans-Serif" font-size="10.00" fill="#000000">+ TVM_DEFINE_OBJECT_REF</text>
<text text-anchor="start" x="588" y="-299.5" font-family="Helvetica,sans-Serif" font-size="10.00" fill="#000000">_METHODS()</text>
<text text-anchor="start" x="588" y="-288.5" font-family="Helvetica,sans-Serif" font-size="10.00" fill="#000000">+ TVM_DEFINE_OBJECT_REF</text>
<text text-anchor="start" x="588" y="-277.5" font-family="Helvetica,sans-Serif" font-size="10.00" fill="#000000">_COW_METHOD()</text>
</a>
</g>
</g>
<!-- Node17&#45;&gt;Node8 -->
<g id="edge13" class="edge">
<title>Node17&#45;&gt;Node8</title>
<path fill="none" stroke="#404040" d="M632.808,-270.1935C616.9507,-226.0756 596.2919,-168.5992 580.394,-124.3685"/>
<polygon fill="none" stroke="#404040" points="580.3119,-124.1399 574.5182,-119.8466 576.2529,-112.8472 582.0467,-117.1406 580.3119,-124.1399"/>
<text text-anchor="middle" x="643" y="-198.5" font-family="Helvetica,sans-Serif" font-size="10.00" fill="#000000"> +attrs</text>
</g>
<!-- Node18&#45;&gt;Node17 -->
<g id="edge14" class="edge">
<title>Node18&#45;&gt;Node17</title>
<path fill="none" stroke="#191970" d="M665.3379,-900.3085C663.7756,-794.8529 659.852,-530.0108 657.9989,-404.9256"/>
<polygon fill="none" stroke="#191970" points="661.8425,-900.6505 665.4903,-910.5976 668.8417,-900.5468 661.8425,-900.6505"/>
</g>
</g>
</svg>
