<?xml version="1.0" encoding="UTF-8" standalone="no"?>
<!DOCTYPE svg PUBLIC "-//W3C//DTD SVG 1.1//EN"
 "http://www.w3.org/Graphics/SVG/1.1/DTD/svg11.dtd">
<!-- Generated by graphviz version 2.40.1 (20161225.0304)
 -->
<!-- Title: tvm::relax::PrimValueNode Pages: 1 -->
<svg width="751pt" height="1694pt"
 viewBox="0.00 0.00 751.00 1694.00" xmlns="http://www.w3.org/2000/svg" xmlns:xlink="http://www.w3.org/1999/xlink">
<g id="graph0" class="graph" transform="scale(1 1) rotate(0) translate(4 1690)">
<title>tvm::relax::PrimValueNode</title>
<polygon fill="#ffffff" stroke="transparent" points="-4,4 -4,-1690 747,-1690 747,4 -4,4"/>
<!-- Node5 -->
<g id="node1" class="node">
<title>Node5</title>
<polygon fill="#bfbfbf" stroke="#000000" points="472.5,-.5 472.5,-90.5 681.5,-90.5 681.5,-.5 472.5,-.5"/>
<text text-anchor="middle" x="577" y="-78.5" font-family="Helvetica,sans-Serif" font-size="10.00" fill="#000000">tvm::relax::PrimValueNode</text>
<polyline fill="none" stroke="#000000" points="472.5,-71.5 681.5,-71.5 "/>
<text text-anchor="start" x="480.5" y="-59.5" font-family="Helvetica,sans-Serif" font-size="10.00" fill="#000000">+ _type_key</text>
<polyline fill="none" stroke="#000000" points="472.5,-52.5 681.5,-52.5 "/>
<text text-anchor="start" x="480.5" y="-40.5" font-family="Helvetica,sans-Serif" font-size="10.00" fill="#000000">+ VisitAttrs()</text>
<text text-anchor="start" x="480.5" y="-29.5" font-family="Helvetica,sans-Serif" font-size="10.00" fill="#000000">+ SEqualReduce()</text>
<text text-anchor="start" x="480.5" y="-18.5" font-family="Helvetica,sans-Serif" font-size="10.00" fill="#000000">+ SHashReduce()</text>
<text text-anchor="start" x="480.5" y="-7.5" font-family="Helvetica,sans-Serif" font-size="10.00" fill="#000000">+ TVM_DECLARE_FINAL_OBJECT_INFO()</text>
</g>
<!-- Node6 -->
<g id="node2" class="node">
<title>Node6</title>
<g id="a_node2"><a xlink:href="classtvm_1_1relax_1_1LeafExprNode.html" target="_top" xlink:title="Base type of all (non&#45;function) leaf Exprs. ">
<polygon fill="#ffffff" stroke="#000000" points="400.5,-128.5 400.5,-196.5 607.5,-196.5 607.5,-128.5 400.5,-128.5"/>
<text text-anchor="middle" x="504" y="-184.5" font-family="Helvetica,sans-Serif" font-size="10.00" fill="#000000">tvm::relax::LeafExprNode</text>
<polyline fill="none" stroke="#000000" points="400.5,-177.5 607.5,-177.5 "/>
<text text-anchor="start" x="408.5" y="-165.5" font-family="Helvetica,sans-Serif" font-size="10.00" fill="#000000">+ _type_key</text>
<text text-anchor="start" x="408.5" y="-154.5" font-family="Helvetica,sans-Serif" font-size="10.00" fill="#000000">+ _type_child_slots</text>
<polyline fill="none" stroke="#000000" points="400.5,-147.5 607.5,-147.5 "/>
<text text-anchor="start" x="408.5" y="-135.5" font-family="Helvetica,sans-Serif" font-size="10.00" fill="#000000">+ TVM_DECLARE_BASE_OBJECT_INFO()</text>
</a>
</g>
</g>
<!-- Node6&#45;&gt;Node5 -->
<g id="edge1" class="edge">
<title>Node6&#45;&gt;Node5</title>
<path fill="none" stroke="#191970" d="M530.7843,-119.5718C536.6302,-110.2022 542.8348,-100.2579 548.7363,-90.7993"/>
<polygon fill="none" stroke="#191970" points="527.635,-118.0074 525.3109,-128.3442 533.5738,-121.7129 527.635,-118.0074"/>
</g>
<!-- Node7 -->
<g id="node3" class="node">
<title>Node7</title>
<g id="a_node3"><a xlink:href="classtvm_1_1RelayExprNode.html" target="_top" xlink:title="Base node of all non&#45;primitive expressions. ">
<polygon fill="#ffffff" stroke="#000000" points="358.5,-244.5 358.5,-345.5 565.5,-345.5 565.5,-244.5 358.5,-244.5"/>
<text text-anchor="middle" x="462" y="-333.5" font-family="Helvetica,sans-Serif" font-size="10.00" fill="#000000">ExprNode</text>
<polyline fill="none" stroke="#000000" points="358.5,-326.5 565.5,-326.5 "/>
<text text-anchor="start" x="366.5" y="-314.5" font-family="Helvetica,sans-Serif" font-size="10.00" fill="#000000">+ _type_key</text>
<text text-anchor="start" x="366.5" y="-303.5" font-family="Helvetica,sans-Serif" font-size="10.00" fill="#000000">+ _type_child_slots</text>
<polyline fill="none" stroke="#000000" points="358.5,-296.5 565.5,-296.5 "/>
<text text-anchor="start" x="366.5" y="-284.5" font-family="Helvetica,sans-Serif" font-size="10.00" fill="#000000">+ checked_type()</text>
<text text-anchor="start" x="366.5" y="-273.5" font-family="Helvetica,sans-Serif" font-size="10.00" fill="#000000">+ type_as()</text>
<text text-anchor="start" x="366.5" y="-262.5" font-family="Helvetica,sans-Serif" font-size="10.00" fill="#000000">+ virtual_device()</text>
<text text-anchor="start" x="366.5" y="-251.5" font-family="Helvetica,sans-Serif" font-size="10.00" fill="#000000">+ TVM_DECLARE_BASE_OBJECT_INFO()</text>
</a>
</g>
</g>
<!-- Node7&#45;&gt;Node6 -->
<g id="edge2" class="edge">
<title>Node7&#45;&gt;Node6</title>
<path fill="none" stroke="#191970" d="M481.23,-234.3339C485.3362,-221.3798 489.5333,-208.1389 493.1874,-196.6113"/>
<polygon fill="none" stroke="#191970" points="477.8035,-233.5608 478.1182,-244.151 484.4763,-235.676 477.8035,-233.5608"/>
</g>
<!-- Node8 -->
<g id="node4" class="node">
<title>Node8</title>
<g id="a_node4"><a xlink:href="classtvm_1_1BaseExprNode.html" target="_top" xlink:title="Base type of all the expressions. ">
<polygon fill="#ffffff" stroke="#000000" points="97.5,-484.5 97.5,-596.5 304.5,-596.5 304.5,-484.5 97.5,-484.5"/>
<text text-anchor="middle" x="201" y="-584.5" font-family="Helvetica,sans-Serif" font-size="10.00" fill="#000000">tvm::BaseExprNode</text>
<polyline fill="none" stroke="#000000" points="97.5,-577.5 304.5,-577.5 "/>
<text text-anchor="start" x="105.5" y="-565.5" font-family="Helvetica,sans-Serif" font-size="10.00" fill="#000000">+ _type_key</text>
<text text-anchor="start" x="105.5" y="-554.5" font-family="Helvetica,sans-Serif" font-size="10.00" fill="#000000">+ _type_has_method_sequal</text>
<text text-anchor="start" x="105.5" y="-543.5" font-family="Helvetica,sans-Serif" font-size="10.00" fill="#000000">_reduce</text>
<text text-anchor="start" x="105.5" y="-532.5" font-family="Helvetica,sans-Serif" font-size="10.00" fill="#000000">+ _type_has_method_shash</text>
<text text-anchor="start" x="105.5" y="-521.5" font-family="Helvetica,sans-Serif" font-size="10.00" fill="#000000">_reduce</text>
<text text-anchor="start" x="105.5" y="-510.5" font-family="Helvetica,sans-Serif" font-size="10.00" fill="#000000">+ _type_child_slots</text>
<polyline fill="none" stroke="#000000" points="97.5,-503.5 304.5,-503.5 "/>
<text text-anchor="start" x="105.5" y="-491.5" font-family="Helvetica,sans-Serif" font-size="10.00" fill="#000000">+ TVM_DECLARE_BASE_OBJECT_INFO()</text>
</a>
</g>
</g>
<!-- Node8&#45;&gt;Node7 -->
<g id="edge3" class="edge">
<title>Node8&#45;&gt;Node7</title>
<path fill="none" stroke="#191970" d="M236.7564,-475.6489C259.125,-439.4311 290.5748,-395.4135 327,-364 336.5677,-355.7487 347.2936,-348.1658 358.407,-341.2909"/>
<polygon fill="none" stroke="#191970" points="233.7623,-473.8365 231.5539,-484.1986 239.7422,-477.4753 233.7623,-473.8365"/>
</g>
<!-- Node9 -->
<g id="node5" class="node">
<title>Node9</title>
<g id="a_node5"><a xlink:href="classtvm_1_1runtime_1_1Object.html" target="_top" xlink:title="base class of all object containers. ">
<polygon fill="#ffffff" stroke="#000000" points="172.5,-812.5 172.5,-1199.5 355.5,-1199.5 355.5,-812.5 172.5,-812.5"/>
<text text-anchor="middle" x="264" y="-1187.5" font-family="Helvetica,sans-Serif" font-size="10.00" fill="#000000">tvm::runtime::Object</text>
<polyline fill="none" stroke="#000000" points="172.5,-1180.5 355.5,-1180.5 "/>
<text text-anchor="start" x="180.5" y="-1168.5" font-family="Helvetica,sans-Serif" font-size="10.00" fill="#000000">+ _type_key</text>
<text text-anchor="start" x="180.5" y="-1157.5" font-family="Helvetica,sans-Serif" font-size="10.00" fill="#000000">+ _type_final</text>
<text text-anchor="start" x="180.5" y="-1146.5" font-family="Helvetica,sans-Serif" font-size="10.00" fill="#000000">+ _type_child_slots</text>
<text text-anchor="start" x="180.5" y="-1135.5" font-family="Helvetica,sans-Serif" font-size="10.00" fill="#000000">+ _type_child_slots_can</text>
<text text-anchor="start" x="180.5" y="-1124.5" font-family="Helvetica,sans-Serif" font-size="10.00" fill="#000000">_overflow</text>
<text text-anchor="start" x="180.5" y="-1113.5" font-family="Helvetica,sans-Serif" font-size="10.00" fill="#000000">+ _type_has_method_visit</text>
<text text-anchor="start" x="180.5" y="-1102.5" font-family="Helvetica,sans-Serif" font-size="10.00" fill="#000000">_attrs</text>
<text text-anchor="start" x="180.5" y="-1091.5" font-family="Helvetica,sans-Serif" font-size="10.00" fill="#000000">+ _type_has_method_sequal</text>
<text text-anchor="start" x="180.5" y="-1080.5" font-family="Helvetica,sans-Serif" font-size="10.00" fill="#000000">_reduce</text>
<text text-anchor="start" x="180.5" y="-1069.5" font-family="Helvetica,sans-Serif" font-size="10.00" fill="#000000">+ _type_has_method_shash</text>
<text text-anchor="start" x="180.5" y="-1058.5" font-family="Helvetica,sans-Serif" font-size="10.00" fill="#000000">_reduce</text>
<text text-anchor="start" x="180.5" y="-1047.5" font-family="Helvetica,sans-Serif" font-size="10.00" fill="#000000">+ _type_index</text>
<text text-anchor="start" x="180.5" y="-1036.5" font-family="Helvetica,sans-Serif" font-size="10.00" fill="#000000"># type_index_</text>
<text text-anchor="start" x="180.5" y="-1025.5" font-family="Helvetica,sans-Serif" font-size="10.00" fill="#000000"># ref_counter_</text>
<polyline fill="none" stroke="#000000" points="172.5,-1018.5 355.5,-1018.5 "/>
<text text-anchor="start" x="180.5" y="-1006.5" font-family="Helvetica,sans-Serif" font-size="10.00" fill="#000000">+ type_index()</text>
<text text-anchor="start" x="180.5" y="-995.5" font-family="Helvetica,sans-Serif" font-size="10.00" fill="#000000">+ GetTypeKey()</text>
<text text-anchor="start" x="180.5" y="-984.5" font-family="Helvetica,sans-Serif" font-size="10.00" fill="#000000">+ GetTypeKeyHash()</text>
<text text-anchor="start" x="180.5" y="-973.5" font-family="Helvetica,sans-Serif" font-size="10.00" fill="#000000">+ IsInstance()</text>
<text text-anchor="start" x="180.5" y="-962.5" font-family="Helvetica,sans-Serif" font-size="10.00" fill="#000000">+ unique()</text>
<text text-anchor="start" x="180.5" y="-951.5" font-family="Helvetica,sans-Serif" font-size="10.00" fill="#000000">+ Object()</text>
<text text-anchor="start" x="180.5" y="-940.5" font-family="Helvetica,sans-Serif" font-size="10.00" fill="#000000">+ Object()</text>
<text text-anchor="start" x="180.5" y="-929.5" font-family="Helvetica,sans-Serif" font-size="10.00" fill="#000000">+ Object()</text>
<text text-anchor="start" x="180.5" y="-918.5" font-family="Helvetica,sans-Serif" font-size="10.00" fill="#000000">+ operator=()</text>
<text text-anchor="start" x="180.5" y="-907.5" font-family="Helvetica,sans-Serif" font-size="10.00" fill="#000000">+ operator=()</text>
<text text-anchor="start" x="180.5" y="-896.5" font-family="Helvetica,sans-Serif" font-size="10.00" fill="#000000">+ TypeIndex2Key()</text>
<text text-anchor="start" x="180.5" y="-885.5" font-family="Helvetica,sans-Serif" font-size="10.00" fill="#000000">+ TypeIndex2KeyHash()</text>
<text text-anchor="start" x="180.5" y="-874.5" font-family="Helvetica,sans-Serif" font-size="10.00" fill="#000000">+ TypeKey2Index()</text>
<text text-anchor="start" x="180.5" y="-863.5" font-family="Helvetica,sans-Serif" font-size="10.00" fill="#000000">+ _GetOrAllocRuntimeTypeIndex()</text>
<text text-anchor="start" x="180.5" y="-852.5" font-family="Helvetica,sans-Serif" font-size="10.00" fill="#000000">+ RuntimeTypeIndex()</text>
<text text-anchor="start" x="180.5" y="-841.5" font-family="Helvetica,sans-Serif" font-size="10.00" fill="#000000"># IncRef()</text>
<text text-anchor="start" x="180.5" y="-830.5" font-family="Helvetica,sans-Serif" font-size="10.00" fill="#000000"># DecRef()</text>
<text text-anchor="start" x="180.5" y="-819.5" font-family="Helvetica,sans-Serif" font-size="10.00" fill="#000000"># GetOrAllocRuntimeTypeIndex()</text>
</a>
</g>
</g>
<!-- Node9&#45;&gt;Node8 -->
<g id="edge4" class="edge">
<title>Node9&#45;&gt;Node8</title>
<path fill="none" stroke="#191970" d="M220.2038,-802.2795C219.7883,-799.5043 219.3867,-796.7434 219,-794 209.4861,-726.4999 204.8997,-648.1419 202.7583,-596.6175"/>
<polygon fill="none" stroke="#191970" points="216.7792,-803.0368 221.7662,-812.3845 223.697,-801.967 216.7792,-803.0368"/>
</g>
<!-- Node9&#45;&gt;Node9 -->
<g id="edge5" class="edge">
<title>Node9&#45;&gt;Node9</title>
<path fill="none" stroke="#404040" d="M355.8625,-1039.9248C366.5482,-1033.6637 373.5,-1022.3555 373.5,-1006 373.5,-995.0112 370.3618,-986.3007 365.0615,-979.8687"/>
<polygon fill="none" stroke="#404040" points="365.0184,-979.8322 357.8548,-979.0056 355.8625,-972.0752 363.0261,-972.9017 365.0184,-979.8322"/>
<text text-anchor="middle" x="399.5" y="-1003.5" font-family="Helvetica,sans-Serif" font-size="10.00" fill="#000000"> #deleter_</text>
</g>
<!-- Node10 -->
<g id="node6" class="node">
<title>Node10</title>
<g id="a_node6"><a xlink:href="classtvm_1_1Span.html" target="_top" xlink:title="{tvm::Span\n||+ Span()\l+ Merge()\l+ TVM_DEFINE_OBJECT_REF\l_METHODS()\l}">
<polygon fill="#ffffff" stroke="#000000" points="0,-961 0,-1051 154,-1051 154,-961 0,-961"/>
<text text-anchor="middle" x="77" y="-1039" font-family="Helvetica,sans-Serif" font-size="10.00" fill="#000000">tvm::Span</text>
<polyline fill="none" stroke="#000000" points="0,-1032 154,-1032 "/>
<text text-anchor="middle" x="77" y="-1020" font-family="Helvetica,sans-Serif" font-size="10.00" fill="#000000"> </text>
<polyline fill="none" stroke="#000000" points="0,-1013 154,-1013 "/>
<text text-anchor="start" x="8" y="-1001" font-family="Helvetica,sans-Serif" font-size="10.00" fill="#000000">+ Span()</text>
<text text-anchor="start" x="8" y="-990" font-family="Helvetica,sans-Serif" font-size="10.00" fill="#000000">+ Merge()</text>
<text text-anchor="start" x="8" y="-979" font-family="Helvetica,sans-Serif" font-size="10.00" fill="#000000">+ TVM_DEFINE_OBJECT_REF</text>
<text text-anchor="start" x="8" y="-968" font-family="Helvetica,sans-Serif" font-size="10.00" fill="#000000">_METHODS()</text>
</a>
</g>
</g>
<!-- Node10&#45;&gt;Node8 -->
<g id="edge6" class="edge">
<title>Node10&#45;&gt;Node8</title>
<path fill="none" stroke="#404040" d="M83.7176,-960.8004C95.4451,-887.0125 122.5308,-736.6995 165,-615 165.7809,-612.7621 166.6108,-610.5033 167.4799,-608.2354"/>
<polygon fill="none" stroke="#404040" points="167.5803,-607.989 166.1407,-600.923 172.1094,-596.8764 173.549,-603.9424 167.5803,-607.989"/>
<text text-anchor="middle" x="182.5" y="-702" font-family="Helvetica,sans-Serif" font-size="10.00" fill="#000000"> +span</text>
</g>
<!-- Node11 -->
<g id="node7" class="node">
<title>Node11</title>
<g id="a_node7"><a xlink:href="classtvm_1_1runtime_1_1ObjectRef.html" target="_top" xlink:title="Base class of all object reference. ">
<polygon fill="#ffffff" stroke="#000000" points="425,-1237.5 425,-1459.5 559,-1459.5 559,-1237.5 425,-1237.5"/>
<text text-anchor="middle" x="492" y="-1447.5" font-family="Helvetica,sans-Serif" font-size="10.00" fill="#000000">tvm::runtime::ObjectRef</text>
<polyline fill="none" stroke="#000000" points="425,-1440.5 559,-1440.5 "/>
<text text-anchor="start" x="433" y="-1428.5" font-family="Helvetica,sans-Serif" font-size="10.00" fill="#000000">+ _type_is_nullable</text>
<polyline fill="none" stroke="#000000" points="425,-1421.5 559,-1421.5 "/>
<text text-anchor="start" x="433" y="-1409.5" font-family="Helvetica,sans-Serif" font-size="10.00" fill="#000000">+ ObjectRef()</text>
<text text-anchor="start" x="433" y="-1398.5" font-family="Helvetica,sans-Serif" font-size="10.00" fill="#000000">+ ObjectRef()</text>
<text text-anchor="start" x="433" y="-1387.5" font-family="Helvetica,sans-Serif" font-size="10.00" fill="#000000">+ same_as()</text>
<text text-anchor="start" x="433" y="-1376.5" font-family="Helvetica,sans-Serif" font-size="10.00" fill="#000000">+ operator==()</text>
<text text-anchor="start" x="433" y="-1365.5" font-family="Helvetica,sans-Serif" font-size="10.00" fill="#000000">+ operator!=()</text>
<text text-anchor="start" x="433" y="-1354.5" font-family="Helvetica,sans-Serif" font-size="10.00" fill="#000000">+ operator&lt;()</text>
<text text-anchor="start" x="433" y="-1343.5" font-family="Helvetica,sans-Serif" font-size="10.00" fill="#000000">+ defined()</text>
<text text-anchor="start" x="433" y="-1332.5" font-family="Helvetica,sans-Serif" font-size="10.00" fill="#000000">+ get()</text>
<text text-anchor="start" x="433" y="-1321.5" font-family="Helvetica,sans-Serif" font-size="10.00" fill="#000000">+ operator&#45;&gt;()</text>
<text text-anchor="start" x="433" y="-1310.5" font-family="Helvetica,sans-Serif" font-size="10.00" fill="#000000">+ unique()</text>
<text text-anchor="start" x="433" y="-1299.5" font-family="Helvetica,sans-Serif" font-size="10.00" fill="#000000">+ use_count()</text>
<text text-anchor="start" x="433" y="-1288.5" font-family="Helvetica,sans-Serif" font-size="10.00" fill="#000000">+ as()</text>
<text text-anchor="start" x="433" y="-1277.5" font-family="Helvetica,sans-Serif" font-size="10.00" fill="#000000"># get_mutable()</text>
<text text-anchor="start" x="433" y="-1266.5" font-family="Helvetica,sans-Serif" font-size="10.00" fill="#000000"># DowncastNoCheck()</text>
<text text-anchor="start" x="433" y="-1255.5" font-family="Helvetica,sans-Serif" font-size="10.00" fill="#000000"># FFIClearAfterMove()</text>
<text text-anchor="start" x="433" y="-1244.5" font-family="Helvetica,sans-Serif" font-size="10.00" fill="#000000"># GetDataPtr()</text>
</a>
</g>
</g>
<!-- Node11&#45;&gt;Node7 -->
<g id="edge9" class="edge">
<title>Node11&#45;&gt;Node7</title>
<path fill="none" stroke="#404040" d="M514.919,-1237.3338C545.2185,-1071.4769 588.8444,-750.2268 535,-484 526.1283,-440.1348 508.0437,-393.1876 492.0951,-357.0566"/>
<polygon fill="none" stroke="#404040" points="491.9218,-356.6705 485.8151,-352.8354 487.0064,-345.7234 493.1132,-349.5585 491.9218,-356.6705"/>
<text text-anchor="middle" x="603" y="-702" font-family="Helvetica,sans-Serif" font-size="10.00" fill="#000000"> +virtual_device_</text>
</g>
<!-- Node11&#45;&gt;Node10 -->
<g id="edge7" class="edge">
<title>Node11&#45;&gt;Node10</title>
<path fill="none" stroke="#191970" d="M414.7088,-1330.692C341.5072,-1310.2625 232.701,-1270.1712 163,-1200 121.9781,-1158.7014 98.8335,-1094.4822 87.1249,-1051.3665"/>
<polygon fill="none" stroke="#191970" points="414.225,-1334.1879 424.7938,-1333.4453 416.0686,-1327.4351 414.225,-1334.1879"/>
</g>
<!-- Node13 -->
<g id="node9" class="node">
<title>Node13</title>
<g id="a_node9"><a xlink:href="classtvm_1_1Type.html" target="_top" xlink:title="Managed reference to TypeNode. ">
<polygon fill="#ffffff" stroke="#000000" points="223,-670.5 223,-738.5 377,-738.5 377,-670.5 223,-670.5"/>
<text text-anchor="middle" x="300" y="-726.5" font-family="Helvetica,sans-Serif" font-size="10.00" fill="#000000">tvm::Type</text>
<polyline fill="none" stroke="#000000" points="223,-719.5 377,-719.5 "/>
<text text-anchor="middle" x="300" y="-707.5" font-family="Helvetica,sans-Serif" font-size="10.00" fill="#000000"> </text>
<polyline fill="none" stroke="#000000" points="223,-700.5 377,-700.5 "/>
<text text-anchor="start" x="231" y="-688.5" font-family="Helvetica,sans-Serif" font-size="10.00" fill="#000000">+ TVM_DEFINE_OBJECT_REF</text>
<text text-anchor="start" x="231" y="-677.5" font-family="Helvetica,sans-Serif" font-size="10.00" fill="#000000">_METHODS()</text>
</a>
</g>
</g>
<!-- Node11&#45;&gt;Node13 -->
<g id="edge11" class="edge">
<title>Node11&#45;&gt;Node13</title>
<path fill="none" stroke="#191970" d="M471.6487,-1227.161C470.336,-1217.981 469.1014,-1208.8499 468,-1200 457.3106,-1114.11 487.4354,-880.0883 434,-812 418.6416,-792.43 401.7909,-807.6603 381,-794 358.7564,-779.3852 338.6478,-757.2443 324.0302,-738.6414"/>
<polygon fill="none" stroke="#191970" points="468.1959,-1227.7395 473.1011,-1237.1305 475.1228,-1226.7303 468.1959,-1227.7395"/>
</g>
<!-- Node14 -->
<g id="node10" class="node">
<title>Node14</title>
<g id="a_node10"><a xlink:href="classtvm_1_1runtime_1_1Optional.html" target="_top" xlink:title="{tvm::runtime::Optional\l\&lt; tvm::runtime::ObjectRef \&gt;\n|+ _type_is_nullable\l|+ Optional()\l+ Optional()\l+ Optional()\l+ Optional()\l+ Optional()\l+ Optional()\l+ Optional()\l+ Optional()\l+ operator=()\l+ operator=()\land 15 more...\l}">
<polygon fill="#ffffff" stroke="#000000" points="382,-615.5 382,-793.5 538,-793.5 538,-615.5 382,-615.5"/>
<text text-anchor="start" x="390" y="-781.5" font-family="Helvetica,sans-Serif" font-size="10.00" fill="#000000">tvm::runtime::Optional</text>
<text text-anchor="middle" x="460" y="-770.5" font-family="Helvetica,sans-Serif" font-size="10.00" fill="#000000">&lt; tvm::runtime::ObjectRef &gt;</text>
<polyline fill="none" stroke="#000000" points="382,-763.5 538,-763.5 "/>
<text text-anchor="start" x="390" y="-751.5" font-family="Helvetica,sans-Serif" font-size="10.00" fill="#000000">+ _type_is_nullable</text>
<polyline fill="none" stroke="#000000" points="382,-744.5 538,-744.5 "/>
<text text-anchor="start" x="390" y="-732.5" font-family="Helvetica,sans-Serif" font-size="10.00" fill="#000000">+ Optional()</text>
<text text-anchor="start" x="390" y="-721.5" font-family="Helvetica,sans-Serif" font-size="10.00" fill="#000000">+ Optional()</text>
<text text-anchor="start" x="390" y="-710.5" font-family="Helvetica,sans-Serif" font-size="10.00" fill="#000000">+ Optional()</text>
<text text-anchor="start" x="390" y="-699.5" font-family="Helvetica,sans-Serif" font-size="10.00" fill="#000000">+ Optional()</text>
<text text-anchor="start" x="390" y="-688.5" font-family="Helvetica,sans-Serif" font-size="10.00" fill="#000000">+ Optional()</text>
<text text-anchor="start" x="390" y="-677.5" font-family="Helvetica,sans-Serif" font-size="10.00" fill="#000000">+ Optional()</text>
<text text-anchor="start" x="390" y="-666.5" font-family="Helvetica,sans-Serif" font-size="10.00" fill="#000000">+ Optional()</text>
<text text-anchor="start" x="390" y="-655.5" font-family="Helvetica,sans-Serif" font-size="10.00" fill="#000000">+ Optional()</text>
<text text-anchor="start" x="390" y="-644.5" font-family="Helvetica,sans-Serif" font-size="10.00" fill="#000000">+ operator=()</text>
<text text-anchor="start" x="390" y="-633.5" font-family="Helvetica,sans-Serif" font-size="10.00" fill="#000000">+ operator=()</text>
<text text-anchor="start" x="390" y="-622.5" font-family="Helvetica,sans-Serif" font-size="10.00" fill="#000000">and 15 more...</text>
</a>
</g>
</g>
<!-- Node11&#45;&gt;Node14 -->
<g id="edge13" class="edge">
<title>Node11&#45;&gt;Node14</title>
<path fill="none" stroke="#191970" d="M487.6078,-1227.456C483.4174,-1118.6842 476.4937,-954.5997 468,-812 467.6439,-806.0219 467.2519,-799.8586 466.8384,-793.6498"/>
<polygon fill="none" stroke="#191970" points="484.1114,-1227.6205 487.9922,-1237.479 491.1063,-1227.3522 484.1114,-1227.6205"/>
</g>
<!-- Node16 -->
<g id="node12" class="node">
<title>Node16</title>
<g id="a_node12"><a xlink:href="classtvm_1_1BaseExpr.html" target="_top" xlink:title="Managed reference to BaseExprNode. ">
<polygon fill="#ffffff" stroke="#000000" points="589,-972 589,-1040 743,-1040 743,-972 589,-972"/>
<text text-anchor="middle" x="666" y="-1028" font-family="Helvetica,sans-Serif" font-size="10.00" fill="#000000">tvm::BaseExpr</text>
<polyline fill="none" stroke="#000000" points="589,-1021 743,-1021 "/>
<text text-anchor="middle" x="666" y="-1009" font-family="Helvetica,sans-Serif" font-size="10.00" fill="#000000"> </text>
<polyline fill="none" stroke="#000000" points="589,-1002 743,-1002 "/>
<text text-anchor="start" x="597" y="-990" font-family="Helvetica,sans-Serif" font-size="10.00" fill="#000000">+ TVM_DEFINE_OBJECT_REF</text>
<text text-anchor="start" x="597" y="-979" font-family="Helvetica,sans-Serif" font-size="10.00" fill="#000000">_METHODS()</text>
</a>
</g>
</g>
<!-- Node11&#45;&gt;Node16 -->
<g id="edge16" class="edge">
<title>Node11&#45;&gt;Node16</title>
<path fill="none" stroke="#191970" d="M564.2627,-1238.4272C568.0002,-1231.9159 571.6072,-1225.4092 575,-1219 607.3596,-1157.871 637.3149,-1082.7325 653.489,-1040.0044"/>
<polygon fill="none" stroke="#191970" points="561.1029,-1236.898 559.093,-1247.3005 567.1513,-1240.4219 561.1029,-1236.898"/>
</g>
<!-- Node12 -->
<g id="node8" class="node">
<title>Node12</title>
<g id="a_node8"><a xlink:href="classtvm_1_1runtime_1_1ObjectPtr.html" target="_top" xlink:title="{tvm::runtime::ObjectPtr\l\&lt; tvm::runtime::Object \&gt;\n||+ ObjectPtr()\l+ ObjectPtr()\l+ ObjectPtr()\l+ ObjectPtr()\l+ ObjectPtr()\l+ ObjectPtr()\l+ ~ObjectPtr()\l+ swap()\l+ get()\l+ operator&#45;\&gt;()\land 11 more...\l}">
<polygon fill="#ffffff" stroke="#000000" points="422,-1507.5 422,-1685.5 562,-1685.5 562,-1507.5 422,-1507.5"/>
<text text-anchor="start" x="430" y="-1673.5" font-family="Helvetica,sans-Serif" font-size="10.00" fill="#000000">tvm::runtime::ObjectPtr</text>
<text text-anchor="middle" x="492" y="-1662.5" font-family="Helvetica,sans-Serif" font-size="10.00" fill="#000000">&lt; tvm::runtime::Object &gt;</text>
<polyline fill="none" stroke="#000000" points="422,-1655.5 562,-1655.5 "/>
<text text-anchor="middle" x="492" y="-1643.5" font-family="Helvetica,sans-Serif" font-size="10.00" fill="#000000"> </text>
<polyline fill="none" stroke="#000000" points="422,-1636.5 562,-1636.5 "/>
<text text-anchor="start" x="430" y="-1624.5" font-family="Helvetica,sans-Serif" font-size="10.00" fill="#000000">+ ObjectPtr()</text>
<text text-anchor="start" x="430" y="-1613.5" font-family="Helvetica,sans-Serif" font-size="10.00" fill="#000000">+ ObjectPtr()</text>
<text text-anchor="start" x="430" y="-1602.5" font-family="Helvetica,sans-Serif" font-size="10.00" fill="#000000">+ ObjectPtr()</text>
<text text-anchor="start" x="430" y="-1591.5" font-family="Helvetica,sans-Serif" font-size="10.00" fill="#000000">+ ObjectPtr()</text>
<text text-anchor="start" x="430" y="-1580.5" font-family="Helvetica,sans-Serif" font-size="10.00" fill="#000000">+ ObjectPtr()</text>
<text text-anchor="start" x="430" y="-1569.5" font-family="Helvetica,sans-Serif" font-size="10.00" fill="#000000">+ ObjectPtr()</text>
<text text-anchor="start" x="430" y="-1558.5" font-family="Helvetica,sans-Serif" font-size="10.00" fill="#000000">+ ~ObjectPtr()</text>
<text text-anchor="start" x="430" y="-1547.5" font-family="Helvetica,sans-Serif" font-size="10.00" fill="#000000">+ swap()</text>
<text text-anchor="start" x="430" y="-1536.5" font-family="Helvetica,sans-Serif" font-size="10.00" fill="#000000">+ get()</text>
<text text-anchor="start" x="430" y="-1525.5" font-family="Helvetica,sans-Serif" font-size="10.00" fill="#000000">+ operator&#45;&gt;()</text>
<text text-anchor="start" x="430" y="-1514.5" font-family="Helvetica,sans-Serif" font-size="10.00" fill="#000000">and 11 more...</text>
</a>
</g>
</g>
<!-- Node12&#45;&gt;Node11 -->
<g id="edge8" class="edge">
<title>Node12&#45;&gt;Node11</title>
<path fill="none" stroke="#404040" d="M492,-1507.3167C492,-1495.8765 492,-1484.0062 492,-1472.1402"/>
<polygon fill="none" stroke="#404040" points="492.0001,-1471.7944 488,-1465.7944 492,-1459.7944 496,-1465.7943 492.0001,-1471.7944"/>
<text text-anchor="middle" x="511.5" y="-1481" font-family="Helvetica,sans-Serif" font-size="10.00" fill="#000000"> #data_</text>
</g>
<!-- Node13&#45;&gt;Node7 -->
<g id="edge10" class="edge">
<title>Node13&#45;&gt;Node7</title>
<path fill="none" stroke="#404040" d="M309.6483,-670.397C322.3619,-626.6503 346.1577,-548.6975 372,-484 389.3482,-440.5679 411.9974,-393.0422 430.2343,-356.5136"/>
<polygon fill="none" stroke="#404040" points="430.3563,-356.2706 429.4744,-349.1136 435.7416,-345.5468 436.6235,-352.7038 430.3563,-356.2706"/>
<text text-anchor="middle" x="414.5" y="-538" font-family="Helvetica,sans-Serif" font-size="10.00" fill="#000000"> +checked_type_</text>
</g>
<!-- Node14&#45;&gt;Node7 -->
<g id="edge12" class="edge">
<title>Node14&#45;&gt;Node7</title>
<path fill="none" stroke="#404040" d="M460.4352,-615.3922C460.8149,-537.6471 461.3563,-426.8045 461.6925,-357.967"/>
<polygon fill="none" stroke="#404040" points="461.6941,-357.6197 457.7235,-351.6002 461.7528,-345.6198 465.7234,-351.6393 461.6941,-357.6197"/>
<text text-anchor="middle" x="496.5" y="-538" font-family="Helvetica,sans-Serif" font-size="10.00" fill="#000000"> +struct_info_</text>
</g>
<!-- Node15 -->
<g id="node11" class="node">
<title>Node15</title>
<g id="a_node11"><a xlink:href="classtvm_1_1PrimExpr.html" target="_top" xlink:title="Reference to PrimExprNode. ">
<polygon fill="#ffffff" stroke="#000000" points="580,-364.5 580,-465.5 734,-465.5 734,-364.5 580,-364.5"/>
<text text-anchor="middle" x="657" y="-453.5" font-family="Helvetica,sans-Serif" font-size="10.00" fill="#000000">tvm::PrimExpr</text>
<polyline fill="none" stroke="#000000" points="580,-446.5 734,-446.5 "/>
<text text-anchor="middle" x="657" y="-434.5" font-family="Helvetica,sans-Serif" font-size="10.00" fill="#000000"> </text>
<polyline fill="none" stroke="#000000" points="580,-427.5 734,-427.5 "/>
<text text-anchor="start" x="588" y="-415.5" font-family="Helvetica,sans-Serif" font-size="10.00" fill="#000000">+ PrimExpr()</text>
<text text-anchor="start" x="588" y="-404.5" font-family="Helvetica,sans-Serif" font-size="10.00" fill="#000000">+ PrimExpr()</text>
<text text-anchor="start" x="588" y="-393.5" font-family="Helvetica,sans-Serif" font-size="10.00" fill="#000000">+ dtype()</text>
<text text-anchor="start" x="588" y="-382.5" font-family="Helvetica,sans-Serif" font-size="10.00" fill="#000000">+ TVM_DEFINE_OBJECT_REF</text>
<text text-anchor="start" x="588" y="-371.5" font-family="Helvetica,sans-Serif" font-size="10.00" fill="#000000">_METHODS()</text>
</a>
</g>
</g>
<!-- Node15&#45;&gt;Node5 -->
<g id="edge14" class="edge">
<title>Node15&#45;&gt;Node5</title>
<path fill="none" stroke="#404040" d="M654.7303,-364.463C651.0328,-306.3192 641.4602,-208.5063 617,-128 614.3617,-119.3164 610.9144,-110.4086 607.1494,-101.807"/>
<polygon fill="none" stroke="#404040" points="607.0662,-101.6257 600.9272,-97.8424 602.0583,-90.7206 608.1973,-94.5038 607.0662,-101.6257"/>
<text text-anchor="middle" x="657.5" y="-218" font-family="Helvetica,sans-Serif" font-size="10.00" fill="#000000"> +value</text>
</g>
<!-- Node16&#45;&gt;Node15 -->
<g id="edge15" class="edge">
<title>Node16&#45;&gt;Node15</title>
<path fill="none" stroke="#191970" d="M665.3219,-961.4701C663.6806,-853.691 659.5021,-579.3013 657.7701,-465.5719"/>
<polygon fill="none" stroke="#191970" points="661.8253,-961.7253 665.4772,-971.6708 668.8245,-961.6187 661.8253,-961.7253"/>
</g>
</g>
</svg>
