<?xml version="1.0" encoding="UTF-8" standalone="no"?>
<!DOCTYPE svg PUBLIC "-//W3C//DTD SVG 1.1//EN"
 "http://www.w3.org/Graphics/SVG/1.1/DTD/svg11.dtd">
<!-- Generated by graphviz version 2.40.1 (20161225.0304)
 -->
<!-- Title: tvm::relax::StringImmNode Pages: 1 -->
<svg width="714pt" height="1782pt"
 viewBox="0.00 0.00 714.00 1782.00" xmlns="http://www.w3.org/2000/svg" xmlns:xlink="http://www.w3.org/1999/xlink">
<g id="graph0" class="graph" transform="scale(1 1) rotate(0) translate(4 1778)">
<title>tvm::relax::StringImmNode</title>
<polygon fill="#ffffff" stroke="transparent" points="-4,4 -4,-1778 710,-1778 710,4 -4,4"/>
<!-- Node5 -->
<g id="node1" class="node">
<title>Node5</title>
<polygon fill="#bfbfbf" stroke="#000000" points="456.5,-.5 456.5,-90.5 665.5,-90.5 665.5,-.5 456.5,-.5"/>
<text text-anchor="middle" x="561" y="-78.5" font-family="Helvetica,sans-Serif" font-size="10.00" fill="#000000">tvm::relax::StringImmNode</text>
<polyline fill="none" stroke="#000000" points="456.5,-71.5 665.5,-71.5 "/>
<text text-anchor="start" x="464.5" y="-59.5" font-family="Helvetica,sans-Serif" font-size="10.00" fill="#000000">+ _type_key</text>
<polyline fill="none" stroke="#000000" points="456.5,-52.5 665.5,-52.5 "/>
<text text-anchor="start" x="464.5" y="-40.5" font-family="Helvetica,sans-Serif" font-size="10.00" fill="#000000">+ VisitAttrs()</text>
<text text-anchor="start" x="464.5" y="-29.5" font-family="Helvetica,sans-Serif" font-size="10.00" fill="#000000">+ SEqualReduce()</text>
<text text-anchor="start" x="464.5" y="-18.5" font-family="Helvetica,sans-Serif" font-size="10.00" fill="#000000">+ SHashReduce()</text>
<text text-anchor="start" x="464.5" y="-7.5" font-family="Helvetica,sans-Serif" font-size="10.00" fill="#000000">+ TVM_DECLARE_FINAL_OBJECT_INFO()</text>
</g>
<!-- Node6 -->
<g id="node2" class="node">
<title>Node6</title>
<g id="a_node2"><a xlink:href="classtvm_1_1relax_1_1LeafExprNode.html" target="_top" xlink:title="Base type of all (non&#45;function) leaf Exprs. ">
<polygon fill="#ffffff" stroke="#000000" points="386.5,-128.5 386.5,-196.5 593.5,-196.5 593.5,-128.5 386.5,-128.5"/>
<text text-anchor="middle" x="490" y="-184.5" font-family="Helvetica,sans-Serif" font-size="10.00" fill="#000000">tvm::relax::LeafExprNode</text>
<polyline fill="none" stroke="#000000" points="386.5,-177.5 593.5,-177.5 "/>
<text text-anchor="start" x="394.5" y="-165.5" font-family="Helvetica,sans-Serif" font-size="10.00" fill="#000000">+ _type_key</text>
<text text-anchor="start" x="394.5" y="-154.5" font-family="Helvetica,sans-Serif" font-size="10.00" fill="#000000">+ _type_child_slots</text>
<polyline fill="none" stroke="#000000" points="386.5,-147.5 593.5,-147.5 "/>
<text text-anchor="start" x="394.5" y="-135.5" font-family="Helvetica,sans-Serif" font-size="10.00" fill="#000000">+ TVM_DECLARE_BASE_OBJECT_INFO()</text>
</a>
</g>
</g>
<!-- Node6&#45;&gt;Node5 -->
<g id="edge1" class="edge">
<title>Node6&#45;&gt;Node5</title>
<path fill="none" stroke="#191970" d="M516.0505,-119.5718C521.7362,-110.2022 527.7708,-100.2579 533.5107,-90.7993"/>
<polygon fill="none" stroke="#191970" points="512.9228,-117.9794 510.727,-128.3442 518.9071,-121.611 512.9228,-117.9794"/>
</g>
<!-- Node7 -->
<g id="node3" class="node">
<title>Node7</title>
<g id="a_node3"><a xlink:href="classtvm_1_1RelayExprNode.html" target="_top" xlink:title="Base node of all non&#45;primitive expressions. ">
<polygon fill="#ffffff" stroke="#000000" points="358.5,-244.5 358.5,-345.5 565.5,-345.5 565.5,-244.5 358.5,-244.5"/>
<text text-anchor="middle" x="462" y="-333.5" font-family="Helvetica,sans-Serif" font-size="10.00" fill="#000000">ExprNode</text>
<polyline fill="none" stroke="#000000" points="358.5,-326.5 565.5,-326.5 "/>
<text text-anchor="start" x="366.5" y="-314.5" font-family="Helvetica,sans-Serif" font-size="10.00" fill="#000000">+ _type_key</text>
<text text-anchor="start" x="366.5" y="-303.5" font-family="Helvetica,sans-Serif" font-size="10.00" fill="#000000">+ _type_child_slots</text>
<polyline fill="none" stroke="#000000" points="358.5,-296.5 565.5,-296.5 "/>
<text text-anchor="start" x="366.5" y="-284.5" font-family="Helvetica,sans-Serif" font-size="10.00" fill="#000000">+ checked_type()</text>
<text text-anchor="start" x="366.5" y="-273.5" font-family="Helvetica,sans-Serif" font-size="10.00" fill="#000000">+ type_as()</text>
<text text-anchor="start" x="366.5" y="-262.5" font-family="Helvetica,sans-Serif" font-size="10.00" fill="#000000">+ virtual_device()</text>
<text text-anchor="start" x="366.5" y="-251.5" font-family="Helvetica,sans-Serif" font-size="10.00" fill="#000000">+ TVM_DECLARE_BASE_OBJECT_INFO()</text>
</a>
</g>
</g>
<!-- Node7&#45;&gt;Node6 -->
<g id="edge2" class="edge">
<title>Node7&#45;&gt;Node6</title>
<path fill="none" stroke="#191970" d="M474.82,-234.3339C477.5575,-221.3798 480.3556,-208.1389 482.7916,-196.6113"/>
<polygon fill="none" stroke="#191970" points="471.3887,-233.6434 472.7455,-244.151 478.2375,-235.0907 471.3887,-233.6434"/>
</g>
<!-- Node8 -->
<g id="node4" class="node">
<title>Node8</title>
<g id="a_node4"><a xlink:href="classtvm_1_1BaseExprNode.html" target="_top" xlink:title="Base type of all the expressions. ">
<polygon fill="#ffffff" stroke="#000000" points="97.5,-572.5 97.5,-684.5 304.5,-684.5 304.5,-572.5 97.5,-572.5"/>
<text text-anchor="middle" x="201" y="-672.5" font-family="Helvetica,sans-Serif" font-size="10.00" fill="#000000">tvm::BaseExprNode</text>
<polyline fill="none" stroke="#000000" points="97.5,-665.5 304.5,-665.5 "/>
<text text-anchor="start" x="105.5" y="-653.5" font-family="Helvetica,sans-Serif" font-size="10.00" fill="#000000">+ _type_key</text>
<text text-anchor="start" x="105.5" y="-642.5" font-family="Helvetica,sans-Serif" font-size="10.00" fill="#000000">+ _type_has_method_sequal</text>
<text text-anchor="start" x="105.5" y="-631.5" font-family="Helvetica,sans-Serif" font-size="10.00" fill="#000000">_reduce</text>
<text text-anchor="start" x="105.5" y="-620.5" font-family="Helvetica,sans-Serif" font-size="10.00" fill="#000000">+ _type_has_method_shash</text>
<text text-anchor="start" x="105.5" y="-609.5" font-family="Helvetica,sans-Serif" font-size="10.00" fill="#000000">_reduce</text>
<text text-anchor="start" x="105.5" y="-598.5" font-family="Helvetica,sans-Serif" font-size="10.00" fill="#000000">+ _type_child_slots</text>
<polyline fill="none" stroke="#000000" points="97.5,-591.5 304.5,-591.5 "/>
<text text-anchor="start" x="105.5" y="-579.5" font-family="Helvetica,sans-Serif" font-size="10.00" fill="#000000">+ TVM_DECLARE_BASE_OBJECT_INFO()</text>
</a>
</g>
</g>
<!-- Node8&#45;&gt;Node7 -->
<g id="edge3" class="edge">
<title>Node8&#45;&gt;Node7</title>
<path fill="none" stroke="#191970" d="M219.1157,-562.5649C237.9539,-504.3016 272.4439,-420.1016 327,-364 336.1752,-354.5649 346.9161,-346.1833 358.2612,-338.8035"/>
<polygon fill="none" stroke="#191970" points="215.6818,-561.8158 216.0026,-572.4058 222.3558,-563.9272 215.6818,-561.8158"/>
</g>
<!-- Node9 -->
<g id="node5" class="node">
<title>Node9</title>
<g id="a_node5"><a xlink:href="classtvm_1_1runtime_1_1Object.html" target="_top" xlink:title="base class of all object containers. ">
<polygon fill="#ffffff" stroke="#000000" points="172.5,-900.5 172.5,-1287.5 355.5,-1287.5 355.5,-900.5 172.5,-900.5"/>
<text text-anchor="middle" x="264" y="-1275.5" font-family="Helvetica,sans-Serif" font-size="10.00" fill="#000000">tvm::runtime::Object</text>
<polyline fill="none" stroke="#000000" points="172.5,-1268.5 355.5,-1268.5 "/>
<text text-anchor="start" x="180.5" y="-1256.5" font-family="Helvetica,sans-Serif" font-size="10.00" fill="#000000">+ _type_key</text>
<text text-anchor="start" x="180.5" y="-1245.5" font-family="Helvetica,sans-Serif" font-size="10.00" fill="#000000">+ _type_final</text>
<text text-anchor="start" x="180.5" y="-1234.5" font-family="Helvetica,sans-Serif" font-size="10.00" fill="#000000">+ _type_child_slots</text>
<text text-anchor="start" x="180.5" y="-1223.5" font-family="Helvetica,sans-Serif" font-size="10.00" fill="#000000">+ _type_child_slots_can</text>
<text text-anchor="start" x="180.5" y="-1212.5" font-family="Helvetica,sans-Serif" font-size="10.00" fill="#000000">_overflow</text>
<text text-anchor="start" x="180.5" y="-1201.5" font-family="Helvetica,sans-Serif" font-size="10.00" fill="#000000">+ _type_has_method_visit</text>
<text text-anchor="start" x="180.5" y="-1190.5" font-family="Helvetica,sans-Serif" font-size="10.00" fill="#000000">_attrs</text>
<text text-anchor="start" x="180.5" y="-1179.5" font-family="Helvetica,sans-Serif" font-size="10.00" fill="#000000">+ _type_has_method_sequal</text>
<text text-anchor="start" x="180.5" y="-1168.5" font-family="Helvetica,sans-Serif" font-size="10.00" fill="#000000">_reduce</text>
<text text-anchor="start" x="180.5" y="-1157.5" font-family="Helvetica,sans-Serif" font-size="10.00" fill="#000000">+ _type_has_method_shash</text>
<text text-anchor="start" x="180.5" y="-1146.5" font-family="Helvetica,sans-Serif" font-size="10.00" fill="#000000">_reduce</text>
<text text-anchor="start" x="180.5" y="-1135.5" font-family="Helvetica,sans-Serif" font-size="10.00" fill="#000000">+ _type_index</text>
<text text-anchor="start" x="180.5" y="-1124.5" font-family="Helvetica,sans-Serif" font-size="10.00" fill="#000000"># type_index_</text>
<text text-anchor="start" x="180.5" y="-1113.5" font-family="Helvetica,sans-Serif" font-size="10.00" fill="#000000"># ref_counter_</text>
<polyline fill="none" stroke="#000000" points="172.5,-1106.5 355.5,-1106.5 "/>
<text text-anchor="start" x="180.5" y="-1094.5" font-family="Helvetica,sans-Serif" font-size="10.00" fill="#000000">+ type_index()</text>
<text text-anchor="start" x="180.5" y="-1083.5" font-family="Helvetica,sans-Serif" font-size="10.00" fill="#000000">+ GetTypeKey()</text>
<text text-anchor="start" x="180.5" y="-1072.5" font-family="Helvetica,sans-Serif" font-size="10.00" fill="#000000">+ GetTypeKeyHash()</text>
<text text-anchor="start" x="180.5" y="-1061.5" font-family="Helvetica,sans-Serif" font-size="10.00" fill="#000000">+ IsInstance()</text>
<text text-anchor="start" x="180.5" y="-1050.5" font-family="Helvetica,sans-Serif" font-size="10.00" fill="#000000">+ unique()</text>
<text text-anchor="start" x="180.5" y="-1039.5" font-family="Helvetica,sans-Serif" font-size="10.00" fill="#000000">+ Object()</text>
<text text-anchor="start" x="180.5" y="-1028.5" font-family="Helvetica,sans-Serif" font-size="10.00" fill="#000000">+ Object()</text>
<text text-anchor="start" x="180.5" y="-1017.5" font-family="Helvetica,sans-Serif" font-size="10.00" fill="#000000">+ Object()</text>
<text text-anchor="start" x="180.5" y="-1006.5" font-family="Helvetica,sans-Serif" font-size="10.00" fill="#000000">+ operator=()</text>
<text text-anchor="start" x="180.5" y="-995.5" font-family="Helvetica,sans-Serif" font-size="10.00" fill="#000000">+ operator=()</text>
<text text-anchor="start" x="180.5" y="-984.5" font-family="Helvetica,sans-Serif" font-size="10.00" fill="#000000">+ TypeIndex2Key()</text>
<text text-anchor="start" x="180.5" y="-973.5" font-family="Helvetica,sans-Serif" font-size="10.00" fill="#000000">+ TypeIndex2KeyHash()</text>
<text text-anchor="start" x="180.5" y="-962.5" font-family="Helvetica,sans-Serif" font-size="10.00" fill="#000000">+ TypeKey2Index()</text>
<text text-anchor="start" x="180.5" y="-951.5" font-family="Helvetica,sans-Serif" font-size="10.00" fill="#000000">+ _GetOrAllocRuntimeTypeIndex()</text>
<text text-anchor="start" x="180.5" y="-940.5" font-family="Helvetica,sans-Serif" font-size="10.00" fill="#000000">+ RuntimeTypeIndex()</text>
<text text-anchor="start" x="180.5" y="-929.5" font-family="Helvetica,sans-Serif" font-size="10.00" fill="#000000"># IncRef()</text>
<text text-anchor="start" x="180.5" y="-918.5" font-family="Helvetica,sans-Serif" font-size="10.00" fill="#000000"># DecRef()</text>
<text text-anchor="start" x="180.5" y="-907.5" font-family="Helvetica,sans-Serif" font-size="10.00" fill="#000000"># GetOrAllocRuntimeTypeIndex()</text>
</a>
</g>
</g>
<!-- Node9&#45;&gt;Node8 -->
<g id="edge4" class="edge">
<title>Node9&#45;&gt;Node8</title>
<path fill="none" stroke="#191970" d="M220.2038,-890.2795C219.7883,-887.5043 219.3867,-884.7434 219,-882 209.4861,-814.4999 204.8997,-736.1419 202.7583,-684.6175"/>
<polygon fill="none" stroke="#191970" points="216.7792,-891.0368 221.7662,-900.3845 223.697,-889.967 216.7792,-891.0368"/>
</g>
<!-- Node9&#45;&gt;Node9 -->
<g id="edge5" class="edge">
<title>Node9&#45;&gt;Node9</title>
<path fill="none" stroke="#404040" d="M355.8625,-1127.9248C366.5482,-1121.6637 373.5,-1110.3555 373.5,-1094 373.5,-1083.0112 370.3618,-1074.3007 365.0615,-1067.8687"/>
<polygon fill="none" stroke="#404040" points="365.0184,-1067.8322 357.8548,-1067.0056 355.8625,-1060.0752 363.0261,-1060.9017 365.0184,-1067.8322"/>
<text text-anchor="middle" x="399.5" y="-1091.5" font-family="Helvetica,sans-Serif" font-size="10.00" fill="#000000"> #deleter_</text>
</g>
<!-- Node10 -->
<g id="node6" class="node">
<title>Node10</title>
<g id="a_node6"><a xlink:href="classtvm_1_1Span.html" target="_top" xlink:title="{tvm::Span\n||+ Span()\l+ Merge()\l+ TVM_DEFINE_OBJECT_REF\l_METHODS()\l}">
<polygon fill="#ffffff" stroke="#000000" points="0,-1049 0,-1139 154,-1139 154,-1049 0,-1049"/>
<text text-anchor="middle" x="77" y="-1127" font-family="Helvetica,sans-Serif" font-size="10.00" fill="#000000">tvm::Span</text>
<polyline fill="none" stroke="#000000" points="0,-1120 154,-1120 "/>
<text text-anchor="middle" x="77" y="-1108" font-family="Helvetica,sans-Serif" font-size="10.00" fill="#000000"> </text>
<polyline fill="none" stroke="#000000" points="0,-1101 154,-1101 "/>
<text text-anchor="start" x="8" y="-1089" font-family="Helvetica,sans-Serif" font-size="10.00" fill="#000000">+ Span()</text>
<text text-anchor="start" x="8" y="-1078" font-family="Helvetica,sans-Serif" font-size="10.00" fill="#000000">+ Merge()</text>
<text text-anchor="start" x="8" y="-1067" font-family="Helvetica,sans-Serif" font-size="10.00" fill="#000000">+ TVM_DEFINE_OBJECT_REF</text>
<text text-anchor="start" x="8" y="-1056" font-family="Helvetica,sans-Serif" font-size="10.00" fill="#000000">_METHODS()</text>
</a>
</g>
</g>
<!-- Node10&#45;&gt;Node8 -->
<g id="edge6" class="edge">
<title>Node10&#45;&gt;Node8</title>
<path fill="none" stroke="#404040" d="M83.7176,-1048.8004C95.4451,-975.0125 122.5308,-824.6995 165,-703 165.7809,-700.7621 166.6108,-698.5033 167.4799,-696.2354"/>
<polygon fill="none" stroke="#404040" points="167.5803,-695.989 166.1407,-688.923 172.1094,-684.8764 173.549,-691.9424 167.5803,-695.989"/>
<text text-anchor="middle" x="182.5" y="-790" font-family="Helvetica,sans-Serif" font-size="10.00" fill="#000000"> +span</text>
</g>
<!-- Node11 -->
<g id="node7" class="node">
<title>Node11</title>
<g id="a_node7"><a xlink:href="classtvm_1_1runtime_1_1ObjectRef.html" target="_top" xlink:title="Base class of all object reference. ">
<polygon fill="#ffffff" stroke="#000000" points="425,-1325.5 425,-1547.5 559,-1547.5 559,-1325.5 425,-1325.5"/>
<text text-anchor="middle" x="492" y="-1535.5" font-family="Helvetica,sans-Serif" font-size="10.00" fill="#000000">tvm::runtime::ObjectRef</text>
<polyline fill="none" stroke="#000000" points="425,-1528.5 559,-1528.5 "/>
<text text-anchor="start" x="433" y="-1516.5" font-family="Helvetica,sans-Serif" font-size="10.00" fill="#000000">+ _type_is_nullable</text>
<polyline fill="none" stroke="#000000" points="425,-1509.5 559,-1509.5 "/>
<text text-anchor="start" x="433" y="-1497.5" font-family="Helvetica,sans-Serif" font-size="10.00" fill="#000000">+ ObjectRef()</text>
<text text-anchor="start" x="433" y="-1486.5" font-family="Helvetica,sans-Serif" font-size="10.00" fill="#000000">+ ObjectRef()</text>
<text text-anchor="start" x="433" y="-1475.5" font-family="Helvetica,sans-Serif" font-size="10.00" fill="#000000">+ same_as()</text>
<text text-anchor="start" x="433" y="-1464.5" font-family="Helvetica,sans-Serif" font-size="10.00" fill="#000000">+ operator==()</text>
<text text-anchor="start" x="433" y="-1453.5" font-family="Helvetica,sans-Serif" font-size="10.00" fill="#000000">+ operator!=()</text>
<text text-anchor="start" x="433" y="-1442.5" font-family="Helvetica,sans-Serif" font-size="10.00" fill="#000000">+ operator&lt;()</text>
<text text-anchor="start" x="433" y="-1431.5" font-family="Helvetica,sans-Serif" font-size="10.00" fill="#000000">+ defined()</text>
<text text-anchor="start" x="433" y="-1420.5" font-family="Helvetica,sans-Serif" font-size="10.00" fill="#000000">+ get()</text>
<text text-anchor="start" x="433" y="-1409.5" font-family="Helvetica,sans-Serif" font-size="10.00" fill="#000000">+ operator&#45;&gt;()</text>
<text text-anchor="start" x="433" y="-1398.5" font-family="Helvetica,sans-Serif" font-size="10.00" fill="#000000">+ unique()</text>
<text text-anchor="start" x="433" y="-1387.5" font-family="Helvetica,sans-Serif" font-size="10.00" fill="#000000">+ use_count()</text>
<text text-anchor="start" x="433" y="-1376.5" font-family="Helvetica,sans-Serif" font-size="10.00" fill="#000000">+ as()</text>
<text text-anchor="start" x="433" y="-1365.5" font-family="Helvetica,sans-Serif" font-size="10.00" fill="#000000"># get_mutable()</text>
<text text-anchor="start" x="433" y="-1354.5" font-family="Helvetica,sans-Serif" font-size="10.00" fill="#000000"># DowncastNoCheck()</text>
<text text-anchor="start" x="433" y="-1343.5" font-family="Helvetica,sans-Serif" font-size="10.00" fill="#000000"># FFIClearAfterMove()</text>
<text text-anchor="start" x="433" y="-1332.5" font-family="Helvetica,sans-Serif" font-size="10.00" fill="#000000"># GetDataPtr()</text>
</a>
</g>
</g>
<!-- Node11&#45;&gt;Node7 -->
<g id="edge9" class="edge">
<title>Node11&#45;&gt;Node7</title>
<path fill="none" stroke="#404040" d="M511.1165,-1325.2901C536.4303,-1160.0471 573.5188,-840.3317 534,-572 522.9552,-497.0064 499.5052,-413.0243 482.3573,-357.3986"/>
<polygon fill="none" stroke="#404040" points="482.2595,-357.0841 476.6565,-352.5447 478.6918,-345.6267 484.2948,-350.1662 482.2595,-357.0841"/>
<text text-anchor="middle" x="594" y="-790" font-family="Helvetica,sans-Serif" font-size="10.00" fill="#000000"> +virtual_device_</text>
</g>
<!-- Node11&#45;&gt;Node10 -->
<g id="edge7" class="edge">
<title>Node11&#45;&gt;Node10</title>
<path fill="none" stroke="#191970" d="M414.7088,-1418.692C341.5072,-1398.2625 232.701,-1358.1712 163,-1288 121.9781,-1246.7014 98.8335,-1182.4822 87.1249,-1139.3665"/>
<polygon fill="none" stroke="#191970" points="414.225,-1422.1879 424.7938,-1421.4453 416.0686,-1415.4351 414.225,-1422.1879"/>
</g>
<!-- Node13 -->
<g id="node9" class="node">
<title>Node13</title>
<g id="a_node9"><a xlink:href="classtvm_1_1Type.html" target="_top" xlink:title="Managed reference to TypeNode. ">
<polygon fill="#ffffff" stroke="#000000" points="223,-758.5 223,-826.5 377,-826.5 377,-758.5 223,-758.5"/>
<text text-anchor="middle" x="300" y="-814.5" font-family="Helvetica,sans-Serif" font-size="10.00" fill="#000000">tvm::Type</text>
<polyline fill="none" stroke="#000000" points="223,-807.5 377,-807.5 "/>
<text text-anchor="middle" x="300" y="-795.5" font-family="Helvetica,sans-Serif" font-size="10.00" fill="#000000"> </text>
<polyline fill="none" stroke="#000000" points="223,-788.5 377,-788.5 "/>
<text text-anchor="start" x="231" y="-776.5" font-family="Helvetica,sans-Serif" font-size="10.00" fill="#000000">+ TVM_DEFINE_OBJECT_REF</text>
<text text-anchor="start" x="231" y="-765.5" font-family="Helvetica,sans-Serif" font-size="10.00" fill="#000000">_METHODS()</text>
</a>
</g>
</g>
<!-- Node11&#45;&gt;Node13 -->
<g id="edge11" class="edge">
<title>Node11&#45;&gt;Node13</title>
<path fill="none" stroke="#191970" d="M471.6487,-1315.161C470.336,-1305.981 469.1014,-1296.8499 468,-1288 457.3106,-1202.11 487.4354,-968.0883 434,-900 418.6416,-880.43 401.7909,-895.6603 381,-882 358.7564,-867.3852 338.6478,-845.2443 324.0302,-826.6414"/>
<polygon fill="none" stroke="#191970" points="468.1959,-1315.7395 473.1011,-1325.1305 475.1228,-1314.7303 468.1959,-1315.7395"/>
</g>
<!-- Node14 -->
<g id="node10" class="node">
<title>Node14</title>
<g id="a_node10"><a xlink:href="classtvm_1_1runtime_1_1Optional.html" target="_top" xlink:title="{tvm::runtime::Optional\l\&lt; tvm::runtime::ObjectRef \&gt;\n|+ _type_is_nullable\l|+ Optional()\l+ Optional()\l+ Optional()\l+ Optional()\l+ Optional()\l+ Optional()\l+ Optional()\l+ Optional()\l+ operator=()\l+ operator=()\land 15 more...\l}">
<polygon fill="#ffffff" stroke="#000000" points="382,-703.5 382,-881.5 538,-881.5 538,-703.5 382,-703.5"/>
<text text-anchor="start" x="390" y="-869.5" font-family="Helvetica,sans-Serif" font-size="10.00" fill="#000000">tvm::runtime::Optional</text>
<text text-anchor="middle" x="460" y="-858.5" font-family="Helvetica,sans-Serif" font-size="10.00" fill="#000000">&lt; tvm::runtime::ObjectRef &gt;</text>
<polyline fill="none" stroke="#000000" points="382,-851.5 538,-851.5 "/>
<text text-anchor="start" x="390" y="-839.5" font-family="Helvetica,sans-Serif" font-size="10.00" fill="#000000">+ _type_is_nullable</text>
<polyline fill="none" stroke="#000000" points="382,-832.5 538,-832.5 "/>
<text text-anchor="start" x="390" y="-820.5" font-family="Helvetica,sans-Serif" font-size="10.00" fill="#000000">+ Optional()</text>
<text text-anchor="start" x="390" y="-809.5" font-family="Helvetica,sans-Serif" font-size="10.00" fill="#000000">+ Optional()</text>
<text text-anchor="start" x="390" y="-798.5" font-family="Helvetica,sans-Serif" font-size="10.00" fill="#000000">+ Optional()</text>
<text text-anchor="start" x="390" y="-787.5" font-family="Helvetica,sans-Serif" font-size="10.00" fill="#000000">+ Optional()</text>
<text text-anchor="start" x="390" y="-776.5" font-family="Helvetica,sans-Serif" font-size="10.00" fill="#000000">+ Optional()</text>
<text text-anchor="start" x="390" y="-765.5" font-family="Helvetica,sans-Serif" font-size="10.00" fill="#000000">+ Optional()</text>
<text text-anchor="start" x="390" y="-754.5" font-family="Helvetica,sans-Serif" font-size="10.00" fill="#000000">+ Optional()</text>
<text text-anchor="start" x="390" y="-743.5" font-family="Helvetica,sans-Serif" font-size="10.00" fill="#000000">+ Optional()</text>
<text text-anchor="start" x="390" y="-732.5" font-family="Helvetica,sans-Serif" font-size="10.00" fill="#000000">+ operator=()</text>
<text text-anchor="start" x="390" y="-721.5" font-family="Helvetica,sans-Serif" font-size="10.00" fill="#000000">+ operator=()</text>
<text text-anchor="start" x="390" y="-710.5" font-family="Helvetica,sans-Serif" font-size="10.00" fill="#000000">and 15 more...</text>
</a>
</g>
</g>
<!-- Node11&#45;&gt;Node14 -->
<g id="edge13" class="edge">
<title>Node11&#45;&gt;Node14</title>
<path fill="none" stroke="#191970" d="M487.6078,-1315.456C483.4174,-1206.6842 476.4937,-1042.5997 468,-900 467.6439,-894.0219 467.2519,-887.8586 466.8384,-881.6498"/>
<polygon fill="none" stroke="#191970" points="484.1114,-1315.6205 487.9922,-1325.479 491.1063,-1315.3522 484.1114,-1315.6205"/>
</g>
<!-- Node15 -->
<g id="node11" class="node">
<title>Node15</title>
<g id="a_node11"><a xlink:href="classtvm_1_1runtime_1_1String.html" target="_top" xlink:title="Reference to string objects. ">
<polygon fill="#ffffff" stroke="#000000" points="590,-364.5 590,-553.5 706,-553.5 706,-364.5 590,-364.5"/>
<text text-anchor="middle" x="648" y="-541.5" font-family="Helvetica,sans-Serif" font-size="10.00" fill="#000000">tvm::runtime::String</text>
<polyline fill="none" stroke="#000000" points="590,-534.5 706,-534.5 "/>
<text text-anchor="middle" x="648" y="-522.5" font-family="Helvetica,sans-Serif" font-size="10.00" fill="#000000"> </text>
<polyline fill="none" stroke="#000000" points="590,-515.5 706,-515.5 "/>
<text text-anchor="start" x="598" y="-503.5" font-family="Helvetica,sans-Serif" font-size="10.00" fill="#000000">+ String()</text>
<text text-anchor="start" x="598" y="-492.5" font-family="Helvetica,sans-Serif" font-size="10.00" fill="#000000">+ String()</text>
<text text-anchor="start" x="598" y="-481.5" font-family="Helvetica,sans-Serif" font-size="10.00" fill="#000000">+ String()</text>
<text text-anchor="start" x="598" y="-470.5" font-family="Helvetica,sans-Serif" font-size="10.00" fill="#000000">+ String()</text>
<text text-anchor="start" x="598" y="-459.5" font-family="Helvetica,sans-Serif" font-size="10.00" fill="#000000">+ operator=()</text>
<text text-anchor="start" x="598" y="-448.5" font-family="Helvetica,sans-Serif" font-size="10.00" fill="#000000">+ operator=()</text>
<text text-anchor="start" x="598" y="-437.5" font-family="Helvetica,sans-Serif" font-size="10.00" fill="#000000">+ compare()</text>
<text text-anchor="start" x="598" y="-426.5" font-family="Helvetica,sans-Serif" font-size="10.00" fill="#000000">+ compare()</text>
<text text-anchor="start" x="598" y="-415.5" font-family="Helvetica,sans-Serif" font-size="10.00" fill="#000000">+ compare()</text>
<text text-anchor="start" x="598" y="-404.5" font-family="Helvetica,sans-Serif" font-size="10.00" fill="#000000">+ c_str()</text>
<text text-anchor="start" x="598" y="-393.5" font-family="Helvetica,sans-Serif" font-size="10.00" fill="#000000">and 6 more...</text>
<text text-anchor="start" x="598" y="-382.5" font-family="Helvetica,sans-Serif" font-size="10.00" fill="#000000">+ CanConvertFrom()</text>
<text text-anchor="start" x="598" y="-371.5" font-family="Helvetica,sans-Serif" font-size="10.00" fill="#000000">+ HashBytes()</text>
</a>
</g>
</g>
<!-- Node11&#45;&gt;Node15 -->
<g id="edge15" class="edge">
<title>Node11&#45;&gt;Node15</title>
<path fill="none" stroke="#191970" d="M563.8084,-1331.9099C567.9744,-1323.6725 571.773,-1315.319 575,-1307 675.0662,-1049.0351 667.8024,-714.7543 656.684,-553.8137"/>
<polygon fill="none" stroke="#191970" points="560.6936,-1330.3133 559.1532,-1340.7956 566.8942,-1333.5618 560.6936,-1330.3133"/>
</g>
<!-- Node12 -->
<g id="node8" class="node">
<title>Node12</title>
<g id="a_node8"><a xlink:href="classtvm_1_1runtime_1_1ObjectPtr.html" target="_top" xlink:title="{tvm::runtime::ObjectPtr\l\&lt; tvm::runtime::Object \&gt;\n||+ ObjectPtr()\l+ ObjectPtr()\l+ ObjectPtr()\l+ ObjectPtr()\l+ ObjectPtr()\l+ ObjectPtr()\l+ ~ObjectPtr()\l+ swap()\l+ get()\l+ operator&#45;\&gt;()\land 11 more...\l}">
<polygon fill="#ffffff" stroke="#000000" points="422,-1595.5 422,-1773.5 562,-1773.5 562,-1595.5 422,-1595.5"/>
<text text-anchor="start" x="430" y="-1761.5" font-family="Helvetica,sans-Serif" font-size="10.00" fill="#000000">tvm::runtime::ObjectPtr</text>
<text text-anchor="middle" x="492" y="-1750.5" font-family="Helvetica,sans-Serif" font-size="10.00" fill="#000000">&lt; tvm::runtime::Object &gt;</text>
<polyline fill="none" stroke="#000000" points="422,-1743.5 562,-1743.5 "/>
<text text-anchor="middle" x="492" y="-1731.5" font-family="Helvetica,sans-Serif" font-size="10.00" fill="#000000"> </text>
<polyline fill="none" stroke="#000000" points="422,-1724.5 562,-1724.5 "/>
<text text-anchor="start" x="430" y="-1712.5" font-family="Helvetica,sans-Serif" font-size="10.00" fill="#000000">+ ObjectPtr()</text>
<text text-anchor="start" x="430" y="-1701.5" font-family="Helvetica,sans-Serif" font-size="10.00" fill="#000000">+ ObjectPtr()</text>
<text text-anchor="start" x="430" y="-1690.5" font-family="Helvetica,sans-Serif" font-size="10.00" fill="#000000">+ ObjectPtr()</text>
<text text-anchor="start" x="430" y="-1679.5" font-family="Helvetica,sans-Serif" font-size="10.00" fill="#000000">+ ObjectPtr()</text>
<text text-anchor="start" x="430" y="-1668.5" font-family="Helvetica,sans-Serif" font-size="10.00" fill="#000000">+ ObjectPtr()</text>
<text text-anchor="start" x="430" y="-1657.5" font-family="Helvetica,sans-Serif" font-size="10.00" fill="#000000">+ ObjectPtr()</text>
<text text-anchor="start" x="430" y="-1646.5" font-family="Helvetica,sans-Serif" font-size="10.00" fill="#000000">+ ~ObjectPtr()</text>
<text text-anchor="start" x="430" y="-1635.5" font-family="Helvetica,sans-Serif" font-size="10.00" fill="#000000">+ swap()</text>
<text text-anchor="start" x="430" y="-1624.5" font-family="Helvetica,sans-Serif" font-size="10.00" fill="#000000">+ get()</text>
<text text-anchor="start" x="430" y="-1613.5" font-family="Helvetica,sans-Serif" font-size="10.00" fill="#000000">+ operator&#45;&gt;()</text>
<text text-anchor="start" x="430" y="-1602.5" font-family="Helvetica,sans-Serif" font-size="10.00" fill="#000000">and 11 more...</text>
</a>
</g>
</g>
<!-- Node12&#45;&gt;Node11 -->
<g id="edge8" class="edge">
<title>Node12&#45;&gt;Node11</title>
<path fill="none" stroke="#404040" d="M492,-1595.3167C492,-1583.8765 492,-1572.0062 492,-1560.1402"/>
<polygon fill="none" stroke="#404040" points="492.0001,-1559.7944 488,-1553.7944 492,-1547.7944 496,-1553.7943 492.0001,-1559.7944"/>
<text text-anchor="middle" x="511.5" y="-1569" font-family="Helvetica,sans-Serif" font-size="10.00" fill="#000000"> #data_</text>
</g>
<!-- Node13&#45;&gt;Node7 -->
<g id="edge10" class="edge">
<title>Node13&#45;&gt;Node7</title>
<path fill="none" stroke="#404040" d="M311.1349,-758.3048C338.1101,-675.4643 407.2724,-463.0678 441.7835,-357.0847"/>
<polygon fill="none" stroke="#404040" points="441.799,-357.0369 439.8533,-350.0933 445.5145,-345.6266 447.4602,-352.5703 441.799,-357.0369"/>
<text text-anchor="middle" x="413.5" y="-626" font-family="Helvetica,sans-Serif" font-size="10.00" fill="#000000"> +checked_type_</text>
</g>
<!-- Node14&#45;&gt;Node7 -->
<g id="edge12" class="edge">
<title>Node14&#45;&gt;Node7</title>
<path fill="none" stroke="#404040" d="M460.3587,-703.2698C460.7593,-603.6247 461.3973,-444.9096 461.7483,-357.6221"/>
<polygon fill="none" stroke="#404040" points="461.7485,-357.5352 457.7727,-351.5191 461.7968,-345.5353 465.7726,-351.5513 461.7485,-357.5352"/>
<text text-anchor="middle" x="495.5" y="-626" font-family="Helvetica,sans-Serif" font-size="10.00" fill="#000000"> +struct_info_</text>
</g>
<!-- Node15&#45;&gt;Node5 -->
<g id="edge14" class="edge">
<title>Node15&#45;&gt;Node5</title>
<path fill="none" stroke="#404040" d="M643.5778,-364.4381C638.4139,-297.2206 627.227,-205.4926 603,-128 600.2656,-119.2538 596.6659,-110.3113 592.722,-101.6936"/>
<polygon fill="none" stroke="#404040" points="592.5853,-101.4094 586.3795,-97.7368 587.3827,-90.5958 593.5885,-94.2684 592.5853,-101.4094"/>
<text text-anchor="middle" x="645.5" y="-218" font-family="Helvetica,sans-Serif" font-size="10.00" fill="#000000"> +value</text>
</g>
</g>
</svg>
