<?xml version="1.0" encoding="UTF-8" standalone="no"?>
<!DOCTYPE svg PUBLIC "-//W3C//DTD SVG 1.1//EN"
 "http://www.w3.org/Graphics/SVG/1.1/DTD/svg11.dtd">
<!-- Generated by graphviz version 2.40.1 (20161225.0304)
 -->
<!-- Title: tvm::relax::CallNode Pages: 1 -->
<svg width="1278pt" height="1731pt"
 viewBox="0.00 0.00 1277.50 1731.00" xmlns="http://www.w3.org/2000/svg" xmlns:xlink="http://www.w3.org/1999/xlink">
<g id="graph0" class="graph" transform="scale(1 1) rotate(0) translate(4 1727)">
<title>tvm::relax::CallNode</title>
<polygon fill="#ffffff" stroke="transparent" points="-4,4 -4,-1727 1273.5,-1727 1273.5,4 -4,4"/>
<!-- Node4 -->
<g id="node1" class="node">
<title>Node4</title>
<polygon fill="#bfbfbf" stroke="#000000" points="862,-.5 862,-90.5 1071,-90.5 1071,-.5 862,-.5"/>
<text text-anchor="middle" x="966.5" y="-78.5" font-family="Helvetica,sans-Serif" font-size="10.00" fill="#000000">tvm::relax::CallNode</text>
<polyline fill="none" stroke="#000000" points="862,-71.5 1071,-71.5 "/>
<text text-anchor="start" x="870" y="-59.5" font-family="Helvetica,sans-Serif" font-size="10.00" fill="#000000">+ _type_key</text>
<polyline fill="none" stroke="#000000" points="862,-52.5 1071,-52.5 "/>
<text text-anchor="start" x="870" y="-40.5" font-family="Helvetica,sans-Serif" font-size="10.00" fill="#000000">+ VisitAttrs()</text>
<text text-anchor="start" x="870" y="-29.5" font-family="Helvetica,sans-Serif" font-size="10.00" fill="#000000">+ SEqualReduce()</text>
<text text-anchor="start" x="870" y="-18.5" font-family="Helvetica,sans-Serif" font-size="10.00" fill="#000000">+ SHashReduce()</text>
<text text-anchor="start" x="870" y="-7.5" font-family="Helvetica,sans-Serif" font-size="10.00" fill="#000000">+ TVM_DECLARE_FINAL_OBJECT_INFO()</text>
</g>
<!-- Node5 -->
<g id="node2" class="node">
<title>Node5</title>
<g id="a_node2"><a xlink:href="classtvm_1_1RelayExprNode.html" target="_top" xlink:title="Base node of all non&#45;primitive expressions. ">
<polygon fill="#ffffff" stroke="#000000" points="518,-138.5 518,-239.5 725,-239.5 725,-138.5 518,-138.5"/>
<text text-anchor="middle" x="621.5" y="-227.5" font-family="Helvetica,sans-Serif" font-size="10.00" fill="#000000">ExprNode</text>
<polyline fill="none" stroke="#000000" points="518,-220.5 725,-220.5 "/>
<text text-anchor="start" x="526" y="-208.5" font-family="Helvetica,sans-Serif" font-size="10.00" fill="#000000">+ _type_key</text>
<text text-anchor="start" x="526" y="-197.5" font-family="Helvetica,sans-Serif" font-size="10.00" fill="#000000">+ _type_child_slots</text>
<polyline fill="none" stroke="#000000" points="518,-190.5 725,-190.5 "/>
<text text-anchor="start" x="526" y="-178.5" font-family="Helvetica,sans-Serif" font-size="10.00" fill="#000000">+ checked_type()</text>
<text text-anchor="start" x="526" y="-167.5" font-family="Helvetica,sans-Serif" font-size="10.00" fill="#000000">+ type_as()</text>
<text text-anchor="start" x="526" y="-156.5" font-family="Helvetica,sans-Serif" font-size="10.00" fill="#000000">+ virtual_device()</text>
<text text-anchor="start" x="526" y="-145.5" font-family="Helvetica,sans-Serif" font-size="10.00" fill="#000000">+ TVM_DECLARE_BASE_OBJECT_INFO()</text>
</a>
</g>
</g>
<!-- Node5&#45;&gt;Node4 -->
<g id="edge1" class="edge">
<title>Node5&#45;&gt;Node4</title>
<path fill="none" stroke="#191970" d="M734.4953,-142.0005C775.5003,-124.9448 821.6176,-105.7627 861.8693,-89.0203"/>
<polygon fill="none" stroke="#191970" points="732.9003,-138.8732 725.0114,-145.9453 735.5887,-145.3364 732.9003,-138.8732"/>
</g>
<!-- Node6 -->
<g id="node3" class="node">
<title>Node6</title>
<g id="a_node3"><a xlink:href="classtvm_1_1BaseExprNode.html" target="_top" xlink:title="Base type of all the expressions. ">
<polygon fill="#ffffff" stroke="#000000" points="218,-488.5 218,-600.5 425,-600.5 425,-488.5 218,-488.5"/>
<text text-anchor="middle" x="321.5" y="-588.5" font-family="Helvetica,sans-Serif" font-size="10.00" fill="#000000">tvm::BaseExprNode</text>
<polyline fill="none" stroke="#000000" points="218,-581.5 425,-581.5 "/>
<text text-anchor="start" x="226" y="-569.5" font-family="Helvetica,sans-Serif" font-size="10.00" fill="#000000">+ _type_key</text>
<text text-anchor="start" x="226" y="-558.5" font-family="Helvetica,sans-Serif" font-size="10.00" fill="#000000">+ _type_has_method_sequal</text>
<text text-anchor="start" x="226" y="-547.5" font-family="Helvetica,sans-Serif" font-size="10.00" fill="#000000">_reduce</text>
<text text-anchor="start" x="226" y="-536.5" font-family="Helvetica,sans-Serif" font-size="10.00" fill="#000000">+ _type_has_method_shash</text>
<text text-anchor="start" x="226" y="-525.5" font-family="Helvetica,sans-Serif" font-size="10.00" fill="#000000">_reduce</text>
<text text-anchor="start" x="226" y="-514.5" font-family="Helvetica,sans-Serif" font-size="10.00" fill="#000000">+ _type_child_slots</text>
<polyline fill="none" stroke="#000000" points="218,-507.5 425,-507.5 "/>
<text text-anchor="start" x="226" y="-495.5" font-family="Helvetica,sans-Serif" font-size="10.00" fill="#000000">+ TVM_DECLARE_BASE_OBJECT_INFO()</text>
</a>
</g>
</g>
<!-- Node6&#45;&gt;Node5 -->
<g id="edge2" class="edge">
<title>Node6&#45;&gt;Node5</title>
<path fill="none" stroke="#191970" d="M333.0072,-478.2307C347.4149,-413.9781 378.0809,-317.7041 439.5,-258 461.065,-237.0372 489.6329,-222.3104 517.7282,-212.0173"/>
<polygon fill="none" stroke="#191970" points="329.5317,-477.7427 330.8322,-488.2574 336.3726,-479.2267 329.5317,-477.7427"/>
</g>
<!-- Node7 -->
<g id="node4" class="node">
<title>Node7</title>
<g id="a_node4"><a xlink:href="classtvm_1_1runtime_1_1Object.html" target="_top" xlink:title="base class of all object containers. ">
<polygon fill="#ffffff" stroke="#000000" points="0,-849.5 0,-1236.5 183,-1236.5 183,-849.5 0,-849.5"/>
<text text-anchor="middle" x="91.5" y="-1224.5" font-family="Helvetica,sans-Serif" font-size="10.00" fill="#000000">tvm::runtime::Object</text>
<polyline fill="none" stroke="#000000" points="0,-1217.5 183,-1217.5 "/>
<text text-anchor="start" x="8" y="-1205.5" font-family="Helvetica,sans-Serif" font-size="10.00" fill="#000000">+ _type_key</text>
<text text-anchor="start" x="8" y="-1194.5" font-family="Helvetica,sans-Serif" font-size="10.00" fill="#000000">+ _type_final</text>
<text text-anchor="start" x="8" y="-1183.5" font-family="Helvetica,sans-Serif" font-size="10.00" fill="#000000">+ _type_child_slots</text>
<text text-anchor="start" x="8" y="-1172.5" font-family="Helvetica,sans-Serif" font-size="10.00" fill="#000000">+ _type_child_slots_can</text>
<text text-anchor="start" x="8" y="-1161.5" font-family="Helvetica,sans-Serif" font-size="10.00" fill="#000000">_overflow</text>
<text text-anchor="start" x="8" y="-1150.5" font-family="Helvetica,sans-Serif" font-size="10.00" fill="#000000">+ _type_has_method_visit</text>
<text text-anchor="start" x="8" y="-1139.5" font-family="Helvetica,sans-Serif" font-size="10.00" fill="#000000">_attrs</text>
<text text-anchor="start" x="8" y="-1128.5" font-family="Helvetica,sans-Serif" font-size="10.00" fill="#000000">+ _type_has_method_sequal</text>
<text text-anchor="start" x="8" y="-1117.5" font-family="Helvetica,sans-Serif" font-size="10.00" fill="#000000">_reduce</text>
<text text-anchor="start" x="8" y="-1106.5" font-family="Helvetica,sans-Serif" font-size="10.00" fill="#000000">+ _type_has_method_shash</text>
<text text-anchor="start" x="8" y="-1095.5" font-family="Helvetica,sans-Serif" font-size="10.00" fill="#000000">_reduce</text>
<text text-anchor="start" x="8" y="-1084.5" font-family="Helvetica,sans-Serif" font-size="10.00" fill="#000000">+ _type_index</text>
<text text-anchor="start" x="8" y="-1073.5" font-family="Helvetica,sans-Serif" font-size="10.00" fill="#000000"># type_index_</text>
<text text-anchor="start" x="8" y="-1062.5" font-family="Helvetica,sans-Serif" font-size="10.00" fill="#000000"># ref_counter_</text>
<polyline fill="none" stroke="#000000" points="0,-1055.5 183,-1055.5 "/>
<text text-anchor="start" x="8" y="-1043.5" font-family="Helvetica,sans-Serif" font-size="10.00" fill="#000000">+ type_index()</text>
<text text-anchor="start" x="8" y="-1032.5" font-family="Helvetica,sans-Serif" font-size="10.00" fill="#000000">+ GetTypeKey()</text>
<text text-anchor="start" x="8" y="-1021.5" font-family="Helvetica,sans-Serif" font-size="10.00" fill="#000000">+ GetTypeKeyHash()</text>
<text text-anchor="start" x="8" y="-1010.5" font-family="Helvetica,sans-Serif" font-size="10.00" fill="#000000">+ IsInstance()</text>
<text text-anchor="start" x="8" y="-999.5" font-family="Helvetica,sans-Serif" font-size="10.00" fill="#000000">+ unique()</text>
<text text-anchor="start" x="8" y="-988.5" font-family="Helvetica,sans-Serif" font-size="10.00" fill="#000000">+ Object()</text>
<text text-anchor="start" x="8" y="-977.5" font-family="Helvetica,sans-Serif" font-size="10.00" fill="#000000">+ Object()</text>
<text text-anchor="start" x="8" y="-966.5" font-family="Helvetica,sans-Serif" font-size="10.00" fill="#000000">+ Object()</text>
<text text-anchor="start" x="8" y="-955.5" font-family="Helvetica,sans-Serif" font-size="10.00" fill="#000000">+ operator=()</text>
<text text-anchor="start" x="8" y="-944.5" font-family="Helvetica,sans-Serif" font-size="10.00" fill="#000000">+ operator=()</text>
<text text-anchor="start" x="8" y="-933.5" font-family="Helvetica,sans-Serif" font-size="10.00" fill="#000000">+ TypeIndex2Key()</text>
<text text-anchor="start" x="8" y="-922.5" font-family="Helvetica,sans-Serif" font-size="10.00" fill="#000000">+ TypeIndex2KeyHash()</text>
<text text-anchor="start" x="8" y="-911.5" font-family="Helvetica,sans-Serif" font-size="10.00" fill="#000000">+ TypeKey2Index()</text>
<text text-anchor="start" x="8" y="-900.5" font-family="Helvetica,sans-Serif" font-size="10.00" fill="#000000">+ _GetOrAllocRuntimeTypeIndex()</text>
<text text-anchor="start" x="8" y="-889.5" font-family="Helvetica,sans-Serif" font-size="10.00" fill="#000000">+ RuntimeTypeIndex()</text>
<text text-anchor="start" x="8" y="-878.5" font-family="Helvetica,sans-Serif" font-size="10.00" fill="#000000"># IncRef()</text>
<text text-anchor="start" x="8" y="-867.5" font-family="Helvetica,sans-Serif" font-size="10.00" fill="#000000"># DecRef()</text>
<text text-anchor="start" x="8" y="-856.5" font-family="Helvetica,sans-Serif" font-size="10.00" fill="#000000"># GetOrAllocRuntimeTypeIndex()</text>
</a>
</g>
</g>
<!-- Node7&#45;&gt;Node6 -->
<g id="edge3" class="edge">
<title>Node7&#45;&gt;Node6</title>
<path fill="none" stroke="#191970" d="M185.1518,-840.02C225.166,-753.2934 268.7541,-658.821 295.6097,-600.6144"/>
<polygon fill="none" stroke="#191970" points="181.9293,-838.65 180.9179,-849.1965 188.2854,-841.5827 181.9293,-838.65"/>
</g>
<!-- Node7&#45;&gt;Node7 -->
<g id="edge4" class="edge">
<title>Node7&#45;&gt;Node7</title>
<path fill="none" stroke="#404040" d="M183.3625,-1076.9248C194.0482,-1070.6637 201,-1059.3555 201,-1043 201,-1032.0112 197.8618,-1023.3007 192.5615,-1016.8687"/>
<polygon fill="none" stroke="#404040" points="192.5184,-1016.8322 185.3548,-1016.0056 183.3625,-1009.0752 190.5261,-1009.9017 192.5184,-1016.8322"/>
<text text-anchor="middle" x="227" y="-1040.5" font-family="Helvetica,sans-Serif" font-size="10.00" fill="#000000"> #deleter_</text>
</g>
<!-- Node8 -->
<g id="node5" class="node">
<title>Node8</title>
<g id="a_node5"><a xlink:href="classtvm_1_1Span.html" target="_top" xlink:title="{tvm::Span\n||+ Span()\l+ Merge()\l+ TVM_DEFINE_OBJECT_REF\l_METHODS()\l}">
<polygon fill="#ffffff" stroke="#000000" points="271.5,-998 271.5,-1088 425.5,-1088 425.5,-998 271.5,-998"/>
<text text-anchor="middle" x="348.5" y="-1076" font-family="Helvetica,sans-Serif" font-size="10.00" fill="#000000">tvm::Span</text>
<polyline fill="none" stroke="#000000" points="271.5,-1069 425.5,-1069 "/>
<text text-anchor="middle" x="348.5" y="-1057" font-family="Helvetica,sans-Serif" font-size="10.00" fill="#000000"> </text>
<polyline fill="none" stroke="#000000" points="271.5,-1050 425.5,-1050 "/>
<text text-anchor="start" x="279.5" y="-1038" font-family="Helvetica,sans-Serif" font-size="10.00" fill="#000000">+ Span()</text>
<text text-anchor="start" x="279.5" y="-1027" font-family="Helvetica,sans-Serif" font-size="10.00" fill="#000000">+ Merge()</text>
<text text-anchor="start" x="279.5" y="-1016" font-family="Helvetica,sans-Serif" font-size="10.00" fill="#000000">+ TVM_DEFINE_OBJECT_REF</text>
<text text-anchor="start" x="279.5" y="-1005" font-family="Helvetica,sans-Serif" font-size="10.00" fill="#000000">_METHODS()</text>
</a>
</g>
</g>
<!-- Node8&#45;&gt;Node6 -->
<g id="edge5" class="edge">
<title>Node8&#45;&gt;Node6</title>
<path fill="none" stroke="#404040" d="M346.0563,-997.8822C341.31,-910.2506 330.8193,-716.5611 325.2093,-612.9839"/>
<polygon fill="none" stroke="#404040" points="325.1991,-612.7949 320.8804,-607.02 324.55,-600.8124 328.8687,-606.5873 325.1991,-612.7949"/>
<text text-anchor="middle" x="355" y="-739" font-family="Helvetica,sans-Serif" font-size="10.00" fill="#000000"> +span</text>
</g>
<!-- Node9 -->
<g id="node6" class="node">
<title>Node9</title>
<g id="a_node6"><a xlink:href="classtvm_1_1runtime_1_1ObjectRef.html" target="_top" xlink:title="Base class of all object reference. ">
<polygon fill="#ffffff" stroke="#000000" points="731.5,-1274.5 731.5,-1496.5 865.5,-1496.5 865.5,-1274.5 731.5,-1274.5"/>
<text text-anchor="middle" x="798.5" y="-1484.5" font-family="Helvetica,sans-Serif" font-size="10.00" fill="#000000">tvm::runtime::ObjectRef</text>
<polyline fill="none" stroke="#000000" points="731.5,-1477.5 865.5,-1477.5 "/>
<text text-anchor="start" x="739.5" y="-1465.5" font-family="Helvetica,sans-Serif" font-size="10.00" fill="#000000">+ _type_is_nullable</text>
<polyline fill="none" stroke="#000000" points="731.5,-1458.5 865.5,-1458.5 "/>
<text text-anchor="start" x="739.5" y="-1446.5" font-family="Helvetica,sans-Serif" font-size="10.00" fill="#000000">+ ObjectRef()</text>
<text text-anchor="start" x="739.5" y="-1435.5" font-family="Helvetica,sans-Serif" font-size="10.00" fill="#000000">+ ObjectRef()</text>
<text text-anchor="start" x="739.5" y="-1424.5" font-family="Helvetica,sans-Serif" font-size="10.00" fill="#000000">+ same_as()</text>
<text text-anchor="start" x="739.5" y="-1413.5" font-family="Helvetica,sans-Serif" font-size="10.00" fill="#000000">+ operator==()</text>
<text text-anchor="start" x="739.5" y="-1402.5" font-family="Helvetica,sans-Serif" font-size="10.00" fill="#000000">+ operator!=()</text>
<text text-anchor="start" x="739.5" y="-1391.5" font-family="Helvetica,sans-Serif" font-size="10.00" fill="#000000">+ operator&lt;()</text>
<text text-anchor="start" x="739.5" y="-1380.5" font-family="Helvetica,sans-Serif" font-size="10.00" fill="#000000">+ defined()</text>
<text text-anchor="start" x="739.5" y="-1369.5" font-family="Helvetica,sans-Serif" font-size="10.00" fill="#000000">+ get()</text>
<text text-anchor="start" x="739.5" y="-1358.5" font-family="Helvetica,sans-Serif" font-size="10.00" fill="#000000">+ operator&#45;&gt;()</text>
<text text-anchor="start" x="739.5" y="-1347.5" font-family="Helvetica,sans-Serif" font-size="10.00" fill="#000000">+ unique()</text>
<text text-anchor="start" x="739.5" y="-1336.5" font-family="Helvetica,sans-Serif" font-size="10.00" fill="#000000">+ use_count()</text>
<text text-anchor="start" x="739.5" y="-1325.5" font-family="Helvetica,sans-Serif" font-size="10.00" fill="#000000">+ as()</text>
<text text-anchor="start" x="739.5" y="-1314.5" font-family="Helvetica,sans-Serif" font-size="10.00" fill="#000000"># get_mutable()</text>
<text text-anchor="start" x="739.5" y="-1303.5" font-family="Helvetica,sans-Serif" font-size="10.00" fill="#000000"># DowncastNoCheck()</text>
<text text-anchor="start" x="739.5" y="-1292.5" font-family="Helvetica,sans-Serif" font-size="10.00" fill="#000000"># FFIClearAfterMove()</text>
<text text-anchor="start" x="739.5" y="-1281.5" font-family="Helvetica,sans-Serif" font-size="10.00" fill="#000000"># GetDataPtr()</text>
</a>
</g>
</g>
<!-- Node9&#45;&gt;Node5 -->
<g id="edge8" class="edge">
<title>Node9&#45;&gt;Node5</title>
<path fill="none" stroke="#404040" d="M731.2533,-1329.2213C702.769,-1303.1373 670.6558,-1270.523 646.5,-1237 529.2478,-1074.2791 494.4188,-1026.4699 449.5,-831 400.1181,-616.1086 520.2874,-364.325 584.4054,-250.4523"/>
<polygon fill="none" stroke="#404040" points="584.4929,-250.2984 583.9838,-243.1053 590.4278,-239.8687 590.9369,-247.0619 584.4929,-250.2984"/>
<text text-anchor="middle" x="492.5" y="-739" font-family="Helvetica,sans-Serif" font-size="10.00" fill="#000000"> +virtual_device_</text>
</g>
<!-- Node9&#45;&gt;Node8 -->
<g id="edge6" class="edge">
<title>Node9&#45;&gt;Node8</title>
<path fill="none" stroke="#191970" d="M721.2161,-1375.8846C641.4138,-1362.1875 517.8154,-1329.9324 439.5,-1256 391.5446,-1210.7285 367.6856,-1136.0458 356.7304,-1088.2145"/>
<polygon fill="none" stroke="#191970" points="720.7702,-1379.3584 731.2082,-1377.542 721.9157,-1372.4527 720.7702,-1379.3584"/>
</g>
<!-- Node11 -->
<g id="node8" class="node">
<title>Node11</title>
<g id="a_node8"><a xlink:href="classtvm_1_1Type.html" target="_top" xlink:title="Managed reference to TypeNode. ">
<polygon fill="#ffffff" stroke="#000000" points="544.5,-707.5 544.5,-775.5 698.5,-775.5 698.5,-707.5 544.5,-707.5"/>
<text text-anchor="middle" x="621.5" y="-763.5" font-family="Helvetica,sans-Serif" font-size="10.00" fill="#000000">tvm::Type</text>
<polyline fill="none" stroke="#000000" points="544.5,-756.5 698.5,-756.5 "/>
<text text-anchor="middle" x="621.5" y="-744.5" font-family="Helvetica,sans-Serif" font-size="10.00" fill="#000000"> </text>
<polyline fill="none" stroke="#000000" points="544.5,-737.5 698.5,-737.5 "/>
<text text-anchor="start" x="552.5" y="-725.5" font-family="Helvetica,sans-Serif" font-size="10.00" fill="#000000">+ TVM_DEFINE_OBJECT_REF</text>
<text text-anchor="start" x="552.5" y="-714.5" font-family="Helvetica,sans-Serif" font-size="10.00" fill="#000000">_METHODS()</text>
</a>
</g>
</g>
<!-- Node9&#45;&gt;Node11 -->
<g id="edge10" class="edge">
<title>Node9&#45;&gt;Node11</title>
<path fill="none" stroke="#191970" d="M765.2863,-1264.6546C723.9125,-1114.1194 655.6471,-865.7413 630.8606,-775.5576"/>
<polygon fill="none" stroke="#191970" points="761.9468,-1265.7111 767.9719,-1274.4259 768.6965,-1263.8559 761.9468,-1265.7111"/>
</g>
<!-- Node12 -->
<g id="node9" class="node">
<title>Node12</title>
<g id="a_node9"><a xlink:href="classtvm_1_1runtime_1_1Optional.html" target="_top" xlink:title="{tvm::runtime::Optional\l\&lt; tvm::runtime::ObjectRef \&gt;\n|+ _type_is_nullable\l|+ Optional()\l+ Optional()\l+ Optional()\l+ Optional()\l+ Optional()\l+ Optional()\l+ Optional()\l+ Optional()\l+ operator=()\l+ operator=()\land 15 more...\l}">
<polygon fill="#ffffff" stroke="#000000" points="703.5,-652.5 703.5,-830.5 859.5,-830.5 859.5,-652.5 703.5,-652.5"/>
<text text-anchor="start" x="711.5" y="-818.5" font-family="Helvetica,sans-Serif" font-size="10.00" fill="#000000">tvm::runtime::Optional</text>
<text text-anchor="middle" x="781.5" y="-807.5" font-family="Helvetica,sans-Serif" font-size="10.00" fill="#000000">&lt; tvm::runtime::ObjectRef &gt;</text>
<polyline fill="none" stroke="#000000" points="703.5,-800.5 859.5,-800.5 "/>
<text text-anchor="start" x="711.5" y="-788.5" font-family="Helvetica,sans-Serif" font-size="10.00" fill="#000000">+ _type_is_nullable</text>
<polyline fill="none" stroke="#000000" points="703.5,-781.5 859.5,-781.5 "/>
<text text-anchor="start" x="711.5" y="-769.5" font-family="Helvetica,sans-Serif" font-size="10.00" fill="#000000">+ Optional()</text>
<text text-anchor="start" x="711.5" y="-758.5" font-family="Helvetica,sans-Serif" font-size="10.00" fill="#000000">+ Optional()</text>
<text text-anchor="start" x="711.5" y="-747.5" font-family="Helvetica,sans-Serif" font-size="10.00" fill="#000000">+ Optional()</text>
<text text-anchor="start" x="711.5" y="-736.5" font-family="Helvetica,sans-Serif" font-size="10.00" fill="#000000">+ Optional()</text>
<text text-anchor="start" x="711.5" y="-725.5" font-family="Helvetica,sans-Serif" font-size="10.00" fill="#000000">+ Optional()</text>
<text text-anchor="start" x="711.5" y="-714.5" font-family="Helvetica,sans-Serif" font-size="10.00" fill="#000000">+ Optional()</text>
<text text-anchor="start" x="711.5" y="-703.5" font-family="Helvetica,sans-Serif" font-size="10.00" fill="#000000">+ Optional()</text>
<text text-anchor="start" x="711.5" y="-692.5" font-family="Helvetica,sans-Serif" font-size="10.00" fill="#000000">+ Optional()</text>
<text text-anchor="start" x="711.5" y="-681.5" font-family="Helvetica,sans-Serif" font-size="10.00" fill="#000000">+ operator=()</text>
<text text-anchor="start" x="711.5" y="-670.5" font-family="Helvetica,sans-Serif" font-size="10.00" fill="#000000">+ operator=()</text>
<text text-anchor="start" x="711.5" y="-659.5" font-family="Helvetica,sans-Serif" font-size="10.00" fill="#000000">and 15 more...</text>
</a>
</g>
</g>
<!-- Node9&#45;&gt;Node12 -->
<g id="edge12" class="edge">
<title>Node9&#45;&gt;Node12</title>
<path fill="none" stroke="#191970" d="M787.1016,-1264.4065C786.4732,-1255.1384 785.9259,-1245.9224 785.5,-1237 778.7221,-1095.0019 779.0279,-929.8604 780.0964,-830.6219"/>
<polygon fill="none" stroke="#191970" points="783.6166,-1264.7442 787.8133,-1274.4724 790.5992,-1264.2504 783.6166,-1264.7442"/>
</g>
<!-- Node14 -->
<g id="node11" class="node">
<title>Node14</title>
<g id="a_node11"><a xlink:href="classtvm_1_1BaseExpr.html" target="_top" xlink:title="Managed reference to BaseExprNode. ">
<polygon fill="#ffffff" stroke="#000000" points="794.5,-1009 794.5,-1077 948.5,-1077 948.5,-1009 794.5,-1009"/>
<text text-anchor="middle" x="871.5" y="-1065" font-family="Helvetica,sans-Serif" font-size="10.00" fill="#000000">tvm::BaseExpr</text>
<polyline fill="none" stroke="#000000" points="794.5,-1058 948.5,-1058 "/>
<text text-anchor="middle" x="871.5" y="-1046" font-family="Helvetica,sans-Serif" font-size="10.00" fill="#000000"> </text>
<polyline fill="none" stroke="#000000" points="794.5,-1039 948.5,-1039 "/>
<text text-anchor="start" x="802.5" y="-1027" font-family="Helvetica,sans-Serif" font-size="10.00" fill="#000000">+ TVM_DEFINE_OBJECT_REF</text>
<text text-anchor="start" x="802.5" y="-1016" font-family="Helvetica,sans-Serif" font-size="10.00" fill="#000000">_METHODS()</text>
</a>
</g>
</g>
<!-- Node9&#45;&gt;Node14 -->
<g id="edge15" class="edge">
<title>Node9&#45;&gt;Node14</title>
<path fill="none" stroke="#191970" d="M824.3565,-1264.1872C838.4805,-1197.9204 854.9345,-1120.7215 864.1931,-1077.2823"/>
<polygon fill="none" stroke="#191970" points="820.8625,-1263.7901 822.201,-1274.3001 827.7088,-1265.2494 820.8625,-1263.7901"/>
</g>
<!-- Node15 -->
<g id="node12" class="node">
<title>Node15</title>
<g id="a_node12"><a xlink:href="classtvm_1_1runtime_1_1Array.html" target="_top" xlink:title="{tvm::runtime::Array\l\&lt; tvm::relax::StructInfo \&gt;\n||+ Array()\l+ Array()\l+ Array()\l+ Array()\l+ Array()\l+ Array()\l+ Array()\l+ Array()\l+ operator=()\l+ operator=()\land 25 more...\l}">
<polygon fill="#ffffff" stroke="#000000" points="903,-455.5 903,-633.5 1046,-633.5 1046,-455.5 903,-455.5"/>
<text text-anchor="start" x="911" y="-621.5" font-family="Helvetica,sans-Serif" font-size="10.00" fill="#000000">tvm::runtime::Array</text>
<text text-anchor="middle" x="974.5" y="-610.5" font-family="Helvetica,sans-Serif" font-size="10.00" fill="#000000">&lt; tvm::relax::StructInfo &gt;</text>
<polyline fill="none" stroke="#000000" points="903,-603.5 1046,-603.5 "/>
<text text-anchor="middle" x="974.5" y="-591.5" font-family="Helvetica,sans-Serif" font-size="10.00" fill="#000000"> </text>
<polyline fill="none" stroke="#000000" points="903,-584.5 1046,-584.5 "/>
<text text-anchor="start" x="911" y="-572.5" font-family="Helvetica,sans-Serif" font-size="10.00" fill="#000000">+ Array()</text>
<text text-anchor="start" x="911" y="-561.5" font-family="Helvetica,sans-Serif" font-size="10.00" fill="#000000">+ Array()</text>
<text text-anchor="start" x="911" y="-550.5" font-family="Helvetica,sans-Serif" font-size="10.00" fill="#000000">+ Array()</text>
<text text-anchor="start" x="911" y="-539.5" font-family="Helvetica,sans-Serif" font-size="10.00" fill="#000000">+ Array()</text>
<text text-anchor="start" x="911" y="-528.5" font-family="Helvetica,sans-Serif" font-size="10.00" fill="#000000">+ Array()</text>
<text text-anchor="start" x="911" y="-517.5" font-family="Helvetica,sans-Serif" font-size="10.00" fill="#000000">+ Array()</text>
<text text-anchor="start" x="911" y="-506.5" font-family="Helvetica,sans-Serif" font-size="10.00" fill="#000000">+ Array()</text>
<text text-anchor="start" x="911" y="-495.5" font-family="Helvetica,sans-Serif" font-size="10.00" fill="#000000">+ Array()</text>
<text text-anchor="start" x="911" y="-484.5" font-family="Helvetica,sans-Serif" font-size="10.00" fill="#000000">+ operator=()</text>
<text text-anchor="start" x="911" y="-473.5" font-family="Helvetica,sans-Serif" font-size="10.00" fill="#000000">+ operator=()</text>
<text text-anchor="start" x="911" y="-462.5" font-family="Helvetica,sans-Serif" font-size="10.00" fill="#000000">and 25 more...</text>
</a>
</g>
</g>
<!-- Node9&#45;&gt;Node15 -->
<g id="edge17" class="edge">
<title>Node9&#45;&gt;Node15</title>
<path fill="none" stroke="#191970" d="M873.6817,-1336.1951C905.6763,-1310.7555 939.6711,-1276.7063 957.5,-1237 1047.341,-1036.917 1017.8039,-770.4576 993.3834,-633.7407"/>
<polygon fill="none" stroke="#191970" points="871.3492,-1333.5752 865.6017,-1342.4755 875.6451,-1339.102 871.3492,-1333.5752"/>
</g>
<!-- Node16 -->
<g id="node13" class="node">
<title>Node16</title>
<g id="a_node13"><a xlink:href="classtvm_1_1runtime_1_1Array.html" target="_top" xlink:title="{tvm::runtime::Array\l\&lt; tvm::RelayExpr \&gt;\n||+ Array()\l+ Array()\l+ Array()\l+ Array()\l+ Array()\l+ Array()\l+ Array()\l+ Array()\l+ operator=()\l+ operator=()\land 25 more...\l}">
<polygon fill="#ffffff" stroke="#000000" points="1013,-258.5 1013,-436.5 1126,-436.5 1126,-258.5 1013,-258.5"/>
<text text-anchor="start" x="1021" y="-424.5" font-family="Helvetica,sans-Serif" font-size="10.00" fill="#000000">tvm::runtime::Array</text>
<text text-anchor="middle" x="1069.5" y="-413.5" font-family="Helvetica,sans-Serif" font-size="10.00" fill="#000000">&lt; tvm::RelayExpr &gt;</text>
<polyline fill="none" stroke="#000000" points="1013,-406.5 1126,-406.5 "/>
<text text-anchor="middle" x="1069.5" y="-394.5" font-family="Helvetica,sans-Serif" font-size="10.00" fill="#000000"> </text>
<polyline fill="none" stroke="#000000" points="1013,-387.5 1126,-387.5 "/>
<text text-anchor="start" x="1021" y="-375.5" font-family="Helvetica,sans-Serif" font-size="10.00" fill="#000000">+ Array()</text>
<text text-anchor="start" x="1021" y="-364.5" font-family="Helvetica,sans-Serif" font-size="10.00" fill="#000000">+ Array()</text>
<text text-anchor="start" x="1021" y="-353.5" font-family="Helvetica,sans-Serif" font-size="10.00" fill="#000000">+ Array()</text>
<text text-anchor="start" x="1021" y="-342.5" font-family="Helvetica,sans-Serif" font-size="10.00" fill="#000000">+ Array()</text>
<text text-anchor="start" x="1021" y="-331.5" font-family="Helvetica,sans-Serif" font-size="10.00" fill="#000000">+ Array()</text>
<text text-anchor="start" x="1021" y="-320.5" font-family="Helvetica,sans-Serif" font-size="10.00" fill="#000000">+ Array()</text>
<text text-anchor="start" x="1021" y="-309.5" font-family="Helvetica,sans-Serif" font-size="10.00" fill="#000000">+ Array()</text>
<text text-anchor="start" x="1021" y="-298.5" font-family="Helvetica,sans-Serif" font-size="10.00" fill="#000000">+ Array()</text>
<text text-anchor="start" x="1021" y="-287.5" font-family="Helvetica,sans-Serif" font-size="10.00" fill="#000000">+ operator=()</text>
<text text-anchor="start" x="1021" y="-276.5" font-family="Helvetica,sans-Serif" font-size="10.00" fill="#000000">+ operator=()</text>
<text text-anchor="start" x="1021" y="-265.5" font-family="Helvetica,sans-Serif" font-size="10.00" fill="#000000">and 25 more...</text>
</a>
</g>
</g>
<!-- Node9&#45;&gt;Node16 -->
<g id="edge19" class="edge">
<title>Node9&#45;&gt;Node16</title>
<path fill="none" stroke="#191970" d="M874.6202,-1350.4229C919.5334,-1325.474 973.0063,-1287.4335 1001.5,-1237 1148.1543,-977.424 1112.7037,-605.2729 1086.0937,-436.622"/>
<polygon fill="none" stroke="#191970" points="872.8762,-1347.3872 865.7617,-1355.238 876.2192,-1353.5374 872.8762,-1347.3872"/>
</g>
<!-- Node17 -->
<g id="node14" class="node">
<title>Node17</title>
<g id="a_node14"><a xlink:href="classtvm_1_1Attrs.html" target="_top" xlink:title="Managed reference to BaseAttrsNode. ">
<polygon fill="#ffffff" stroke="#000000" points="1115.5,-155 1115.5,-223 1269.5,-223 1269.5,-155 1115.5,-155"/>
<text text-anchor="middle" x="1192.5" y="-211" font-family="Helvetica,sans-Serif" font-size="10.00" fill="#000000">tvm::Attrs</text>
<polyline fill="none" stroke="#000000" points="1115.5,-204 1269.5,-204 "/>
<text text-anchor="middle" x="1192.5" y="-192" font-family="Helvetica,sans-Serif" font-size="10.00" fill="#000000"> </text>
<polyline fill="none" stroke="#000000" points="1115.5,-185 1269.5,-185 "/>
<text text-anchor="start" x="1123.5" y="-173" font-family="Helvetica,sans-Serif" font-size="10.00" fill="#000000">+ TVM_DEFINE_OBJECT_REF</text>
<text text-anchor="start" x="1123.5" y="-162" font-family="Helvetica,sans-Serif" font-size="10.00" fill="#000000">_METHODS()</text>
</a>
</g>
</g>
<!-- Node9&#45;&gt;Node17 -->
<g id="edge21" class="edge">
<title>Node9&#45;&gt;Node17</title>
<path fill="none" stroke="#191970" d="M875.4386,-1364.1499C937.7286,-1342.6422 1022.2917,-1303.0077 1067.5,-1237 1296.5819,-902.5227 1223.0599,-363.3999 1198.8787,-223.1995"/>
<polygon fill="none" stroke="#191970" points="874.0031,-1360.9401 865.6421,-1367.4474 876.2362,-1367.5743 874.0031,-1360.9401"/>
</g>
<!-- Node10 -->
<g id="node7" class="node">
<title>Node10</title>
<g id="a_node7"><a xlink:href="classtvm_1_1runtime_1_1ObjectPtr.html" target="_top" xlink:title="{tvm::runtime::ObjectPtr\l\&lt; tvm::runtime::Object \&gt;\n||+ ObjectPtr()\l+ ObjectPtr()\l+ ObjectPtr()\l+ ObjectPtr()\l+ ObjectPtr()\l+ ObjectPtr()\l+ ~ObjectPtr()\l+ swap()\l+ get()\l+ operator&#45;\&gt;()\land 11 more...\l}">
<polygon fill="#ffffff" stroke="#000000" points="728.5,-1544.5 728.5,-1722.5 868.5,-1722.5 868.5,-1544.5 728.5,-1544.5"/>
<text text-anchor="start" x="736.5" y="-1710.5" font-family="Helvetica,sans-Serif" font-size="10.00" fill="#000000">tvm::runtime::ObjectPtr</text>
<text text-anchor="middle" x="798.5" y="-1699.5" font-family="Helvetica,sans-Serif" font-size="10.00" fill="#000000">&lt; tvm::runtime::Object &gt;</text>
<polyline fill="none" stroke="#000000" points="728.5,-1692.5 868.5,-1692.5 "/>
<text text-anchor="middle" x="798.5" y="-1680.5" font-family="Helvetica,sans-Serif" font-size="10.00" fill="#000000"> </text>
<polyline fill="none" stroke="#000000" points="728.5,-1673.5 868.5,-1673.5 "/>
<text text-anchor="start" x="736.5" y="-1661.5" font-family="Helvetica,sans-Serif" font-size="10.00" fill="#000000">+ ObjectPtr()</text>
<text text-anchor="start" x="736.5" y="-1650.5" font-family="Helvetica,sans-Serif" font-size="10.00" fill="#000000">+ ObjectPtr()</text>
<text text-anchor="start" x="736.5" y="-1639.5" font-family="Helvetica,sans-Serif" font-size="10.00" fill="#000000">+ ObjectPtr()</text>
<text text-anchor="start" x="736.5" y="-1628.5" font-family="Helvetica,sans-Serif" font-size="10.00" fill="#000000">+ ObjectPtr()</text>
<text text-anchor="start" x="736.5" y="-1617.5" font-family="Helvetica,sans-Serif" font-size="10.00" fill="#000000">+ ObjectPtr()</text>
<text text-anchor="start" x="736.5" y="-1606.5" font-family="Helvetica,sans-Serif" font-size="10.00" fill="#000000">+ ObjectPtr()</text>
<text text-anchor="start" x="736.5" y="-1595.5" font-family="Helvetica,sans-Serif" font-size="10.00" fill="#000000">+ ~ObjectPtr()</text>
<text text-anchor="start" x="736.5" y="-1584.5" font-family="Helvetica,sans-Serif" font-size="10.00" fill="#000000">+ swap()</text>
<text text-anchor="start" x="736.5" y="-1573.5" font-family="Helvetica,sans-Serif" font-size="10.00" fill="#000000">+ get()</text>
<text text-anchor="start" x="736.5" y="-1562.5" font-family="Helvetica,sans-Serif" font-size="10.00" fill="#000000">+ operator&#45;&gt;()</text>
<text text-anchor="start" x="736.5" y="-1551.5" font-family="Helvetica,sans-Serif" font-size="10.00" fill="#000000">and 11 more...</text>
</a>
</g>
</g>
<!-- Node10&#45;&gt;Node9 -->
<g id="edge7" class="edge">
<title>Node10&#45;&gt;Node9</title>
<path fill="none" stroke="#404040" d="M798.5,-1544.3167C798.5,-1532.8765 798.5,-1521.0062 798.5,-1509.1402"/>
<polygon fill="none" stroke="#404040" points="798.5001,-1508.7944 794.5,-1502.7944 798.5,-1496.7944 802.5,-1502.7943 798.5001,-1508.7944"/>
<text text-anchor="middle" x="818" y="-1518" font-family="Helvetica,sans-Serif" font-size="10.00" fill="#000000"> #data_</text>
</g>
<!-- Node11&#45;&gt;Node5 -->
<g id="edge9" class="edge">
<title>Node11&#45;&gt;Node5</title>
<path fill="none" stroke="#404040" d="M621.5,-707.3556C621.5,-616.7837 621.5,-369.3598 621.5,-252.1629"/>
<polygon fill="none" stroke="#404040" points="621.5001,-251.8845 617.5,-245.8846 621.5,-239.8845 625.5,-245.8845 621.5001,-251.8845"/>
<text text-anchor="middle" x="664" y="-542" font-family="Helvetica,sans-Serif" font-size="10.00" fill="#000000"> +checked_type_</text>
</g>
<!-- Node12&#45;&gt;Node5 -->
<g id="edge11" class="edge">
<title>Node12&#45;&gt;Node5</title>
<path fill="none" stroke="#404040" d="M761.3297,-652.2835C748.0148,-595.5002 729.5607,-520.5686 710.5,-455 689.9841,-384.4253 662.7246,-304.6112 643.8037,-250.9818"/>
<polygon fill="none" stroke="#404040" points="643.7839,-250.9256 638.0109,-246.6044 639.7794,-239.6135 645.5523,-243.9347 643.7839,-250.9256"/>
<text text-anchor="middle" x="790" y="-542" font-family="Helvetica,sans-Serif" font-size="10.00" fill="#000000"> +struct_info_</text>
</g>
<!-- Node13 -->
<g id="node10" class="node">
<title>Node13</title>
<g id="a_node10"><a xlink:href="classtvm_1_1RelayExpr.html" target="_top" xlink:title="Managed reference to RelayExprNode. ">
<polygon fill="#ffffff" stroke="#000000" points="797.5,-313.5 797.5,-381.5 951.5,-381.5 951.5,-313.5 797.5,-313.5"/>
<text text-anchor="middle" x="874.5" y="-369.5" font-family="Helvetica,sans-Serif" font-size="10.00" fill="#000000">tvm::RelayExpr</text>
<polyline fill="none" stroke="#000000" points="797.5,-362.5 951.5,-362.5 "/>
<text text-anchor="middle" x="874.5" y="-350.5" font-family="Helvetica,sans-Serif" font-size="10.00" fill="#000000"> </text>
<polyline fill="none" stroke="#000000" points="797.5,-343.5 951.5,-343.5 "/>
<text text-anchor="start" x="805.5" y="-331.5" font-family="Helvetica,sans-Serif" font-size="10.00" fill="#000000">+ TVM_DEFINE_OBJECT_REF</text>
<text text-anchor="start" x="805.5" y="-320.5" font-family="Helvetica,sans-Serif" font-size="10.00" fill="#000000">_METHODS()</text>
</a>
</g>
</g>
<!-- Node13&#45;&gt;Node4 -->
<g id="edge13" class="edge">
<title>Node13&#45;&gt;Node4</title>
<path fill="none" stroke="#404040" d="M879.3465,-313.4114C885.9213,-271.3567 899.3359,-198.0569 920.5,-138 924.7463,-125.9503 930.1912,-113.4444 935.8388,-101.6691"/>
<polygon fill="none" stroke="#404040" points="935.9706,-101.402 935.0402,-94.2512 941.2831,-90.642 942.2135,-97.7929 935.9706,-101.402"/>
<text text-anchor="middle" x="932.5" y="-186.5" font-family="Helvetica,sans-Serif" font-size="10.00" fill="#000000"> +op</text>
</g>
<!-- Node14&#45;&gt;Node13 -->
<g id="edge14" class="edge">
<title>Node14&#45;&gt;Node13</title>
<path fill="none" stroke="#191970" d="M871.6911,-998.7073C872.2468,-869.868 873.8547,-497.1036 874.3518,-381.8606"/>
<polygon fill="none" stroke="#191970" points="868.19,-998.9687 871.6467,-1008.9838 875.1899,-998.999 868.19,-998.9687"/>
</g>
<!-- Node15&#45;&gt;Node4 -->
<g id="edge16" class="edge">
<title>Node15&#45;&gt;Node4</title>
<path fill="none" stroke="#404040" d="M971.538,-455.2417C969.6757,-394.556 967.4515,-312.4432 966.5,-240 965.8938,-193.8423 965.935,-141.5177 966.1051,-102.7748"/>
<polygon fill="none" stroke="#404040" points="966.1053,-102.6981 962.1348,-96.6786 966.1642,-90.6983 970.1347,-96.7178 966.1053,-102.6981"/>
<text text-anchor="middle" x="997.5" y="-186.5" font-family="Helvetica,sans-Serif" font-size="10.00" fill="#000000"> +sinfo_args</text>
</g>
<!-- Node16&#45;&gt;Node4 -->
<g id="edge18" class="edge">
<title>Node16&#45;&gt;Node4</title>
<path fill="none" stroke="#404040" d="M1062.6025,-258.3892C1057.4248,-220.2119 1048.362,-175.8043 1032.5,-138 1027.1278,-125.1964 1019.7208,-112.4412 1011.8039,-100.6755"/>
<polygon fill="none" stroke="#404040" points="1011.6402,-100.4418 1004.9212,-97.8235 1004.7537,-90.6144 1011.4728,-93.2326 1011.6402,-100.4418"/>
<text text-anchor="middle" x="1075" y="-186.5" font-family="Helvetica,sans-Serif" font-size="10.00" fill="#000000"> +args</text>
</g>
<!-- Node17&#45;&gt;Node4 -->
<g id="edge20" class="edge">
<title>Node17&#45;&gt;Node4</title>
<path fill="none" stroke="#404040" d="M1146.0436,-154.8828C1125.6292,-140.2886 1101.1841,-123.3434 1078.5,-109 1072.115,-104.9627 1065.4638,-100.8846 1058.728,-96.847"/>
<polygon fill="none" stroke="#404040" points="1058.4225,-96.6659 1051.2214,-97.0474 1048.0997,-90.547 1055.3007,-90.1655 1058.4225,-96.6659"/>
<text text-anchor="middle" x="1110.5" y="-112" font-family="Helvetica,sans-Serif" font-size="10.00" fill="#000000"> +attrs</text>
</g>
</g>
</svg>
