<?xml version="1.0" encoding="UTF-8" standalone="no"?>
<!DOCTYPE svg PUBLIC "-//W3C//DTD SVG 1.1//EN"
 "http://www.w3.org/Graphics/SVG/1.1/DTD/svg11.dtd">
<!-- Generated by graphviz version 2.40.1 (20161225.0304)
 -->
<!-- Title: tvm::relay::ConstantNode Pages: 1 -->
<svg width="768pt" height="1776pt"
 viewBox="0.00 0.00 767.50 1776.00" xmlns="http://www.w3.org/2000/svg" xmlns:xlink="http://www.w3.org/1999/xlink">
<g id="graph0" class="graph" transform="scale(1 1) rotate(0) translate(4 1772)">
<title>tvm::relay::ConstantNode</title>
<polygon fill="#ffffff" stroke="transparent" points="-4,4 -4,-1772 763.5,-1772 763.5,4 -4,4"/>
<!-- Node4 -->
<g id="node1" class="node">
<title>Node4</title>
<polygon fill="#bfbfbf" stroke="#000000" points="459.5,-.5 459.5,-112.5 668.5,-112.5 668.5,-.5 459.5,-.5"/>
<text text-anchor="middle" x="564" y="-100.5" font-family="Helvetica,sans-Serif" font-size="10.00" fill="#000000">tvm::relay::ConstantNode</text>
<polyline fill="none" stroke="#000000" points="459.5,-93.5 668.5,-93.5 "/>
<text text-anchor="start" x="467.5" y="-81.5" font-family="Helvetica,sans-Serif" font-size="10.00" fill="#000000">+ _type_key</text>
<polyline fill="none" stroke="#000000" points="459.5,-74.5 668.5,-74.5 "/>
<text text-anchor="start" x="467.5" y="-62.5" font-family="Helvetica,sans-Serif" font-size="10.00" fill="#000000">+ tensor_type()</text>
<text text-anchor="start" x="467.5" y="-51.5" font-family="Helvetica,sans-Serif" font-size="10.00" fill="#000000">+ is_scalar()</text>
<text text-anchor="start" x="467.5" y="-40.5" font-family="Helvetica,sans-Serif" font-size="10.00" fill="#000000">+ VisitAttrs()</text>
<text text-anchor="start" x="467.5" y="-29.5" font-family="Helvetica,sans-Serif" font-size="10.00" fill="#000000">+ SEqualReduce()</text>
<text text-anchor="start" x="467.5" y="-18.5" font-family="Helvetica,sans-Serif" font-size="10.00" fill="#000000">+ SHashReduce()</text>
<text text-anchor="start" x="467.5" y="-7.5" font-family="Helvetica,sans-Serif" font-size="10.00" fill="#000000">+ TVM_DECLARE_FINAL_OBJECT_INFO()</text>
</g>
<!-- Node5 -->
<g id="node2" class="node">
<title>Node5</title>
<g id="a_node2"><a xlink:href="classtvm_1_1RelayExprNode.html" target="_top" xlink:title="Base node of all non&#45;primitive expressions. ">
<polygon fill="#ffffff" stroke="#000000" points="358.5,-150.5 358.5,-251.5 565.5,-251.5 565.5,-150.5 358.5,-150.5"/>
<text text-anchor="middle" x="462" y="-239.5" font-family="Helvetica,sans-Serif" font-size="10.00" fill="#000000">ExprNode</text>
<polyline fill="none" stroke="#000000" points="358.5,-232.5 565.5,-232.5 "/>
<text text-anchor="start" x="366.5" y="-220.5" font-family="Helvetica,sans-Serif" font-size="10.00" fill="#000000">+ _type_key</text>
<text text-anchor="start" x="366.5" y="-209.5" font-family="Helvetica,sans-Serif" font-size="10.00" fill="#000000">+ _type_child_slots</text>
<polyline fill="none" stroke="#000000" points="358.5,-202.5 565.5,-202.5 "/>
<text text-anchor="start" x="366.5" y="-190.5" font-family="Helvetica,sans-Serif" font-size="10.00" fill="#000000">+ checked_type()</text>
<text text-anchor="start" x="366.5" y="-179.5" font-family="Helvetica,sans-Serif" font-size="10.00" fill="#000000">+ type_as()</text>
<text text-anchor="start" x="366.5" y="-168.5" font-family="Helvetica,sans-Serif" font-size="10.00" fill="#000000">+ virtual_device()</text>
<text text-anchor="start" x="366.5" y="-157.5" font-family="Helvetica,sans-Serif" font-size="10.00" fill="#000000">+ TVM_DECLARE_BASE_OBJECT_INFO()</text>
</a>
</g>
</g>
<!-- Node5&#45;&gt;Node4 -->
<g id="edge1" class="edge">
<title>Node5&#45;&gt;Node4</title>
<path fill="none" stroke="#191970" d="M503.6179,-142.0414C510.464,-132.3426 517.5438,-122.3129 524.3406,-112.6842"/>
<polygon fill="none" stroke="#191970" points="500.5821,-140.2728 497.6747,-150.4609 506.3009,-144.3096 500.5821,-140.2728"/>
</g>
<!-- Node6 -->
<g id="node3" class="node">
<title>Node6</title>
<g id="a_node3"><a xlink:href="classtvm_1_1BaseExprNode.html" target="_top" xlink:title="Base type of all the expressions. ">
<polygon fill="#ffffff" stroke="#000000" points="97.5,-566.5 97.5,-678.5 304.5,-678.5 304.5,-566.5 97.5,-566.5"/>
<text text-anchor="middle" x="201" y="-666.5" font-family="Helvetica,sans-Serif" font-size="10.00" fill="#000000">tvm::BaseExprNode</text>
<polyline fill="none" stroke="#000000" points="97.5,-659.5 304.5,-659.5 "/>
<text text-anchor="start" x="105.5" y="-647.5" font-family="Helvetica,sans-Serif" font-size="10.00" fill="#000000">+ _type_key</text>
<text text-anchor="start" x="105.5" y="-636.5" font-family="Helvetica,sans-Serif" font-size="10.00" fill="#000000">+ _type_has_method_sequal</text>
<text text-anchor="start" x="105.5" y="-625.5" font-family="Helvetica,sans-Serif" font-size="10.00" fill="#000000">_reduce</text>
<text text-anchor="start" x="105.5" y="-614.5" font-family="Helvetica,sans-Serif" font-size="10.00" fill="#000000">+ _type_has_method_shash</text>
<text text-anchor="start" x="105.5" y="-603.5" font-family="Helvetica,sans-Serif" font-size="10.00" fill="#000000">_reduce</text>
<text text-anchor="start" x="105.5" y="-592.5" font-family="Helvetica,sans-Serif" font-size="10.00" fill="#000000">+ _type_child_slots</text>
<polyline fill="none" stroke="#000000" points="97.5,-585.5 304.5,-585.5 "/>
<text text-anchor="start" x="105.5" y="-573.5" font-family="Helvetica,sans-Serif" font-size="10.00" fill="#000000">+ TVM_DECLARE_BASE_OBJECT_INFO()</text>
</a>
</g>
</g>
<!-- Node6&#45;&gt;Node5 -->
<g id="edge2" class="edge">
<title>Node6&#45;&gt;Node5</title>
<path fill="none" stroke="#191970" d="M209.7257,-556.1846C222.9406,-479.22 254.6506,-352.3576 327,-270 335.9464,-259.816 346.7568,-250.937 358.3191,-243.2502"/>
<polygon fill="none" stroke="#191970" points="206.2413,-555.8026 208.0556,-566.241 213.1467,-556.9495 206.2413,-555.8026"/>
</g>
<!-- Node7 -->
<g id="node4" class="node">
<title>Node7</title>
<g id="a_node4"><a xlink:href="classtvm_1_1runtime_1_1Object.html" target="_top" xlink:title="base class of all object containers. ">
<polygon fill="#ffffff" stroke="#000000" points="172.5,-894.5 172.5,-1281.5 355.5,-1281.5 355.5,-894.5 172.5,-894.5"/>
<text text-anchor="middle" x="264" y="-1269.5" font-family="Helvetica,sans-Serif" font-size="10.00" fill="#000000">tvm::runtime::Object</text>
<polyline fill="none" stroke="#000000" points="172.5,-1262.5 355.5,-1262.5 "/>
<text text-anchor="start" x="180.5" y="-1250.5" font-family="Helvetica,sans-Serif" font-size="10.00" fill="#000000">+ _type_key</text>
<text text-anchor="start" x="180.5" y="-1239.5" font-family="Helvetica,sans-Serif" font-size="10.00" fill="#000000">+ _type_final</text>
<text text-anchor="start" x="180.5" y="-1228.5" font-family="Helvetica,sans-Serif" font-size="10.00" fill="#000000">+ _type_child_slots</text>
<text text-anchor="start" x="180.5" y="-1217.5" font-family="Helvetica,sans-Serif" font-size="10.00" fill="#000000">+ _type_child_slots_can</text>
<text text-anchor="start" x="180.5" y="-1206.5" font-family="Helvetica,sans-Serif" font-size="10.00" fill="#000000">_overflow</text>
<text text-anchor="start" x="180.5" y="-1195.5" font-family="Helvetica,sans-Serif" font-size="10.00" fill="#000000">+ _type_has_method_visit</text>
<text text-anchor="start" x="180.5" y="-1184.5" font-family="Helvetica,sans-Serif" font-size="10.00" fill="#000000">_attrs</text>
<text text-anchor="start" x="180.5" y="-1173.5" font-family="Helvetica,sans-Serif" font-size="10.00" fill="#000000">+ _type_has_method_sequal</text>
<text text-anchor="start" x="180.5" y="-1162.5" font-family="Helvetica,sans-Serif" font-size="10.00" fill="#000000">_reduce</text>
<text text-anchor="start" x="180.5" y="-1151.5" font-family="Helvetica,sans-Serif" font-size="10.00" fill="#000000">+ _type_has_method_shash</text>
<text text-anchor="start" x="180.5" y="-1140.5" font-family="Helvetica,sans-Serif" font-size="10.00" fill="#000000">_reduce</text>
<text text-anchor="start" x="180.5" y="-1129.5" font-family="Helvetica,sans-Serif" font-size="10.00" fill="#000000">+ _type_index</text>
<text text-anchor="start" x="180.5" y="-1118.5" font-family="Helvetica,sans-Serif" font-size="10.00" fill="#000000"># type_index_</text>
<text text-anchor="start" x="180.5" y="-1107.5" font-family="Helvetica,sans-Serif" font-size="10.00" fill="#000000"># ref_counter_</text>
<polyline fill="none" stroke="#000000" points="172.5,-1100.5 355.5,-1100.5 "/>
<text text-anchor="start" x="180.5" y="-1088.5" font-family="Helvetica,sans-Serif" font-size="10.00" fill="#000000">+ type_index()</text>
<text text-anchor="start" x="180.5" y="-1077.5" font-family="Helvetica,sans-Serif" font-size="10.00" fill="#000000">+ GetTypeKey()</text>
<text text-anchor="start" x="180.5" y="-1066.5" font-family="Helvetica,sans-Serif" font-size="10.00" fill="#000000">+ GetTypeKeyHash()</text>
<text text-anchor="start" x="180.5" y="-1055.5" font-family="Helvetica,sans-Serif" font-size="10.00" fill="#000000">+ IsInstance()</text>
<text text-anchor="start" x="180.5" y="-1044.5" font-family="Helvetica,sans-Serif" font-size="10.00" fill="#000000">+ unique()</text>
<text text-anchor="start" x="180.5" y="-1033.5" font-family="Helvetica,sans-Serif" font-size="10.00" fill="#000000">+ Object()</text>
<text text-anchor="start" x="180.5" y="-1022.5" font-family="Helvetica,sans-Serif" font-size="10.00" fill="#000000">+ Object()</text>
<text text-anchor="start" x="180.5" y="-1011.5" font-family="Helvetica,sans-Serif" font-size="10.00" fill="#000000">+ Object()</text>
<text text-anchor="start" x="180.5" y="-1000.5" font-family="Helvetica,sans-Serif" font-size="10.00" fill="#000000">+ operator=()</text>
<text text-anchor="start" x="180.5" y="-989.5" font-family="Helvetica,sans-Serif" font-size="10.00" fill="#000000">+ operator=()</text>
<text text-anchor="start" x="180.5" y="-978.5" font-family="Helvetica,sans-Serif" font-size="10.00" fill="#000000">+ TypeIndex2Key()</text>
<text text-anchor="start" x="180.5" y="-967.5" font-family="Helvetica,sans-Serif" font-size="10.00" fill="#000000">+ TypeIndex2KeyHash()</text>
<text text-anchor="start" x="180.5" y="-956.5" font-family="Helvetica,sans-Serif" font-size="10.00" fill="#000000">+ TypeKey2Index()</text>
<text text-anchor="start" x="180.5" y="-945.5" font-family="Helvetica,sans-Serif" font-size="10.00" fill="#000000">+ _GetOrAllocRuntimeTypeIndex()</text>
<text text-anchor="start" x="180.5" y="-934.5" font-family="Helvetica,sans-Serif" font-size="10.00" fill="#000000">+ RuntimeTypeIndex()</text>
<text text-anchor="start" x="180.5" y="-923.5" font-family="Helvetica,sans-Serif" font-size="10.00" fill="#000000"># IncRef()</text>
<text text-anchor="start" x="180.5" y="-912.5" font-family="Helvetica,sans-Serif" font-size="10.00" fill="#000000"># DecRef()</text>
<text text-anchor="start" x="180.5" y="-901.5" font-family="Helvetica,sans-Serif" font-size="10.00" fill="#000000"># GetOrAllocRuntimeTypeIndex()</text>
</a>
</g>
</g>
<!-- Node7&#45;&gt;Node6 -->
<g id="edge3" class="edge">
<title>Node7&#45;&gt;Node6</title>
<path fill="none" stroke="#191970" d="M220.2038,-884.2795C219.7883,-881.5043 219.3867,-878.7434 219,-876 209.4861,-808.4999 204.8997,-730.1419 202.7583,-678.6175"/>
<polygon fill="none" stroke="#191970" points="216.7792,-885.0368 221.7662,-894.3845 223.697,-883.967 216.7792,-885.0368"/>
</g>
<!-- Node7&#45;&gt;Node7 -->
<g id="edge4" class="edge">
<title>Node7&#45;&gt;Node7</title>
<path fill="none" stroke="#404040" d="M355.8625,-1121.9248C366.5482,-1115.6637 373.5,-1104.3555 373.5,-1088 373.5,-1077.0112 370.3618,-1068.3007 365.0615,-1061.8687"/>
<polygon fill="none" stroke="#404040" points="365.0184,-1061.8322 357.8548,-1061.0056 355.8625,-1054.0752 363.0261,-1054.9017 365.0184,-1061.8322"/>
<text text-anchor="middle" x="399.5" y="-1085.5" font-family="Helvetica,sans-Serif" font-size="10.00" fill="#000000"> #deleter_</text>
</g>
<!-- Node8 -->
<g id="node5" class="node">
<title>Node8</title>
<g id="a_node5"><a xlink:href="classtvm_1_1Span.html" target="_top" xlink:title="{tvm::Span\n||+ Span()\l+ Merge()\l+ TVM_DEFINE_OBJECT_REF\l_METHODS()\l}">
<polygon fill="#ffffff" stroke="#000000" points="0,-1043 0,-1133 154,-1133 154,-1043 0,-1043"/>
<text text-anchor="middle" x="77" y="-1121" font-family="Helvetica,sans-Serif" font-size="10.00" fill="#000000">tvm::Span</text>
<polyline fill="none" stroke="#000000" points="0,-1114 154,-1114 "/>
<text text-anchor="middle" x="77" y="-1102" font-family="Helvetica,sans-Serif" font-size="10.00" fill="#000000"> </text>
<polyline fill="none" stroke="#000000" points="0,-1095 154,-1095 "/>
<text text-anchor="start" x="8" y="-1083" font-family="Helvetica,sans-Serif" font-size="10.00" fill="#000000">+ Span()</text>
<text text-anchor="start" x="8" y="-1072" font-family="Helvetica,sans-Serif" font-size="10.00" fill="#000000">+ Merge()</text>
<text text-anchor="start" x="8" y="-1061" font-family="Helvetica,sans-Serif" font-size="10.00" fill="#000000">+ TVM_DEFINE_OBJECT_REF</text>
<text text-anchor="start" x="8" y="-1050" font-family="Helvetica,sans-Serif" font-size="10.00" fill="#000000">_METHODS()</text>
</a>
</g>
</g>
<!-- Node8&#45;&gt;Node6 -->
<g id="edge5" class="edge">
<title>Node8&#45;&gt;Node6</title>
<path fill="none" stroke="#404040" d="M83.7176,-1042.8004C95.4451,-969.0125 122.5308,-818.6995 165,-697 165.7809,-694.7621 166.6108,-692.5033 167.4799,-690.2354"/>
<polygon fill="none" stroke="#404040" points="167.5803,-689.989 166.1407,-682.923 172.1094,-678.8764 173.549,-685.9424 167.5803,-689.989"/>
<text text-anchor="middle" x="182.5" y="-784" font-family="Helvetica,sans-Serif" font-size="10.00" fill="#000000"> +span</text>
</g>
<!-- Node9 -->
<g id="node6" class="node">
<title>Node9</title>
<g id="a_node6"><a xlink:href="classtvm_1_1runtime_1_1ObjectRef.html" target="_top" xlink:title="Base class of all object reference. ">
<polygon fill="#ffffff" stroke="#000000" points="425,-1319.5 425,-1541.5 559,-1541.5 559,-1319.5 425,-1319.5"/>
<text text-anchor="middle" x="492" y="-1529.5" font-family="Helvetica,sans-Serif" font-size="10.00" fill="#000000">tvm::runtime::ObjectRef</text>
<polyline fill="none" stroke="#000000" points="425,-1522.5 559,-1522.5 "/>
<text text-anchor="start" x="433" y="-1510.5" font-family="Helvetica,sans-Serif" font-size="10.00" fill="#000000">+ _type_is_nullable</text>
<polyline fill="none" stroke="#000000" points="425,-1503.5 559,-1503.5 "/>
<text text-anchor="start" x="433" y="-1491.5" font-family="Helvetica,sans-Serif" font-size="10.00" fill="#000000">+ ObjectRef()</text>
<text text-anchor="start" x="433" y="-1480.5" font-family="Helvetica,sans-Serif" font-size="10.00" fill="#000000">+ ObjectRef()</text>
<text text-anchor="start" x="433" y="-1469.5" font-family="Helvetica,sans-Serif" font-size="10.00" fill="#000000">+ same_as()</text>
<text text-anchor="start" x="433" y="-1458.5" font-family="Helvetica,sans-Serif" font-size="10.00" fill="#000000">+ operator==()</text>
<text text-anchor="start" x="433" y="-1447.5" font-family="Helvetica,sans-Serif" font-size="10.00" fill="#000000">+ operator!=()</text>
<text text-anchor="start" x="433" y="-1436.5" font-family="Helvetica,sans-Serif" font-size="10.00" fill="#000000">+ operator&lt;()</text>
<text text-anchor="start" x="433" y="-1425.5" font-family="Helvetica,sans-Serif" font-size="10.00" fill="#000000">+ defined()</text>
<text text-anchor="start" x="433" y="-1414.5" font-family="Helvetica,sans-Serif" font-size="10.00" fill="#000000">+ get()</text>
<text text-anchor="start" x="433" y="-1403.5" font-family="Helvetica,sans-Serif" font-size="10.00" fill="#000000">+ operator&#45;&gt;()</text>
<text text-anchor="start" x="433" y="-1392.5" font-family="Helvetica,sans-Serif" font-size="10.00" fill="#000000">+ unique()</text>
<text text-anchor="start" x="433" y="-1381.5" font-family="Helvetica,sans-Serif" font-size="10.00" fill="#000000">+ use_count()</text>
<text text-anchor="start" x="433" y="-1370.5" font-family="Helvetica,sans-Serif" font-size="10.00" fill="#000000">+ as()</text>
<text text-anchor="start" x="433" y="-1359.5" font-family="Helvetica,sans-Serif" font-size="10.00" fill="#000000"># get_mutable()</text>
<text text-anchor="start" x="433" y="-1348.5" font-family="Helvetica,sans-Serif" font-size="10.00" fill="#000000"># DowncastNoCheck()</text>
<text text-anchor="start" x="433" y="-1337.5" font-family="Helvetica,sans-Serif" font-size="10.00" fill="#000000"># FFIClearAfterMove()</text>
<text text-anchor="start" x="433" y="-1326.5" font-family="Helvetica,sans-Serif" font-size="10.00" fill="#000000"># GetDataPtr()</text>
</a>
</g>
</g>
<!-- Node9&#45;&gt;Node5 -->
<g id="edge8" class="edge">
<title>Node9&#45;&gt;Node5</title>
<path fill="none" stroke="#404040" d="M509.0303,-1319.2284C531.6549,-1154.2404 565.322,-835.2225 534,-566 521.5286,-458.8049 494.6661,-336.0533 477.5104,-263.7149"/>
<polygon fill="none" stroke="#404040" points="477.4234,-263.3508 472.1387,-258.4445 474.635,-251.6792 479.9198,-256.5855 477.4234,-263.3508"/>
<text text-anchor="middle" x="589" y="-784" font-family="Helvetica,sans-Serif" font-size="10.00" fill="#000000"> +virtual_device_</text>
</g>
<!-- Node9&#45;&gt;Node8 -->
<g id="edge6" class="edge">
<title>Node9&#45;&gt;Node8</title>
<path fill="none" stroke="#191970" d="M414.7088,-1412.692C341.5072,-1392.2625 232.701,-1352.1712 163,-1282 121.9781,-1240.7014 98.8335,-1176.4822 87.1249,-1133.3665"/>
<polygon fill="none" stroke="#191970" points="414.225,-1416.1879 424.7938,-1415.4453 416.0686,-1409.4351 414.225,-1416.1879"/>
</g>
<!-- Node11 -->
<g id="node8" class="node">
<title>Node11</title>
<g id="a_node8"><a xlink:href="classtvm_1_1Type.html" target="_top" xlink:title="Managed reference to TypeNode. ">
<polygon fill="#ffffff" stroke="#000000" points="223,-752.5 223,-820.5 377,-820.5 377,-752.5 223,-752.5"/>
<text text-anchor="middle" x="300" y="-808.5" font-family="Helvetica,sans-Serif" font-size="10.00" fill="#000000">tvm::Type</text>
<polyline fill="none" stroke="#000000" points="223,-801.5 377,-801.5 "/>
<text text-anchor="middle" x="300" y="-789.5" font-family="Helvetica,sans-Serif" font-size="10.00" fill="#000000"> </text>
<polyline fill="none" stroke="#000000" points="223,-782.5 377,-782.5 "/>
<text text-anchor="start" x="231" y="-770.5" font-family="Helvetica,sans-Serif" font-size="10.00" fill="#000000">+ TVM_DEFINE_OBJECT_REF</text>
<text text-anchor="start" x="231" y="-759.5" font-family="Helvetica,sans-Serif" font-size="10.00" fill="#000000">_METHODS()</text>
</a>
</g>
</g>
<!-- Node9&#45;&gt;Node11 -->
<g id="edge10" class="edge">
<title>Node9&#45;&gt;Node11</title>
<path fill="none" stroke="#191970" d="M471.6487,-1309.161C470.336,-1299.981 469.1014,-1290.8499 468,-1282 457.3106,-1196.11 487.4354,-962.0883 434,-894 418.6416,-874.43 401.7909,-889.6603 381,-876 358.7564,-861.3852 338.6478,-839.2443 324.0302,-820.6414"/>
<polygon fill="none" stroke="#191970" points="468.1959,-1309.7395 473.1011,-1319.1305 475.1228,-1308.7303 468.1959,-1309.7395"/>
</g>
<!-- Node12 -->
<g id="node9" class="node">
<title>Node12</title>
<g id="a_node9"><a xlink:href="classtvm_1_1runtime_1_1Optional.html" target="_top" xlink:title="{tvm::runtime::Optional\l\&lt; tvm::runtime::ObjectRef \&gt;\n|+ _type_is_nullable\l|+ Optional()\l+ Optional()\l+ Optional()\l+ Optional()\l+ Optional()\l+ Optional()\l+ Optional()\l+ Optional()\l+ operator=()\l+ operator=()\land 15 more...\l}">
<polygon fill="#ffffff" stroke="#000000" points="382,-697.5 382,-875.5 538,-875.5 538,-697.5 382,-697.5"/>
<text text-anchor="start" x="390" y="-863.5" font-family="Helvetica,sans-Serif" font-size="10.00" fill="#000000">tvm::runtime::Optional</text>
<text text-anchor="middle" x="460" y="-852.5" font-family="Helvetica,sans-Serif" font-size="10.00" fill="#000000">&lt; tvm::runtime::ObjectRef &gt;</text>
<polyline fill="none" stroke="#000000" points="382,-845.5 538,-845.5 "/>
<text text-anchor="start" x="390" y="-833.5" font-family="Helvetica,sans-Serif" font-size="10.00" fill="#000000">+ _type_is_nullable</text>
<polyline fill="none" stroke="#000000" points="382,-826.5 538,-826.5 "/>
<text text-anchor="start" x="390" y="-814.5" font-family="Helvetica,sans-Serif" font-size="10.00" fill="#000000">+ Optional()</text>
<text text-anchor="start" x="390" y="-803.5" font-family="Helvetica,sans-Serif" font-size="10.00" fill="#000000">+ Optional()</text>
<text text-anchor="start" x="390" y="-792.5" font-family="Helvetica,sans-Serif" font-size="10.00" fill="#000000">+ Optional()</text>
<text text-anchor="start" x="390" y="-781.5" font-family="Helvetica,sans-Serif" font-size="10.00" fill="#000000">+ Optional()</text>
<text text-anchor="start" x="390" y="-770.5" font-family="Helvetica,sans-Serif" font-size="10.00" fill="#000000">+ Optional()</text>
<text text-anchor="start" x="390" y="-759.5" font-family="Helvetica,sans-Serif" font-size="10.00" fill="#000000">+ Optional()</text>
<text text-anchor="start" x="390" y="-748.5" font-family="Helvetica,sans-Serif" font-size="10.00" fill="#000000">+ Optional()</text>
<text text-anchor="start" x="390" y="-737.5" font-family="Helvetica,sans-Serif" font-size="10.00" fill="#000000">+ Optional()</text>
<text text-anchor="start" x="390" y="-726.5" font-family="Helvetica,sans-Serif" font-size="10.00" fill="#000000">+ operator=()</text>
<text text-anchor="start" x="390" y="-715.5" font-family="Helvetica,sans-Serif" font-size="10.00" fill="#000000">+ operator=()</text>
<text text-anchor="start" x="390" y="-704.5" font-family="Helvetica,sans-Serif" font-size="10.00" fill="#000000">and 15 more...</text>
</a>
</g>
</g>
<!-- Node9&#45;&gt;Node12 -->
<g id="edge12" class="edge">
<title>Node9&#45;&gt;Node12</title>
<path fill="none" stroke="#191970" d="M487.6078,-1309.456C483.4174,-1200.6842 476.4937,-1036.5997 468,-894 467.6439,-888.0219 467.2519,-881.8586 466.8384,-875.6498"/>
<polygon fill="none" stroke="#191970" points="484.1114,-1309.6205 487.9922,-1319.479 491.1063,-1309.3522 484.1114,-1309.6205"/>
</g>
<!-- Node13 -->
<g id="node10" class="node">
<title>Node13</title>
<g id="a_node10"><a xlink:href="classtvm_1_1runtime_1_1NDArray.html" target="_top" xlink:title="Managed NDArray. The array is backed by reference counted blocks. ">
<polygon fill="#ffffff" stroke="#000000" points="576.5,-270.5 576.5,-547.5 759.5,-547.5 759.5,-270.5 576.5,-270.5"/>
<text text-anchor="middle" x="668" y="-535.5" font-family="Helvetica,sans-Serif" font-size="10.00" fill="#000000">tvm::runtime::NDArray</text>
<polyline fill="none" stroke="#000000" points="576.5,-528.5 759.5,-528.5 "/>
<text text-anchor="middle" x="668" y="-516.5" font-family="Helvetica,sans-Serif" font-size="10.00" fill="#000000"> </text>
<polyline fill="none" stroke="#000000" points="576.5,-509.5 759.5,-509.5 "/>
<text text-anchor="start" x="584.5" y="-497.5" font-family="Helvetica,sans-Serif" font-size="10.00" fill="#000000">+ NDArray()</text>
<text text-anchor="start" x="584.5" y="-486.5" font-family="Helvetica,sans-Serif" font-size="10.00" fill="#000000">+ NDArray()</text>
<text text-anchor="start" x="584.5" y="-475.5" font-family="Helvetica,sans-Serif" font-size="10.00" fill="#000000">+ reset()</text>
<text text-anchor="start" x="584.5" y="-464.5" font-family="Helvetica,sans-Serif" font-size="10.00" fill="#000000">+ use_count()</text>
<text text-anchor="start" x="584.5" y="-453.5" font-family="Helvetica,sans-Serif" font-size="10.00" fill="#000000">+ operator&#45;&gt;()</text>
<text text-anchor="start" x="584.5" y="-442.5" font-family="Helvetica,sans-Serif" font-size="10.00" fill="#000000">+ IsContiguous()</text>
<text text-anchor="start" x="584.5" y="-431.5" font-family="Helvetica,sans-Serif" font-size="10.00" fill="#000000">+ CopyFrom()</text>
<text text-anchor="start" x="584.5" y="-420.5" font-family="Helvetica,sans-Serif" font-size="10.00" fill="#000000">+ CopyFrom()</text>
<text text-anchor="start" x="584.5" y="-409.5" font-family="Helvetica,sans-Serif" font-size="10.00" fill="#000000">+ CopyFromBytes()</text>
<text text-anchor="start" x="584.5" y="-398.5" font-family="Helvetica,sans-Serif" font-size="10.00" fill="#000000">+ CopyTo()</text>
<text text-anchor="start" x="584.5" y="-387.5" font-family="Helvetica,sans-Serif" font-size="10.00" fill="#000000">and 9 more...</text>
<text text-anchor="start" x="584.5" y="-376.5" font-family="Helvetica,sans-Serif" font-size="10.00" fill="#000000">+ Empty()</text>
<text text-anchor="start" x="584.5" y="-365.5" font-family="Helvetica,sans-Serif" font-size="10.00" fill="#000000">+ FromExternalDLTensor()</text>
<text text-anchor="start" x="584.5" y="-354.5" font-family="Helvetica,sans-Serif" font-size="10.00" fill="#000000">+ NewFromDLTensor()</text>
<text text-anchor="start" x="584.5" y="-343.5" font-family="Helvetica,sans-Serif" font-size="10.00" fill="#000000">+ FromDLPack()</text>
<text text-anchor="start" x="584.5" y="-332.5" font-family="Helvetica,sans-Serif" font-size="10.00" fill="#000000">+ CopyFromTo()</text>
<text text-anchor="start" x="584.5" y="-321.5" font-family="Helvetica,sans-Serif" font-size="10.00" fill="#000000">+ AbilityOfZeroCopyForDLTensor()</text>
<text text-anchor="start" x="584.5" y="-310.5" font-family="Helvetica,sans-Serif" font-size="10.00" fill="#000000"># get_mutable()</text>
<text text-anchor="start" x="584.5" y="-299.5" font-family="Helvetica,sans-Serif" font-size="10.00" fill="#000000"># FFIDataFromHandle()</text>
<text text-anchor="start" x="584.5" y="-288.5" font-family="Helvetica,sans-Serif" font-size="10.00" fill="#000000"># FFIDecRef()</text>
<text text-anchor="start" x="584.5" y="-277.5" font-family="Helvetica,sans-Serif" font-size="10.00" fill="#000000"># FFIGetHandle()</text>
</a>
</g>
</g>
<!-- Node9&#45;&gt;Node13 -->
<g id="edge14" class="edge">
<title>Node9&#45;&gt;Node13</title>
<path fill="none" stroke="#191970" d="M563.7438,-1325.8847C567.9249,-1317.6532 571.7446,-1309.3079 575,-1301 673.7712,-1048.9368 681.2738,-727.7859 675.9225,-547.6756"/>
<polygon fill="none" stroke="#191970" points="560.6307,-1324.2849 559.0746,-1334.7649 566.8264,-1327.5427 560.6307,-1324.2849"/>
</g>
<!-- Node10 -->
<g id="node7" class="node">
<title>Node10</title>
<g id="a_node7"><a xlink:href="classtvm_1_1runtime_1_1ObjectPtr.html" target="_top" xlink:title="{tvm::runtime::ObjectPtr\l\&lt; tvm::runtime::Object \&gt;\n||+ ObjectPtr()\l+ ObjectPtr()\l+ ObjectPtr()\l+ ObjectPtr()\l+ ObjectPtr()\l+ ObjectPtr()\l+ ~ObjectPtr()\l+ swap()\l+ get()\l+ operator&#45;\&gt;()\land 11 more...\l}">
<polygon fill="#ffffff" stroke="#000000" points="422,-1589.5 422,-1767.5 562,-1767.5 562,-1589.5 422,-1589.5"/>
<text text-anchor="start" x="430" y="-1755.5" font-family="Helvetica,sans-Serif" font-size="10.00" fill="#000000">tvm::runtime::ObjectPtr</text>
<text text-anchor="middle" x="492" y="-1744.5" font-family="Helvetica,sans-Serif" font-size="10.00" fill="#000000">&lt; tvm::runtime::Object &gt;</text>
<polyline fill="none" stroke="#000000" points="422,-1737.5 562,-1737.5 "/>
<text text-anchor="middle" x="492" y="-1725.5" font-family="Helvetica,sans-Serif" font-size="10.00" fill="#000000"> </text>
<polyline fill="none" stroke="#000000" points="422,-1718.5 562,-1718.5 "/>
<text text-anchor="start" x="430" y="-1706.5" font-family="Helvetica,sans-Serif" font-size="10.00" fill="#000000">+ ObjectPtr()</text>
<text text-anchor="start" x="430" y="-1695.5" font-family="Helvetica,sans-Serif" font-size="10.00" fill="#000000">+ ObjectPtr()</text>
<text text-anchor="start" x="430" y="-1684.5" font-family="Helvetica,sans-Serif" font-size="10.00" fill="#000000">+ ObjectPtr()</text>
<text text-anchor="start" x="430" y="-1673.5" font-family="Helvetica,sans-Serif" font-size="10.00" fill="#000000">+ ObjectPtr()</text>
<text text-anchor="start" x="430" y="-1662.5" font-family="Helvetica,sans-Serif" font-size="10.00" fill="#000000">+ ObjectPtr()</text>
<text text-anchor="start" x="430" y="-1651.5" font-family="Helvetica,sans-Serif" font-size="10.00" fill="#000000">+ ObjectPtr()</text>
<text text-anchor="start" x="430" y="-1640.5" font-family="Helvetica,sans-Serif" font-size="10.00" fill="#000000">+ ~ObjectPtr()</text>
<text text-anchor="start" x="430" y="-1629.5" font-family="Helvetica,sans-Serif" font-size="10.00" fill="#000000">+ swap()</text>
<text text-anchor="start" x="430" y="-1618.5" font-family="Helvetica,sans-Serif" font-size="10.00" fill="#000000">+ get()</text>
<text text-anchor="start" x="430" y="-1607.5" font-family="Helvetica,sans-Serif" font-size="10.00" fill="#000000">+ operator&#45;&gt;()</text>
<text text-anchor="start" x="430" y="-1596.5" font-family="Helvetica,sans-Serif" font-size="10.00" fill="#000000">and 11 more...</text>
</a>
</g>
</g>
<!-- Node10&#45;&gt;Node9 -->
<g id="edge7" class="edge">
<title>Node10&#45;&gt;Node9</title>
<path fill="none" stroke="#404040" d="M492,-1589.3167C492,-1577.8765 492,-1566.0062 492,-1554.1402"/>
<polygon fill="none" stroke="#404040" points="492.0001,-1553.7944 488,-1547.7944 492,-1541.7944 496,-1547.7943 492.0001,-1553.7944"/>
<text text-anchor="middle" x="511.5" y="-1563" font-family="Helvetica,sans-Serif" font-size="10.00" fill="#000000"> #data_</text>
</g>
<!-- Node11&#45;&gt;Node5 -->
<g id="edge9" class="edge">
<title>Node11&#45;&gt;Node5</title>
<path fill="none" stroke="#404040" d="M309.41,-752.4903C335.7798,-657.1847 410.6864,-386.4575 444.7537,-263.3315"/>
<polygon fill="none" stroke="#404040" points="444.8178,-263.0998 442.5626,-256.2504 448.0178,-251.5343 450.2729,-258.3837 444.8178,-263.0998"/>
<text text-anchor="middle" x="403.5" y="-620" font-family="Helvetica,sans-Serif" font-size="10.00" fill="#000000"> +checked_type_</text>
</g>
<!-- Node12&#45;&gt;Node5 -->
<g id="edge11" class="edge">
<title>Node12&#45;&gt;Node5</title>
<path fill="none" stroke="#404040" d="M460.3048,-697.2567C460.7136,-577.5923 461.4291,-368.1404 461.7855,-263.7908"/>
<polygon fill="none" stroke="#404040" points="461.7861,-263.5993 457.8066,-257.5856 461.8272,-251.5994 465.8066,-257.613 461.7861,-263.5993"/>
<text text-anchor="middle" x="495.5" y="-620" font-family="Helvetica,sans-Serif" font-size="10.00" fill="#000000"> +struct_info_</text>
</g>
<!-- Node13&#45;&gt;Node4 -->
<g id="edge13" class="edge">
<title>Node13&#45;&gt;Node4</title>
<path fill="none" stroke="#404040" d="M627.1203,-270.4416C612.2839,-220.1546 596.1804,-165.573 583.9524,-124.127"/>
<polygon fill="none" stroke="#404040" points="583.9258,-124.0369 578.3914,-119.4141 580.5301,-112.5274 586.0645,-117.1502 583.9258,-124.0369"/>
<text text-anchor="middle" x="638" y="-198.5" font-family="Helvetica,sans-Serif" font-size="10.00" fill="#000000"> +data</text>
</g>
</g>
</svg>
