<?xml version="1.0" encoding="UTF-8" standalone="no"?>
<!DOCTYPE svg PUBLIC "-//W3C//DTD SVG 1.1//EN"
 "http://www.w3.org/Graphics/SVG/1.1/DTD/svg11.dtd">
<!-- Generated by graphviz version 2.40.1 (20161225.0304)
 -->
<!-- Title: tvm::script::ir_builder::relax::IfFrameNode Pages: 1 -->
<svg width="642pt" height="1894pt"
 viewBox="0.00 0.00 641.50 1894.00" xmlns="http://www.w3.org/2000/svg" xmlns:xlink="http://www.w3.org/1999/xlink">
<g id="graph0" class="graph" transform="scale(1 1) rotate(0) translate(4 1890)">
<title>tvm::script::ir_builder::relax::IfFrameNode</title>
<polygon fill="#ffffff" stroke="transparent" points="-4,4 -4,-1890 637.5,-1890 637.5,4 -4,4"/>
<!-- Node4 -->
<g id="node1" class="node">
<title>Node4</title>
<polygon fill="#bfbfbf" stroke="#000000" points="278,-.5 278,-101.5 487,-101.5 487,-.5 278,-.5"/>
<text text-anchor="start" x="286" y="-89.5" font-family="Helvetica,sans-Serif" font-size="10.00" fill="#000000">tvm::script::ir_builder</text>
<text text-anchor="middle" x="382.5" y="-78.5" font-family="Helvetica,sans-Serif" font-size="10.00" fill="#000000">::relax::IfFrameNode</text>
<polyline fill="none" stroke="#000000" points="278,-71.5 487,-71.5 "/>
<text text-anchor="start" x="286" y="-59.5" font-family="Helvetica,sans-Serif" font-size="10.00" fill="#000000">+ _type_key</text>
<polyline fill="none" stroke="#000000" points="278,-52.5 487,-52.5 "/>
<text text-anchor="start" x="286" y="-40.5" font-family="Helvetica,sans-Serif" font-size="10.00" fill="#000000">+ VisitAttrs()</text>
<text text-anchor="start" x="286" y="-29.5" font-family="Helvetica,sans-Serif" font-size="10.00" fill="#000000">+ TVM_DECLARE_FINAL_OBJECT_INFO()</text>
<text text-anchor="start" x="286" y="-18.5" font-family="Helvetica,sans-Serif" font-size="10.00" fill="#000000">+ EnterWithScope()</text>
<text text-anchor="start" x="286" y="-7.5" font-family="Helvetica,sans-Serif" font-size="10.00" fill="#000000">+ ExitWithScope()</text>
</g>
<!-- Node5 -->
<g id="node2" class="node">
<title>Node5</title>
<g id="a_node2"><a xlink:href="classtvm_1_1script_1_1ir__builder_1_1relax_1_1RelaxFrameNode.html" target="_top" xlink:title="The base ir_builder frame for the relax dialect. ">
<polygon fill="#ffffff" stroke="#000000" points="35,-166 35,-245 242,-245 242,-166 35,-166"/>
<text text-anchor="start" x="43" y="-233" font-family="Helvetica,sans-Serif" font-size="10.00" fill="#000000">tvm::script::ir_builder</text>
<text text-anchor="middle" x="138.5" y="-222" font-family="Helvetica,sans-Serif" font-size="10.00" fill="#000000">::relax::RelaxFrameNode</text>
<polyline fill="none" stroke="#000000" points="35,-215 242,-215 "/>
<text text-anchor="start" x="43" y="-203" font-family="Helvetica,sans-Serif" font-size="10.00" fill="#000000">+ _type_key</text>
<polyline fill="none" stroke="#000000" points="35,-196 242,-196 "/>
<text text-anchor="start" x="43" y="-184" font-family="Helvetica,sans-Serif" font-size="10.00" fill="#000000">+ VisitAttrs()</text>
<text text-anchor="start" x="43" y="-173" font-family="Helvetica,sans-Serif" font-size="10.00" fill="#000000">+ TVM_DECLARE_BASE_OBJECT_INFO()</text>
</a>
</g>
</g>
<!-- Node5&#45;&gt;Node4 -->
<g id="edge1" class="edge">
<title>Node5&#45;&gt;Node4</title>
<path fill="none" stroke="#191970" d="M202.946,-160.0727C222.2255,-146.85 243.5468,-132.5843 263.5,-120 273.1958,-113.8849 283.4393,-107.6372 293.6842,-101.5216"/>
<polygon fill="none" stroke="#191970" points="200.784,-157.3119 194.5322,-165.8655 204.7536,-163.0775 200.784,-157.3119"/>
</g>
<!-- Node6 -->
<g id="node3" class="node">
<title>Node6</title>
<g id="a_node3"><a xlink:href="classtvm_1_1script_1_1ir__builder_1_1IRBuilderFrameNode.html" target="_top" xlink:title="{tvm::script::ir_builder\l::IRBuilderFrameNode\n|+ callbacks\l+ _type_key\l|+ VisitAttrs()\l+ TVM_DECLARE_BASE_OBJECT_INFO()\l+ ~IRBuilderFrameNode()\l+ EnterWithScope()\l+ ExitWithScope()\l+ AddCallback()\l}">
<polygon fill="#ffffff" stroke="#000000" points="28,-488.5 28,-622.5 235,-622.5 235,-488.5 28,-488.5"/>
<text text-anchor="start" x="36" y="-610.5" font-family="Helvetica,sans-Serif" font-size="10.00" fill="#000000">tvm::script::ir_builder</text>
<text text-anchor="middle" x="131.5" y="-599.5" font-family="Helvetica,sans-Serif" font-size="10.00" fill="#000000">::IRBuilderFrameNode</text>
<polyline fill="none" stroke="#000000" points="28,-592.5 235,-592.5 "/>
<text text-anchor="start" x="36" y="-580.5" font-family="Helvetica,sans-Serif" font-size="10.00" fill="#000000">+ callbacks</text>
<text text-anchor="start" x="36" y="-569.5" font-family="Helvetica,sans-Serif" font-size="10.00" fill="#000000">+ _type_key</text>
<polyline fill="none" stroke="#000000" points="28,-562.5 235,-562.5 "/>
<text text-anchor="start" x="36" y="-550.5" font-family="Helvetica,sans-Serif" font-size="10.00" fill="#000000">+ VisitAttrs()</text>
<text text-anchor="start" x="36" y="-539.5" font-family="Helvetica,sans-Serif" font-size="10.00" fill="#000000">+ TVM_DECLARE_BASE_OBJECT_INFO()</text>
<text text-anchor="start" x="36" y="-528.5" font-family="Helvetica,sans-Serif" font-size="10.00" fill="#000000">+ ~IRBuilderFrameNode()</text>
<text text-anchor="start" x="36" y="-517.5" font-family="Helvetica,sans-Serif" font-size="10.00" fill="#000000">+ EnterWithScope()</text>
<text text-anchor="start" x="36" y="-506.5" font-family="Helvetica,sans-Serif" font-size="10.00" fill="#000000">+ ExitWithScope()</text>
<text text-anchor="start" x="36" y="-495.5" font-family="Helvetica,sans-Serif" font-size="10.00" fill="#000000">+ AddCallback()</text>
</a>
</g>
</g>
<!-- Node6&#45;&gt;Node5 -->
<g id="edge2" class="edge">
<title>Node6&#45;&gt;Node5</title>
<path fill="none" stroke="#191970" d="M133.0491,-478.0437C134.4903,-405.9845 136.5799,-301.5036 137.7074,-245.1315"/>
<polygon fill="none" stroke="#191970" points="129.5421,-478.3626 132.8414,-488.4306 136.5407,-478.5026 129.5421,-478.3626"/>
</g>
<!-- Node7 -->
<g id="node4" class="node">
<title>Node7</title>
<g id="a_node4"><a xlink:href="classtvm_1_1runtime_1_1Object.html" target="_top" xlink:title="base class of all object containers. ">
<polygon fill="#ffffff" stroke="#000000" points="0,-728.5 0,-1115.5 183,-1115.5 183,-728.5 0,-728.5"/>
<text text-anchor="middle" x="91.5" y="-1103.5" font-family="Helvetica,sans-Serif" font-size="10.00" fill="#000000">tvm::runtime::Object</text>
<polyline fill="none" stroke="#000000" points="0,-1096.5 183,-1096.5 "/>
<text text-anchor="start" x="8" y="-1084.5" font-family="Helvetica,sans-Serif" font-size="10.00" fill="#000000">+ _type_key</text>
<text text-anchor="start" x="8" y="-1073.5" font-family="Helvetica,sans-Serif" font-size="10.00" fill="#000000">+ _type_final</text>
<text text-anchor="start" x="8" y="-1062.5" font-family="Helvetica,sans-Serif" font-size="10.00" fill="#000000">+ _type_child_slots</text>
<text text-anchor="start" x="8" y="-1051.5" font-family="Helvetica,sans-Serif" font-size="10.00" fill="#000000">+ _type_child_slots_can</text>
<text text-anchor="start" x="8" y="-1040.5" font-family="Helvetica,sans-Serif" font-size="10.00" fill="#000000">_overflow</text>
<text text-anchor="start" x="8" y="-1029.5" font-family="Helvetica,sans-Serif" font-size="10.00" fill="#000000">+ _type_has_method_visit</text>
<text text-anchor="start" x="8" y="-1018.5" font-family="Helvetica,sans-Serif" font-size="10.00" fill="#000000">_attrs</text>
<text text-anchor="start" x="8" y="-1007.5" font-family="Helvetica,sans-Serif" font-size="10.00" fill="#000000">+ _type_has_method_sequal</text>
<text text-anchor="start" x="8" y="-996.5" font-family="Helvetica,sans-Serif" font-size="10.00" fill="#000000">_reduce</text>
<text text-anchor="start" x="8" y="-985.5" font-family="Helvetica,sans-Serif" font-size="10.00" fill="#000000">+ _type_has_method_shash</text>
<text text-anchor="start" x="8" y="-974.5" font-family="Helvetica,sans-Serif" font-size="10.00" fill="#000000">_reduce</text>
<text text-anchor="start" x="8" y="-963.5" font-family="Helvetica,sans-Serif" font-size="10.00" fill="#000000">+ _type_index</text>
<text text-anchor="start" x="8" y="-952.5" font-family="Helvetica,sans-Serif" font-size="10.00" fill="#000000"># type_index_</text>
<text text-anchor="start" x="8" y="-941.5" font-family="Helvetica,sans-Serif" font-size="10.00" fill="#000000"># ref_counter_</text>
<polyline fill="none" stroke="#000000" points="0,-934.5 183,-934.5 "/>
<text text-anchor="start" x="8" y="-922.5" font-family="Helvetica,sans-Serif" font-size="10.00" fill="#000000">+ type_index()</text>
<text text-anchor="start" x="8" y="-911.5" font-family="Helvetica,sans-Serif" font-size="10.00" fill="#000000">+ GetTypeKey()</text>
<text text-anchor="start" x="8" y="-900.5" font-family="Helvetica,sans-Serif" font-size="10.00" fill="#000000">+ GetTypeKeyHash()</text>
<text text-anchor="start" x="8" y="-889.5" font-family="Helvetica,sans-Serif" font-size="10.00" fill="#000000">+ IsInstance()</text>
<text text-anchor="start" x="8" y="-878.5" font-family="Helvetica,sans-Serif" font-size="10.00" fill="#000000">+ unique()</text>
<text text-anchor="start" x="8" y="-867.5" font-family="Helvetica,sans-Serif" font-size="10.00" fill="#000000">+ Object()</text>
<text text-anchor="start" x="8" y="-856.5" font-family="Helvetica,sans-Serif" font-size="10.00" fill="#000000">+ Object()</text>
<text text-anchor="start" x="8" y="-845.5" font-family="Helvetica,sans-Serif" font-size="10.00" fill="#000000">+ Object()</text>
<text text-anchor="start" x="8" y="-834.5" font-family="Helvetica,sans-Serif" font-size="10.00" fill="#000000">+ operator=()</text>
<text text-anchor="start" x="8" y="-823.5" font-family="Helvetica,sans-Serif" font-size="10.00" fill="#000000">+ operator=()</text>
<text text-anchor="start" x="8" y="-812.5" font-family="Helvetica,sans-Serif" font-size="10.00" fill="#000000">+ TypeIndex2Key()</text>
<text text-anchor="start" x="8" y="-801.5" font-family="Helvetica,sans-Serif" font-size="10.00" fill="#000000">+ TypeIndex2KeyHash()</text>
<text text-anchor="start" x="8" y="-790.5" font-family="Helvetica,sans-Serif" font-size="10.00" fill="#000000">+ TypeKey2Index()</text>
<text text-anchor="start" x="8" y="-779.5" font-family="Helvetica,sans-Serif" font-size="10.00" fill="#000000">+ _GetOrAllocRuntimeTypeIndex()</text>
<text text-anchor="start" x="8" y="-768.5" font-family="Helvetica,sans-Serif" font-size="10.00" fill="#000000">+ RuntimeTypeIndex()</text>
<text text-anchor="start" x="8" y="-757.5" font-family="Helvetica,sans-Serif" font-size="10.00" fill="#000000"># IncRef()</text>
<text text-anchor="start" x="8" y="-746.5" font-family="Helvetica,sans-Serif" font-size="10.00" fill="#000000"># DecRef()</text>
<text text-anchor="start" x="8" y="-735.5" font-family="Helvetica,sans-Serif" font-size="10.00" fill="#000000"># GetOrAllocRuntimeTypeIndex()</text>
</a>
</g>
</g>
<!-- Node7&#45;&gt;Node6 -->
<g id="edge3" class="edge">
<title>Node7&#45;&gt;Node6</title>
<path fill="none" stroke="#191970" d="M113.7574,-718.0667C117.5149,-683.6386 121.1647,-650.1969 124.1672,-622.6863"/>
<polygon fill="none" stroke="#191970" points="110.2477,-717.9655 112.642,-728.2862 117.2064,-718.725 110.2477,-717.9655"/>
</g>
<!-- Node7&#45;&gt;Node7 -->
<g id="edge4" class="edge">
<title>Node7&#45;&gt;Node7</title>
<path fill="none" stroke="#404040" d="M183.3625,-961.3656C194.0482,-954.1004 201,-940.9785 201,-922 201,-908.9523 197.7142,-898.6727 192.1882,-891.1614"/>
<polygon fill="none" stroke="#404040" points="191.9926,-890.9724 184.8983,-889.6801 183.3625,-882.6344 190.4569,-883.9267 191.9926,-890.9724"/>
<text text-anchor="middle" x="227" y="-919.5" font-family="Helvetica,sans-Serif" font-size="10.00" fill="#000000"> #deleter_</text>
</g>
<!-- Node8 -->
<g id="node5" class="node">
<title>Node8</title>
<g id="a_node5"><a xlink:href="classtvm_1_1RelayExpr.html" target="_top" xlink:title="Managed reference to RelayExprNode. ">
<polygon fill="#ffffff" stroke="#000000" points="202.5,-641.5 202.5,-709.5 356.5,-709.5 356.5,-641.5 202.5,-641.5"/>
<text text-anchor="middle" x="279.5" y="-697.5" font-family="Helvetica,sans-Serif" font-size="10.00" fill="#000000">tvm::RelayExpr</text>
<polyline fill="none" stroke="#000000" points="202.5,-690.5 356.5,-690.5 "/>
<text text-anchor="middle" x="279.5" y="-678.5" font-family="Helvetica,sans-Serif" font-size="10.00" fill="#000000"> </text>
<polyline fill="none" stroke="#000000" points="202.5,-671.5 356.5,-671.5 "/>
<text text-anchor="start" x="210.5" y="-659.5" font-family="Helvetica,sans-Serif" font-size="10.00" fill="#000000">+ TVM_DEFINE_OBJECT_REF</text>
<text text-anchor="start" x="210.5" y="-648.5" font-family="Helvetica,sans-Serif" font-size="10.00" fill="#000000">_METHODS()</text>
</a>
</g>
</g>
<!-- Node8&#45;&gt;Node4 -->
<g id="edge5" class="edge">
<title>Node8&#45;&gt;Node4</title>
<path fill="none" stroke="#404040" d="M272.9434,-641.2684C258.0014,-554.9568 227.7767,-322.939 296.5,-149 301.7961,-135.5955 309.7778,-122.7965 318.7815,-111.1311"/>
<polygon fill="none" stroke="#404040" points="318.9629,-110.9087 319.6562,-103.731 326.5485,-101.6103 325.8551,-108.788 318.9629,-110.9087"/>
<text text-anchor="middle" x="292" y="-372.5" font-family="Helvetica,sans-Serif" font-size="10.00" fill="#000000"> +condition</text>
</g>
<!-- Node9 -->
<g id="node6" class="node">
<title>Node9</title>
<g id="a_node6"><a xlink:href="classtvm_1_1BaseExpr.html" target="_top" xlink:title="Managed reference to BaseExprNode. ">
<polygon fill="#ffffff" stroke="#000000" points="309.5,-1331.5 309.5,-1399.5 463.5,-1399.5 463.5,-1331.5 309.5,-1331.5"/>
<text text-anchor="middle" x="386.5" y="-1387.5" font-family="Helvetica,sans-Serif" font-size="10.00" fill="#000000">tvm::BaseExpr</text>
<polyline fill="none" stroke="#000000" points="309.5,-1380.5 463.5,-1380.5 "/>
<text text-anchor="middle" x="386.5" y="-1368.5" font-family="Helvetica,sans-Serif" font-size="10.00" fill="#000000"> </text>
<polyline fill="none" stroke="#000000" points="309.5,-1361.5 463.5,-1361.5 "/>
<text text-anchor="start" x="317.5" y="-1349.5" font-family="Helvetica,sans-Serif" font-size="10.00" fill="#000000">+ TVM_DEFINE_OBJECT_REF</text>
<text text-anchor="start" x="317.5" y="-1338.5" font-family="Helvetica,sans-Serif" font-size="10.00" fill="#000000">_METHODS()</text>
</a>
</g>
</g>
<!-- Node9&#45;&gt;Node8 -->
<g id="edge6" class="edge">
<title>Node9&#45;&gt;Node8</title>
<path fill="none" stroke="#191970" d="M367.2073,-1321.8942C346.5449,-1272.8949 314.802,-1190.4515 300.5,-1116 271.8297,-966.7522 274.9949,-784.113 277.8632,-709.5975"/>
<polygon fill="none" stroke="#191970" points="364.0466,-1323.4055 371.1836,-1331.2358 370.4874,-1320.6639 364.0466,-1323.4055"/>
</g>
<!-- Node14 -->
<g id="node11" class="node">
<title>Node14</title>
<g id="a_node11"><a xlink:href="classtvm_1_1RelayExpr.html" target="_top" xlink:title="Managed reference to RelayExprNode. ">
<polygon fill="#ffffff" stroke="#000000" points="309.5,-888 309.5,-956 463.5,-956 463.5,-888 309.5,-888"/>
<text text-anchor="middle" x="386.5" y="-944" font-family="Helvetica,sans-Serif" font-size="10.00" fill="#000000">Expr</text>
<polyline fill="none" stroke="#000000" points="309.5,-937 463.5,-937 "/>
<text text-anchor="middle" x="386.5" y="-925" font-family="Helvetica,sans-Serif" font-size="10.00" fill="#000000"> </text>
<polyline fill="none" stroke="#000000" points="309.5,-918 463.5,-918 "/>
<text text-anchor="start" x="317.5" y="-906" font-family="Helvetica,sans-Serif" font-size="10.00" fill="#000000">+ TVM_DEFINE_OBJECT_REF</text>
<text text-anchor="start" x="317.5" y="-895" font-family="Helvetica,sans-Serif" font-size="10.00" fill="#000000">_METHODS()</text>
</a>
</g>
</g>
<!-- Node9&#45;&gt;Node14 -->
<g id="edge12" class="edge">
<title>Node9&#45;&gt;Node14</title>
<path fill="none" stroke="#191970" d="M386.5,-1321.1931C386.5,-1232.6681 386.5,-1035.6237 386.5,-956.1803"/>
<polygon fill="none" stroke="#191970" points="383.0001,-1321.4357 386.5,-1331.4357 390.0001,-1321.4357 383.0001,-1321.4357"/>
</g>
<!-- Node10 -->
<g id="node7" class="node">
<title>Node10</title>
<g id="a_node7"><a xlink:href="classtvm_1_1runtime_1_1ObjectRef.html" target="_top" xlink:title="Base class of all object reference. ">
<polygon fill="#ffffff" stroke="#000000" points="428.5,-1437.5 428.5,-1659.5 562.5,-1659.5 562.5,-1437.5 428.5,-1437.5"/>
<text text-anchor="middle" x="495.5" y="-1647.5" font-family="Helvetica,sans-Serif" font-size="10.00" fill="#000000">tvm::runtime::ObjectRef</text>
<polyline fill="none" stroke="#000000" points="428.5,-1640.5 562.5,-1640.5 "/>
<text text-anchor="start" x="436.5" y="-1628.5" font-family="Helvetica,sans-Serif" font-size="10.00" fill="#000000">+ _type_is_nullable</text>
<polyline fill="none" stroke="#000000" points="428.5,-1621.5 562.5,-1621.5 "/>
<text text-anchor="start" x="436.5" y="-1609.5" font-family="Helvetica,sans-Serif" font-size="10.00" fill="#000000">+ ObjectRef()</text>
<text text-anchor="start" x="436.5" y="-1598.5" font-family="Helvetica,sans-Serif" font-size="10.00" fill="#000000">+ ObjectRef()</text>
<text text-anchor="start" x="436.5" y="-1587.5" font-family="Helvetica,sans-Serif" font-size="10.00" fill="#000000">+ same_as()</text>
<text text-anchor="start" x="436.5" y="-1576.5" font-family="Helvetica,sans-Serif" font-size="10.00" fill="#000000">+ operator==()</text>
<text text-anchor="start" x="436.5" y="-1565.5" font-family="Helvetica,sans-Serif" font-size="10.00" fill="#000000">+ operator!=()</text>
<text text-anchor="start" x="436.5" y="-1554.5" font-family="Helvetica,sans-Serif" font-size="10.00" fill="#000000">+ operator&lt;()</text>
<text text-anchor="start" x="436.5" y="-1543.5" font-family="Helvetica,sans-Serif" font-size="10.00" fill="#000000">+ defined()</text>
<text text-anchor="start" x="436.5" y="-1532.5" font-family="Helvetica,sans-Serif" font-size="10.00" fill="#000000">+ get()</text>
<text text-anchor="start" x="436.5" y="-1521.5" font-family="Helvetica,sans-Serif" font-size="10.00" fill="#000000">+ operator&#45;&gt;()</text>
<text text-anchor="start" x="436.5" y="-1510.5" font-family="Helvetica,sans-Serif" font-size="10.00" fill="#000000">+ unique()</text>
<text text-anchor="start" x="436.5" y="-1499.5" font-family="Helvetica,sans-Serif" font-size="10.00" fill="#000000">+ use_count()</text>
<text text-anchor="start" x="436.5" y="-1488.5" font-family="Helvetica,sans-Serif" font-size="10.00" fill="#000000">+ as()</text>
<text text-anchor="start" x="436.5" y="-1477.5" font-family="Helvetica,sans-Serif" font-size="10.00" fill="#000000"># get_mutable()</text>
<text text-anchor="start" x="436.5" y="-1466.5" font-family="Helvetica,sans-Serif" font-size="10.00" fill="#000000"># DowncastNoCheck()</text>
<text text-anchor="start" x="436.5" y="-1455.5" font-family="Helvetica,sans-Serif" font-size="10.00" fill="#000000"># FFIClearAfterMove()</text>
<text text-anchor="start" x="436.5" y="-1444.5" font-family="Helvetica,sans-Serif" font-size="10.00" fill="#000000"># GetDataPtr()</text>
</a>
</g>
</g>
<!-- Node10&#45;&gt;Node9 -->
<g id="edge7" class="edge">
<title>Node10&#45;&gt;Node9</title>
<path fill="none" stroke="#191970" d="M424.0027,-1428.4633C417.8172,-1418.0785 411.9564,-1408.2386 406.7855,-1399.5572"/>
<polygon fill="none" stroke="#191970" points="421.1425,-1430.5008 429.2668,-1437.3012 427.1565,-1426.9187 421.1425,-1430.5008"/>
</g>
<!-- Node15 -->
<g id="node12" class="node">
<title>Node15</title>
<g id="a_node12"><a xlink:href="classtvm_1_1runtime_1_1Optional.html" target="_top" xlink:title="{tvm::runtime::Optional\l\&lt; tvm::RelayExpr \&gt;\n|+ _type_is_nullable\l|+ Optional()\l+ Optional()\l+ Optional()\l+ Optional()\l+ Optional()\l+ Optional()\l+ Optional()\l+ Optional()\l+ operator=()\l+ operator=()\land 15 more...\l}">
<polygon fill="#ffffff" stroke="#000000" points="431.5,-1134.5 431.5,-1312.5 559.5,-1312.5 559.5,-1134.5 431.5,-1134.5"/>
<text text-anchor="start" x="439.5" y="-1300.5" font-family="Helvetica,sans-Serif" font-size="10.00" fill="#000000">tvm::runtime::Optional</text>
<text text-anchor="middle" x="495.5" y="-1289.5" font-family="Helvetica,sans-Serif" font-size="10.00" fill="#000000">&lt; tvm::RelayExpr &gt;</text>
<polyline fill="none" stroke="#000000" points="431.5,-1282.5 559.5,-1282.5 "/>
<text text-anchor="start" x="439.5" y="-1270.5" font-family="Helvetica,sans-Serif" font-size="10.00" fill="#000000">+ _type_is_nullable</text>
<polyline fill="none" stroke="#000000" points="431.5,-1263.5 559.5,-1263.5 "/>
<text text-anchor="start" x="439.5" y="-1251.5" font-family="Helvetica,sans-Serif" font-size="10.00" fill="#000000">+ Optional()</text>
<text text-anchor="start" x="439.5" y="-1240.5" font-family="Helvetica,sans-Serif" font-size="10.00" fill="#000000">+ Optional()</text>
<text text-anchor="start" x="439.5" y="-1229.5" font-family="Helvetica,sans-Serif" font-size="10.00" fill="#000000">+ Optional()</text>
<text text-anchor="start" x="439.5" y="-1218.5" font-family="Helvetica,sans-Serif" font-size="10.00" fill="#000000">+ Optional()</text>
<text text-anchor="start" x="439.5" y="-1207.5" font-family="Helvetica,sans-Serif" font-size="10.00" fill="#000000">+ Optional()</text>
<text text-anchor="start" x="439.5" y="-1196.5" font-family="Helvetica,sans-Serif" font-size="10.00" fill="#000000">+ Optional()</text>
<text text-anchor="start" x="439.5" y="-1185.5" font-family="Helvetica,sans-Serif" font-size="10.00" fill="#000000">+ Optional()</text>
<text text-anchor="start" x="439.5" y="-1174.5" font-family="Helvetica,sans-Serif" font-size="10.00" fill="#000000">+ Optional()</text>
<text text-anchor="start" x="439.5" y="-1163.5" font-family="Helvetica,sans-Serif" font-size="10.00" fill="#000000">+ operator=()</text>
<text text-anchor="start" x="439.5" y="-1152.5" font-family="Helvetica,sans-Serif" font-size="10.00" fill="#000000">+ operator=()</text>
<text text-anchor="start" x="439.5" y="-1141.5" font-family="Helvetica,sans-Serif" font-size="10.00" fill="#000000">and 15 more...</text>
</a>
</g>
</g>
<!-- Node10&#45;&gt;Node15 -->
<g id="edge14" class="edge">
<title>Node10&#45;&gt;Node15</title>
<path fill="none" stroke="#191970" d="M495.5,-1427.0252C495.5,-1389.1053 495.5,-1347.9962 495.5,-1312.7165"/>
<polygon fill="none" stroke="#191970" points="492.0001,-1427.1081 495.5,-1437.1081 499.0001,-1427.1082 492.0001,-1427.1081"/>
</g>
<!-- Node16 -->
<g id="node13" class="node">
<title>Node16</title>
<g id="a_node13"><a xlink:href="classtvm_1_1runtime_1_1String.html" target="_top" xlink:title="Reference to string objects. ">
<polygon fill="#ffffff" stroke="#000000" points="517.5,-280.5 517.5,-469.5 633.5,-469.5 633.5,-280.5 517.5,-280.5"/>
<text text-anchor="middle" x="575.5" y="-457.5" font-family="Helvetica,sans-Serif" font-size="10.00" fill="#000000">tvm::runtime::String</text>
<polyline fill="none" stroke="#000000" points="517.5,-450.5 633.5,-450.5 "/>
<text text-anchor="middle" x="575.5" y="-438.5" font-family="Helvetica,sans-Serif" font-size="10.00" fill="#000000"> </text>
<polyline fill="none" stroke="#000000" points="517.5,-431.5 633.5,-431.5 "/>
<text text-anchor="start" x="525.5" y="-419.5" font-family="Helvetica,sans-Serif" font-size="10.00" fill="#000000">+ String()</text>
<text text-anchor="start" x="525.5" y="-408.5" font-family="Helvetica,sans-Serif" font-size="10.00" fill="#000000">+ String()</text>
<text text-anchor="start" x="525.5" y="-397.5" font-family="Helvetica,sans-Serif" font-size="10.00" fill="#000000">+ String()</text>
<text text-anchor="start" x="525.5" y="-386.5" font-family="Helvetica,sans-Serif" font-size="10.00" fill="#000000">+ String()</text>
<text text-anchor="start" x="525.5" y="-375.5" font-family="Helvetica,sans-Serif" font-size="10.00" fill="#000000">+ operator=()</text>
<text text-anchor="start" x="525.5" y="-364.5" font-family="Helvetica,sans-Serif" font-size="10.00" fill="#000000">+ operator=()</text>
<text text-anchor="start" x="525.5" y="-353.5" font-family="Helvetica,sans-Serif" font-size="10.00" fill="#000000">+ compare()</text>
<text text-anchor="start" x="525.5" y="-342.5" font-family="Helvetica,sans-Serif" font-size="10.00" fill="#000000">+ compare()</text>
<text text-anchor="start" x="525.5" y="-331.5" font-family="Helvetica,sans-Serif" font-size="10.00" fill="#000000">+ compare()</text>
<text text-anchor="start" x="525.5" y="-320.5" font-family="Helvetica,sans-Serif" font-size="10.00" fill="#000000">+ c_str()</text>
<text text-anchor="start" x="525.5" y="-309.5" font-family="Helvetica,sans-Serif" font-size="10.00" fill="#000000">and 6 more...</text>
<text text-anchor="start" x="525.5" y="-298.5" font-family="Helvetica,sans-Serif" font-size="10.00" fill="#000000">+ CanConvertFrom()</text>
<text text-anchor="start" x="525.5" y="-287.5" font-family="Helvetica,sans-Serif" font-size="10.00" fill="#000000">+ HashBytes()</text>
</a>
</g>
</g>
<!-- Node10&#45;&gt;Node16 -->
<g id="edge16" class="edge">
<title>Node10&#45;&gt;Node16</title>
<path fill="none" stroke="#191970" d="M566.5943,-1437.9373C576.0188,-1414.8755 582.5,-1390.0802 582.5,-1365.5 582.5,-1365.5 582.5,-1365.5 582.5,-675.5 582.5,-606.6167 580.6389,-528.8757 578.836,-469.7253"/>
<polygon fill="none" stroke="#191970" points="563.2751,-1436.7963 562.5404,-1447.3657 569.7059,-1439.5613 563.2751,-1436.7963"/>
</g>
<!-- Node11 -->
<g id="node8" class="node">
<title>Node11</title>
<g id="a_node8"><a xlink:href="classtvm_1_1runtime_1_1ObjectPtr.html" target="_top" xlink:title="{tvm::runtime::ObjectPtr\l\&lt; tvm::runtime::Object \&gt;\n||+ ObjectPtr()\l+ ObjectPtr()\l+ ObjectPtr()\l+ ObjectPtr()\l+ ObjectPtr()\l+ ObjectPtr()\l+ ~ObjectPtr()\l+ swap()\l+ get()\l+ operator&#45;\&gt;()\land 11 more...\l}">
<polygon fill="#ffffff" stroke="#000000" points="425.5,-1707.5 425.5,-1885.5 565.5,-1885.5 565.5,-1707.5 425.5,-1707.5"/>
<text text-anchor="start" x="433.5" y="-1873.5" font-family="Helvetica,sans-Serif" font-size="10.00" fill="#000000">tvm::runtime::ObjectPtr</text>
<text text-anchor="middle" x="495.5" y="-1862.5" font-family="Helvetica,sans-Serif" font-size="10.00" fill="#000000">&lt; tvm::runtime::Object &gt;</text>
<polyline fill="none" stroke="#000000" points="425.5,-1855.5 565.5,-1855.5 "/>
<text text-anchor="middle" x="495.5" y="-1843.5" font-family="Helvetica,sans-Serif" font-size="10.00" fill="#000000"> </text>
<polyline fill="none" stroke="#000000" points="425.5,-1836.5 565.5,-1836.5 "/>
<text text-anchor="start" x="433.5" y="-1824.5" font-family="Helvetica,sans-Serif" font-size="10.00" fill="#000000">+ ObjectPtr()</text>
<text text-anchor="start" x="433.5" y="-1813.5" font-family="Helvetica,sans-Serif" font-size="10.00" fill="#000000">+ ObjectPtr()</text>
<text text-anchor="start" x="433.5" y="-1802.5" font-family="Helvetica,sans-Serif" font-size="10.00" fill="#000000">+ ObjectPtr()</text>
<text text-anchor="start" x="433.5" y="-1791.5" font-family="Helvetica,sans-Serif" font-size="10.00" fill="#000000">+ ObjectPtr()</text>
<text text-anchor="start" x="433.5" y="-1780.5" font-family="Helvetica,sans-Serif" font-size="10.00" fill="#000000">+ ObjectPtr()</text>
<text text-anchor="start" x="433.5" y="-1769.5" font-family="Helvetica,sans-Serif" font-size="10.00" fill="#000000">+ ObjectPtr()</text>
<text text-anchor="start" x="433.5" y="-1758.5" font-family="Helvetica,sans-Serif" font-size="10.00" fill="#000000">+ ~ObjectPtr()</text>
<text text-anchor="start" x="433.5" y="-1747.5" font-family="Helvetica,sans-Serif" font-size="10.00" fill="#000000">+ swap()</text>
<text text-anchor="start" x="433.5" y="-1736.5" font-family="Helvetica,sans-Serif" font-size="10.00" fill="#000000">+ get()</text>
<text text-anchor="start" x="433.5" y="-1725.5" font-family="Helvetica,sans-Serif" font-size="10.00" fill="#000000">+ operator&#45;&gt;()</text>
<text text-anchor="start" x="433.5" y="-1714.5" font-family="Helvetica,sans-Serif" font-size="10.00" fill="#000000">and 11 more...</text>
</a>
</g>
</g>
<!-- Node11&#45;&gt;Node10 -->
<g id="edge8" class="edge">
<title>Node11&#45;&gt;Node10</title>
<path fill="none" stroke="#404040" d="M495.5,-1707.3167C495.5,-1695.8765 495.5,-1684.0062 495.5,-1672.1402"/>
<polygon fill="none" stroke="#404040" points="495.5001,-1671.7944 491.5,-1665.7944 495.5,-1659.7944 499.5,-1665.7943 495.5001,-1671.7944"/>
<text text-anchor="middle" x="515" y="-1681" font-family="Helvetica,sans-Serif" font-size="10.00" fill="#000000"> #data_</text>
</g>
<!-- Node12 -->
<g id="node9" class="node">
<title>Node12</title>
<g id="a_node9"><a xlink:href="classtvm_1_1relax_1_1Var.html" target="_top" xlink:title="{tvm::relax::Var\n||+ Var()\l+ Var()\l+ TVM_DEFINE_OBJECT_REF\l_METHODS()\l+ TVM_DEFINE_OBJECT_REF\l_COW_METHOD()\l}">
<polygon fill="#ffffff" stroke="#000000" points="305.5,-149.5 305.5,-261.5 459.5,-261.5 459.5,-149.5 305.5,-149.5"/>
<text text-anchor="middle" x="382.5" y="-249.5" font-family="Helvetica,sans-Serif" font-size="10.00" fill="#000000">tvm::relax::Var</text>
<polyline fill="none" stroke="#000000" points="305.5,-242.5 459.5,-242.5 "/>
<text text-anchor="middle" x="382.5" y="-230.5" font-family="Helvetica,sans-Serif" font-size="10.00" fill="#000000"> </text>
<polyline fill="none" stroke="#000000" points="305.5,-223.5 459.5,-223.5 "/>
<text text-anchor="start" x="313.5" y="-211.5" font-family="Helvetica,sans-Serif" font-size="10.00" fill="#000000">+ Var()</text>
<text text-anchor="start" x="313.5" y="-200.5" font-family="Helvetica,sans-Serif" font-size="10.00" fill="#000000">+ Var()</text>
<text text-anchor="start" x="313.5" y="-189.5" font-family="Helvetica,sans-Serif" font-size="10.00" fill="#000000">+ TVM_DEFINE_OBJECT_REF</text>
<text text-anchor="start" x="313.5" y="-178.5" font-family="Helvetica,sans-Serif" font-size="10.00" fill="#000000">_METHODS()</text>
<text text-anchor="start" x="313.5" y="-167.5" font-family="Helvetica,sans-Serif" font-size="10.00" fill="#000000">+ TVM_DEFINE_OBJECT_REF</text>
<text text-anchor="start" x="313.5" y="-156.5" font-family="Helvetica,sans-Serif" font-size="10.00" fill="#000000">_COW_METHOD()</text>
</a>
</g>
</g>
<!-- Node12&#45;&gt;Node4 -->
<g id="edge9" class="edge">
<title>Node12&#45;&gt;Node4</title>
<path fill="none" stroke="#404040" d="M382.5,-149.2849C382.5,-137.6944 382.5,-125.42 382.5,-113.6185"/>
<polygon fill="none" stroke="#404040" points="382.5001,-113.5398 378.5,-107.5398 382.5,-101.5398 386.5,-107.5398 382.5001,-113.5398"/>
<text text-anchor="middle" x="396.5" y="-123" font-family="Helvetica,sans-Serif" font-size="10.00" fill="#000000"> +var</text>
</g>
<!-- Node13 -->
<g id="node10" class="node">
<title>Node13</title>
<g id="a_node10"><a xlink:href="classtvm_1_1relax_1_1LeafExpr.html" target="_top" xlink:title="Managed reference to BaseExprNode. ">
<polygon fill="#ffffff" stroke="#000000" points="305.5,-521.5 305.5,-589.5 459.5,-589.5 459.5,-521.5 305.5,-521.5"/>
<text text-anchor="middle" x="382.5" y="-577.5" font-family="Helvetica,sans-Serif" font-size="10.00" fill="#000000">tvm::relax::LeafExpr</text>
<polyline fill="none" stroke="#000000" points="305.5,-570.5 459.5,-570.5 "/>
<text text-anchor="middle" x="382.5" y="-558.5" font-family="Helvetica,sans-Serif" font-size="10.00" fill="#000000"> </text>
<polyline fill="none" stroke="#000000" points="305.5,-551.5 459.5,-551.5 "/>
<text text-anchor="start" x="313.5" y="-539.5" font-family="Helvetica,sans-Serif" font-size="10.00" fill="#000000">+ TVM_DEFINE_OBJECT_REF</text>
<text text-anchor="start" x="313.5" y="-528.5" font-family="Helvetica,sans-Serif" font-size="10.00" fill="#000000">_METHODS()</text>
</a>
</g>
</g>
<!-- Node13&#45;&gt;Node12 -->
<g id="edge10" class="edge">
<title>Node13&#45;&gt;Node12</title>
<path fill="none" stroke="#191970" d="M382.5,-511.2214C382.5,-447.7838 382.5,-331.0488 382.5,-261.6319"/>
<polygon fill="none" stroke="#191970" points="379.0001,-511.3032 382.5,-521.3033 386.0001,-511.3033 379.0001,-511.3032"/>
</g>
<!-- Node14&#45;&gt;Node13 -->
<g id="edge11" class="edge">
<title>Node14&#45;&gt;Node13</title>
<path fill="none" stroke="#191970" d="M386.0139,-877.463C385.2051,-803.3536 383.6001,-656.2984 382.8732,-589.6972"/>
<polygon fill="none" stroke="#191970" points="382.5183,-877.8885 386.1273,-887.8497 389.5178,-877.812 382.5183,-877.8885"/>
</g>
<!-- Node15&#45;&gt;Node4 -->
<g id="edge13" class="edge">
<title>Node15&#45;&gt;Node4</title>
<path fill="none" stroke="#404040" d="M495.5,-1134.2772C495.5,-1025.8229 495.5,-837.2361 495.5,-675.5 495.5,-675.5 495.5,-675.5 495.5,-205.5 495.5,-169.828 475.6321,-136.9068 452.558,-110.7015"/>
<polygon fill="none" stroke="#404040" points="452.4168,-110.5482 445.4103,-108.8425 444.29,-101.719 451.2965,-103.4246 452.4168,-110.5482"/>
<text text-anchor="middle" x="525" y="-558.5" font-family="Helvetica,sans-Serif" font-size="10.00" fill="#000000"> +else_expr</text>
<text text-anchor="middle" x="525" y="-547.5" font-family="Helvetica,sans-Serif" font-size="10.00" fill="#000000">+then_expr</text>
</g>
<!-- Node16&#45;&gt;Node4 -->
<g id="edge15" class="edge">
<title>Node16&#45;&gt;Node4</title>
<path fill="none" stroke="#404040" d="M569.2594,-280.2546C561.6459,-228.3851 545.113,-165.5862 509.5,-120 505.5934,-114.9994 501.2193,-110.3134 496.5082,-105.9287"/>
<polygon fill="none" stroke="#404040" points="496.1916,-105.6583 489.0314,-104.8028 487.0672,-97.8644 494.2274,-98.7199 496.1916,-105.6583"/>
<text text-anchor="middle" x="596" y="-203" font-family="Helvetica,sans-Serif" font-size="10.00" fill="#000000"> +var_name</text>
</g>
</g>
</svg>
