<?xml version="1.0" encoding="UTF-8" standalone="no"?>
<!DOCTYPE svg PUBLIC "-//W3C//DTD SVG 1.1//EN"
 "http://www.w3.org/Graphics/SVG/1.1/DTD/svg11.dtd">
<!-- Generated by graphviz version 2.40.1 (20161225.0304)
 -->
<!-- Title: tvm::relax::VarNode Pages: 1 -->
<svg width="742pt" height="1738pt"
 viewBox="0.00 0.00 742.00 1738.00" xmlns="http://www.w3.org/2000/svg" xmlns:xlink="http://www.w3.org/1999/xlink">
<g id="graph0" class="graph" transform="scale(1 1) rotate(0) translate(4 1734)">
<title>tvm::relax::VarNode</title>
<polygon fill="#ffffff" stroke="transparent" points="-4,4 -4,-1734 738,-1734 738,4 -4,4"/>
<!-- Node6 -->
<g id="node1" class="node">
<title>Node6</title>
<polygon fill="#bfbfbf" stroke="#000000" points="473.5,-.5 473.5,-156.5 680.5,-156.5 680.5,-.5 473.5,-.5"/>
<text text-anchor="middle" x="577" y="-144.5" font-family="Helvetica,sans-Serif" font-size="10.00" fill="#000000">tvm::relax::VarNode</text>
<polyline fill="none" stroke="#000000" points="473.5,-137.5 680.5,-137.5 "/>
<text text-anchor="start" x="481.5" y="-125.5" font-family="Helvetica,sans-Serif" font-size="10.00" fill="#000000">+ _type_key</text>
<text text-anchor="start" x="481.5" y="-114.5" font-family="Helvetica,sans-Serif" font-size="10.00" fill="#000000">+ _type_has_method_sequal</text>
<text text-anchor="start" x="481.5" y="-103.5" font-family="Helvetica,sans-Serif" font-size="10.00" fill="#000000">_reduce</text>
<text text-anchor="start" x="481.5" y="-92.5" font-family="Helvetica,sans-Serif" font-size="10.00" fill="#000000">+ _type_has_method_shash</text>
<text text-anchor="start" x="481.5" y="-81.5" font-family="Helvetica,sans-Serif" font-size="10.00" fill="#000000">_reduce</text>
<text text-anchor="start" x="481.5" y="-70.5" font-family="Helvetica,sans-Serif" font-size="10.00" fill="#000000">+ _type_child_slots</text>
<polyline fill="none" stroke="#000000" points="473.5,-63.5 680.5,-63.5 "/>
<text text-anchor="start" x="481.5" y="-51.5" font-family="Helvetica,sans-Serif" font-size="10.00" fill="#000000">+ name_hint()</text>
<text text-anchor="start" x="481.5" y="-40.5" font-family="Helvetica,sans-Serif" font-size="10.00" fill="#000000">+ VisitAttrs()</text>
<text text-anchor="start" x="481.5" y="-29.5" font-family="Helvetica,sans-Serif" font-size="10.00" fill="#000000">+ SEqualReduce()</text>
<text text-anchor="start" x="481.5" y="-18.5" font-family="Helvetica,sans-Serif" font-size="10.00" fill="#000000">+ SHashReduce()</text>
<text text-anchor="start" x="481.5" y="-7.5" font-family="Helvetica,sans-Serif" font-size="10.00" fill="#000000">+ TVM_DECLARE_BASE_OBJECT_INFO()</text>
</g>
<!-- Node7 -->
<g id="node2" class="node">
<title>Node7</title>
<g id="a_node2"><a xlink:href="classtvm_1_1relax_1_1LeafExprNode.html" target="_top" xlink:title="Base type of all (non&#45;function) leaf Exprs. ">
<polygon fill="#ffffff" stroke="#000000" points="400.5,-194.5 400.5,-262.5 607.5,-262.5 607.5,-194.5 400.5,-194.5"/>
<text text-anchor="middle" x="504" y="-250.5" font-family="Helvetica,sans-Serif" font-size="10.00" fill="#000000">tvm::relax::LeafExprNode</text>
<polyline fill="none" stroke="#000000" points="400.5,-243.5 607.5,-243.5 "/>
<text text-anchor="start" x="408.5" y="-231.5" font-family="Helvetica,sans-Serif" font-size="10.00" fill="#000000">+ _type_key</text>
<text text-anchor="start" x="408.5" y="-220.5" font-family="Helvetica,sans-Serif" font-size="10.00" fill="#000000">+ _type_child_slots</text>
<polyline fill="none" stroke="#000000" points="400.5,-213.5 607.5,-213.5 "/>
<text text-anchor="start" x="408.5" y="-201.5" font-family="Helvetica,sans-Serif" font-size="10.00" fill="#000000">+ TVM_DECLARE_BASE_OBJECT_INFO()</text>
</a>
</g>
</g>
<!-- Node7&#45;&gt;Node6 -->
<g id="edge1" class="edge">
<title>Node7&#45;&gt;Node6</title>
<path fill="none" stroke="#191970" d="M524.9876,-185.3749C529.3723,-176.365 534.1241,-166.6012 538.9123,-156.7624"/>
<polygon fill="none" stroke="#191970" points="521.7937,-183.9393 520.5648,-194.4627 528.088,-187.0026 521.7937,-183.9393"/>
</g>
<!-- Node8 -->
<g id="node3" class="node">
<title>Node8</title>
<g id="a_node3"><a xlink:href="classtvm_1_1RelayExprNode.html" target="_top" xlink:title="Base node of all non&#45;primitive expressions. ">
<polygon fill="#ffffff" stroke="#000000" points="358.5,-310.5 358.5,-411.5 565.5,-411.5 565.5,-310.5 358.5,-310.5"/>
<text text-anchor="middle" x="462" y="-399.5" font-family="Helvetica,sans-Serif" font-size="10.00" fill="#000000">ExprNode</text>
<polyline fill="none" stroke="#000000" points="358.5,-392.5 565.5,-392.5 "/>
<text text-anchor="start" x="366.5" y="-380.5" font-family="Helvetica,sans-Serif" font-size="10.00" fill="#000000">+ _type_key</text>
<text text-anchor="start" x="366.5" y="-369.5" font-family="Helvetica,sans-Serif" font-size="10.00" fill="#000000">+ _type_child_slots</text>
<polyline fill="none" stroke="#000000" points="358.5,-362.5 565.5,-362.5 "/>
<text text-anchor="start" x="366.5" y="-350.5" font-family="Helvetica,sans-Serif" font-size="10.00" fill="#000000">+ checked_type()</text>
<text text-anchor="start" x="366.5" y="-339.5" font-family="Helvetica,sans-Serif" font-size="10.00" fill="#000000">+ type_as()</text>
<text text-anchor="start" x="366.5" y="-328.5" font-family="Helvetica,sans-Serif" font-size="10.00" fill="#000000">+ virtual_device()</text>
<text text-anchor="start" x="366.5" y="-317.5" font-family="Helvetica,sans-Serif" font-size="10.00" fill="#000000">+ TVM_DECLARE_BASE_OBJECT_INFO()</text>
</a>
</g>
</g>
<!-- Node8&#45;&gt;Node7 -->
<g id="edge2" class="edge">
<title>Node8&#45;&gt;Node7</title>
<path fill="none" stroke="#191970" d="M481.23,-300.3339C485.3362,-287.3798 489.5333,-274.1389 493.1874,-262.6113"/>
<polygon fill="none" stroke="#191970" points="477.8035,-299.5608 478.1182,-310.151 484.4763,-301.676 477.8035,-299.5608"/>
</g>
<!-- Node9 -->
<g id="node4" class="node">
<title>Node9</title>
<g id="a_node4"><a xlink:href="classtvm_1_1BaseExprNode.html" target="_top" xlink:title="Base type of all the expressions. ">
<polygon fill="#ffffff" stroke="#000000" points="97.5,-528.5 97.5,-640.5 304.5,-640.5 304.5,-528.5 97.5,-528.5"/>
<text text-anchor="middle" x="201" y="-628.5" font-family="Helvetica,sans-Serif" font-size="10.00" fill="#000000">tvm::BaseExprNode</text>
<polyline fill="none" stroke="#000000" points="97.5,-621.5 304.5,-621.5 "/>
<text text-anchor="start" x="105.5" y="-609.5" font-family="Helvetica,sans-Serif" font-size="10.00" fill="#000000">+ _type_key</text>
<text text-anchor="start" x="105.5" y="-598.5" font-family="Helvetica,sans-Serif" font-size="10.00" fill="#000000">+ _type_has_method_sequal</text>
<text text-anchor="start" x="105.5" y="-587.5" font-family="Helvetica,sans-Serif" font-size="10.00" fill="#000000">_reduce</text>
<text text-anchor="start" x="105.5" y="-576.5" font-family="Helvetica,sans-Serif" font-size="10.00" fill="#000000">+ _type_has_method_shash</text>
<text text-anchor="start" x="105.5" y="-565.5" font-family="Helvetica,sans-Serif" font-size="10.00" fill="#000000">_reduce</text>
<text text-anchor="start" x="105.5" y="-554.5" font-family="Helvetica,sans-Serif" font-size="10.00" fill="#000000">+ _type_child_slots</text>
<polyline fill="none" stroke="#000000" points="97.5,-547.5 304.5,-547.5 "/>
<text text-anchor="start" x="105.5" y="-535.5" font-family="Helvetica,sans-Serif" font-size="10.00" fill="#000000">+ TVM_DECLARE_BASE_OBJECT_INFO()</text>
</a>
</g>
</g>
<!-- Node9&#45;&gt;Node8 -->
<g id="edge3" class="edge">
<title>Node9&#45;&gt;Node8</title>
<path fill="none" stroke="#191970" d="M244.2417,-519.8258C266.4751,-489.9089 295.5007,-455.4502 327,-430 336.6227,-422.2252 347.2625,-414.9795 358.2215,-408.3306"/>
<polygon fill="none" stroke="#191970" points="241.2424,-517.9974 238.1544,-528.1322 246.8886,-522.1351 241.2424,-517.9974"/>
</g>
<!-- Node10 -->
<g id="node5" class="node">
<title>Node10</title>
<g id="a_node5"><a xlink:href="classtvm_1_1runtime_1_1Object.html" target="_top" xlink:title="base class of all object containers. ">
<polygon fill="#ffffff" stroke="#000000" points="172.5,-856.5 172.5,-1243.5 355.5,-1243.5 355.5,-856.5 172.5,-856.5"/>
<text text-anchor="middle" x="264" y="-1231.5" font-family="Helvetica,sans-Serif" font-size="10.00" fill="#000000">tvm::runtime::Object</text>
<polyline fill="none" stroke="#000000" points="172.5,-1224.5 355.5,-1224.5 "/>
<text text-anchor="start" x="180.5" y="-1212.5" font-family="Helvetica,sans-Serif" font-size="10.00" fill="#000000">+ _type_key</text>
<text text-anchor="start" x="180.5" y="-1201.5" font-family="Helvetica,sans-Serif" font-size="10.00" fill="#000000">+ _type_final</text>
<text text-anchor="start" x="180.5" y="-1190.5" font-family="Helvetica,sans-Serif" font-size="10.00" fill="#000000">+ _type_child_slots</text>
<text text-anchor="start" x="180.5" y="-1179.5" font-family="Helvetica,sans-Serif" font-size="10.00" fill="#000000">+ _type_child_slots_can</text>
<text text-anchor="start" x="180.5" y="-1168.5" font-family="Helvetica,sans-Serif" font-size="10.00" fill="#000000">_overflow</text>
<text text-anchor="start" x="180.5" y="-1157.5" font-family="Helvetica,sans-Serif" font-size="10.00" fill="#000000">+ _type_has_method_visit</text>
<text text-anchor="start" x="180.5" y="-1146.5" font-family="Helvetica,sans-Serif" font-size="10.00" fill="#000000">_attrs</text>
<text text-anchor="start" x="180.5" y="-1135.5" font-family="Helvetica,sans-Serif" font-size="10.00" fill="#000000">+ _type_has_method_sequal</text>
<text text-anchor="start" x="180.5" y="-1124.5" font-family="Helvetica,sans-Serif" font-size="10.00" fill="#000000">_reduce</text>
<text text-anchor="start" x="180.5" y="-1113.5" font-family="Helvetica,sans-Serif" font-size="10.00" fill="#000000">+ _type_has_method_shash</text>
<text text-anchor="start" x="180.5" y="-1102.5" font-family="Helvetica,sans-Serif" font-size="10.00" fill="#000000">_reduce</text>
<text text-anchor="start" x="180.5" y="-1091.5" font-family="Helvetica,sans-Serif" font-size="10.00" fill="#000000">+ _type_index</text>
<text text-anchor="start" x="180.5" y="-1080.5" font-family="Helvetica,sans-Serif" font-size="10.00" fill="#000000"># type_index_</text>
<text text-anchor="start" x="180.5" y="-1069.5" font-family="Helvetica,sans-Serif" font-size="10.00" fill="#000000"># ref_counter_</text>
<polyline fill="none" stroke="#000000" points="172.5,-1062.5 355.5,-1062.5 "/>
<text text-anchor="start" x="180.5" y="-1050.5" font-family="Helvetica,sans-Serif" font-size="10.00" fill="#000000">+ type_index()</text>
<text text-anchor="start" x="180.5" y="-1039.5" font-family="Helvetica,sans-Serif" font-size="10.00" fill="#000000">+ GetTypeKey()</text>
<text text-anchor="start" x="180.5" y="-1028.5" font-family="Helvetica,sans-Serif" font-size="10.00" fill="#000000">+ GetTypeKeyHash()</text>
<text text-anchor="start" x="180.5" y="-1017.5" font-family="Helvetica,sans-Serif" font-size="10.00" fill="#000000">+ IsInstance()</text>
<text text-anchor="start" x="180.5" y="-1006.5" font-family="Helvetica,sans-Serif" font-size="10.00" fill="#000000">+ unique()</text>
<text text-anchor="start" x="180.5" y="-995.5" font-family="Helvetica,sans-Serif" font-size="10.00" fill="#000000">+ Object()</text>
<text text-anchor="start" x="180.5" y="-984.5" font-family="Helvetica,sans-Serif" font-size="10.00" fill="#000000">+ Object()</text>
<text text-anchor="start" x="180.5" y="-973.5" font-family="Helvetica,sans-Serif" font-size="10.00" fill="#000000">+ Object()</text>
<text text-anchor="start" x="180.5" y="-962.5" font-family="Helvetica,sans-Serif" font-size="10.00" fill="#000000">+ operator=()</text>
<text text-anchor="start" x="180.5" y="-951.5" font-family="Helvetica,sans-Serif" font-size="10.00" fill="#000000">+ operator=()</text>
<text text-anchor="start" x="180.5" y="-940.5" font-family="Helvetica,sans-Serif" font-size="10.00" fill="#000000">+ TypeIndex2Key()</text>
<text text-anchor="start" x="180.5" y="-929.5" font-family="Helvetica,sans-Serif" font-size="10.00" fill="#000000">+ TypeIndex2KeyHash()</text>
<text text-anchor="start" x="180.5" y="-918.5" font-family="Helvetica,sans-Serif" font-size="10.00" fill="#000000">+ TypeKey2Index()</text>
<text text-anchor="start" x="180.5" y="-907.5" font-family="Helvetica,sans-Serif" font-size="10.00" fill="#000000">+ _GetOrAllocRuntimeTypeIndex()</text>
<text text-anchor="start" x="180.5" y="-896.5" font-family="Helvetica,sans-Serif" font-size="10.00" fill="#000000">+ RuntimeTypeIndex()</text>
<text text-anchor="start" x="180.5" y="-885.5" font-family="Helvetica,sans-Serif" font-size="10.00" fill="#000000"># IncRef()</text>
<text text-anchor="start" x="180.5" y="-874.5" font-family="Helvetica,sans-Serif" font-size="10.00" fill="#000000"># DecRef()</text>
<text text-anchor="start" x="180.5" y="-863.5" font-family="Helvetica,sans-Serif" font-size="10.00" fill="#000000"># GetOrAllocRuntimeTypeIndex()</text>
</a>
</g>
</g>
<!-- Node10&#45;&gt;Node9 -->
<g id="edge4" class="edge">
<title>Node10&#45;&gt;Node9</title>
<path fill="none" stroke="#191970" d="M220.2038,-846.2795C219.7883,-843.5043 219.3867,-840.7434 219,-838 209.4861,-770.4999 204.8997,-692.1419 202.7583,-640.6175"/>
<polygon fill="none" stroke="#191970" points="216.7792,-847.0368 221.7662,-856.3845 223.697,-845.967 216.7792,-847.0368"/>
</g>
<!-- Node10&#45;&gt;Node10 -->
<g id="edge5" class="edge">
<title>Node10&#45;&gt;Node10</title>
<path fill="none" stroke="#404040" d="M355.8625,-1083.9248C366.5482,-1077.6637 373.5,-1066.3555 373.5,-1050 373.5,-1039.0112 370.3618,-1030.3007 365.0615,-1023.8687"/>
<polygon fill="none" stroke="#404040" points="365.0184,-1023.8322 357.8548,-1023.0056 355.8625,-1016.0752 363.0261,-1016.9017 365.0184,-1023.8322"/>
<text text-anchor="middle" x="399.5" y="-1047.5" font-family="Helvetica,sans-Serif" font-size="10.00" fill="#000000"> #deleter_</text>
</g>
<!-- Node11 -->
<g id="node6" class="node">
<title>Node11</title>
<g id="a_node6"><a xlink:href="classtvm_1_1Span.html" target="_top" xlink:title="{tvm::Span\n||+ Span()\l+ Merge()\l+ TVM_DEFINE_OBJECT_REF\l_METHODS()\l}">
<polygon fill="#ffffff" stroke="#000000" points="0,-1005 0,-1095 154,-1095 154,-1005 0,-1005"/>
<text text-anchor="middle" x="77" y="-1083" font-family="Helvetica,sans-Serif" font-size="10.00" fill="#000000">tvm::Span</text>
<polyline fill="none" stroke="#000000" points="0,-1076 154,-1076 "/>
<text text-anchor="middle" x="77" y="-1064" font-family="Helvetica,sans-Serif" font-size="10.00" fill="#000000"> </text>
<polyline fill="none" stroke="#000000" points="0,-1057 154,-1057 "/>
<text text-anchor="start" x="8" y="-1045" font-family="Helvetica,sans-Serif" font-size="10.00" fill="#000000">+ Span()</text>
<text text-anchor="start" x="8" y="-1034" font-family="Helvetica,sans-Serif" font-size="10.00" fill="#000000">+ Merge()</text>
<text text-anchor="start" x="8" y="-1023" font-family="Helvetica,sans-Serif" font-size="10.00" fill="#000000">+ TVM_DEFINE_OBJECT_REF</text>
<text text-anchor="start" x="8" y="-1012" font-family="Helvetica,sans-Serif" font-size="10.00" fill="#000000">_METHODS()</text>
</a>
</g>
</g>
<!-- Node11&#45;&gt;Node9 -->
<g id="edge6" class="edge">
<title>Node11&#45;&gt;Node9</title>
<path fill="none" stroke="#404040" d="M83.7176,-1004.8004C95.4451,-931.0125 122.5308,-780.6995 165,-659 165.7809,-656.7621 166.6108,-654.5033 167.4799,-652.2354"/>
<polygon fill="none" stroke="#404040" points="167.5803,-651.989 166.1407,-644.923 172.1094,-640.8764 173.549,-647.9424 167.5803,-651.989"/>
<text text-anchor="middle" x="182.5" y="-746" font-family="Helvetica,sans-Serif" font-size="10.00" fill="#000000"> +span</text>
</g>
<!-- Node12 -->
<g id="node7" class="node">
<title>Node12</title>
<g id="a_node7"><a xlink:href="classtvm_1_1runtime_1_1ObjectRef.html" target="_top" xlink:title="Base class of all object reference. ">
<polygon fill="#ffffff" stroke="#000000" points="425,-1281.5 425,-1503.5 559,-1503.5 559,-1281.5 425,-1281.5"/>
<text text-anchor="middle" x="492" y="-1491.5" font-family="Helvetica,sans-Serif" font-size="10.00" fill="#000000">tvm::runtime::ObjectRef</text>
<polyline fill="none" stroke="#000000" points="425,-1484.5 559,-1484.5 "/>
<text text-anchor="start" x="433" y="-1472.5" font-family="Helvetica,sans-Serif" font-size="10.00" fill="#000000">+ _type_is_nullable</text>
<polyline fill="none" stroke="#000000" points="425,-1465.5 559,-1465.5 "/>
<text text-anchor="start" x="433" y="-1453.5" font-family="Helvetica,sans-Serif" font-size="10.00" fill="#000000">+ ObjectRef()</text>
<text text-anchor="start" x="433" y="-1442.5" font-family="Helvetica,sans-Serif" font-size="10.00" fill="#000000">+ ObjectRef()</text>
<text text-anchor="start" x="433" y="-1431.5" font-family="Helvetica,sans-Serif" font-size="10.00" fill="#000000">+ same_as()</text>
<text text-anchor="start" x="433" y="-1420.5" font-family="Helvetica,sans-Serif" font-size="10.00" fill="#000000">+ operator==()</text>
<text text-anchor="start" x="433" y="-1409.5" font-family="Helvetica,sans-Serif" font-size="10.00" fill="#000000">+ operator!=()</text>
<text text-anchor="start" x="433" y="-1398.5" font-family="Helvetica,sans-Serif" font-size="10.00" fill="#000000">+ operator&lt;()</text>
<text text-anchor="start" x="433" y="-1387.5" font-family="Helvetica,sans-Serif" font-size="10.00" fill="#000000">+ defined()</text>
<text text-anchor="start" x="433" y="-1376.5" font-family="Helvetica,sans-Serif" font-size="10.00" fill="#000000">+ get()</text>
<text text-anchor="start" x="433" y="-1365.5" font-family="Helvetica,sans-Serif" font-size="10.00" fill="#000000">+ operator&#45;&gt;()</text>
<text text-anchor="start" x="433" y="-1354.5" font-family="Helvetica,sans-Serif" font-size="10.00" fill="#000000">+ unique()</text>
<text text-anchor="start" x="433" y="-1343.5" font-family="Helvetica,sans-Serif" font-size="10.00" fill="#000000">+ use_count()</text>
<text text-anchor="start" x="433" y="-1332.5" font-family="Helvetica,sans-Serif" font-size="10.00" fill="#000000">+ as()</text>
<text text-anchor="start" x="433" y="-1321.5" font-family="Helvetica,sans-Serif" font-size="10.00" fill="#000000"># get_mutable()</text>
<text text-anchor="start" x="433" y="-1310.5" font-family="Helvetica,sans-Serif" font-size="10.00" fill="#000000"># DowncastNoCheck()</text>
<text text-anchor="start" x="433" y="-1299.5" font-family="Helvetica,sans-Serif" font-size="10.00" fill="#000000"># FFIClearAfterMove()</text>
<text text-anchor="start" x="433" y="-1288.5" font-family="Helvetica,sans-Serif" font-size="10.00" fill="#000000"># GetDataPtr()</text>
</a>
</g>
</g>
<!-- Node12&#45;&gt;Node8 -->
<g id="edge9" class="edge">
<title>Node12&#45;&gt;Node8</title>
<path fill="none" stroke="#404040" d="M516.3499,-1281.3587C548.5516,-1115.1965 594.6635,-793.176 535,-528 526.8035,-491.5706 510.6518,-453.2407 495.6207,-422.5034"/>
<polygon fill="none" stroke="#404040" points="495.5082,-422.2778 489.2502,-418.6949 490.1505,-411.5402 496.4086,-415.1231 495.5082,-422.2778"/>
<text text-anchor="middle" x="606" y="-746" font-family="Helvetica,sans-Serif" font-size="10.00" fill="#000000"> +virtual_device_</text>
</g>
<!-- Node12&#45;&gt;Node11 -->
<g id="edge7" class="edge">
<title>Node12&#45;&gt;Node11</title>
<path fill="none" stroke="#191970" d="M414.7088,-1374.692C341.5072,-1354.2625 232.701,-1314.1712 163,-1244 121.9781,-1202.7014 98.8335,-1138.4822 87.1249,-1095.3665"/>
<polygon fill="none" stroke="#191970" points="414.225,-1378.1879 424.7938,-1377.4453 416.0686,-1371.4351 414.225,-1378.1879"/>
</g>
<!-- Node14 -->
<g id="node9" class="node">
<title>Node14</title>
<g id="a_node9"><a xlink:href="classtvm_1_1Type.html" target="_top" xlink:title="Managed reference to TypeNode. ">
<polygon fill="#ffffff" stroke="#000000" points="223,-714.5 223,-782.5 377,-782.5 377,-714.5 223,-714.5"/>
<text text-anchor="middle" x="300" y="-770.5" font-family="Helvetica,sans-Serif" font-size="10.00" fill="#000000">tvm::Type</text>
<polyline fill="none" stroke="#000000" points="223,-763.5 377,-763.5 "/>
<text text-anchor="middle" x="300" y="-751.5" font-family="Helvetica,sans-Serif" font-size="10.00" fill="#000000"> </text>
<polyline fill="none" stroke="#000000" points="223,-744.5 377,-744.5 "/>
<text text-anchor="start" x="231" y="-732.5" font-family="Helvetica,sans-Serif" font-size="10.00" fill="#000000">+ TVM_DEFINE_OBJECT_REF</text>
<text text-anchor="start" x="231" y="-721.5" font-family="Helvetica,sans-Serif" font-size="10.00" fill="#000000">_METHODS()</text>
</a>
</g>
</g>
<!-- Node12&#45;&gt;Node14 -->
<g id="edge11" class="edge">
<title>Node12&#45;&gt;Node14</title>
<path fill="none" stroke="#191970" d="M471.6487,-1271.161C470.336,-1261.981 469.1014,-1252.8499 468,-1244 457.3106,-1158.11 487.4354,-924.0883 434,-856 418.6416,-836.43 401.7909,-851.6603 381,-838 358.7564,-823.3852 338.6478,-801.2443 324.0302,-782.6414"/>
<polygon fill="none" stroke="#191970" points="468.1959,-1271.7395 473.1011,-1281.1305 475.1228,-1270.7303 468.1959,-1271.7395"/>
</g>
<!-- Node15 -->
<g id="node10" class="node">
<title>Node15</title>
<g id="a_node10"><a xlink:href="classtvm_1_1runtime_1_1Optional.html" target="_top" xlink:title="{tvm::runtime::Optional\l\&lt; tvm::runtime::ObjectRef \&gt;\n|+ _type_is_nullable\l|+ Optional()\l+ Optional()\l+ Optional()\l+ Optional()\l+ Optional()\l+ Optional()\l+ Optional()\l+ Optional()\l+ operator=()\l+ operator=()\land 15 more...\l}">
<polygon fill="#ffffff" stroke="#000000" points="382,-659.5 382,-837.5 538,-837.5 538,-659.5 382,-659.5"/>
<text text-anchor="start" x="390" y="-825.5" font-family="Helvetica,sans-Serif" font-size="10.00" fill="#000000">tvm::runtime::Optional</text>
<text text-anchor="middle" x="460" y="-814.5" font-family="Helvetica,sans-Serif" font-size="10.00" fill="#000000">&lt; tvm::runtime::ObjectRef &gt;</text>
<polyline fill="none" stroke="#000000" points="382,-807.5 538,-807.5 "/>
<text text-anchor="start" x="390" y="-795.5" font-family="Helvetica,sans-Serif" font-size="10.00" fill="#000000">+ _type_is_nullable</text>
<polyline fill="none" stroke="#000000" points="382,-788.5 538,-788.5 "/>
<text text-anchor="start" x="390" y="-776.5" font-family="Helvetica,sans-Serif" font-size="10.00" fill="#000000">+ Optional()</text>
<text text-anchor="start" x="390" y="-765.5" font-family="Helvetica,sans-Serif" font-size="10.00" fill="#000000">+ Optional()</text>
<text text-anchor="start" x="390" y="-754.5" font-family="Helvetica,sans-Serif" font-size="10.00" fill="#000000">+ Optional()</text>
<text text-anchor="start" x="390" y="-743.5" font-family="Helvetica,sans-Serif" font-size="10.00" fill="#000000">+ Optional()</text>
<text text-anchor="start" x="390" y="-732.5" font-family="Helvetica,sans-Serif" font-size="10.00" fill="#000000">+ Optional()</text>
<text text-anchor="start" x="390" y="-721.5" font-family="Helvetica,sans-Serif" font-size="10.00" fill="#000000">+ Optional()</text>
<text text-anchor="start" x="390" y="-710.5" font-family="Helvetica,sans-Serif" font-size="10.00" fill="#000000">+ Optional()</text>
<text text-anchor="start" x="390" y="-699.5" font-family="Helvetica,sans-Serif" font-size="10.00" fill="#000000">+ Optional()</text>
<text text-anchor="start" x="390" y="-688.5" font-family="Helvetica,sans-Serif" font-size="10.00" fill="#000000">+ operator=()</text>
<text text-anchor="start" x="390" y="-677.5" font-family="Helvetica,sans-Serif" font-size="10.00" fill="#000000">+ operator=()</text>
<text text-anchor="start" x="390" y="-666.5" font-family="Helvetica,sans-Serif" font-size="10.00" fill="#000000">and 15 more...</text>
</a>
</g>
</g>
<!-- Node12&#45;&gt;Node15 -->
<g id="edge13" class="edge">
<title>Node12&#45;&gt;Node15</title>
<path fill="none" stroke="#191970" d="M487.6078,-1271.456C483.4174,-1162.6842 476.4937,-998.5997 468,-856 467.6439,-850.0219 467.2519,-843.8586 466.8384,-837.6498"/>
<polygon fill="none" stroke="#191970" points="484.1114,-1271.6205 487.9922,-1281.479 491.1063,-1271.3522 484.1114,-1271.6205"/>
</g>
<!-- Node16 -->
<g id="node11" class="node">
<title>Node16</title>
<g id="a_node11"><a xlink:href="classtvm_1_1relay_1_1Id.html" target="_top" xlink:title="{tvm::relay::Id\n||+ Id()\l+ TVM_DEFINE_OBJECT_REF\l_METHODS()\l}">
<polygon fill="#ffffff" stroke="#000000" points="580,-430.5 580,-509.5 734,-509.5 734,-430.5 580,-430.5"/>
<text text-anchor="middle" x="657" y="-497.5" font-family="Helvetica,sans-Serif" font-size="10.00" fill="#000000">tvm::relay::Id</text>
<polyline fill="none" stroke="#000000" points="580,-490.5 734,-490.5 "/>
<text text-anchor="middle" x="657" y="-478.5" font-family="Helvetica,sans-Serif" font-size="10.00" fill="#000000"> </text>
<polyline fill="none" stroke="#000000" points="580,-471.5 734,-471.5 "/>
<text text-anchor="start" x="588" y="-459.5" font-family="Helvetica,sans-Serif" font-size="10.00" fill="#000000">+ Id()</text>
<text text-anchor="start" x="588" y="-448.5" font-family="Helvetica,sans-Serif" font-size="10.00" fill="#000000">+ TVM_DEFINE_OBJECT_REF</text>
<text text-anchor="start" x="588" y="-437.5" font-family="Helvetica,sans-Serif" font-size="10.00" fill="#000000">_METHODS()</text>
</a>
</g>
</g>
<!-- Node12&#45;&gt;Node16 -->
<g id="edge15" class="edge">
<title>Node12&#45;&gt;Node16</title>
<path fill="none" stroke="#191970" d="M563.8084,-1287.9099C567.9744,-1279.6725 571.773,-1271.319 575,-1263 680.6165,-990.7269 667.8364,-628.5651 660.0799,-509.6556"/>
<polygon fill="none" stroke="#191970" points="560.6936,-1286.3133 559.1532,-1296.7956 566.8942,-1289.5618 560.6936,-1286.3133"/>
</g>
<!-- Node13 -->
<g id="node8" class="node">
<title>Node13</title>
<g id="a_node8"><a xlink:href="classtvm_1_1runtime_1_1ObjectPtr.html" target="_top" xlink:title="{tvm::runtime::ObjectPtr\l\&lt; tvm::runtime::Object \&gt;\n||+ ObjectPtr()\l+ ObjectPtr()\l+ ObjectPtr()\l+ ObjectPtr()\l+ ObjectPtr()\l+ ObjectPtr()\l+ ~ObjectPtr()\l+ swap()\l+ get()\l+ operator&#45;\&gt;()\land 11 more...\l}">
<polygon fill="#ffffff" stroke="#000000" points="422,-1551.5 422,-1729.5 562,-1729.5 562,-1551.5 422,-1551.5"/>
<text text-anchor="start" x="430" y="-1717.5" font-family="Helvetica,sans-Serif" font-size="10.00" fill="#000000">tvm::runtime::ObjectPtr</text>
<text text-anchor="middle" x="492" y="-1706.5" font-family="Helvetica,sans-Serif" font-size="10.00" fill="#000000">&lt; tvm::runtime::Object &gt;</text>
<polyline fill="none" stroke="#000000" points="422,-1699.5 562,-1699.5 "/>
<text text-anchor="middle" x="492" y="-1687.5" font-family="Helvetica,sans-Serif" font-size="10.00" fill="#000000"> </text>
<polyline fill="none" stroke="#000000" points="422,-1680.5 562,-1680.5 "/>
<text text-anchor="start" x="430" y="-1668.5" font-family="Helvetica,sans-Serif" font-size="10.00" fill="#000000">+ ObjectPtr()</text>
<text text-anchor="start" x="430" y="-1657.5" font-family="Helvetica,sans-Serif" font-size="10.00" fill="#000000">+ ObjectPtr()</text>
<text text-anchor="start" x="430" y="-1646.5" font-family="Helvetica,sans-Serif" font-size="10.00" fill="#000000">+ ObjectPtr()</text>
<text text-anchor="start" x="430" y="-1635.5" font-family="Helvetica,sans-Serif" font-size="10.00" fill="#000000">+ ObjectPtr()</text>
<text text-anchor="start" x="430" y="-1624.5" font-family="Helvetica,sans-Serif" font-size="10.00" fill="#000000">+ ObjectPtr()</text>
<text text-anchor="start" x="430" y="-1613.5" font-family="Helvetica,sans-Serif" font-size="10.00" fill="#000000">+ ObjectPtr()</text>
<text text-anchor="start" x="430" y="-1602.5" font-family="Helvetica,sans-Serif" font-size="10.00" fill="#000000">+ ~ObjectPtr()</text>
<text text-anchor="start" x="430" y="-1591.5" font-family="Helvetica,sans-Serif" font-size="10.00" fill="#000000">+ swap()</text>
<text text-anchor="start" x="430" y="-1580.5" font-family="Helvetica,sans-Serif" font-size="10.00" fill="#000000">+ get()</text>
<text text-anchor="start" x="430" y="-1569.5" font-family="Helvetica,sans-Serif" font-size="10.00" fill="#000000">+ operator&#45;&gt;()</text>
<text text-anchor="start" x="430" y="-1558.5" font-family="Helvetica,sans-Serif" font-size="10.00" fill="#000000">and 11 more...</text>
</a>
</g>
</g>
<!-- Node13&#45;&gt;Node12 -->
<g id="edge8" class="edge">
<title>Node13&#45;&gt;Node12</title>
<path fill="none" stroke="#404040" d="M492,-1551.3167C492,-1539.8765 492,-1528.0062 492,-1516.1402"/>
<polygon fill="none" stroke="#404040" points="492.0001,-1515.7944 488,-1509.7944 492,-1503.7944 496,-1509.7943 492.0001,-1515.7944"/>
<text text-anchor="middle" x="511.5" y="-1525" font-family="Helvetica,sans-Serif" font-size="10.00" fill="#000000"> #data_</text>
</g>
<!-- Node14&#45;&gt;Node8 -->
<g id="edge10" class="edge">
<title>Node14&#45;&gt;Node8</title>
<path fill="none" stroke="#404040" d="M309.142,-714.1874C321.3209,-670.2194 344.5523,-592.033 372,-528 387.4377,-491.9852 407.9647,-453.3764 425.5164,-422.3633"/>
<polygon fill="none" stroke="#404040" points="425.6387,-422.1489 425.1391,-414.9551 431.5873,-411.727 432.087,-418.9208 425.6387,-422.1489"/>
<text text-anchor="middle" x="414.5" y="-582" font-family="Helvetica,sans-Serif" font-size="10.00" fill="#000000"> +checked_type_</text>
</g>
<!-- Node15&#45;&gt;Node8 -->
<g id="edge12" class="edge">
<title>Node15&#45;&gt;Node8</title>
<path fill="none" stroke="#404040" d="M460.4614,-659.1131C460.8329,-587.1353 461.3457,-487.7673 461.6752,-423.9387"/>
<polygon fill="none" stroke="#404040" points="461.6765,-423.6653 457.7075,-417.6447 461.7385,-411.6655 465.7074,-417.6861 461.6765,-423.6653"/>
<text text-anchor="middle" x="496.5" y="-582" font-family="Helvetica,sans-Serif" font-size="10.00" fill="#000000"> +struct_info_</text>
</g>
<!-- Node16&#45;&gt;Node6 -->
<g id="edge14" class="edge">
<title>Node16&#45;&gt;Node6</title>
<path fill="none" stroke="#404040" d="M653.6244,-430.2439C648.4967,-376.2025 637.1447,-276.7991 617,-194 614.9652,-185.6364 612.5709,-177.0235 609.9823,-168.4502"/>
<polygon fill="none" stroke="#404040" points="609.9247,-168.2656 604.3179,-163.7308 606.3473,-156.8112 611.9541,-161.3459 609.9247,-168.2656"/>
<text text-anchor="middle" x="649.5" y="-284" font-family="Helvetica,sans-Serif" font-size="10.00" fill="#000000"> +vid</text>
</g>
</g>
</svg>
