<?xml version="1.0" encoding="UTF-8" standalone="no"?>
<!DOCTYPE svg PUBLIC "-//W3C//DTD SVG 1.1//EN"
 "http://www.w3.org/Graphics/SVG/1.1/DTD/svg11.dtd">
<!-- Generated by graphviz version 2.40.1 (20161225.0304)
 -->
<!-- Title: tvm::script::ir_builder::IRBuilderFrame Pages: 1 -->
<svg width="2992pt" height="805pt"
 viewBox="0.00 0.00 2992.00 805.00" xmlns="http://www.w3.org/2000/svg" xmlns:xlink="http://www.w3.org/1999/xlink">
<g id="graph0" class="graph" transform="scale(1 1) rotate(0) translate(4 801)">
<title>tvm::script::ir_builder::IRBuilderFrame</title>
<polygon fill="#ffffff" stroke="transparent" points="-4,4 -4,-801 2988,-801 2988,4 -4,4"/>
<!-- Node0 -->
<g id="node1" class="node">
<title>Node0</title>
<polygon fill="#bfbfbf" stroke="#000000" points="237,-392.5 237,-526.5 377,-526.5 377,-392.5 237,-392.5"/>
<text text-anchor="start" x="245" y="-514.5" font-family="Helvetica,sans-Serif" font-size="10.00" fill="#000000">tvm::script::ir_builder</text>
<text text-anchor="middle" x="307" y="-503.5" font-family="Helvetica,sans-Serif" font-size="10.00" fill="#000000">::IRBuilderFrame</text>
<polyline fill="none" stroke="#000000" points="237,-496.5 377,-496.5 "/>
<text text-anchor="middle" x="307" y="-484.5" font-family="Helvetica,sans-Serif" font-size="10.00" fill="#000000"> </text>
<polyline fill="none" stroke="#000000" points="237,-477.5 377,-477.5 "/>
<text text-anchor="start" x="245" y="-465.5" font-family="Helvetica,sans-Serif" font-size="10.00" fill="#000000">+ ~IRBuilderFrame()</text>
<text text-anchor="start" x="245" y="-454.5" font-family="Helvetica,sans-Serif" font-size="10.00" fill="#000000">+ TVM_DEFINE_MUTABLE</text>
<text text-anchor="start" x="245" y="-443.5" font-family="Helvetica,sans-Serif" font-size="10.00" fill="#000000">_NOTNULLABLE_OBJECT</text>
<text text-anchor="start" x="245" y="-432.5" font-family="Helvetica,sans-Serif" font-size="10.00" fill="#000000">_REF_METHODS()</text>
<text text-anchor="start" x="245" y="-421.5" font-family="Helvetica,sans-Serif" font-size="10.00" fill="#000000">+ EnterWithScope()</text>
<text text-anchor="start" x="245" y="-410.5" font-family="Helvetica,sans-Serif" font-size="10.00" fill="#000000">+ ExitWithScope()</text>
<text text-anchor="start" x="245" y="-399.5" font-family="Helvetica,sans-Serif" font-size="10.00" fill="#000000"># IRBuilderFrame()</text>
</g>
<!-- Node2 -->
<g id="node3" class="node">
<title>Node2</title>
<g id="a_node3"><a xlink:href="classtvm_1_1script_1_1ir__builder_1_1ir_1_1IRModuleFrame.html" target="_top" xlink:title="Managed reference to IRModuleFrameNode. ">
<polygon fill="#ffffff" stroke="#000000" points="79,-260 79,-350 219,-350 219,-260 79,-260"/>
<text text-anchor="start" x="87" y="-338" font-family="Helvetica,sans-Serif" font-size="10.00" fill="#000000">tvm::script::ir_builder</text>
<text text-anchor="middle" x="149" y="-327" font-family="Helvetica,sans-Serif" font-size="10.00" fill="#000000">::ir::IRModuleFrame</text>
<polyline fill="none" stroke="#000000" points="79,-320 219,-320 "/>
<text text-anchor="middle" x="149" y="-308" font-family="Helvetica,sans-Serif" font-size="10.00" fill="#000000"> </text>
<polyline fill="none" stroke="#000000" points="79,-301 219,-301 "/>
<text text-anchor="start" x="87" y="-289" font-family="Helvetica,sans-Serif" font-size="10.00" fill="#000000">+ TVM_DEFINE_MUTABLE</text>
<text text-anchor="start" x="87" y="-278" font-family="Helvetica,sans-Serif" font-size="10.00" fill="#000000">_NOTNULLABLE_OBJECT</text>
<text text-anchor="start" x="87" y="-267" font-family="Helvetica,sans-Serif" font-size="10.00" fill="#000000">_REF_METHODS()</text>
</a>
</g>
</g>
<!-- Node0&#45;&gt;Node2 -->
<g id="edge2" class="edge">
<title>Node0&#45;&gt;Node2</title>
<path fill="none" stroke="#191970" d="M231.0081,-385.1915C218.8301,-373.2833 206.5567,-361.2817 195.3476,-350.3209"/>
<polygon fill="none" stroke="#191970" points="228.5617,-387.6945 238.1585,-392.1835 233.4557,-382.6896 228.5617,-387.6945"/>
</g>
<!-- Node3 -->
<g id="node4" class="node">
<title>Node3</title>
<g id="a_node4"><a xlink:href="classtvm_1_1script_1_1ir__builder_1_1relax_1_1RelaxFrame.html" target="_top" xlink:title="{tvm::script::ir_builder\l::relax::RelaxFrame\n||+ TVM_DEFINE_MUTABLE\l_NOTNULLABLE_OBJECT\l_REF_METHODS()\l# RelaxFrame()\l}">
<polygon fill="#ffffff" stroke="#000000" points="237,-254.5 237,-355.5 377,-355.5 377,-254.5 237,-254.5"/>
<text text-anchor="start" x="245" y="-343.5" font-family="Helvetica,sans-Serif" font-size="10.00" fill="#000000">tvm::script::ir_builder</text>
<text text-anchor="middle" x="307" y="-332.5" font-family="Helvetica,sans-Serif" font-size="10.00" fill="#000000">::relax::RelaxFrame</text>
<polyline fill="none" stroke="#000000" points="237,-325.5 377,-325.5 "/>
<text text-anchor="middle" x="307" y="-313.5" font-family="Helvetica,sans-Serif" font-size="10.00" fill="#000000"> </text>
<polyline fill="none" stroke="#000000" points="237,-306.5 377,-306.5 "/>
<text text-anchor="start" x="245" y="-294.5" font-family="Helvetica,sans-Serif" font-size="10.00" fill="#000000">+ TVM_DEFINE_MUTABLE</text>
<text text-anchor="start" x="245" y="-283.5" font-family="Helvetica,sans-Serif" font-size="10.00" fill="#000000">_NOTNULLABLE_OBJECT</text>
<text text-anchor="start" x="245" y="-272.5" font-family="Helvetica,sans-Serif" font-size="10.00" fill="#000000">_REF_METHODS()</text>
<text text-anchor="start" x="245" y="-261.5" font-family="Helvetica,sans-Serif" font-size="10.00" fill="#000000"># RelaxFrame()</text>
</a>
</g>
</g>
<!-- Node0&#45;&gt;Node3 -->
<g id="edge3" class="edge">
<title>Node0&#45;&gt;Node3</title>
<path fill="none" stroke="#191970" d="M307,-382.1277C307,-373.1994 307,-364.2733 307,-355.8265"/>
<polygon fill="none" stroke="#191970" points="303.5001,-382.1835 307,-392.1835 310.5001,-382.1835 303.5001,-382.1835"/>
</g>
<!-- Node10 -->
<g id="node11" class="node">
<title>Node10</title>
<g id="a_node11"><a xlink:href="classtvm_1_1script_1_1ir__builder_1_1tir_1_1TIRFrame.html" target="_top" xlink:title="Managed reference to TIRFrameNode. ">
<polygon fill="#ffffff" stroke="#000000" points="1580,-254.5 1580,-355.5 1720,-355.5 1720,-254.5 1580,-254.5"/>
<text text-anchor="start" x="1588" y="-343.5" font-family="Helvetica,sans-Serif" font-size="10.00" fill="#000000">tvm::script::ir_builder</text>
<text text-anchor="middle" x="1650" y="-332.5" font-family="Helvetica,sans-Serif" font-size="10.00" fill="#000000">::tir::TIRFrame</text>
<polyline fill="none" stroke="#000000" points="1580,-325.5 1720,-325.5 "/>
<text text-anchor="middle" x="1650" y="-313.5" font-family="Helvetica,sans-Serif" font-size="10.00" fill="#000000"> </text>
<polyline fill="none" stroke="#000000" points="1580,-306.5 1720,-306.5 "/>
<text text-anchor="start" x="1588" y="-294.5" font-family="Helvetica,sans-Serif" font-size="10.00" fill="#000000">+ TVM_DEFINE_MUTABLE</text>
<text text-anchor="start" x="1588" y="-283.5" font-family="Helvetica,sans-Serif" font-size="10.00" fill="#000000">_NOTNULLABLE_OBJECT</text>
<text text-anchor="start" x="1588" y="-272.5" font-family="Helvetica,sans-Serif" font-size="10.00" fill="#000000">_REF_METHODS()</text>
<text text-anchor="start" x="1588" y="-261.5" font-family="Helvetica,sans-Serif" font-size="10.00" fill="#000000"># TIRFrame()</text>
</a>
</g>
</g>
<!-- Node0&#45;&gt;Node10 -->
<g id="edge10" class="edge">
<title>Node0&#45;&gt;Node10</title>
<path fill="none" stroke="#191970" d="M387.4698,-450.2427C630.0885,-422.3316 1351.7423,-339.3119 1579.9779,-313.0554"/>
<polygon fill="none" stroke="#191970" points="386.8491,-446.7909 377.3146,-451.4109 387.6491,-453.745 386.8491,-446.7909"/>
</g>
<!-- Node1 -->
<g id="node2" class="node">
<title>Node1</title>
<g id="a_node2"><a xlink:href="classtvm_1_1runtime_1_1ObjectRef.html" target="_top" xlink:title="Base class of all object reference. ">
<polygon fill="#ffffff" stroke="#000000" points="240,-563.5 240,-796.5 374,-796.5 374,-563.5 240,-563.5"/>
<text text-anchor="middle" x="307" y="-784.5" font-family="Helvetica,sans-Serif" font-size="10.00" fill="#000000">tvm::runtime::ObjectRef</text>
<polyline fill="none" stroke="#000000" points="240,-777.5 374,-777.5 "/>
<text text-anchor="start" x="248" y="-765.5" font-family="Helvetica,sans-Serif" font-size="10.00" fill="#000000">+ _type_is_nullable</text>
<text text-anchor="start" x="248" y="-754.5" font-family="Helvetica,sans-Serif" font-size="10.00" fill="#000000"># data_</text>
<polyline fill="none" stroke="#000000" points="240,-747.5 374,-747.5 "/>
<text text-anchor="start" x="248" y="-735.5" font-family="Helvetica,sans-Serif" font-size="10.00" fill="#000000">+ ObjectRef()</text>
<text text-anchor="start" x="248" y="-724.5" font-family="Helvetica,sans-Serif" font-size="10.00" fill="#000000">+ ObjectRef()</text>
<text text-anchor="start" x="248" y="-713.5" font-family="Helvetica,sans-Serif" font-size="10.00" fill="#000000">+ same_as()</text>
<text text-anchor="start" x="248" y="-702.5" font-family="Helvetica,sans-Serif" font-size="10.00" fill="#000000">+ operator==()</text>
<text text-anchor="start" x="248" y="-691.5" font-family="Helvetica,sans-Serif" font-size="10.00" fill="#000000">+ operator!=()</text>
<text text-anchor="start" x="248" y="-680.5" font-family="Helvetica,sans-Serif" font-size="10.00" fill="#000000">+ operator&lt;()</text>
<text text-anchor="start" x="248" y="-669.5" font-family="Helvetica,sans-Serif" font-size="10.00" fill="#000000">+ defined()</text>
<text text-anchor="start" x="248" y="-658.5" font-family="Helvetica,sans-Serif" font-size="10.00" fill="#000000">+ get()</text>
<text text-anchor="start" x="248" y="-647.5" font-family="Helvetica,sans-Serif" font-size="10.00" fill="#000000">+ operator&#45;&gt;()</text>
<text text-anchor="start" x="248" y="-636.5" font-family="Helvetica,sans-Serif" font-size="10.00" fill="#000000">+ unique()</text>
<text text-anchor="start" x="248" y="-625.5" font-family="Helvetica,sans-Serif" font-size="10.00" fill="#000000">+ use_count()</text>
<text text-anchor="start" x="248" y="-614.5" font-family="Helvetica,sans-Serif" font-size="10.00" fill="#000000">+ as()</text>
<text text-anchor="start" x="248" y="-603.5" font-family="Helvetica,sans-Serif" font-size="10.00" fill="#000000"># get_mutable()</text>
<text text-anchor="start" x="248" y="-592.5" font-family="Helvetica,sans-Serif" font-size="10.00" fill="#000000"># DowncastNoCheck()</text>
<text text-anchor="start" x="248" y="-581.5" font-family="Helvetica,sans-Serif" font-size="10.00" fill="#000000"># FFIClearAfterMove()</text>
<text text-anchor="start" x="248" y="-570.5" font-family="Helvetica,sans-Serif" font-size="10.00" fill="#000000"># GetDataPtr()</text>
</a>
</g>
</g>
<!-- Node1&#45;&gt;Node0 -->
<g id="edge1" class="edge">
<title>Node1&#45;&gt;Node0</title>
<path fill="none" stroke="#191970" d="M307,-553.0779C307,-544.0753 307,-535.2246 307,-526.7733"/>
<polygon fill="none" stroke="#191970" points="303.5001,-553.2933 307,-563.2933 310.5001,-553.2934 303.5001,-553.2933"/>
</g>
<!-- Node4 -->
<g id="node5" class="node">
<title>Node4</title>
<g id="a_node5"><a xlink:href="classtvm_1_1script_1_1ir__builder_1_1relax_1_1BlockFrame.html" target="_top" xlink:title="{tvm::script::ir_builder\l::relax::BlockFrame\n||+ TVM_DEFINE_MUTABLE\l_NOTNULLABLE_OBJECT\l_REF_METHODS()\l}">
<polygon fill="#ffffff" stroke="#000000" points="0,-127.5 0,-217.5 140,-217.5 140,-127.5 0,-127.5"/>
<text text-anchor="start" x="8" y="-205.5" font-family="Helvetica,sans-Serif" font-size="10.00" fill="#000000">tvm::script::ir_builder</text>
<text text-anchor="middle" x="70" y="-194.5" font-family="Helvetica,sans-Serif" font-size="10.00" fill="#000000">::relax::BlockFrame</text>
<polyline fill="none" stroke="#000000" points="0,-187.5 140,-187.5 "/>
<text text-anchor="middle" x="70" y="-175.5" font-family="Helvetica,sans-Serif" font-size="10.00" fill="#000000"> </text>
<polyline fill="none" stroke="#000000" points="0,-168.5 140,-168.5 "/>
<text text-anchor="start" x="8" y="-156.5" font-family="Helvetica,sans-Serif" font-size="10.00" fill="#000000">+ TVM_DEFINE_MUTABLE</text>
<text text-anchor="start" x="8" y="-145.5" font-family="Helvetica,sans-Serif" font-size="10.00" fill="#000000">_NOTNULLABLE_OBJECT</text>
<text text-anchor="start" x="8" y="-134.5" font-family="Helvetica,sans-Serif" font-size="10.00" fill="#000000">_REF_METHODS()</text>
</a>
</g>
</g>
<!-- Node3&#45;&gt;Node4 -->
<g id="edge4" class="edge">
<title>Node3&#45;&gt;Node4</title>
<path fill="none" stroke="#191970" d="M227.7068,-254.0431C192.4088,-235.4131 180.7655,-234.3387 149,-218 146.0443,-216.4797 143.0419,-214.9027 140.0204,-213.2885"/>
<polygon fill="none" stroke="#191970" points="226.2117,-257.2133 236.6748,-258.8791 229.5342,-251.0521 226.2117,-257.2133"/>
</g>
<!-- Node5 -->
<g id="node6" class="node">
<title>Node5</title>
<g id="a_node6"><a xlink:href="classtvm_1_1script_1_1ir__builder_1_1relax_1_1IfFrame.html" target="_top" xlink:title="Managed reference to IfFrameNode. ">
<polygon fill="#ffffff" stroke="#000000" points="158,-127.5 158,-217.5 298,-217.5 298,-127.5 158,-127.5"/>
<text text-anchor="start" x="166" y="-205.5" font-family="Helvetica,sans-Serif" font-size="10.00" fill="#000000">tvm::script::ir_builder</text>
<text text-anchor="middle" x="228" y="-194.5" font-family="Helvetica,sans-Serif" font-size="10.00" fill="#000000">::relax::IfFrame</text>
<polyline fill="none" stroke="#000000" points="158,-187.5 298,-187.5 "/>
<text text-anchor="middle" x="228" y="-175.5" font-family="Helvetica,sans-Serif" font-size="10.00" fill="#000000"> </text>
<polyline fill="none" stroke="#000000" points="158,-168.5 298,-168.5 "/>
<text text-anchor="start" x="166" y="-156.5" font-family="Helvetica,sans-Serif" font-size="10.00" fill="#000000">+ TVM_DEFINE_MUTABLE</text>
<text text-anchor="start" x="166" y="-145.5" font-family="Helvetica,sans-Serif" font-size="10.00" fill="#000000">_NOTNULLABLE_OBJECT</text>
<text text-anchor="start" x="166" y="-134.5" font-family="Helvetica,sans-Serif" font-size="10.00" fill="#000000">_REF_METHODS()</text>
</a>
</g>
</g>
<!-- Node3&#45;&gt;Node5 -->
<g id="edge5" class="edge">
<title>Node3&#45;&gt;Node5</title>
<path fill="none" stroke="#191970" d="M271.4375,-245.354C265.9189,-236.0981 260.2968,-226.6686 255.0078,-217.7978"/>
<polygon fill="none" stroke="#191970" points="268.5551,-247.3542 276.6825,-254.151 274.5675,-243.7694 268.5551,-247.3542"/>
</g>
<!-- Node6 -->
<g id="node7" class="node">
<title>Node6</title>
<g id="a_node7"><a xlink:href="classtvm_1_1script_1_1ir__builder_1_1relax_1_1SeqExprFrame.html" target="_top" xlink:title="{tvm::script::ir_builder\l::relax::SeqExprFrame\n||+ TVM_DEFINE_MUTABLE\l_NOTNULLABLE_OBJECT\l_REF_METHODS()\l}">
<polygon fill="#ffffff" stroke="#000000" points="316,-127.5 316,-217.5 456,-217.5 456,-127.5 316,-127.5"/>
<text text-anchor="start" x="324" y="-205.5" font-family="Helvetica,sans-Serif" font-size="10.00" fill="#000000">tvm::script::ir_builder</text>
<text text-anchor="middle" x="386" y="-194.5" font-family="Helvetica,sans-Serif" font-size="10.00" fill="#000000">::relax::SeqExprFrame</text>
<polyline fill="none" stroke="#000000" points="316,-187.5 456,-187.5 "/>
<text text-anchor="middle" x="386" y="-175.5" font-family="Helvetica,sans-Serif" font-size="10.00" fill="#000000"> </text>
<polyline fill="none" stroke="#000000" points="316,-168.5 456,-168.5 "/>
<text text-anchor="start" x="324" y="-156.5" font-family="Helvetica,sans-Serif" font-size="10.00" fill="#000000">+ TVM_DEFINE_MUTABLE</text>
<text text-anchor="start" x="324" y="-145.5" font-family="Helvetica,sans-Serif" font-size="10.00" fill="#000000">_NOTNULLABLE_OBJECT</text>
<text text-anchor="start" x="324" y="-134.5" font-family="Helvetica,sans-Serif" font-size="10.00" fill="#000000">_REF_METHODS()</text>
</a>
</g>
</g>
<!-- Node3&#45;&gt;Node6 -->
<g id="edge6" class="edge">
<title>Node3&#45;&gt;Node6</title>
<path fill="none" stroke="#191970" d="M342.5625,-245.354C348.0811,-236.0981 353.7032,-226.6686 358.9922,-217.7978"/>
<polygon fill="none" stroke="#191970" points="339.4325,-243.7694 337.3175,-254.151 345.4449,-247.3542 339.4325,-243.7694"/>
</g>
<!-- Node7 -->
<g id="node8" class="node">
<title>Node7</title>
<g id="a_node8"><a xlink:href="classtvm_1_1script_1_1ir__builder_1_1relax_1_1ElseFrame.html" target="_top" xlink:title="Managed reference to ElseFrameNode. ">
<polygon fill="#ffffff" stroke="#000000" points="158,-.5 158,-90.5 298,-90.5 298,-.5 158,-.5"/>
<text text-anchor="start" x="166" y="-78.5" font-family="Helvetica,sans-Serif" font-size="10.00" fill="#000000">tvm::script::ir_builder</text>
<text text-anchor="middle" x="228" y="-67.5" font-family="Helvetica,sans-Serif" font-size="10.00" fill="#000000">::relax::ElseFrame</text>
<polyline fill="none" stroke="#000000" points="158,-60.5 298,-60.5 "/>
<text text-anchor="middle" x="228" y="-48.5" font-family="Helvetica,sans-Serif" font-size="10.00" fill="#000000"> </text>
<polyline fill="none" stroke="#000000" points="158,-41.5 298,-41.5 "/>
<text text-anchor="start" x="166" y="-29.5" font-family="Helvetica,sans-Serif" font-size="10.00" fill="#000000">+ TVM_DEFINE_MUTABLE</text>
<text text-anchor="start" x="166" y="-18.5" font-family="Helvetica,sans-Serif" font-size="10.00" fill="#000000">_NOTNULLABLE_OBJECT</text>
<text text-anchor="start" x="166" y="-7.5" font-family="Helvetica,sans-Serif" font-size="10.00" fill="#000000">_REF_METHODS()</text>
</a>
</g>
</g>
<!-- Node6&#45;&gt;Node7 -->
<g id="edge7" class="edge">
<title>Node6&#45;&gt;Node7</title>
<path fill="none" stroke="#191970" d="M321.7653,-120.8683C309.3305,-110.8733 296.3897,-100.4715 284.235,-90.7016"/>
<polygon fill="none" stroke="#191970" points="319.8632,-123.8299 329.8502,-127.367 324.2487,-118.374 319.8632,-123.8299"/>
</g>
<!-- Node8 -->
<g id="node9" class="node">
<title>Node8</title>
<g id="a_node9"><a xlink:href="classtvm_1_1script_1_1ir__builder_1_1relax_1_1FunctionFrame.html" target="_top" xlink:title="{tvm::script::ir_builder\l::relax::FunctionFrame\n||+ TVM_DEFINE_MUTABLE\l_NOTNULLABLE_OBJECT\l_REF_METHODS()\l}">
<polygon fill="#ffffff" stroke="#000000" points="316,-.5 316,-90.5 456,-90.5 456,-.5 316,-.5"/>
<text text-anchor="start" x="324" y="-78.5" font-family="Helvetica,sans-Serif" font-size="10.00" fill="#000000">tvm::script::ir_builder</text>
<text text-anchor="middle" x="386" y="-67.5" font-family="Helvetica,sans-Serif" font-size="10.00" fill="#000000">::relax::FunctionFrame</text>
<polyline fill="none" stroke="#000000" points="316,-60.5 456,-60.5 "/>
<text text-anchor="middle" x="386" y="-48.5" font-family="Helvetica,sans-Serif" font-size="10.00" fill="#000000"> </text>
<polyline fill="none" stroke="#000000" points="316,-41.5 456,-41.5 "/>
<text text-anchor="start" x="324" y="-29.5" font-family="Helvetica,sans-Serif" font-size="10.00" fill="#000000">+ TVM_DEFINE_MUTABLE</text>
<text text-anchor="start" x="324" y="-18.5" font-family="Helvetica,sans-Serif" font-size="10.00" fill="#000000">_NOTNULLABLE_OBJECT</text>
<text text-anchor="start" x="324" y="-7.5" font-family="Helvetica,sans-Serif" font-size="10.00" fill="#000000">_REF_METHODS()</text>
</a>
</g>
</g>
<!-- Node6&#45;&gt;Node8 -->
<g id="edge8" class="edge">
<title>Node6&#45;&gt;Node8</title>
<path fill="none" stroke="#191970" d="M386,-117.2012C386,-108.4232 386,-99.4326 386,-90.9156"/>
<polygon fill="none" stroke="#191970" points="382.5001,-117.3669 386,-127.367 389.5001,-117.367 382.5001,-117.3669"/>
</g>
<!-- Node9 -->
<g id="node10" class="node">
<title>Node9</title>
<g id="a_node10"><a xlink:href="classtvm_1_1script_1_1ir__builder_1_1relax_1_1ThenFrame.html" target="_top" xlink:title="Managed reference to ThenFrameNode. ">
<polygon fill="#ffffff" stroke="#000000" points="474,-.5 474,-90.5 614,-90.5 614,-.5 474,-.5"/>
<text text-anchor="start" x="482" y="-78.5" font-family="Helvetica,sans-Serif" font-size="10.00" fill="#000000">tvm::script::ir_builder</text>
<text text-anchor="middle" x="544" y="-67.5" font-family="Helvetica,sans-Serif" font-size="10.00" fill="#000000">::relax::ThenFrame</text>
<polyline fill="none" stroke="#000000" points="474,-60.5 614,-60.5 "/>
<text text-anchor="middle" x="544" y="-48.5" font-family="Helvetica,sans-Serif" font-size="10.00" fill="#000000"> </text>
<polyline fill="none" stroke="#000000" points="474,-41.5 614,-41.5 "/>
<text text-anchor="start" x="482" y="-29.5" font-family="Helvetica,sans-Serif" font-size="10.00" fill="#000000">+ TVM_DEFINE_MUTABLE</text>
<text text-anchor="start" x="482" y="-18.5" font-family="Helvetica,sans-Serif" font-size="10.00" fill="#000000">_NOTNULLABLE_OBJECT</text>
<text text-anchor="start" x="482" y="-7.5" font-family="Helvetica,sans-Serif" font-size="10.00" fill="#000000">_REF_METHODS()</text>
</a>
</g>
</g>
<!-- Node6&#45;&gt;Node9 -->
<g id="edge9" class="edge">
<title>Node6&#45;&gt;Node9</title>
<path fill="none" stroke="#191970" d="M450.2347,-120.8683C462.6695,-110.8733 475.6103,-100.4715 487.765,-90.7016"/>
<polygon fill="none" stroke="#191970" points="447.7513,-118.374 442.1498,-127.367 452.1368,-123.8299 447.7513,-118.374"/>
</g>
<!-- Node11 -->
<g id="node12" class="node">
<title>Node11</title>
<g id="a_node12"><a xlink:href="classtvm_1_1script_1_1ir__builder_1_1tir_1_1AllocateConstFrame.html" target="_top" xlink:title="Managed reference to AllocateConstFrameNode. ">
<polygon fill="#ffffff" stroke="#000000" points="474,-127.5 474,-217.5 614,-217.5 614,-127.5 474,-127.5"/>
<text text-anchor="start" x="482" y="-205.5" font-family="Helvetica,sans-Serif" font-size="10.00" fill="#000000">tvm::script::ir_builder</text>
<text text-anchor="middle" x="544" y="-194.5" font-family="Helvetica,sans-Serif" font-size="10.00" fill="#000000">::tir::AllocateConstFrame</text>
<polyline fill="none" stroke="#000000" points="474,-187.5 614,-187.5 "/>
<text text-anchor="middle" x="544" y="-175.5" font-family="Helvetica,sans-Serif" font-size="10.00" fill="#000000"> </text>
<polyline fill="none" stroke="#000000" points="474,-168.5 614,-168.5 "/>
<text text-anchor="start" x="482" y="-156.5" font-family="Helvetica,sans-Serif" font-size="10.00" fill="#000000">+ TVM_DEFINE_MUTABLE</text>
<text text-anchor="start" x="482" y="-145.5" font-family="Helvetica,sans-Serif" font-size="10.00" fill="#000000">_NOTNULLABLE_OBJECT</text>
<text text-anchor="start" x="482" y="-134.5" font-family="Helvetica,sans-Serif" font-size="10.00" fill="#000000">_REF_METHODS()</text>
</a>
</g>
</g>
<!-- Node10&#45;&gt;Node11 -->
<g id="edge11" class="edge">
<title>Node10&#45;&gt;Node11</title>
<path fill="none" stroke="#191970" d="M1569.7865,-302.7048C1360.049,-295.9887 799.4064,-273.2518 623,-218 620.1303,-217.1012 617.2513,-216.0851 614.3804,-214.9742"/>
<polygon fill="none" stroke="#191970" points="1569.6999,-306.2037 1579.8056,-303.0219 1569.9214,-299.2072 1569.6999,-306.2037"/>
</g>
<!-- Node12 -->
<g id="node13" class="node">
<title>Node12</title>
<g id="a_node13"><a xlink:href="classtvm_1_1script_1_1ir__builder_1_1tir_1_1AllocateFrame.html" target="_top" xlink:title="Managed reference to AllocateFrameNode. ">
<polygon fill="#ffffff" stroke="#000000" points="632,-127.5 632,-217.5 772,-217.5 772,-127.5 632,-127.5"/>
<text text-anchor="start" x="640" y="-205.5" font-family="Helvetica,sans-Serif" font-size="10.00" fill="#000000">tvm::script::ir_builder</text>
<text text-anchor="middle" x="702" y="-194.5" font-family="Helvetica,sans-Serif" font-size="10.00" fill="#000000">::tir::AllocateFrame</text>
<polyline fill="none" stroke="#000000" points="632,-187.5 772,-187.5 "/>
<text text-anchor="middle" x="702" y="-175.5" font-family="Helvetica,sans-Serif" font-size="10.00" fill="#000000"> </text>
<polyline fill="none" stroke="#000000" points="632,-168.5 772,-168.5 "/>
<text text-anchor="start" x="640" y="-156.5" font-family="Helvetica,sans-Serif" font-size="10.00" fill="#000000">+ TVM_DEFINE_MUTABLE</text>
<text text-anchor="start" x="640" y="-145.5" font-family="Helvetica,sans-Serif" font-size="10.00" fill="#000000">_NOTNULLABLE_OBJECT</text>
<text text-anchor="start" x="640" y="-134.5" font-family="Helvetica,sans-Serif" font-size="10.00" fill="#000000">_REF_METHODS()</text>
</a>
</g>
</g>
<!-- Node10&#45;&gt;Node12 -->
<g id="edge12" class="edge">
<title>Node10&#45;&gt;Node12</title>
<path fill="none" stroke="#191970" d="M1569.8653,-301.2831C1383.7078,-291.9568 926.8081,-264.8937 781,-218 778.1372,-217.0793 775.2642,-216.0446 772.3982,-214.918"/>
<polygon fill="none" stroke="#191970" points="1569.7005,-304.7791 1579.862,-301.7799 1570.048,-297.7877 1569.7005,-304.7791"/>
</g>
<!-- Node13 -->
<g id="node14" class="node">
<title>Node13</title>
<g id="a_node14"><a xlink:href="classtvm_1_1script_1_1ir__builder_1_1tir_1_1AssertFrame.html" target="_top" xlink:title="Managed reference to AssertFrameNode. ">
<polygon fill="#ffffff" stroke="#000000" points="790,-127.5 790,-217.5 930,-217.5 930,-127.5 790,-127.5"/>
<text text-anchor="start" x="798" y="-205.5" font-family="Helvetica,sans-Serif" font-size="10.00" fill="#000000">tvm::script::ir_builder</text>
<text text-anchor="middle" x="860" y="-194.5" font-family="Helvetica,sans-Serif" font-size="10.00" fill="#000000">::tir::AssertFrame</text>
<polyline fill="none" stroke="#000000" points="790,-187.5 930,-187.5 "/>
<text text-anchor="middle" x="860" y="-175.5" font-family="Helvetica,sans-Serif" font-size="10.00" fill="#000000"> </text>
<polyline fill="none" stroke="#000000" points="790,-168.5 930,-168.5 "/>
<text text-anchor="start" x="798" y="-156.5" font-family="Helvetica,sans-Serif" font-size="10.00" fill="#000000">+ TVM_DEFINE_MUTABLE</text>
<text text-anchor="start" x="798" y="-145.5" font-family="Helvetica,sans-Serif" font-size="10.00" fill="#000000">_NOTNULLABLE_OBJECT</text>
<text text-anchor="start" x="798" y="-134.5" font-family="Helvetica,sans-Serif" font-size="10.00" fill="#000000">_REF_METHODS()</text>
</a>
</g>
</g>
<!-- Node10&#45;&gt;Node13 -->
<g id="edge13" class="edge">
<title>Node10&#45;&gt;Node13</title>
<path fill="none" stroke="#191970" d="M1569.4596,-299.2063C1408.8874,-286.9923 1054.4264,-256.527 939,-218 936.1475,-217.0479 933.2832,-215.9865 930.4247,-214.8372"/>
<polygon fill="none" stroke="#191970" points="1569.5158,-302.7204 1579.7513,-299.9843 1570.0436,-295.7403 1569.5158,-302.7204"/>
</g>
<!-- Node14 -->
<g id="node15" class="node">
<title>Node14</title>
<g id="a_node15"><a xlink:href="classtvm_1_1script_1_1ir__builder_1_1tir_1_1AttrFrame.html" target="_top" xlink:title="Managed reference to AttrFrameNode. ">
<polygon fill="#ffffff" stroke="#000000" points="948,-127.5 948,-217.5 1088,-217.5 1088,-127.5 948,-127.5"/>
<text text-anchor="start" x="956" y="-205.5" font-family="Helvetica,sans-Serif" font-size="10.00" fill="#000000">tvm::script::ir_builder</text>
<text text-anchor="middle" x="1018" y="-194.5" font-family="Helvetica,sans-Serif" font-size="10.00" fill="#000000">::tir::AttrFrame</text>
<polyline fill="none" stroke="#000000" points="948,-187.5 1088,-187.5 "/>
<text text-anchor="middle" x="1018" y="-175.5" font-family="Helvetica,sans-Serif" font-size="10.00" fill="#000000"> </text>
<polyline fill="none" stroke="#000000" points="948,-168.5 1088,-168.5 "/>
<text text-anchor="start" x="956" y="-156.5" font-family="Helvetica,sans-Serif" font-size="10.00" fill="#000000">+ TVM_DEFINE_MUTABLE</text>
<text text-anchor="start" x="956" y="-145.5" font-family="Helvetica,sans-Serif" font-size="10.00" fill="#000000">_NOTNULLABLE_OBJECT</text>
<text text-anchor="start" x="956" y="-134.5" font-family="Helvetica,sans-Serif" font-size="10.00" fill="#000000">_REF_METHODS()</text>
</a>
</g>
</g>
<!-- Node10&#45;&gt;Node14 -->
<g id="edge14" class="edge">
<title>Node10&#45;&gt;Node14</title>
<path fill="none" stroke="#191970" d="M1569.9117,-301.5569C1460.3101,-294.812 1258.7481,-275.0882 1097,-218 1094.015,-216.9465 1091.0142,-215.7798 1088.0183,-214.5242"/>
<polygon fill="none" stroke="#191970" points="1569.7133,-305.0512 1579.9036,-302.1514 1570.1292,-298.0635 1569.7133,-305.0512"/>
</g>
<!-- Node15 -->
<g id="node16" class="node">
<title>Node15</title>
<g id="a_node16"><a xlink:href="classtvm_1_1script_1_1ir__builder_1_1tir_1_1BlockFrame.html" target="_top" xlink:title="Managed reference to BlockFrameNode. ">
<polygon fill="#ffffff" stroke="#000000" points="1106,-127.5 1106,-217.5 1246,-217.5 1246,-127.5 1106,-127.5"/>
<text text-anchor="start" x="1114" y="-205.5" font-family="Helvetica,sans-Serif" font-size="10.00" fill="#000000">tvm::script::ir_builder</text>
<text text-anchor="middle" x="1176" y="-194.5" font-family="Helvetica,sans-Serif" font-size="10.00" fill="#000000">::tir::BlockFrame</text>
<polyline fill="none" stroke="#000000" points="1106,-187.5 1246,-187.5 "/>
<text text-anchor="middle" x="1176" y="-175.5" font-family="Helvetica,sans-Serif" font-size="10.00" fill="#000000"> </text>
<polyline fill="none" stroke="#000000" points="1106,-168.5 1246,-168.5 "/>
<text text-anchor="start" x="1114" y="-156.5" font-family="Helvetica,sans-Serif" font-size="10.00" fill="#000000">+ TVM_DEFINE_MUTABLE</text>
<text text-anchor="start" x="1114" y="-145.5" font-family="Helvetica,sans-Serif" font-size="10.00" fill="#000000">_NOTNULLABLE_OBJECT</text>
<text text-anchor="start" x="1114" y="-134.5" font-family="Helvetica,sans-Serif" font-size="10.00" fill="#000000">_REF_METHODS()</text>
</a>
</g>
</g>
<!-- Node10&#45;&gt;Node15 -->
<g id="edge15" class="edge">
<title>Node10&#45;&gt;Node15</title>
<path fill="none" stroke="#191970" d="M1569.8104,-294.6869C1488.4935,-282.5457 1360.0178,-258.6926 1255,-218 1252.0484,-216.8563 1249.0757,-215.6136 1246.1034,-214.2943"/>
<polygon fill="none" stroke="#191970" points="1569.5772,-298.1901 1579.9798,-296.1809 1570.5947,-291.2645 1569.5772,-298.1901"/>
</g>
<!-- Node16 -->
<g id="node17" class="node">
<title>Node16</title>
<g id="a_node17"><a xlink:href="classtvm_1_1script_1_1ir__builder_1_1tir_1_1BlockInitFrame.html" target="_top" xlink:title="Managed reference to BlockInitFrameNode. ">
<polygon fill="#ffffff" stroke="#000000" points="1264,-127.5 1264,-217.5 1404,-217.5 1404,-127.5 1264,-127.5"/>
<text text-anchor="start" x="1272" y="-205.5" font-family="Helvetica,sans-Serif" font-size="10.00" fill="#000000">tvm::script::ir_builder</text>
<text text-anchor="middle" x="1334" y="-194.5" font-family="Helvetica,sans-Serif" font-size="10.00" fill="#000000">::tir::BlockInitFrame</text>
<polyline fill="none" stroke="#000000" points="1264,-187.5 1404,-187.5 "/>
<text text-anchor="middle" x="1334" y="-175.5" font-family="Helvetica,sans-Serif" font-size="10.00" fill="#000000"> </text>
<polyline fill="none" stroke="#000000" points="1264,-168.5 1404,-168.5 "/>
<text text-anchor="start" x="1272" y="-156.5" font-family="Helvetica,sans-Serif" font-size="10.00" fill="#000000">+ TVM_DEFINE_MUTABLE</text>
<text text-anchor="start" x="1272" y="-145.5" font-family="Helvetica,sans-Serif" font-size="10.00" fill="#000000">_NOTNULLABLE_OBJECT</text>
<text text-anchor="start" x="1272" y="-134.5" font-family="Helvetica,sans-Serif" font-size="10.00" fill="#000000">_REF_METHODS()</text>
</a>
</g>
</g>
<!-- Node10&#45;&gt;Node16 -->
<g id="edge16" class="edge">
<title>Node10&#45;&gt;Node16</title>
<path fill="none" stroke="#191970" d="M1570.0222,-279.4517C1523.4183,-263.6288 1463.9731,-241.8219 1413,-218 1410.1322,-216.6598 1407.2304,-215.2512 1404.3173,-213.7933"/>
<polygon fill="none" stroke="#191970" points="1569.1703,-282.858 1579.7644,-282.7359 1571.4065,-276.2247 1569.1703,-282.858"/>
</g>
<!-- Node17 -->
<g id="node18" class="node">
<title>Node17</title>
<g id="a_node18"><a xlink:href="classtvm_1_1script_1_1ir__builder_1_1tir_1_1DeclBufferFrame.html" target="_top" xlink:title="{tvm::script::ir_builder\l::tir::DeclBufferFrame\n||+ TVM_DEFINE_MUTABLE\l_NOTNULLABLE_OBJECT\l_REF_METHODS()\l}">
<polygon fill="#ffffff" stroke="#000000" points="1422,-127.5 1422,-217.5 1562,-217.5 1562,-127.5 1422,-127.5"/>
<text text-anchor="start" x="1430" y="-205.5" font-family="Helvetica,sans-Serif" font-size="10.00" fill="#000000">tvm::script::ir_builder</text>
<text text-anchor="middle" x="1492" y="-194.5" font-family="Helvetica,sans-Serif" font-size="10.00" fill="#000000">::tir::DeclBufferFrame</text>
<polyline fill="none" stroke="#000000" points="1422,-187.5 1562,-187.5 "/>
<text text-anchor="middle" x="1492" y="-175.5" font-family="Helvetica,sans-Serif" font-size="10.00" fill="#000000"> </text>
<polyline fill="none" stroke="#000000" points="1422,-168.5 1562,-168.5 "/>
<text text-anchor="start" x="1430" y="-156.5" font-family="Helvetica,sans-Serif" font-size="10.00" fill="#000000">+ TVM_DEFINE_MUTABLE</text>
<text text-anchor="start" x="1430" y="-145.5" font-family="Helvetica,sans-Serif" font-size="10.00" fill="#000000">_NOTNULLABLE_OBJECT</text>
<text text-anchor="start" x="1430" y="-134.5" font-family="Helvetica,sans-Serif" font-size="10.00" fill="#000000">_REF_METHODS()</text>
</a>
</g>
</g>
<!-- Node10&#45;&gt;Node17 -->
<g id="edge17" class="edge">
<title>Node10&#45;&gt;Node17</title>
<path fill="none" stroke="#191970" d="M1581.5533,-247.6001C1569.5758,-237.5557 1557.2688,-227.2349 1545.7603,-217.5838"/>
<polygon fill="none" stroke="#191970" points="1579.4536,-250.4071 1589.3649,-254.151 1583.9516,-245.0435 1579.4536,-250.4071"/>
</g>
<!-- Node18 -->
<g id="node19" class="node">
<title>Node18</title>
<g id="a_node19"><a xlink:href="classtvm_1_1script_1_1ir__builder_1_1tir_1_1ElseFrame.html" target="_top" xlink:title="Managed reference to ElseFrameNode. ">
<polygon fill="#ffffff" stroke="#000000" points="1580,-127.5 1580,-217.5 1720,-217.5 1720,-127.5 1580,-127.5"/>
<text text-anchor="start" x="1588" y="-205.5" font-family="Helvetica,sans-Serif" font-size="10.00" fill="#000000">tvm::script::ir_builder</text>
<text text-anchor="middle" x="1650" y="-194.5" font-family="Helvetica,sans-Serif" font-size="10.00" fill="#000000">::tir::ElseFrame</text>
<polyline fill="none" stroke="#000000" points="1580,-187.5 1720,-187.5 "/>
<text text-anchor="middle" x="1650" y="-175.5" font-family="Helvetica,sans-Serif" font-size="10.00" fill="#000000"> </text>
<polyline fill="none" stroke="#000000" points="1580,-168.5 1720,-168.5 "/>
<text text-anchor="start" x="1588" y="-156.5" font-family="Helvetica,sans-Serif" font-size="10.00" fill="#000000">+ TVM_DEFINE_MUTABLE</text>
<text text-anchor="start" x="1588" y="-145.5" font-family="Helvetica,sans-Serif" font-size="10.00" fill="#000000">_NOTNULLABLE_OBJECT</text>
<text text-anchor="start" x="1588" y="-134.5" font-family="Helvetica,sans-Serif" font-size="10.00" fill="#000000">_REF_METHODS()</text>
</a>
</g>
</g>
<!-- Node10&#45;&gt;Node18 -->
<g id="edge18" class="edge">
<title>Node10&#45;&gt;Node18</title>
<path fill="none" stroke="#191970" d="M1650,-243.9214C1650,-235.1275 1650,-226.2114 1650,-217.7978"/>
<polygon fill="none" stroke="#191970" points="1646.5001,-244.1509 1650,-254.151 1653.5001,-244.151 1646.5001,-244.1509"/>
</g>
<!-- Node19 -->
<g id="node20" class="node">
<title>Node19</title>
<g id="a_node20"><a xlink:href="classtvm_1_1script_1_1ir__builder_1_1tir_1_1ForFrame.html" target="_top" xlink:title="Managed reference to ForFrameNode. ">
<polygon fill="#ffffff" stroke="#000000" points="1738,-127.5 1738,-217.5 1878,-217.5 1878,-127.5 1738,-127.5"/>
<text text-anchor="start" x="1746" y="-205.5" font-family="Helvetica,sans-Serif" font-size="10.00" fill="#000000">tvm::script::ir_builder</text>
<text text-anchor="middle" x="1808" y="-194.5" font-family="Helvetica,sans-Serif" font-size="10.00" fill="#000000">::tir::ForFrame</text>
<polyline fill="none" stroke="#000000" points="1738,-187.5 1878,-187.5 "/>
<text text-anchor="middle" x="1808" y="-175.5" font-family="Helvetica,sans-Serif" font-size="10.00" fill="#000000"> </text>
<polyline fill="none" stroke="#000000" points="1738,-168.5 1878,-168.5 "/>
<text text-anchor="start" x="1746" y="-156.5" font-family="Helvetica,sans-Serif" font-size="10.00" fill="#000000">+ TVM_DEFINE_MUTABLE</text>
<text text-anchor="start" x="1746" y="-145.5" font-family="Helvetica,sans-Serif" font-size="10.00" fill="#000000">_NOTNULLABLE_OBJECT</text>
<text text-anchor="start" x="1746" y="-134.5" font-family="Helvetica,sans-Serif" font-size="10.00" fill="#000000">_REF_METHODS()</text>
</a>
</g>
</g>
<!-- Node10&#45;&gt;Node19 -->
<g id="edge19" class="edge">
<title>Node10&#45;&gt;Node19</title>
<path fill="none" stroke="#191970" d="M1718.4467,-247.6001C1730.4242,-237.5557 1742.7312,-227.2349 1754.2397,-217.5838"/>
<polygon fill="none" stroke="#191970" points="1716.0484,-245.0435 1710.6351,-254.151 1720.5464,-250.4071 1716.0484,-245.0435"/>
</g>
<!-- Node20 -->
<g id="node21" class="node">
<title>Node20</title>
<g id="a_node21"><a xlink:href="classtvm_1_1script_1_1ir__builder_1_1tir_1_1IfFrame.html" target="_top" xlink:title="Managed reference to IfFrameNode. ">
<polygon fill="#ffffff" stroke="#000000" points="1896,-127.5 1896,-217.5 2036,-217.5 2036,-127.5 1896,-127.5"/>
<text text-anchor="start" x="1904" y="-205.5" font-family="Helvetica,sans-Serif" font-size="10.00" fill="#000000">tvm::script::ir_builder</text>
<text text-anchor="middle" x="1966" y="-194.5" font-family="Helvetica,sans-Serif" font-size="10.00" fill="#000000">::tir::IfFrame</text>
<polyline fill="none" stroke="#000000" points="1896,-187.5 2036,-187.5 "/>
<text text-anchor="middle" x="1966" y="-175.5" font-family="Helvetica,sans-Serif" font-size="10.00" fill="#000000"> </text>
<polyline fill="none" stroke="#000000" points="1896,-168.5 2036,-168.5 "/>
<text text-anchor="start" x="1904" y="-156.5" font-family="Helvetica,sans-Serif" font-size="10.00" fill="#000000">+ TVM_DEFINE_MUTABLE</text>
<text text-anchor="start" x="1904" y="-145.5" font-family="Helvetica,sans-Serif" font-size="10.00" fill="#000000">_NOTNULLABLE_OBJECT</text>
<text text-anchor="start" x="1904" y="-134.5" font-family="Helvetica,sans-Serif" font-size="10.00" fill="#000000">_REF_METHODS()</text>
</a>
</g>
</g>
<!-- Node10&#45;&gt;Node20 -->
<g id="edge20" class="edge">
<title>Node10&#45;&gt;Node20</title>
<path fill="none" stroke="#191970" d="M1729.9778,-279.4517C1776.5817,-263.6288 1836.0269,-241.8219 1887,-218 1889.8678,-216.6598 1892.7696,-215.2512 1895.6827,-213.7933"/>
<polygon fill="none" stroke="#191970" points="1728.5935,-276.2247 1720.2356,-282.7359 1730.8297,-282.858 1728.5935,-276.2247"/>
</g>
<!-- Node21 -->
<g id="node22" class="node">
<title>Node21</title>
<g id="a_node22"><a xlink:href="classtvm_1_1script_1_1ir__builder_1_1tir_1_1LaunchThreadFrame.html" target="_top" xlink:title="Managed reference to LaunchThreadFrameNode. ">
<polygon fill="#ffffff" stroke="#000000" points="2054,-127.5 2054,-217.5 2194,-217.5 2194,-127.5 2054,-127.5"/>
<text text-anchor="start" x="2062" y="-205.5" font-family="Helvetica,sans-Serif" font-size="10.00" fill="#000000">tvm::script::ir_builder</text>
<text text-anchor="middle" x="2124" y="-194.5" font-family="Helvetica,sans-Serif" font-size="10.00" fill="#000000">::tir::LaunchThreadFrame</text>
<polyline fill="none" stroke="#000000" points="2054,-187.5 2194,-187.5 "/>
<text text-anchor="middle" x="2124" y="-175.5" font-family="Helvetica,sans-Serif" font-size="10.00" fill="#000000"> </text>
<polyline fill="none" stroke="#000000" points="2054,-168.5 2194,-168.5 "/>
<text text-anchor="start" x="2062" y="-156.5" font-family="Helvetica,sans-Serif" font-size="10.00" fill="#000000">+ TVM_DEFINE_MUTABLE</text>
<text text-anchor="start" x="2062" y="-145.5" font-family="Helvetica,sans-Serif" font-size="10.00" fill="#000000">_NOTNULLABLE_OBJECT</text>
<text text-anchor="start" x="2062" y="-134.5" font-family="Helvetica,sans-Serif" font-size="10.00" fill="#000000">_REF_METHODS()</text>
</a>
</g>
</g>
<!-- Node10&#45;&gt;Node21 -->
<g id="edge21" class="edge">
<title>Node10&#45;&gt;Node21</title>
<path fill="none" stroke="#191970" d="M1730.1896,-294.6869C1811.5065,-282.5457 1939.9822,-258.6926 2045,-218 2047.9516,-216.8563 2050.9243,-215.6136 2053.8966,-214.2943"/>
<polygon fill="none" stroke="#191970" points="1729.4053,-291.2645 1720.0202,-296.1809 1730.4228,-298.1901 1729.4053,-291.2645"/>
</g>
<!-- Node22 -->
<g id="node23" class="node">
<title>Node22</title>
<g id="a_node23"><a xlink:href="classtvm_1_1script_1_1ir__builder_1_1tir_1_1LetFrame.html" target="_top" xlink:title="Managed reference to LetFrameNode. ">
<polygon fill="#ffffff" stroke="#000000" points="2212,-127.5 2212,-217.5 2352,-217.5 2352,-127.5 2212,-127.5"/>
<text text-anchor="start" x="2220" y="-205.5" font-family="Helvetica,sans-Serif" font-size="10.00" fill="#000000">tvm::script::ir_builder</text>
<text text-anchor="middle" x="2282" y="-194.5" font-family="Helvetica,sans-Serif" font-size="10.00" fill="#000000">::tir::LetFrame</text>
<polyline fill="none" stroke="#000000" points="2212,-187.5 2352,-187.5 "/>
<text text-anchor="middle" x="2282" y="-175.5" font-family="Helvetica,sans-Serif" font-size="10.00" fill="#000000"> </text>
<polyline fill="none" stroke="#000000" points="2212,-168.5 2352,-168.5 "/>
<text text-anchor="start" x="2220" y="-156.5" font-family="Helvetica,sans-Serif" font-size="10.00" fill="#000000">+ TVM_DEFINE_MUTABLE</text>
<text text-anchor="start" x="2220" y="-145.5" font-family="Helvetica,sans-Serif" font-size="10.00" fill="#000000">_NOTNULLABLE_OBJECT</text>
<text text-anchor="start" x="2220" y="-134.5" font-family="Helvetica,sans-Serif" font-size="10.00" fill="#000000">_REF_METHODS()</text>
</a>
</g>
</g>
<!-- Node10&#45;&gt;Node22 -->
<g id="edge22" class="edge">
<title>Node10&#45;&gt;Node22</title>
<path fill="none" stroke="#191970" d="M1730.0883,-301.5569C1839.6899,-294.812 2041.2519,-275.0882 2203,-218 2205.985,-216.9465 2208.9858,-215.7798 2211.9817,-214.5242"/>
<polygon fill="none" stroke="#191970" points="1729.8708,-298.0635 1720.0964,-302.1514 1730.2867,-305.0512 1729.8708,-298.0635"/>
</g>
<!-- Node23 -->
<g id="node24" class="node">
<title>Node23</title>
<g id="a_node24"><a xlink:href="classtvm_1_1script_1_1ir__builder_1_1tir_1_1PrimFuncFrame.html" target="_top" xlink:title="Managed reference to PrimFuncFrameNode. ">
<polygon fill="#ffffff" stroke="#000000" points="2370,-127.5 2370,-217.5 2510,-217.5 2510,-127.5 2370,-127.5"/>
<text text-anchor="start" x="2378" y="-205.5" font-family="Helvetica,sans-Serif" font-size="10.00" fill="#000000">tvm::script::ir_builder</text>
<text text-anchor="middle" x="2440" y="-194.5" font-family="Helvetica,sans-Serif" font-size="10.00" fill="#000000">::tir::PrimFuncFrame</text>
<polyline fill="none" stroke="#000000" points="2370,-187.5 2510,-187.5 "/>
<text text-anchor="middle" x="2440" y="-175.5" font-family="Helvetica,sans-Serif" font-size="10.00" fill="#000000"> </text>
<polyline fill="none" stroke="#000000" points="2370,-168.5 2510,-168.5 "/>
<text text-anchor="start" x="2378" y="-156.5" font-family="Helvetica,sans-Serif" font-size="10.00" fill="#000000">+ TVM_DEFINE_MUTABLE</text>
<text text-anchor="start" x="2378" y="-145.5" font-family="Helvetica,sans-Serif" font-size="10.00" fill="#000000">_NOTNULLABLE_OBJECT</text>
<text text-anchor="start" x="2378" y="-134.5" font-family="Helvetica,sans-Serif" font-size="10.00" fill="#000000">_REF_METHODS()</text>
</a>
</g>
</g>
<!-- Node10&#45;&gt;Node23 -->
<g id="edge23" class="edge">
<title>Node10&#45;&gt;Node23</title>
<path fill="none" stroke="#191970" d="M1730.5404,-299.2063C1891.1126,-286.9923 2245.5736,-256.527 2361,-218 2363.8525,-217.0479 2366.7168,-215.9865 2369.5753,-214.8372"/>
<polygon fill="none" stroke="#191970" points="1729.9564,-295.7403 1720.2487,-299.9843 1730.4842,-302.7204 1729.9564,-295.7403"/>
</g>
<!-- Node24 -->
<g id="node25" class="node">
<title>Node24</title>
<g id="a_node25"><a xlink:href="classtvm_1_1script_1_1ir__builder_1_1tir_1_1RealizeFrame.html" target="_top" xlink:title="Managed reference to RealizeFrameNode. ">
<polygon fill="#ffffff" stroke="#000000" points="2528,-127.5 2528,-217.5 2668,-217.5 2668,-127.5 2528,-127.5"/>
<text text-anchor="start" x="2536" y="-205.5" font-family="Helvetica,sans-Serif" font-size="10.00" fill="#000000">tvm::script::ir_builder</text>
<text text-anchor="middle" x="2598" y="-194.5" font-family="Helvetica,sans-Serif" font-size="10.00" fill="#000000">::tir::RealizeFrame</text>
<polyline fill="none" stroke="#000000" points="2528,-187.5 2668,-187.5 "/>
<text text-anchor="middle" x="2598" y="-175.5" font-family="Helvetica,sans-Serif" font-size="10.00" fill="#000000"> </text>
<polyline fill="none" stroke="#000000" points="2528,-168.5 2668,-168.5 "/>
<text text-anchor="start" x="2536" y="-156.5" font-family="Helvetica,sans-Serif" font-size="10.00" fill="#000000">+ TVM_DEFINE_MUTABLE</text>
<text text-anchor="start" x="2536" y="-145.5" font-family="Helvetica,sans-Serif" font-size="10.00" fill="#000000">_NOTNULLABLE_OBJECT</text>
<text text-anchor="start" x="2536" y="-134.5" font-family="Helvetica,sans-Serif" font-size="10.00" fill="#000000">_REF_METHODS()</text>
</a>
</g>
</g>
<!-- Node10&#45;&gt;Node24 -->
<g id="edge24" class="edge">
<title>Node10&#45;&gt;Node24</title>
<path fill="none" stroke="#191970" d="M1730.1347,-301.2831C1916.2922,-291.9568 2373.1919,-264.8937 2519,-218 2521.8628,-217.0793 2524.7358,-216.0446 2527.6018,-214.918"/>
<polygon fill="none" stroke="#191970" points="1729.952,-297.7877 1720.138,-301.7799 1730.2995,-304.7791 1729.952,-297.7877"/>
</g>
<!-- Node25 -->
<g id="node26" class="node">
<title>Node25</title>
<g id="a_node26"><a xlink:href="classtvm_1_1script_1_1ir__builder_1_1tir_1_1ThenFrame.html" target="_top" xlink:title="Managed reference to ThenFrameNode. ">
<polygon fill="#ffffff" stroke="#000000" points="2686,-127.5 2686,-217.5 2826,-217.5 2826,-127.5 2686,-127.5"/>
<text text-anchor="start" x="2694" y="-205.5" font-family="Helvetica,sans-Serif" font-size="10.00" fill="#000000">tvm::script::ir_builder</text>
<text text-anchor="middle" x="2756" y="-194.5" font-family="Helvetica,sans-Serif" font-size="10.00" fill="#000000">::tir::ThenFrame</text>
<polyline fill="none" stroke="#000000" points="2686,-187.5 2826,-187.5 "/>
<text text-anchor="middle" x="2756" y="-175.5" font-family="Helvetica,sans-Serif" font-size="10.00" fill="#000000"> </text>
<polyline fill="none" stroke="#000000" points="2686,-168.5 2826,-168.5 "/>
<text text-anchor="start" x="2694" y="-156.5" font-family="Helvetica,sans-Serif" font-size="10.00" fill="#000000">+ TVM_DEFINE_MUTABLE</text>
<text text-anchor="start" x="2694" y="-145.5" font-family="Helvetica,sans-Serif" font-size="10.00" fill="#000000">_NOTNULLABLE_OBJECT</text>
<text text-anchor="start" x="2694" y="-134.5" font-family="Helvetica,sans-Serif" font-size="10.00" fill="#000000">_REF_METHODS()</text>
</a>
</g>
</g>
<!-- Node10&#45;&gt;Node25 -->
<g id="edge25" class="edge">
<title>Node10&#45;&gt;Node25</title>
<path fill="none" stroke="#191970" d="M1730.2135,-302.7048C1939.951,-295.9887 2500.5936,-273.2518 2677,-218 2679.8697,-217.1012 2682.7487,-216.0851 2685.6196,-214.9742"/>
<polygon fill="none" stroke="#191970" points="1730.0786,-299.2072 1720.1944,-303.0219 1730.3001,-306.2037 1730.0786,-299.2072"/>
</g>
<!-- Node26 -->
<g id="node27" class="node">
<title>Node26</title>
<g id="a_node27"><a xlink:href="classtvm_1_1script_1_1ir__builder_1_1tir_1_1WhileFrame.html" target="_top" xlink:title="Managed reference to WhileFrameNode. ">
<polygon fill="#ffffff" stroke="#000000" points="2844,-127.5 2844,-217.5 2984,-217.5 2984,-127.5 2844,-127.5"/>
<text text-anchor="start" x="2852" y="-205.5" font-family="Helvetica,sans-Serif" font-size="10.00" fill="#000000">tvm::script::ir_builder</text>
<text text-anchor="middle" x="2914" y="-194.5" font-family="Helvetica,sans-Serif" font-size="10.00" fill="#000000">::tir::WhileFrame</text>
<polyline fill="none" stroke="#000000" points="2844,-187.5 2984,-187.5 "/>
<text text-anchor="middle" x="2914" y="-175.5" font-family="Helvetica,sans-Serif" font-size="10.00" fill="#000000"> </text>
<polyline fill="none" stroke="#000000" points="2844,-168.5 2984,-168.5 "/>
<text text-anchor="start" x="2852" y="-156.5" font-family="Helvetica,sans-Serif" font-size="10.00" fill="#000000">+ TVM_DEFINE_MUTABLE</text>
<text text-anchor="start" x="2852" y="-145.5" font-family="Helvetica,sans-Serif" font-size="10.00" fill="#000000">_NOTNULLABLE_OBJECT</text>
<text text-anchor="start" x="2852" y="-134.5" font-family="Helvetica,sans-Serif" font-size="10.00" fill="#000000">_REF_METHODS()</text>
</a>
</g>
</g>
<!-- Node10&#45;&gt;Node26 -->
<g id="edge26" class="edge">
<title>Node10&#45;&gt;Node26</title>
<path fill="none" stroke="#191970" d="M1730.1509,-303.7562C1961.6083,-299.4338 2627.6982,-281.6531 2835,-218 2837.8747,-217.1173 2840.7579,-216.115 2843.6325,-215.0157"/>
<polygon fill="none" stroke="#191970" points="1730.0535,-300.2573 1720.1194,-303.9401 1730.1819,-307.2561 1730.0535,-300.2573"/>
</g>
</g>
</svg>
