<?xml version="1.0" encoding="UTF-8" standalone="no"?>
<!DOCTYPE svg PUBLIC "-//W3C//DTD SVG 1.1//EN"
 "http://www.w3.org/Graphics/SVG/1.1/DTD/svg11.dtd">
<!-- Generated by graphviz version 2.40.1 (20161225.0304)
 -->
<!-- Title: tvm::relay::FunctionNode Pages: 1 -->
<svg width="1136pt" height="1884pt"
 viewBox="0.00 0.00 1136.00 1884.00" xmlns="http://www.w3.org/2000/svg" xmlns:xlink="http://www.w3.org/1999/xlink">
<g id="graph0" class="graph" transform="scale(1 1) rotate(0) translate(4 1880)">
<title>tvm::relay::FunctionNode</title>
<polygon fill="#ffffff" stroke="transparent" points="-4,4 -4,-1880 1132,-1880 1132,4 -4,4"/>
<!-- Node5 -->
<g id="node1" class="node">
<title>Node5</title>
<polygon fill="#bfbfbf" stroke="#000000" points="774.5,-.5 774.5,-101.5 983.5,-101.5 983.5,-.5 774.5,-.5"/>
<text text-anchor="middle" x="879" y="-89.5" font-family="Helvetica,sans-Serif" font-size="10.00" fill="#000000">tvm::relay::FunctionNode</text>
<polyline fill="none" stroke="#000000" points="774.5,-82.5 983.5,-82.5 "/>
<text text-anchor="start" x="782.5" y="-70.5" font-family="Helvetica,sans-Serif" font-size="10.00" fill="#000000">+ _type_key</text>
<polyline fill="none" stroke="#000000" points="774.5,-63.5 983.5,-63.5 "/>
<text text-anchor="start" x="782.5" y="-51.5" font-family="Helvetica,sans-Serif" font-size="10.00" fill="#000000">+ VisitAttrs()</text>
<text text-anchor="start" x="782.5" y="-40.5" font-family="Helvetica,sans-Serif" font-size="10.00" fill="#000000">+ SEqualReduce()</text>
<text text-anchor="start" x="782.5" y="-29.5" font-family="Helvetica,sans-Serif" font-size="10.00" fill="#000000">+ SHashReduce()</text>
<text text-anchor="start" x="782.5" y="-18.5" font-family="Helvetica,sans-Serif" font-size="10.00" fill="#000000">+ func_type_annotation()</text>
<text text-anchor="start" x="782.5" y="-7.5" font-family="Helvetica,sans-Serif" font-size="10.00" fill="#000000">+ TVM_DECLARE_FINAL_OBJECT_INFO()</text>
</g>
<!-- Node6 -->
<g id="node2" class="node">
<title>Node6</title>
<g id="a_node2"><a xlink:href="classtvm_1_1BaseFuncNode.html" target="_top" xlink:title="Base node of all functions. ">
<polygon fill="#ffffff" stroke="#000000" points="629.5,-139.5 629.5,-251.5 836.5,-251.5 836.5,-139.5 629.5,-139.5"/>
<text text-anchor="middle" x="733" y="-239.5" font-family="Helvetica,sans-Serif" font-size="10.00" fill="#000000">BaseFuncNode</text>
<polyline fill="none" stroke="#000000" points="629.5,-232.5 836.5,-232.5 "/>
<text text-anchor="start" x="637.5" y="-220.5" font-family="Helvetica,sans-Serif" font-size="10.00" fill="#000000">+ _type_key</text>
<text text-anchor="start" x="637.5" y="-209.5" font-family="Helvetica,sans-Serif" font-size="10.00" fill="#000000">+ _type_child_slots</text>
<polyline fill="none" stroke="#000000" points="629.5,-202.5 836.5,-202.5 "/>
<text text-anchor="start" x="637.5" y="-190.5" font-family="Helvetica,sans-Serif" font-size="10.00" fill="#000000">+ GetAttr()</text>
<text text-anchor="start" x="637.5" y="-179.5" font-family="Helvetica,sans-Serif" font-size="10.00" fill="#000000">+ GetAttr()</text>
<text text-anchor="start" x="637.5" y="-168.5" font-family="Helvetica,sans-Serif" font-size="10.00" fill="#000000">+ HasNonzeroAttr()</text>
<text text-anchor="start" x="637.5" y="-157.5" font-family="Helvetica,sans-Serif" font-size="10.00" fill="#000000">+ GetLinkageType()</text>
<text text-anchor="start" x="637.5" y="-146.5" font-family="Helvetica,sans-Serif" font-size="10.00" fill="#000000">+ TVM_DECLARE_BASE_OBJECT_INFO()</text>
</a>
</g>
</g>
<!-- Node6&#45;&gt;Node5 -->
<g id="edge1" class="edge">
<title>Node6&#45;&gt;Node5</title>
<path fill="none" stroke="#191970" d="M797.2484,-131.9117C807.4598,-121.8052 817.903,-111.4693 827.7632,-101.7104"/>
<polygon fill="none" stroke="#191970" points="794.5109,-129.6966 789.8655,-139.2188 799.4351,-134.6719 794.5109,-129.6966"/>
</g>
<!-- Node7 -->
<g id="node3" class="node">
<title>Node7</title>
<g id="a_node3"><a xlink:href="classtvm_1_1RelayExprNode.html" target="_top" xlink:title="Base node of all non&#45;primitive expressions. ">
<polygon fill="#ffffff" stroke="#000000" points="143.5,-357.5 143.5,-458.5 350.5,-458.5 350.5,-357.5 143.5,-357.5"/>
<text text-anchor="middle" x="247" y="-446.5" font-family="Helvetica,sans-Serif" font-size="10.00" fill="#000000">tvm::RelayExprNode</text>
<polyline fill="none" stroke="#000000" points="143.5,-439.5 350.5,-439.5 "/>
<text text-anchor="start" x="151.5" y="-427.5" font-family="Helvetica,sans-Serif" font-size="10.00" fill="#000000">+ _type_key</text>
<text text-anchor="start" x="151.5" y="-416.5" font-family="Helvetica,sans-Serif" font-size="10.00" fill="#000000">+ _type_child_slots</text>
<polyline fill="none" stroke="#000000" points="143.5,-409.5 350.5,-409.5 "/>
<text text-anchor="start" x="151.5" y="-397.5" font-family="Helvetica,sans-Serif" font-size="10.00" fill="#000000">+ checked_type()</text>
<text text-anchor="start" x="151.5" y="-386.5" font-family="Helvetica,sans-Serif" font-size="10.00" fill="#000000">+ type_as()</text>
<text text-anchor="start" x="151.5" y="-375.5" font-family="Helvetica,sans-Serif" font-size="10.00" fill="#000000">+ virtual_device()</text>
<text text-anchor="start" x="151.5" y="-364.5" font-family="Helvetica,sans-Serif" font-size="10.00" fill="#000000">+ TVM_DECLARE_BASE_OBJECT_INFO()</text>
</a>
</g>
</g>
<!-- Node7&#45;&gt;Node6 -->
<g id="edge2" class="edge">
<title>Node7&#45;&gt;Node6</title>
<path fill="none" stroke="#191970" d="M359.9481,-358.6142C441.3478,-323.0228 550.3494,-275.3627 629.4962,-240.7563"/>
<polygon fill="none" stroke="#191970" points="358.4233,-355.4609 350.6631,-362.6741 361.2277,-361.8746 358.4233,-355.4609"/>
</g>
<!-- Node8 -->
<g id="node4" class="node">
<title>Node8</title>
<g id="a_node4"><a xlink:href="classtvm_1_1BaseExprNode.html" target="_top" xlink:title="Base type of all the expressions. ">
<polygon fill="#ffffff" stroke="#000000" points="334.5,-674.5 334.5,-786.5 541.5,-786.5 541.5,-674.5 334.5,-674.5"/>
<text text-anchor="middle" x="438" y="-774.5" font-family="Helvetica,sans-Serif" font-size="10.00" fill="#000000">tvm::BaseExprNode</text>
<polyline fill="none" stroke="#000000" points="334.5,-767.5 541.5,-767.5 "/>
<text text-anchor="start" x="342.5" y="-755.5" font-family="Helvetica,sans-Serif" font-size="10.00" fill="#000000">+ _type_key</text>
<text text-anchor="start" x="342.5" y="-744.5" font-family="Helvetica,sans-Serif" font-size="10.00" fill="#000000">+ _type_has_method_sequal</text>
<text text-anchor="start" x="342.5" y="-733.5" font-family="Helvetica,sans-Serif" font-size="10.00" fill="#000000">_reduce</text>
<text text-anchor="start" x="342.5" y="-722.5" font-family="Helvetica,sans-Serif" font-size="10.00" fill="#000000">+ _type_has_method_shash</text>
<text text-anchor="start" x="342.5" y="-711.5" font-family="Helvetica,sans-Serif" font-size="10.00" fill="#000000">_reduce</text>
<text text-anchor="start" x="342.5" y="-700.5" font-family="Helvetica,sans-Serif" font-size="10.00" fill="#000000">+ _type_child_slots</text>
<polyline fill="none" stroke="#000000" points="334.5,-693.5 541.5,-693.5 "/>
<text text-anchor="start" x="342.5" y="-681.5" font-family="Helvetica,sans-Serif" font-size="10.00" fill="#000000">+ TVM_DECLARE_BASE_OBJECT_INFO()</text>
</a>
</g>
</g>
<!-- Node8&#45;&gt;Node7 -->
<g id="edge3" class="edge">
<title>Node8&#45;&gt;Node7</title>
<path fill="none" stroke="#191970" d="M399.5318,-665.5471C363.4226,-604.5774 310.1472,-514.6229 277.0604,-458.7565"/>
<polygon fill="none" stroke="#191970" points="396.623,-667.5041 404.7303,-674.3248 402.6459,-663.937 396.623,-667.5041"/>
</g>
<!-- Node9 -->
<g id="node5" class="node">
<title>Node9</title>
<g id="a_node5"><a xlink:href="classtvm_1_1runtime_1_1Object.html" target="_top" xlink:title="base class of all object containers. ">
<polygon fill="#ffffff" stroke="#000000" points="384.5,-1002.5 384.5,-1389.5 567.5,-1389.5 567.5,-1002.5 384.5,-1002.5"/>
<text text-anchor="middle" x="476" y="-1377.5" font-family="Helvetica,sans-Serif" font-size="10.00" fill="#000000">tvm::runtime::Object</text>
<polyline fill="none" stroke="#000000" points="384.5,-1370.5 567.5,-1370.5 "/>
<text text-anchor="start" x="392.5" y="-1358.5" font-family="Helvetica,sans-Serif" font-size="10.00" fill="#000000">+ _type_key</text>
<text text-anchor="start" x="392.5" y="-1347.5" font-family="Helvetica,sans-Serif" font-size="10.00" fill="#000000">+ _type_final</text>
<text text-anchor="start" x="392.5" y="-1336.5" font-family="Helvetica,sans-Serif" font-size="10.00" fill="#000000">+ _type_child_slots</text>
<text text-anchor="start" x="392.5" y="-1325.5" font-family="Helvetica,sans-Serif" font-size="10.00" fill="#000000">+ _type_child_slots_can</text>
<text text-anchor="start" x="392.5" y="-1314.5" font-family="Helvetica,sans-Serif" font-size="10.00" fill="#000000">_overflow</text>
<text text-anchor="start" x="392.5" y="-1303.5" font-family="Helvetica,sans-Serif" font-size="10.00" fill="#000000">+ _type_has_method_visit</text>
<text text-anchor="start" x="392.5" y="-1292.5" font-family="Helvetica,sans-Serif" font-size="10.00" fill="#000000">_attrs</text>
<text text-anchor="start" x="392.5" y="-1281.5" font-family="Helvetica,sans-Serif" font-size="10.00" fill="#000000">+ _type_has_method_sequal</text>
<text text-anchor="start" x="392.5" y="-1270.5" font-family="Helvetica,sans-Serif" font-size="10.00" fill="#000000">_reduce</text>
<text text-anchor="start" x="392.5" y="-1259.5" font-family="Helvetica,sans-Serif" font-size="10.00" fill="#000000">+ _type_has_method_shash</text>
<text text-anchor="start" x="392.5" y="-1248.5" font-family="Helvetica,sans-Serif" font-size="10.00" fill="#000000">_reduce</text>
<text text-anchor="start" x="392.5" y="-1237.5" font-family="Helvetica,sans-Serif" font-size="10.00" fill="#000000">+ _type_index</text>
<text text-anchor="start" x="392.5" y="-1226.5" font-family="Helvetica,sans-Serif" font-size="10.00" fill="#000000"># type_index_</text>
<text text-anchor="start" x="392.5" y="-1215.5" font-family="Helvetica,sans-Serif" font-size="10.00" fill="#000000"># ref_counter_</text>
<polyline fill="none" stroke="#000000" points="384.5,-1208.5 567.5,-1208.5 "/>
<text text-anchor="start" x="392.5" y="-1196.5" font-family="Helvetica,sans-Serif" font-size="10.00" fill="#000000">+ type_index()</text>
<text text-anchor="start" x="392.5" y="-1185.5" font-family="Helvetica,sans-Serif" font-size="10.00" fill="#000000">+ GetTypeKey()</text>
<text text-anchor="start" x="392.5" y="-1174.5" font-family="Helvetica,sans-Serif" font-size="10.00" fill="#000000">+ GetTypeKeyHash()</text>
<text text-anchor="start" x="392.5" y="-1163.5" font-family="Helvetica,sans-Serif" font-size="10.00" fill="#000000">+ IsInstance()</text>
<text text-anchor="start" x="392.5" y="-1152.5" font-family="Helvetica,sans-Serif" font-size="10.00" fill="#000000">+ unique()</text>
<text text-anchor="start" x="392.5" y="-1141.5" font-family="Helvetica,sans-Serif" font-size="10.00" fill="#000000">+ Object()</text>
<text text-anchor="start" x="392.5" y="-1130.5" font-family="Helvetica,sans-Serif" font-size="10.00" fill="#000000">+ Object()</text>
<text text-anchor="start" x="392.5" y="-1119.5" font-family="Helvetica,sans-Serif" font-size="10.00" fill="#000000">+ Object()</text>
<text text-anchor="start" x="392.5" y="-1108.5" font-family="Helvetica,sans-Serif" font-size="10.00" fill="#000000">+ operator=()</text>
<text text-anchor="start" x="392.5" y="-1097.5" font-family="Helvetica,sans-Serif" font-size="10.00" fill="#000000">+ operator=()</text>
<text text-anchor="start" x="392.5" y="-1086.5" font-family="Helvetica,sans-Serif" font-size="10.00" fill="#000000">+ TypeIndex2Key()</text>
<text text-anchor="start" x="392.5" y="-1075.5" font-family="Helvetica,sans-Serif" font-size="10.00" fill="#000000">+ TypeIndex2KeyHash()</text>
<text text-anchor="start" x="392.5" y="-1064.5" font-family="Helvetica,sans-Serif" font-size="10.00" fill="#000000">+ TypeKey2Index()</text>
<text text-anchor="start" x="392.5" y="-1053.5" font-family="Helvetica,sans-Serif" font-size="10.00" fill="#000000">+ _GetOrAllocRuntimeTypeIndex()</text>
<text text-anchor="start" x="392.5" y="-1042.5" font-family="Helvetica,sans-Serif" font-size="10.00" fill="#000000">+ RuntimeTypeIndex()</text>
<text text-anchor="start" x="392.5" y="-1031.5" font-family="Helvetica,sans-Serif" font-size="10.00" fill="#000000"># IncRef()</text>
<text text-anchor="start" x="392.5" y="-1020.5" font-family="Helvetica,sans-Serif" font-size="10.00" fill="#000000"># DecRef()</text>
<text text-anchor="start" x="392.5" y="-1009.5" font-family="Helvetica,sans-Serif" font-size="10.00" fill="#000000"># GetOrAllocRuntimeTypeIndex()</text>
</a>
</g>
</g>
<!-- Node9&#45;&gt;Node8 -->
<g id="edge4" class="edge">
<title>Node9&#45;&gt;Node8</title>
<path fill="none" stroke="#191970" d="M473.8567,-992.2783C471.1333,-931.7557 466.0871,-865.4804 457,-805 456.1075,-799.0601 454.9417,-792.9064 453.6263,-786.7977"/>
<polygon fill="none" stroke="#191970" points="470.3625,-992.4909 474.2903,-1002.3308 477.356,-992.1892 470.3625,-992.4909"/>
</g>
<!-- Node9&#45;&gt;Node9 -->
<g id="edge5" class="edge">
<title>Node9&#45;&gt;Node9</title>
<path fill="none" stroke="#404040" d="M567.8625,-1229.9248C578.5482,-1223.6637 585.5,-1212.3555 585.5,-1196 585.5,-1185.0112 582.3618,-1176.3007 577.0615,-1169.8687"/>
<polygon fill="none" stroke="#404040" points="577.0184,-1169.8322 569.8548,-1169.0056 567.8625,-1162.0752 575.0261,-1162.9017 577.0184,-1169.8322"/>
<text text-anchor="middle" x="611.5" y="-1193.5" font-family="Helvetica,sans-Serif" font-size="10.00" fill="#000000"> #deleter_</text>
</g>
<!-- Node10 -->
<g id="node6" class="node">
<title>Node10</title>
<g id="a_node6"><a xlink:href="classtvm_1_1Span.html" target="_top" xlink:title="{tvm::Span\n||+ Span()\l+ Merge()\l+ TVM_DEFINE_OBJECT_REF\l_METHODS()\l}">
<polygon fill="#ffffff" stroke="#000000" points="212,-1151 212,-1241 366,-1241 366,-1151 212,-1151"/>
<text text-anchor="middle" x="289" y="-1229" font-family="Helvetica,sans-Serif" font-size="10.00" fill="#000000">tvm::Span</text>
<polyline fill="none" stroke="#000000" points="212,-1222 366,-1222 "/>
<text text-anchor="middle" x="289" y="-1210" font-family="Helvetica,sans-Serif" font-size="10.00" fill="#000000"> </text>
<polyline fill="none" stroke="#000000" points="212,-1203 366,-1203 "/>
<text text-anchor="start" x="220" y="-1191" font-family="Helvetica,sans-Serif" font-size="10.00" fill="#000000">+ Span()</text>
<text text-anchor="start" x="220" y="-1180" font-family="Helvetica,sans-Serif" font-size="10.00" fill="#000000">+ Merge()</text>
<text text-anchor="start" x="220" y="-1169" font-family="Helvetica,sans-Serif" font-size="10.00" fill="#000000">+ TVM_DEFINE_OBJECT_REF</text>
<text text-anchor="start" x="220" y="-1158" font-family="Helvetica,sans-Serif" font-size="10.00" fill="#000000">_METHODS()</text>
</a>
</g>
</g>
<!-- Node10&#45;&gt;Node8 -->
<g id="edge6" class="edge">
<title>Node10&#45;&gt;Node8</title>
<path fill="none" stroke="#404040" d="M302.3013,-1150.8464C316.0059,-1109.355 340.2765,-1047.5661 375,-1002 382.6573,-991.9516 390.9329,-995.0813 397,-984 435.4676,-913.7402 402.9093,-883.6668 418,-805 418.3903,-802.9655 418.8064,-800.9049 419.2439,-798.8287"/>
<polygon fill="none" stroke="#404040" points="419.3074,-798.5467 416.7272,-791.8131 421.9505,-786.8414 424.5308,-793.5751 419.3074,-798.5467"/>
<text text-anchor="middle" x="435.5" y="-892" font-family="Helvetica,sans-Serif" font-size="10.00" fill="#000000"> +span</text>
</g>
<!-- Node11 -->
<g id="node7" class="node">
<title>Node11</title>
<g id="a_node7"><a xlink:href="classtvm_1_1runtime_1_1ObjectRef.html" target="_top" xlink:title="Base class of all object reference. ">
<polygon fill="#ffffff" stroke="#000000" points="499,-1427.5 499,-1649.5 633,-1649.5 633,-1427.5 499,-1427.5"/>
<text text-anchor="middle" x="566" y="-1637.5" font-family="Helvetica,sans-Serif" font-size="10.00" fill="#000000">tvm::runtime::ObjectRef</text>
<polyline fill="none" stroke="#000000" points="499,-1630.5 633,-1630.5 "/>
<text text-anchor="start" x="507" y="-1618.5" font-family="Helvetica,sans-Serif" font-size="10.00" fill="#000000">+ _type_is_nullable</text>
<polyline fill="none" stroke="#000000" points="499,-1611.5 633,-1611.5 "/>
<text text-anchor="start" x="507" y="-1599.5" font-family="Helvetica,sans-Serif" font-size="10.00" fill="#000000">+ ObjectRef()</text>
<text text-anchor="start" x="507" y="-1588.5" font-family="Helvetica,sans-Serif" font-size="10.00" fill="#000000">+ ObjectRef()</text>
<text text-anchor="start" x="507" y="-1577.5" font-family="Helvetica,sans-Serif" font-size="10.00" fill="#000000">+ same_as()</text>
<text text-anchor="start" x="507" y="-1566.5" font-family="Helvetica,sans-Serif" font-size="10.00" fill="#000000">+ operator==()</text>
<text text-anchor="start" x="507" y="-1555.5" font-family="Helvetica,sans-Serif" font-size="10.00" fill="#000000">+ operator!=()</text>
<text text-anchor="start" x="507" y="-1544.5" font-family="Helvetica,sans-Serif" font-size="10.00" fill="#000000">+ operator&lt;()</text>
<text text-anchor="start" x="507" y="-1533.5" font-family="Helvetica,sans-Serif" font-size="10.00" fill="#000000">+ defined()</text>
<text text-anchor="start" x="507" y="-1522.5" font-family="Helvetica,sans-Serif" font-size="10.00" fill="#000000">+ get()</text>
<text text-anchor="start" x="507" y="-1511.5" font-family="Helvetica,sans-Serif" font-size="10.00" fill="#000000">+ operator&#45;&gt;()</text>
<text text-anchor="start" x="507" y="-1500.5" font-family="Helvetica,sans-Serif" font-size="10.00" fill="#000000">+ unique()</text>
<text text-anchor="start" x="507" y="-1489.5" font-family="Helvetica,sans-Serif" font-size="10.00" fill="#000000">+ use_count()</text>
<text text-anchor="start" x="507" y="-1478.5" font-family="Helvetica,sans-Serif" font-size="10.00" fill="#000000">+ as()</text>
<text text-anchor="start" x="507" y="-1467.5" font-family="Helvetica,sans-Serif" font-size="10.00" fill="#000000"># get_mutable()</text>
<text text-anchor="start" x="507" y="-1456.5" font-family="Helvetica,sans-Serif" font-size="10.00" fill="#000000"># DowncastNoCheck()</text>
<text text-anchor="start" x="507" y="-1445.5" font-family="Helvetica,sans-Serif" font-size="10.00" fill="#000000"># FFIClearAfterMove()</text>
<text text-anchor="start" x="507" y="-1434.5" font-family="Helvetica,sans-Serif" font-size="10.00" fill="#000000"># GetDataPtr()</text>
</a>
</g>
</g>
<!-- Node11&#45;&gt;Node7 -->
<g id="edge9" class="edge">
<title>Node11&#45;&gt;Node7</title>
<path fill="none" stroke="#404040" d="M498.7305,-1523.1056C395.517,-1497.994 205.8085,-1445.4282 166,-1390 60.5556,-1243.1822 147.3357,-1164.6807 142,-984 139.6517,-904.4791 108.7572,-877.2772 142,-805 147.1366,-793.8319 156.7061,-797.5593 163,-787 235.1711,-665.9184 198.2475,-614.3361 230,-477 230.4894,-474.8833 230.9919,-472.7313 231.5034,-470.5589"/>
<polygon fill="none" stroke="#404040" points="231.5165,-470.5035 229.018,-463.7391 234.3011,-458.831 236.7996,-465.5955 231.5165,-470.5035"/>
<text text-anchor="middle" x="185" y="-892" font-family="Helvetica,sans-Serif" font-size="10.00" fill="#000000"> +virtual_device_</text>
</g>
<!-- Node11&#45;&gt;Node10 -->
<g id="edge7" class="edge">
<title>Node11&#45;&gt;Node10</title>
<path fill="none" stroke="#191970" d="M489.9734,-1492.3781C451.6085,-1466.1352 406.6295,-1430.4526 375,-1390 339.7126,-1344.8692 315.5632,-1282.9868 302.0406,-1241.3548"/>
<polygon fill="none" stroke="#191970" points="488.3086,-1495.477 498.5559,-1498.1684 492.2236,-1489.6741 488.3086,-1495.477"/>
</g>
<!-- Node13 -->
<g id="node9" class="node">
<title>Node13</title>
<g id="a_node9"><a xlink:href="classtvm_1_1Type.html" target="_top" xlink:title="Managed reference to TypeNode. ">
<polygon fill="#ffffff" stroke="#000000" points="0,-696.5 0,-764.5 154,-764.5 154,-696.5 0,-696.5"/>
<text text-anchor="middle" x="77" y="-752.5" font-family="Helvetica,sans-Serif" font-size="10.00" fill="#000000">tvm::Type</text>
<polyline fill="none" stroke="#000000" points="0,-745.5 154,-745.5 "/>
<text text-anchor="middle" x="77" y="-733.5" font-family="Helvetica,sans-Serif" font-size="10.00" fill="#000000"> </text>
<polyline fill="none" stroke="#000000" points="0,-726.5 154,-726.5 "/>
<text text-anchor="start" x="8" y="-714.5" font-family="Helvetica,sans-Serif" font-size="10.00" fill="#000000">+ TVM_DEFINE_OBJECT_REF</text>
<text text-anchor="start" x="8" y="-703.5" font-family="Helvetica,sans-Serif" font-size="10.00" fill="#000000">_METHODS()</text>
</a>
</g>
</g>
<!-- Node11&#45;&gt;Node13 -->
<g id="edge11" class="edge">
<title>Node11&#45;&gt;Node13</title>
<path fill="none" stroke="#191970" d="M489.0277,-1526.1545C376.8771,-1506.4881 176.9812,-1464.5275 132,-1409 -26.6367,-1213.1696 40.8532,-872.7832 67.8176,-764.5604"/>
<polygon fill="none" stroke="#191970" points="488.4845,-1529.6125 498.9357,-1527.874 489.6815,-1522.7156 488.4845,-1529.6125"/>
</g>
<!-- Node14 -->
<g id="node10" class="node">
<title>Node14</title>
<g id="a_node10"><a xlink:href="classtvm_1_1runtime_1_1Optional.html" target="_top" xlink:title="{tvm::runtime::Optional\l\&lt; tvm::runtime::ObjectRef \&gt;\n|+ _type_is_nullable\l|+ Optional()\l+ Optional()\l+ Optional()\l+ Optional()\l+ Optional()\l+ Optional()\l+ Optional()\l+ Optional()\l+ operator=()\l+ operator=()\land 15 more...\l}">
<polygon fill="#ffffff" stroke="#000000" points="237,-805.5 237,-983.5 393,-983.5 393,-805.5 237,-805.5"/>
<text text-anchor="start" x="245" y="-971.5" font-family="Helvetica,sans-Serif" font-size="10.00" fill="#000000">tvm::runtime::Optional</text>
<text text-anchor="middle" x="315" y="-960.5" font-family="Helvetica,sans-Serif" font-size="10.00" fill="#000000">&lt; tvm::runtime::ObjectRef &gt;</text>
<polyline fill="none" stroke="#000000" points="237,-953.5 393,-953.5 "/>
<text text-anchor="start" x="245" y="-941.5" font-family="Helvetica,sans-Serif" font-size="10.00" fill="#000000">+ _type_is_nullable</text>
<polyline fill="none" stroke="#000000" points="237,-934.5 393,-934.5 "/>
<text text-anchor="start" x="245" y="-922.5" font-family="Helvetica,sans-Serif" font-size="10.00" fill="#000000">+ Optional()</text>
<text text-anchor="start" x="245" y="-911.5" font-family="Helvetica,sans-Serif" font-size="10.00" fill="#000000">+ Optional()</text>
<text text-anchor="start" x="245" y="-900.5" font-family="Helvetica,sans-Serif" font-size="10.00" fill="#000000">+ Optional()</text>
<text text-anchor="start" x="245" y="-889.5" font-family="Helvetica,sans-Serif" font-size="10.00" fill="#000000">+ Optional()</text>
<text text-anchor="start" x="245" y="-878.5" font-family="Helvetica,sans-Serif" font-size="10.00" fill="#000000">+ Optional()</text>
<text text-anchor="start" x="245" y="-867.5" font-family="Helvetica,sans-Serif" font-size="10.00" fill="#000000">+ Optional()</text>
<text text-anchor="start" x="245" y="-856.5" font-family="Helvetica,sans-Serif" font-size="10.00" fill="#000000">+ Optional()</text>
<text text-anchor="start" x="245" y="-845.5" font-family="Helvetica,sans-Serif" font-size="10.00" fill="#000000">+ Optional()</text>
<text text-anchor="start" x="245" y="-834.5" font-family="Helvetica,sans-Serif" font-size="10.00" fill="#000000">+ operator=()</text>
<text text-anchor="start" x="245" y="-823.5" font-family="Helvetica,sans-Serif" font-size="10.00" fill="#000000">+ operator=()</text>
<text text-anchor="start" x="245" y="-812.5" font-family="Helvetica,sans-Serif" font-size="10.00" fill="#000000">and 15 more...</text>
</a>
</g>
</g>
<!-- Node11&#45;&gt;Node14 -->
<g id="edge13" class="edge">
<title>Node11&#45;&gt;Node14</title>
<path fill="none" stroke="#191970" d="M488.8154,-1531.5037C402.5394,-1519.0902 266.6142,-1484.7554 203,-1390 154.9406,-1318.4139 160.5184,-1077.0306 203,-1002 210.6611,-988.4691 220.956,-993.8347 233,-984 234.3058,-982.9337 235.6102,-981.8466 236.9118,-980.7411"/>
<polygon fill="none" stroke="#191970" points="488.4392,-1534.9848 498.8223,-1532.8775 489.3913,-1528.0499 488.4392,-1534.9848"/>
</g>
<!-- Node16 -->
<g id="node12" class="node">
<title>Node16</title>
<g id="a_node12"><a xlink:href="classtvm_1_1Attrs.html" target="_top" xlink:title="Managed reference to BaseAttrsNode. ">
<polygon fill="#ffffff" stroke="#000000" points="656,-1162 656,-1230 810,-1230 810,-1162 656,-1162"/>
<text text-anchor="middle" x="733" y="-1218" font-family="Helvetica,sans-Serif" font-size="10.00" fill="#000000">tvm::Attrs</text>
<polyline fill="none" stroke="#000000" points="656,-1211 810,-1211 "/>
<text text-anchor="middle" x="733" y="-1199" font-family="Helvetica,sans-Serif" font-size="10.00" fill="#000000"> </text>
<polyline fill="none" stroke="#000000" points="656,-1192 810,-1192 "/>
<text text-anchor="start" x="664" y="-1180" font-family="Helvetica,sans-Serif" font-size="10.00" fill="#000000">+ TVM_DEFINE_OBJECT_REF</text>
<text text-anchor="start" x="664" y="-1169" font-family="Helvetica,sans-Serif" font-size="10.00" fill="#000000">_METHODS()</text>
</a>
</g>
</g>
<!-- Node11&#45;&gt;Node16 -->
<g id="edge16" class="edge">
<title>Node11&#45;&gt;Node16</title>
<path fill="none" stroke="#191970" d="M631.6937,-1418.3171C636.6172,-1408.7783 641.4386,-1399.2564 646,-1390 673.1664,-1334.8712 701.7969,-1269.3893 718.4955,-1230.3414"/>
<polygon fill="none" stroke="#191970" points="628.4487,-1416.9717 626.9472,-1427.4596 634.6613,-1420.1971 628.4487,-1416.9717"/>
</g>
<!-- Node18 -->
<g id="node14" class="node">
<title>Node18</title>
<g id="a_node14"><a xlink:href="classtvm_1_1BaseExpr.html" target="_top" xlink:title="Managed reference to BaseExprNode. ">
<polygon fill="#ffffff" stroke="#000000" points="828,-1162 828,-1230 982,-1230 982,-1162 828,-1162"/>
<text text-anchor="middle" x="905" y="-1218" font-family="Helvetica,sans-Serif" font-size="10.00" fill="#000000">tvm::BaseExpr</text>
<polyline fill="none" stroke="#000000" points="828,-1211 982,-1211 "/>
<text text-anchor="middle" x="905" y="-1199" font-family="Helvetica,sans-Serif" font-size="10.00" fill="#000000"> </text>
<polyline fill="none" stroke="#000000" points="828,-1192 982,-1192 "/>
<text text-anchor="start" x="836" y="-1180" font-family="Helvetica,sans-Serif" font-size="10.00" fill="#000000">+ TVM_DEFINE_OBJECT_REF</text>
<text text-anchor="start" x="836" y="-1169" font-family="Helvetica,sans-Serif" font-size="10.00" fill="#000000">_METHODS()</text>
</a>
</g>
</g>
<!-- Node11&#45;&gt;Node18 -->
<g id="edge19" class="edge">
<title>Node11&#45;&gt;Node18</title>
<path fill="none" stroke="#191970" d="M642.5922,-1508.7468C697.7509,-1484.0296 770.6722,-1444.1499 819,-1390 861.0712,-1342.8604 885.37,-1271.8142 896.8272,-1230.0485"/>
<polygon fill="none" stroke="#191970" points="640.9446,-1505.6481 633.2057,-1512.8842 643.768,-1512.0534 640.9446,-1505.6481"/>
</g>
<!-- Node19 -->
<g id="node15" class="node">
<title>Node19</title>
<g id="a_node15"><a xlink:href="classtvm_1_1runtime_1_1Array.html" target="_top" xlink:title="{tvm::runtime::Array\l\&lt; tvm::relay::Var \&gt;\n||+ Array()\l+ Array()\l+ Array()\l+ Array()\l+ Array()\l+ Array()\l+ Array()\l+ Array()\l+ operator=()\l+ operator=()\land 25 more...\l}">
<polygon fill="#ffffff" stroke="#000000" points="917.5,-805.5 917.5,-983.5 1030.5,-983.5 1030.5,-805.5 917.5,-805.5"/>
<text text-anchor="start" x="925.5" y="-971.5" font-family="Helvetica,sans-Serif" font-size="10.00" fill="#000000">tvm::runtime::Array</text>
<text text-anchor="middle" x="974" y="-960.5" font-family="Helvetica,sans-Serif" font-size="10.00" fill="#000000">&lt; tvm::relay::Var &gt;</text>
<polyline fill="none" stroke="#000000" points="917.5,-953.5 1030.5,-953.5 "/>
<text text-anchor="middle" x="974" y="-941.5" font-family="Helvetica,sans-Serif" font-size="10.00" fill="#000000"> </text>
<polyline fill="none" stroke="#000000" points="917.5,-934.5 1030.5,-934.5 "/>
<text text-anchor="start" x="925.5" y="-922.5" font-family="Helvetica,sans-Serif" font-size="10.00" fill="#000000">+ Array()</text>
<text text-anchor="start" x="925.5" y="-911.5" font-family="Helvetica,sans-Serif" font-size="10.00" fill="#000000">+ Array()</text>
<text text-anchor="start" x="925.5" y="-900.5" font-family="Helvetica,sans-Serif" font-size="10.00" fill="#000000">+ Array()</text>
<text text-anchor="start" x="925.5" y="-889.5" font-family="Helvetica,sans-Serif" font-size="10.00" fill="#000000">+ Array()</text>
<text text-anchor="start" x="925.5" y="-878.5" font-family="Helvetica,sans-Serif" font-size="10.00" fill="#000000">+ Array()</text>
<text text-anchor="start" x="925.5" y="-867.5" font-family="Helvetica,sans-Serif" font-size="10.00" fill="#000000">+ Array()</text>
<text text-anchor="start" x="925.5" y="-856.5" font-family="Helvetica,sans-Serif" font-size="10.00" fill="#000000">+ Array()</text>
<text text-anchor="start" x="925.5" y="-845.5" font-family="Helvetica,sans-Serif" font-size="10.00" fill="#000000">+ Array()</text>
<text text-anchor="start" x="925.5" y="-834.5" font-family="Helvetica,sans-Serif" font-size="10.00" fill="#000000">+ operator=()</text>
<text text-anchor="start" x="925.5" y="-823.5" font-family="Helvetica,sans-Serif" font-size="10.00" fill="#000000">+ operator=()</text>
<text text-anchor="start" x="925.5" y="-812.5" font-family="Helvetica,sans-Serif" font-size="10.00" fill="#000000">and 25 more...</text>
</a>
</g>
</g>
<!-- Node11&#45;&gt;Node19 -->
<g id="edge22" class="edge">
<title>Node11&#45;&gt;Node19</title>
<path fill="none" stroke="#191970" d="M643.0048,-1522.6958C753.9517,-1498.1854 949.9922,-1447.7676 991,-1390 1035.7489,-1326.9623 1009.3312,-1108.4386 989.5854,-983.6608"/>
<polygon fill="none" stroke="#191970" points="642.218,-1519.2851 633.1985,-1524.8437 643.7158,-1526.123 642.218,-1519.2851"/>
</g>
<!-- Node20 -->
<g id="node16" class="node">
<title>Node20</title>
<g id="a_node16"><a xlink:href="classtvm_1_1runtime_1_1Array.html" target="_top" xlink:title="{tvm::runtime::Array\l\&lt; tvm::TypeVar \&gt;\n||+ Array()\l+ Array()\l+ Array()\l+ Array()\l+ Array()\l+ Array()\l+ Array()\l+ Array()\l+ operator=()\l+ operator=()\land 25 more...\l}">
<polygon fill="#ffffff" stroke="#000000" points="991.5,-477.5 991.5,-655.5 1104.5,-655.5 1104.5,-477.5 991.5,-477.5"/>
<text text-anchor="start" x="999.5" y="-643.5" font-family="Helvetica,sans-Serif" font-size="10.00" fill="#000000">tvm::runtime::Array</text>
<text text-anchor="middle" x="1048" y="-632.5" font-family="Helvetica,sans-Serif" font-size="10.00" fill="#000000">&lt; tvm::TypeVar &gt;</text>
<polyline fill="none" stroke="#000000" points="991.5,-625.5 1104.5,-625.5 "/>
<text text-anchor="middle" x="1048" y="-613.5" font-family="Helvetica,sans-Serif" font-size="10.00" fill="#000000"> </text>
<polyline fill="none" stroke="#000000" points="991.5,-606.5 1104.5,-606.5 "/>
<text text-anchor="start" x="999.5" y="-594.5" font-family="Helvetica,sans-Serif" font-size="10.00" fill="#000000">+ Array()</text>
<text text-anchor="start" x="999.5" y="-583.5" font-family="Helvetica,sans-Serif" font-size="10.00" fill="#000000">+ Array()</text>
<text text-anchor="start" x="999.5" y="-572.5" font-family="Helvetica,sans-Serif" font-size="10.00" fill="#000000">+ Array()</text>
<text text-anchor="start" x="999.5" y="-561.5" font-family="Helvetica,sans-Serif" font-size="10.00" fill="#000000">+ Array()</text>
<text text-anchor="start" x="999.5" y="-550.5" font-family="Helvetica,sans-Serif" font-size="10.00" fill="#000000">+ Array()</text>
<text text-anchor="start" x="999.5" y="-539.5" font-family="Helvetica,sans-Serif" font-size="10.00" fill="#000000">+ Array()</text>
<text text-anchor="start" x="999.5" y="-528.5" font-family="Helvetica,sans-Serif" font-size="10.00" fill="#000000">+ Array()</text>
<text text-anchor="start" x="999.5" y="-517.5" font-family="Helvetica,sans-Serif" font-size="10.00" fill="#000000">+ Array()</text>
<text text-anchor="start" x="999.5" y="-506.5" font-family="Helvetica,sans-Serif" font-size="10.00" fill="#000000">+ operator=()</text>
<text text-anchor="start" x="999.5" y="-495.5" font-family="Helvetica,sans-Serif" font-size="10.00" fill="#000000">+ operator=()</text>
<text text-anchor="start" x="999.5" y="-484.5" font-family="Helvetica,sans-Serif" font-size="10.00" fill="#000000">and 25 more...</text>
</a>
</g>
</g>
<!-- Node11&#45;&gt;Node20 -->
<g id="edge24" class="edge">
<title>Node11&#45;&gt;Node20</title>
<path fill="none" stroke="#191970" d="M643.4717,-1525.3662C761.8248,-1503.4093 978.0832,-1455.1568 1017,-1390 1156.4814,-1156.4719 1105.8825,-815.5994 1070.606,-655.6332"/>
<polygon fill="none" stroke="#191970" points="642.5832,-1521.9708 633.3796,-1527.2188 643.8472,-1528.8557 642.5832,-1521.9708"/>
</g>
<!-- Node12 -->
<g id="node8" class="node">
<title>Node12</title>
<g id="a_node8"><a xlink:href="classtvm_1_1runtime_1_1ObjectPtr.html" target="_top" xlink:title="{tvm::runtime::ObjectPtr\l\&lt; tvm::runtime::Object \&gt;\n||+ ObjectPtr()\l+ ObjectPtr()\l+ ObjectPtr()\l+ ObjectPtr()\l+ ObjectPtr()\l+ ObjectPtr()\l+ ~ObjectPtr()\l+ swap()\l+ get()\l+ operator&#45;\&gt;()\land 11 more...\l}">
<polygon fill="#ffffff" stroke="#000000" points="496,-1697.5 496,-1875.5 636,-1875.5 636,-1697.5 496,-1697.5"/>
<text text-anchor="start" x="504" y="-1863.5" font-family="Helvetica,sans-Serif" font-size="10.00" fill="#000000">tvm::runtime::ObjectPtr</text>
<text text-anchor="middle" x="566" y="-1852.5" font-family="Helvetica,sans-Serif" font-size="10.00" fill="#000000">&lt; tvm::runtime::Object &gt;</text>
<polyline fill="none" stroke="#000000" points="496,-1845.5 636,-1845.5 "/>
<text text-anchor="middle" x="566" y="-1833.5" font-family="Helvetica,sans-Serif" font-size="10.00" fill="#000000"> </text>
<polyline fill="none" stroke="#000000" points="496,-1826.5 636,-1826.5 "/>
<text text-anchor="start" x="504" y="-1814.5" font-family="Helvetica,sans-Serif" font-size="10.00" fill="#000000">+ ObjectPtr()</text>
<text text-anchor="start" x="504" y="-1803.5" font-family="Helvetica,sans-Serif" font-size="10.00" fill="#000000">+ ObjectPtr()</text>
<text text-anchor="start" x="504" y="-1792.5" font-family="Helvetica,sans-Serif" font-size="10.00" fill="#000000">+ ObjectPtr()</text>
<text text-anchor="start" x="504" y="-1781.5" font-family="Helvetica,sans-Serif" font-size="10.00" fill="#000000">+ ObjectPtr()</text>
<text text-anchor="start" x="504" y="-1770.5" font-family="Helvetica,sans-Serif" font-size="10.00" fill="#000000">+ ObjectPtr()</text>
<text text-anchor="start" x="504" y="-1759.5" font-family="Helvetica,sans-Serif" font-size="10.00" fill="#000000">+ ObjectPtr()</text>
<text text-anchor="start" x="504" y="-1748.5" font-family="Helvetica,sans-Serif" font-size="10.00" fill="#000000">+ ~ObjectPtr()</text>
<text text-anchor="start" x="504" y="-1737.5" font-family="Helvetica,sans-Serif" font-size="10.00" fill="#000000">+ swap()</text>
<text text-anchor="start" x="504" y="-1726.5" font-family="Helvetica,sans-Serif" font-size="10.00" fill="#000000">+ get()</text>
<text text-anchor="start" x="504" y="-1715.5" font-family="Helvetica,sans-Serif" font-size="10.00" fill="#000000">+ operator&#45;&gt;()</text>
<text text-anchor="start" x="504" y="-1704.5" font-family="Helvetica,sans-Serif" font-size="10.00" fill="#000000">and 11 more...</text>
</a>
</g>
</g>
<!-- Node12&#45;&gt;Node11 -->
<g id="edge8" class="edge">
<title>Node12&#45;&gt;Node11</title>
<path fill="none" stroke="#404040" d="M566,-1697.3167C566,-1685.8765 566,-1674.0062 566,-1662.1402"/>
<polygon fill="none" stroke="#404040" points="566.0001,-1661.7944 562,-1655.7944 566,-1649.7944 570,-1655.7943 566.0001,-1661.7944"/>
<text text-anchor="middle" x="585.5" y="-1671" font-family="Helvetica,sans-Serif" font-size="10.00" fill="#000000"> #data_</text>
</g>
<!-- Node13&#45;&gt;Node5 -->
<g id="edge20" class="edge">
<title>Node13&#45;&gt;Node5</title>
<path fill="none" stroke="#404040" d="M69.732,-696.1682C67.4089,-683.5944 65.144,-669.2113 64,-656 52.2255,-520.0268 32.4965,-448.2381 134,-357 317.9497,-191.6537 603.3929,-108.7084 762.2409,-73.2345"/>
<polygon fill="none" stroke="#404040" points="762.6749,-73.139 767.6742,-67.9421 774.3941,-70.5581 769.3948,-75.7549 762.6749,-73.139"/>
<text text-anchor="middle" x="274" y="-302" font-family="Helvetica,sans-Serif" font-size="10.00" fill="#000000"> +ret_type</text>
</g>
<!-- Node13&#45;&gt;Node7 -->
<g id="edge10" class="edge">
<title>Node13&#45;&gt;Node7</title>
<path fill="none" stroke="#404040" d="M73.3856,-696.4904C67.6387,-635.7554 59.3272,-511.7434 83,-477 95.1807,-459.1229 112.97,-445.8631 132.3879,-436.0322"/>
<polygon fill="none" stroke="#404040" points="132.4496,-436.0034 136.1878,-429.8369 143.3178,-430.9159 139.5795,-437.0824 132.4496,-436.0034"/>
<text text-anchor="middle" x="125.5" y="-564" font-family="Helvetica,sans-Serif" font-size="10.00" fill="#000000"> +checked_type_</text>
</g>
<!-- Node14&#45;&gt;Node7 -->
<g id="edge12" class="edge">
<title>Node14&#45;&gt;Node7</title>
<path fill="none" stroke="#404040" d="M262.002,-805.1959C259.671,-799.1591 257.6318,-793.0646 256,-787 226.922,-678.932 232.5006,-547.2224 239.5262,-470.9514"/>
<polygon fill="none" stroke="#404040" points="239.5517,-470.6867 236.148,-464.3294 240.7072,-458.7425 244.1109,-465.0998 239.5517,-470.6867"/>
<text text-anchor="middle" x="290.5" y="-728" font-family="Helvetica,sans-Serif" font-size="10.00" fill="#000000"> +struct_info_</text>
</g>
<!-- Node15 -->
<g id="node11" class="node">
<title>Node15</title>
<g id="a_node11"><a xlink:href="classtvm_1_1DictAttrs.html" target="_top" xlink:title="Managed reference to DictAttrsNode. ">
<polygon fill="#ffffff" stroke="#000000" points="656,-499.5 656,-633.5 810,-633.5 810,-499.5 656,-499.5"/>
<text text-anchor="middle" x="733" y="-621.5" font-family="Helvetica,sans-Serif" font-size="10.00" fill="#000000">tvm::DictAttrs</text>
<polyline fill="none" stroke="#000000" points="656,-614.5 810,-614.5 "/>
<text text-anchor="middle" x="733" y="-602.5" font-family="Helvetica,sans-Serif" font-size="10.00" fill="#000000"> </text>
<polyline fill="none" stroke="#000000" points="656,-595.5 810,-595.5 "/>
<text text-anchor="start" x="664" y="-583.5" font-family="Helvetica,sans-Serif" font-size="10.00" fill="#000000">+ DictAttrs()</text>
<text text-anchor="start" x="664" y="-572.5" font-family="Helvetica,sans-Serif" font-size="10.00" fill="#000000">+ GetAttr()</text>
<text text-anchor="start" x="664" y="-561.5" font-family="Helvetica,sans-Serif" font-size="10.00" fill="#000000">+ GetAttr()</text>
<text text-anchor="start" x="664" y="-550.5" font-family="Helvetica,sans-Serif" font-size="10.00" fill="#000000">+ HasNonzeroAttr()</text>
<text text-anchor="start" x="664" y="-539.5" font-family="Helvetica,sans-Serif" font-size="10.00" fill="#000000">+ TVM_DEFINE_OBJECT_REF</text>
<text text-anchor="start" x="664" y="-528.5" font-family="Helvetica,sans-Serif" font-size="10.00" fill="#000000">_METHODS()</text>
<text text-anchor="start" x="664" y="-517.5" font-family="Helvetica,sans-Serif" font-size="10.00" fill="#000000">+ TVM_DEFINE_OBJECT_REF</text>
<text text-anchor="start" x="664" y="-506.5" font-family="Helvetica,sans-Serif" font-size="10.00" fill="#000000">_COW_METHOD()</text>
</a>
</g>
</g>
<!-- Node15&#45;&gt;Node6 -->
<g id="edge14" class="edge">
<title>Node15&#45;&gt;Node6</title>
<path fill="none" stroke="#404040" d="M733,-499.3147C733,-432.5767 733,-330.7722 733,-263.6862"/>
<polygon fill="none" stroke="#404040" points="733.0001,-263.5801 729,-257.5801 733,-251.5801 737,-257.5801 733.0001,-263.5801"/>
<text text-anchor="middle" x="750" y="-405.5" font-family="Helvetica,sans-Serif" font-size="10.00" fill="#000000"> +attrs</text>
</g>
<!-- Node16&#45;&gt;Node15 -->
<g id="edge15" class="edge">
<title>Node16&#45;&gt;Node15</title>
<path fill="none" stroke="#191970" d="M733,-1151.4173C733,-1042.5939 733,-762.869 733,-633.7078"/>
<polygon fill="none" stroke="#191970" points="729.5001,-1151.7083 733,-1161.7083 736.5001,-1151.7083 729.5001,-1151.7083"/>
</g>
<!-- Node17 -->
<g id="node13" class="node">
<title>Node17</title>
<g id="a_node13"><a xlink:href="classtvm_1_1RelayExpr.html" target="_top" xlink:title="Managed reference to RelayExprNode. ">
<polygon fill="#ffffff" stroke="#000000" points="802,-270.5 802,-338.5 956,-338.5 956,-270.5 802,-270.5"/>
<text text-anchor="middle" x="879" y="-326.5" font-family="Helvetica,sans-Serif" font-size="10.00" fill="#000000">tvm::RelayExpr</text>
<polyline fill="none" stroke="#000000" points="802,-319.5 956,-319.5 "/>
<text text-anchor="middle" x="879" y="-307.5" font-family="Helvetica,sans-Serif" font-size="10.00" fill="#000000"> </text>
<polyline fill="none" stroke="#000000" points="802,-300.5 956,-300.5 "/>
<text text-anchor="start" x="810" y="-288.5" font-family="Helvetica,sans-Serif" font-size="10.00" fill="#000000">+ TVM_DEFINE_OBJECT_REF</text>
<text text-anchor="start" x="810" y="-277.5" font-family="Helvetica,sans-Serif" font-size="10.00" fill="#000000">_METHODS()</text>
</a>
</g>
</g>
<!-- Node17&#45;&gt;Node5 -->
<g id="edge17" class="edge">
<title>Node17&#45;&gt;Node5</title>
<path fill="none" stroke="#404040" d="M879,-270.3119C879,-230.3193 879,-163.2943 879,-113.8445"/>
<polygon fill="none" stroke="#404040" points="879.0001,-113.6784 875,-107.6784 879,-101.6784 883,-107.6783 879.0001,-113.6784"/>
<text text-anchor="middle" x="897" y="-193" font-family="Helvetica,sans-Serif" font-size="10.00" fill="#000000"> +body</text>
</g>
<!-- Node18&#45;&gt;Node17 -->
<g id="edge18" class="edge">
<title>Node18&#45;&gt;Node17</title>
<path fill="none" stroke="#191970" d="M903.7093,-1151.7426C899.177,-996.3399 884.0461,-477.5214 880.0014,-338.8355"/>
<polygon fill="none" stroke="#191970" points="900.2145,-1151.9764 904.0046,-1161.8701 907.2115,-1151.7723 900.2145,-1151.9764"/>
</g>
<!-- Node19&#45;&gt;Node5 -->
<g id="edge21" class="edge">
<title>Node19&#45;&gt;Node5</title>
<path fill="none" stroke="#404040" d="M972.7451,-805.406C971.923,-739.4384 971,-647.3645 971,-566.5 971,-566.5 971,-566.5 971,-195.5 971,-164.9179 956.1555,-135.5892 938.3923,-111.4415"/>
<polygon fill="none" stroke="#404040" points="938.2528,-111.2609 931.4189,-108.9592 930.9151,-101.7657 937.749,-104.0674 938.2528,-111.2609"/>
<text text-anchor="middle" x="995.5" y="-405.5" font-family="Helvetica,sans-Serif" font-size="10.00" fill="#000000"> +params</text>
</g>
<!-- Node20&#45;&gt;Node5 -->
<g id="edge23" class="edge">
<title>Node20&#45;&gt;Node5</title>
<path fill="none" stroke="#404040" d="M1056.591,-477.4793C1061.3413,-381.4443 1055.4045,-227.8298 985,-120 982.8392,-116.6905 980.4581,-113.5053 977.8986,-110.4432"/>
<polygon fill="none" stroke="#404040" points="977.8831,-110.4265 970.8708,-108.745 969.7259,-101.6254 976.7383,-103.3069 977.8831,-110.4265"/>
<text text-anchor="middle" x="1090" y="-302" font-family="Helvetica,sans-Serif" font-size="10.00" fill="#000000"> +type_params</text>
</g>
</g>
</svg>
