<?xml version="1.0" encoding="UTF-8" standalone="no"?>
<!DOCTYPE svg PUBLIC "-//W3C//DTD SVG 1.1//EN"
 "http://www.w3.org/Graphics/SVG/1.1/DTD/svg11.dtd">
<!-- Generated by graphviz version 2.40.1 (20161225.0304)
 -->
<!-- Title: include/tvm/runtime/container/closure.h Pages: 1 -->
<svg width="457pt" height="173pt"
 viewBox="0.00 0.00 456.50 173.00" xmlns="http://www.w3.org/2000/svg" xmlns:xlink="http://www.w3.org/1999/xlink">
<g id="graph0" class="graph" transform="scale(1 1) rotate(0) translate(4 169)">
<title>include/tvm/runtime/container/closure.h</title>
<polygon fill="#ffffff" stroke="transparent" points="-4,4 -4,-169 452.5,-169 452.5,4 -4,4"/>
<!-- Node17 -->
<g id="node1" class="node">
<title>Node17</title>
<polygon fill="#bfbfbf" stroke="#000000" points="190.5,-134.5 190.5,-164.5 306.5,-164.5 306.5,-134.5 190.5,-134.5"/>
<text text-anchor="start" x="198.5" y="-152.5" font-family="Helvetica,sans-Serif" font-size="10.00" fill="#000000">include/tvm/runtime</text>
<text text-anchor="middle" x="248.5" y="-141.5" font-family="Helvetica,sans-Serif" font-size="10.00" fill="#000000">/container/closure.h</text>
</g>
<!-- Node18 -->
<g id="node2" class="node">
<title>Node18</title>
<g id="a_node2"><a xlink:href="interpreter_8h.html" target="_top" xlink:title="An interpreter for Relay. ">
<polygon fill="#ffffff" stroke="#000000" points="0,-73 0,-92 165,-92 165,-73 0,-73"/>
<text text-anchor="middle" x="82.5" y="-80" font-family="Helvetica,sans-Serif" font-size="10.00" fill="#000000">include/tvm/relay/interpreter.h</text>
</a>
</g>
</g>
<!-- Node17&#45;&gt;Node18 -->
<g id="edge1" class="edge">
<title>Node17&#45;&gt;Node18</title>
<path fill="none" stroke="#191970" d="M201.8884,-130.6869C170.7718,-118.1278 131.1476,-102.1349 106.2948,-92.1039"/>
<polygon fill="#191970" stroke="#191970" points="200.6632,-133.9667 211.2464,-134.4639 203.2832,-127.4754 200.6632,-133.9667"/>
</g>
<!-- Node19 -->
<g id="node3" class="node">
<title>Node19</title>
<g id="a_node3"><a xlink:href="relax__vm_2executable_8h.html" target="_top" xlink:title="include/tvm/runtime\l/relax_vm/executable.h">
<polygon fill="#ffffff" stroke="#000000" points="183,-67.5 183,-97.5 314,-97.5 314,-67.5 183,-67.5"/>
<text text-anchor="start" x="191" y="-85.5" font-family="Helvetica,sans-Serif" font-size="10.00" fill="#000000">include/tvm/runtime</text>
<text text-anchor="middle" x="248.5" y="-74.5" font-family="Helvetica,sans-Serif" font-size="10.00" fill="#000000">/relax_vm/executable.h</text>
</a>
</g>
</g>
<!-- Node17&#45;&gt;Node19 -->
<g id="edge2" class="edge">
<title>Node17&#45;&gt;Node19</title>
<path fill="none" stroke="#191970" d="M248.5,-124.0249C248.5,-115.128 248.5,-105.4287 248.5,-97.6432"/>
<polygon fill="#191970" stroke="#191970" points="245.0001,-124.2966 248.5,-134.2967 252.0001,-124.2967 245.0001,-124.2966"/>
</g>
<!-- Node22 -->
<g id="node6" class="node">
<title>Node22</title>
<g id="a_node6"><a xlink:href="runtime_2vm_2vm_8h.html" target="_top" xlink:title="The Relay virtual machine runtime. ">
<polygon fill="#ffffff" stroke="#000000" points="332.5,-67.5 332.5,-97.5 448.5,-97.5 448.5,-67.5 332.5,-67.5"/>
<text text-anchor="start" x="340.5" y="-85.5" font-family="Helvetica,sans-Serif" font-size="10.00" fill="#000000">include/tvm/runtime</text>
<text text-anchor="middle" x="390.5" y="-74.5" font-family="Helvetica,sans-Serif" font-size="10.00" fill="#000000">/vm/vm.h</text>
</a>
</g>
</g>
<!-- Node17&#45;&gt;Node22 -->
<g id="edge5" class="edge">
<title>Node17&#45;&gt;Node22</title>
<path fill="none" stroke="#191970" d="M289.4253,-130.1902C311.3011,-119.8685 337.8496,-107.3421 358.2475,-97.7177"/>
<polygon fill="#191970" stroke="#191970" points="287.9179,-127.0313 280.3676,-134.4639 290.905,-133.362 287.9179,-127.0313"/>
</g>
<!-- Node20 -->
<g id="node4" class="node">
<title>Node20</title>
<g id="a_node4"><a xlink:href="exec__builder_8h.html" target="_top" xlink:title="include/tvm/relax/exec\l_builder.h">
<polygon fill="#ffffff" stroke="#000000" points="114.5,-.5 114.5,-30.5 242.5,-30.5 242.5,-.5 114.5,-.5"/>
<text text-anchor="start" x="122.5" y="-18.5" font-family="Helvetica,sans-Serif" font-size="10.00" fill="#000000">include/tvm/relax/exec</text>
<text text-anchor="middle" x="178.5" y="-7.5" font-family="Helvetica,sans-Serif" font-size="10.00" fill="#000000">_builder.h</text>
</a>
</g>
</g>
<!-- Node19&#45;&gt;Node20 -->
<g id="edge3" class="edge">
<title>Node19&#45;&gt;Node20</title>
<path fill="none" stroke="#191970" d="M225.2133,-60.2113C215.0681,-50.5009 203.4386,-39.3698 194.3212,-30.6432"/>
<polygon fill="#191970" stroke="#191970" points="222.9716,-62.9105 232.6159,-67.2967 227.8118,-57.8536 222.9716,-62.9105"/>
</g>
<!-- Node21 -->
<g id="node5" class="node">
<title>Node21</title>
<g id="a_node5"><a xlink:href="runtime_2relax__vm_2vm_8h.html" target="_top" xlink:title="include/tvm/runtime\l/relax_vm/vm.h">
<polygon fill="#ffffff" stroke="#000000" points="260.5,-.5 260.5,-30.5 376.5,-30.5 376.5,-.5 260.5,-.5"/>
<text text-anchor="start" x="268.5" y="-18.5" font-family="Helvetica,sans-Serif" font-size="10.00" fill="#000000">include/tvm/runtime</text>
<text text-anchor="middle" x="318.5" y="-7.5" font-family="Helvetica,sans-Serif" font-size="10.00" fill="#000000">/relax_vm/vm.h</text>
</a>
</g>
</g>
<!-- Node19&#45;&gt;Node21 -->
<g id="edge4" class="edge">
<title>Node19&#45;&gt;Node21</title>
<path fill="none" stroke="#191970" d="M271.7867,-60.2113C281.9319,-50.5009 293.5614,-39.3698 302.6788,-30.6432"/>
<polygon fill="#191970" stroke="#191970" points="269.1882,-57.8536 264.3841,-67.2967 274.0284,-62.9105 269.1882,-57.8536"/>
</g>
</g>
</svg>
