<?xml version="1.0" encoding="UTF-8" standalone="no"?>
<!DOCTYPE svg PUBLIC "-//W3C//DTD SVG 1.1//EN"
 "http://www.w3.org/Graphics/SVG/1.1/DTD/svg11.dtd">
<!-- Generated by graphviz version 2.40.1 (20161225.0304)
 -->
<!-- Title: include/tvm/tir/data_layout.h Pages: 1 -->
<svg width="977pt" height="307pt"
 viewBox="0.00 0.00 976.50 307.00" xmlns="http://www.w3.org/2000/svg" xmlns:xlink="http://www.w3.org/1999/xlink">
<g id="graph0" class="graph" transform="scale(1 1) rotate(0) translate(4 303)">
<title>include/tvm/tir/data_layout.h</title>
<polygon fill="#ffffff" stroke="transparent" points="-4,4 -4,-303 972.5,-303 972.5,4 -4,4"/>
<!-- Node72 -->
<g id="node1" class="node">
<title>Node72</title>
<polygon fill="#bfbfbf" stroke="#000000" points="384,-268.5 384,-298.5 497,-298.5 497,-268.5 384,-268.5"/>
<text text-anchor="start" x="392" y="-286.5" font-family="Helvetica,sans-Serif" font-size="10.00" fill="#000000">include/tvm/tir/data</text>
<text text-anchor="middle" x="440.5" y="-275.5" font-family="Helvetica,sans-Serif" font-size="10.00" fill="#000000">_layout.h</text>
</g>
<!-- Node73 -->
<g id="node2" class="node">
<title>Node73</title>
<g id="a_node2"><a xlink:href="relay_2op__attr__types_8h.html" target="_top" xlink:title="The Expr and related elements in DataFlow construction. ">
<polygon fill="#ffffff" stroke="#000000" points="193,-201.5 193,-231.5 310,-231.5 310,-201.5 193,-201.5"/>
<text text-anchor="start" x="201" y="-219.5" font-family="Helvetica,sans-Serif" font-size="10.00" fill="#000000">include/tvm/relay/op</text>
<text text-anchor="middle" x="251.5" y="-208.5" font-family="Helvetica,sans-Serif" font-size="10.00" fill="#000000">_attr_types.h</text>
</a>
</g>
</g>
<!-- Node72&#45;&gt;Node73 -->
<g id="edge1" class="edge">
<title>Node72&#45;&gt;Node73</title>
<path fill="none" stroke="#191970" d="M388.3198,-265.0023C358.6666,-254.4903 322.0068,-241.4945 294.1003,-231.6017"/>
<polygon fill="#191970" stroke="#191970" points="387.49,-268.4214 398.0847,-268.4639 389.8289,-261.8237 387.49,-268.4214"/>
</g>
<!-- Node79 -->
<g id="node8" class="node">
<title>Node79</title>
<g id="a_node8"><a xlink:href="einsum_8h.html" target="_top" xlink:title="Einstein summation op. ">
<polygon fill="#ffffff" stroke="#000000" points="368.5,-207 368.5,-226 512.5,-226 512.5,-207 368.5,-207"/>
<text text-anchor="middle" x="440.5" y="-214" font-family="Helvetica,sans-Serif" font-size="10.00" fill="#000000">include/tvm/topi/einsum.h</text>
</a>
</g>
</g>
<!-- Node72&#45;&gt;Node79 -->
<g id="edge7" class="edge">
<title>Node72&#45;&gt;Node79</title>
<path fill="none" stroke="#191970" d="M440.5,-258.1199C440.5,-246.9072 440.5,-234.4031 440.5,-226.055"/>
<polygon fill="#191970" stroke="#191970" points="437.0001,-258.2966 440.5,-268.2967 444.0001,-258.2967 437.0001,-258.2966"/>
</g>
<!-- Node80 -->
<g id="node9" class="node">
<title>Node80</title>
<g id="a_node9"><a xlink:href="topi_2transform_8h.html" target="_top" xlink:title="Transform op constructors. ">
<polygon fill="#ffffff" stroke="#000000" points="550.5,-207 550.5,-226 706.5,-226 706.5,-207 550.5,-207"/>
<text text-anchor="middle" x="628.5" y="-214" font-family="Helvetica,sans-Serif" font-size="10.00" fill="#000000">include/tvm/topi/transform.h</text>
</a>
</g>
</g>
<!-- Node72&#45;&gt;Node80 -->
<g id="edge8" class="edge">
<title>Node72&#45;&gt;Node80</title>
<path fill="none" stroke="#191970" d="M492.4095,-265.0003C527.8952,-252.3538 573.4663,-236.1131 601.8284,-226.0053"/>
<polygon fill="#191970" stroke="#191970" points="490.9356,-261.8099 482.6909,-268.4639 493.2855,-268.4037 490.9356,-261.8099"/>
</g>
<!-- Node74 -->
<g id="node3" class="node">
<title>Node74</title>
<g id="a_node3"><a xlink:href="relax_2analysis_8h.html" target="_top" xlink:title="The set of Relax specific analysis on IR. ">
<polygon fill="#ffffff" stroke="#000000" points="0,-140 0,-159 155,-159 155,-140 0,-140"/>
<text text-anchor="middle" x="77.5" y="-147" font-family="Helvetica,sans-Serif" font-size="10.00" fill="#000000">include/tvm/relax/analysis.h</text>
</a>
</g>
</g>
<!-- Node73&#45;&gt;Node74 -->
<g id="edge2" class="edge">
<title>Node73&#45;&gt;Node74</title>
<path fill="none" stroke="#191970" d="M203.0345,-197.838C170.2527,-185.2151 128.3233,-169.0699 102.1854,-159.0053"/>
<polygon fill="#191970" stroke="#191970" points="201.8612,-201.1367 212.451,-201.4639 204.3766,-194.6042 201.8612,-201.1367"/>
</g>
<!-- Node76 -->
<g id="node5" class="node">
<title>Node76</title>
<g id="a_node5"><a xlink:href="op__strategy_8h.html" target="_top" xlink:title="The Relay operator Strategy and related data structure. ">
<polygon fill="#ffffff" stroke="#000000" points="173,-134.5 173,-164.5 290,-164.5 290,-134.5 173,-134.5"/>
<text text-anchor="start" x="181" y="-152.5" font-family="Helvetica,sans-Serif" font-size="10.00" fill="#000000">include/tvm/relay/op</text>
<text text-anchor="middle" x="231.5" y="-141.5" font-family="Helvetica,sans-Serif" font-size="10.00" fill="#000000">_strategy.h</text>
</a>
</g>
</g>
<!-- Node73&#45;&gt;Node76 -->
<g id="edge4" class="edge">
<title>Node73&#45;&gt;Node76</title>
<path fill="none" stroke="#191970" d="M244.0702,-191.6103C241.3672,-182.5553 238.3955,-172.5998 236.0203,-164.6432"/>
<polygon fill="#191970" stroke="#191970" points="240.7475,-192.7156 246.9617,-201.2967 247.455,-190.7133 240.7475,-192.7156"/>
</g>
<!-- Node77 -->
<g id="node6" class="node">
<title>Node77</title>
<g id="a_node6"><a xlink:href="relay_2transform_8h.html" target="_top" xlink:title="Relay specific transformation passes. ">
<polygon fill="#ffffff" stroke="#000000" points="308.5,-140 308.5,-159 470.5,-159 470.5,-140 308.5,-140"/>
<text text-anchor="middle" x="389.5" y="-147" font-family="Helvetica,sans-Serif" font-size="10.00" fill="#000000">include/tvm/relay/transform.h</text>
</a>
</g>
</g>
<!-- Node73&#45;&gt;Node77 -->
<g id="edge5" class="edge">
<title>Node73&#45;&gt;Node77</title>
<path fill="none" stroke="#191970" d="M291.5936,-197.0343C317.2497,-184.5781 349.4143,-168.9619 369.7188,-159.1039"/>
<polygon fill="#191970" stroke="#191970" points="289.9371,-193.9478 282.4699,-201.4639 292.9944,-200.2448 289.9371,-193.9478"/>
</g>
<!-- Node75 -->
<g id="node4" class="node">
<title>Node75</title>
<g id="a_node4"><a xlink:href="binding__rewrite_8h.html" target="_top" xlink:title="An IR rewriter to easily add/remove/replace bindings (statements). ">
<polygon fill="#ffffff" stroke="#000000" points="7,-67.5 7,-97.5 148,-97.5 148,-67.5 7,-67.5"/>
<text text-anchor="start" x="15" y="-85.5" font-family="Helvetica,sans-Serif" font-size="10.00" fill="#000000">include/tvm/relax/binding</text>
<text text-anchor="middle" x="77.5" y="-74.5" font-family="Helvetica,sans-Serif" font-size="10.00" fill="#000000">_rewrite.h</text>
</a>
</g>
</g>
<!-- Node74&#45;&gt;Node75 -->
<g id="edge3" class="edge">
<title>Node74&#45;&gt;Node75</title>
<path fill="none" stroke="#191970" d="M77.5,-129.7758C77.5,-119.4641 77.5,-107.0437 77.5,-97.5218"/>
<polygon fill="#191970" stroke="#191970" points="74.0001,-129.9005 77.5,-139.9005 81.0001,-129.9006 74.0001,-129.9005"/>
</g>
<!-- Node78 -->
<g id="node7" class="node">
<title>Node78</title>
<g id="a_node7"><a xlink:href="relay_2qnn_2transform_8h.html" target="_top" xlink:title="include/tvm/relay/qnn\l/transform.h">
<polygon fill="#ffffff" stroke="#000000" points="328,-67.5 328,-97.5 451,-97.5 451,-67.5 328,-67.5"/>
<text text-anchor="start" x="336" y="-85.5" font-family="Helvetica,sans-Serif" font-size="10.00" fill="#000000">include/tvm/relay/qnn</text>
<text text-anchor="middle" x="389.5" y="-74.5" font-family="Helvetica,sans-Serif" font-size="10.00" fill="#000000">/transform.h</text>
</a>
</g>
</g>
<!-- Node77&#45;&gt;Node78 -->
<g id="edge6" class="edge">
<title>Node77&#45;&gt;Node78</title>
<path fill="none" stroke="#191970" d="M389.5,-129.7758C389.5,-119.4641 389.5,-107.0437 389.5,-97.5218"/>
<polygon fill="#191970" stroke="#191970" points="386.0001,-129.9005 389.5,-139.9005 393.0001,-129.9006 386.0001,-129.9005"/>
</g>
<!-- Node81 -->
<g id="node10" class="node">
<title>Node81</title>
<g id="a_node10"><a xlink:href="bias__add_8h.html" target="_top" xlink:title="bias_add op constructions ">
<polygon fill="#ffffff" stroke="#000000" points="489,-134.5 489,-164.5 600,-164.5 600,-134.5 489,-134.5"/>
<text text-anchor="start" x="497" y="-152.5" font-family="Helvetica,sans-Serif" font-size="10.00" fill="#000000">include/tvm/topi/nn</text>
<text text-anchor="middle" x="544.5" y="-141.5" font-family="Helvetica,sans-Serif" font-size="10.00" fill="#000000">/bias_add.h</text>
</a>
</g>
</g>
<!-- Node80&#45;&gt;Node81 -->
<g id="edge9" class="edge">
<title>Node80&#45;&gt;Node81</title>
<path fill="none" stroke="#191970" d="M608.58,-200.6115C594.8781,-189.6825 576.7952,-175.2592 563.3333,-164.5218"/>
<polygon fill="#191970" stroke="#191970" points="606.4646,-203.4011 616.4648,-206.9005 610.8295,-197.9287 606.4646,-203.4011"/>
</g>
<!-- Node82 -->
<g id="node11" class="node">
<title>Node82</title>
<g id="a_node11"><a xlink:href="topi_2nn_8h.html" target="_top" xlink:title="NN op constructions. ">
<polygon fill="#ffffff" stroke="#000000" points="534.5,-73 534.5,-92 654.5,-92 654.5,-73 534.5,-73"/>
<text text-anchor="middle" x="594.5" y="-80" font-family="Helvetica,sans-Serif" font-size="10.00" fill="#000000">include/tvm/topi/nn.h</text>
</a>
</g>
</g>
<!-- Node80&#45;&gt;Node82 -->
<g id="edge10" class="edge">
<title>Node80&#45;&gt;Node82</title>
<path fill="none" stroke="#191970" d="M623.8442,-196.6247C619.8852,-179.8904 613.9859,-155.3391 608.5,-134 604.7627,-119.4627 600.1491,-102.7009 597.2649,-92.3515"/>
<polygon fill="#191970" stroke="#191970" points="620.5472,-197.894 626.2461,-206.8256 627.3609,-196.2896 620.5472,-197.894"/>
</g>
<!-- Node84 -->
<g id="node13" class="node">
<title>Node84</title>
<g id="a_node13"><a xlink:href="reduction_8h.html" target="_top" xlink:title="Reduction op constructors. ">
<polygon fill="#ffffff" stroke="#000000" points="656.5,-140 656.5,-159 810.5,-159 810.5,-140 656.5,-140"/>
<text text-anchor="middle" x="733.5" y="-147" font-family="Helvetica,sans-Serif" font-size="10.00" fill="#000000">include/tvm/topi/reduction.h</text>
</a>
</g>
</g>
<!-- Node80&#45;&gt;Node84 -->
<g id="edge12" class="edge">
<title>Node80&#45;&gt;Node84</title>
<path fill="none" stroke="#191970" d="M652.2239,-201.3619C672.544,-188.3957 701.1867,-170.119 718.484,-159.0817"/>
<polygon fill="#191970" stroke="#191970" points="650.0912,-198.5708 643.5439,-206.9005 653.8567,-204.4719 650.0912,-198.5708"/>
</g>
<!-- Node86 -->
<g id="node15" class="node">
<title>Node86</title>
<g id="a_node15"><a xlink:href="reorg_8h.html" target="_top" xlink:title="Reorg op constructions. ">
<polygon fill="#ffffff" stroke="#000000" points="840.5,-67.5 840.5,-97.5 968.5,-97.5 968.5,-67.5 840.5,-67.5"/>
<text text-anchor="start" x="848.5" y="-85.5" font-family="Helvetica,sans-Serif" font-size="10.00" fill="#000000">include/tvm/topi/vision</text>
<text text-anchor="middle" x="904.5" y="-74.5" font-family="Helvetica,sans-Serif" font-size="10.00" fill="#000000">/reorg.h</text>
</a>
</g>
</g>
<!-- Node80&#45;&gt;Node86 -->
<g id="edge17" class="edge">
<title>Node80&#45;&gt;Node86</title>
<path fill="none" stroke="#191970" d="M705.81,-204.9123C742.005,-197.2247 784.7041,-184.7809 819.5,-165 850.2501,-147.5191 878.0501,-116.2864 892.9831,-97.672"/>
<polygon fill="#191970" stroke="#191970" points="704.8845,-201.5289 695.7856,-206.9566 706.2833,-208.3877 704.8845,-201.5289"/>
</g>
<!-- Node83 -->
<g id="node12" class="node">
<title>Node83</title>
<g id="a_node12"><a xlink:href="nn_2pooling_8h.html" target="_top" xlink:title="Pooling op constructions. ">
<polygon fill="#ffffff" stroke="#000000" points="583,-.5 583,-30.5 694,-30.5 694,-.5 583,-.5"/>
<text text-anchor="start" x="591" y="-18.5" font-family="Helvetica,sans-Serif" font-size="10.00" fill="#000000">include/tvm/topi/nn</text>
<text text-anchor="middle" x="638.5" y="-7.5" font-family="Helvetica,sans-Serif" font-size="10.00" fill="#000000">/pooling.h</text>
</a>
</g>
</g>
<!-- Node82&#45;&gt;Node83 -->
<g id="edge11" class="edge">
<title>Node82&#45;&gt;Node83</title>
<path fill="none" stroke="#191970" d="M606.3848,-64.4026C613.3519,-53.7936 622.0491,-40.5502 628.635,-30.5218"/>
<polygon fill="#191970" stroke="#191970" points="603.3679,-62.6206 600.8041,-72.9005 609.219,-66.4631 603.3679,-62.6206"/>
</g>
<!-- Node84&#45;&gt;Node82 -->
<g id="edge15" class="edge">
<title>Node84&#45;&gt;Node82</title>
<path fill="none" stroke="#191970" d="M704.2505,-135.4013C677.2547,-122.389 637.8956,-103.4173 614.3784,-92.0817"/>
<polygon fill="#191970" stroke="#191970" points="703.0568,-138.7113 713.5847,-139.9005 706.0963,-132.4056 703.0568,-138.7113"/>
</g>
<!-- Node84&#45;&gt;Node83 -->
<g id="edge13" class="edge">
<title>Node84&#45;&gt;Node83</title>
<path fill="none" stroke="#191970" d="M720.7164,-131.4684C701.8343,-104.8347 666.8281,-55.4575 649.213,-30.611"/>
<polygon fill="#191970" stroke="#191970" points="718.029,-133.7294 726.6678,-139.8631 723.7395,-129.6809 718.029,-133.7294"/>
</g>
<!-- Node85 -->
<g id="node14" class="node">
<title>Node85</title>
<g id="a_node14"><a xlink:href="nn_2softmax_8h.html" target="_top" xlink:title="Softmax op constructions. ">
<polygon fill="#ffffff" stroke="#000000" points="711,-67.5 711,-97.5 822,-97.5 822,-67.5 711,-67.5"/>
<text text-anchor="start" x="719" y="-85.5" font-family="Helvetica,sans-Serif" font-size="10.00" fill="#000000">include/tvm/topi/nn</text>
<text text-anchor="middle" x="766.5" y="-74.5" font-family="Helvetica,sans-Serif" font-size="10.00" fill="#000000">/softmax.h</text>
</a>
</g>
</g>
<!-- Node84&#45;&gt;Node85 -->
<g id="edge14" class="edge">
<title>Node84&#45;&gt;Node85</title>
<path fill="none" stroke="#191970" d="M742.7319,-130.7565C747.9019,-120.2598 754.2616,-107.3476 759.1012,-97.5218"/>
<polygon fill="#191970" stroke="#191970" points="739.5068,-129.3831 738.2281,-139.9005 745.7865,-132.4761 739.5068,-129.3831"/>
</g>
<!-- Node84&#45;&gt;Node86 -->
<g id="edge16" class="edge">
<title>Node84&#45;&gt;Node86</title>
<path fill="none" stroke="#191970" d="M767.5226,-136.1695C795.9804,-125.0194 836.5587,-109.1203 866.1609,-97.5218"/>
<polygon fill="#191970" stroke="#191970" points="766.0341,-132.9936 758.0001,-139.9005 768.5878,-139.5112 766.0341,-132.9936"/>
</g>
</g>
</svg>
