<?xml version="1.0" encoding="UTF-8" standalone="no"?>
<!DOCTYPE svg PUBLIC "-//W3C//DTD SVG 1.1//EN"
 "http://www.w3.org/Graphics/SVG/1.1/DTD/svg11.dtd">
<!-- Generated by graphviz version 2.40.1 (20161225.0304)
 -->
<!-- Title: include/tvm/runtime/data_type.h Pages: 1 -->
<svg width="3392pt" height="1156pt"
 viewBox="0.00 0.00 3392.00 1156.00" xmlns="http://www.w3.org/2000/svg" xmlns:xlink="http://www.w3.org/1999/xlink">
<g id="graph0" class="graph" transform="scale(1 1) rotate(0) translate(4 1152)">
<title>include/tvm/runtime/data_type.h</title>
<polygon fill="#ffffff" stroke="transparent" points="-4,4 -4,-1152 3388,-1152 3388,4 -4,4"/>
<!-- Node8 -->
<g id="node1" class="node">
<title>Node8</title>
<polygon fill="#bfbfbf" stroke="#000000" points="1783,-1117.5 1783,-1147.5 1899,-1147.5 1899,-1117.5 1783,-1117.5"/>
<text text-anchor="start" x="1791" y="-1135.5" font-family="Helvetica,sans-Serif" font-size="10.00" fill="#000000">include/tvm/runtime</text>
<text text-anchor="middle" x="1841" y="-1124.5" font-family="Helvetica,sans-Serif" font-size="10.00" fill="#000000">/data_type.h</text>
</g>
<!-- Node9 -->
<g id="node2" class="node">
<title>Node9</title>
<g id="a_node2"><a xlink:href="ir_2type_8h.html" target="_top" xlink:title="IR/AST nodes for the unified type system in TVM. ">
<polygon fill="#ffffff" stroke="#000000" points="505,-670.5 505,-689.5 623,-689.5 623,-670.5 505,-670.5"/>
<text text-anchor="middle" x="564" y="-677.5" font-family="Helvetica,sans-Serif" font-size="10.00" fill="#000000">include/tvm/ir/type.h</text>
</a>
</g>
</g>
<!-- Node8&#45;&gt;Node9 -->
<g id="edge1" class="edge">
<title>Node8&#45;&gt;Node9</title>
<path fill="none" stroke="#191970" d="M1772.7075,-1130.6798C1583.2778,-1125.3368 1053.8962,-1108.3318 882,-1081 742.0436,-1058.7467 574,-1140.2145 574,-998.5 574,-998.5 574,-998.5 574,-797.5 574,-757.3728 568.1382,-709.814 565.3905,-689.7251"/>
<polygon fill="#191970" stroke="#191970" points="1772.7196,-1134.1814 1782.8137,-1130.9629 1772.9157,-1127.1842 1772.7196,-1134.1814"/>
</g>
<!-- Node162 -->
<g id="node12" class="node">
<title>Node162</title>
<g id="a_node12"><a xlink:href="arg__info_8h.html" target="_top" xlink:title="include/tvm/meta_schedule\l/arg_info.h">
<polygon fill="#ffffff" stroke="#000000" points="2320,-402.5 2320,-432.5 2472,-432.5 2472,-402.5 2320,-402.5"/>
<text text-anchor="start" x="2328" y="-420.5" font-family="Helvetica,sans-Serif" font-size="10.00" fill="#000000">include/tvm/meta_schedule</text>
<text text-anchor="middle" x="2396" y="-409.5" font-family="Helvetica,sans-Serif" font-size="10.00" fill="#000000">/arg_info.h</text>
</a>
</g>
</g>
<!-- Node8&#45;&gt;Node162 -->
<g id="edge79" class="edge">
<title>Node8&#45;&gt;Node162</title>
<path fill="none" stroke="#191970" d="M1909.2845,-1131.7161C2169.8956,-1128.028 3091.6368,-1108.3563 3178,-1014 3432.3522,-736.1072 2667.4817,-494.1626 2451.2398,-432.6033"/>
<polygon fill="#191970" stroke="#191970" points="1909.1477,-1128.2176 1899.197,-1131.8555 1909.2445,-1135.2169 1909.1477,-1128.2176"/>
</g>
<!-- Node207 -->
<g id="node31" class="node">
<title>Node207</title>
<g id="a_node31"><a xlink:href="doc_8h.html" target="_top" xlink:title="include/tvm/script\l/printer/doc.h">
<polygon fill="#ffffff" stroke="#ff0000" points="764,-536.5 764,-566.5 868,-566.5 868,-536.5 764,-536.5"/>
<text text-anchor="start" x="772" y="-554.5" font-family="Helvetica,sans-Serif" font-size="10.00" fill="#000000">include/tvm/script</text>
<text text-anchor="middle" x="816" y="-543.5" font-family="Helvetica,sans-Serif" font-size="10.00" fill="#000000">/printer/doc.h</text>
</a>
</g>
</g>
<!-- Node8&#45;&gt;Node207 -->
<g id="edge153" class="edge">
<title>Node8&#45;&gt;Node207</title>
<path fill="none" stroke="#191970" d="M1772.6498,-1130.0059C1555.5706,-1121.1862 896,-1087.0986 896,-998.5 896,-998.5 896,-998.5 896,-680 896,-632.9603 856.8875,-588.8782 833.3588,-566.6156"/>
<polygon fill="#191970" stroke="#191970" points="1772.8221,-1133.5155 1782.9543,-1130.419 1773.1026,-1126.5211 1772.8221,-1133.5155"/>
</g>
<!-- Node210 -->
<g id="node32" class="node">
<title>Node210</title>
<g id="a_node32"><a xlink:href="tir_2expr_8h.html" target="_top" xlink:title="TIR expressions. ">
<polygon fill="#ffffff" stroke="#ff0000" points="122.5,-475 122.5,-494 243.5,-494 243.5,-475 122.5,-475"/>
<text text-anchor="middle" x="183" y="-482" font-family="Helvetica,sans-Serif" font-size="10.00" fill="#000000">include/tvm/tir/expr.h</text>
</a>
</g>
</g>
<!-- Node8&#45;&gt;Node210 -->
<g id="edge154" class="edge">
<title>Node8&#45;&gt;Node210</title>
<path fill="none" stroke="#191970" d="M1772.4439,-1131.8899C1461.4212,-1128.9388 194.8246,-1114.8785 118,-1081 71.2674,-1060.3916 38,-1049.5749 38,-998.5 38,-998.5 38,-998.5 38,-618.5 38,-553.8877 116.616,-511.7751 158.0736,-494.0593"/>
<polygon fill="#191970" stroke="#191970" points="1772.6362,-1135.3918 1782.6687,-1131.9862 1772.7021,-1128.3921 1772.6362,-1135.3918"/>
</g>
<!-- Node217 -->
<g id="node33" class="node">
<title>Node217</title>
<g id="a_node33"><a xlink:href="var_8h.html" target="_top" xlink:title="Variables in the TIR. ">
<polygon fill="#ffffff" stroke="#ff0000" points="142.5,-542 142.5,-561 257.5,-561 257.5,-542 142.5,-542"/>
<text text-anchor="middle" x="200" y="-549" font-family="Helvetica,sans-Serif" font-size="10.00" fill="#000000">include/tvm/tir/var.h</text>
</a>
</g>
</g>
<!-- Node8&#45;&gt;Node217 -->
<g id="edge155" class="edge">
<title>Node8&#45;&gt;Node217</title>
<path fill="none" stroke="#191970" d="M1772.7302,-1130.9059C1545.6181,-1125.4144 816.6982,-1106.2245 583,-1081 372.5774,-1058.2878 114,-1210.1448 114,-998.5 114,-998.5 114,-998.5 114,-680 114,-627.9221 163.3881,-580.9798 187.3104,-561.2968"/>
<polygon fill="#191970" stroke="#191970" points="1772.7613,-1134.4076 1782.8427,-1131.1494 1772.9299,-1127.4096 1772.7613,-1134.4076"/>
</g>
<!-- Node220 -->
<g id="node35" class="node">
<title>Node220</title>
<g id="a_node35"><a xlink:href="reflection_8h.html" target="_top" xlink:title="Reflection and serialization of compiler IR/AST nodes. ">
<polygon fill="#ffffff" stroke="#000000" points="2003.5,-922 2003.5,-941 2162.5,-941 2162.5,-922 2003.5,-922"/>
<text text-anchor="middle" x="2083" y="-929" font-family="Helvetica,sans-Serif" font-size="10.00" fill="#000000">include/tvm/node/reflection.h</text>
</a>
</g>
</g>
<!-- Node8&#45;&gt;Node220 -->
<g id="edge80" class="edge">
<title>Node8&#45;&gt;Node220</title>
<path fill="none" stroke="#191970" d="M1866.067,-1110.3746C1899.7355,-1080.822 1961.6281,-1027.0725 2016,-983 2034.4635,-968.0339 2056.3894,-951.386 2070.0019,-941.1781"/>
<polygon fill="#191970" stroke="#191970" points="1863.3365,-1108.1148 1858.137,-1117.346 1867.9584,-1113.372 1863.3365,-1108.1148"/>
</g>
<!-- Node226 -->
<g id="node41" class="node">
<title>Node226</title>
<g id="a_node41"><a xlink:href="script__printer_8h.html" target="_top" xlink:title="include/tvm/node/script\l_printer.h">
<polygon fill="#ffffff" stroke="#000000" points="1244.5,-849.5 1244.5,-879.5 1375.5,-879.5 1375.5,-849.5 1244.5,-849.5"/>
<text text-anchor="start" x="1252.5" y="-867.5" font-family="Helvetica,sans-Serif" font-size="10.00" fill="#000000">include/tvm/node/script</text>
<text text-anchor="middle" x="1310" y="-856.5" font-family="Helvetica,sans-Serif" font-size="10.00" fill="#000000">_printer.h</text>
</a>
</g>
</g>
<!-- Node8&#45;&gt;Node226 -->
<g id="edge119" class="edge">
<title>Node8&#45;&gt;Node226</title>
<path fill="none" stroke="#191970" d="M1772.7443,-1120.0172C1637.0693,-1093.6689 1341.4856,-1028.0754 1283,-947 1268.1878,-926.4666 1284.4445,-897.3535 1297.3713,-879.7646"/>
<polygon fill="#191970" stroke="#191970" points="1772.1417,-1123.4654 1782.6234,-1121.9212 1773.4665,-1116.5919 1772.1417,-1123.4654"/>
</g>
<!-- Node230 -->
<g id="node44" class="node">
<title>Node230</title>
<g id="a_node44"><a xlink:href="structural__equal_8h.html" target="_top" xlink:title="Structural equality comparison. ">
<polygon fill="#ffffff" stroke="#ff0000" points="1609.5,-983.5 1609.5,-1013.5 1760.5,-1013.5 1760.5,-983.5 1609.5,-983.5"/>
<text text-anchor="start" x="1617.5" y="-1001.5" font-family="Helvetica,sans-Serif" font-size="10.00" fill="#000000">include/tvm/node/structural</text>
<text text-anchor="middle" x="1685" y="-990.5" font-family="Helvetica,sans-Serif" font-size="10.00" fill="#000000">_equal.h</text>
</a>
</g>
</g>
<!-- Node8&#45;&gt;Node230 -->
<g id="edge120" class="edge">
<title>Node8&#45;&gt;Node230</title>
<path fill="none" stroke="#191970" d="M1812.5493,-1111.0893C1800.7608,-1102.0156 1787.0525,-1091.1988 1775,-1081 1748.3018,-1058.4082 1718.6314,-1030.6664 1700.9112,-1013.7984"/>
<polygon fill="#191970" stroke="#191970" points="1810.673,-1114.0606 1820.7427,-1117.3546 1814.925,-1108.4999 1810.673,-1114.0606"/>
</g>
<!-- Node231 -->
<g id="node45" class="node">
<title>Node231</title>
<g id="a_node45"><a xlink:href="structural__hash_8h.html" target="_top" xlink:title="Structural hash class. ">
<polygon fill="#ffffff" stroke="#ff0000" points="1817.5,-983.5 1817.5,-1013.5 1968.5,-1013.5 1968.5,-983.5 1817.5,-983.5"/>
<text text-anchor="start" x="1825.5" y="-1001.5" font-family="Helvetica,sans-Serif" font-size="10.00" fill="#000000">include/tvm/node/structural</text>
<text text-anchor="middle" x="1893" y="-990.5" font-family="Helvetica,sans-Serif" font-size="10.00" fill="#000000">_hash.h</text>
</a>
</g>
</g>
<!-- Node8&#45;&gt;Node231 -->
<g id="edge123" class="edge">
<title>Node8&#45;&gt;Node231</title>
<path fill="none" stroke="#191970" d="M1850.6215,-1107.706C1861.297,-1080.1962 1878.1869,-1036.6723 1887.0777,-1013.7614"/>
<polygon fill="#191970" stroke="#191970" points="1847.2189,-1106.8001 1846.864,-1117.389 1853.7447,-1109.3325 1847.2189,-1106.8001"/>
</g>
<!-- Node232 -->
<g id="node46" class="node">
<title>Node232</title>
<g id="a_node46"><a xlink:href="metadata__base_8h.html" target="_top" xlink:title="Defines types which can be used in Metadata. ">
<polygon fill="#ffffff" stroke="#ff0000" points="2025,-983.5 2025,-1013.5 2141,-1013.5 2141,-983.5 2025,-983.5"/>
<text text-anchor="start" x="2033" y="-1001.5" font-family="Helvetica,sans-Serif" font-size="10.00" fill="#000000">include/tvm/runtime</text>
<text text-anchor="middle" x="2083" y="-990.5" font-family="Helvetica,sans-Serif" font-size="10.00" fill="#000000">/metadata_base.h</text>
</a>
</g>
</g>
<!-- Node8&#45;&gt;Node232 -->
<g id="edge126" class="edge">
<title>Node8&#45;&gt;Node232</title>
<path fill="none" stroke="#191970" d="M1909.0764,-1121.0082C1941.7568,-1113.2912 1980.3679,-1100.7947 2011,-1081 2038.4629,-1063.2533 2061.5245,-1032.1119 2073.7018,-1013.5861"/>
<polygon fill="#191970" stroke="#191970" points="1908.1231,-1117.6352 1899.14,-1123.2524 1909.6654,-1124.4632 1908.1231,-1117.6352"/>
</g>
<!-- Node234 -->
<g id="node47" class="node">
<title>Node234</title>
<g id="a_node47"><a xlink:href="ndarray_8h.html" target="_top" xlink:title="A device&#45;independent managed NDArray abstraction. ">
<polygon fill="#ffffff" stroke="#ff0000" points="2111,-1050.5 2111,-1080.5 2227,-1080.5 2227,-1050.5 2111,-1050.5"/>
<text text-anchor="start" x="2119" y="-1068.5" font-family="Helvetica,sans-Serif" font-size="10.00" fill="#000000">include/tvm/runtime</text>
<text text-anchor="middle" x="2169" y="-1057.5" font-family="Helvetica,sans-Serif" font-size="10.00" fill="#000000">/ndarray.h</text>
</a>
</g>
</g>
<!-- Node8&#45;&gt;Node234 -->
<g id="edge127" class="edge">
<title>Node8&#45;&gt;Node234</title>
<path fill="none" stroke="#191970" d="M1909.3286,-1118.5426C1968.8913,-1106.3759 2054.3429,-1088.9208 2110.7293,-1077.4029"/>
<polygon fill="#191970" stroke="#191970" points="1908.3591,-1115.1683 1899.2619,-1120.5989 1909.7601,-1122.0267 1908.3591,-1115.1683"/>
</g>
<!-- Node239 -->
<g id="node48" class="node">
<title>Node239</title>
<g id="a_node48"><a xlink:href="packed__func_8h.html" target="_top" xlink:title="Type&#45;erased function used across TVM API. ">
<polygon fill="#ffffff" stroke="#ff0000" points="2660,-983.5 2660,-1013.5 2776,-1013.5 2776,-983.5 2660,-983.5"/>
<text text-anchor="start" x="2668" y="-1001.5" font-family="Helvetica,sans-Serif" font-size="10.00" fill="#000000">include/tvm/runtime</text>
<text text-anchor="middle" x="2718" y="-990.5" font-family="Helvetica,sans-Serif" font-size="10.00" fill="#000000">/packed_func.h</text>
</a>
</g>
</g>
<!-- Node8&#45;&gt;Node239 -->
<g id="edge149" class="edge">
<title>Node8&#45;&gt;Node239</title>
<path fill="none" stroke="#191970" d="M1909.6177,-1124.3955C1988.4975,-1114.8836 2121.7965,-1098.2116 2236,-1081 2389.4176,-1057.8785 2569.4259,-1025.7258 2659.8778,-1009.219"/>
<polygon fill="#191970" stroke="#191970" points="1908.8393,-1120.9637 1899.3288,-1125.6327 1909.6752,-1127.9137 1908.8393,-1120.9637"/>
</g>
<!-- Node250 -->
<g id="node49" class="node">
<title>Node250</title>
<g id="a_node49"><a xlink:href="relax__vm_2bytecode_8h.html" target="_top" xlink:title="The bytecode for the virtual machine. ">
<polygon fill="#ffffff" stroke="#ff0000" points="1292,-916.5 1292,-946.5 1414,-946.5 1414,-916.5 1292,-916.5"/>
<text text-anchor="start" x="1300" y="-934.5" font-family="Helvetica,sans-Serif" font-size="10.00" fill="#000000">include/tvm/runtime</text>
<text text-anchor="middle" x="1353" y="-923.5" font-family="Helvetica,sans-Serif" font-size="10.00" fill="#000000">/relax_vm/bytecode.h</text>
</a>
</g>
</g>
<!-- Node8&#45;&gt;Node250 -->
<g id="edge150" class="edge">
<title>Node8&#45;&gt;Node250</title>
<path fill="none" stroke="#191970" d="M1836.7296,-1106.8907C1829.529,-1072.5111 1811.4726,-1012.367 1770,-983 1707.6329,-938.8374 1503.5115,-958.7477 1428,-947 1423.5331,-946.3051 1418.9298,-945.5213 1414.3051,-944.6846"/>
<polygon fill="#191970" stroke="#191970" points="1833.3645,-1107.9238 1838.7019,-1117.076 1840.2369,-1106.5929 1833.3645,-1107.9238"/>
</g>
<!-- Node251 -->
<g id="node50" class="node">
<title>Node251</title>
<g id="a_node50"><a xlink:href="vm_2bytecode_8h.html" target="_top" xlink:title="The bytecode for Relay virtual machine. ">
<polygon fill="#ffffff" stroke="#ff0000" points="3268,-1050.5 3268,-1080.5 3384,-1080.5 3384,-1050.5 3268,-1050.5"/>
<text text-anchor="start" x="3276" y="-1068.5" font-family="Helvetica,sans-Serif" font-size="10.00" fill="#000000">include/tvm/runtime</text>
<text text-anchor="middle" x="3326" y="-1057.5" font-family="Helvetica,sans-Serif" font-size="10.00" fill="#000000">/vm/bytecode.h</text>
</a>
</g>
</g>
<!-- Node8&#45;&gt;Node251 -->
<g id="edge152" class="edge">
<title>Node8&#45;&gt;Node251</title>
<path fill="none" stroke="#191970" d="M1909.2856,-1131.6006C2154.3625,-1128.1246 2989.1019,-1114.0804 3254,-1081 3258.5676,-1080.4296 3263.2744,-1079.7131 3267.9909,-1078.9029"/>
<polygon fill="#191970" stroke="#191970" points="1909.0432,-1128.1035 1899.0934,-1131.7438 1909.1417,-1135.1028 1909.0432,-1128.1035"/>
</g>
<!-- Node10 -->
<g id="node3" class="node">
<title>Node10</title>
<g id="a_node3"><a xlink:href="ir_2adt_8h.html" target="_top" xlink:title="Algebraic data type definitions. ">
<polygon fill="#ffffff" stroke="#ff0000" points="1266,-542 1266,-561 1378,-561 1378,-542 1266,-542"/>
<text text-anchor="middle" x="1322" y="-549" font-family="Helvetica,sans-Serif" font-size="10.00" fill="#000000">include/tvm/ir/adt.h</text>
</a>
</g>
</g>
<!-- Node9&#45;&gt;Node10 -->
<g id="edge2" class="edge">
<title>Node9&#45;&gt;Node10</title>
<path fill="none" stroke="#191970" d="M633.4755,-678.4133C797.2407,-674.2393 1197.7726,-661.3394 1252,-634 1284.3716,-617.6795 1307.7191,-579.0763 1317.25,-561.0648"/>
<polygon fill="#191970" stroke="#191970" points="632.946,-674.9254 623.0371,-678.6757 633.1219,-681.9232 632.946,-674.9254"/>
</g>
<!-- Node11 -->
<g id="node4" class="node">
<title>Node11</title>
<g id="a_node4"><a xlink:href="ir_2module_8h.html" target="_top" xlink:title="IRModule that holds the functions and type definitions. ">
<polygon fill="#ffffff" stroke="#ff0000" points="1790.5,-475 1790.5,-494 1923.5,-494 1923.5,-475 1790.5,-475"/>
<text text-anchor="middle" x="1857" y="-482" font-family="Helvetica,sans-Serif" font-size="10.00" fill="#000000">include/tvm/ir/module.h</text>
</a>
</g>
</g>
<!-- Node9&#45;&gt;Node11 -->
<g id="edge69" class="edge">
<title>Node9&#45;&gt;Node11</title>
<path fill="none" stroke="#191970" d="M633.2282,-677.044C777.6922,-670.5149 1101.7392,-653.857 1148,-634 1207.8638,-608.3041 1197.2268,-561.9058 1257,-536 1304.9639,-515.2124 1644.1951,-495.4723 1790.3137,-487.8307"/>
<polygon fill="#191970" stroke="#191970" points="632.9765,-673.5516 623.1435,-677.4964 633.2903,-680.5446 632.9765,-673.5516"/>
</g>
<!-- Node128 -->
<g id="node5" class="node">
<title>Node128</title>
<g id="a_node5"><a xlink:href="type__relation_8h.html" target="_top" xlink:title="Type relation and function for type inference(checking). ">
<polygon fill="#ffffff" stroke="#ff0000" points="598.5,-402.5 598.5,-432.5 707.5,-432.5 707.5,-402.5 598.5,-402.5"/>
<text text-anchor="start" x="606.5" y="-420.5" font-family="Helvetica,sans-Serif" font-size="10.00" fill="#000000">include/tvm/ir/type</text>
<text text-anchor="middle" x="653" y="-409.5" font-family="Helvetica,sans-Serif" font-size="10.00" fill="#000000">_relation.h</text>
</a>
</g>
</g>
<!-- Node9&#45;&gt;Node128 -->
<g id="edge72" class="edge">
<title>Node9&#45;&gt;Node128</title>
<path fill="none" stroke="#191970" d="M556.7568,-660.99C547.14,-632.6728 533.2137,-578.2213 550,-536 558.1308,-515.5492 569.3782,-516.4483 584,-500 604.4692,-476.9739 627.2163,-449.3577 640.8017,-432.6338"/>
<polygon fill="#191970" stroke="#191970" points="553.4903,-662.25 560.1585,-670.4833 560.08,-659.8887 553.4903,-662.25"/>
</g>
<!-- Node129 -->
<g id="node6" class="node">
<title>Node129</title>
<g id="a_node6"><a xlink:href="ir_2op_8h.html" target="_top" xlink:title="Primitive operators(builtin intrinsics) and registry for them. ">
<polygon fill="#ffffff" stroke="#ff0000" points="546,-341 546,-360 654,-360 654,-341 546,-341"/>
<text text-anchor="middle" x="600" y="-348" font-family="Helvetica,sans-Serif" font-size="10.00" fill="#000000">include/tvm/ir/op.h</text>
</a>
</g>
</g>
<!-- Node9&#45;&gt;Node129 -->
<g id="edge70" class="edge">
<title>Node9&#45;&gt;Node129</title>
<path fill="none" stroke="#191970" d="M551.8753,-661.7224C547.1821,-653.5929 542.3743,-643.6836 540,-634 529.628,-591.6974 533.215,-579.0238 540,-536 550.9672,-466.4565 583.7221,-387.4622 595.6196,-360.2842"/>
<polygon fill="#191970" stroke="#191970" points="548.9528,-663.6514 557.1792,-670.328 554.9119,-659.9786 548.9528,-663.6514"/>
</g>
<!-- Node134 -->
<g id="node7" class="node">
<title>Node134</title>
<g id="a_node7"><a xlink:href="tir_2op_8h.html" target="_top" xlink:title="Common operators defined for Expr. ">
<polygon fill="#ffffff" stroke="#ff0000" points="19,-274 19,-293 131,-293 131,-274 19,-274"/>
<text text-anchor="middle" x="75" y="-281" font-family="Helvetica,sans-Serif" font-size="10.00" fill="#000000">include/tvm/tir/op.h</text>
</a>
</g>
</g>
<!-- Node9&#45;&gt;Node134 -->
<g id="edge78" class="edge">
<title>Node9&#45;&gt;Node134</title>
<path fill="none" stroke="#191970" d="M494.673,-674.8431C397.6877,-667.1375 226.691,-651.6242 167,-634 87.6033,-610.5575 0,-634.2852 0,-551.5 0,-551.5 0,-551.5 0,-417.5 0,-364.98 44.4134,-313.9397 64.8852,-293.2029"/>
<polygon fill="#191970" stroke="#191970" points="494.4394,-678.3355 504.6834,-675.6317 494.9891,-671.3571 494.4394,-678.3355"/>
</g>
<!-- Node157 -->
<g id="node8" class="node">
<title>Node157</title>
<g id="a_node8"><a xlink:href="relax_2type_8h.html" target="_top" xlink:title="Relax Types. ">
<polygon fill="#ffffff" stroke="#ff0000" points="234,-341 234,-360 370,-360 370,-341 234,-341"/>
<text text-anchor="middle" x="302" y="-348" font-family="Helvetica,sans-Serif" font-size="10.00" fill="#000000">include/tvm/relax/type.h</text>
</a>
</g>
</g>
<!-- Node9&#45;&gt;Node157 -->
<g id="edge73" class="edge">
<title>Node9&#45;&gt;Node157</title>
<path fill="none" stroke="#191970" d="M494.2937,-673.055C415.1627,-664.6149 291.3149,-649.5624 247,-634 191.5505,-614.5274 169.2535,-613.2548 133,-567 105.5777,-532.0127 91.4781,-507.8961 113,-469 146.2817,-408.8505 224.2723,-375.1429 268.973,-360.1264"/>
<polygon fill="#191970" stroke="#191970" points="494.3581,-676.5812 504.6705,-674.1513 495.0936,-669.6199 494.3581,-676.5812"/>
</g>
<!-- Node158 -->
<g id="node9" class="node">
<title>Node158</title>
<g id="a_node9"><a xlink:href="executor_8h.html" target="_top" xlink:title="Object representation of Executor configuration and registry. ">
<polygon fill="#ffffff" stroke="#000000" points="688,-341 688,-360 844,-360 844,-341 688,-341"/>
<text text-anchor="middle" x="766" y="-348" font-family="Helvetica,sans-Serif" font-size="10.00" fill="#000000">include/tvm/relay/executor.h</text>
</a>
</g>
</g>
<!-- Node9&#45;&gt;Node158 -->
<g id="edge75" class="edge">
<title>Node9&#45;&gt;Node158</title>
<path fill="none" stroke="#191970" d="M563.0095,-660.3484C562.4339,-631.1731 564.8447,-575.5945 588,-536 624.8622,-472.9673 667.9047,-487.9435 716,-433 736.6284,-409.4343 753.7992,-376.2759 761.5568,-360.1134"/>
<polygon fill="#191970" stroke="#191970" points="559.5159,-660.5972 563.3551,-670.4719 566.5118,-660.3583 559.5159,-660.5972"/>
</g>
<!-- Node159 -->
<g id="node10" class="node">
<title>Node159</title>
<g id="a_node10"><a xlink:href="relay_2type_8h.html" target="_top" xlink:title="Relay typed AST nodes. ">
<polygon fill="#ffffff" stroke="#ff0000" points="388,-341 388,-360 524,-360 524,-341 388,-341"/>
<text text-anchor="middle" x="456" y="-348" font-family="Helvetica,sans-Serif" font-size="10.00" fill="#000000">include/tvm/relay/type.h</text>
</a>
</g>
</g>
<!-- Node9&#45;&gt;Node159 -->
<g id="edge76" class="edge">
<title>Node9&#45;&gt;Node159</title>
<path fill="none" stroke="#191970" d="M548.1216,-662.3762C541.7315,-654.2899 534.9517,-644.2348 531,-634 504.4113,-565.1369 532.2621,-539.9826 512,-469 499.8206,-426.333 473.7037,-379.911 461.9489,-360.2105"/>
<polygon fill="#191970" stroke="#191970" points="545.6472,-664.8729 554.7505,-670.2932 551.0143,-660.379 545.6472,-664.8729"/>
</g>
<!-- Node160 -->
<g id="node11" class="node">
<title>Node160</title>
<g id="a_node11"><a xlink:href="runtime_8h.html" target="_top" xlink:title="Object representation of Runtime configuration and registry. ">
<polygon fill="#ffffff" stroke="#000000" points="862,-341 862,-360 1014,-360 1014,-341 862,-341"/>
<text text-anchor="middle" x="938" y="-348" font-family="Helvetica,sans-Serif" font-size="10.00" fill="#000000">include/tvm/relay/runtime.h</text>
</a>
</g>
</g>
<!-- Node9&#45;&gt;Node160 -->
<g id="edge77" class="edge">
<title>Node9&#45;&gt;Node160</title>
<path fill="none" stroke="#191970" d="M570.9443,-660.4155C584.1929,-623.3807 612.5145,-545.8897 621,-536 665.221,-484.4614 855.307,-390.269 917.9164,-360.0804"/>
<polygon fill="#191970" stroke="#191970" points="567.5545,-659.5016 567.4951,-670.0963 574.1485,-661.851 567.5545,-659.5016"/>
</g>
<!-- Node177 -->
<g id="node26" class="node">
<title>Node177</title>
<g id="a_node26"><a xlink:href="affine__type_8h.html" target="_top" xlink:title="Quantized Tensor Types. ">
<polygon fill="#ffffff" stroke="#000000" points="630.5,-536.5 630.5,-566.5 745.5,-566.5 745.5,-536.5 630.5,-536.5"/>
<text text-anchor="start" x="638.5" y="-554.5" font-family="Helvetica,sans-Serif" font-size="10.00" fill="#000000">include/tvm/ir/affine</text>
<text text-anchor="middle" x="688" y="-543.5" font-family="Helvetica,sans-Serif" font-size="10.00" fill="#000000">_type.h</text>
</a>
</g>
</g>
<!-- Node9&#45;&gt;Node177 -->
<g id="edge44" class="edge">
<title>Node9&#45;&gt;Node177</title>
<path fill="none" stroke="#191970" d="M583.7264,-663.6015C593.6812,-655.0665 605.7804,-644.2884 616,-634 638.2394,-611.6109 661.911,-583.5688 675.8064,-566.6189"/>
<polygon fill="#191970" stroke="#191970" points="581.3248,-661.0489 575.9571,-670.1833 585.8496,-666.39 581.3248,-661.0489"/>
</g>
<!-- Node178 -->
<g id="node27" class="node">
<title>Node178</title>
<g id="a_node27"><a xlink:href="ir_2expr_8h.html" target="_top" xlink:title="Base expr nodes in TVM. ">
<polygon fill="#ffffff" stroke="#ff0000" points="1022.5,-609 1022.5,-628 1139.5,-628 1139.5,-609 1022.5,-609"/>
<text text-anchor="middle" x="1081" y="-616" font-family="Helvetica,sans-Serif" font-size="10.00" fill="#000000">include/tvm/ir/expr.h</text>
</a>
</g>
</g>
<!-- Node9&#45;&gt;Node178 -->
<g id="edge45" class="edge">
<title>Node9&#45;&gt;Node178</title>
<path fill="none" stroke="#191970" d="M632.9927,-671.7929C735.4781,-659.6017 926.1529,-636.9199 1022.3185,-625.4805"/>
<polygon fill="#191970" stroke="#191970" points="632.5711,-668.3183 623.0546,-672.9751 633.398,-675.2693 632.5711,-668.3183"/>
</g>
<!-- Node205 -->
<g id="node28" class="node">
<title>Node205</title>
<g id="a_node28"><a xlink:href="tensor__type_8h.html" target="_top" xlink:title="Polymorphic tensor types. ">
<polygon fill="#ffffff" stroke="#ff0000" points="262,-469.5 262,-499.5 380,-499.5 380,-469.5 262,-469.5"/>
<text text-anchor="start" x="270" y="-487.5" font-family="Helvetica,sans-Serif" font-size="10.00" fill="#000000">include/tvm/ir/tensor</text>
<text text-anchor="middle" x="321" y="-476.5" font-family="Helvetica,sans-Serif" font-size="10.00" fill="#000000">_type.h</text>
</a>
</g>
</g>
<!-- Node9&#45;&gt;Node205 -->
<g id="edge71" class="edge">
<title>Node9&#45;&gt;Node205</title>
<path fill="none" stroke="#191970" d="M508.945,-667.6806C484.9967,-660.5149 457.5486,-649.7131 436,-634 384.4064,-596.3783 344.6876,-529.3287 328.6886,-499.5115"/>
<polygon fill="#191970" stroke="#191970" points="508.0433,-671.063 518.6198,-670.4387 509.9625,-664.3312 508.0433,-671.063"/>
</g>
<!-- Node219 -->
<g id="node34" class="node">
<title>Node219</title>
<g id="a_node34"><a xlink:href="type__analysis_8h.html" target="_top" xlink:title="Relax type analysis APIs. ">
<polygon fill="#ffffff" stroke="#000000" points="256.5,-603.5 256.5,-633.5 383.5,-633.5 383.5,-603.5 256.5,-603.5"/>
<text text-anchor="start" x="264.5" y="-621.5" font-family="Helvetica,sans-Serif" font-size="10.00" fill="#000000">include/tvm/relax/type</text>
<text text-anchor="middle" x="320" y="-610.5" font-family="Helvetica,sans-Serif" font-size="10.00" fill="#000000">_analysis.h</text>
</a>
</g>
</g>
<!-- Node9&#45;&gt;Node219 -->
<g id="edge74" class="edge">
<title>Node9&#45;&gt;Node219</title>
<path fill="none" stroke="#191970" d="M516.0914,-667.9247C477.0646,-658.088 421.7564,-644.1476 379.8233,-633.5784"/>
<polygon fill="#191970" stroke="#191970" points="515.5905,-671.4078 526.1427,-670.4581 517.3014,-664.6201 515.5905,-671.4078"/>
</g>
<!-- Node10&#45;&gt;Node11 -->
<g id="edge3" class="edge">
<title>Node10&#45;&gt;Node11</title>
<path fill="none" stroke="#191970" d="M1368.7591,-539.6129C1374.871,-538.2762 1381.0685,-537.028 1387,-536 1529.7529,-511.2582 1699.0753,-496.1527 1790.4735,-489.1569"/>
<polygon fill="#191970" stroke="#191970" points="1367.589,-536.2897 1358.6159,-541.923 1369.1434,-543.1149 1367.589,-536.2897"/>
</g>
<!-- Node11&#45;&gt;Node128 -->
<g id="edge4" class="edge">
<title>Node11&#45;&gt;Node128</title>
<path fill="none" stroke="#191970" d="M1780.0507,-480.2179C1554.9949,-467.6941 901.6783,-431.3384 707.8365,-420.5515"/>
<polygon fill="#191970" stroke="#191970" points="1779.9418,-483.7172 1790.1209,-480.7783 1780.3308,-476.728 1779.9418,-483.7172"/>
</g>
<!-- Node11&#45;&gt;Node162 -->
<g id="edge11" class="edge">
<title>Node11&#45;&gt;Node162</title>
<path fill="none" stroke="#191970" d="M1933.7951,-474.2398C1947.8289,-472.4381 1962.3487,-470.6223 1976,-469 2124.6997,-451.3282 2162.7976,-454.4462 2311,-433 2313.8207,-432.5918 2316.6909,-432.1589 2319.5877,-431.707"/>
<polygon fill="#191970" stroke="#191970" points="1933.1508,-470.7939 1923.6816,-475.5463 1934.0477,-477.7362 1933.1508,-470.7939"/>
</g>
<!-- Node40 -->
<g id="node17" class="node">
<title>Node40</title>
<g id="a_node17"><a xlink:href="tune__context_8h.html" target="_top" xlink:title="include/tvm/meta_schedule\l/tune_context.h">
<polygon fill="#ffffff" stroke="#000000" points="1894,-134.5 1894,-164.5 2046,-164.5 2046,-134.5 1894,-134.5"/>
<text text-anchor="start" x="1902" y="-152.5" font-family="Helvetica,sans-Serif" font-size="10.00" fill="#000000">include/tvm/meta_schedule</text>
<text text-anchor="middle" x="1970" y="-141.5" font-family="Helvetica,sans-Serif" font-size="10.00" fill="#000000">/tune_context.h</text>
</a>
</g>
</g>
<!-- Node11&#45;&gt;Node40 -->
<g id="edge43" class="edge">
<title>Node11&#45;&gt;Node40</title>
<path fill="none" stroke="#191970" d="M1860.1053,-464.8785C1864.949,-436.002 1875.2967,-380.5542 1890,-335 1911.1147,-269.5818 1946.7921,-195.5985 1962.3559,-164.5124"/>
<polygon fill="#191970" stroke="#191970" points="1856.6282,-464.4545 1858.47,-474.888 1863.5366,-465.5832 1856.6282,-464.4545"/>
</g>
<!-- Node41 -->
<g id="node18" class="node">
<title>Node41</title>
<g id="a_node18"><a xlink:href="database_8h.html" target="_top" xlink:title="include/tvm/meta_schedule\l/database.h">
<polygon fill="#ffffff" stroke="#ff0000" points="2320,-335.5 2320,-365.5 2472,-365.5 2472,-335.5 2320,-335.5"/>
<text text-anchor="start" x="2328" y="-353.5" font-family="Helvetica,sans-Serif" font-size="10.00" fill="#000000">include/tvm/meta_schedule</text>
<text text-anchor="middle" x="2396" y="-342.5" font-family="Helvetica,sans-Serif" font-size="10.00" fill="#000000">/database.h</text>
</a>
</g>
</g>
<!-- Node11&#45;&gt;Node41 -->
<g id="edge38" class="edge">
<title>Node11&#45;&gt;Node41</title>
<path fill="none" stroke="#191970" d="M1874.0452,-467.7835C1894.9691,-448.3782 1932.4453,-417.1102 1971,-402 2032.7608,-377.795 2215.0205,-362.3064 2319.7127,-355.1469"/>
<polygon fill="#191970" stroke="#191970" points="1871.4734,-465.3988 1866.6239,-474.8186 1876.2892,-470.479 1871.4734,-465.3988"/>
</g>
<!-- Node37 -->
<g id="node22" class="node">
<title>Node37</title>
<g id="a_node22"><a xlink:href="builder_8h.html" target="_top" xlink:title="include/tvm/meta_schedule\l/builder.h">
<polygon fill="#ffffff" stroke="#000000" points="2979,-402.5 2979,-432.5 3131,-432.5 3131,-402.5 2979,-402.5"/>
<text text-anchor="start" x="2987" y="-420.5" font-family="Helvetica,sans-Serif" font-size="10.00" fill="#000000">include/tvm/meta_schedule</text>
<text text-anchor="middle" x="3055" y="-409.5" font-family="Helvetica,sans-Serif" font-size="10.00" fill="#000000">/builder.h</text>
</a>
</g>
</g>
<!-- Node11&#45;&gt;Node37 -->
<g id="edge34" class="edge">
<title>Node11&#45;&gt;Node37</title>
<path fill="none" stroke="#191970" d="M1933.5375,-480.2195C2149.7366,-468.1283 2763.2946,-433.8141 2978.9254,-421.7546"/>
<polygon fill="#191970" stroke="#191970" points="1933.3347,-476.7253 1923.5458,-480.7783 1933.7257,-483.7144 1933.3347,-476.7253"/>
</g>
<!-- Node43 -->
<g id="node23" class="node">
<title>Node43</title>
<g id="a_node23"><a xlink:href="extracted__task_8h.html" target="_top" xlink:title="include/tvm/meta_schedule\l/extracted_task.h">
<polygon fill="#ffffff" stroke="#000000" points="1696,-402.5 1696,-432.5 1848,-432.5 1848,-402.5 1696,-402.5"/>
<text text-anchor="start" x="1704" y="-420.5" font-family="Helvetica,sans-Serif" font-size="10.00" fill="#000000">include/tvm/meta_schedule</text>
<text text-anchor="middle" x="1772" y="-409.5" font-family="Helvetica,sans-Serif" font-size="10.00" fill="#000000">/extracted_task.h</text>
</a>
</g>
</g>
<!-- Node11&#45;&gt;Node43 -->
<g id="edge39" class="edge">
<title>Node11&#45;&gt;Node43</title>
<path fill="none" stroke="#191970" d="M1836.8429,-468.6115C1822.9778,-457.6825 1804.6796,-443.2592 1791.0575,-432.5218"/>
<polygon fill="#191970" stroke="#191970" points="1834.8013,-471.4588 1844.8216,-474.9005 1839.1347,-465.9613 1834.8013,-471.4588"/>
</g>
<!-- Node44 -->
<g id="node24" class="node">
<title>Node44</title>
<g id="a_node24"><a xlink:href="profiler_8h.html" target="_top" xlink:title="include/tvm/meta_schedule\l/profiler.h">
<polygon fill="#ffffff" stroke="#000000" points="2150,-402.5 2150,-432.5 2302,-432.5 2302,-402.5 2150,-402.5"/>
<text text-anchor="start" x="2158" y="-420.5" font-family="Helvetica,sans-Serif" font-size="10.00" fill="#000000">include/tvm/meta_schedule</text>
<text text-anchor="middle" x="2226" y="-409.5" font-family="Helvetica,sans-Serif" font-size="10.00" fill="#000000">/profiler.h</text>
</a>
</g>
</g>
<!-- Node11&#45;&gt;Node44 -->
<g id="edge40" class="edge">
<title>Node11&#45;&gt;Node44</title>
<path fill="none" stroke="#191970" d="M1919.6383,-473.1595C1977.186,-462.7364 2064.842,-446.849 2141,-433 2143.8041,-432.4901 2146.6601,-431.9705 2149.545,-431.4455"/>
<polygon fill="#191970" stroke="#191970" points="1918.8234,-469.7501 1909.6072,-474.9763 1920.0709,-476.638 1918.8234,-469.7501"/>
</g>
<!-- Node45 -->
<g id="node25" class="node">
<title>Node45</title>
<g id="a_node25"><a xlink:href="space__generator_8h.html" target="_top" xlink:title="include/tvm/meta_schedule\l/space_generator.h">
<polygon fill="#ffffff" stroke="#000000" points="1980,-402.5 1980,-432.5 2132,-432.5 2132,-402.5 1980,-402.5"/>
<text text-anchor="start" x="1988" y="-420.5" font-family="Helvetica,sans-Serif" font-size="10.00" fill="#000000">include/tvm/meta_schedule</text>
<text text-anchor="middle" x="2056" y="-409.5" font-family="Helvetica,sans-Serif" font-size="10.00" fill="#000000">/space_generator.h</text>
</a>
</g>
</g>
<!-- Node11&#45;&gt;Node45 -->
<g id="edge41" class="edge">
<title>Node11&#45;&gt;Node45</title>
<path fill="none" stroke="#191970" d="M1895.2994,-471.6052C1928.4716,-460.4367 1976.4825,-444.2722 2011.3831,-432.5218"/>
<polygon fill="#191970" stroke="#191970" points="1893.8723,-468.3926 1885.5118,-474.9005 1896.1059,-475.0267 1893.8723,-468.3926"/>
</g>
<!-- Node128&#45;&gt;Node129 -->
<g id="edge5" class="edge">
<title>Node128&#45;&gt;Node129</title>
<path fill="none" stroke="#191970" d="M634.5564,-394.1845C625.2897,-382.47 614.5706,-368.9195 607.5584,-360.055"/>
<polygon fill="#191970" stroke="#191970" points="632.0244,-396.6252 640.9735,-402.2967 637.5144,-392.2824 632.0244,-396.6252"/>
</g>
<!-- Node128&#45;&gt;Node157 -->
<g id="edge7" class="edge">
<title>Node128&#45;&gt;Node157</title>
<path fill="none" stroke="#191970" d="M588.3208,-405.5855C532.77,-395.2946 450.5634,-379.9276 379,-366 369.2289,-364.0984 358.7692,-362.0209 348.8081,-360.0225"/>
<polygon fill="#191970" stroke="#191970" points="587.9046,-409.0678 598.3746,-407.4465 589.1787,-402.1848 587.9046,-409.0678"/>
</g>
<!-- Node128&#45;&gt;Node158 -->
<g id="edge8" class="edge">
<title>Node128&#45;&gt;Node158</title>
<path fill="none" stroke="#191970" d="M687.2199,-397.2103C707.989,-384.8959 733.5408,-369.7457 749.8023,-360.1039"/>
<polygon fill="#191970" stroke="#191970" points="685.176,-394.3531 678.3594,-402.4639 688.7462,-400.3743 685.176,-394.3531"/>
</g>
<!-- Node128&#45;&gt;Node159 -->
<g id="edge9" class="edge">
<title>Node128&#45;&gt;Node159</title>
<path fill="none" stroke="#191970" d="M599.0816,-399.1623C561.8294,-386.4928 513.7954,-370.1563 483.9484,-360.0053"/>
<polygon fill="#191970" stroke="#191970" points="598.1949,-402.5575 608.7894,-402.4639 600.4489,-395.9303 598.1949,-402.5575"/>
</g>
<!-- Node128&#45;&gt;Node160 -->
<g id="edge10" class="edge">
<title>Node128&#45;&gt;Node160</title>
<path fill="none" stroke="#191970" d="M717.6458,-402.3026C772.8422,-389.3266 850.5252,-371.0642 897.3882,-360.0473"/>
<polygon fill="#191970" stroke="#191970" points="716.5473,-398.9653 707.6137,-404.661 718.1493,-405.7796 716.5473,-398.9653"/>
</g>
<!-- Node129&#45;&gt;Node134 -->
<g id="edge6" class="edge">
<title>Node129&#45;&gt;Node134</title>
<path fill="none" stroke="#191970" d="M552.2483,-338.7456C545.8016,-337.3664 539.2553,-336.0716 533,-335 389.2664,-310.3775 218.0604,-294.7119 131.3453,-287.7293"/>
<polygon fill="#191970" stroke="#191970" points="551.7201,-342.2135 562.2408,-340.9624 553.2362,-335.3796 551.7201,-342.2135"/>
</g>
<!-- Node163 -->
<g id="node13" class="node">
<title>Node163</title>
<g id="a_node13"><a xlink:href="meta__schedule_2cost__model_8h.html" target="_top" xlink:title="include/tvm/meta_schedule\l/cost_model.h">
<polygon fill="#ffffff" stroke="#000000" points="2074,-268.5 2074,-298.5 2226,-298.5 2226,-268.5 2074,-268.5"/>
<text text-anchor="start" x="2082" y="-286.5" font-family="Helvetica,sans-Serif" font-size="10.00" fill="#000000">include/tvm/meta_schedule</text>
<text text-anchor="middle" x="2150" y="-275.5" font-family="Helvetica,sans-Serif" font-size="10.00" fill="#000000">/cost_model.h</text>
</a>
</g>
</g>
<!-- Node162&#45;&gt;Node163 -->
<g id="edge12" class="edge">
<title>Node162&#45;&gt;Node163</title>
<path fill="none" stroke="#191970" d="M2347.9045,-398.5763C2326.169,-389.5017 2300.3954,-378.0037 2278,-366 2238.8526,-345.0175 2195.9612,-316.0448 2171.0991,-298.6054"/>
<polygon fill="#191970" stroke="#191970" points="2346.6856,-401.8596 2357.2646,-402.4395 2349.3563,-395.389 2346.6856,-401.8596"/>
</g>
<!-- Node42 -->
<g id="node14" class="node">
<title>Node42</title>
<g id="a_node14"><a xlink:href="search__strategy_8h.html" target="_top" xlink:title="include/tvm/meta_schedule\l/search_strategy.h">
<polygon fill="#ffffff" stroke="#000000" points="2320,-201.5 2320,-231.5 2472,-231.5 2472,-201.5 2320,-201.5"/>
<text text-anchor="start" x="2328" y="-219.5" font-family="Helvetica,sans-Serif" font-size="10.00" fill="#000000">include/tvm/meta_schedule</text>
<text text-anchor="middle" x="2396" y="-208.5" font-family="Helvetica,sans-Serif" font-size="10.00" fill="#000000">/search_strategy.h</text>
</a>
</g>
</g>
<!-- Node162&#45;&gt;Node42 -->
<g id="edge33" class="edge">
<title>Node162&#45;&gt;Node42</title>
<path fill="none" stroke="#191970" d="M2344.8489,-397.7472C2331.4568,-389.9655 2318.6417,-379.5649 2311,-366 2304.2376,-353.996 2306.7823,-348.1163 2311,-335 2324.641,-292.5792 2359.7014,-252.4772 2380.282,-231.5562"/>
<polygon fill="#191970" stroke="#191970" points="2343.2179,-400.8441 2353.6841,-402.4897 2346.5285,-394.6764 2343.2179,-400.8441"/>
</g>
<!-- Node162&#45;&gt;Node41 -->
<g id="edge20" class="edge">
<title>Node162&#45;&gt;Node41</title>
<path fill="none" stroke="#191970" d="M2396,-392.0249C2396,-383.128 2396,-373.4287 2396,-365.6432"/>
<polygon fill="#191970" stroke="#191970" points="2392.5001,-392.2966 2396,-402.2967 2399.5001,-392.2967 2392.5001,-392.2966"/>
</g>
<!-- Node164 -->
<g id="node19" class="node">
<title>Node164</title>
<g id="a_node19"><a xlink:href="measure__candidate_8h.html" target="_top" xlink:title="include/tvm/meta_schedule\l/measure_candidate.h">
<polygon fill="#ffffff" stroke="#000000" points="2528,-335.5 2528,-365.5 2680,-365.5 2680,-335.5 2528,-335.5"/>
<text text-anchor="start" x="2536" y="-353.5" font-family="Helvetica,sans-Serif" font-size="10.00" fill="#000000">include/tvm/meta_schedule</text>
<text text-anchor="middle" x="2604" y="-342.5" font-family="Helvetica,sans-Serif" font-size="10.00" fill="#000000">/measure_candidate.h</text>
</a>
</g>
</g>
<!-- Node162&#45;&gt;Node164 -->
<g id="edge22" class="edge">
<title>Node162&#45;&gt;Node164</title>
<path fill="none" stroke="#191970" d="M2452.5763,-399.2759C2485.3577,-388.7165 2526.1382,-375.5805 2557.1171,-365.6017"/>
<polygon fill="#191970" stroke="#191970" points="2451.1245,-396.0664 2442.6793,-402.4639 2453.2708,-402.7292 2451.1245,-396.0664"/>
</g>
<!-- Node166 -->
<g id="node21" class="node">
<title>Node166</title>
<g id="a_node21"><a xlink:href="runner_8h.html" target="_top" xlink:title="include/tvm/meta_schedule\l/runner.h">
<polygon fill="#ffffff" stroke="#000000" points="1899,-335.5 1899,-365.5 2051,-365.5 2051,-335.5 1899,-335.5"/>
<text text-anchor="start" x="1907" y="-353.5" font-family="Helvetica,sans-Serif" font-size="10.00" fill="#000000">include/tvm/meta_schedule</text>
<text text-anchor="middle" x="1975" y="-342.5" font-family="Helvetica,sans-Serif" font-size="10.00" fill="#000000">/runner.h</text>
</a>
</g>
</g>
<!-- Node162&#45;&gt;Node166 -->
<g id="edge27" class="edge">
<title>Node162&#45;&gt;Node166</title>
<path fill="none" stroke="#191970" d="M2309.5374,-401.7782C2214.9772,-386.008 2116.9977,-371.2393 2051.1619,-361.5463"/>
<polygon fill="#191970" stroke="#191970" points="2309.1216,-405.2572 2319.5622,-403.456 2310.2772,-398.3532 2309.1216,-405.2572"/>
</g>
<!-- Node163&#45;&gt;Node42 -->
<g id="edge13" class="edge">
<title>Node163&#45;&gt;Node42</title>
<path fill="none" stroke="#191970" d="M2214.9155,-265.8198C2254.016,-255.1704 2303.2817,-241.7525 2340.552,-231.6017"/>
<polygon fill="#191970" stroke="#191970" points="2213.936,-262.459 2205.2072,-268.4639 2215.7755,-269.213 2213.936,-262.459"/>
</g>
<!-- Node39 -->
<g id="node16" class="node">
<title>Node39</title>
<g id="a_node16"><a xlink:href="task__scheduler_8h.html" target="_top" xlink:title="include/tvm/meta_schedule\l/task_scheduler.h">
<polygon fill="#ffffff" stroke="#000000" points="2515,-.5 2515,-30.5 2667,-30.5 2667,-.5 2515,-.5"/>
<text text-anchor="start" x="2523" y="-18.5" font-family="Helvetica,sans-Serif" font-size="10.00" fill="#000000">include/tvm/meta_schedule</text>
<text text-anchor="middle" x="2591" y="-7.5" font-family="Helvetica,sans-Serif" font-size="10.00" fill="#000000">/task_scheduler.h</text>
</a>
</g>
</g>
<!-- Node163&#45;&gt;Node39 -->
<g id="edge19" class="edge">
<title>Node163&#45;&gt;Node39</title>
<path fill="none" stroke="#191970" d="M2063.8528,-268.3259C1966.1871,-247.3982 1827.5301,-204.102 1885,-134 1924.7421,-85.5225 2340.3259,-39.8559 2514.6773,-22.6782"/>
<polygon fill="#191970" stroke="#191970" points="2063.2552,-271.7767 2073.7607,-270.4032 2064.6916,-264.9256 2063.2552,-271.7767"/>
</g>
<!-- Node38 -->
<g id="node15" class="node">
<title>Node38</title>
<g id="a_node15"><a xlink:href="measure__callback_8h.html" target="_top" xlink:title="include/tvm/meta_schedule\l/measure_callback.h">
<polygon fill="#ffffff" stroke="#000000" points="2515,-67.5 2515,-97.5 2667,-97.5 2667,-67.5 2515,-67.5"/>
<text text-anchor="start" x="2523" y="-85.5" font-family="Helvetica,sans-Serif" font-size="10.00" fill="#000000">include/tvm/meta_schedule</text>
<text text-anchor="middle" x="2591" y="-74.5" font-family="Helvetica,sans-Serif" font-size="10.00" fill="#000000">/measure_callback.h</text>
</a>
</g>
</g>
<!-- Node42&#45;&gt;Node38 -->
<g id="edge14" class="edge">
<title>Node42&#45;&gt;Node38</title>
<path fill="none" stroke="#191970" d="M2426.4551,-195.5719C2466.0452,-168.3664 2534.231,-121.5105 2569.0904,-97.5558"/>
<polygon fill="#191970" stroke="#191970" points="2424.2494,-192.8409 2417.9899,-201.389 2428.2138,-198.61 2424.2494,-192.8409"/>
</g>
<!-- Node42&#45;&gt;Node40 -->
<g id="edge16" class="edge">
<title>Node42&#45;&gt;Node40</title>
<path fill="none" stroke="#191970" d="M2309.6508,-202.9193C2232.3893,-190.7678 2120.2171,-173.1257 2046.2179,-161.4873"/>
<polygon fill="#191970" stroke="#191970" points="2309.4174,-206.4255 2319.8397,-204.5217 2310.505,-199.5105 2309.4174,-206.4255"/>
</g>
<!-- Node38&#45;&gt;Node39 -->
<g id="edge15" class="edge">
<title>Node38&#45;&gt;Node39</title>
<path fill="none" stroke="#191970" d="M2591,-57.0249C2591,-48.128 2591,-38.4287 2591,-30.6432"/>
<polygon fill="#191970" stroke="#191970" points="2587.5001,-57.2966 2591,-67.2967 2594.5001,-57.2967 2587.5001,-57.2966"/>
</g>
<!-- Node40&#45;&gt;Node38 -->
<g id="edge17" class="edge">
<title>Node40&#45;&gt;Node38</title>
<path fill="none" stroke="#191970" d="M2056.1279,-134.5306C2057.427,-134.3493 2058.7184,-134.1723 2060,-134 2221.3288,-112.3146 2411.4136,-96.1315 2514.7344,-88.1165"/>
<polygon fill="#191970" stroke="#191970" points="2055.44,-131.0938 2046.0478,-135.9965 2056.4474,-138.0209 2055.44,-131.0938"/>
</g>
<!-- Node40&#45;&gt;Node39 -->
<g id="edge18" class="edge">
<title>Node40&#45;&gt;Node39</title>
<path fill="none" stroke="#191970" d="M2049.7986,-132.281C2172.3478,-105.8372 2404.878,-55.6616 2521.1473,-30.5729"/>
<polygon fill="#191970" stroke="#191970" points="2048.7657,-128.9232 2039.729,-134.4538 2050.2422,-135.7657 2048.7657,-128.9232"/>
</g>
<!-- Node41&#45;&gt;Node42 -->
<g id="edge21" class="edge">
<title>Node41&#45;&gt;Node42</title>
<path fill="none" stroke="#191970" d="M2396,-325.3415C2396,-297.8131 2396,-254.5714 2396,-231.7614"/>
<polygon fill="#191970" stroke="#191970" points="2392.5001,-325.3889 2396,-335.389 2399.5001,-325.389 2392.5001,-325.3889"/>
</g>
<!-- Node164&#45;&gt;Node163 -->
<g id="edge23" class="edge">
<title>Node164&#45;&gt;Node163</title>
<path fill="none" stroke="#191970" d="M2517.7049,-337.7648C2433.5144,-325.3402 2306.6869,-306.6234 2226.1473,-294.7376"/>
<polygon fill="#191970" stroke="#191970" points="2517.3508,-341.2504 2527.7547,-339.2479 2518.3729,-334.3254 2517.3508,-341.2504"/>
</g>
<!-- Node164&#45;&gt;Node42 -->
<g id="edge26" class="edge">
<title>Node164&#45;&gt;Node42</title>
<path fill="none" stroke="#191970" d="M2583.2993,-327.762C2566.0652,-309.8127 2540.1937,-285.0393 2514,-268 2490.8602,-252.9473 2462.5844,-240.4325 2439.5135,-231.5101"/>
<polygon fill="#191970" stroke="#191970" points="2581.1709,-330.6061 2590.5799,-335.4765 2586.2617,-325.8016 2581.1709,-330.6061"/>
</g>
<!-- Node164&#45;&gt;Node38 -->
<g id="edge25" class="edge">
<title>Node164&#45;&gt;Node38</title>
<path fill="none" stroke="#191970" d="M2602.7655,-325.0511C2600.0966,-270.0306 2593.8584,-141.4277 2591.7281,-97.5103"/>
<polygon fill="#191970" stroke="#191970" points="2599.2833,-325.5046 2603.2638,-335.3233 2606.2751,-325.1654 2599.2833,-325.5046"/>
</g>
<!-- Node165 -->
<g id="node20" class="node">
<title>Node165</title>
<g id="a_node20"><a xlink:href="feature__extractor_8h.html" target="_top" xlink:title="include/tvm/meta_schedule\l/feature_extractor.h">
<polygon fill="#ffffff" stroke="#000000" points="2619,-268.5 2619,-298.5 2771,-298.5 2771,-268.5 2619,-268.5"/>
<text text-anchor="start" x="2627" y="-286.5" font-family="Helvetica,sans-Serif" font-size="10.00" fill="#000000">include/tvm/meta_schedule</text>
<text text-anchor="middle" x="2695" y="-275.5" font-family="Helvetica,sans-Serif" font-size="10.00" fill="#000000">/feature_extractor.h</text>
</a>
</g>
</g>
<!-- Node164&#45;&gt;Node165 -->
<g id="edge24" class="edge">
<title>Node164&#45;&gt;Node165</title>
<path fill="none" stroke="#191970" d="M2632.7303,-329.3469C2646.2708,-319.3776 2662.115,-307.7121 2674.4324,-298.6432"/>
<polygon fill="#191970" stroke="#191970" points="2630.627,-326.5492 2624.6493,-335.2967 2634.7773,-332.1861 2630.627,-326.5492"/>
</g>
<!-- Node166&#45;&gt;Node163 -->
<g id="edge28" class="edge">
<title>Node166&#45;&gt;Node163</title>
<path fill="none" stroke="#191970" d="M2023.6735,-331.865C2051.0667,-321.3773 2084.8283,-308.4515 2110.5553,-298.6017"/>
<polygon fill="#191970" stroke="#191970" points="2022.3609,-328.6197 2014.2734,-335.4639 2024.8638,-335.157 2022.3609,-328.6197"/>
</g>
<!-- Node166&#45;&gt;Node42 -->
<g id="edge30" class="edge">
<title>Node166&#45;&gt;Node42</title>
<path fill="none" stroke="#191970" d="M1996.6238,-327.9095C2017.9833,-306.1239 2049.6204,-275.3941 2065,-268 2108.7655,-246.9587 2236.2885,-231.4538 2319.6672,-223.2161"/>
<polygon fill="#191970" stroke="#191970" points="1994.0057,-325.5813 1989.5408,-335.1894 1999.0229,-330.4628 1994.0057,-325.5813"/>
</g>
<!-- Node166&#45;&gt;Node38 -->
<g id="edge29" class="edge">
<title>Node166&#45;&gt;Node38</title>
<path fill="none" stroke="#191970" d="M1983.6874,-325.9857C1991.3735,-307.6074 2004.297,-283.1169 2023,-268 2170.6418,-148.6667 2397.4509,-105.1519 2514.7975,-90.0384"/>
<polygon fill="#191970" stroke="#191970" points="1980.3606,-324.8817 1979.9527,-335.4687 1986.8737,-327.4468 1980.3606,-324.8817"/>
</g>
<!-- Node166&#45;&gt;Node39 -->
<g id="edge31" class="edge">
<title>Node166&#45;&gt;Node39</title>
<path fill="none" stroke="#191970" d="M1888.5856,-340.7182C1765.3872,-324.3285 1554,-286.07 1554,-216.5 1554,-216.5 1554,-216.5 1554,-149.5 1554,-52.6075 2275.2645,-24.1277 2514.7469,-17.3419"/>
<polygon fill="#191970" stroke="#191970" points="1888.3906,-344.2224 1898.7601,-342.0488 1889.2984,-337.2815 1888.3906,-344.2224"/>
</g>
<!-- Node166&#45;&gt;Node40 -->
<g id="edge32" class="edge">
<title>Node166&#45;&gt;Node40</title>
<path fill="none" stroke="#191970" d="M1974.3743,-325.348C1973.321,-283.0061 1971.2255,-198.7637 1970.3734,-164.5088"/>
<polygon fill="#191970" stroke="#191970" points="1970.8765,-325.4825 1974.6242,-335.3923 1977.8743,-325.3084 1970.8765,-325.4825"/>
</g>
<!-- Node37&#45;&gt;Node38 -->
<g id="edge35" class="edge">
<title>Node37&#45;&gt;Node38</title>
<path fill="none" stroke="#191970" d="M3044.9981,-392.4819C3035.2864,-365.8984 3022,-322.4183 3022,-283.5 3022,-283.5 3022,-283.5 3022,-216.5 3022,-171.9329 3002.9591,-157.3523 2965,-134 2916.5717,-104.2071 2761.9993,-91.1423 2667.4021,-85.8159"/>
<polygon fill="#191970" stroke="#191970" points="3041.8318,-394.0048 3048.6373,-402.1249 3048.381,-391.5332 3041.8318,-394.0048"/>
</g>
<!-- Node37&#45;&gt;Node39 -->
<g id="edge36" class="edge">
<title>Node37&#45;&gt;Node39</title>
<path fill="none" stroke="#191970" d="M3086.3709,-396.171C3116.9907,-372.5507 3159,-331.4136 3159,-283.5 3159,-283.5 3159,-283.5 3159,-149.5 3159,-49.575 2821.7885,-24.0826 2667.0136,-17.6446"/>
<polygon fill="#191970" stroke="#191970" points="3084.0005,-393.5728 3078.081,-402.3597 3088.1881,-399.1821 3084.0005,-393.5728"/>
</g>
<!-- Node37&#45;&gt;Node40 -->
<g id="edge37" class="edge">
<title>Node37&#45;&gt;Node40</title>
<path fill="none" stroke="#191970" d="M3033.2787,-394.8347C3025.1194,-386.0307 3015.9107,-375.7369 3008,-366 2950.9869,-295.8251 2968.3049,-244.4252 2889,-201 2815.9845,-161.0187 2252.96,-152.0034 2046.0023,-150.0328"/>
<polygon fill="#191970" stroke="#191970" points="3030.7285,-397.232 3040.1198,-402.1366 3035.8368,-392.446 3030.7285,-397.232"/>
</g>
<!-- Node45&#45;&gt;Node40 -->
<g id="edge42" class="edge">
<title>Node45&#45;&gt;Node40</title>
<path fill="none" stroke="#191970" d="M2112.5435,-398.975C2178.2318,-374.2515 2273.0484,-326.6934 2235,-268 2193.6047,-204.1438 2108.8453,-174.3899 2046.2799,-160.7249"/>
<polygon fill="#191970" stroke="#191970" points="2111.2591,-395.7181 2103.0825,-402.4556 2113.676,-402.2876 2111.2591,-395.7181"/>
</g>
<!-- Node178&#45;&gt;Node10 -->
<g id="edge46" class="edge">
<title>Node178&#45;&gt;Node10</title>
<path fill="none" stroke="#191970" d="M1125.1203,-606.2342C1171.8684,-593.2378 1244.7101,-572.9872 1287.4546,-561.1039"/>
<polygon fill="#191970" stroke="#191970" points="1123.9706,-602.921 1115.2735,-608.9717 1125.8456,-609.6652 1123.9706,-602.921"/>
</g>
<!-- Node178&#45;&gt;Node11 -->
<g id="edge48" class="edge">
<title>Node178&#45;&gt;Node11</title>
<path fill="none" stroke="#191970" d="M1108.8618,-604.1173C1127.9643,-594.0814 1153.7727,-580.1761 1176,-567 1197.8458,-554.0501 1199.9526,-544.1646 1224,-536 1276.5942,-518.1431 1638.5632,-496.4905 1790.2991,-488.0805"/>
<polygon fill="#191970" stroke="#191970" points="1107.0457,-601.1172 1099.8036,-608.8505 1110.2875,-607.3213 1107.0457,-601.1172"/>
</g>
<!-- Node178&#45;&gt;Node129 -->
<g id="edge49" class="edge">
<title>Node178&#45;&gt;Node129</title>
<path fill="none" stroke="#191970" d="M1062.8333,-602.283C1037.6131,-579.838 994.1599,-541.4385 986,-536 860.0981,-452.0866 690.4468,-384.3648 626.1584,-360.1174"/>
<polygon fill="#191970" stroke="#191970" points="1060.5185,-604.9083 1070.3131,-608.9477 1065.1753,-599.682 1060.5185,-604.9083"/>
</g>
<!-- Node178&#45;&gt;Node134 -->
<g id="edge66" class="edge">
<title>Node178&#45;&gt;Node134</title>
<path fill="none" stroke="#191970" d="M1017.0738,-606.6356C983.6624,-598.651 942.9768,-586.028 910,-567 892.5703,-556.9429 895.5297,-543.8478 877,-536 798.746,-502.8574 176.7749,-556.1684 113,-500 50.8558,-445.2677 66.7616,-327.7639 73.0502,-293.2323"/>
<polygon fill="#191970" stroke="#191970" points="1016.6622,-610.1323 1027.1927,-608.9666 1018.2336,-603.311 1016.6622,-610.1323"/>
</g>
<!-- Node178&#45;&gt;Node158 -->
<g id="edge59" class="edge">
<title>Node178&#45;&gt;Node158</title>
<path fill="none" stroke="#191970" d="M1070.7633,-600.0437C1060.4158,-582.382 1043.2399,-555.6042 1024,-536 944.7846,-455.2844 826.995,-384.8879 783.2071,-360.0427"/>
<polygon fill="#191970" stroke="#191970" points="1067.7765,-601.8713 1075.7792,-608.8144 1073.853,-598.3962 1067.7765,-601.8713"/>
</g>
<!-- Node178&#45;&gt;Node160 -->
<g id="edge60" class="edge">
<title>Node178&#45;&gt;Node160</title>
<path fill="none" stroke="#191970" d="M1078.5573,-599.0648C1075.9354,-581.9398 1070.8938,-556.5867 1062,-536 1030.1986,-462.389 968.7519,-386.5364 946.3944,-360.196"/>
<polygon fill="#191970" stroke="#191970" points="1075.095,-599.5789 1079.947,-608.9974 1082.0275,-598.6089 1075.095,-599.5789"/>
</g>
<!-- Node178&#45;&gt;Node40 -->
<g id="edge57" class="edge">
<title>Node178&#45;&gt;Node40</title>
<path fill="none" stroke="#191970" d="M1091.2117,-599.5428C1103.9285,-574.1228 1124,-527.2327 1124,-484.5 1124,-484.5 1124,-484.5 1124,-283.5 1124,-205.9405 1685.8536,-165.8006 1893.8052,-153.6002"/>
<polygon fill="#191970" stroke="#191970" points="1087.9299,-598.2696 1086.446,-608.76 1094.1479,-601.4846 1087.9299,-598.2696"/>
</g>
<!-- Node178&#45;&gt;Node41 -->
<g id="edge53" class="edge">
<title>Node178&#45;&gt;Node41</title>
<path fill="none" stroke="#191970" d="M1149.7664,-611.2482C1238.4286,-601.7643 1397.3508,-584.3116 1533,-567 1638.5245,-553.5329 2411.24,-513.314 2481,-433 2502.8467,-407.8481 2463.0053,-381.4918 2430.8012,-365.5276"/>
<polygon fill="#191970" stroke="#191970" points="1149.1431,-607.7947 1139.5712,-612.3367 1149.8863,-614.7552 1149.1431,-607.7947"/>
</g>
<!-- Node178&#45;&gt;Node166 -->
<g id="edge54" class="edge">
<title>Node178&#45;&gt;Node166</title>
<path fill="none" stroke="#191970" d="M1099.071,-602.128C1124.1732,-579.492 1167.4823,-540.8591 1176,-536 1415.6553,-399.2845 1750.2188,-363.2569 1898.7559,-353.8195"/>
<polygon fill="#191970" stroke="#191970" points="1096.702,-599.5514 1091.6279,-608.8522 1101.3946,-604.7457 1096.702,-599.5514"/>
</g>
<!-- Node178&#45;&gt;Node177 -->
<g id="edge47" class="edge">
<title>Node178&#45;&gt;Node177</title>
<path fill="none" stroke="#191970" d="M1012.1867,-609.0707C946.0376,-599.6666 843.3602,-584.1779 755,-567 751.9529,-566.4076 748.8336,-565.7757 745.6882,-565.1183"/>
<polygon fill="#191970" stroke="#191970" points="1012.0901,-612.5918 1022.4817,-610.527 1013.0706,-605.6608 1012.0901,-612.5918"/>
</g>
<!-- Node178&#45;&gt;Node205 -->
<g id="edge50" class="edge">
<title>Node178&#45;&gt;Node205</title>
<path fill="none" stroke="#191970" d="M1056.1626,-603.7073C1039.1514,-593.5132 1016.1168,-579.5867 996,-567 974.4711,-553.5298 972.1154,-543.9615 948,-536 829.7957,-496.9757 512.1874,-517.8893 389,-500 386.1242,-499.5824 383.1899,-499.1068 380.2334,-498.5879"/>
<polygon fill="#191970" stroke="#191970" points="1054.558,-606.8258 1064.9368,-608.9544 1058.1507,-600.8181 1054.558,-606.8258"/>
</g>
<!-- Node176 -->
<g id="node29" class="node">
<title>Node176</title>
<g id="a_node29"><a xlink:href="schedule__rule_8h.html" target="_top" xlink:title="include/tvm/meta_schedule\l/schedule_rule.h">
<polygon fill="#ffffff" stroke="#000000" points="1960,-536.5 1960,-566.5 2112,-566.5 2112,-536.5 1960,-536.5"/>
<text text-anchor="start" x="1968" y="-554.5" font-family="Helvetica,sans-Serif" font-size="10.00" fill="#000000">include/tvm/meta_schedule</text>
<text text-anchor="middle" x="2036" y="-543.5" font-family="Helvetica,sans-Serif" font-size="10.00" fill="#000000">/schedule_rule.h</text>
</a>
</g>
</g>
<!-- Node178&#45;&gt;Node176 -->
<g id="edge55" class="edge">
<title>Node178&#45;&gt;Node176</title>
<path fill="none" stroke="#191970" d="M1149.6937,-613.6806C1323.2784,-601.5025 1778.5673,-569.5607 1959.891,-556.8396"/>
<polygon fill="#191970" stroke="#191970" points="1149.3904,-610.1932 1139.6599,-614.3846 1149.8804,-617.1761 1149.3904,-610.1932"/>
</g>
<!-- Node206 -->
<g id="node30" class="node">
<title>Node206</title>
<g id="a_node30"><a xlink:href="exec__builder_8h.html" target="_top" xlink:title="include/tvm/relax/exec\l_builder.h">
<polygon fill="#ffffff" stroke="#000000" points="1396,-536.5 1396,-566.5 1524,-566.5 1524,-536.5 1396,-536.5"/>
<text text-anchor="start" x="1404" y="-554.5" font-family="Helvetica,sans-Serif" font-size="10.00" fill="#000000">include/tvm/relax/exec</text>
<text text-anchor="middle" x="1460" y="-543.5" font-family="Helvetica,sans-Serif" font-size="10.00" fill="#000000">_builder.h</text>
</a>
</g>
</g>
<!-- Node178&#45;&gt;Node206 -->
<g id="edge58" class="edge">
<title>Node178&#45;&gt;Node206</title>
<path fill="none" stroke="#191970" d="M1149.579,-607.8126C1211.6933,-597.9296 1305.6604,-582.4729 1387,-567 1389.9274,-566.4431 1392.9181,-565.8612 1395.9369,-565.2632"/>
<polygon fill="#191970" stroke="#191970" points="1148.8371,-604.3864 1139.5091,-609.4103 1149.9341,-611.2999 1148.8371,-604.3864"/>
</g>
<!-- Node178&#45;&gt;Node207 -->
<g id="edge61" class="edge">
<title>Node178&#45;&gt;Node207</title>
<path fill="none" stroke="#191970" d="M1033.4789,-606.4852C986.9428,-594.7195 916.214,-576.8371 868.1498,-564.685"/>
<polygon fill="#191970" stroke="#191970" points="1032.7605,-609.9137 1043.3134,-608.9717 1034.4764,-603.1272 1032.7605,-609.9137"/>
</g>
<!-- Node178&#45;&gt;Node210 -->
<g id="edge62" class="edge">
<title>Node178&#45;&gt;Node210</title>
<path fill="none" stroke="#191970" d="M1038.4678,-605.8452C1011.5631,-596.9311 976.5931,-583.633 948,-567 929.1599,-556.0404 930.3247,-543.8719 910,-536 773.6505,-483.1908 397.8624,-519.8718 253,-500 242.3948,-498.5452 231.0152,-496.3186 220.5783,-494.003"/>
<polygon fill="#191970" stroke="#191970" points="1037.3965,-609.1771 1047.9884,-608.929 1039.5536,-602.5178 1037.3965,-609.1771"/>
</g>
<!-- Node178&#45;&gt;Node217 -->
<g id="edge67" class="edge">
<title>Node178&#45;&gt;Node217</title>
<path fill="none" stroke="#191970" d="M1012.184,-613.2665C843.8088,-600.4616 413.4918,-567.736 257.5418,-555.876"/>
<polygon fill="#191970" stroke="#191970" points="1011.9338,-616.7575 1022.1704,-614.026 1012.4646,-609.7777 1011.9338,-616.7575"/>
</g>
<!-- Node205&#45;&gt;Node157 -->
<g id="edge51" class="edge">
<title>Node205&#45;&gt;Node157</title>
<path fill="none" stroke="#191970" d="M317.4206,-459.2559C313.1636,-429.2327 306.2689,-380.6073 303.3618,-360.1042"/>
<polygon fill="#191970" stroke="#191970" points="313.9881,-459.9794 318.8574,-469.389 320.9188,-458.9966 313.9881,-459.9794"/>
</g>
<!-- Node205&#45;&gt;Node159 -->
<g id="edge52" class="edge">
<title>Node205&#45;&gt;Node159</title>
<path fill="none" stroke="#191970" d="M354.2774,-463.7614C367.0489,-455.0397 381.3435,-444.2976 393,-433 417.1993,-409.5458 439.6607,-376.336 450.0109,-360.1377"/>
<polygon fill="#191970" stroke="#191970" points="352.1098,-460.9999 345.7301,-469.4587 355.9923,-466.8246 352.1098,-460.9999"/>
</g>
<!-- Node176&#45;&gt;Node45 -->
<g id="edge56" class="edge">
<title>Node176&#45;&gt;Node45</title>
<path fill="none" stroke="#191970" d="M2039.755,-526.3415C2043.8637,-498.8131 2050.3177,-455.5714 2053.7222,-432.7614"/>
<polygon fill="#191970" stroke="#191970" points="2036.27,-525.9818 2038.2554,-536.389 2043.1933,-527.0152 2036.27,-525.9818"/>
</g>
<!-- Node210&#45;&gt;Node134 -->
<g id="edge65" class="edge">
<title>Node210&#45;&gt;Node134</title>
<path fill="none" stroke="#191970" d="M173.0461,-465.9747C150.6648,-424.3206 97.0106,-324.4641 80.1568,-293.0974"/>
<polygon fill="#191970" stroke="#191970" points="169.9746,-467.653 177.7909,-474.8054 176.1409,-464.3398 169.9746,-467.653"/>
</g>
<!-- Node210&#45;&gt;Node157 -->
<g id="edge63" class="edge">
<title>Node210&#45;&gt;Node157</title>
<path fill="none" stroke="#191970" d="M198.2996,-467.2718C223.6678,-438.706 273.6134,-382.4648 293.5194,-360.0496"/>
<polygon fill="#191970" stroke="#191970" points="195.5814,-465.0618 191.5582,-474.8631 200.8154,-469.7099 195.5814,-465.0618"/>
</g>
<!-- Node210&#45;&gt;Node159 -->
<g id="edge64" class="edge">
<title>Node210&#45;&gt;Node159</title>
<path fill="none" stroke="#191970" d="M211.6149,-470.4546C267.3421,-443.1013 389.1138,-383.3306 436.5444,-360.0496"/>
<polygon fill="#191970" stroke="#191970" points="210.0682,-467.3148 202.6335,-474.8631 213.1526,-473.5987 210.0682,-467.3148"/>
</g>
<!-- Node217&#45;&gt;Node210 -->
<g id="edge68" class="edge">
<title>Node217&#45;&gt;Node210</title>
<path fill="none" stroke="#191970" d="M195.0488,-531.9863C191.8879,-519.5286 187.9289,-503.9258 185.4312,-494.0817"/>
<polygon fill="#191970" stroke="#191970" points="191.7124,-533.0685 197.5643,-541.9005 198.4974,-531.3469 191.7124,-533.0685"/>
</g>
<!-- Node220&#45;&gt;Node162 -->
<g id="edge86" class="edge">
<title>Node220&#45;&gt;Node162</title>
<path fill="none" stroke="#191970" d="M2101.2617,-914.6738C2110.6224,-905.2342 2121.5816,-892.8043 2129,-880 2159.7016,-827.0086 2216,-679.7428 2216,-618.5 2216,-618.5 2216,-618.5 2216,-551.5 2216,-487.9975 2288.9739,-451.0364 2341.9941,-432.5625"/>
<polygon fill="#191970" stroke="#191970" points="2098.6182,-912.3623 2093.8875,-921.8424 2103.4975,-917.3816 2098.6182,-912.3623"/>
</g>
<!-- Node220&#45;&gt;Node163 -->
<g id="edge88" class="edge">
<title>Node220&#45;&gt;Node163</title>
<path fill="none" stroke="#191970" d="M2005.2696,-920.1565C1959.1557,-911.6593 1907.0262,-898.3341 1893,-880 1884.6284,-869.0572 1891.8114,-862.7264 1893,-849 1897.3495,-798.7708 1937.442,-439.6264 1971,-402 2008.6292,-359.8088 2047.2053,-399.1495 2093,-366 2117.2556,-348.4421 2134.6484,-317.2358 2143.451,-298.6471"/>
<polygon fill="#191970" stroke="#191970" points="2004.8463,-923.6362 2015.3059,-921.9491 2006.0771,-916.7453 2004.8463,-923.6362"/>
</g>
<!-- Node220&#45;&gt;Node42 -->
<g id="edge101" class="edge">
<title>Node220&#45;&gt;Node42</title>
<path fill="none" stroke="#191970" d="M2119.2745,-918.2937C2214.6554,-881.1065 2469.4392,-765.1199 2532,-567 2573.8634,-434.4256 2451.9139,-279.8205 2409.7654,-231.6233"/>
<polygon fill="#191970" stroke="#191970" points="2117.8435,-915.094 2109.7626,-921.9459 2120.3527,-921.6288 2117.8435,-915.094"/>
</g>
<!-- Node220&#45;&gt;Node38 -->
<g id="edge92" class="edge">
<title>Node220&#45;&gt;Node38</title>
<path fill="none" stroke="#191970" d="M2172.6367,-920.8889C2227.6034,-912.9029 2298.9118,-899.8663 2360,-880 2390.4371,-870.1016 2395.4425,-861.278 2425,-849 2469.0092,-830.7188 2482.3694,-832.1671 2526,-813 2584.4282,-787.3322 2600.0007,-781.5495 2653,-746 2835.7798,-623.3995 2951,-570.5894 2951,-350.5 2951,-350.5 2951,-350.5 2951,-216.5 2951,-156.4797 2773.0215,-114.6154 2667.3467,-95.0483"/>
<polygon fill="#191970" stroke="#191970" points="2171.9765,-917.4475 2162.5695,-922.3218 2172.963,-924.3777 2171.9765,-917.4475"/>
</g>
<!-- Node220&#45;&gt;Node39 -->
<g id="edge103" class="edge">
<title>Node220&#45;&gt;Node39</title>
<path fill="none" stroke="#191970" d="M2173.0298,-929.6641C2344.3273,-925.4555 2710.952,-912.8177 2833,-880 2973.1222,-842.3223 3126,-881.0994 3126,-736 3126,-736 3126,-736 3126,-618.5 3126,-523.7572 3197,-512.2428 3197,-417.5 3197,-417.5 3197,-417.5 3197,-149.5 3197,-92.5656 3151.4316,-89.1915 3099,-67 3023.0789,-34.8667 2789.311,-22.2406 2667.1456,-17.7383"/>
<polygon fill="#191970" stroke="#191970" points="2172.6926,-926.1711 2162.78,-929.9116 2172.8616,-933.1691 2172.6926,-926.1711"/>
</g>
<!-- Node220&#45;&gt;Node40 -->
<g id="edge104" class="edge">
<title>Node220&#45;&gt;Node40</title>
<path fill="none" stroke="#191970" d="M1993.3092,-926.5274C1870.8248,-918.9287 1663.3348,-902.8625 1637,-880 1596.8884,-845.1772 1516,-470.6185 1516,-417.5 1516,-417.5 1516,-417.5 1516,-350.5 1516,-266.995 1776.0515,-194.7562 1902.5218,-164.562"/>
<polygon fill="#191970" stroke="#191970" points="1993.2363,-930.0295 2003.4318,-927.1482 1993.6648,-923.0426 1993.2363,-930.0295"/>
</g>
<!-- Node220&#45;&gt;Node41 -->
<g id="edge89" class="edge">
<title>Node220&#45;&gt;Node41</title>
<path fill="none" stroke="#191970" d="M2103.9178,-915.5474C2117.1632,-905.4149 2134.6304,-891.9955 2150,-880 2154.61,-876.402 2480,-624.3479 2480,-618.5 2480,-618.5 2480,-618.5 2480,-551.5 2480,-484.5757 2533.0727,-458.998 2498,-402 2487.4999,-384.9359 2469.4082,-373.3202 2451.3496,-365.5099"/>
<polygon fill="#191970" stroke="#191970" points="2101.7086,-912.8306 2095.8878,-921.6832 2105.9587,-918.3927 2101.7086,-912.8306"/>
</g>
<!-- Node220&#45;&gt;Node164 -->
<g id="edge93" class="edge">
<title>Node220&#45;&gt;Node164</title>
<path fill="none" stroke="#191970" d="M2142.0032,-919.6819C2179.1031,-911.1393 2227.4513,-897.9398 2268,-880 2277.0636,-875.99 2564.3768,-698.1613 2570,-690 2642.2588,-585.1264 2617.1269,-416.9456 2607.2234,-365.7652"/>
<polygon fill="#191970" stroke="#191970" points="2140.8399,-916.3561 2131.8533,-921.9679 2142.378,-923.1851 2140.8399,-916.3561"/>
</g>
<!-- Node220&#45;&gt;Node165 -->
<g id="edge91" class="edge">
<title>Node220&#45;&gt;Node165</title>
<path fill="none" stroke="#191970" d="M2151.5677,-920.0983C2196.535,-911.5644 2256.1909,-898.2202 2307,-880 2353.8675,-863.1933 2708,-729.7898 2708,-680 2708,-680 2708,-680 2708,-417.5 2708,-374.2597 2701.211,-323.5361 2697.4452,-298.7263"/>
<polygon fill="#191970" stroke="#191970" points="2150.8161,-916.6781 2141.6272,-921.9521 2152.0994,-923.5594 2150.8161,-916.6781"/>
</g>
<!-- Node220&#45;&gt;Node166 -->
<g id="edge99" class="edge">
<title>Node220&#45;&gt;Node166</title>
<path fill="none" stroke="#191970" d="M1992.9715,-927.2881C1870.771,-920.6335 1664.898,-905.7276 1642,-880 1641.3134,-879.2286 1644.224,-413.1625 1654,-402 1669.9668,-383.7687 1808.993,-366.8197 1898.7712,-357.6384"/>
<polygon fill="#191970" stroke="#191970" points="1992.9002,-930.7892 2003.0733,-927.8298 1993.2751,-923.7992 1992.9002,-930.7892"/>
</g>
<!-- Node220&#45;&gt;Node37 -->
<g id="edge87" class="edge">
<title>Node220&#45;&gt;Node37</title>
<path fill="none" stroke="#191970" d="M2172.7776,-929.8545C2354.0916,-925.8452 2751.1836,-913.3338 2803,-880 2889.8994,-824.0971 3019.7652,-506.4447 3049.0092,-432.7627"/>
<polygon fill="#191970" stroke="#191970" points="2172.6509,-926.3563 2162.7293,-930.0729 2172.803,-933.3547 2172.6509,-926.3563"/>
</g>
<!-- Node220&#45;&gt;Node43 -->
<g id="edge90" class="edge">
<title>Node220&#45;&gt;Node43</title>
<path fill="none" stroke="#191970" d="M1992.971,-927.0493C1873.0427,-920.1833 1673.2929,-905.1084 1651,-880 1641.8524,-869.6971 1648.3945,-862.5292 1651,-849 1670.4623,-747.9405 1703.8048,-731.416 1737,-634 1746.9834,-604.7023 1750.1097,-597.3863 1756,-567 1765.3886,-518.5668 1769.6353,-460.1619 1771.2151,-432.9081"/>
<polygon fill="#191970" stroke="#191970" points="1993.0662,-930.5601 2003.2474,-927.6288 1993.4603,-923.5712 1993.0662,-930.5601"/>
</g>
<!-- Node220&#45;&gt;Node44 -->
<g id="edge98" class="edge">
<title>Node220&#45;&gt;Node44</title>
<path fill="none" stroke="#191970" d="M2093.8673,-913.2652C2099.2738,-903.6233 2105.5801,-891.4417 2110,-880 2131.6366,-823.9901 2178,-678.5437 2178,-618.5 2178,-618.5 2178,-618.5 2178,-551.5 2178,-506.031 2202.7969,-456.6991 2216.7451,-432.5465"/>
<polygon fill="#191970" stroke="#191970" points="2090.8288,-911.528 2088.8639,-921.939 2096.8924,-915.0257 2090.8288,-911.528"/>
</g>
<!-- Node220&#45;&gt;Node45 -->
<g id="edge102" class="edge">
<title>Node220&#45;&gt;Node45</title>
<path fill="none" stroke="#191970" d="M2087.5782,-911.7446C2093.2004,-885.7147 2102,-838.4355 2102,-797.5 2102,-797.5 2102,-797.5 2102,-736 2102,-646.7109 2143.1644,-622.4944 2121,-536 2110.6321,-495.5402 2083.2572,-454.0549 2067.5381,-432.5308"/>
<polygon fill="#191970" stroke="#191970" points="2084.093,-911.2927 2085.3298,-921.8151 2090.9248,-912.818 2084.093,-911.2927"/>
</g>
<!-- Node220&#45;&gt;Node176 -->
<g id="edge100" class="edge">
<title>Node220&#45;&gt;Node176</title>
<path fill="none" stroke="#191970" d="M2078.4218,-911.7446C2072.7996,-885.7147 2064,-838.4355 2064,-797.5 2064,-797.5 2064,-797.5 2064,-680 2064,-638.2165 2049.692,-590.5067 2041.5319,-566.6947"/>
<polygon fill="#191970" stroke="#191970" points="2075.0752,-912.818 2080.6702,-921.8151 2081.907,-911.2927 2075.0752,-912.818"/>
</g>
<!-- Node220&#45;&gt;Node206 -->
<g id="edge117" class="edge">
<title>Node220&#45;&gt;Node206</title>
<path fill="none" stroke="#191970" d="M1993.4241,-920.4786C1951.3777,-912.9207 1901.5052,-900.4224 1860,-880 1837.6253,-868.9906 1553.2511,-630.039 1478.1088,-566.7617"/>
<polygon fill="#191970" stroke="#191970" points="1992.9266,-923.9445 2003.3773,-922.2026 1994.1214,-917.0472 1992.9266,-923.9445"/>
</g>
<!-- Node221 -->
<g id="node36" class="node">
<title>Node221</title>
<g id="a_node36"><a xlink:href="env__func_8h.html" target="_top" xlink:title="Serializable global function used in IR. ">
<polygon fill="#ffffff" stroke="#ff0000" points="398.5,-469.5 398.5,-499.5 503.5,-499.5 503.5,-469.5 398.5,-469.5"/>
<text text-anchor="start" x="406.5" y="-487.5" font-family="Helvetica,sans-Serif" font-size="10.00" fill="#000000">include/tvm/ir/env</text>
<text text-anchor="middle" x="451" y="-476.5" font-family="Helvetica,sans-Serif" font-size="10.00" fill="#000000">_func.h</text>
</a>
</g>
</g>
<!-- Node220&#45;&gt;Node221 -->
<g id="edge81" class="edge">
<title>Node220&#45;&gt;Node221</title>
<path fill="none" stroke="#191970" d="M1992.7808,-929.5848C1837.4755,-925.4928 1509.8078,-913.3727 1235,-880 1002.2112,-851.7301 385.6451,-829.2941 197,-690 137.3737,-645.9724 84.3754,-591.9408 133,-536 170.6879,-492.6414 332.6108,-510.9819 389,-500 392.0494,-499.4061 395.1734,-498.7568 398.3192,-498.0711"/>
<polygon fill="#191970" stroke="#191970" points="1993.1233,-933.0947 2003.2104,-929.8543 1993.3042,-926.097 1993.1233,-933.0947"/>
</g>
<!-- Node222 -->
<g id="node37" class="node">
<title>Node222</title>
<g id="a_node37"><a xlink:href="instrument_8h.html" target="_top" xlink:title="include/tvm/ir/instrument.h">
<polygon fill="#ffffff" stroke="#ff0000" points="1659.5,-855 1659.5,-874 1808.5,-874 1808.5,-855 1659.5,-855"/>
<text text-anchor="middle" x="1734" y="-862" font-family="Helvetica,sans-Serif" font-size="10.00" fill="#000000">include/tvm/ir/instrument.h</text>
</a>
</g>
</g>
<!-- Node220&#45;&gt;Node222 -->
<g id="edge85" class="edge">
<title>Node220&#45;&gt;Node222</title>
<path fill="none" stroke="#191970" d="M2023.3003,-920.039C1955.7358,-907.0682 1846.8946,-886.1732 1783.7436,-874.0496"/>
<polygon fill="#191970" stroke="#191970" points="2022.8869,-923.5235 2033.3674,-921.9717 2024.2067,-916.649 2022.8869,-923.5235"/>
</g>
<!-- Node172 -->
<g id="node38" class="node">
<title>Node172</title>
<g id="a_node38"><a xlink:href="mutator_8h.html" target="_top" xlink:title="include/tvm/meta_schedule\l/mutator.h">
<polygon fill="#ffffff" stroke="#000000" points="2434,-849.5 2434,-879.5 2586,-879.5 2586,-849.5 2434,-849.5"/>
<text text-anchor="start" x="2442" y="-867.5" font-family="Helvetica,sans-Serif" font-size="10.00" fill="#000000">include/tvm/meta_schedule</text>
<text text-anchor="middle" x="2510" y="-856.5" font-family="Helvetica,sans-Serif" font-size="10.00" fill="#000000">/mutator.h</text>
</a>
</g>
</g>
<!-- Node220&#45;&gt;Node172 -->
<g id="edge94" class="edge">
<title>Node220&#45;&gt;Node172</title>
<path fill="none" stroke="#191970" d="M2157.8995,-920.4685C2226.2342,-910.3053 2329.981,-894.6286 2420,-880 2424.5384,-879.2625 2429.2035,-878.4931 2433.9084,-877.7087"/>
<polygon fill="#191970" stroke="#191970" points="2157.0394,-917.0578 2147.6622,-921.9892 2158.068,-923.9818 2157.0394,-917.0578"/>
</g>
<!-- Node173 -->
<g id="node39" class="node">
<title>Node173</title>
<g id="a_node39"><a xlink:href="postproc_8h.html" target="_top" xlink:title="include/tvm/meta_schedule\l/postproc.h">
<polygon fill="#ffffff" stroke="#000000" points="2642,-849.5 2642,-879.5 2794,-879.5 2794,-849.5 2642,-849.5"/>
<text text-anchor="start" x="2650" y="-867.5" font-family="Helvetica,sans-Serif" font-size="10.00" fill="#000000">include/tvm/meta_schedule</text>
<text text-anchor="middle" x="2718" y="-856.5" font-family="Helvetica,sans-Serif" font-size="10.00" fill="#000000">/postproc.h</text>
</a>
</g>
</g>
<!-- Node220&#45;&gt;Node173 -->
<g id="edge96" class="edge">
<title>Node220&#45;&gt;Node173</title>
<path fill="none" stroke="#191970" d="M2172.8664,-923.1493C2275.1632,-913.4836 2447.2367,-896.7391 2595,-880 2610.1842,-878.2799 2626.4071,-876.3216 2641.9245,-874.3897"/>
<polygon fill="#191970" stroke="#191970" points="2172.5097,-919.6673 2162.8827,-924.0911 2173.1672,-926.6364 2172.5097,-919.6673"/>
</g>
<!-- Node223 -->
<g id="node40" class="node">
<title>Node223</title>
<g id="a_node40"><a xlink:href="node_8h.html" target="_top" xlink:title="Definitions and helper macros for IR/AST nodes. ">
<polygon fill="#ffffff" stroke="#ff0000" points="1036.5,-726.5 1036.5,-745.5 1173.5,-745.5 1173.5,-726.5 1036.5,-726.5"/>
<text text-anchor="middle" x="1105" y="-733.5" font-family="Helvetica,sans-Serif" font-size="10.00" fill="#000000">include/tvm/node/node.h</text>
</a>
</g>
</g>
<!-- Node220&#45;&gt;Node223 -->
<g id="edge105" class="edge">
<title>Node220&#45;&gt;Node223</title>
<path fill="none" stroke="#191970" d="M1993.2249,-928.0828C1878.9021,-922.6874 1675.5934,-909.5894 1504,-880 1449.7169,-870.6395 1437.3528,-862.7024 1384,-849 1321.356,-832.9114 1303.0762,-836.9576 1243,-813 1195.3452,-793.9959 1143.6764,-761.6696 1119.2857,-745.6243"/>
<polygon fill="#191970" stroke="#191970" points="1993.1784,-931.5843 2003.3295,-928.5505 1993.5021,-924.5917 1993.1784,-931.5843"/>
</g>
<!-- Node220&#45;&gt;Node226 -->
<g id="edge113" class="edge">
<title>Node220&#45;&gt;Node226</title>
<path fill="none" stroke="#191970" d="M1992.84,-924.422C1872.6225,-914.8819 1653.223,-897.1137 1466,-880 1436.3215,-877.2871 1403.4907,-874.0592 1375.6343,-871.2532"/>
<polygon fill="#191970" stroke="#191970" points="1992.8502,-927.9337 2003.0955,-925.235 1993.4034,-920.9556 1992.8502,-927.9337"/>
</g>
<!-- Node228 -->
<g id="node43" class="node">
<title>Node228</title>
<g id="a_node43"><a xlink:href="instruction_8h.html" target="_top" xlink:title="include/tvm/tir/schedule\l/instruction.h">
<polygon fill="#ffffff" stroke="#ff0000" points="1902,-849.5 1902,-879.5 2036,-879.5 2036,-849.5 1902,-849.5"/>
<text text-anchor="start" x="1910" y="-867.5" font-family="Helvetica,sans-Serif" font-size="10.00" fill="#000000">include/tvm/tir/schedule</text>
<text text-anchor="middle" x="1969" y="-856.5" font-family="Helvetica,sans-Serif" font-size="10.00" fill="#000000">/instruction.h</text>
</a>
</g>
</g>
<!-- Node220&#45;&gt;Node228 -->
<g id="edge118" class="edge">
<title>Node220&#45;&gt;Node228</title>
<path fill="none" stroke="#191970" d="M2058.0449,-916.8334C2039.2313,-905.7763 2013.5186,-890.6644 1994.5594,-879.5218"/>
<polygon fill="#191970" stroke="#191970" points="2056.2718,-919.851 2066.6666,-921.9005 2059.8187,-913.8161 2056.2718,-919.851"/>
</g>
<!-- Node221&#45;&gt;Node128 -->
<g id="edge82" class="edge">
<title>Node221&#45;&gt;Node128</title>
<path fill="none" stroke="#191970" d="M505.9443,-466.2759C537.78,-455.7165 577.3842,-442.5805 607.4695,-432.6017"/>
<polygon fill="#191970" stroke="#191970" points="504.7224,-462.9936 496.3327,-469.4639 506.9262,-469.6377 504.7224,-462.9936"/>
</g>
<!-- Node221&#45;&gt;Node157 -->
<g id="edge83" class="edge">
<title>Node221&#45;&gt;Node157</title>
<path fill="none" stroke="#191970" d="M426.3656,-462.3456C393.3788,-432.6796 336.2775,-381.3267 312.6793,-360.1042"/>
<polygon fill="#191970" stroke="#191970" points="424.4216,-465.3045 434.1974,-469.389 429.1024,-460.0996 424.4216,-465.3045"/>
</g>
<!-- Node221&#45;&gt;Node159 -->
<g id="edge84" class="edge">
<title>Node221&#45;&gt;Node159</title>
<path fill="none" stroke="#191970" d="M451.9419,-459.2559C453.0622,-429.2327 454.8766,-380.6073 455.6416,-360.1042"/>
<polygon fill="#191970" stroke="#191970" points="448.4392,-459.2654 451.5638,-469.389 455.4344,-459.5265 448.4392,-459.2654"/>
</g>
<!-- Node172&#45;&gt;Node45 -->
<g id="edge95" class="edge">
<title>Node172&#45;&gt;Node45</title>
<path fill="none" stroke="#191970" d="M2442.3324,-846.0421C2391.2826,-827.5256 2330,-793.3533 2330,-736 2330,-736 2330,-736 2330,-551.5 2330,-503.3124 2191.5116,-455.9137 2111.448,-432.5377"/>
<polygon fill="#191970" stroke="#191970" points="2441.4612,-849.4449 2452.0561,-849.4292 2443.7639,-842.8344 2441.4612,-849.4449"/>
</g>
<!-- Node173&#45;&gt;Node45 -->
<g id="edge97" class="edge">
<title>Node173&#45;&gt;Node45</title>
<path fill="none" stroke="#191970" d="M2666.0612,-845.6207C2586.1056,-812.8203 2442,-737.234 2442,-618.5 2442,-618.5 2442,-618.5 2442,-551.5 2442,-513.3133 2446.9974,-493.847 2418,-469 2370.8642,-428.6106 2202.3309,-442.5709 2141,-433 2138.184,-432.5606 2135.3178,-432.101 2132.4244,-431.6266"/>
<polygon fill="#191970" stroke="#191970" points="2664.8961,-848.9245 2675.4799,-849.4086 2667.508,-842.43 2664.8961,-848.9245"/>
</g>
<!-- Node223&#45;&gt;Node9 -->
<g id="edge108" class="edge">
<title>Node223&#45;&gt;Node9</title>
<path fill="none" stroke="#191970" d="M1026.4958,-727.8739C917.1098,-716.5511 721.2709,-696.2794 623.2679,-686.1349"/>
<polygon fill="#191970" stroke="#191970" points="1026.1747,-731.3593 1036.482,-728.9076 1026.8955,-724.3965 1026.1747,-731.3593"/>
</g>
<!-- Node223&#45;&gt;Node10 -->
<g id="edge106" class="edge">
<title>Node223&#45;&gt;Node10</title>
<path fill="none" stroke="#191970" d="M1142.3072,-722.7244C1181.9685,-706.9655 1244.3271,-677.2536 1284,-634 1304.0392,-612.1522 1315.1395,-577.9005 1319.6226,-561.2459"/>
<polygon fill="#191970" stroke="#191970" points="1140.8012,-719.5543 1132.7405,-726.43 1143.3296,-726.0817 1140.8012,-719.5543"/>
</g>
<!-- Node223&#45;&gt;Node162 -->
<g id="edge109" class="edge">
<title>Node223&#45;&gt;Node162</title>
<path fill="none" stroke="#191970" d="M1153.5562,-724.0208C1353.5677,-674.6764 2113.5343,-487.1865 2335.0567,-432.5352"/>
<polygon fill="#191970" stroke="#191970" points="1152.5076,-720.6745 1143.6371,-726.4679 1154.1843,-727.4707 1152.5076,-720.6745"/>
</g>
<!-- Node223&#45;&gt;Node178 -->
<g id="edge107" class="edge">
<title>Node223&#45;&gt;Node178</title>
<path fill="none" stroke="#191970" d="M1100.9985,-716.4095C1095.8029,-690.9723 1086.9342,-647.5527 1082.9912,-628.2484"/>
<polygon fill="#191970" stroke="#191970" points="1097.6055,-717.2872 1103.036,-726.3845 1104.4639,-715.8863 1097.6055,-717.2872"/>
</g>
<!-- Node223&#45;&gt;Node207 -->
<g id="edge110" class="edge">
<title>Node223&#45;&gt;Node207</title>
<path fill="none" stroke="#191970" d="M1083.4079,-720.2495C1047.9219,-694.5991 974.7386,-642.682 910,-603 888.7409,-589.9691 863.9827,-576.4696 845.2132,-566.5623"/>
<polygon fill="#191970" stroke="#191970" points="1081.439,-723.1451 1091.5895,-726.1815 1085.548,-717.4779 1081.439,-723.1451"/>
</g>
<!-- Node223&#45;&gt;Node210 -->
<g id="edge111" class="edge">
<title>Node223&#45;&gt;Node210</title>
<path fill="none" stroke="#191970" d="M1026.2738,-732.8021C823.4244,-723.7218 295.3544,-694.4371 247,-634 219.2828,-599.3568 287.5707,-574.7699 266,-536 254.5395,-515.4016 231.0548,-501.9888 211.9821,-494.0312"/>
<polygon fill="#191970" stroke="#191970" points="1026.1201,-736.2987 1036.2652,-733.2448 1026.43,-729.3055 1026.1201,-736.2987"/>
</g>
<!-- Node223&#45;&gt;Node217 -->
<g id="edge112" class="edge">
<title>Node223&#45;&gt;Node217</title>
<path fill="none" stroke="#191970" d="M1026.1283,-733.2833C810.9244,-725.6956 228.625,-703.9232 214,-690 177.9418,-655.6722 190.8495,-586.9089 197.267,-561.3578"/>
<polygon fill="#191970" stroke="#191970" points="1026.2852,-736.7909 1036.4021,-733.6446 1026.5313,-729.7952 1026.2852,-736.7909"/>
</g>
<!-- Node227 -->
<g id="node42" class="node">
<title>Node227</title>
<g id="a_node42"><a xlink:href="repr__printer_8h.html" target="_top" xlink:title="Printer class to print repr string of each AST/IR nodes. ">
<polygon fill="#ffffff" stroke="#000000" points="1252,-782.5 1252,-812.5 1376,-812.5 1376,-782.5 1252,-782.5"/>
<text text-anchor="start" x="1260" y="-800.5" font-family="Helvetica,sans-Serif" font-size="10.00" fill="#000000">include/tvm/node/repr</text>
<text text-anchor="middle" x="1314" y="-789.5" font-family="Helvetica,sans-Serif" font-size="10.00" fill="#000000">_printer.h</text>
</a>
</g>
</g>
<!-- Node226&#45;&gt;Node227 -->
<g id="edge114" class="edge">
<title>Node226&#45;&gt;Node227</title>
<path fill="none" stroke="#191970" d="M1311.5209,-839.0249C1312.0521,-830.128 1312.6311,-820.4287 1313.0959,-812.6432"/>
<polygon fill="#191970" stroke="#191970" points="1308.0099,-839.1058 1310.9077,-849.2967 1314.9975,-839.5231 1308.0099,-839.1058"/>
</g>
<!-- Node227&#45;&gt;Node206 -->
<g id="edge116" class="edge">
<title>Node227&#45;&gt;Node206</title>
<path fill="none" stroke="#191970" d="M1318.9997,-772.6334C1327.8681,-733.3477 1349.365,-655.9561 1390,-603 1401.389,-588.1576 1418.1683,-575.6109 1432.4439,-566.6183"/>
<polygon fill="#191970" stroke="#191970" points="1315.5742,-771.915 1316.8739,-782.4299 1322.415,-773.3995 1315.5742,-771.915"/>
</g>
<!-- Node227&#45;&gt;Node223 -->
<g id="edge115" class="edge">
<title>Node227&#45;&gt;Node223</title>
<path fill="none" stroke="#191970" d="M1252.9794,-779.5442C1215.1823,-768.4221 1168.1492,-754.5822 1137.3876,-745.5303"/>
<polygon fill="#191970" stroke="#191970" points="1252.2915,-782.9901 1262.8728,-782.4554 1254.2676,-776.2748 1252.2915,-782.9901"/>
</g>
<!-- Node230&#45;&gt;Node220 -->
<g id="edge122" class="edge">
<title>Node230&#45;&gt;Node220</title>
<path fill="none" stroke="#191970" d="M1771.0046,-984.0218C1848.3674,-970.9984 1959.8073,-952.2385 2026.4509,-941.0196"/>
<polygon fill="#191970" stroke="#191970" points="1770.0778,-980.6285 1760.7976,-985.7401 1771.2399,-987.5314 1770.0778,-980.6285"/>
</g>
<!-- Node230&#45;&gt;Node223 -->
<g id="edge121" class="edge">
<title>Node230&#45;&gt;Node223</title>
<path fill="none" stroke="#191970" d="M1599.2033,-994.6434C1461.0462,-987.744 1201.2221,-971.6622 1167,-947 1099.7835,-898.5605 1101.9717,-780.6331 1104.1984,-745.8264"/>
<polygon fill="#191970" stroke="#191970" points="1599.181,-998.1465 1609.3415,-995.1441 1599.5263,-991.155 1599.181,-998.1465"/>
</g>
<!-- Node231&#45;&gt;Node220 -->
<g id="edge125" class="edge">
<title>Node231&#45;&gt;Node220</title>
<path fill="none" stroke="#191970" d="M1945.4618,-980.0003C1981.3249,-967.3538 2027.3808,-951.1131 2056.0447,-941.0053"/>
<polygon fill="#191970" stroke="#191970" points="1943.9065,-976.8374 1935.6397,-983.4639 1946.2345,-983.439 1943.9065,-976.8374"/>
</g>
<!-- Node231&#45;&gt;Node223 -->
<g id="edge124" class="edge">
<title>Node231&#45;&gt;Node223</title>
<path fill="none" stroke="#191970" d="M1807.3204,-987.1276C1794.8137,-985.6349 1782.0827,-984.2071 1770,-983 1662.02,-972.2126 1379.6568,-996.3306 1283,-947 1190.3679,-899.7235 1126.8794,-780.9875 1109.6851,-745.9073"/>
<polygon fill="#191970" stroke="#191970" points="1806.9373,-990.6067 1817.2858,-988.3357 1807.7797,-983.6576 1806.9373,-990.6067"/>
</g>
<!-- Node234&#45;&gt;Node165 -->
<g id="edge129" class="edge">
<title>Node234&#45;&gt;Node165</title>
<path fill="none" stroke="#191970" d="M2237.4737,-1063.4247C2351.664,-1059.1499 2587.9045,-1046.835 2785,-1014 2905.2574,-993.9658 2960.1689,-1028.3198 3051,-947 3204.883,-809.2307 2942.6363,-490.3746 2926,-469 2865.8184,-391.6776 2767.2888,-326.7129 2720.8091,-298.5311"/>
<polygon fill="#191970" stroke="#191970" points="2237.0065,-1059.9393 2227.1409,-1063.8019 2237.262,-1066.9346 2237.0065,-1059.9393"/>
</g>
<!-- Node234&#45;&gt;Node37 -->
<g id="edge128" class="edge">
<title>Node234&#45;&gt;Node37</title>
<path fill="none" stroke="#191970" d="M2237.4352,-1064.4914C2450.1753,-1061.0117 3090.9281,-1047.8119 3178,-1014 3231.7099,-993.1433 3278,-989.1173 3278,-931.5 3278,-931.5 3278,-931.5 3278,-680 3278,-560.4046 3141.8916,-467.4597 3082.3442,-432.5192"/>
<polygon fill="#191970" stroke="#191970" points="2237.2738,-1060.9934 2227.3317,-1064.6546 2237.3869,-1067.9925 2237.2738,-1060.9934"/>
</g>
<!-- Node234&#45;&gt;Node220 -->
<g id="edge130" class="edge">
<title>Node234&#45;&gt;Node220</title>
<path fill="none" stroke="#191970" d="M2167.5893,-1039.8817C2165.6131,-1022.6451 2160.946,-1000.0432 2150,-983 2138.1076,-964.4833 2117.149,-949.9847 2101.8316,-941.1528"/>
<polygon fill="#191970" stroke="#191970" points="2164.1473,-1040.6796 2168.5384,-1050.3216 2171.1186,-1040.0458 2164.1473,-1040.6796"/>
</g>
<!-- Node234&#45;&gt;Node231 -->
<g id="edge131" class="edge">
<title>Node234&#45;&gt;Node231</title>
<path fill="none" stroke="#191970" d="M2100.9116,-1048.9713C2056.2513,-1038.1299 1998.3159,-1024.0658 1954.9499,-1013.5386"/>
<polygon fill="#191970" stroke="#191970" points="2100.2613,-1052.415 2110.8047,-1051.3729 2101.9127,-1045.6126 2100.2613,-1052.415"/>
</g>
<!-- Node234&#45;&gt;Node232 -->
<g id="edge132" class="edge">
<title>Node234&#45;&gt;Node232</title>
<path fill="none" stroke="#191970" d="M2141.4855,-1044.0643C2128.7696,-1034.1577 2113.9684,-1022.6265 2102.4375,-1013.6432"/>
<polygon fill="#191970" stroke="#191970" points="2139.4456,-1046.9119 2149.4853,-1050.2967 2143.7477,-1041.3899 2139.4456,-1046.9119"/>
</g>
<!-- Node234&#45;&gt;Node239 -->
<g id="edge133" class="edge">
<title>Node234&#45;&gt;Node239</title>
<path fill="none" stroke="#191970" d="M2237.4619,-1057.1449C2346.5332,-1043.8338 2557.8272,-1018.0475 2659.9519,-1005.5842"/>
<polygon fill="#191970" stroke="#191970" points="2236.7352,-1053.7075 2227.2329,-1058.3933 2237.5832,-1060.656 2236.7352,-1053.7075"/>
</g>
<!-- Node239&#45;&gt;Node163 -->
<g id="edge135" class="edge">
<title>Node239&#45;&gt;Node163</title>
<path fill="none" stroke="#191970" d="M2649.6898,-996.3972C2422.3443,-988.6814 1701.9164,-958.1926 1637,-880 1626.6008,-867.4741 1653.3549,-434.5845 1687,-402 1746.8189,-344.0667 1984.1406,-400.3498 2060,-366 2078.3313,-357.6994 2078.2003,-348.6348 2093,-335 2106.3397,-322.7103 2121.5929,-308.9437 2132.9617,-298.7379"/>
<polygon fill="#191970" stroke="#191970" points="2649.7069,-999.8997 2659.8187,-996.7369 2649.9416,-992.9036 2649.7069,-999.8997"/>
</g>
<!-- Node239&#45;&gt;Node42 -->
<g id="edge144" class="edge">
<title>Node239&#45;&gt;Node42</title>
<path fill="none" stroke="#191970" d="M2786.3,-993.792C2851.7235,-987.6915 2943.706,-974.3992 2966,-947 3064.7405,-825.6484 2898.4095,-370.2501 2780,-268 2757.1545,-248.2722 2577.5557,-230.89 2472.2574,-222.2631"/>
<polygon fill="#191970" stroke="#191970" points="2785.6907,-990.3324 2776.0427,-994.7104 2786.315,-997.3046 2785.6907,-990.3324"/>
</g>
<!-- Node239&#45;&gt;Node38 -->
<g id="edge138" class="edge">
<title>Node239&#45;&gt;Node38</title>
<path fill="none" stroke="#191970" d="M2786.2787,-982.1611C2902.6402,-963.1896 2951.1427,-1009.4018 3051,-947 3141.2131,-890.6249 3164,-842.3792 3164,-736 3164,-736 3164,-736 3164,-618.5 3164,-521.6884 3153.0006,-497.9348 3140,-402 3132.8372,-349.1438 3121,-336.8394 3121,-283.5 3121,-283.5 3121,-283.5 3121,-216.5 3121,-124.0228 2813.8799,-94.6893 2667.2181,-85.9536"/>
<polygon fill="#191970" stroke="#191970" points="2785.5422,-978.7369 2776.3015,-983.9195 2786.7573,-985.6306 2785.5422,-978.7369"/>
</g>
<!-- Node239&#45;&gt;Node39 -->
<g id="edge146" class="edge">
<title>Node239&#45;&gt;Node39</title>
<path fill="none" stroke="#191970" d="M2786.1107,-993.9802C2877.3463,-987.0718 3033.7104,-971.9897 3085,-947 3171.0414,-905.0783 3240,-893.2107 3240,-797.5 3240,-797.5 3240,-797.5 3240,-149.5 3240,-94.9088 3198.974,-88.9726 3149,-67 3064.5614,-29.874 2799.0561,-19.4916 2667.0534,-16.6036"/>
<polygon fill="#191970" stroke="#191970" points="2785.8464,-990.4901 2776.1337,-994.7228 2786.366,-997.4708 2785.8464,-990.4901"/>
</g>
<!-- Node239&#45;&gt;Node40 -->
<g id="edge147" class="edge">
<title>Node239&#45;&gt;Node40</title>
<path fill="none" stroke="#191970" d="M2782.2733,-979.243C2798.3555,-971.5842 2814.1072,-961.1245 2825,-947 2843.5241,-922.9801 2835.0978,-910.194 2838,-880 2864.1409,-608.0347 2961.1663,-472.5172 2780,-268 2731.5556,-213.3115 2238.3495,-170.0248 2046.1218,-155.1068"/>
<polygon fill="#191970" stroke="#191970" points="2780.5286,-976.1876 2772.8005,-983.4352 2783.3615,-982.5888 2780.5286,-976.1876"/>
</g>
<!-- Node239&#45;&gt;Node41 -->
<g id="edge136" class="edge">
<title>Node239&#45;&gt;Node41</title>
<path fill="none" stroke="#191970" d="M2764.1665,-978.4193C2778.0391,-970.4163 2792.1677,-959.9723 2802,-947 2828.7994,-911.642 2836.8202,-890.4502 2821,-849 2785.0835,-754.8959 2670,-780.7253 2670,-680 2670,-680 2670,-680 2670,-618.5 2670,-500.6751 2608.6921,-475.9952 2517,-402 2496.9235,-385.7983 2470.9952,-373.8654 2448.2928,-365.5896"/>
<polygon fill="#191970" stroke="#191970" points="2762.2497,-975.4775 2755.1349,-983.328 2765.5924,-981.6278 2762.2497,-975.4775"/>
</g>
<!-- Node239&#45;&gt;Node165 -->
<g id="edge137" class="edge">
<title>Node239&#45;&gt;Node165</title>
<path fill="none" stroke="#191970" d="M2786.1482,-992.6861C2847.0552,-985.9096 2929.73,-972.2629 2950,-947 2958.6224,-936.2537 2953.477,-929.3318 2950,-916 2903.1503,-736.3627 2746,-737.146 2746,-551.5 2746,-551.5 2746,-551.5 2746,-417.5 2746,-371.9479 2719.9389,-323.0469 2705.076,-298.862"/>
<polygon fill="#191970" stroke="#191970" points="2785.7623,-989.2073 2776.193,-993.7548 2786.5095,-996.1673 2785.7623,-989.2073"/>
</g>
<!-- Node239&#45;&gt;Node166 -->
<g id="edge142" class="edge">
<title>Node239&#45;&gt;Node166</title>
<path fill="none" stroke="#191970" d="M2649.5064,-996.393C2401.7895,-988.66 1565.7473,-961.5373 1542,-947 1502.1574,-922.6097 1500.8834,-895.6112 1504,-849 1510.9534,-745.0071 1564.4031,-466.8445 1646,-402 1684.0765,-371.7409 1814.2137,-359.0107 1898.9551,-353.8388"/>
<polygon fill="#191970" stroke="#191970" points="2649.7082,-999.9009 2659.8124,-996.7141 2649.9263,-992.9043 2649.7082,-999.9009"/>
</g>
<!-- Node239&#45;&gt;Node37 -->
<g id="edge134" class="edge">
<title>Node239&#45;&gt;Node37</title>
<path fill="none" stroke="#191970" d="M2786.174,-996.3879C2866.7672,-992.3642 2994.0153,-980.7068 3026,-947 3090.9666,-878.5355 3050,-830.3825 3050,-736 3050,-736 3050,-736 3050,-551.5 3050,-508.4319 3052.6112,-457.6315 3054.0595,-432.766"/>
<polygon fill="#191970" stroke="#191970" points="2785.9241,-992.8957 2776.1002,-996.8634 2786.2542,-999.8879 2785.9241,-992.8957"/>
</g>
<!-- Node239&#45;&gt;Node44 -->
<g id="edge141" class="edge">
<title>Node239&#45;&gt;Node44</title>
<path fill="none" stroke="#191970" d="M2745.9974,-976.9486C2781.5829,-946.9258 2834.7901,-891.4282 2803,-849 2768.8453,-803.416 2727.6287,-844.2403 2680,-813 2585.9286,-751.2974 2518,-731.0017 2518,-618.5 2518,-618.5 2518,-618.5 2518,-551.5 2518,-501.6464 2485.0085,-494.2121 2442,-469 2429.4036,-461.6158 2356.0679,-444.935 2298.2952,-432.5471"/>
<polygon fill="#191970" stroke="#191970" points="2743.7683,-974.2502 2738.2701,-983.3067 2748.216,-979.6556 2743.7683,-974.2502"/>
</g>
<!-- Node239&#45;&gt;Node45 -->
<g id="edge145" class="edge">
<title>Node239&#45;&gt;Node45</title>
<path fill="none" stroke="#191970" d="M2701.6997,-974.96C2679.631,-944.0342 2638.035,-888.971 2595,-849 2511.9488,-771.8618 2404,-793.3481 2404,-680 2404,-680 2404,-680 2404,-551.5 2404,-479.6603 2331.4827,-496.221 2265,-469 2240.0567,-458.7871 2176.8646,-443.7321 2126.448,-432.5345"/>
<polygon fill="#191970" stroke="#191970" points="2699.0171,-977.2286 2707.6468,-983.375 2704.7336,-973.1885 2699.0171,-977.2286"/>
</g>
<!-- Node239&#45;&gt;Node176 -->
<g id="edge143" class="edge">
<title>Node239&#45;&gt;Node176</title>
<path fill="none" stroke="#191970" d="M2652.9151,-980.4863C2622.9853,-971.5245 2587.264,-959.8615 2556,-947 2495.5223,-922.1204 2479.9493,-915.4559 2425,-880 2266.053,-777.4399 2101.0156,-616.7945 2051.141,-566.8432"/>
<polygon fill="#191970" stroke="#191970" points="2652.2462,-983.9383 2662.8284,-983.4198 2654.2325,-977.226 2652.2462,-983.9383"/>
</g>
<!-- Node239&#45;&gt;Node220 -->
<g id="edge148" class="edge">
<title>Node239&#45;&gt;Node220</title>
<path fill="none" stroke="#191970" d="M2649.9455,-991.3195C2531.6589,-978.8388 2288.7508,-953.2091 2162.7545,-939.915"/>
<polygon fill="#191970" stroke="#191970" points="2649.6525,-994.8079 2659.9646,-992.3766 2650.3871,-987.8465 2649.6525,-994.8079"/>
</g>
<!-- Node239&#45;&gt;Node172 -->
<g id="edge139" class="edge">
<title>Node239&#45;&gt;Node172</title>
<path fill="none" stroke="#191970" d="M2665.043,-979.7473C2643.9954,-971.1985 2620.0666,-960.0535 2600,-947 2569.7947,-927.3511 2540.0177,-897.4176 2523.4201,-879.5235"/>
<polygon fill="#191970" stroke="#191970" points="2663.9005,-983.0593 2674.4865,-983.4899 2666.4796,-976.5517 2663.9005,-983.0593"/>
</g>
<!-- Node239&#45;&gt;Node173 -->
<g id="edge140" class="edge">
<title>Node239&#45;&gt;Node173</title>
<path fill="none" stroke="#191970" d="M2718,-973.3415C2718,-945.8131 2718,-902.5714 2718,-879.7614"/>
<polygon fill="#191970" stroke="#191970" points="2714.5001,-973.3889 2718,-983.389 2721.5001,-973.389 2714.5001,-973.3889"/>
</g>
<!-- Node250&#45;&gt;Node206 -->
<g id="edge151" class="edge">
<title>Node250&#45;&gt;Node206</title>
<path fill="none" stroke="#191970" d="M1369.3425,-907.7783C1374.6142,-899.3049 1380.0972,-889.499 1384,-880 1398.3385,-845.1021 1404,-835.2287 1404,-797.5 1404,-797.5 1404,-797.5 1404,-680 1404,-635.9528 1431.994,-589.9548 1448.3968,-566.7835"/>
<polygon fill="#191970" stroke="#191970" points="1366.2771,-906.0734 1363.79,-916.3721 1372.1567,-909.8722 1366.2771,-906.0734"/>
</g>
</g>
</svg>
