<?xml version="1.0" encoding="UTF-8" standalone="no"?>
<!DOCTYPE svg PUBLIC "-//W3C//DTD SVG 1.1//EN"
 "http://www.w3.org/Graphics/SVG/1.1/DTD/svg11.dtd">
<!-- Generated by graphviz version 2.40.1 (20161225.0304)
 -->
<!-- Title: include/tvm/runtime/data_type.h Pages: 1 -->
<svg width="3407pt" height="1033pt"
 viewBox="0.00 0.00 3406.81 1033.00" xmlns="http://www.w3.org/2000/svg" xmlns:xlink="http://www.w3.org/1999/xlink">
<g id="graph0" class="graph" transform="scale(1 1) rotate(0) translate(4 1029)">
<title>include/tvm/runtime/data_type.h</title>
<polygon fill="#ffffff" stroke="transparent" points="-4,4 -4,-1029 3402.8147,-1029 3402.8147,4 -4,4"/>
<!-- Node8 -->
<g id="node1" class="node">
<title>Node8</title>
<polygon fill="#bfbfbf" stroke="#000000" points="1448,-994.5 1448,-1024.5 1564,-1024.5 1564,-994.5 1448,-994.5"/>
<text text-anchor="start" x="1456" y="-1012.5" font-family="Helvetica,sans-Serif" font-size="10.00" fill="#000000">include/tvm/runtime</text>
<text text-anchor="middle" x="1506" y="-1001.5" font-family="Helvetica,sans-Serif" font-size="10.00" fill="#000000">/data_type.h</text>
</g>
<!-- Node9 -->
<g id="node2" class="node">
<title>Node9</title>
<g id="a_node2"><a xlink:href="ir_2type_8h.html" target="_top" xlink:title="IR/AST nodes for the unified type system in TVM. ">
<polygon fill="#ffffff" stroke="#000000" points="413,-670.5 413,-689.5 531,-689.5 531,-670.5 413,-670.5"/>
<text text-anchor="middle" x="472" y="-677.5" font-family="Helvetica,sans-Serif" font-size="10.00" fill="#000000">include/tvm/ir/type.h</text>
</a>
</g>
</g>
<!-- Node8&#45;&gt;Node9 -->
<g id="edge1" class="edge">
<title>Node8&#45;&gt;Node9</title>
<path fill="none" stroke="#191970" d="M1437.7685,-1007.5523C1225.4055,-1001.2639 588.084,-980.5946 550,-958 512.9266,-936.0049 499,-918.6071 499,-875.5 499,-875.5 499,-875.5 499,-808.5 499,-763.1356 482.6849,-710.6508 475.4196,-689.5277"/>
<polygon fill="#191970" stroke="#191970" points="1437.7569,-1011.0533 1447.8557,-1007.8496 1437.9632,-1004.0564 1437.7569,-1011.0533"/>
</g>
<!-- Node163 -->
<g id="node12" class="node">
<title>Node163</title>
<g id="a_node12"><a xlink:href="arg__info_8h.html" target="_top" xlink:title="include/tvm/meta_schedule\l/arg_info.h">
<polygon fill="#ffffff" stroke="#000000" points="2364,-402.5 2364,-432.5 2516,-432.5 2516,-402.5 2364,-402.5"/>
<text text-anchor="start" x="2372" y="-420.5" font-family="Helvetica,sans-Serif" font-size="10.00" fill="#000000">include/tvm/meta_schedule</text>
<text text-anchor="middle" x="2440" y="-409.5" font-family="Helvetica,sans-Serif" font-size="10.00" fill="#000000">/arg_info.h</text>
</a>
</g>
</g>
<!-- Node8&#45;&gt;Node163 -->
<g id="edge86" class="edge">
<title>Node8&#45;&gt;Node163</title>
<path fill="none" stroke="#191970" d="M1574.3783,-1008.9893C1849.9611,-1006.2669 2869.187,-989.5585 2970,-891 3022.6538,-839.5238 3022.089,-789.6131 2985,-726 2977.4444,-713.0411 2577.674,-493.0401 2467.7242,-432.6996"/>
<polygon fill="#191970" stroke="#191970" points="1574.0859,-1005.4919 1564.1199,-1009.0875 1574.153,-1012.4915 1574.0859,-1005.4919"/>
</g>
<!-- Node212 -->
<g id="node32" class="node">
<title>Node212</title>
<g id="a_node32"><a xlink:href="doc_8h.html" target="_top" xlink:title="include/tvm/script\l/printer/doc.h">
<polygon fill="#ffffff" stroke="#ff0000" points="1414,-536.5 1414,-566.5 1518,-566.5 1518,-536.5 1414,-536.5"/>
<text text-anchor="start" x="1422" y="-554.5" font-family="Helvetica,sans-Serif" font-size="10.00" fill="#000000">include/tvm/script</text>
<text text-anchor="middle" x="1466" y="-543.5" font-family="Helvetica,sans-Serif" font-size="10.00" fill="#000000">/printer/doc.h</text>
</a>
</g>
</g>
<!-- Node8&#45;&gt;Node212 -->
<g id="edge158" class="edge">
<title>Node8&#45;&gt;Node212</title>
<path fill="none" stroke="#191970" d="M1499.0431,-984.2873C1486.6411,-937.0501 1462,-831.8299 1462,-741.5 1462,-741.5 1462,-741.5 1462,-680 1462,-638.9315 1464.0664,-590.5157 1465.2288,-566.5303"/>
<polygon fill="#191970" stroke="#191970" points="1495.7384,-985.4783 1501.701,-994.236 1502.5012,-983.6714 1495.7384,-985.4783"/>
</g>
<!-- Node215 -->
<g id="node33" class="node">
<title>Node215</title>
<g id="a_node33"><a xlink:href="tir_2expr_8h.html" target="_top" xlink:title="TIR expressions. ">
<polygon fill="#ffffff" stroke="#ff0000" points="730.5,-475 730.5,-494 851.5,-494 851.5,-475 730.5,-475"/>
<text text-anchor="middle" x="791" y="-482" font-family="Helvetica,sans-Serif" font-size="10.00" fill="#000000">include/tvm/tir/expr.h</text>
</a>
</g>
</g>
<!-- Node8&#45;&gt;Node215 -->
<g id="edge159" class="edge">
<title>Node8&#45;&gt;Node215</title>
<path fill="none" stroke="#191970" d="M1437.493,-1006.9681C1220.7208,-998.056 564,-963.7721 564,-875.5 564,-875.5 564,-875.5 564,-808.5 564,-747.1243 568.1002,-581.7622 609,-536 618.4095,-525.4718 697.3327,-505.8429 748.113,-494.095"/>
<polygon fill="#191970" stroke="#191970" points="1437.6509,-1010.4773 1447.7846,-1007.3857 1437.9347,-1003.483 1437.6509,-1010.4773"/>
</g>
<!-- Node222 -->
<g id="node34" class="node">
<title>Node222</title>
<g id="a_node34"><a xlink:href="var_8h.html" target="_top" xlink:title="Variables in the TIR. ">
<polygon fill="#ffffff" stroke="#ff0000" points="618.5,-542 618.5,-561 733.5,-561 733.5,-542 618.5,-542"/>
<text text-anchor="middle" x="676" y="-549" font-family="Helvetica,sans-Serif" font-size="10.00" fill="#000000">include/tvm/tir/var.h</text>
</a>
</g>
</g>
<!-- Node8&#45;&gt;Node222 -->
<g id="edge160" class="edge">
<title>Node8&#45;&gt;Node222</title>
<path fill="none" stroke="#191970" d="M1440.1005,-991.6423C1405.1973,-982.0108 1361.6652,-969.7232 1323,-958 1230.8655,-930.065 1204.1446,-931.9261 1117,-891 965.6595,-819.9253 934.8149,-787.5185 799,-690 766.918,-666.9643 756.4646,-663.3177 730,-634 708.5504,-610.2379 689.6238,-577.17 680.9794,-561.0706"/>
<polygon fill="#191970" stroke="#191970" points="1439.6011,-995.135 1450.1714,-994.4139 1441.4585,-988.3859 1439.6011,-995.135"/>
</g>
<!-- Node225 -->
<g id="node36" class="node">
<title>Node225</title>
<g id="a_node36"><a xlink:href="reflection_8h.html" target="_top" xlink:title="Reflection and serialization of compiler IR/AST nodes. ">
<polygon fill="#ffffff" stroke="#000000" points="2090.5,-799 2090.5,-818 2249.5,-818 2249.5,-799 2090.5,-799"/>
<text text-anchor="middle" x="2170" y="-806" font-family="Helvetica,sans-Serif" font-size="10.00" fill="#000000">include/tvm/node/reflection.h</text>
</a>
</g>
</g>
<!-- Node8&#45;&gt;Node225 -->
<g id="edge87" class="edge">
<title>Node8&#45;&gt;Node225</title>
<path fill="none" stroke="#191970" d="M1565.5218,-991.4821C1702.1845,-950.1128 2034.6449,-849.4734 2138.4793,-818.0417"/>
<polygon fill="#191970" stroke="#191970" points="1564.1934,-988.2273 1555.6364,-994.4745 1566.2215,-994.9271 1564.1934,-988.2273"/>
</g>
<!-- Node234 -->
<g id="node43" class="node">
<title>Node234</title>
<g id="a_node43"><a xlink:href="structural__equal_8h.html" target="_top" xlink:title="Structural equality comparison. ">
<polygon fill="#ffffff" stroke="#000000" points="1126.5,-860.5 1126.5,-890.5 1277.5,-890.5 1277.5,-860.5 1126.5,-860.5"/>
<text text-anchor="start" x="1134.5" y="-878.5" font-family="Helvetica,sans-Serif" font-size="10.00" fill="#000000">include/tvm/node/structural</text>
<text text-anchor="middle" x="1202" y="-867.5" font-family="Helvetica,sans-Serif" font-size="10.00" fill="#000000">_equal.h</text>
</a>
</g>
</g>
<!-- Node8&#45;&gt;Node234 -->
<g id="edge122" class="edge">
<title>Node8&#45;&gt;Node234</title>
<path fill="none" stroke="#191970" d="M1462.3513,-990.2601C1401.2906,-963.3452 1291.6431,-915.0137 1236.1564,-890.5558"/>
<polygon fill="#191970" stroke="#191970" points="1461.1561,-993.5582 1471.7183,-994.389 1463.9795,-987.1528 1461.1561,-993.5582"/>
</g>
<!-- Node235 -->
<g id="node44" class="node">
<title>Node235</title>
<g id="a_node44"><a xlink:href="structural__hash_8h.html" target="_top" xlink:title="Structural hash class. ">
<polygon fill="#ffffff" stroke="#000000" points="1295.5,-860.5 1295.5,-890.5 1446.5,-890.5 1446.5,-860.5 1295.5,-860.5"/>
<text text-anchor="start" x="1303.5" y="-878.5" font-family="Helvetica,sans-Serif" font-size="10.00" fill="#000000">include/tvm/node/structural</text>
<text text-anchor="middle" x="1371" y="-867.5" font-family="Helvetica,sans-Serif" font-size="10.00" fill="#000000">_hash.h</text>
</a>
</g>
</g>
<!-- Node8&#45;&gt;Node235 -->
<g id="edge126" class="edge">
<title>Node8&#45;&gt;Node235</title>
<path fill="none" stroke="#191970" d="M1483.5378,-987.2042C1456.0299,-959.9001 1410.169,-914.3788 1386.3753,-890.7614"/>
<polygon fill="#191970" stroke="#191970" points="1481.2132,-989.8283 1490.7762,-994.389 1486.1445,-984.8601 1481.2132,-989.8283"/>
</g>
<!-- Node236 -->
<g id="node45" class="node">
<title>Node236</title>
<g id="a_node45"><a xlink:href="ndarray_8h.html" target="_top" xlink:title="A device&#45;independent managed NDArray abstraction. ">
<polygon fill="#ffffff" stroke="#ff0000" points="3021,-927.5 3021,-957.5 3137,-957.5 3137,-927.5 3021,-927.5"/>
<text text-anchor="start" x="3029" y="-945.5" font-family="Helvetica,sans-Serif" font-size="10.00" fill="#000000">include/tvm/runtime</text>
<text text-anchor="middle" x="3079" y="-934.5" font-family="Helvetica,sans-Serif" font-size="10.00" fill="#000000">/ndarray.h</text>
</a>
</g>
</g>
<!-- Node8&#45;&gt;Node236 -->
<g id="edge130" class="edge">
<title>Node8&#45;&gt;Node236</title>
<path fill="none" stroke="#191970" d="M1574.225,-1008.7704C1828.9288,-1005.7959 2724.0133,-993.0326 3007,-958 3011.5682,-957.4345 3016.2755,-956.7215 3020.9923,-955.9137"/>
<polygon fill="#191970" stroke="#191970" points="1573.9647,-1005.2731 1564.0058,-1008.8885 1574.0456,-1012.2726 1573.9647,-1005.2731"/>
</g>
<!-- Node241 -->
<g id="node48" class="node">
<title>Node241</title>
<g id="a_node48"><a xlink:href="packed__func_8h.html" target="_top" xlink:title="Type&#45;erased function used across TVM API. ">
<polygon fill="#ffffff" stroke="#ff0000" points="2845,-860.5 2845,-890.5 2961,-890.5 2961,-860.5 2845,-860.5"/>
<text text-anchor="start" x="2853" y="-878.5" font-family="Helvetica,sans-Serif" font-size="10.00" fill="#000000">include/tvm/runtime</text>
<text text-anchor="middle" x="2903" y="-867.5" font-family="Helvetica,sans-Serif" font-size="10.00" fill="#000000">/packed_func.h</text>
</a>
</g>
</g>
<!-- Node8&#45;&gt;Node241 -->
<g id="edge154" class="edge">
<title>Node8&#45;&gt;Node241</title>
<path fill="none" stroke="#191970" d="M1574.2632,-1002.9522C1814.8687,-979.8734 2621.008,-902.5486 2844.89,-881.0739"/>
<polygon fill="#191970" stroke="#191970" points="1573.8689,-999.4739 1564.2488,-1003.9128 1574.5373,-1006.4419 1573.8689,-999.4739"/>
</g>
<!-- Node252 -->
<g id="node49" class="node">
<title>Node252</title>
<g id="a_node49"><a xlink:href="relax__vm_2bytecode_8h.html" target="_top" xlink:title="The bytecode for the virtual machine. ">
<polygon fill="#ffffff" stroke="#ff0000" points="1490,-793.5 1490,-823.5 1612,-823.5 1612,-793.5 1490,-793.5"/>
<text text-anchor="start" x="1498" y="-811.5" font-family="Helvetica,sans-Serif" font-size="10.00" fill="#000000">include/tvm/runtime</text>
<text text-anchor="middle" x="1551" y="-800.5" font-family="Helvetica,sans-Serif" font-size="10.00" fill="#000000">/relax_vm/bytecode.h</text>
</a>
</g>
</g>
<!-- Node8&#45;&gt;Node252 -->
<g id="edge155" class="edge">
<title>Node8&#45;&gt;Node252</title>
<path fill="none" stroke="#191970" d="M1511.5708,-984.6171C1521.0304,-942.364 1539.9545,-857.8364 1547.6398,-823.5088"/>
<polygon fill="#191970" stroke="#191970" points="1508.1517,-983.8692 1509.3823,-994.3923 1514.9826,-985.3986 1508.1517,-983.8692"/>
</g>
<!-- Node253 -->
<g id="node50" class="node">
<title>Node253</title>
<g id="a_node50"><a xlink:href="vm_2bytecode_8h.html" target="_top" xlink:title="The bytecode for Relay virtual machine. ">
<polygon fill="#ffffff" stroke="#ff0000" points="3155,-927.5 3155,-957.5 3271,-957.5 3271,-927.5 3155,-927.5"/>
<text text-anchor="start" x="3163" y="-945.5" font-family="Helvetica,sans-Serif" font-size="10.00" fill="#000000">include/tvm/runtime</text>
<text text-anchor="middle" x="3213" y="-934.5" font-family="Helvetica,sans-Serif" font-size="10.00" fill="#000000">/vm/bytecode.h</text>
</a>
</g>
</g>
<!-- Node8&#45;&gt;Node253 -->
<g id="edge157" class="edge">
<title>Node8&#45;&gt;Node253</title>
<path fill="none" stroke="#191970" d="M1574.2064,-1009.1391C1843.6892,-1007.4372 2834.6824,-998.5007 3146,-958 3148.8415,-957.6303 3151.739,-957.1938 3154.6572,-956.7061"/>
<polygon fill="#191970" stroke="#191970" points="1574.1499,-1005.6392 1564.1718,-1009.2012 1574.1933,-1012.6391 1574.1499,-1005.6392"/>
</g>
<!-- Node10 -->
<g id="node3" class="node">
<title>Node10</title>
<g id="a_node3"><a xlink:href="ir_2adt_8h.html" target="_top" xlink:title="Algebraic data type definitions. ">
<polygon fill="#ffffff" stroke="#ff0000" points="1284,-542 1284,-561 1396,-561 1396,-542 1284,-542"/>
<text text-anchor="middle" x="1340" y="-549" font-family="Helvetica,sans-Serif" font-size="10.00" fill="#000000">include/tvm/ir/adt.h</text>
</a>
</g>
</g>
<!-- Node9&#45;&gt;Node10 -->
<g id="edge2" class="edge">
<title>Node9&#45;&gt;Node10</title>
<path fill="none" stroke="#191970" d="M541.4991,-679.1095C723.7281,-676.3375 1205.7323,-666.0322 1270,-634 1302.4462,-617.8282 1325.7558,-579.1496 1335.2635,-561.0918"/>
<polygon fill="#191970" stroke="#191970" points="541.1773,-675.6138 531.2306,-679.2626 541.2817,-682.6131 541.1773,-675.6138"/>
</g>
<!-- Node11 -->
<g id="node4" class="node">
<title>Node11</title>
<g id="a_node4"><a xlink:href="ir_2module_8h.html" target="_top" xlink:title="IRModule that holds the functions and type definitions. ">
<polygon fill="#ffffff" stroke="#ff0000" points="1932.5,-475 1932.5,-494 2065.5,-494 2065.5,-475 1932.5,-475"/>
<text text-anchor="middle" x="1999" y="-482" font-family="Helvetica,sans-Serif" font-size="10.00" fill="#000000">include/tvm/ir/module.h</text>
</a>
</g>
</g>
<!-- Node9&#45;&gt;Node11 -->
<g id="edge76" class="edge">
<title>Node9&#45;&gt;Node11</title>
<path fill="none" stroke="#191970" d="M541.2073,-677.2224C699.4212,-670.5804 1078.1666,-652.918 1133,-634 1183.2241,-616.6722 1188.4466,-597.4273 1232,-567 1251.3134,-553.5073 1252.8309,-543.9744 1275,-536 1389.2109,-494.9174 1698.9769,-509.236 1820,-500 1857.1672,-497.1636 1898.6393,-493.5978 1932.2986,-490.6016"/>
<polygon fill="#191970" stroke="#191970" points="540.9561,-673.7297 531.1108,-677.6438 541.2481,-680.7236 540.9561,-673.7297"/>
</g>
<!-- Node128 -->
<g id="node5" class="node">
<title>Node128</title>
<g id="a_node5"><a xlink:href="type__relation_8h.html" target="_top" xlink:title="Type relation and function for type inference(checking). ">
<polygon fill="#ffffff" stroke="#000000" points="408.5,-402.5 408.5,-432.5 517.5,-432.5 517.5,-402.5 408.5,-402.5"/>
<text text-anchor="start" x="416.5" y="-420.5" font-family="Helvetica,sans-Serif" font-size="10.00" fill="#000000">include/tvm/ir/type</text>
<text text-anchor="middle" x="463" y="-409.5" font-family="Helvetica,sans-Serif" font-size="10.00" fill="#000000">_relation.h</text>
</a>
</g>
</g>
<!-- Node9&#45;&gt;Node128 -->
<g id="edge79" class="edge">
<title>Node9&#45;&gt;Node128</title>
<path fill="none" stroke="#191970" d="M413.7113,-667.2731C394.4708,-660.3812 374.5488,-649.8857 361,-634 341.1331,-610.7064 348.5801,-597.405 345,-567 343.3888,-553.3168 339.7409,-548.7346 345,-536 345.6857,-534.3396 415.899,-464.3603 447.6792,-432.7361"/>
<polygon fill="#191970" stroke="#191970" points="412.7778,-670.6507 423.371,-670.4662 414.9749,-664.0044 412.7778,-670.6507"/>
</g>
<!-- Node129 -->
<g id="node6" class="node">
<title>Node129</title>
<g id="a_node6"><a xlink:href="ir_2op_8h.html" target="_top" xlink:title="Primitive operators(builtin intrinsics) and registry for them. ">
<polygon fill="#ffffff" stroke="#ff0000" points="782,-341 782,-360 890,-360 890,-341 782,-341"/>
<text text-anchor="middle" x="836" y="-348" font-family="Helvetica,sans-Serif" font-size="10.00" fill="#000000">include/tvm/ir/op.h</text>
</a>
</g>
</g>
<!-- Node9&#45;&gt;Node129 -->
<g id="edge77" class="edge">
<title>Node9&#45;&gt;Node129</title>
<path fill="none" stroke="#191970" d="M541.3562,-671.5722C633.943,-656.0904 793.9223,-613.5049 860,-500 887.2443,-453.2011 855.1018,-384.9146 841.5068,-360.0255"/>
<polygon fill="#191970" stroke="#191970" points="540.5529,-668.1564 531.2363,-673.2013 541.6655,-675.0674 540.5529,-668.1564"/>
</g>
<!-- Node134 -->
<g id="node7" class="node">
<title>Node134</title>
<g id="a_node7"><a xlink:href="tir_2op_8h.html" target="_top" xlink:title="Common operators defined for Expr. ">
<polygon fill="#ffffff" stroke="#ff0000" points="821,-274 821,-293 933,-293 933,-274 821,-274"/>
<text text-anchor="middle" x="877" y="-281" font-family="Helvetica,sans-Serif" font-size="10.00" fill="#000000">include/tvm/tir/op.h</text>
</a>
</g>
</g>
<!-- Node9&#45;&gt;Node134 -->
<g id="edge85" class="edge">
<title>Node9&#45;&gt;Node134</title>
<path fill="none" stroke="#191970" d="M402.5149,-673.8936C279.9099,-661.1847 38,-626.5943 38,-551.5 38,-551.5 38,-551.5 38,-417.5 38,-379.8735 28.3087,-359.3426 57,-335 86.1126,-310.3 640.2028,-290.8896 820.6936,-285.2004"/>
<polygon fill="#191970" stroke="#191970" points="402.2617,-677.3858 412.5642,-674.9139 402.9689,-670.4216 402.2617,-677.3858"/>
</g>
<!-- Node157 -->
<g id="node8" class="node">
<title>Node157</title>
<g id="a_node8"><a xlink:href="relax_2type_8h.html" target="_top" xlink:title="Relax Types. ">
<polygon fill="#ffffff" stroke="#ff0000" points="442,-341 442,-360 578,-360 578,-341 442,-341"/>
<text text-anchor="middle" x="510" y="-348" font-family="Helvetica,sans-Serif" font-size="10.00" fill="#000000">include/tvm/relax/type.h</text>
</a>
</g>
</g>
<!-- Node9&#45;&gt;Node157 -->
<g id="edge80" class="edge">
<title>Node9&#45;&gt;Node157</title>
<path fill="none" stroke="#191970" d="M420.426,-667.8099C388.8793,-659.2309 352.7572,-646.9975 343,-634 316.8294,-599.1382 329.8917,-578.6296 339,-536 352.6343,-472.1871 353.1696,-448.4494 399,-402 419.5159,-381.207 450.0152,-367.8932 473.8551,-360.0228"/>
<polygon fill="#191970" stroke="#191970" points="419.9062,-671.2926 430.4685,-670.4633 421.6943,-664.5249 419.9062,-671.2926"/>
</g>
<!-- Node158 -->
<g id="node9" class="node">
<title>Node158</title>
<g id="a_node9"><a xlink:href="executor_8h.html" target="_top" xlink:title="Object representation of Executor configuration and registry. ">
<polygon fill="#ffffff" stroke="#000000" points="66,-341 66,-360 222,-360 222,-341 66,-341"/>
<text text-anchor="middle" x="144" y="-348" font-family="Helvetica,sans-Serif" font-size="10.00" fill="#000000">include/tvm/relay/executor.h</text>
</a>
</g>
</g>
<!-- Node9&#45;&gt;Node158 -->
<g id="edge82" class="edge">
<title>Node9&#45;&gt;Node158</title>
<path fill="none" stroke="#191970" d="M402.7266,-674.0562C362.4713,-668.2387 311.9695,-656.7357 272,-634 179.9419,-581.635 167.4007,-536.2918 144,-433 138.177,-407.2972 140.7246,-375.9225 142.6182,-360.3074"/>
<polygon fill="#191970" stroke="#191970" points="402.3472,-677.5368 412.7276,-675.4161 403.2904,-670.6006 402.3472,-677.5368"/>
</g>
<!-- Node159 -->
<g id="node10" class="node">
<title>Node159</title>
<g id="a_node10"><a xlink:href="relay_2type_8h.html" target="_top" xlink:title="Relay typed AST nodes. ">
<polygon fill="#ffffff" stroke="#ff0000" points="610,-341 610,-360 746,-360 746,-341 610,-341"/>
<text text-anchor="middle" x="678" y="-348" font-family="Helvetica,sans-Serif" font-size="10.00" fill="#000000">include/tvm/relay/type.h</text>
</a>
</g>
</g>
<!-- Node9&#45;&gt;Node159 -->
<g id="edge83" class="edge">
<title>Node9&#45;&gt;Node159</title>
<path fill="none" stroke="#191970" d="M504.0173,-665.7512C518.0076,-658.1105 533.5697,-647.4687 544,-634 572.054,-597.7739 543.7463,-568.5432 576,-536 611.3202,-500.3627 651.0661,-538.7009 683,-500 717.2134,-458.5366 692.8282,-386.3806 682.2398,-360.2775"/>
<polygon fill="#191970" stroke="#191970" points="502.4045,-662.6449 495.1203,-670.3384 505.6124,-668.8666 502.4045,-662.6449"/>
</g>
<!-- Node160 -->
<g id="node11" class="node">
<title>Node160</title>
<g id="a_node11"><a xlink:href="runtime_8h.html" target="_top" xlink:title="Object representation of Runtime configuration and registry. ">
<polygon fill="#ffffff" stroke="#000000" points="240,-341 240,-360 392,-360 392,-341 240,-341"/>
<text text-anchor="middle" x="316" y="-348" font-family="Helvetica,sans-Serif" font-size="10.00" fill="#000000">include/tvm/relay/runtime.h</text>
</a>
</g>
</g>
<!-- Node9&#45;&gt;Node160 -->
<g id="edge84" class="edge">
<title>Node9&#45;&gt;Node160</title>
<path fill="none" stroke="#191970" d="M410.4785,-667.9492C382.9824,-660.7987 350.9892,-649.934 325,-634 253.9958,-590.4674 225.4364,-577.1261 194,-500 177.3424,-459.1322 182.3711,-436.4136 210,-402 227.0357,-380.7809 254.981,-367.7092 277.902,-360.0467"/>
<polygon fill="#191970" stroke="#191970" points="409.8361,-671.3961 420.3857,-670.4181 411.5288,-664.6038 409.8361,-671.3961"/>
</g>
<!-- Node178 -->
<g id="node26" class="node">
<title>Node178</title>
<g id="a_node26"><a xlink:href="affine__type_8h.html" target="_top" xlink:title="Quantized Tensor Types. ">
<polygon fill="#ffffff" stroke="#000000" points="370.5,-536.5 370.5,-566.5 485.5,-566.5 485.5,-536.5 370.5,-536.5"/>
<text text-anchor="start" x="378.5" y="-554.5" font-family="Helvetica,sans-Serif" font-size="10.00" fill="#000000">include/tvm/ir/affine</text>
<text text-anchor="middle" x="428" y="-543.5" font-family="Helvetica,sans-Serif" font-size="10.00" fill="#000000">_type.h</text>
</a>
</g>
</g>
<!-- Node9&#45;&gt;Node178 -->
<g id="edge44" class="edge">
<title>Node9&#45;&gt;Node178</title>
<path fill="none" stroke="#191970" d="M435.2754,-666.0781C421.3211,-658.7767 406.8964,-648.3092 399,-634 386.8234,-611.9346 402.632,-583.7964 415.2524,-566.7389"/>
<polygon fill="#191970" stroke="#191970" points="433.776,-669.2407 444.3041,-670.4275 436.814,-662.9343 433.776,-669.2407"/>
</g>
<!-- Node179 -->
<g id="node27" class="node">
<title>Node179</title>
<g id="a_node27"><a xlink:href="ir_2expr_8h.html" target="_top" xlink:title="Base expr nodes in TVM. ">
<polygon fill="#ffffff" stroke="#ff0000" points="1007.5,-609 1007.5,-628 1124.5,-628 1124.5,-609 1007.5,-609"/>
<text text-anchor="middle" x="1066" y="-616" font-family="Helvetica,sans-Serif" font-size="10.00" fill="#000000">include/tvm/ir/expr.h</text>
</a>
</g>
</g>
<!-- Node9&#45;&gt;Node179 -->
<g id="edge45" class="edge">
<title>Node9&#45;&gt;Node179</title>
<path fill="none" stroke="#191970" d="M541.1178,-672.8439C658.9492,-660.6442 896.6626,-636.0324 1007.1125,-624.5969"/>
<polygon fill="#191970" stroke="#191970" points="540.713,-669.367 531.1266,-673.8783 541.4339,-676.3298 540.713,-669.367"/>
</g>
<!-- Node208 -->
<g id="node29" class="node">
<title>Node208</title>
<g id="a_node29"><a xlink:href="tensor__type_8h.html" target="_top" xlink:title="Polymorphic tensor types. ">
<polygon fill="#ffffff" stroke="#000000" points="556,-469.5 556,-499.5 674,-499.5 674,-469.5 556,-469.5"/>
<text text-anchor="start" x="564" y="-487.5" font-family="Helvetica,sans-Serif" font-size="10.00" fill="#000000">include/tvm/ir/tensor</text>
<text text-anchor="middle" x="615" y="-476.5" font-family="Helvetica,sans-Serif" font-size="10.00" fill="#000000">_type.h</text>
</a>
</g>
</g>
<!-- Node9&#45;&gt;Node208 -->
<g id="edge78" class="edge">
<title>Node9&#45;&gt;Node208</title>
<path fill="none" stroke="#191970" d="M436.7791,-666.0554C421.1574,-658.4641 403.5198,-647.7763 391,-634 360.3648,-600.2902 332.0298,-571.151 361,-536 414.2741,-471.3597 464.0165,-517.1814 546,-500 549.2445,-499.32 552.5721,-498.6111 555.9293,-497.8869"/>
<polygon fill="#191970" stroke="#191970" points="435.634,-669.3813 446.1815,-670.3819 438.5601,-663.0222 435.634,-669.3813"/>
</g>
<!-- Node224 -->
<g id="node35" class="node">
<title>Node224</title>
<g id="a_node35"><a xlink:href="type__analysis_8h.html" target="_top" xlink:title="Relax type analysis APIs. ">
<polygon fill="#ffffff" stroke="#000000" points="408.5,-603.5 408.5,-633.5 535.5,-633.5 535.5,-603.5 408.5,-603.5"/>
<text text-anchor="start" x="416.5" y="-621.5" font-family="Helvetica,sans-Serif" font-size="10.00" fill="#000000">include/tvm/relax/type</text>
<text text-anchor="middle" x="472" y="-610.5" font-family="Helvetica,sans-Serif" font-size="10.00" fill="#000000">_analysis.h</text>
</a>
</g>
</g>
<!-- Node9&#45;&gt;Node224 -->
<g id="edge81" class="edge">
<title>Node9&#45;&gt;Node224</title>
<path fill="none" stroke="#191970" d="M472,-660.3693C472,-651.681 472,-641.6241 472,-633.5446"/>
<polygon fill="#191970" stroke="#191970" points="468.5001,-660.3906 472,-670.3906 475.5001,-660.3907 468.5001,-660.3906"/>
</g>
<!-- Node10&#45;&gt;Node11 -->
<g id="edge3" class="edge">
<title>Node10&#45;&gt;Node11</title>
<path fill="none" stroke="#191970" d="M1385.8268,-539.6815C1392.2359,-538.2896 1398.762,-537.0085 1405,-536 1405.8088,-535.8692 1777.4655,-503.6818 1932.4082,-490.2656"/>
<polygon fill="#191970" stroke="#191970" points="1384.8845,-536.3064 1375.9096,-541.9369 1386.4368,-543.1321 1384.8845,-536.3064"/>
</g>
<!-- Node11&#45;&gt;Node128 -->
<g id="edge4" class="edge">
<title>Node11&#45;&gt;Node128</title>
<path fill="none" stroke="#191970" d="M1921.8966,-481.1368C1651.4806,-469.3413 750.011,-430.0194 517.8889,-419.8942"/>
<polygon fill="#191970" stroke="#191970" points="1921.8693,-484.6388 1932.0123,-481.578 1922.1744,-477.6455 1921.8693,-484.6388"/>
</g>
<!-- Node11&#45;&gt;Node163 -->
<g id="edge11" class="edge">
<title>Node11&#45;&gt;Node163</title>
<path fill="none" stroke="#191970" d="M2071.7866,-473.4417C2152.4167,-461.1918 2281.8361,-441.5294 2363.8094,-429.0754"/>
<polygon fill="#191970" stroke="#191970" points="2071.077,-470.0093 2061.7162,-474.9717 2072.1285,-476.9299 2071.077,-470.0093"/>
</g>
<!-- Node40 -->
<g id="node17" class="node">
<title>Node40</title>
<g id="a_node17"><a xlink:href="tune__context_8h.html" target="_top" xlink:title="include/tvm/meta_schedule\l/tune_context.h">
<polygon fill="#ffffff" stroke="#000000" points="2243,-134.5 2243,-164.5 2395,-164.5 2395,-134.5 2243,-134.5"/>
<text text-anchor="start" x="2251" y="-152.5" font-family="Helvetica,sans-Serif" font-size="10.00" fill="#000000">include/tvm/meta_schedule</text>
<text text-anchor="middle" x="2319" y="-141.5" font-family="Helvetica,sans-Serif" font-size="10.00" fill="#000000">/tune_context.h</text>
</a>
</g>
</g>
<!-- Node11&#45;&gt;Node40 -->
<g id="edge43" class="edge">
<title>Node11&#45;&gt;Node40</title>
<path fill="none" stroke="#191970" d="M2013.0898,-466.6393C2019.9853,-457.1224 2027.8824,-444.9398 2033,-433 2047.8232,-398.4164 2052,-388.1265 2052,-350.5 2052,-350.5 2052,-350.5 2052,-283.5 2052,-236.1737 2187.6929,-188.2238 2265.6103,-164.5913"/>
<polygon fill="#191970" stroke="#191970" points="2010.1257,-464.7573 2006.9088,-474.852 2015.7187,-468.9667 2010.1257,-464.7573"/>
</g>
<!-- Node41 -->
<g id="node18" class="node">
<title>Node41</title>
<g id="a_node18"><a xlink:href="database_8h.html" target="_top" xlink:title="include/tvm/meta_schedule\l/database.h">
<polygon fill="#ffffff" stroke="#ff0000" points="2364,-335.5 2364,-365.5 2516,-365.5 2516,-335.5 2364,-335.5"/>
<text text-anchor="start" x="2372" y="-353.5" font-family="Helvetica,sans-Serif" font-size="10.00" fill="#000000">include/tvm/meta_schedule</text>
<text text-anchor="middle" x="2440" y="-342.5" font-family="Helvetica,sans-Serif" font-size="10.00" fill="#000000">/database.h</text>
</a>
</g>
</g>
<!-- Node11&#45;&gt;Node41 -->
<g id="edge38" class="edge">
<title>Node11&#45;&gt;Node41</title>
<path fill="none" stroke="#191970" d="M2021.141,-469.0204C2049.1345,-450.209 2099.4312,-418.8944 2147,-402 2218.1791,-376.7203 2303.6573,-363.5165 2363.8659,-356.8415"/>
<polygon fill="#191970" stroke="#191970" points="2018.8319,-466.3585 2012.5387,-474.8818 2022.7735,-472.1433 2018.8319,-466.3585"/>
</g>
<!-- Node37 -->
<g id="node22" class="node">
<title>Node37</title>
<g id="a_node22"><a xlink:href="builder_8h.html" target="_top" xlink:title="include/tvm/meta_schedule\l/builder.h">
<polygon fill="#ffffff" stroke="#000000" points="3125,-402.5 3125,-432.5 3277,-432.5 3277,-402.5 3125,-402.5"/>
<text text-anchor="start" x="3133" y="-420.5" font-family="Helvetica,sans-Serif" font-size="10.00" fill="#000000">include/tvm/meta_schedule</text>
<text text-anchor="middle" x="3201" y="-409.5" font-family="Helvetica,sans-Serif" font-size="10.00" fill="#000000">/builder.h</text>
</a>
</g>
</g>
<!-- Node11&#45;&gt;Node37 -->
<g id="edge34" class="edge">
<title>Node11&#45;&gt;Node37</title>
<path fill="none" stroke="#191970" d="M2075.793,-480.2195C2292.714,-468.1283 2908.3206,-433.8141 3124.6714,-421.7546"/>
<polygon fill="#191970" stroke="#191970" points="2075.5577,-476.7271 2065.768,-480.7783 2075.9473,-483.7163 2075.5577,-476.7271"/>
</g>
<!-- Node43 -->
<g id="node23" class="node">
<title>Node43</title>
<g id="a_node23"><a xlink:href="extracted__task_8h.html" target="_top" xlink:title="include/tvm/meta_schedule\l/extracted_task.h">
<polygon fill="#ffffff" stroke="#000000" points="1872,-402.5 1872,-432.5 2024,-432.5 2024,-402.5 1872,-402.5"/>
<text text-anchor="start" x="1880" y="-420.5" font-family="Helvetica,sans-Serif" font-size="10.00" fill="#000000">include/tvm/meta_schedule</text>
<text text-anchor="middle" x="1948" y="-409.5" font-family="Helvetica,sans-Serif" font-size="10.00" fill="#000000">/extracted_task.h</text>
</a>
</g>
</g>
<!-- Node11&#45;&gt;Node43 -->
<g id="edge39" class="edge">
<title>Node11&#45;&gt;Node43</title>
<path fill="none" stroke="#191970" d="M1985.4685,-466.7233C1977.3528,-456.0615 1967.1451,-442.6515 1959.4345,-432.5218"/>
<polygon fill="#191970" stroke="#191970" points="1982.8511,-469.0634 1991.6929,-474.9005 1988.421,-464.8236 1982.8511,-469.0634"/>
</g>
<!-- Node44 -->
<g id="node24" class="node">
<title>Node44</title>
<g id="a_node24"><a xlink:href="profiler_8h.html" target="_top" xlink:title="include/tvm/meta_schedule\l/profiler.h">
<polygon fill="#ffffff" stroke="#000000" points="2156,-402.5 2156,-432.5 2308,-432.5 2308,-402.5 2156,-402.5"/>
<text text-anchor="start" x="2164" y="-420.5" font-family="Helvetica,sans-Serif" font-size="10.00" fill="#000000">include/tvm/meta_schedule</text>
<text text-anchor="middle" x="2232" y="-409.5" font-family="Helvetica,sans-Serif" font-size="10.00" fill="#000000">/profiler.h</text>
</a>
</g>
</g>
<!-- Node11&#45;&gt;Node44 -->
<g id="edge40" class="edge">
<title>Node11&#45;&gt;Node44</title>
<path fill="none" stroke="#191970" d="M2042.345,-472.036C2081.2265,-460.8555 2138.3682,-444.4242 2179.7601,-432.5218"/>
<polygon fill="#191970" stroke="#191970" points="2041.0265,-468.7732 2032.3832,-474.9005 2042.961,-475.5006 2041.0265,-468.7732"/>
</g>
<!-- Node45 -->
<g id="node25" class="node">
<title>Node45</title>
<g id="a_node25"><a xlink:href="space__generator_8h.html" target="_top" xlink:title="include/tvm/meta_schedule\l/space_generator.h">
<polygon fill="#ffffff" stroke="#000000" points="2672,-402.5 2672,-432.5 2824,-432.5 2824,-402.5 2672,-402.5"/>
<text text-anchor="start" x="2680" y="-420.5" font-family="Helvetica,sans-Serif" font-size="10.00" fill="#000000">include/tvm/meta_schedule</text>
<text text-anchor="middle" x="2748" y="-409.5" font-family="Helvetica,sans-Serif" font-size="10.00" fill="#000000">/space_generator.h</text>
</a>
</g>
</g>
<!-- Node11&#45;&gt;Node45 -->
<g id="edge41" class="edge">
<title>Node11&#45;&gt;Node45</title>
<path fill="none" stroke="#191970" d="M2075.8732,-477.6235C2219.8212,-464.747 2528.3993,-437.1439 2671.8183,-424.3147"/>
<polygon fill="#191970" stroke="#191970" points="2075.4464,-474.1476 2065.798,-478.5247 2076.0701,-481.1198 2075.4464,-474.1476"/>
</g>
<!-- Node128&#45;&gt;Node129 -->
<g id="edge5" class="edge">
<title>Node128&#45;&gt;Node129</title>
<path fill="none" stroke="#191970" d="M527.6235,-406.3791C586.8254,-396.1254 676.8693,-380.3646 755,-366 765.2796,-364.1101 776.283,-362.0376 786.7617,-360.0404"/>
<polygon fill="#191970" stroke="#191970" points="526.9235,-402.9481 517.6667,-408.102 528.1171,-409.8456 526.9235,-402.9481"/>
</g>
<!-- Node128&#45;&gt;Node157 -->
<g id="edge7" class="edge">
<title>Node128&#45;&gt;Node157</title>
<path fill="none" stroke="#191970" d="M479.5954,-393.8428C487.7575,-382.2073 497.1393,-368.8334 503.2973,-360.055"/>
<polygon fill="#191970" stroke="#191970" points="476.5426,-392.1001 473.665,-402.2967 482.2732,-396.1201 476.5426,-392.1001"/>
</g>
<!-- Node128&#45;&gt;Node158 -->
<g id="edge8" class="edge">
<title>Node128&#45;&gt;Node158</title>
<path fill="none" stroke="#191970" d="M398.0811,-403.865C335.9843,-390.8227 243.9463,-371.4919 189.3622,-360.0275"/>
<polygon fill="#191970" stroke="#191970" points="397.656,-407.352 408.1619,-405.9823 399.0949,-400.5015 397.656,-407.352"/>
</g>
<!-- Node128&#45;&gt;Node159 -->
<g id="edge9" class="edge">
<title>Node128&#45;&gt;Node159</title>
<path fill="none" stroke="#191970" d="M520.8095,-399.4849C561.6071,-386.7713 614.6466,-370.2427 647.498,-360.0053"/>
<polygon fill="#191970" stroke="#191970" points="519.756,-396.1471 511.2502,-402.4639 521.8387,-402.8302 519.756,-396.1471"/>
</g>
<!-- Node128&#45;&gt;Node160 -->
<g id="edge10" class="edge">
<title>Node128&#45;&gt;Node160</title>
<path fill="none" stroke="#191970" d="M420.6508,-398.198C393.2631,-385.7152 358.7949,-370.0051 337.0713,-360.1039"/>
<polygon fill="#191970" stroke="#191970" points="419.4593,-401.5013 430.0103,-402.4639 422.3625,-395.1317 419.4593,-401.5013"/>
</g>
<!-- Node129&#45;&gt;Node134 -->
<g id="edge6" class="edge">
<title>Node129&#45;&gt;Node134</title>
<path fill="none" stroke="#191970" d="M847.2536,-332.1099C854.9827,-319.4795 864.9301,-303.2241 871.1366,-293.0817"/>
<polygon fill="#191970" stroke="#191970" points="844.1086,-330.544 841.8743,-340.9005 850.0794,-334.1977 844.1086,-330.544"/>
</g>
<!-- Node164 -->
<g id="node13" class="node">
<title>Node164</title>
<g id="a_node13"><a xlink:href="meta__schedule_2cost__model_8h.html" target="_top" xlink:title="include/tvm/meta_schedule\l/cost_model.h">
<polygon fill="#ffffff" stroke="#000000" points="2282,-268.5 2282,-298.5 2434,-298.5 2434,-268.5 2282,-268.5"/>
<text text-anchor="start" x="2290" y="-286.5" font-family="Helvetica,sans-Serif" font-size="10.00" fill="#000000">include/tvm/meta_schedule</text>
<text text-anchor="middle" x="2358" y="-275.5" font-family="Helvetica,sans-Serif" font-size="10.00" fill="#000000">/cost_model.h</text>
</a>
</g>
</g>
<!-- Node163&#45;&gt;Node164 -->
<g id="edge12" class="edge">
<title>Node163&#45;&gt;Node164</title>
<path fill="none" stroke="#191970" d="M2388.8489,-397.7472C2375.4568,-389.9655 2362.6417,-379.5649 2355,-366 2343.1818,-345.0214 2348.167,-316.0475 2352.9908,-298.6067"/>
<polygon fill="#191970" stroke="#191970" points="2387.2179,-400.8441 2397.6841,-402.4897 2390.5285,-394.6764 2387.2179,-400.8441"/>
</g>
<!-- Node42 -->
<g id="node14" class="node">
<title>Node42</title>
<g id="a_node14"><a xlink:href="search__strategy_8h.html" target="_top" xlink:title="include/tvm/meta_schedule\l/search_strategy.h">
<polygon fill="#ffffff" stroke="#000000" points="2468,-201.5 2468,-231.5 2620,-231.5 2620,-201.5 2468,-201.5"/>
<text text-anchor="start" x="2476" y="-219.5" font-family="Helvetica,sans-Serif" font-size="10.00" fill="#000000">include/tvm/meta_schedule</text>
<text text-anchor="middle" x="2544" y="-208.5" font-family="Helvetica,sans-Serif" font-size="10.00" fill="#000000">/search_strategy.h</text>
</a>
</g>
</g>
<!-- Node163&#45;&gt;Node42 -->
<g id="edge33" class="edge">
<title>Node163&#45;&gt;Node42</title>
<path fill="none" stroke="#191970" d="M2489.3635,-397.5291C2502.9768,-389.6771 2516.3625,-379.2925 2525,-366 2552.5138,-323.6583 2549.3411,-260.1879 2546.1132,-231.5129"/>
<polygon fill="#191970" stroke="#191970" points="2487.5845,-394.5117 2480.4324,-402.3283 2490.8979,-400.6778 2487.5845,-394.5117"/>
</g>
<!-- Node163&#45;&gt;Node41 -->
<g id="edge20" class="edge">
<title>Node163&#45;&gt;Node41</title>
<path fill="none" stroke="#191970" d="M2440,-392.0249C2440,-383.128 2440,-373.4287 2440,-365.6432"/>
<polygon fill="#191970" stroke="#191970" points="2436.5001,-392.2966 2440,-402.2967 2443.5001,-392.2967 2436.5001,-392.2966"/>
</g>
<!-- Node165 -->
<g id="node19" class="node">
<title>Node165</title>
<g id="a_node19"><a xlink:href="measure__candidate_8h.html" target="_top" xlink:title="include/tvm/meta_schedule\l/measure_candidate.h">
<polygon fill="#ffffff" stroke="#000000" points="2572,-335.5 2572,-365.5 2724,-365.5 2724,-335.5 2572,-335.5"/>
<text text-anchor="start" x="2580" y="-353.5" font-family="Helvetica,sans-Serif" font-size="10.00" fill="#000000">include/tvm/meta_schedule</text>
<text text-anchor="middle" x="2648" y="-342.5" font-family="Helvetica,sans-Serif" font-size="10.00" fill="#000000">/measure_candidate.h</text>
</a>
</g>
</g>
<!-- Node163&#45;&gt;Node165 -->
<g id="edge22" class="edge">
<title>Node163&#45;&gt;Node165</title>
<path fill="none" stroke="#191970" d="M2496.5763,-399.2759C2529.3577,-388.7165 2570.1382,-375.5805 2601.1171,-365.6017"/>
<polygon fill="#191970" stroke="#191970" points="2495.1245,-396.0664 2486.6793,-402.4639 2497.2708,-402.7292 2495.1245,-396.0664"/>
</g>
<!-- Node167 -->
<g id="node21" class="node">
<title>Node167</title>
<g id="a_node21"><a xlink:href="runner_8h.html" target="_top" xlink:title="include/tvm/meta_schedule\l/runner.h">
<polygon fill="#ffffff" stroke="#000000" points="2080,-335.5 2080,-365.5 2232,-365.5 2232,-335.5 2080,-335.5"/>
<text text-anchor="start" x="2088" y="-353.5" font-family="Helvetica,sans-Serif" font-size="10.00" fill="#000000">include/tvm/meta_schedule</text>
<text text-anchor="middle" x="2156" y="-342.5" font-family="Helvetica,sans-Serif" font-size="10.00" fill="#000000">/runner.h</text>
</a>
</g>
</g>
<!-- Node163&#45;&gt;Node167 -->
<g id="edge27" class="edge">
<title>Node163&#45;&gt;Node167</title>
<path fill="none" stroke="#191970" d="M2366.4875,-400.1573C2321.123,-389.4551 2263.4964,-375.8601 2220.0131,-365.6017"/>
<polygon fill="#191970" stroke="#191970" points="2365.7284,-403.5742 2376.2649,-402.4639 2367.3357,-396.7612 2365.7284,-403.5742"/>
</g>
<!-- Node164&#45;&gt;Node42 -->
<g id="edge13" class="edge">
<title>Node164&#45;&gt;Node42</title>
<path fill="none" stroke="#191970" d="M2409.352,-265.0023C2438.5345,-254.4903 2474.6124,-241.4945 2502.0759,-231.6017"/>
<polygon fill="#191970" stroke="#191970" points="2407.9641,-261.782 2399.742,-268.4639 2410.3364,-268.3677 2407.9641,-261.782"/>
</g>
<!-- Node39 -->
<g id="node16" class="node">
<title>Node39</title>
<g id="a_node16"><a xlink:href="task__scheduler_8h.html" target="_top" xlink:title="include/tvm/meta_schedule\l/task_scheduler.h">
<polygon fill="#ffffff" stroke="#000000" points="2243,-.5 2243,-30.5 2395,-30.5 2395,-.5 2243,-.5"/>
<text text-anchor="start" x="2251" y="-18.5" font-family="Helvetica,sans-Serif" font-size="10.00" fill="#000000">include/tvm/meta_schedule</text>
<text text-anchor="middle" x="2319" y="-7.5" font-family="Helvetica,sans-Serif" font-size="10.00" fill="#000000">/task_scheduler.h</text>
</a>
</g>
</g>
<!-- Node164&#45;&gt;Node39 -->
<g id="edge19" class="edge">
<title>Node164&#45;&gt;Node39</title>
<path fill="none" stroke="#191970" d="M2324.1687,-262.7896C2294.1174,-242.2111 2252.2196,-207.6129 2234,-165 2211.9332,-113.389 2268.1181,-56.9553 2299.5232,-30.6164"/>
<polygon fill="#191970" stroke="#191970" points="2322.4254,-265.8338 2332.6876,-268.4681 2326.308,-260.0092 2322.4254,-265.8338"/>
</g>
<!-- Node38 -->
<g id="node15" class="node">
<title>Node38</title>
<g id="a_node15"><a xlink:href="measure__callback_8h.html" target="_top" xlink:title="include/tvm/meta_schedule\l/measure_callback.h">
<polygon fill="#ffffff" stroke="#000000" points="2827,-67.5 2827,-97.5 2979,-97.5 2979,-67.5 2827,-67.5"/>
<text text-anchor="start" x="2835" y="-85.5" font-family="Helvetica,sans-Serif" font-size="10.00" fill="#000000">include/tvm/meta_schedule</text>
<text text-anchor="middle" x="2903" y="-74.5" font-family="Helvetica,sans-Serif" font-size="10.00" fill="#000000">/measure_callback.h</text>
</a>
</g>
</g>
<!-- Node42&#45;&gt;Node38 -->
<g id="edge14" class="edge">
<title>Node42&#45;&gt;Node38</title>
<path fill="none" stroke="#191970" d="M2594.2169,-197.7561C2666.0525,-170.9428 2796.7341,-122.1647 2862.6639,-97.5558"/>
<polygon fill="#191970" stroke="#191970" points="2592.6287,-194.613 2584.484,-201.389 2595.0766,-201.171 2592.6287,-194.613"/>
</g>
<!-- Node42&#45;&gt;Node40 -->
<g id="edge16" class="edge">
<title>Node42&#45;&gt;Node40</title>
<path fill="none" stroke="#191970" d="M2483.7148,-198.5484C2448.1004,-187.9432 2403.5144,-174.6665 2369.7146,-164.6017"/>
<polygon fill="#191970" stroke="#191970" points="2482.9226,-201.9643 2493.5056,-201.4639 2484.9204,-195.2555 2482.9226,-201.9643"/>
</g>
<!-- Node38&#45;&gt;Node39 -->
<g id="edge15" class="edge">
<title>Node38&#45;&gt;Node39</title>
<path fill="none" stroke="#191970" d="M2816.8817,-72.62C2703.0456,-59.56 2504.226,-36.7502 2395.4544,-24.2713"/>
<polygon fill="#191970" stroke="#191970" points="2816.618,-76.1126 2826.9518,-73.7753 2817.4159,-69.1582 2816.618,-76.1126"/>
</g>
<!-- Node40&#45;&gt;Node38 -->
<g id="edge17" class="edge">
<title>Node40&#45;&gt;Node38</title>
<path fill="none" stroke="#191970" d="M2405.1297,-134.5436C2406.4282,-134.3582 2407.719,-134.1769 2409,-134 2556.3464,-113.6544 2729.4184,-97.3444 2826.645,-88.8692"/>
<polygon fill="#191970" stroke="#191970" points="2404.4328,-131.1085 2395.0531,-136.0352 2405.4578,-138.0331 2404.4328,-131.1085"/>
</g>
<!-- Node40&#45;&gt;Node39 -->
<g id="edge18" class="edge">
<title>Node40&#45;&gt;Node39</title>
<path fill="none" stroke="#191970" d="M2319,-124.3415C2319,-96.8131 2319,-53.5714 2319,-30.7614"/>
<polygon fill="#191970" stroke="#191970" points="2315.5001,-124.3889 2319,-134.389 2322.5001,-124.389 2315.5001,-124.3889"/>
</g>
<!-- Node41&#45;&gt;Node42 -->
<g id="edge21" class="edge">
<title>Node41&#45;&gt;Node42</title>
<path fill="none" stroke="#191970" d="M2458.1261,-327.1452C2479.3986,-299.7365 2514.0604,-255.076 2532.1553,-231.7614"/>
<polygon fill="#191970" stroke="#191970" points="2455.0943,-325.3431 2451.728,-335.389 2460.6242,-329.635 2455.0943,-325.3431"/>
</g>
<!-- Node165&#45;&gt;Node164 -->
<g id="edge23" class="edge">
<title>Node165&#45;&gt;Node164</title>
<path fill="none" stroke="#191970" d="M2572.9165,-333.1531C2526.5091,-322.4314 2467.5401,-308.8075 2423.1148,-298.5438"/>
<polygon fill="#191970" stroke="#191970" points="2572.3871,-336.6229 2582.9183,-335.4639 2573.9629,-329.8026 2572.3871,-336.6229"/>
</g>
<!-- Node165&#45;&gt;Node42 -->
<g id="edge26" class="edge">
<title>Node165&#45;&gt;Node42</title>
<path fill="none" stroke="#191970" d="M2629.8739,-327.1452C2608.6014,-299.7365 2573.9396,-255.076 2555.8447,-231.7614"/>
<polygon fill="#191970" stroke="#191970" points="2627.3758,-329.635 2636.272,-335.389 2632.9057,-325.3431 2627.3758,-329.635"/>
</g>
<!-- Node165&#45;&gt;Node38 -->
<g id="edge25" class="edge">
<title>Node165&#45;&gt;Node38</title>
<path fill="none" stroke="#191970" d="M2669.3387,-328.0735C2719.9393,-274.8932 2846.1456,-142.2529 2888.7178,-97.5103"/>
<polygon fill="#191970" stroke="#191970" points="2666.7981,-325.666 2662.4405,-335.3233 2671.8694,-330.4913 2666.7981,-325.666"/>
</g>
<!-- Node166 -->
<g id="node20" class="node">
<title>Node166</title>
<g id="a_node20"><a xlink:href="feature__extractor_8h.html" target="_top" xlink:title="include/tvm/meta_schedule\l/feature_extractor.h">
<polygon fill="#ffffff" stroke="#000000" points="2818,-268.5 2818,-298.5 2970,-298.5 2970,-268.5 2818,-268.5"/>
<text text-anchor="start" x="2826" y="-286.5" font-family="Helvetica,sans-Serif" font-size="10.00" fill="#000000">include/tvm/meta_schedule</text>
<text text-anchor="middle" x="2894" y="-275.5" font-family="Helvetica,sans-Serif" font-size="10.00" fill="#000000">/feature_extractor.h</text>
</a>
</g>
</g>
<!-- Node165&#45;&gt;Node166 -->
<g id="edge24" class="edge">
<title>Node165&#45;&gt;Node166</title>
<path fill="none" stroke="#191970" d="M2712.9155,-332.8198C2752.016,-322.1704 2801.2817,-308.7525 2838.552,-298.6017"/>
<polygon fill="#191970" stroke="#191970" points="2711.936,-329.459 2703.2072,-335.4639 2713.7755,-336.213 2711.936,-329.459"/>
</g>
<!-- Node167&#45;&gt;Node164 -->
<g id="edge28" class="edge">
<title>Node167&#45;&gt;Node164</title>
<path fill="none" stroke="#191970" d="M2210.9443,-332.2759C2242.78,-321.7165 2282.3842,-308.5805 2312.4695,-298.6017"/>
<polygon fill="#191970" stroke="#191970" points="2209.7224,-328.9936 2201.3327,-335.4639 2211.9262,-335.6377 2209.7224,-328.9936"/>
</g>
<!-- Node167&#45;&gt;Node42 -->
<g id="edge30" class="edge">
<title>Node167&#45;&gt;Node42</title>
<path fill="none" stroke="#191970" d="M2186.1852,-329.6611C2199.6336,-320.3334 2215.646,-309.1679 2230,-299 2249.225,-285.3817 2251.3575,-277.3093 2273,-268 2335.4706,-241.1289 2412.0187,-228.2225 2467.8062,-222.0563"/>
<polygon fill="#191970" stroke="#191970" points="2183.9886,-326.9249 2177.7611,-335.4963 2187.9745,-332.6792 2183.9886,-326.9249"/>
</g>
<!-- Node167&#45;&gt;Node38 -->
<g id="edge29" class="edge">
<title>Node167&#45;&gt;Node38</title>
<path fill="none" stroke="#191970" d="M2176.1332,-327.9807C2197.8991,-303.6458 2229.5732,-268.2691 2230,-268 2409.0572,-155.1306 2482.4319,-188.3405 2687,-134 2736.7408,-120.7871 2793.3438,-107.3496 2836.1252,-97.515"/>
<polygon fill="#191970" stroke="#191970" points="2173.5239,-325.6479 2169.4666,-335.4351 2178.7417,-330.3142 2173.5239,-325.6479"/>
</g>
<!-- Node167&#45;&gt;Node39 -->
<g id="edge31" class="edge">
<title>Node167&#45;&gt;Node39</title>
<path fill="none" stroke="#191970" d="M2157.2288,-325.0703C2160.9884,-271.9337 2176.156,-147.4095 2237,-67 2248.8682,-51.3154 2267.0161,-39.2103 2283.2246,-30.689"/>
<polygon fill="#191970" stroke="#191970" points="2153.7211,-325.0842 2156.5873,-335.2839 2160.7073,-325.523 2153.7211,-325.0842"/>
</g>
<!-- Node167&#45;&gt;Node40 -->
<g id="edge32" class="edge">
<title>Node167&#45;&gt;Node40</title>
<path fill="none" stroke="#191970" d="M2167.3587,-326.1987C2175.8244,-309.1836 2188.258,-286.3099 2202,-268 2232.7171,-227.0724 2276.8892,-186.0919 2301.2265,-164.6969"/>
<polygon fill="#191970" stroke="#191970" points="2164.0801,-324.9377 2162.8529,-335.4612 2170.3748,-327.9999 2164.0801,-324.9377"/>
</g>
<!-- Node37&#45;&gt;Node38 -->
<g id="edge35" class="edge">
<title>Node37&#45;&gt;Node38</title>
<path fill="none" stroke="#191970" d="M3192.6477,-392.7902C3184.3962,-366.1433 3173,-322.3153 3173,-283.5 3173,-283.5 3173,-283.5 3173,-216.5 3173,-129.5007 3059.1306,-98.9855 2979.2885,-88.2823"/>
<polygon fill="#191970" stroke="#191970" points="3189.3542,-393.9824 3195.7334,-402.4416 3196.0218,-391.8506 3189.3542,-393.9824"/>
</g>
<!-- Node37&#45;&gt;Node39 -->
<g id="edge36" class="edge">
<title>Node37&#45;&gt;Node39</title>
<path fill="none" stroke="#191970" d="M3204.0222,-392.1512C3206.9659,-365.2362 3211,-321.4317 3211,-283.5 3211,-283.5 3211,-283.5 3211,-149.5 3211,-43.8238 3091.2299,-89.6061 2988,-67 2876.8386,-42.657 2545.6918,-25.4742 2395.084,-18.7011"/>
<polygon fill="#191970" stroke="#191970" points="3200.5255,-391.925 3202.8809,-402.2547 3207.4813,-392.7107 3200.5255,-391.925"/>
</g>
<!-- Node37&#45;&gt;Node40 -->
<g id="edge37" class="edge">
<title>Node37&#45;&gt;Node40</title>
<path fill="none" stroke="#191970" d="M3180.8847,-394.5857C3135.3298,-343.3452 3024.3408,-222.3137 2974,-201 2921.8413,-178.9166 2556.3181,-160.0989 2395.0951,-152.7733"/>
<polygon fill="#191970" stroke="#191970" points="3178.3644,-397.019 3187.6148,-402.1843 3183.6045,-392.3777 3178.3644,-397.019"/>
</g>
<!-- Node45&#45;&gt;Node40 -->
<g id="edge42" class="edge">
<title>Node45&#45;&gt;Node40</title>
<path fill="none" stroke="#191970" d="M2759.9432,-392.7804C2773.2589,-361.3105 2789.9804,-306.4222 2766,-268 2726.8393,-205.2555 2512.4998,-171.445 2395.4286,-157.4214"/>
<polygon fill="#191970" stroke="#191970" points="2756.6536,-391.5644 2755.7954,-402.1245 2763.0516,-394.4045 2756.6536,-391.5644"/>
</g>
<!-- Node179&#45;&gt;Node10 -->
<g id="edge46" class="edge">
<title>Node179&#45;&gt;Node10</title>
<path fill="none" stroke="#191970" d="M1114.8309,-606.5596C1167.9197,-593.578 1251.7193,-573.0869 1300.7243,-561.1039"/>
<polygon fill="#191970" stroke="#191970" points="1113.849,-603.1965 1104.9665,-608.9717 1115.5117,-609.9962 1113.849,-603.1965"/>
</g>
<!-- Node179&#45;&gt;Node11 -->
<g id="edge55" class="edge">
<title>Node179&#45;&gt;Node11</title>
<path fill="none" stroke="#191970" d="M1103.6223,-605.5206C1129.5807,-596.0482 1164.5792,-582.2414 1194,-567 1216.5494,-555.3183 1217.8762,-543.9361 1242,-536 1364.2482,-495.7835 1691.6616,-509.5518 1820,-500 1857.1724,-497.2334 1898.6449,-493.6722 1932.3031,-490.6611"/>
<polygon fill="#191970" stroke="#191970" points="1102.3694,-602.2517 1094.1466,-608.9328 1104.741,-608.8377 1102.3694,-602.2517"/>
</g>
<!-- Node179&#45;&gt;Node129 -->
<g id="edge56" class="edge">
<title>Node179&#45;&gt;Node129</title>
<path fill="none" stroke="#191970" d="M1053.3425,-600.3499C1026.1946,-561.9497 959.5031,-470.3977 894,-402 879.0977,-386.4392 860.167,-370.2122 848.0647,-360.2302"/>
<polygon fill="#191970" stroke="#191970" points="1050.7535,-602.7529 1059.3678,-608.921 1056.4801,-598.7273 1050.7535,-602.7529"/>
</g>
<!-- Node179&#45;&gt;Node134 -->
<g id="edge73" class="edge">
<title>Node179&#45;&gt;Node134</title>
<path fill="none" stroke="#191970" d="M1066,-598.6205C1066,-572.4557 1066,-525.0301 1066,-484.5 1066,-484.5 1066,-484.5 1066,-417.5 1066,-345.5013 973.5966,-308.6748 918.0102,-293.035"/>
<polygon fill="#191970" stroke="#191970" points="1062.5001,-598.7482 1066,-608.7483 1069.5001,-598.7483 1062.5001,-598.7482"/>
</g>
<!-- Node179&#45;&gt;Node158 -->
<g id="edge66" class="edge">
<title>Node179&#45;&gt;Node158</title>
<path fill="none" stroke="#191970" d="M997.4033,-610.7834C924.3179,-601.7791 814.0095,-585.7143 776,-567 757.6539,-557.9671 760.8156,-544.0092 742,-536 629.7097,-488.2014 290.6482,-574.5181 194,-500 148.7019,-465.0741 144.0411,-387.531 143.8566,-360.2354"/>
<polygon fill="#191970" stroke="#191970" points="997.1079,-614.2732 1007.4575,-612.0067 997.9534,-607.3245 997.1079,-614.2732"/>
</g>
<!-- Node179&#45;&gt;Node160 -->
<g id="edge67" class="edge">
<title>Node179&#45;&gt;Node160</title>
<path fill="none" stroke="#191970" d="M997.2703,-613.4249C944.9465,-607.4766 872.2479,-594.6316 814,-567 794.3075,-557.6583 796.2904,-543.9599 776,-536 717.2334,-512.9459 252.2001,-546.0299 209,-500 164.1138,-452.1735 260.2399,-384.7958 299.9114,-360.0743"/>
<polygon fill="#191970" stroke="#191970" points="997.1349,-616.9305 1007.453,-614.5249 997.8868,-609.971 997.1349,-616.9305"/>
</g>
<!-- Node179&#45;&gt;Node40 -->
<g id="edge64" class="edge">
<title>Node179&#45;&gt;Node40</title>
<path fill="none" stroke="#191970" d="M1074.2889,-599.7412C1083.0459,-581.6161 1098.3101,-554.29 1118,-536 1164.4696,-492.8342 1187.5038,-497.8252 1244,-469 1485.5035,-345.7815 1531.1495,-274.9175 1792,-201 1874.6974,-177.566 2117.7781,-160.888 2242.8061,-153.5999"/>
<polygon fill="#191970" stroke="#191970" points="1071.0362,-598.4358 1070.0034,-608.9801 1077.3864,-601.3813 1071.0362,-598.4358"/>
</g>
<!-- Node179&#45;&gt;Node41 -->
<g id="edge60" class="edge">
<title>Node179&#45;&gt;Node41</title>
<path fill="none" stroke="#191970" d="M1094.8491,-604.259C1113.4414,-594.6245 1137.8224,-581.1211 1158,-567 1175.2991,-554.8935 1175.027,-545.2657 1194,-536 1262.1204,-502.7324 1787.9678,-412.8302 1863,-402 1911.3392,-395.0227 2218.5339,-368.9823 2363.9188,-356.8258"/>
<polygon fill="#191970" stroke="#191970" points="1093.0214,-601.2623 1085.7071,-608.9272 1096.2049,-607.4965 1093.0214,-601.2623"/>
</g>
<!-- Node179&#45;&gt;Node167 -->
<g id="edge61" class="edge">
<title>Node179&#45;&gt;Node167</title>
<path fill="none" stroke="#191970" d="M1081.5839,-601.5745C1099.9433,-582.6834 1132.2444,-552.5954 1166,-536 1406.536,-417.7444 1490.0949,-448.8621 1754,-402 1866.7504,-381.9787 1998.616,-366.5995 2079.722,-358.052"/>
<polygon fill="#191970" stroke="#191970" points="1078.9602,-599.2545 1074.6056,-608.9131 1084.0329,-604.0782 1078.9602,-599.2545"/>
</g>
<!-- Node179&#45;&gt;Node178 -->
<g id="edge47" class="edge">
<title>Node179&#45;&gt;Node178</title>
<path fill="none" stroke="#191970" d="M997.4596,-611.3022C871.1356,-598.0362 603.7476,-569.9562 485.8787,-557.5782"/>
<polygon fill="#191970" stroke="#191970" points="997.0956,-614.7831 1007.4065,-612.3468 997.8268,-607.8214 997.0956,-614.7831"/>
</g>
<!-- Node184 -->
<g id="node28" class="node">
<title>Node184</title>
<g id="a_node28"><a xlink:href="ir_2attrs_8h.html" target="_top" xlink:title="Helpers for attribute objects. ">
<polygon fill="#ffffff" stroke="#ff0000" points="218.5,-475 218.5,-494 337.5,-494 337.5,-475 218.5,-475"/>
<text text-anchor="middle" x="278" y="-482" font-family="Helvetica,sans-Serif" font-size="10.00" fill="#000000">include/tvm/ir/attrs.h</text>
</a>
</g>
</g>
<!-- Node179&#45;&gt;Node184 -->
<g id="edge48" class="edge">
<title>Node179&#45;&gt;Node184</title>
<path fill="none" stroke="#191970" d="M1033.4189,-605.2102C986.0002,-586.476 894.8048,-552.725 814,-536 643.1094,-500.629 596.6557,-517.275 423,-500 394.9102,-497.2057 363.7825,-493.9051 337.592,-491.0693"/>
<polygon fill="#191970" stroke="#191970" points="1032.2683,-608.5192 1042.8536,-608.9684 1034.8587,-602.0162 1032.2683,-608.5192"/>
</g>
<!-- Node179&#45;&gt;Node208 -->
<g id="edge57" class="edge">
<title>Node179&#45;&gt;Node208</title>
<path fill="none" stroke="#191970" d="M1035.1176,-604.6557C1014.8667,-595.0851 988.14,-581.5034 966,-567 947.7678,-555.0565 947.8687,-544.9608 928,-536 916.5164,-530.8209 761.5073,-506.7297 674.0374,-493.4113"/>
<polygon fill="#191970" stroke="#191970" points="1033.665,-607.8401 1044.2078,-608.8888 1036.62,-601.4944 1033.665,-607.8401"/>
</g>
<!-- Node177 -->
<g id="node30" class="node">
<title>Node177</title>
<g id="a_node30"><a xlink:href="schedule__rule_8h.html" target="_top" xlink:title="include/tvm/meta_schedule\l/schedule_rule.h">
<polygon fill="#ffffff" stroke="#000000" points="2274,-536.5 2274,-566.5 2426,-566.5 2426,-536.5 2274,-536.5"/>
<text text-anchor="start" x="2282" y="-554.5" font-family="Helvetica,sans-Serif" font-size="10.00" fill="#000000">include/tvm/meta_schedule</text>
<text text-anchor="middle" x="2350" y="-543.5" font-family="Helvetica,sans-Serif" font-size="10.00" fill="#000000">/schedule_rule.h</text>
</a>
</g>
</g>
<!-- Node179&#45;&gt;Node177 -->
<g id="edge62" class="edge">
<title>Node179&#45;&gt;Node177</title>
<path fill="none" stroke="#191970" d="M1134.6422,-614.9182C1354.9836,-603.4206 2043.4263,-567.4972 2273.9333,-555.4692"/>
<polygon fill="#191970" stroke="#191970" points="1134.3113,-611.4306 1124.5073,-615.447 1134.6761,-618.4211 1134.3113,-611.4306"/>
</g>
<!-- Node209 -->
<g id="node31" class="node">
<title>Node209</title>
<g id="a_node31"><a xlink:href="exec__builder_8h.html" target="_top" xlink:title="include/tvm/relax/exec\l_builder.h">
<polygon fill="#ffffff" stroke="#000000" points="1536,-536.5 1536,-566.5 1664,-566.5 1664,-536.5 1536,-536.5"/>
<text text-anchor="start" x="1544" y="-554.5" font-family="Helvetica,sans-Serif" font-size="10.00" fill="#000000">include/tvm/relax/exec</text>
<text text-anchor="middle" x="1600" y="-543.5" font-family="Helvetica,sans-Serif" font-size="10.00" fill="#000000">_builder.h</text>
</a>
</g>
</g>
<!-- Node179&#45;&gt;Node209 -->
<g id="edge65" class="edge">
<title>Node179&#45;&gt;Node209</title>
<path fill="none" stroke="#191970" d="M1134.9505,-612.9206C1225.3311,-605.1222 1388.6346,-589.363 1527,-567 1529.9417,-566.5245 1532.9441,-566.0094 1535.9725,-565.4656"/>
<polygon fill="#191970" stroke="#191970" points="1134.4965,-609.4466 1124.8314,-613.7867 1135.0935,-616.4211 1134.4965,-609.4466"/>
</g>
<!-- Node179&#45;&gt;Node212 -->
<g id="edge68" class="edge">
<title>Node179&#45;&gt;Node212</title>
<path fill="none" stroke="#191970" d="M1135.063,-610.0268C1203.8131,-601.1186 1312.1824,-585.7956 1405,-567 1407.8916,-566.4145 1410.8517,-565.78 1413.8338,-565.1135"/>
<polygon fill="#191970" stroke="#191970" points="1134.2676,-606.6002 1124.7959,-611.3476 1135.1608,-613.543 1134.2676,-606.6002"/>
</g>
<!-- Node179&#45;&gt;Node215 -->
<g id="edge69" class="edge">
<title>Node179&#45;&gt;Node215</title>
<path fill="none" stroke="#191970" d="M1049.9315,-601.6585C1031.3474,-583.0946 999.0498,-553.5437 966,-536 927.117,-515.3599 878.8659,-501.9507 842.8831,-494.0051"/>
<polygon fill="#191970" stroke="#191970" points="1047.5146,-604.1926 1057.0187,-608.8748 1052.5088,-599.2877 1047.5146,-604.1926"/>
</g>
<!-- Node179&#45;&gt;Node222 -->
<g id="edge74" class="edge">
<title>Node179&#45;&gt;Node222</title>
<path fill="none" stroke="#191970" d="M997.1796,-608.4006C932.65,-598.6834 833.5571,-583.1262 748,-567 738.4505,-565.2001 728.2253,-563.1028 718.5673,-561.0433"/>
<polygon fill="#191970" stroke="#191970" points="996.8234,-611.8863 1007.2321,-609.9092 997.8623,-604.9638 996.8234,-611.8863"/>
</g>
<!-- Node184&#45;&gt;Node128 -->
<g id="edge50" class="edge">
<title>Node184&#45;&gt;Node128</title>
<path fill="none" stroke="#191970" d="M314.0045,-471.4605C344.828,-460.2974 389.2166,-444.2216 421.522,-432.5218"/>
<polygon fill="#191970" stroke="#191970" points="312.7165,-468.2044 304.506,-474.9005 315.1002,-474.7861 312.7165,-468.2044"/>
</g>
<!-- Node184&#45;&gt;Node129 -->
<g id="edge49" class="edge">
<title>Node184&#45;&gt;Node129</title>
<path fill="none" stroke="#191970" d="M338.1196,-472.9834C388.4715,-463.1064 462.1464,-448.1144 526,-433 627.345,-409.0113 746.0425,-376.0479 802.6655,-360.0212"/>
<polygon fill="#191970" stroke="#191970" points="337.1987,-469.5971 328.0558,-474.9503 338.5415,-476.4671 337.1987,-469.5971"/>
</g>
<!-- Node184&#45;&gt;Node157 -->
<g id="edge51" class="edge">
<title>Node184&#45;&gt;Node157</title>
<path fill="none" stroke="#191970" d="M284.7677,-465.3904C292.4068,-446.5474 306.6265,-418.2768 328,-402 360.7867,-377.0316 405.1671,-364.167 441.8943,-357.5394"/>
<polygon fill="#191970" stroke="#191970" points="281.3988,-464.4023 281.1113,-474.9933 287.9407,-466.8932 281.3988,-464.4023"/>
</g>
<!-- Node184&#45;&gt;Node158 -->
<g id="edge52" class="edge">
<title>Node184&#45;&gt;Node158</title>
<path fill="none" stroke="#191970" d="M261.1381,-467.6381C232.6894,-439.1894 176.061,-382.561 153.5496,-360.0496"/>
<polygon fill="#191970" stroke="#191970" points="258.8171,-470.2668 268.3631,-474.8631 263.7668,-465.3171 258.8171,-470.2668"/>
</g>
<!-- Node184&#45;&gt;Node159 -->
<g id="edge53" class="edge">
<title>Node184&#45;&gt;Node159</title>
<path fill="none" stroke="#191970" d="M296.5131,-468.1805C319.0886,-449.2024 359.1804,-418.3902 399,-402 409.3195,-397.7524 544.8822,-373.7038 623.1688,-360.0219"/>
<polygon fill="#191970" stroke="#191970" points="294.0772,-465.6585 288.7556,-474.8199 298.6288,-470.9767 294.0772,-465.6585"/>
</g>
<!-- Node184&#45;&gt;Node160 -->
<g id="edge54" class="edge">
<title>Node184&#45;&gt;Node160</title>
<path fill="none" stroke="#191970" d="M279.1183,-464.2581C280.4843,-447.3029 283.482,-422.633 290,-402 294.8273,-386.7191 303.7767,-370.4221 309.81,-360.3483"/>
<polygon fill="#191970" stroke="#191970" points="275.6002,-464.404 278.41,-474.6194 282.5839,-464.8814 275.6002,-464.404"/>
</g>
<!-- Node208&#45;&gt;Node157 -->
<g id="edge58" class="edge">
<title>Node208&#45;&gt;Node157</title>
<path fill="none" stroke="#191970" d="M596.7455,-461.2038C573.3752,-431.3789 533.9439,-381.0569 517.5257,-360.1042"/>
<polygon fill="#191970" stroke="#191970" points="594.2364,-463.6764 603.1593,-469.389 599.7464,-459.3589 594.2364,-463.6764"/>
</g>
<!-- Node208&#45;&gt;Node159 -->
<g id="edge59" class="edge">
<title>Node208&#45;&gt;Node159</title>
<path fill="none" stroke="#191970" d="M648.3405,-463.3301C658.3805,-455.1513 668.2506,-444.8776 674,-433 685.6207,-408.9927 682.4667,-376.3198 679.8729,-360.2468"/>
<polygon fill="#191970" stroke="#191970" points="646.1638,-460.5883 640.3276,-469.4308 650.4043,-466.1578 646.1638,-460.5883"/>
</g>
<!-- Node177&#45;&gt;Node45 -->
<g id="edge63" class="edge">
<title>Node177&#45;&gt;Node45</title>
<path fill="none" stroke="#191970" d="M2424.8414,-533.9531C2461.1343,-524.8567 2505.1719,-512.9488 2544,-500 2605.2474,-479.5746 2674.5336,-450.1631 2714.5528,-432.5315"/>
<polygon fill="#191970" stroke="#191970" points="2423.6821,-530.6346 2414.8211,-536.4427 2425.37,-537.4281 2423.6821,-530.6346"/>
</g>
<!-- Node215&#45;&gt;Node134 -->
<g id="edge72" class="edge">
<title>Node215&#45;&gt;Node134</title>
<path fill="none" stroke="#191970" d="M813.2637,-468.5571C839.5431,-448.2154 881.8381,-410.3083 899,-366 908.8513,-340.5661 893.1761,-309.0738 883.5796,-293.3712"/>
<polygon fill="#191970" stroke="#191970" points="810.9046,-465.9523 805.025,-474.766 815.1176,-471.5426 810.9046,-465.9523"/>
</g>
<!-- Node215&#45;&gt;Node157 -->
<g id="edge70" class="edge">
<title>Node215&#45;&gt;Node157</title>
<path fill="none" stroke="#191970" d="M761.5466,-470.4546C704.1863,-443.1013 578.8462,-383.3306 530.0257,-360.0496"/>
<polygon fill="#191970" stroke="#191970" points="760.2584,-473.7179 770.7912,-474.8631 763.2715,-467.3995 760.2584,-473.7179"/>
</g>
<!-- Node215&#45;&gt;Node159 -->
<g id="edge71" class="edge">
<title>Node215&#45;&gt;Node159</title>
<path fill="none" stroke="#191970" d="M795.6517,-464.9966C798.7606,-447.0955 800.3149,-420.6077 788,-402 773.5693,-380.1954 747.3103,-367.4311 724.0673,-360.0651"/>
<polygon fill="#191970" stroke="#191970" points="792.204,-464.3867 793.6251,-474.8858 799.0615,-465.792 792.204,-464.3867"/>
</g>
<!-- Node222&#45;&gt;Node215 -->
<g id="edge75" class="edge">
<title>Node222&#45;&gt;Node215</title>
<path fill="none" stroke="#191970" d="M701.3841,-536.711C723.6724,-523.7256 755.4385,-505.2184 774.5539,-494.0817"/>
<polygon fill="#191970" stroke="#191970" points="699.3553,-533.8423 692.4767,-541.9005 702.8792,-539.8906 699.3553,-533.8423"/>
</g>
<!-- Node225&#45;&gt;Node163 -->
<g id="edge93" class="edge">
<title>Node225&#45;&gt;Node163</title>
<path fill="none" stroke="#191970" d="M2179.3445,-789.5346C2190.596,-764.9097 2208,-720.305 2208,-680 2208,-680 2208,-680 2208,-618.5 2208,-580.3133 2208.3459,-565.9784 2232,-536 2273.4476,-483.4707 2345.0307,-450.144 2392.451,-432.6431"/>
<polygon fill="#191970" stroke="#191970" points="2176.0769,-788.2575 2174.9678,-798.7942 2182.4056,-791.2489 2176.0769,-788.2575"/>
</g>
<!-- Node225&#45;&gt;Node164 -->
<g id="edge95" class="edge">
<title>Node225&#45;&gt;Node164</title>
<path fill="none" stroke="#191970" d="M2161.4655,-789.4283C2135.0211,-727.1652 2061.2276,-526.6965 2147,-402 2172.3534,-365.141 2201.6371,-387.2589 2241,-366 2261.7297,-354.8044 2264.775,-348.6183 2284,-335 2301.4982,-322.6049 2321.4609,-308.7272 2336.2389,-298.5037"/>
<polygon fill="#191970" stroke="#191970" points="2158.3445,-791.0283 2165.5396,-798.8053 2164.7647,-788.2388 2158.3445,-791.0283"/>
</g>
<!-- Node225&#45;&gt;Node42 -->
<g id="edge108" class="edge">
<title>Node225&#45;&gt;Node42</title>
<path fill="none" stroke="#191970" d="M2259.9848,-798.4738C2330.2349,-789.4937 2421.2378,-774.9823 2454,-757 2563.0435,-697.1488 2644,-675.8891 2644,-551.5 2644,-551.5 2644,-551.5 2644,-484.5 2644,-446.8735 2639.8987,-431.6999 2663,-402 2684.479,-374.3857 2714.777,-395.8634 2733,-366 2740.1767,-354.239 2739.6704,-347.0554 2733,-335 2703.2808,-281.289 2637.912,-248.6621 2592.4302,-231.6006"/>
<polygon fill="#191970" stroke="#191970" points="2259.2645,-795.0367 2249.78,-799.7583 2260.1388,-801.9819 2259.2645,-795.0367"/>
</g>
<!-- Node225&#45;&gt;Node38 -->
<g id="edge99" class="edge">
<title>Node225&#45;&gt;Node38</title>
<path fill="none" stroke="#191970" d="M2259.7525,-803.7314C2409.1596,-795.2956 2696.7272,-776.758 2739,-757 2742.6612,-755.2888 2945,-555.5413 2945,-551.5 2945,-551.5 2945,-551.5 2945,-484.5 2945,-387.0985 2997.8179,-363.5665 2979,-268 2965.8884,-201.4128 2928.6551,-128.6371 2911.6556,-97.7356"/>
<polygon fill="#191970" stroke="#191970" points="2259.4654,-800.2419 2249.6772,-804.2968 2259.8576,-807.2309 2259.4654,-800.2419"/>
</g>
<!-- Node225&#45;&gt;Node39 -->
<g id="edge110" class="edge">
<title>Node225&#45;&gt;Node39</title>
<path fill="none" stroke="#191970" d="M2080.1927,-802.5218C1963.3297,-793.9984 1770.9112,-777.135 1745,-757 1690.9328,-714.9855 1692,-562.9708 1692,-484.5 1692,-484.5 1692,-484.5 1692,-149.5 1692,-93.7743 2075.6478,-43.2371 2242.7443,-23.8686"/>
<polygon fill="#191970" stroke="#191970" points="2079.9861,-806.0159 2090.2124,-803.2457 2080.4906,-799.0341 2079.9861,-806.0159"/>
</g>
<!-- Node225&#45;&gt;Node40 -->
<g id="edge111" class="edge">
<title>Node225&#45;&gt;Node40</title>
<path fill="none" stroke="#191970" d="M2080.0249,-802.3466C1970.5401,-794.0056 1797.5285,-777.741 1776,-757 1687.5472,-671.7828 1730,-607.3246 1730,-484.5 1730,-484.5 1730,-484.5 1730,-350.5 1730,-243.3307 2083.679,-181.5577 2242.9036,-159.1779"/>
<polygon fill="#191970" stroke="#191970" points="2079.8518,-805.8434 2090.0865,-803.1045 2080.3777,-798.8632 2079.8518,-805.8434"/>
</g>
<!-- Node225&#45;&gt;Node41 -->
<g id="edge96" class="edge">
<title>Node225&#45;&gt;Node41</title>
<path fill="none" stroke="#191970" d="M2188.2296,-791.4469C2210.7147,-768.4703 2246,-725.2112 2246,-680 2246,-680 2246,-680 2246,-618.5 2246,-580.8735 2240.4743,-564.5349 2265,-536 2346.0166,-441.7397 2455.1471,-535.8069 2525,-433 2532.7431,-421.6039 2531.7624,-414.004 2525,-402 2515.6844,-385.4638 2498.6807,-373.6299 2482.3159,-365.5103"/>
<polygon fill="#191970" stroke="#191970" points="2185.5436,-789.1804 2180.8889,-798.6981 2190.4629,-794.1604 2185.5436,-789.1804"/>
</g>
<!-- Node225&#45;&gt;Node165 -->
<g id="edge100" class="edge">
<title>Node225&#45;&gt;Node165</title>
<path fill="none" stroke="#191970" d="M2208.5604,-795.4852C2231.4563,-786.685 2260.344,-773.6365 2283,-757 2450.4254,-634.0582 2598.5132,-423.9745 2637.8224,-365.8154"/>
<polygon fill="#191970" stroke="#191970" points="2207.2969,-792.2209 2199.1503,-798.9947 2209.743,-798.7796 2207.2969,-792.2209"/>
</g>
<!-- Node225&#45;&gt;Node166 -->
<g id="edge98" class="edge">
<title>Node225&#45;&gt;Node166</title>
<path fill="none" stroke="#191970" d="M2259.7282,-798.6995C2305.8878,-791.3239 2362.1441,-778.6235 2409,-757 2624.3405,-657.623 2688.9327,-621.393 2833,-433 2865.6945,-390.2463 2883.6597,-327.5294 2890.599,-298.8431"/>
<polygon fill="#191970" stroke="#191970" points="2259.0885,-795.2567 2249.738,-800.2385 2260.1544,-802.1751 2259.0885,-795.2567"/>
</g>
<!-- Node225&#45;&gt;Node167 -->
<g id="edge106" class="edge">
<title>Node225&#45;&gt;Node167</title>
<path fill="none" stroke="#191970" d="M2080.0582,-802.6636C1972.1406,-794.7267 1803.2247,-778.96 1784,-757 1774.5245,-746.1763 1774.6385,-484.7828 1863,-402 1893.671,-373.2654 2003.7656,-360.2517 2079.9016,-354.5837"/>
<polygon fill="#191970" stroke="#191970" points="2080.0772,-806.1741 2090.3043,-803.4072 2080.5839,-799.1925 2080.0772,-806.1741"/>
</g>
<!-- Node225&#45;&gt;Node37 -->
<g id="edge94" class="edge">
<title>Node225&#45;&gt;Node37</title>
<path fill="none" stroke="#191970" d="M2259.817,-806.6619C2404.0809,-802.734 2680.5121,-790.9138 2772,-757 2794.0908,-748.8111 2795.5099,-739.2363 2815,-726 2877.8278,-683.3319 2898.5025,-679.9124 2959,-634 3050.1585,-564.8185 3148.9148,-469.2195 3185.8988,-432.6007"/>
<polygon fill="#191970" stroke="#191970" points="2259.5664,-803.1672 2249.6628,-806.9313 2259.7521,-810.1648 2259.5664,-803.1672"/>
</g>
<!-- Node225&#45;&gt;Node43 -->
<g id="edge97" class="edge">
<title>Node225&#45;&gt;Node43</title>
<path fill="none" stroke="#191970" d="M2080.1588,-802.3245C1974.9472,-794.1602 1812.5671,-778.2835 1794,-757 1784.9428,-746.6176 1787.8384,-738.3232 1794,-726 1805.9257,-702.1486 1826.0471,-711.3686 1842,-690 1904.6742,-606.0492 1883.6182,-565.6701 1924,-469 1929.1709,-456.6213 1935.6212,-442.8603 1940.5321,-432.6793"/>
<polygon fill="#191970" stroke="#191970" points="2079.9171,-805.8162 2090.1553,-803.0905 2080.452,-798.8367 2079.9171,-805.8162"/>
</g>
<!-- Node225&#45;&gt;Node44 -->
<g id="edge105" class="edge">
<title>Node225&#45;&gt;Node44</title>
<path fill="none" stroke="#191970" d="M2170,-788.7188C2170,-763.4855 2170,-718.4988 2170,-680 2170,-680 2170,-680 2170,-551.5 2170,-504.5909 2201.6821,-456.273 2219.7508,-432.531"/>
<polygon fill="#191970" stroke="#191970" points="2166.5001,-788.8281 2170,-798.8281 2173.5001,-788.8282 2166.5001,-788.8281"/>
</g>
<!-- Node225&#45;&gt;Node45 -->
<g id="edge109" class="edge">
<title>Node225&#45;&gt;Node45</title>
<path fill="none" stroke="#191970" d="M2253.1316,-797.0381C2291.5334,-789.4021 2336.7653,-776.9651 2374,-757 2459.2055,-711.3132 2675.0966,-492.4587 2733.3342,-432.6393"/>
<polygon fill="#191970" stroke="#191970" points="2252.1761,-793.6573 2243.0108,-798.9722 2253.4901,-800.5329 2252.1761,-793.6573"/>
</g>
<!-- Node225&#45;&gt;Node177 -->
<g id="edge107" class="edge">
<title>Node225&#45;&gt;Node177</title>
<path fill="none" stroke="#191970" d="M2206.9603,-794.9697C2225.2417,-786.5771 2246.2737,-774.0927 2260,-757 2304.8896,-701.1012 2274.0612,-666.1499 2308,-603 2315.2095,-589.5853 2326.1507,-576.3123 2335.0585,-566.6014"/>
<polygon fill="#191970" stroke="#191970" points="2205.4832,-791.7953 2197.7042,-798.9882 2208.2709,-798.2162 2205.4832,-791.7953"/>
</g>
<!-- Node225&#45;&gt;Node209 -->
<g id="edge120" class="edge">
<title>Node225&#45;&gt;Node209</title>
<path fill="none" stroke="#191970" d="M2080.0396,-805.2949C1939.0476,-799.4404 1678.7498,-784.9623 1647,-757 1590.559,-707.292 1594.4463,-604.968 1598.1763,-566.5324"/>
<polygon fill="#191970" stroke="#191970" points="2080.2604,-808.8068 2090.395,-805.7183 2080.5464,-801.8126 2080.2604,-808.8068"/>
</g>
<!-- Node226 -->
<g id="node37" class="node">
<title>Node226</title>
<g id="a_node37"><a xlink:href="env__func_8h.html" target="_top" xlink:title="Serializable global function used in IR. ">
<polygon fill="#ffffff" stroke="#ff0000" points="432.5,-469.5 432.5,-499.5 537.5,-499.5 537.5,-469.5 432.5,-469.5"/>
<text text-anchor="start" x="440.5" y="-487.5" font-family="Helvetica,sans-Serif" font-size="10.00" fill="#000000">include/tvm/ir/env</text>
<text text-anchor="middle" x="485" y="-476.5" font-family="Helvetica,sans-Serif" font-size="10.00" fill="#000000">_func.h</text>
</a>
</g>
</g>
<!-- Node225&#45;&gt;Node226 -->
<g id="edge88" class="edge">
<title>Node225&#45;&gt;Node226</title>
<path fill="none" stroke="#191970" d="M2080.0618,-806.541C1814.3946,-799.8438 1036.9045,-773.4453 799,-690 672.0466,-645.4709 545.5946,-539.0673 501.4398,-499.5838"/>
<polygon fill="#191970" stroke="#191970" points="2080.3489,-810.0492 2090.4329,-806.799 2080.5231,-803.0513 2080.3489,-810.0492"/>
</g>
<!-- Node227 -->
<g id="node38" class="node">
<title>Node227</title>
<g id="a_node38"><a xlink:href="instrument_8h.html" target="_top" xlink:title="include/tvm/ir/instrument.h">
<polygon fill="#ffffff" stroke="#ff0000" points="1802.5,-732 1802.5,-751 1951.5,-751 1951.5,-732 1802.5,-732"/>
<text text-anchor="middle" x="1877" y="-739" font-family="Helvetica,sans-Serif" font-size="10.00" fill="#000000">include/tvm/ir/instrument.h</text>
</a>
</g>
</g>
<!-- Node225&#45;&gt;Node227 -->
<g id="edge92" class="edge">
<title>Node225&#45;&gt;Node227</title>
<path fill="none" stroke="#191970" d="M2118.4895,-796.7211C2061.7588,-783.7486 1971.6203,-763.1367 1918.9992,-751.1039"/>
<polygon fill="#191970" stroke="#191970" points="2117.8028,-800.1544 2128.3314,-798.9717 2119.3633,-793.3305 2117.8028,-800.1544"/>
</g>
<!-- Node173 -->
<g id="node39" class="node">
<title>Node173</title>
<g id="a_node39"><a xlink:href="mutator_8h.html" target="_top" xlink:title="include/tvm/meta_schedule\l/mutator.h">
<polygon fill="#ffffff" stroke="#000000" points="2824,-726.5 2824,-756.5 2976,-756.5 2976,-726.5 2824,-726.5"/>
<text text-anchor="start" x="2832" y="-744.5" font-family="Helvetica,sans-Serif" font-size="10.00" fill="#000000">include/tvm/meta_schedule</text>
<text text-anchor="middle" x="2900" y="-733.5" font-family="Helvetica,sans-Serif" font-size="10.00" fill="#000000">/mutator.h</text>
</a>
</g>
</g>
<!-- Node225&#45;&gt;Node173 -->
<g id="edge101" class="edge">
<title>Node225&#45;&gt;Node173</title>
<path fill="none" stroke="#191970" d="M2259.7634,-803.8389C2383.8102,-796.8145 2614.4905,-781.6507 2810,-757 2814.5618,-756.4248 2819.2451,-755.7811 2823.9637,-755.0916"/>
<polygon fill="#191970" stroke="#191970" points="2259.3455,-800.3568 2249.5575,-804.4121 2259.7381,-807.3458 2259.3455,-800.3568"/>
</g>
<!-- Node174 -->
<g id="node40" class="node">
<title>Node174</title>
<g id="a_node40"><a xlink:href="postproc_8h.html" target="_top" xlink:title="include/tvm/meta_schedule\l/postproc.h">
<polygon fill="#ffffff" stroke="#000000" points="2578,-726.5 2578,-756.5 2730,-756.5 2730,-726.5 2578,-726.5"/>
<text text-anchor="start" x="2586" y="-744.5" font-family="Helvetica,sans-Serif" font-size="10.00" fill="#000000">include/tvm/meta_schedule</text>
<text text-anchor="middle" x="2654" y="-733.5" font-family="Helvetica,sans-Serif" font-size="10.00" fill="#000000">/postproc.h</text>
</a>
</g>
</g>
<!-- Node225&#45;&gt;Node174 -->
<g id="edge103" class="edge">
<title>Node225&#45;&gt;Node174</title>
<path fill="none" stroke="#191970" d="M2248.8038,-797.5912C2339.6869,-785.0103 2488.072,-764.4694 2577.8275,-752.0445"/>
<polygon fill="#191970" stroke="#191970" points="2248.257,-794.1334 2238.8314,-798.9717 2249.2169,-801.0673 2248.257,-794.1334"/>
</g>
<!-- Node228 -->
<g id="node41" class="node">
<title>Node228</title>
<g id="a_node41"><a xlink:href="node_8h.html" target="_top" xlink:title="Definitions and helper macros for IR/AST nodes. ">
<polygon fill="#ffffff" stroke="#ff0000" points="1248.5,-732 1248.5,-751 1385.5,-751 1385.5,-732 1248.5,-732"/>
<text text-anchor="middle" x="1317" y="-739" font-family="Helvetica,sans-Serif" font-size="10.00" fill="#000000">include/tvm/node/node.h</text>
</a>
</g>
</g>
<!-- Node225&#45;&gt;Node228 -->
<g id="edge112" class="edge">
<title>Node225&#45;&gt;Node228</title>
<path fill="none" stroke="#191970" d="M2080.1368,-801.4416C1908.8197,-787.9853 1538.9275,-758.9316 1385.67,-746.8938"/>
<polygon fill="#191970" stroke="#191970" points="2079.8918,-804.933 2090.1352,-802.2269 2080.44,-797.9545 2079.8918,-804.933"/>
</g>
<!-- Node232 -->
<g id="node42" class="node">
<title>Node232</title>
<g id="a_node42"><a xlink:href="instruction_8h.html" target="_top" xlink:title="include/tvm/tir/schedule\l/instruction.h">
<polygon fill="#ffffff" stroke="#ff0000" points="1970,-726.5 1970,-756.5 2104,-756.5 2104,-726.5 1970,-726.5"/>
<text text-anchor="start" x="1978" y="-744.5" font-family="Helvetica,sans-Serif" font-size="10.00" fill="#000000">include/tvm/tir/schedule</text>
<text text-anchor="middle" x="2037" y="-733.5" font-family="Helvetica,sans-Serif" font-size="10.00" fill="#000000">/instruction.h</text>
</a>
</g>
</g>
<!-- Node225&#45;&gt;Node232 -->
<g id="edge121" class="edge">
<title>Node225&#45;&gt;Node232</title>
<path fill="none" stroke="#191970" d="M2141.7791,-794.2834C2119.7561,-783.1892 2089.24,-767.8164 2066.8193,-756.5218"/>
<polygon fill="#191970" stroke="#191970" points="2140.4389,-797.5273 2150.9443,-798.9005 2143.5882,-791.2757 2140.4389,-797.5273"/>
</g>
<!-- Node226&#45;&gt;Node128 -->
<g id="edge89" class="edge">
<title>Node226&#45;&gt;Node128</title>
<path fill="none" stroke="#191970" d="M476.8273,-459.6103C473.854,-450.5553 470.585,-440.5998 467.9724,-432.6432"/>
<polygon fill="#191970" stroke="#191970" points="473.5628,-460.8877 480.0079,-469.2967 480.2134,-458.7038 473.5628,-460.8877"/>
</g>
<!-- Node226&#45;&gt;Node157 -->
<g id="edge90" class="edge">
<title>Node226&#45;&gt;Node157</title>
<path fill="none" stroke="#191970" d="M508.786,-461.4321C515.7103,-453.1885 522.3807,-443.3571 526,-433 534.8559,-407.6576 522.7158,-376.1253 515.1865,-360.393"/>
<polygon fill="#191970" stroke="#191970" points="505.9673,-459.3321 501.8807,-469.1071 511.1711,-464.014 505.9673,-459.3321"/>
</g>
<!-- Node226&#45;&gt;Node159 -->
<g id="edge91" class="edge">
<title>Node226&#45;&gt;Node159</title>
<path fill="none" stroke="#191970" d="M515.0288,-463.651C557.4335,-434.2094 633.147,-381.6414 664.1671,-360.1042"/>
<polygon fill="#191970" stroke="#191970" points="512.9825,-460.8108 506.7644,-469.389 516.9748,-466.5608 512.9825,-460.8108"/>
</g>
<!-- Node173&#45;&gt;Node45 -->
<g id="edge102" class="edge">
<title>Node173&#45;&gt;Node45</title>
<path fill="none" stroke="#191970" d="M2851.3876,-722.1159C2811.3035,-702.5569 2761,-668.1254 2761,-618.5 2761,-618.5 2761,-618.5 2761,-551.5 2761,-508.2597 2754.211,-457.5361 2750.4452,-432.7263"/>
<polygon fill="#191970" stroke="#191970" points="2850.0008,-725.3314 2860.54,-726.416 2852.9775,-718.9958 2850.0008,-725.3314"/>
</g>
<!-- Node174&#45;&gt;Node45 -->
<g id="edge104" class="edge">
<title>Node174&#45;&gt;Node45</title>
<path fill="none" stroke="#191970" d="M2675.1637,-718.601C2694.4674,-695.257 2720,-657.0872 2720,-618.5 2720,-618.5 2720,-618.5 2720,-551.5 2720,-507.5323 2734.6225,-457.1326 2742.7334,-432.5584"/>
<polygon fill="#191970" stroke="#191970" points="2672.4898,-716.3424 2668.6475,-726.2161 2677.8084,-720.8935 2672.4898,-716.3424"/>
</g>
<!-- Node228&#45;&gt;Node9 -->
<g id="edge115" class="edge">
<title>Node228&#45;&gt;Node9</title>
<path fill="none" stroke="#191970" d="M1238.1966,-735.7646C1070.2335,-723.5401 680.1994,-695.153 531.2616,-684.3131"/>
<polygon fill="#191970" stroke="#191970" points="1237.9807,-739.2581 1248.2084,-736.4933 1238.4889,-732.2765 1237.9807,-739.2581"/>
</g>
<!-- Node228&#45;&gt;Node10 -->
<g id="edge113" class="edge">
<title>Node228&#45;&gt;Node10</title>
<path fill="none" stroke="#191970" d="M1319.4018,-721.6594C1324.277,-681.386 1335.1783,-591.3318 1338.8026,-561.3917"/>
<polygon fill="#191970" stroke="#191970" points="1315.8994,-721.4685 1318.1722,-731.8167 1322.8487,-722.3098 1315.8994,-721.4685"/>
</g>
<!-- Node228&#45;&gt;Node163 -->
<g id="edge116" class="edge">
<title>Node228&#45;&gt;Node163</title>
<path fill="none" stroke="#191970" d="M1359.6262,-729.2018C1534.4754,-678.7555 2196.4949,-487.7544 2387.8845,-432.536"/>
<polygon fill="#191970" stroke="#191970" points="1358.6389,-725.8438 1350.0011,-731.9788 1360.5794,-732.5695 1358.6389,-725.8438"/>
</g>
<!-- Node228&#45;&gt;Node179 -->
<g id="edge114" class="edge">
<title>Node228&#45;&gt;Node179</title>
<path fill="none" stroke="#191970" d="M1288.0321,-727.3046C1236.3613,-701.9838 1129.5969,-649.665 1085.6041,-628.1068"/>
<polygon fill="#191970" stroke="#191970" points="1286.7845,-730.5908 1297.3045,-731.8484 1289.8649,-724.305 1286.7845,-730.5908"/>
</g>
<!-- Node228&#45;&gt;Node212 -->
<g id="edge117" class="edge">
<title>Node228&#45;&gt;Node212</title>
<path fill="none" stroke="#191970" d="M1330.8051,-723.8961C1359.8366,-686.8762 1426.7765,-601.5165 1454.0791,-566.7011"/>
<polygon fill="#191970" stroke="#191970" points="1328.0106,-721.7879 1324.5938,-731.8167 1333.5188,-726.1075 1328.0106,-721.7879"/>
</g>
<!-- Node228&#45;&gt;Node215 -->
<g id="edge118" class="edge">
<title>Node228&#45;&gt;Node215</title>
<path fill="none" stroke="#191970" d="M1266.2249,-729.447C1201.656,-712.9996 1087.7738,-680.1979 998,-634 916.4065,-592.0117 831.4235,-520.1797 801.8802,-494.2198"/>
<polygon fill="#191970" stroke="#191970" points="1265.6014,-732.8991 1276.1532,-731.9458 1267.3099,-726.1108 1265.6014,-732.8991"/>
</g>
<!-- Node228&#45;&gt;Node222 -->
<g id="edge119" class="edge">
<title>Node228&#45;&gt;Node222</title>
<path fill="none" stroke="#191970" d="M1237.8697,-739.3293C1117.7555,-735.0164 895.7915,-722.766 824,-690 819.7182,-688.0457 719.1739,-592.5761 686.298,-561.3028"/>
<polygon fill="#191970" stroke="#191970" points="1237.9904,-742.8356 1248.1064,-739.6865 1238.2345,-735.8398 1237.9904,-742.8356"/>
</g>
<!-- Node234&#45;&gt;Node184 -->
<g id="edge123" class="edge">
<title>Node234&#45;&gt;Node184</title>
<path fill="none" stroke="#191970" d="M1116.0248,-870.4273C840.903,-853.6317 0,-797.6998 0,-741.5 0,-741.5 0,-741.5 0,-618.5 0,-565.5916 165.4623,-514.564 241.0837,-494.0056"/>
<polygon fill="#191970" stroke="#191970" points="1116.1601,-873.9419 1126.3542,-871.0557 1116.5852,-866.9548 1116.1601,-873.9419"/>
</g>
<!-- Node234&#45;&gt;Node225 -->
<g id="edge125" class="edge">
<title>Node234&#45;&gt;Node225</title>
<path fill="none" stroke="#191970" d="M1288.1813,-859.8212C1589.2457,-824.0415 1936.9928,-813.1036 2090.4638,-809.8248"/>
<polygon fill="#191970" stroke="#191970" points="1287.4529,-856.3834 1277.9412,-861.05 1288.287,-863.3335 1287.4529,-856.3834"/>
</g>
<!-- Node234&#45;&gt;Node228 -->
<g id="edge124" class="edge">
<title>Node234&#45;&gt;Node228</title>
<path fill="none" stroke="#191970" d="M1221.6644,-852.5867C1247.2179,-822.8114 1290.6986,-772.1468 1308.7576,-751.1042"/>
<polygon fill="#191970" stroke="#191970" points="1218.825,-850.521 1214.9684,-860.389 1224.137,-855.0798 1218.825,-850.521"/>
</g>
<!-- Node235&#45;&gt;Node184 -->
<g id="edge127" class="edge">
<title>Node235&#45;&gt;Node184</title>
<path fill="none" stroke="#191970" d="M1284.7611,-859.9693C1009.1624,-828.4254 931.4462,-881.3541 664,-824 436.4261,-775.1965 305.7589,-827.2208 176,-634 151.7174,-597.8414 153.174,-573.0953 176,-536 189.3071,-514.3742 214.8071,-501.4992 236.9803,-494.0307"/>
<polygon fill="#191970" stroke="#191970" points="1284.7305,-863.4896 1295.07,-861.1778 1285.5455,-856.5372 1284.7305,-863.4896"/>
</g>
<!-- Node235&#45;&gt;Node225 -->
<g id="edge129" class="edge">
<title>Node235&#45;&gt;Node225</title>
<path fill="none" stroke="#191970" d="M1456.5241,-868.3284C1612.1102,-855.2817 1939.3008,-827.8452 2090.4056,-815.1744"/>
<polygon fill="#191970" stroke="#191970" points="1456.2003,-864.8432 1446.5278,-869.1666 1456.7853,-871.8187 1456.2003,-864.8432"/>
</g>
<!-- Node235&#45;&gt;Node228 -->
<g id="edge128" class="edge">
<title>Node235&#45;&gt;Node228</title>
<path fill="none" stroke="#191970" d="M1361.1437,-851.0417C1349.0727,-821.0879 1329.2053,-771.7871 1320.8703,-751.1042"/>
<polygon fill="#191970" stroke="#191970" points="1357.9263,-852.422 1364.9105,-860.389 1364.419,-849.8055 1357.9263,-852.422"/>
</g>
<!-- Node236&#45;&gt;Node166 -->
<g id="edge133" class="edge">
<title>Node236&#45;&gt;Node166</title>
<path fill="none" stroke="#191970" d="M3147.2734,-926.9798C3225.1785,-913.4654 3269.3686,-948.5404 3316,-891 3324.6747,-880.2959 3319.0442,-873.4373 3316,-860 3255.7072,-593.8647 2987.3849,-359.3895 2913.1116,-298.7064"/>
<polygon fill="#191970" stroke="#191970" points="3146.2217,-923.6198 3137.0896,-928.9915 3147.5784,-930.4871 3146.2217,-923.6198"/>
</g>
<!-- Node236&#45;&gt;Node37 -->
<g id="edge132" class="edge">
<title>Node236&#45;&gt;Node37</title>
<path fill="none" stroke="#191970" d="M3146.9655,-927.173C3207.8062,-918.5423 3330.5604,-925.8057 3360,-891 3484.3217,-744.0175 3273.4527,-495.8791 3215.2477,-432.5599"/>
<polygon fill="#191970" stroke="#191970" points="3146.3378,-923.7293 3137.0581,-928.8416 3147.5005,-930.6321 3146.3378,-923.7293"/>
</g>
<!-- Node236&#45;&gt;Node225 -->
<g id="edge134" class="edge">
<title>Node236&#45;&gt;Node225</title>
<path fill="none" stroke="#191970" d="M3010.6824,-932.429C2840.7303,-907.3755 2400.6698,-842.5041 2234.6635,-818.0324"/>
<polygon fill="#191970" stroke="#191970" points="3010.3516,-935.918 3020.7552,-933.9139 3011.3725,-928.9928 3010.3516,-935.918"/>
</g>
<!-- Node236&#45;&gt;Node235 -->
<g id="edge135" class="edge">
<title>Node236&#45;&gt;Node235</title>
<path fill="none" stroke="#191970" d="M3010.561,-939.8153C2738.1907,-929.131 1732.2,-889.6689 1446.8853,-878.4768"/>
<polygon fill="#191970" stroke="#191970" points="3010.5713,-943.3183 3020.7009,-940.2131 3010.8458,-936.3237 3010.5713,-943.3183"/>
</g>
<!-- Node24 -->
<g id="node46" class="node">
<title>Node24</title>
<g id="a_node46"><a xlink:href="search__task_8h.html" target="_top" xlink:title="Meta information and hardware parameters for a search task. ">
<polygon fill="#ffffff" stroke="#ff0000" points="3021,-860.5 3021,-890.5 3173,-890.5 3173,-860.5 3021,-860.5"/>
<text text-anchor="start" x="3029" y="-878.5" font-family="Helvetica,sans-Serif" font-size="10.00" fill="#000000">include/tvm/auto_scheduler</text>
<text text-anchor="middle" x="3097" y="-867.5" font-family="Helvetica,sans-Serif" font-size="10.00" fill="#000000">/search_task.h</text>
</a>
</g>
</g>
<!-- Node236&#45;&gt;Node24 -->
<g id="edge131" class="edge">
<title>Node236&#45;&gt;Node24</title>
<path fill="none" stroke="#191970" d="M3085.6868,-917.6103C3088.1195,-908.5553 3090.7941,-898.5998 3092.9317,-890.6432"/>
<polygon fill="#191970" stroke="#191970" points="3082.299,-916.731 3083.0845,-927.2967 3089.0593,-918.5472 3082.299,-916.731"/>
</g>
<!-- Node237 -->
<g id="node47" class="node">
<title>Node237</title>
<g id="a_node47"><a xlink:href="runtime_2debug_8h.html" target="_top" xlink:title="Helpers for debugging at runtime. ">
<polygon fill="#ffffff" stroke="#000000" points="3191,-860.5 3191,-890.5 3307,-890.5 3307,-860.5 3191,-860.5"/>
<text text-anchor="start" x="3199" y="-878.5" font-family="Helvetica,sans-Serif" font-size="10.00" fill="#000000">include/tvm/runtime</text>
<text text-anchor="middle" x="3249" y="-867.5" font-family="Helvetica,sans-Serif" font-size="10.00" fill="#000000">/debug.h</text>
</a>
</g>
</g>
<!-- Node236&#45;&gt;Node237 -->
<g id="edge136" class="edge">
<title>Node236&#45;&gt;Node237</title>
<path fill="none" stroke="#191970" d="M3126.6318,-923.7275C3153.1796,-913.2645 3185.7995,-900.4084 3210.6823,-890.6017"/>
<polygon fill="#191970" stroke="#191970" points="3125.1715,-920.5409 3117.1513,-927.4639 3127.7382,-927.0534 3125.1715,-920.5409"/>
</g>
<!-- Node236&#45;&gt;Node241 -->
<g id="edge137" class="edge">
<title>Node236&#45;&gt;Node241</title>
<path fill="none" stroke="#191970" d="M3030.0484,-923.865C3002.4986,-913.3773 2968.5441,-900.4515 2942.6701,-890.6017"/>
<polygon fill="#191970" stroke="#191970" points="3028.9112,-927.1771 3039.5022,-927.4639 3031.4017,-920.6351 3028.9112,-927.1771"/>
</g>
<!-- Node241&#45;&gt;Node164 -->
<g id="edge140" class="edge">
<title>Node241&#45;&gt;Node164</title>
<path fill="none" stroke="#191970" d="M2834.6403,-866.8828C2763.5407,-857.245 2657.4697,-840.7747 2620,-824 2575.7768,-804.2019 2564.1321,-794.9435 2534,-757 2467.068,-672.7165 2490.1587,-628.4182 2435,-536 2405.2937,-486.2271 2378.5717,-485.9545 2355,-433 2337.1553,-392.9114 2336.8024,-378.441 2343,-335 2344.7888,-322.462 2348.9104,-308.7109 2352.3813,-298.5743"/>
<polygon fill="#191970" stroke="#191970" points="2834.4877,-870.3936 2844.8643,-868.2544 2835.4185,-863.4558 2834.4877,-870.3936"/>
</g>
<!-- Node241&#45;&gt;Node42 -->
<g id="edge149" class="edge">
<title>Node241&#45;&gt;Node42</title>
<path fill="none" stroke="#191970" d="M2970.8219,-861.4651C2991.6468,-853.8117 3012.5868,-842.0459 3026,-824 3078.0786,-753.9343 3140.0018,-429.0791 2979,-268 2954.1354,-243.1234 2738.037,-227.3063 2620.0824,-220.4463"/>
<polygon fill="#191970" stroke="#191970" points="2969.6341,-858.1721 2961.2892,-864.7 2971.8836,-864.8008 2969.6341,-858.1721"/>
</g>
<!-- Node241&#45;&gt;Node38 -->
<g id="edge143" class="edge">
<title>Node241&#45;&gt;Node38</title>
<path fill="none" stroke="#191970" d="M2971.1956,-865.7633C3066.1324,-852.0762 3227.1356,-828.3274 3232,-824 3278.9704,-782.2149 3308,-614.3666 3308,-551.5 3308,-551.5 3308,-551.5 3308,-216.5 3308,-147.9934 3096.496,-108.5212 2979.1774,-91.8959"/>
<polygon fill="#191970" stroke="#191970" points="2970.491,-862.3286 2961.0918,-867.2179 2971.4885,-869.2571 2970.491,-862.3286"/>
</g>
<!-- Node241&#45;&gt;Node39 -->
<g id="edge151" class="edge">
<title>Node241&#45;&gt;Node39</title>
<path fill="none" stroke="#191970" d="M2971.3168,-865.7143C3073.5217,-851.0495 3254.5129,-824.9728 3256,-824 3346.0461,-765.0947 3384,-726.1017 3384,-618.5 3384,-618.5 3384,-618.5 3384,-149.5 3384,-49.7426 2638.9174,-23.117 2395.1648,-17.0757"/>
<polygon fill="#191970" stroke="#191970" points="2970.7799,-862.2554 2961.3783,-867.14 2971.774,-869.1845 2970.7799,-862.2554"/>
</g>
<!-- Node241&#45;&gt;Node40 -->
<g id="edge152" class="edge">
<title>Node241&#45;&gt;Node40</title>
<path fill="none" stroke="#191970" d="M2970.7896,-864.1504C2997.6728,-856.6616 3027.0953,-844.3092 3048,-824 3070.9099,-801.7427 3065.1449,-787.6893 3074,-757 3117.7414,-605.4041 3120.8274,-553.2783 3076,-402 3056.8511,-337.3785 3060.8119,-305.7842 3005,-268 2906.2931,-201.1763 2552.429,-166.9776 2395.2095,-154.8003"/>
<polygon fill="#191970" stroke="#191970" points="2969.8154,-860.7873 2961.0207,-866.6952 2971.58,-867.5613 2969.8154,-860.7873"/>
</g>
<!-- Node241&#45;&gt;Node41 -->
<g id="edge141" class="edge">
<title>Node241&#45;&gt;Node41</title>
<path fill="none" stroke="#191970" d="M2945.1589,-855.1252C2958.2327,-847.0249 2971.6471,-836.597 2981,-824 3007.4997,-788.3088 3011.5311,-769.1879 3001,-726 2981.7864,-647.2052 2899.4125,-448.5527 2833,-402 2831.3844,-400.8675 2630.1624,-374.898 2516.3186,-360.2795"/>
<polygon fill="#191970" stroke="#191970" points="2943.0787,-852.2873 2936.2163,-860.3593 2946.6147,-858.3285 2943.0787,-852.2873"/>
</g>
<!-- Node241&#45;&gt;Node166 -->
<g id="edge142" class="edge">
<title>Node241&#45;&gt;Node166</title>
<path fill="none" stroke="#191970" d="M2962.3982,-856.2177C2978.0345,-848.4881 2993.4589,-837.9978 3004,-824 3030.4309,-788.9019 3022.9379,-769.534 3017,-726 2993.5623,-554.1662 2921.1645,-354.9031 2899.9188,-298.855"/>
<polygon fill="#191970" stroke="#191970" points="2960.8197,-853.0912 2953.2026,-860.4553 2963.7495,-859.4487 2960.8197,-853.0912"/>
</g>
<!-- Node241&#45;&gt;Node167 -->
<g id="edge147" class="edge">
<title>Node241&#45;&gt;Node167</title>
<path fill="none" stroke="#191970" d="M2834.8583,-873.8127C2601.1367,-867.2988 1842.6933,-839.876 1776,-757 1675.7257,-632.3947 1708.1041,-499.3595 1835,-402 1872.3355,-373.3547 1997.2264,-360.1763 2079.7706,-354.4691"/>
<polygon fill="#191970" stroke="#191970" points="2834.8377,-877.3134 2844.9301,-874.0895 2835.03,-870.316 2834.8377,-877.3134"/>
</g>
<!-- Node241&#45;&gt;Node37 -->
<g id="edge139" class="edge">
<title>Node241&#45;&gt;Node37</title>
<path fill="none" stroke="#191970" d="M2971.1098,-865.8636C3058.2768,-853.2594 3199.1751,-831.8577 3208,-824 3236.5196,-798.606 3232,-779.6867 3232,-741.5 3232,-741.5 3232,-741.5 3232,-551.5 3232,-507.3251 3215.8108,-457.0177 3206.8309,-432.5106"/>
<polygon fill="#191970" stroke="#191970" points="2970.4185,-862.427 2961.0202,-867.318 2971.4173,-869.3554 2970.4185,-862.427"/>
</g>
<!-- Node241&#45;&gt;Node44 -->
<g id="edge146" class="edge">
<title>Node241&#45;&gt;Node44</title>
<path fill="none" stroke="#191970" d="M2834.8351,-865.4318C2762.1337,-851.7181 2646.9452,-821.1147 2569,-757 2480.2884,-684.0293 2516.8981,-616.543 2435,-536 2385.8285,-487.6421 2313.1101,-451.4887 2269.3633,-432.5007"/>
<polygon fill="#191970" stroke="#191970" points="2834.3366,-868.8986 2844.8034,-867.2565 2835.597,-862.013 2834.3366,-868.8986"/>
</g>
<!-- Node241&#45;&gt;Node45 -->
<g id="edge150" class="edge">
<title>Node241&#45;&gt;Node45</title>
<path fill="none" stroke="#191970" d="M2929.2832,-853.62C2960.1001,-825.1407 3004.6337,-773.3999 2985,-726 2962.8711,-672.5761 2929.7084,-678.6799 2893,-634 2834.8468,-563.2183 2777.9665,-468.9502 2756.7321,-432.6404"/>
<polygon fill="#191970" stroke="#191970" points="2926.8968,-851.0588 2921.7914,-860.3425 2931.5718,-856.2689 2926.8968,-851.0588"/>
</g>
<!-- Node241&#45;&gt;Node184 -->
<g id="edge138" class="edge">
<title>Node241&#45;&gt;Node184</title>
<path fill="none" stroke="#191970" d="M2834.9758,-875.1478C2630.0508,-873.6335 2000.7334,-865.6635 1481,-824 1000.185,-785.4563 853.6773,-864.5249 404,-690 363.8781,-674.4282 350.3337,-668.7916 325,-634 292.0086,-588.6918 281.6792,-519.4969 278.9028,-494.1961"/>
<polygon fill="#191970" stroke="#191970" points="2834.9642,-878.6477 2844.9889,-875.2191 2835.0141,-871.6479 2834.9642,-878.6477"/>
</g>
<!-- Node241&#45;&gt;Node177 -->
<g id="edge148" class="edge">
<title>Node241&#45;&gt;Node177</title>
<path fill="none" stroke="#191970" d="M2834.9608,-871.1006C2728.5087,-863.6279 2527.7418,-846.9973 2460,-824 2392.335,-801.0288 2322,-812.9578 2322,-741.5 2322,-741.5 2322,-741.5 2322,-680 2322,-638.2165 2336.308,-590.5067 2344.4681,-566.6947"/>
<polygon fill="#191970" stroke="#191970" points="2834.742,-874.5937 2844.9605,-871.7951 2835.2271,-867.6105 2834.742,-874.5937"/>
</g>
<!-- Node241&#45;&gt;Node225 -->
<g id="edge153" class="edge">
<title>Node241&#45;&gt;Node225</title>
<path fill="none" stroke="#191970" d="M2834.6519,-870.1543C2723.9528,-861.368 2498.6003,-842.9496 2308,-824 2289.0473,-822.1157 2268.6503,-819.9183 2249.5051,-817.7805"/>
<polygon fill="#191970" stroke="#191970" points="2834.4345,-873.6479 2844.6797,-870.9487 2834.9874,-866.6698 2834.4345,-873.6479"/>
</g>
<!-- Node241&#45;&gt;Node173 -->
<g id="edge144" class="edge">
<title>Node241&#45;&gt;Node173</title>
<path fill="none" stroke="#191970" d="M2902.4368,-850.3415C2901.8204,-822.8131 2900.8523,-779.5714 2900.3417,-756.7614"/>
<polygon fill="#191970" stroke="#191970" points="2898.9386,-850.4699 2902.6617,-860.389 2905.9369,-850.3131 2898.9386,-850.4699"/>
</g>
<!-- Node241&#45;&gt;Node174 -->
<g id="edge145" class="edge">
<title>Node241&#45;&gt;Node174</title>
<path fill="none" stroke="#191970" d="M2866.0053,-855.5912C2815.7594,-828.5512 2727.0507,-780.8124 2681.9768,-756.5558"/>
<polygon fill="#191970" stroke="#191970" points="2864.4561,-858.7321 2874.9206,-860.389 2867.7733,-852.568 2864.4561,-858.7321"/>
</g>
<!-- Node252&#45;&gt;Node209 -->
<g id="edge156" class="edge">
<title>Node252&#45;&gt;Node209</title>
<path fill="none" stroke="#191970" d="M1554.524,-783.0577C1560.1049,-744.0786 1571.8122,-667.3327 1586,-603 1588.7138,-590.6947 1592.4954,-576.9291 1595.4443,-566.7277"/>
<polygon fill="#191970" stroke="#191970" points="1550.9894,-783.0568 1553.0539,-793.4486 1557.9203,-784.0375 1550.9894,-783.0568"/>
</g>
</g>
</svg>
