<?xml version="1.0" encoding="UTF-8" standalone="no"?>
<!DOCTYPE svg PUBLIC "-//W3C//DTD SVG 1.1//EN"
 "http://www.w3.org/Graphics/SVG/1.1/DTD/svg11.dtd">
<!-- Generated by graphviz version 2.40.1 (20161225.0304)
 -->
<!-- Title: include/tvm/relax Pages: 1 -->
<svg width="592pt" height="536pt"
 viewBox="0.00 0.00 592.00 535.91" xmlns="http://www.w3.org/2000/svg" xmlns:xlink="http://www.w3.org/1999/xlink">
<g id="graph0" class="graph" transform="scale(1 1) rotate(0) translate(4 531.9063)">
<title>include/tvm/relax</title>
<polygon fill="#ffffff" stroke="transparent" points="-4,4 -4,-531.9063 588,-531.9063 588,4 -4,4"/>
<g id="clust1" class="cluster">
<title>clusterdir_b4c7d8e826c599ba55146c099a14beb5</title>
<g id="a_clust1"><a xlink:href="dir_b4c7d8e826c599ba55146c099a14beb5.html" target="_top" xlink:title="tvm">
<polygon fill="#ddddee" stroke="#000000" points="147,-416 147,-503 305,-503 305,-416 147,-416"/>
<text text-anchor="middle" x="226" y="-491" font-family="Helvetica,sans-Serif" font-size="10.00" fill="#000000">tvm</text>
</a>
</g>
</g>
<g id="clust2" class="cluster">
<title>clusterdir_039190d3b4246b6bdd648b90e06580e6</title>
<g id="a_clust2"><a xlink:href="dir_039190d3b4246b6bdd648b90e06580e6.html" target="_top">
<polygon fill="#eeeeff" stroke="#000000" points="155,-424 155,-476 297,-476 297,-424 155,-424"/>
</a>
</g>
</g>
<!-- dir_039190d3b4246b6bdd648b90e06580e6 -->
<g id="node1" class="node">
<title>dir_039190d3b4246b6bdd648b90e06580e6</title>
<text text-anchor="middle" x="190" y="-447.5" font-family="Helvetica,sans-Serif" font-size="10.00" fill="#000000">relax</text>
</g>
<!-- dir_63946bee875c6d52bce55e72a67a86ad -->
<g id="node3" class="node">
<title>dir_63946bee875c6d52bce55e72a67a86ad</title>
<g id="a_node3"><a xlink:href="dir_63946bee875c6d52bce55e72a67a86ad.html" target="_top" xlink:title="relay">
<polygon fill="#ffffff" stroke="#ff0000" points="488,-468 434,-468 434,-432 488,-432 488,-468"/>
<text text-anchor="middle" x="461" y="-447.5" font-family="Helvetica,sans-Serif" font-size="10.00" fill="#000000">relay</text>
</a>
</g>
</g>
<!-- dir_039190d3b4246b6bdd648b90e06580e6&#45;&gt;dir_63946bee875c6d52bce55e72a67a86ad -->
<g id="edge26" class="edge">
<title>dir_039190d3b4246b6bdd648b90e06580e6&#45;&gt;dir_63946bee875c6d52bce55e72a67a86ad</title>
<path fill="none" stroke="#000000" d="M195.7294,-468.0384C202.2342,-485.1355 214.6695,-509.8155 235,-521 257.1962,-533.2109 267.1659,-526.0048 292,-521 340.1923,-511.2879 391.7602,-487.4443 425.0821,-470.0601"/>
<polygon fill="#000000" stroke="#000000" points="426.7818,-473.1205 433.9787,-465.3453 423.5039,-466.9354 426.7818,-473.1205"/>
<g id="a_edge26&#45;headlabel"><a xlink:href="dir_000011_000005.html" target="_top" xlink:title="4">
<text text-anchor="middle" x="424.9351" y="-474.8124" font-family="Helvetica,sans-Serif" font-size="10.00" fill="#000000">4</text>
</a>
</g>
</g>
<!-- dir_194ecda214f05a38134392ac6a69b970 -->
<g id="node4" class="node">
<title>dir_194ecda214f05a38134392ac6a69b970</title>
<g id="a_node4"><a xlink:href="dir_194ecda214f05a38134392ac6a69b970.html" target="_top" xlink:title="arith">
<polygon fill="none" stroke="#000000" points="310,-324 256,-324 256,-288 310,-288 310,-324"/>
<text text-anchor="middle" x="283" y="-303.5" font-family="Helvetica,sans-Serif" font-size="10.00" fill="#000000">arith</text>
</a>
</g>
</g>
<!-- dir_039190d3b4246b6bdd648b90e06580e6&#45;&gt;dir_194ecda214f05a38134392ac6a69b970 -->
<g id="edge27" class="edge">
<title>dir_039190d3b4246b6bdd648b90e06580e6&#45;&gt;dir_194ecda214f05a38134392ac6a69b970</title>
<path fill="none" stroke="#000000" d="M201.7785,-431.7623C217.9205,-406.7682 247.032,-361.6924 265.6653,-332.8409"/>
<polygon fill="#000000" stroke="#000000" points="268.832,-334.3889 271.3171,-324.0896 262.9517,-330.5912 268.832,-334.3889"/>
<g id="a_edge27&#45;headlabel"><a xlink:href="dir_000011_000002.html" target="_top" xlink:title="2">
<text text-anchor="middle" x="269.2669" y="-336.4488" font-family="Helvetica,sans-Serif" font-size="10.00" fill="#000000">2</text>
</a>
</g>
</g>
<!-- dir_f97d855a3173728370e632aa77170e34 -->
<g id="node5" class="node">
<title>dir_f97d855a3173728370e632aa77170e34</title>
<g id="a_node5"><a xlink:href="dir_f97d855a3173728370e632aa77170e34.html" target="_top" xlink:title="te">
<polygon fill="none" stroke="#000000" points="348,-396 294,-396 294,-360 348,-360 348,-396"/>
<text text-anchor="middle" x="321" y="-375.5" font-family="Helvetica,sans-Serif" font-size="10.00" fill="#000000">te</text>
</a>
</g>
</g>
<!-- dir_039190d3b4246b6bdd648b90e06580e6&#45;&gt;dir_f97d855a3173728370e632aa77170e34 -->
<g id="edge28" class="edge">
<title>dir_039190d3b4246b6bdd648b90e06580e6&#45;&gt;dir_f97d855a3173728370e632aa77170e34</title>
<path fill="none" stroke="#000000" d="M206.3936,-431.8604C212.174,-426.224 218.9892,-420.3542 226,-416 247.7413,-402.4971 256.2725,-405.5927 280,-396 281.3964,-395.4355 282.8162,-394.8533 284.248,-394.2593"/>
<polygon fill="#000000" stroke="#000000" points="285.9075,-397.3574 293.748,-390.2317 283.1751,-390.9127 285.9075,-397.3574"/>
<g id="a_edge28&#45;headlabel"><a xlink:href="dir_000011_000036.html" target="_top" xlink:title="2">
<text text-anchor="middle" x="283.7062" y="-398.8745" font-family="Helvetica,sans-Serif" font-size="10.00" fill="#000000">2</text>
</a>
</g>
</g>
<!-- dir_6cd4295f6ad5aa17e5b568d0e5b190e5 -->
<g id="node6" class="node">
<title>dir_6cd4295f6ad5aa17e5b568d0e5b190e5</title>
<g id="a_node6"><a xlink:href="dir_6cd4295f6ad5aa17e5b568d0e5b190e5.html" target="_top" xlink:title="node">
<polygon fill="none" stroke="#000000" points="310,-108 256,-108 256,-72 310,-72 310,-108"/>
<text text-anchor="middle" x="283" y="-87.5" font-family="Helvetica,sans-Serif" font-size="10.00" fill="#000000">node</text>
</a>
</g>
</g>
<!-- dir_039190d3b4246b6bdd648b90e06580e6&#45;&gt;dir_6cd4295f6ad5aa17e5b568d0e5b190e5 -->
<g id="edge29" class="edge">
<title>dir_039190d3b4246b6bdd648b90e06580e6&#45;&gt;dir_6cd4295f6ad5aa17e5b568d0e5b190e5</title>
<path fill="none" stroke="#000000" d="M181.9412,-431.7668C170.7866,-404.8248 152,-352.5405 152,-306 152,-306 152,-306 152,-234 152,-177.3673 208.1262,-133.1773 246.903,-109.405"/>
<polygon fill="#000000" stroke="#000000" points="249.0473,-112.2022 255.8567,-104.0854 245.4718,-106.1842 249.0473,-112.2022"/>
<g id="a_edge29&#45;headlabel"><a xlink:href="dir_000011_000020.html" target="_top" xlink:title="8">
<text text-anchor="middle" x="247.4072" y="-113.9791" font-family="Helvetica,sans-Serif" font-size="10.00" fill="#000000">8</text>
</a>
</g>
</g>
<!-- dir_4378f18824ae7d4ad48f8d7785cd7ac8 -->
<g id="node7" class="node">
<title>dir_4378f18824ae7d4ad48f8d7785cd7ac8</title>
<g id="a_node7"><a xlink:href="dir_4378f18824ae7d4ad48f8d7785cd7ac8.html" target="_top" xlink:title="meta_schedule">
<polygon fill="#ffffff" stroke="#ff0000" points="123.5,-324 32.5,-324 32.5,-288 123.5,-288 123.5,-324"/>
<text text-anchor="middle" x="78" y="-303.5" font-family="Helvetica,sans-Serif" font-size="10.00" fill="#000000">meta_schedule</text>
</a>
</g>
</g>
<!-- dir_039190d3b4246b6bdd648b90e06580e6&#45;&gt;dir_4378f18824ae7d4ad48f8d7785cd7ac8 -->
<g id="edge30" class="edge">
<title>dir_039190d3b4246b6bdd648b90e06580e6&#45;&gt;dir_4378f18824ae7d4ad48f8d7785cd7ac8</title>
<path fill="none" stroke="#000000" d="M170.8483,-431.766C160.6298,-421.6391 148.1135,-408.5767 138,-396 121.7917,-375.8443 105.6566,-351.3256 94.2075,-332.9728"/>
<polygon fill="#000000" stroke="#000000" points="97.0561,-330.924 88.828,-324.2494 91.0979,-334.5982 97.0561,-330.924"/>
<g id="a_edge30&#45;headlabel"><a xlink:href="dir_000011_000004.html" target="_top" xlink:title="1">
<text text-anchor="middle" x="101.3595" y="-329.9933" font-family="Helvetica,sans-Serif" font-size="10.00" fill="#000000">1</text>
</a>
</g>
</g>
<!-- dir_404558507ed35459f0d7a6d81d8c508d -->
<g id="node8" class="node">
<title>dir_404558507ed35459f0d7a6d81d8c508d</title>
<g id="a_node8"><a xlink:href="dir_404558507ed35459f0d7a6d81d8c508d.html" target="_top" xlink:title="runtime">
<polygon fill="#ffffff" stroke="#ff0000" points="365.5,-36 310.5,-36 310.5,0 365.5,0 365.5,-36"/>
<text text-anchor="middle" x="338" y="-15.5" font-family="Helvetica,sans-Serif" font-size="10.00" fill="#000000">runtime</text>
</a>
</g>
</g>
<!-- dir_039190d3b4246b6bdd648b90e06580e6&#45;&gt;dir_404558507ed35459f0d7a6d81d8c508d -->
<g id="edge31" class="edge">
<title>dir_039190d3b4246b6bdd648b90e06580e6&#45;&gt;dir_404558507ed35459f0d7a6d81d8c508d</title>
<path fill="none" stroke="#000000" d="M162.7776,-443.1158C110.2409,-428.0141 0,-386.7094 0,-306 0,-306 0,-306 0,-162 0,-97.2707 212.4586,-44.6649 300.4897,-25.6461"/>
<polygon fill="#000000" stroke="#000000" points="301.2895,-29.0543 310.34,-23.5463 299.8301,-22.2082 301.2895,-29.0543"/>
<g id="a_edge31&#45;headlabel"><a xlink:href="dir_000011_000008.html" target="_top" xlink:title="14">
<text text-anchor="middle" x="298.3658" y="-30.0806" font-family="Helvetica,sans-Serif" font-size="10.00" fill="#000000">14</text>
</a>
</g>
</g>
<!-- dir_5b0337bb1f2ae9da0485a728750cd2f3 -->
<g id="node2" class="node">
<title>dir_5b0337bb1f2ae9da0485a728750cd2f3</title>
<g id="a_node2"><a xlink:href="dir_5b0337bb1f2ae9da0485a728750cd2f3.html" target="_top" xlink:title="attrs">
<polygon fill="#ffffff" stroke="#000000" points="289,-468 235,-468 235,-432 289,-432 289,-468"/>
<text text-anchor="middle" x="262" y="-447.5" font-family="Helvetica,sans-Serif" font-size="10.00" fill="#000000">attrs</text>
</a>
</g>
</g>
<!-- dir_dc867ff9a37cad1764f1670dc7eba6c1 -->
<g id="node9" class="node">
<title>dir_dc867ff9a37cad1764f1670dc7eba6c1</title>
<g id="a_node9"><a xlink:href="dir_dc867ff9a37cad1764f1670dc7eba6c1.html" target="_top" xlink:title="ir">
<polygon fill="none" stroke="#000000" points="310,-180 256,-180 256,-144 310,-144 310,-180"/>
<text text-anchor="middle" x="283" y="-159.5" font-family="Helvetica,sans-Serif" font-size="10.00" fill="#000000">ir</text>
</a>
</g>
</g>
<!-- dir_5b0337bb1f2ae9da0485a728750cd2f3&#45;&gt;dir_dc867ff9a37cad1764f1670dc7eba6c1 -->
<g id="edge8" class="edge">
<title>dir_5b0337bb1f2ae9da0485a728750cd2f3&#45;&gt;dir_dc867ff9a37cad1764f1670dc7eba6c1</title>
<path fill="none" stroke="#000000" d="M257.6143,-431.9569C250.9334,-401.9717 239.7132,-340.0285 247,-288 251.8534,-253.3462 263.8701,-214.8502 272.6904,-189.6381"/>
<polygon fill="#000000" stroke="#000000" points="276.0587,-190.613 276.127,-180.0184 269.4667,-188.258 276.0587,-190.613"/>
<g id="a_edge8&#45;headlabel"><a xlink:href="dir_000021_000007.html" target="_top" xlink:title="1">
<text text-anchor="middle" x="277.5232" y="-192.4533" font-family="Helvetica,sans-Serif" font-size="10.00" fill="#000000">1</text>
</a>
</g>
</g>
<!-- dir_72c2f11201cd7636dc7624de0754daa5 -->
<g id="node10" class="node">
<title>dir_72c2f11201cd7636dc7624de0754daa5</title>
<g id="a_node10"><a xlink:href="dir_72c2f11201cd7636dc7624de0754daa5.html" target="_top" xlink:title="tir">
<polygon fill="#ffffff" stroke="#ff0000" points="365,-252 311,-252 311,-216 365,-216 365,-252"/>
<text text-anchor="middle" x="338" y="-231.5" font-family="Helvetica,sans-Serif" font-size="10.00" fill="#000000">tir</text>
</a>
</g>
</g>
<!-- dir_5b0337bb1f2ae9da0485a728750cd2f3&#45;&gt;dir_72c2f11201cd7636dc7624de0754daa5 -->
<g id="edge9" class="edge">
<title>dir_5b0337bb1f2ae9da0485a728750cd2f3&#45;&gt;dir_72c2f11201cd7636dc7624de0754daa5</title>
<path fill="none" stroke="#000000" d="M289.117,-442.8453C311.7259,-435.2882 342.4979,-420.9245 357,-396 381.3681,-354.119 364.6728,-295.8501 350.9208,-261.8111"/>
<polygon fill="#000000" stroke="#000000" points="354.0934,-260.327 346.9767,-252.4782 347.6455,-263.0519 354.0934,-260.327"/>
<g id="a_edge9&#45;headlabel"><a xlink:href="dir_000021_000012.html" target="_top" xlink:title="1">
<text text-anchor="middle" x="358.1079" y="-260.0328" font-family="Helvetica,sans-Serif" font-size="10.00" fill="#000000">1</text>
</a>
</g>
</g>
<!-- dir_63946bee875c6d52bce55e72a67a86ad&#45;&gt;dir_f97d855a3173728370e632aa77170e34 -->
<g id="edge1" class="edge">
<title>dir_63946bee875c6d52bce55e72a67a86ad&#45;&gt;dir_f97d855a3173728370e632aa77170e34</title>
<path fill="none" stroke="#000000" d="M433.6742,-435.9468C411.8967,-424.7469 381.2083,-408.9642 357.3569,-396.6978"/>
<polygon fill="#000000" stroke="#000000" points="358.7505,-393.4788 348.2568,-392.0178 355.549,-399.7038 358.7505,-393.4788"/>
<g id="a_edge1&#45;headlabel"><a xlink:href="dir_000005_000036.html" target="_top" xlink:title="4">
<text text-anchor="middle" x="363.2456" y="-390.0978" font-family="Helvetica,sans-Serif" font-size="10.00" fill="#000000">4</text>
</a>
</g>
</g>
<!-- dir_63946bee875c6d52bce55e72a67a86ad&#45;&gt;dir_6cd4295f6ad5aa17e5b568d0e5b190e5 -->
<g id="edge2" class="edge">
<title>dir_63946bee875c6d52bce55e72a67a86ad&#45;&gt;dir_6cd4295f6ad5aa17e5b568d0e5b190e5</title>
<path fill="none" stroke="#000000" d="M465.2675,-431.6221C467.462,-421.2314 469.9016,-407.963 471,-396 475.4786,-347.2194 468.1581,-333.084 449,-288 434.6833,-254.309 430.9421,-245.3018 409,-216 382.0619,-180.0265 369.8132,-175.7439 338,-144 328.6015,-134.622 318.2265,-124.4018 309.0437,-115.4009"/>
<polygon fill="#000000" stroke="#000000" points="311.2529,-112.6658 301.6582,-108.1723 306.3566,-117.6684 311.2529,-112.6658"/>
<g id="a_edge2&#45;headlabel"><a xlink:href="dir_000005_000020.html" target="_top" xlink:title="5">
<text text-anchor="middle" x="315.8078" y="-110.651" font-family="Helvetica,sans-Serif" font-size="10.00" fill="#000000">5</text>
</a>
</g>
</g>
<!-- dir_63946bee875c6d52bce55e72a67a86ad&#45;&gt;dir_404558507ed35459f0d7a6d81d8c508d -->
<g id="edge3" class="edge">
<title>dir_63946bee875c6d52bce55e72a67a86ad&#45;&gt;dir_404558507ed35459f0d7a6d81d8c508d</title>
<path fill="none" stroke="#000000" d="M488.2977,-434.3408C524.5345,-411.2811 584,-364.5239 584,-306 584,-306 584,-306 584,-162 584,-66.6812 444.741,-33.2791 375.7777,-22.5818"/>
<polygon fill="#000000" stroke="#000000" points="376.1435,-19.0981 365.7411,-21.1086 375.1268,-26.0239 376.1435,-19.0981"/>
<g id="a_edge3&#45;headlabel"><a xlink:href="dir_000005_000008.html" target="_top" xlink:title="8">
<text text-anchor="middle" x="380.1123" y="-14.3109" font-family="Helvetica,sans-Serif" font-size="10.00" fill="#000000">8</text>
</a>
</g>
</g>
<!-- dir_63946bee875c6d52bce55e72a67a86ad&#45;&gt;dir_dc867ff9a37cad1764f1670dc7eba6c1 -->
<g id="edge4" class="edge">
<title>dir_63946bee875c6d52bce55e72a67a86ad&#45;&gt;dir_dc867ff9a37cad1764f1670dc7eba6c1</title>
<path fill="none" stroke="#000000" d="M454.2065,-431.8912C443.709,-389.2967 423.1714,-281.4311 365,-216 352.2455,-201.6538 334.7421,-190.0224 319.1034,-181.2797"/>
<polygon fill="#000000" stroke="#000000" points="320.6256,-178.1243 310.1611,-176.4673 317.3083,-184.2884 320.6256,-178.1243"/>
<g id="a_edge4&#45;headlabel"><a xlink:href="dir_000005_000007.html" target="_top" xlink:title="46">
<text text-anchor="middle" x="325.1364" y="-174.8275" font-family="Helvetica,sans-Serif" font-size="10.00" fill="#000000">46</text>
</a>
</g>
</g>
<!-- dir_63946bee875c6d52bce55e72a67a86ad&#45;&gt;dir_72c2f11201cd7636dc7624de0754daa5 -->
<g id="edge5" class="edge">
<title>dir_63946bee875c6d52bce55e72a67a86ad&#45;&gt;dir_72c2f11201cd7636dc7624de0754daa5</title>
<path fill="none" stroke="#000000" d="M452.5233,-431.5417C438.2396,-400.9594 407.8966,-338.1773 377,-288 371.27,-278.6943 364.4561,-268.9005 358.1392,-260.2471"/>
<polygon fill="#000000" stroke="#000000" points="360.8155,-257.9802 352.0466,-252.034 355.1935,-262.1507 360.8155,-257.9802"/>
<g id="a_edge5&#45;headlabel"><a xlink:href="dir_000005_000012.html" target="_top" xlink:title="4">
<text text-anchor="middle" x="365.2374" y="-256.6755" font-family="Helvetica,sans-Serif" font-size="10.00" fill="#000000">4</text>
</a>
</g>
</g>
<!-- dir_194ecda214f05a38134392ac6a69b970&#45;&gt;dir_dc867ff9a37cad1764f1670dc7eba6c1 -->
<g id="edge6" class="edge">
<title>dir_194ecda214f05a38134392ac6a69b970&#45;&gt;dir_dc867ff9a37cad1764f1670dc7eba6c1</title>
<path fill="none" stroke="#000000" d="M283,-287.7623C283,-263.201 283,-219.2474 283,-190.3541"/>
<polygon fill="#000000" stroke="#000000" points="286.5001,-190.0896 283,-180.0896 279.5001,-190.0897 286.5001,-190.0896"/>
<g id="a_edge6&#45;headlabel"><a xlink:href="dir_000002_000007.html" target="_top" xlink:title="7">
<text text-anchor="middle" x="289.3393" y="-191.1842" font-family="Helvetica,sans-Serif" font-size="10.00" fill="#000000">7</text>
</a>
</g>
</g>
<!-- dir_194ecda214f05a38134392ac6a69b970&#45;&gt;dir_72c2f11201cd7636dc7624de0754daa5 -->
<g id="edge7" class="edge">
<title>dir_194ecda214f05a38134392ac6a69b970&#45;&gt;dir_72c2f11201cd7636dc7624de0754daa5</title>
<path fill="none" stroke="#000000" d="M290.9264,-287.8314C296.5094,-279.454 304.0357,-269.3531 311.4838,-260.1749"/>
<polygon fill="#000000" stroke="#000000" points="314.2404,-262.3344 317.9583,-252.4133 308.865,-257.8504 314.2404,-262.3344"/>
<g id="a_edge7&#45;headlabel"><a xlink:href="dir_000002_000012.html" target="_top" xlink:title="7">
<text text-anchor="middle" x="314.1181" y="-264.4134" font-family="Helvetica,sans-Serif" font-size="10.00" fill="#000000">7</text>
</a>
</g>
</g>
<!-- dir_f97d855a3173728370e632aa77170e34&#45;&gt;dir_194ecda214f05a38134392ac6a69b970 -->
<g id="edge10" class="edge">
<title>dir_f97d855a3173728370e632aa77170e34&#45;&gt;dir_194ecda214f05a38134392ac6a69b970</title>
<path fill="none" stroke="#000000" d="M311.411,-359.8314C307.1683,-351.7925 302.0879,-342.1666 297.404,-333.2918"/>
<polygon fill="#000000" stroke="#000000" points="300.4811,-331.6235 292.7181,-324.4133 294.2904,-334.8908 300.4811,-331.6235"/>
<g id="a_edge10&#45;headlabel"><a xlink:href="dir_000036_000002.html" target="_top" xlink:title="2">
<text text-anchor="middle" x="304.6699" y="-330.9772" font-family="Helvetica,sans-Serif" font-size="10.00" fill="#000000">2</text>
</a>
</g>
</g>
<!-- dir_f97d855a3173728370e632aa77170e34&#45;&gt;dir_404558507ed35459f0d7a6d81d8c508d -->
<g id="edge11" class="edge">
<title>dir_f97d855a3173728370e632aa77170e34&#45;&gt;dir_404558507ed35459f0d7a6d81d8c508d</title>
<path fill="none" stroke="#000000" d="M348.1914,-370.8598C400.0554,-355.4152 508,-313.6974 508,-234 508,-234 508,-234 508,-162 508,-92.9216 425.2627,-50.1424 375.2284,-30.5879"/>
<polygon fill="#000000" stroke="#000000" points="376.2835,-27.2451 365.6918,-26.9857 373.8099,-33.7935 376.2835,-27.2451"/>
<g id="a_edge11&#45;headlabel"><a xlink:href="dir_000036_000008.html" target="_top" xlink:title="1">
<text text-anchor="middle" x="380.6494" y="-23.3591" font-family="Helvetica,sans-Serif" font-size="10.00" fill="#000000">1</text>
</a>
</g>
</g>
<!-- dir_f97d855a3173728370e632aa77170e34&#45;&gt;dir_72c2f11201cd7636dc7624de0754daa5 -->
<g id="edge12" class="edge">
<title>dir_f97d855a3173728370e632aa77170e34&#45;&gt;dir_72c2f11201cd7636dc7624de0754daa5</title>
<path fill="none" stroke="#000000" d="M323.1531,-359.7623C326.0527,-335.201 331.2416,-291.2474 334.6526,-262.3541"/>
<polygon fill="#000000" stroke="#000000" points="338.1678,-262.431 335.8644,-252.0896 331.2161,-261.6103 338.1678,-262.431"/>
<g id="a_edge12&#45;headlabel"><a xlink:href="dir_000036_000012.html" target="_top" xlink:title="10">
<text text-anchor="middle" x="340.5661" y="-263.8337" font-family="Helvetica,sans-Serif" font-size="10.00" fill="#000000">10</text>
</a>
</g>
</g>
<!-- dir_6cd4295f6ad5aa17e5b568d0e5b190e5&#45;&gt;dir_404558507ed35459f0d7a6d81d8c508d -->
<g id="edge13" class="edge">
<title>dir_6cd4295f6ad5aa17e5b568d0e5b190e5&#45;&gt;dir_404558507ed35459f0d7a6d81d8c508d</title>
<path fill="none" stroke="#000000" d="M296.8788,-71.8314C303.2136,-63.5386 310.8384,-53.557 317.7926,-44.4533"/>
<polygon fill="#000000" stroke="#000000" points="320.6452,-46.4847 323.9343,-36.4133 315.0825,-42.2353 320.6452,-46.4847"/>
<g id="a_edge13&#45;headlabel"><a xlink:href="dir_000020_000008.html" target="_top" xlink:title="21">
<text text-anchor="middle" x="320.7195" y="-48.5647" font-family="Helvetica,sans-Serif" font-size="10.00" fill="#000000">21</text>
</a>
</g>
</g>
<!-- dir_4378f18824ae7d4ad48f8d7785cd7ac8&#45;&gt;dir_6cd4295f6ad5aa17e5b568d0e5b190e5 -->
<g id="edge14" class="edge">
<title>dir_4378f18824ae7d4ad48f8d7785cd7ac8&#45;&gt;dir_6cd4295f6ad5aa17e5b568d0e5b190e5</title>
<path fill="none" stroke="#000000" d="M79.8129,-287.8131C84.0494,-254.7664 97.5299,-184.5428 138,-144 167.1115,-114.8362 213.3981,-101.234 245.8241,-95.0155"/>
<polygon fill="#000000" stroke="#000000" points="246.5886,-98.4346 255.8257,-93.2455 245.3687,-91.5417 246.5886,-98.4346"/>
<g id="a_edge14&#45;headlabel"><a xlink:href="dir_000004_000020.html" target="_top" xlink:title="18">
<text text-anchor="middle" x="243.5437" y="-99.3568" font-family="Helvetica,sans-Serif" font-size="10.00" fill="#000000">18</text>
</a>
</g>
</g>
<!-- dir_4378f18824ae7d4ad48f8d7785cd7ac8&#45;&gt;dir_404558507ed35459f0d7a6d81d8c508d -->
<g id="edge15" class="edge">
<title>dir_4378f18824ae7d4ad48f8d7785cd7ac8&#45;&gt;dir_404558507ed35459f0d7a6d81d8c508d</title>
<path fill="none" stroke="#000000" d="M76.0895,-287.7556C73.6985,-254.9275 73.5598,-185.4696 109,-144 161.0983,-83.0383 250.393,-46.1991 300.7041,-29.2283"/>
<polygon fill="#000000" stroke="#000000" points="301.8178,-32.5466 310.224,-26.0978 299.631,-25.8969 301.8178,-32.5466"/>
<g id="a_edge15&#45;headlabel"><a xlink:href="dir_000004_000008.html" target="_top" xlink:title="70">
<text text-anchor="middle" x="299.29" y="-33.8666" font-family="Helvetica,sans-Serif" font-size="10.00" fill="#000000">70</text>
</a>
</g>
</g>
<!-- dir_4378f18824ae7d4ad48f8d7785cd7ac8&#45;&gt;dir_dc867ff9a37cad1764f1670dc7eba6c1 -->
<g id="edge16" class="edge">
<title>dir_4378f18824ae7d4ad48f8d7785cd7ac8&#45;&gt;dir_dc867ff9a37cad1764f1670dc7eba6c1</title>
<path fill="none" stroke="#000000" d="M94.8013,-287.8337C113.3866,-268.4258 144.8429,-237.5509 176,-216 198.1121,-200.7054 225.1614,-187.0934 246.5309,-177.3619"/>
<polygon fill="#000000" stroke="#000000" points="248.2086,-180.4459 255.9115,-173.1716 245.3535,-174.0546 248.2086,-180.4459"/>
<g id="a_edge16&#45;headlabel"><a xlink:href="dir_000004_000007.html" target="_top" xlink:title="11">
<text text-anchor="middle" x="246.0845" y="-182.0043" font-family="Helvetica,sans-Serif" font-size="10.00" fill="#000000">11</text>
</a>
</g>
</g>
<!-- dir_4378f18824ae7d4ad48f8d7785cd7ac8&#45;&gt;dir_72c2f11201cd7636dc7624de0754daa5 -->
<g id="edge17" class="edge">
<title>dir_4378f18824ae7d4ad48f8d7785cd7ac8&#45;&gt;dir_72c2f11201cd7636dc7624de0754daa5</title>
<path fill="none" stroke="#000000" d="M123.5861,-293.3762C174.06,-279.3988 254.4445,-257.1384 301.1204,-244.2128"/>
<polygon fill="#000000" stroke="#000000" points="302.1222,-247.5672 310.8254,-241.5253 300.254,-240.8211 302.1222,-247.5672"/>
<g id="a_edge17&#45;headlabel"><a xlink:href="dir_000004_000012.html" target="_top" xlink:title="13">
<text text-anchor="middle" x="299.4157" y="-248.7627" font-family="Helvetica,sans-Serif" font-size="10.00" fill="#000000">13</text>
</a>
</g>
</g>
<!-- dir_dc867ff9a37cad1764f1670dc7eba6c1&#45;&gt;dir_039190d3b4246b6bdd648b90e06580e6 -->
<g id="edge21" class="edge">
<title>dir_dc867ff9a37cad1764f1670dc7eba6c1&#45;&gt;dir_039190d3b4246b6bdd648b90e06580e6</title>
<path fill="none" stroke="#000000" d="M270.3975,-180.3171C263.8699,-190.4684 256.1996,-203.5276 251,-216 221.2384,-287.3896 202.721,-377.2159 194.6774,-421.9705"/>
<polygon fill="#000000" stroke="#000000" points="191.2281,-421.3777 192.9445,-431.8325 198.1224,-422.5892 191.2281,-421.3777"/>
<g id="a_edge21&#45;headlabel"><a xlink:href="dir_000007_000011.html" target="_top" xlink:title="1">
<text text-anchor="middle" x="189.0537" y="-414.8459" font-family="Helvetica,sans-Serif" font-size="10.00" fill="#000000">1</text>
</a>
</g>
</g>
<!-- dir_dc867ff9a37cad1764f1670dc7eba6c1&#45;&gt;dir_63946bee875c6d52bce55e72a67a86ad -->
<g id="edge18" class="edge">
<title>dir_dc867ff9a37cad1764f1670dc7eba6c1&#45;&gt;dir_63946bee875c6d52bce55e72a67a86ad</title>
<path fill="none" stroke="#000000" d="M310.3566,-169.8186C332.8058,-178.4309 363.4702,-194.0329 383,-216 436.9676,-276.7027 458.5441,-373.9284 462.7018,-421.6749"/>
<polygon fill="#000000" stroke="#000000" points="459.2244,-422.1383 463.3634,-431.8912 466.2097,-421.6859 459.2244,-422.1383"/>
<g id="a_edge18&#45;headlabel"><a xlink:href="dir_000007_000005.html" target="_top" xlink:title="2">
<text text-anchor="middle" x="456.1588" y="-416.2347" font-family="Helvetica,sans-Serif" font-size="10.00" fill="#000000">2</text>
</a>
</g>
</g>
<!-- dir_dc867ff9a37cad1764f1670dc7eba6c1&#45;&gt;dir_6cd4295f6ad5aa17e5b568d0e5b190e5 -->
<g id="edge19" class="edge">
<title>dir_dc867ff9a37cad1764f1670dc7eba6c1&#45;&gt;dir_6cd4295f6ad5aa17e5b568d0e5b190e5</title>
<path fill="none" stroke="#000000" d="M283,-143.8314C283,-136.131 283,-126.9743 283,-118.4166"/>
<polygon fill="#000000" stroke="#000000" points="286.5001,-118.4132 283,-108.4133 279.5001,-118.4133 286.5001,-118.4132"/>
<g id="a_edge19&#45;headlabel"><a xlink:href="dir_000007_000020.html" target="_top" xlink:title="10">
<text text-anchor="middle" x="289.3393" y="-119.5079" font-family="Helvetica,sans-Serif" font-size="10.00" fill="#000000">10</text>
</a>
</g>
</g>
<!-- dir_dc867ff9a37cad1764f1670dc7eba6c1&#45;&gt;dir_404558507ed35459f0d7a6d81d8c508d -->
<g id="edge20" class="edge">
<title>dir_dc867ff9a37cad1764f1670dc7eba6c1&#45;&gt;dir_404558507ed35459f0d7a6d81d8c508d</title>
<path fill="none" stroke="#000000" d="M297.8853,-143.5185C305.2462,-133.5296 313.672,-120.6716 319,-108 327.3306,-88.1876 332.1533,-64.3321 334.8541,-46.1605"/>
<polygon fill="#000000" stroke="#000000" points="338.3302,-46.5721 336.2095,-36.1917 331.3941,-45.6289 338.3302,-46.5721"/>
<g id="a_edge20&#45;headlabel"><a xlink:href="dir_000007_000008.html" target="_top" xlink:title="24">
<text text-anchor="middle" x="340.6594" y="-48.0164" font-family="Helvetica,sans-Serif" font-size="10.00" fill="#000000">24</text>
</a>
</g>
</g>
<!-- dir_72c2f11201cd7636dc7624de0754daa5&#45;&gt;dir_194ecda214f05a38134392ac6a69b970 -->
<g id="edge22" class="edge">
<title>dir_72c2f11201cd7636dc7624de0754daa5&#45;&gt;dir_194ecda214f05a38134392ac6a69b970</title>
<path fill="none" stroke="#000000" d="M329.9103,-252.4133C324.2898,-260.8239 316.7456,-270.9323 309.2991,-280.0923"/>
<polygon fill="#000000" stroke="#000000" points="306.5584,-277.9138 302.8312,-287.8314 311.9296,-282.4027 306.5584,-277.9138"/>
<g id="a_edge22&#45;headlabel"><a xlink:href="dir_000012_000002.html" target="_top" xlink:title="1">
<text text-anchor="middle" x="306.6849" y="-270.8348" font-family="Helvetica,sans-Serif" font-size="10.00" fill="#000000">1</text>
</a>
</g>
</g>
<!-- dir_72c2f11201cd7636dc7624de0754daa5&#45;&gt;dir_6cd4295f6ad5aa17e5b568d0e5b190e5 -->
<g id="edge23" class="edge">
<title>dir_72c2f11201cd7636dc7624de0754daa5&#45;&gt;dir_6cd4295f6ad5aa17e5b568d0e5b190e5</title>
<path fill="none" stroke="#000000" d="M336.2095,-215.8083C333.9112,-197.1875 328.9655,-167.7008 319,-144 315.0456,-134.5953 309.3848,-125.0879 303.7195,-116.727"/>
<polygon fill="#000000" stroke="#000000" points="306.5184,-114.6231 297.8853,-108.4815 300.8041,-118.6664 306.5184,-114.6231"/>
<g id="a_edge23&#45;headlabel"><a xlink:href="dir_000012_000020.html" target="_top" xlink:title="6">
<text text-anchor="middle" x="310.9124" y="-113.4175" font-family="Helvetica,sans-Serif" font-size="10.00" fill="#000000">6</text>
</a>
</g>
</g>
<!-- dir_72c2f11201cd7636dc7624de0754daa5&#45;&gt;dir_404558507ed35459f0d7a6d81d8c508d -->
<g id="edge24" class="edge">
<title>dir_72c2f11201cd7636dc7624de0754daa5&#45;&gt;dir_404558507ed35459f0d7a6d81d8c508d</title>
<path fill="none" stroke="#000000" d="M338,-215.9555C338,-178.3938 338,-91.5541 338,-46.4103"/>
<polygon fill="#000000" stroke="#000000" points="341.5001,-46.145 338,-36.1451 334.5001,-46.1451 341.5001,-46.145"/>
<g id="a_edge24&#45;headlabel"><a xlink:href="dir_000012_000008.html" target="_top" xlink:title="15">
<text text-anchor="middle" x="344.3393" y="-47.2397" font-family="Helvetica,sans-Serif" font-size="10.00" fill="#000000">15</text>
</a>
</g>
</g>
<!-- dir_72c2f11201cd7636dc7624de0754daa5&#45;&gt;dir_dc867ff9a37cad1764f1670dc7eba6c1 -->
<g id="edge25" class="edge">
<title>dir_72c2f11201cd7636dc7624de0754daa5&#45;&gt;dir_dc867ff9a37cad1764f1670dc7eba6c1</title>
<path fill="none" stroke="#000000" d="M324.1212,-215.8314C317.7864,-207.5386 310.1616,-197.557 303.2074,-188.4533"/>
<polygon fill="#000000" stroke="#000000" points="305.9175,-186.2353 297.0657,-180.4133 300.3548,-190.4847 305.9175,-186.2353"/>
<g id="a_edge25&#45;headlabel"><a xlink:href="dir_000012_000007.html" target="_top" xlink:title="16">
<text text-anchor="middle" x="310.3558" y="-184.8683" font-family="Helvetica,sans-Serif" font-size="10.00" fill="#000000">16</text>
</a>
</g>
</g>
</g>
</svg>
