<?xml version="1.0" encoding="UTF-8" standalone="no"?>
<!DOCTYPE svg PUBLIC "-//W3C//DTD SVG 1.1//EN"
 "http://www.w3.org/Graphics/SVG/1.1/DTD/svg11.dtd">
<!-- Generated by graphviz version 2.40.1 (20161225.0304)
 -->
<!-- Title: include/tvm/relay Pages: 1 -->
<svg width="400pt" height="519pt"
 viewBox="0.00 0.00 400.38 519.00" xmlns="http://www.w3.org/2000/svg" xmlns:xlink="http://www.w3.org/1999/xlink">
<g id="graph0" class="graph" transform="scale(1 1) rotate(0) translate(4 515)">
<title>include/tvm/relay</title>
<polygon fill="#ffffff" stroke="transparent" points="-4,4 -4,-515 396.3811,-515 396.3811,4 -4,4"/>
<g id="clust1" class="cluster">
<title>clusterdir_b4c7d8e826c599ba55146c099a14beb5</title>
<g id="a_clust1"><a xlink:href="dir_b4c7d8e826c599ba55146c099a14beb5.html" target="_top" xlink:title="tvm">
<polygon fill="#ddddee" stroke="#000000" points="96.6481,-344 96.6481,-503 254.6481,-503 254.6481,-344 96.6481,-344"/>
<text text-anchor="middle" x="175.6481" y="-491" font-family="Helvetica,sans-Serif" font-size="10.00" fill="#000000">tvm</text>
</a>
</g>
</g>
<g id="clust2" class="cluster">
<title>clusterdir_63946bee875c6d52bce55e72a67a86ad</title>
<g id="a_clust2"><a xlink:href="dir_63946bee875c6d52bce55e72a67a86ad.html" target="_top">
<polygon fill="#eeeeff" stroke="#000000" points="104.6481,-352 104.6481,-476 246.6481,-476 246.6481,-352 104.6481,-352"/>
</a>
</g>
</g>
<!-- dir_63946bee875c6d52bce55e72a67a86ad -->
<g id="node1" class="node">
<title>dir_63946bee875c6d52bce55e72a67a86ad</title>
<text text-anchor="middle" x="211.6481" y="-447.5" font-family="Helvetica,sans-Serif" font-size="10.00" fill="#000000">relay</text>
</g>
<!-- dir_519be2d4a83a987dbf989f1de527b870 -->
<g id="node2" class="node">
<title>dir_519be2d4a83a987dbf989f1de527b870</title>
<g id="a_node2"><a xlink:href="dir_519be2d4a83a987dbf989f1de527b870.html" target="_top" xlink:title="attrs">
<polygon fill="#ffffff" stroke="#000000" points="238.6481,-396 184.6481,-396 184.6481,-360 238.6481,-360 238.6481,-396"/>
<text text-anchor="middle" x="211.6481" y="-375.5" font-family="Helvetica,sans-Serif" font-size="10.00" fill="#000000">attrs</text>
</a>
</g>
</g>
<!-- dir_63946bee875c6d52bce55e72a67a86ad&#45;&gt;dir_519be2d4a83a987dbf989f1de527b870 -->
<g id="edge1" class="edge">
<title>dir_63946bee875c6d52bce55e72a67a86ad&#45;&gt;dir_519be2d4a83a987dbf989f1de527b870</title>
<path fill="none" stroke="#000000" d="M211.6481,-431.8314C211.6481,-424.131 211.6481,-414.9743 211.6481,-406.4166"/>
<polygon fill="#000000" stroke="#000000" points="215.1482,-406.4132 211.6481,-396.4133 208.1482,-406.4133 215.1482,-406.4132"/>
<g id="a_edge1&#45;headlabel"><a xlink:href="dir_000005_000014.html" target="_top" xlink:title="1">
<text text-anchor="middle" x="217.9874" y="-407.5079" font-family="Helvetica,sans-Serif" font-size="10.00" fill="#000000">1</text>
</a>
</g>
</g>
<!-- dir_f97d855a3173728370e632aa77170e34 -->
<g id="node4" class="node">
<title>dir_f97d855a3173728370e632aa77170e34</title>
<g id="a_node4"><a xlink:href="dir_f97d855a3173728370e632aa77170e34.html" target="_top" xlink:title="te">
<polygon fill="none" stroke="#000000" points="83.6481,-396 29.6481,-396 29.6481,-360 83.6481,-360 83.6481,-396"/>
<text text-anchor="middle" x="56.6481" y="-375.5" font-family="Helvetica,sans-Serif" font-size="10.00" fill="#000000">te</text>
</a>
</g>
</g>
<!-- dir_63946bee875c6d52bce55e72a67a86ad&#45;&gt;dir_f97d855a3173728370e632aa77170e34 -->
<g id="edge2" class="edge">
<title>dir_63946bee875c6d52bce55e72a67a86ad&#45;&gt;dir_f97d855a3173728370e632aa77170e34</title>
<path fill="none" stroke="#000000" d="M184.5749,-436.3268C181.5708,-434.8504 178.5497,-433.3831 175.6481,-432 148.1087,-418.8724 116.6664,-404.6364 93.0203,-394.0786"/>
<polygon fill="#000000" stroke="#000000" points="94.2801,-390.8083 83.7212,-389.9368 91.432,-397.2027 94.2801,-390.8083"/>
<g id="a_edge2&#45;headlabel"><a xlink:href="dir_000005_000036.html" target="_top" xlink:title="4">
<text text-anchor="middle" x="98.7189" y="-387.1772" font-family="Helvetica,sans-Serif" font-size="10.00" fill="#000000">4</text>
</a>
</g>
</g>
<!-- dir_6cd4295f6ad5aa17e5b568d0e5b190e5 -->
<g id="node6" class="node">
<title>dir_6cd4295f6ad5aa17e5b568d0e5b190e5</title>
<g id="a_node6"><a xlink:href="dir_6cd4295f6ad5aa17e5b568d0e5b190e5.html" target="_top" xlink:title="node">
<polygon fill="none" stroke="#000000" points="205.6481,-108 151.6481,-108 151.6481,-72 205.6481,-72 205.6481,-108"/>
<text text-anchor="middle" x="178.6481" y="-87.5" font-family="Helvetica,sans-Serif" font-size="10.00" fill="#000000">node</text>
</a>
</g>
</g>
<!-- dir_63946bee875c6d52bce55e72a67a86ad&#45;&gt;dir_6cd4295f6ad5aa17e5b568d0e5b190e5 -->
<g id="edge3" class="edge">
<title>dir_63946bee875c6d52bce55e72a67a86ad&#45;&gt;dir_6cd4295f6ad5aa17e5b568d0e5b190e5</title>
<path fill="none" stroke="#000000" d="M193.9196,-431.8638C172.8918,-408.9551 139.0083,-367.2733 125.6481,-324 102.9239,-250.3971 140.6885,-161.0228 163.4079,-117.0721"/>
<polygon fill="#000000" stroke="#000000" points="166.5435,-118.6298 168.1362,-108.1553 160.3592,-115.3504 166.5435,-118.6298"/>
<g id="a_edge3&#45;headlabel"><a xlink:href="dir_000005_000020.html" target="_top" xlink:title="5">
<text text-anchor="middle" x="167.368" y="-120.6356" font-family="Helvetica,sans-Serif" font-size="10.00" fill="#000000">5</text>
</a>
</g>
</g>
<!-- dir_5da96592f3a7c442b838b075c58254c2 -->
<g id="node5" class="node">
<title>dir_5da96592f3a7c442b838b075c58254c2</title>
<g id="a_node5"><a xlink:href="dir_5da96592f3a7c442b838b075c58254c2.html" target="_top" xlink:title="target">
<polygon fill="none" stroke="#000000" points="243.6481,-252 189.6481,-252 189.6481,-216 243.6481,-216 243.6481,-252"/>
<text text-anchor="middle" x="216.6481" y="-231.5" font-family="Helvetica,sans-Serif" font-size="10.00" fill="#000000">target</text>
</a>
</g>
</g>
<!-- dir_519be2d4a83a987dbf989f1de527b870&#45;&gt;dir_5da96592f3a7c442b838b075c58254c2 -->
<g id="edge4" class="edge">
<title>dir_519be2d4a83a987dbf989f1de527b870&#45;&gt;dir_5da96592f3a7c442b838b075c58254c2</title>
<path fill="none" stroke="#000000" d="M212.2814,-359.7623C213.1342,-335.201 214.6603,-291.2474 215.6636,-262.3541"/>
<polygon fill="#000000" stroke="#000000" points="219.1708,-262.2051 216.02,-252.0896 212.175,-261.9621 219.1708,-262.2051"/>
<g id="a_edge4&#45;headlabel"><a xlink:href="dir_000014_000035.html" target="_top" xlink:title="3">
<text text-anchor="middle" x="221.8837" y="-263.396" font-family="Helvetica,sans-Serif" font-size="10.00" fill="#000000">3</text>
</a>
</g>
</g>
<!-- dir_dc867ff9a37cad1764f1670dc7eba6c1 -->
<g id="node8" class="node">
<title>dir_dc867ff9a37cad1764f1670dc7eba6c1</title>
<g id="a_node8"><a xlink:href="dir_dc867ff9a37cad1764f1670dc7eba6c1.html" target="_top" xlink:title="ir">
<polygon fill="none" stroke="#000000" points="319.6481,-180 265.6481,-180 265.6481,-144 319.6481,-144 319.6481,-180"/>
<text text-anchor="middle" x="292.6481" y="-159.5" font-family="Helvetica,sans-Serif" font-size="10.00" fill="#000000">ir</text>
</a>
</g>
</g>
<!-- dir_519be2d4a83a987dbf989f1de527b870&#45;&gt;dir_dc867ff9a37cad1764f1670dc7eba6c1 -->
<g id="edge5" class="edge">
<title>dir_519be2d4a83a987dbf989f1de527b870&#45;&gt;dir_dc867ff9a37cad1764f1670dc7eba6c1</title>
<path fill="none" stroke="#000000" d="M223.1597,-359.9869C237.8301,-336.2001 262.9278,-292.5716 276.6481,-252 283.4162,-231.9865 287.4719,-208.45 289.806,-190.4666"/>
<polygon fill="#000000" stroke="#000000" points="293.3061,-190.6735 291.0173,-180.3289 286.3556,-189.843 293.3061,-190.6735"/>
<g id="a_edge5&#45;headlabel"><a xlink:href="dir_000014_000007.html" target="_top" xlink:title="16">
<text text-anchor="middle" x="295.699" y="-192.0796" font-family="Helvetica,sans-Serif" font-size="10.00" fill="#000000">16</text>
</a>
</g>
</g>
<!-- dir_72c2f11201cd7636dc7624de0754daa5 -->
<g id="node9" class="node">
<title>dir_72c2f11201cd7636dc7624de0754daa5</title>
<g id="a_node9"><a xlink:href="dir_72c2f11201cd7636dc7624de0754daa5.html" target="_top" xlink:title="tir">
<polygon fill="#ffffff" stroke="#ff0000" points="188.6481,-324 134.6481,-324 134.6481,-288 188.6481,-288 188.6481,-324"/>
<text text-anchor="middle" x="161.6481" y="-303.5" font-family="Helvetica,sans-Serif" font-size="10.00" fill="#000000">tir</text>
</a>
</g>
</g>
<!-- dir_519be2d4a83a987dbf989f1de527b870&#45;&gt;dir_72c2f11201cd7636dc7624de0754daa5 -->
<g id="edge6" class="edge">
<title>dir_519be2d4a83a987dbf989f1de527b870&#45;&gt;dir_72c2f11201cd7636dc7624de0754daa5</title>
<path fill="none" stroke="#000000" d="M199.031,-359.8314C193.3309,-351.6232 186.4818,-341.7606 180.2122,-332.7323"/>
<polygon fill="#000000" stroke="#000000" points="183.0139,-330.6306 174.4351,-324.4133 177.2643,-334.6234 183.0139,-330.6306"/>
<g id="a_edge6&#45;headlabel"><a xlink:href="dir_000014_000012.html" target="_top" xlink:title="1">
<text text-anchor="middle" x="187.3963" y="-329.4636" font-family="Helvetica,sans-Serif" font-size="10.00" fill="#000000">1</text>
</a>
</g>
</g>
<!-- dir_d523279167051dc3aad9a40981221f4d -->
<g id="node3" class="node">
<title>dir_d523279167051dc3aad9a40981221f4d</title>
<g id="a_node3"><a xlink:href="dir_d523279167051dc3aad9a40981221f4d.html" target="_top" xlink:title="qnn">
<polygon fill="#ffffff" stroke="#000000" points="166.6481,-468 112.6481,-468 112.6481,-432 166.6481,-432 166.6481,-468"/>
<text text-anchor="middle" x="139.6481" y="-447.5" font-family="Helvetica,sans-Serif" font-size="10.00" fill="#000000">qnn</text>
</a>
</g>
</g>
<!-- dir_404558507ed35459f0d7a6d81d8c508d -->
<g id="node7" class="node">
<title>dir_404558507ed35459f0d7a6d81d8c508d</title>
<g id="a_node7"><a xlink:href="dir_404558507ed35459f0d7a6d81d8c508d.html" target="_top" xlink:title="runtime">
<polygon fill="#ffffff" stroke="#ff0000" points="178.1481,-36 123.1481,-36 123.1481,0 178.1481,0 178.1481,-36"/>
<text text-anchor="middle" x="150.6481" y="-15.5" font-family="Helvetica,sans-Serif" font-size="10.00" fill="#000000">runtime</text>
</a>
</g>
</g>
<!-- dir_d523279167051dc3aad9a40981221f4d&#45;&gt;dir_404558507ed35459f0d7a6d81d8c508d -->
<g id="edge22" class="edge">
<title>dir_d523279167051dc3aad9a40981221f4d&#45;&gt;dir_404558507ed35459f0d7a6d81d8c508d</title>
<path fill="none" stroke="#000000" d="M112.6039,-445.0975C85.1984,-438.6722 43.6562,-424.6608 20.6481,-396 -4.9443,-364.12 1.6481,-346.8816 1.6481,-306 1.6481,-306 1.6481,-306 1.6481,-162 1.6481,-99.699 69.8364,-55.79 113.9555,-33.9003"/>
<polygon fill="#000000" stroke="#000000" points="115.4761,-37.0528 122.9715,-29.5648 112.4425,-30.7443 115.4761,-37.0528"/>
<g id="a_edge22&#45;headlabel"><a xlink:href="dir_000010_000008.html" target="_top" xlink:title="1">
<text text-anchor="middle" x="113.467" y="-38.6693" font-family="Helvetica,sans-Serif" font-size="10.00" fill="#000000">1</text>
</a>
</g>
</g>
<!-- dir_d523279167051dc3aad9a40981221f4d&#45;&gt;dir_dc867ff9a37cad1764f1670dc7eba6c1 -->
<g id="edge23" class="edge">
<title>dir_d523279167051dc3aad9a40981221f4d&#45;&gt;dir_dc867ff9a37cad1764f1670dc7eba6c1</title>
<path fill="none" stroke="#000000" d="M166.8862,-436.3908C198.865,-420.4115 247.6021,-396.0533 247.6481,-396 298.4925,-337.0037 298.8916,-238.2295 295.543,-190.0882"/>
<polygon fill="#000000" stroke="#000000" points="299.0281,-189.7613 294.7391,-180.0734 292.0506,-190.3214 299.0281,-189.7613"/>
<g id="a_edge23&#45;headlabel"><a xlink:href="dir_000010_000007.html" target="_top" xlink:title="1">
<text text-anchor="middle" x="302.1458" y="-190.6172" font-family="Helvetica,sans-Serif" font-size="10.00" fill="#000000">1</text>
</a>
</g>
</g>
<!-- dir_f97d855a3173728370e632aa77170e34&#45;&gt;dir_404558507ed35459f0d7a6d81d8c508d -->
<g id="edge7" class="edge">
<title>dir_f97d855a3173728370e632aa77170e34&#45;&gt;dir_404558507ed35459f0d7a6d81d8c508d</title>
<path fill="none" stroke="#000000" d="M54.7833,-359.8374C52.1471,-332.55 47.6481,-279.3383 47.6481,-234 47.6481,-234 47.6481,-234 47.6481,-162 47.6481,-112.7637 87.9759,-68.7636 118.1632,-42.7245"/>
<polygon fill="#000000" stroke="#000000" points="120.5559,-45.286 125.977,-36.1831 116.0625,-39.9185 120.5559,-45.286"/>
<g id="a_edge7&#45;headlabel"><a xlink:href="dir_000036_000008.html" target="_top" xlink:title="1">
<text text-anchor="middle" x="119.6222" y="-47.2705" font-family="Helvetica,sans-Serif" font-size="10.00" fill="#000000">1</text>
</a>
</g>
</g>
<!-- dir_f97d855a3173728370e632aa77170e34&#45;&gt;dir_72c2f11201cd7636dc7624de0754daa5 -->
<g id="edge8" class="edge">
<title>dir_f97d855a3173728370e632aa77170e34&#45;&gt;dir_72c2f11201cd7636dc7624de0754daa5</title>
<path fill="none" stroke="#000000" d="M79.1585,-359.9081C85.9582,-354.6342 93.5143,-348.9595 100.6481,-344 108.7077,-338.3968 117.5746,-332.6488 125.9914,-327.374"/>
<polygon fill="#000000" stroke="#000000" points="127.8888,-330.3158 134.547,-322.0744 124.2027,-324.365 127.8888,-330.3158"/>
<g id="a_edge8&#45;headlabel"><a xlink:href="dir_000036_000012.html" target="_top" xlink:title="10">
<text text-anchor="middle" x="126.3281" y="-332.1224" font-family="Helvetica,sans-Serif" font-size="10.00" fill="#000000">10</text>
</a>
</g>
</g>
<!-- dir_5da96592f3a7c442b838b075c58254c2&#45;&gt;dir_6cd4295f6ad5aa17e5b568d0e5b190e5 -->
<g id="edge9" class="edge">
<title>dir_5da96592f3a7c442b838b075c58254c2&#45;&gt;dir_6cd4295f6ad5aa17e5b568d0e5b190e5</title>
<path fill="none" stroke="#000000" d="M211.8354,-215.7623C205.3254,-191.0928 193.6528,-146.8598 186.0299,-117.9731"/>
<polygon fill="#000000" stroke="#000000" points="189.3575,-116.8656 183.4218,-108.0896 182.5892,-118.6517 189.3575,-116.8656"/>
<g id="a_edge9&#45;headlabel"><a xlink:href="dir_000035_000020.html" target="_top" xlink:title="5">
<text text-anchor="middle" x="193.0199" y="-117.1168" font-family="Helvetica,sans-Serif" font-size="10.00" fill="#000000">5</text>
</a>
</g>
</g>
<!-- dir_5da96592f3a7c442b838b075c58254c2&#45;&gt;dir_404558507ed35459f0d7a6d81d8c508d -->
<g id="edge10" class="edge">
<title>dir_5da96592f3a7c442b838b075c58254c2&#45;&gt;dir_404558507ed35459f0d7a6d81d8c508d</title>
<path fill="none" stroke="#000000" d="M221.0788,-215.9031C227.7213,-184.7702 237.2261,-119.8166 214.6481,-72 208.564,-59.1149 197.7569,-48.1805 186.7353,-39.592"/>
<polygon fill="#000000" stroke="#000000" points="188.4863,-36.5378 178.3399,-33.4881 184.3699,-42.1996 188.4863,-36.5378"/>
<g id="a_edge10&#45;headlabel"><a xlink:href="dir_000035_000008.html" target="_top" xlink:title="2">
<text text-anchor="middle" x="193.0633" y="-33.8551" font-family="Helvetica,sans-Serif" font-size="10.00" fill="#000000">2</text>
</a>
</g>
</g>
<!-- dir_5da96592f3a7c442b838b075c58254c2&#45;&gt;dir_dc867ff9a37cad1764f1670dc7eba6c1 -->
<g id="edge11" class="edge">
<title>dir_5da96592f3a7c442b838b075c58254c2&#45;&gt;dir_dc867ff9a37cad1764f1670dc7eba6c1</title>
<path fill="none" stroke="#000000" d="M229.8737,-215.8314C238.2886,-207.0485 249.392,-196.3712 259.9652,-186.8489"/>
<polygon fill="#000000" stroke="#000000" points="262.3528,-189.4097 267.5244,-180.1628 257.7151,-184.1664 262.3528,-189.4097"/>
<g id="a_edge11&#45;headlabel"><a xlink:href="dir_000035_000007.html" target="_top" xlink:title="6">
<text text-anchor="middle" x="261.5414" y="-191.4179" font-family="Helvetica,sans-Serif" font-size="10.00" fill="#000000">6</text>
</a>
</g>
</g>
<!-- dir_5da96592f3a7c442b838b075c58254c2&#45;&gt;dir_72c2f11201cd7636dc7624de0754daa5 -->
<g id="edge12" class="edge">
<title>dir_5da96592f3a7c442b838b075c58254c2&#45;&gt;dir_72c2f11201cd7636dc7624de0754daa5</title>
<path fill="none" stroke="#000000" d="M208.5584,-252.4133C202.9379,-260.8239 195.3937,-270.9323 187.9472,-280.0923"/>
<polygon fill="#000000" stroke="#000000" points="185.2065,-277.9138 181.4793,-287.8314 190.5777,-282.4027 185.2065,-277.9138"/>
<g id="a_edge12&#45;headlabel"><a xlink:href="dir_000035_000012.html" target="_top" xlink:title="1">
<text text-anchor="middle" x="185.333" y="-270.8348" font-family="Helvetica,sans-Serif" font-size="10.00" fill="#000000">1</text>
</a>
</g>
</g>
<!-- dir_6cd4295f6ad5aa17e5b568d0e5b190e5&#45;&gt;dir_404558507ed35459f0d7a6d81d8c508d -->
<g id="edge13" class="edge">
<title>dir_6cd4295f6ad5aa17e5b568d0e5b190e5&#45;&gt;dir_404558507ed35459f0d7a6d81d8c508d</title>
<path fill="none" stroke="#000000" d="M171.5825,-71.8314C168.5221,-63.9617 164.8702,-54.5712 161.4799,-45.8533"/>
<polygon fill="#000000" stroke="#000000" points="164.6954,-44.4647 157.8088,-36.4133 158.1713,-47.0019 164.6954,-44.4647"/>
<g id="a_edge13&#45;headlabel"><a xlink:href="dir_000020_000008.html" target="_top" xlink:title="21">
<text text-anchor="middle" x="168.6444" y="-44.2859" font-family="Helvetica,sans-Serif" font-size="10.00" fill="#000000">21</text>
</a>
</g>
</g>
<!-- dir_dc867ff9a37cad1764f1670dc7eba6c1&#45;&gt;dir_63946bee875c6d52bce55e72a67a86ad -->
<g id="edge14" class="edge">
<title>dir_dc867ff9a37cad1764f1670dc7eba6c1&#45;&gt;dir_63946bee875c6d52bce55e72a67a86ad</title>
<path fill="none" stroke="#000000" d="M319.6926,-175.2379C335.0565,-184.3657 352.92,-198.086 361.6481,-216 396.6883,-287.9179 407.6492,-330.5485 361.6481,-396 348.3617,-414.9042 288.5996,-432.1198 248.6375,-441.808"/>
<polygon fill="#000000" stroke="#000000" points="247.6192,-438.4523 238.6953,-444.1631 249.2328,-445.2638 247.6192,-438.4523"/>
<g id="a_edge14&#45;headlabel"><a xlink:href="dir_000007_000005.html" target="_top" xlink:title="2">
<text text-anchor="middle" x="250.4626" y="-432.361" font-family="Helvetica,sans-Serif" font-size="10.00" fill="#000000">2</text>
</a>
</g>
</g>
<!-- dir_dc867ff9a37cad1764f1670dc7eba6c1&#45;&gt;dir_5da96592f3a7c442b838b075c58254c2 -->
<g id="edge15" class="edge">
<title>dir_dc867ff9a37cad1764f1670dc7eba6c1&#45;&gt;dir_5da96592f3a7c442b838b075c58254c2</title>
<path fill="none" stroke="#000000" d="M279.1879,-180.4133C270.788,-189.1637 259.77,-199.7519 249.2792,-209.1978"/>
<polygon fill="#000000" stroke="#000000" points="246.9506,-206.5847 241.7785,-215.8314 251.588,-211.8283 246.9506,-206.5847"/>
<g id="a_edge15&#45;headlabel"><a xlink:href="dir_000007_000035.html" target="_top" xlink:title="1">
<text text-anchor="middle" x="247.7623" y="-199.5766" font-family="Helvetica,sans-Serif" font-size="10.00" fill="#000000">1</text>
</a>
</g>
</g>
<!-- dir_dc867ff9a37cad1764f1670dc7eba6c1&#45;&gt;dir_6cd4295f6ad5aa17e5b568d0e5b190e5 -->
<g id="edge16" class="edge">
<title>dir_dc867ff9a37cad1764f1670dc7eba6c1&#45;&gt;dir_6cd4295f6ad5aa17e5b568d0e5b190e5</title>
<path fill="none" stroke="#000000" d="M265.6317,-144.937C250.4097,-135.3231 231.1996,-123.1904 214.7064,-112.7737"/>
<polygon fill="#000000" stroke="#000000" points="216.1896,-109.5708 205.8657,-107.19 212.4516,-115.4892 216.1896,-109.5708"/>
<g id="a_edge16&#45;headlabel"><a xlink:href="dir_000007_000020.html" target="_top" xlink:title="10">
<text text-anchor="middle" x="220.7449" y="-106.5897" font-family="Helvetica,sans-Serif" font-size="10.00" fill="#000000">10</text>
</a>
</g>
</g>
<!-- dir_dc867ff9a37cad1764f1670dc7eba6c1&#45;&gt;dir_404558507ed35459f0d7a6d81d8c508d -->
<g id="edge17" class="edge">
<title>dir_dc867ff9a37cad1764f1670dc7eba6c1&#45;&gt;dir_404558507ed35459f0d7a6d81d8c508d</title>
<path fill="none" stroke="#000000" d="M288.1381,-143.7994C282.4629,-124.0749 271.0345,-92.6587 251.6481,-72 234.0673,-53.2655 208.5036,-39.686 187.4942,-30.8306"/>
<polygon fill="#000000" stroke="#000000" points="188.7904,-27.5794 178.2067,-27.0927 186.1768,-34.0732 188.7904,-27.5794"/>
<g id="a_edge17&#45;headlabel"><a xlink:href="dir_000007_000008.html" target="_top" xlink:title="24">
<text text-anchor="middle" x="193.1851" y="-23.7875" font-family="Helvetica,sans-Serif" font-size="10.00" fill="#000000">24</text>
</a>
</g>
</g>
<!-- dir_72c2f11201cd7636dc7624de0754daa5&#45;&gt;dir_5da96592f3a7c442b838b075c58254c2 -->
<g id="edge18" class="edge">
<title>dir_72c2f11201cd7636dc7624de0754daa5&#45;&gt;dir_5da96592f3a7c442b838b075c58254c2</title>
<path fill="none" stroke="#000000" d="M169.5745,-287.8314C175.1575,-279.454 182.6838,-269.3531 190.1319,-260.1749"/>
<polygon fill="#000000" stroke="#000000" points="192.8885,-262.3344 196.6064,-252.4133 187.5131,-257.8504 192.8885,-262.3344"/>
<g id="a_edge18&#45;headlabel"><a xlink:href="dir_000012_000035.html" target="_top" xlink:title="2">
<text text-anchor="middle" x="192.7663" y="-264.4134" font-family="Helvetica,sans-Serif" font-size="10.00" fill="#000000">2</text>
</a>
</g>
</g>
<!-- dir_72c2f11201cd7636dc7624de0754daa5&#45;&gt;dir_6cd4295f6ad5aa17e5b568d0e5b190e5 -->
<g id="edge19" class="edge">
<title>dir_72c2f11201cd7636dc7624de0754daa5&#45;&gt;dir_6cd4295f6ad5aa17e5b568d0e5b190e5</title>
<path fill="none" stroke="#000000" d="M163.0683,-287.9555C166.0308,-250.3144 172.888,-163.1867 176.4346,-118.1246"/>
<polygon fill="#000000" stroke="#000000" points="179.9245,-118.3889 177.22,-108.1451 172.9461,-117.8396 179.9245,-118.3889"/>
<g id="a_edge19&#45;headlabel"><a xlink:href="dir_000012_000020.html" target="_top" xlink:title="6">
<text text-anchor="middle" x="182.4731" y="-119.6952" font-family="Helvetica,sans-Serif" font-size="10.00" fill="#000000">6</text>
</a>
</g>
</g>
<!-- dir_72c2f11201cd7636dc7624de0754daa5&#45;&gt;dir_404558507ed35459f0d7a6d81d8c508d -->
<g id="edge20" class="edge">
<title>dir_72c2f11201cd7636dc7624de0754daa5&#45;&gt;dir_404558507ed35459f0d7a6d81d8c508d</title>
<path fill="none" stroke="#000000" d="M158.2511,-287.8025C151.3272,-248.4495 136.7187,-152.4841 142.6481,-72 143.265,-63.6264 144.413,-54.5812 145.6507,-46.3322"/>
<polygon fill="#000000" stroke="#000000" points="149.1129,-46.8463 147.2331,-36.4196 142.2004,-45.7428 149.1129,-46.8463"/>
<g id="a_edge20&#45;headlabel"><a xlink:href="dir_000012_000008.html" target="_top" xlink:title="15">
<text text-anchor="middle" x="151.3501" y="-48.3436" font-family="Helvetica,sans-Serif" font-size="10.00" fill="#000000">15</text>
</a>
</g>
</g>
<!-- dir_72c2f11201cd7636dc7624de0754daa5&#45;&gt;dir_dc867ff9a37cad1764f1670dc7eba6c1 -->
<g id="edge21" class="edge">
<title>dir_72c2f11201cd7636dc7624de0754daa5&#45;&gt;dir_dc867ff9a37cad1764f1670dc7eba6c1</title>
<path fill="none" stroke="#000000" d="M188.984,-295.2003C208.8444,-286.1818 235.1933,-271.6331 252.6481,-252 268.5378,-234.1273 279.0047,-208.9198 285.2312,-189.7269"/>
<polygon fill="#000000" stroke="#000000" points="288.6164,-190.625 288.1844,-180.039 281.9206,-188.5839 288.6164,-190.625"/>
<g id="a_edge21&#45;headlabel"><a xlink:href="dir_000012_000007.html" target="_top" xlink:title="16">
<text text-anchor="middle" x="290.2842" y="-192.3913" font-family="Helvetica,sans-Serif" font-size="10.00" fill="#000000">16</text>
</a>
</g>
</g>
</g>
</svg>
