<?xml version="1.0" encoding="UTF-8" standalone="no"?>
<!DOCTYPE svg PUBLIC "-//W3C//DTD SVG 1.1//EN"
 "http://www.w3.org/Graphics/SVG/1.1/DTD/svg11.dtd">
<!-- Generated by graphviz version 2.40.1 (20161225.0304)
 -->
<!-- Title: include/tvm/relax/attrs Pages: 1 -->
<svg width="94pt" height="151pt"
 viewBox="0.00 0.00 94.00 151.00" xmlns="http://www.w3.org/2000/svg" xmlns:xlink="http://www.w3.org/1999/xlink">
<g id="graph0" class="graph" transform="scale(1 1) rotate(0) translate(4 147)">
<title>include/tvm/relax/attrs</title>
<polygon fill="#ffffff" stroke="transparent" points="-4,4 -4,-147 90,-147 90,4 -4,4"/>
<g id="clust1" class="cluster">
<title>clusterdir_039190d3b4246b6bdd648b90e06580e6</title>
<g id="a_clust1"><a xlink:href="dir_039190d3b4246b6bdd648b90e06580e6.html" target="_top" xlink:title="relax">
<polygon fill="#ddddee" stroke="#000000" points="8,-64 8,-135 78,-135 78,-64 8,-64"/>
<text text-anchor="middle" x="43" y="-123" font-family="Helvetica,sans-Serif" font-size="10.00" fill="#000000">relax</text>
</a>
</g>
</g>
<!-- dir_5b0337bb1f2ae9da0485a728750cd2f3 -->
<g id="node1" class="node">
<title>dir_5b0337bb1f2ae9da0485a728750cd2f3</title>
<g id="a_node1"><a xlink:href="dir_5b0337bb1f2ae9da0485a728750cd2f3.html" target="_top" xlink:title="attrs">
<polygon fill="#eeeeff" stroke="#000000" points="70,-108 16,-108 16,-72 70,-72 70,-108"/>
<text text-anchor="middle" x="43" y="-87.5" font-family="Helvetica,sans-Serif" font-size="10.00" fill="#000000">attrs</text>
</a>
</g>
</g>
<!-- dir_dc867ff9a37cad1764f1670dc7eba6c1 -->
<g id="node2" class="node">
<title>dir_dc867ff9a37cad1764f1670dc7eba6c1</title>
<g id="a_node2"><a xlink:href="dir_dc867ff9a37cad1764f1670dc7eba6c1.html" target="_top" xlink:title="ir">
<polygon fill="none" stroke="#000000" points="70,-36 16,-36 16,0 70,0 70,-36"/>
<text text-anchor="middle" x="43" y="-15.5" font-family="Helvetica,sans-Serif" font-size="10.00" fill="#000000">ir</text>
</a>
</g>
</g>
<!-- dir_5b0337bb1f2ae9da0485a728750cd2f3&#45;&gt;dir_dc867ff9a37cad1764f1670dc7eba6c1 -->
<g id="edge1" class="edge">
<title>dir_5b0337bb1f2ae9da0485a728750cd2f3&#45;&gt;dir_dc867ff9a37cad1764f1670dc7eba6c1</title>
<path fill="none" stroke="#000000" d="M43,-71.8314C43,-64.131 43,-54.9743 43,-46.4166"/>
<polygon fill="#000000" stroke="#000000" points="46.5001,-46.4132 43,-36.4133 39.5001,-46.4133 46.5001,-46.4132"/>
<g id="a_edge1&#45;headlabel"><a xlink:href="dir_000023_000007.html" target="_top" xlink:title="2">
<text text-anchor="middle" x="49.3393" y="-47.5079" font-family="Helvetica,sans-Serif" font-size="10.00" fill="#000000">2</text>
</a>
</g>
</g>
</g>
</svg>
