<?xml version="1.0" encoding="UTF-8" standalone="no"?>
<!DOCTYPE svg PUBLIC "-//W3C//DTD SVG 1.1//EN"
 "http://www.w3.org/Graphics/SVG/1.1/DTD/svg11.dtd">
<!-- Generated by graphviz version 2.40.1 (20161225.0304)
 -->
<!-- Title: include/tvm/script/ir_builder Pages: 1 -->
<svg width="262pt" height="447pt"
 viewBox="0.00 0.00 262.00 447.00" xmlns="http://www.w3.org/2000/svg" xmlns:xlink="http://www.w3.org/1999/xlink">
<g id="graph0" class="graph" transform="scale(1 1) rotate(0) translate(4 443)">
<title>include/tvm/script/ir_builder</title>
<polygon fill="#ffffff" stroke="transparent" points="-4,4 -4,-443 258,-443 258,4 -4,4"/>
<g id="clust1" class="cluster">
<title>clusterdir_84875704194fd544d29fe0c7fedd8939</title>
<g id="a_clust1"><a xlink:href="dir_84875704194fd544d29fe0c7fedd8939.html" target="_top" xlink:title="script">
<polygon fill="#ddddee" stroke="#000000" points="8,-272 8,-431 246,-431 246,-272 8,-272"/>
<text text-anchor="middle" x="127" y="-419" font-family="Helvetica,sans-Serif" font-size="10.00" fill="#000000">script</text>
</a>
</g>
</g>
<g id="clust2" class="cluster">
<title>clusterdir_9e615ec4a59e46584bcc4e2226e148a2</title>
<g id="a_clust2"><a xlink:href="dir_9e615ec4a59e46584bcc4e2226e148a2.html" target="_top">
<polygon fill="#eeeeff" stroke="#000000" points="16,-280 16,-404 238,-404 238,-280 16,-280"/>
</a>
</g>
</g>
<!-- dir_9e615ec4a59e46584bcc4e2226e148a2 -->
<g id="node1" class="node">
<title>dir_9e615ec4a59e46584bcc4e2226e148a2</title>
<text text-anchor="middle" x="199" y="-375.5" font-family="Helvetica,sans-Serif" font-size="10.00" fill="#000000">ir_builder</text>
</g>
<!-- dir_e4a1a856a30057b9b1543256279fc7a1 -->
<g id="node2" class="node">
<title>dir_e4a1a856a30057b9b1543256279fc7a1</title>
<g id="a_node2"><a xlink:href="dir_e4a1a856a30057b9b1543256279fc7a1.html" target="_top" xlink:title="ir">
<polygon fill="#ffffff" stroke="#000000" points="78,-324 24,-324 24,-288 78,-288 78,-324"/>
<text text-anchor="middle" x="51" y="-303.5" font-family="Helvetica,sans-Serif" font-size="10.00" fill="#000000">ir</text>
</a>
</g>
</g>
<!-- dir_6cd4295f6ad5aa17e5b568d0e5b190e5 -->
<g id="node5" class="node">
<title>dir_6cd4295f6ad5aa17e5b568d0e5b190e5</title>
<g id="a_node5"><a xlink:href="dir_6cd4295f6ad5aa17e5b568d0e5b190e5.html" target="_top" xlink:title="node">
<polygon fill="none" stroke="#000000" points="67,-36 13,-36 13,0 67,0 67,-36"/>
<text text-anchor="middle" x="40" y="-15.5" font-family="Helvetica,sans-Serif" font-size="10.00" fill="#000000">node</text>
</a>
</g>
</g>
<!-- dir_e4a1a856a30057b9b1543256279fc7a1&#45;&gt;dir_6cd4295f6ad5aa17e5b568d0e5b190e5 -->
<g id="edge1" class="edge">
<title>dir_e4a1a856a30057b9b1543256279fc7a1&#45;&gt;dir_6cd4295f6ad5aa17e5b568d0e5b190e5</title>
<path fill="none" stroke="#000000" d="M35.0095,-287.9169C27.3462,-278.0371 18.9834,-265.1563 15,-252 -6.8579,-179.8081 15.8127,-90.0416 30.1547,-45.5948"/>
<polygon fill="#000000" stroke="#000000" points="33.49,-46.6566 33.3296,-36.063 26.8488,-44.4445 33.49,-46.6566"/>
<g id="a_edge1&#45;headlabel"><a xlink:href="dir_000032_000021.html" target="_top" xlink:title="2">
<text text-anchor="middle" x="35.0479" y="-48.4643" font-family="Helvetica,sans-Serif" font-size="10.00" fill="#000000">2</text>
</a>
</g>
</g>
<!-- dir_dc867ff9a37cad1764f1670dc7eba6c1 -->
<g id="node6" class="node">
<title>dir_dc867ff9a37cad1764f1670dc7eba6c1</title>
<g id="a_node6"><a xlink:href="dir_dc867ff9a37cad1764f1670dc7eba6c1.html" target="_top" xlink:title="ir">
<polygon fill="none" stroke="#000000" points="78,-252 24,-252 24,-216 78,-216 78,-252"/>
<text text-anchor="middle" x="51" y="-231.5" font-family="Helvetica,sans-Serif" font-size="10.00" fill="#000000">ir</text>
</a>
</g>
</g>
<!-- dir_e4a1a856a30057b9b1543256279fc7a1&#45;&gt;dir_dc867ff9a37cad1764f1670dc7eba6c1 -->
<g id="edge2" class="edge">
<title>dir_e4a1a856a30057b9b1543256279fc7a1&#45;&gt;dir_dc867ff9a37cad1764f1670dc7eba6c1</title>
<path fill="none" stroke="#000000" d="M51,-287.8314C51,-280.131 51,-270.9743 51,-262.4166"/>
<polygon fill="#000000" stroke="#000000" points="54.5001,-262.4132 51,-252.4133 47.5001,-262.4133 54.5001,-262.4132"/>
<g id="a_edge2&#45;headlabel"><a xlink:href="dir_000032_000007.html" target="_top" xlink:title="4">
<text text-anchor="middle" x="57.3393" y="-263.5079" font-family="Helvetica,sans-Serif" font-size="10.00" fill="#000000">4</text>
</a>
</g>
</g>
<!-- dir_493326846501d79d0555a263340767eb -->
<g id="node3" class="node">
<title>dir_493326846501d79d0555a263340767eb</title>
<g id="a_node3"><a xlink:href="dir_493326846501d79d0555a263340767eb.html" target="_top" xlink:title="relax">
<polygon fill="#ffffff" stroke="#000000" points="78,-396 24,-396 24,-360 78,-360 78,-396"/>
<text text-anchor="middle" x="51" y="-375.5" font-family="Helvetica,sans-Serif" font-size="10.00" fill="#000000">relax</text>
</a>
</g>
</g>
<!-- dir_493326846501d79d0555a263340767eb&#45;&gt;dir_e4a1a856a30057b9b1543256279fc7a1 -->
<g id="edge5" class="edge">
<title>dir_493326846501d79d0555a263340767eb&#45;&gt;dir_e4a1a856a30057b9b1543256279fc7a1</title>
<path fill="none" stroke="#000000" d="M51,-359.8314C51,-352.131 51,-342.9743 51,-334.4166"/>
<polygon fill="#000000" stroke="#000000" points="54.5001,-334.4132 51,-324.4133 47.5001,-334.4133 54.5001,-334.4132"/>
<g id="a_edge5&#45;headlabel"><a xlink:href="dir_000033_000032.html" target="_top" xlink:title="2">
<text text-anchor="middle" x="57.3393" y="-335.5079" font-family="Helvetica,sans-Serif" font-size="10.00" fill="#000000">2</text>
</a>
</g>
</g>
<!-- dir_039190d3b4246b6bdd648b90e06580e6 -->
<g id="node8" class="node">
<title>dir_039190d3b4246b6bdd648b90e06580e6</title>
<g id="a_node8"><a xlink:href="dir_039190d3b4246b6bdd648b90e06580e6.html" target="_top" xlink:title="relax">
<polygon fill="#ffffff" stroke="#ff0000" points="133,-180 79,-180 79,-144 133,-144 133,-180"/>
<text text-anchor="middle" x="106" y="-159.5" font-family="Helvetica,sans-Serif" font-size="10.00" fill="#000000">relax</text>
</a>
</g>
</g>
<!-- dir_493326846501d79d0555a263340767eb&#45;&gt;dir_039190d3b4246b6bdd648b90e06580e6 -->
<g id="edge6" class="edge">
<title>dir_493326846501d79d0555a263340767eb&#45;&gt;dir_039190d3b4246b6bdd648b90e06580e6</title>
<path fill="none" stroke="#000000" d="M66.3651,-359.7075C73.8574,-349.7703 82.2558,-336.9015 87,-324 103.4199,-279.3472 106.4711,-223.5299 106.6286,-190.4343"/>
<polygon fill="#000000" stroke="#000000" points="110.1275,-190.1161 106.5863,-180.1306 103.1275,-190.1449 110.1275,-190.1161"/>
<g id="a_edge6&#45;headlabel"><a xlink:href="dir_000033_000011.html" target="_top" xlink:title="4">
<text text-anchor="middle" x="112.9814" y="-191.199" font-family="Helvetica,sans-Serif" font-size="10.00" fill="#000000">4</text>
</a>
</g>
</g>
<!-- dir_67fdee7a5e0396034822418fa5baa4b4 -->
<g id="node4" class="node">
<title>dir_67fdee7a5e0396034822418fa5baa4b4</title>
<g id="a_node4"><a xlink:href="dir_67fdee7a5e0396034822418fa5baa4b4.html" target="_top" xlink:title="tir">
<polygon fill="#ffffff" stroke="#000000" points="150,-396 96,-396 96,-360 150,-360 150,-396"/>
<text text-anchor="middle" x="123" y="-375.5" font-family="Helvetica,sans-Serif" font-size="10.00" fill="#000000">tir</text>
</a>
</g>
</g>
<!-- dir_67fdee7a5e0396034822418fa5baa4b4&#45;&gt;dir_e4a1a856a30057b9b1543256279fc7a1 -->
<g id="edge12" class="edge">
<title>dir_67fdee7a5e0396034822418fa5baa4b4&#45;&gt;dir_e4a1a856a30057b9b1543256279fc7a1</title>
<path fill="none" stroke="#000000" d="M104.8314,-359.8314C96.2848,-351.2848 85.9443,-340.9443 76.6198,-331.6198"/>
<polygon fill="#000000" stroke="#000000" points="78.9592,-329.0095 69.4133,-324.4133 74.0095,-333.9592 78.9592,-329.0095"/>
<g id="a_edge12&#45;headlabel"><a xlink:href="dir_000034_000032.html" target="_top" xlink:title="1">
<text text-anchor="middle" x="83.5087" y="-327.0436" font-family="Helvetica,sans-Serif" font-size="10.00" fill="#000000">1</text>
</a>
</g>
</g>
<!-- dir_72c2f11201cd7636dc7624de0754daa5 -->
<g id="node7" class="node">
<title>dir_72c2f11201cd7636dc7624de0754daa5</title>
<g id="a_node7"><a xlink:href="dir_72c2f11201cd7636dc7624de0754daa5.html" target="_top" xlink:title="tir">
<polygon fill="#ffffff" stroke="#ff0000" points="95,-108 41,-108 41,-72 95,-72 95,-108"/>
<text text-anchor="middle" x="68" y="-87.5" font-family="Helvetica,sans-Serif" font-size="10.00" fill="#000000">tir</text>
</a>
</g>
</g>
<!-- dir_67fdee7a5e0396034822418fa5baa4b4&#45;&gt;dir_72c2f11201cd7636dc7624de0754daa5 -->
<g id="edge13" class="edge">
<title>dir_67fdee7a5e0396034822418fa5baa4b4&#45;&gt;dir_72c2f11201cd7636dc7624de0754daa5</title>
<path fill="none" stroke="#000000" d="M130.6316,-359.7393C146.5613,-318.6158 178.9325,-216.671 142,-144 133.8847,-128.0318 118.5874,-115.6621 103.998,-106.8153"/>
<polygon fill="#000000" stroke="#000000" points="105.5022,-103.6449 95.0761,-101.7615 102.0521,-109.7356 105.5022,-103.6449"/>
<g id="a_edge13&#45;headlabel"><a xlink:href="dir_000034_000012.html" target="_top" xlink:title="2">
<text text-anchor="middle" x="110.0292" y="-100.4461" font-family="Helvetica,sans-Serif" font-size="10.00" fill="#000000">2</text>
</a>
</g>
</g>
<!-- dir_dc867ff9a37cad1764f1670dc7eba6c1&#45;&gt;dir_6cd4295f6ad5aa17e5b568d0e5b190e5 -->
<g id="edge3" class="edge">
<title>dir_dc867ff9a37cad1764f1670dc7eba6c1&#45;&gt;dir_6cd4295f6ad5aa17e5b568d0e5b190e5</title>
<path fill="none" stroke="#000000" d="M46.538,-215.5853C39.7874,-185.582 28.1509,-124.2463 32,-72 32.6169,-63.6264 33.7649,-54.5812 35.0026,-46.3322"/>
<polygon fill="#000000" stroke="#000000" points="38.4648,-46.8463 36.585,-36.4196 31.5523,-45.7428 38.4648,-46.8463"/>
<g id="a_edge3&#45;headlabel"><a xlink:href="dir_000007_000021.html" target="_top" xlink:title="10">
<text text-anchor="middle" x="40.702" y="-48.3436" font-family="Helvetica,sans-Serif" font-size="10.00" fill="#000000">10</text>
</a>
</g>
</g>
<!-- dir_dc867ff9a37cad1764f1670dc7eba6c1&#45;&gt;dir_039190d3b4246b6bdd648b90e06580e6 -->
<g id="edge4" class="edge">
<title>dir_dc867ff9a37cad1764f1670dc7eba6c1&#45;&gt;dir_039190d3b4246b6bdd648b90e06580e6</title>
<path fill="none" stroke="#000000" d="M58.9264,-215.8314C64.5094,-207.454 72.0357,-197.3531 79.4838,-188.1749"/>
<polygon fill="#000000" stroke="#000000" points="82.2404,-190.3344 85.9583,-180.4133 76.865,-185.8504 82.2404,-190.3344"/>
<g id="a_edge4&#45;headlabel"><a xlink:href="dir_000007_000011.html" target="_top" xlink:title="1">
<text text-anchor="middle" x="82.1181" y="-192.4134" font-family="Helvetica,sans-Serif" font-size="10.00" fill="#000000">1</text>
</a>
</g>
</g>
<!-- dir_72c2f11201cd7636dc7624de0754daa5&#45;&gt;dir_6cd4295f6ad5aa17e5b568d0e5b190e5 -->
<g id="edge7" class="edge">
<title>dir_72c2f11201cd7636dc7624de0754daa5&#45;&gt;dir_6cd4295f6ad5aa17e5b568d0e5b190e5</title>
<path fill="none" stroke="#000000" d="M60.9344,-71.8314C57.874,-63.9617 54.2221,-54.5712 50.8318,-45.8533"/>
<polygon fill="#000000" stroke="#000000" points="54.0473,-44.4647 47.1607,-36.4133 47.5232,-47.0019 54.0473,-44.4647"/>
<g id="a_edge7&#45;headlabel"><a xlink:href="dir_000012_000021.html" target="_top" xlink:title="6">
<text text-anchor="middle" x="57.9963" y="-44.2859" font-family="Helvetica,sans-Serif" font-size="10.00" fill="#000000">6</text>
</a>
</g>
</g>
<!-- dir_72c2f11201cd7636dc7624de0754daa5&#45;&gt;dir_dc867ff9a37cad1764f1670dc7eba6c1 -->
<g id="edge8" class="edge">
<title>dir_72c2f11201cd7636dc7624de0754daa5&#45;&gt;dir_dc867ff9a37cad1764f1670dc7eba6c1</title>
<path fill="none" stroke="#000000" d="M65.8644,-108.0896C62.9741,-132.5727 57.7861,-176.5174 54.368,-205.4713"/>
<polygon fill="#000000" stroke="#000000" points="50.8497,-205.4209 53.1531,-215.7623 57.8014,-206.2416 50.8497,-205.4209"/>
<g id="a_edge8&#45;headlabel"><a xlink:href="dir_000012_000007.html" target="_top" xlink:title="16">
<text text-anchor="middle" x="48.4514" y="-199.0182" font-family="Helvetica,sans-Serif" font-size="10.00" fill="#000000">16</text>
</a>
</g>
</g>
<!-- dir_039190d3b4246b6bdd648b90e06580e6&#45;&gt;dir_6cd4295f6ad5aa17e5b568d0e5b190e5 -->
<g id="edge9" class="edge">
<title>dir_039190d3b4246b6bdd648b90e06580e6&#45;&gt;dir_6cd4295f6ad5aa17e5b568d0e5b190e5</title>
<path fill="none" stroke="#000000" d="M109.8073,-143.7468C112.8227,-124.8146 114.9233,-94.8412 104,-72 97.7416,-58.9135 86.639,-47.8247 75.4191,-39.1645"/>
<polygon fill="#000000" stroke="#000000" points="77.4513,-36.3148 67.2962,-33.2938 73.3509,-41.9882 77.4513,-36.3148"/>
<g id="a_edge9&#45;headlabel"><a xlink:href="dir_000011_000021.html" target="_top" xlink:title="8">
<text text-anchor="middle" x="82.0277" y="-33.6191" font-family="Helvetica,sans-Serif" font-size="10.00" fill="#000000">8</text>
</a>
</g>
</g>
<!-- dir_039190d3b4246b6bdd648b90e06580e6&#45;&gt;dir_dc867ff9a37cad1764f1670dc7eba6c1 -->
<g id="edge10" class="edge">
<title>dir_039190d3b4246b6bdd648b90e06580e6&#45;&gt;dir_dc867ff9a37cad1764f1670dc7eba6c1</title>
<path fill="none" stroke="#000000" d="M97.9103,-180.4133C92.2898,-188.8239 84.7456,-198.9323 77.2991,-208.0923"/>
<polygon fill="#000000" stroke="#000000" points="74.5584,-205.9138 70.8312,-215.8314 79.9296,-210.4027 74.5584,-205.9138"/>
<g id="a_edge10&#45;headlabel"><a xlink:href="dir_000011_000007.html" target="_top" xlink:title="21">
<text text-anchor="middle" x="74.6849" y="-198.8348" font-family="Helvetica,sans-Serif" font-size="10.00" fill="#000000">21</text>
</a>
</g>
</g>
<!-- dir_039190d3b4246b6bdd648b90e06580e6&#45;&gt;dir_72c2f11201cd7636dc7624de0754daa5 -->
<g id="edge11" class="edge">
<title>dir_039190d3b4246b6bdd648b90e06580e6&#45;&gt;dir_72c2f11201cd7636dc7624de0754daa5</title>
<path fill="none" stroke="#000000" d="M96.411,-143.8314C92.1683,-135.7925 87.0879,-126.1666 82.404,-117.2918"/>
<polygon fill="#000000" stroke="#000000" points="85.4811,-115.6235 77.7181,-108.4133 79.2904,-118.8908 85.4811,-115.6235"/>
<g id="a_edge11&#45;headlabel"><a xlink:href="dir_000011_000012.html" target="_top" xlink:title="5">
<text text-anchor="middle" x="89.6699" y="-114.9772" font-family="Helvetica,sans-Serif" font-size="10.00" fill="#000000">5</text>
</a>
</g>
</g>
</g>
</svg>
