<?xml version="1.0" encoding="UTF-8" standalone="no"?>
<!DOCTYPE svg PUBLIC "-//W3C//DTD SVG 1.1//EN"
 "http://www.w3.org/Graphics/SVG/1.1/DTD/svg11.dtd">
<!-- Generated by graphviz version 2.40.1 (20161225.0304)
 -->
<!-- Title: include/tvm/ir Pages: 1 -->
<svg width="359pt" height="404pt"
 viewBox="0.00 0.00 358.74 404.00" xmlns="http://www.w3.org/2000/svg" xmlns:xlink="http://www.w3.org/1999/xlink">
<g id="graph0" class="graph" transform="scale(1 1) rotate(0) translate(4 400)">
<title>include/tvm/ir</title>
<polygon fill="#ffffff" stroke="transparent" points="-4,4 -4,-400 354.7369,-400 354.7369,4 -4,4"/>
<g id="clust1" class="cluster">
<title>clusterdir_b4c7d8e826c599ba55146c099a14beb5</title>
<g id="a_clust1"><a xlink:href="dir_b4c7d8e826c599ba55146c099a14beb5.html" target="_top" xlink:title="tvm">
<polygon fill="#ddddee" stroke="#000000" points="91.5852,-280 91.5852,-351 161.5852,-351 161.5852,-280 91.5852,-280"/>
<text text-anchor="middle" x="126.5852" y="-339" font-family="Helvetica,sans-Serif" font-size="10.00" fill="#000000">tvm</text>
</a>
</g>
</g>
<!-- dir_dc867ff9a37cad1764f1670dc7eba6c1 -->
<g id="node1" class="node">
<title>dir_dc867ff9a37cad1764f1670dc7eba6c1</title>
<g id="a_node1"><a xlink:href="dir_dc867ff9a37cad1764f1670dc7eba6c1.html" target="_top" xlink:title="ir">
<polygon fill="#eeeeff" stroke="#000000" points="153.5852,-324 99.5852,-324 99.5852,-288 153.5852,-288 153.5852,-324"/>
<text text-anchor="middle" x="126.5852" y="-303.5" font-family="Helvetica,sans-Serif" font-size="10.00" fill="#000000">ir</text>
</a>
</g>
</g>
<!-- dir_63946bee875c6d52bce55e72a67a86ad -->
<g id="node2" class="node">
<title>dir_63946bee875c6d52bce55e72a67a86ad</title>
<g id="a_node2"><a xlink:href="dir_63946bee875c6d52bce55e72a67a86ad.html" target="_top" xlink:title="relay">
<polygon fill="#ffffff" stroke="#ff0000" points="282.5852,-324 228.5852,-324 228.5852,-288 282.5852,-288 282.5852,-324"/>
<text text-anchor="middle" x="255.5852" y="-303.5" font-family="Helvetica,sans-Serif" font-size="10.00" fill="#000000">relay</text>
</a>
</g>
</g>
<!-- dir_dc867ff9a37cad1764f1670dc7eba6c1&#45;&gt;dir_63946bee875c6d52bce55e72a67a86ad -->
<g id="edge11" class="edge">
<title>dir_dc867ff9a37cad1764f1670dc7eba6c1&#45;&gt;dir_63946bee875c6d52bce55e72a67a86ad</title>
<path fill="none" stroke="#000000" d="M153.7962,-306C175.3066,-306 196.8171,-306 218.3276,-306"/>
<polygon fill="#000000" stroke="#000000" points="218.5475,-309.5001 228.5475,-306 218.5475,-302.5001 218.5475,-309.5001"/>
<g id="a_edge11&#45;headlabel"><a xlink:href="dir_000007_000005.html" target="_top" xlink:title="2">
<text text-anchor="middle" x="214.9529" y="-309.8393" font-family="Helvetica,sans-Serif" font-size="10.00" fill="#000000">2</text>
</a>
</g>
</g>
<!-- dir_5da96592f3a7c442b838b075c58254c2 -->
<g id="node3" class="node">
<title>dir_5da96592f3a7c442b838b075c58254c2</title>
<g id="a_node3"><a xlink:href="dir_5da96592f3a7c442b838b075c58254c2.html" target="_top" xlink:title="target">
<polygon fill="none" stroke="#000000" points="320.5852,-252 266.5852,-252 266.5852,-216 320.5852,-216 320.5852,-252"/>
<text text-anchor="middle" x="293.5852" y="-231.5" font-family="Helvetica,sans-Serif" font-size="10.00" fill="#000000">target</text>
</a>
</g>
</g>
<!-- dir_dc867ff9a37cad1764f1670dc7eba6c1&#45;&gt;dir_5da96592f3a7c442b838b075c58254c2 -->
<g id="edge12" class="edge">
<title>dir_dc867ff9a37cad1764f1670dc7eba6c1&#45;&gt;dir_5da96592f3a7c442b838b075c58254c2</title>
<path fill="none" stroke="#000000" d="M153.7,-291.9468C181.7914,-279.0958 225.6166,-260.2114 256.7979,-247.5282"/>
<polygon fill="#000000" stroke="#000000" points="258.4734,-250.6266 266.4414,-243.6437 255.8579,-244.1336 258.4734,-250.6266"/>
<g id="a_edge12&#45;headlabel"><a xlink:href="dir_000007_000036.html" target="_top" xlink:title="1">
<text text-anchor="middle" x="256.1999" y="-252.1033" font-family="Helvetica,sans-Serif" font-size="10.00" fill="#000000">1</text>
</a>
</g>
</g>
<!-- dir_6cd4295f6ad5aa17e5b568d0e5b190e5 -->
<g id="node4" class="node">
<title>dir_6cd4295f6ad5aa17e5b568d0e5b190e5</title>
<g id="a_node4"><a xlink:href="dir_6cd4295f6ad5aa17e5b568d0e5b190e5.html" target="_top" xlink:title="node">
<polygon fill="none" stroke="#000000" points="231.5852,-180 177.5852,-180 177.5852,-144 231.5852,-144 231.5852,-180"/>
<text text-anchor="middle" x="204.5852" y="-159.5" font-family="Helvetica,sans-Serif" font-size="10.00" fill="#000000">node</text>
</a>
</g>
</g>
<!-- dir_dc867ff9a37cad1764f1670dc7eba6c1&#45;&gt;dir_6cd4295f6ad5aa17e5b568d0e5b190e5 -->
<g id="edge13" class="edge">
<title>dir_dc867ff9a37cad1764f1670dc7eba6c1&#45;&gt;dir_6cd4295f6ad5aa17e5b568d0e5b190e5</title>
<path fill="none" stroke="#000000" d="M136.464,-287.7623C149.9438,-262.8764 174.2073,-218.0822 189.843,-189.2165"/>
<polygon fill="#000000" stroke="#000000" points="193.1013,-190.5496 194.7867,-180.0896 186.9463,-187.2155 193.1013,-190.5496"/>
<g id="a_edge13&#45;headlabel"><a xlink:href="dir_000007_000021.html" target="_top" xlink:title="10">
<text text-anchor="middle" x="193.8859" y="-192.5625" font-family="Helvetica,sans-Serif" font-size="10.00" fill="#000000">10</text>
</a>
</g>
</g>
<!-- dir_404558507ed35459f0d7a6d81d8c508d -->
<g id="node5" class="node">
<title>dir_404558507ed35459f0d7a6d81d8c508d</title>
<g id="a_node5"><a xlink:href="dir_404558507ed35459f0d7a6d81d8c508d.html" target="_top" xlink:title="runtime">
<polygon fill="#ffffff" stroke="#ff0000" points="232.0852,-108 177.0852,-108 177.0852,-72 232.0852,-72 232.0852,-108"/>
<text text-anchor="middle" x="204.5852" y="-87.5" font-family="Helvetica,sans-Serif" font-size="10.00" fill="#000000">runtime</text>
</a>
</g>
</g>
<!-- dir_dc867ff9a37cad1764f1670dc7eba6c1&#45;&gt;dir_404558507ed35459f0d7a6d81d8c508d -->
<g id="edge14" class="edge">
<title>dir_dc867ff9a37cad1764f1670dc7eba6c1&#45;&gt;dir_404558507ed35459f0d7a6d81d8c508d</title>
<path fill="none" stroke="#000000" d="M100.329,-287.8151C89.243,-278.5285 77.5394,-266.1902 71.5852,-252 65.3945,-237.2462 65.6199,-230.8464 71.5852,-216 90.2002,-169.6719 135.9924,-132.7843 168.6342,-111.1785"/>
<polygon fill="#000000" stroke="#000000" points="170.5343,-114.1179 177.0412,-105.7566 166.7403,-108.2352 170.5343,-114.1179"/>
<g id="a_edge14&#45;headlabel"><a xlink:href="dir_000007_000008.html" target="_top" xlink:title="22">
<text text-anchor="middle" x="169.0523" y="-115.9522" font-family="Helvetica,sans-Serif" font-size="10.00" fill="#000000">22</text>
</a>
</g>
</g>
<!-- dir_fb1b1bc11a768ab8cf63a96a73170118 -->
<g id="node6" class="node">
<title>dir_fb1b1bc11a768ab8cf63a96a73170118</title>
<g id="a_node6"><a xlink:href="dir_fb1b1bc11a768ab8cf63a96a73170118.html" target="_top" xlink:title="support">
<polygon fill="none" stroke="#000000" points="231.5852,-36 177.5852,-36 177.5852,0 231.5852,0 231.5852,-36"/>
<text text-anchor="middle" x="204.5852" y="-15.5" font-family="Helvetica,sans-Serif" font-size="10.00" fill="#000000">support</text>
</a>
</g>
</g>
<!-- dir_dc867ff9a37cad1764f1670dc7eba6c1&#45;&gt;dir_fb1b1bc11a768ab8cf63a96a73170118 -->
<g id="edge15" class="edge">
<title>dir_dc867ff9a37cad1764f1670dc7eba6c1&#45;&gt;dir_fb1b1bc11a768ab8cf63a96a73170118</title>
<path fill="none" stroke="#000000" d="M99.451,-300.7762C73.6753,-294.2247 36.305,-280.231 18.5852,-252 -6.9339,-211.3432 -4.9607,-186.3778 17.5852,-144 49.2759,-84.4338 123.0568,-47.9617 167.8885,-30.487"/>
<polygon fill="#000000" stroke="#000000" points="169.1439,-33.7542 177.2614,-26.9456 166.6698,-27.2061 169.1439,-33.7542"/>
<g id="a_edge15&#45;headlabel"><a xlink:href="dir_000007_000014.html" target="_top" xlink:title="1">
<text text-anchor="middle" x="166.7849" y="-35.1807" font-family="Helvetica,sans-Serif" font-size="10.00" fill="#000000">1</text>
</a>
</g>
</g>
<!-- dir_039190d3b4246b6bdd648b90e06580e6 -->
<g id="node7" class="node">
<title>dir_039190d3b4246b6bdd648b90e06580e6</title>
<g id="a_node7"><a xlink:href="dir_039190d3b4246b6bdd648b90e06580e6.html" target="_top" xlink:title="relax">
<polygon fill="#ffffff" stroke="#ff0000" points="254.5852,-396 200.5852,-396 200.5852,-360 254.5852,-360 254.5852,-396"/>
<text text-anchor="middle" x="227.5852" y="-375.5" font-family="Helvetica,sans-Serif" font-size="10.00" fill="#000000">relax</text>
</a>
</g>
</g>
<!-- dir_dc867ff9a37cad1764f1670dc7eba6c1&#45;&gt;dir_039190d3b4246b6bdd648b90e06580e6 -->
<g id="edge16" class="edge">
<title>dir_dc867ff9a37cad1764f1670dc7eba6c1&#45;&gt;dir_039190d3b4246b6bdd648b90e06580e6</title>
<path fill="none" stroke="#000000" d="M149.993,-324.0765C160.9852,-332.4303 174.337,-342.386 186.5852,-351 188.3978,-352.2748 190.2651,-353.5691 192.1573,-354.8658"/>
<polygon fill="#000000" stroke="#000000" points="190.2746,-357.8177 200.5206,-360.5139 194.1923,-352.0167 190.2746,-357.8177"/>
<g id="a_edge16&#45;headlabel"><a xlink:href="dir_000007_000011.html" target="_top" xlink:title="1">
<text text-anchor="middle" x="185.7066" y="-355.6589" font-family="Helvetica,sans-Serif" font-size="10.00" fill="#000000">1</text>
</a>
</g>
</g>
<!-- dir_fafc18f54a755f417c55c769623cbfef -->
<g id="node8" class="node">
<title>dir_fafc18f54a755f417c55c769623cbfef</title>
<g id="a_node8"><a xlink:href="dir_fafc18f54a755f417c55c769623cbfef.html" target="_top" xlink:title="parser">
<polygon fill="none" stroke="#000000" points="134.5852,-252 80.5852,-252 80.5852,-216 134.5852,-216 134.5852,-252"/>
<text text-anchor="middle" x="107.5852" y="-231.5" font-family="Helvetica,sans-Serif" font-size="10.00" fill="#000000">parser</text>
</a>
</g>
</g>
<!-- dir_dc867ff9a37cad1764f1670dc7eba6c1&#45;&gt;dir_fafc18f54a755f417c55c769623cbfef -->
<g id="edge17" class="edge">
<title>dir_dc867ff9a37cad1764f1670dc7eba6c1&#45;&gt;dir_fafc18f54a755f417c55c769623cbfef</title>
<path fill="none" stroke="#000000" d="M115.8383,-287.8314C113.0559,-280.131 110.4186,-270.9743 108.469,-262.4166"/>
<polygon fill="#000000" stroke="#000000" points="111.8616,-261.5326 106.4683,-252.4133 104.9975,-262.9055 111.8616,-261.5326"/>
<g id="a_edge17&#45;headlabel"><a xlink:href="dir_000007_000022.html" target="_top" xlink:title="2">
<text text-anchor="middle" x="115.3506" y="-262.0006" font-family="Helvetica,sans-Serif" font-size="10.00" fill="#000000">2</text>
</a>
</g>
</g>
<!-- dir_63946bee875c6d52bce55e72a67a86ad&#45;&gt;dir_5da96592f3a7c442b838b075c58254c2 -->
<g id="edge1" class="edge">
<title>dir_63946bee875c6d52bce55e72a67a86ad&#45;&gt;dir_5da96592f3a7c442b838b075c58254c2</title>
<path fill="none" stroke="#000000" d="M265.1742,-287.8314C269.417,-279.7925 274.4973,-270.1666 279.1812,-261.2918"/>
<polygon fill="#000000" stroke="#000000" points="282.2948,-262.8908 283.8671,-252.4133 276.1041,-259.6235 282.2948,-262.8908"/>
<g id="a_edge1&#45;headlabel"><a xlink:href="dir_000005_000036.html" target="_top" xlink:title="11">
<text text-anchor="middle" x="283.1281" y="-264.895" font-family="Helvetica,sans-Serif" font-size="10.00" fill="#000000">11</text>
</a>
</g>
</g>
<!-- dir_63946bee875c6d52bce55e72a67a86ad&#45;&gt;dir_6cd4295f6ad5aa17e5b568d0e5b190e5 -->
<g id="edge2" class="edge">
<title>dir_63946bee875c6d52bce55e72a67a86ad&#45;&gt;dir_6cd4295f6ad5aa17e5b568d0e5b190e5</title>
<path fill="none" stroke="#000000" d="M249.126,-287.7623C240.3506,-262.9846 224.5855,-218.4714 214.3581,-189.5939"/>
<polygon fill="#000000" stroke="#000000" points="217.6297,-188.3474 210.992,-180.0896 211.0313,-190.6844 217.6297,-188.3474"/>
<g id="a_edge2&#45;headlabel"><a xlink:href="dir_000005_000021.html" target="_top" xlink:title="5">
<text text-anchor="middle" x="221.5061" y="-188.2879" font-family="Helvetica,sans-Serif" font-size="10.00" fill="#000000">5</text>
</a>
</g>
</g>
<!-- dir_63946bee875c6d52bce55e72a67a86ad&#45;&gt;dir_404558507ed35459f0d7a6d81d8c508d -->
<g id="edge3" class="edge">
<title>dir_63946bee875c6d52bce55e72a67a86ad&#45;&gt;dir_404558507ed35459f0d7a6d81d8c508d</title>
<path fill="none" stroke="#000000" d="M282.6613,-294.2385C299.5134,-285.3174 319.7857,-271.2824 329.5852,-252 336.8342,-237.7363 335.2713,-230.9555 329.5852,-216 312.7694,-171.771 271.1496,-135.266 240.5341,-113.1331"/>
<polygon fill="#000000" stroke="#000000" points="242.4115,-110.1744 232.2205,-107.2771 238.3804,-115.8973 242.4115,-110.1744"/>
<g id="a_edge3&#45;headlabel"><a xlink:href="dir_000005_000008.html" target="_top" xlink:title="6">
<text text-anchor="middle" x="246.9853" y="-107.4232" font-family="Helvetica,sans-Serif" font-size="10.00" fill="#000000">6</text>
</a>
</g>
</g>
<!-- dir_5da96592f3a7c442b838b075c58254c2&#45;&gt;dir_dc867ff9a37cad1764f1670dc7eba6c1 -->
<g id="edge6" class="edge">
<title>dir_5da96592f3a7c442b838b075c58254c2&#45;&gt;dir_dc867ff9a37cad1764f1670dc7eba6c1</title>
<path fill="none" stroke="#000000" d="M266.305,-248.1289C238.2521,-260.9577 194.6322,-279.7533 163.5218,-292.4111"/>
<polygon fill="#000000" stroke="#000000" points="161.8633,-289.3059 153.8961,-296.2898 164.4796,-295.7986 161.8633,-289.3059"/>
<g id="a_edge6&#45;headlabel"><a xlink:href="dir_000036_000007.html" target="_top" xlink:title="6">
<text text-anchor="middle" x="164.1362" y="-282.8289" font-family="Helvetica,sans-Serif" font-size="10.00" fill="#000000">6</text>
</a>
</g>
</g>
<!-- dir_5da96592f3a7c442b838b075c58254c2&#45;&gt;dir_6cd4295f6ad5aa17e5b568d0e5b190e5 -->
<g id="edge4" class="edge">
<title>dir_5da96592f3a7c442b838b075c58254c2&#45;&gt;dir_6cd4295f6ad5aa17e5b568d0e5b190e5</title>
<path fill="none" stroke="#000000" d="M271.1268,-215.8314C260.1647,-206.9632 246.8153,-196.1637 234.9587,-186.5718"/>
<polygon fill="#000000" stroke="#000000" points="237.0123,-183.7313 227.0365,-180.1628 232.6097,-189.1734 237.0123,-183.7313"/>
<g id="a_edge4&#45;headlabel"><a xlink:href="dir_000036_000021.html" target="_top" xlink:title="5">
<text text-anchor="middle" x="241.5927" y="-181.2847" font-family="Helvetica,sans-Serif" font-size="10.00" fill="#000000">5</text>
</a>
</g>
</g>
<!-- dir_5da96592f3a7c442b838b075c58254c2&#45;&gt;dir_404558507ed35459f0d7a6d81d8c508d -->
<g id="edge5" class="edge">
<title>dir_5da96592f3a7c442b838b075c58254c2&#45;&gt;dir_404558507ed35459f0d7a6d81d8c508d</title>
<path fill="none" stroke="#000000" d="M283.3184,-215.893C272.8487,-197.591 255.999,-168.5796 240.5852,-144 234.9873,-135.0733 228.6753,-125.4626 222.9179,-116.8587"/>
<polygon fill="#000000" stroke="#000000" points="225.6615,-114.6668 217.1721,-108.328 219.8556,-118.5773 225.6615,-114.6668"/>
<g id="a_edge5&#45;headlabel"><a xlink:href="dir_000036_000008.html" target="_top" xlink:title="2">
<text text-anchor="middle" x="230.0245" y="-113.5621" font-family="Helvetica,sans-Serif" font-size="10.00" fill="#000000">2</text>
</a>
</g>
</g>
<!-- dir_5da96592f3a7c442b838b075c58254c2&#45;&gt;dir_fb1b1bc11a768ab8cf63a96a73170118 -->
<g id="edge7" class="edge">
<title>dir_5da96592f3a7c442b838b075c58254c2&#45;&gt;dir_fb1b1bc11a768ab8cf63a96a73170118</title>
<path fill="none" stroke="#000000" d="M289.4759,-215.8383C282.1376,-185.1554 265.2065,-121.5577 240.5852,-72 235.9715,-62.7135 230.0224,-53.125 224.2944,-44.652"/>
<polygon fill="#000000" stroke="#000000" points="227.0561,-42.4931 218.4705,-36.2852 221.311,-46.4922 227.0561,-42.4931"/>
<g id="a_edge7&#45;headlabel"><a xlink:href="dir_000036_000014.html" target="_top" xlink:title="2">
<text text-anchor="middle" x="231.44" y="-41.3212" font-family="Helvetica,sans-Serif" font-size="10.00" fill="#000000">2</text>
</a>
</g>
</g>
<!-- dir_6cd4295f6ad5aa17e5b568d0e5b190e5&#45;&gt;dir_404558507ed35459f0d7a6d81d8c508d -->
<g id="edge8" class="edge">
<title>dir_6cd4295f6ad5aa17e5b568d0e5b190e5&#45;&gt;dir_404558507ed35459f0d7a6d81d8c508d</title>
<path fill="none" stroke="#000000" d="M204.5852,-143.8314C204.5852,-136.131 204.5852,-126.9743 204.5852,-118.4166"/>
<polygon fill="#000000" stroke="#000000" points="208.0853,-118.4132 204.5852,-108.4133 201.0853,-118.4133 208.0853,-118.4132"/>
<g id="a_edge8&#45;headlabel"><a xlink:href="dir_000021_000008.html" target="_top" xlink:title="20">
<text text-anchor="middle" x="210.9245" y="-119.5079" font-family="Helvetica,sans-Serif" font-size="10.00" fill="#000000">20</text>
</a>
</g>
</g>
<!-- dir_404558507ed35459f0d7a6d81d8c508d&#45;&gt;dir_dc867ff9a37cad1764f1670dc7eba6c1 -->
<g id="edge9" class="edge">
<title>dir_404558507ed35459f0d7a6d81d8c508d&#45;&gt;dir_dc867ff9a37cad1764f1670dc7eba6c1</title>
<path fill="none" stroke="#000000" d="M176.8159,-94.9904C133.9849,-103.3159 55.0142,-121.3793 38.5852,-144 10.3782,-182.8377 15.1441,-210.1131 38.5852,-252 49.5934,-271.6705 71.0212,-285.046 89.9756,-293.5645"/>
<polygon fill="#000000" stroke="#000000" points="88.7328,-296.8386 99.3086,-297.4732 91.4369,-290.3819 88.7328,-296.8386"/>
<g id="a_edge9&#45;headlabel"><a xlink:href="dir_000008_000007.html" target="_top" xlink:title="1">
<text text-anchor="middle" x="84.3205" y="-295.569" font-family="Helvetica,sans-Serif" font-size="10.00" fill="#000000">1</text>
</a>
</g>
</g>
<!-- dir_404558507ed35459f0d7a6d81d8c508d&#45;&gt;dir_fb1b1bc11a768ab8cf63a96a73170118 -->
<g id="edge10" class="edge">
<title>dir_404558507ed35459f0d7a6d81d8c508d&#45;&gt;dir_fb1b1bc11a768ab8cf63a96a73170118</title>
<path fill="none" stroke="#000000" d="M198.6328,-71.8314C197.8824,-64.131 197.6615,-54.9743 197.9701,-46.4166"/>
<polygon fill="#000000" stroke="#000000" points="201.4644,-46.6161 198.6092,-36.4133 194.4787,-46.1697 201.4644,-46.6161"/>
<g id="a_edge10&#45;headlabel"><a xlink:href="dir_000008_000014.html" target="_top" xlink:title="1">
<text text-anchor="middle" x="204.0688" y="-47.8844" font-family="Helvetica,sans-Serif" font-size="10.00" fill="#000000">1</text>
</a>
</g>
</g>
<!-- dir_fb1b1bc11a768ab8cf63a96a73170118&#45;&gt;dir_404558507ed35459f0d7a6d81d8c508d -->
<g id="edge18" class="edge">
<title>dir_fb1b1bc11a768ab8cf63a96a73170118&#45;&gt;dir_404558507ed35459f0d7a6d81d8c508d</title>
<path fill="none" stroke="#000000" d="M210.5612,-36.4133C211.2923,-44.0593 211.5055,-53.1084 211.2007,-61.5726"/>
<polygon fill="#000000" stroke="#000000" points="207.69,-61.6264 210.5376,-71.8314 214.6754,-62.078 207.69,-61.6264"/>
<g id="a_edge18&#45;headlabel"><a xlink:href="dir_000014_000008.html" target="_top" xlink:title="1">
<text text-anchor="middle" x="205.0884" y="-55.3562" font-family="Helvetica,sans-Serif" font-size="10.00" fill="#000000">1</text>
</a>
</g>
</g>
<!-- dir_039190d3b4246b6bdd648b90e06580e6&#45;&gt;dir_63946bee875c6d52bce55e72a67a86ad -->
<g id="edge19" class="edge">
<title>dir_039190d3b4246b6bdd648b90e06580e6&#45;&gt;dir_63946bee875c6d52bce55e72a67a86ad</title>
<path fill="none" stroke="#000000" d="M234.6508,-359.8314C237.7112,-351.9617 241.3631,-342.5712 244.7534,-333.8533"/>
<polygon fill="#000000" stroke="#000000" points="248.062,-335.0019 248.4245,-324.4133 241.538,-332.4647 248.062,-335.0019"/>
<g id="a_edge19&#45;headlabel"><a xlink:href="dir_000011_000005.html" target="_top" xlink:title="4">
<text text-anchor="middle" x="249.4054" y="-336.8812" font-family="Helvetica,sans-Serif" font-size="10.00" fill="#000000">4</text>
</a>
</g>
</g>
<!-- dir_039190d3b4246b6bdd648b90e06580e6&#45;&gt;dir_6cd4295f6ad5aa17e5b568d0e5b190e5 -->
<g id="edge20" class="edge">
<title>dir_039190d3b4246b6bdd648b90e06580e6&#45;&gt;dir_6cd4295f6ad5aa17e5b568d0e5b190e5</title>
<path fill="none" stroke="#000000" d="M221.6395,-359.826C220.8449,-356.8993 220.1208,-353.884 219.5852,-351 209.1096,-294.5942 205.9453,-227.3854 204.9925,-190.2304"/>
<polygon fill="#000000" stroke="#000000" points="208.4898,-190.0656 204.7701,-180.1453 201.4915,-190.22 208.4898,-190.0656"/>
<g id="a_edge20&#45;headlabel"><a xlink:href="dir_000011_000021.html" target="_top" xlink:title="8">
<text text-anchor="middle" x="211.4076" y="-191.0968" font-family="Helvetica,sans-Serif" font-size="10.00" fill="#000000">8</text>
</a>
</g>
</g>
<!-- dir_039190d3b4246b6bdd648b90e06580e6&#45;&gt;dir_404558507ed35459f0d7a6d81d8c508d -->
<g id="edge21" class="edge">
<title>dir_039190d3b4246b6bdd648b90e06580e6&#45;&gt;dir_404558507ed35459f0d7a6d81d8c508d</title>
<path fill="none" stroke="#000000" d="M254.7641,-371.0268C267.0977,-366.8077 281.211,-360.3843 291.5852,-351 339.5093,-307.6493 361.1224,-278.7264 345.5852,-216 336.8856,-180.8781 333.2058,-169.5503 307.5852,-144 289.1127,-125.5781 263.048,-111.9958 241.7609,-103.0607"/>
<polygon fill="#000000" stroke="#000000" points="242.9449,-99.7644 232.3611,-99.2816 240.3338,-106.2592 242.9449,-99.7644"/>
<g id="a_edge21&#45;headlabel"><a xlink:href="dir_000011_000008.html" target="_top" xlink:title="14">
<text text-anchor="middle" x="247.3391" y="-95.9708" font-family="Helvetica,sans-Serif" font-size="10.00" fill="#000000">14</text>
</a>
</g>
</g>
<!-- dir_fafc18f54a755f417c55c769623cbfef&#45;&gt;dir_dc867ff9a37cad1764f1670dc7eba6c1 -->
<g id="edge23" class="edge">
<title>dir_fafc18f54a755f417c55c769623cbfef&#45;&gt;dir_dc867ff9a37cad1764f1670dc7eba6c1</title>
<path fill="none" stroke="#000000" d="M118.4203,-252.4133C121.1996,-260.1442 123.828,-269.3097 125.7631,-277.8545"/>
<polygon fill="#000000" stroke="#000000" points="122.3633,-278.704 127.7431,-287.8314 129.2294,-277.3413 122.3633,-278.704"/>
<g id="a_edge23&#45;headlabel"><a xlink:href="dir_000022_000007.html" target="_top" xlink:title="3">
<text text-anchor="middle" x="118.8787" y="-273.2309" font-family="Helvetica,sans-Serif" font-size="10.00" fill="#000000">3</text>
</a>
</g>
</g>
<!-- dir_fafc18f54a755f417c55c769623cbfef&#45;&gt;dir_404558507ed35459f0d7a6d81d8c508d -->
<g id="edge22" class="edge">
<title>dir_fafc18f54a755f417c55c769623cbfef&#45;&gt;dir_404558507ed35459f0d7a6d81d8c508d</title>
<path fill="none" stroke="#000000" d="M119.8703,-215.7623C136.7795,-190.66 167.3334,-145.3017 186.7567,-116.4671"/>
<polygon fill="#000000" stroke="#000000" points="189.7158,-118.3389 192.3999,-108.0896 183.9102,-114.4281 189.7158,-118.3389"/>
<g id="a_edge22&#45;headlabel"><a xlink:href="dir_000022_000008.html" target="_top" xlink:title="4">
<text text-anchor="middle" x="190.0625" y="-120.4064" font-family="Helvetica,sans-Serif" font-size="10.00" fill="#000000">4</text>
</a>
</g>
</g>
</g>
</svg>
