<?xml version="1.0" encoding="UTF-8" standalone="no"?>
<!DOCTYPE svg PUBLIC "-//W3C//DTD SVG 1.1//EN"
 "http://www.w3.org/Graphics/SVG/1.1/DTD/svg11.dtd">
<!-- Generated by graphviz version 2.40.1 (20161225.0304)
 -->
<!-- Title: include/tvm/runtime Pages: 1 -->
<svg width="534pt" height="183pt"
 viewBox="0.00 0.00 534.00 183.00" xmlns="http://www.w3.org/2000/svg" xmlns:xlink="http://www.w3.org/1999/xlink">
<g id="graph0" class="graph" transform="scale(1 1) rotate(0) translate(4 179)">
<title>include/tvm/runtime</title>
<polygon fill="#ffffff" stroke="transparent" points="-4,4 -4,-179 530,-179 530,4 -4,4"/>
<g id="clust1" class="cluster">
<title>clusterdir_b4c7d8e826c599ba55146c099a14beb5</title>
<g id="a_clust1"><a xlink:href="dir_b4c7d8e826c599ba55146c099a14beb5.html" target="_top" xlink:title="tvm">
<polygon fill="#ddddee" stroke="#000000" points="8,-8 8,-167 464,-167 464,-8 8,-8"/>
<text text-anchor="middle" x="236" y="-155" font-family="Helvetica,sans-Serif" font-size="10.00" fill="#000000">tvm</text>
</a>
</g>
</g>
<g id="clust2" class="cluster">
<title>clusterdir_404558507ed35459f0d7a6d81d8c508d</title>
<g id="a_clust2"><a xlink:href="dir_404558507ed35459f0d7a6d81d8c508d.html" target="_top">
<polygon fill="#eeeeff" stroke="#000000" points="16,-16 16,-140 456,-140 456,-16 16,-16"/>
</a>
</g>
</g>
<!-- dir_404558507ed35459f0d7a6d81d8c508d -->
<g id="node1" class="node">
<title>dir_404558507ed35459f0d7a6d81d8c508d</title>
<text text-anchor="middle" x="420" y="-111.5" font-family="Helvetica,sans-Serif" font-size="10.00" fill="#000000">runtime</text>
</g>
<!-- dir_fb1b1bc11a768ab8cf63a96a73170118 -->
<g id="node8" class="node">
<title>dir_fb1b1bc11a768ab8cf63a96a73170118</title>
<g id="a_node8"><a xlink:href="dir_fb1b1bc11a768ab8cf63a96a73170118.html" target="_top" xlink:title="support">
<polygon fill="none" stroke="#000000" points="526,-60 472,-60 472,-24 526,-24 526,-60"/>
<text text-anchor="middle" x="499" y="-39.5" font-family="Helvetica,sans-Serif" font-size="10.00" fill="#000000">support</text>
</a>
</g>
</g>
<!-- dir_404558507ed35459f0d7a6d81d8c508d&#45;&gt;dir_fb1b1bc11a768ab8cf63a96a73170118 -->
<g id="edge4" class="edge">
<title>dir_404558507ed35459f0d7a6d81d8c508d&#45;&gt;dir_fb1b1bc11a768ab8cf63a96a73170118</title>
<path fill="none" stroke="#000000" d="M433.9826,-95.8314C442.7635,-87.0485 454.3118,-76.3712 465.2817,-66.8489"/>
<polygon fill="#000000" stroke="#000000" points="467.7831,-69.3156 473.1195,-60.1628 463.2401,-63.99 467.7831,-69.3156"/>
<g id="a_edge4&#45;headlabel"><a xlink:href="dir_000008_000034.html" target="_top" xlink:title="1">
<text text-anchor="middle" x="466.891" y="-71.3085" font-family="Helvetica,sans-Serif" font-size="10.00" fill="#000000">1</text>
</a>
</g>
</g>
<!-- dir_5603323dd0cfe2b74c32570eba23c68c -->
<g id="node2" class="node">
<title>dir_5603323dd0cfe2b74c32570eba23c68c</title>
<g id="a_node2"><a xlink:href="dir_5603323dd0cfe2b74c32570eba23c68c.html" target="_top" xlink:title="container">
<polygon fill="#ffffff" stroke="#000000" points="158,-60 96,-60 96,-24 158,-24 158,-60"/>
<text text-anchor="middle" x="127" y="-39.5" font-family="Helvetica,sans-Serif" font-size="10.00" fill="#000000">container</text>
</a>
</g>
</g>
<!-- dir_536029070df27a3ee03a4230630922c5 -->
<g id="node3" class="node">
<title>dir_536029070df27a3ee03a4230630922c5</title>
<g id="a_node3"><a xlink:href="dir_536029070df27a3ee03a4230630922c5.html" target="_top" xlink:title="contrib">
<polygon fill="#ffffff" stroke="#000000" points="374,-132 320,-132 320,-96 374,-96 374,-132"/>
<text text-anchor="middle" x="347" y="-111.5" font-family="Helvetica,sans-Serif" font-size="10.00" fill="#000000">contrib</text>
</a>
</g>
</g>
<!-- dir_536029070df27a3ee03a4230630922c5&#45;&gt;dir_5603323dd0cfe2b74c32570eba23c68c -->
<g id="edge3" class="edge">
<title>dir_536029070df27a3ee03a4230630922c5&#45;&gt;dir_5603323dd0cfe2b74c32570eba23c68c</title>
<path fill="none" stroke="#000000" d="M319.7119,-99.7267C316.8027,-98.3948 313.8614,-97.1249 311,-96 263.1376,-77.1847 206.0396,-61.4141 168.2797,-51.8647"/>
<polygon fill="#000000" stroke="#000000" points="168.7162,-48.3663 158.1661,-49.3389 167.02,-55.1577 168.7162,-48.3663"/>
<g id="a_edge3&#45;headlabel"><a xlink:href="dir_000026_000009.html" target="_top" xlink:title="2">
<text text-anchor="middle" x="172.8916" y="-43.9825" font-family="Helvetica,sans-Serif" font-size="10.00" fill="#000000">2</text>
</a>
</g>
</g>
<!-- dir_a2900df4deca8dd2bcded616f0fe650a -->
<g id="node4" class="node">
<title>dir_a2900df4deca8dd2bcded616f0fe650a</title>
<g id="a_node4"><a xlink:href="dir_a2900df4deca8dd2bcded616f0fe650a.html" target="_top" xlink:title="crt">
<polygon fill="#ffffff" stroke="#ff0000" points="302,-132 248,-132 248,-96 302,-96 302,-132"/>
<text text-anchor="middle" x="275" y="-111.5" font-family="Helvetica,sans-Serif" font-size="10.00" fill="#000000">crt</text>
</a>
</g>
</g>
<!-- dir_0a768efda19551002dc8866436c9ffae -->
<g id="node5" class="node">
<title>dir_0a768efda19551002dc8866436c9ffae</title>
<g id="a_node5"><a xlink:href="dir_0a768efda19551002dc8866436c9ffae.html" target="_top" xlink:title="micro">
<polygon fill="#ffffff" stroke="#ff0000" points="230,-132 176,-132 176,-96 230,-96 230,-132"/>
<text text-anchor="middle" x="203" y="-111.5" font-family="Helvetica,sans-Serif" font-size="10.00" fill="#000000">micro</text>
</a>
</g>
</g>
<!-- dir_c3ba2f3d9e8a31986c3c7cdcded00789 -->
<g id="node6" class="node">
<title>dir_c3ba2f3d9e8a31986c3c7cdcded00789</title>
<g id="a_node6"><a xlink:href="dir_c3ba2f3d9e8a31986c3c7cdcded00789.html" target="_top" xlink:title="relax_vm">
<polygon fill="#ffffff" stroke="#000000" points="158,-132 96,-132 96,-96 158,-96 158,-132"/>
<text text-anchor="middle" x="127" y="-111.5" font-family="Helvetica,sans-Serif" font-size="10.00" fill="#000000">relax_vm</text>
</a>
</g>
</g>
<!-- dir_c3ba2f3d9e8a31986c3c7cdcded00789&#45;&gt;dir_5603323dd0cfe2b74c32570eba23c68c -->
<g id="edge1" class="edge">
<title>dir_c3ba2f3d9e8a31986c3c7cdcded00789&#45;&gt;dir_5603323dd0cfe2b74c32570eba23c68c</title>
<path fill="none" stroke="#000000" d="M127,-95.8314C127,-88.131 127,-78.9743 127,-70.4166"/>
<polygon fill="#000000" stroke="#000000" points="130.5001,-70.4132 127,-60.4133 123.5001,-70.4133 130.5001,-70.4132"/>
<g id="a_edge1&#45;headlabel"><a xlink:href="dir_000022_000009.html" target="_top" xlink:title="1">
<text text-anchor="middle" x="133.3393" y="-71.5079" font-family="Helvetica,sans-Serif" font-size="10.00" fill="#000000">1</text>
</a>
</g>
</g>
<!-- dir_5baffeed82c1190bfdf7a4f918ab5ac6 -->
<g id="node7" class="node">
<title>dir_5baffeed82c1190bfdf7a4f918ab5ac6</title>
<g id="a_node7"><a xlink:href="dir_5baffeed82c1190bfdf7a4f918ab5ac6.html" target="_top" xlink:title="vm">
<polygon fill="#ffffff" stroke="#000000" points="78,-132 24,-132 24,-96 78,-96 78,-132"/>
<text text-anchor="middle" x="51" y="-111.5" font-family="Helvetica,sans-Serif" font-size="10.00" fill="#000000">vm</text>
</a>
</g>
</g>
<!-- dir_5baffeed82c1190bfdf7a4f918ab5ac6&#45;&gt;dir_5603323dd0cfe2b74c32570eba23c68c -->
<g id="edge2" class="edge">
<title>dir_5baffeed82c1190bfdf7a4f918ab5ac6&#45;&gt;dir_5603323dd0cfe2b74c32570eba23c68c</title>
<path fill="none" stroke="#000000" d="M70.178,-95.8314C79.3588,-87.1337 90.5006,-76.5783 100.4776,-67.1265"/>
<polygon fill="#000000" stroke="#000000" points="102.9757,-69.5811 107.8281,-60.1628 98.1615,-64.4995 102.9757,-69.5811"/>
<g id="a_edge2&#45;headlabel"><a xlink:href="dir_000023_000009.html" target="_top" xlink:title="3">
<text text-anchor="middle" x="102.3189" y="-71.6145" font-family="Helvetica,sans-Serif" font-size="10.00" fill="#000000">3</text>
</a>
</g>
</g>
<!-- dir_fb1b1bc11a768ab8cf63a96a73170118&#45;&gt;dir_404558507ed35459f0d7a6d81d8c508d -->
<g id="edge5" class="edge">
<title>dir_fb1b1bc11a768ab8cf63a96a73170118&#45;&gt;dir_404558507ed35459f0d7a6d81d8c508d</title>
<path fill="none" stroke="#000000" d="M484.7726,-60.4133C476.0081,-69.1637 464.5489,-79.7519 453.6645,-89.1978"/>
<polygon fill="#000000" stroke="#000000" points="451.2243,-86.6789 445.8874,-95.8314 455.7671,-92.0047 451.2243,-86.6789"/>
<g id="a_edge5&#45;headlabel"><a xlink:href="dir_000034_000008.html" target="_top" xlink:title="1">
<text text-anchor="middle" x="452.1166" y="-79.686" font-family="Helvetica,sans-Serif" font-size="10.00" fill="#000000">1</text>
</a>
</g>
</g>
</g>
</svg>
