<?xml version="1.0" encoding="UTF-8" standalone="no"?>
<!DOCTYPE svg PUBLIC "-//W3C//DTD SVG 1.1//EN"
 "http://www.w3.org/Graphics/SVG/1.1/DTD/svg11.dtd">
<!-- Generated by graphviz version 2.40.1 (20161225.0304)
 -->
<!-- Title: include/tvm/ir Pages: 1 -->
<svg width="286pt" height="439pt"
 viewBox="0.00 0.00 285.99 439.00" xmlns="http://www.w3.org/2000/svg" xmlns:xlink="http://www.w3.org/1999/xlink">
<g id="graph0" class="graph" transform="scale(1 1) rotate(0) translate(4 435)">
<title>include/tvm/ir</title>
<polygon fill="#ffffff" stroke="transparent" points="-4,4 -4,-435 281.9868,-435 281.9868,4 -4,4"/>
<g id="clust1" class="cluster">
<title>clusterdir_b4c7d8e826c599ba55146c099a14beb5</title>
<g id="a_clust1"><a xlink:href="dir_b4c7d8e826c599ba55146c099a14beb5.html" target="_top" xlink:title="tvm">
<polygon fill="#ddddee" stroke="#000000" points="79,-352 79,-423 149,-423 149,-352 79,-352"/>
<text text-anchor="middle" x="114" y="-411" font-family="Helvetica,sans-Serif" font-size="10.00" fill="#000000">tvm</text>
</a>
</g>
</g>
<!-- dir_dc867ff9a37cad1764f1670dc7eba6c1 -->
<g id="node1" class="node">
<title>dir_dc867ff9a37cad1764f1670dc7eba6c1</title>
<g id="a_node1"><a xlink:href="dir_dc867ff9a37cad1764f1670dc7eba6c1.html" target="_top" xlink:title="ir">
<polygon fill="#eeeeff" stroke="#000000" points="141,-396 87,-396 87,-360 141,-360 141,-396"/>
<text text-anchor="middle" x="114" y="-375.5" font-family="Helvetica,sans-Serif" font-size="10.00" fill="#000000">ir</text>
</a>
</g>
</g>
<!-- dir_63946bee875c6d52bce55e72a67a86ad -->
<g id="node2" class="node">
<title>dir_63946bee875c6d52bce55e72a67a86ad</title>
<g id="a_node2"><a xlink:href="dir_63946bee875c6d52bce55e72a67a86ad.html" target="_top" xlink:title="relay">
<polygon fill="#ffffff" stroke="#ff0000" points="196,-324 142,-324 142,-288 196,-288 196,-324"/>
<text text-anchor="middle" x="169" y="-303.5" font-family="Helvetica,sans-Serif" font-size="10.00" fill="#000000">relay</text>
</a>
</g>
</g>
<!-- dir_dc867ff9a37cad1764f1670dc7eba6c1&#45;&gt;dir_63946bee875c6d52bce55e72a67a86ad -->
<g id="edge10" class="edge">
<title>dir_dc867ff9a37cad1764f1670dc7eba6c1&#45;&gt;dir_63946bee875c6d52bce55e72a67a86ad</title>
<path fill="none" stroke="#000000" d="M127.8788,-359.8314C134.2136,-351.5386 141.8384,-341.557 148.7926,-332.4533"/>
<polygon fill="#000000" stroke="#000000" points="151.6452,-334.4847 154.9343,-324.4133 146.0825,-330.2353 151.6452,-334.4847"/>
<g id="a_edge10&#45;headlabel"><a xlink:href="dir_000007_000005.html" target="_top" xlink:title="2">
<text text-anchor="middle" x="151.7195" y="-336.5647" font-family="Helvetica,sans-Serif" font-size="10.00" fill="#000000">2</text>
</a>
</g>
</g>
<!-- dir_5da96592f3a7c442b838b075c58254c2 -->
<g id="node3" class="node">
<title>dir_5da96592f3a7c442b838b075c58254c2</title>
<g id="a_node3"><a xlink:href="dir_5da96592f3a7c442b838b075c58254c2.html" target="_top" xlink:title="target">
<polygon fill="none" stroke="#000000" points="86,-252 32,-252 32,-216 86,-216 86,-252"/>
<text text-anchor="middle" x="59" y="-231.5" font-family="Helvetica,sans-Serif" font-size="10.00" fill="#000000">target</text>
</a>
</g>
</g>
<!-- dir_dc867ff9a37cad1764f1670dc7eba6c1&#45;&gt;dir_5da96592f3a7c442b838b075c58254c2 -->
<g id="edge11" class="edge">
<title>dir_dc867ff9a37cad1764f1670dc7eba6c1&#45;&gt;dir_5da96592f3a7c442b838b075c58254c2</title>
<path fill="none" stroke="#000000" d="M98.1411,-359.6913C90.3311,-349.7497 81.4456,-336.8819 76,-324 67.6671,-304.288 63.3973,-280.4273 61.2215,-262.2282"/>
<polygon fill="#000000" stroke="#000000" points="64.6978,-261.8187 60.1675,-252.2413 57.7364,-262.5534 64.6978,-261.8187"/>
<g id="a_edge11&#45;headlabel"><a xlink:href="dir_000007_000035.html" target="_top" xlink:title="1">
<text text-anchor="middle" x="67.8985" y="-262.5955" font-family="Helvetica,sans-Serif" font-size="10.00" fill="#000000">1</text>
</a>
</g>
</g>
<!-- dir_6cd4295f6ad5aa17e5b568d0e5b190e5 -->
<g id="node4" class="node">
<title>dir_6cd4295f6ad5aa17e5b568d0e5b190e5</title>
<g id="a_node4"><a xlink:href="dir_6cd4295f6ad5aa17e5b568d0e5b190e5.html" target="_top" xlink:title="node">
<polygon fill="none" stroke="#000000" points="234,-180 180,-180 180,-144 234,-144 234,-180"/>
<text text-anchor="middle" x="207" y="-159.5" font-family="Helvetica,sans-Serif" font-size="10.00" fill="#000000">node</text>
</a>
</g>
</g>
<!-- dir_dc867ff9a37cad1764f1670dc7eba6c1&#45;&gt;dir_6cd4295f6ad5aa17e5b568d0e5b190e5 -->
<g id="edge12" class="edge">
<title>dir_dc867ff9a37cad1764f1670dc7eba6c1&#45;&gt;dir_6cd4295f6ad5aa17e5b568d0e5b190e5</title>
<path fill="none" stroke="#000000" d="M141.2279,-370.0073C162.7281,-362.107 191.3092,-347.7026 205,-324 229.0963,-282.2826 221.8438,-223.8692 214.4047,-189.7762"/>
<polygon fill="#000000" stroke="#000000" points="217.8089,-188.9625 212.1245,-180.0218 210.9927,-190.556 217.8089,-188.9625"/>
<g id="a_edge12&#45;headlabel"><a xlink:href="dir_000007_000020.html" target="_top" xlink:title="10">
<text text-anchor="middle" x="221.3918" y="-189.3165" font-family="Helvetica,sans-Serif" font-size="10.00" fill="#000000">10</text>
</a>
</g>
</g>
<!-- dir_404558507ed35459f0d7a6d81d8c508d -->
<g id="node5" class="node">
<title>dir_404558507ed35459f0d7a6d81d8c508d</title>
<g id="a_node5"><a xlink:href="dir_404558507ed35459f0d7a6d81d8c508d.html" target="_top" xlink:title="runtime">
<polygon fill="#ffffff" stroke="#ff0000" points="141.5,-108 86.5,-108 86.5,-72 141.5,-72 141.5,-108"/>
<text text-anchor="middle" x="114" y="-87.5" font-family="Helvetica,sans-Serif" font-size="10.00" fill="#000000">runtime</text>
</a>
</g>
</g>
<!-- dir_dc867ff9a37cad1764f1670dc7eba6c1&#45;&gt;dir_404558507ed35459f0d7a6d81d8c508d -->
<g id="edge13" class="edge">
<title>dir_dc867ff9a37cad1764f1670dc7eba6c1&#45;&gt;dir_404558507ed35459f0d7a6d81d8c508d</title>
<path fill="none" stroke="#000000" d="M114,-359.9843C114,-311.2939 114,-176.7961 114,-118.0573"/>
<polygon fill="#000000" stroke="#000000" points="117.5001,-118.0088 114,-108.0089 110.5001,-118.0089 117.5001,-118.0088"/>
<g id="a_edge13&#45;headlabel"><a xlink:href="dir_000007_000008.html" target="_top" xlink:title="24">
<text text-anchor="middle" x="120.3393" y="-119.1035" font-family="Helvetica,sans-Serif" font-size="10.00" fill="#000000">24</text>
</a>
</g>
</g>
<!-- dir_fb1b1bc11a768ab8cf63a96a73170118 -->
<g id="node6" class="node">
<title>dir_fb1b1bc11a768ab8cf63a96a73170118</title>
<g id="a_node6"><a xlink:href="dir_fb1b1bc11a768ab8cf63a96a73170118.html" target="_top" xlink:title="support">
<polygon fill="none" stroke="#000000" points="103,-36 49,-36 49,0 103,0 103,-36"/>
<text text-anchor="middle" x="76" y="-15.5" font-family="Helvetica,sans-Serif" font-size="10.00" fill="#000000">support</text>
</a>
</g>
</g>
<!-- dir_dc867ff9a37cad1764f1670dc7eba6c1&#45;&gt;dir_fb1b1bc11a768ab8cf63a96a73170118 -->
<g id="edge14" class="edge">
<title>dir_dc867ff9a37cad1764f1670dc7eba6c1&#45;&gt;dir_fb1b1bc11a768ab8cf63a96a73170118</title>
<path fill="none" stroke="#000000" d="M86.9836,-360.633C53.2722,-336.6024 0,-289.8003 0,-234 0,-234 0,-234 0,-162 0,-116.656 29.8384,-71.5999 52.1226,-44.2735"/>
<polygon fill="#000000" stroke="#000000" points="55.0006,-46.2889 58.7544,-36.3814 49.6415,-41.7856 55.0006,-46.2889"/>
<g id="a_edge14&#45;headlabel"><a xlink:href="dir_000007_000034.html" target="_top" xlink:title="1">
<text text-anchor="middle" x="54.8618" y="-48.3675" font-family="Helvetica,sans-Serif" font-size="10.00" fill="#000000">1</text>
</a>
</g>
</g>
<!-- dir_039190d3b4246b6bdd648b90e06580e6 -->
<g id="node7" class="node">
<title>dir_039190d3b4246b6bdd648b90e06580e6</title>
<g id="a_node7"><a xlink:href="dir_039190d3b4246b6bdd648b90e06580e6.html" target="_top" xlink:title="relax">
<polygon fill="#ffffff" stroke="#ff0000" points="253,-396 199,-396 199,-360 253,-360 253,-396"/>
<text text-anchor="middle" x="226" y="-375.5" font-family="Helvetica,sans-Serif" font-size="10.00" fill="#000000">relax</text>
</a>
</g>
</g>
<!-- dir_dc867ff9a37cad1764f1670dc7eba6c1&#45;&gt;dir_039190d3b4246b6bdd648b90e06580e6 -->
<g id="edge15" class="edge">
<title>dir_dc867ff9a37cad1764f1670dc7eba6c1&#45;&gt;dir_039190d3b4246b6bdd648b90e06580e6</title>
<path fill="none" stroke="#000000" d="M141.125,-378C156.8992,-378 172.6734,-378 188.4476,-378"/>
<polygon fill="#000000" stroke="#000000" points="188.8135,-381.5001 198.8135,-378 188.8134,-374.5001 188.8135,-381.5001"/>
<g id="a_edge15&#45;headlabel"><a xlink:href="dir_000007_000011.html" target="_top" xlink:title="1">
<text text-anchor="middle" x="185.2189" y="-381.8393" font-family="Helvetica,sans-Serif" font-size="10.00" fill="#000000">1</text>
</a>
</g>
</g>
<!-- dir_63946bee875c6d52bce55e72a67a86ad&#45;&gt;dir_5da96592f3a7c442b838b075c58254c2 -->
<g id="edge1" class="edge">
<title>dir_63946bee875c6d52bce55e72a67a86ad&#45;&gt;dir_5da96592f3a7c442b838b075c58254c2</title>
<path fill="none" stroke="#000000" d="M141.809,-288.2022C127.6622,-278.9425 110.1843,-267.5025 94.937,-257.5224"/>
<polygon fill="#000000" stroke="#000000" points="96.5433,-254.3907 86.2594,-251.8425 92.7097,-260.2476 96.5433,-254.3907"/>
<g id="a_edge1&#45;headlabel"><a xlink:href="dir_000005_000035.html" target="_top" xlink:title="11">
<text text-anchor="middle" x="101.1058" y="-251.4837" font-family="Helvetica,sans-Serif" font-size="10.00" fill="#000000">11</text>
</a>
</g>
</g>
<!-- dir_63946bee875c6d52bce55e72a67a86ad&#45;&gt;dir_6cd4295f6ad5aa17e5b568d0e5b190e5 -->
<g id="edge2" class="edge">
<title>dir_63946bee875c6d52bce55e72a67a86ad&#45;&gt;dir_6cd4295f6ad5aa17e5b568d0e5b190e5</title>
<path fill="none" stroke="#000000" d="M173.8127,-287.7623C180.3227,-263.0928 191.9953,-218.8598 199.6182,-189.9731"/>
<polygon fill="#000000" stroke="#000000" points="203.0589,-190.6517 202.2264,-180.0896 196.2906,-188.8656 203.0589,-190.6517"/>
<g id="a_edge2&#45;headlabel"><a xlink:href="dir_000005_000020.html" target="_top" xlink:title="5">
<text text-anchor="middle" x="204.8871" y="-192.3517" font-family="Helvetica,sans-Serif" font-size="10.00" fill="#000000">5</text>
</a>
</g>
</g>
<!-- dir_63946bee875c6d52bce55e72a67a86ad&#45;&gt;dir_404558507ed35459f0d7a6d81d8c508d -->
<g id="edge3" class="edge">
<title>dir_63946bee875c6d52bce55e72a67a86ad&#45;&gt;dir_404558507ed35459f0d7a6d81d8c508d</title>
<path fill="none" stroke="#000000" d="M164.3617,-287.5268C156.7994,-257.4414 141.319,-195.9929 128,-144 125.8707,-135.6881 123.5385,-126.662 121.3988,-118.4114"/>
<polygon fill="#000000" stroke="#000000" points="124.7229,-117.2865 118.8213,-108.4875 117.9477,-119.0463 124.7229,-117.2865"/>
<g id="a_edge3&#45;headlabel"><a xlink:href="dir_000005_000008.html" target="_top" xlink:title="8">
<text text-anchor="middle" x="128.3746" y="-117.5519" font-family="Helvetica,sans-Serif" font-size="10.00" fill="#000000">8</text>
</a>
</g>
</g>
<!-- dir_5da96592f3a7c442b838b075c58254c2&#45;&gt;dir_dc867ff9a37cad1764f1670dc7eba6c1 -->
<g id="edge6" class="edge">
<title>dir_5da96592f3a7c442b838b075c58254c2&#45;&gt;dir_dc867ff9a37cad1764f1670dc7eba6c1</title>
<path fill="none" stroke="#000000" d="M65.9092,-252.0896C75.3428,-276.7884 92.3412,-321.2933 103.3946,-350.2331"/>
<polygon fill="#000000" stroke="#000000" points="100.1965,-351.6693 107.0342,-359.7623 106.7357,-349.1717 100.1965,-351.6693"/>
<g id="a_edge6&#45;headlabel"><a xlink:href="dir_000035_000007.html" target="_top" xlink:title="6">
<text text-anchor="middle" x="96.2616" y="-346.8244" font-family="Helvetica,sans-Serif" font-size="10.00" fill="#000000">6</text>
</a>
</g>
</g>
<!-- dir_5da96592f3a7c442b838b075c58254c2&#45;&gt;dir_6cd4295f6ad5aa17e5b568d0e5b190e5 -->
<g id="edge4" class="edge">
<title>dir_5da96592f3a7c442b838b075c58254c2&#45;&gt;dir_6cd4295f6ad5aa17e5b568d0e5b190e5</title>
<path fill="none" stroke="#000000" d="M86.1455,-220.7941C109.8544,-209.26 144.464,-192.4229 170.5764,-179.7196"/>
<polygon fill="#000000" stroke="#000000" points="172.3152,-182.7659 179.7764,-175.2439 169.2529,-176.4713 172.3152,-182.7659"/>
<g id="a_edge4&#45;headlabel"><a xlink:href="dir_000035_000020.html" target="_top" xlink:title="5">
<text text-anchor="middle" x="170.3249" y="-184.3916" font-family="Helvetica,sans-Serif" font-size="10.00" fill="#000000">5</text>
</a>
</g>
</g>
<!-- dir_5da96592f3a7c442b838b075c58254c2&#45;&gt;dir_404558507ed35459f0d7a6d81d8c508d -->
<g id="edge5" class="edge">
<title>dir_5da96592f3a7c442b838b075c58254c2&#45;&gt;dir_404558507ed35459f0d7a6d81d8c508d</title>
<path fill="none" stroke="#000000" d="M65.9658,-215.7623C75.4295,-190.9846 92.4311,-146.4714 103.4607,-117.5939"/>
<polygon fill="#000000" stroke="#000000" points="106.7923,-118.6803 107.0908,-108.0896 100.253,-116.1826 106.7923,-118.6803"/>
<g id="a_edge5&#45;headlabel"><a xlink:href="dir_000035_000008.html" target="_top" xlink:title="2">
<text text-anchor="middle" x="108.1622" y="-120.5513" font-family="Helvetica,sans-Serif" font-size="10.00" fill="#000000">2</text>
</a>
</g>
</g>
<!-- dir_5da96592f3a7c442b838b075c58254c2&#45;&gt;dir_fb1b1bc11a768ab8cf63a96a73170118 -->
<g id="edge7" class="edge">
<title>dir_5da96592f3a7c442b838b075c58254c2&#45;&gt;dir_fb1b1bc11a768ab8cf63a96a73170118</title>
<path fill="none" stroke="#000000" d="M60.4202,-215.9555C63.3827,-178.3144 70.2399,-91.1867 73.7865,-46.1246"/>
<polygon fill="#000000" stroke="#000000" points="77.2764,-46.3889 74.5719,-36.1451 70.298,-45.8396 77.2764,-46.3889"/>
<g id="a_edge7&#45;headlabel"><a xlink:href="dir_000035_000034.html" target="_top" xlink:title="2">
<text text-anchor="middle" x="79.825" y="-47.6952" font-family="Helvetica,sans-Serif" font-size="10.00" fill="#000000">2</text>
</a>
</g>
</g>
<!-- dir_6cd4295f6ad5aa17e5b568d0e5b190e5&#45;&gt;dir_404558507ed35459f0d7a6d81d8c508d -->
<g id="edge8" class="edge">
<title>dir_6cd4295f6ad5aa17e5b568d0e5b190e5&#45;&gt;dir_404558507ed35459f0d7a6d81d8c508d</title>
<path fill="none" stroke="#000000" d="M183.5322,-143.8314C171.9673,-134.8779 157.8596,-123.9558 145.3817,-114.2955"/>
<polygon fill="#000000" stroke="#000000" points="147.5102,-111.5171 137.4603,-108.1628 143.225,-117.0521 147.5102,-111.5171"/>
<g id="a_edge8&#45;headlabel"><a xlink:href="dir_000020_000008.html" target="_top" xlink:title="21">
<text text-anchor="middle" x="152.0906" y="-108.9725" font-family="Helvetica,sans-Serif" font-size="10.00" fill="#000000">21</text>
</a>
</g>
</g>
<!-- dir_404558507ed35459f0d7a6d81d8c508d&#45;&gt;dir_fb1b1bc11a768ab8cf63a96a73170118 -->
<g id="edge9" class="edge">
<title>dir_404558507ed35459f0d7a6d81d8c508d&#45;&gt;dir_fb1b1bc11a768ab8cf63a96a73170118</title>
<path fill="none" stroke="#000000" d="M98.4586,-71.8314C93.4854,-63.8771 88.2571,-54.369 83.9692,-45.5723"/>
<polygon fill="#000000" stroke="#000000" points="87.1105,-44.0262 79.7421,-36.4133 80.7547,-46.9596 87.1105,-44.0262"/>
<g id="a_edge9&#45;headlabel"><a xlink:href="dir_000008_000034.html" target="_top" xlink:title="1">
<text text-anchor="middle" x="91.1947" y="-43.6003" font-family="Helvetica,sans-Serif" font-size="10.00" fill="#000000">1</text>
</a>
</g>
</g>
<!-- dir_fb1b1bc11a768ab8cf63a96a73170118&#45;&gt;dir_404558507ed35459f0d7a6d81d8c508d -->
<g id="edge16" class="edge">
<title>dir_fb1b1bc11a768ab8cf63a96a73170118&#45;&gt;dir_404558507ed35459f0d7a6d81d8c508d</title>
<path fill="none" stroke="#000000" d="M91.6941,-36.4133C96.6725,-44.3991 101.8936,-53.9155 106.1621,-62.6975"/>
<polygon fill="#000000" stroke="#000000" points="103.0048,-64.2089 110.3634,-71.8314 109.3643,-61.2837 103.0048,-64.2089"/>
<g id="a_edge16&#45;headlabel"><a xlink:href="dir_000034_000008.html" target="_top" xlink:title="1">
<text text-anchor="middle" x="98.9232" y="-59.6297" font-family="Helvetica,sans-Serif" font-size="10.00" fill="#000000">1</text>
</a>
</g>
</g>
<!-- dir_039190d3b4246b6bdd648b90e06580e6&#45;&gt;dir_63946bee875c6d52bce55e72a67a86ad -->
<g id="edge17" class="edge">
<title>dir_039190d3b4246b6bdd648b90e06580e6&#45;&gt;dir_63946bee875c6d52bce55e72a67a86ad</title>
<path fill="none" stroke="#000000" d="M211.6165,-359.8314C205.0514,-351.5386 197.1493,-341.557 189.9422,-332.4533"/>
<polygon fill="#000000" stroke="#000000" points="192.5284,-330.0813 183.5772,-324.4133 187.0401,-334.4262 192.5284,-330.0813"/>
<g id="a_edge17&#45;headlabel"><a xlink:href="dir_000011_000005.html" target="_top" xlink:title="4">
<text text-anchor="middle" x="196.9857" y="-328.6373" font-family="Helvetica,sans-Serif" font-size="10.00" fill="#000000">4</text>
</a>
</g>
</g>
<!-- dir_039190d3b4246b6bdd648b90e06580e6&#45;&gt;dir_6cd4295f6ad5aa17e5b568d0e5b190e5 -->
<g id="edge18" class="edge">
<title>dir_039190d3b4246b6bdd648b90e06580e6&#45;&gt;dir_6cd4295f6ad5aa17e5b568d0e5b190e5</title>
<path fill="none" stroke="#000000" d="M232.8195,-359.7996C236.3281,-349.4645 240.2317,-336.1925 242,-324 248.8895,-276.497 255.6123,-262.0294 242,-216 239.1312,-206.2994 233.9132,-196.7055 228.3667,-188.3563"/>
<polygon fill="#000000" stroke="#000000" points="231.1909,-186.2881 222.5525,-180.1538 225.4801,-190.3362 231.1909,-186.2881"/>
<g id="a_edge18&#45;headlabel"><a xlink:href="dir_000011_000020.html" target="_top" xlink:title="8">
<text text-anchor="middle" x="235.5859" y="-185.0787" font-family="Helvetica,sans-Serif" font-size="10.00" fill="#000000">8</text>
</a>
</g>
</g>
<!-- dir_039190d3b4246b6bdd648b90e06580e6&#45;&gt;dir_404558507ed35459f0d7a6d81d8c508d -->
<g id="edge19" class="edge">
<title>dir_039190d3b4246b6bdd648b90e06580e6&#45;&gt;dir_404558507ed35459f0d7a6d81d8c508d</title>
<path fill="none" stroke="#000000" d="M240.1628,-359.6219C246.9608,-349.6614 254.3972,-336.7974 258,-324 279.7544,-246.7265 294.5016,-205.5795 243,-144 220.0102,-116.5115 180.6487,-102.7698 151.436,-96.061"/>
<polygon fill="#000000" stroke="#000000" points="152.0781,-92.6194 141.5698,-93.9703 150.627,-99.4673 152.0781,-92.6194"/>
<g id="a_edge19&#45;headlabel"><a xlink:href="dir_000011_000008.html" target="_top" xlink:title="14">
<text text-anchor="middle" x="156.1832" y="-88.0869" font-family="Helvetica,sans-Serif" font-size="10.00" fill="#000000">14</text>
</a>
</g>
</g>
</g>
</svg>
