<?xml version="1.0" encoding="UTF-8" standalone="no"?>
<!DOCTYPE svg PUBLIC "-//W3C//DTD SVG 1.1//EN"
 "http://www.w3.org/Graphics/SVG/1.1/DTD/svg11.dtd">
<!-- Generated by graphviz version 2.40.1 (20161225.0304)
 -->
<!-- Title: include/tvm/relax Pages: 1 -->
<svg width="588pt" height="536pt"
 viewBox="0.00 0.00 588.00 536.06" xmlns="http://www.w3.org/2000/svg" xmlns:xlink="http://www.w3.org/1999/xlink">
<g id="graph0" class="graph" transform="scale(1 1) rotate(0) translate(4 532.0583)">
<title>include/tvm/relax</title>
<polygon fill="#ffffff" stroke="transparent" points="-4,4 -4,-532.0583 584,-532.0583 584,4 -4,4"/>
<g id="clust1" class="cluster">
<title>clusterdir_b4c7d8e826c599ba55146c099a14beb5</title>
<g id="a_clust1"><a xlink:href="dir_b4c7d8e826c599ba55146c099a14beb5.html" target="_top" xlink:title="tvm">
<polygon fill="#ddddee" stroke="#000000" points="198,-416 198,-503 356,-503 356,-416 198,-416"/>
<text text-anchor="middle" x="277" y="-491" font-family="Helvetica,sans-Serif" font-size="10.00" fill="#000000">tvm</text>
</a>
</g>
</g>
<g id="clust2" class="cluster">
<title>clusterdir_039190d3b4246b6bdd648b90e06580e6</title>
<g id="a_clust2"><a xlink:href="dir_039190d3b4246b6bdd648b90e06580e6.html" target="_top">
<polygon fill="#eeeeff" stroke="#000000" points="206,-424 206,-476 348,-476 348,-424 206,-424"/>
</a>
</g>
</g>
<!-- dir_039190d3b4246b6bdd648b90e06580e6 -->
<g id="node1" class="node">
<title>dir_039190d3b4246b6bdd648b90e06580e6</title>
<text text-anchor="middle" x="241" y="-447.5" font-family="Helvetica,sans-Serif" font-size="10.00" fill="#000000">relax</text>
</g>
<!-- dir_63946bee875c6d52bce55e72a67a86ad -->
<g id="node3" class="node">
<title>dir_63946bee875c6d52bce55e72a67a86ad</title>
<g id="a_node3"><a xlink:href="dir_63946bee875c6d52bce55e72a67a86ad.html" target="_top" xlink:title="relay">
<polygon fill="#ffffff" stroke="#ff0000" points="522,-468 468,-468 468,-432 522,-432 522,-468"/>
<text text-anchor="middle" x="495" y="-447.5" font-family="Helvetica,sans-Serif" font-size="10.00" fill="#000000">relay</text>
</a>
</g>
</g>
<!-- dir_039190d3b4246b6bdd648b90e06580e6&#45;&gt;dir_63946bee875c6d52bce55e72a67a86ad -->
<g id="edge26" class="edge">
<title>dir_039190d3b4246b6bdd648b90e06580e6&#45;&gt;dir_63946bee875c6d52bce55e72a67a86ad</title>
<path fill="none" stroke="#000000" d="M246.7294,-468.0384C253.2342,-485.1355 265.6695,-509.8155 286,-521 308.1962,-533.2109 318.269,-526.4912 343,-521 385.0014,-511.6741 429.1408,-489.4706 458.9661,-472.3562"/>
<polygon fill="#000000" stroke="#000000" points="460.8753,-475.2944 467.7444,-467.2281 457.3443,-469.2501 460.8753,-475.2944"/>
<g id="a_edge26&#45;headlabel"><a xlink:href="dir_000011_000005.html" target="_top" xlink:title="4">
<text text-anchor="middle" x="459.2036" y="-477.0591" font-family="Helvetica,sans-Serif" font-size="10.00" fill="#000000">4</text>
</a>
</g>
</g>
<!-- dir_194ecda214f05a38134392ac6a69b970 -->
<g id="node4" class="node">
<title>dir_194ecda214f05a38134392ac6a69b970</title>
<g id="a_node4"><a xlink:href="dir_194ecda214f05a38134392ac6a69b970.html" target="_top" xlink:title="arith">
<polygon fill="none" stroke="#000000" points="268,-324 214,-324 214,-288 268,-288 268,-324"/>
<text text-anchor="middle" x="241" y="-303.5" font-family="Helvetica,sans-Serif" font-size="10.00" fill="#000000">arith</text>
</a>
</g>
</g>
<!-- dir_039190d3b4246b6bdd648b90e06580e6&#45;&gt;dir_194ecda214f05a38134392ac6a69b970 -->
<g id="edge27" class="edge">
<title>dir_039190d3b4246b6bdd648b90e06580e6&#45;&gt;dir_194ecda214f05a38134392ac6a69b970</title>
<path fill="none" stroke="#000000" d="M241,-431.7623C241,-407.201 241,-363.2474 241,-334.3541"/>
<polygon fill="#000000" stroke="#000000" points="244.5001,-334.0896 241,-324.0896 237.5001,-334.0897 244.5001,-334.0896"/>
<g id="a_edge27&#45;headlabel"><a xlink:href="dir_000011_000002.html" target="_top" xlink:title="2">
<text text-anchor="middle" x="247.3393" y="-335.1842" font-family="Helvetica,sans-Serif" font-size="10.00" fill="#000000">2</text>
</a>
</g>
</g>
<!-- dir_f97d855a3173728370e632aa77170e34 -->
<g id="node5" class="node">
<title>dir_f97d855a3173728370e632aa77170e34</title>
<g id="a_node5"><a xlink:href="dir_f97d855a3173728370e632aa77170e34.html" target="_top" xlink:title="te">
<polygon fill="none" stroke="#000000" points="378,-396 324,-396 324,-360 378,-360 378,-396"/>
<text text-anchor="middle" x="351" y="-375.5" font-family="Helvetica,sans-Serif" font-size="10.00" fill="#000000">te</text>
</a>
</g>
</g>
<!-- dir_039190d3b4246b6bdd648b90e06580e6&#45;&gt;dir_f97d855a3173728370e632aa77170e34 -->
<g id="edge28" class="edge">
<title>dir_039190d3b4246b6bdd648b90e06580e6&#45;&gt;dir_f97d855a3173728370e632aa77170e34</title>
<path fill="none" stroke="#000000" d="M258.0773,-431.992C263.7963,-426.4901 270.4025,-420.6665 277,-416 288.6508,-407.7593 302.3324,-400.2187 314.7413,-394.0655"/>
<polygon fill="#000000" stroke="#000000" points="316.4363,-397.134 323.9277,-389.642 313.3993,-390.8272 316.4363,-397.134"/>
<g id="a_edge28&#45;headlabel"><a xlink:href="dir_000011_000037.html" target="_top" xlink:title="2">
<text text-anchor="middle" x="314.4294" y="-398.7517" font-family="Helvetica,sans-Serif" font-size="10.00" fill="#000000">2</text>
</a>
</g>
</g>
<!-- dir_6cd4295f6ad5aa17e5b568d0e5b190e5 -->
<g id="node6" class="node">
<title>dir_6cd4295f6ad5aa17e5b568d0e5b190e5</title>
<g id="a_node6"><a xlink:href="dir_6cd4295f6ad5aa17e5b568d0e5b190e5.html" target="_top" xlink:title="node">
<polygon fill="none" stroke="#000000" points="233,-108 179,-108 179,-72 233,-72 233,-108"/>
<text text-anchor="middle" x="206" y="-87.5" font-family="Helvetica,sans-Serif" font-size="10.00" fill="#000000">node</text>
</a>
</g>
</g>
<!-- dir_039190d3b4246b6bdd648b90e06580e6&#45;&gt;dir_6cd4295f6ad5aa17e5b568d0e5b190e5 -->
<g id="edge29" class="edge">
<title>dir_039190d3b4246b6bdd648b90e06580e6&#45;&gt;dir_6cd4295f6ad5aa17e5b568d0e5b190e5</title>
<path fill="none" stroke="#000000" d="M213.9566,-446.6708C182.9175,-441.4036 132.6205,-428.1962 104,-396 82.0119,-371.2648 89.2576,-356.8204 85,-324 74.194,-240.6998 141.1732,-156.4819 179.8882,-115.5387"/>
<polygon fill="#000000" stroke="#000000" points="182.5693,-117.8006 186.993,-108.1735 177.5313,-112.9407 182.5693,-117.8006"/>
<g id="a_edge29&#45;headlabel"><a xlink:href="dir_000011_000021.html" target="_top" xlink:title="8">
<text text-anchor="middle" x="182.1171" y="-119.8589" font-family="Helvetica,sans-Serif" font-size="10.00" fill="#000000">8</text>
</a>
</g>
</g>
<!-- dir_4378f18824ae7d4ad48f8d7785cd7ac8 -->
<g id="node7" class="node">
<title>dir_4378f18824ae7d4ad48f8d7785cd7ac8</title>
<g id="a_node7"><a xlink:href="dir_4378f18824ae7d4ad48f8d7785cd7ac8.html" target="_top" xlink:title="meta_schedule">
<polygon fill="#ffffff" stroke="#ff0000" points="195.5,-324 104.5,-324 104.5,-288 195.5,-288 195.5,-324"/>
<text text-anchor="middle" x="150" y="-303.5" font-family="Helvetica,sans-Serif" font-size="10.00" fill="#000000">meta_schedule</text>
</a>
</g>
</g>
<!-- dir_039190d3b4246b6bdd648b90e06580e6&#45;&gt;dir_4378f18824ae7d4ad48f8d7785cd7ac8 -->
<g id="edge30" class="edge">
<title>dir_039190d3b4246b6bdd648b90e06580e6&#45;&gt;dir_4378f18824ae7d4ad48f8d7785cd7ac8</title>
<path fill="none" stroke="#000000" d="M229.4748,-431.7623C213.6799,-406.7682 185.1945,-361.6924 166.9619,-332.8409"/>
<polygon fill="#000000" stroke="#000000" points="169.7325,-330.6734 161.4316,-324.0896 163.8151,-334.4129 169.7325,-330.6734"/>
<g id="a_edge30&#45;headlabel"><a xlink:href="dir_000011_000004.html" target="_top" xlink:title="1">
<text text-anchor="middle" x="174.053" y="-329.6953" font-family="Helvetica,sans-Serif" font-size="10.00" fill="#000000">1</text>
</a>
</g>
</g>
<!-- dir_404558507ed35459f0d7a6d81d8c508d -->
<g id="node8" class="node">
<title>dir_404558507ed35459f0d7a6d81d8c508d</title>
<g id="a_node8"><a xlink:href="dir_404558507ed35459f0d7a6d81d8c508d.html" target="_top" xlink:title="runtime">
<polygon fill="#ffffff" stroke="#ff0000" points="297.5,-36 242.5,-36 242.5,0 297.5,0 297.5,-36"/>
<text text-anchor="middle" x="270" y="-15.5" font-family="Helvetica,sans-Serif" font-size="10.00" fill="#000000">runtime</text>
</a>
</g>
</g>
<!-- dir_039190d3b4246b6bdd648b90e06580e6&#45;&gt;dir_404558507ed35459f0d7a6d81d8c508d -->
<g id="edge31" class="edge">
<title>dir_039190d3b4246b6bdd648b90e06580e6&#45;&gt;dir_404558507ed35459f0d7a6d81d8c508d</title>
<path fill="none" stroke="#000000" d="M213.8227,-446.6932C150.7951,-437.3547 0,-404.6989 0,-306 0,-306 0,-306 0,-162 0,-58.0721 157.6703,-28.8917 232.0354,-20.9085"/>
<polygon fill="#000000" stroke="#000000" points="232.7706,-24.3527 242.3741,-19.8781 232.0763,-17.3872 232.7706,-24.3527"/>
<g id="a_edge31&#45;headlabel"><a xlink:href="dir_000011_000008.html" target="_top" xlink:title="14">
<text text-anchor="middle" x="229.4752" y="-25.0344" font-family="Helvetica,sans-Serif" font-size="10.00" fill="#000000">14</text>
</a>
</g>
</g>
<!-- dir_72c2f11201cd7636dc7624de0754daa5 -->
<g id="node10" class="node">
<title>dir_72c2f11201cd7636dc7624de0754daa5</title>
<g id="a_node10"><a xlink:href="dir_72c2f11201cd7636dc7624de0754daa5.html" target="_top" xlink:title="tir">
<polygon fill="#ffffff" stroke="#ff0000" points="323,-252 269,-252 269,-216 323,-216 323,-252"/>
<text text-anchor="middle" x="296" y="-231.5" font-family="Helvetica,sans-Serif" font-size="10.00" fill="#000000">tir</text>
</a>
</g>
</g>
<!-- dir_039190d3b4246b6bdd648b90e06580e6&#45;&gt;dir_72c2f11201cd7636dc7624de0754daa5 -->
<g id="edge32" class="edge">
<title>dir_039190d3b4246b6bdd648b90e06580e6&#45;&gt;dir_72c2f11201cd7636dc7624de0754daa5</title>
<path fill="none" stroke="#000000" d="M246.6523,-431.7454C254.1107,-407.3328 267.4135,-362.6417 277,-324 282.119,-303.3662 287.052,-279.8546 290.6082,-262.0379"/>
<polygon fill="#000000" stroke="#000000" points="294.0839,-262.5025 292.5838,-252.0144 287.216,-261.1488 294.0839,-262.5025"/>
<g id="a_edge32&#45;headlabel"><a xlink:href="dir_000011_000012.html" target="_top" xlink:title="5">
<text text-anchor="middle" x="296.1745" y="-264.0783" font-family="Helvetica,sans-Serif" font-size="10.00" fill="#000000">5</text>
</a>
</g>
</g>
<!-- dir_5b0337bb1f2ae9da0485a728750cd2f3 -->
<g id="node2" class="node">
<title>dir_5b0337bb1f2ae9da0485a728750cd2f3</title>
<g id="a_node2"><a xlink:href="dir_5b0337bb1f2ae9da0485a728750cd2f3.html" target="_top" xlink:title="attrs">
<polygon fill="#ffffff" stroke="#000000" points="340,-468 286,-468 286,-432 340,-432 340,-468"/>
<text text-anchor="middle" x="313" y="-447.5" font-family="Helvetica,sans-Serif" font-size="10.00" fill="#000000">attrs</text>
</a>
</g>
</g>
<!-- dir_dc867ff9a37cad1764f1670dc7eba6c1 -->
<g id="node9" class="node">
<title>dir_dc867ff9a37cad1764f1670dc7eba6c1</title>
<g id="a_node9"><a xlink:href="dir_dc867ff9a37cad1764f1670dc7eba6c1.html" target="_top" xlink:title="ir">
<polygon fill="none" stroke="#000000" points="295,-180 241,-180 241,-144 295,-144 295,-180"/>
<text text-anchor="middle" x="268" y="-159.5" font-family="Helvetica,sans-Serif" font-size="10.00" fill="#000000">ir</text>
</a>
</g>
</g>
<!-- dir_5b0337bb1f2ae9da0485a728750cd2f3&#45;&gt;dir_dc867ff9a37cad1764f1670dc7eba6c1 -->
<g id="edge8" class="edge">
<title>dir_5b0337bb1f2ae9da0485a728750cd2f3&#45;&gt;dir_dc867ff9a37cad1764f1670dc7eba6c1</title>
<path fill="none" stroke="#000000" d="M340.0761,-438.2385C356.9281,-429.3174 377.2004,-415.2824 387,-396 394.249,-381.7363 389.9026,-375.7345 387,-360 374.5716,-292.6274 371.6609,-271.8619 332,-216 324.1638,-204.9628 313.5616,-194.811 303.2421,-186.3604"/>
<polygon fill="#000000" stroke="#000000" points="305.1137,-183.3803 295.0849,-179.9636 300.7941,-188.8886 305.1137,-183.3803"/>
<g id="a_edge8&#45;headlabel"><a xlink:href="dir_000023_000007.html" target="_top" xlink:title="2">
<text text-anchor="middle" x="309.6943" y="-180.8642" font-family="Helvetica,sans-Serif" font-size="10.00" fill="#000000">2</text>
</a>
</g>
</g>
<!-- dir_63946bee875c6d52bce55e72a67a86ad&#45;&gt;dir_f97d855a3173728370e632aa77170e34 -->
<g id="edge1" class="edge">
<title>dir_63946bee875c6d52bce55e72a67a86ad&#45;&gt;dir_f97d855a3173728370e632aa77170e34</title>
<path fill="none" stroke="#000000" d="M467.9147,-436.4574C445.2307,-425.1153 412.6433,-408.8217 387.6319,-396.316"/>
<polygon fill="#000000" stroke="#000000" points="388.963,-393.0684 378.4534,-391.7267 385.8325,-399.3294 388.963,-393.0684"/>
<g id="a_edge1&#45;headlabel"><a xlink:href="dir_000005_000037.html" target="_top" xlink:title="4">
<text text-anchor="middle" x="393.4478" y="-389.6364" font-family="Helvetica,sans-Serif" font-size="10.00" fill="#000000">4</text>
</a>
</g>
</g>
<!-- dir_63946bee875c6d52bce55e72a67a86ad&#45;&gt;dir_6cd4295f6ad5aa17e5b568d0e5b190e5 -->
<g id="edge2" class="edge">
<title>dir_63946bee875c6d52bce55e72a67a86ad&#45;&gt;dir_6cd4295f6ad5aa17e5b568d0e5b190e5</title>
<path fill="none" stroke="#000000" d="M495.5748,-431.9911C495.6655,-413.5159 494.4123,-384.1432 487,-360 476.2562,-325.0054 466.7796,-318.8029 447,-288 398.2647,-212.1042 378.9884,-194.1203 304,-144 284.2913,-130.8272 261.1039,-117.9426 242.2327,-108.0647"/>
<polygon fill="#000000" stroke="#000000" points="243.8395,-104.9554 233.3495,-103.469 240.623,-111.1727 243.8395,-104.9554"/>
<g id="a_edge2&#45;headlabel"><a xlink:href="dir_000005_000021.html" target="_top" xlink:title="5">
<text text-anchor="middle" x="248.3368" y="-101.5853" font-family="Helvetica,sans-Serif" font-size="10.00" fill="#000000">5</text>
</a>
</g>
</g>
<!-- dir_63946bee875c6d52bce55e72a67a86ad&#45;&gt;dir_404558507ed35459f0d7a6d81d8c508d -->
<g id="edge3" class="edge">
<title>dir_63946bee875c6d52bce55e72a67a86ad&#45;&gt;dir_404558507ed35459f0d7a6d81d8c508d</title>
<path fill="none" stroke="#000000" d="M514.7144,-431.5704C539.8242,-405.996 580,-357.0936 580,-306 580,-306 580,-306 580,-162 580,-102.47 389.5936,-47.8027 307.2307,-26.9402"/>
<polygon fill="#000000" stroke="#000000" points="308.0609,-23.5401 297.5104,-24.5083 306.3619,-30.3308 308.0609,-23.5401"/>
<g id="a_edge3&#45;headlabel"><a xlink:href="dir_000005_000008.html" target="_top" xlink:title="6">
<text text-anchor="middle" x="312.2372" y="-19.1581" font-family="Helvetica,sans-Serif" font-size="10.00" fill="#000000">6</text>
</a>
</g>
</g>
<!-- dir_63946bee875c6d52bce55e72a67a86ad&#45;&gt;dir_dc867ff9a37cad1764f1670dc7eba6c1 -->
<g id="edge4" class="edge">
<title>dir_63946bee875c6d52bce55e72a67a86ad&#45;&gt;dir_dc867ff9a37cad1764f1670dc7eba6c1</title>
<path fill="none" stroke="#000000" d="M483.3679,-431.8932C461.9293,-389.7634 414.7775,-283.6187 348,-216 335.2748,-203.1145 318.8759,-192.0431 304.1684,-183.3396"/>
<polygon fill="#000000" stroke="#000000" points="305.6919,-180.1784 295.2774,-178.2315 302.2047,-186.248 305.6919,-180.1784"/>
<g id="a_edge4&#45;headlabel"><a xlink:href="dir_000005_000007.html" target="_top" xlink:title="45">
<text text-anchor="middle" x="310.2231" y="-177.0072" font-family="Helvetica,sans-Serif" font-size="10.00" fill="#000000">45</text>
</a>
</g>
</g>
<!-- dir_63946bee875c6d52bce55e72a67a86ad&#45;&gt;dir_72c2f11201cd7636dc7624de0754daa5 -->
<g id="edge5" class="edge">
<title>dir_63946bee875c6d52bce55e72a67a86ad&#45;&gt;dir_72c2f11201cd7636dc7624de0754daa5</title>
<path fill="none" stroke="#000000" d="M478.3757,-431.9555C443.0386,-393.5997 360.362,-303.8602 319.5887,-259.6038"/>
<polygon fill="#000000" stroke="#000000" points="322.0668,-257.1281 312.717,-252.1451 316.9186,-261.8712 322.0668,-257.1281"/>
<g id="a_edge5&#45;headlabel"><a xlink:href="dir_000005_000012.html" target="_top" xlink:title="4">
<text text-anchor="middle" x="326.5906" y="-255.348" font-family="Helvetica,sans-Serif" font-size="10.00" fill="#000000">4</text>
</a>
</g>
</g>
<!-- dir_194ecda214f05a38134392ac6a69b970&#45;&gt;dir_dc867ff9a37cad1764f1670dc7eba6c1 -->
<g id="edge6" class="edge">
<title>dir_194ecda214f05a38134392ac6a69b970&#45;&gt;dir_dc867ff9a37cad1764f1670dc7eba6c1</title>
<path fill="none" stroke="#000000" d="M244.4196,-287.7623C249.0451,-263.0928 257.3388,-218.8598 262.755,-189.9731"/>
<polygon fill="#000000" stroke="#000000" points="266.2053,-190.5634 264.6082,-180.0896 259.3252,-189.2733 266.2053,-190.5634"/>
<g id="a_edge6&#45;headlabel"><a xlink:href="dir_000002_000007.html" target="_top" xlink:title="7">
<text text-anchor="middle" x="268.3336" y="-192.1196" font-family="Helvetica,sans-Serif" font-size="10.00" fill="#000000">7</text>
</a>
</g>
</g>
<!-- dir_194ecda214f05a38134392ac6a69b970&#45;&gt;dir_72c2f11201cd7636dc7624de0754daa5 -->
<g id="edge7" class="edge">
<title>dir_194ecda214f05a38134392ac6a69b970&#45;&gt;dir_72c2f11201cd7636dc7624de0754daa5</title>
<path fill="none" stroke="#000000" d="M248.9264,-287.8314C254.5094,-279.454 262.0357,-269.3531 269.4838,-260.1749"/>
<polygon fill="#000000" stroke="#000000" points="272.2404,-262.3344 275.9583,-252.4133 266.865,-257.8504 272.2404,-262.3344"/>
<g id="a_edge7&#45;headlabel"><a xlink:href="dir_000002_000012.html" target="_top" xlink:title="7">
<text text-anchor="middle" x="272.1181" y="-264.4134" font-family="Helvetica,sans-Serif" font-size="10.00" fill="#000000">7</text>
</a>
</g>
</g>
<!-- dir_f97d855a3173728370e632aa77170e34&#45;&gt;dir_194ecda214f05a38134392ac6a69b970 -->
<g id="edge9" class="edge">
<title>dir_f97d855a3173728370e632aa77170e34&#45;&gt;dir_194ecda214f05a38134392ac6a69b970</title>
<path fill="none" stroke="#000000" d="M323.809,-360.2022C309.6622,-350.9425 292.1843,-339.5025 276.937,-329.5224"/>
<polygon fill="#000000" stroke="#000000" points="278.5433,-326.3907 268.2594,-323.8425 274.7097,-332.2476 278.5433,-326.3907"/>
<g id="a_edge9&#45;headlabel"><a xlink:href="dir_000037_000002.html" target="_top" xlink:title="2">
<text text-anchor="middle" x="283.1058" y="-323.4837" font-family="Helvetica,sans-Serif" font-size="10.00" fill="#000000">2</text>
</a>
</g>
</g>
<!-- dir_f97d855a3173728370e632aa77170e34&#45;&gt;dir_404558507ed35459f0d7a6d81d8c508d -->
<g id="edge10" class="edge">
<title>dir_f97d855a3173728370e632aa77170e34&#45;&gt;dir_404558507ed35459f0d7a6d81d8c508d</title>
<path fill="none" stroke="#000000" d="M351.8789,-359.9003C353.5727,-311.2219 353.8924,-174.2742 311,-72 306.8345,-62.0676 300.4089,-52.3368 293.871,-43.9324"/>
<polygon fill="#000000" stroke="#000000" points="296.4228,-41.5245 287.3752,-36.0117 291.0102,-45.9634 296.4228,-41.5245"/>
<g id="a_edge10&#45;headlabel"><a xlink:href="dir_000037_000008.html" target="_top" xlink:title="1">
<text text-anchor="middle" x="300.8976" y="-40.0035" font-family="Helvetica,sans-Serif" font-size="10.00" fill="#000000">1</text>
</a>
</g>
</g>
<!-- dir_f97d855a3173728370e632aa77170e34&#45;&gt;dir_72c2f11201cd7636dc7624de0754daa5 -->
<g id="edge11" class="edge">
<title>dir_f97d855a3173728370e632aa77170e34&#45;&gt;dir_72c2f11201cd7636dc7624de0754daa5</title>
<path fill="none" stroke="#000000" d="M344.0342,-359.7623C334.5705,-334.9846 317.5689,-290.4714 306.5393,-261.5939"/>
<polygon fill="#000000" stroke="#000000" points="309.747,-260.1826 302.9092,-252.0896 303.2077,-262.6803 309.747,-260.1826"/>
<g id="a_edge11&#45;headlabel"><a xlink:href="dir_000037_000012.html" target="_top" xlink:title="10">
<text text-anchor="middle" x="313.6819" y="-260.0275" font-family="Helvetica,sans-Serif" font-size="10.00" fill="#000000">10</text>
</a>
</g>
</g>
<!-- dir_6cd4295f6ad5aa17e5b568d0e5b190e5&#45;&gt;dir_404558507ed35459f0d7a6d81d8c508d -->
<g id="edge12" class="edge">
<title>dir_6cd4295f6ad5aa17e5b568d0e5b190e5&#45;&gt;dir_404558507ed35459f0d7a6d81d8c508d</title>
<path fill="none" stroke="#000000" d="M222.1499,-71.8314C229.6717,-63.3694 238.7565,-53.1489 246.9804,-43.8971"/>
<polygon fill="#000000" stroke="#000000" points="249.6049,-46.2127 253.6327,-36.4133 244.373,-41.5621 249.6049,-46.2127"/>
<g id="a_edge12&#45;headlabel"><a xlink:href="dir_000021_000008.html" target="_top" xlink:title="20">
<text text-anchor="middle" x="249.3389" y="-48.2856" font-family="Helvetica,sans-Serif" font-size="10.00" fill="#000000">20</text>
</a>
</g>
</g>
<!-- dir_4378f18824ae7d4ad48f8d7785cd7ac8&#45;&gt;dir_6cd4295f6ad5aa17e5b568d0e5b190e5 -->
<g id="edge13" class="edge">
<title>dir_4378f18824ae7d4ad48f8d7785cd7ac8&#45;&gt;dir_6cd4295f6ad5aa17e5b568d0e5b190e5</title>
<path fill="none" stroke="#000000" d="M154.6782,-287.9555C164.4576,-250.235 187.121,-162.8188 198.7822,-117.8399"/>
<polygon fill="#000000" stroke="#000000" points="202.174,-118.7034 201.2957,-108.1451 195.398,-116.9466 202.174,-118.7034"/>
<g id="a_edge13&#45;headlabel"><a xlink:href="dir_000004_000021.html" target="_top" xlink:title="18">
<text text-anchor="middle" x="204.0204" y="-120.3955" font-family="Helvetica,sans-Serif" font-size="10.00" fill="#000000">18</text>
</a>
</g>
</g>
<!-- dir_4378f18824ae7d4ad48f8d7785cd7ac8&#45;&gt;dir_404558507ed35459f0d7a6d81d8c508d -->
<g id="edge14" class="edge">
<title>dir_4378f18824ae7d4ad48f8d7785cd7ac8&#45;&gt;dir_404558507ed35459f0d7a6d81d8c508d</title>
<path fill="none" stroke="#000000" d="M146.1492,-287.7279C138.3585,-245.7008 125.0555,-140.5306 170,-72 184.2628,-50.2523 210.3494,-36.5839 232.3026,-28.4405"/>
<polygon fill="#000000" stroke="#000000" points="233.7306,-31.6502 242.041,-25.0785 231.4462,-25.0335 233.7306,-31.6502"/>
<g id="a_edge14&#45;headlabel"><a xlink:href="dir_000004_000008.html" target="_top" xlink:title="70">
<text text-anchor="middle" x="231.2593" y="-33.0071" font-family="Helvetica,sans-Serif" font-size="10.00" fill="#000000">70</text>
</a>
</g>
</g>
<!-- dir_4378f18824ae7d4ad48f8d7785cd7ac8&#45;&gt;dir_dc867ff9a37cad1764f1670dc7eba6c1 -->
<g id="edge15" class="edge">
<title>dir_4378f18824ae7d4ad48f8d7785cd7ac8&#45;&gt;dir_dc867ff9a37cad1764f1670dc7eba6c1</title>
<path fill="none" stroke="#000000" d="M164.9448,-287.7623C185.6033,-262.5518 223.004,-216.9103 246.6165,-188.0952"/>
<polygon fill="#000000" stroke="#000000" points="249.5455,-190.0428 253.1766,-180.0896 244.1311,-185.606 249.5455,-190.0428"/>
<g id="a_edge15&#45;headlabel"><a xlink:href="dir_000004_000007.html" target="_top" xlink:title="11">
<text text-anchor="middle" x="249.4633" y="-192.1227" font-family="Helvetica,sans-Serif" font-size="10.00" fill="#000000">11</text>
</a>
</g>
</g>
<!-- dir_4378f18824ae7d4ad48f8d7785cd7ac8&#45;&gt;dir_72c2f11201cd7636dc7624de0754daa5 -->
<g id="edge16" class="edge">
<title>dir_4378f18824ae7d4ad48f8d7785cd7ac8&#45;&gt;dir_72c2f11201cd7636dc7624de0754daa5</title>
<path fill="none" stroke="#000000" d="M186.842,-287.8314C209.1645,-276.823 237.5219,-262.8385 259.7387,-251.8823"/>
<polygon fill="#000000" stroke="#000000" points="261.428,-254.9517 268.8487,-247.3897 258.3319,-248.6736 261.428,-254.9517"/>
<g id="a_edge16&#45;headlabel"><a xlink:href="dir_000004_000012.html" target="_top" xlink:title="13">
<text text-anchor="middle" x="259.4599" y="-256.588" font-family="Helvetica,sans-Serif" font-size="10.00" fill="#000000">13</text>
</a>
</g>
</g>
<!-- dir_404558507ed35459f0d7a6d81d8c508d&#45;&gt;dir_dc867ff9a37cad1764f1670dc7eba6c1 -->
<g id="edge17" class="edge">
<title>dir_404558507ed35459f0d7a6d81d8c508d&#45;&gt;dir_dc867ff9a37cad1764f1670dc7eba6c1</title>
<path fill="none" stroke="#000000" d="M274.407,-36.0896C276.5356,-60.5727 276.2088,-104.5174 273.9052,-133.4713"/>
<polygon fill="#000000" stroke="#000000" points="270.389,-133.4758 272.9265,-143.7623 277.3576,-134.1386 270.389,-133.4758"/>
<g id="a_edge17&#45;headlabel"><a xlink:href="dir_000008_000007.html" target="_top" xlink:title="1">
<text text-anchor="middle" x="267.9027" y="-127.1286" font-family="Helvetica,sans-Serif" font-size="10.00" fill="#000000">1</text>
</a>
</g>
</g>
<!-- dir_dc867ff9a37cad1764f1670dc7eba6c1&#45;&gt;dir_039190d3b4246b6bdd648b90e06580e6 -->
<g id="edge21" class="edge">
<title>dir_dc867ff9a37cad1764f1670dc7eba6c1&#45;&gt;dir_039190d3b4246b6bdd648b90e06580e6</title>
<path fill="none" stroke="#000000" d="M240.9061,-172.1963C200.3345,-189.1379 125.3258,-227.3485 95,-288 64.0121,-349.9758 151.9458,-406.1328 204.6064,-433.1168"/>
<polygon fill="#000000" stroke="#000000" points="203.168,-436.3107 213.677,-437.6567 206.3011,-430.051 203.168,-436.3107"/>
<g id="a_edge21&#45;headlabel"><a xlink:href="dir_000007_000011.html" target="_top" xlink:title="1">
<text text-anchor="middle" x="198.6828" y="-434.7409" font-family="Helvetica,sans-Serif" font-size="10.00" fill="#000000">1</text>
</a>
</g>
</g>
<!-- dir_dc867ff9a37cad1764f1670dc7eba6c1&#45;&gt;dir_63946bee875c6d52bce55e72a67a86ad -->
<g id="edge18" class="edge">
<title>dir_dc867ff9a37cad1764f1670dc7eba6c1&#45;&gt;dir_63946bee875c6d52bce55e72a67a86ad</title>
<path fill="none" stroke="#000000" d="M295.2047,-170.7492C316.7358,-179.8745 345.935,-195.6823 366,-216 428.0822,-278.8643 473.2016,-375.0273 489.4132,-422.0927"/>
<polygon fill="#000000" stroke="#000000" points="486.1771,-423.4599 492.5903,-431.8932 492.8359,-421.3012 486.1771,-423.4599"/>
<g id="a_edge18&#45;headlabel"><a xlink:href="dir_000007_000005.html" target="_top" xlink:title="2">
<text text-anchor="middle" x="482.3678" y="-418.416" font-family="Helvetica,sans-Serif" font-size="10.00" fill="#000000">2</text>
</a>
</g>
</g>
<!-- dir_dc867ff9a37cad1764f1670dc7eba6c1&#45;&gt;dir_6cd4295f6ad5aa17e5b568d0e5b190e5 -->
<g id="edge19" class="edge">
<title>dir_dc867ff9a37cad1764f1670dc7eba6c1&#45;&gt;dir_6cd4295f6ad5aa17e5b568d0e5b190e5</title>
<path fill="none" stroke="#000000" d="M252.3548,-143.8314C245.1409,-135.454 236.443,-125.3531 228.5395,-116.1749"/>
<polygon fill="#000000" stroke="#000000" points="231.0333,-113.7071 221.8559,-108.4133 225.7289,-118.2748 231.0333,-113.7071"/>
<g id="a_edge19&#45;headlabel"><a xlink:href="dir_000007_000021.html" target="_top" xlink:title="10">
<text text-anchor="middle" x="235.5304" y="-112.0783" font-family="Helvetica,sans-Serif" font-size="10.00" fill="#000000">10</text>
</a>
</g>
</g>
<!-- dir_dc867ff9a37cad1764f1670dc7eba6c1&#45;&gt;dir_404558507ed35459f0d7a6d81d8c508d -->
<g id="edge20" class="edge">
<title>dir_dc867ff9a37cad1764f1670dc7eba6c1&#45;&gt;dir_404558507ed35459f0d7a6d81d8c508d</title>
<path fill="none" stroke="#000000" d="M263.5801,-143.7623C261.4615,-119.201 261.7972,-75.2474 264.1088,-46.3541"/>
<polygon fill="#000000" stroke="#000000" points="267.6224,-46.3774 265.0905,-36.0896 260.6542,-45.7109 267.6224,-46.3774"/>
<g id="a_edge20&#45;headlabel"><a xlink:href="dir_000007_000008.html" target="_top" xlink:title="22">
<text text-anchor="middle" x="270.1067" y="-47.726" font-family="Helvetica,sans-Serif" font-size="10.00" fill="#000000">22</text>
</a>
</g>
</g>
<!-- dir_72c2f11201cd7636dc7624de0754daa5&#45;&gt;dir_194ecda214f05a38134392ac6a69b970 -->
<g id="edge22" class="edge">
<title>dir_72c2f11201cd7636dc7624de0754daa5&#45;&gt;dir_194ecda214f05a38134392ac6a69b970</title>
<path fill="none" stroke="#000000" d="M287.9103,-252.4133C282.2898,-260.8239 274.7456,-270.9323 267.2991,-280.0923"/>
<polygon fill="#000000" stroke="#000000" points="264.5584,-277.9138 260.8312,-287.8314 269.9296,-282.4027 264.5584,-277.9138"/>
<g id="a_edge22&#45;headlabel"><a xlink:href="dir_000012_000002.html" target="_top" xlink:title="1">
<text text-anchor="middle" x="264.6849" y="-270.8348" font-family="Helvetica,sans-Serif" font-size="10.00" fill="#000000">1</text>
</a>
</g>
</g>
<!-- dir_72c2f11201cd7636dc7624de0754daa5&#45;&gt;dir_6cd4295f6ad5aa17e5b568d0e5b190e5 -->
<g id="edge23" class="edge">
<title>dir_72c2f11201cd7636dc7624de0754daa5&#45;&gt;dir_6cd4295f6ad5aa17e5b568d0e5b190e5</title>
<path fill="none" stroke="#000000" d="M268.7213,-216.6258C255.9081,-207.2012 241.4168,-194.5125 232,-180 219.8809,-161.323 213.2883,-136.8852 209.7771,-118.1884"/>
<polygon fill="#000000" stroke="#000000" points="213.2062,-117.4746 208.0876,-108.1982 206.3042,-118.6419 213.2062,-117.4746"/>
<g id="a_edge23&#45;headlabel"><a xlink:href="dir_000012_000021.html" target="_top" xlink:title="6">
<text text-anchor="middle" x="216.605" y="-118.0455" font-family="Helvetica,sans-Serif" font-size="10.00" fill="#000000">6</text>
</a>
</g>
</g>
<!-- dir_72c2f11201cd7636dc7624de0754daa5&#45;&gt;dir_404558507ed35459f0d7a6d81d8c508d -->
<g id="edge24" class="edge">
<title>dir_72c2f11201cd7636dc7624de0754daa5&#45;&gt;dir_404558507ed35459f0d7a6d81d8c508d</title>
<path fill="none" stroke="#000000" d="M299.415,-215.5804C301.1709,-205.1767 303.1226,-191.9092 304,-180 307.5484,-131.8351 305.1615,-118.4674 292,-72 289.5016,-63.1792 286.0176,-53.8414 282.5581,-45.4563"/>
<polygon fill="#000000" stroke="#000000" points="285.7222,-43.9538 278.5686,-36.1386 279.2872,-46.709 285.7222,-43.9538"/>
<g id="a_edge24&#45;headlabel"><a xlink:href="dir_000012_000008.html" target="_top" xlink:title="15">
<text text-anchor="middle" x="289.747" y="-43.6407" font-family="Helvetica,sans-Serif" font-size="10.00" fill="#000000">15</text>
</a>
</g>
</g>
<!-- dir_72c2f11201cd7636dc7624de0754daa5&#45;&gt;dir_dc867ff9a37cad1764f1670dc7eba6c1 -->
<g id="edge25" class="edge">
<title>dir_72c2f11201cd7636dc7624de0754daa5&#45;&gt;dir_dc867ff9a37cad1764f1670dc7eba6c1</title>
<path fill="none" stroke="#000000" d="M288.9344,-215.8314C285.874,-207.9617 282.2221,-198.5712 278.8318,-189.8533"/>
<polygon fill="#000000" stroke="#000000" points="282.0473,-188.4647 275.1607,-180.4133 275.5232,-191.0019 282.0473,-188.4647"/>
<g id="a_edge25&#45;headlabel"><a xlink:href="dir_000012_000007.html" target="_top" xlink:title="16">
<text text-anchor="middle" x="285.9963" y="-188.2859" font-family="Helvetica,sans-Serif" font-size="10.00" fill="#000000">16</text>
</a>
</g>
</g>
</g>
</svg>
