<?xml version="1.0" encoding="UTF-8" standalone="no"?>
<!DOCTYPE svg PUBLIC "-//W3C//DTD SVG 1.1//EN"
 "http://www.w3.org/Graphics/SVG/1.1/DTD/svg11.dtd">
<!-- Generated by graphviz version 2.40.1 (20161225.0304)
 -->
<!-- Title: include/tvm/script Pages: 1 -->
<svg width="318pt" height="447pt"
 viewBox="0.00 0.00 318.00 447.00" xmlns="http://www.w3.org/2000/svg" xmlns:xlink="http://www.w3.org/1999/xlink">
<g id="graph0" class="graph" transform="scale(1 1) rotate(0) translate(4 443)">
<title>include/tvm/script</title>
<polygon fill="#ffffff" stroke="transparent" points="-4,4 -4,-443 314,-443 314,4 -4,4"/>
<g id="clust1" class="cluster">
<title>clusterdir_b4c7d8e826c599ba55146c099a14beb5</title>
<g id="a_clust1"><a xlink:href="dir_b4c7d8e826c599ba55146c099a14beb5.html" target="_top" xlink:title="tvm">
<polygon fill="#ddddee" stroke="#000000" points="33,-344 33,-431 271,-431 271,-344 33,-344"/>
<text text-anchor="middle" x="152" y="-419" font-family="Helvetica,sans-Serif" font-size="10.00" fill="#000000">tvm</text>
</a>
</g>
</g>
<g id="clust2" class="cluster">
<title>clusterdir_84875704194fd544d29fe0c7fedd8939</title>
<g id="a_clust2"><a xlink:href="dir_84875704194fd544d29fe0c7fedd8939.html" target="_top">
<polygon fill="#eeeeff" stroke="#000000" points="41,-352 41,-404 263,-404 263,-352 41,-352"/>
</a>
</g>
</g>
<!-- dir_84875704194fd544d29fe0c7fedd8939 -->
<g id="node1" class="node">
<title>dir_84875704194fd544d29fe0c7fedd8939</title>
<text text-anchor="middle" x="228" y="-375.5" font-family="Helvetica,sans-Serif" font-size="10.00" fill="#000000">script</text>
</g>
<!-- dir_9e615ec4a59e46584bcc4e2226e148a2 -->
<g id="node2" class="node">
<title>dir_9e615ec4a59e46584bcc4e2226e148a2</title>
<g id="a_node2"><a xlink:href="dir_9e615ec4a59e46584bcc4e2226e148a2.html" target="_top" xlink:title="ir_builder">
<polygon fill="#ffffff" stroke="#ff0000" points="183,-396 121,-396 121,-360 183,-360 183,-396"/>
<text text-anchor="middle" x="152" y="-375.5" font-family="Helvetica,sans-Serif" font-size="10.00" fill="#000000">ir_builder</text>
</a>
</g>
</g>
<!-- dir_6cd4295f6ad5aa17e5b568d0e5b190e5 -->
<g id="node4" class="node">
<title>dir_6cd4295f6ad5aa17e5b568d0e5b190e5</title>
<g id="a_node4"><a xlink:href="dir_6cd4295f6ad5aa17e5b568d0e5b190e5.html" target="_top" xlink:title="node">
<polygon fill="none" stroke="#000000" points="196,-108 142,-108 142,-72 196,-72 196,-108"/>
<text text-anchor="middle" x="169" y="-87.5" font-family="Helvetica,sans-Serif" font-size="10.00" fill="#000000">node</text>
</a>
</g>
</g>
<!-- dir_9e615ec4a59e46584bcc4e2226e148a2&#45;&gt;dir_6cd4295f6ad5aa17e5b568d0e5b190e5 -->
<g id="edge15" class="edge">
<title>dir_9e615ec4a59e46584bcc4e2226e148a2&#45;&gt;dir_6cd4295f6ad5aa17e5b568d0e5b190e5</title>
<path fill="none" stroke="#000000" d="M136.0095,-359.9169C128.3462,-350.0371 119.9834,-337.1563 116,-324 111.3635,-308.6865 113.9136,-303.8634 116,-288 124.1438,-226.0812 146.0303,-156.0039 158.9896,-118.0545"/>
<polygon fill="#000000" stroke="#000000" points="162.4246,-118.831 162.3893,-108.2362 155.8099,-116.5406 162.4246,-118.831"/>
<g id="a_edge15&#45;headlabel"><a xlink:href="dir_000025_000020.html" target="_top" xlink:title="3">
<text text-anchor="middle" x="163.9315" y="-120.6567" font-family="Helvetica,sans-Serif" font-size="10.00" fill="#000000">3</text>
</a>
</g>
</g>
<!-- dir_dc867ff9a37cad1764f1670dc7eba6c1 -->
<g id="node6" class="node">
<title>dir_dc867ff9a37cad1764f1670dc7eba6c1</title>
<g id="a_node6"><a xlink:href="dir_dc867ff9a37cad1764f1670dc7eba6c1.html" target="_top" xlink:title="ir">
<polygon fill="none" stroke="#000000" points="179,-324 125,-324 125,-288 179,-288 179,-324"/>
<text text-anchor="middle" x="152" y="-303.5" font-family="Helvetica,sans-Serif" font-size="10.00" fill="#000000">ir</text>
</a>
</g>
</g>
<!-- dir_9e615ec4a59e46584bcc4e2226e148a2&#45;&gt;dir_dc867ff9a37cad1764f1670dc7eba6c1 -->
<g id="edge16" class="edge">
<title>dir_9e615ec4a59e46584bcc4e2226e148a2&#45;&gt;dir_dc867ff9a37cad1764f1670dc7eba6c1</title>
<path fill="none" stroke="#000000" d="M152,-359.8314C152,-352.131 152,-342.9743 152,-334.4166"/>
<polygon fill="#000000" stroke="#000000" points="155.5001,-334.4132 152,-324.4133 148.5001,-334.4133 155.5001,-334.4132"/>
<g id="a_edge16&#45;headlabel"><a xlink:href="dir_000025_000007.html" target="_top" xlink:title="6">
<text text-anchor="middle" x="158.3393" y="-335.5079" font-family="Helvetica,sans-Serif" font-size="10.00" fill="#000000">6</text>
</a>
</g>
</g>
<!-- dir_72c2f11201cd7636dc7624de0754daa5 -->
<g id="node7" class="node">
<title>dir_72c2f11201cd7636dc7624de0754daa5</title>
<g id="a_node7"><a xlink:href="dir_72c2f11201cd7636dc7624de0754daa5.html" target="_top" xlink:title="tir">
<polygon fill="#ffffff" stroke="#ff0000" points="310,-180 256,-180 256,-144 310,-144 310,-180"/>
<text text-anchor="middle" x="283" y="-159.5" font-family="Helvetica,sans-Serif" font-size="10.00" fill="#000000">tir</text>
</a>
</g>
</g>
<!-- dir_9e615ec4a59e46584bcc4e2226e148a2&#45;&gt;dir_72c2f11201cd7636dc7624de0754daa5 -->
<g id="edge17" class="edge">
<title>dir_9e615ec4a59e46584bcc4e2226e148a2&#45;&gt;dir_72c2f11201cd7636dc7624de0754daa5</title>
<path fill="none" stroke="#000000" d="M171.4464,-359.5687C201.1274,-330.9887 255.5094,-276.7056 267,-252 276.0633,-232.5131 280.0151,-208.4581 281.7271,-190.1211"/>
<polygon fill="#000000" stroke="#000000" points="285.2235,-190.3013 282.4979,-180.063 278.2439,-189.7663 285.2235,-190.3013"/>
<g id="a_edge17&#45;headlabel"><a xlink:href="dir_000025_000012.html" target="_top" xlink:title="2">
<text text-anchor="middle" x="287.7798" y="-191.6023" font-family="Helvetica,sans-Serif" font-size="10.00" fill="#000000">2</text>
</a>
</g>
</g>
<!-- dir_039190d3b4246b6bdd648b90e06580e6 -->
<g id="node8" class="node">
<title>dir_039190d3b4246b6bdd648b90e06580e6</title>
<g id="a_node8"><a xlink:href="dir_039190d3b4246b6bdd648b90e06580e6.html" target="_top" xlink:title="relax">
<polygon fill="#ffffff" stroke="#ff0000" points="234,-252 180,-252 180,-216 234,-216 234,-252"/>
<text text-anchor="middle" x="207" y="-231.5" font-family="Helvetica,sans-Serif" font-size="10.00" fill="#000000">relax</text>
</a>
</g>
</g>
<!-- dir_9e615ec4a59e46584bcc4e2226e148a2&#45;&gt;dir_039190d3b4246b6bdd648b90e06580e6 -->
<g id="edge18" class="edge">
<title>dir_9e615ec4a59e46584bcc4e2226e148a2&#45;&gt;dir_039190d3b4246b6bdd648b90e06580e6</title>
<path fill="none" stroke="#000000" d="M166.8853,-359.5185C174.2462,-349.5296 182.672,-336.6716 188,-324 196.3306,-304.1876 201.1533,-280.3321 203.8541,-262.1605"/>
<polygon fill="#000000" stroke="#000000" points="207.3302,-262.5721 205.2095,-252.1917 200.3941,-261.6289 207.3302,-262.5721"/>
<g id="a_edge18&#45;headlabel"><a xlink:href="dir_000025_000011.html" target="_top" xlink:title="4">
<text text-anchor="middle" x="209.6594" y="-264.0164" font-family="Helvetica,sans-Serif" font-size="10.00" fill="#000000">4</text>
</a>
</g>
</g>
<!-- dir_a59a89c7dd2e4e6561fe59bf359ce2f3 -->
<g id="node3" class="node">
<title>dir_a59a89c7dd2e4e6561fe59bf359ce2f3</title>
<g id="a_node3"><a xlink:href="dir_a59a89c7dd2e4e6561fe59bf359ce2f3.html" target="_top" xlink:title="printer">
<polygon fill="#ffffff" stroke="#000000" points="103,-396 49,-396 49,-360 103,-360 103,-396"/>
<text text-anchor="middle" x="76" y="-375.5" font-family="Helvetica,sans-Serif" font-size="10.00" fill="#000000">printer</text>
</a>
</g>
</g>
<!-- dir_a59a89c7dd2e4e6561fe59bf359ce2f3&#45;&gt;dir_6cd4295f6ad5aa17e5b568d0e5b190e5 -->
<g id="edge2" class="edge">
<title>dir_a59a89c7dd2e4e6561fe59bf359ce2f3&#45;&gt;dir_6cd4295f6ad5aa17e5b568d0e5b190e5</title>
<path fill="none" stroke="#000000" d="M78.5928,-359.7633C84.7382,-319.5295 102.1909,-220.647 135,-144 139.0122,-134.6269 144.5337,-125.0142 149.9609,-116.5454"/>
<polygon fill="#000000" stroke="#000000" points="152.8927,-118.4574 155.5152,-108.1922 147.0636,-114.5815 152.8927,-118.4574"/>
<g id="a_edge2&#45;headlabel"><a xlink:href="dir_000033_000020.html" target="_top" xlink:title="3">
<text text-anchor="middle" x="153.2667" y="-120.5228" font-family="Helvetica,sans-Serif" font-size="10.00" fill="#000000">3</text>
</a>
</g>
</g>
<!-- dir_404558507ed35459f0d7a6d81d8c508d -->
<g id="node5" class="node">
<title>dir_404558507ed35459f0d7a6d81d8c508d</title>
<g id="a_node5"><a xlink:href="dir_404558507ed35459f0d7a6d81d8c508d.html" target="_top" xlink:title="runtime">
<polygon fill="#ffffff" stroke="#ff0000" points="196.5,-36 141.5,-36 141.5,0 196.5,0 196.5,-36"/>
<text text-anchor="middle" x="169" y="-15.5" font-family="Helvetica,sans-Serif" font-size="10.00" fill="#000000">runtime</text>
</a>
</g>
</g>
<!-- dir_a59a89c7dd2e4e6561fe59bf359ce2f3&#45;&gt;dir_404558507ed35459f0d7a6d81d8c508d -->
<g id="edge3" class="edge">
<title>dir_a59a89c7dd2e4e6561fe59bf359ce2f3&#45;&gt;dir_404558507ed35459f0d7a6d81d8c508d</title>
<path fill="none" stroke="#000000" d="M58.7544,-359.6186C36.3312,-333.719 0,-284.0348 0,-234 0,-234 0,-234 0,-162 0,-93.1579 82.2506,-50.2853 131.9906,-30.6527"/>
<polygon fill="#000000" stroke="#000000" points="133.3759,-33.8703 141.4711,-27.0352 130.8804,-27.3302 133.3759,-33.8703"/>
<g id="a_edge3&#45;headlabel"><a xlink:href="dir_000033_000008.html" target="_top" xlink:title="2">
<text text-anchor="middle" x="131.0296" y="-35.3044" font-family="Helvetica,sans-Serif" font-size="10.00" fill="#000000">2</text>
</a>
</g>
</g>
<!-- dir_a59a89c7dd2e4e6561fe59bf359ce2f3&#45;&gt;dir_dc867ff9a37cad1764f1670dc7eba6c1 -->
<g id="edge4" class="edge">
<title>dir_a59a89c7dd2e4e6561fe59bf359ce2f3&#45;&gt;dir_dc867ff9a37cad1764f1670dc7eba6c1</title>
<path fill="none" stroke="#000000" d="M95.178,-359.8314C104.3588,-351.1337 115.5006,-340.5783 125.4776,-331.1265"/>
<polygon fill="#000000" stroke="#000000" points="127.9757,-333.5811 132.8281,-324.1628 123.1615,-328.4995 127.9757,-333.5811"/>
<g id="a_edge4&#45;headlabel"><a xlink:href="dir_000033_000007.html" target="_top" xlink:title="2">
<text text-anchor="middle" x="127.3189" y="-335.6145" font-family="Helvetica,sans-Serif" font-size="10.00" fill="#000000">2</text>
</a>
</g>
</g>
<!-- dir_6cd4295f6ad5aa17e5b568d0e5b190e5&#45;&gt;dir_404558507ed35459f0d7a6d81d8c508d -->
<g id="edge1" class="edge">
<title>dir_6cd4295f6ad5aa17e5b568d0e5b190e5&#45;&gt;dir_404558507ed35459f0d7a6d81d8c508d</title>
<path fill="none" stroke="#000000" d="M169,-71.8314C169,-64.131 169,-54.9743 169,-46.4166"/>
<polygon fill="#000000" stroke="#000000" points="172.5001,-46.4132 169,-36.4133 165.5001,-46.4133 172.5001,-46.4132"/>
<g id="a_edge1&#45;headlabel"><a xlink:href="dir_000020_000008.html" target="_top" xlink:title="21">
<text text-anchor="middle" x="175.3393" y="-47.5079" font-family="Helvetica,sans-Serif" font-size="10.00" fill="#000000">21</text>
</a>
</g>
</g>
<!-- dir_dc867ff9a37cad1764f1670dc7eba6c1&#45;&gt;dir_6cd4295f6ad5aa17e5b568d0e5b190e5 -->
<g id="edge5" class="edge">
<title>dir_dc867ff9a37cad1764f1670dc7eba6c1&#45;&gt;dir_6cd4295f6ad5aa17e5b568d0e5b190e5</title>
<path fill="none" stroke="#000000" d="M153.4202,-287.9555C156.3827,-250.3144 163.2399,-163.1867 166.7865,-118.1246"/>
<polygon fill="#000000" stroke="#000000" points="170.2764,-118.3889 167.5719,-108.1451 163.298,-117.8396 170.2764,-118.3889"/>
<g id="a_edge5&#45;headlabel"><a xlink:href="dir_000007_000020.html" target="_top" xlink:title="10">
<text text-anchor="middle" x="172.825" y="-119.6952" font-family="Helvetica,sans-Serif" font-size="10.00" fill="#000000">10</text>
</a>
</g>
</g>
<!-- dir_dc867ff9a37cad1764f1670dc7eba6c1&#45;&gt;dir_404558507ed35459f0d7a6d81d8c508d -->
<g id="edge6" class="edge">
<title>dir_dc867ff9a37cad1764f1670dc7eba6c1&#45;&gt;dir_404558507ed35459f0d7a6d81d8c508d</title>
<path fill="none" stroke="#000000" d="M146.0979,-287.9094C134.0142,-247.967 109.4957,-149.6296 133,-72 135.9564,-62.2355 141.3252,-52.6229 147.03,-44.2762"/>
<polygon fill="#000000" stroke="#000000" points="149.9414,-46.2239 153.0095,-36.0831 144.2871,-42.0973 149.9414,-46.2239"/>
<g id="a_edge6&#45;headlabel"><a xlink:href="dir_000007_000008.html" target="_top" xlink:title="24">
<text text-anchor="middle" x="150.1158" y="-48.3013" font-family="Helvetica,sans-Serif" font-size="10.00" fill="#000000">24</text>
</a>
</g>
</g>
<!-- dir_dc867ff9a37cad1764f1670dc7eba6c1&#45;&gt;dir_039190d3b4246b6bdd648b90e06580e6 -->
<g id="edge7" class="edge">
<title>dir_dc867ff9a37cad1764f1670dc7eba6c1&#45;&gt;dir_039190d3b4246b6bdd648b90e06580e6</title>
<path fill="none" stroke="#000000" d="M159.9264,-287.8314C165.5094,-279.454 173.0357,-269.3531 180.4838,-260.1749"/>
<polygon fill="#000000" stroke="#000000" points="183.2404,-262.3344 186.9583,-252.4133 177.865,-257.8504 183.2404,-262.3344"/>
<g id="a_edge7&#45;headlabel"><a xlink:href="dir_000007_000011.html" target="_top" xlink:title="1">
<text text-anchor="middle" x="183.1181" y="-264.4134" font-family="Helvetica,sans-Serif" font-size="10.00" fill="#000000">1</text>
</a>
</g>
</g>
<!-- dir_72c2f11201cd7636dc7624de0754daa5&#45;&gt;dir_6cd4295f6ad5aa17e5b568d0e5b190e5 -->
<g id="edge8" class="edge">
<title>dir_72c2f11201cd7636dc7624de0754daa5&#45;&gt;dir_6cd4295f6ad5aa17e5b568d0e5b190e5</title>
<path fill="none" stroke="#000000" d="M255.9836,-144.937C240.7616,-135.3231 221.5515,-123.1904 205.0583,-112.7737"/>
<polygon fill="#000000" stroke="#000000" points="206.5414,-109.5708 196.2176,-107.19 202.8035,-115.4892 206.5414,-109.5708"/>
<g id="a_edge8&#45;headlabel"><a xlink:href="dir_000012_000020.html" target="_top" xlink:title="6">
<text text-anchor="middle" x="211.0968" y="-106.5897" font-family="Helvetica,sans-Serif" font-size="10.00" fill="#000000">6</text>
</a>
</g>
</g>
<!-- dir_72c2f11201cd7636dc7624de0754daa5&#45;&gt;dir_404558507ed35459f0d7a6d81d8c508d -->
<g id="edge9" class="edge">
<title>dir_72c2f11201cd7636dc7624de0754daa5&#45;&gt;dir_404558507ed35459f0d7a6d81d8c508d</title>
<path fill="none" stroke="#000000" d="M277.7864,-143.9625C271.5634,-124.6647 259.721,-93.8833 242,-72 231.8436,-59.458 218.136,-48.3113 205.3417,-39.4498"/>
<polygon fill="#000000" stroke="#000000" points="206.9495,-36.3157 196.685,-33.6909 203.0723,-42.1438 206.9495,-36.3157"/>
<g id="a_edge9&#45;headlabel"><a xlink:href="dir_000012_000008.html" target="_top" xlink:title="15">
<text text-anchor="middle" x="211.515" y="-33.4427" font-family="Helvetica,sans-Serif" font-size="10.00" fill="#000000">15</text>
</a>
</g>
</g>
<!-- dir_72c2f11201cd7636dc7624de0754daa5&#45;&gt;dir_dc867ff9a37cad1764f1670dc7eba6c1 -->
<g id="edge10" class="edge">
<title>dir_72c2f11201cd7636dc7624de0754daa5&#45;&gt;dir_dc867ff9a37cad1764f1670dc7eba6c1</title>
<path fill="none" stroke="#000000" d="M278.5363,-180.039C272.9437,-199.6221 261.7455,-230.9151 243,-252 228.1362,-268.7188 206.8226,-281.7506 188.5586,-290.8201"/>
<polygon fill="#000000" stroke="#000000" points="186.8674,-287.7486 179.3359,-295.2003 189.8705,-294.0717 186.8674,-287.7486"/>
<g id="a_edge10&#45;headlabel"><a xlink:href="dir_000012_000007.html" target="_top" xlink:title="16">
<text text-anchor="middle" x="188.8964" y="-281.1418" font-family="Helvetica,sans-Serif" font-size="10.00" fill="#000000">16</text>
</a>
</g>
</g>
<!-- dir_039190d3b4246b6bdd648b90e06580e6&#45;&gt;dir_6cd4295f6ad5aa17e5b568d0e5b190e5 -->
<g id="edge11" class="edge">
<title>dir_039190d3b4246b6bdd648b90e06580e6&#45;&gt;dir_6cd4295f6ad5aa17e5b568d0e5b190e5</title>
<path fill="none" stroke="#000000" d="M202.1873,-215.7623C195.6773,-191.0928 184.0047,-146.8598 176.3818,-117.9731"/>
<polygon fill="#000000" stroke="#000000" points="179.7094,-116.8656 173.7736,-108.0896 172.9411,-118.6517 179.7094,-116.8656"/>
<g id="a_edge11&#45;headlabel"><a xlink:href="dir_000011_000020.html" target="_top" xlink:title="8">
<text text-anchor="middle" x="183.3718" y="-117.1168" font-family="Helvetica,sans-Serif" font-size="10.00" fill="#000000">8</text>
</a>
</g>
</g>
<!-- dir_039190d3b4246b6bdd648b90e06580e6&#45;&gt;dir_404558507ed35459f0d7a6d81d8c508d -->
<g id="edge12" class="edge">
<title>dir_039190d3b4246b6bdd648b90e06580e6&#45;&gt;dir_404558507ed35459f0d7a6d81d8c508d</title>
<path fill="none" stroke="#000000" d="M210.032,-215.9883C214.4509,-185.5264 220.5524,-122.2459 205,-72 201.9833,-62.254 196.597,-52.6467 190.8946,-44.2993"/>
<polygon fill="#000000" stroke="#000000" points="193.641,-42.1252 184.9238,-36.1035 187.9832,-46.247 193.641,-42.1252"/>
<g id="a_edge12&#45;headlabel"><a xlink:href="dir_000011_000008.html" target="_top" xlink:title="14">
<text text-anchor="middle" x="198.0525" y="-40.8587" font-family="Helvetica,sans-Serif" font-size="10.00" fill="#000000">14</text>
</a>
</g>
</g>
<!-- dir_039190d3b4246b6bdd648b90e06580e6&#45;&gt;dir_dc867ff9a37cad1764f1670dc7eba6c1 -->
<g id="edge13" class="edge">
<title>dir_039190d3b4246b6bdd648b90e06580e6&#45;&gt;dir_dc867ff9a37cad1764f1670dc7eba6c1</title>
<path fill="none" stroke="#000000" d="M198.9103,-252.4133C193.2898,-260.8239 185.7456,-270.9323 178.2991,-280.0923"/>
<polygon fill="#000000" stroke="#000000" points="175.5584,-277.9138 171.8312,-287.8314 180.9296,-282.4027 175.5584,-277.9138"/>
<g id="a_edge13&#45;headlabel"><a xlink:href="dir_000011_000007.html" target="_top" xlink:title="17">
<text text-anchor="middle" x="175.6849" y="-270.8348" font-family="Helvetica,sans-Serif" font-size="10.00" fill="#000000">17</text>
</a>
</g>
</g>
<!-- dir_039190d3b4246b6bdd648b90e06580e6&#45;&gt;dir_72c2f11201cd7636dc7624de0754daa5 -->
<g id="edge14" class="edge">
<title>dir_039190d3b4246b6bdd648b90e06580e6&#45;&gt;dir_72c2f11201cd7636dc7624de0754daa5</title>
<path fill="none" stroke="#000000" d="M226.178,-215.8314C235.3588,-207.1337 246.5006,-196.5783 256.4776,-187.1265"/>
<polygon fill="#000000" stroke="#000000" points="258.9757,-189.5811 263.8281,-180.1628 254.1615,-184.4995 258.9757,-189.5811"/>
<g id="a_edge14&#45;headlabel"><a xlink:href="dir_000011_000012.html" target="_top" xlink:title="6">
<text text-anchor="middle" x="258.3189" y="-191.6145" font-family="Helvetica,sans-Serif" font-size="10.00" fill="#000000">6</text>
</a>
</g>
</g>
</g>
</svg>
