<?xml version="1.0" encoding="UTF-8" standalone="no"?>
<!DOCTYPE svg PUBLIC "-//W3C//DTD SVG 1.1//EN"
 "http://www.w3.org/Graphics/SVG/1.1/DTD/svg11.dtd">
<!-- Generated by graphviz version 2.40.1 (20161225.0304)
 -->
<!-- Title: include/tvm/runtime Pages: 1 -->
<svg width="534pt" height="183pt"
 viewBox="0.00 0.00 534.00 183.00" xmlns="http://www.w3.org/2000/svg" xmlns:xlink="http://www.w3.org/1999/xlink">
<g id="graph0" class="graph" transform="scale(1 1) rotate(0) translate(4 179)">
<title>include/tvm/runtime</title>
<polygon fill="#ffffff" stroke="transparent" points="-4,4 -4,-179 530,-179 530,4 -4,4"/>
<g id="clust1" class="cluster">
<title>clusterdir_b4c7d8e826c599ba55146c099a14beb5</title>
<g id="a_clust1"><a xlink:href="dir_b4c7d8e826c599ba55146c099a14beb5.html" target="_top" xlink:title="tvm">
<polygon fill="#ddddee" stroke="#000000" points="8,-8 8,-167 464,-167 464,-8 8,-8"/>
<text text-anchor="middle" x="236" y="-155" font-family="Helvetica,sans-Serif" font-size="10.00" fill="#000000">tvm</text>
</a>
</g>
</g>
<g id="clust2" class="cluster">
<title>clusterdir_404558507ed35459f0d7a6d81d8c508d</title>
<g id="a_clust2"><a xlink:href="dir_404558507ed35459f0d7a6d81d8c508d.html" target="_top">
<polygon fill="#eeeeff" stroke="#000000" points="16,-16 16,-140 456,-140 456,-16 16,-16"/>
</a>
</g>
</g>
<!-- dir_404558507ed35459f0d7a6d81d8c508d -->
<g id="node1" class="node">
<title>dir_404558507ed35459f0d7a6d81d8c508d</title>
<text text-anchor="middle" x="420" y="-111.5" font-family="Helvetica,sans-Serif" font-size="10.00" fill="#000000">runtime</text>
</g>
<!-- dir_dc867ff9a37cad1764f1670dc7eba6c1 -->
<g id="node8" class="node">
<title>dir_dc867ff9a37cad1764f1670dc7eba6c1</title>
<g id="a_node8"><a xlink:href="dir_dc867ff9a37cad1764f1670dc7eba6c1.html" target="_top" xlink:title="ir">
<polygon fill="none" stroke="#000000" points="526,-132 472,-132 472,-96 526,-96 526,-132"/>
<text text-anchor="middle" x="499" y="-111.5" font-family="Helvetica,sans-Serif" font-size="10.00" fill="#000000">ir</text>
</a>
</g>
</g>
<!-- dir_404558507ed35459f0d7a6d81d8c508d&#45;&gt;dir_dc867ff9a37cad1764f1670dc7eba6c1 -->
<g id="edge4" class="edge">
<title>dir_404558507ed35459f0d7a6d81d8c508d&#45;&gt;dir_dc867ff9a37cad1764f1670dc7eba6c1</title>
<path fill="none" stroke="#000000" d="M447.7734,-114C452.4008,-114 457.0282,-114 461.6556,-114"/>
<polygon fill="#000000" stroke="#000000" points="461.7859,-117.5001 471.7859,-114 461.7859,-110.5001 461.7859,-117.5001"/>
<g id="a_edge4&#45;headlabel"><a xlink:href="dir_000008_000007.html" target="_top" xlink:title="1">
<text text-anchor="middle" x="458.1913" y="-117.8393" font-family="Helvetica,sans-Serif" font-size="10.00" fill="#000000">1</text>
</a>
</g>
</g>
<!-- dir_fb1b1bc11a768ab8cf63a96a73170118 -->
<g id="node9" class="node">
<title>dir_fb1b1bc11a768ab8cf63a96a73170118</title>
<g id="a_node9"><a xlink:href="dir_fb1b1bc11a768ab8cf63a96a73170118.html" target="_top" xlink:title="support">
<polygon fill="none" stroke="#000000" points="526,-60 472,-60 472,-24 526,-24 526,-60"/>
<text text-anchor="middle" x="499" y="-39.5" font-family="Helvetica,sans-Serif" font-size="10.00" fill="#000000">support</text>
</a>
</g>
</g>
<!-- dir_404558507ed35459f0d7a6d81d8c508d&#45;&gt;dir_fb1b1bc11a768ab8cf63a96a73170118 -->
<g id="edge5" class="edge">
<title>dir_404558507ed35459f0d7a6d81d8c508d&#45;&gt;dir_fb1b1bc11a768ab8cf63a96a73170118</title>
<path fill="none" stroke="#000000" d="M433.9826,-95.8314C442.7635,-87.0485 454.3118,-76.3712 465.2817,-66.8489"/>
<polygon fill="#000000" stroke="#000000" points="467.7831,-69.3156 473.1195,-60.1628 463.2401,-63.99 467.7831,-69.3156"/>
<g id="a_edge5&#45;headlabel"><a xlink:href="dir_000008_000014.html" target="_top" xlink:title="1">
<text text-anchor="middle" x="466.891" y="-71.3085" font-family="Helvetica,sans-Serif" font-size="10.00" fill="#000000">1</text>
</a>
</g>
</g>
<!-- dir_5603323dd0cfe2b74c32570eba23c68c -->
<g id="node2" class="node">
<title>dir_5603323dd0cfe2b74c32570eba23c68c</title>
<g id="a_node2"><a xlink:href="dir_5603323dd0cfe2b74c32570eba23c68c.html" target="_top" xlink:title="container">
<polygon fill="#ffffff" stroke="#000000" points="268,-60 206,-60 206,-24 268,-24 268,-60"/>
<text text-anchor="middle" x="237" y="-39.5" font-family="Helvetica,sans-Serif" font-size="10.00" fill="#000000">container</text>
</a>
</g>
</g>
<!-- dir_536029070df27a3ee03a4230630922c5 -->
<g id="node3" class="node">
<title>dir_536029070df27a3ee03a4230630922c5</title>
<g id="a_node3"><a xlink:href="dir_536029070df27a3ee03a4230630922c5.html" target="_top" xlink:title="contrib">
<polygon fill="#ffffff" stroke="#000000" points="374,-132 320,-132 320,-96 374,-96 374,-132"/>
<text text-anchor="middle" x="347" y="-111.5" font-family="Helvetica,sans-Serif" font-size="10.00" fill="#000000">contrib</text>
</a>
</g>
</g>
<!-- dir_536029070df27a3ee03a4230630922c5&#45;&gt;dir_5603323dd0cfe2b74c32570eba23c68c -->
<g id="edge3" class="edge">
<title>dir_536029070df27a3ee03a4230630922c5&#45;&gt;dir_5603323dd0cfe2b74c32570eba23c68c</title>
<path fill="none" stroke="#000000" d="M319.809,-96.2022C305.7685,-87.0121 288.447,-75.6744 273.2813,-65.7478"/>
<polygon fill="#000000" stroke="#000000" points="274.9261,-62.6413 264.6423,-60.0931 271.0925,-68.4982 274.9261,-62.6413"/>
<g id="a_edge3&#45;headlabel"><a xlink:href="dir_000028_000009.html" target="_top" xlink:title="2">
<text text-anchor="middle" x="279.4887" y="-59.7343" font-family="Helvetica,sans-Serif" font-size="10.00" fill="#000000">2</text>
</a>
</g>
</g>
<!-- dir_a2900df4deca8dd2bcded616f0fe650a -->
<g id="node4" class="node">
<title>dir_a2900df4deca8dd2bcded616f0fe650a</title>
<g id="a_node4"><a xlink:href="dir_a2900df4deca8dd2bcded616f0fe650a.html" target="_top" xlink:title="crt">
<polygon fill="#ffffff" stroke="#ff0000" points="302,-132 248,-132 248,-96 302,-96 302,-132"/>
<text text-anchor="middle" x="275" y="-111.5" font-family="Helvetica,sans-Serif" font-size="10.00" fill="#000000">crt</text>
</a>
</g>
</g>
<!-- dir_0a768efda19551002dc8866436c9ffae -->
<g id="node5" class="node">
<title>dir_0a768efda19551002dc8866436c9ffae</title>
<g id="a_node5"><a xlink:href="dir_0a768efda19551002dc8866436c9ffae.html" target="_top" xlink:title="micro">
<polygon fill="#ffffff" stroke="#ff0000" points="230,-132 176,-132 176,-96 230,-96 230,-132"/>
<text text-anchor="middle" x="203" y="-111.5" font-family="Helvetica,sans-Serif" font-size="10.00" fill="#000000">micro</text>
</a>
</g>
</g>
<!-- dir_c3ba2f3d9e8a31986c3c7cdcded00789 -->
<g id="node6" class="node">
<title>dir_c3ba2f3d9e8a31986c3c7cdcded00789</title>
<g id="a_node6"><a xlink:href="dir_c3ba2f3d9e8a31986c3c7cdcded00789.html" target="_top" xlink:title="relax_vm">
<polygon fill="#ffffff" stroke="#000000" points="158,-132 96,-132 96,-96 158,-96 158,-132"/>
<text text-anchor="middle" x="127" y="-111.5" font-family="Helvetica,sans-Serif" font-size="10.00" fill="#000000">relax_vm</text>
</a>
</g>
</g>
<!-- dir_c3ba2f3d9e8a31986c3c7cdcded00789&#45;&gt;dir_5603323dd0cfe2b74c32570eba23c68c -->
<g id="edge1" class="edge">
<title>dir_c3ba2f3d9e8a31986c3c7cdcded00789&#45;&gt;dir_5603323dd0cfe2b74c32570eba23c68c</title>
<path fill="none" stroke="#000000" d="M154.7576,-95.8314C168.697,-86.7074 185.7598,-75.539 200.7231,-65.7449"/>
<polygon fill="#000000" stroke="#000000" points="202.801,-68.5679 209.2512,-60.1628 198.9674,-62.711 202.801,-68.5679"/>
<g id="a_edge1&#45;headlabel"><a xlink:href="dir_000024_000009.html" target="_top" xlink:title="1">
<text text-anchor="middle" x="201.3484" y="-70.4121" font-family="Helvetica,sans-Serif" font-size="10.00" fill="#000000">1</text>
</a>
</g>
</g>
<!-- dir_5baffeed82c1190bfdf7a4f918ab5ac6 -->
<g id="node7" class="node">
<title>dir_5baffeed82c1190bfdf7a4f918ab5ac6</title>
<g id="a_node7"><a xlink:href="dir_5baffeed82c1190bfdf7a4f918ab5ac6.html" target="_top" xlink:title="vm">
<polygon fill="#ffffff" stroke="#000000" points="78,-132 24,-132 24,-96 78,-96 78,-132"/>
<text text-anchor="middle" x="51" y="-111.5" font-family="Helvetica,sans-Serif" font-size="10.00" fill="#000000">vm</text>
</a>
</g>
</g>
<!-- dir_5baffeed82c1190bfdf7a4f918ab5ac6&#45;&gt;dir_5603323dd0cfe2b74c32570eba23c68c -->
<g id="edge2" class="edge">
<title>dir_5baffeed82c1190bfdf7a4f918ab5ac6&#45;&gt;dir_5603323dd0cfe2b74c32570eba23c68c</title>
<path fill="none" stroke="#000000" d="M78.3603,-99.9025C81.2554,-98.5363 84.1737,-97.2103 87,-96 123.2315,-80.4847 165.5684,-65.5215 196.0075,-55.2971"/>
<polygon fill="#000000" stroke="#000000" points="197.4678,-58.4997 205.8482,-52.0173 195.2545,-51.8588 197.4678,-58.4997"/>
<g id="a_edge2&#45;headlabel"><a xlink:href="dir_000025_000009.html" target="_top" xlink:title="3">
<text text-anchor="middle" x="194.9553" y="-59.8298" font-family="Helvetica,sans-Serif" font-size="10.00" fill="#000000">3</text>
</a>
</g>
</g>
<!-- dir_dc867ff9a37cad1764f1670dc7eba6c1&#45;&gt;dir_404558507ed35459f0d7a6d81d8c508d -->
<g id="edge7" class="edge">
<title>dir_dc867ff9a37cad1764f1670dc7eba6c1&#45;&gt;dir_404558507ed35459f0d7a6d81d8c508d</title>
<path fill="none" stroke="#000000" d="M471.7859,-114C467.1585,-114 462.5311,-114 457.9037,-114"/>
<polygon fill="#000000" stroke="#000000" points="457.7735,-110.5001 447.7734,-114 457.7734,-117.5001 457.7735,-110.5001"/>
<g id="a_edge7&#45;headlabel"><a xlink:href="dir_000007_000008.html" target="_top" xlink:title="22">
<text text-anchor="middle" x="461.3681" y="-105.1607" font-family="Helvetica,sans-Serif" font-size="10.00" fill="#000000">22</text>
</a>
</g>
</g>
<!-- dir_dc867ff9a37cad1764f1670dc7eba6c1&#45;&gt;dir_5603323dd0cfe2b74c32570eba23c68c -->
<g id="edge6" class="edge">
<title>dir_dc867ff9a37cad1764f1670dc7eba6c1&#45;&gt;dir_5603323dd0cfe2b74c32570eba23c68c</title>
<path fill="none" stroke="#000000" d="M471.5773,-100.5377C467.737,-98.8902 463.803,-97.3239 460,-96 398.0502,-74.4344 323.5275,-58.2693 278.2402,-49.4801"/>
<polygon fill="#000000" stroke="#000000" points="278.6887,-46.0026 268.2092,-47.5615 277.3736,-52.8779 278.6887,-46.0026"/>
<g id="a_edge6&#45;headlabel"><a xlink:href="dir_000007_000009.html" target="_top" xlink:title="14">
<text text-anchor="middle" x="282.7527" y="-41.3891" font-family="Helvetica,sans-Serif" font-size="10.00" fill="#000000">14</text>
</a>
</g>
</g>
<!-- dir_dc867ff9a37cad1764f1670dc7eba6c1&#45;&gt;dir_fb1b1bc11a768ab8cf63a96a73170118 -->
<g id="edge8" class="edge">
<title>dir_dc867ff9a37cad1764f1670dc7eba6c1&#45;&gt;dir_fb1b1bc11a768ab8cf63a96a73170118</title>
<path fill="none" stroke="#000000" d="M499,-95.8314C499,-88.131 499,-78.9743 499,-70.4166"/>
<polygon fill="#000000" stroke="#000000" points="502.5001,-70.4132 499,-60.4133 495.5001,-70.4133 502.5001,-70.4132"/>
<g id="a_edge8&#45;headlabel"><a xlink:href="dir_000007_000014.html" target="_top" xlink:title="1">
<text text-anchor="middle" x="505.3393" y="-71.5079" font-family="Helvetica,sans-Serif" font-size="10.00" fill="#000000">1</text>
</a>
</g>
</g>
<!-- dir_fb1b1bc11a768ab8cf63a96a73170118&#45;&gt;dir_404558507ed35459f0d7a6d81d8c508d -->
<g id="edge9" class="edge">
<title>dir_fb1b1bc11a768ab8cf63a96a73170118&#45;&gt;dir_404558507ed35459f0d7a6d81d8c508d</title>
<path fill="none" stroke="#000000" d="M484.7726,-60.4133C476.0081,-69.1637 464.5489,-79.7519 453.6645,-89.1978"/>
<polygon fill="#000000" stroke="#000000" points="451.2243,-86.6789 445.8874,-95.8314 455.7671,-92.0047 451.2243,-86.6789"/>
<g id="a_edge9&#45;headlabel"><a xlink:href="dir_000014_000008.html" target="_top" xlink:title="1">
<text text-anchor="middle" x="452.1166" y="-79.686" font-family="Helvetica,sans-Serif" font-size="10.00" fill="#000000">1</text>
</a>
</g>
</g>
</g>
</svg>
