<?xml version="1.0" encoding="UTF-8" standalone="no"?>
<!DOCTYPE svg PUBLIC "-//W3C//DTD SVG 1.1//EN"
 "http://www.w3.org/Graphics/SVG/1.1/DTD/svg11.dtd">
<!-- Generated by graphviz version 2.40.1 (20161225.0304)
 -->
<!-- Title: include/tvm/script Pages: 1 -->
<svg width="321pt" height="447pt"
 viewBox="0.00 0.00 321.00 447.00" xmlns="http://www.w3.org/2000/svg" xmlns:xlink="http://www.w3.org/1999/xlink">
<g id="graph0" class="graph" transform="scale(1 1) rotate(0) translate(4 443)">
<title>include/tvm/script</title>
<polygon fill="#ffffff" stroke="transparent" points="-4,4 -4,-443 317,-443 317,4 -4,4"/>
<g id="clust1" class="cluster">
<title>clusterdir_b4c7d8e826c599ba55146c099a14beb5</title>
<g id="a_clust1"><a xlink:href="dir_b4c7d8e826c599ba55146c099a14beb5.html" target="_top" xlink:title="tvm">
<polygon fill="#ddddee" stroke="#000000" points="67,-344 67,-431 305,-431 305,-344 67,-344"/>
<text text-anchor="middle" x="186" y="-419" font-family="Helvetica,sans-Serif" font-size="10.00" fill="#000000">tvm</text>
</a>
</g>
</g>
<g id="clust2" class="cluster">
<title>clusterdir_84875704194fd544d29fe0c7fedd8939</title>
<g id="a_clust2"><a xlink:href="dir_84875704194fd544d29fe0c7fedd8939.html" target="_top">
<polygon fill="#eeeeff" stroke="#000000" points="75,-352 75,-404 297,-404 297,-352 75,-352"/>
</a>
</g>
</g>
<!-- dir_84875704194fd544d29fe0c7fedd8939 -->
<g id="node1" class="node">
<title>dir_84875704194fd544d29fe0c7fedd8939</title>
<text text-anchor="middle" x="262" y="-375.5" font-family="Helvetica,sans-Serif" font-size="10.00" fill="#000000">script</text>
</g>
<!-- dir_9e615ec4a59e46584bcc4e2226e148a2 -->
<g id="node2" class="node">
<title>dir_9e615ec4a59e46584bcc4e2226e148a2</title>
<g id="a_node2"><a xlink:href="dir_9e615ec4a59e46584bcc4e2226e148a2.html" target="_top" xlink:title="ir_builder">
<polygon fill="#ffffff" stroke="#ff0000" points="145,-396 83,-396 83,-360 145,-360 145,-396"/>
<text text-anchor="middle" x="114" y="-375.5" font-family="Helvetica,sans-Serif" font-size="10.00" fill="#000000">ir_builder</text>
</a>
</g>
</g>
<!-- dir_6cd4295f6ad5aa17e5b568d0e5b190e5 -->
<g id="node4" class="node">
<title>dir_6cd4295f6ad5aa17e5b568d0e5b190e5</title>
<g id="a_node4"><a xlink:href="dir_6cd4295f6ad5aa17e5b568d0e5b190e5.html" target="_top" xlink:title="node">
<polygon fill="none" stroke="#000000" points="198,-324 144,-324 144,-288 198,-288 198,-324"/>
<text text-anchor="middle" x="171" y="-303.5" font-family="Helvetica,sans-Serif" font-size="10.00" fill="#000000">node</text>
</a>
</g>
</g>
<!-- dir_9e615ec4a59e46584bcc4e2226e148a2&#45;&gt;dir_6cd4295f6ad5aa17e5b568d0e5b190e5 -->
<g id="edge16" class="edge">
<title>dir_9e615ec4a59e46584bcc4e2226e148a2&#45;&gt;dir_6cd4295f6ad5aa17e5b568d0e5b190e5</title>
<path fill="none" stroke="#000000" d="M128.3835,-359.8314C134.9486,-351.5386 142.8507,-341.557 150.0578,-332.4533"/>
<polygon fill="#000000" stroke="#000000" points="152.9599,-334.4262 156.4228,-324.4133 147.4716,-330.0813 152.9599,-334.4262"/>
<g id="a_edge16&#45;headlabel"><a xlink:href="dir_000027_000021.html" target="_top" xlink:title="3">
<text text-anchor="middle" x="152.9549" y="-336.5069" font-family="Helvetica,sans-Serif" font-size="10.00" fill="#000000">3</text>
</a>
</g>
</g>
<!-- dir_dc867ff9a37cad1764f1670dc7eba6c1 -->
<g id="node6" class="node">
<title>dir_dc867ff9a37cad1764f1670dc7eba6c1</title>
<g id="a_node6"><a xlink:href="dir_dc867ff9a37cad1764f1670dc7eba6c1.html" target="_top" xlink:title="ir">
<polygon fill="none" stroke="#000000" points="234,-180 180,-180 180,-144 234,-144 234,-180"/>
<text text-anchor="middle" x="207" y="-159.5" font-family="Helvetica,sans-Serif" font-size="10.00" fill="#000000">ir</text>
</a>
</g>
</g>
<!-- dir_9e615ec4a59e46584bcc4e2226e148a2&#45;&gt;dir_dc867ff9a37cad1764f1670dc7eba6c1 -->
<g id="edge17" class="edge">
<title>dir_9e615ec4a59e46584bcc4e2226e148a2&#45;&gt;dir_dc867ff9a37cad1764f1670dc7eba6c1</title>
<path fill="none" stroke="#000000" d="M116.6286,-359.9503C119.6862,-341.4426 125.558,-312.0445 135,-288 149.1891,-251.8668 172.3799,-213.5856 188.5968,-188.8311"/>
<polygon fill="#000000" stroke="#000000" points="191.6109,-190.619 194.2263,-180.352 185.7792,-186.7471 191.6109,-190.619"/>
<g id="a_edge17&#45;headlabel"><a xlink:href="dir_000027_000007.html" target="_top" xlink:title="6">
<text text-anchor="middle" x="191.9881" y="-192.6841" font-family="Helvetica,sans-Serif" font-size="10.00" fill="#000000">6</text>
</a>
</g>
</g>
<!-- dir_72c2f11201cd7636dc7624de0754daa5 -->
<g id="node7" class="node">
<title>dir_72c2f11201cd7636dc7624de0754daa5</title>
<g id="a_node7"><a xlink:href="dir_72c2f11201cd7636dc7624de0754daa5.html" target="_top" xlink:title="tir">
<polygon fill="#ffffff" stroke="#ff0000" points="179,-36 125,-36 125,0 179,0 179,-36"/>
<text text-anchor="middle" x="152" y="-15.5" font-family="Helvetica,sans-Serif" font-size="10.00" fill="#000000">tir</text>
</a>
</g>
</g>
<!-- dir_9e615ec4a59e46584bcc4e2226e148a2&#45;&gt;dir_72c2f11201cd7636dc7624de0754daa5 -->
<g id="edge18" class="edge">
<title>dir_9e615ec4a59e46584bcc4e2226e148a2&#45;&gt;dir_72c2f11201cd7636dc7624de0754daa5</title>
<path fill="none" stroke="#000000" d="M85.8202,-359.8002C52.0616,-335.5315 0,-289.1626 0,-234 0,-234 0,-234 0,-162 0,-98.5382 70.6908,-54.6632 115.6556,-33.1743"/>
<polygon fill="#000000" stroke="#000000" points="117.2208,-36.3066 124.8254,-28.9296 114.2803,-29.9542 117.2208,-36.3066"/>
<g id="a_edge18&#45;headlabel"><a xlink:href="dir_000027_000012.html" target="_top" xlink:title="2">
<text text-anchor="middle" x="115.1514" y="-37.8932" font-family="Helvetica,sans-Serif" font-size="10.00" fill="#000000">2</text>
</a>
</g>
</g>
<!-- dir_039190d3b4246b6bdd648b90e06580e6 -->
<g id="node8" class="node">
<title>dir_039190d3b4246b6bdd648b90e06580e6</title>
<g id="a_node8"><a xlink:href="dir_039190d3b4246b6bdd648b90e06580e6.html" target="_top" xlink:title="relax">
<polygon fill="#ffffff" stroke="#ff0000" points="179,-108 125,-108 125,-72 179,-72 179,-108"/>
<text text-anchor="middle" x="152" y="-87.5" font-family="Helvetica,sans-Serif" font-size="10.00" fill="#000000">relax</text>
</a>
</g>
</g>
<!-- dir_9e615ec4a59e46584bcc4e2226e148a2&#45;&gt;dir_039190d3b4246b6bdd648b90e06580e6 -->
<g id="edge19" class="edge">
<title>dir_9e615ec4a59e46584bcc4e2226e148a2&#45;&gt;dir_039190d3b4246b6bdd648b90e06580e6</title>
<path fill="none" stroke="#000000" d="M115.0062,-359.6881C116.1054,-341.474 118.1044,-312.75 121,-288 128.114,-227.1927 140.0938,-156.4348 146.8898,-118.1319"/>
<polygon fill="#000000" stroke="#000000" points="150.3464,-118.6843 148.6608,-108.2244 143.4557,-117.4525 150.3464,-118.6843"/>
<g id="a_edge19&#45;headlabel"><a xlink:href="dir_000027_000011.html" target="_top" xlink:title="4">
<text text-anchor="middle" x="152.509" y="-120.2224" font-family="Helvetica,sans-Serif" font-size="10.00" fill="#000000">4</text>
</a>
</g>
</g>
<!-- dir_a59a89c7dd2e4e6561fe59bf359ce2f3 -->
<g id="node3" class="node">
<title>dir_a59a89c7dd2e4e6561fe59bf359ce2f3</title>
<g id="a_node3"><a xlink:href="dir_a59a89c7dd2e4e6561fe59bf359ce2f3.html" target="_top" xlink:title="printer">
<polygon fill="#ffffff" stroke="#000000" points="217,-396 163,-396 163,-360 217,-360 217,-396"/>
<text text-anchor="middle" x="190" y="-375.5" font-family="Helvetica,sans-Serif" font-size="10.00" fill="#000000">printer</text>
</a>
</g>
</g>
<!-- dir_a59a89c7dd2e4e6561fe59bf359ce2f3&#45;&gt;dir_6cd4295f6ad5aa17e5b568d0e5b190e5 -->
<g id="edge2" class="edge">
<title>dir_a59a89c7dd2e4e6561fe59bf359ce2f3&#45;&gt;dir_6cd4295f6ad5aa17e5b568d0e5b190e5</title>
<path fill="none" stroke="#000000" d="M185.2055,-359.8314C183.1511,-352.0463 180.704,-342.7729 178.4244,-334.1347"/>
<polygon fill="#000000" stroke="#000000" points="181.7948,-333.1892 175.8591,-324.4133 175.0265,-334.9753 181.7948,-333.1892"/>
<g id="a_edge2&#45;headlabel"><a xlink:href="dir_000035_000021.html" target="_top" xlink:title="4">
<text text-anchor="middle" x="185.4572" y="-333.4404" font-family="Helvetica,sans-Serif" font-size="10.00" fill="#000000">4</text>
</a>
</g>
</g>
<!-- dir_404558507ed35459f0d7a6d81d8c508d -->
<g id="node5" class="node">
<title>dir_404558507ed35459f0d7a6d81d8c508d</title>
<g id="a_node5"><a xlink:href="dir_404558507ed35459f0d7a6d81d8c508d.html" target="_top" xlink:title="runtime">
<polygon fill="#ffffff" stroke="#ff0000" points="311.5,-252 256.5,-252 256.5,-216 311.5,-216 311.5,-252"/>
<text text-anchor="middle" x="284" y="-231.5" font-family="Helvetica,sans-Serif" font-size="10.00" fill="#000000">runtime</text>
</a>
</g>
</g>
<!-- dir_a59a89c7dd2e4e6561fe59bf359ce2f3&#45;&gt;dir_404558507ed35459f0d7a6d81d8c508d -->
<g id="edge3" class="edge">
<title>dir_a59a89c7dd2e4e6561fe59bf359ce2f3&#45;&gt;dir_404558507ed35459f0d7a6d81d8c508d</title>
<path fill="none" stroke="#000000" d="M210.4404,-359.8631C220.7827,-349.9685 233.0137,-337.0908 242,-324 255.4003,-304.4791 266.5093,-280.0046 273.9295,-261.5075"/>
<polygon fill="#000000" stroke="#000000" points="277.1956,-262.7655 277.5647,-252.1771 270.6731,-260.2243 277.1956,-262.7655"/>
<g id="a_edge3&#45;headlabel"><a xlink:href="dir_000035_000008.html" target="_top" xlink:title="2">
<text text-anchor="middle" x="278.5363" y="-264.6456" font-family="Helvetica,sans-Serif" font-size="10.00" fill="#000000">2</text>
</a>
</g>
</g>
<!-- dir_a59a89c7dd2e4e6561fe59bf359ce2f3&#45;&gt;dir_dc867ff9a37cad1764f1670dc7eba6c1 -->
<g id="edge4" class="edge">
<title>dir_a59a89c7dd2e4e6561fe59bf359ce2f3&#45;&gt;dir_dc867ff9a37cad1764f1670dc7eba6c1</title>
<path fill="none" stroke="#000000" d="M197.2439,-359.8366C200.9712,-349.513 205.1188,-336.2403 207,-324 214.1395,-277.5459 211.9581,-222.7098 209.5824,-190.2293"/>
<polygon fill="#000000" stroke="#000000" points="213.0601,-189.8084 208.7824,-180.1156 206.0819,-190.3604 213.0601,-189.8084"/>
<g id="a_edge4&#45;headlabel"><a xlink:href="dir_000035_000007.html" target="_top" xlink:title="2">
<text text-anchor="middle" x="216.1739" y="-190.668" font-family="Helvetica,sans-Serif" font-size="10.00" fill="#000000">2</text>
</a>
</g>
</g>
<!-- dir_6cd4295f6ad5aa17e5b568d0e5b190e5&#45;&gt;dir_404558507ed35459f0d7a6d81d8c508d -->
<g id="edge1" class="edge">
<title>dir_6cd4295f6ad5aa17e5b568d0e5b190e5&#45;&gt;dir_404558507ed35459f0d7a6d81d8c508d</title>
<path fill="none" stroke="#000000" d="M198.0663,-288.7542C212.9409,-279.2766 231.5916,-267.393 247.7133,-257.1207"/>
<polygon fill="#000000" stroke="#000000" points="249.8167,-259.9306 256.3695,-251.6053 246.0552,-254.0271 249.8167,-259.9306"/>
<g id="a_edge1&#45;headlabel"><a xlink:href="dir_000021_000008.html" target="_top" xlink:title="20">
<text text-anchor="middle" x="248.3109" y="-261.7567" font-family="Helvetica,sans-Serif" font-size="10.00" fill="#000000">20</text>
</a>
</g>
</g>
<!-- dir_404558507ed35459f0d7a6d81d8c508d&#45;&gt;dir_dc867ff9a37cad1764f1670dc7eba6c1 -->
<g id="edge5" class="edge">
<title>dir_404558507ed35459f0d7a6d81d8c508d&#45;&gt;dir_dc867ff9a37cad1764f1670dc7eba6c1</title>
<path fill="none" stroke="#000000" d="M258.6173,-215.8314C248.6442,-207.2848 237.4051,-196.9443 227.9048,-187.6198"/>
<polygon fill="#000000" stroke="#000000" points="230.2563,-185.0212 220.716,-180.4133 225.3004,-189.9649 230.2563,-185.0212"/>
<g id="a_edge5&#45;headlabel"><a xlink:href="dir_000008_000007.html" target="_top" xlink:title="1">
<text text-anchor="middle" x="234.805" y="-183.0609" font-family="Helvetica,sans-Serif" font-size="10.00" fill="#000000">1</text>
</a>
</g>
</g>
<!-- dir_dc867ff9a37cad1764f1670dc7eba6c1&#45;&gt;dir_6cd4295f6ad5aa17e5b568d0e5b190e5 -->
<g id="edge6" class="edge">
<title>dir_dc867ff9a37cad1764f1670dc7eba6c1&#45;&gt;dir_6cd4295f6ad5aa17e5b568d0e5b190e5</title>
<path fill="none" stroke="#000000" d="M202.4776,-180.0896C196.3299,-204.6805 185.2737,-248.905 178.0367,-277.8531"/>
<polygon fill="#000000" stroke="#000000" points="174.5894,-277.212 175.5594,-287.7623 181.3804,-278.9098 174.5894,-277.212"/>
<g id="a_edge6&#45;headlabel"><a xlink:href="dir_000007_000021.html" target="_top" xlink:title="10">
<text text-anchor="middle" x="172.7066" y="-270.5361" font-family="Helvetica,sans-Serif" font-size="10.00" fill="#000000">10</text>
</a>
</g>
</g>
<!-- dir_dc867ff9a37cad1764f1670dc7eba6c1&#45;&gt;dir_404558507ed35459f0d7a6d81d8c508d -->
<g id="edge7" class="edge">
<title>dir_dc867ff9a37cad1764f1670dc7eba6c1&#45;&gt;dir_404558507ed35459f0d7a6d81d8c508d</title>
<path fill="none" stroke="#000000" d="M232.376,-180.1628C242.4251,-188.7744 253.7606,-199.2081 263.3077,-208.5888"/>
<polygon fill="#000000" stroke="#000000" points="260.985,-211.2166 270.522,-215.8314 265.9444,-206.2765 260.985,-211.2166"/>
<g id="a_edge7&#45;headlabel"><a xlink:href="dir_000007_000008.html" target="_top" xlink:title="22">
<text text-anchor="middle" x="256.4367" y="-208.1736" font-family="Helvetica,sans-Serif" font-size="10.00" fill="#000000">22</text>
</a>
</g>
</g>
<!-- dir_dc867ff9a37cad1764f1670dc7eba6c1&#45;&gt;dir_039190d3b4246b6bdd648b90e06580e6 -->
<g id="edge8" class="edge">
<title>dir_dc867ff9a37cad1764f1670dc7eba6c1&#45;&gt;dir_039190d3b4246b6bdd648b90e06580e6</title>
<path fill="none" stroke="#000000" d="M187.1688,-143.8314C180.0988,-135.6232 172.3665,-125.7606 165.8734,-116.7323"/>
<polygon fill="#000000" stroke="#000000" points="168.6718,-114.626 160.0897,-108.4133 162.9243,-118.6219 168.6718,-114.626"/>
<g id="a_edge8&#45;headlabel"><a xlink:href="dir_000007_000011.html" target="_top" xlink:title="1">
<text text-anchor="middle" x="173.0549" y="-113.4567" font-family="Helvetica,sans-Serif" font-size="10.00" fill="#000000">1</text>
</a>
</g>
</g>
<!-- dir_72c2f11201cd7636dc7624de0754daa5&#45;&gt;dir_6cd4295f6ad5aa17e5b568d0e5b190e5 -->
<g id="edge9" class="edge">
<title>dir_72c2f11201cd7636dc7624de0754daa5&#45;&gt;dir_6cd4295f6ad5aa17e5b568d0e5b190e5</title>
<path fill="none" stroke="#000000" d="M136.0095,-36.0831C128.3462,-45.9629 119.9834,-58.8437 116,-72 111.3635,-87.3135 113.839,-92.1466 116,-108 124.4564,-170.0387 147.1669,-240.0715 160.6135,-277.9811"/>
<polygon fill="#000000" stroke="#000000" points="157.4629,-279.5631 164.1409,-287.7884 164.0498,-277.1939 157.4629,-279.5631"/>
<g id="a_edge9&#45;headlabel"><a xlink:href="dir_000012_000021.html" target="_top" xlink:title="6">
<text text-anchor="middle" x="153.5747" y="-274.6416" font-family="Helvetica,sans-Serif" font-size="10.00" fill="#000000">6</text>
</a>
</g>
</g>
<!-- dir_72c2f11201cd7636dc7624de0754daa5&#45;&gt;dir_404558507ed35459f0d7a6d81d8c508d -->
<g id="edge10" class="edge">
<title>dir_72c2f11201cd7636dc7624de0754daa5&#45;&gt;dir_404558507ed35459f0d7a6d81d8c508d</title>
<path fill="none" stroke="#000000" d="M176.2298,-36.3739C203.5602,-58.5972 246.9341,-98.7067 268,-144 277.0633,-163.4869 281.0151,-187.5419 282.7271,-205.8789"/>
<polygon fill="#000000" stroke="#000000" points="279.2439,-206.2337 283.4979,-215.937 286.2235,-205.6987 279.2439,-206.2337"/>
<g id="a_edge10&#45;headlabel"><a xlink:href="dir_000012_000008.html" target="_top" xlink:title="15">
<text text-anchor="middle" x="276.1383" y="-200.3666" font-family="Helvetica,sans-Serif" font-size="10.00" fill="#000000">15</text>
</a>
</g>
</g>
<!-- dir_72c2f11201cd7636dc7624de0754daa5&#45;&gt;dir_dc867ff9a37cad1764f1670dc7eba6c1 -->
<g id="edge11" class="edge">
<title>dir_72c2f11201cd7636dc7624de0754daa5&#45;&gt;dir_dc867ff9a37cad1764f1670dc7eba6c1</title>
<path fill="none" stroke="#000000" d="M166.8853,-36.4815C174.2462,-46.4704 182.672,-59.3284 188,-72 196.3306,-91.8124 201.1533,-115.6679 203.8541,-133.8395"/>
<polygon fill="#000000" stroke="#000000" points="200.3941,-134.3711 205.2095,-143.8083 207.3302,-133.4279 200.3941,-134.3711"/>
<g id="a_edge11&#45;headlabel"><a xlink:href="dir_000012_000007.html" target="_top" xlink:title="16">
<text text-anchor="middle" x="197.0965" y="-128.6918" font-family="Helvetica,sans-Serif" font-size="10.00" fill="#000000">16</text>
</a>
</g>
</g>
<!-- dir_039190d3b4246b6bdd648b90e06580e6&#45;&gt;dir_6cd4295f6ad5aa17e5b568d0e5b190e5 -->
<g id="edge12" class="edge">
<title>dir_039190d3b4246b6bdd648b90e06580e6&#45;&gt;dir_6cd4295f6ad5aa17e5b568d0e5b190e5</title>
<path fill="none" stroke="#000000" d="M153.5961,-108.1451C156.9079,-145.7945 164.5471,-232.6409 168.5116,-277.7103"/>
<polygon fill="#000000" stroke="#000000" points="165.0499,-278.3007 169.4128,-287.9555 172.023,-277.6872 165.0499,-278.3007"/>
<g id="a_edge12&#45;headlabel"><a xlink:href="dir_000011_000021.html" target="_top" xlink:title="8">
<text text-anchor="middle" x="161.9066" y="-272.4686" font-family="Helvetica,sans-Serif" font-size="10.00" fill="#000000">8</text>
</a>
</g>
</g>
<!-- dir_039190d3b4246b6bdd648b90e06580e6&#45;&gt;dir_404558507ed35459f0d7a6d81d8c508d -->
<g id="edge13" class="edge">
<title>dir_039190d3b4246b6bdd648b90e06580e6&#45;&gt;dir_404558507ed35459f0d7a6d81d8c508d</title>
<path fill="none" stroke="#000000" d="M179.283,-100.847C199.1163,-109.8896 225.4547,-124.4478 243,-144 259.0387,-161.8733 269.7902,-187.0807 276.2444,-206.2734"/>
<polygon fill="#000000" stroke="#000000" points="272.9568,-207.4853 279.3136,-215.9613 279.6299,-205.3711 272.9568,-207.4853"/>
<g id="a_edge13&#45;headlabel"><a xlink:href="dir_000011_000008.html" target="_top" xlink:title="14">
<text text-anchor="middle" x="269.1646" y="-202.4161" font-family="Helvetica,sans-Serif" font-size="10.00" fill="#000000">14</text>
</a>
</g>
</g>
<!-- dir_039190d3b4246b6bdd648b90e06580e6&#45;&gt;dir_dc867ff9a37cad1764f1670dc7eba6c1 -->
<g id="edge14" class="edge">
<title>dir_039190d3b4246b6bdd648b90e06580e6&#45;&gt;dir_dc867ff9a37cad1764f1670dc7eba6c1</title>
<path fill="none" stroke="#000000" d="M172.0417,-108.4133C179.1246,-116.654 186.851,-126.5245 193.3194,-135.536"/>
<polygon fill="#000000" stroke="#000000" points="190.4981,-137.6095 199.0736,-143.8314 196.2498,-133.6197 190.4981,-137.6095"/>
<g id="a_edge14&#45;headlabel"><a xlink:href="dir_000011_000007.html" target="_top" xlink:title="22">
<text text-anchor="middle" x="186.1164" y="-133.7742" font-family="Helvetica,sans-Serif" font-size="10.00" fill="#000000">22</text>
</a>
</g>
</g>
<!-- dir_039190d3b4246b6bdd648b90e06580e6&#45;&gt;dir_72c2f11201cd7636dc7624de0754daa5 -->
<g id="edge15" class="edge">
<title>dir_039190d3b4246b6bdd648b90e06580e6&#45;&gt;dir_72c2f11201cd7636dc7624de0754daa5</title>
<path fill="none" stroke="#000000" d="M152,-71.8314C152,-64.131 152,-54.9743 152,-46.4166"/>
<polygon fill="#000000" stroke="#000000" points="155.5001,-46.4132 152,-36.4133 148.5001,-46.4133 155.5001,-46.4132"/>
<g id="a_edge15&#45;headlabel"><a xlink:href="dir_000011_000012.html" target="_top" xlink:title="5">
<text text-anchor="middle" x="158.3393" y="-47.5079" font-family="Helvetica,sans-Serif" font-size="10.00" fill="#000000">5</text>
</a>
</g>
</g>
</g>
</svg>
