<?xml version="1.0" encoding="UTF-8" standalone="no"?>
<!DOCTYPE svg PUBLIC "-//W3C//DTD SVG 1.1//EN"
 "http://www.w3.org/Graphics/SVG/1.1/DTD/svg11.dtd">
<!-- Generated by graphviz version 2.40.1 (20161225.0304)
 -->
<!-- Title: include/tvm/relax/exec_builder.h Pages: 1 -->
<svg width="3316pt" height="945pt"
 viewBox="0.00 0.00 3316.00 945.00" xmlns="http://www.w3.org/2000/svg" xmlns:xlink="http://www.w3.org/1999/xlink">
<g id="graph0" class="graph" transform="scale(1 1) rotate(0) translate(4 941)">
<title>include/tvm/relax/exec_builder.h</title>
<polygon fill="#ffffff" stroke="transparent" points="-4,4 -4,-941 3312,-941 3312,4 -4,4"/>
<!-- Node0 -->
<g id="node1" class="node">
<title>Node0</title>
<polygon fill="#bfbfbf" stroke="#000000" points="1319,-906.5 1319,-936.5 1447,-936.5 1447,-906.5 1319,-906.5"/>
<text text-anchor="start" x="1327" y="-924.5" font-family="Helvetica,sans-Serif" font-size="10.00" fill="#000000">include/tvm/relax/exec</text>
<text text-anchor="middle" x="1383" y="-913.5" font-family="Helvetica,sans-Serif" font-size="10.00" fill="#000000">_builder.h</text>
</g>
<!-- Node1 -->
<g id="node2" class="node">
<title>Node1</title>
<g id="a_node2"><a xlink:href="ir_2expr_8h.html" target="_top" xlink:title="Base expr nodes in TVM. ">
<polygon fill="#ffffff" stroke="#000000" points="1262.5,-850.5 1262.5,-869.5 1341.5,-869.5 1341.5,-850.5 1262.5,-850.5"/>
<text text-anchor="middle" x="1302" y="-857.5" font-family="Helvetica,sans-Serif" font-size="10.00" fill="#000000">tvm/ir/expr.h</text>
</a>
</g>
</g>
<!-- Node0&#45;&gt;Node1 -->
<g id="edge1" class="edge">
<title>Node0&#45;&gt;Node1</title>
<path fill="none" stroke="#191970" d="M1362.9775,-906.2977C1350.914,-897.1384 1335.5612,-885.4816 1323.2789,-876.1562"/>
<polygon fill="#191970" stroke="#191970" points="1325.0501,-873.1065 1314.9691,-869.8469 1320.8171,-878.6816 1325.0501,-873.1065"/>
</g>
<!-- Node4 -->
<g id="node5" class="node">
<title>Node4</title>
<g id="a_node5"><a xlink:href="reflection_8h.html" target="_top" xlink:title="Reflection and serialization of compiler IR/AST nodes. ">
<polygon fill="#ffffff" stroke="#000000" points="2129.5,-498 2129.5,-517 2250.5,-517 2250.5,-498 2129.5,-498"/>
<text text-anchor="middle" x="2190" y="-505" font-family="Helvetica,sans-Serif" font-size="10.00" fill="#000000">tvm/node/reflection.h</text>
</a>
</g>
</g>
<!-- Node0&#45;&gt;Node4 -->
<g id="edge159" class="edge">
<title>Node0&#45;&gt;Node4</title>
<path fill="none" stroke="#191970" d="M1447.1374,-920.1644C1743.8528,-913.5727 2969,-881.6536 2969,-804 2969,-804 2969,-804 2969,-748 2969,-728.6122 2398.0664,-566.1563 2233.7508,-519.8027"/>
<polygon fill="#191970" stroke="#191970" points="2234.5481,-516.3911 2223.9736,-517.0462 2232.6486,-523.1285 2234.5481,-516.3911"/>
</g>
<!-- Node8 -->
<g id="node9" class="node">
<title>Node8</title>
<g id="a_node9"><a xlink:href="object_8h.html" target="_top" xlink:title="A managed object in the TVM runtime. ">
<polygon fill="#ffffff" stroke="#000000" points="2001.5,-123.5 2001.5,-142.5 2120.5,-142.5 2120.5,-123.5 2001.5,-123.5"/>
<text text-anchor="middle" x="2061" y="-130.5" font-family="Helvetica,sans-Serif" font-size="10.00" fill="#000000">tvm/runtime/object.h</text>
</a>
</g>
</g>
<!-- Node0&#45;&gt;Node8 -->
<g id="edge161" class="edge">
<title>Node0&#45;&gt;Node8</title>
<path fill="none" stroke="#191970" d="M1447.2848,-920.4995C1729.2918,-915.9692 2849.8159,-896.4483 3005,-870 3101.0258,-853.6342 3214,-901.4104 3214,-804 3214,-804 3214,-804 3214,-636 3214,-258.857 2869.5748,-249.0796 2499,-179 2370.1842,-154.6396 2217.439,-142.2757 2130.6046,-136.7664"/>
<polygon fill="#191970" stroke="#191970" points="2130.804,-133.2721 2120.6058,-136.1439 2130.3689,-140.2586 2130.804,-133.2721"/>
</g>
<!-- Node14 -->
<g id="node15" class="node">
<title>Node14</title>
<polygon fill="#ffffff" stroke="#bfbfbf" points="2982,-62 2982,-81 3026,-81 3026,-62 2982,-62"/>
<text text-anchor="middle" x="3004" y="-69" font-family="Helvetica,sans-Serif" font-size="10.00" fill="#000000">string</text>
</g>
<!-- Node0&#45;&gt;Node14 -->
<g id="edge177" class="edge">
<title>Node0&#45;&gt;Node14</title>
<path fill="none" stroke="#191970" d="M1447.1421,-920.7223C1740.5726,-917.0116 2947.8567,-900.0328 3114,-870 3203.6229,-853.7994 3308,-895.0753 3308,-804 3308,-804 3308,-804 3308,-189 3308,-149.3572 3282.393,-142.7148 3248,-123 3212.1094,-102.4267 3093.8298,-83.8701 3036.1697,-75.7842"/>
<polygon fill="#191970" stroke="#191970" points="3036.5274,-72.3004 3026.1423,-74.3981 3035.5688,-79.2345 3036.5274,-72.3004"/>
</g>
<!-- Node18 -->
<g id="node19" class="node">
<title>Node18</title>
<polygon fill="#ffffff" stroke="#bfbfbf" points="666.5,-235.5 666.5,-254.5 713.5,-254.5 713.5,-235.5 666.5,-235.5"/>
<text text-anchor="middle" x="690" y="-242.5" font-family="Helvetica,sans-Serif" font-size="10.00" fill="#000000">vector</text>
</g>
<!-- Node0&#45;&gt;Node18 -->
<g id="edge179" class="edge">
<title>Node0&#45;&gt;Node18</title>
<path fill="none" stroke="#191970" d="M1318.6725,-920.5437C1118.2936,-917.2283 507.1121,-904.4833 312,-870 214.8233,-852.8254 100,-902.6827 100,-804 100,-804 100,-804 100,-692 100,-456.0234 225.527,-369.681 448,-291 519.7818,-265.6133 608.7657,-253.289 656.3081,-248.1369"/>
<polygon fill="#191970" stroke="#191970" points="656.7756,-251.6072 666.3585,-247.0885 656.0493,-244.645 656.7756,-251.6072"/>
</g>
<!-- Node31 -->
<g id="node32" class="node">
<title>Node31</title>
<polygon fill="#ffffff" stroke="#bfbfbf" points="142.5,-235.5 142.5,-254.5 235.5,-254.5 235.5,-235.5 142.5,-235.5"/>
<text text-anchor="middle" x="189" y="-242.5" font-family="Helvetica,sans-Serif" font-size="10.00" fill="#000000">unordered_map</text>
</g>
<!-- Node0&#45;&gt;Node31 -->
<g id="edge178" class="edge">
<title>Node0&#45;&gt;Node31</title>
<path fill="none" stroke="#191970" d="M1318.7498,-921.0653C1076.8644,-919.132 229.0229,-909.5712 115,-870 67.7997,-853.6193 24,-853.962 24,-804 24,-804 24,-804 24,-574.5 24,-442.3 131.5046,-308.8355 172.9622,-262.2819"/>
<polygon fill="#191970" stroke="#191970" points="175.7801,-264.3842 179.8939,-254.6206 170.5893,-259.6878 175.7801,-264.3842"/>
</g>
<!-- Node47 -->
<g id="node42" class="node">
<title>Node47</title>
<g id="a_node42"><a xlink:href="repr__printer_8h.html" target="_top" xlink:title="Printer class to print repr string of each AST/IR nodes. ">
<polygon fill="#ffffff" stroke="#000000" points="2709.5,-626.5 2709.5,-645.5 2840.5,-645.5 2840.5,-626.5 2709.5,-626.5"/>
<text text-anchor="middle" x="2775" y="-633.5" font-family="Helvetica,sans-Serif" font-size="10.00" fill="#000000">tvm/node/repr_printer.h</text>
</a>
</g>
</g>
<!-- Node0&#45;&gt;Node47 -->
<g id="edge160" class="edge">
<title>Node0&#45;&gt;Node47</title>
<path fill="none" stroke="#191970" d="M1447.4908,-920.6389C1743.1529,-916.5412 2955.8427,-898.0455 2983,-870 3041.1246,-809.9745 3035.3162,-747.1502 2983,-682 2966.3851,-661.3092 2903.0397,-649.3609 2850.5743,-642.8553"/>
<polygon fill="#191970" stroke="#191970" points="2850.9252,-639.3724 2840.5812,-641.6644 2850.0967,-646.3232 2850.9252,-639.3724"/>
</g>
<!-- Node50 -->
<g id="node45" class="node">
<title>Node50</title>
<g id="a_node45"><a xlink:href="registry_8h.html" target="_top" xlink:title="This file defines the TVM global function registry. ">
<polygon fill="#ffffff" stroke="#000000" points="326.5,-498 326.5,-517 451.5,-517 451.5,-498 326.5,-498"/>
<text text-anchor="middle" x="389" y="-505" font-family="Helvetica,sans-Serif" font-size="10.00" fill="#000000">tvm/runtime/registry.h</text>
</a>
</g>
</g>
<!-- Node0&#45;&gt;Node50 -->
<g id="edge162" class="edge">
<title>Node0&#45;&gt;Node50</title>
<path fill="none" stroke="#191970" d="M1318.8964,-921.1865C1133.7424,-919.7823 600.6465,-912.0924 432,-870 364.4765,-853.1468 290,-873.5949 290,-804 290,-804 290,-804 290,-748 290,-658.9628 348.7396,-564.3968 375.7271,-525.6478"/>
<polygon fill="#191970" stroke="#191970" points="378.6222,-527.616 381.5589,-517.4363 372.915,-523.5628 378.6222,-527.616"/>
</g>
<!-- Node53 -->
<g id="node48" class="node">
<title>Node53</title>
<g id="a_node48"><a xlink:href="relax__vm_2bytecode_8h.html" target="_top" xlink:title="The bytecode for the virtual machine. ">
<polygon fill="#ffffff" stroke="#000000" points="838,-492.5 838,-522.5 964,-522.5 964,-492.5 838,-492.5"/>
<text text-anchor="start" x="846" y="-510.5" font-family="Helvetica,sans-Serif" font-size="10.00" fill="#000000">tvm/runtime/relax_vm</text>
<text text-anchor="middle" x="901" y="-499.5" font-family="Helvetica,sans-Serif" font-size="10.00" fill="#000000">/bytecode.h</text>
</a>
</g>
</g>
<!-- Node0&#45;&gt;Node53 -->
<g id="edge163" class="edge">
<title>Node0&#45;&gt;Node53</title>
<path fill="none" stroke="#191970" d="M1380.6629,-906.3421C1373.4951,-864.7986 1348.0911,-747.8432 1281,-682 1193.9061,-596.526 1057.3508,-548.0643 973.8391,-524.8609"/>
<polygon fill="#191970" stroke="#191970" points="974.744,-521.4799 964.1752,-522.2228 972.9005,-528.2328 974.744,-521.4799"/>
</g>
<!-- Node54 -->
<g id="node49" class="node">
<title>Node54</title>
<g id="a_node49"><a xlink:href="relax__vm_2executable_8h.html" target="_top" xlink:title="tvm/runtime/relax_vm\l/executable.h">
<polygon fill="#ffffff" stroke="#000000" points="588,-559.5 588,-589.5 714,-589.5 714,-559.5 588,-559.5"/>
<text text-anchor="start" x="596" y="-577.5" font-family="Helvetica,sans-Serif" font-size="10.00" fill="#000000">tvm/runtime/relax_vm</text>
<text text-anchor="middle" x="651" y="-566.5" font-family="Helvetica,sans-Serif" font-size="10.00" fill="#000000">/executable.h</text>
</a>
</g>
</g>
<!-- Node0&#45;&gt;Node54 -->
<g id="edge168" class="edge">
<title>Node0&#45;&gt;Node54</title>
<path fill="none" stroke="#191970" d="M1318.9968,-920.858C1095.8944,-917.7849 366,-900.3668 366,-804 366,-804 366,-804 366,-748 366,-648.8176 493.4904,-604.6951 577.9322,-586.3488"/>
<polygon fill="#191970" stroke="#191970" points="578.6811,-589.7679 587.7493,-584.289 577.2436,-582.9171 578.6811,-589.7679"/>
</g>
<!-- Node2 -->
<g id="node3" class="node">
<title>Node2</title>
<g id="a_node3"><a xlink:href="source__map_8h.html" target="_top" xlink:title="A map from source names to source code. ">
<polygon fill="#ffffff" stroke="#000000" points="1182.5,-738.5 1182.5,-757.5 1299.5,-757.5 1299.5,-738.5 1182.5,-738.5"/>
<text text-anchor="middle" x="1241" y="-745.5" font-family="Helvetica,sans-Serif" font-size="10.00" fill="#000000">tvm/ir/source_map.h</text>
</a>
</g>
</g>
<!-- Node1&#45;&gt;Node2 -->
<g id="edge2" class="edge">
<title>Node1&#45;&gt;Node2</title>
<path fill="none" stroke="#191970" d="M1296.7992,-850.4509C1286.6701,-831.8533 1264.1429,-790.4919 1251.0195,-766.3964"/>
<polygon fill="#191970" stroke="#191970" points="1254.0444,-764.6328 1246.1877,-757.5249 1247.8971,-767.9809 1254.0444,-764.6328"/>
</g>
<!-- Node3 -->
<g id="node4" class="node">
<title>Node3</title>
<g id="a_node4"><a xlink:href="node_8h.html" target="_top" xlink:title="Definitions and helper macros for IR/AST nodes. ">
<polygon fill="#ffffff" stroke="#000000" points="1995.5,-682.5 1995.5,-701.5 2094.5,-701.5 2094.5,-682.5 1995.5,-682.5"/>
<text text-anchor="middle" x="2045" y="-689.5" font-family="Helvetica,sans-Serif" font-size="10.00" fill="#000000">tvm/node/node.h</text>
</a>
</g>
</g>
<!-- Node1&#45;&gt;Node3 -->
<g id="edge152" class="edge">
<title>Node1&#45;&gt;Node3</title>
<path fill="none" stroke="#191970" d="M1302.6603,-850.3213C1304.8548,-826.5562 1314.1054,-765.2863 1352,-738 1402.7762,-701.4383 1826.8009,-693.9248 1985.425,-692.3905"/>
<polygon fill="#191970" stroke="#191970" points="1985.5155,-695.8899 1995.4828,-692.2978 1985.4509,-688.8902 1985.5155,-695.8899"/>
</g>
<!-- Node1&#45;&gt;Node8 -->
<g id="edge154" class="edge">
<title>Node1&#45;&gt;Node8</title>
<path fill="none" stroke="#191970" d="M1341.779,-853.3715C1516.9885,-824.0423 2220.77,-704.7978 2437,-646 2508.0841,-626.6706 2541.6288,-642.7974 2593,-590 2689.6017,-490.7163 2764.8883,-401.2356 2681,-291 2646.7243,-245.9591 2274.0269,-172.4862 2123.5096,-144.4042"/>
<polygon fill="#191970" stroke="#191970" points="2123.9643,-140.9288 2113.4929,-142.5413 2122.6843,-147.8108 2123.9643,-140.9288"/>
</g>
<!-- Node1&#45;&gt;Node14 -->
<g id="edge157" class="edge">
<title>Node1&#45;&gt;Node14</title>
<path fill="none" stroke="#191970" d="M1341.7563,-859.7881C1620.4415,-857.7951 3270,-837.4879 3270,-636 3270,-636 3270,-636 3270,-189 3270,-152.4662 3251.5072,-143.1004 3221,-123 3190.8267,-103.1196 3089.3058,-84.8532 3036.5102,-76.4146"/>
<polygon fill="#191970" stroke="#191970" points="3036.754,-72.91 3026.3315,-74.8131 3035.6659,-79.8249 3036.754,-72.91"/>
</g>
<!-- Node15 -->
<g id="node16" class="node">
<title>Node15</title>
<polygon fill="#ffffff" stroke="#bfbfbf" points="929.5,-62 929.5,-81 998.5,-81 998.5,-62 929.5,-62"/>
<text text-anchor="middle" x="964" y="-69" font-family="Helvetica,sans-Serif" font-size="10.00" fill="#000000">type_traits</text>
</g>
<!-- Node1&#45;&gt;Node15 -->
<g id="edge158" class="edge">
<title>Node1&#45;&gt;Node15</title>
<path fill="none" stroke="#191970" d="M1262.2552,-858.3026C1140.6879,-852.9306 775.0177,-835.3863 658,-814 386.0543,-764.2989 62,-912.4502 62,-636 62,-636 62,-636 62,-574.5 62,-484.9502 76,-463.0498 76,-373.5 76,-373.5 76,-373.5 76,-306.5 76,-270.3023 86.0222,-256.6923 115,-235 141.3299,-215.2898 668.0831,-124.0758 674,-123 760.6731,-107.2417 862.0246,-89.3698 919.0467,-79.3655"/>
<polygon fill="#191970" stroke="#191970" points="919.9193,-82.766 929.1645,-77.5914 918.7103,-75.8712 919.9193,-82.766"/>
</g>
<!-- Node24 -->
<g id="node25" class="node">
<title>Node24</title>
<polygon fill="#ffffff" stroke="#bfbfbf" points="1330,-179.5 1330,-198.5 1394,-198.5 1394,-179.5 1330,-179.5"/>
<text text-anchor="middle" x="1362" y="-186.5" font-family="Helvetica,sans-Serif" font-size="10.00" fill="#000000">algorithm</text>
</g>
<!-- Node1&#45;&gt;Node24 -->
<g id="edge155" class="edge">
<title>Node1&#45;&gt;Node24</title>
<path fill="none" stroke="#191970" d="M1262.2135,-855.6315C1140.9174,-841.7828 784,-796.8796 784,-748 784,-748 784,-748 784,-440.5 784,-366.9431 798.63,-338.2551 855,-291 927.0524,-230.5984 967.0309,-254.534 1059,-235 1107.9862,-224.5954 1248.7624,-204.6202 1319.8517,-194.775"/>
<polygon fill="#191970" stroke="#191970" points="1320.3886,-198.2342 1329.8154,-193.3983 1319.4305,-191.3001 1320.3886,-198.2342"/>
</g>
<!-- Node26 -->
<g id="node27" class="node">
<title>Node26</title>
<g id="a_node27"><a xlink:href="string_8h.html" target="_top" xlink:title="Runtime String container types. ">
<polygon fill="#ffffff" stroke="#000000" points="1774,-291.5 1774,-321.5 1900,-321.5 1900,-291.5 1774,-291.5"/>
<text text-anchor="start" x="1782" y="-309.5" font-family="Helvetica,sans-Serif" font-size="10.00" fill="#000000">tvm/runtime/container</text>
<text text-anchor="middle" x="1837" y="-298.5" font-family="Helvetica,sans-Serif" font-size="10.00" fill="#000000">/string.h</text>
</a>
</g>
</g>
<!-- Node1&#45;&gt;Node26 -->
<g id="edge153" class="edge">
<title>Node1&#45;&gt;Node26</title>
<path fill="none" stroke="#191970" d="M1262.3794,-854.4853C1206.9585,-844.2868 1113,-816.8448 1113,-748 1113,-748 1113,-748 1113,-692 1113,-527.2927 1227.5981,-507.7659 1370,-425 1436.6895,-386.2392 1649.6782,-341.8222 1763.551,-320.0173"/>
<polygon fill="#191970" stroke="#191970" points="1764.4157,-323.4156 1773.5838,-318.1056 1763.1054,-316.5393 1764.4157,-323.4156"/>
</g>
<!-- Node45 -->
<g id="node41" class="node">
<title>Node45</title>
<polygon fill="#ffffff" stroke="#bfbfbf" points="332,-364 332,-383 376,-383 376,-364 332,-364"/>
<text text-anchor="middle" x="354" y="-371" font-family="Helvetica,sans-Serif" font-size="10.00" fill="#000000">limits</text>
</g>
<!-- Node1&#45;&gt;Node45 -->
<g id="edge156" class="edge">
<title>Node1&#45;&gt;Node45</title>
<path fill="none" stroke="#191970" d="M1262.4705,-857.8295C1155.8795,-851.7779 864.2294,-833.853 770,-814 619.267,-782.2424 565.0837,-794.625 442,-702 364.4677,-643.6541 346.12,-615.561 317,-523 302.3572,-476.4564 327.3907,-420.3033 342.976,-391.8905"/>
<polygon fill="#191970" stroke="#191970" points="346.0992,-393.4791 348.0142,-383.0587 340.019,-390.0105 346.0992,-393.4791"/>
</g>
<!-- Node52 -->
<g id="node47" class="node">
<title>Node52</title>
<g id="a_node47"><a xlink:href="ir_2type_8h.html" target="_top" xlink:title="IR/AST nodes for the unified type system in TVM. ">
<polygon fill="#ffffff" stroke="#000000" points="2005,-794.5 2005,-813.5 2085,-813.5 2085,-794.5 2005,-794.5"/>
<text text-anchor="middle" x="2045" y="-801.5" font-family="Helvetica,sans-Serif" font-size="10.00" fill="#000000">tvm/ir/type.h</text>
</a>
</g>
</g>
<!-- Node1&#45;&gt;Node52 -->
<g id="edge145" class="edge">
<title>Node1&#45;&gt;Node52</title>
<path fill="none" stroke="#191970" d="M1341.6842,-857.009C1467.1236,-847.5546 1854.9993,-818.3204 1994.4298,-807.8115"/>
<polygon fill="#191970" stroke="#191970" points="1995.1037,-811.2707 2004.8123,-807.029 1994.5775,-804.2905 1995.1037,-811.2707"/>
</g>
<!-- Node2&#45;&gt;Node3 -->
<g id="edge3" class="edge">
<title>Node2&#45;&gt;Node3</title>
<path fill="none" stroke="#191970" d="M1299.5262,-739.5984C1304.4172,-739.0132 1309.2904,-738.4701 1314,-738 1562.6055,-713.1839 1860.1933,-699.3642 1985.1394,-694.2793"/>
<polygon fill="#191970" stroke="#191970" points="1985.4119,-697.7712 1995.2627,-693.8711 1985.1298,-690.7769 1985.4119,-697.7712"/>
</g>
<!-- Node2&#45;&gt;Node8 -->
<g id="edge133" class="edge">
<title>Node2&#45;&gt;Node8</title>
<path fill="none" stroke="#191970" d="M1257.4344,-738.3833C1333.4127,-693.7467 1657.6161,-501.3331 1909,-322 1927.0254,-309.141 1929.1186,-302.5657 1948,-291 1980.9027,-270.8456 2001.9222,-284.324 2027,-255 2052.0215,-225.7419 2058.7209,-179.4364 2060.4562,-153.0889"/>
<polygon fill="#191970" stroke="#191970" points="2063.9653,-152.9779 2060.9438,-142.8231 2056.9732,-152.6457 2063.9653,-152.9779"/>
</g>
<!-- Node2&#45;&gt;Node14 -->
<g id="edge142" class="edge">
<title>Node2&#45;&gt;Node14</title>
<path fill="none" stroke="#191970" d="M1299.8856,-746.5866C1560.4444,-740.0056 2611.0298,-709.9431 2934,-646 3078.4872,-617.3938 3194,-587.7918 3194,-440.5 3194,-440.5 3194,-440.5 3194,-189 3194,-115.7342 3090.5415,-86.6153 3036.3116,-76.3846"/>
<polygon fill="#191970" stroke="#191970" points="3036.6253,-72.8856 3026.1673,-74.5828 3035.4011,-79.7778 3036.6253,-72.8856"/>
</g>
<!-- Node16 -->
<g id="node17" class="node">
<title>Node16</title>
<polygon fill="#ffffff" stroke="#bfbfbf" points="561.5,-62 561.5,-81 606.5,-81 606.5,-62 561.5,-62"/>
<text text-anchor="middle" x="584" y="-69" font-family="Helvetica,sans-Serif" font-size="10.00" fill="#000000">utility</text>
</g>
<!-- Node2&#45;&gt;Node16 -->
<g id="edge143" class="edge">
<title>Node2&#45;&gt;Node16</title>
<path fill="none" stroke="#191970" d="M1182.4356,-746.1741C1010.0865,-740.5847 512.3203,-722.8171 442,-702 207.3097,-632.5241 0,-618.2579 0,-373.5 0,-373.5 0,-373.5 0,-189 0,-125.7826 65.5548,-141.5155 126,-123 205.9396,-98.5129 460.5631,-79.6862 551.4085,-73.596"/>
<polygon fill="#191970" stroke="#191970" points="551.6615,-77.087 561.408,-72.9329 551.1983,-70.1023 551.6615,-77.087"/>
</g>
<!-- Node2&#45;&gt;Node18 -->
<g id="edge144" class="edge">
<title>Node2&#45;&gt;Node18</title>
<path fill="none" stroke="#191970" d="M1182.2344,-745.5281C1003.7349,-737.2454 480,-706.9021 480,-636 480,-636 480,-636 480,-574.5 480,-432.9758 527.2188,-393.3128 625,-291 636.4524,-279.0169 651.4353,-268.1681 664.1295,-260.0197"/>
<polygon fill="#191970" stroke="#191970" points="666.234,-262.833 672.8852,-254.586 662.5428,-256.8852 666.234,-262.833"/>
</g>
<!-- Node41 -->
<g id="node40" class="node">
<title>Node41</title>
<g id="a_node40"><a xlink:href="packed__func_8h.html" target="_top" xlink:title="Type&#45;erased function used across TVM API. ">
<polygon fill="#ffffff" stroke="#ff0000" points="1160,-425.5 1160,-455.5 1276,-455.5 1276,-425.5 1160,-425.5"/>
<text text-anchor="start" x="1168" y="-443.5" font-family="Helvetica,sans-Serif" font-size="10.00" fill="#000000">tvm/runtime/packed</text>
<text text-anchor="middle" x="1218" y="-432.5" font-family="Helvetica,sans-Serif" font-size="10.00" fill="#000000">_func.h</text>
</a>
</g>
</g>
<!-- Node2&#45;&gt;Node41 -->
<g id="edge134" class="edge">
<title>Node2&#45;&gt;Node41</title>
<path fill="none" stroke="#191970" d="M1232.6022,-738.3984C1225.2024,-729.5003 1214.6014,-715.6206 1208,-702 1194.6871,-674.5315 1189,-666.5246 1189,-636 1189,-636 1189,-636 1189,-574.5 1189,-535.6258 1200.8032,-491.8139 1209.3494,-465.1867"/>
<polygon fill="#191970" stroke="#191970" points="1212.7218,-466.1364 1212.5453,-455.543 1206.0771,-463.9343 1212.7218,-466.1364"/>
</g>
<!-- Node2&#45;&gt;Node50 -->
<g id="edge135" class="edge">
<title>Node2&#45;&gt;Node50</title>
<path fill="none" stroke="#191970" d="M1182.4408,-746.2368C1006.8297,-740.7248 494.9163,-722.9315 466,-702 408.1854,-660.1501 393.7585,-567.9319 390.1755,-527.3407"/>
<polygon fill="#191970" stroke="#191970" points="393.664,-527.0557 389.4254,-517.3457 386.6837,-527.5796 393.664,-527.0557"/>
</g>
<!-- Node51 -->
<g id="node46" class="node">
<title>Node51</title>
<polygon fill="#ffffff" stroke="#bfbfbf" points="1217.5,-682.5 1217.5,-701.5 1272.5,-701.5 1272.5,-682.5 1217.5,-682.5"/>
<text text-anchor="middle" x="1245" y="-689.5" font-family="Helvetica,sans-Serif" font-size="10.00" fill="#000000">fstream</text>
</g>
<!-- Node2&#45;&gt;Node51 -->
<g id="edge141" class="edge">
<title>Node2&#45;&gt;Node51</title>
<path fill="none" stroke="#191970" d="M1241.6967,-738.2455C1242.2187,-730.9382 1242.9504,-720.6944 1243.5925,-711.7046"/>
<polygon fill="#191970" stroke="#191970" points="1247.0898,-711.8667 1244.3112,-701.6427 1240.1076,-711.3679 1247.0898,-711.8667"/>
</g>
<!-- Node3&#45;&gt;Node4 -->
<g id="edge4" class="edge">
<title>Node3&#45;&gt;Node4</title>
<path fill="none" stroke="#191970" d="M2052.5917,-682.3402C2075.7886,-652.8242 2145.9804,-563.5111 2176.0659,-525.2299"/>
<polygon fill="#191970" stroke="#191970" points="2179.0561,-527.0893 2182.4835,-517.0641 2173.5524,-522.7639 2179.0561,-527.0893"/>
</g>
<!-- Node5 -->
<g id="node6" class="node">
<title>Node5</title>
<g id="a_node6"><a xlink:href="structural__equal_8h.html" target="_top" xlink:title="Structural equality comparison. ">
<polygon fill="#ffffff" stroke="#000000" points="2169.5,-425.5 2169.5,-455.5 2282.5,-455.5 2282.5,-425.5 2169.5,-425.5"/>
<text text-anchor="start" x="2177.5" y="-443.5" font-family="Helvetica,sans-Serif" font-size="10.00" fill="#000000">tvm/node/structural</text>
<text text-anchor="middle" x="2226" y="-432.5" font-family="Helvetica,sans-Serif" font-size="10.00" fill="#000000">_equal.h</text>
</a>
</g>
</g>
<!-- Node3&#45;&gt;Node5 -->
<g id="edge124" class="edge">
<title>Node3&#45;&gt;Node5</title>
<path fill="none" stroke="#191970" d="M2067.8363,-682.4543C2114.3739,-661.5766 2219.2266,-606.9116 2260,-523 2269.5131,-503.422 2258.3412,-480.4823 2246.3247,-463.769"/>
<polygon fill="#191970" stroke="#191970" points="2248.944,-461.4338 2240.069,-455.6473 2243.3984,-465.7054 2248.944,-461.4338"/>
</g>
<!-- Node3&#45;&gt;Node8 -->
<g id="edge128" class="edge">
<title>Node3&#45;&gt;Node8</title>
<path fill="none" stroke="#191970" d="M2094.7417,-686.4091C2228.1758,-670.7443 2584,-624.3025 2584,-574.5 2584,-574.5 2584,-574.5 2584,-507.5 2584,-279.522 2251.4295,-176.9949 2116.69,-144.8117"/>
<polygon fill="#191970" stroke="#191970" points="2117.4896,-141.4043 2106.9544,-142.5268 2115.8901,-148.2192 2117.4896,-141.4043"/>
</g>
<!-- Node9 -->
<g id="node10" class="node">
<title>Node9</title>
<g id="a_node10"><a xlink:href="c__runtime__api_8h.html" target="_top" xlink:title="tvm/runtime/c_runtime\l_api.h">
<polygon fill="#ffffff" stroke="#000000" points="2403.5,-56.5 2403.5,-86.5 2532.5,-86.5 2532.5,-56.5 2403.5,-56.5"/>
<text text-anchor="start" x="2411.5" y="-74.5" font-family="Helvetica,sans-Serif" font-size="10.00" fill="#000000">tvm/runtime/c_runtime</text>
<text text-anchor="middle" x="2468" y="-63.5" font-family="Helvetica,sans-Serif" font-size="10.00" fill="#000000">_api.h</text>
</a>
</g>
</g>
<!-- Node3&#45;&gt;Node9 -->
<g id="edge126" class="edge">
<title>Node3&#45;&gt;Node9</title>
<path fill="none" stroke="#191970" d="M2094.7362,-690.3287C2258.9147,-684.6499 2777.294,-665.3697 2850,-646 2856.7222,-644.2091 2957.956,-595.6605 2962,-590 3022.1198,-505.8483 3030.8706,-448.0449 2980,-358 2887.2581,-193.8398 2660.9469,-117.2877 2542.7132,-87.4778"/>
<polygon fill="#191970" stroke="#191970" points="2543.2045,-83.9939 2532.6565,-84.9894 2541.5231,-90.7889 2543.2045,-83.9939"/>
</g>
<!-- Node3&#45;&gt;Node14 -->
<g id="edge129" class="edge">
<title>Node3&#45;&gt;Node14</title>
<path fill="none" stroke="#191970" d="M2094.5674,-690.5926C2263.3236,-685.6207 2809.2604,-667.9924 2885,-646 3030.1619,-603.8495 3156,-591.6577 3156,-440.5 3156,-440.5 3156,-440.5 3156,-189 3156,-128.8142 3080.4821,-95.0962 3035.9054,-80.4359"/>
<polygon fill="#191970" stroke="#191970" points="3036.6915,-77.0142 3026.1021,-77.3534 3034.5918,-83.6918 3036.6915,-77.0142"/>
</g>
<!-- Node3&#45;&gt;Node15 -->
<g id="edge130" class="edge">
<title>Node3&#45;&gt;Node15</title>
<path fill="none" stroke="#191970" d="M1995.4016,-691.5564C1791.9854,-689.5269 1021.0399,-679.7248 780,-646 553.7875,-614.3497 467.4725,-654.9161 281,-523 163.5141,-439.887 39.0892,-344.048 133,-235 168.1924,-194.1351 319.8151,-207.9335 373,-199 507.1934,-176.4595 544.0478,-183.3533 674,-143 694.9018,-136.5095 698.175,-129.733 719,-123 787.3399,-100.9048 869.5359,-85.8761 919.2254,-77.9974"/>
<polygon fill="#191970" stroke="#191970" points="919.9766,-81.4227 929.3185,-76.4248 918.8988,-74.5062 919.9766,-81.4227"/>
</g>
<!-- Node3&#45;&gt;Node16 -->
<g id="edge131" class="edge">
<title>Node3&#45;&gt;Node16</title>
<path fill="none" stroke="#191970" d="M1995.2821,-691.1434C1751.8889,-686.8596 691.828,-667.1285 546,-646 449.1277,-631.9645 421.9411,-630.8745 333,-590 167.7722,-514.0666 38,-488.3409 38,-306.5 38,-306.5 38,-306.5 38,-189 38,-136.2277 432.8608,-88.2364 550.9994,-75.0588"/>
<polygon fill="#191970" stroke="#191970" points="551.6794,-78.5051 561.2342,-73.9274 550.9101,-71.5475 551.6794,-78.5051"/>
</g>
<!-- Node3&#45;&gt;Node18 -->
<g id="edge132" class="edge">
<title>Node3&#45;&gt;Node18</title>
<path fill="none" stroke="#191970" d="M1995.1406,-690.4212C1744.0876,-682.2361 628.4082,-642.9654 579,-590 487.3514,-491.7532 625.8285,-317.3648 674.2874,-262.2172"/>
<polygon fill="#191970" stroke="#191970" points="676.953,-264.4868 680.9953,-254.6934 671.728,-259.8284 676.953,-264.4868"/>
</g>
<!-- Node22 -->
<g id="node23" class="node">
<title>Node22</title>
<g id="a_node23"><a xlink:href="runtime_2memory_8h.html" target="_top" xlink:title="Runtime memory management. ">
<polygon fill="#ffffff" stroke="#000000" points="1144.5,-179.5 1144.5,-198.5 1273.5,-198.5 1273.5,-179.5 1144.5,-179.5"/>
<text text-anchor="middle" x="1209" y="-186.5" font-family="Helvetica,sans-Serif" font-size="10.00" fill="#000000">tvm/runtime/memory.h</text>
</a>
</g>
</g>
<!-- Node3&#45;&gt;Node22 -->
<g id="edge127" class="edge">
<title>Node3&#45;&gt;Node22</title>
<path fill="none" stroke="#191970" d="M1995.3366,-685.4254C1858.7245,-666.7436 1466.4015,-609.0723 1149,-523 978.1817,-476.6778 922.0751,-485.9454 774,-389 707.8532,-345.6934 683.3056,-329.5579 657,-255 654.0425,-246.6175 650.9812,-241.5412 657,-235 672.9269,-217.6906 987.018,-199.9668 1134.1524,-192.5752"/>
<polygon fill="#191970" stroke="#191970" points="1134.6381,-196.0554 1144.4511,-192.0611 1134.289,-189.0642 1134.6381,-196.0554"/>
</g>
<!-- Node34 -->
<g id="node35" class="node">
<title>Node34</title>
<g id="a_node35"><a xlink:href="structural__hash_8h.html" target="_top" xlink:title="Structural hash class. ">
<polygon fill="#ffffff" stroke="#000000" points="1988.5,-425.5 1988.5,-455.5 2101.5,-455.5 2101.5,-425.5 1988.5,-425.5"/>
<text text-anchor="start" x="1996.5" y="-443.5" font-family="Helvetica,sans-Serif" font-size="10.00" fill="#000000">tvm/node/structural</text>
<text text-anchor="middle" x="2045" y="-432.5" font-family="Helvetica,sans-Serif" font-size="10.00" fill="#000000">_hash.h</text>
</a>
</g>
</g>
<!-- Node3&#45;&gt;Node34 -->
<g id="edge125" class="edge">
<title>Node3&#45;&gt;Node34</title>
<path fill="none" stroke="#191970" d="M2045,-682.448C2045,-646.7725 2045,-520.5945 2045,-465.9932"/>
<polygon fill="#191970" stroke="#191970" points="2048.5001,-465.7804 2045,-455.7804 2041.5001,-465.7804 2048.5001,-465.7804"/>
</g>
<!-- Node3&#45;&gt;Node47 -->
<g id="edge113" class="edge">
<title>Node3&#45;&gt;Node47</title>
<path fill="none" stroke="#191970" d="M2094.6019,-688.1949C2219.9241,-678.5812 2549.9127,-653.267 2699.4395,-641.7964"/>
<polygon fill="#191970" stroke="#191970" points="2699.7531,-645.2827 2709.4561,-641.028 2699.2176,-638.3032 2699.7531,-645.2827"/>
</g>
<!-- Node4&#45;&gt;Node5 -->
<g id="edge5" class="edge">
<title>Node4&#45;&gt;Node5</title>
<path fill="none" stroke="#191970" d="M2195.1579,-497.9005C2199.8058,-489.2503 2206.8373,-476.164 2213.0132,-464.6699"/>
<polygon fill="#191970" stroke="#191970" points="2216.2785,-465.9873 2217.9286,-455.5218 2210.1123,-462.6741 2216.2785,-465.9873"/>
</g>
<!-- Node4&#45;&gt;Node8 -->
<g id="edge95" class="edge">
<title>Node4&#45;&gt;Node8</title>
<path fill="none" stroke="#191970" d="M2227.9255,-497.9744C2250.1755,-490.3619 2276.8198,-477.3364 2292,-456 2317.3562,-420.3608 2309.3265,-400.939 2301,-358 2282.5761,-262.9901 2259.599,-229.4353 2177,-179 2153.9675,-164.9363 2125.8846,-153.6677 2103.1196,-145.804"/>
<polygon fill="#191970" stroke="#191970" points="2103.9902,-142.4043 2093.3962,-142.5385 2101.7616,-149.0401 2103.9902,-142.4043"/>
</g>
<!-- Node4&#45;&gt;Node9 -->
<g id="edge91" class="edge">
<title>Node4&#45;&gt;Node9</title>
<path fill="none" stroke="#191970" d="M2250.502,-503.508C2339.1891,-496.8801 2499.54,-481.7238 2551,-456 2625.2202,-418.8989 2650.4289,-399.1398 2681,-322 2721.4903,-219.8312 2580.6244,-129.6628 2508.2694,-91.2251"/>
<polygon fill="#191970" stroke="#191970" points="2509.865,-88.1098 2499.3811,-86.5802 2506.6228,-94.3138 2509.865,-88.1098"/>
</g>
<!-- Node4&#45;&gt;Node14 -->
<g id="edge110" class="edge">
<title>Node4&#45;&gt;Node14</title>
<path fill="none" stroke="#191970" d="M2250.5721,-504.8137C2330.1191,-500.1414 2473.5779,-487.7553 2592,-456 2666.4634,-436.0324 2681.1689,-419.4379 2752,-389 2819.8296,-359.8519 2848.8966,-371.1334 2904,-322 2974.8731,-258.8054 2996.2115,-138.5515 3002.0205,-91.2837"/>
<polygon fill="#191970" stroke="#191970" points="3005.5202,-91.4816 3003.1597,-81.1531 2998.5641,-90.6993 3005.5202,-91.4816"/>
</g>
<!-- Node4&#45;&gt;Node15 -->
<g id="edge111" class="edge">
<title>Node4&#45;&gt;Node15</title>
<path fill="none" stroke="#191970" d="M2129.245,-506.312C1924.4601,-502.0643 1260.5078,-486.2469 1049,-456 924.4695,-438.1914 885.3455,-447.5421 774,-389 689.4303,-344.5359 573.3428,-316.0119 624,-235 641.8111,-206.5162 849.4403,-118.6783 931.2053,-84.9136"/>
<polygon fill="#191970" stroke="#191970" points="932.6185,-88.1169 940.5315,-81.0717 929.9522,-81.6446 932.6185,-88.1169"/>
</g>
<!-- Node4&#45;&gt;Node18 -->
<g id="edge112" class="edge">
<title>Node4&#45;&gt;Node18</title>
<path fill="none" stroke="#191970" d="M2129.3047,-506.4459C1936.7216,-502.7941 1340.9398,-489.0521 1151,-456 1104.3207,-447.8772 1095.1025,-435.9315 1049,-425 957.2861,-403.2535 927.6763,-423.6008 840,-389 789.5481,-369.0895 775.8943,-360.8053 738,-322 721.2299,-304.8267 707.418,-280.8174 698.984,-264.1941"/>
<polygon fill="#191970" stroke="#191970" points="701.9879,-262.3697 694.4493,-254.9253 695.7001,-265.446 701.9879,-262.3697"/>
</g>
<!-- Node4&#45;&gt;Node22 -->
<g id="edge93" class="edge">
<title>Node4&#45;&gt;Node22</title>
<path fill="none" stroke="#191970" d="M2129.2566,-503.9703C1987.6661,-493.6568 1627.6489,-455.2711 1363,-322 1304.1297,-292.3543 1249.2679,-235.2724 1223.8435,-206.4952"/>
<polygon fill="#191970" stroke="#191970" points="1226.4023,-204.1038 1217.1994,-198.8542 1221.1199,-208.697 1226.4023,-204.1038"/>
</g>
<!-- Node33 -->
<g id="node34" class="node">
<title>Node33</title>
<g id="a_node34"><a xlink:href="data__type_8h.html" target="_top" xlink:title="tvm/runtime/data_type.h">
<polygon fill="#ffffff" stroke="#000000" points="2534,-297 2534,-316 2672,-316 2672,-297 2534,-297"/>
<text text-anchor="middle" x="2603" y="-304" font-family="Helvetica,sans-Serif" font-size="10.00" fill="#000000">tvm/runtime/data_type.h</text>
</a>
</g>
</g>
<!-- Node4&#45;&gt;Node33 -->
<g id="edge92" class="edge">
<title>Node4&#45;&gt;Node33</title>
<path fill="none" stroke="#191970" d="M2250.8095,-504.4674C2334.4222,-499.2369 2479.3932,-486.0382 2522,-456 2567.3032,-424.0608 2589.7261,-358.5437 2598.4602,-325.8902"/>
<polygon fill="#191970" stroke="#191970" points="2601.8593,-326.7246 2600.9107,-316.1723 2595.0718,-325.013 2601.8593,-326.7246"/>
</g>
<!-- Node4&#45;&gt;Node34 -->
<g id="edge69" class="edge">
<title>Node4&#45;&gt;Node34</title>
<path fill="none" stroke="#191970" d="M2169.225,-497.9005C2147.79,-487.9961 2113.7681,-472.2756 2086.7444,-459.7888"/>
<polygon fill="#191970" stroke="#191970" points="2088.0557,-456.5392 2077.5098,-455.5218 2085.1194,-462.8936 2088.0557,-456.5392"/>
</g>
<!-- Node35 -->
<g id="node36" class="node">
<title>Node35</title>
<g id="a_node36"><a xlink:href="ndarray_8h.html" target="_top" xlink:title="A device&#45;independent managed NDArray abstraction. ">
<polygon fill="#ffffff" stroke="#000000" points="1978.5,-364 1978.5,-383 2103.5,-383 2103.5,-364 1978.5,-364"/>
<text text-anchor="middle" x="2041" y="-371" font-family="Helvetica,sans-Serif" font-size="10.00" fill="#000000">tvm/runtime/ndarray.h</text>
</a>
</g>
</g>
<!-- Node4&#45;&gt;Node35 -->
<g id="edge94" class="edge">
<title>Node4&#45;&gt;Node35</title>
<path fill="none" stroke="#191970" d="M2181.7265,-497.8279C2167.8595,-481.8623 2138.7138,-449.3403 2111,-425 2096.1214,-411.9326 2078.0993,-398.7272 2064.0678,-388.9603"/>
<polygon fill="#191970" stroke="#191970" points="2065.7214,-385.8501 2055.4966,-383.0745 2061.7589,-391.6206 2065.7214,-385.8501"/>
</g>
<!-- Node4&#45;&gt;Node41 -->
<g id="edge96" class="edge">
<title>Node4&#45;&gt;Node41</title>
<path fill="none" stroke="#191970" d="M2129.1395,-503.817C1997.536,-495.7814 1676.6659,-475.8043 1408,-456 1367.7454,-453.0327 1322.7226,-449.3747 1286.6112,-446.3576"/>
<polygon fill="#191970" stroke="#191970" points="1286.4484,-442.8318 1276.1909,-445.4842 1285.8636,-449.8073 1286.4484,-442.8318"/>
</g>
<!-- Node6 -->
<g id="node7" class="node">
<title>Node6</title>
<g id="a_node7"><a xlink:href="functor_8h.html" target="_top" xlink:title="Defines the Functor data structures. ">
<polygon fill="#ffffff" stroke="#000000" points="864.5,-297 864.5,-316 973.5,-316 973.5,-297 864.5,-297"/>
<text text-anchor="middle" x="919" y="-304" font-family="Helvetica,sans-Serif" font-size="10.00" fill="#000000">tvm/node/functor.h</text>
</a>
</g>
</g>
<!-- Node5&#45;&gt;Node6 -->
<g id="edge6" class="edge">
<title>Node5&#45;&gt;Node6</title>
<path fill="none" stroke="#191970" d="M2169.3823,-431.7611C2150.8212,-429.1929 2130.0684,-426.6365 2111,-425 1896.9711,-406.6315 1353.1137,-442.2396 1145,-389 1115.1531,-381.3646 1111.5649,-369.5406 1083,-358 1044.0067,-342.2462 998.2473,-328.2309 964.9867,-318.8138"/>
<polygon fill="#191970" stroke="#191970" points="965.6605,-315.3679 955.0871,-316.042 963.7731,-322.1087 965.6605,-315.3679"/>
</g>
<!-- Node5&#45;&gt;Node14 -->
<g id="edge68" class="edge">
<title>Node5&#45;&gt;Node14</title>
<path fill="none" stroke="#191970" d="M2282.5665,-436.3956C2350.1466,-430.454 2466.1085,-416.9512 2562,-389 2713.519,-344.8341 2742.5721,-302.1776 2862,-199 2907.2148,-159.9375 2959.1959,-112.6365 2985.971,-88.0902"/>
<polygon fill="#191970" stroke="#191970" points="2988.4363,-90.5783 2993.4359,-81.2373 2983.7024,-85.4217 2988.4363,-90.5783"/>
</g>
<!-- Node19 -->
<g id="node20" class="node">
<title>Node19</title>
<g id="a_node20"><a xlink:href="object__path_8h.html" target="_top" xlink:title="tvm/node/object_path.h">
<polygon fill="#ffffff" stroke="#000000" points="2160,-364 2160,-383 2292,-383 2292,-364 2160,-364"/>
<text text-anchor="middle" x="2226" y="-371" font-family="Helvetica,sans-Serif" font-size="10.00" fill="#000000">tvm/node/object_path.h</text>
</a>
</g>
</g>
<!-- Node5&#45;&gt;Node19 -->
<g id="edge21" class="edge">
<title>Node5&#45;&gt;Node19</title>
<path fill="none" stroke="#191970" d="M2226,-425.2967C2226,-415.7699 2226,-403.3954 2226,-393.1306"/>
<polygon fill="#191970" stroke="#191970" points="2229.5001,-393.0549 2226,-383.055 2222.5001,-393.055 2229.5001,-393.0549"/>
</g>
<!-- Node32 -->
<g id="node33" class="node">
<title>Node32</title>
<g id="a_node33"><a xlink:href="array_8h.html" target="_top" xlink:title="Runtime Array container types. ">
<polygon fill="#ffffff" stroke="#000000" points="1154,-358.5 1154,-388.5 1280,-388.5 1280,-358.5 1154,-358.5"/>
<text text-anchor="start" x="1162" y="-376.5" font-family="Helvetica,sans-Serif" font-size="10.00" fill="#000000">tvm/runtime/container</text>
<text text-anchor="middle" x="1217" y="-365.5" font-family="Helvetica,sans-Serif" font-size="10.00" fill="#000000">/array.h</text>
</a>
</g>
</g>
<!-- Node5&#45;&gt;Node32 -->
<g id="edge55" class="edge">
<title>Node5&#45;&gt;Node32</title>
<path fill="none" stroke="#191970" d="M2169.3615,-431.9906C2150.7991,-429.4362 2130.0508,-426.8299 2111,-425 1807.1213,-395.8116 1443.4289,-381.1004 1290.471,-375.8303"/>
<polygon fill="#191970" stroke="#191970" points="1290.3781,-372.3252 1280.2645,-375.4819 1290.1393,-379.3211 1290.3781,-372.3252"/>
</g>
<!-- Node5&#45;&gt;Node33 -->
<g id="edge63" class="edge">
<title>Node5&#45;&gt;Node33</title>
<path fill="none" stroke="#191970" d="M2282.8732,-432.8557C2328.7521,-425.3921 2394.264,-411.7633 2448,-389 2471.384,-379.0942 2473.8487,-370.42 2496,-358 2520.7946,-344.098 2549.9204,-330.2314 2571.519,-320.3951"/>
<polygon fill="#191970" stroke="#191970" points="2573.1961,-323.4781 2580.8704,-316.1736 2570.316,-317.0981 2573.1961,-323.4781"/>
</g>
<!-- Node7 -->
<g id="node8" class="node">
<title>Node7</title>
<polygon fill="#ffffff" stroke="#bfbfbf" points="1589.5,-179.5 1589.5,-198.5 1678.5,-198.5 1678.5,-179.5 1589.5,-179.5"/>
<text text-anchor="middle" x="1634" y="-186.5" font-family="Helvetica,sans-Serif" font-size="10.00" fill="#000000">dmlc/logging.h</text>
</g>
<!-- Node6&#45;&gt;Node7 -->
<g id="edge7" class="edge">
<title>Node6&#45;&gt;Node7</title>
<path fill="none" stroke="#191970" d="M973.7784,-304.6218C1100.9368,-299.8002 1412.9061,-285.1874 1513,-255 1550.2137,-243.7767 1588.9183,-220.2235 1612.2389,-204.5063"/>
<polygon fill="#191970" stroke="#191970" points="1614.415,-207.2576 1620.6732,-198.7086 1610.4497,-201.489 1614.415,-207.2576"/>
</g>
<!-- Node6&#45;&gt;Node8 -->
<g id="edge8" class="edge">
<title>Node6&#45;&gt;Node8</title>
<path fill="none" stroke="#191970" d="M933.856,-296.9256C958.7096,-281.3747 1010.7524,-250.7811 1059,-235 1154.4197,-203.7895 1186.6064,-230.2901 1282,-199 1300.5094,-192.9287 1302.2156,-184.1577 1321,-179 1445.9515,-144.692 1832.0537,-135.8959 1991.2642,-133.7037"/>
<polygon fill="#191970" stroke="#191970" points="1991.4653,-137.2014 2001.4179,-133.5686 1991.3722,-130.202 1991.4653,-137.2014"/>
</g>
<!-- Node6&#45;&gt;Node15 -->
<g id="edge18" class="edge">
<title>Node6&#45;&gt;Node15</title>
<path fill="none" stroke="#191970" d="M916.4983,-296.7418C913.3095,-282.9361 908.5953,-256.9385 912,-235 914.2595,-220.4405 944.0888,-130.719 957.5215,-90.7163"/>
<polygon fill="#191970" stroke="#191970" points="960.8975,-91.6576 960.7688,-81.0635 954.2629,-89.4256 960.8975,-91.6576"/>
</g>
<!-- Node6&#45;&gt;Node16 -->
<g id="edge19" class="edge">
<title>Node6&#45;&gt;Node16</title>
<path fill="none" stroke="#191970" d="M896.3374,-296.9165C860.087,-281.8983 786.5626,-252.7089 722,-235 639.1146,-212.2653 586.8257,-265.1892 532,-199 510.4531,-172.9871 518.9985,-154.1753 532,-123 537.9239,-108.7957 549.8831,-96.5036 560.8403,-87.4942"/>
<polygon fill="#191970" stroke="#191970" points="563.13,-90.1482 568.9074,-81.2672 558.8528,-84.607 563.13,-90.1482"/>
</g>
<!-- Node6&#45;&gt;Node18 -->
<g id="edge20" class="edge">
<title>Node6&#45;&gt;Node18</title>
<path fill="none" stroke="#191970" d="M883.2188,-296.8906C839.5232,-285.1558 766.183,-265.4596 723.5342,-254.0059"/>
<polygon fill="#191970" stroke="#191970" points="724.2101,-250.5635 713.6445,-251.3499 722.3945,-257.3239 724.2101,-250.5635"/>
</g>
<!-- Node8&#45;&gt;Node9 -->
<g id="edge9" class="edge">
<title>Node8&#45;&gt;Node9</title>
<path fill="none" stroke="#191970" d="M2120.6172,-123.9915C2192.7795,-113.0874 2314.3622,-94.7155 2392.8681,-82.8528"/>
<polygon fill="#191970" stroke="#191970" points="2393.8087,-86.2505 2403.1735,-81.2956 2392.7628,-79.3291 2393.8087,-86.2505"/>
</g>
<!-- Node13 -->
<g id="node14" class="node">
<title>Node13</title>
<polygon fill="#ffffff" stroke="#bfbfbf" points="1501.5,-62 1501.5,-81 1626.5,-81 1626.5,-62 1501.5,-62"/>
<text text-anchor="middle" x="1564" y="-69" font-family="Helvetica,sans-Serif" font-size="10.00" fill="#000000">tvm/runtime/logging.h</text>
</g>
<!-- Node8&#45;&gt;Node13 -->
<g id="edge13" class="edge">
<title>Node8&#45;&gt;Node13</title>
<path fill="none" stroke="#191970" d="M2001.0502,-125.5817C1909.5376,-114.2577 1735.2655,-92.6928 1636.6819,-80.4938"/>
<polygon fill="#191970" stroke="#191970" points="1636.8611,-76.9894 1626.5069,-79.2348 1636.0014,-83.9364 1636.8611,-76.9894"/>
</g>
<!-- Node8&#45;&gt;Node14 -->
<g id="edge14" class="edge">
<title>Node8&#45;&gt;Node14</title>
<path fill="none" stroke="#191970" d="M2120.7043,-129.1062C2300.6517,-117.3705 2833.8152,-82.599 2971.3407,-73.63"/>
<polygon fill="#191970" stroke="#191970" points="2971.8774,-77.1025 2981.6284,-72.959 2971.4218,-70.1173 2971.8774,-77.1025"/>
</g>
<!-- Node8&#45;&gt;Node15 -->
<g id="edge15" class="edge">
<title>Node8&#45;&gt;Node15</title>
<path fill="none" stroke="#191970" d="M2001.2415,-129.6498C1804.728,-118.6329 1181.2415,-83.679 1008.6579,-74.0036"/>
<polygon fill="#191970" stroke="#191970" points="1008.8333,-70.508 998.653,-73.4427 1008.4414,-77.4971 1008.8333,-70.508"/>
</g>
<!-- Node8&#45;&gt;Node16 -->
<g id="edge16" class="edge">
<title>Node8&#45;&gt;Node16</title>
<path fill="none" stroke="#191970" d="M2001.2996,-130.7154C1831.9024,-124.2066 1333.7109,-104.8818 920,-87 808.8264,-82.1948 676.9884,-75.9549 616.8496,-73.0788"/>
<polygon fill="#191970" stroke="#191970" points="616.9686,-69.5805 606.8126,-72.5981 616.6337,-76.5725 616.9686,-69.5805"/>
</g>
<!-- Node17 -->
<g id="node18" class="node">
<title>Node17</title>
<polygon fill="#ffffff" stroke="#bfbfbf" points="2080,-62 2080,-81 2130,-81 2130,-62 2080,-62"/>
<text text-anchor="middle" x="2105" y="-69" font-family="Helvetica,sans-Serif" font-size="10.00" fill="#000000">atomic</text>
</g>
<!-- Node8&#45;&gt;Node17 -->
<g id="edge17" class="edge">
<title>Node8&#45;&gt;Node17</title>
<path fill="none" stroke="#191970" d="M2067.875,-123.3906C2074.3593,-114.3273 2084.2414,-100.5149 2092.1801,-89.4188"/>
<polygon fill="#191970" stroke="#191970" points="2095.0559,-91.4143 2098.0281,-81.2449 2089.3629,-87.3412 2095.0559,-91.4143"/>
</g>
<!-- Node10 -->
<g id="node11" class="node">
<title>Node10</title>
<polygon fill="#ffffff" stroke="#bfbfbf" points="2328.5,-.5 2328.5,-19.5 2421.5,-19.5 2421.5,-.5 2328.5,-.5"/>
<text text-anchor="middle" x="2375" y="-7.5" font-family="Helvetica,sans-Serif" font-size="10.00" fill="#000000">dlpack/dlpack.h</text>
</g>
<!-- Node9&#45;&gt;Node10 -->
<g id="edge10" class="edge">
<title>Node9&#45;&gt;Node10</title>
<path fill="none" stroke="#191970" d="M2445.0112,-56.2977C2430.8034,-46.9022 2412.6215,-34.8787 2398.3475,-25.4395"/>
<polygon fill="#191970" stroke="#191970" points="2399.8845,-22.2598 2389.6128,-19.6633 2396.0233,-28.0986 2399.8845,-22.2598"/>
</g>
<!-- Node11 -->
<g id="node12" class="node">
<title>Node11</title>
<polygon fill="#ffffff" stroke="#bfbfbf" points="2440,-.5 2440,-19.5 2496,-19.5 2496,-.5 2440,-.5"/>
<text text-anchor="middle" x="2468" y="-7.5" font-family="Helvetica,sans-Serif" font-size="10.00" fill="#000000">stddef.h</text>
</g>
<!-- Node9&#45;&gt;Node11 -->
<g id="edge11" class="edge">
<title>Node9&#45;&gt;Node11</title>
<path fill="none" stroke="#191970" d="M2468,-56.2977C2468,-48.3834 2468,-38.6043 2468,-30.0759"/>
<polygon fill="#191970" stroke="#191970" points="2471.5001,-29.8469 2468,-19.8469 2464.5001,-29.847 2471.5001,-29.8469"/>
</g>
<!-- Node12 -->
<g id="node13" class="node">
<title>Node12</title>
<polygon fill="#ffffff" stroke="#bfbfbf" points="2514.5,-.5 2514.5,-19.5 2567.5,-19.5 2567.5,-.5 2514.5,-.5"/>
<text text-anchor="middle" x="2541" y="-7.5" font-family="Helvetica,sans-Serif" font-size="10.00" fill="#000000">stdint.h</text>
</g>
<!-- Node9&#45;&gt;Node12 -->
<g id="edge12" class="edge">
<title>Node9&#45;&gt;Node12</title>
<path fill="none" stroke="#191970" d="M2486.0449,-56.2977C2496.8114,-47.2274 2510.4851,-35.7077 2521.4995,-26.4285"/>
<polygon fill="#191970" stroke="#191970" points="2523.9191,-28.9667 2529.3118,-19.8469 2519.4089,-23.6132 2523.9191,-28.9667"/>
</g>
<!-- Node19&#45;&gt;Node8 -->
<g id="edge53" class="edge">
<title>Node19&#45;&gt;Node8</title>
<path fill="none" stroke="#191970" d="M2235.2843,-363.6623C2248.8774,-348.0057 2271.3115,-316.5753 2259,-291 2224.3624,-219.0458 2139.244,-169.674 2092.6851,-147.0505"/>
<polygon fill="#191970" stroke="#191970" points="2093.9023,-143.7542 2083.3673,-142.6304 2090.9022,-150.0787 2093.9023,-143.7542"/>
</g>
<!-- Node19&#45;&gt;Node14 -->
<g id="edge54" class="edge">
<title>Node19&#45;&gt;Node14</title>
<path fill="none" stroke="#191970" d="M2256.7822,-363.9824C2285.9495,-354.5817 2330.7166,-339.1547 2368,-322 2531.2617,-246.8808 2550.995,-184.1113 2720,-123 2807.7317,-91.2767 2918.0611,-78.457 2971.7207,-73.8239"/>
<polygon fill="#191970" stroke="#191970" points="2972.2992,-77.2882 2981.9782,-72.9793 2971.7247,-70.3118 2972.2992,-77.2882"/>
</g>
<!-- Node20 -->
<g id="node21" class="node">
<title>Node20</title>
<g id="a_node21"><a xlink:href="optional_8h.html" target="_top" xlink:title="Runtime Optional container types. ">
<polygon fill="#ffffff" stroke="#000000" points="1592,-291.5 1592,-321.5 1718,-321.5 1718,-291.5 1592,-291.5"/>
<text text-anchor="start" x="1600" y="-309.5" font-family="Helvetica,sans-Serif" font-size="10.00" fill="#000000">tvm/runtime/container</text>
<text text-anchor="middle" x="1655" y="-298.5" font-family="Helvetica,sans-Serif" font-size="10.00" fill="#000000">/optional.h</text>
</a>
</g>
</g>
<!-- Node19&#45;&gt;Node20 -->
<g id="edge22" class="edge">
<title>Node19&#45;&gt;Node20</title>
<path fill="none" stroke="#191970" d="M2159.7229,-364.0338C2144.3929,-361.9485 2128.1382,-359.8207 2113,-358 1958.6206,-339.4321 1919.3451,-340.8512 1765,-322 1753.11,-320.5478 1740.5146,-318.8879 1728.2559,-317.2065"/>
<polygon fill="#191970" stroke="#191970" points="1728.4466,-313.6996 1718.0607,-315.7932 1727.4853,-320.6333 1728.4466,-313.6996"/>
</g>
<!-- Node19&#45;&gt;Node26 -->
<g id="edge36" class="edge">
<title>Node19&#45;&gt;Node26</title>
<path fill="none" stroke="#191970" d="M2170.6789,-363.9717C2102.3253,-352.1987 1985.8124,-332.1309 1910.1324,-319.0961"/>
<polygon fill="#191970" stroke="#191970" points="1910.6428,-315.6325 1900.1938,-317.3843 1909.4546,-322.5309 1910.6428,-315.6325"/>
</g>
<!-- Node20&#45;&gt;Node16 -->
<g id="edge23" class="edge">
<title>Node20&#45;&gt;Node16</title>
<path fill="none" stroke="#191970" d="M1591.7719,-299.2335C1519.129,-290.4909 1396.4904,-274.5235 1292,-255 1253.4254,-247.7925 1244.6881,-241.5716 1206,-235 1059.6754,-210.1453 1017.3894,-237.3159 874,-199 867.2464,-197.1953 688.2074,-117.7942 614.8759,-85.2224"/>
<polygon fill="#191970" stroke="#191970" points="616.2228,-81.991 605.663,-81.1297 613.3809,-88.3882 616.2228,-81.991"/>
</g>
<!-- Node21 -->
<g id="node22" class="node">
<title>Node21</title>
<g id="a_node22"><a xlink:href="runtime_2container_2base_8h.html" target="_top" xlink:title="Base utilities for common POD(plain old data) container types. ">
<polygon fill="#ffffff" stroke="#000000" points="1448.5,-235.5 1448.5,-254.5 1503.5,-254.5 1503.5,-235.5 1448.5,-235.5"/>
<text text-anchor="middle" x="1476" y="-242.5" font-family="Helvetica,sans-Serif" font-size="10.00" fill="#000000">./base.h</text>
</a>
</g>
</g>
<!-- Node20&#45;&gt;Node21 -->
<g id="edge24" class="edge">
<title>Node20&#45;&gt;Node21</title>
<path fill="none" stroke="#191970" d="M1611.2117,-291.4554C1581.2141,-281.149 1541.8513,-267.6249 1513.3384,-257.8286"/>
<polygon fill="#191970" stroke="#191970" points="1514.3333,-254.4696 1503.7386,-254.5303 1512.0587,-261.0898 1514.3333,-254.4696"/>
</g>
<!-- Node21&#45;&gt;Node7 -->
<g id="edge25" class="edge">
<title>Node21&#45;&gt;Node7</title>
<path fill="none" stroke="#191970" d="M1503.1612,-235.3733C1529.2067,-226.1419 1568.7116,-212.1402 1597.4979,-201.9375"/>
<polygon fill="#191970" stroke="#191970" points="1598.937,-205.1408 1607.1933,-198.5011 1596.5985,-198.5429 1598.937,-205.1408"/>
</g>
<!-- Node21&#45;&gt;Node8 -->
<g id="edge32" class="edge">
<title>Node21&#45;&gt;Node8</title>
<path fill="none" stroke="#191970" d="M1473.1406,-235.3812C1469.5168,-220.9778 1465.3639,-193.909 1480,-179 1497.6802,-160.9901 1840.7841,-143.1088 1991.2646,-136.0974"/>
<polygon fill="#191970" stroke="#191970" points="1991.4987,-139.5904 2001.3261,-135.6315 1991.1748,-132.5979 1991.4987,-139.5904"/>
</g>
<!-- Node21&#45;&gt;Node13 -->
<g id="edge26" class="edge">
<title>Node21&#45;&gt;Node13</title>
<path fill="none" stroke="#191970" d="M1471.522,-235.2645C1466.1214,-222.0825 1458.6318,-198.0195 1466,-179 1481.1941,-139.7798 1518.0965,-106.0919 1542.0308,-87.3378"/>
<polygon fill="#191970" stroke="#191970" points="1544.3603,-89.9632 1550.1976,-81.1214 1540.1206,-84.3931 1544.3603,-89.9632"/>
</g>
<!-- Node21&#45;&gt;Node16 -->
<g id="edge35" class="edge">
<title>Node21&#45;&gt;Node16</title>
<path fill="none" stroke="#191970" d="M1448.457,-243.6814C1364.0534,-238.8983 1102.5688,-218.5344 902,-143 884.1393,-136.2737 882.0357,-129.242 864,-123 777.6968,-93.1314 670.1116,-79.5504 616.9238,-74.3053"/>
<polygon fill="#191970" stroke="#191970" points="617.0164,-70.7984 606.7303,-73.3373 616.3546,-77.767 617.0164,-70.7984"/>
</g>
<!-- Node21&#45;&gt;Node22 -->
<g id="edge27" class="edge">
<title>Node21&#45;&gt;Node22</title>
<path fill="none" stroke="#191970" d="M1448.432,-239.2179C1405.194,-230.1493 1320.5798,-212.4025 1264.4094,-200.6215"/>
<polygon fill="#191970" stroke="#191970" points="1265.12,-197.1944 1254.6145,-198.5671 1263.6831,-204.0453 1265.12,-197.1944"/>
</g>
<!-- Node21&#45;&gt;Node24 -->
<g id="edge33" class="edge">
<title>Node21&#45;&gt;Node24</title>
<path fill="none" stroke="#191970" d="M1456.4027,-235.3733C1438.2669,-226.4644 1411.0865,-213.1127 1390.5413,-203.0203"/>
<polygon fill="#191970" stroke="#191970" points="1391.8603,-199.7688 1381.3416,-198.5011 1388.7739,-206.0517 1391.8603,-199.7688"/>
</g>
<!-- Node25 -->
<g id="node26" class="node">
<title>Node25</title>
<polygon fill="#ffffff" stroke="#bfbfbf" points="1488.5,-179.5 1488.5,-198.5 1571.5,-198.5 1571.5,-179.5 1488.5,-179.5"/>
<text text-anchor="middle" x="1530" y="-186.5" font-family="Helvetica,sans-Serif" font-size="10.00" fill="#000000">initializer_list</text>
</g>
<!-- Node21&#45;&gt;Node25 -->
<g id="edge34" class="edge">
<title>Node21&#45;&gt;Node25</title>
<path fill="none" stroke="#191970" d="M1485.4061,-235.2455C1493.1493,-227.2155 1504.312,-215.6394 1513.5318,-206.0781"/>
<polygon fill="#191970" stroke="#191970" points="1516.2798,-208.2706 1520.7017,-198.6427 1511.2409,-203.4117 1516.2798,-208.2706"/>
</g>
<!-- Node22&#45;&gt;Node8 -->
<g id="edge28" class="edge">
<title>Node22&#45;&gt;Node8</title>
<path fill="none" stroke="#191970" d="M1273.6309,-180.4637C1278.4892,-179.9308 1283.3198,-179.435 1288,-179 1546.643,-154.9613 1855.2027,-141.0052 1990.994,-135.6056"/>
<polygon fill="#191970" stroke="#191970" points="1991.3969,-139.0925 2001.2512,-135.201 1991.121,-132.098 1991.3969,-139.0925"/>
</g>
<!-- Node22&#45;&gt;Node15 -->
<g id="edge30" class="edge">
<title>Node22&#45;&gt;Node15</title>
<path fill="none" stroke="#191970" d="M1193.454,-179.3611C1171.3642,-165.8674 1129.4144,-140.984 1092,-123 1061.7536,-108.4614 1026.2764,-94.4114 1000.3527,-84.6695"/>
<polygon fill="#191970" stroke="#191970" points="1001.5085,-81.3652 990.9158,-81.1548 999.0653,-87.925 1001.5085,-81.3652"/>
</g>
<!-- Node22&#45;&gt;Node16 -->
<g id="edge31" class="edge">
<title>Node22&#45;&gt;Node16</title>
<path fill="none" stroke="#191970" d="M1167.9206,-179.468C1109.1583,-165.9929 997.6304,-141.0109 902,-123 798.2594,-103.4616 674.6231,-84.7381 616.8262,-76.2495"/>
<polygon fill="#191970" stroke="#191970" points="617.2214,-72.7701 606.8201,-74.7857 616.2081,-79.6964 617.2214,-72.7701"/>
</g>
<!-- Node23 -->
<g id="node24" class="node">
<title>Node23</title>
<polygon fill="#ffffff" stroke="#bfbfbf" points="1220.5,-123.5 1220.5,-142.5 1269.5,-142.5 1269.5,-123.5 1220.5,-123.5"/>
<text text-anchor="middle" x="1245" y="-130.5" font-family="Helvetica,sans-Serif" font-size="10.00" fill="#000000">cstdlib</text>
</g>
<!-- Node22&#45;&gt;Node23 -->
<g id="edge29" class="edge">
<title>Node22&#45;&gt;Node23</title>
<path fill="none" stroke="#191970" d="M1215.2707,-179.2455C1220.2264,-171.5367 1227.283,-160.5598 1233.2776,-151.2348"/>
<polygon fill="#191970" stroke="#191970" points="1236.3376,-152.9471 1238.8011,-142.6427 1230.4494,-149.1618 1236.3376,-152.9471"/>
</g>
<!-- Node26&#45;&gt;Node7 -->
<g id="edge37" class="edge">
<title>Node26&#45;&gt;Node7</title>
<path fill="none" stroke="#191970" d="M1900.0509,-291.7224C1946.9588,-280.0925 2004.0247,-264.339 2011,-255 2016.3192,-247.8783 2016.8925,-241.6552 2011,-235 1989.9977,-211.2793 1788.0307,-197.2479 1688.6646,-191.7273"/>
<polygon fill="#191970" stroke="#191970" points="1688.6891,-188.2236 1678.5131,-191.1732 1688.3075,-195.2132 1688.6891,-188.2236"/>
</g>
<!-- Node26&#45;&gt;Node8 -->
<g id="edge41" class="edge">
<title>Node26&#45;&gt;Node8</title>
<path fill="none" stroke="#191970" d="M1792.2557,-291.4279C1761.7729,-278.6481 1729.8152,-258.651 1747,-235 1776.7558,-194.0477 1914.9335,-161.049 1997.7514,-144.5242"/>
<polygon fill="#191970" stroke="#191970" points="1998.6779,-147.9091 2007.8134,-142.5431 1997.3256,-141.0409 1998.6779,-147.9091"/>
</g>
<!-- Node26&#45;&gt;Node13 -->
<g id="edge39" class="edge">
<title>Node26&#45;&gt;Node13</title>
<path fill="none" stroke="#191970" d="M1796.9918,-291.3114C1777.7092,-282.6625 1755.114,-270.4482 1738,-255 1707.9867,-227.9081 1714.6369,-209.4177 1688,-179 1655.9586,-142.4107 1611.5135,-106.8193 1585.4533,-87.1639"/>
<polygon fill="#191970" stroke="#191970" points="1587.4731,-84.3042 1577.3647,-81.1307 1583.2878,-89.9152 1587.4731,-84.3042"/>
</g>
<!-- Node26&#45;&gt;Node14 -->
<g id="edge47" class="edge">
<title>Node26&#45;&gt;Node14</title>
<path fill="none" stroke="#191970" d="M1897.843,-291.4766C2034.1968,-258.1401 2374.8972,-176.6917 2663,-123 2775.9944,-101.942 2911.2803,-83.5059 2971.8831,-75.6012"/>
<polygon fill="#191970" stroke="#191970" points="2972.5037,-79.0501 2981.9705,-74.293 2971.6034,-72.1083 2972.5037,-79.0501"/>
</g>
<!-- Node26&#45;&gt;Node15 -->
<g id="edge49" class="edge">
<title>Node26&#45;&gt;Node15</title>
<path fill="none" stroke="#191970" d="M1773.9099,-297.4374C1758.5657,-295.281 1742.1985,-293.0206 1727,-291 1599.129,-274 1566.4841,-274.6929 1439,-255 1422.0282,-252.3783 1150.74,-205.8678 1135,-199 1071.4001,-171.2494 1009.289,-115.8129 980.5622,-88.0885"/>
<polygon fill="#191970" stroke="#191970" points="982.966,-85.5438 973.3715,-81.0498 978.0694,-90.5462 982.966,-85.5438"/>
</g>
<!-- Node26&#45;&gt;Node16 -->
<g id="edge51" class="edge">
<title>Node26&#45;&gt;Node16</title>
<path fill="none" stroke="#191970" d="M1773.9582,-297.0478C1758.6124,-294.9042 1742.2324,-292.7473 1727,-291 1547.0278,-270.355 1498.1633,-292.8071 1321,-255 1294.3331,-249.3092 1289.4924,-241.4544 1263,-235 1156.0697,-208.9483 1125.505,-222.5685 1018,-199 865.5576,-165.5798 688.2598,-107.2142 616.5582,-82.7713"/>
<polygon fill="#191970" stroke="#191970" points="617.3556,-79.345 606.761,-79.4182 615.0888,-85.9678 617.3556,-79.345"/>
</g>
<!-- Node26&#45;&gt;Node18 -->
<g id="edge52" class="edge">
<title>Node26&#45;&gt;Node18</title>
<path fill="none" stroke="#191970" d="M1773.7181,-296.528C1758.4542,-294.4149 1742.1712,-292.4021 1727,-291 1525.4726,-272.3748 879.2988,-251.0217 723.8617,-246.0652"/>
<polygon fill="#191970" stroke="#191970" points="723.6373,-242.5564 713.5311,-245.7369 723.4149,-249.5528 723.6373,-242.5564"/>
</g>
<!-- Node26&#45;&gt;Node21 -->
<g id="edge38" class="edge">
<title>Node26&#45;&gt;Node21</title>
<path fill="none" stroke="#191970" d="M1773.8595,-297.2951C1709.9376,-287.7217 1608.3335,-271.8061 1521,-255 1518.5245,-254.5236 1515.9768,-254.0131 1513.4123,-253.484"/>
<polygon fill="#191970" stroke="#191970" points="1514.0639,-250.0443 1503.5541,-251.3844 1512.6057,-256.8908 1514.0639,-250.0443"/>
</g>
<!-- Node26&#45;&gt;Node22 -->
<g id="edge40" class="edge">
<title>Node26&#45;&gt;Node22</title>
<path fill="none" stroke="#191970" d="M1773.831,-297.6866C1701.9948,-287.2283 1589.4342,-269.3952 1549,-255 1531.7568,-248.8612 1530.3238,-240.9075 1513,-235 1471.7807,-220.9441 1359.5997,-206.1179 1283.6651,-197.214"/>
<polygon fill="#191970" stroke="#191970" points="1284.0035,-193.7298 1273.6661,-196.0511 1283.1948,-200.6829 1284.0035,-193.7298"/>
</g>
<!-- Node26&#45;&gt;Node24 -->
<g id="edge42" class="edge">
<title>Node26&#45;&gt;Node24</title>
<path fill="none" stroke="#191970" d="M1776.607,-291.4667C1718.3401,-276.972 1627.6459,-254.4355 1549,-235 1499.307,-222.7196 1442.1664,-208.6747 1404.261,-199.3684"/>
<polygon fill="#191970" stroke="#191970" points="1404.6481,-195.8596 1394.102,-196.8746 1402.9793,-202.6577 1404.6481,-195.8596"/>
</g>
<!-- Node26&#45;&gt;Node25 -->
<g id="edge45" class="edge">
<title>Node26&#45;&gt;Node25</title>
<path fill="none" stroke="#191970" d="M1898.7923,-291.4418C1932.0832,-281.9452 1968.2917,-268.8816 1978,-255 1983.0943,-247.7158 1983.9949,-241.5631 1978,-235 1949.6453,-203.9578 1656.9229,-205.0597 1581.803,-198.6391"/>
<polygon fill="#191970" stroke="#191970" points="1582.009,-195.141 1571.6889,-197.538 1581.2513,-202.0998 1582.009,-195.141"/>
</g>
<!-- Node27 -->
<g id="node28" class="node">
<title>Node27</title>
<polygon fill="#ffffff" stroke="#bfbfbf" points="1755.5,-235.5 1755.5,-254.5 1808.5,-254.5 1808.5,-235.5 1755.5,-235.5"/>
<text text-anchor="middle" x="1782" y="-242.5" font-family="Helvetica,sans-Serif" font-size="10.00" fill="#000000">cstddef</text>
</g>
<!-- Node26&#45;&gt;Node27 -->
<g id="edge43" class="edge">
<title>Node26&#45;&gt;Node27</title>
<path fill="none" stroke="#191970" d="M1823.4045,-291.2977C1815.6109,-282.5831 1805.7953,-271.6075 1797.6774,-262.5302"/>
<polygon fill="#191970" stroke="#191970" points="1800.0813,-259.9678 1790.8062,-254.8469 1794.8635,-264.6341 1800.0813,-259.9678"/>
</g>
<!-- Node28 -->
<g id="node29" class="node">
<title>Node28</title>
<polygon fill="#ffffff" stroke="#bfbfbf" points="1827,-235.5 1827,-254.5 1877,-254.5 1877,-235.5 1827,-235.5"/>
<text text-anchor="middle" x="1852" y="-242.5" font-family="Helvetica,sans-Serif" font-size="10.00" fill="#000000">cstring</text>
</g>
<!-- Node26&#45;&gt;Node28 -->
<g id="edge44" class="edge">
<title>Node26&#45;&gt;Node28</title>
<path fill="none" stroke="#191970" d="M1840.7079,-291.2977C1842.6599,-283.2945 1845.077,-273.3843 1847.1734,-264.7889"/>
<polygon fill="#191970" stroke="#191970" points="1850.629,-265.3915 1849.5983,-254.8469 1843.8284,-263.7328 1850.629,-265.3915"/>
</g>
<!-- Node29 -->
<g id="node30" class="node">
<title>Node29</title>
<polygon fill="#ffffff" stroke="#bfbfbf" points="1068,-235.5 1068,-254.5 1126,-254.5 1126,-235.5 1068,-235.5"/>
<text text-anchor="middle" x="1097" y="-242.5" font-family="Helvetica,sans-Serif" font-size="10.00" fill="#000000">memory</text>
</g>
<!-- Node26&#45;&gt;Node29 -->
<g id="edge46" class="edge">
<title>Node26&#45;&gt;Node29</title>
<path fill="none" stroke="#191970" d="M1773.9769,-296.8788C1758.6305,-294.7408 1742.2455,-292.6288 1727,-291 1504.2137,-267.1973 1235.7692,-252.089 1136.439,-246.9578"/>
<polygon fill="#191970" stroke="#191970" points="1136.431,-243.4529 1126.265,-246.4368 1136.0729,-250.4438 1136.431,-243.4529"/>
</g>
<!-- Node30 -->
<g id="node31" class="node">
<title>Node30</title>
<polygon fill="#ffffff" stroke="#bfbfbf" points="1895.5,-235.5 1895.5,-254.5 1968.5,-254.5 1968.5,-235.5 1895.5,-235.5"/>
<text text-anchor="middle" x="1932" y="-242.5" font-family="Helvetica,sans-Serif" font-size="10.00" fill="#000000">string_view</text>
</g>
<!-- Node26&#45;&gt;Node30 -->
<g id="edge48" class="edge">
<title>Node26&#45;&gt;Node30</title>
<path fill="none" stroke="#191970" d="M1860.4832,-291.2977C1875.1348,-281.8127 1893.9236,-269.6495 1908.5659,-260.1705"/>
<polygon fill="#191970" stroke="#191970" points="1910.5805,-263.0357 1917.073,-254.6633 1906.7764,-257.1596 1910.5805,-263.0357"/>
</g>
<!-- Node26&#45;&gt;Node31 -->
<g id="edge50" class="edge">
<title>Node26&#45;&gt;Node31</title>
<path fill="none" stroke="#191970" d="M1773.7321,-296.371C1758.4677,-294.2635 1742.1809,-292.2926 1727,-291 1577.5214,-278.2721 506.1435,-252.4622 245.868,-246.329"/>
<polygon fill="#191970" stroke="#191970" points="245.5964,-242.8218 235.5168,-246.0854 245.4316,-249.8198 245.5964,-242.8218"/>
</g>
<!-- Node32&#45;&gt;Node15 -->
<g id="edge58" class="edge">
<title>Node32&#45;&gt;Node15</title>
<path fill="none" stroke="#191970" d="M1211.8495,-358.479C1204.7769,-340.0203 1190.3352,-308.9481 1168,-291 1128.231,-259.0424 1097.8218,-288.1019 1059,-255 1006.3068,-210.0705 979.0649,-128.5667 968.8514,-91.1898"/>
<polygon fill="#191970" stroke="#191970" points="972.1294,-89.8892 966.2191,-81.0961 965.3559,-91.6557 972.1294,-89.8892"/>
</g>
<!-- Node32&#45;&gt;Node16 -->
<g id="edge59" class="edge">
<title>Node32&#45;&gt;Node16</title>
<path fill="none" stroke="#191970" d="M1190.9198,-358.3594C1158.1149,-339.9239 1099.5796,-309.0235 1046,-291 926.9532,-250.9543 892.3599,-258.6252 769,-235 724.8621,-226.547 598.8105,-233.49 570,-199 544.3026,-168.2367 561.6646,-117.6985 574.2374,-90.4039"/>
<polygon fill="#191970" stroke="#191970" points="577.5013,-91.6951 578.7218,-81.1708 571.2046,-88.6369 577.5013,-91.6951"/>
</g>
<!-- Node32&#45;&gt;Node18 -->
<g id="edge60" class="edge">
<title>Node32&#45;&gt;Node18</title>
<path fill="none" stroke="#191970" d="M1180.5946,-358.393C1134.9365,-339.9918 1053.9066,-309.1263 982,-291 890.0942,-267.8323 778.8196,-254.151 723.957,-248.3266"/>
<polygon fill="#191970" stroke="#191970" points="724.0676,-244.8193 713.7591,-247.2659 723.3434,-251.7817 724.0676,-244.8193"/>
</g>
<!-- Node32&#45;&gt;Node20 -->
<g id="edge62" class="edge">
<title>Node32&#45;&gt;Node20</title>
<path fill="none" stroke="#191970" d="M1280.2212,-363.8292C1360.1268,-351.6062 1497.3986,-330.608 1581.7775,-317.7007"/>
<polygon fill="#191970" stroke="#191970" points="1582.4422,-321.1398 1591.798,-316.1679 1581.3837,-314.2203 1582.4422,-321.1398"/>
</g>
<!-- Node32&#45;&gt;Node21 -->
<g id="edge61" class="edge">
<title>Node32&#45;&gt;Node21</title>
<path fill="none" stroke="#191970" d="M1280.0011,-360.6514C1284.735,-359.737 1289.4411,-358.8439 1294,-358 1341.2027,-349.2623 1476.0128,-358.6639 1507,-322 1521.7338,-304.567 1506.3686,-279.23 1492.5095,-262.443"/>
<polygon fill="#191970" stroke="#191970" points="1494.7933,-259.7391 1485.5668,-254.5311 1489.5317,-264.3561 1494.7933,-259.7391"/>
</g>
<!-- Node32&#45;&gt;Node24 -->
<g id="edge56" class="edge">
<title>Node32&#45;&gt;Node24</title>
<path fill="none" stroke="#191970" d="M1228.866,-358.4016C1255.4284,-324.6032 1319.5697,-242.9889 1348.0142,-206.7958"/>
<polygon fill="#191970" stroke="#191970" points="1351.0048,-208.6547 1354.4321,-198.6295 1345.501,-204.3293 1351.0048,-208.6547"/>
</g>
<!-- Node32&#45;&gt;Node29 -->
<g id="edge57" class="edge">
<title>Node32&#45;&gt;Node29</title>
<path fill="none" stroke="#191970" d="M1219.1562,-358.4347C1220.8652,-340.4995 1220.9052,-310.5255 1206,-291 1197.009,-279.222 1163.5295,-266.1085 1136.0208,-256.9061"/>
<polygon fill="#191970" stroke="#191970" points="1136.8051,-253.4804 1126.2126,-253.7025 1134.6316,-260.1344 1136.8051,-253.4804"/>
</g>
<!-- Node33&#45;&gt;Node9 -->
<g id="edge64" class="edge">
<title>Node33&#45;&gt;Node9</title>
<path fill="none" stroke="#191970" d="M2597.5406,-296.9967C2577.9843,-262.9541 2511.0456,-146.4313 2481.8276,-95.5703"/>
<polygon fill="#191970" stroke="#191970" points="2484.6874,-93.5219 2476.6712,-86.5943 2478.6176,-97.0088 2484.6874,-93.5219"/>
</g>
<!-- Node33&#45;&gt;Node13 -->
<g id="edge65" class="edge">
<title>Node33&#45;&gt;Node13</title>
<path fill="none" stroke="#191970" d="M2594.5301,-296.7167C2571.467,-270.2208 2507.5682,-197.8023 2482,-179 2436.5231,-145.5573 2422.5483,-137.5277 2368,-123 2231.1602,-86.5557 1807.7828,-75.544 1636.7651,-72.5328"/>
<polygon fill="#191970" stroke="#191970" points="1636.6635,-69.0306 1626.6048,-72.3581 1636.5431,-76.0296 1636.6635,-69.0306"/>
</g>
<!-- Node33&#45;&gt;Node14 -->
<g id="edge66" class="edge">
<title>Node33&#45;&gt;Node14</title>
<path fill="none" stroke="#191970" d="M2617.1335,-296.8192C2631.9416,-286.609 2655.8121,-269.9593 2676,-255 2708.5718,-230.8642 2716.7959,-224.8798 2748,-199 2787.2623,-166.437 2789.4564,-147.8545 2834,-123 2878.4175,-98.2159 2936.1677,-83.99 2971.6325,-77.0053"/>
<polygon fill="#191970" stroke="#191970" points="2972.7086,-80.3639 2981.884,-75.0664 2971.4077,-73.4858 2972.7086,-80.3639"/>
</g>
<!-- Node33&#45;&gt;Node15 -->
<g id="edge67" class="edge">
<title>Node33&#45;&gt;Node15</title>
<path fill="none" stroke="#191970" d="M2586.1413,-296.8928C2526.4053,-263.5344 2318.3031,-153.1128 2130,-123 2017.956,-105.0823 1209.3257,-79.0925 1008.8703,-72.8736"/>
<polygon fill="#191970" stroke="#191970" points="1008.8054,-69.37 998.7018,-72.5589 1008.5888,-76.3667 1008.8054,-69.37"/>
</g>
<!-- Node34&#45;&gt;Node6 -->
<g id="edge70" class="edge">
<title>Node34&#45;&gt;Node6</title>
<path fill="none" stroke="#191970" d="M1988.4965,-439.9491C1813.1577,-437.836 1280.0411,-428.2656 1112,-389 1049.1337,-374.3103 980.8448,-340.4396 944.7487,-320.9724"/>
<polygon fill="#191970" stroke="#191970" points="946.3239,-317.8447 935.8699,-316.1225 942.9682,-323.988 946.3239,-317.8447"/>
</g>
<!-- Node34&#45;&gt;Node14 -->
<g id="edge90" class="edge">
<title>Node34&#45;&gt;Node14</title>
<path fill="none" stroke="#191970" d="M2101.6319,-432.8652C2120.5115,-430.338 2141.6592,-427.5267 2161,-425 2286.2859,-408.6328 2319.1855,-414.1876 2443,-389 2456.4605,-386.2617 2669.0407,-328.757 2681,-322 2698.5201,-312.1012 2698.8288,-304.2202 2714,-291 2803.5901,-212.9314 2825.292,-192.0555 2922,-123 2940.4128,-109.8521 2962.1292,-96.2946 2978.5866,-86.3921"/>
<polygon fill="#191970" stroke="#191970" points="2980.8079,-89.1427 2987.604,-81.0148 2977.2226,-83.1305 2980.8079,-89.1427"/>
</g>
<!-- Node34&#45;&gt;Node33 -->
<g id="edge71" class="edge">
<title>Node34&#45;&gt;Node33</title>
<path fill="none" stroke="#191970" d="M2101.8938,-432.8709C2202.743,-419.2932 2402.9913,-392.0648 2410,-389 2429.97,-380.2673 2428.8989,-368.498 2448,-358 2480.402,-340.1918 2520.0071,-327.1641 2551.0721,-318.6669"/>
<polygon fill="#191970" stroke="#191970" points="2552.0751,-322.0219 2560.8381,-316.067 2550.2742,-315.2575 2552.0751,-322.0219"/>
</g>
<!-- Node34&#45;&gt;Node35 -->
<g id="edge72" class="edge">
<title>Node34&#45;&gt;Node35</title>
<path fill="none" stroke="#191970" d="M2044.0923,-425.2967C2043.5236,-415.7699 2042.7848,-403.3954 2042.172,-393.1306"/>
<polygon fill="#191970" stroke="#191970" points="2045.6603,-392.8286 2041.5704,-383.055 2038.6727,-393.2458 2045.6603,-392.8286"/>
</g>
<!-- Node40 -->
<g id="node39" class="node">
<title>Node40</title>
<polygon fill="#ffffff" stroke="#bfbfbf" points="1956.5,-297 1956.5,-316 2021.5,-316 2021.5,-297 1956.5,-297"/>
<text text-anchor="middle" x="1989" y="-304" font-family="Helvetica,sans-Serif" font-size="10.00" fill="#000000">functional</text>
</g>
<!-- Node34&#45;&gt;Node40 -->
<g id="edge89" class="edge">
<title>Node34&#45;&gt;Node40</title>
<path fill="none" stroke="#191970" d="M2009.5069,-425.4687C1994.455,-417.0984 1978.4609,-405.0734 1970,-389 1959.3552,-368.7777 1968.6497,-342.6867 1977.5896,-325.3155"/>
<polygon fill="#191970" stroke="#191970" points="1980.8547,-326.6457 1982.6588,-316.2056 1974.738,-323.242 1980.8547,-326.6457"/>
</g>
<!-- Node35&#45;&gt;Node8 -->
<g id="edge81" class="edge">
<title>Node35&#45;&gt;Node8</title>
<path fill="none" stroke="#191970" d="M2044.8186,-363.9483C2055.6628,-336.7864 2085.9336,-260.694 2087,-255 2093.218,-221.7995 2095.593,-211.6665 2087,-179 2084.3888,-169.0734 2079.0933,-159.0366 2073.9588,-150.8822"/>
<polygon fill="#191970" stroke="#191970" points="2076.864,-148.9303 2068.3819,-142.5817 2071.0537,-152.8342 2076.864,-148.9303"/>
</g>
<!-- Node35&#45;&gt;Node9 -->
<g id="edge73" class="edge">
<title>Node35&#45;&gt;Node9</title>
<path fill="none" stroke="#191970" d="M2088.3166,-363.9823C2147.9707,-351.7277 2244.5285,-330.947 2259,-322 2354.0423,-263.2406 2426.7206,-146.276 2455.0593,-95.7142"/>
<polygon fill="#191970" stroke="#191970" points="2458.212,-97.2453 2459.9802,-86.7991 2452.0835,-93.8626 2458.212,-97.2453"/>
</g>
<!-- Node35&#45;&gt;Node16 -->
<g id="edge87" class="edge">
<title>Node35&#45;&gt;Node16</title>
<path fill="none" stroke="#191970" d="M1978.2746,-370.7824C1833.5212,-364.1796 1479.626,-346.0523 1363,-322 1273.2491,-303.4903 1250.9926,-293.8594 1168,-255 1152.4682,-247.7276 1151.2634,-240.443 1135,-235 984.6121,-184.668 932.5369,-242.3859 780,-199 725.3198,-183.4474 712.2959,-174.5421 665,-143 640.8141,-126.8702 616.2249,-104.0645 600.5852,-88.5781"/>
<polygon fill="#191970" stroke="#191970" points="602.8042,-85.8458 593.272,-81.221 597.8397,-90.7807 602.8042,-85.8458"/>
</g>
<!-- Node35&#45;&gt;Node17 -->
<g id="edge85" class="edge">
<title>Node35&#45;&gt;Node17</title>
<path fill="none" stroke="#191970" d="M2047.8496,-363.9312C2054.9193,-353.8123 2066.0125,-337.2361 2074,-322 2112.7041,-248.1722 2119.8151,-225.7334 2130,-143 2131.0861,-134.1777 2131.9915,-131.6629 2130,-123 2127.3557,-111.4978 2121.7853,-99.5851 2116.5724,-90.1178"/>
<polygon fill="#191970" stroke="#191970" points="2119.467,-88.1335 2111.4071,-81.2568 2113.4195,-91.6588 2119.467,-88.1335"/>
</g>
<!-- Node35&#45;&gt;Node18 -->
<g id="edge88" class="edge">
<title>Node35&#45;&gt;Node18</title>
<path fill="none" stroke="#191970" d="M1978.1432,-369.9515C1854.0738,-362.7253 1568.9901,-345.0191 1330,-322 1097.5401,-299.6099 818.8017,-262.5586 723.693,-249.6255"/>
<polygon fill="#191970" stroke="#191970" points="724.1643,-246.1574 713.7832,-248.2747 723.2188,-253.0933 724.1643,-246.1574"/>
</g>
<!-- Node35&#45;&gt;Node20 -->
<g id="edge74" class="edge">
<title>Node35&#45;&gt;Node20</title>
<path fill="none" stroke="#191970" d="M1986.1055,-363.9717C1918.3787,-352.216 1803.0042,-332.1898 1727.8995,-319.1535"/>
<polygon fill="#191970" stroke="#191970" points="1728.4861,-315.7031 1718.0348,-317.4413 1727.2889,-322.6 1728.4861,-315.7031"/>
</g>
<!-- Node35&#45;&gt;Node26 -->
<g id="edge79" class="edge">
<title>Node35&#45;&gt;Node26</title>
<path fill="none" stroke="#191970" d="M2011.7718,-363.9005C1980.6931,-353.6933 1930.8069,-337.3091 1892.272,-324.6531"/>
<polygon fill="#191970" stroke="#191970" points="1893.3308,-321.3169 1882.7379,-321.5218 1891.1465,-327.9674 1893.3308,-321.3169"/>
</g>
<!-- Node35&#45;&gt;Node33 -->
<g id="edge80" class="edge">
<title>Node35&#45;&gt;Node33</title>
<path fill="none" stroke="#191970" d="M2103.7853,-364.3598C2119.2134,-362.1947 2135.695,-359.9499 2151,-358 2281.3214,-341.397 2433.1175,-324.6271 2523.4608,-314.9169"/>
<polygon fill="#191970" stroke="#191970" points="2524.058,-318.373 2533.6276,-313.8261 2523.3112,-311.4129 2524.058,-318.373"/>
</g>
<!-- Node36 -->
<g id="node37" class="node">
<title>Node36</title>
<g id="a_node37"><a xlink:href="shape__tuple_8h.html" target="_top" xlink:title="Runtime ShapeTuple container types. ">
<polygon fill="#ffffff" stroke="#000000" points="1372,-291.5 1372,-321.5 1498,-321.5 1498,-291.5 1372,-291.5"/>
<text text-anchor="start" x="1380" y="-309.5" font-family="Helvetica,sans-Serif" font-size="10.00" fill="#000000">tvm/runtime/container</text>
<text text-anchor="middle" x="1435" y="-298.5" font-family="Helvetica,sans-Serif" font-size="10.00" fill="#000000">/shape_tuple.h</text>
</a>
</g>
</g>
<!-- Node35&#45;&gt;Node36 -->
<g id="edge75" class="edge">
<title>Node35&#45;&gt;Node36</title>
<path fill="none" stroke="#191970" d="M1978.4298,-366.5822C1865.5945,-354.107 1628.6083,-327.9055 1508.3493,-314.6096"/>
<polygon fill="#191970" stroke="#191970" points="1508.4618,-311.1008 1498.1377,-313.4806 1507.6925,-318.0584 1508.4618,-311.1008"/>
</g>
<!-- Node37 -->
<g id="node38" class="node">
<title>Node37</title>
<g id="a_node38"><a xlink:href="serializer_8h.html" target="_top" xlink:title="Serializer extension to support TVM data types Include this file to enable serialization of DLDataTyp...">
<polygon fill="#ffffff" stroke="#ff0000" points="2116,-297 2116,-316 2250,-316 2250,-297 2116,-297"/>
<text text-anchor="middle" x="2183" y="-304" font-family="Helvetica,sans-Serif" font-size="10.00" fill="#000000">tvm/runtime/serializer.h</text>
</a>
</g>
</g>
<!-- Node35&#45;&gt;Node37 -->
<g id="edge82" class="edge">
<title>Node35&#45;&gt;Node37</title>
<path fill="none" stroke="#191970" d="M2056.4445,-363.9005C2078.4807,-352.4574 2118.9628,-333.2509 2148.3118,-320.2374"/>
<polygon fill="#191970" stroke="#191970" points="2150.041,-323.301 2157.7955,-316.0817 2147.2315,-316.8895 2150.041,-323.301"/>
</g>
<!-- Node35&#45;&gt;Node40 -->
<g id="edge86" class="edge">
<title>Node35&#45;&gt;Node40</title>
<path fill="none" stroke="#191970" d="M2033.5497,-363.9005C2025.5179,-353.552 2012.5585,-336.8542 2002.6826,-324.1295"/>
<polygon fill="#191970" stroke="#191970" points="2005.3328,-321.8356 1996.4365,-316.0817 1999.8028,-326.1275 2005.3328,-321.8356"/>
</g>
<!-- Node36&#45;&gt;Node16 -->
<g id="edge76" class="edge">
<title>Node36&#45;&gt;Node16</title>
<path fill="none" stroke="#191970" d="M1371.7693,-292.8386C1317.8151,-280.9589 1244.5681,-264.2419 1216,-255 1194.0109,-247.8865 1190.3846,-240.7492 1168,-235 1024.2451,-198.0787 978.299,-241.1858 836,-199 746.0007,-172.3189 649.6729,-114.2352 606.8184,-86.641"/>
<polygon fill="#191970" stroke="#191970" points="608.5638,-83.6011 598.2724,-81.0837 604.7477,-89.4694 608.5638,-83.6011"/>
</g>
<!-- Node36&#45;&gt;Node18 -->
<g id="edge77" class="edge">
<title>Node36&#45;&gt;Node18</title>
<path fill="none" stroke="#191970" d="M1371.8031,-301.2831C1220.0195,-288.7533 838.9637,-257.297 723.6078,-247.7743"/>
<polygon fill="#191970" stroke="#191970" points="723.8501,-244.2825 713.596,-246.9479 723.2741,-251.2588 723.8501,-244.2825"/>
</g>
<!-- Node36&#45;&gt;Node21 -->
<g id="edge78" class="edge">
<title>Node36&#45;&gt;Node21</title>
<path fill="none" stroke="#191970" d="M1445.1348,-291.2977C1450.7668,-282.8498 1457.8151,-272.2773 1463.754,-263.369"/>
<polygon fill="#191970" stroke="#191970" points="1466.8005,-265.1089 1469.4354,-254.8469 1460.9762,-261.226 1466.8005,-265.1089"/>
</g>
<!-- Node37&#45;&gt;Node9 -->
<g id="edge83" class="edge">
<title>Node37&#45;&gt;Node9</title>
<path fill="none" stroke="#191970" d="M2191.6505,-296.8943C2217.8164,-268.1793 2299.1719,-181.3711 2378,-123 2393.7222,-111.3579 2412.3143,-100.3197 2428.5065,-91.4705"/>
<polygon fill="#191970" stroke="#191970" points="2430.5663,-94.3373 2437.7232,-86.5252 2427.2566,-88.1692 2430.5663,-94.3373"/>
</g>
<!-- Node37&#45;&gt;Node35 -->
<g id="edge84" class="edge">
<title>Node37&#45;&gt;Node35</title>
<path fill="none" stroke="#191970" d="M2167.5897,-316.0817C2145.5728,-327.5167 2105.0945,-346.7224 2075.7339,-359.7424"/>
<polygon fill="#191970" stroke="#191970" points="2073.9999,-356.6809 2066.2457,-363.9005 2076.8097,-363.0922 2073.9999,-356.6809"/>
</g>
<!-- Node41&#45;&gt;Node8 -->
<g id="edge102" class="edge">
<title>Node41&#45;&gt;Node8</title>
<path fill="none" stroke="#191970" d="M1269.6912,-425.438C1331.1531,-407.8435 1436.9987,-378.5324 1529,-358 1616.2952,-338.5178 1665.4877,-386.9325 1727,-322 1753.8039,-293.7058 1719.6965,-269.4092 1738,-235 1755.75,-201.6312 1767.9224,-195.3481 1802,-179 1834.636,-163.3435 1926.1627,-149.4388 1991.1343,-141.1195"/>
<polygon fill="#191970" stroke="#191970" points="1991.8382,-144.5585 2001.3208,-139.8329 1990.961,-137.6137 1991.8382,-144.5585"/>
</g>
<!-- Node41&#45;&gt;Node9 -->
<g id="edge97" class="edge">
<title>Node41&#45;&gt;Node9</title>
<path fill="none" stroke="#191970" d="M1276.0996,-439.2332C1462.1174,-434.8904 2035.3948,-419.1794 2113,-389 2133.3139,-381.1002 2131.5228,-367.7827 2151,-358 2209.5663,-328.5841 2236.7587,-353.9177 2294,-322 2359.0993,-285.7007 2363.3312,-258.6679 2408,-199 2426.1765,-174.7201 2433.8896,-170.3499 2447,-143 2454.0857,-128.2183 2459.3017,-110.5539 2462.763,-96.4813"/>
<polygon fill="#191970" stroke="#191970" points="2466.2217,-97.0592 2465.0697,-86.5271 2459.4024,-95.4788 2466.2217,-97.0592"/>
</g>
<!-- Node41&#45;&gt;Node13 -->
<g id="edge100" class="edge">
<title>Node41&#45;&gt;Node13</title>
<path fill="none" stroke="#191970" d="M1178.2306,-425.388C1159.9329,-416.8842 1139.0086,-404.7717 1124,-389 1072.7861,-335.1823 1025.4946,-301.3069 1059,-235 1077.9226,-197.5523 1172.1927,-138.9496 1211,-123 1260.3166,-102.7311 1402.9821,-86.4302 1491.1161,-77.9287"/>
<polygon fill="#191970" stroke="#191970" points="1491.6966,-81.3893 1501.3191,-76.9558 1491.032,-74.4209 1491.6966,-81.3893"/>
</g>
<!-- Node41&#45;&gt;Node14 -->
<g id="edge106" class="edge">
<title>Node41&#45;&gt;Node14</title>
<path fill="none" stroke="#191970" d="M1276.2597,-440.0786C1487.6117,-438.2291 2206.5445,-429.0285 2301,-389 2319.528,-381.1482 2317.3435,-369.2916 2334,-358 2365.2698,-336.8018 2377.0673,-338.6053 2411,-322 2585.4324,-236.64 2618.2553,-191.4241 2800,-123 2858.9647,-100.8007 2931.0813,-85.1366 2971.8591,-77.279"/>
<polygon fill="#191970" stroke="#191970" points="2972.5909,-80.7027 2981.7663,-75.4053 2971.29,-73.8246 2972.5909,-80.7027"/>
</g>
<!-- Node41&#45;&gt;Node15 -->
<g id="edge107" class="edge">
<title>Node41&#45;&gt;Node15</title>
<path fill="none" stroke="#191970" d="M1159.9745,-430.6451C1066.142,-413.3223 888.2122,-374.2378 855,-322 803.0161,-240.2371 903.4071,-129.451 946.0886,-88.0276"/>
<polygon fill="#191970" stroke="#191970" points="948.5104,-90.5544 953.3369,-81.1228 943.6822,-85.4861 948.5104,-90.5544"/>
</g>
<!-- Node41&#45;&gt;Node16 -->
<g id="edge108" class="edge">
<title>Node41&#45;&gt;Node16</title>
<path fill="none" stroke="#191970" d="M1159.8907,-435.4078C1069.0493,-426.9727 897.8089,-409.0316 840,-389 682.6297,-334.4688 599.6886,-343.5741 517,-199 509.9393,-186.655 507.1464,-149.7143 521,-123 528.9261,-107.7158 543.5842,-95.3121 556.7679,-86.5104"/>
<polygon fill="#191970" stroke="#191970" points="558.9438,-89.2773 565.5587,-81.0012 555.2265,-83.3458 558.9438,-89.2773"/>
</g>
<!-- Node41&#45;&gt;Node18 -->
<g id="edge109" class="edge">
<title>Node41&#45;&gt;Node18</title>
<path fill="none" stroke="#191970" d="M1159.8942,-427.7163C1155.1994,-426.7672 1150.524,-425.8499 1146,-425 1046.9005,-406.3831 1018.159,-419.3438 922,-389 856.9806,-368.4826 841.432,-358.7431 784,-322 755.4913,-303.7611 725.798,-278.1422 707.6008,-261.5559"/>
<polygon fill="#191970" stroke="#191970" points="709.8174,-258.8388 700.0945,-254.6297 705.0704,-263.9834 709.8174,-258.8388"/>
</g>
<!-- Node41&#45;&gt;Node29 -->
<g id="edge105" class="edge">
<title>Node41&#45;&gt;Node29</title>
<path fill="none" stroke="#191970" d="M1188.2123,-425.4246C1173.3945,-416.5961 1156.2863,-404.1879 1145,-389 1116.5542,-350.7206 1104.3387,-294.5976 1099.6219,-264.9905"/>
<polygon fill="#191970" stroke="#191970" points="1103.0283,-264.0945 1098.1196,-254.7054 1096.1018,-265.1063 1103.0283,-264.0945"/>
</g>
<!-- Node41&#45;&gt;Node32 -->
<g id="edge98" class="edge">
<title>Node41&#45;&gt;Node32</title>
<path fill="none" stroke="#191970" d="M1217.7731,-425.2967C1217.6567,-417.5013 1217.5119,-407.7991 1217.3792,-398.9064"/>
<polygon fill="#191970" stroke="#191970" points="1220.875,-398.5898 1217.226,-388.6432 1213.8757,-398.6943 1220.875,-398.5898"/>
</g>
<!-- Node41&#45;&gt;Node33 -->
<g id="edge99" class="edge">
<title>Node41&#45;&gt;Node33</title>
<path fill="none" stroke="#191970" d="M1276.1639,-438.975C1490.6927,-433.1911 2230.5294,-411.7802 2334,-389 2369.6265,-381.1564 2375.4187,-369.6147 2410,-358 2457.1777,-342.1546 2512.1115,-327.8906 2551.2803,-318.4144"/>
<polygon fill="#191970" stroke="#191970" points="2552.2273,-321.7866 2561.1352,-316.0507 2550.5946,-314.9797 2552.2273,-321.7866"/>
</g>
<!-- Node41&#45;&gt;Node35 -->
<g id="edge101" class="edge">
<title>Node41&#45;&gt;Node35</title>
<path fill="none" stroke="#191970" d="M1276.1997,-435.762C1422.7215,-423.8337 1806.6134,-392.5813 1967.9346,-379.4482"/>
<polygon fill="#191970" stroke="#191970" points="1968.5508,-382.9097 1978.2338,-378.6098 1967.9828,-375.9328 1968.5508,-382.9097"/>
</g>
<!-- Node41&#45;&gt;Node40 -->
<g id="edge103" class="edge">
<title>Node41&#45;&gt;Node40</title>
<path fill="none" stroke="#191970" d="M1276.3162,-430.935C1395.3705,-411.3116 1674.9147,-364.7436 1909,-322 1921.1774,-319.7764 1934.3765,-317.2621 1946.4761,-314.9155"/>
<polygon fill="#191970" stroke="#191970" points="1947.189,-318.3425 1956.3346,-312.9939 1945.8497,-311.4718 1947.189,-318.3425"/>
</g>
<!-- Node41&#45;&gt;Node45 -->
<g id="edge104" class="edge">
<title>Node41&#45;&gt;Node45</title>
<path fill="none" stroke="#191970" d="M1159.9689,-435.9999C992.8911,-423.0436 514.4862,-385.9451 386.0587,-375.986"/>
<polygon fill="#191970" stroke="#191970" points="386.3126,-372.4953 376.0719,-375.2116 385.7713,-379.4744 386.3126,-372.4953"/>
</g>
<!-- Node47&#45;&gt;Node6 -->
<g id="edge114" class="edge">
<title>Node47&#45;&gt;Node6</title>
<path fill="none" stroke="#191970" d="M2709.3208,-633.4979C2509.0561,-625.2658 1888.7926,-595.3029 1380,-523 1232.6919,-502.0665 1188.284,-515.7039 1052,-456 1005.3385,-435.5583 991.7781,-427.9969 959,-389 942.9794,-369.94 931.6028,-343.3709 925.1762,-325.5852"/>
<polygon fill="#191970" stroke="#191970" points="928.4502,-324.3425 921.8918,-316.0215 921.8297,-326.6162 928.4502,-324.3425"/>
</g>
<!-- Node47&#45;&gt;Node14 -->
<g id="edge123" class="edge">
<title>Node47&#45;&gt;Node14</title>
<path fill="none" stroke="#191970" d="M2840.8031,-627.068C2870.0499,-620.5424 2903.542,-609.3042 2929,-590 3068.312,-484.3626 3118,-419.8345 3118,-245 3118,-245 3118,-245 3118,-189 3118,-140.5473 3067.4485,-104.5212 3033.6708,-85.8573"/>
<polygon fill="#191970" stroke="#191970" points="3035.1172,-82.6624 3024.6445,-81.0577 3031.8307,-88.843 3035.1172,-82.6624"/>
</g>
<!-- Node48 -->
<g id="node43" class="node">
<title>Node48</title>
<g id="a_node43"><a xlink:href="script__printer_8h.html" target="_top" xlink:title="tvm/node/script_printer.h">
<polygon fill="#ffffff" stroke="#000000" points="2780.5,-565 2780.5,-584 2919.5,-584 2919.5,-565 2780.5,-565"/>
<text text-anchor="middle" x="2850" y="-572" font-family="Helvetica,sans-Serif" font-size="10.00" fill="#000000">tvm/node/script_printer.h</text>
</a>
</g>
</g>
<!-- Node47&#45;&gt;Node48 -->
<g id="edge115" class="edge">
<title>Node47&#45;&gt;Node48</title>
<path fill="none" stroke="#191970" d="M2786.7188,-626.3906C2798.3188,-616.8786 2816.2979,-602.1357 2830.1321,-590.7917"/>
<polygon fill="#191970" stroke="#191970" points="2832.6026,-593.2921 2838.116,-584.2449 2828.164,-587.8792 2832.6026,-593.2921"/>
</g>
<!-- Node49 -->
<g id="node44" class="node">
<title>Node49</title>
<polygon fill="#ffffff" stroke="#bfbfbf" points="2764,-431 2764,-450 2824,-450 2824,-431 2764,-431"/>
<text text-anchor="middle" x="2794" y="-438" font-family="Helvetica,sans-Serif" font-size="10.00" fill="#000000">iostream</text>
</g>
<!-- Node47&#45;&gt;Node49 -->
<g id="edge122" class="edge">
<title>Node47&#45;&gt;Node49</title>
<path fill="none" stroke="#191970" d="M2774.1987,-626.4941C2773.458,-617.1984 2772.4117,-602.6382 2772,-590 2771.5514,-576.2295 2770.7372,-572.7198 2772,-559 2775.2303,-523.9037 2783.7338,-483.6914 2789.173,-460.2889"/>
<polygon fill="#191970" stroke="#191970" points="2792.6525,-460.7852 2791.5604,-450.2468 2785.8423,-459.1661 2792.6525,-460.7852"/>
</g>
<!-- Node48&#45;&gt;Node4 -->
<g id="edge118" class="edge">
<title>Node48&#45;&gt;Node4</title>
<path fill="none" stroke="#191970" d="M2780.3049,-567.4249C2653.8368,-554.5865 2387.8978,-527.5896 2260.6971,-514.6768"/>
<polygon fill="#191970" stroke="#191970" points="2260.976,-511.1872 2250.6737,-513.6593 2260.269,-518.1514 2260.976,-511.1872"/>
</g>
<!-- Node48&#45;&gt;Node6 -->
<g id="edge116" class="edge">
<title>Node48&#45;&gt;Node6</title>
<path fill="none" stroke="#191970" d="M2780.258,-572.8125C2501.5989,-565.581 1467.9119,-533.9547 1151,-456 1078.9146,-438.2683 1058.8497,-431.5209 998,-389 971.598,-370.5507 946.8974,-342.3026 932.3671,-324.1161"/>
<polygon fill="#191970" stroke="#191970" points="935.0043,-321.8066 926.0881,-316.0835 929.4892,-326.1176 935.0043,-321.8066"/>
</g>
<!-- Node48&#45;&gt;Node14 -->
<g id="edge121" class="edge">
<title>Node48&#45;&gt;Node14</title>
<path fill="none" stroke="#191970" d="M2863.6988,-564.9279C2913.2135,-529.0894 3080,-397.0829 3080,-245 3080,-245 3080,-245 3080,-189 3080,-157.7875 3072.8301,-149.2863 3056,-123 3047.4831,-109.6978 3034.976,-97.1707 3024.3622,-87.8027"/>
<polygon fill="#191970" stroke="#191970" points="3026.5967,-85.1085 3016.7123,-81.2941 3022.0607,-90.4399 3026.5967,-85.1085"/>
</g>
<!-- Node48&#45;&gt;Node19 -->
<g id="edge117" class="edge">
<title>Node48&#45;&gt;Node19</title>
<path fill="none" stroke="#191970" d="M2852.5408,-564.6971C2858.8346,-537.8935 2871.9651,-462.8669 2833,-425 2795.6975,-388.7488 2457.2604,-377.8004 2302.5471,-374.6739"/>
<polygon fill="#191970" stroke="#191970" points="2302.2461,-371.1674 2292.1794,-374.4706 2302.1088,-378.1661 2302.2461,-371.1674"/>
</g>
<!-- Node48&#45;&gt;Node33 -->
<g id="edge119" class="edge">
<title>Node48&#45;&gt;Node33</title>
<path fill="none" stroke="#191970" d="M2855.8994,-564.6695C2861.566,-554.6095 2869.7338,-538.3231 2873,-523 2882.2157,-479.7653 2884.1601,-459.0761 2856,-425 2806.2741,-364.8274 2719.0784,-333.478 2661.1782,-318.4929"/>
<polygon fill="#191970" stroke="#191970" points="2661.9871,-315.0875 2651.4365,-316.0541 2660.2871,-321.8779 2661.9871,-315.0875"/>
</g>
<!-- Node48&#45;&gt;Node49 -->
<g id="edge120" class="edge">
<title>Node48&#45;&gt;Node49</title>
<path fill="none" stroke="#191970" d="M2845.9726,-564.8631C2836.7703,-542.8432 2814.0638,-488.5098 2801.9359,-459.4894"/>
<polygon fill="#191970" stroke="#191970" points="2805.0762,-457.9267 2797.9909,-450.0496 2798.6175,-460.6259 2805.0762,-457.9267"/>
</g>
<!-- Node50&#45;&gt;Node14 -->
<g id="edge137" class="edge">
<title>Node50&#45;&gt;Node14</title>
<path fill="none" stroke="#191970" d="M451.9765,-502.5207C498.616,-499.021 563.7338,-494.5286 621,-492 992.058,-475.6161 1922.9126,-497.5563 2292,-456 2438.9885,-439.4503 2478.3636,-437.7974 2618,-389 2790.6929,-328.6506 2823.8058,-277.3156 2948,-143 2963.9563,-125.7433 2980.3172,-104.3412 2991.2016,-89.472"/>
<polygon fill="#191970" stroke="#191970" points="2994.1936,-91.3075 2997.2184,-81.1536 2988.5218,-87.205 2994.1936,-91.3075"/>
</g>
<!-- Node50&#45;&gt;Node15 -->
<g id="edge138" class="edge">
<title>Node50&#45;&gt;Node15</title>
<path fill="none" stroke="#191970" d="M382.0334,-497.9982C355.3204,-461.0275 262.2893,-327.0418 290,-291 386.9877,-164.8537 489.7432,-261.6774 636,-199 695.413,-173.539 700.4278,-148.0863 760,-123 812.7151,-100.8013 877.2671,-86.4908 919.4521,-78.7241"/>
<polygon fill="#191970" stroke="#191970" points="920.1876,-82.1481 929.4115,-76.9357 918.9503,-75.2583 920.1876,-82.1481"/>
</g>
<!-- Node50&#45;&gt;Node16 -->
<g id="edge139" class="edge">
<title>Node50&#45;&gt;Node16</title>
<path fill="none" stroke="#191970" d="M374.2924,-497.8722C330.6034,-468.0238 207.3456,-374.0546 252,-291 317.1808,-169.7675 481.9476,-104.2993 551.8504,-81.2169"/>
<polygon fill="#191970" stroke="#191970" points="553.0112,-84.5201 561.4525,-78.1172 550.8608,-77.8586 553.0112,-84.5201"/>
</g>
<!-- Node50&#45;&gt;Node18 -->
<g id="edge140" class="edge">
<title>Node50&#45;&gt;Node18</title>
<path fill="none" stroke="#191970" d="M389.9582,-497.8984C393.8972,-463.8078 412.0046,-347.6086 480,-291 506.4321,-268.9943 603.6492,-254.8319 656.0305,-248.6251"/>
<polygon fill="#191970" stroke="#191970" points="656.6469,-252.0774 666.1805,-247.4556 655.8456,-245.1234 656.6469,-252.0774"/>
</g>
<!-- Node50&#45;&gt;Node41 -->
<g id="edge136" class="edge">
<title>Node50&#45;&gt;Node41</title>
<path fill="none" stroke="#191970" d="M451.6496,-502.4366C603.8099,-490.139 991.9152,-458.7722 1149.7207,-446.0184"/>
<polygon fill="#191970" stroke="#191970" points="1150.0915,-449.4999 1159.777,-445.2056 1149.5275,-442.5226 1150.0915,-449.4999"/>
</g>
<!-- Node52&#45;&gt;Node2 -->
<g id="edge146" class="edge">
<title>Node52&#45;&gt;Node2</title>
<path fill="none" stroke="#191970" d="M2004.8544,-801.2038C1876.0967,-792.2356 1472.439,-764.1201 1309.8615,-752.7963"/>
<polygon fill="#191970" stroke="#191970" points="1309.7259,-749.2785 1299.5069,-752.0751 1309.2395,-756.2616 1309.7259,-749.2785"/>
</g>
<!-- Node52&#45;&gt;Node3 -->
<g id="edge147" class="edge">
<title>Node52&#45;&gt;Node3</title>
<path fill="none" stroke="#191970" d="M2045,-794.4509C2045,-776.184 2045,-735.9553 2045,-711.6976"/>
<polygon fill="#191970" stroke="#191970" points="2048.5001,-711.5249 2045,-701.5249 2041.5001,-711.5249 2048.5001,-711.5249"/>
</g>
<!-- Node52&#45;&gt;Node8 -->
<g id="edge150" class="edge">
<title>Node52&#45;&gt;Node8</title>
<path fill="none" stroke="#191970" d="M2085.1641,-802.5632C2172.4656,-798.9736 2385.8351,-787.6707 2562,-758 2663.1943,-740.9563 2689.7547,-737.6035 2786,-702 2868.438,-671.5042 2915.4421,-671.2397 2949,-590 3091.7627,-244.3883 2363.7401,-156.7543 2130.806,-137.72"/>
<polygon fill="#191970" stroke="#191970" points="2130.9974,-134.2242 2120.7502,-136.916 2130.4394,-141.202 2130.9974,-134.2242"/>
</g>
<!-- Node52&#45;&gt;Node14 -->
<g id="edge151" class="edge">
<title>Node52&#45;&gt;Node14</title>
<path fill="none" stroke="#191970" d="M2085.0636,-803.5435C2180.2972,-801.8751 2427.4037,-794.1117 2630,-758 2927.7933,-704.92 3232,-742.9869 3232,-440.5 3232,-440.5 3232,-440.5 3232,-189 3232,-102.0732 3099.4298,-79.3944 3036.4663,-73.5253"/>
<polygon fill="#191970" stroke="#191970" points="3036.5354,-70.0188 3026.2767,-72.6663 3035.9473,-76.994 3036.5354,-70.0188"/>
</g>
<!-- Node52&#45;&gt;Node32 -->
<g id="edge148" class="edge">
<title>Node52&#45;&gt;Node32</title>
<path fill="none" stroke="#191970" d="M2004.9944,-803.1365C1838.3573,-799.381 1206.4869,-783.5031 1173,-758 1148.4014,-739.2661 1151,-722.92 1151,-692 1151,-692 1151,-692 1151,-636 1151,-542.2222 1109.8648,-509.2744 1151,-425 1157.0455,-412.6145 1167.6683,-402.3382 1178.6477,-394.3081"/>
<polygon fill="#191970" stroke="#191970" points="1180.7364,-397.1205 1187.0434,-388.6075 1176.8042,-391.3293 1180.7364,-397.1205"/>
</g>
<!-- Node52&#45;&gt;Node33 -->
<g id="edge149" class="edge">
<title>Node52&#45;&gt;Node33</title>
<path fill="none" stroke="#191970" d="M2085.0096,-801.8189C2246.9276,-791.9739 2848.7889,-745.178 2929,-590 2982.4941,-486.5093 2909.3285,-413.6851 2807,-358 2768.6298,-337.1198 2721.5904,-324.5091 2682.3548,-316.9985"/>
<polygon fill="#191970" stroke="#191970" points="2682.7646,-313.5153 2672.2968,-315.151 2681.4999,-320.4001 2682.7646,-313.5153"/>
</g>
<!-- Node53&#45;&gt;Node13 -->
<g id="edge165" class="edge">
<title>Node53&#45;&gt;Node13</title>
<path fill="none" stroke="#191970" d="M841.6402,-492.4688C706.5861,-456.7828 391.757,-364.4475 442,-291 477.7232,-238.7782 887.3516,-168.3722 1169,-123 1280.8995,-104.9735 1411.4164,-88.9205 1490.8501,-79.7024"/>
<polygon fill="#191970" stroke="#191970" points="1491.702,-83.1274 1501.2341,-78.5026 1490.8984,-76.1736 1491.702,-83.1274"/>
</g>
<!-- Node53&#45;&gt;Node18 -->
<g id="edge167" class="edge">
<title>Node53&#45;&gt;Node18</title>
<path fill="none" stroke="#191970" d="M868.4368,-492.4277C830.615,-473.3709 768.7283,-437.1513 732,-389 703.2907,-351.3616 694.1762,-294.5706 691.3044,-264.8034"/>
<polygon fill="#191970" stroke="#191970" points="694.7908,-264.4931 690.4816,-254.8143 687.8144,-265.0679 694.7908,-264.4931"/>
</g>
<!-- Node53&#45;&gt;Node33 -->
<g id="edge164" class="edge">
<title>Node53&#45;&gt;Node33</title>
<path fill="none" stroke="#191970" d="M964.1007,-506.2596C1218.399,-501.1112 2160.6821,-480.5437 2292,-456 2381.6667,-439.241 2404.8104,-430.5841 2486,-389 2522.9103,-370.0951 2561.4081,-340.7876 2583.7448,-322.6683"/>
<polygon fill="#191970" stroke="#191970" points="2586.2403,-325.1477 2591.7441,-316.0946 2581.796,-319.7396 2586.2403,-325.1477"/>
</g>
<!-- Node53&#45;&gt;Node49 -->
<g id="edge166" class="edge">
<title>Node53&#45;&gt;Node49</title>
<path fill="none" stroke="#191970" d="M964.3526,-505.8358C1178.2464,-500.1321 1893.3133,-480.3738 2484,-456 2580.7574,-452.0075 2694.4347,-445.9821 2753.5953,-442.7455"/>
<polygon fill="#191970" stroke="#191970" points="2753.8534,-446.2366 2763.6465,-442.1937 2753.4697,-439.2472 2753.8534,-446.2366"/>
</g>
<!-- Node54&#45;&gt;Node8 -->
<g id="edge171" class="edge">
<title>Node54&#45;&gt;Node8</title>
<path fill="none" stroke="#191970" d="M639.3494,-559.3987C611.2616,-521.8689 540.4764,-420.2894 518,-322 514.9286,-308.5689 510.8882,-302.8004 518,-291 531.7514,-268.1827 598.5303,-242.8116 624,-235 884.1658,-155.207 1740.3471,-137.3666 1991.2926,-133.8103"/>
<polygon fill="#191970" stroke="#191970" points="1991.4254,-137.3089 2001.3759,-133.6705 1991.3283,-130.3095 1991.4254,-137.3089"/>
</g>
<!-- Node54&#45;&gt;Node14 -->
<g id="edge173" class="edge">
<title>Node54&#45;&gt;Node14</title>
<path fill="none" stroke="#191970" d="M714.013,-573.6585C972.4572,-570.0254 1952.0719,-554.4284 2260,-523 2433.6565,-505.2759 2479.1205,-503.8246 2647,-456 2742.7086,-428.7351 3042,-344.5164 3042,-245 3042,-245 3042,-245 3042,-189 3042,-152.7454 3025.4195,-113.1181 3014.163,-90.3929"/>
<polygon fill="#191970" stroke="#191970" points="3017.1292,-88.5073 3009.4445,-81.2137 3010.9035,-91.7076 3017.1292,-88.5073"/>
</g>
<!-- Node54&#45;&gt;Node18 -->
<g id="edge175" class="edge">
<title>Node54&#45;&gt;Node18</title>
<path fill="none" stroke="#191970" d="M639.2091,-559.2379C632.4254,-549.4664 624.5606,-536.1862 621,-523 617.4083,-509.6986 619.1292,-505.6502 621,-492 632.9317,-404.9404 667.4771,-305.31 682.6763,-264.2369"/>
<polygon fill="#191970" stroke="#191970" points="686.0261,-265.2717 686.2575,-254.6794 679.4712,-262.8155 686.0261,-265.2717"/>
</g>
<!-- Node54&#45;&gt;Node31 -->
<g id="edge174" class="edge">
<title>Node54&#45;&gt;Node31</title>
<path fill="none" stroke="#191970" d="M587.9546,-571.538C503.4647,-566.4461 359.224,-553.4715 317,-523 227.8875,-458.6908 199.2168,-316.8388 191.4902,-264.7143"/>
<polygon fill="#191970" stroke="#191970" points="194.9499,-264.1815 190.1121,-254.7557 188.016,-265.1411 194.9499,-264.1815"/>
</g>
<!-- Node54&#45;&gt;Node50 -->
<g id="edge172" class="edge">
<title>Node54&#45;&gt;Node50</title>
<path fill="none" stroke="#191970" d="M592.2021,-559.4639C545.0326,-547.4015 479.7004,-530.6944 435.9756,-519.5128"/>
<polygon fill="#191970" stroke="#191970" points="436.7253,-516.092 426.1699,-517.0053 434.991,-522.8738 436.7253,-516.092"/>
</g>
<!-- Node54&#45;&gt;Node53 -->
<g id="edge176" class="edge">
<title>Node54&#45;&gt;Node53</title>
<path fill="none" stroke="#191970" d="M707.1049,-559.4639C744.9285,-549.3272 794.9912,-535.9104 834.7719,-525.2491"/>
<polygon fill="#191970" stroke="#191970" points="835.8973,-528.5711 844.6504,-522.6017 834.0852,-521.8097 835.8973,-528.5711"/>
</g>
<!-- Node55 -->
<g id="node50" class="node">
<title>Node55</title>
<g id="a_node50"><a xlink:href="closure_8h.html" target="_top" xlink:title="Runtime Closure container types. ">
<polygon fill="#ffffff" stroke="#000000" points="630,-492.5 630,-522.5 756,-522.5 756,-492.5 630,-492.5"/>
<text text-anchor="start" x="638" y="-510.5" font-family="Helvetica,sans-Serif" font-size="10.00" fill="#000000">tvm/runtime/container</text>
<text text-anchor="middle" x="693" y="-499.5" font-family="Helvetica,sans-Serif" font-size="10.00" fill="#000000">/closure.h</text>
</a>
</g>
</g>
<!-- Node54&#45;&gt;Node55 -->
<g id="edge169" class="edge">
<title>Node54&#45;&gt;Node55</title>
<path fill="none" stroke="#191970" d="M660.5305,-559.2967C665.7393,-550.9873 672.3063,-540.5115 678.1692,-531.1587"/>
<polygon fill="#191970" stroke="#191970" points="681.1614,-532.975 683.5073,-522.6432 675.2304,-529.2571 681.1614,-532.975"/>
</g>
<!-- Node55&#45;&gt;Node21 -->
<g id="edge170" class="edge">
<title>Node55&#45;&gt;Node21</title>
<path fill="none" stroke="#191970" d="M756.176,-496.5111C899.4283,-471.3687 1240.2999,-410.1927 1289,-389 1310.6029,-379.5991 1310.3505,-367.2931 1332,-358 1411.3795,-323.9263 1467.8639,-388.4991 1523,-322 1539.0941,-302.589 1516.3553,-277.1382 1497.2625,-260.9219"/>
<polygon fill="#191970" stroke="#191970" points="1499.4024,-258.1512 1489.4269,-254.582 1494.9994,-263.593 1499.4024,-258.1512"/>
</g>
</g>
</svg>
