<?xml version="1.0" encoding="UTF-8" standalone="no"?>
<!DOCTYPE svg PUBLIC "-//W3C//DTD SVG 1.1//EN"
 "http://www.w3.org/Graphics/SVG/1.1/DTD/svg11.dtd">
<!-- Generated by graphviz version 2.40.1 (20161225.0304)
 -->
<!-- Title: include/tvm/relax/exec_builder.h Pages: 1 -->
<svg width="3582pt" height="833pt"
 viewBox="0.00 0.00 3582.00 833.00" xmlns="http://www.w3.org/2000/svg" xmlns:xlink="http://www.w3.org/1999/xlink">
<g id="graph0" class="graph" transform="scale(1 1) rotate(0) translate(4 829)">
<title>include/tvm/relax/exec_builder.h</title>
<polygon fill="#ffffff" stroke="transparent" points="-4,4 -4,-829 3578,-829 3578,4 -4,4"/>
<!-- Node0 -->
<g id="node1" class="node">
<title>Node0</title>
<polygon fill="#bfbfbf" stroke="#000000" points="3053,-794.5 3053,-824.5 3181,-824.5 3181,-794.5 3053,-794.5"/>
<text text-anchor="start" x="3061" y="-812.5" font-family="Helvetica,sans-Serif" font-size="10.00" fill="#000000">include/tvm/relax/exec</text>
<text text-anchor="middle" x="3117" y="-801.5" font-family="Helvetica,sans-Serif" font-size="10.00" fill="#000000">_builder.h</text>
</g>
<!-- Node1 -->
<g id="node2" class="node">
<title>Node1</title>
<g id="a_node2"><a xlink:href="ir_2expr_8h.html" target="_top" xlink:title="Base expr nodes in TVM. ">
<polygon fill="#ffffff" stroke="#000000" points="1483.5,-738.5 1483.5,-757.5 1562.5,-757.5 1562.5,-738.5 1483.5,-738.5"/>
<text text-anchor="middle" x="1523" y="-745.5" font-family="Helvetica,sans-Serif" font-size="10.00" fill="#000000">tvm/ir/expr.h</text>
</a>
</g>
</g>
<!-- Node0&#45;&gt;Node1 -->
<g id="edge1" class="edge">
<title>Node0&#45;&gt;Node1</title>
<path fill="none" stroke="#191970" d="M3052.5391,-807.013C2790.2472,-796.8932 1806.0926,-758.9223 1572.812,-749.9219"/>
<polygon fill="#191970" stroke="#191970" points="1572.7208,-746.4158 1562.5933,-749.5276 1572.4509,-753.4106 1572.7208,-746.4158"/>
</g>
<!-- Node4 -->
<g id="node5" class="node">
<title>Node4</title>
<g id="a_node5"><a xlink:href="reflection_8h.html" target="_top" xlink:title="Reflection and serialization of compiler IR/AST nodes. ">
<polygon fill="#ffffff" stroke="#000000" points="2356.5,-498 2356.5,-517 2477.5,-517 2477.5,-498 2356.5,-498"/>
<text text-anchor="middle" x="2417" y="-505" font-family="Helvetica,sans-Serif" font-size="10.00" fill="#000000">tvm/node/reflection.h</text>
</a>
</g>
</g>
<!-- Node0&#45;&gt;Node4 -->
<g id="edge157" class="edge">
<title>Node0&#45;&gt;Node4</title>
<path fill="none" stroke="#191970" d="M3105.6493,-794.2734C3071.0572,-749.1715 2961.621,-615.8823 2836,-559 2775.5059,-531.6077 2590.7016,-517.1901 2487.8916,-511.1042"/>
<polygon fill="#191970" stroke="#191970" points="2488.0875,-507.6098 2477.9013,-510.5237 2487.6815,-514.598 2488.0875,-507.6098"/>
</g>
<!-- Node8 -->
<g id="node9" class="node">
<title>Node8</title>
<g id="a_node9"><a xlink:href="object_8h.html" target="_top" xlink:title="A managed object in the TVM runtime. ">
<polygon fill="#ffffff" stroke="#000000" points="2534.5,-123.5 2534.5,-142.5 2653.5,-142.5 2653.5,-123.5 2534.5,-123.5"/>
<text text-anchor="middle" x="2594" y="-130.5" font-family="Helvetica,sans-Serif" font-size="10.00" fill="#000000">tvm/runtime/object.h</text>
</a>
</g>
</g>
<!-- Node0&#45;&gt;Node8 -->
<g id="edge159" class="edge">
<title>Node0&#45;&gt;Node8</title>
<path fill="none" stroke="#191970" d="M3181.0251,-806.362C3306.7979,-798.4417 3574,-772.1799 3574,-692 3574,-692 3574,-692 3574,-373.5 3574,-189.683 3385.5497,-230.175 3209,-179 3108.4238,-149.8468 2802.4944,-138.3887 2663.7438,-134.6049"/>
<polygon fill="#191970" stroke="#191970" points="2663.7369,-131.1036 2653.647,-134.3351 2663.5499,-138.1011 2663.7369,-131.1036"/>
</g>
<!-- Node14 -->
<g id="node15" class="node">
<title>Node14</title>
<polygon fill="#ffffff" stroke="#bfbfbf" points="320,-62 320,-81 364,-81 364,-62 320,-62"/>
<text text-anchor="middle" x="342" y="-69" font-family="Helvetica,sans-Serif" font-size="10.00" fill="#000000">string</text>
</g>
<!-- Node0&#45;&gt;Node14 -->
<g id="edge180" class="edge">
<title>Node0&#45;&gt;Node14</title>
<path fill="none" stroke="#191970" d="M3052.9689,-808.8126C2608.4607,-803.8369 0,-771.2623 0,-692 0,-692 0,-692 0,-189 0,-149.9495 24.0071,-142.2203 58,-123 100.7657,-98.8193 244.6366,-81.4669 309.6391,-74.669"/>
<polygon fill="#191970" stroke="#191970" points="310.1409,-78.1359 319.7309,-73.6324 309.4256,-71.1726 310.1409,-78.1359"/>
</g>
<!-- Node18 -->
<g id="node19" class="node">
<title>Node18</title>
<polygon fill="#ffffff" stroke="#bfbfbf" points="2126.5,-235.5 2126.5,-254.5 2173.5,-254.5 2173.5,-235.5 2126.5,-235.5"/>
<text text-anchor="middle" x="2150" y="-242.5" font-family="Helvetica,sans-Serif" font-size="10.00" fill="#000000">vector</text>
</g>
<!-- Node0&#45;&gt;Node18 -->
<g id="edge182" class="edge">
<title>Node0&#45;&gt;Node18</title>
<path fill="none" stroke="#191970" d="M3181.3442,-801.5041C3226.0366,-794.2507 3286.1043,-781.0484 3335,-758 3378.9011,-737.3059 3422,-740.5341 3422,-692 3422,-692 3422,-692 3422,-574.5 3422,-339.6212 3199.8994,-361.9726 2976,-291 2816.0949,-240.3125 2389.0237,-270.5542 2222,-255 2209.4629,-253.8325 2195.7616,-252.056 2183.7079,-250.3227"/>
<polygon fill="#191970" stroke="#191970" points="2184.0151,-246.8301 2173.6101,-248.8269 2182.9893,-253.7545 2184.0151,-246.8301"/>
</g>
<!-- Node31 -->
<g id="node32" class="node">
<title>Node31</title>
<polygon fill="#ffffff" stroke="#bfbfbf" points="2230.5,-235.5 2230.5,-254.5 2323.5,-254.5 2323.5,-235.5 2230.5,-235.5"/>
<text text-anchor="middle" x="2277" y="-242.5" font-family="Helvetica,sans-Serif" font-size="10.00" fill="#000000">unordered_map</text>
</g>
<!-- Node0&#45;&gt;Node31 -->
<g id="edge181" class="edge">
<title>Node0&#45;&gt;Node31</title>
<path fill="none" stroke="#191970" d="M3181.2999,-804.0485C3261.3971,-796.4162 3392.9608,-780.8654 3436,-758 3471.5417,-739.1178 3498,-732.2462 3498,-692 3498,-692 3498,-692 3498,-440.5 3498,-280.2938 3325.631,-329.0135 3170,-291 3089.1905,-271.2619 2517.6984,-252.3294 2333.8317,-246.69"/>
<polygon fill="#191970" stroke="#191970" points="2333.6706,-243.1836 2323.5684,-246.3767 2333.4569,-250.1803 2333.6706,-243.1836"/>
</g>
<!-- Node47 -->
<g id="node44" class="node">
<title>Node47</title>
<g id="a_node44"><a xlink:href="repr__printer_8h.html" target="_top" xlink:title="Printer class to print repr string of each AST/IR nodes. ">
<polygon fill="#ffffff" stroke="#000000" points="2168.5,-498 2168.5,-517 2299.5,-517 2299.5,-498 2168.5,-498"/>
<text text-anchor="middle" x="2234" y="-505" font-family="Helvetica,sans-Serif" font-size="10.00" fill="#000000">tvm/node/repr_printer.h</text>
</a>
</g>
</g>
<!-- Node0&#45;&gt;Node47 -->
<g id="edge158" class="edge">
<title>Node0&#45;&gt;Node47</title>
<path fill="none" stroke="#191970" d="M3097.4703,-794.4723C3051.5976,-759.1247 2933.4833,-667.8226 2836,-590 2818.9663,-576.4017 2818.2524,-567.0561 2798,-559 2695.9315,-518.3989 2413.7117,-538.7542 2305,-523 2297.7892,-521.955 2290.2186,-520.5927 2282.8174,-519.1095"/>
<polygon fill="#191970" stroke="#191970" points="2283.3846,-515.6524 2272.8797,-517.0303 2281.951,-522.5041 2283.3846,-515.6524"/>
</g>
<!-- Node50 -->
<g id="node47" class="node">
<title>Node50</title>
<g id="a_node47"><a xlink:href="registry_8h.html" target="_top" xlink:title="This file defines the TVM global function registry. ">
<polygon fill="#ffffff" stroke="#000000" points="2025.5,-498 2025.5,-517 2150.5,-517 2150.5,-498 2025.5,-498"/>
<text text-anchor="middle" x="2088" y="-505" font-family="Helvetica,sans-Serif" font-size="10.00" fill="#000000">tvm/runtime/registry.h</text>
</a>
</g>
</g>
<!-- Node0&#45;&gt;Node50 -->
<g id="edge160" class="edge">
<title>Node0&#45;&gt;Node50</title>
<path fill="none" stroke="#191970" d="M3065.6197,-794.4204C2886.827,-741.9468 2293.8745,-567.9219 2130.181,-519.8796"/>
<polygon fill="#191970" stroke="#191970" points="2131.0523,-516.4878 2120.4714,-517.03 2129.081,-523.2045 2131.0523,-516.4878"/>
</g>
<!-- Node51 -->
<g id="node48" class="node">
<title>Node51</title>
<g id="a_node48"><a xlink:href="relax__vm_2bytecode_8h.html" target="_top" xlink:title="The bytecode for the virtual machine. ">
<polygon fill="#ffffff" stroke="#000000" points="2964,-492.5 2964,-522.5 3090,-522.5 3090,-492.5 2964,-492.5"/>
<text text-anchor="start" x="2972" y="-510.5" font-family="Helvetica,sans-Serif" font-size="10.00" fill="#000000">tvm/runtime/relax_vm</text>
<text text-anchor="middle" x="3027" y="-499.5" font-family="Helvetica,sans-Serif" font-size="10.00" fill="#000000">/bytecode.h</text>
</a>
</g>
</g>
<!-- Node0&#45;&gt;Node51 -->
<g id="edge166" class="edge">
<title>Node0&#45;&gt;Node51</title>
<path fill="none" stroke="#191970" d="M3181.0938,-803.7832C3248.8401,-793.8076 3346,-766.5122 3346,-692 3346,-692 3346,-692 3346,-636 3346,-583.2893 3194.2506,-542.1612 3100.0788,-521.713"/>
<polygon fill="#191970" stroke="#191970" points="3100.5353,-518.2315 3090.0241,-519.5606 3099.0699,-525.0764 3100.5353,-518.2315"/>
</g>
<!-- Node52 -->
<g id="node49" class="node">
<title>Node52</title>
<g id="a_node49"><a xlink:href="relax__vm_2executable_8h.html" target="_top" xlink:title="tvm/runtime/relax_vm\l/executable.h">
<polygon fill="#ffffff" stroke="#000000" points="2964,-559.5 2964,-589.5 3090,-589.5 3090,-559.5 2964,-559.5"/>
<text text-anchor="start" x="2972" y="-577.5" font-family="Helvetica,sans-Serif" font-size="10.00" fill="#000000">tvm/runtime/relax_vm</text>
<text text-anchor="middle" x="3027" y="-566.5" font-family="Helvetica,sans-Serif" font-size="10.00" fill="#000000">/executable.h</text>
</a>
</g>
</g>
<!-- Node0&#45;&gt;Node52 -->
<g id="edge171" class="edge">
<title>Node0&#45;&gt;Node52</title>
<path fill="none" stroke="#191970" d="M3111.2332,-794.4422C3096.093,-754.9096 3055.0982,-647.8675 3036.4566,-599.1921"/>
<polygon fill="#191970" stroke="#191970" points="3039.6803,-597.8233 3032.8353,-589.7365 3033.1433,-600.3269 3039.6803,-597.8233"/>
</g>
<!-- Node2 -->
<g id="node3" class="node">
<title>Node2</title>
<g id="a_node3"><a xlink:href="ir_2span_8h.html" target="_top" xlink:title="Span information for debugging purposes. ">
<polygon fill="#ffffff" stroke="#000000" points="1477.5,-626.5 1477.5,-645.5 1558.5,-645.5 1558.5,-626.5 1477.5,-626.5"/>
<text text-anchor="middle" x="1518" y="-633.5" font-family="Helvetica,sans-Serif" font-size="10.00" fill="#000000">tvm/ir/span.h</text>
</a>
</g>
</g>
<!-- Node1&#45;&gt;Node2 -->
<g id="edge2" class="edge">
<title>Node1&#45;&gt;Node2</title>
<path fill="none" stroke="#191970" d="M1518.8632,-738.3507C1515.1769,-729.1921 1510.0567,-714.9416 1508,-702 1505.5273,-686.4413 1508.5003,-668.7963 1511.8329,-655.6677"/>
<polygon fill="#191970" stroke="#191970" points="1515.2567,-656.4217 1514.6051,-645.8469 1508.52,-654.52 1515.2567,-656.4217"/>
</g>
<!-- Node3 -->
<g id="node4" class="node">
<title>Node3</title>
<g id="a_node4"><a xlink:href="node_8h.html" target="_top" xlink:title="Definitions and helper macros for IR/AST nodes. ">
<polygon fill="#ffffff" stroke="#000000" points="1556.5,-565 1556.5,-584 1655.5,-584 1655.5,-565 1556.5,-565"/>
<text text-anchor="middle" x="1606" y="-572" font-family="Helvetica,sans-Serif" font-size="10.00" fill="#000000">tvm/node/node.h</text>
</a>
</g>
</g>
<!-- Node1&#45;&gt;Node3 -->
<g id="edge150" class="edge">
<title>Node1&#45;&gt;Node3</title>
<path fill="none" stroke="#191970" d="M1556.8965,-738.4632C1574.8701,-731.4893 1595.3802,-720.0275 1606,-702 1625.76,-668.4569 1618.3693,-620.8247 1611.8072,-594.294"/>
<polygon fill="#191970" stroke="#191970" points="1615.1019,-593.0677 1609.1271,-584.3182 1608.3416,-594.8839 1615.1019,-593.0677"/>
</g>
<!-- Node1&#45;&gt;Node8 -->
<g id="edge152" class="edge">
<title>Node1&#45;&gt;Node8</title>
<path fill="none" stroke="#191970" d="M1562.824,-745.8323C1800.1072,-732.6998 3022.3062,-661.9481 3172,-590 3209.3934,-572.0274 3212.2149,-556.2713 3237,-523 3313.9982,-419.6384 3367.536,-320.4 3271,-235 3231.9731,-200.4751 3217.9457,-193.8488 3168,-179 3075.5161,-151.5046 2796.1732,-139.3206 2664.3306,-134.9899"/>
<polygon fill="#191970" stroke="#191970" points="2664.058,-131.4794 2653.9504,-134.6552 2663.8324,-138.4758 2664.058,-131.4794"/>
</g>
<!-- Node1&#45;&gt;Node14 -->
<g id="edge155" class="edge">
<title>Node1&#45;&gt;Node14</title>
<path fill="none" stroke="#191970" d="M1483.1489,-747.3983C1261.3409,-743.9603 186.5729,-726.1068 121,-702 76.7646,-685.7376 38,-683.13 38,-636 38,-636 38,-636 38,-189 38,-150.5305 60.9249,-142.6453 94,-123 130.2154,-101.4895 251.1124,-83.3325 309.6677,-75.5562"/>
<polygon fill="#191970" stroke="#191970" points="310.3792,-78.993 319.8413,-74.2265 309.472,-72.0521 310.3792,-78.993"/>
</g>
<!-- Node15 -->
<g id="node16" class="node">
<title>Node15</title>
<polygon fill="#ffffff" stroke="#bfbfbf" points="763.5,-62 763.5,-81 832.5,-81 832.5,-62 763.5,-62"/>
<text text-anchor="middle" x="798" y="-69" font-family="Helvetica,sans-Serif" font-size="10.00" fill="#000000">type_traits</text>
</g>
<!-- Node1&#45;&gt;Node15 -->
<g id="edge156" class="edge">
<title>Node1&#45;&gt;Node15</title>
<path fill="none" stroke="#191970" d="M1483.3968,-747.0529C1315.8831,-742.9282 664.8241,-725.6721 461,-702 305.0611,-683.8893 114,-792.9871 114,-636 114,-636 114,-636 114,-574.5 114,-377.3243 154.0953,-292.9647 315,-179 376.1395,-135.6964 401.3731,-141.4003 474,-123 572.0628,-98.1554 690.0133,-82.9952 753.0523,-76.0405"/>
<polygon fill="#191970" stroke="#191970" points="753.4929,-79.5133 763.057,-74.9551 752.7378,-72.5542 753.4929,-79.5133"/>
</g>
<!-- Node24 -->
<g id="node25" class="node">
<title>Node24</title>
<polygon fill="#ffffff" stroke="#bfbfbf" points="1810,-179.5 1810,-198.5 1874,-198.5 1874,-179.5 1810,-179.5"/>
<text text-anchor="middle" x="1842" y="-186.5" font-family="Helvetica,sans-Serif" font-size="10.00" fill="#000000">algorithm</text>
</g>
<!-- Node1&#45;&gt;Node24 -->
<g id="edge153" class="edge">
<title>Node1&#45;&gt;Node24</title>
<path fill="none" stroke="#191970" d="M1483.2925,-745.8022C1294.186,-735.0791 494,-686.7094 494,-636 494,-636 494,-636 494,-574.5 494,-376.2984 1195.1502,-532.4841 1378,-456 1488.4728,-409.7904 1482.2888,-341.2139 1591,-291 1661.9027,-258.25 1692.7135,-289.0523 1763,-255 1787.9272,-242.9233 1811.6271,-221.2791 1826.4495,-206.0781"/>
<polygon fill="#191970" stroke="#191970" points="1829.0091,-208.4655 1833.3509,-198.8011 1823.93,-203.6485 1829.0091,-208.4655"/>
</g>
<!-- Node26 -->
<g id="node27" class="node">
<title>Node26</title>
<g id="a_node27"><a xlink:href="string_8h.html" target="_top" xlink:title="Runtime String container types. ">
<polygon fill="#ffffff" stroke="#000000" points="1030,-291.5 1030,-321.5 1156,-321.5 1156,-291.5 1030,-291.5"/>
<text text-anchor="start" x="1038" y="-309.5" font-family="Helvetica,sans-Serif" font-size="10.00" fill="#000000">tvm/runtime/container</text>
<text text-anchor="middle" x="1093" y="-298.5" font-family="Helvetica,sans-Serif" font-size="10.00" fill="#000000">/string.h</text>
</a>
</g>
</g>
<!-- Node1&#45;&gt;Node26 -->
<g id="edge151" class="edge">
<title>Node1&#45;&gt;Node26</title>
<path fill="none" stroke="#191970" d="M1483.3075,-747.7665C1296.8268,-746.4795 515.302,-738.8933 480,-702 415.4737,-634.5651 433.4924,-572.9207 480,-492 534.6686,-396.8796 869.3153,-338.1792 1019.8054,-316.2725"/>
<polygon fill="#191970" stroke="#191970" points="1020.4829,-319.7111 1029.8816,-314.8208 1019.4846,-312.7827 1020.4829,-319.7111"/>
</g>
<!-- Node45 -->
<g id="node43" class="node">
<title>Node45</title>
<polygon fill="#ffffff" stroke="#bfbfbf" points="2788,-364 2788,-383 2832,-383 2832,-364 2788,-364"/>
<text text-anchor="middle" x="2810" y="-371" font-family="Helvetica,sans-Serif" font-size="10.00" fill="#000000">limits</text>
</g>
<!-- Node1&#45;&gt;Node45 -->
<g id="edge154" class="edge">
<title>Node1&#45;&gt;Node45</title>
<path fill="none" stroke="#191970" d="M1562.8981,-742.9865C1681.0994,-727.5311 2039.0347,-676.3761 2325,-590 2399.5866,-567.471 2415.6307,-554.2591 2487,-523 2596.4185,-475.0757 2724.7714,-414.2799 2781.0676,-387.3805"/>
<polygon fill="#191970" stroke="#191970" points="2782.5861,-390.534 2790.0969,-383.0614 2779.5655,-384.2193 2782.5861,-390.534"/>
</g>
<!-- Node49 -->
<g id="node46" class="node">
<title>Node49</title>
<g id="a_node46"><a xlink:href="ir_2type_8h.html" target="_top" xlink:title="IR/AST nodes for the unified type system in TVM. ">
<polygon fill="#ffffff" stroke="#000000" points="1517,-682.5 1517,-701.5 1597,-701.5 1597,-682.5 1517,-682.5"/>
<text text-anchor="middle" x="1557" y="-689.5" font-family="Helvetica,sans-Serif" font-size="10.00" fill="#000000">tvm/ir/type.h</text>
</a>
</g>
</g>
<!-- Node1&#45;&gt;Node49 -->
<g id="edge143" class="edge">
<title>Node1&#45;&gt;Node49</title>
<path fill="none" stroke="#191970" d="M1528.9223,-738.2455C1533.6027,-730.5367 1540.2673,-719.5598 1545.9289,-710.2348"/>
<polygon fill="#191970" stroke="#191970" points="1548.9475,-712.007 1551.1455,-701.6427 1542.9639,-708.3741 1548.9475,-712.007"/>
</g>
<!-- Node2&#45;&gt;Node3 -->
<g id="edge3" class="edge">
<title>Node2&#45;&gt;Node3</title>
<path fill="none" stroke="#191970" d="M1531.75,-626.3906C1545.6991,-616.6421 1567.5098,-601.3994 1583.8897,-589.9521"/>
<polygon fill="#191970" stroke="#191970" points="1586.1548,-592.6392 1592.3466,-584.0419 1582.1449,-586.9015 1586.1548,-592.6392"/>
</g>
<!-- Node2&#45;&gt;Node8 -->
<g id="edge141" class="edge">
<title>Node2&#45;&gt;Node8</title>
<path fill="none" stroke="#191970" d="M1558.5909,-635.6569C1798.7985,-633.5219 3026.1188,-621.1182 3099,-590 3177.0393,-556.6795 3182.241,-522.4597 3235,-456 3256.7059,-428.6574 3266.5343,-422.6031 3276,-389 3295.706,-319.044 3280.0011,-277.4386 3221,-235 3192.6218,-214.588 3108.0381,-186.9612 3074,-179 2997.9391,-161.2101 2777.6969,-144.9124 2663.9017,-137.3849"/>
<polygon fill="#191970" stroke="#191970" points="2664.104,-133.8908 2653.8961,-136.7275 2663.6451,-140.8757 2664.104,-133.8908"/>
</g>
<!-- Node2&#45;&gt;Node14 -->
<g id="edge142" class="edge">
<title>Node2&#45;&gt;Node14</title>
<path fill="none" stroke="#191970" d="M1477.2143,-634.7847C1293.4375,-628.9091 541.7071,-600.4902 321,-523 213.9229,-485.4053 114,-486.9851 114,-373.5 114,-373.5 114,-373.5 114,-189 114,-102.0732 246.5702,-79.3944 309.5337,-73.5253"/>
<polygon fill="#191970" stroke="#191970" points="310.0527,-76.994 319.7233,-72.6663 309.4646,-70.0188 310.0527,-76.994"/>
</g>
<!-- Node3&#45;&gt;Node4 -->
<g id="edge4" class="edge">
<title>Node3&#45;&gt;Node4</title>
<path fill="none" stroke="#191970" d="M1655.5408,-572.0559C1770.5429,-566.1236 2064.4537,-549.4736 2309,-523 2320.9907,-521.7019 2333.6978,-520.0907 2346.0231,-518.4025"/>
<polygon fill="#191970" stroke="#191970" points="2346.8433,-521.8219 2356.2625,-516.9714 2345.8743,-514.8893 2346.8433,-521.8219"/>
</g>
<!-- Node5 -->
<g id="node6" class="node">
<title>Node5</title>
<g id="a_node6"><a xlink:href="structural__equal_8h.html" target="_top" xlink:title="Structural equality comparison. ">
<polygon fill="#ffffff" stroke="#000000" points="1256.5,-425.5 1256.5,-455.5 1369.5,-455.5 1369.5,-425.5 1256.5,-425.5"/>
<text text-anchor="start" x="1264.5" y="-443.5" font-family="Helvetica,sans-Serif" font-size="10.00" fill="#000000">tvm/node/structural</text>
<text text-anchor="middle" x="1313" y="-432.5" font-family="Helvetica,sans-Serif" font-size="10.00" fill="#000000">_equal.h</text>
</a>
</g>
</g>
<!-- Node3&#45;&gt;Node5 -->
<g id="edge132" class="edge">
<title>Node3&#45;&gt;Node5</title>
<path fill="none" stroke="#191970" d="M1584.9282,-564.8631C1537.0018,-542.9445 1419.0679,-489.0089 1355.4005,-459.8913"/>
<polygon fill="#191970" stroke="#191970" points="1356.591,-456.5872 1346.0413,-455.611 1353.6797,-462.9531 1356.591,-456.5872"/>
</g>
<!-- Node3&#45;&gt;Node8 -->
<g id="edge136" class="edge">
<title>Node3&#45;&gt;Node8</title>
<path fill="none" stroke="#191970" d="M1655.8277,-573.395C1790.3085,-570.0225 2171.7735,-557.8749 2487,-523 2670.5195,-502.6964 2733.6662,-542.1031 2897,-456 2989.5406,-407.2163 3027.7865,-327.0049 2978,-235 2958.873,-199.6536 2943.9086,-194.9048 2907,-179 2864.52,-160.6944 2742.4394,-146.5636 2663.896,-139.0386"/>
<polygon fill="#191970" stroke="#191970" points="2663.876,-135.5212 2653.5911,-138.0652 2663.2176,-142.4902 2663.876,-135.5212"/>
</g>
<!-- Node9 -->
<g id="node10" class="node">
<title>Node9</title>
<g id="a_node10"><a xlink:href="c__runtime__api_8h.html" target="_top" xlink:title="tvm/runtime/c_runtime\l_api.h">
<polygon fill="#ffffff" stroke="#000000" points="3088.5,-56.5 3088.5,-86.5 3217.5,-86.5 3217.5,-56.5 3088.5,-56.5"/>
<text text-anchor="start" x="3096.5" y="-74.5" font-family="Helvetica,sans-Serif" font-size="10.00" fill="#000000">tvm/runtime/c_runtime</text>
<text text-anchor="middle" x="3153" y="-63.5" font-family="Helvetica,sans-Serif" font-size="10.00" fill="#000000">_api.h</text>
</a>
</g>
</g>
<!-- Node3&#45;&gt;Node9 -->
<g id="edge134" class="edge">
<title>Node3&#45;&gt;Node9</title>
<path fill="none" stroke="#191970" d="M1655.8705,-573.88C1881.7254,-570.9033 2810.1693,-556.8064 3099,-523 3302.8815,-499.1366 3536,-578.7733 3536,-373.5 3536,-373.5 3536,-373.5 3536,-189 3536,-125.179 3339.1709,-92.4768 3227.7177,-79.0752"/>
<polygon fill="#191970" stroke="#191970" points="3227.8784,-75.57 3217.5376,-77.8761 3227.0595,-82.522 3227.8784,-75.57"/>
</g>
<!-- Node3&#45;&gt;Node14 -->
<g id="edge137" class="edge">
<title>Node3&#45;&gt;Node14</title>
<path fill="none" stroke="#191970" d="M1556.4356,-573.8209C1368.1364,-570.9923 697.2038,-558.5862 487,-523 384.1244,-505.5838 346.9634,-516.5634 262,-456 175.8828,-394.6142 152,-350.7563 152,-245 152,-245 152,-245 152,-189 152,-157.7875 153.4067,-144.5352 176,-123 195.3711,-104.5361 267.5905,-86.9348 310.1246,-77.8647"/>
<polygon fill="#191970" stroke="#191970" points="310.923,-81.2735 319.994,-75.7995 309.4891,-74.4219 310.923,-81.2735"/>
</g>
<!-- Node3&#45;&gt;Node15 -->
<g id="edge138" class="edge">
<title>Node3&#45;&gt;Node15</title>
<path fill="none" stroke="#191970" d="M1556.3185,-572.1898C1313.8082,-560.5927 266,-506.6579 266,-440.5 266,-440.5 266,-440.5 266,-306.5 266,-163.607 398.3108,-178.465 530,-123 604.4522,-91.6421 698.619,-79.2095 753.2089,-74.4028"/>
<polygon fill="#191970" stroke="#191970" points="753.58,-77.8841 763.2547,-73.5655 752.9985,-70.9083 753.58,-77.8841"/>
</g>
<!-- Node16 -->
<g id="node17" class="node">
<title>Node16</title>
<polygon fill="#ffffff" stroke="#bfbfbf" points="1683.5,-62 1683.5,-81 1728.5,-81 1728.5,-62 1683.5,-62"/>
<text text-anchor="middle" x="1706" y="-69" font-family="Helvetica,sans-Serif" font-size="10.00" fill="#000000">utility</text>
</g>
<!-- Node3&#45;&gt;Node16 -->
<g id="edge139" class="edge">
<title>Node3&#45;&gt;Node16</title>
<path fill="none" stroke="#191970" d="M1556.4666,-573.0766C1464.0375,-569.644 1259.398,-558.3755 1091,-523 996.7802,-503.2072 975.6053,-488.5547 885,-456 808.5719,-428.5392 760.7004,-456.1329 715,-389 707.2468,-377.6107 712.8429,-371.6079 715,-358 723.9999,-301.2242 719.6737,-280.3492 755,-235 812.4396,-161.2634 844.1035,-151.8759 933,-123 1004.0695,-99.9148 1534.2701,-78.1002 1672.9084,-72.7468"/>
<polygon fill="#191970" stroke="#191970" points="1673.435,-76.2293 1683.2935,-72.3484 1673.1666,-69.2344 1673.435,-76.2293"/>
</g>
<!-- Node3&#45;&gt;Node18 -->
<g id="edge140" class="edge">
<title>Node3&#45;&gt;Node18</title>
<path fill="none" stroke="#191970" d="M1655.5346,-566.8023C1728.3806,-553.6639 1866.4182,-521.7011 1965,-456 2006.8067,-428.1374 2101.3316,-308.2116 2136.4919,-262.6521"/>
<polygon fill="#191970" stroke="#191970" points="2139.3771,-264.6417 2142.6992,-254.5811 2133.8284,-260.3742 2139.3771,-264.6417"/>
</g>
<!-- Node22 -->
<g id="node23" class="node">
<title>Node22</title>
<g id="a_node23"><a xlink:href="runtime_2memory_8h.html" target="_top" xlink:title="Runtime memory management. ">
<polygon fill="#ffffff" stroke="#000000" points="902.5,-179.5 902.5,-198.5 1031.5,-198.5 1031.5,-179.5 902.5,-179.5"/>
<text text-anchor="middle" x="967" y="-186.5" font-family="Helvetica,sans-Serif" font-size="10.00" fill="#000000">tvm/runtime/memory.h</text>
</a>
</g>
</g>
<!-- Node3&#45;&gt;Node22 -->
<g id="edge135" class="edge">
<title>Node3&#45;&gt;Node22</title>
<path fill="none" stroke="#191970" d="M1556.1217,-570.2753C1447.277,-559.9677 1181.3554,-528.8418 971,-456 910.3238,-434.9891 888.6493,-434.1576 843,-389 794.3401,-340.8642 788.8821,-278.1663 842,-235 861.5496,-219.113 887.0962,-208.4173 909.9959,-201.3715"/>
<polygon fill="#191970" stroke="#191970" points="910.9986,-204.7249 919.6228,-198.5708 909.0432,-198.0036 910.9986,-204.7249"/>
</g>
<!-- Node34 -->
<g id="node35" class="node">
<title>Node34</title>
<g id="a_node35"><a xlink:href="structural__hash_8h.html" target="_top" xlink:title="Structural hash class. ">
<polygon fill="#ffffff" stroke="#000000" points="1842.5,-425.5 1842.5,-455.5 1955.5,-455.5 1955.5,-425.5 1842.5,-425.5"/>
<text text-anchor="start" x="1850.5" y="-443.5" font-family="Helvetica,sans-Serif" font-size="10.00" fill="#000000">tvm/node/structural</text>
<text text-anchor="middle" x="1899" y="-432.5" font-family="Helvetica,sans-Serif" font-size="10.00" fill="#000000">_hash.h</text>
</a>
</g>
</g>
<!-- Node3&#45;&gt;Node34 -->
<g id="edge133" class="edge">
<title>Node3&#45;&gt;Node34</title>
<path fill="none" stroke="#191970" d="M1627.0718,-564.8631C1674.9982,-542.9445 1792.9321,-489.0089 1856.5995,-459.8913"/>
<polygon fill="#191970" stroke="#191970" points="1858.3203,-462.9531 1865.9587,-455.611 1855.409,-456.5872 1858.3203,-462.9531"/>
</g>
<!-- Node3&#45;&gt;Node47 -->
<g id="edge129" class="edge">
<title>Node3&#45;&gt;Node47</title>
<path fill="none" stroke="#191970" d="M1655.5135,-571.793C1752.6669,-566.0634 1974.9366,-550.8909 2160,-523 2167.4003,-521.8847 2175.1749,-520.4973 2182.7899,-519.0144"/>
<polygon fill="#191970" stroke="#191970" points="2183.5524,-522.4313 2192.6639,-517.0248 2182.1696,-515.5692 2183.5524,-522.4313"/>
</g>
<!-- Node4&#45;&gt;Node5 -->
<g id="edge5" class="edge">
<title>Node4&#45;&gt;Node5</title>
<path fill="none" stroke="#191970" d="M2357.4173,-497.9601C2341.7049,-495.7156 2324.7422,-493.5334 2309,-492 2127.8461,-474.3539 1572.4923,-450.9576 1379.7344,-443.157"/>
<polygon fill="#191970" stroke="#191970" points="1379.8732,-439.6598 1369.74,-442.7533 1379.5906,-446.6541 1379.8732,-439.6598"/>
</g>
<!-- Node4&#45;&gt;Node8 -->
<g id="edge95" class="edge">
<title>Node4&#45;&gt;Node8</title>
<path fill="none" stroke="#191970" d="M2477.7103,-506.0376C2583.2853,-502.5829 2795.5976,-491.336 2860,-456 2927.3052,-419.0713 2943.2939,-394.3389 2969,-322 2974.9185,-305.345 2964.2848,-236.9461 2963,-235 2934.9344,-192.4901 2911.0241,-195.9839 2863,-179 2797.6108,-155.8748 2719.0443,-144.1554 2663.7525,-138.3592"/>
<polygon fill="#191970" stroke="#191970" points="2664.0088,-134.8674 2653.7076,-137.3445 2663.3051,-141.8319 2664.0088,-134.8674"/>
</g>
<!-- Node4&#45;&gt;Node9 -->
<g id="edge91" class="edge">
<title>Node4&#45;&gt;Node9</title>
<path fill="none" stroke="#191970" d="M2477.7428,-506.06C2674.0032,-499.969 3284.9317,-469.2846 3398,-322 3470.6433,-227.3737 3288.2246,-130.7261 3198.8882,-90.6813"/>
<polygon fill="#191970" stroke="#191970" points="3200.0713,-87.3775 3189.5103,-86.5322 3197.2391,-93.779 3200.0713,-87.3775"/>
</g>
<!-- Node4&#45;&gt;Node14 -->
<g id="edge126" class="edge">
<title>Node4&#45;&gt;Node14</title>
<path fill="none" stroke="#191970" d="M2359.6926,-497.9947C2343.3594,-495.6341 2325.5164,-493.3851 2309,-492 1987.3632,-465.0267 1174.4406,-514.3888 857,-456 680.8727,-423.6039 621.746,-427.4463 477,-322 400.1802,-266.0374 393.6791,-231.8752 360,-143 353.566,-126.0215 348.7359,-105.9072 345.7075,-91.3444"/>
<polygon fill="#191970" stroke="#191970" points="349.1211,-90.5645 343.7461,-81.4343 342.2543,-91.9235 349.1211,-90.5645"/>
</g>
<!-- Node4&#45;&gt;Node15 -->
<g id="edge127" class="edge">
<title>Node4&#45;&gt;Node15</title>
<path fill="none" stroke="#191970" d="M2359.4096,-497.9877C2343.1526,-495.6422 2325.4198,-493.4027 2309,-492 2023.2625,-467.5896 1300.2974,-511.7991 1019,-456 831.9768,-418.9015 730.351,-422.9008 640,-255 601.2064,-182.9092 712.8564,-114.3149 768.5181,-85.612"/>
<polygon fill="#191970" stroke="#191970" points="770.2274,-88.6699 777.5763,-81.0381 767.0721,-82.4213 770.2274,-88.6699"/>
</g>
<!-- Node4&#45;&gt;Node18 -->
<g id="edge128" class="edge">
<title>Node4&#45;&gt;Node18</title>
<path fill="none" stroke="#191970" d="M2371.8334,-497.9248C2362.0102,-495.9097 2351.6657,-493.8388 2342,-492 2296.1322,-483.2741 2166.3636,-490.5879 2135,-456 2085.8778,-401.8277 2122.2486,-304.2695 2140.834,-263.5948"/>
<polygon fill="#191970" stroke="#191970" points="2144.0046,-265.0771 2145.1131,-254.5404 2137.6758,-262.0861 2144.0046,-265.0771"/>
</g>
<!-- Node4&#45;&gt;Node22 -->
<g id="edge93" class="edge">
<title>Node4&#45;&gt;Node22</title>
<path fill="none" stroke="#191970" d="M2358.8429,-497.9711C2342.7396,-495.6553 2325.2269,-493.4352 2309,-492 1838.5653,-450.3925 1716.0041,-511.4537 1247,-456 1099.2412,-438.5294 1056.5394,-445.7519 919,-389 860.8863,-365.021 787.5905,-346.5633 817,-291 840.6666,-246.2867 893.6976,-217.5248 929.9202,-202.3018"/>
<polygon fill="#191970" stroke="#191970" points="931.2417,-205.5428 939.1953,-198.5434 928.6128,-199.0552 931.2417,-205.5428"/>
</g>
<!-- Node33 -->
<g id="node34" class="node">
<title>Node33</title>
<g id="a_node34"><a xlink:href="data__type_8h.html" target="_top" xlink:title="tvm/runtime/data_type.h">
<polygon fill="#ffffff" stroke="#000000" points="2800,-297 2800,-316 2938,-316 2938,-297 2800,-297"/>
<text text-anchor="middle" x="2869" y="-304" font-family="Helvetica,sans-Serif" font-size="10.00" fill="#000000">tvm/runtime/data_type.h</text>
</a>
</g>
</g>
<!-- Node4&#45;&gt;Node33 -->
<g id="edge92" class="edge">
<title>Node4&#45;&gt;Node33</title>
<path fill="none" stroke="#191970" d="M2476.092,-497.9569C2579.7077,-480.1234 2788.2033,-438.9865 2841,-389 2858.3634,-372.5607 2864.9596,-344.9646 2867.4653,-326.2597"/>
<polygon fill="#191970" stroke="#191970" points="2870.9596,-326.4977 2868.5376,-316.1834 2863.999,-325.7568 2870.9596,-326.4977"/>
</g>
<!-- Node4&#45;&gt;Node34 -->
<g id="edge69" class="edge">
<title>Node4&#45;&gt;Node34</title>
<path fill="none" stroke="#191970" d="M2374.2904,-497.9643C2363.7682,-495.8112 2352.5047,-493.6709 2342,-492 2200.2213,-469.4484 2163.5453,-473.0474 2021,-456 2003.1065,-453.8601 1983.7501,-451.4463 1965.8406,-449.1719"/>
<polygon fill="#191970" stroke="#191970" points="1966.135,-445.6812 1955.7728,-447.8888 1965.25,-452.625 1966.135,-445.6812"/>
</g>
<!-- Node35 -->
<g id="node36" class="node">
<title>Node35</title>
<g id="a_node36"><a xlink:href="ndarray_8h.html" target="_top" xlink:title="A device&#45;independent managed NDArray abstraction. ">
<polygon fill="#ffffff" stroke="#000000" points="2406.5,-364 2406.5,-383 2531.5,-383 2531.5,-364 2406.5,-364"/>
<text text-anchor="middle" x="2469" y="-371" font-family="Helvetica,sans-Serif" font-size="10.00" fill="#000000">tvm/runtime/ndarray.h</text>
</a>
</g>
</g>
<!-- Node4&#45;&gt;Node35 -->
<g id="edge94" class="edge">
<title>Node4&#45;&gt;Node35</title>
<path fill="none" stroke="#191970" d="M2420.7397,-497.8631C2429.2847,-475.8432 2450.3693,-421.5098 2461.631,-392.4894"/>
<polygon fill="#191970" stroke="#191970" points="2464.9393,-393.6385 2465.2942,-383.0496 2458.4134,-391.1061 2464.9393,-393.6385"/>
</g>
<!-- Node41 -->
<g id="node40" class="node">
<title>Node41</title>
<g id="a_node40"><a xlink:href="packed__func_8h.html" target="_top" xlink:title="Type&#45;erased function used across TVM API. ">
<polygon fill="#ffffff" stroke="#ff0000" points="2144,-425.5 2144,-455.5 2260,-455.5 2260,-425.5 2144,-425.5"/>
<text text-anchor="start" x="2152" y="-443.5" font-family="Helvetica,sans-Serif" font-size="10.00" fill="#000000">tvm/runtime/packed</text>
<text text-anchor="middle" x="2202" y="-432.5" font-family="Helvetica,sans-Serif" font-size="10.00" fill="#000000">_func.h</text>
</a>
</g>
</g>
<!-- Node4&#45;&gt;Node41 -->
<g id="edge96" class="edge">
<title>Node4&#45;&gt;Node41</title>
<path fill="none" stroke="#191970" d="M2386.1957,-497.9005C2353.3718,-487.6717 2300.6422,-471.2397 2259.9944,-458.5727"/>
<polygon fill="#191970" stroke="#191970" points="2260.7927,-455.1555 2250.2042,-455.5218 2258.71,-461.8385 2260.7927,-455.1555"/>
</g>
<!-- Node6 -->
<g id="node7" class="node">
<title>Node6</title>
<g id="a_node7"><a xlink:href="functor_8h.html" target="_top" xlink:title="Defines the Functor data structures. ">
<polygon fill="#ffffff" stroke="#000000" points="826.5,-297 826.5,-316 935.5,-316 935.5,-297 826.5,-297"/>
<text text-anchor="middle" x="881" y="-304" font-family="Helvetica,sans-Serif" font-size="10.00" fill="#000000">tvm/node/functor.h</text>
</a>
</g>
</g>
<!-- Node5&#45;&gt;Node6 -->
<g id="edge6" class="edge">
<title>Node5&#45;&gt;Node6</title>
<path fill="none" stroke="#191970" d="M1256.4412,-436.528C1170.895,-429.7957 1013.242,-414.3486 963,-389 933.1159,-373.9226 907.5545,-343.7848 893.2459,-324.4091"/>
<polygon fill="#191970" stroke="#191970" points="895.9825,-322.2187 887.3218,-316.1159 890.2864,-326.2875 895.9825,-322.2187"/>
</g>
<!-- Node5&#45;&gt;Node14 -->
<g id="edge68" class="edge">
<title>Node5&#45;&gt;Node14</title>
<path fill="none" stroke="#191970" d="M1256.3705,-437.9151C1095.8989,-429.6909 641.7695,-399.9325 518,-322 425.7985,-263.9446 368.4048,-138.2396 349.1952,-90.4547"/>
<polygon fill="#191970" stroke="#191970" points="352.4021,-89.0453 345.4934,-81.0128 345.885,-91.6004 352.4021,-89.0453"/>
</g>
<!-- Node19 -->
<g id="node20" class="node">
<title>Node19</title>
<g id="a_node20"><a xlink:href="object__path_8h.html" target="_top" xlink:title="tvm/node/object_path.h">
<polygon fill="#ffffff" stroke="#000000" points="1100,-364 1100,-383 1232,-383 1232,-364 1100,-364"/>
<text text-anchor="middle" x="1166" y="-371" font-family="Helvetica,sans-Serif" font-size="10.00" fill="#000000">tvm/node/object_path.h</text>
</a>
</g>
</g>
<!-- Node5&#45;&gt;Node19 -->
<g id="edge21" class="edge">
<title>Node5&#45;&gt;Node19</title>
<path fill="none" stroke="#191970" d="M1280.0103,-425.4639C1254.9012,-414.0196 1220.6192,-398.3945 1196.2205,-387.274"/>
<polygon fill="#191970" stroke="#191970" points="1197.6223,-384.0665 1187.0713,-383.1039 1194.7191,-390.4361 1197.6223,-384.0665"/>
</g>
<!-- Node32 -->
<g id="node33" class="node">
<title>Node32</title>
<g id="a_node33"><a xlink:href="array_8h.html" target="_top" xlink:title="Runtime Array container types. ">
<polygon fill="#ffffff" stroke="#000000" points="1250,-358.5 1250,-388.5 1376,-388.5 1376,-358.5 1250,-358.5"/>
<text text-anchor="start" x="1258" y="-376.5" font-family="Helvetica,sans-Serif" font-size="10.00" fill="#000000">tvm/runtime/container</text>
<text text-anchor="middle" x="1313" y="-365.5" font-family="Helvetica,sans-Serif" font-size="10.00" fill="#000000">/array.h</text>
</a>
</g>
</g>
<!-- Node5&#45;&gt;Node32 -->
<g id="edge55" class="edge">
<title>Node5&#45;&gt;Node32</title>
<path fill="none" stroke="#191970" d="M1313,-425.2967C1313,-417.5013 1313,-407.7991 1313,-398.9064"/>
<polygon fill="#191970" stroke="#191970" points="1316.5001,-398.6431 1313,-388.6432 1309.5001,-398.6432 1316.5001,-398.6431"/>
</g>
<!-- Node5&#45;&gt;Node33 -->
<g id="edge63" class="edge">
<title>Node5&#45;&gt;Node33</title>
<path fill="none" stroke="#191970" d="M1369.6793,-438.1551C1610.8304,-428.1745 2539.2832,-389.7069 2541,-389 2559.9091,-381.2142 2556.6234,-366.9708 2575,-358 2660.4904,-316.2668 2692.3501,-338.7324 2786,-322 2793.3245,-320.6913 2801.0074,-319.2923 2808.6187,-317.8901"/>
<polygon fill="#191970" stroke="#191970" points="2809.3511,-321.3141 2818.547,-316.0524 2808.077,-314.431 2809.3511,-321.3141"/>
</g>
<!-- Node7 -->
<g id="node8" class="node">
<title>Node7</title>
<polygon fill="#ffffff" stroke="#bfbfbf" points="1164.5,-179.5 1164.5,-198.5 1253.5,-198.5 1253.5,-179.5 1164.5,-179.5"/>
<text text-anchor="middle" x="1209" y="-186.5" font-family="Helvetica,sans-Serif" font-size="10.00" fill="#000000">dmlc/logging.h</text>
</g>
<!-- Node6&#45;&gt;Node7 -->
<g id="edge7" class="edge">
<title>Node6&#45;&gt;Node7</title>
<path fill="none" stroke="#191970" d="M907.5638,-296.984C966.0245,-276.0415 1105.9088,-225.9305 1172.5287,-202.0652"/>
<polygon fill="#191970" stroke="#191970" points="1173.9545,-205.2723 1182.1883,-198.6048 1171.5937,-198.6824 1173.9545,-205.2723"/>
</g>
<!-- Node6&#45;&gt;Node8 -->
<g id="edge8" class="edge">
<title>Node6&#45;&gt;Node8</title>
<path fill="none" stroke="#191970" d="M895.6108,-296.8243C935.2353,-271.2425 1048.8985,-202.1965 1155,-179 1289.255,-149.6484 2254.8266,-136.7789 2524.3147,-133.7345"/>
<polygon fill="#191970" stroke="#191970" points="2524.4018,-137.2338 2534.3619,-133.6219 2524.3233,-130.2342 2524.4018,-137.2338"/>
</g>
<!-- Node6&#45;&gt;Node15 -->
<g id="edge18" class="edge">
<title>Node6&#45;&gt;Node15</title>
<path fill="none" stroke="#191970" d="M877.6435,-296.9967C865.2092,-261.7912 821.6193,-138.374 804.7437,-90.5937"/>
<polygon fill="#191970" stroke="#191970" points="808.0288,-89.3851 801.3983,-81.1216 801.4284,-91.7164 808.0288,-89.3851"/>
</g>
<!-- Node6&#45;&gt;Node16 -->
<g id="edge19" class="edge">
<title>Node6&#45;&gt;Node16</title>
<path fill="none" stroke="#191970" d="M890.6179,-296.7066C905.5215,-281.922 935.5562,-253.6527 965,-235 990.5414,-218.8195 1060.824,-189.9675 1089,-179 1163.1313,-150.1443 1181.3071,-140.0852 1259,-123 1411.7083,-89.4183 1598.8771,-76.8668 1673.2683,-72.9888"/>
<polygon fill="#191970" stroke="#191970" points="1673.597,-76.4767 1683.4082,-72.4781 1673.2448,-69.4856 1673.597,-76.4767"/>
</g>
<!-- Node6&#45;&gt;Node18 -->
<g id="edge20" class="edge">
<title>Node6&#45;&gt;Node18</title>
<path fill="none" stroke="#191970" d="M935.7676,-299.4943C961.5833,-296.4338 992.8319,-293.076 1021,-291 1453.8987,-259.0954 1563.4931,-277.1574 1997,-255 2038.0216,-252.9033 2085.1788,-249.701 2116.171,-247.4877"/>
<polygon fill="#191970" stroke="#191970" points="2116.6998,-250.9588 2126.4226,-246.7495 2116.197,-243.9769 2116.6998,-250.9588"/>
</g>
<!-- Node8&#45;&gt;Node9 -->
<g id="edge9" class="edge">
<title>Node8&#45;&gt;Node9</title>
<path fill="none" stroke="#191970" d="M2653.7557,-124.7761C2658.5729,-124.1585 2663.3666,-123.559 2668,-123 2812.9839,-105.5098 2982.7423,-88.2117 3078.0913,-78.785"/>
<polygon fill="#191970" stroke="#191970" points="3078.6049,-82.2514 3088.2129,-77.7863 3077.9175,-75.2853 3078.6049,-82.2514"/>
</g>
<!-- Node13 -->
<g id="node14" class="node">
<title>Node13</title>
<polygon fill="#ffffff" stroke="#bfbfbf" points="2833.5,-62 2833.5,-81 2958.5,-81 2958.5,-62 2833.5,-62"/>
<text text-anchor="middle" x="2896" y="-69" font-family="Helvetica,sans-Serif" font-size="10.00" fill="#000000">tvm/runtime/logging.h</text>
</g>
<!-- Node8&#45;&gt;Node13 -->
<g id="edge13" class="edge">
<title>Node8&#45;&gt;Node13</title>
<path fill="none" stroke="#191970" d="M2640.8561,-123.4581C2694.3081,-112.573 2781.706,-94.7751 2839.0448,-83.0985"/>
<polygon fill="#191970" stroke="#191970" points="2839.9335,-86.4894 2849.0339,-81.0643 2838.5366,-79.6302 2839.9335,-86.4894"/>
</g>
<!-- Node8&#45;&gt;Node14 -->
<g id="edge14" class="edge">
<title>Node8&#45;&gt;Node14</title>
<path fill="none" stroke="#191970" d="M2534.4235,-131.7837C2304.6879,-127.0357 1454.2576,-108.9247 754,-87 612.7467,-82.5774 444.3115,-75.757 374.6411,-72.868"/>
<polygon fill="#191970" stroke="#191970" points="374.4635,-69.3577 364.3267,-72.439 374.1726,-76.3516 374.4635,-69.3577"/>
</g>
<!-- Node8&#45;&gt;Node15 -->
<g id="edge15" class="edge">
<title>Node8&#45;&gt;Node15</title>
<path fill="none" stroke="#191970" d="M2534.4999,-130.9626C2256.3886,-121.4393 1087.8273,-81.4245 843.0739,-73.0435"/>
<polygon fill="#191970" stroke="#191970" points="842.8907,-69.5352 832.7767,-72.6909 842.6511,-76.5311 842.8907,-69.5352"/>
</g>
<!-- Node8&#45;&gt;Node16 -->
<g id="edge16" class="edge">
<title>Node8&#45;&gt;Node16</title>
<path fill="none" stroke="#191970" d="M2534.3569,-128.8693C2362.6381,-116.9766 1870.9442,-82.9235 1738.9492,-73.782"/>
<polygon fill="#191970" stroke="#191970" points="1738.903,-70.2705 1728.685,-73.0711 1738.4193,-77.2537 1738.903,-70.2705"/>
</g>
<!-- Node17 -->
<g id="node18" class="node">
<title>Node17</title>
<polygon fill="#ffffff" stroke="#bfbfbf" points="2525,-62 2525,-81 2575,-81 2575,-62 2525,-62"/>
<text text-anchor="middle" x="2550" y="-69" font-family="Helvetica,sans-Serif" font-size="10.00" fill="#000000">atomic</text>
</g>
<!-- Node8&#45;&gt;Node17 -->
<g id="edge17" class="edge">
<title>Node8&#45;&gt;Node17</title>
<path fill="none" stroke="#191970" d="M2587.125,-123.3906C2580.6407,-114.3273 2570.7586,-100.5149 2562.8199,-89.4188"/>
<polygon fill="#191970" stroke="#191970" points="2565.6371,-87.3412 2556.9719,-81.2449 2559.9441,-91.4143 2565.6371,-87.3412"/>
</g>
<!-- Node10 -->
<g id="node11" class="node">
<title>Node10</title>
<polygon fill="#ffffff" stroke="#bfbfbf" points="3013.5,-.5 3013.5,-19.5 3106.5,-19.5 3106.5,-.5 3013.5,-.5"/>
<text text-anchor="middle" x="3060" y="-7.5" font-family="Helvetica,sans-Serif" font-size="10.00" fill="#000000">dlpack/dlpack.h</text>
</g>
<!-- Node9&#45;&gt;Node10 -->
<g id="edge10" class="edge">
<title>Node9&#45;&gt;Node10</title>
<path fill="none" stroke="#191970" d="M3130.0112,-56.2977C3115.8034,-46.9022 3097.6215,-34.8787 3083.3475,-25.4395"/>
<polygon fill="#191970" stroke="#191970" points="3084.8845,-22.2598 3074.6128,-19.6633 3081.0233,-28.0986 3084.8845,-22.2598"/>
</g>
<!-- Node11 -->
<g id="node12" class="node">
<title>Node11</title>
<polygon fill="#ffffff" stroke="#bfbfbf" points="3125,-.5 3125,-19.5 3181,-19.5 3181,-.5 3125,-.5"/>
<text text-anchor="middle" x="3153" y="-7.5" font-family="Helvetica,sans-Serif" font-size="10.00" fill="#000000">stddef.h</text>
</g>
<!-- Node9&#45;&gt;Node11 -->
<g id="edge11" class="edge">
<title>Node9&#45;&gt;Node11</title>
<path fill="none" stroke="#191970" d="M3153,-56.2977C3153,-48.3834 3153,-38.6043 3153,-30.0759"/>
<polygon fill="#191970" stroke="#191970" points="3156.5001,-29.8469 3153,-19.8469 3149.5001,-29.847 3156.5001,-29.8469"/>
</g>
<!-- Node12 -->
<g id="node13" class="node">
<title>Node12</title>
<polygon fill="#ffffff" stroke="#bfbfbf" points="3199.5,-.5 3199.5,-19.5 3252.5,-19.5 3252.5,-.5 3199.5,-.5"/>
<text text-anchor="middle" x="3226" y="-7.5" font-family="Helvetica,sans-Serif" font-size="10.00" fill="#000000">stdint.h</text>
</g>
<!-- Node9&#45;&gt;Node12 -->
<g id="edge12" class="edge">
<title>Node9&#45;&gt;Node12</title>
<path fill="none" stroke="#191970" d="M3171.0449,-56.2977C3181.8114,-47.2274 3195.4851,-35.7077 3206.4995,-26.4285"/>
<polygon fill="#191970" stroke="#191970" points="3208.9191,-28.9667 3214.3118,-19.8469 3204.4089,-23.6132 3208.9191,-28.9667"/>
</g>
<!-- Node19&#45;&gt;Node8 -->
<g id="edge53" class="edge">
<title>Node19&#45;&gt;Node8</title>
<path fill="none" stroke="#191970" d="M1171.2891,-363.9431C1181.8421,-345.9448 1207.4156,-307.3635 1241,-291 1338.554,-243.4682 1620.1016,-266.5754 1728,-255 1806.7907,-246.5473 2332.9822,-170.7484 2524.4782,-143.0644"/>
<polygon fill="#191970" stroke="#191970" points="2525.0352,-146.5204 2534.4314,-141.6253 2524.0334,-139.5924 2525.0352,-146.5204"/>
</g>
<!-- Node19&#45;&gt;Node14 -->
<g id="edge54" class="edge">
<title>Node19&#45;&gt;Node14</title>
<path fill="none" stroke="#191970" d="M1099.9628,-367.3264C1008.3534,-358.2634 847.692,-340.4265 792,-322 733.2703,-302.5684 721.3006,-289.569 670,-255 592.9797,-203.0996 589.8474,-166.8951 508,-123 464.3813,-99.6071 408.5073,-85.0484 373.991,-77.607"/>
<polygon fill="#191970" stroke="#191970" points="374.5059,-74.1392 364.002,-75.5242 373.077,-80.9918 374.5059,-74.1392"/>
</g>
<!-- Node20 -->
<g id="node21" class="node">
<title>Node20</title>
<g id="a_node21"><a xlink:href="optional_8h.html" target="_top" xlink:title="Runtime Optional container types. ">
<polygon fill="#ffffff" stroke="#000000" points="1250,-291.5 1250,-321.5 1376,-321.5 1376,-291.5 1250,-291.5"/>
<text text-anchor="start" x="1258" y="-309.5" font-family="Helvetica,sans-Serif" font-size="10.00" fill="#000000">tvm/runtime/container</text>
<text text-anchor="middle" x="1313" y="-298.5" font-family="Helvetica,sans-Serif" font-size="10.00" fill="#000000">/optional.h</text>
</a>
</g>
</g>
<!-- Node19&#45;&gt;Node20 -->
<g id="edge22" class="edge">
<title>Node19&#45;&gt;Node20</title>
<path fill="none" stroke="#191970" d="M1187.0615,-363.9005C1208.7922,-353.9961 1243.2833,-338.2756 1270.6798,-325.7888"/>
<polygon fill="#191970" stroke="#191970" points="1272.394,-328.854 1280.0418,-321.5218 1269.4908,-322.4844 1272.394,-328.854"/>
</g>
<!-- Node19&#45;&gt;Node26 -->
<g id="edge36" class="edge">
<title>Node19&#45;&gt;Node26</title>
<path fill="none" stroke="#191970" d="M1155.5409,-363.9005C1145.5506,-354.7313 1130.1293,-340.5776 1117.1003,-328.6195"/>
<polygon fill="#191970" stroke="#191970" points="1119.101,-325.705 1109.367,-321.5218 1114.3677,-330.8622 1119.101,-325.705"/>
</g>
<!-- Node20&#45;&gt;Node16 -->
<g id="edge23" class="edge">
<title>Node20&#45;&gt;Node16</title>
<path fill="none" stroke="#191970" d="M1369.9237,-291.3967C1398.4509,-282.702 1433.0025,-270.4222 1462,-255 1554.2334,-205.9462 1649.0754,-123.657 1687.8386,-88.3844"/>
<polygon fill="#191970" stroke="#191970" points="1690.6425,-90.5618 1695.6459,-81.2229 1685.9107,-85.4033 1690.6425,-90.5618"/>
</g>
<!-- Node21 -->
<g id="node22" class="node">
<title>Node21</title>
<g id="a_node22"><a xlink:href="runtime_2container_2base_8h.html" target="_top" xlink:title="Base utilities for common POD(plain old data) container types. ">
<polygon fill="#ffffff" stroke="#000000" points="1628.5,-235.5 1628.5,-254.5 1683.5,-254.5 1683.5,-235.5 1628.5,-235.5"/>
<text text-anchor="middle" x="1656" y="-242.5" font-family="Helvetica,sans-Serif" font-size="10.00" fill="#000000">./base.h</text>
</a>
</g>
</g>
<!-- Node20&#45;&gt;Node21 -->
<g id="edge24" class="edge">
<title>Node20&#45;&gt;Node21</title>
<path fill="none" stroke="#191970" d="M1376.4113,-293.5301C1381.006,-292.6534 1385.5719,-291.8012 1390,-291 1489.222,-273.0473 1515.1083,-274.6911 1614,-255 1615.2819,-254.7448 1616.584,-254.4779 1617.8976,-254.2022"/>
<polygon fill="#191970" stroke="#191970" points="1619.0392,-257.5345 1628.0495,-251.9609 1617.5301,-250.6991 1619.0392,-257.5345"/>
</g>
<!-- Node21&#45;&gt;Node7 -->
<g id="edge25" class="edge">
<title>Node21&#45;&gt;Node7</title>
<path fill="none" stroke="#191970" d="M1628.3755,-241.5392C1556.0165,-232.4741 1359.9171,-207.9068 1263.7157,-195.8548"/>
<polygon fill="#191970" stroke="#191970" points="1263.966,-192.3588 1253.6085,-194.5885 1263.0958,-199.3046 1263.966,-192.3588"/>
</g>
<!-- Node21&#45;&gt;Node8 -->
<g id="edge32" class="edge">
<title>Node21&#45;&gt;Node8</title>
<path fill="none" stroke="#191970" d="M1677.5241,-235.3808C1698.1902,-226.1242 1730.2716,-211.7004 1758,-199 1777.1627,-190.2229 1780.5607,-184.1461 1801,-179 1870.036,-161.6185 2343.64,-142.3488 2524.2412,-135.5456"/>
<polygon fill="#191970" stroke="#191970" points="2524.561,-139.0362 2534.4227,-135.1636 2524.2984,-132.0411 2524.561,-139.0362"/>
</g>
<!-- Node21&#45;&gt;Node13 -->
<g id="edge26" class="edge">
<title>Node21&#45;&gt;Node13</title>
<path fill="none" stroke="#191970" d="M1666.9666,-235.2958C1684.6844,-220.2573 1721.3382,-191.7317 1758,-179 1858.4417,-144.1192 2588.2709,-92.2996 2823.2927,-76.3483"/>
<polygon fill="#191970" stroke="#191970" points="2823.702,-79.8287 2833.4426,-75.6609 2823.2289,-72.8447 2823.702,-79.8287"/>
</g>
<!-- Node21&#45;&gt;Node16 -->
<g id="edge35" class="edge">
<title>Node21&#45;&gt;Node16</title>
<path fill="none" stroke="#191970" d="M1664.285,-235.4955C1671.503,-226.6628 1681.6305,-212.8246 1687,-199 1701.053,-162.8182 1704.7853,-117.1404 1705.7311,-91.4407"/>
<polygon fill="#191970" stroke="#191970" points="1709.2375,-91.2314 1705.9966,-81.1445 1702.2399,-91.0509 1709.2375,-91.2314"/>
</g>
<!-- Node21&#45;&gt;Node22 -->
<g id="edge27" class="edge">
<title>Node21&#45;&gt;Node22</title>
<path fill="none" stroke="#191970" d="M1628.137,-242.7354C1529.2644,-234.6993 1193.0872,-207.3757 1041.8236,-195.0814"/>
<polygon fill="#191970" stroke="#191970" points="1041.9455,-191.5799 1031.6948,-194.2582 1041.3783,-198.5569 1041.9455,-191.5799"/>
</g>
<!-- Node21&#45;&gt;Node24 -->
<g id="edge33" class="edge">
<title>Node21&#45;&gt;Node24</title>
<path fill="none" stroke="#191970" d="M1683.8461,-236.6162C1714.7859,-227.301 1765.0601,-212.1647 1800.6104,-201.4614"/>
<polygon fill="#191970" stroke="#191970" points="1801.6523,-204.803 1810.2187,-198.5686 1799.6342,-198.1002 1801.6523,-204.803"/>
</g>
<!-- Node25 -->
<g id="node26" class="node">
<title>Node25</title>
<polygon fill="#ffffff" stroke="#bfbfbf" points="1594.5,-179.5 1594.5,-198.5 1677.5,-198.5 1677.5,-179.5 1594.5,-179.5"/>
<text text-anchor="middle" x="1636" y="-186.5" font-family="Helvetica,sans-Serif" font-size="10.00" fill="#000000">initializer_list</text>
</g>
<!-- Node21&#45;&gt;Node25 -->
<g id="edge34" class="edge">
<title>Node21&#45;&gt;Node25</title>
<path fill="none" stroke="#191970" d="M1652.5163,-235.2455C1649.8492,-227.7776 1646.0867,-217.2427 1642.8263,-208.1137"/>
<polygon fill="#191970" stroke="#191970" points="1646.1033,-206.8829 1639.4438,-198.6427 1639.5111,-209.2373 1646.1033,-206.8829"/>
</g>
<!-- Node22&#45;&gt;Node8 -->
<g id="edge28" class="edge">
<title>Node22&#45;&gt;Node8</title>
<path fill="none" stroke="#191970" d="M1031.6293,-182.8385C1048.6501,-181.3905 1067.0057,-179.9844 1084,-179 1638.5195,-146.8805 2308.9742,-136.4227 2524.0428,-133.7683"/>
<polygon fill="#191970" stroke="#191970" points="2524.284,-137.2657 2534.2406,-133.6441 2524.1987,-130.2662 2524.284,-137.2657"/>
</g>
<!-- Node22&#45;&gt;Node15 -->
<g id="edge30" class="edge">
<title>Node22&#45;&gt;Node15</title>
<path fill="none" stroke="#191970" d="M956.74,-179.4124C942.1062,-165.9796 914.1134,-141.1682 888,-123 867.9915,-109.0792 843.9718,-95.4775 825.781,-85.7514"/>
<polygon fill="#191970" stroke="#191970" points="827.3292,-82.611 816.8519,-81.0374 824.0611,-88.8013 827.3292,-82.611"/>
</g>
<!-- Node22&#45;&gt;Node16 -->
<g id="edge31" class="edge">
<title>Node22&#45;&gt;Node16</title>
<path fill="none" stroke="#191970" d="M975.0053,-179.2192C988.0586,-164.0756 1015.5469,-135.4087 1046,-123 1104.4328,-99.1906 1548.2712,-78.3334 1673.3077,-72.8834"/>
<polygon fill="#191970" stroke="#191970" points="1673.5713,-76.3754 1683.4107,-72.4465 1673.2687,-69.3819 1673.5713,-76.3754"/>
</g>
<!-- Node23 -->
<g id="node24" class="node">
<title>Node23</title>
<polygon fill="#ffffff" stroke="#bfbfbf" points="942.5,-123.5 942.5,-142.5 991.5,-142.5 991.5,-123.5 942.5,-123.5"/>
<text text-anchor="middle" x="967" y="-130.5" font-family="Helvetica,sans-Serif" font-size="10.00" fill="#000000">cstdlib</text>
</g>
<!-- Node22&#45;&gt;Node23 -->
<g id="edge29" class="edge">
<title>Node22&#45;&gt;Node23</title>
<path fill="none" stroke="#191970" d="M967,-179.2455C967,-171.9382 967,-161.6944 967,-152.7046"/>
<polygon fill="#191970" stroke="#191970" points="970.5001,-152.6426 967,-142.6427 963.5001,-152.6427 970.5001,-152.6426"/>
</g>
<!-- Node26&#45;&gt;Node7 -->
<g id="edge37" class="edge">
<title>Node26&#45;&gt;Node7</title>
<path fill="none" stroke="#191970" d="M1112.7157,-291.314C1125.0502,-281.466 1141.0074,-268.0763 1154,-255 1169.178,-239.7243 1184.7294,-220.6868 1195.4055,-206.9891"/>
<polygon fill="#191970" stroke="#191970" points="1198.3418,-208.9124 1201.6644,-198.852 1192.7932,-204.6446 1198.3418,-208.9124"/>
</g>
<!-- Node26&#45;&gt;Node8 -->
<g id="edge41" class="edge">
<title>Node26&#45;&gt;Node8</title>
<path fill="none" stroke="#191970" d="M1156.0132,-299.013C1268.3447,-285.5998 1492.2434,-258.5359 1500,-255 1546.1114,-233.98 1538.082,-198.152 1585,-179 1671.2565,-143.7899 2309.6594,-135.3383 2524.0309,-133.483"/>
<polygon fill="#191970" stroke="#191970" points="2524.2477,-136.9814 2534.2178,-133.3971 2524.1886,-129.9817 2524.2477,-136.9814"/>
</g>
<!-- Node26&#45;&gt;Node13 -->
<g id="edge39" class="edge">
<title>Node26&#45;&gt;Node13</title>
<path fill="none" stroke="#191970" d="M1156.0858,-299.1551C1251.5244,-287.7828 1424.3645,-266.0727 1451,-255 1502.874,-233.4353 1499.8975,-200.0066 1552,-179 1742.6041,-102.1524 1806.3148,-141.4232 2011,-123 2168.1178,-108.8582 2641.1058,-84.3411 2823.3283,-75.1337"/>
<polygon fill="#191970" stroke="#191970" points="2823.5366,-78.6278 2833.3475,-74.6281 2823.1837,-71.6367 2823.5366,-78.6278"/>
</g>
<!-- Node26&#45;&gt;Node14 -->
<g id="edge47" class="edge">
<title>Node26&#45;&gt;Node14</title>
<path fill="none" stroke="#191970" d="M1043.5509,-291.4594C1013.3262,-281.8717 974.0605,-268.7074 940,-255 812.3681,-203.6356 791.4129,-163.729 660,-123 558.413,-91.515 432.2789,-78.3885 374.1214,-73.7193"/>
<polygon fill="#191970" stroke="#191970" points="374.3143,-70.2239 364.0744,-72.9434 373.7752,-77.2031 374.3143,-70.2239"/>
</g>
<!-- Node26&#45;&gt;Node15 -->
<g id="edge49" class="edge">
<title>Node26&#45;&gt;Node15</title>
<path fill="none" stroke="#191970" d="M1053.4317,-291.3514C1010.6801,-273.667 942.0999,-241.3582 893,-199 882.9221,-190.3058 834.108,-122.3437 810.6446,-89.3519"/>
<polygon fill="#191970" stroke="#191970" points="813.3951,-87.1801 804.7522,-81.0522 807.6873,-91.2324 813.3951,-87.1801"/>
</g>
<!-- Node26&#45;&gt;Node16 -->
<g id="edge51" class="edge">
<title>Node26&#45;&gt;Node16</title>
<path fill="none" stroke="#191970" d="M1156.3745,-299.7383C1247.2152,-289.5983 1405.9829,-270.0391 1428,-255 1460.2291,-232.9854 1443.1333,-205.2692 1472,-179 1532.1954,-124.2211 1625.1137,-92.9884 1673.7724,-79.5153"/>
<polygon fill="#191970" stroke="#191970" points="1674.7101,-82.8875 1683.4561,-76.9077 1672.89,-76.1283 1674.7101,-82.8875"/>
</g>
<!-- Node26&#45;&gt;Node18 -->
<g id="edge52" class="edge">
<title>Node26&#45;&gt;Node18</title>
<path fill="none" stroke="#191970" d="M1156.3066,-299.0716C1182.4908,-296.2071 1213.1787,-293.1176 1241,-291 1576.4106,-265.471 1661.1546,-273.9702 1997,-255 2038.0098,-252.6836 2085.1694,-249.5264 2116.1654,-247.3837"/>
<polygon fill="#191970" stroke="#191970" points="2116.6852,-250.8561 2126.4184,-246.6711 2116.1998,-243.873 2116.6852,-250.8561"/>
</g>
<!-- Node26&#45;&gt;Node21 -->
<g id="edge38" class="edge">
<title>Node26&#45;&gt;Node21</title>
<path fill="none" stroke="#191970" d="M1156.353,-293.1716C1160.9614,-292.379 1165.5463,-291.6437 1170,-291 1349.2894,-265.0863 1395.872,-274.2377 1576,-255 1589.7275,-253.5339 1604.7526,-251.7131 1618.0376,-250.0285"/>
<polygon fill="#191970" stroke="#191970" points="1618.7878,-253.461 1628.2608,-248.7161 1617.8965,-246.518 1618.7878,-253.461"/>
</g>
<!-- Node26&#45;&gt;Node22 -->
<g id="edge40" class="edge">
<title>Node26&#45;&gt;Node22</title>
<path fill="none" stroke="#191970" d="M1084.0577,-291.2564C1074.5024,-275.8329 1058.243,-251.9135 1040,-235 1026.6634,-222.6353 1009.5582,-211.6527 995.2583,-203.5221"/>
<polygon fill="#191970" stroke="#191970" points="996.7818,-200.3654 986.3342,-198.6052 993.4038,-206.4964 996.7818,-200.3654"/>
</g>
<!-- Node26&#45;&gt;Node24 -->
<g id="edge42" class="edge">
<title>Node26&#45;&gt;Node24</title>
<path fill="none" stroke="#191970" d="M1156.1873,-297.2912C1173.0018,-295.0302 1191.169,-292.7573 1208,-291 1422.9799,-268.5539 1483.8258,-309.4644 1693,-255 1713.3971,-249.689 1716.7753,-243.6405 1736,-235 1760.7999,-223.8537 1789.0518,-211.6161 1810.1491,-202.567"/>
<polygon fill="#191970" stroke="#191970" points="1811.7766,-205.6776 1819.5922,-198.5245 1809.0217,-199.2424 1811.7766,-205.6776"/>
</g>
<!-- Node26&#45;&gt;Node25 -->
<g id="edge45" class="edge">
<title>Node26&#45;&gt;Node25</title>
<path fill="none" stroke="#191970" d="M1156.0004,-299.4011C1277.6856,-285.6639 1533.5545,-256.6427 1538,-255 1568.7014,-243.6552 1599.2031,-220.8122 1617.8269,-205.2118"/>
<polygon fill="#191970" stroke="#191970" points="1620.1972,-207.7898 1625.506,-198.621 1615.6382,-202.478 1620.1972,-207.7898"/>
</g>
<!-- Node27 -->
<g id="node28" class="node">
<title>Node27</title>
<polygon fill="#ffffff" stroke="#bfbfbf" points="1206.5,-235.5 1206.5,-254.5 1259.5,-254.5 1259.5,-235.5 1206.5,-235.5"/>
<text text-anchor="middle" x="1233" y="-242.5" font-family="Helvetica,sans-Serif" font-size="10.00" fill="#000000">cstddef</text>
</g>
<!-- Node26&#45;&gt;Node27 -->
<g id="edge43" class="edge">
<title>Node26&#45;&gt;Node27</title>
<path fill="none" stroke="#191970" d="M1127.2479,-291.4554C1150.0949,-281.419 1179.8879,-268.3314 1202.0267,-258.6061"/>
<polygon fill="#191970" stroke="#191970" points="1203.5571,-261.7567 1211.305,-254.5303 1200.7417,-255.3478 1203.5571,-261.7567"/>
</g>
<!-- Node28 -->
<g id="node29" class="node">
<title>Node28</title>
<polygon fill="#ffffff" stroke="#bfbfbf" points="1278,-235.5 1278,-254.5 1328,-254.5 1328,-235.5 1278,-235.5"/>
<text text-anchor="middle" x="1303" y="-242.5" font-family="Helvetica,sans-Serif" font-size="10.00" fill="#000000">cstring</text>
</g>
<!-- Node26&#45;&gt;Node28 -->
<g id="edge44" class="edge">
<title>Node26&#45;&gt;Node28</title>
<path fill="none" stroke="#191970" d="M1144.3718,-291.4554C1182.7766,-280.2083 1234.2656,-265.1294 1268.0184,-255.2446"/>
<polygon fill="#191970" stroke="#191970" points="1269.2767,-258.5232 1277.8899,-252.3537 1267.3092,-251.8054 1269.2767,-258.5232"/>
</g>
<!-- Node29 -->
<g id="node30" class="node">
<title>Node29</title>
<polygon fill="#ffffff" stroke="#bfbfbf" points="1930,-235.5 1930,-254.5 1988,-254.5 1988,-235.5 1930,-235.5"/>
<text text-anchor="middle" x="1959" y="-242.5" font-family="Helvetica,sans-Serif" font-size="10.00" fill="#000000">memory</text>
</g>
<!-- Node26&#45;&gt;Node29 -->
<g id="edge46" class="edge">
<title>Node26&#45;&gt;Node29</title>
<path fill="none" stroke="#191970" d="M1156.3249,-299.3002C1182.512,-296.4707 1213.197,-293.3456 1241,-291 1499.6773,-269.177 1811.5636,-252.4699 1919.7779,-246.9551"/>
<polygon fill="#191970" stroke="#191970" points="1920.0915,-250.4438 1929.9014,-246.4417 1919.7369,-243.4528 1920.0915,-250.4438"/>
</g>
<!-- Node30 -->
<g id="node31" class="node">
<title>Node30</title>
<polygon fill="#ffffff" stroke="#bfbfbf" points="1346.5,-235.5 1346.5,-254.5 1419.5,-254.5 1419.5,-235.5 1346.5,-235.5"/>
<text text-anchor="middle" x="1383" y="-242.5" font-family="Helvetica,sans-Serif" font-size="10.00" fill="#000000">string_view</text>
</g>
<!-- Node26&#45;&gt;Node30 -->
<g id="edge48" class="edge">
<title>Node26&#45;&gt;Node30</title>
<path fill="none" stroke="#191970" d="M1156.2169,-293.2665C1203.1797,-283.4104 1269.0873,-269.5256 1336.4057,-255.1182"/>
<polygon fill="#191970" stroke="#191970" points="1337.3008,-258.5059 1346.346,-252.9892 1335.8348,-251.6612 1337.3008,-258.5059"/>
</g>
<!-- Node26&#45;&gt;Node31 -->
<g id="edge50" class="edge">
<title>Node26&#45;&gt;Node31</title>
<path fill="none" stroke="#191970" d="M1156.2969,-298.9407C1182.4797,-296.0561 1213.1691,-292.987 1241,-291 1658.9086,-261.1636 1765.116,-285.178 2183,-255 2195.0209,-254.1319 2207.8805,-252.9389 2220.1083,-251.6789"/>
<polygon fill="#191970" stroke="#191970" points="2220.623,-255.1441 2230.1988,-250.6104 2219.8858,-248.183 2220.623,-255.1441"/>
</g>
<!-- Node32&#45;&gt;Node15 -->
<g id="edge58" class="edge">
<title>Node32&#45;&gt;Node15</title>
<path fill="none" stroke="#191970" d="M1249.8673,-359.4333C1246.8757,-358.9165 1243.9086,-358.4347 1241,-358 1194.2389,-351.0106 850.2817,-355.5825 817,-322 754.6127,-259.0488 779.2978,-138.1983 792.1317,-91.0329"/>
<polygon fill="#191970" stroke="#191970" points="795.5654,-91.7542 794.9388,-81.1779 788.8332,-89.8365 795.5654,-91.7542"/>
</g>
<!-- Node32&#45;&gt;Node16 -->
<g id="edge59" class="edge">
<title>Node32&#45;&gt;Node16</title>
<path fill="none" stroke="#191970" d="M1249.82,-359.7125C1246.841,-359.121 1243.8895,-358.5471 1241,-358 1140.5726,-338.9856 977.7143,-383.5935 1021,-291 1053.8709,-220.685 1084.9217,-212.3726 1155,-179 1337.2475,-92.2104 1585.2531,-75.4897 1673.3301,-72.2685"/>
<polygon fill="#191970" stroke="#191970" points="1673.6213,-75.7609 1683.4999,-71.9318 1673.3896,-68.7647 1673.6213,-75.7609"/>
</g>
<!-- Node32&#45;&gt;Node18 -->
<g id="edge60" class="edge">
<title>Node32&#45;&gt;Node18</title>
<path fill="none" stroke="#191970" d="M1376.3312,-368.261C1414.2329,-365.1703 1463.365,-361.242 1507,-358 1623.3981,-349.3519 1921.2226,-361.6513 2031,-322 2053.1586,-313.9964 2054.3509,-303.999 2074,-291 2090.5109,-280.0771 2109.5714,-268.5431 2124.4738,-259.7569"/>
<polygon fill="#191970" stroke="#191970" points="2126.2958,-262.7459 2133.1553,-254.6714 2122.7576,-256.7059 2126.2958,-262.7459"/>
</g>
<!-- Node32&#45;&gt;Node20 -->
<g id="edge62" class="edge">
<title>Node32&#45;&gt;Node20</title>
<path fill="none" stroke="#191970" d="M1313,-358.2967C1313,-350.5013 1313,-340.7991 1313,-331.9064"/>
<polygon fill="#191970" stroke="#191970" points="1316.5001,-331.6431 1313,-321.6432 1309.5001,-331.6432 1316.5001,-331.6431"/>
</g>
<!-- Node32&#45;&gt;Node21 -->
<g id="edge61" class="edge">
<title>Node32&#45;&gt;Node21</title>
<path fill="none" stroke="#191970" d="M1284.2286,-358.4832C1256.0079,-341.8618 1220.0385,-314.3348 1241,-291 1291.0349,-235.3001 1501.6276,-263.6438 1576,-255 1589.7133,-253.4062 1604.7351,-251.5561 1618.0214,-249.8838"/>
<polygon fill="#191970" stroke="#191970" points="1618.7655,-253.3176 1628.2466,-248.589 1617.8861,-246.373 1618.7655,-253.3176"/>
</g>
<!-- Node32&#45;&gt;Node24 -->
<g id="edge56" class="edge">
<title>Node32&#45;&gt;Node24</title>
<path fill="none" stroke="#191970" d="M1344.9012,-358.3637C1384.9492,-339.9327 1456.1513,-309.0367 1520,-291 1610.2855,-265.4951 1639.8078,-287.0017 1728,-255 1762.5769,-242.4533 1798.7058,-219.6197 1820.7877,-204.3779"/>
<polygon fill="#191970" stroke="#191970" points="1822.9031,-207.1693 1829.0742,-198.5571 1818.8794,-201.4412 1822.9031,-207.1693"/>
</g>
<!-- Node32&#45;&gt;Node29 -->
<g id="edge57" class="edge">
<title>Node32&#45;&gt;Node29</title>
<path fill="none" stroke="#191970" d="M1369.1226,-358.4404C1436.7847,-340.6474 1554.121,-310.9478 1656,-291 1749.8878,-272.6169 1861.3665,-257.3642 1919.4071,-249.9134"/>
<polygon fill="#191970" stroke="#191970" points="1920.1289,-253.3498 1929.6064,-248.614 1919.2442,-246.406 1920.1289,-253.3498"/>
</g>
<!-- Node33&#45;&gt;Node9 -->
<g id="edge64" class="edge">
<title>Node33&#45;&gt;Node9</title>
<path fill="none" stroke="#191970" d="M2885.0396,-296.8386C2923.4424,-273.2996 3022.7654,-209.9828 3094,-143 3109.6815,-128.2545 3125.082,-109.3998 3136.2147,-94.7548"/>
<polygon fill="#191970" stroke="#191970" points="3139.065,-96.7874 3142.2461,-86.6814 3133.4571,-92.5979 3139.065,-96.7874"/>
</g>
<!-- Node33&#45;&gt;Node13 -->
<g id="edge65" class="edge">
<title>Node33&#45;&gt;Node13</title>
<path fill="none" stroke="#191970" d="M2870.0919,-296.9967C2874.1198,-261.9391 2888.1976,-139.4096 2893.7366,-91.2"/>
<polygon fill="#191970" stroke="#191970" points="2897.2302,-91.4558 2894.8945,-81.1216 2890.2759,-90.6567 2897.2302,-91.4558"/>
</g>
<!-- Node33&#45;&gt;Node14 -->
<g id="edge66" class="edge">
<title>Node33&#45;&gt;Node14</title>
<path fill="none" stroke="#191970" d="M2799.9003,-297.5961C2782.9304,-295.4238 2764.8102,-293.1165 2748,-291 2618.7015,-274.7207 2586.0168,-273.3786 2457,-255 2401.7346,-247.1274 2388.2626,-242.8926 2333,-235 2133.4819,-206.5048 2083.6006,-198.4643 1883,-179 1278.2814,-120.324 537.0559,-81.3122 374.491,-73.1116"/>
<polygon fill="#191970" stroke="#191970" points="374.3734,-69.6014 364.2104,-72.5953 374.0222,-76.5926 374.3734,-69.6014"/>
</g>
<!-- Node33&#45;&gt;Node15 -->
<g id="edge67" class="edge">
<title>Node33&#45;&gt;Node15</title>
<path fill="none" stroke="#191970" d="M2818.0338,-296.9639C2692.1742,-273.7125 2356.3633,-213.4873 2074,-179 1593.552,-120.319 1007.3902,-83.6963 842.8327,-74.0559"/>
<polygon fill="#191970" stroke="#191970" points="842.7957,-70.5479 832.6089,-73.46 842.3883,-77.536 842.7957,-70.5479"/>
</g>
<!-- Node34&#45;&gt;Node6 -->
<g id="edge70" class="edge">
<title>Node34&#45;&gt;Node6</title>
<path fill="none" stroke="#191970" d="M1842.2425,-426.4781C1839.1261,-425.9249 1836.0305,-425.4257 1833,-425 1506.0451,-379.067 1413.8151,-458.2804 1091,-389 1022.6815,-374.3379 947.6091,-340.052 908.3666,-320.6094"/>
<polygon fill="#191970" stroke="#191970" points="909.6956,-317.3605 899.1876,-316.0071 906.5581,-323.618 909.6956,-317.3605"/>
</g>
<!-- Node34&#45;&gt;Node14 -->
<g id="edge90" class="edge">
<title>Node34&#45;&gt;Node14</title>
<path fill="none" stroke="#191970" d="M1842.2497,-426.4261C1839.1314,-425.8863 1836.0334,-425.4043 1833,-425 1370.5915,-363.3761 1242.5589,-474.6907 784,-389 742.8263,-381.3059 735.0855,-370.1499 695,-358 633.9276,-339.489 610.1152,-355.8236 556,-322 530.2129,-305.8823 399.5928,-143.679 356.1059,-89.2213"/>
<polygon fill="#191970" stroke="#191970" points="358.6579,-86.8078 349.6864,-81.1719 353.1851,-91.1724 358.6579,-86.8078"/>
</g>
<!-- Node34&#45;&gt;Node33 -->
<g id="edge71" class="edge">
<title>Node34&#45;&gt;Node33</title>
<path fill="none" stroke="#191970" d="M1955.5153,-436.6029C2115.4269,-425.5232 2560.4987,-394.2989 2575,-389 2597.1287,-380.914 2596.4259,-367.4668 2618,-358 2626.8085,-354.1348 2738.3287,-331.9765 2809.7233,-318.0133"/>
<polygon fill="#191970" stroke="#191970" points="2810.8054,-321.3681 2819.9488,-316.0157 2809.4632,-314.498 2810.8054,-321.3681"/>
</g>
<!-- Node34&#45;&gt;Node35 -->
<g id="edge72" class="edge">
<title>Node34&#45;&gt;Node35</title>
<path fill="none" stroke="#191970" d="M1955.7377,-433.8308C2059.8808,-421.5894 2281.3778,-395.5538 2396.3506,-382.0395"/>
<polygon fill="#191970" stroke="#191970" points="2396.9404,-385.4944 2406.4634,-380.8508 2396.1232,-378.5422 2396.9404,-385.4944"/>
</g>
<!-- Node40 -->
<g id="node39" class="node">
<title>Node40</title>
<polygon fill="#ffffff" stroke="#bfbfbf" points="1774.5,-297 1774.5,-316 1839.5,-316 1839.5,-297 1774.5,-297"/>
<text text-anchor="middle" x="1807" y="-304" font-family="Helvetica,sans-Serif" font-size="10.00" fill="#000000">functional</text>
</g>
<!-- Node34&#45;&gt;Node40 -->
<g id="edge89" class="edge">
<title>Node34&#45;&gt;Node40</title>
<path fill="none" stroke="#191970" d="M1888.6253,-425.389C1871.5584,-400.5307 1837.6335,-351.1184 1819.3539,-324.4937"/>
<polygon fill="#191970" stroke="#191970" points="1822.1394,-322.3672 1813.5939,-316.1042 1816.3686,-326.3292 1822.1394,-322.3672"/>
</g>
<!-- Node35&#45;&gt;Node8 -->
<g id="edge81" class="edge">
<title>Node35&#45;&gt;Node8</title>
<path fill="none" stroke="#191970" d="M2480.9323,-363.9632C2492.2713,-354.376 2509.1569,-338.6643 2520,-322 2556.5908,-265.7654 2579.6861,-188.6354 2589.1204,-152.7961"/>
<polygon fill="#191970" stroke="#191970" points="2592.6181,-153.245 2591.7032,-142.6897 2585.8361,-151.5117 2592.6181,-153.245"/>
</g>
<!-- Node35&#45;&gt;Node9 -->
<g id="edge73" class="edge">
<title>Node35&#45;&gt;Node9</title>
<path fill="none" stroke="#191970" d="M2509.9566,-363.9932C2518.8626,-361.9738 2528.2401,-359.8839 2537,-358 2615.9087,-341.0299 2639.4479,-350.3979 2715,-322 2879.7977,-260.0571 3055.7927,-140.9828 3123.8346,-92.6578"/>
<polygon fill="#191970" stroke="#191970" points="3126.231,-95.2474 3132.3358,-86.5881 3122.1635,-89.5504 3126.231,-95.2474"/>
</g>
<!-- Node35&#45;&gt;Node16 -->
<g id="edge87" class="edge">
<title>Node35&#45;&gt;Node16</title>
<path fill="none" stroke="#191970" d="M2467.3824,-363.9828C2464.1261,-347.3735 2455.3703,-312.7909 2436,-291 2401.3819,-252.0559 2380.0762,-257.3359 2333,-235 2214.1414,-178.606 2185.916,-157.6408 2059,-123 1943.7798,-91.5515 1801.8379,-78.2591 1738.8152,-73.6146"/>
<polygon fill="#191970" stroke="#191970" points="1738.9137,-70.1129 1728.6902,-72.8935 1738.4163,-77.0952 1738.9137,-70.1129"/>
</g>
<!-- Node35&#45;&gt;Node17 -->
<g id="edge85" class="edge">
<title>Node35&#45;&gt;Node17</title>
<path fill="none" stroke="#191970" d="M2473.8371,-363.7793C2483.8664,-342.698 2506,-290.9665 2506,-245 2506,-245 2506,-245 2506,-189 2506,-151.9993 2525.3719,-112.3689 2538.4081,-89.8889"/>
<polygon fill="#191970" stroke="#191970" points="2541.5396,-91.4729 2543.6959,-81.0998 2535.5415,-87.8642 2541.5396,-91.4729"/>
</g>
<!-- Node35&#45;&gt;Node18 -->
<g id="edge88" class="edge">
<title>Node35&#45;&gt;Node18</title>
<path fill="none" stroke="#191970" d="M2464.6933,-363.9905C2456.2029,-346.4226 2435.5308,-309.0328 2406,-291 2387.2447,-279.5472 2248.9902,-258.9141 2183.8161,-249.6843"/>
<polygon fill="#191970" stroke="#191970" points="2184.0343,-246.1806 2173.644,-248.2524 2183.0585,-253.1123 2184.0343,-246.1806"/>
</g>
<!-- Node35&#45;&gt;Node20 -->
<g id="edge74" class="edge">
<title>Node35&#45;&gt;Node20</title>
<path fill="none" stroke="#191970" d="M2406.2392,-368.0981C2368.0305,-364.9123 2318.2213,-360.9419 2274,-358 1943.0511,-335.9828 1547.496,-317.1438 1386.5424,-309.7935"/>
<polygon fill="#191970" stroke="#191970" points="1386.4321,-306.2849 1376.2831,-309.326 1386.1134,-313.2777 1386.4321,-306.2849"/>
</g>
<!-- Node35&#45;&gt;Node26 -->
<g id="edge79" class="edge">
<title>Node35&#45;&gt;Node26</title>
<path fill="none" stroke="#191970" d="M2406.2576,-367.7999C2368.0556,-364.5067 2318.2469,-360.5283 2274,-358 1815.3583,-331.7931 1699.2778,-353.9443 1241,-322 1216.645,-320.3023 1190.1037,-317.7459 1166.3089,-315.1961"/>
<polygon fill="#191970" stroke="#191970" points="1166.6136,-311.7087 1156.2936,-314.1062 1165.8563,-318.6676 1166.6136,-311.7087"/>
</g>
<!-- Node35&#45;&gt;Node33 -->
<g id="edge80" class="edge">
<title>Node35&#45;&gt;Node33</title>
<path fill="none" stroke="#191970" d="M2515.1275,-363.9635C2525.5897,-361.9037 2536.6634,-359.8045 2547,-358 2652.8201,-339.5265 2680.0751,-339.8625 2786,-322 2793.6226,-320.7146 2801.6268,-319.301 2809.5319,-317.8666"/>
<polygon fill="#191970" stroke="#191970" points="2810.2511,-321.2932 2819.4558,-316.0467 2808.9884,-314.408 2810.2511,-321.2932"/>
</g>
<!-- Node36 -->
<g id="node37" class="node">
<title>Node36</title>
<g id="a_node37"><a xlink:href="shape__tuple_8h.html" target="_top" xlink:title="Runtime ShapeTuple container types. ">
<polygon fill="#ffffff" stroke="#000000" points="1896,-291.5 1896,-321.5 2022,-321.5 2022,-291.5 1896,-291.5"/>
<text text-anchor="start" x="1904" y="-309.5" font-family="Helvetica,sans-Serif" font-size="10.00" fill="#000000">tvm/runtime/container</text>
<text text-anchor="middle" x="1959" y="-298.5" font-family="Helvetica,sans-Serif" font-size="10.00" fill="#000000">/shape_tuple.h</text>
</a>
</g>
</g>
<!-- Node35&#45;&gt;Node36 -->
<g id="edge75" class="edge">
<title>Node35&#45;&gt;Node36</title>
<path fill="none" stroke="#191970" d="M2406.464,-365.2845C2311.8313,-352.8523 2132.6514,-329.313 2032.1204,-316.106"/>
<polygon fill="#191970" stroke="#191970" points="2032.4182,-312.6152 2022.0475,-314.7827 2031.5064,-319.5555 2032.4182,-312.6152"/>
</g>
<!-- Node37 -->
<g id="node38" class="node">
<title>Node37</title>
<g id="a_node38"><a xlink:href="serializer_8h.html" target="_top" xlink:title="Serializer extension to support TVM data types Include this file to enable serialization of DLDataTyp...">
<polygon fill="#ffffff" stroke="#ff0000" points="2572,-297 2572,-316 2706,-316 2706,-297 2572,-297"/>
<text text-anchor="middle" x="2639" y="-304" font-family="Helvetica,sans-Serif" font-size="10.00" fill="#000000">tvm/runtime/serializer.h</text>
</a>
</g>
</g>
<!-- Node35&#45;&gt;Node37 -->
<g id="edge82" class="edge">
<title>Node35&#45;&gt;Node37</title>
<path fill="none" stroke="#191970" d="M2488.4563,-363.9005C2515.741,-352.2584 2565.4771,-332.5805 2600.3732,-319.5641"/>
<polygon fill="#191970" stroke="#191970" points="2601.6257,-322.8326 2609.7912,-316.0817 2599.198,-316.2671 2601.6257,-322.8326"/>
</g>
<!-- Node35&#45;&gt;Node40 -->
<g id="edge86" class="edge">
<title>Node35&#45;&gt;Node40</title>
<path fill="none" stroke="#191970" d="M2406.4196,-368.3304C2266.6535,-356.7317 1937.4116,-329.0948 1887,-322 1874.742,-320.2749 1861.5175,-317.9182 1849.4192,-315.5633"/>
<polygon fill="#191970" stroke="#191970" points="1850.0588,-312.122 1839.5675,-313.5995 1848.6903,-318.987 1850.0588,-312.122"/>
</g>
<!-- Node36&#45;&gt;Node16 -->
<g id="edge76" class="edge">
<title>Node36&#45;&gt;Node16</title>
<path fill="none" stroke="#191970" d="M2020.3383,-291.4253C2038.8548,-283.697 2057.1353,-272.1497 2068,-255 2091.6274,-217.7046 2128.4997,-204.7285 2036,-123 1992.3054,-84.3935 1813.6057,-74.6615 1738.9821,-72.263"/>
<polygon fill="#191970" stroke="#191970" points="1738.8551,-68.7578 1728.7557,-71.9597 1738.6476,-75.7547 1738.8551,-68.7578"/>
</g>
<!-- Node36&#45;&gt;Node18 -->
<g id="edge77" class="edge">
<title>Node36&#45;&gt;Node18</title>
<path fill="none" stroke="#191970" d="M2005.7239,-291.4554C2040.0552,-280.4011 2085.8823,-265.6452 2116.5906,-255.7575"/>
<polygon fill="#191970" stroke="#191970" points="2117.9406,-258.9998 2126.3866,-252.6033 2115.7951,-252.3367 2117.9406,-258.9998"/>
</g>
<!-- Node36&#45;&gt;Node21 -->
<g id="edge78" class="edge">
<title>Node36&#45;&gt;Node21</title>
<path fill="none" stroke="#191970" d="M1895.8501,-293.6824C1834.6781,-281.2663 1743.9664,-262.8546 1693.4416,-252.5995"/>
<polygon fill="#191970" stroke="#191970" points="1694.0906,-249.16 1683.5942,-250.6008 1692.6981,-256.0201 1694.0906,-249.16"/>
</g>
<!-- Node37&#45;&gt;Node9 -->
<g id="edge83" class="edge">
<title>Node37&#45;&gt;Node9</title>
<path fill="none" stroke="#191970" d="M2652.4212,-296.8387C2694.688,-266.8291 2829.6261,-174.1769 2954,-123 2993.8379,-106.6077 3040.3525,-94.2237 3078.3895,-85.7126"/>
<polygon fill="#191970" stroke="#191970" points="3079.3545,-89.0843 3088.3728,-83.5236 3077.8552,-82.2467 3079.3545,-89.0843"/>
</g>
<!-- Node37&#45;&gt;Node35 -->
<g id="edge84" class="edge">
<title>Node37&#45;&gt;Node35</title>
<path fill="none" stroke="#191970" d="M2619.5855,-316.0817C2592.3237,-327.7156 2542.5914,-347.3928 2507.6802,-360.416"/>
<polygon fill="#191970" stroke="#191970" points="2506.4227,-357.1493 2498.2574,-363.9005 2508.8507,-363.7147 2506.4227,-357.1493"/>
</g>
<!-- Node41&#45;&gt;Node8 -->
<g id="edge118" class="edge">
<title>Node41&#45;&gt;Node8</title>
<path fill="none" stroke="#191970" d="M2260.114,-437.1246C2365.9419,-430.4527 2585.8307,-414.0208 2658,-389 2682.7042,-380.4351 2683.4587,-367.0209 2708,-358 2758.4124,-339.4694 2911.9635,-362.7092 2947,-322 3034.5299,-220.2983 2789.3821,-164.5136 2663.4698,-143.2219"/>
<polygon fill="#191970" stroke="#191970" points="2663.9499,-139.7537 2653.5115,-141.5677 2662.8028,-146.6591 2663.9499,-139.7537"/>
</g>
<!-- Node41&#45;&gt;Node9 -->
<g id="edge97" class="edge">
<title>Node41&#45;&gt;Node9</title>
<path fill="none" stroke="#191970" d="M2260.2012,-438.627C2379.7929,-434.1703 2649.1401,-420.8333 2735,-389 2757.4297,-380.684 2756.8836,-367.1166 2779,-358 2867.3586,-321.5776 2910.1709,-372.9949 2991,-322 3077.4665,-267.4485 3126.9084,-148.0815 3145.0128,-96.2926"/>
<polygon fill="#191970" stroke="#191970" points="3148.4048,-97.1887 3148.3103,-86.5943 3141.7774,-94.9353 3148.4048,-97.1887"/>
</g>
<!-- Node41&#45;&gt;Node13 -->
<g id="edge106" class="edge">
<title>Node41&#45;&gt;Node13</title>
<path fill="none" stroke="#191970" d="M2260.2326,-437.7789C2373.1221,-431.9581 2617.6146,-416.5357 2697,-389 2721.3471,-380.555 2721.9007,-367.128 2746,-358 2839.8853,-322.4394 2903.9127,-398.4373 2969,-322 3029.0205,-251.513 2946.6812,-133.9159 2911.0312,-89.353"/>
<polygon fill="#191970" stroke="#191970" points="2913.6149,-86.9832 2904.5798,-81.4499 2908.1922,-91.4098 2913.6149,-86.9832"/>
</g>
<!-- Node41&#45;&gt;Node14 -->
<g id="edge122" class="edge">
<title>Node41&#45;&gt;Node14</title>
<path fill="none" stroke="#191970" d="M2143.5929,-436.1343C2095.642,-432.6816 2025.9539,-427.9642 1965,-425 1839.6399,-418.9037 956.6955,-423.4226 836,-389 728.6171,-358.3742 443.2953,-147.6837 363.1841,-87.5136"/>
<polygon fill="#191970" stroke="#191970" points="364.9525,-84.464 354.858,-81.2465 360.7427,-90.0567 364.9525,-84.464"/>
</g>
<!-- Node41&#45;&gt;Node15 -->
<g id="edge123" class="edge">
<title>Node41&#45;&gt;Node15</title>
<path fill="none" stroke="#191970" d="M2143.5852,-436.2855C2095.6298,-432.9205 2025.9395,-428.2473 1965,-425 1576.777,-404.3125 1476.4527,-439.7078 1091,-389 955.979,-371.2375 889.6378,-416.9369 792,-322 728.2088,-259.9735 770.1795,-137.1596 789.6344,-90.2834"/>
<polygon fill="#191970" stroke="#191970" points="792.8865,-91.5802 793.6067,-81.0099 786.4519,-88.824 792.8865,-91.5802"/>
</g>
<!-- Node41&#45;&gt;Node16 -->
<g id="edge124" class="edge">
<title>Node41&#45;&gt;Node16</title>
<path fill="none" stroke="#191970" d="M2143.9235,-428.7865C2030.6597,-405.3687 1789.2543,-352.4181 1766,-322 1690.9689,-223.8544 2065.1863,-353.4236 2030,-235 2013.0769,-178.0432 2006.1143,-156.4403 1957,-123 1921.7053,-98.9691 1798.1967,-82.0188 1738.6246,-75.0433"/>
<polygon fill="#191970" stroke="#191970" points="1738.9525,-71.5581 1728.6187,-73.8954 1738.1545,-78.5124 1738.9525,-71.5581"/>
</g>
<!-- Node41&#45;&gt;Node18 -->
<g id="edge125" class="edge">
<title>Node41&#45;&gt;Node18</title>
<path fill="none" stroke="#191970" d="M2235.7333,-425.3642C2250.3002,-416.9147 2265.8477,-404.8543 2274,-389 2280.3004,-376.7472 2279.5663,-370.6033 2274,-358 2254.1654,-313.0898 2206.6903,-278.3301 2176.5737,-259.8248"/>
<polygon fill="#191970" stroke="#191970" points="2178.2152,-256.7285 2167.8343,-254.6103 2174.6285,-262.7398 2178.2152,-256.7285"/>
</g>
<!-- Node41&#45;&gt;Node29 -->
<g id="edge121" class="edge">
<title>Node41&#45;&gt;Node29</title>
<path fill="none" stroke="#191970" d="M2143.6899,-434.5956C2029.3652,-421.6882 1782.4926,-386.8034 1732,-322 1648.2257,-214.4822 1668.1861,-308.041 1916,-255 1917.2647,-254.7293 1918.5496,-254.4508 1919.8464,-254.1668"/>
<polygon fill="#191970" stroke="#191970" points="1920.8942,-257.5189 1929.8869,-251.917 1919.3635,-250.6883 1920.8942,-257.5189"/>
</g>
<!-- Node41&#45;&gt;Node32 -->
<g id="edge98" class="edge">
<title>Node41&#45;&gt;Node32</title>
<path fill="none" stroke="#191970" d="M2143.8711,-436.3063C2024.5095,-427.6699 1743.14,-407.1823 1507,-389 1467.1229,-385.9295 1422.6456,-382.3846 1386.348,-379.4605"/>
<polygon fill="#191970" stroke="#191970" points="1386.5868,-375.9685 1376.3377,-378.6531 1386.024,-382.9458 1386.5868,-375.9685"/>
</g>
<!-- Node41&#45;&gt;Node33 -->
<g id="edge105" class="edge">
<title>Node41&#45;&gt;Node33</title>
<path fill="none" stroke="#191970" d="M2260.3725,-436.2572C2358.7563,-428.6097 2553.2063,-411.2209 2618,-389 2643.4512,-380.2715 2645.1698,-368.364 2670,-358 2713.7187,-339.752 2765.6072,-326.5809 2805.4367,-318.1282"/>
<polygon fill="#191970" stroke="#191970" points="2806.2119,-321.542 2815.2907,-316.0807 2804.7877,-314.6884 2806.2119,-321.542"/>
</g>
<!-- Node41&#45;&gt;Node35 -->
<g id="edge117" class="edge">
<title>Node41&#45;&gt;Node35</title>
<path fill="none" stroke="#191970" d="M2260.2644,-425.8794C2308.4809,-413.7801 2376.1383,-396.8024 2421.2113,-385.4919"/>
<polygon fill="#191970" stroke="#191970" points="2422.1849,-388.8562 2431.0323,-383.0275 2420.4811,-382.0667 2422.1849,-388.8562"/>
</g>
<!-- Node41&#45;&gt;Node40 -->
<g id="edge119" class="edge">
<title>Node41&#45;&gt;Node40</title>
<path fill="none" stroke="#191970" d="M2180.8769,-425.4224C2166.5199,-415.1667 2147.1021,-401.281 2130,-389 2110.8632,-375.2579 2108.7255,-367.114 2087,-358 1999.6776,-321.3679 1969.9213,-340.2414 1877,-322 1868.1258,-320.2579 1858.6503,-318.2561 1849.6296,-316.2824"/>
<polygon fill="#191970" stroke="#191970" points="1850.215,-312.8273 1839.6946,-314.0813 1848.7008,-319.6616 1850.215,-312.8273"/>
</g>
<!-- Node42 -->
<g id="node41" class="node">
<title>Node42</title>
<g id="a_node41"><a xlink:href="map_8h.html" target="_top" xlink:title="Runtime Map container types. ">
<polygon fill="#ffffff" stroke="#000000" points="1516,-358.5 1516,-388.5 1642,-388.5 1642,-358.5 1516,-358.5"/>
<text text-anchor="start" x="1524" y="-376.5" font-family="Helvetica,sans-Serif" font-size="10.00" fill="#000000">tvm/runtime/container</text>
<text text-anchor="middle" x="1579" y="-365.5" font-family="Helvetica,sans-Serif" font-size="10.00" fill="#000000">/map.h</text>
</a>
</g>
</g>
<!-- Node41&#45;&gt;Node42 -->
<g id="edge99" class="edge">
<title>Node41&#45;&gt;Node42</title>
<path fill="none" stroke="#191970" d="M2143.9491,-434.257C2030.0976,-422.0129 1777.7196,-394.8711 1652.4617,-381.4004"/>
<polygon fill="#191970" stroke="#191970" points="1652.5221,-377.8868 1642.2051,-380.2973 1651.7735,-384.8466 1652.5221,-377.8868"/>
</g>
<!-- Node43 -->
<g id="node42" class="node">
<title>Node43</title>
<g id="a_node42"><a xlink:href="runtime_2module_8h.html" target="_top" xlink:title="Runtime container of the functions generated by TVM, This is used to support dynamically link...">
<polygon fill="#ffffff" stroke="#ff0000" points="2139,-364 2139,-383 2265,-383 2265,-364 2139,-364"/>
<text text-anchor="middle" x="2202" y="-371" font-family="Helvetica,sans-Serif" font-size="10.00" fill="#000000">tvm/runtime/module.h</text>
</a>
</g>
</g>
<!-- Node41&#45;&gt;Node43 -->
<g id="edge107" class="edge">
<title>Node41&#45;&gt;Node43</title>
<path fill="none" stroke="#191970" d="M2196.2392,-425.2967C2195.0912,-415.7699 2194.9424,-403.3954 2195.7929,-393.1306"/>
<polygon fill="#191970" stroke="#191970" points="2199.2843,-393.4239 2197.108,-383.055 2192.3431,-392.5178 2199.2843,-393.4239"/>
</g>
<!-- Node41&#45;&gt;Node45 -->
<g id="edge120" class="edge">
<title>Node41&#45;&gt;Node45</title>
<path fill="none" stroke="#191970" d="M2260.1412,-437.6019C2385.5361,-430.9717 2677.8309,-413.3696 2774,-389 2776.4818,-388.3711 2779.0118,-387.5922 2781.5221,-386.7211"/>
<polygon fill="#191970" stroke="#191970" points="2782.9268,-389.9299 2790.9632,-383.0258 2780.3754,-383.4114 2782.9268,-389.9299"/>
</g>
<!-- Node42&#45;&gt;Node16 -->
<g id="edge102" class="edge">
<title>Node42&#45;&gt;Node16</title>
<path fill="none" stroke="#191970" d="M1591.2719,-358.2997C1608.8202,-336.9422 1640.6531,-299.6829 1656,-291 1750.7467,-237.3947 1840.4606,-299.2041 1883,-199 1911.4803,-131.9129 1797.1162,-93.638 1738.5767,-78.7686"/>
<polygon fill="#191970" stroke="#191970" points="1739.2248,-75.3239 1728.679,-76.3422 1737.5581,-82.1226 1739.2248,-75.3239"/>
</g>
<!-- Node42&#45;&gt;Node20 -->
<g id="edge104" class="edge">
<title>Node42&#45;&gt;Node20</title>
<path fill="none" stroke="#191970" d="M1519.3044,-358.4639C1478.8043,-348.2627 1425.1157,-334.7397 1382.6609,-324.0462"/>
<polygon fill="#191970" stroke="#191970" points="1383.508,-320.6503 1372.956,-321.6017 1381.7982,-327.4383 1383.508,-320.6503"/>
</g>
<!-- Node42&#45;&gt;Node21 -->
<g id="edge103" class="edge">
<title>Node42&#45;&gt;Node21</title>
<path fill="none" stroke="#191970" d="M1575.0396,-358.3624C1571.3586,-340.8927 1568.0572,-311.8916 1580,-291 1588.5393,-276.0622 1604.0694,-265.4078 1618.8754,-258.1405"/>
<polygon fill="#191970" stroke="#191970" points="1620.7385,-261.1401 1628.4198,-253.8429 1617.8645,-254.7573 1620.7385,-261.1401"/>
</g>
<!-- Node42&#45;&gt;Node24 -->
<g id="edge100" class="edge">
<title>Node42&#45;&gt;Node24</title>
<path fill="none" stroke="#191970" d="M1581.8188,-358.4142C1586.1627,-339.5895 1596.3683,-307.8303 1618,-291 1683.767,-239.8306 1733.6797,-302.7068 1802,-255 1818.2445,-243.6567 1829.0687,-223.3962 1835.3144,-208.3051"/>
<polygon fill="#191970" stroke="#191970" points="1838.6246,-209.4473 1838.9171,-198.8565 1832.084,-206.9533 1838.6246,-209.4473"/>
</g>
<!-- Node42&#45;&gt;Node31 -->
<g id="edge101" class="edge">
<title>Node42&#45;&gt;Node31</title>
<path fill="none" stroke="#191970" d="M1642.1959,-371.6377C1735.5369,-367.8011 1915.2665,-356.2508 2064,-322 2131.0823,-306.5521 2206.0256,-276.2232 2246.7075,-258.5903"/>
<polygon fill="#191970" stroke="#191970" points="2248.2898,-261.7184 2256.048,-254.503 2245.4836,-255.3054 2248.2898,-261.7184"/>
</g>
<!-- Node43&#45;&gt;Node8 -->
<g id="edge111" class="edge">
<title>Node43&#45;&gt;Node8</title>
<path fill="none" stroke="#191970" d="M2200.1403,-363.6449C2196.0412,-338.6886 2189.0369,-272.3343 2222,-235 2261.7043,-190.0306 2428.033,-158.0467 2524.3056,-142.8977"/>
<polygon fill="#191970" stroke="#191970" points="2524.9102,-146.3459 2534.2547,-141.3528 2523.836,-139.4288 2524.9102,-146.3459"/>
</g>
<!-- Node43&#45;&gt;Node9 -->
<g id="edge108" class="edge">
<title>Node43&#45;&gt;Node9</title>
<path fill="none" stroke="#191970" d="M2234.4375,-363.8941C2338.4222,-333.0085 2672.6734,-233.0166 2947,-143 2999.7809,-125.6807 3059.7353,-104.7248 3101.2987,-89.9915"/>
<polygon fill="#191970" stroke="#191970" points="3102.6745,-93.2171 3110.9272,-86.5731 3100.3325,-86.6205 3102.6745,-93.2171"/>
</g>
<!-- Node43&#45;&gt;Node14 -->
<g id="edge113" class="edge">
<title>Node43&#45;&gt;Node14</title>
<path fill="none" stroke="#191970" d="M2138.6829,-371.6409C1871.5235,-363.7347 848.6639,-332.818 817,-322 808.0132,-318.9297 547.5984,-127.032 539,-123 484.0577,-97.2359 414.2204,-82.8678 374.1676,-76.1969"/>
<polygon fill="#191970" stroke="#191970" points="374.6043,-72.7223 364.1754,-74.5903 373.493,-79.6335 374.6043,-72.7223"/>
</g>
<!-- Node43&#45;&gt;Node18 -->
<g id="edge115" class="edge">
<title>Node43&#45;&gt;Node18</title>
<path fill="none" stroke="#191970" d="M2198.0915,-363.8416C2189.5464,-342.7254 2169.0658,-292.1144 2157.7834,-264.2341"/>
<polygon fill="#191970" stroke="#191970" points="2160.9495,-262.7273 2153.9538,-254.7705 2154.4606,-265.3532 2160.9495,-262.7273"/>
</g>
<!-- Node43&#45;&gt;Node22 -->
<g id="edge110" class="edge">
<title>Node43&#45;&gt;Node22</title>
<path fill="none" stroke="#191970" d="M2138.6387,-371.6597C1896.7694,-364.5191 1044.0199,-338.2385 1021,-322 983.8021,-295.7602 972.1951,-239.2523 968.5976,-209.0302"/>
<polygon fill="#191970" stroke="#191970" points="972.0572,-208.452 967.5743,-198.8523 965.0923,-209.1522 972.0572,-208.452"/>
</g>
<!-- Node43&#45;&gt;Node26 -->
<g id="edge109" class="edge">
<title>Node43&#45;&gt;Node26</title>
<path fill="none" stroke="#191970" d="M2138.9612,-371.2312C1985.2772,-365.4584 1579.1154,-348.7478 1241,-322 1216.662,-320.0747 1190.1251,-317.4587 1166.3291,-314.9242"/>
<polygon fill="#191970" stroke="#191970" points="1166.6304,-311.4365 1156.313,-313.8453 1165.8806,-318.3963 1166.6304,-311.4365"/>
</g>
<!-- Node43&#45;&gt;Node29 -->
<g id="edge112" class="edge">
<title>Node43&#45;&gt;Node29</title>
<path fill="none" stroke="#191970" d="M2156.4673,-363.954C2146.139,-361.8946 2135.2063,-359.7981 2125,-358 2072.3207,-348.7194 1921.8806,-362.5534 1887,-322 1878.0157,-311.5545 1880.3809,-303.0836 1887,-291 1894.7587,-276.836 1908.9409,-266.3995 1922.6795,-259.0818"/>
<polygon fill="#191970" stroke="#191970" points="1924.5898,-262.0438 1932.0356,-254.5066 1921.5146,-255.7555 1924.5898,-262.0438"/>
</g>
<!-- Node43&#45;&gt;Node31 -->
<g id="edge114" class="edge">
<title>Node43&#45;&gt;Node31</title>
<path fill="none" stroke="#191970" d="M2214.9379,-363.8457C2226.7255,-354.4039 2243.8049,-338.9984 2254,-322 2264.7281,-304.1128 2270.77,-280.8574 2273.9403,-264.6039"/>
<polygon fill="#191970" stroke="#191970" points="2277.4107,-265.0777 2275.6987,-254.6221 2270.5168,-263.8632 2277.4107,-265.0777"/>
</g>
<!-- Node43&#45;&gt;Node41 -->
<g id="edge116" class="edge">
<title>Node43&#45;&gt;Node41</title>
<path fill="none" stroke="#191970" d="M2206.892,-383.055C2208.5156,-391.4031 2209.0751,-403.9072 2208.5706,-415.1199"/>
<polygon fill="#191970" stroke="#191970" points="2205.0651,-415.0505 2207.7608,-425.2967 2212.0431,-415.6058 2205.0651,-415.0505"/>
</g>
<!-- Node47&#45;&gt;Node6 -->
<g id="edge130" class="edge">
<title>Node47&#45;&gt;Node6</title>
<path fill="none" stroke="#191970" d="M2194.6482,-497.9847C2183.5102,-495.6391 2171.3334,-493.4004 2160,-492 1756.972,-442.1997 1650.1507,-504.797 1247,-456 1099.2901,-438.1213 1035.5931,-481.4334 919,-389 899.2702,-373.3585 889.3694,-345.1364 884.7117,-326.1108"/>
<polygon fill="#191970" stroke="#191970" points="888.0875,-325.163 882.5406,-316.1362 881.2476,-326.6518 888.0875,-325.163"/>
</g>
<!-- Node48 -->
<g id="node45" class="node">
<title>Node48</title>
<polygon fill="#ffffff" stroke="#bfbfbf" points="2791,-431 2791,-450 2851,-450 2851,-431 2791,-431"/>
<text text-anchor="middle" x="2821" y="-438" font-family="Helvetica,sans-Serif" font-size="10.00" fill="#000000">iostream</text>
</g>
<!-- Node47&#45;&gt;Node48 -->
<g id="edge131" class="edge">
<title>Node47&#45;&gt;Node48</title>
<path fill="none" stroke="#191970" d="M2299.6698,-498.2665C2315.4856,-496.127 2332.3376,-493.9171 2348,-492 2507.8793,-472.4308 2698.6268,-452.7937 2780.458,-444.5459"/>
<polygon fill="#191970" stroke="#191970" points="2781.2093,-447.9881 2790.8089,-443.5049 2780.5088,-441.0232 2781.2093,-447.9881"/>
</g>
<!-- Node49&#45;&gt;Node2 -->
<g id="edge144" class="edge">
<title>Node49&#45;&gt;Node2</title>
<path fill="none" stroke="#191970" d="M1550.2067,-682.2455C1544.7822,-674.4564 1537.0339,-663.3308 1530.4967,-653.9439"/>
<polygon fill="#191970" stroke="#191970" points="1533.3025,-651.8485 1524.7154,-645.6427 1527.5583,-655.849 1533.3025,-651.8485"/>
</g>
<!-- Node49&#45;&gt;Node3 -->
<g id="edge145" class="edge">
<title>Node49&#45;&gt;Node3</title>
<path fill="none" stroke="#191970" d="M1561.0099,-682.3845C1569.0856,-663.0192 1587.4402,-619.0055 1598.0415,-593.584"/>
<polygon fill="#191970" stroke="#191970" points="1601.3161,-594.8251 1601.9347,-584.2484 1594.8553,-592.1308 1601.3161,-594.8251"/>
</g>
<!-- Node49&#45;&gt;Node8 -->
<g id="edge148" class="edge">
<title>Node49&#45;&gt;Node8</title>
<path fill="none" stroke="#191970" d="M1597.357,-689.6207C1709.9637,-682.9625 2037.1716,-663.4838 2309,-646 2712.7647,-620.0301 2940.8142,-824.1644 3211,-523 3297.1419,-426.9814 3349.3323,-313.5372 3247,-235 3198.0629,-197.4421 3179.7511,-194.3375 3120,-179 3035.5815,-157.3307 2786.3596,-142.473 2663.7399,-136.2634"/>
<polygon fill="#191970" stroke="#191970" points="2663.8679,-132.7655 2653.7051,-135.7603 2663.5173,-139.7568 2663.8679,-132.7655"/>
</g>
<!-- Node49&#45;&gt;Node14 -->
<g id="edge149" class="edge">
<title>Node49&#45;&gt;Node14</title>
<path fill="none" stroke="#191970" d="M1516.9163,-691.0601C1366.5067,-687.3569 835.8262,-672.6559 669,-646 462.9902,-613.0832 408.2504,-604.0143 216,-523 149.4457,-494.954 76,-512.7222 76,-440.5 76,-440.5 76,-440.5 76,-189 76,-152.1996 95.1828,-143.1139 126,-123 156.127,-103.3365 257.1376,-84.9707 309.66,-76.4624"/>
<polygon fill="#191970" stroke="#191970" points="310.4622,-79.8787 319.7859,-74.847 309.3594,-72.9661 310.4622,-79.8787"/>
</g>
<!-- Node49&#45;&gt;Node32 -->
<g id="edge146" class="edge">
<title>Node49&#45;&gt;Node32</title>
<path fill="none" stroke="#191970" d="M1516.7777,-691.5138C1331.5871,-688.7553 570,-671.5134 570,-574.5 570,-574.5 570,-574.5 570,-507.5 570,-359.1128 1071.6978,-415.7074 1239.926,-388.9867"/>
<polygon fill="#191970" stroke="#191970" points="1240.5717,-392.4269 1249.8113,-387.2423 1239.3552,-385.5334 1240.5717,-392.4269"/>
</g>
<!-- Node49&#45;&gt;Node33 -->
<g id="edge147" class="edge">
<title>Node49&#45;&gt;Node33</title>
<path fill="none" stroke="#191970" d="M1597.0368,-691.1049C1797.2291,-685.7366 2686.8918,-651.0486 2860,-456 2892.1139,-419.8159 2882.3008,-357.2564 2874.5423,-325.7753"/>
<polygon fill="#191970" stroke="#191970" points="2877.9041,-324.7978 2871.9558,-316.0304 2871.1384,-326.5936 2877.9041,-324.7978"/>
</g>
<!-- Node50&#45;&gt;Node14 -->
<g id="edge162" class="edge">
<title>Node50&#45;&gt;Node14</title>
<path fill="none" stroke="#191970" d="M2025.4424,-507.2363C1751.0365,-505.8386 660.97,-497.6875 514,-456 415.9814,-428.1974 381.2431,-408.8666 328,-322 280.9457,-245.2305 255.3414,-206.105 290,-123 295.9239,-108.7957 307.8831,-96.5036 318.8403,-87.4942"/>
<polygon fill="#191970" stroke="#191970" points="321.13,-90.1482 326.9074,-81.2672 316.8528,-84.607 321.13,-90.1482"/>
</g>
<!-- Node50&#45;&gt;Node15 -->
<g id="edge163" class="edge">
<title>Node50&#45;&gt;Node15</title>
<path fill="none" stroke="#191970" d="M2025.4979,-506.5794C1855.687,-503.6547 1371.6745,-492.5001 971,-456 751.6637,-436.0192 624.8262,-554.9308 480,-389 399.1498,-296.368 460.227,-200.1037 556,-123 585.8897,-98.9368 691.9308,-83.377 753.2716,-76.172"/>
<polygon fill="#191970" stroke="#191970" points="753.9092,-79.622 763.4454,-75.0055 753.1117,-72.6675 753.9092,-79.622"/>
</g>
<!-- Node50&#45;&gt;Node16 -->
<g id="edge164" class="edge">
<title>Node50&#45;&gt;Node16</title>
<path fill="none" stroke="#191970" d="M2025.2167,-503.8837C1918.4331,-497.0867 1710.82,-480.8174 1689,-456 1645.8593,-406.9332 1635.8015,-377.263 1752,-291 1840.3688,-225.3971 1925.0561,-338.2878 1997,-255 2023.9463,-223.8049 2013.5266,-202.1756 1875,-123 1831.3191,-98.034 1774.2309,-83.9181 1738.8503,-76.9979"/>
<polygon fill="#191970" stroke="#191970" points="1739.0796,-73.48 1728.6059,-75.0773 1737.7897,-80.3601 1739.0796,-73.48"/>
</g>
<!-- Node50&#45;&gt;Node18 -->
<g id="edge165" class="edge">
<title>Node50&#45;&gt;Node18</title>
<path fill="none" stroke="#191970" d="M2129.1144,-497.982C2179.3188,-486.0274 2258.8476,-465.8866 2269,-456 2291.3569,-434.2285 2285.279,-419.847 2290,-389 2297.1427,-342.3297 2284.2358,-322.4257 2249,-291 2230.1596,-274.1968 2204.1224,-262.4259 2183.4785,-254.9997"/>
<polygon fill="#191970" stroke="#191970" points="2184.4273,-251.6252 2173.8327,-251.7001 2182.1616,-258.2484 2184.4273,-251.6252"/>
</g>
<!-- Node50&#45;&gt;Node41 -->
<g id="edge161" class="edge">
<title>Node50&#45;&gt;Node41</title>
<path fill="none" stroke="#191970" d="M2104.3334,-497.9005C2120.8178,-488.2123 2146.7707,-472.9593 2167.7808,-460.6113"/>
<polygon fill="#191970" stroke="#191970" points="2169.5927,-463.6062 2176.4406,-455.5218 2166.0459,-457.5713 2169.5927,-463.6062"/>
</g>
<!-- Node51&#45;&gt;Node13 -->
<g id="edge168" class="edge">
<title>Node51&#45;&gt;Node13</title>
<path fill="none" stroke="#191970" d="M3090.1858,-505.3925C3182.6384,-501.2117 3349.1082,-489.191 3398,-456 3464.8,-410.6516 3516.6883,-359.5304 3474,-291 3415.9917,-197.8754 3082.0623,-113.5118 2949.865,-83.2985"/>
<polygon fill="#191970" stroke="#191970" points="2950.4789,-79.8489 2939.9522,-81.0482 2948.9292,-86.6752 2950.4789,-79.8489"/>
</g>
<!-- Node51&#45;&gt;Node18 -->
<g id="edge170" class="edge">
<title>Node51&#45;&gt;Node18</title>
<path fill="none" stroke="#191970" d="M3026.9922,-492.3039C3026.0348,-450.9321 3016.926,-336.3555 2947,-291 2879.3329,-247.1097 2302.3002,-262.5552 2222,-255 2209.464,-253.8205 2195.7629,-252.0415 2183.7092,-250.3093"/>
<polygon fill="#191970" stroke="#191970" points="2184.0157,-246.8167 2173.6112,-248.8155 2182.9913,-253.7413 2184.0157,-246.8167"/>
</g>
<!-- Node51&#45;&gt;Node33 -->
<g id="edge167" class="edge">
<title>Node51&#45;&gt;Node33</title>
<path fill="none" stroke="#191970" d="M3022.2086,-492.3539C3012.4658,-463.4513 2987.9956,-399.6087 2950,-358 2935.816,-342.4672 2915.9267,-329.7313 2899.4068,-320.8104"/>
<polygon fill="#191970" stroke="#191970" points="2900.627,-317.5008 2890.1381,-316.0066 2897.4059,-323.7156 2900.627,-317.5008"/>
</g>
<!-- Node51&#45;&gt;Node48 -->
<g id="edge169" class="edge">
<title>Node51&#45;&gt;Node48</title>
<path fill="none" stroke="#191970" d="M2980.7696,-492.4639C2944.3848,-480.63 2894.2555,-464.3258 2859.9073,-453.1543"/>
<polygon fill="#191970" stroke="#191970" points="2860.8174,-449.7699 2850.2252,-450.0053 2858.6523,-456.4267 2860.8174,-449.7699"/>
</g>
<!-- Node52&#45;&gt;Node8 -->
<g id="edge174" class="edge">
<title>Node52&#45;&gt;Node8</title>
<path fill="none" stroke="#191970" d="M3059.2696,-559.3056C3077.7762,-549.9491 3101.0262,-537.0741 3120,-523 3214.2405,-453.0956 3308.0386,-390.5947 3246,-291 3186.3075,-195.1716 3126.4294,-210.4538 3018,-179 2953.3747,-160.2531 2766.783,-144.9384 2663.9919,-137.6324"/>
<polygon fill="#191970" stroke="#191970" points="2663.9273,-134.1193 2653.7061,-136.9082 2663.4356,-141.102 2663.9273,-134.1193"/>
</g>
<!-- Node52&#45;&gt;Node14 -->
<g id="edge176" class="edge">
<title>Node52&#45;&gt;Node14</title>
<path fill="none" stroke="#191970" d="M2963.9932,-574.1515C2589.6299,-571.7483 665.832,-554.6456 424,-456 319.7965,-413.4944 297.4636,-364.1368 270,-255 255.65,-197.975 249.6583,-173.9592 279,-123 287.6484,-107.9799 302.4771,-95.5281 315.5759,-86.6326"/>
<polygon fill="#191970" stroke="#191970" points="317.7439,-89.4002 324.2708,-81.0545 313.964,-83.5084 317.7439,-89.4002"/>
</g>
<!-- Node52&#45;&gt;Node18 -->
<g id="edge178" class="edge">
<title>Node52&#45;&gt;Node18</title>
<path fill="none" stroke="#191970" d="M3001.6875,-559.4862C2987.0776,-550.099 2968.9039,-537.1325 2955,-523 2892.4887,-459.4609 2907.5713,-417.2719 2841,-358 2817.315,-336.912 2745.4703,-299.7885 2715,-291 2503.9104,-230.1158 2440.4742,-278.1238 2222,-255 2209.4785,-253.6747 2195.7807,-251.8635 2183.7254,-250.1464"/>
<polygon fill="#191970" stroke="#191970" points="2184.025,-246.6532 2173.6251,-248.6763 2183.0167,-253.5802 2184.025,-246.6532"/>
</g>
<!-- Node52&#45;&gt;Node31 -->
<g id="edge177" class="edge">
<title>Node52&#45;&gt;Node31</title>
<path fill="none" stroke="#191970" d="M3057.7076,-559.3302C3072.3085,-550.6185 3088.7683,-538.3436 3099,-523 3119.8752,-491.6954 3118,-478.1265 3118,-440.5 3118,-440.5 3118,-440.5 3118,-373.5 3118,-300.5106 3045.8148,-312.292 2976,-291 2856.5549,-254.5719 2478.9318,-246.9869 2334.2108,-245.4115"/>
<polygon fill="#191970" stroke="#191970" points="2333.8267,-241.9075 2323.7912,-245.3042 2333.7545,-248.9071 2333.8267,-241.9075"/>
</g>
<!-- Node52&#45;&gt;Node50 -->
<g id="edge175" class="edge">
<title>Node52&#45;&gt;Node50</title>
<path fill="none" stroke="#191970" d="M2963.8324,-570.0333C2917.8517,-566.8285 2854.0777,-562.4798 2798,-559 2514.5386,-541.4101 2441.4529,-561.0005 2160,-523 2152.511,-521.9889 2144.6424,-520.6185 2136.9686,-519.1086"/>
<polygon fill="#191970" stroke="#191970" points="2137.5419,-515.6533 2127.0411,-517.0618 2136.1284,-522.5091 2137.5419,-515.6533"/>
</g>
<!-- Node52&#45;&gt;Node51 -->
<g id="edge179" class="edge">
<title>Node52&#45;&gt;Node51</title>
<path fill="none" stroke="#191970" d="M3027,-559.2967C3027,-551.5013 3027,-541.7991 3027,-532.9064"/>
<polygon fill="#191970" stroke="#191970" points="3030.5001,-532.6431 3027,-522.6432 3023.5001,-532.6432 3030.5001,-532.6431"/>
</g>
<!-- Node53 -->
<g id="node50" class="node">
<title>Node53</title>
<g id="a_node50"><a xlink:href="closure_8h.html" target="_top" xlink:title="Runtime Closure container types. ">
<polygon fill="#ffffff" stroke="#000000" points="1698,-425.5 1698,-455.5 1824,-455.5 1824,-425.5 1698,-425.5"/>
<text text-anchor="start" x="1706" y="-443.5" font-family="Helvetica,sans-Serif" font-size="10.00" fill="#000000">tvm/runtime/container</text>
<text text-anchor="middle" x="1761" y="-432.5" font-family="Helvetica,sans-Serif" font-size="10.00" fill="#000000">/closure.h</text>
</a>
</g>
</g>
<!-- Node52&#45;&gt;Node53 -->
<g id="edge172" class="edge">
<title>Node52&#45;&gt;Node53</title>
<path fill="none" stroke="#191970" d="M2963.7773,-569.2523C2926.5799,-566.194 2878.6226,-562.3016 2836,-559 2727.5856,-550.6022 2449.277,-562.5874 2348,-523 2327.3774,-514.939 2329.6145,-500.0817 2309,-492 2213.236,-454.4567 1954.0344,-470.0714 1834.3201,-455.7893"/>
<polygon fill="#191970" stroke="#191970" points="1834.5863,-452.2943 1824.2156,-454.4623 1833.6747,-459.2347 1834.5863,-452.2943"/>
</g>
<!-- Node53&#45;&gt;Node21 -->
<g id="edge173" class="edge">
<title>Node53&#45;&gt;Node21</title>
<path fill="none" stroke="#191970" d="M1697.9616,-436.6255C1630.7211,-431.0224 1530.6739,-417.9557 1507,-389 1463.9495,-336.3448 1565.7543,-282.9236 1621.9364,-258.5869"/>
<polygon fill="#191970" stroke="#191970" points="1623.3527,-261.7881 1631.1921,-254.661 1620.6192,-255.3438 1623.3527,-261.7881"/>
</g>
</g>
</svg>
