<?xml version="1.0" encoding="UTF-8" standalone="no"?>
<!DOCTYPE svg PUBLIC "-//W3C//DTD SVG 1.1//EN"
 "http://www.w3.org/Graphics/SVG/1.1/DTD/svg11.dtd">
<!-- Generated by graphviz version 2.40.1 (20161225.0304)
 -->
<!-- Title: include/tvm/target/generic_func.h Pages: 1 -->
<svg width="1980pt" height="307pt"
 viewBox="0.00 0.00 1980.00 307.00" xmlns="http://www.w3.org/2000/svg" xmlns:xlink="http://www.w3.org/1999/xlink">
<g id="graph0" class="graph" transform="scale(1 1) rotate(0) translate(4 303)">
<title>include/tvm/target/generic_func.h</title>
<polygon fill="#ffffff" stroke="transparent" points="-4,4 -4,-303 1976,-303 1976,4 -4,4"/>
<!-- Node69 -->
<g id="node1" class="node">
<title>Node69</title>
<polygon fill="#bfbfbf" stroke="#000000" points="1044,-268.5 1044,-298.5 1151,-298.5 1151,-268.5 1044,-268.5"/>
<text text-anchor="start" x="1052" y="-286.5" font-family="Helvetica,sans-Serif" font-size="10.00" fill="#000000">include/tvm/target</text>
<text text-anchor="middle" x="1097.5" y="-275.5" font-family="Helvetica,sans-Serif" font-size="10.00" fill="#000000">/generic_func.h</text>
</g>
<!-- Node70 -->
<g id="node2" class="node">
<title>Node70</title>
<g id="a_node2"><a xlink:href="relay_2op__attr__types_8h.html" target="_top" xlink:title="The Expr and related elements in DataFlow construction. ">
<polygon fill="#ffffff" stroke="#000000" points="237,-201.5 237,-231.5 354,-231.5 354,-201.5 237,-201.5"/>
<text text-anchor="start" x="245" y="-219.5" font-family="Helvetica,sans-Serif" font-size="10.00" fill="#000000">include/tvm/relay/op</text>
<text text-anchor="middle" x="295.5" y="-208.5" font-family="Helvetica,sans-Serif" font-size="10.00" fill="#000000">_attr_types.h</text>
</a>
</g>
</g>
<!-- Node69&#45;&gt;Node70 -->
<g id="edge1" class="edge">
<title>Node69&#45;&gt;Node70</title>
<path fill="none" stroke="#191970" d="M1033.6508,-279.0716C916.3059,-270.803 658.481,-252.0312 441.5,-232 412.6917,-229.3405 380.7294,-225.9924 354.0726,-223.0891"/>
<polygon fill="#191970" stroke="#191970" points="1033.6658,-282.5813 1043.8867,-279.7914 1034.1568,-275.5985 1033.6658,-282.5813"/>
</g>
<!-- Node76 -->
<g id="node8" class="node">
<title>Node76</title>
<g id="a_node8"><a xlink:href="cuda_2dense_8h.html" target="_top" xlink:title="CUDA schedule for dense operation. ">
<polygon fill="#ffffff" stroke="#000000" points="589.5,-67.5 589.5,-97.5 711.5,-97.5 711.5,-67.5 589.5,-67.5"/>
<text text-anchor="start" x="597.5" y="-85.5" font-family="Helvetica,sans-Serif" font-size="10.00" fill="#000000">include/tvm/topi/cuda</text>
<text text-anchor="middle" x="650.5" y="-74.5" font-family="Helvetica,sans-Serif" font-size="10.00" fill="#000000">/dense.h</text>
</a>
</g>
</g>
<!-- Node69&#45;&gt;Node76 -->
<g id="edge7" class="edge">
<title>Node69&#45;&gt;Node76</title>
<path fill="none" stroke="#191970" d="M1033.6024,-280.0216C921.0459,-273.282 696.8668,-256.8832 671.5,-232 635.0145,-196.21 641.9278,-128.2016 647.2941,-97.8235"/>
<polygon fill="#191970" stroke="#191970" points="1033.6191,-283.5286 1043.8081,-280.6245 1034.032,-276.5407 1033.6191,-283.5286"/>
</g>
<!-- Node77 -->
<g id="node9" class="node">
<title>Node77</title>
<g id="a_node9"><a xlink:href="rocm_2dense_8h.html" target="_top" xlink:title="rocm schedule for dense operation ">
<polygon fill="#ffffff" stroke="#000000" points="588.5,-.5 588.5,-30.5 712.5,-30.5 712.5,-.5 588.5,-.5"/>
<text text-anchor="start" x="596.5" y="-18.5" font-family="Helvetica,sans-Serif" font-size="10.00" fill="#000000">include/tvm/topi/rocm</text>
<text text-anchor="middle" x="650.5" y="-7.5" font-family="Helvetica,sans-Serif" font-size="10.00" fill="#000000">/dense.h</text>
</a>
</g>
</g>
<!-- Node69&#45;&gt;Node77 -->
<g id="edge23" class="edge">
<title>Node69&#45;&gt;Node77</title>
<path fill="none" stroke="#191970" d="M1161.1202,-280.2505C1272.5275,-273.9044 1493.3669,-258.1505 1516.5,-232 1525.6288,-221.6805 1520.7139,-214.1175 1516.5,-201 1505.2965,-166.1244 1499.7956,-153.0371 1468.5,-134 1341.0003,-56.4419 880.6798,-26.6872 712.542,-18.2558"/>
<polygon fill="#191970" stroke="#191970" points="1160.8039,-276.7627 1151.0156,-280.8174 1161.196,-283.7517 1160.8039,-276.7627"/>
</g>
<!-- Node78 -->
<g id="node10" class="node">
<title>Node78</title>
<g id="a_node10"><a xlink:href="cuda_2injective_8h.html" target="_top" xlink:title="CUDA schedule for injective operations. ">
<polygon fill="#ffffff" stroke="#000000" points="680.5,-201.5 680.5,-231.5 802.5,-231.5 802.5,-201.5 680.5,-201.5"/>
<text text-anchor="start" x="688.5" y="-219.5" font-family="Helvetica,sans-Serif" font-size="10.00" fill="#000000">include/tvm/topi/cuda</text>
<text text-anchor="middle" x="741.5" y="-208.5" font-family="Helvetica,sans-Serif" font-size="10.00" fill="#000000">/injective.h</text>
</a>
</g>
</g>
<!-- Node69&#45;&gt;Node78 -->
<g id="edge9" class="edge">
<title>Node69&#45;&gt;Node78</title>
<path fill="none" stroke="#191970" d="M1033.8773,-272.2614C976.8731,-262.0916 891.011,-246.5255 816.5,-232 812.0629,-231.135 807.4814,-230.2264 802.8723,-229.3009"/>
<polygon fill="#191970" stroke="#191970" points="1033.3654,-275.7253 1043.8243,-274.0335 1034.5932,-268.8338 1033.3654,-275.7253"/>
</g>
<!-- Node79 -->
<g id="node11" class="node">
<title>Node79</title>
<g id="a_node11"><a xlink:href="rocm_2injective_8h.html" target="_top" xlink:title="rocm schedule for injective operations ">
<polygon fill="#ffffff" stroke="#000000" points="724.5,-134.5 724.5,-164.5 848.5,-164.5 848.5,-134.5 724.5,-134.5"/>
<text text-anchor="start" x="732.5" y="-152.5" font-family="Helvetica,sans-Serif" font-size="10.00" fill="#000000">include/tvm/topi/rocm</text>
<text text-anchor="middle" x="786.5" y="-141.5" font-family="Helvetica,sans-Serif" font-size="10.00" fill="#000000">/injective.h</text>
</a>
</g>
</g>
<!-- Node69&#45;&gt;Node79 -->
<g id="edge24" class="edge">
<title>Node69&#45;&gt;Node79</title>
<path fill="none" stroke="#191970" d="M1033.641,-275.4C970.6642,-266.5063 879.5991,-250.9415 849.5,-232 823.1129,-215.3945 803.6188,-183.5563 793.7518,-164.6567"/>
<polygon fill="#191970" stroke="#191970" points="1033.4957,-278.9134 1043.8822,-276.8228 1034.459,-271.98 1033.4957,-278.9134"/>
</g>
<!-- Node80 -->
<g id="node12" class="node">
<title>Node80</title>
<g id="a_node12"><a xlink:href="cuda_2pooling_8h.html" target="_top" xlink:title="CUDA schedule for pooling operations. ">
<polygon fill="#ffffff" stroke="#000000" points="858.5,-201.5 858.5,-231.5 980.5,-231.5 980.5,-201.5 858.5,-201.5"/>
<text text-anchor="start" x="866.5" y="-219.5" font-family="Helvetica,sans-Serif" font-size="10.00" fill="#000000">include/tvm/topi/cuda</text>
<text text-anchor="middle" x="919.5" y="-208.5" font-family="Helvetica,sans-Serif" font-size="10.00" fill="#000000">/pooling.h</text>
</a>
</g>
</g>
<!-- Node69&#45;&gt;Node80 -->
<g id="edge11" class="edge">
<title>Node69&#45;&gt;Node80</title>
<path fill="none" stroke="#191970" d="M1047.9921,-264.865C1020.1293,-254.3773 985.7889,-241.4515 959.6209,-231.6017"/>
<polygon fill="#191970" stroke="#191970" points="1046.9614,-268.2167 1057.5533,-268.4639 1049.4273,-261.6654 1046.9614,-268.2167"/>
</g>
<!-- Node81 -->
<g id="node13" class="node">
<title>Node81</title>
<g id="a_node13"><a xlink:href="rocm_2pooling_8h.html" target="_top" xlink:title="rocm schedule for pooling operations ">
<polygon fill="#ffffff" stroke="#000000" points="906.5,-134.5 906.5,-164.5 1030.5,-164.5 1030.5,-134.5 906.5,-134.5"/>
<text text-anchor="start" x="914.5" y="-152.5" font-family="Helvetica,sans-Serif" font-size="10.00" fill="#000000">include/tvm/topi/rocm</text>
<text text-anchor="middle" x="968.5" y="-141.5" font-family="Helvetica,sans-Serif" font-size="10.00" fill="#000000">/pooling.h</text>
</a>
</g>
</g>
<!-- Node69&#45;&gt;Node81 -->
<g id="edge25" class="edge">
<title>Node69&#45;&gt;Node81</title>
<path fill="none" stroke="#191970" d="M1064.7145,-262.6081C1052.3522,-253.929 1038.6063,-243.2569 1027.5,-232 1006.7233,-210.9415 987.8069,-181.9925 977.2568,-164.5784"/>
<polygon fill="#191970" stroke="#191970" points="1062.7735,-265.5209 1073.0025,-268.281 1066.7274,-259.7445 1062.7735,-265.5209"/>
</g>
<!-- Node82 -->
<g id="node14" class="node">
<title>Node82</title>
<g id="a_node14"><a xlink:href="cuda_2reduction_8h.html" target="_top" xlink:title="CUDA schedule for reduction operations. ">
<polygon fill="#ffffff" stroke="#000000" points="1036.5,-201.5 1036.5,-231.5 1158.5,-231.5 1158.5,-201.5 1036.5,-201.5"/>
<text text-anchor="start" x="1044.5" y="-219.5" font-family="Helvetica,sans-Serif" font-size="10.00" fill="#000000">include/tvm/topi/cuda</text>
<text text-anchor="middle" x="1097.5" y="-208.5" font-family="Helvetica,sans-Serif" font-size="10.00" fill="#000000">/reduction.h</text>
</a>
</g>
</g>
<!-- Node69&#45;&gt;Node82 -->
<g id="edge13" class="edge">
<title>Node69&#45;&gt;Node82</title>
<path fill="none" stroke="#191970" d="M1097.5,-258.0249C1097.5,-249.128 1097.5,-239.4287 1097.5,-231.6432"/>
<polygon fill="#191970" stroke="#191970" points="1094.0001,-258.2966 1097.5,-268.2967 1101.0001,-258.2967 1094.0001,-258.2966"/>
</g>
<!-- Node83 -->
<g id="node15" class="node">
<title>Node83</title>
<g id="a_node15"><a xlink:href="rocm_2reduction_8h.html" target="_top" xlink:title="rocm schedule for reduction operations ">
<polygon fill="#ffffff" stroke="#000000" points="1086.5,-134.5 1086.5,-164.5 1210.5,-164.5 1210.5,-134.5 1086.5,-134.5"/>
<text text-anchor="start" x="1094.5" y="-152.5" font-family="Helvetica,sans-Serif" font-size="10.00" fill="#000000">include/tvm/topi/rocm</text>
<text text-anchor="middle" x="1148.5" y="-141.5" font-family="Helvetica,sans-Serif" font-size="10.00" fill="#000000">/reduction.h</text>
</a>
</g>
</g>
<!-- Node69&#45;&gt;Node83 -->
<g id="edge26" class="edge">
<title>Node69&#45;&gt;Node83</title>
<path fill="none" stroke="#191970" d="M1138.3731,-262.9732C1149.9259,-254.9934 1161.0891,-244.6756 1167.5,-232 1178.578,-210.0967 1167.1172,-181.6623 1157.8094,-164.5388"/>
<polygon fill="#191970" stroke="#191970" points="1136.4836,-260.027 1129.9543,-268.3708 1140.2617,-265.9198 1136.4836,-260.027"/>
</g>
<!-- Node84 -->
<g id="node16" class="node">
<title>Node84</title>
<g id="a_node16"><a xlink:href="cuda_2softmax_8h.html" target="_top" xlink:title="include/tvm/topi/cuda\l/softmax.h">
<polygon fill="#ffffff" stroke="#000000" points="1214.5,-201.5 1214.5,-231.5 1336.5,-231.5 1336.5,-201.5 1214.5,-201.5"/>
<text text-anchor="start" x="1222.5" y="-219.5" font-family="Helvetica,sans-Serif" font-size="10.00" fill="#000000">include/tvm/topi/cuda</text>
<text text-anchor="middle" x="1275.5" y="-208.5" font-family="Helvetica,sans-Serif" font-size="10.00" fill="#000000">/softmax.h</text>
</a>
</g>
</g>
<!-- Node69&#45;&gt;Node84 -->
<g id="edge15" class="edge">
<title>Node69&#45;&gt;Node84</title>
<path fill="none" stroke="#191970" d="M1147.0079,-264.865C1174.8707,-254.3773 1209.2111,-241.4515 1235.3791,-231.6017"/>
<polygon fill="#191970" stroke="#191970" points="1145.5727,-261.6654 1137.4467,-268.4639 1148.0386,-268.2167 1145.5727,-261.6654"/>
</g>
<!-- Node85 -->
<g id="node17" class="node">
<title>Node85</title>
<g id="a_node17"><a xlink:href="rocm_2softmax_8h.html" target="_top" xlink:title="include/tvm/topi/rocm\l/softmax.h">
<polygon fill="#ffffff" stroke="#000000" points="1335.5,-134.5 1335.5,-164.5 1459.5,-164.5 1459.5,-134.5 1335.5,-134.5"/>
<text text-anchor="start" x="1343.5" y="-152.5" font-family="Helvetica,sans-Serif" font-size="10.00" fill="#000000">include/tvm/topi/rocm</text>
<text text-anchor="middle" x="1397.5" y="-141.5" font-family="Helvetica,sans-Serif" font-size="10.00" fill="#000000">/softmax.h</text>
</a>
</g>
</g>
<!-- Node69&#45;&gt;Node85 -->
<g id="edge27" class="edge">
<title>Node69&#45;&gt;Node85</title>
<path fill="none" stroke="#191970" d="M1161.3408,-279.8822C1269.0963,-273.1182 1477.5467,-256.9451 1499.5,-232 1523.274,-204.986 1478.8481,-179.8915 1441.3505,-164.6373"/>
<polygon fill="#191970" stroke="#191970" points="1161.0015,-276.3964 1151.2368,-280.5074 1161.4339,-283.383 1161.0015,-276.3964"/>
</g>
<!-- Node86 -->
<g id="node18" class="node">
<title>Node86</title>
<g id="a_node18"><a xlink:href="generic_2default_8h.html" target="_top" xlink:title="Generic default schedule. ">
<polygon fill="#ffffff" stroke="#000000" points="1355,-201.5 1355,-231.5 1490,-231.5 1490,-201.5 1355,-201.5"/>
<text text-anchor="start" x="1363" y="-219.5" font-family="Helvetica,sans-Serif" font-size="10.00" fill="#000000">include/tvm/topi/generic</text>
<text text-anchor="middle" x="1422.5" y="-208.5" font-family="Helvetica,sans-Serif" font-size="10.00" fill="#000000">/default.h</text>
</a>
</g>
</g>
<!-- Node69&#45;&gt;Node86 -->
<g id="edge17" class="edge">
<title>Node69&#45;&gt;Node86</title>
<path fill="none" stroke="#191970" d="M1161.2903,-270.3494C1217.1269,-258.8385 1297.9973,-242.1667 1354.9285,-230.4301"/>
<polygon fill="#191970" stroke="#191970" points="1160.2545,-266.9892 1151.1671,-272.4363 1161.6679,-273.8451 1160.2545,-266.9892"/>
</g>
<!-- Node87 -->
<g id="node19" class="node">
<title>Node87</title>
<g id="a_node19"><a xlink:href="generic_2extern_8h.html" target="_top" xlink:title="Schedule for extern followed by injective ops. ">
<polygon fill="#ffffff" stroke="#000000" points="489,-134.5 489,-164.5 624,-164.5 624,-134.5 489,-134.5"/>
<text text-anchor="start" x="497" y="-152.5" font-family="Helvetica,sans-Serif" font-size="10.00" fill="#000000">include/tvm/topi/generic</text>
<text text-anchor="middle" x="556.5" y="-141.5" font-family="Helvetica,sans-Serif" font-size="10.00" fill="#000000">/extern.h</text>
</a>
</g>
</g>
<!-- Node69&#45;&gt;Node87 -->
<g id="edge18" class="edge">
<title>Node69&#45;&gt;Node87</title>
<path fill="none" stroke="#191970" d="M1033.4949,-281.5317C924.1807,-277.3141 706.6967,-264.9499 638.5,-232 606.8612,-216.7134 580.3494,-184.0941 566.6115,-164.7657"/>
<polygon fill="#191970" stroke="#191970" points="1033.6034,-285.0381 1043.7274,-281.9148 1033.8654,-278.043 1033.6034,-285.0381"/>
</g>
<!-- Node88 -->
<g id="node20" class="node">
<title>Node88</title>
<g id="a_node20"><a xlink:href="generic_2injective_8h.html" target="_top" xlink:title="Generic schedule for injective operations. ">
<polygon fill="#ffffff" stroke="#000000" points="451,-201.5 451,-231.5 586,-231.5 586,-201.5 451,-201.5"/>
<text text-anchor="start" x="459" y="-219.5" font-family="Helvetica,sans-Serif" font-size="10.00" fill="#000000">include/tvm/topi/generic</text>
<text text-anchor="middle" x="518.5" y="-208.5" font-family="Helvetica,sans-Serif" font-size="10.00" fill="#000000">/injective.h</text>
</a>
</g>
</g>
<!-- Node69&#45;&gt;Node88 -->
<g id="edge21" class="edge">
<title>Node69&#45;&gt;Node88</title>
<path fill="none" stroke="#191970" d="M1034.0033,-278.6301C939.3026,-270.9808 755.5772,-254.6509 600.5,-232 595.9125,-231.3299 591.1905,-230.5852 586.4395,-229.7949"/>
<polygon fill="#191970" stroke="#191970" points="1033.747,-282.1207 1043.9949,-279.4316 1034.3068,-275.1432 1033.747,-282.1207"/>
</g>
<!-- Node89 -->
<g id="node21" class="node">
<title>Node89</title>
<g id="a_node21"><a xlink:href="x86_2bnn_8h.html" target="_top" xlink:title="x86 schedule for binary operations ">
<polygon fill="#ffffff" stroke="#000000" points="1585,-201.5 1585,-231.5 1702,-231.5 1702,-201.5 1585,-201.5"/>
<text text-anchor="start" x="1593" y="-219.5" font-family="Helvetica,sans-Serif" font-size="10.00" fill="#000000">include/tvm/topi/x86</text>
<text text-anchor="middle" x="1643.5" y="-208.5" font-family="Helvetica,sans-Serif" font-size="10.00" fill="#000000">/bnn.h</text>
</a>
</g>
</g>
<!-- Node69&#45;&gt;Node89 -->
<g id="edge28" class="edge">
<title>Node69&#45;&gt;Node89</title>
<path fill="none" stroke="#191970" d="M1161.4632,-278.5947C1252.6271,-271.1367 1425.0106,-255.3054 1570.5,-232 1575.1055,-231.2623 1579.8593,-230.4255 1584.6286,-229.5321"/>
<polygon fill="#191970" stroke="#191970" points="1160.9754,-275.1226 1151.2911,-279.4196 1161.5413,-282.0997 1160.9754,-275.1226"/>
</g>
<!-- Node90 -->
<g id="node22" class="node">
<title>Node90</title>
<g id="a_node22"><a xlink:href="x86_2default_8h.html" target="_top" xlink:title="default x86 schedule ">
<polygon fill="#ffffff" stroke="#000000" points="1720,-201.5 1720,-231.5 1837,-231.5 1837,-201.5 1720,-201.5"/>
<text text-anchor="start" x="1728" y="-219.5" font-family="Helvetica,sans-Serif" font-size="10.00" fill="#000000">include/tvm/topi/x86</text>
<text text-anchor="middle" x="1778.5" y="-208.5" font-family="Helvetica,sans-Serif" font-size="10.00" fill="#000000">/default.h</text>
</a>
</g>
</g>
<!-- Node69&#45;&gt;Node90 -->
<g id="edge29" class="edge">
<title>Node69&#45;&gt;Node90</title>
<path fill="none" stroke="#191970" d="M1161.3026,-281.1692C1273.2677,-276.4075 1512.1738,-263.25 1711.5,-232 1714.2129,-231.5747 1716.9791,-231.1007 1719.7672,-230.5902"/>
<polygon fill="#191970" stroke="#191970" points="1161.038,-277.6771 1151.1926,-281.5909 1161.3298,-284.671 1161.038,-277.6771"/>
</g>
<!-- Node91 -->
<g id="node23" class="node">
<title>Node91</title>
<g id="a_node23"><a xlink:href="x86_2injective_8h.html" target="_top" xlink:title="x86 schedule for injective ops ">
<polygon fill="#ffffff" stroke="#000000" points="1855,-201.5 1855,-231.5 1972,-231.5 1972,-201.5 1855,-201.5"/>
<text text-anchor="start" x="1863" y="-219.5" font-family="Helvetica,sans-Serif" font-size="10.00" fill="#000000">include/tvm/topi/x86</text>
<text text-anchor="middle" x="1913.5" y="-208.5" font-family="Helvetica,sans-Serif" font-size="10.00" fill="#000000">/injective.h</text>
</a>
</g>
</g>
<!-- Node69&#45;&gt;Node91 -->
<g id="edge30" class="edge">
<title>Node69&#45;&gt;Node91</title>
<path fill="none" stroke="#191970" d="M1161.567,-282.5142C1291.4534,-279.7645 1594.837,-269.5197 1846.5,-232 1849.216,-231.5951 1851.9848,-231.1378 1854.7749,-230.6409"/>
<polygon fill="#191970" stroke="#191970" points="1161.3273,-279.0183 1151.4008,-282.7215 1161.4701,-286.0169 1161.3273,-279.0183"/>
</g>
<!-- Node71 -->
<g id="node3" class="node">
<title>Node71</title>
<g id="a_node3"><a xlink:href="relax_2analysis_8h.html" target="_top" xlink:title="The set of Relax specific analysis on IR. ">
<polygon fill="#ffffff" stroke="#000000" points="316,-140 316,-159 471,-159 471,-140 316,-140"/>
<text text-anchor="middle" x="393.5" y="-147" font-family="Helvetica,sans-Serif" font-size="10.00" fill="#000000">include/tvm/relax/analysis.h</text>
</a>
</g>
</g>
<!-- Node70&#45;&gt;Node71 -->
<g id="edge2" class="edge">
<title>Node70&#45;&gt;Node71</title>
<path fill="none" stroke="#191970" d="M326.15,-195.5454C344.0122,-183.3335 365.6769,-168.5219 379.5241,-159.055"/>
<polygon fill="#191970" stroke="#191970" points="324.0175,-192.7635 317.7377,-201.2967 327.9682,-198.5421 324.0175,-192.7635"/>
</g>
<!-- Node73 -->
<g id="node5" class="node">
<title>Node73</title>
<g id="a_node5"><a xlink:href="op__strategy_8h.html" target="_top" xlink:title="The Relay operator Strategy and related data structure. ">
<polygon fill="#ffffff" stroke="#000000" points="0,-134.5 0,-164.5 117,-164.5 117,-134.5 0,-134.5"/>
<text text-anchor="start" x="8" y="-152.5" font-family="Helvetica,sans-Serif" font-size="10.00" fill="#000000">include/tvm/relay/op</text>
<text text-anchor="middle" x="58.5" y="-141.5" font-family="Helvetica,sans-Serif" font-size="10.00" fill="#000000">_strategy.h</text>
</a>
</g>
</g>
<!-- Node70&#45;&gt;Node73 -->
<g id="edge4" class="edge">
<title>Node70&#45;&gt;Node73</title>
<path fill="none" stroke="#191970" d="M232.4801,-198.6842C194.8874,-188.0568 147.674,-174.7095 111.9194,-164.6017"/>
<polygon fill="#191970" stroke="#191970" points="231.7375,-202.1114 242.3126,-201.4639 233.6419,-195.3754 231.7375,-202.1114"/>
</g>
<!-- Node74 -->
<g id="node6" class="node">
<title>Node74</title>
<g id="a_node6"><a xlink:href="relay_2transform_8h.html" target="_top" xlink:title="Relay specific transformation passes. ">
<polygon fill="#ffffff" stroke="#000000" points="135.5,-140 135.5,-159 297.5,-159 297.5,-140 135.5,-140"/>
<text text-anchor="middle" x="216.5" y="-147" font-family="Helvetica,sans-Serif" font-size="10.00" fill="#000000">include/tvm/relay/transform.h</text>
</a>
</g>
</g>
<!-- Node70&#45;&gt;Node74 -->
<g id="edge5" class="edge">
<title>Node70&#45;&gt;Node74</title>
<path fill="none" stroke="#191970" d="M269.6076,-194.5406C255.4453,-182.5296 238.6244,-168.2637 227.7663,-159.055"/>
<polygon fill="#191970" stroke="#191970" points="267.6833,-197.4979 277.5737,-201.2967 272.211,-192.1593 267.6833,-197.4979"/>
</g>
<!-- Node72 -->
<g id="node4" class="node">
<title>Node72</title>
<g id="a_node4"><a xlink:href="binding__rewrite_8h.html" target="_top" xlink:title="An IR rewriter to easily add/remove/replace bindings (statements). ">
<polygon fill="#ffffff" stroke="#000000" points="323,-67.5 323,-97.5 464,-97.5 464,-67.5 323,-67.5"/>
<text text-anchor="start" x="331" y="-85.5" font-family="Helvetica,sans-Serif" font-size="10.00" fill="#000000">include/tvm/relax/binding</text>
<text text-anchor="middle" x="393.5" y="-74.5" font-family="Helvetica,sans-Serif" font-size="10.00" fill="#000000">_rewrite.h</text>
</a>
</g>
</g>
<!-- Node71&#45;&gt;Node72 -->
<g id="edge3" class="edge">
<title>Node71&#45;&gt;Node72</title>
<path fill="none" stroke="#191970" d="M393.5,-129.7758C393.5,-119.4641 393.5,-107.0437 393.5,-97.5218"/>
<polygon fill="#191970" stroke="#191970" points="390.0001,-129.9005 393.5,-139.9005 397.0001,-129.9006 390.0001,-129.9005"/>
</g>
<!-- Node75 -->
<g id="node7" class="node">
<title>Node75</title>
<g id="a_node7"><a xlink:href="relay_2qnn_2transform_8h.html" target="_top" xlink:title="include/tvm/relay/qnn\l/transform.h">
<polygon fill="#ffffff" stroke="#000000" points="155,-67.5 155,-97.5 278,-97.5 278,-67.5 155,-67.5"/>
<text text-anchor="start" x="163" y="-85.5" font-family="Helvetica,sans-Serif" font-size="10.00" fill="#000000">include/tvm/relay/qnn</text>
<text text-anchor="middle" x="216.5" y="-74.5" font-family="Helvetica,sans-Serif" font-size="10.00" fill="#000000">/transform.h</text>
</a>
</g>
</g>
<!-- Node74&#45;&gt;Node75 -->
<g id="edge6" class="edge">
<title>Node74&#45;&gt;Node75</title>
<path fill="none" stroke="#191970" d="M216.5,-129.7758C216.5,-119.4641 216.5,-107.0437 216.5,-97.5218"/>
<polygon fill="#191970" stroke="#191970" points="213.0001,-129.9005 216.5,-139.9005 220.0001,-129.9006 213.0001,-129.9005"/>
</g>
<!-- Node76&#45;&gt;Node77 -->
<g id="edge8" class="edge">
<title>Node76&#45;&gt;Node77</title>
<path fill="none" stroke="#191970" d="M650.5,-57.0249C650.5,-48.128 650.5,-38.4287 650.5,-30.6432"/>
<polygon fill="#191970" stroke="#191970" points="647.0001,-57.2966 650.5,-67.2967 654.0001,-57.2967 647.0001,-57.2966"/>
</g>
<!-- Node78&#45;&gt;Node79 -->
<g id="edge10" class="edge">
<title>Node78&#45;&gt;Node79</title>
<path fill="none" stroke="#191970" d="M757.4357,-192.7735C763.721,-183.4154 770.7553,-172.9421 776.3292,-164.6432"/>
<polygon fill="#191970" stroke="#191970" points="754.3813,-191.0438 751.7112,-201.2967 760.1923,-194.9467 754.3813,-191.0438"/>
</g>
<!-- Node80&#45;&gt;Node81 -->
<g id="edge12" class="edge">
<title>Node80&#45;&gt;Node81</title>
<path fill="none" stroke="#191970" d="M936.6408,-193.0626C943.5381,-183.6315 951.2932,-173.0276 957.4251,-164.6432"/>
<polygon fill="#191970" stroke="#191970" points="933.697,-191.1588 930.6189,-201.2967 939.3472,-195.2911 933.697,-191.1588"/>
</g>
<!-- Node82&#45;&gt;Node83 -->
<g id="edge14" class="edge">
<title>Node82&#45;&gt;Node83</title>
<path fill="none" stroke="#191970" d="M1115.3404,-193.0626C1122.5193,-183.6315 1130.5909,-173.0276 1136.9731,-164.6432"/>
<polygon fill="#191970" stroke="#191970" points="1112.3446,-191.2197 1109.0727,-201.2967 1117.9146,-195.4595 1112.3446,-191.2197"/>
</g>
<!-- Node84&#45;&gt;Node85 -->
<g id="edge16" class="edge">
<title>Node84&#45;&gt;Node85</title>
<path fill="none" stroke="#191970" d="M1311.6718,-196.6352C1330.2688,-186.422 1352.5781,-174.1702 1369.7901,-164.7177"/>
<polygon fill="#191970" stroke="#191970" points="1309.9596,-193.5823 1302.8792,-201.4639 1313.3292,-199.718 1309.9596,-193.5823"/>
</g>
<!-- Node87&#45;&gt;Node76 -->
<g id="edge19" class="edge">
<title>Node87&#45;&gt;Node76</title>
<path fill="none" stroke="#191970" d="M586.1775,-128.3469C600.1643,-118.3776 616.5308,-106.7121 629.2544,-97.6432"/>
<polygon fill="#191970" stroke="#191970" points="583.9418,-125.6423 577.8301,-134.2967 588.0047,-131.3426 583.9418,-125.6423"/>
</g>
<!-- Node87&#45;&gt;Node77 -->
<g id="edge20" class="edge">
<title>Node87&#45;&gt;Node77</title>
<path fill="none" stroke="#191970" d="M559.5077,-124.252C562.5595,-106.8998 568.6148,-84.0124 580.5,-67 591.0415,-51.9109 607.4335,-39.5073 621.7056,-30.6566"/>
<polygon fill="#191970" stroke="#191970" points="556.0327,-123.8228 557.9705,-134.2389 562.9512,-124.8879 556.0327,-123.8228"/>
</g>
<!-- Node88&#45;&gt;Node87 -->
<g id="edge22" class="edge">
<title>Node88&#45;&gt;Node87</title>
<path fill="none" stroke="#191970" d="M532.1212,-192.4837C537.3868,-183.1996 543.253,-172.8565 547.9113,-164.6432"/>
<polygon fill="#191970" stroke="#191970" points="529.0118,-190.8716 527.1228,-201.2967 535.1007,-194.325 529.0118,-190.8716"/>
</g>
</g>
</svg>
