<?xml version="1.0" encoding="UTF-8" standalone="no"?>
<!DOCTYPE svg PUBLIC "-//W3C//DTD SVG 1.1//EN"
 "http://www.w3.org/Graphics/SVG/1.1/DTD/svg11.dtd">
<!-- Generated by graphviz version 2.40.1 (20161225.0304)
 -->
<!-- Title: Graphical Class Hierarchy Pages: 1 -->
<svg width="498pt" height="39pt"
 viewBox="0.00 0.00 498.00 39.00" xmlns="http://www.w3.org/2000/svg" xmlns:xlink="http://www.w3.org/1999/xlink">
<g id="graph0" class="graph" transform="scale(1 1) rotate(0) translate(4 35)">
<title>Graphical Class Hierarchy</title>
<polygon fill="#ffffff" stroke="transparent" points="-4,4 -4,-35 494,-35 494,4 -4,4"/>
<!-- Node0 -->
<g id="node1" class="node">
<title>Node0</title>
<g id="a_node1"><a xlink:href="classtvm_1_1relax_1_1ExprFunctor.html" target="_top" xlink:title="tvm::relax::ExprFunctor\l\&lt; Expr(const Expr &amp;)\&gt;">
<polygon fill="#ffffff" stroke="#000000" points="0,-.5 0,-30.5 130,-30.5 130,-.5 0,-.5"/>
<text text-anchor="start" x="8" y="-18.5" font-family="Helvetica,sans-Serif" font-size="10.00" fill="#000000">tvm::relax::ExprFunctor</text>
<text text-anchor="middle" x="65" y="-7.5" font-family="Helvetica,sans-Serif" font-size="10.00" fill="#000000">&lt; Expr(const Expr &amp;)&gt;</text>
</a>
</g>
</g>
<!-- Node1 -->
<g id="node2" class="node">
<title>Node1</title>
<g id="a_node2"><a xlink:href="classtvm_1_1relax_1_1ExprMutatorBase.html" target="_top" xlink:title="A mutator works in unnormalized form. ">
<polygon fill="#ffffff" stroke="#000000" points="166,-6 166,-25 322,-25 322,-6 166,-6"/>
<text text-anchor="middle" x="244" y="-13" font-family="Helvetica,sans-Serif" font-size="10.00" fill="#000000">tvm::relax::ExprMutatorBase</text>
</a>
</g>
</g>
<!-- Node0&#45;&gt;Node1 -->
<g id="edge1" class="edge">
<title>Node0&#45;&gt;Node1</title>
<path fill="none" stroke="#191970" d="M140.3123,-15.5C148.7476,-15.5 157.3554,-15.5 165.8257,-15.5"/>
<polygon fill="#191970" stroke="#191970" points="140.1295,-12.0001 130.1295,-15.5 140.1294,-19.0001 140.1295,-12.0001"/>
</g>
<!-- Node2 -->
<g id="node3" class="node">
<title>Node2</title>
<g id="a_node3"><a xlink:href="classtvm_1_1relax_1_1ExprMutator.html" target="_top" xlink:title="A mutator works in normal form. ">
<polygon fill="#ffffff" stroke="#000000" points="358,-6 358,-25 490,-25 490,-6 358,-6"/>
<text text-anchor="middle" x="424" y="-13" font-family="Helvetica,sans-Serif" font-size="10.00" fill="#000000">tvm::relax::ExprMutator</text>
</a>
</g>
</g>
<!-- Node1&#45;&gt;Node2 -->
<g id="edge2" class="edge">
<title>Node1&#45;&gt;Node2</title>
<path fill="none" stroke="#191970" d="M332.2193,-15.5C340.8083,-15.5 349.4188,-15.5 357.738,-15.5"/>
<polygon fill="#191970" stroke="#191970" points="332.1654,-12.0001 322.1653,-15.5 332.1653,-19.0001 332.1654,-12.0001"/>
</g>
</g>
</svg>
