<?xml version="1.0" encoding="UTF-8" standalone="no"?>
<!DOCTYPE svg PUBLIC "-//W3C//DTD SVG 1.1//EN"
 "http://www.w3.org/Graphics/SVG/1.1/DTD/svg11.dtd">
<!-- Generated by graphviz version 2.40.1 (20161225.0304)
 -->
<!-- Title: include/tvm/tir/schedule/instruction.h Pages: 1 -->
<svg width="1407pt" height="575pt"
 viewBox="0.00 0.00 1407.00 575.00" xmlns="http://www.w3.org/2000/svg" xmlns:xlink="http://www.w3.org/1999/xlink">
<g id="graph0" class="graph" transform="scale(1 1) rotate(0) translate(4 571)">
<title>include/tvm/tir/schedule/instruction.h</title>
<polygon fill="#ffffff" stroke="transparent" points="-4,4 -4,-571 1403,-571 1403,4 -4,4"/>
<!-- Node44 -->
<g id="node1" class="node">
<title>Node44</title>
<polygon fill="#bfbfbf" stroke="#000000" points="756,-536.5 756,-566.5 890,-566.5 890,-536.5 756,-536.5"/>
<text text-anchor="start" x="764" y="-554.5" font-family="Helvetica,sans-Serif" font-size="10.00" fill="#000000">include/tvm/tir/schedule</text>
<text text-anchor="middle" x="823" y="-543.5" font-family="Helvetica,sans-Serif" font-size="10.00" fill="#000000">/instruction.h</text>
</g>
<!-- Node45 -->
<g id="node2" class="node">
<title>Node45</title>
<g id="a_node2"><a xlink:href="trace_8h.html" target="_top" xlink:title="include/tvm/tir/schedule\l/trace.h">
<polygon fill="#ffffff" stroke="#000000" points="756,-469.5 756,-499.5 890,-499.5 890,-469.5 756,-469.5"/>
<text text-anchor="start" x="764" y="-487.5" font-family="Helvetica,sans-Serif" font-size="10.00" fill="#000000">include/tvm/tir/schedule</text>
<text text-anchor="middle" x="823" y="-476.5" font-family="Helvetica,sans-Serif" font-size="10.00" fill="#000000">/trace.h</text>
</a>
</g>
</g>
<!-- Node44&#45;&gt;Node45 -->
<g id="edge1" class="edge">
<title>Node44&#45;&gt;Node45</title>
<path fill="none" stroke="#191970" d="M823,-526.0249C823,-517.128 823,-507.4287 823,-499.6432"/>
<polygon fill="#191970" stroke="#191970" points="819.5001,-526.2966 823,-536.2967 826.5001,-526.2967 819.5001,-526.2966"/>
</g>
<!-- Node46 -->
<g id="node3" class="node">
<title>Node46</title>
<g id="a_node3"><a xlink:href="database_8h.html" target="_top" xlink:title="include/tvm/meta_schedule\l/database.h">
<polygon fill="#ffffff" stroke="#000000" points="1154,-335.5 1154,-365.5 1306,-365.5 1306,-335.5 1154,-335.5"/>
<text text-anchor="start" x="1162" y="-353.5" font-family="Helvetica,sans-Serif" font-size="10.00" fill="#000000">include/tvm/meta_schedule</text>
<text text-anchor="middle" x="1230" y="-342.5" font-family="Helvetica,sans-Serif" font-size="10.00" fill="#000000">/database.h</text>
</a>
</g>
</g>
<!-- Node45&#45;&gt;Node46 -->
<g id="edge2" class="edge">
<title>Node45&#45;&gt;Node46</title>
<path fill="none" stroke="#191970" d="M878.4398,-466.2471C959.5509,-439.5422 1109.0673,-390.3157 1184.2708,-365.5558"/>
<polygon fill="#191970" stroke="#191970" points="877.3008,-462.9372 868.8969,-469.389 879.4899,-469.5861 877.3008,-462.9372"/>
</g>
<!-- Node52 -->
<g id="node9" class="node">
<title>Node52</title>
<g id="a_node9"><a xlink:href="mutator_8h.html" target="_top" xlink:title="include/tvm/meta_schedule\l/mutator.h">
<polygon fill="#ffffff" stroke="#000000" points="0,-335.5 0,-365.5 152,-365.5 152,-335.5 0,-335.5"/>
<text text-anchor="start" x="8" y="-353.5" font-family="Helvetica,sans-Serif" font-size="10.00" fill="#000000">include/tvm/meta_schedule</text>
<text text-anchor="middle" x="76" y="-342.5" font-family="Helvetica,sans-Serif" font-size="10.00" fill="#000000">/mutator.h</text>
</a>
</g>
</g>
<!-- Node45&#45;&gt;Node52 -->
<g id="edge10" class="edge">
<title>Node45&#45;&gt;Node52</title>
<path fill="none" stroke="#191970" d="M745.68,-470.7433C622.1126,-448.7395 372.4969,-404.2127 161,-366 158.1954,-365.4933 155.3388,-364.9764 152.4535,-364.4536"/>
<polygon fill="#191970" stroke="#191970" points="745.3401,-474.2378 755.7988,-472.545 746.5672,-467.3462 745.3401,-474.2378"/>
</g>
<!-- Node54 -->
<g id="node11" class="node">
<title>Node54</title>
<g id="a_node11"><a xlink:href="tir_2schedule_2schedule_8h.html" target="_top" xlink:title="include/tvm/tir/schedule\l/schedule.h">
<polygon fill="#ffffff" stroke="#000000" points="756,-402.5 756,-432.5 890,-432.5 890,-402.5 756,-402.5"/>
<text text-anchor="start" x="764" y="-420.5" font-family="Helvetica,sans-Serif" font-size="10.00" fill="#000000">include/tvm/tir/schedule</text>
<text text-anchor="middle" x="823" y="-409.5" font-family="Helvetica,sans-Serif" font-size="10.00" fill="#000000">/schedule.h</text>
</a>
</g>
</g>
<!-- Node45&#45;&gt;Node54 -->
<g id="edge13" class="edge">
<title>Node45&#45;&gt;Node54</title>
<path fill="none" stroke="#191970" d="M823,-459.0249C823,-450.128 823,-440.4287 823,-432.6432"/>
<polygon fill="#191970" stroke="#191970" points="819.5001,-459.2966 823,-469.2967 826.5001,-459.2967 819.5001,-459.2966"/>
</g>
<!-- Node47 -->
<g id="node4" class="node">
<title>Node47</title>
<g id="a_node4"><a xlink:href="search__strategy_8h.html" target="_top" xlink:title="include/tvm/meta_schedule\l/search_strategy.h">
<polygon fill="#ffffff" stroke="#000000" points="927,-201.5 927,-231.5 1079,-231.5 1079,-201.5 927,-201.5"/>
<text text-anchor="start" x="935" y="-219.5" font-family="Helvetica,sans-Serif" font-size="10.00" fill="#000000">include/tvm/meta_schedule</text>
<text text-anchor="middle" x="1003" y="-208.5" font-family="Helvetica,sans-Serif" font-size="10.00" fill="#000000">/search_strategy.h</text>
</a>
</g>
</g>
<!-- Node46&#45;&gt;Node47 -->
<g id="edge3" class="edge">
<title>Node46&#45;&gt;Node47</title>
<path fill="none" stroke="#191970" d="M1214.0134,-326.8075C1200.5041,-308.4296 1179.6169,-283.5465 1156,-268 1130.7172,-251.3568 1099.536,-239.5905 1071.9331,-231.5482"/>
<polygon fill="#191970" stroke="#191970" points="1211.3729,-329.1326 1220.0322,-335.2373 1217.0699,-325.065 1211.3729,-329.1326"/>
</g>
<!-- Node51 -->
<g id="node8" class="node">
<title>Node51</title>
<g id="a_node8"><a xlink:href="tuning__api_8h.html" target="_top" xlink:title="Relax Tuning Pass APIs. ">
<polygon fill="#ffffff" stroke="#000000" points="1263,-268.5 1263,-298.5 1399,-298.5 1399,-268.5 1263,-268.5"/>
<text text-anchor="start" x="1271" y="-286.5" font-family="Helvetica,sans-Serif" font-size="10.00" fill="#000000">include/tvm/relax/tuning</text>
<text text-anchor="middle" x="1331" y="-275.5" font-family="Helvetica,sans-Serif" font-size="10.00" fill="#000000">_api.h</text>
</a>
</g>
</g>
<!-- Node46&#45;&gt;Node51 -->
<g id="edge9" class="edge">
<title>Node46&#45;&gt;Node51</title>
<path fill="none" stroke="#191970" d="M1261.2119,-329.7951C1276.3457,-319.7558 1294.1992,-307.9124 1308.0598,-298.7177"/>
<polygon fill="#191970" stroke="#191970" points="1259.0648,-327.0193 1252.6664,-335.4639 1262.9344,-332.8525 1259.0648,-327.0193"/>
</g>
<!-- Node48 -->
<g id="node5" class="node">
<title>Node48</title>
<g id="a_node5"><a xlink:href="measure__callback_8h.html" target="_top" xlink:title="include/tvm/meta_schedule\l/measure_callback.h">
<polygon fill="#ffffff" stroke="#000000" points="979,-67.5 979,-97.5 1131,-97.5 1131,-67.5 979,-67.5"/>
<text text-anchor="start" x="987" y="-85.5" font-family="Helvetica,sans-Serif" font-size="10.00" fill="#000000">include/tvm/meta_schedule</text>
<text text-anchor="middle" x="1055" y="-74.5" font-family="Helvetica,sans-Serif" font-size="10.00" fill="#000000">/measure_callback.h</text>
</a>
</g>
</g>
<!-- Node47&#45;&gt;Node48 -->
<g id="edge4" class="edge">
<title>Node47&#45;&gt;Node48</title>
<path fill="none" stroke="#191970" d="M1020.3352,-193.1997C1026.0122,-184.6788 1031.9058,-174.7351 1036,-165 1045.4587,-142.5096 1050.6396,-114.4976 1053.1134,-97.5813"/>
<polygon fill="#191970" stroke="#191970" points="1017.4044,-191.2841 1014.5821,-201.4961 1023.1567,-195.273 1017.4044,-191.2841"/>
</g>
<!-- Node50 -->
<g id="node7" class="node">
<title>Node50</title>
<g id="a_node7"><a xlink:href="tune__context_8h.html" target="_top" xlink:title="include/tvm/meta_schedule\l/tune_context.h">
<polygon fill="#ffffff" stroke="#000000" points="875,-134.5 875,-164.5 1027,-164.5 1027,-134.5 875,-134.5"/>
<text text-anchor="start" x="883" y="-152.5" font-family="Helvetica,sans-Serif" font-size="10.00" fill="#000000">include/tvm/meta_schedule</text>
<text text-anchor="middle" x="951" y="-141.5" font-family="Helvetica,sans-Serif" font-size="10.00" fill="#000000">/tune_context.h</text>
</a>
</g>
</g>
<!-- Node47&#45;&gt;Node50 -->
<g id="edge6" class="edge">
<title>Node47&#45;&gt;Node50</title>
<path fill="none" stroke="#191970" d="M985.0335,-193.3509C977.6583,-183.8482 969.3266,-173.1132 962.7529,-164.6432"/>
<polygon fill="#191970" stroke="#191970" points="982.3042,-195.5427 991.2004,-201.2967 987.8341,-191.2508 982.3042,-195.5427"/>
</g>
<!-- Node49 -->
<g id="node6" class="node">
<title>Node49</title>
<g id="a_node6"><a xlink:href="task__scheduler_8h.html" target="_top" xlink:title="include/tvm/meta_schedule\l/task_scheduler.h">
<polygon fill="#ffffff" stroke="#000000" points="875,-.5 875,-30.5 1027,-30.5 1027,-.5 875,-.5"/>
<text text-anchor="start" x="883" y="-18.5" font-family="Helvetica,sans-Serif" font-size="10.00" fill="#000000">include/tvm/meta_schedule</text>
<text text-anchor="middle" x="951" y="-7.5" font-family="Helvetica,sans-Serif" font-size="10.00" fill="#000000">/task_scheduler.h</text>
</a>
</g>
</g>
<!-- Node48&#45;&gt;Node49 -->
<g id="edge5" class="edge">
<title>Node48&#45;&gt;Node49</title>
<path fill="none" stroke="#191970" d="M1022.861,-61.7951C1007.2777,-51.7558 988.8939,-39.9124 974.6216,-30.7177"/>
<polygon fill="#191970" stroke="#191970" points="1021.3583,-64.9904 1031.6604,-67.4639 1025.1494,-59.1058 1021.3583,-64.9904"/>
</g>
<!-- Node50&#45;&gt;Node48 -->
<g id="edge7" class="edge">
<title>Node50&#45;&gt;Node48</title>
<path fill="none" stroke="#191970" d="M983.139,-128.7951C998.7223,-118.7558 1017.1061,-106.9124 1031.3784,-97.7177"/>
<polygon fill="#191970" stroke="#191970" points="980.8506,-126.1058 974.3396,-134.4639 984.6417,-131.9904 980.8506,-126.1058"/>
</g>
<!-- Node50&#45;&gt;Node49 -->
<g id="edge8" class="edge">
<title>Node50&#45;&gt;Node49</title>
<path fill="none" stroke="#191970" d="M951,-124.3415C951,-96.8131 951,-53.5714 951,-30.7614"/>
<polygon fill="#191970" stroke="#191970" points="947.5001,-124.3889 951,-134.389 954.5001,-124.389 947.5001,-124.3889"/>
</g>
<!-- Node53 -->
<g id="node10" class="node">
<title>Node53</title>
<g id="a_node10"><a xlink:href="space__generator_8h.html" target="_top" xlink:title="include/tvm/meta_schedule\l/space_generator.h">
<polygon fill="#ffffff" stroke="#000000" points="601,-268.5 601,-298.5 753,-298.5 753,-268.5 601,-268.5"/>
<text text-anchor="start" x="609" y="-286.5" font-family="Helvetica,sans-Serif" font-size="10.00" fill="#000000">include/tvm/meta_schedule</text>
<text text-anchor="middle" x="677" y="-275.5" font-family="Helvetica,sans-Serif" font-size="10.00" fill="#000000">/space_generator.h</text>
</a>
</g>
</g>
<!-- Node52&#45;&gt;Node53 -->
<g id="edge11" class="edge">
<title>Node52&#45;&gt;Node53</title>
<path fill="none" stroke="#191970" d="M162.531,-334.8487C324.0452,-312.4381 501.8711,-296.9577 600.7057,-289.1735"/>
<polygon fill="#191970" stroke="#191970" points="161.8267,-331.4131 152.4084,-336.2655 162.797,-338.3455 161.8267,-331.4131"/>
</g>
<!-- Node53&#45;&gt;Node50 -->
<g id="edge12" class="edge">
<title>Node53&#45;&gt;Node50</title>
<path fill="none" stroke="#191970" d="M717.0229,-263.9267C772.1888,-236.9478 870.4091,-188.9131 920.2143,-164.5558"/>
<polygon fill="#191970" stroke="#191970" points="715.3443,-260.8515 707.8987,-268.389 718.4196,-267.1398 715.3443,-260.8515"/>
</g>
<!-- Node54&#45;&gt;Node46 -->
<g id="edge17" class="edge">
<title>Node54&#45;&gt;Node46</title>
<path fill="none" stroke="#191970" d="M900.1728,-405.1724C964.383,-394.8651 1058.1779,-379.6919 1140,-366 1144.5349,-365.2411 1149.1973,-364.4553 1153.9001,-363.6583"/>
<polygon fill="#191970" stroke="#191970" points="899.4471,-401.744 890.1278,-406.7839 900.556,-408.6556 899.4471,-401.744"/>
</g>
<!-- Node54&#45;&gt;Node47 -->
<g id="edge30" class="edge">
<title>Node54&#45;&gt;Node47</title>
<path fill="none" stroke="#191970" d="M862.2787,-397.0723C876.3849,-388.6131 891.8057,-377.9698 904,-366 909.6789,-360.4257 969.4594,-268.3573 993.2819,-231.5398"/>
<polygon fill="#191970" stroke="#191970" points="860.1425,-394.2649 853.2458,-402.3077 863.6527,-400.3212 860.1425,-394.2649"/>
</g>
<!-- Node54&#45;&gt;Node52 -->
<g id="edge23" class="edge">
<title>Node54&#45;&gt;Node52</title>
<path fill="none" stroke="#191970" d="M745.4284,-414.0532C621.5156,-407.9662 371.4346,-393.2986 161,-366 158.1736,-365.6333 155.2986,-365.2357 152.3976,-364.8138"/>
<polygon fill="#191970" stroke="#191970" points="745.4179,-417.5567 755.576,-414.5463 745.7577,-410.565 745.4179,-417.5567"/>
</g>
<!-- Node54&#45;&gt;Node53 -->
<g id="edge31" class="edge">
<title>Node54&#45;&gt;Node53</title>
<path fill="none" stroke="#191970" d="M843.9915,-394.2712C857.186,-376.7563 869.3955,-352.7929 856,-335 848.8767,-325.5382 791.2859,-310.0401 743.322,-298.5131"/>
<polygon fill="#191970" stroke="#191970" points="841.0786,-392.3086 837.543,-402.2961 846.5352,-396.6933 841.0786,-392.3086"/>
</g>
<!-- Node55 -->
<g id="node12" class="node">
<title>Node55</title>
<g id="a_node12"><a xlink:href="meta__schedule_2cost__model_8h.html" target="_top" xlink:title="include/tvm/meta_schedule\l/cost_model.h">
<polygon fill="#ffffff" stroke="#000000" points="771,-268.5 771,-298.5 923,-298.5 923,-268.5 771,-268.5"/>
<text text-anchor="start" x="779" y="-286.5" font-family="Helvetica,sans-Serif" font-size="10.00" fill="#000000">include/tvm/meta_schedule</text>
<text text-anchor="middle" x="847" y="-275.5" font-family="Helvetica,sans-Serif" font-size="10.00" fill="#000000">/cost_model.h</text>
</a>
</g>
</g>
<!-- Node54&#45;&gt;Node55 -->
<g id="edge14" class="edge">
<title>Node54&#45;&gt;Node55</title>
<path fill="none" stroke="#191970" d="M861.3523,-396.6919C872.3317,-388.6618 882.9545,-378.3855 889,-366 900.562,-342.3128 880.0733,-315.1168 863.8539,-298.6289"/>
<polygon fill="#191970" stroke="#191970" points="859.2636,-393.8795 852.9566,-402.3925 863.1958,-399.6707 859.2636,-393.8795"/>
</g>
<!-- Node56 -->
<g id="node13" class="node">
<title>Node56</title>
<g id="a_node13"><a xlink:href="measure__candidate_8h.html" target="_top" xlink:title="include/tvm/meta_schedule\l/measure_candidate.h">
<polygon fill="#ffffff" stroke="#000000" points="979,-335.5 979,-365.5 1131,-365.5 1131,-335.5 979,-335.5"/>
<text text-anchor="start" x="987" y="-353.5" font-family="Helvetica,sans-Serif" font-size="10.00" fill="#000000">include/tvm/meta_schedule</text>
<text text-anchor="middle" x="1055" y="-342.5" font-family="Helvetica,sans-Serif" font-size="10.00" fill="#000000">/measure_candidate.h</text>
</a>
</g>
</g>
<!-- Node54&#45;&gt;Node56 -->
<g id="edge18" class="edge">
<title>Node54&#45;&gt;Node56</title>
<path fill="none" stroke="#191970" d="M884.6904,-399.6842C921.49,-389.0568 967.7073,-375.7095 1002.7076,-365.6017"/>
<polygon fill="#191970" stroke="#191970" points="883.7016,-396.3267 875.0653,-402.4639 885.6438,-403.0519 883.7016,-396.3267"/>
</g>
<!-- Node58 -->
<g id="node15" class="node">
<title>Node58</title>
<g id="a_node15"><a xlink:href="postproc_8h.html" target="_top" xlink:title="include/tvm/meta_schedule\l/postproc.h">
<polygon fill="#ffffff" stroke="#000000" points="525,-335.5 525,-365.5 677,-365.5 677,-335.5 525,-335.5"/>
<text text-anchor="start" x="533" y="-353.5" font-family="Helvetica,sans-Serif" font-size="10.00" fill="#000000">include/tvm/meta_schedule</text>
<text text-anchor="middle" x="601" y="-342.5" font-family="Helvetica,sans-Serif" font-size="10.00" fill="#000000">/postproc.h</text>
</a>
</g>
</g>
<!-- Node54&#45;&gt;Node58 -->
<g id="edge24" class="edge">
<title>Node54&#45;&gt;Node58</title>
<path fill="none" stroke="#191970" d="M763.5186,-399.5484C728.3791,-388.9432 684.3875,-375.6665 651.0384,-365.6017"/>
<polygon fill="#191970" stroke="#191970" points="762.5941,-402.9252 773.1789,-402.4639 764.6166,-396.2238 762.5941,-402.9252"/>
</g>
<!-- Node59 -->
<g id="node16" class="node">
<title>Node59</title>
<g id="a_node16"><a xlink:href="thread__bind_8h.html" target="_top" xlink:title="include/tvm/meta_schedule\l/schedule/cuda/thread_bind.h">
<polygon fill="#ffffff" stroke="#000000" points="170.5,-335.5 170.5,-365.5 329.5,-365.5 329.5,-335.5 170.5,-335.5"/>
<text text-anchor="start" x="178.5" y="-353.5" font-family="Helvetica,sans-Serif" font-size="10.00" fill="#000000">include/tvm/meta_schedule</text>
<text text-anchor="middle" x="250" y="-342.5" font-family="Helvetica,sans-Serif" font-size="10.00" fill="#000000">/schedule/cuda/thread_bind.h</text>
</a>
</g>
</g>
<!-- Node54&#45;&gt;Node59 -->
<g id="edge26" class="edge">
<title>Node54&#45;&gt;Node59</title>
<path fill="none" stroke="#191970" d="M745.551,-410.926C649.6454,-402.4058 481.3913,-386.217 338,-366 335.235,-365.6102 332.4238,-365.1985 329.5865,-364.77"/>
<polygon fill="#191970" stroke="#191970" points="745.4724,-414.4326 755.7417,-411.8266 746.0887,-407.4598 745.4724,-414.4326"/>
</g>
<!-- Node60 -->
<g id="node17" class="node">
<title>Node60</title>
<g id="a_node17"><a xlink:href="winograd_8h.html" target="_top" xlink:title="include/tvm/meta_schedule\l/schedule/generic/winograd.h">
<polygon fill="#ffffff" stroke="#000000" points="347.5,-335.5 347.5,-365.5 506.5,-365.5 506.5,-335.5 347.5,-335.5"/>
<text text-anchor="start" x="355.5" y="-353.5" font-family="Helvetica,sans-Serif" font-size="10.00" fill="#000000">include/tvm/meta_schedule</text>
<text text-anchor="middle" x="427" y="-342.5" font-family="Helvetica,sans-Serif" font-size="10.00" fill="#000000">/schedule/generic/winograd.h</text>
</a>
</g>
</g>
<!-- Node54&#45;&gt;Node60 -->
<g id="edge27" class="edge">
<title>Node54&#45;&gt;Node60</title>
<path fill="none" stroke="#191970" d="M745.7954,-404.6853C683.6982,-394.3453 594.2151,-379.3711 516,-366 512.9081,-365.4714 509.756,-364.9308 506.5722,-364.3833"/>
<polygon fill="#191970" stroke="#191970" points="745.466,-408.1786 755.905,-406.3681 746.6154,-401.2736 745.466,-408.1786"/>
</g>
<!-- Node61 -->
<g id="node18" class="node">
<title>Node61</title>
<g id="a_node18"><a xlink:href="schedule__rule_8h.html" target="_top" xlink:title="include/tvm/meta_schedule\l/schedule_rule.h">
<polygon fill="#ffffff" stroke="#000000" points="695,-335.5 695,-365.5 847,-365.5 847,-335.5 695,-335.5"/>
<text text-anchor="start" x="703" y="-353.5" font-family="Helvetica,sans-Serif" font-size="10.00" fill="#000000">include/tvm/meta_schedule</text>
<text text-anchor="middle" x="771" y="-342.5" font-family="Helvetica,sans-Serif" font-size="10.00" fill="#000000">/schedule_rule.h</text>
</a>
</g>
</g>
<!-- Node54&#45;&gt;Node61 -->
<g id="edge28" class="edge">
<title>Node54&#45;&gt;Node61</title>
<path fill="none" stroke="#191970" d="M805.0335,-394.3509C797.6583,-384.8482 789.3266,-374.1132 782.7529,-365.6432"/>
<polygon fill="#191970" stroke="#191970" points="802.3042,-396.5427 811.2004,-402.2967 807.8341,-392.2508 802.3042,-396.5427"/>
</g>
<!-- Node55&#45;&gt;Node47 -->
<g id="edge15" class="edge">
<title>Node55&#45;&gt;Node47</title>
<path fill="none" stroke="#191970" d="M891.3516,-264.4516C915.5953,-254.0392 945.2045,-241.3224 967.8379,-231.6017"/>
<polygon fill="#191970" stroke="#191970" points="889.8166,-261.3016 882.0094,-268.4639 892.5791,-267.7335 889.8166,-261.3016"/>
</g>
<!-- Node55&#45;&gt;Node49 -->
<g id="edge16" class="edge">
<title>Node55&#45;&gt;Node49</title>
<path fill="none" stroke="#191970" d="M846.4855,-258.2953C846.6906,-227.8082 849.7262,-175.4249 866,-134 882.2932,-92.5255 916.3591,-52.0687 936.0591,-30.8334"/>
<polygon fill="#191970" stroke="#191970" points="842.986,-258.4874 846.5187,-268.4759 849.986,-258.4645 842.986,-258.4874"/>
</g>
<!-- Node56&#45;&gt;Node47 -->
<g id="edge22" class="edge">
<title>Node56&#45;&gt;Node47</title>
<path fill="none" stroke="#191970" d="M1106.1511,-330.7472C1119.5432,-322.9655 1132.3583,-312.5649 1140,-299 1146.7624,-286.996 1147.8432,-279.3274 1140,-268 1130.5255,-254.3166 1094.8733,-241.1517 1062.3155,-231.5578"/>
<polygon fill="#191970" stroke="#191970" points="1104.4715,-327.6764 1097.3159,-335.4897 1107.7821,-333.8441 1104.4715,-327.6764"/>
</g>
<!-- Node56&#45;&gt;Node48 -->
<g id="edge21" class="edge">
<title>Node56&#45;&gt;Node48</title>
<path fill="none" stroke="#191970" d="M1118.7886,-331.1031C1133.5023,-323.503 1147.3578,-313.1075 1156,-299 1163.1971,-287.2514 1159.3993,-281.3519 1156,-268 1138.4487,-199.0612 1089.4964,-128.0788 1066.8145,-97.7404"/>
<polygon fill="#191970" stroke="#191970" points="1117.0908,-328.0346 1109.5553,-335.4823 1120.0905,-334.3593 1117.0908,-328.0346"/>
</g>
<!-- Node56&#45;&gt;Node55 -->
<g id="edge19" class="edge">
<title>Node56&#45;&gt;Node55</title>
<path fill="none" stroke="#191970" d="M998.4237,-332.2759C965.6423,-321.7165 924.8618,-308.5805 893.8829,-298.6017"/>
<polygon fill="#191970" stroke="#191970" points="997.7292,-335.7292 1008.3207,-335.4639 999.8755,-329.0664 997.7292,-335.7292"/>
</g>
<!-- Node57 -->
<g id="node14" class="node">
<title>Node57</title>
<g id="a_node14"><a xlink:href="feature__extractor_8h.html" target="_top" xlink:title="include/tvm/meta_schedule\l/feature_extractor.h">
<polygon fill="#ffffff" stroke="#000000" points="979,-268.5 979,-298.5 1131,-298.5 1131,-268.5 979,-268.5"/>
<text text-anchor="start" x="987" y="-286.5" font-family="Helvetica,sans-Serif" font-size="10.00" fill="#000000">include/tvm/meta_schedule</text>
<text text-anchor="middle" x="1055" y="-275.5" font-family="Helvetica,sans-Serif" font-size="10.00" fill="#000000">/feature_extractor.h</text>
</a>
</g>
</g>
<!-- Node56&#45;&gt;Node57 -->
<g id="edge20" class="edge">
<title>Node56&#45;&gt;Node57</title>
<path fill="none" stroke="#191970" d="M1055,-325.0249C1055,-316.128 1055,-306.4287 1055,-298.6432"/>
<polygon fill="#191970" stroke="#191970" points="1051.5001,-325.2966 1055,-335.2967 1058.5001,-325.2967 1051.5001,-325.2966"/>
</g>
<!-- Node58&#45;&gt;Node53 -->
<g id="edge25" class="edge">
<title>Node58&#45;&gt;Node53</title>
<path fill="none" stroke="#191970" d="M625.9592,-328.4965C637.0497,-318.7193 649.8267,-307.4554 659.8227,-298.6432"/>
<polygon fill="#191970" stroke="#191970" points="623.4323,-326.0582 618.2456,-335.2967 628.0614,-331.3091 623.4323,-326.0582"/>
</g>
<!-- Node61&#45;&gt;Node53 -->
<g id="edge29" class="edge">
<title>Node61&#45;&gt;Node53</title>
<path fill="none" stroke="#191970" d="M741.3225,-329.3469C727.3357,-319.3776 710.9692,-307.7121 698.2456,-298.6432"/>
<polygon fill="#191970" stroke="#191970" points="739.4953,-332.3426 749.6699,-335.2967 743.5582,-326.6423 739.4953,-332.3426"/>
</g>
</g>
</svg>
