<?xml version="1.0" encoding="UTF-8" standalone="no"?>
<!DOCTYPE svg PUBLIC "-//W3C//DTD SVG 1.1//EN"
 "http://www.w3.org/Graphics/SVG/1.1/DTD/svg11.dtd">
<!-- Generated by graphviz version 2.40.1 (20161225.0304)
 -->
<!-- Title: include/tvm/script/ir_builder/ir/frame.h Pages: 1 -->
<svg width="288pt" height="240pt"
 viewBox="0.00 0.00 288.00 240.00" xmlns="http://www.w3.org/2000/svg" xmlns:xlink="http://www.w3.org/1999/xlink">
<g id="graph0" class="graph" transform="scale(1 1) rotate(0) translate(4 236)">
<title>include/tvm/script/ir_builder/ir/frame.h</title>
<polygon fill="#ffffff" stroke="transparent" points="-4,4 -4,-236 284,-236 284,4 -4,4"/>
<!-- Node54 -->
<g id="node1" class="node">
<title>Node54</title>
<polygon fill="#bfbfbf" stroke="#000000" points="74,-201.5 74,-231.5 190,-231.5 190,-201.5 74,-201.5"/>
<text text-anchor="start" x="82" y="-219.5" font-family="Helvetica,sans-Serif" font-size="10.00" fill="#000000">include/tvm/script</text>
<text text-anchor="middle" x="132" y="-208.5" font-family="Helvetica,sans-Serif" font-size="10.00" fill="#000000">/ir_builder/ir/frame.h</text>
</g>
<!-- Node55 -->
<g id="node2" class="node">
<title>Node55</title>
<g id="a_node2"><a xlink:href="ir_2ir_8h.html" target="_top" xlink:title="include/tvm/script\l/ir_builder/ir/ir.h">
<polygon fill="#ffffff" stroke="#000000" points="0,-134.5 0,-164.5 104,-164.5 104,-134.5 0,-134.5"/>
<text text-anchor="start" x="8" y="-152.5" font-family="Helvetica,sans-Serif" font-size="10.00" fill="#000000">include/tvm/script</text>
<text text-anchor="middle" x="52" y="-141.5" font-family="Helvetica,sans-Serif" font-size="10.00" fill="#000000">/ir_builder/ir/ir.h</text>
</a>
</g>
</g>
<!-- Node54&#45;&gt;Node55 -->
<g id="edge1" class="edge">
<title>Node54&#45;&gt;Node55</title>
<path fill="none" stroke="#191970" d="M106.0667,-194.7808C94.3144,-184.9383 80.7056,-173.541 70.0814,-164.6432"/>
<polygon fill="#191970" stroke="#191970" points="103.933,-197.5592 113.8468,-201.2967 108.4275,-192.1927 103.933,-197.5592"/>
</g>
<!-- Node56 -->
<g id="node3" class="node">
<title>Node56</title>
<g id="a_node3"><a xlink:href="relax_2frame_8h.html" target="_top" xlink:title="include/tvm/script\l/ir_builder/relax/frame.h">
<polygon fill="#ffffff" stroke="#000000" points="0,-67.5 0,-97.5 134,-97.5 134,-67.5 0,-67.5"/>
<text text-anchor="start" x="8" y="-85.5" font-family="Helvetica,sans-Serif" font-size="10.00" fill="#000000">include/tvm/script</text>
<text text-anchor="middle" x="67" y="-74.5" font-family="Helvetica,sans-Serif" font-size="10.00" fill="#000000">/ir_builder/relax/frame.h</text>
</a>
</g>
</g>
<!-- Node54&#45;&gt;Node56 -->
<g id="edge4" class="edge">
<title>Node54&#45;&gt;Node56</title>
<path fill="none" stroke="#191970" d="M129.5009,-191.1823C127.0473,-174.2494 122.2568,-151.8809 113,-134 105.8351,-120.1599 94.0848,-107.0957 84.2539,-97.5883"/>
<polygon fill="#191970" stroke="#191970" points="126.0691,-191.9425 130.7991,-201.4229 133.0135,-191.062 126.0691,-191.9425"/>
</g>
<!-- Node58 -->
<g id="node5" class="node">
<title>Node58</title>
<g id="a_node5"><a xlink:href="tir_2frame_8h.html" target="_top" xlink:title="include/tvm/script\l/ir_builder/tir/frame.h">
<polygon fill="#ffffff" stroke="#000000" points="160,-134.5 160,-164.5 280,-164.5 280,-134.5 160,-134.5"/>
<text text-anchor="start" x="168" y="-152.5" font-family="Helvetica,sans-Serif" font-size="10.00" fill="#000000">include/tvm/script</text>
<text text-anchor="middle" x="220" y="-141.5" font-family="Helvetica,sans-Serif" font-size="10.00" fill="#000000">/ir_builder/tir/frame.h</text>
</a>
</g>
</g>
<!-- Node54&#45;&gt;Node58 -->
<g id="edge5" class="edge">
<title>Node54&#45;&gt;Node58</title>
<path fill="none" stroke="#191970" d="M160.1543,-195.0643C173.166,-185.1577 188.3114,-173.6265 200.1105,-164.6432"/>
<polygon fill="#191970" stroke="#191970" points="157.8048,-192.4542 151.9686,-201.2967 162.0452,-198.0237 157.8048,-192.4542"/>
</g>
<!-- Node55&#45;&gt;Node56 -->
<g id="edge2" class="edge">
<title>Node55&#45;&gt;Node56</title>
<path fill="none" stroke="#191970" d="M57.6378,-124.3179C59.6474,-115.3414 61.8475,-105.5143 63.6097,-97.6432"/>
<polygon fill="#191970" stroke="#191970" points="54.1731,-123.7735 55.4037,-134.2967 61.004,-125.3029 54.1731,-123.7735"/>
</g>
<!-- Node57 -->
<g id="node4" class="node">
<title>Node57</title>
<g id="a_node4"><a xlink:href="relax_2ir_8h.html" target="_top" xlink:title="include/tvm/script\l/ir_builder/relax/ir.h">
<polygon fill="#ffffff" stroke="#000000" points="11.5,-.5 11.5,-30.5 122.5,-30.5 122.5,-.5 11.5,-.5"/>
<text text-anchor="start" x="19.5" y="-18.5" font-family="Helvetica,sans-Serif" font-size="10.00" fill="#000000">include/tvm/script</text>
<text text-anchor="middle" x="67" y="-7.5" font-family="Helvetica,sans-Serif" font-size="10.00" fill="#000000">/ir_builder/relax/ir.h</text>
</a>
</g>
</g>
<!-- Node56&#45;&gt;Node57 -->
<g id="edge3" class="edge">
<title>Node56&#45;&gt;Node57</title>
<path fill="none" stroke="#191970" d="M67,-57.0249C67,-48.128 67,-38.4287 67,-30.6432"/>
<polygon fill="#191970" stroke="#191970" points="63.5001,-57.2966 67,-67.2967 70.5001,-57.2967 63.5001,-57.2966"/>
</g>
<!-- Node59 -->
<g id="node6" class="node">
<title>Node59</title>
<g id="a_node6"><a xlink:href="tir_2ir_8h.html" target="_top" xlink:title="include/tvm/script\l/ir_builder/tir/ir.h">
<polygon fill="#ffffff" stroke="#000000" points="168,-67.5 168,-97.5 272,-97.5 272,-67.5 168,-67.5"/>
<text text-anchor="start" x="176" y="-85.5" font-family="Helvetica,sans-Serif" font-size="10.00" fill="#000000">include/tvm/script</text>
<text text-anchor="middle" x="220" y="-74.5" font-family="Helvetica,sans-Serif" font-size="10.00" fill="#000000">/ir_builder/tir/ir.h</text>
</a>
</g>
</g>
<!-- Node58&#45;&gt;Node59 -->
<g id="edge6" class="edge">
<title>Node58&#45;&gt;Node59</title>
<path fill="none" stroke="#191970" d="M220,-124.0249C220,-115.128 220,-105.4287 220,-97.6432"/>
<polygon fill="#191970" stroke="#191970" points="216.5001,-124.2966 220,-134.2967 223.5001,-124.2967 216.5001,-124.2966"/>
</g>
</g>
</svg>
