<?xml version="1.0" encoding="UTF-8" standalone="no"?>
<!DOCTYPE svg PUBLIC "-//W3C//DTD SVG 1.1//EN"
 "http://www.w3.org/Graphics/SVG/1.1/DTD/svg11.dtd">
<!-- Generated by graphviz version 2.40.1 (20161225.0304)
 -->
<!-- Title: include/tvm/ir/type.h Pages: 1 -->
<svg width="3530pt" height="687pt"
 viewBox="0.00 0.00 3529.50 687.00" xmlns="http://www.w3.org/2000/svg" xmlns:xlink="http://www.w3.org/1999/xlink">
<g id="graph0" class="graph" transform="scale(1 1) rotate(0) translate(4 683)">
<title>include/tvm/ir/type.h</title>
<polygon fill="#ffffff" stroke="transparent" points="-4,4 -4,-683 3525.5,-683 3525.5,4 -4,4"/>
<!-- Node48 -->
<g id="node1" class="node">
<title>Node48</title>
<polygon fill="#bfbfbf" stroke="#000000" points="544,-659.5 544,-678.5 662,-678.5 662,-659.5 544,-659.5"/>
<text text-anchor="middle" x="603" y="-666.5" font-family="Helvetica,sans-Serif" font-size="10.00" fill="#000000">include/tvm/ir/type.h</text>
</g>
<!-- Node49 -->
<g id="node2" class="node">
<title>Node49</title>
<g id="a_node2"><a xlink:href="ir_2adt_8h.html" target="_top" xlink:title="Algebraic data type definitions. ">
<polygon fill="#ffffff" stroke="#000000" points="463,-464 463,-483 575,-483 575,-464 463,-464"/>
<text text-anchor="middle" x="519" y="-471" font-family="Helvetica,sans-Serif" font-size="10.00" fill="#000000">include/tvm/ir/adt.h</text>
</a>
</g>
</g>
<!-- Node48&#45;&gt;Node49 -->
<g id="edge1" class="edge">
<title>Node48&#45;&gt;Node49</title>
<path fill="none" stroke="#191970" d="M594.8033,-649.9231C577.2149,-608.9883 536.3818,-513.9541 523.1907,-483.2534"/>
<polygon fill="#191970" stroke="#191970" points="591.6709,-651.499 598.8344,-659.3051 598.1024,-648.7356 591.6709,-651.499"/>
</g>
<!-- Node50 -->
<g id="node3" class="node">
<title>Node50</title>
<g id="a_node3"><a xlink:href="ir_2module_8h.html" target="_top" xlink:title="IRModule that holds the functions and type definitions. ">
<polygon fill="#ffffff" stroke="#ff0000" points="452.5,-397 452.5,-416 585.5,-416 585.5,-397 452.5,-397"/>
<text text-anchor="middle" x="519" y="-404" font-family="Helvetica,sans-Serif" font-size="10.00" fill="#000000">include/tvm/ir/module.h</text>
</a>
</g>
</g>
<!-- Node48&#45;&gt;Node50 -->
<g id="edge114" class="edge">
<title>Node48&#45;&gt;Node50</title>
<path fill="none" stroke="#191970" d="M582.5512,-652.8631C548.1323,-624.2367 479.8538,-560.778 454,-489 449.331,-476.0375 448.0024,-470.4039 454,-458 463.2757,-438.8166 483.5512,-424.6013 499.0078,-416.0213"/>
<polygon fill="#191970" stroke="#191970" points="580.5662,-655.7609 590.5258,-659.3744 584.9934,-650.3387 580.5662,-655.7609"/>
</g>
<!-- Node167 -->
<g id="node7" class="node">
<title>Node167</title>
<g id="a_node7"><a xlink:href="type__relation_8h.html" target="_top" xlink:title="Type relation and function for type inference(checking). ">
<polygon fill="#ffffff" stroke="#000000" points="478.5,-257.5 478.5,-287.5 587.5,-287.5 587.5,-257.5 478.5,-257.5"/>
<text text-anchor="start" x="486.5" y="-275.5" font-family="Helvetica,sans-Serif" font-size="10.00" fill="#000000">include/tvm/ir/type</text>
<text text-anchor="middle" x="533" y="-264.5" font-family="Helvetica,sans-Serif" font-size="10.00" fill="#000000">_relation.h</text>
</a>
</g>
</g>
<!-- Node48&#45;&gt;Node167 -->
<g id="edge117" class="edge">
<title>Node48&#45;&gt;Node167</title>
<path fill="none" stroke="#191970" d="M533.8313,-661.8901C416.2484,-647.867 190,-611.6411 190,-540.5 190,-540.5 190,-540.5 190,-406.5 190,-363.1576 206.0279,-348.178 242,-324 279.791,-298.5995 405.0739,-283.6638 478.3542,-276.8925"/>
<polygon fill="#191970" stroke="#191970" points="533.4881,-665.3738 543.8272,-663.06 534.3018,-658.4212 533.4881,-665.3738"/>
</g>
<!-- Node168 -->
<g id="node8" class="node">
<title>Node168</title>
<g id="a_node8"><a xlink:href="ir_2op_8h.html" target="_top" xlink:title="Primitive operators(builtin intrinsics) and registry for them. ">
<polygon fill="#ffffff" stroke="#ff0000" points="1898,-196 1898,-215 2006,-215 2006,-196 1898,-196"/>
<text text-anchor="middle" x="1952" y="-203" font-family="Helvetica,sans-Serif" font-size="10.00" fill="#000000">include/tvm/ir/op.h</text>
</a>
</g>
</g>
<!-- Node48&#45;&gt;Node168 -->
<g id="edge115" class="edge">
<title>Node48&#45;&gt;Node168</title>
<path fill="none" stroke="#191970" d="M672.0444,-668.8228C1085.2814,-667.4287 3216.4315,-655.424 3309,-556 3318.3885,-545.9162 3314.9001,-537.4506 3309,-525 3298.1799,-502.167 3283.1811,-506.5462 3265,-489 3166.2018,-393.6518 3184.756,-316.471 3061,-257 3013.0358,-233.9508 2222.2854,-212.3378 2006.1953,-206.8408"/>
<polygon fill="#191970" stroke="#191970" points="672.0194,-665.3228 662.031,-668.8556 672.0425,-672.3227 672.0194,-665.3228"/>
</g>
<!-- Node173 -->
<g id="node13" class="node">
<title>Node173</title>
<g id="a_node13"><a xlink:href="tir_2op_8h.html" target="_top" xlink:title="Common operators defined for Expr. ">
<polygon fill="#ffffff" stroke="#ff0000" points="2538,-134.5 2538,-153.5 2650,-153.5 2650,-134.5 2538,-134.5"/>
<text text-anchor="middle" x="2594" y="-141.5" font-family="Helvetica,sans-Serif" font-size="10.00" fill="#000000">include/tvm/tir/op.h</text>
</a>
</g>
</g>
<!-- Node48&#45;&gt;Node173 -->
<g id="edge123" class="edge">
<title>Node48&#45;&gt;Node173</title>
<path fill="none" stroke="#191970" d="M672.4706,-668.4271C1041.3723,-665.283 2762.9306,-649.2993 2999,-623 3146.0078,-606.6226 3231.5258,-670.6389 3325,-556 3453.2413,-398.7219 3239.0214,-268.7732 3052,-190 2980.838,-160.0266 2756.1235,-149.093 2650.2363,-145.5339"/>
<polygon fill="#191970" stroke="#191970" points="672.1793,-664.9293 662.2094,-668.5142 672.2387,-671.9291 672.1793,-664.9293"/>
</g>
<!-- Node196 -->
<g id="node15" class="node">
<title>Node196</title>
<g id="a_node15"><a xlink:href="relax_2type_8h.html" target="_top" xlink:title="Relax Types. ">
<polygon fill="#ffffff" stroke="#ff0000" points="1356,-196 1356,-215 1492,-215 1492,-196 1356,-196"/>
<text text-anchor="middle" x="1424" y="-203" font-family="Helvetica,sans-Serif" font-size="10.00" fill="#000000">include/tvm/relax/type.h</text>
</a>
</g>
</g>
<!-- Node48&#45;&gt;Node196 -->
<g id="edge118" class="edge">
<title>Node48&#45;&gt;Node196</title>
<path fill="none" stroke="#191970" d="M611.1567,-650.029C631.3674,-601.8628 683.3997,-470.4685 701,-355 703.0761,-341.3795 705.4714,-337.032 701,-324 694.4217,-304.8274 679.5783,-307.1726 673,-288 668.5286,-274.968 663.521,-266.9988 673,-257 724.5963,-202.5742 1272.5989,-230.4247 1347,-221 1358.4989,-219.5434 1370.8506,-217.3453 1382.2212,-215.0586"/>
<polygon fill="#191970" stroke="#191970" points="607.828,-648.9135 607.1458,-659.4864 614.2724,-651.6467 607.828,-648.9135"/>
</g>
<!-- Node197 -->
<g id="node16" class="node">
<title>Node197</title>
<g id="a_node16"><a xlink:href="executor_8h.html" target="_top" xlink:title="Object representation of Executor configuration and registry. ">
<polygon fill="#ffffff" stroke="#000000" points="132,-196 132,-215 288,-215 288,-196 132,-196"/>
<text text-anchor="middle" x="210" y="-203" font-family="Helvetica,sans-Serif" font-size="10.00" fill="#000000">include/tvm/relay/executor.h</text>
</a>
</g>
</g>
<!-- Node48&#45;&gt;Node197 -->
<g id="edge120" class="edge">
<title>Node48&#45;&gt;Node197</title>
<path fill="none" stroke="#191970" d="M533.4658,-666.1366C402.2634,-660.2425 127.9739,-645.3993 91,-623 53.7255,-600.4186 38,-584.0811 38,-540.5 38,-540.5 38,-540.5 38,-339.5 38,-270.2279 125.8923,-231.5191 176.0183,-215.0757"/>
<polygon fill="#191970" stroke="#191970" points="533.6573,-669.6484 543.8028,-666.5957 533.968,-662.6553 533.6573,-669.6484"/>
</g>
<!-- Node198 -->
<g id="node17" class="node">
<title>Node198</title>
<g id="a_node17"><a xlink:href="relay_2type_8h.html" target="_top" xlink:title="Relay typed AST nodes. ">
<polygon fill="#ffffff" stroke="#ff0000" points="1202,-196 1202,-215 1338,-215 1338,-196 1202,-196"/>
<text text-anchor="middle" x="1270" y="-203" font-family="Helvetica,sans-Serif" font-size="10.00" fill="#000000">include/tvm/relay/type.h</text>
</a>
</g>
</g>
<!-- Node48&#45;&gt;Node198 -->
<g id="edge121" class="edge">
<title>Node48&#45;&gt;Node198</title>
<path fill="none" stroke="#191970" d="M533.5307,-665.4388C442.5912,-659.8934 288.7915,-647.2225 238,-623 190.1924,-600.2005 152,-593.4659 152,-540.5 152,-540.5 152,-540.5 152,-339.5 152,-233.2043 959.0127,-210.8022 1201.7471,-206.4682"/>
<polygon fill="#191970" stroke="#191970" points="533.5648,-668.947 543.7555,-666.0485 533.9815,-661.9594 533.5648,-668.947"/>
</g>
<!-- Node199 -->
<g id="node18" class="node">
<title>Node199</title>
<g id="a_node18"><a xlink:href="runtime_8h.html" target="_top" xlink:title="Object representation of Runtime configuration and registry. ">
<polygon fill="#ffffff" stroke="#000000" points="449,-196 449,-215 601,-215 601,-196 449,-196"/>
<text text-anchor="middle" x="525" y="-203" font-family="Helvetica,sans-Serif" font-size="10.00" fill="#000000">include/tvm/relay/runtime.h</text>
</a>
</g>
</g>
<!-- Node48&#45;&gt;Node199 -->
<g id="edge122" class="edge">
<title>Node48&#45;&gt;Node199</title>
<path fill="none" stroke="#191970" d="M533.3065,-665.1946C411.9793,-658.1161 171.6199,-641.9145 138,-623 98.0254,-600.5103 76,-586.3667 76,-540.5 76,-540.5 76,-540.5 76,-339.5 76,-293.6333 98.41,-280.1599 138,-257 189.1914,-227.0534 351.2398,-213.9834 448.6612,-208.7107"/>
<polygon fill="#191970" stroke="#191970" points="533.4182,-668.7068 543.6036,-665.7901 533.8224,-661.7185 533.4182,-668.7068"/>
</g>
<!-- Node217 -->
<g id="node25" class="node">
<title>Node217</title>
<g id="a_node25"><a xlink:href="affine__type_8h.html" target="_top" xlink:title="Quantized Tensor Types. ">
<polygon fill="#ffffff" stroke="#000000" points="3184.5,-525.5 3184.5,-555.5 3299.5,-555.5 3299.5,-525.5 3184.5,-525.5"/>
<text text-anchor="start" x="3192.5" y="-543.5" font-family="Helvetica,sans-Serif" font-size="10.00" fill="#000000">include/tvm/ir/affine</text>
<text text-anchor="middle" x="3242" y="-532.5" font-family="Helvetica,sans-Serif" font-size="10.00" fill="#000000">_type.h</text>
</a>
</g>
</g>
<!-- Node48&#45;&gt;Node217 -->
<g id="edge36" class="edge">
<title>Node48&#45;&gt;Node217</title>
<path fill="none" stroke="#191970" d="M672.1172,-666.9399C865.0918,-661.1003 1426.0711,-643.5256 1892,-623 2460.2289,-597.9678 2606.1837,-630.9793 3170,-556 3174.6897,-555.3763 3179.5278,-554.6092 3184.3734,-553.753"/>
<polygon fill="#191970" stroke="#191970" points="672.0045,-663.4416 662.1148,-667.242 672.216,-670.4384 672.0045,-663.4416"/>
</g>
<!-- Node218 -->
<g id="node26" class="node">
<title>Node218</title>
<g id="a_node26"><a xlink:href="ir_2expr_8h.html" target="_top" xlink:title="Base expr nodes in TVM. ">
<polygon fill="#ffffff" stroke="#000000" points="1765.5,-598 1765.5,-617 1882.5,-617 1882.5,-598 1765.5,-598"/>
<text text-anchor="middle" x="1824" y="-605" font-family="Helvetica,sans-Serif" font-size="10.00" fill="#000000">include/tvm/ir/expr.h</text>
</a>
</g>
</g>
<!-- Node48&#45;&gt;Node218 -->
<g id="edge37" class="edge">
<title>Node48&#45;&gt;Node218</title>
<path fill="none" stroke="#191970" d="M672.364,-665.5062C890.8954,-654.4991 1562.5834,-620.6672 1765.4062,-610.4513"/>
<polygon fill="#191970" stroke="#191970" points="672.1152,-662.0142 662.304,-666.0129 672.4674,-669.0054 672.1152,-662.0142"/>
</g>
<!-- Node247 -->
<g id="node37" class="node">
<title>Node247</title>
<g id="a_node37"><a xlink:href="tensor__type_8h.html" target="_top" xlink:title="Polymorphic tensor types. ">
<polygon fill="#ffffff" stroke="#000000" points="1031,-391.5 1031,-421.5 1149,-421.5 1149,-391.5 1031,-391.5"/>
<text text-anchor="start" x="1039" y="-409.5" font-family="Helvetica,sans-Serif" font-size="10.00" fill="#000000">include/tvm/ir/tensor</text>
<text text-anchor="middle" x="1090" y="-398.5" font-family="Helvetica,sans-Serif" font-size="10.00" fill="#000000">_type.h</text>
</a>
</g>
</g>
<!-- Node48&#45;&gt;Node247 -->
<g id="edge116" class="edge">
<title>Node48&#45;&gt;Node247</title>
<path fill="none" stroke="#191970" d="M629.9022,-654.4994C714.636,-608.8266 975.4851,-468.2252 1061.8809,-421.6566"/>
<polygon fill="#191970" stroke="#191970" points="628.0522,-651.5204 620.9102,-659.3462 631.3735,-657.6823 628.0522,-651.5204"/>
</g>
<!-- Node263 -->
<g id="node50" class="node">
<title>Node263</title>
<g id="a_node50"><a xlink:href="type__analysis_8h.html" target="_top" xlink:title="Relax type analysis APIs. ">
<polygon fill="#ffffff" stroke="#000000" points="3394.5,-592.5 3394.5,-622.5 3521.5,-622.5 3521.5,-592.5 3394.5,-592.5"/>
<text text-anchor="start" x="3402.5" y="-610.5" font-family="Helvetica,sans-Serif" font-size="10.00" fill="#000000">include/tvm/relax/type</text>
<text text-anchor="middle" x="3458" y="-599.5" font-family="Helvetica,sans-Serif" font-size="10.00" fill="#000000">_analysis.h</text>
</a>
</g>
</g>
<!-- Node48&#45;&gt;Node263 -->
<g id="edge119" class="edge">
<title>Node48&#45;&gt;Node263</title>
<path fill="none" stroke="#191970" d="M672.2018,-668.5982C1074.4922,-666.1632 3103.7699,-652.4919 3380,-623 3384.6677,-622.5017 3389.4713,-621.8623 3394.2926,-621.1281"/>
<polygon fill="#191970" stroke="#191970" points="672.1438,-665.0984 662.1651,-668.6586 672.186,-672.0982 672.1438,-665.0984"/>
</g>
<!-- Node49&#45;&gt;Node50 -->
<g id="edge2" class="edge">
<title>Node49&#45;&gt;Node50</title>
<path fill="none" stroke="#191970" d="M519,-453.6079C519,-441.214 519,-425.8263 519,-416.0817"/>
<polygon fill="#191970" stroke="#191970" points="515.5001,-453.9005 519,-463.9005 522.5001,-453.9006 515.5001,-453.9005"/>
</g>
<!-- Node137 -->
<g id="node12" class="node">
<title>Node137</title>
<g id="a_node12"><a xlink:href="relay_2adt_8h.html" target="_top" xlink:title="Algebraic data types for Relay. ">
<polygon fill="#ffffff" stroke="#ff0000" points="1445,-73 1445,-92 1575,-92 1575,-73 1445,-73"/>
<text text-anchor="middle" x="1510" y="-80" font-family="Helvetica,sans-Serif" font-size="10.00" fill="#000000">include/tvm/relay/adt.h</text>
</a>
</g>
</g>
<!-- Node49&#45;&gt;Node137 -->
<g id="edge35" class="edge">
<title>Node49&#45;&gt;Node137</title>
<path fill="none" stroke="#191970" d="M452.7953,-462.2556C312.9059,-436.6166 0,-368.5339 0,-272.5 0,-272.5 0,-272.5 0,-205.5 0,-131.8952 1154.8038,-92.9601 1444.6325,-84.3474"/>
<polygon fill="#191970" stroke="#191970" points="452.5006,-465.7592 462.9648,-464.1004 453.7502,-458.8716 452.5006,-465.7592"/>
</g>
<!-- Node51 -->
<g id="node4" class="node">
<title>Node51</title>
<g id="a_node4"><a xlink:href="driver__api_8h.html" target="_top" xlink:title="Compiler driver APIs to drive the compilation. ">
<polygon fill="#ffffff" stroke="#000000" points="852,-257.5 852,-287.5 958,-287.5 958,-257.5 852,-257.5"/>
<text text-anchor="start" x="860" y="-275.5" font-family="Helvetica,sans-Serif" font-size="10.00" fill="#000000">include/tvm/driver</text>
<text text-anchor="middle" x="905" y="-264.5" font-family="Helvetica,sans-Serif" font-size="10.00" fill="#000000">/driver_api.h</text>
</a>
</g>
</g>
<!-- Node50&#45;&gt;Node51 -->
<g id="edge3" class="edge">
<title>Node50&#45;&gt;Node51</title>
<path fill="none" stroke="#191970" d="M442.003,-399.8396C381.5944,-392.8299 304.5551,-379.3269 285,-355 276.3679,-344.2615 275.5765,-334.0511 285,-324 327.494,-278.6761 781.6131,-297.5732 843,-288 845.8503,-287.5555 848.7611,-287.0414 851.6909,-286.4764"/>
<polygon fill="#191970" stroke="#191970" points="441.9788,-403.3586 452.3059,-400.9917 442.7568,-396.4019 441.9788,-403.3586"/>
</g>
<!-- Node52 -->
<g id="node5" class="node">
<title>Node52</title>
<g id="a_node5"><a xlink:href="diagnostic_8h.html" target="_top" xlink:title="A new diagnostic interface for TVM error reporting. ">
<polygon fill="#ffffff" stroke="#ff0000" points="546,-330 546,-349 692,-349 692,-330 546,-330"/>
<text text-anchor="middle" x="619" y="-337" font-family="Helvetica,sans-Serif" font-size="10.00" fill="#000000">include/tvm/ir/diagnostic.h</text>
</a>
</g>
</g>
<!-- Node50&#45;&gt;Node52 -->
<g id="edge4" class="edge">
<title>Node50&#45;&gt;Node52</title>
<path fill="none" stroke="#191970" d="M541.8562,-391.1864C561.1922,-378.2312 588.2996,-360.0693 604.699,-349.0817"/>
<polygon fill="#191970" stroke="#191970" points="539.6871,-388.4266 533.3276,-396.9005 543.5834,-394.242 539.6871,-388.4266"/>
</g>
<!-- Node50&#45;&gt;Node167 -->
<g id="edge26" class="edge">
<title>Node50&#45;&gt;Node167</title>
<path fill="none" stroke="#191970" d="M521.0695,-386.6918C523.8906,-359.6902 528.882,-311.915 531.4212,-287.611"/>
<polygon fill="#191970" stroke="#191970" points="517.565,-386.5535 520.0068,-396.8631 524.5271,-387.2809 517.565,-386.5535"/>
</g>
<!-- Node113 -->
<g id="node9" class="node">
<title>Node113</title>
<g id="a_node9"><a xlink:href="relay_2expr_8h.html" target="_top" xlink:title="Relay expression language. ">
<polygon fill="#ffffff" stroke="#ff0000" points="1548.5,-134.5 1548.5,-153.5 1683.5,-153.5 1683.5,-134.5 1548.5,-134.5"/>
<text text-anchor="middle" x="1616" y="-141.5" font-family="Helvetica,sans-Serif" font-size="10.00" fill="#000000">include/tvm/relay/expr.h</text>
</a>
</g>
</g>
<!-- Node50&#45;&gt;Node113 -->
<g id="edge29" class="edge">
<title>Node50&#45;&gt;Node113</title>
<path fill="none" stroke="#191970" d="M499.023,-390.3733C488.2303,-380.9106 475.2588,-368.2369 466,-355 423.4488,-294.1666 386.9695,-241.9526 440,-190 479.7496,-151.0584 1303.6484,-145.0821 1548.1664,-144.1658"/>
<polygon fill="#191970" stroke="#191970" points="496.8663,-393.1337 506.7539,-396.9398 501.3979,-387.7984 496.8663,-393.1337"/>
</g>
<!-- Node200 -->
<g id="node19" class="node">
<title>Node200</title>
<g id="a_node19"><a xlink:href="error_8h.html" target="_top" xlink:title="Utilities for error tracking and reporting. ">
<polygon fill="#ffffff" stroke="#ff0000" points="294.5,-330 294.5,-349 413.5,-349 413.5,-330 294.5,-330"/>
<text text-anchor="middle" x="354" y="-337" font-family="Helvetica,sans-Serif" font-size="10.00" fill="#000000">include/tvm/ir/error.h</text>
</a>
</g>
</g>
<!-- Node50&#45;&gt;Node200 -->
<g id="edge23" class="edge">
<title>Node50&#45;&gt;Node200</title>
<path fill="none" stroke="#191970" d="M485.9522,-393.0806C453.8792,-380.057 406.0025,-360.6162 377.5966,-349.0817"/>
<polygon fill="#191970" stroke="#191970" points="484.7774,-396.3811 495.3595,-396.9005 487.4111,-389.8954 484.7774,-396.3811"/>
</g>
<!-- Node201 -->
<g id="node20" class="node">
<title>Node201</title>
<g id="a_node20"><a xlink:href="global__var__supply_8h.html" target="_top" xlink:title="GlobalVarSupply that can be used to generate unique. ">
<polygon fill="#ffffff" stroke="#000000" points="950.5,-324.5 950.5,-354.5 1067.5,-354.5 1067.5,-324.5 950.5,-324.5"/>
<text text-anchor="start" x="958.5" y="-342.5" font-family="Helvetica,sans-Serif" font-size="10.00" fill="#000000">include/tvm/ir/global</text>
<text text-anchor="middle" x="1009" y="-331.5" font-family="Helvetica,sans-Serif" font-size="10.00" fill="#000000">_var_supply.h</text>
</a>
</g>
</g>
<!-- Node50&#45;&gt;Node201 -->
<g id="edge24" class="edge">
<title>Node50&#45;&gt;Node201</title>
<path fill="none" stroke="#191970" d="M595.6536,-399.0387C679.5219,-390.4087 817.7838,-374.8123 936,-355 940.6001,-354.2291 945.35,-353.3684 950.1166,-352.4586"/>
<polygon fill="#191970" stroke="#191970" points="595.2925,-395.5573 585.7004,-400.0564 596.0046,-402.521 595.2925,-395.5573"/>
</g>
<!-- Node80 -->
<g id="node21" class="node">
<title>Node80</title>
<g id="a_node21"><a xlink:href="database_8h.html" target="_top" xlink:title="include/tvm/meta_schedule\l/database.h">
<polygon fill="#ffffff" stroke="#ff0000" points="682,-257.5 682,-287.5 834,-287.5 834,-257.5 682,-257.5"/>
<text text-anchor="start" x="690" y="-275.5" font-family="Helvetica,sans-Serif" font-size="10.00" fill="#000000">include/tvm/meta_schedule</text>
<text text-anchor="middle" x="758" y="-264.5" font-family="Helvetica,sans-Serif" font-size="10.00" fill="#000000">/database.h</text>
</a>
</g>
</g>
<!-- Node50&#45;&gt;Node80 -->
<g id="edge27" class="edge">
<title>Node50&#45;&gt;Node80</title>
<path fill="none" stroke="#191970" d="M441.8763,-396.6649C367.408,-386.3783 264.1456,-369.7122 252,-355 243.2286,-344.3751 242.764,-334.2237 252,-324 253.7862,-322.0228 540.8476,-293.7195 681.7476,-279.936"/>
<polygon fill="#191970" stroke="#191970" points="441.7986,-400.1868 452.1805,-398.0732 442.7466,-393.2512 441.7986,-400.1868"/>
</g>
<!-- Node79 -->
<g id="node22" class="node">
<title>Node79</title>
<g id="a_node22"><a xlink:href="tune__context_8h.html" target="_top" xlink:title="include/tvm/meta_schedule\l/tune_context.h">
<polygon fill="#ffffff" stroke="#ff0000" points="1112,-257.5 1112,-287.5 1264,-287.5 1264,-257.5 1112,-257.5"/>
<text text-anchor="start" x="1120" y="-275.5" font-family="Helvetica,sans-Serif" font-size="10.00" fill="#000000">include/tvm/meta_schedule</text>
<text text-anchor="middle" x="1188" y="-264.5" font-family="Helvetica,sans-Serif" font-size="10.00" fill="#000000">/tune_context.h</text>
</a>
</g>
</g>
<!-- Node50&#45;&gt;Node79 -->
<g id="edge28" class="edge">
<title>Node50&#45;&gt;Node79</title>
<path fill="none" stroke="#191970" d="M595.9248,-401.0453C691.7038,-393.4169 849.258,-377.8779 903,-355 923.3729,-346.3273 921.9574,-333.4109 942,-324 957.4038,-316.7672 1045.3833,-299.2255 1111.7669,-286.6247"/>
<polygon fill="#191970" stroke="#191970" points="595.4044,-397.5753 585.7091,-401.8476 595.9525,-404.5538 595.4044,-397.5753"/>
</g>
<!-- Node62 -->
<g id="node23" class="node">
<title>Node62</title>
<g id="a_node23"><a xlink:href="target_8h.html" target="_top" xlink:title="Compilation target object. ">
<polygon fill="#ffffff" stroke="#ff0000" points="786.5,-324.5 786.5,-354.5 893.5,-354.5 893.5,-324.5 786.5,-324.5"/>
<text text-anchor="start" x="794.5" y="-342.5" font-family="Helvetica,sans-Serif" font-size="10.00" fill="#000000">include/tvm/target</text>
<text text-anchor="middle" x="840" y="-331.5" font-family="Helvetica,sans-Serif" font-size="10.00" fill="#000000">/target.h</text>
</a>
</g>
</g>
<!-- Node50&#45;&gt;Node62 -->
<g id="edge30" class="edge">
<title>Node50&#45;&gt;Node62</title>
<path fill="none" stroke="#191970" d="M574.6192,-394.891C634.1132,-382.4733 727.8088,-362.9169 786.4822,-350.6704"/>
<polygon fill="#191970" stroke="#191970" points="573.7245,-391.5022 564.6506,-396.9717 575.1548,-398.3546 573.7245,-391.5022"/>
</g>
<!-- Node53 -->
<g id="node6" class="node">
<title>Node53</title>
<g id="a_node6"><a xlink:href="iter__affine__map_8h.html" target="_top" xlink:title="Iterator quasi&#45;affine mapping patterns. ">
<polygon fill="#ffffff" stroke="#000000" points="2717.5,-190.5 2717.5,-220.5 2836.5,-220.5 2836.5,-190.5 2717.5,-190.5"/>
<text text-anchor="start" x="2725.5" y="-208.5" font-family="Helvetica,sans-Serif" font-size="10.00" fill="#000000">include/tvm/arith/iter</text>
<text text-anchor="middle" x="2777" y="-197.5" font-family="Helvetica,sans-Serif" font-size="10.00" fill="#000000">_affine_map.h</text>
</a>
</g>
</g>
<!-- Node52&#45;&gt;Node53 -->
<g id="edge5" class="edge">
<title>Node52&#45;&gt;Node53</title>
<path fill="none" stroke="#191970" d="M625.4628,-320.3371C633.2818,-300.5235 648.5293,-270.619 673,-257 684.4832,-250.6091 2376.4135,-214.0731 2717.4917,-206.7702"/>
<polygon fill="#191970" stroke="#191970" points="622.1168,-319.2955 621.9564,-329.8891 628.6881,-321.7077 622.1168,-319.2955"/>
</g>
<!-- Node52&#45;&gt;Node167 -->
<g id="edge6" class="edge">
<title>Node52&#45;&gt;Node167</title>
<path fill="none" stroke="#191970" d="M598.6058,-323.6115C584.5775,-312.6825 566.0641,-298.2592 552.2817,-287.5218"/>
<polygon fill="#191970" stroke="#191970" points="596.6387,-326.5158 606.6783,-329.9005 600.9407,-320.9937 596.6387,-326.5158"/>
</g>
<!-- Node167&#45;&gt;Node168 -->
<g id="edge7" class="edge">
<title>Node167&#45;&gt;Node168</title>
<path fill="none" stroke="#191970" d="M597.5847,-262.0326C611.5404,-260.0823 626.2375,-258.2634 640,-257 703.4887,-251.1716 1658.2552,-216.1898 1897.8041,-207.4685"/>
<polygon fill="#191970" stroke="#191970" points="596.9786,-258.5836 587.5778,-263.4698 597.9739,-265.5125 596.9786,-258.5836"/>
</g>
<!-- Node167&#45;&gt;Node196 -->
<g id="edge15" class="edge">
<title>Node167&#45;&gt;Node196</title>
<path fill="none" stroke="#191970" d="M598.0673,-257.564C599.3877,-257.3646 600.6997,-257.1761 602,-257 930.4979,-212.5062 1018.0259,-261.8242 1347,-221 1358.6379,-219.5558 1371.1463,-217.3327 1382.627,-215.017"/>
<polygon fill="#191970" stroke="#191970" points="597.1134,-254.1752 587.8325,-259.2855 598.2745,-261.0782 597.1134,-254.1752"/>
</g>
<!-- Node167&#45;&gt;Node197 -->
<g id="edge18" class="edge">
<title>Node167&#45;&gt;Node197</title>
<path fill="none" stroke="#191970" d="M468.3907,-259.0981C405.4944,-246.0515 311.4935,-226.5528 255.8989,-215.0208"/>
<polygon fill="#191970" stroke="#191970" points="467.705,-262.5303 478.2075,-261.1344 469.1268,-255.6762 467.705,-262.5303"/>
</g>
<!-- Node167&#45;&gt;Node198 -->
<g id="edge19" class="edge">
<title>Node167&#45;&gt;Node198</title>
<path fill="none" stroke="#191970" d="M598.0746,-257.6152C599.3928,-257.4002 600.7024,-257.1947 602,-257 819.6911,-224.3315 1080.5859,-211.819 1201.8384,-207.515"/>
<polygon fill="#191970" stroke="#191970" points="597.0875,-254.2357 587.853,-259.4295 598.3108,-261.1279 597.0875,-254.2357"/>
</g>
<!-- Node167&#45;&gt;Node199 -->
<g id="edge22" class="edge">
<title>Node167&#45;&gt;Node199</title>
<path fill="none" stroke="#191970" d="M529.9695,-247.1199C528.6307,-235.9072 527.1377,-223.4031 526.1409,-215.055"/>
<polygon fill="#191970" stroke="#191970" points="526.5237,-247.7822 531.1847,-257.2967 533.4743,-246.9522 526.5237,-247.7822"/>
</g>
<!-- Node168&#45;&gt;Node113 -->
<g id="edge8" class="edge">
<title>Node168&#45;&gt;Node113</title>
<path fill="none" stroke="#191970" d="M1901.8171,-193.7394C1895.823,-192.4299 1889.7812,-191.1542 1884,-190 1813.2849,-175.8825 1731.5432,-162.235 1677.1101,-153.5229"/>
<polygon fill="#191970" stroke="#191970" points="1901.2843,-197.2063 1911.8054,-195.9592 1902.803,-190.373 1901.2843,-197.2063"/>
</g>
<!-- Node168&#45;&gt;Node173 -->
<g id="edge12" class="edge">
<title>Node168&#45;&gt;Node173</title>
<path fill="none" stroke="#191970" d="M2016.4365,-199.3273C2142.3316,-187.2673 2419.0244,-160.7617 2537.9077,-149.3733"/>
<polygon fill="#191970" stroke="#191970" points="2015.8039,-195.8718 2006.1833,-200.3095 2016.4715,-202.8399 2015.8039,-195.8718"/>
</g>
<!-- Node115 -->
<g id="node10" class="node">
<title>Node115</title>
<g id="a_node10"><a xlink:href="relax_2expr_8h.html" target="_top" xlink:title="include/tvm/relax/expr.h">
<polygon fill="#ffffff" stroke="#ff0000" points="2191.5,-73 2191.5,-92 2326.5,-92 2326.5,-73 2191.5,-73"/>
<text text-anchor="middle" x="2259" y="-80" font-family="Helvetica,sans-Serif" font-size="10.00" fill="#000000">include/tvm/relax/expr.h</text>
</a>
</g>
</g>
<!-- Node113&#45;&gt;Node115 -->
<g id="edge9" class="edge">
<title>Node113&#45;&gt;Node115</title>
<path fill="none" stroke="#191970" d="M1693.6467,-136.5735C1820.7437,-124.4172 2071.064,-100.4752 2191.3439,-88.971"/>
<polygon fill="#191970" stroke="#191970" points="1693.2183,-133.0984 1683.597,-137.5347 1693.8848,-140.0666 1693.2183,-133.0984"/>
</g>
<!-- Node113&#45;&gt;Node137 -->
<g id="edge11" class="edge">
<title>Node113&#45;&gt;Node137</title>
<path fill="none" stroke="#191970" d="M1590.5919,-129.2585C1570.6909,-117.7122 1543.5926,-101.99 1526.4462,-92.0419"/>
<polygon fill="#191970" stroke="#191970" points="1589.0314,-132.3995 1599.4375,-134.3906 1592.5443,-126.3448 1589.0314,-132.3995"/>
</g>
<!-- Node133 -->
<g id="node11" class="node">
<title>Node133</title>
<g id="a_node11"><a xlink:href="relax_2dataflow__pattern_8h.html" target="_top" xlink:title="A pattern language for matching dataflow properties. ">
<polygon fill="#ffffff" stroke="#ff0000" points="2038.5,-.5 2038.5,-30.5 2185.5,-30.5 2185.5,-.5 2038.5,-.5"/>
<text text-anchor="start" x="2046.5" y="-18.5" font-family="Helvetica,sans-Serif" font-size="10.00" fill="#000000">include/tvm/relax/dataflow</text>
<text text-anchor="middle" x="2112" y="-7.5" font-family="Helvetica,sans-Serif" font-size="10.00" fill="#000000">_pattern.h</text>
</a>
</g>
</g>
<!-- Node115&#45;&gt;Node133 -->
<g id="edge10" class="edge">
<title>Node115&#45;&gt;Node133</title>
<path fill="none" stroke="#191970" d="M2228.7857,-68.7289C2204.3764,-57.6035 2170.0723,-41.9683 2144.9582,-30.5218"/>
<polygon fill="#191970" stroke="#191970" points="2227.3875,-71.9379 2237.9385,-72.9005 2230.2906,-65.5683 2227.3875,-71.9379"/>
</g>
<!-- Node173&#45;&gt;Node115 -->
<g id="edge14" class="edge">
<title>Node173&#45;&gt;Node115</title>
<path fill="none" stroke="#191970" d="M2532.1174,-132.6395C2468.486,-120.9579 2370.505,-102.9703 2310.8225,-92.0137"/>
<polygon fill="#191970" stroke="#191970" points="2531.5562,-136.0948 2542.0238,-134.4581 2532.8202,-129.2099 2531.5562,-136.0948"/>
</g>
<!-- Node174 -->
<g id="node14" class="node">
<title>Node174</title>
<g id="a_node14"><a xlink:href="int__solver_8h.html" target="_top" xlink:title="integer constraints data structures and solvers ">
<polygon fill="#ffffff" stroke="#000000" points="2699,-67.5 2699,-97.5 2815,-97.5 2815,-67.5 2699,-67.5"/>
<text text-anchor="start" x="2707" y="-85.5" font-family="Helvetica,sans-Serif" font-size="10.00" fill="#000000">include/tvm/arith/int</text>
<text text-anchor="middle" x="2757" y="-74.5" font-family="Helvetica,sans-Serif" font-size="10.00" fill="#000000">_solver.h</text>
</a>
</g>
</g>
<!-- Node173&#45;&gt;Node174 -->
<g id="edge13" class="edge">
<title>Node173&#45;&gt;Node174</title>
<path fill="none" stroke="#191970" d="M2628.891,-130.8356C2654.7798,-121.0678 2690.1203,-107.7338 2717.1257,-97.5446"/>
<polygon fill="#191970" stroke="#191970" points="2627.5894,-127.5858 2619.4688,-134.3906 2630.0605,-134.1351 2627.5894,-127.5858"/>
</g>
<!-- Node196&#45;&gt;Node115 -->
<g id="edge17" class="edge">
<title>Node196&#45;&gt;Node115</title>
<path fill="none" stroke="#191970" d="M1443.0845,-189.6615C1464.9597,-172.5281 1502.6313,-146.0502 1540,-134 1659.9999,-95.3038 2036.5438,-85.6175 2191.4305,-83.2471"/>
<polygon fill="#191970" stroke="#191970" points="1440.8664,-186.9538 1435.2459,-195.9349 1445.2403,-192.419 1440.8664,-186.9538"/>
</g>
<!-- Node196&#45;&gt;Node133 -->
<g id="edge16" class="edge">
<title>Node196&#45;&gt;Node133</title>
<path fill="none" stroke="#191970" d="M1418.7646,-185.9475C1412.0021,-155.7868 1404.5267,-98.148 1436,-67 1457.163,-46.0558 1867.3212,-26.0414 2038.2264,-18.5755"/>
<polygon fill="#191970" stroke="#191970" points="1415.3777,-186.832 1421.1503,-195.7161 1422.1778,-185.1712 1415.3777,-186.832"/>
</g>
<!-- Node198&#45;&gt;Node113 -->
<g id="edge21" class="edge">
<title>Node198&#45;&gt;Node113</title>
<path fill="none" stroke="#191970" d="M1326.4319,-193.9431C1333.354,-192.5838 1340.3347,-191.2405 1347,-190 1419.3146,-176.5415 1502.8513,-162.489 1557.4032,-153.5127"/>
<polygon fill="#191970" stroke="#191970" points="1325.5043,-190.5588 1316.3756,-195.9362 1326.8652,-197.4253 1325.5043,-190.5588"/>
</g>
<!-- Node198&#45;&gt;Node137 -->
<g id="edge20" class="edge">
<title>Node198&#45;&gt;Node137</title>
<path fill="none" stroke="#191970" d="M1298.0072,-191.1463C1347.5289,-165.7664 1449.2776,-113.6202 1491.2551,-92.1068"/>
<polygon fill="#191970" stroke="#191970" points="1296.1354,-188.1727 1288.8324,-195.8484 1299.3281,-194.4022 1296.1354,-188.1727"/>
</g>
<!-- Node201&#45;&gt;Node51 -->
<g id="edge25" class="edge">
<title>Node201&#45;&gt;Node51</title>
<path fill="none" stroke="#191970" d="M976.861,-318.7951C961.2777,-308.7558 942.8939,-296.9124 928.6216,-287.7177"/>
<polygon fill="#191970" stroke="#191970" points="975.3583,-321.9904 985.6604,-324.4639 979.1494,-316.1058 975.3583,-321.9904"/>
</g>
<!-- Node62&#45;&gt;Node51 -->
<g id="edge31" class="edge">
<title>Node62&#45;&gt;Node51</title>
<path fill="none" stroke="#191970" d="M861.9008,-316.9253C871.2555,-307.2828 881.9257,-296.2843 890.3089,-287.6432"/>
<polygon fill="#191970" stroke="#191970" points="859.2006,-314.6821 854.7495,-324.2967 864.2248,-319.5564 859.2006,-314.6821"/>
</g>
<!-- Node62&#45;&gt;Node80 -->
<g id="edge32" class="edge">
<title>Node62&#45;&gt;Node80</title>
<path fill="none" stroke="#191970" d="M813.4183,-317.7808C801.3722,-307.9383 787.4233,-296.541 776.5334,-287.6432"/>
<polygon fill="#191970" stroke="#191970" points="811.4346,-320.6797 821.3929,-324.2967 815.8637,-315.2591 811.4346,-320.6797"/>
</g>
<!-- Node62&#45;&gt;Node79 -->
<g id="edge33" class="edge">
<title>Node62&#45;&gt;Node79</title>
<path fill="none" stroke="#191970" d="M903.6191,-324.9116C905.0927,-324.6018 906.5546,-324.2975 908,-324 918.0303,-321.9354 1032.4497,-300.9552 1111.8778,-286.4191"/>
<polygon fill="#191970" stroke="#191970" points="902.8203,-321.5033 893.7762,-327.0218 904.2877,-328.3478 902.8203,-321.5033"/>
</g>
<!-- Node71 -->
<g id="node24" class="node">
<title>Node71</title>
<g id="a_node24"><a xlink:href="tir_2usmp_2utils_8h.html" target="_top" xlink:title="Utilities for Unified Static Memory Planner. ">
<polygon fill="#ffffff" stroke="#ff0000" points="976,-257.5 976,-287.5 1094,-287.5 1094,-257.5 976,-257.5"/>
<text text-anchor="start" x="984" y="-275.5" font-family="Helvetica,sans-Serif" font-size="10.00" fill="#000000">include/tvm/tir/usmp</text>
<text text-anchor="middle" x="1035" y="-264.5" font-family="Helvetica,sans-Serif" font-size="10.00" fill="#000000">/utils.h</text>
</a>
</g>
</g>
<!-- Node62&#45;&gt;Node71 -->
<g id="edge34" class="edge">
<title>Node62&#45;&gt;Node71</title>
<path fill="none" stroke="#191970" d="M893.4381,-321.1392C924.1022,-310.6033 962.1297,-297.5375 991.0473,-287.6017"/>
<polygon fill="#191970" stroke="#191970" points="892.0818,-317.9043 883.7618,-324.4639 894.3565,-324.5245 892.0818,-317.9043"/>
</g>
<!-- Node218&#45;&gt;Node49 -->
<g id="edge48" class="edge">
<title>Node218&#45;&gt;Node49</title>
<path fill="none" stroke="#191970" d="M1754.9639,-606.9406C1515.9988,-604.6733 732.862,-594.3627 627,-556 584.1868,-540.4852 544.5434,-501.4729 527.6243,-483.2111"/>
<polygon fill="#191970" stroke="#191970" points="1755.2244,-610.4431 1765.2566,-607.0365 1755.2897,-603.4434 1755.2244,-610.4431"/>
</g>
<!-- Node218&#45;&gt;Node50 -->
<g id="edge68" class="edge">
<title>Node218&#45;&gt;Node50</title>
<path fill="none" stroke="#191970" d="M1755.263,-605.8244C1518.7633,-599.8665 750.4958,-578.8387 703,-556 650.7756,-530.8875 662.5224,-493.8572 617,-458 594.05,-439.9227 563.8043,-425.1564 543.0173,-416.1423"/>
<polygon fill="#191970" stroke="#191970" points="1755.3692,-609.3281 1765.4538,-606.0801 1755.5448,-602.3303 1755.3692,-609.3281"/>
</g>
<!-- Node218&#45;&gt;Node53 -->
<g id="edge46" class="edge">
<title>Node218&#45;&gt;Node53</title>
<path fill="none" stroke="#191970" d="M1867.451,-595.7086C1874.2838,-594.2225 1881.3018,-592.9075 1888,-592 1950.5161,-583.5303 2979.1034,-601.311 3023,-556 3079.9009,-497.2657 2857.3261,-280.6278 2793.6017,-220.8599"/>
<polygon fill="#191970" stroke="#191970" points="1866.585,-592.3164 1857.6314,-597.9805 1868.163,-599.1362 1866.585,-592.3164"/>
</g>
<!-- Node218&#45;&gt;Node168 -->
<g id="edge71" class="edge">
<title>Node218&#45;&gt;Node168</title>
<path fill="none" stroke="#191970" d="M1854.1863,-592.973C1869.2195,-584.2559 1886.4021,-571.7812 1897,-556 1917.977,-524.7635 1916,-511.1265 1916,-473.5 1916,-473.5 1916,-473.5 1916,-339.5 1916,-291.3224 1937.9727,-236.6352 1947.5857,-215.0149"/>
<polygon fill="#191970" stroke="#191970" points="1852.267,-590.0337 1845.1819,-597.911 1855.633,-596.1714 1852.267,-590.0337"/>
</g>
<!-- Node218&#45;&gt;Node113 -->
<g id="edge84" class="edge">
<title>Node218&#45;&gt;Node113</title>
<path fill="none" stroke="#191970" d="M1755.3512,-602.4222C1691.3532,-596.0916 1602.615,-582.676 1581,-556 1572.3262,-545.2952 1572.0789,-535.4996 1581,-525 1645.1531,-449.4959 1714.9313,-538.0782 1801,-489 1842.524,-465.3221 1870,-454.3005 1870,-406.5 1870,-406.5 1870,-406.5 1870,-272.5 1870,-188.858 1758.9775,-159.646 1683.7337,-149.4528"/>
<polygon fill="#191970" stroke="#191970" points="1755.1093,-605.9149 1765.396,-603.3783 1755.7726,-598.9464 1755.1093,-605.9149"/>
</g>
<!-- Node218&#45;&gt;Node115 -->
<g id="edge82" class="edge">
<title>Node218&#45;&gt;Node115</title>
<path fill="none" stroke="#191970" d="M1868.8821,-595.6926C1875.2675,-594.2871 1881.7777,-592.9994 1888,-592 2083.4755,-560.603 2147.0012,-626.5116 2332,-556 2353.3466,-547.8638 2353.0443,-536.1196 2373,-525 2411.7172,-503.4263 2430.0349,-514.9028 2466,-489 2528.7532,-443.804 2550.7804,-427.7542 2577,-355 2628.6421,-211.7033 2382.7922,-120.4465 2291.7757,-92.0224"/>
<polygon fill="#191970" stroke="#191970" points="1867.965,-592.3122 1859.0096,-597.9737 1869.5409,-599.1325 1867.965,-592.3122"/>
</g>
<!-- Node218&#45;&gt;Node133 -->
<g id="edge80" class="edge">
<title>Node218&#45;&gt;Node133</title>
<path fill="none" stroke="#191970" d="M1861.1616,-593.9605C1880.1869,-585.481 1902.5345,-572.9198 1918,-556 1944.9907,-526.4712 1954,-513.5056 1954,-473.5 1954,-473.5 1954,-473.5 1954,-406.5 1954,-366.6701 1966.424,-356.8138 1989,-324 2032.0262,-261.4623 2112,-281.4093 2112,-205.5 2112,-205.5 2112,-205.5 2112,-144 2112,-102.9514 2112,-54.5269 2112,-30.5351"/>
<polygon fill="#191970" stroke="#191970" points="1859.6911,-590.7823 1851.8524,-597.9101 1862.4252,-597.2264 1859.6911,-590.7823"/>
</g>
<!-- Node218&#45;&gt;Node173 -->
<g id="edge105" class="edge">
<title>Node218&#45;&gt;Node173</title>
<path fill="none" stroke="#191970" d="M1867.4497,-595.6996C1874.2827,-594.2147 1881.3011,-592.9024 1888,-592 1953.6594,-583.1551 3024.7527,-592.5666 3080,-556 3113.6636,-533.7191 3118,-513.8693 3118,-473.5 3118,-473.5 3118,-473.5 3118,-272.5 3118,-176.9589 2785.2549,-152.0877 2650.0772,-145.9257"/>
<polygon fill="#191970" stroke="#191970" points="1866.5842,-592.3073 1857.63,-597.9707 1868.1616,-599.1272 1866.5842,-592.3073"/>
</g>
<!-- Node218&#45;&gt;Node174 -->
<g id="edge45" class="edge">
<title>Node218&#45;&gt;Node174</title>
<path fill="none" stroke="#191970" d="M1867.4492,-595.6954C1874.2823,-594.2112 1881.3008,-592.9001 1888,-592 1955.2034,-582.9708 3052.4643,-594.9052 3108,-556 3192.7982,-496.5952 3194,-443.0358 3194,-339.5 3194,-339.5 3194,-339.5 3194,-205.5 3194,-127.6692 2933.9028,-96.7207 2815.0302,-86.6406"/>
<polygon fill="#191970" stroke="#191970" points="1866.5837,-592.3031 1857.6294,-597.9663 1868.1609,-599.1231 1866.5837,-592.3031"/>
</g>
<!-- Node218&#45;&gt;Node197 -->
<g id="edge83" class="edge">
<title>Node218&#45;&gt;Node197</title>
<path fill="none" stroke="#191970" d="M1755.1495,-606.0203C1512.7593,-600.6071 710.8296,-580.8911 662,-556 612.4045,-530.7185 630.7121,-488.2795 584,-458 530.0891,-423.0541 505.6372,-440.1236 444,-422 353.2542,-395.3174 305.1266,-425.44 242,-355 205.3312,-314.0831 207.0404,-241.5898 209.0381,-215.3375"/>
<polygon fill="#191970" stroke="#191970" points="1755.1687,-609.5215 1765.2441,-606.2447 1755.3243,-602.5232 1755.1687,-609.5215"/>
</g>
<!-- Node218&#45;&gt;Node199 -->
<g id="edge85" class="edge">
<title>Node218&#45;&gt;Node199</title>
<path fill="none" stroke="#191970" d="M1755.1183,-606.3346C1541.759,-602.3996 900.8856,-588.0203 813,-556 698.8294,-514.403 695.1722,-459.7806 595,-391 569.9886,-373.8266 560.7725,-373.8511 537,-355 504.0033,-328.8342 486.1156,-326.9065 470,-288 464.7275,-275.271 464.5191,-269.6407 470,-257 477.9097,-238.7576 495.8163,-224.0223 509.06,-215.0606"/>
<polygon fill="#191970" stroke="#191970" points="1755.1905,-609.8364 1765.2527,-606.5195 1755.3183,-602.8376 1755.1905,-609.8364"/>
</g>
<!-- Node218&#45;&gt;Node201 -->
<g id="edge67" class="edge">
<title>Node218&#45;&gt;Node201</title>
<path fill="none" stroke="#191970" d="M1755.377,-605.9686C1555.0318,-601.166 983.3018,-584.9697 956,-556 901.4603,-498.1284 968.6346,-393.6591 997.2594,-354.6946"/>
<polygon fill="#191970" stroke="#191970" points="1755.4053,-609.4701 1765.4856,-606.2087 1755.5716,-602.4721 1755.4053,-609.4701"/>
</g>
<!-- Node218&#45;&gt;Node80 -->
<g id="edge75" class="edge">
<title>Node218&#45;&gt;Node80</title>
<path fill="none" stroke="#191970" d="M1755.0403,-605.8006C1538.8483,-600.2189 886.4394,-581.3456 849,-556 757.1818,-493.8411 755.3433,-336.8127 757.1601,-287.5347"/>
<polygon fill="#191970" stroke="#191970" points="1755.2199,-609.3062 1765.3065,-606.0641 1755.3996,-602.3085 1755.2199,-609.3062"/>
</g>
<!-- Node218&#45;&gt;Node79 -->
<g id="edge79" class="edge">
<title>Node218&#45;&gt;Node79</title>
<path fill="none" stroke="#191970" d="M1755.3136,-605.5846C1617.9088,-601.1178 1313.8964,-587.8685 1215,-556 1159.791,-538.2094 1131.612,-539.4569 1103,-489 1096.2038,-477.015 1096.4477,-470.12 1103,-458 1116.894,-432.3 1141.6334,-446.2005 1158,-422 1186.6218,-379.6782 1189.1385,-316.1977 1188.6438,-287.5165"/>
<polygon fill="#191970" stroke="#191970" points="1755.2038,-609.0828 1765.3104,-605.9036 1755.4272,-602.0864 1755.2038,-609.0828"/>
</g>
<!-- Node218&#45;&gt;Node62 -->
<g id="edge91" class="edge">
<title>Node218&#45;&gt;Node62</title>
<path fill="none" stroke="#191970" d="M1755.1885,-605.4966C1545.5343,-599.158 926.7119,-578.6176 890,-556 831.5197,-519.9711 830.7099,-488.3655 813,-422 809.4477,-408.688 809.7057,-404.3782 813,-391 816.1862,-378.0608 823.2651,-364.7729 829.3752,-354.936"/>
<polygon fill="#191970" stroke="#191970" points="1755.3511,-609.003 1765.4519,-605.8055 1755.5617,-602.0062 1755.3511,-609.003"/>
</g>
<!-- Node218&#45;&gt;Node71 -->
<g id="edge107" class="edge">
<title>Node218&#45;&gt;Node71</title>
<path fill="none" stroke="#191970" d="M1755.3059,-605.1519C1570.9606,-598.5561 1077.4647,-578.8438 1051,-556 994.6362,-507.348 986.59,-456.4984 1022,-391 1035.894,-365.3 1063.106,-380.7 1077,-355 1089.6118,-331.6718 1068.5185,-304.1429 1051.9289,-287.5193"/>
<polygon fill="#191970" stroke="#191970" points="1755.3065,-608.6541 1765.4246,-605.5119 1755.5554,-601.6585 1755.3065,-608.6541"/>
</g>
<!-- Node218&#45;&gt;Node217 -->
<g id="edge49" class="edge">
<title>Node218&#45;&gt;Node217</title>
<path fill="none" stroke="#191970" d="M1893.0174,-606.4452C2131.3834,-602.5541 2919.0851,-587.565 3170,-556 3174.694,-555.4095 3179.5351,-554.6659 3184.3828,-553.8258"/>
<polygon fill="#191970" stroke="#191970" points="1892.6964,-602.9499 1882.7544,-606.6114 1892.8098,-609.9489 1892.6964,-602.9499"/>
</g>
<!-- Node219 -->
<g id="node27" class="node">
<title>Node219</title>
<g id="a_node27"><a xlink:href="analyzer_8h.html" target="_top" xlink:title="Algebra expression simplifications. ">
<polygon fill="#ffffff" stroke="#ff0000" points="2898.5,-263 2898.5,-282 3051.5,-282 3051.5,-263 2898.5,-263"/>
<text text-anchor="middle" x="2975" y="-270" font-family="Helvetica,sans-Serif" font-size="10.00" fill="#000000">include/tvm/arith/analyzer.h</text>
</a>
</g>
</g>
<!-- Node218&#45;&gt;Node219 -->
<g id="edge38" class="edge">
<title>Node218&#45;&gt;Node219</title>
<path fill="none" stroke="#191970" d="M1867.4502,-595.7032C1874.2832,-594.2179 1881.3014,-592.9045 1888,-592 1952.3359,-583.3131 3004.6844,-595.7652 3056,-556 3086.1846,-532.6095 3080,-511.6867 3080,-473.5 3080,-473.5 3080,-473.5 3080,-406.5 3080,-349.1629 3019.7006,-301.7738 2990.4931,-282.1829"/>
<polygon fill="#191970" stroke="#191970" points="1866.5845,-592.311 1857.6306,-597.9747 1868.1621,-599.1309 1866.5845,-592.311"/>
</g>
<!-- Node220 -->
<g id="node28" class="node">
<title>Node220</title>
<g id="a_node28"><a xlink:href="bound_8h.html" target="_top" xlink:title="Bound deducers. ">
<polygon fill="#ffffff" stroke="#ff0000" points="2140,-263 2140,-282 2282,-282 2282,-263 2140,-263"/>
<text text-anchor="middle" x="2211" y="-270" font-family="Helvetica,sans-Serif" font-size="10.00" fill="#000000">include/tvm/arith/bound.h</text>
</a>
</g>
</g>
<!-- Node218&#45;&gt;Node220 -->
<g id="edge41" class="edge">
<title>Node218&#45;&gt;Node220</title>
<path fill="none" stroke="#191970" d="M1872.69,-595.203C1909.0269,-585.1142 1954.6088,-570.2251 1968,-556 1994.1749,-528.1953 1992,-511.6867 1992,-473.5 1992,-473.5 1992,-473.5 1992,-406.5 1992,-368.7713 1985.528,-350.8829 2012,-324 2022.7356,-313.0978 2108.3974,-293.6899 2163.778,-282.0654"/>
<polygon fill="#191970" stroke="#191970" points="1871.4503,-591.913 1862.7207,-597.9167 1873.2889,-598.6673 1871.4503,-591.913"/>
</g>
<!-- Node221 -->
<g id="node29" class="node">
<title>Node221</title>
<g id="a_node29"><a xlink:href="int__set_8h.html" target="_top" xlink:title="Integer set. ">
<polygon fill="#ffffff" stroke="#000000" points="2452,-324.5 2452,-354.5 2568,-354.5 2568,-324.5 2452,-324.5"/>
<text text-anchor="start" x="2460" y="-342.5" font-family="Helvetica,sans-Serif" font-size="10.00" fill="#000000">include/tvm/arith/int</text>
<text text-anchor="middle" x="2510" y="-331.5" font-family="Helvetica,sans-Serif" font-size="10.00" fill="#000000">_set.h</text>
</a>
</g>
</g>
<!-- Node218&#45;&gt;Node221 -->
<g id="edge42" class="edge">
<title>Node218&#45;&gt;Node221</title>
<path fill="none" stroke="#191970" d="M1869.1166,-595.6818C1875.4279,-594.2898 1881.8552,-593.0087 1888,-592 2068.0706,-562.4407 2125.9749,-619.6362 2297,-556 2319.0808,-547.784 2319.1583,-535.9857 2340,-525 2381.787,-502.9739 2405.0924,-520.824 2440,-489 2481.2988,-451.3494 2500.2966,-384.3149 2507.0053,-354.5065"/>
<polygon fill="#191970" stroke="#191970" points="1868.3072,-592.2766 1859.3514,-597.9373 1869.8825,-599.097 1868.3072,-592.2766"/>
</g>
<!-- Node222 -->
<g id="node30" class="node">
<title>Node222</title>
<g id="a_node30"><a xlink:href="pattern_8h.html" target="_top" xlink:title="Expression pattern detectors. ">
<polygon fill="#ffffff" stroke="#000000" points="2020.5,-330 2020.5,-349 2167.5,-349 2167.5,-330 2020.5,-330"/>
<text text-anchor="middle" x="2094" y="-337" font-family="Helvetica,sans-Serif" font-size="10.00" fill="#000000">include/tvm/arith/pattern.h</text>
</a>
</g>
</g>
<!-- Node218&#45;&gt;Node222 -->
<g id="edge47" class="edge">
<title>Node218&#45;&gt;Node222</title>
<path fill="none" stroke="#191970" d="M1870.4536,-595.441C1922.6446,-581.7311 2000.8144,-560.643 2006,-556 2039.3258,-526.1616 2080.5287,-387.1062 2091.3152,-349.1138"/>
<polygon fill="#191970" stroke="#191970" points="1869.499,-592.0729 1860.7128,-597.9935 1871.2735,-598.8443 1869.499,-592.0729"/>
</g>
<!-- Node223 -->
<g id="node31" class="node">
<title>Node223</title>
<g id="a_node31"><a xlink:href="ir_2attrs_8h.html" target="_top" xlink:title="Helpers for attribute objects. ">
<polygon fill="#ffffff" stroke="#ff0000" points="1262.5,-531 1262.5,-550 1381.5,-550 1381.5,-531 1262.5,-531"/>
<text text-anchor="middle" x="1322" y="-538" font-family="Helvetica,sans-Serif" font-size="10.00" fill="#000000">include/tvm/ir/attrs.h</text>
</a>
</g>
</g>
<!-- Node218&#45;&gt;Node223 -->
<g id="edge50" class="edge">
<title>Node218&#45;&gt;Node223</title>
<path fill="none" stroke="#191970" d="M1755.257,-601.0827C1670.4881,-592.7431 1522.1375,-576.7591 1396,-556 1385.7681,-554.3161 1374.8041,-552.1954 1364.5344,-550.0679"/>
<polygon fill="#191970" stroke="#191970" points="1754.9806,-604.5723 1765.2737,-602.0616 1755.6615,-597.6055 1754.9806,-604.5723"/>
</g>
<!-- Node224 -->
<g id="node32" class="node">
<title>Node224</title>
<g id="a_node32"><a xlink:href="ir_2function_8h.html" target="_top" xlink:title="Function nodes. ">
<polygon fill="#ffffff" stroke="#ff0000" points="1586,-464 1586,-483 1722,-483 1722,-464 1586,-464"/>
<text text-anchor="middle" x="1654" y="-471" font-family="Helvetica,sans-Serif" font-size="10.00" fill="#000000">include/tvm/ir/function.h</text>
</a>
</g>
</g>
<!-- Node218&#45;&gt;Node224 -->
<g id="edge66" class="edge">
<title>Node218&#45;&gt;Node224</title>
<path fill="none" stroke="#191970" d="M1755.5027,-603.298C1649.2859,-596.0756 1454.8256,-579.7564 1434,-556 1424.9177,-545.6395 1425.4396,-535.7957 1434,-525 1439.4229,-518.1611 1543.6656,-495.9344 1606.6852,-483.0249"/>
<polygon fill="#191970" stroke="#191970" points="1755.2856,-606.7912 1765.4975,-603.9685 1755.7542,-599.8069 1755.2856,-606.7912"/>
</g>
<!-- Node225 -->
<g id="node33" class="node">
<title>Node225</title>
<g id="a_node33"><a xlink:href="script_2ir__builder_2base_8h.html" target="_top" xlink:title="include/tvm/script\l/ir_builder/base.h">
<polygon fill="#ffffff" stroke="#ff0000" points="1662,-391.5 1662,-421.5 1766,-421.5 1766,-391.5 1662,-391.5"/>
<text text-anchor="start" x="1670" y="-409.5" font-family="Helvetica,sans-Serif" font-size="10.00" fill="#000000">include/tvm/script</text>
<text text-anchor="middle" x="1714" y="-398.5" font-family="Helvetica,sans-Serif" font-size="10.00" fill="#000000">/ir_builder/base.h</text>
</a>
</g>
</g>
<!-- Node218&#45;&gt;Node225 -->
<g id="edge87" class="edge">
<title>Node218&#45;&gt;Node225</title>
<path fill="none" stroke="#191970" d="M1755.1399,-602.2205C1657.9427,-594.0599 1490.2358,-577.098 1472,-556 1462.9904,-545.5763 1462.9531,-535.3914 1472,-525 1548.3121,-437.3471 1654.6879,-576.6529 1731,-489 1747.4202,-470.1396 1734.3189,-439.6655 1723.8086,-421.508"/>
<polygon fill="#191970" stroke="#191970" points="1754.9293,-605.715 1765.1844,-603.0537 1755.508,-598.739 1754.9293,-605.715"/>
</g>
<!-- Node226 -->
<g id="node34" class="node">
<title>Node226</title>
<g id="a_node34"><a xlink:href="ir_2frame_8h.html" target="_top" xlink:title="include/tvm/script\l/ir_builder/ir/frame.h">
<polygon fill="#ffffff" stroke="#ff0000" points="1662,-324.5 1662,-354.5 1778,-354.5 1778,-324.5 1662,-324.5"/>
<text text-anchor="start" x="1670" y="-342.5" font-family="Helvetica,sans-Serif" font-size="10.00" fill="#000000">include/tvm/script</text>
<text text-anchor="middle" x="1720" y="-331.5" font-family="Helvetica,sans-Serif" font-size="10.00" fill="#000000">/ir_builder/ir/frame.h</text>
</a>
</g>
</g>
<!-- Node218&#45;&gt;Node226 -->
<g id="edge88" class="edge">
<title>Node218&#45;&gt;Node226</title>
<path fill="none" stroke="#191970" d="M1755.1092,-600.9132C1667.5195,-591.8315 1525.6948,-574.4787 1510,-556 1501.0808,-545.4988 1501.0157,-535.4455 1510,-525 1579.7612,-443.8932 1664.0743,-555.3432 1748,-489 1783.4421,-460.9831 1792.9723,-432.4498 1775,-391 1768.5473,-376.1181 1755.4416,-363.5701 1743.6419,-354.5867"/>
<polygon fill="#191970" stroke="#191970" points="1754.9422,-604.4143 1765.247,-601.9526 1755.6562,-597.4508 1754.9422,-604.4143"/>
</g>
<!-- Node227 -->
<g id="node35" class="node">
<title>Node227</title>
<g id="a_node35"><a xlink:href="ir_2ir_8h.html" target="_top" xlink:title="include/tvm/script\l/ir_builder/ir/ir.h">
<polygon fill="#ffffff" stroke="#ff0000" points="1668,-257.5 1668,-287.5 1772,-287.5 1772,-257.5 1668,-257.5"/>
<text text-anchor="start" x="1676" y="-275.5" font-family="Helvetica,sans-Serif" font-size="10.00" fill="#000000">include/tvm/script</text>
<text text-anchor="middle" x="1720" y="-264.5" font-family="Helvetica,sans-Serif" font-size="10.00" fill="#000000">/ir_builder/ir/ir.h</text>
</a>
</g>
</g>
<!-- Node218&#45;&gt;Node227 -->
<g id="edge89" class="edge">
<title>Node218&#45;&gt;Node227</title>
<path fill="none" stroke="#191970" d="M1755.1602,-604.4143C1682.1546,-599.5279 1573.8425,-587.1106 1548,-556 1539.1964,-545.4017 1539.0531,-535.4776 1548,-525 1614.3331,-447.3181 1699.0723,-557.3341 1775,-489 1829.6525,-439.8134 1822.4047,-388.4417 1787,-324 1778.5227,-308.57 1763.2711,-296.2897 1749.4589,-287.5967"/>
<polygon fill="#191970" stroke="#191970" points="1755.0127,-607.9119 1765.2151,-605.055 1755.4579,-600.9261 1755.0127,-607.9119"/>
</g>
<!-- Node246 -->
<g id="node36" class="node">
<title>Node246</title>
<g id="a_node36"><a xlink:href="name__supply_8h.html" target="_top" xlink:title="NameSupply that can be used to generate unique variable names. ">
<polygon fill="#ffffff" stroke="#000000" points="821.5,-391.5 821.5,-421.5 936.5,-421.5 936.5,-391.5 821.5,-391.5"/>
<text text-anchor="start" x="829.5" y="-409.5" font-family="Helvetica,sans-Serif" font-size="10.00" fill="#000000">include/tvm/ir/name</text>
<text text-anchor="middle" x="879" y="-398.5" font-family="Helvetica,sans-Serif" font-size="10.00" fill="#000000">_supply.h</text>
</a>
</g>
</g>
<!-- Node218&#45;&gt;Node246 -->
<g id="edge69" class="edge">
<title>Node218&#45;&gt;Node246</title>
<path fill="none" stroke="#191970" d="M1755.1864,-605.7879C1549.2948,-600.3773 950.2694,-582.4275 918,-556 877.3256,-522.6891 876.0728,-452.7514 877.7198,-421.7979"/>
<polygon fill="#191970" stroke="#191970" points="1755.1852,-609.2889 1765.2731,-606.0511 1755.3679,-602.2913 1755.1852,-609.2889"/>
</g>
<!-- Node218&#45;&gt;Node247 -->
<g id="edge72" class="edge">
<title>Node218&#45;&gt;Node247</title>
<path fill="none" stroke="#191970" d="M1755.1724,-605.3198C1573.4735,-599.2318 1093.2131,-580.8527 1070,-556 1035.145,-518.6831 1064.9937,-451.474 1081.1975,-421.5634"/>
<polygon fill="#191970" stroke="#191970" points="1755.3003,-608.8259 1765.4111,-605.6604 1755.5331,-601.8298 1755.3003,-608.8259"/>
</g>
<!-- Node206 -->
<g id="node38" class="node">
<title>Node206</title>
<g id="a_node38"><a xlink:href="runner_8h.html" target="_top" xlink:title="include/tvm/meta_schedule\l/runner.h">
<polygon fill="#ffffff" stroke="#ff0000" points="1112,-458.5 1112,-488.5 1264,-488.5 1264,-458.5 1112,-458.5"/>
<text text-anchor="start" x="1120" y="-476.5" font-family="Helvetica,sans-Serif" font-size="10.00" fill="#000000">include/tvm/meta_schedule</text>
<text text-anchor="middle" x="1188" y="-465.5" font-family="Helvetica,sans-Serif" font-size="10.00" fill="#000000">/runner.h</text>
</a>
</g>
</g>
<!-- Node218&#45;&gt;Node206 -->
<g id="edge76" class="edge">
<title>Node218&#45;&gt;Node206</title>
<path fill="none" stroke="#191970" d="M1754.9364,-604.2921C1612.7978,-597.2534 1297.2013,-579.2143 1254,-556 1225.8862,-540.893 1205.4993,-508.2091 1195.3233,-488.821"/>
<polygon fill="#191970" stroke="#191970" points="1755.115,-607.805 1765.2746,-604.7998 1755.4584,-600.8134 1755.115,-607.805"/>
</g>
<!-- Node216 -->
<g id="node39" class="node">
<title>Node216</title>
<g id="a_node39"><a xlink:href="schedule__rule_8h.html" target="_top" xlink:title="include/tvm/meta_schedule\l/schedule_rule.h">
<polygon fill="#ffffff" stroke="#ff0000" points="1590,-525.5 1590,-555.5 1742,-555.5 1742,-525.5 1590,-525.5"/>
<text text-anchor="start" x="1598" y="-543.5" font-family="Helvetica,sans-Serif" font-size="10.00" fill="#000000">include/tvm/meta_schedule</text>
<text text-anchor="middle" x="1666" y="-532.5" font-family="Helvetica,sans-Serif" font-size="10.00" fill="#000000">/schedule_rule.h</text>
</a>
</g>
</g>
<!-- Node218&#45;&gt;Node216 -->
<g id="edge78" class="edge">
<title>Node218&#45;&gt;Node216</title>
<path fill="none" stroke="#191970" d="M1791.8724,-593.8763C1765.6154,-582.742 1728.5373,-567.019 1701.4245,-555.5218"/>
<polygon fill="#191970" stroke="#191970" points="1790.7896,-597.2187 1801.3625,-597.9005 1793.5224,-590.7742 1790.7896,-597.2187"/>
</g>
<!-- Node248 -->
<g id="node40" class="node">
<title>Node248</title>
<g id="a_node40"><a xlink:href="exec__builder_8h.html" target="_top" xlink:title="include/tvm/relax/exec\l_builder.h">
<polygon fill="#ffffff" stroke="#000000" points="1760,-525.5 1760,-555.5 1888,-555.5 1888,-525.5 1760,-525.5"/>
<text text-anchor="start" x="1768" y="-543.5" font-family="Helvetica,sans-Serif" font-size="10.00" fill="#000000">include/tvm/relax/exec</text>
<text text-anchor="middle" x="1824" y="-532.5" font-family="Helvetica,sans-Serif" font-size="10.00" fill="#000000">_builder.h</text>
</a>
</g>
</g>
<!-- Node218&#45;&gt;Node248 -->
<g id="edge81" class="edge">
<title>Node218&#45;&gt;Node248</title>
<path fill="none" stroke="#191970" d="M1824,-587.7758C1824,-577.4641 1824,-565.0437 1824,-555.5218"/>
<polygon fill="#191970" stroke="#191970" points="1820.5001,-587.9005 1824,-597.9005 1827.5001,-587.9006 1820.5001,-587.9005"/>
</g>
<!-- Node249 -->
<g id="node41" class="node">
<title>Node249</title>
<g id="a_node41"><a xlink:href="metadata__base_8h.html" target="_top" xlink:title="Defines types which can be used in Metadata. ">
<polygon fill="#ffffff" stroke="#ff0000" points="2382,-525.5 2382,-555.5 2498,-555.5 2498,-525.5 2382,-525.5"/>
<text text-anchor="start" x="2390" y="-543.5" font-family="Helvetica,sans-Serif" font-size="10.00" fill="#000000">include/tvm/runtime</text>
<text text-anchor="middle" x="2440" y="-532.5" font-family="Helvetica,sans-Serif" font-size="10.00" fill="#000000">/metadata_base.h</text>
</a>
</g>
</g>
<!-- Node218&#45;&gt;Node249 -->
<g id="edge86" class="edge">
<title>Node218&#45;&gt;Node249</title>
<path fill="none" stroke="#191970" d="M1892.6517,-603.6C1996.1457,-597.1347 2198.1006,-582.2367 2368,-556 2372.5492,-555.2975 2377.2427,-554.486 2381.9501,-553.6102"/>
<polygon fill="#191970" stroke="#191970" points="1892.4103,-600.1081 1882.6451,-604.2179 1892.8418,-607.0948 1892.4103,-600.1081"/>
</g>
<!-- Node251 -->
<g id="node42" class="node">
<title>Node251</title>
<g id="a_node42"><a xlink:href="doc_8h.html" target="_top" xlink:title="include/tvm/script\l/printer/doc.h">
<polygon fill="#ffffff" stroke="#ff0000" points="2516,-525.5 2516,-555.5 2620,-555.5 2620,-525.5 2516,-525.5"/>
<text text-anchor="start" x="2524" y="-543.5" font-family="Helvetica,sans-Serif" font-size="10.00" fill="#000000">include/tvm/script</text>
<text text-anchor="middle" x="2568" y="-532.5" font-family="Helvetica,sans-Serif" font-size="10.00" fill="#000000">/printer/doc.h</text>
</a>
</g>
</g>
<!-- Node218&#45;&gt;Node251 -->
<g id="edge90" class="edge">
<title>Node218&#45;&gt;Node251</title>
<path fill="none" stroke="#191970" d="M1892.9707,-606.2481C2016.7407,-603.1263 2284.4149,-592.3881 2507,-556 2509.9116,-555.524 2512.8876,-554.976 2515.8819,-554.3765"/>
<polygon fill="#191970" stroke="#191970" points="1892.7895,-602.7513 1882.8776,-606.4937 1892.9598,-609.7493 1892.7895,-602.7513"/>
</g>
<!-- Node252 -->
<g id="node43" class="node">
<title>Node252</title>
<g id="a_node43"><a xlink:href="target__info_8h.html" target="_top" xlink:title="Various information about target. ">
<polygon fill="#ffffff" stroke="#000000" points="2638.5,-525.5 2638.5,-555.5 2745.5,-555.5 2745.5,-525.5 2638.5,-525.5"/>
<text text-anchor="start" x="2646.5" y="-543.5" font-family="Helvetica,sans-Serif" font-size="10.00" fill="#000000">include/tvm/target</text>
<text text-anchor="middle" x="2692" y="-532.5" font-family="Helvetica,sans-Serif" font-size="10.00" fill="#000000">/target_info.h</text>
</a>
</g>
</g>
<!-- Node218&#45;&gt;Node252 -->
<g id="edge92" class="edge">
<title>Node218&#45;&gt;Node252</title>
<path fill="none" stroke="#191970" d="M1892.7246,-604.6735C2060.5479,-597.518 2487.83,-577.7062 2629,-556 2632.0059,-555.5378 2635.0785,-555.0007 2638.1703,-554.4096"/>
<polygon fill="#191970" stroke="#191970" points="1892.3721,-601.1852 1882.5296,-605.1062 1892.669,-608.1789 1892.3721,-601.1852"/>
</g>
<!-- Node253 -->
<g id="node44" class="node">
<title>Node253</title>
<g id="a_node44"><a xlink:href="buffer_8h.html" target="_top" xlink:title="Symbolic n&#45;dimensional array, to represent a memory buffer. ">
<polygon fill="#ffffff" stroke="#ff0000" points="2232,-464 2232,-483 2360,-483 2360,-464 2232,-464"/>
<text text-anchor="middle" x="2296" y="-471" font-family="Helvetica,sans-Serif" font-size="10.00" fill="#000000">include/tvm/tir/buffer.h</text>
</a>
</g>
</g>
<!-- Node218&#45;&gt;Node253 -->
<g id="edge93" class="edge">
<title>Node218&#45;&gt;Node253</title>
<path fill="none" stroke="#191970" d="M1892.8025,-602.6525C1952.8285,-596.7128 2041.4251,-583.7636 2114,-556 2138.4208,-546.6578 2140.6118,-536.6895 2164,-525 2198.3259,-507.8437 2239.8337,-492.4728 2267.024,-483.082"/>
<polygon fill="#191970" stroke="#191970" points="1892.3042,-599.184 1882.6802,-603.6145 1892.9665,-606.1526 1892.3042,-599.184"/>
</g>
<!-- Node254 -->
<g id="node45" class="node">
<title>Node254</title>
<g id="a_node45"><a xlink:href="tir_2expr_8h.html" target="_top" xlink:title="TIR expressions. ">
<polygon fill="#ffffff" stroke="#ff0000" points="2235.5,-397 2235.5,-416 2356.5,-416 2356.5,-397 2235.5,-397"/>
<text text-anchor="middle" x="2296" y="-404" font-family="Helvetica,sans-Serif" font-size="10.00" fill="#000000">include/tvm/tir/expr.h</text>
</a>
</g>
</g>
<!-- Node218&#45;&gt;Node254 -->
<g id="edge103" class="edge">
<title>Node218&#45;&gt;Node254</title>
<path fill="none" stroke="#191970" d="M1873.341,-595.4936C1878.2915,-594.306 1883.2438,-593.1247 1888,-592 1957.2458,-575.6254 1989.2149,-601.406 2044,-556 2080.6211,-525.6484 2050.6045,-488.6217 2087,-458 2109.3043,-439.234 2182.0349,-424.2152 2235.4522,-415.3452"/>
<polygon fill="#191970" stroke="#191970" points="1872.1486,-592.1806 1863.2457,-597.9242 1873.7871,-598.9862 1872.1486,-592.1806"/>
</g>
<!-- Node259 -->
<g id="node46" class="node">
<title>Node259</title>
<g id="a_node46"><a xlink:href="index__map_8h.html" target="_top" xlink:title="Defines a remapping of buffer indices. ">
<polygon fill="#ffffff" stroke="#ff0000" points="2096,-458.5 2096,-488.5 2214,-488.5 2214,-458.5 2096,-458.5"/>
<text text-anchor="start" x="2104" y="-476.5" font-family="Helvetica,sans-Serif" font-size="10.00" fill="#000000">include/tvm/tir/index</text>
<text text-anchor="middle" x="2155" y="-465.5" font-family="Helvetica,sans-Serif" font-size="10.00" fill="#000000">_map.h</text>
</a>
</g>
</g>
<!-- Node218&#45;&gt;Node259 -->
<g id="edge104" class="edge">
<title>Node218&#45;&gt;Node259</title>
<path fill="none" stroke="#191970" d="M1892.9185,-598.7967C1958.0754,-589.6718 2050.4261,-574.1502 2082,-556 2110.6846,-539.5107 2133.9378,-507.6316 2146.0008,-488.6933"/>
<polygon fill="#191970" stroke="#191970" points="1892.1358,-595.3715 1882.7082,-600.2057 1893.0928,-602.3057 1892.1358,-595.3715"/>
</g>
<!-- Node260 -->
<g id="node47" class="node">
<title>Node260</title>
<g id="a_node47"><a xlink:href="tir_2op__attr__types_8h.html" target="_top" xlink:title="Attribute types in the Op registry for TIR ops. ">
<polygon fill="#ffffff" stroke="#ff0000" points="2763.5,-525.5 2763.5,-555.5 2866.5,-555.5 2866.5,-525.5 2763.5,-525.5"/>
<text text-anchor="start" x="2771.5" y="-543.5" font-family="Helvetica,sans-Serif" font-size="10.00" fill="#000000">include/tvm/tir/op</text>
<text text-anchor="middle" x="2815" y="-532.5" font-family="Helvetica,sans-Serif" font-size="10.00" fill="#000000">_attr_types.h</text>
</a>
</g>
</g>
<!-- Node218&#45;&gt;Node260 -->
<g id="edge106" class="edge">
<title>Node218&#45;&gt;Node260</title>
<path fill="none" stroke="#191970" d="M1892.8515,-605.4566C2078.8876,-599.6535 2588.7822,-581.8075 2755,-556 2757.7641,-555.5708 2760.5857,-555.069 2763.4245,-554.5136"/>
<polygon fill="#191970" stroke="#191970" points="1892.5386,-601.9645 1882.6519,-605.7728 1892.7556,-608.9611 1892.5386,-601.9645"/>
</g>
<!-- Node261 -->
<g id="node48" class="node">
<title>Node261</title>
<g id="a_node48"><a xlink:href="var_8h.html" target="_top" xlink:title="Variables in the TIR. ">
<polygon fill="#ffffff" stroke="#000000" points="2172.5,-531 2172.5,-550 2287.5,-550 2287.5,-531 2172.5,-531"/>
<text text-anchor="middle" x="2230" y="-538" font-family="Helvetica,sans-Serif" font-size="10.00" fill="#000000">include/tvm/tir/var.h</text>
</a>
</g>
</g>
<!-- Node218&#45;&gt;Node261 -->
<g id="edge108" class="edge">
<title>Node218&#45;&gt;Node261</title>
<path fill="none" stroke="#191970" d="M1892.8113,-598.1009C1960.4814,-588.5728 2066.6254,-572.8648 2158,-556 2167.682,-554.213 2178.0534,-552.0987 2187.8237,-550.0157"/>
<polygon fill="#191970" stroke="#191970" points="1892.1182,-594.6638 1882.7012,-599.5188 1893.0904,-601.596 1892.1182,-594.6638"/>
</g>
<!-- Node262 -->
<g id="node49" class="node">
<title>Node262</title>
<g id="a_node49"><a xlink:href="topi_2utils_8h.html" target="_top" xlink:title="Topi utility function. ">
<polygon fill="#ffffff" stroke="#000000" points="2884.5,-531 2884.5,-550 3013.5,-550 3013.5,-531 2884.5,-531"/>
<text text-anchor="middle" x="2949" y="-538" font-family="Helvetica,sans-Serif" font-size="10.00" fill="#000000">include/tvm/topi/utils.h</text>
</a>
</g>
</g>
<!-- Node218&#45;&gt;Node262 -->
<g id="edge113" class="edge">
<title>Node218&#45;&gt;Node262</title>
<path fill="none" stroke="#191970" d="M1892.8318,-605.5734C2095.0082,-599.6855 2684.8401,-580.8106 2876,-556 2887.0496,-554.5659 2898.9136,-552.3461 2909.7978,-550.0303"/>
<polygon fill="#191970" stroke="#191970" points="1892.5362,-602.0804 1882.6418,-605.8687 1892.7391,-609.0774 1892.5362,-602.0804"/>
</g>
<!-- Node219&#45;&gt;Node53 -->
<g id="edge40" class="edge">
<title>Node219&#45;&gt;Node53</title>
<path fill="none" stroke="#191970" d="M2936.8931,-259.6052C2903.8875,-248.4367 2856.1179,-232.2722 2821.3927,-220.5218"/>
<polygon fill="#191970" stroke="#191970" points="2936.0372,-263.0105 2946.6314,-262.9005 2938.2809,-256.3798 2936.0372,-263.0105"/>
</g>
<!-- Node219&#45;&gt;Node174 -->
<g id="edge39" class="edge">
<title>Node219&#45;&gt;Node174</title>
<path fill="none" stroke="#191970" d="M2956.1274,-256.0514C2914.399,-219.6826 2814.8088,-132.8838 2774.4413,-97.7011"/>
<polygon fill="#191970" stroke="#191970" points="2954.0514,-258.8848 2963.8896,-262.8167 2958.6506,-253.6078 2954.0514,-258.8848"/>
</g>
<!-- Node221&#45;&gt;Node219 -->
<g id="edge43" class="edge">
<title>Node221&#45;&gt;Node219</title>
<path fill="none" stroke="#191970" d="M2578.3948,-329.6453C2667.2315,-316.8451 2821.281,-294.6488 2908.9516,-282.0167"/>
<polygon fill="#191970" stroke="#191970" points="2577.8203,-326.1918 2568.4217,-331.0822 2578.8187,-333.1203 2577.8203,-326.1918"/>
</g>
<!-- Node221&#45;&gt;Node220 -->
<g id="edge44" class="edge">
<title>Node221&#45;&gt;Node220</title>
<path fill="none" stroke="#191970" d="M2442.1793,-324.3027C2384.1892,-311.3083 2302.5405,-293.0124 2253.3975,-282.0004"/>
<polygon fill="#191970" stroke="#191970" points="2441.4719,-327.7309 2451.9953,-326.5023 2443.0026,-320.9003 2441.4719,-327.7309"/>
</g>
<!-- Node223&#45;&gt;Node167 -->
<g id="edge59" class="edge">
<title>Node223&#45;&gt;Node167</title>
<path fill="none" stroke="#191970" d="M1313.7377,-521.6393C1305.299,-503.8349 1290.913,-477.0927 1273,-458 1200.7989,-381.0441 1176.3313,-359.6161 1077,-324 907.3112,-263.1566 852.3742,-305.9195 673,-288 644.8954,-285.1924 613.653,-281.7631 587.825,-278.8446"/>
<polygon fill="#191970" stroke="#191970" points="1310.6597,-523.3247 1318.0007,-530.9641 1317.0259,-520.4142 1310.6597,-523.3247"/>
</g>
<!-- Node223&#45;&gt;Node168 -->
<g id="edge58" class="edge">
<title>Node223&#45;&gt;Node168</title>
<path fill="none" stroke="#191970" d="M1391.5514,-529.8746C1444.4572,-520.6575 1511.8196,-506.1239 1534,-489 1626.7106,-417.4244 1564.0359,-325.5576 1659,-257 1696.374,-230.0185 1824.0793,-215.6253 1897.9757,-209.3835"/>
<polygon fill="#191970" stroke="#191970" points="1390.7856,-526.4547 1381.5183,-531.5897 1391.9651,-533.3546 1390.7856,-526.4547"/>
</g>
<!-- Node223&#45;&gt;Node113 -->
<g id="edge63" class="edge">
<title>Node223&#45;&gt;Node113</title>
<path fill="none" stroke="#191970" d="M1382.2785,-528.7799C1425.7066,-519.2326 1479.453,-504.7874 1496,-489 1599.2353,-390.5037 1613.6994,-198.6411 1615.6887,-153.6187"/>
<polygon fill="#191970" stroke="#191970" points="1381.3793,-525.3932 1372.3403,-530.9201 1382.8531,-532.2363 1381.3793,-525.3932"/>
</g>
<!-- Node223&#45;&gt;Node137 -->
<g id="edge61" class="edge">
<title>Node223&#45;&gt;Node137</title>
<path fill="none" stroke="#191970" d="M1364.3174,-527.3491C1385.1025,-519.108 1409.2187,-506.6451 1426,-489 1498.2918,-412.9869 1520,-377.4004 1520,-272.5 1520,-272.5 1520,-272.5 1520,-205.5 1520,-163.0792 1514.0179,-112.6988 1511.3073,-92.0477"/>
<polygon fill="#191970" stroke="#191970" points="1362.8644,-524.156 1354.7352,-530.9506 1365.3272,-530.7085 1362.8644,-524.156"/>
</g>
<!-- Node223&#45;&gt;Node196 -->
<g id="edge60" class="edge">
<title>Node223&#45;&gt;Node196</title>
<path fill="none" stroke="#191970" d="M1356.3597,-526.6042C1373.1439,-518.129 1392.2133,-505.6813 1404,-489 1466.7828,-400.1455 1436.2501,-254.032 1426.5748,-215.217"/>
<polygon fill="#191970" stroke="#191970" points="1354.8535,-523.4448 1347.331,-530.9056 1357.8642,-529.7643 1354.8535,-523.4448"/>
</g>
<!-- Node223&#45;&gt;Node197 -->
<g id="edge62" class="edge">
<title>Node223&#45;&gt;Node197</title>
<path fill="none" stroke="#191970" d="M1325.797,-521.0415C1334.7123,-468.9014 1350.7437,-325.3819 1273,-257 1238.219,-226.4073 486.2503,-223.5575 440,-221 389.4505,-218.2048 332.6979,-214.3873 288.2155,-211.2404"/>
<polygon fill="#191970" stroke="#191970" points="1322.3359,-520.5121 1323.9893,-530.9772 1329.2229,-521.7652 1322.3359,-520.5121"/>
</g>
<!-- Node223&#45;&gt;Node198 -->
<g id="edge64" class="edge">
<title>Node223&#45;&gt;Node198</title>
<path fill="none" stroke="#191970" d="M1345.717,-525.2044C1358.1551,-516.0673 1372.6978,-503.4398 1382,-489 1402.6803,-456.8979 1406,-444.6867 1406,-406.5 1406,-406.5 1406,-406.5 1406,-339.5 1406,-276.5216 1331.0854,-233.2139 1292.4576,-215.0694"/>
<polygon fill="#191970" stroke="#191970" points="1343.7048,-522.3406 1337.5325,-530.9519 1347.7276,-528.0692 1343.7048,-522.3406"/>
</g>
<!-- Node223&#45;&gt;Node199 -->
<g id="edge65" class="edge">
<title>Node223&#45;&gt;Node199</title>
<path fill="none" stroke="#191970" d="M1332.1942,-521.7174C1336.7841,-512.21 1341.6852,-500.3112 1344,-489 1360.7575,-407.115 1363.3522,-307.8008 1306,-257 1279.8709,-233.8557 792.4286,-214.6832 601.1341,-208.0196"/>
<polygon fill="#191970" stroke="#191970" points="1329.0718,-520.1362 1327.6452,-530.6346 1335.3072,-523.3173 1329.0718,-520.1362"/>
</g>
<!-- Node223&#45;&gt;Node224 -->
<g id="edge51" class="edge">
<title>Node223&#45;&gt;Node224</title>
<path fill="none" stroke="#191970" d="M1377.2471,-528.8682C1383.5696,-527.5548 1389.9237,-526.2428 1396,-525 1468.9407,-510.0813 1553.592,-493.282 1605.4702,-483.0451"/>
<polygon fill="#191970" stroke="#191970" points="1376.4582,-525.4574 1367.3823,-530.9235 1377.886,-532.3102 1376.4582,-525.4574"/>
</g>
<!-- Node224&#45;&gt;Node50 -->
<g id="edge52" class="edge">
<title>Node224&#45;&gt;Node50</title>
<path fill="none" stroke="#191970" d="M1575.8897,-468.8891C1364.4238,-456.4061 783.4288,-422.1095 585.817,-410.4443"/>
<polygon fill="#191970" stroke="#191970" points="1575.7898,-472.3892 1585.9787,-469.4846 1576.2024,-465.4014 1575.7898,-472.3892"/>
</g>
<!-- Node224&#45;&gt;Node225 -->
<g id="edge53" class="edge">
<title>Node224&#45;&gt;Node225</title>
<path fill="none" stroke="#191970" d="M1669.3495,-456.3597C1678.9858,-445.5992 1691.2949,-431.8541 1700.5477,-421.5218"/>
<polygon fill="#191970" stroke="#191970" points="1666.6604,-454.1161 1662.5965,-463.9005 1671.8751,-458.7859 1666.6604,-454.1161"/>
</g>
<!-- Node224&#45;&gt;Node226 -->
<g id="edge56" class="edge">
<title>Node224&#45;&gt;Node226</title>
<path fill="none" stroke="#191970" d="M1648.9677,-453.8649C1645.5757,-436.4218 1643.2899,-410.7108 1653,-391 1660.7152,-375.3386 1675.735,-363.1093 1689.6014,-354.5054"/>
<polygon fill="#191970" stroke="#191970" points="1645.6348,-454.9977 1651.2414,-463.9874 1652.4646,-453.4635 1645.6348,-454.9977"/>
</g>
<!-- Node224&#45;&gt;Node227 -->
<g id="edge57" class="edge">
<title>Node224&#45;&gt;Node227</title>
<path fill="none" stroke="#191970" d="M1647.9175,-454.1392C1639.6612,-423.9435 1628.5538,-364.8663 1653,-324 1662.1132,-308.7656 1677.5796,-296.4272 1691.3576,-287.6505"/>
<polygon fill="#191970" stroke="#191970" points="1644.5963,-455.252 1650.7592,-463.8699 1651.3156,-453.2897 1644.5963,-455.252"/>
</g>
<!-- Node225&#45;&gt;Node226 -->
<g id="edge54" class="edge">
<title>Node225&#45;&gt;Node226</title>
<path fill="none" stroke="#191970" d="M1716.2551,-381.3179C1717.059,-372.3414 1717.939,-362.5143 1718.6439,-354.6432"/>
<polygon fill="#191970" stroke="#191970" points="1712.7675,-381.0243 1715.3615,-391.2967 1719.7396,-381.6487 1712.7675,-381.0243"/>
</g>
<!-- Node226&#45;&gt;Node227 -->
<g id="edge55" class="edge">
<title>Node226&#45;&gt;Node227</title>
<path fill="none" stroke="#191970" d="M1720,-314.0249C1720,-305.128 1720,-295.4287 1720,-287.6432"/>
<polygon fill="#191970" stroke="#191970" points="1716.5001,-314.2966 1720,-324.2967 1723.5001,-314.2967 1716.5001,-314.2966"/>
</g>
<!-- Node246&#45;&gt;Node201 -->
<g id="edge70" class="edge">
<title>Node246&#45;&gt;Node201</title>
<path fill="none" stroke="#191970" d="M917.2738,-386.7743C937.144,-376.5335 961.0491,-364.2132 979.473,-354.7177"/>
<polygon fill="#191970" stroke="#191970" points="915.46,-383.7715 908.1745,-391.4639 918.6669,-389.9938 915.46,-383.7715"/>
</g>
<!-- Node247&#45;&gt;Node196 -->
<g id="edge73" class="edge">
<title>Node247&#45;&gt;Node196</title>
<path fill="none" stroke="#191970" d="M1158.6834,-388.7468C1185.294,-380.4326 1215.4427,-369.1897 1241,-355 1315.2455,-313.7779 1389.0719,-241.473 1414.6134,-215.304"/>
<polygon fill="#191970" stroke="#191970" points="1157.6023,-385.4172 1149.0547,-391.6774 1159.6405,-392.1139 1157.6023,-385.4172"/>
</g>
<!-- Node247&#45;&gt;Node198 -->
<g id="edge74" class="edge">
<title>Node247&#45;&gt;Node198</title>
<path fill="none" stroke="#191970" d="M1145.0093,-387.6891C1188.4361,-369.5862 1246.046,-337.5654 1273,-288 1285.8041,-264.4547 1278.3014,-231.2869 1273.3269,-215.1179"/>
<polygon fill="#191970" stroke="#191970" points="1143.6581,-384.46 1135.6967,-391.4506 1146.2798,-390.9506 1143.6581,-384.46"/>
</g>
<!-- Node206&#45;&gt;Node79 -->
<g id="edge77" class="edge">
<title>Node206&#45;&gt;Node79</title>
<path fill="none" stroke="#191970" d="M1211.786,-450.4321C1218.7103,-442.1885 1225.3807,-432.3571 1229,-422 1243.3684,-380.8827 1243.3684,-365.1173 1229,-324 1224.1743,-310.1906 1213.9243,-297.3156 1204.8807,-287.8929"/>
<polygon fill="#191970" stroke="#191970" points="1208.9673,-448.3321 1204.8807,-458.1071 1214.1711,-453.014 1208.9673,-448.3321"/>
</g>
<!-- Node253&#45;&gt;Node254 -->
<g id="edge94" class="edge">
<title>Node253&#45;&gt;Node254</title>
<path fill="none" stroke="#191970" d="M2296,-453.6079C2296,-441.214 2296,-425.8263 2296,-416.0817"/>
<polygon fill="#191970" stroke="#191970" points="2292.5001,-453.9005 2296,-463.9005 2299.5001,-453.9006 2292.5001,-453.9005"/>
</g>
<!-- Node254&#45;&gt;Node115 -->
<g id="edge99" class="edge">
<title>Node254&#45;&gt;Node115</title>
<path fill="none" stroke="#191970" d="M2299.3734,-386.688C2303.5161,-360.5967 2310,-313.2507 2310,-272.5 2310,-272.5 2310,-272.5 2310,-205.5 2310,-160.1906 2280.1047,-112.1609 2266.0913,-92.1359"/>
<polygon fill="#191970" stroke="#191970" points="2295.8822,-386.3498 2297.7167,-396.7846 2302.7898,-387.4833 2295.8822,-386.3498"/>
</g>
<!-- Node254&#45;&gt;Node173 -->
<g id="edge102" class="edge">
<title>Node254&#45;&gt;Node173</title>
<path fill="none" stroke="#191970" d="M2320.4782,-391.3978C2333.9954,-382.1478 2350.3541,-369.3481 2362,-355 2392.5646,-317.3436 2377.378,-292.8888 2410,-257 2456.5218,-205.8194 2531.5588,-169.7172 2569.845,-153.5431"/>
<polygon fill="#191970" stroke="#191970" points="2318.4977,-388.5114 2312.084,-396.9443 2322.3567,-394.3516 2318.4977,-388.5114"/>
</g>
<!-- Node254&#45;&gt;Node174 -->
<g id="edge97" class="edge">
<title>Node254&#45;&gt;Node174</title>
<path fill="none" stroke="#191970" d="M2304.5933,-387.6165C2329.8566,-334.7853 2409.6883,-185.9506 2529,-134 2584.0657,-110.0234 2651.6658,-96.5569 2698.9028,-89.462"/>
<polygon fill="#191970" stroke="#191970" points="2301.3429,-386.3049 2300.2727,-396.8456 2307.6825,-389.2729 2301.3429,-386.3049"/>
</g>
<!-- Node254&#45;&gt;Node196 -->
<g id="edge100" class="edge">
<title>Node254&#45;&gt;Node196</title>
<path fill="none" stroke="#191970" d="M2279.7427,-389.4941C2259.2915,-368.3575 2225.033,-333.862 2210,-324 2193.8847,-313.428 2068.7242,-261.5687 2050,-257 1945.7156,-231.5546 1631.5962,-214.7879 1492.0627,-208.4004"/>
<polygon fill="#191970" stroke="#191970" points="2277.3788,-392.0851 2286.8359,-396.8616 2282.4216,-387.2301 2277.3788,-392.0851"/>
</g>
<!-- Node254&#45;&gt;Node198 -->
<g id="edge101" class="edge">
<title>Node254&#45;&gt;Node198</title>
<path fill="none" stroke="#191970" d="M2268.4318,-391.9866C2251.0667,-382.368 2228.5134,-368.9825 2210,-355 2193.9422,-342.8721 2195.0235,-332.9495 2177,-324 2097.0617,-284.3069 1869.5523,-268.1434 1781,-257 1588.9632,-232.834 1538.6386,-248.1433 1347,-221 1335.9288,-219.4319 1324.0499,-217.2781 1313.0166,-215.0746"/>
<polygon fill="#191970" stroke="#191970" points="2267.0314,-395.2094 2277.4868,-396.9225 2270.3817,-389.0632 2267.0314,-395.2094"/>
</g>
<!-- Node254&#45;&gt;Node220 -->
<g id="edge95" class="edge">
<title>Node254&#45;&gt;Node220</title>
<path fill="none" stroke="#191970" d="M2285.7869,-387.783C2276.3933,-370.8585 2261.8606,-345.3897 2248,-324 2238.3011,-309.0327 2226.0607,-292.3851 2218.3793,-282.1776"/>
<polygon fill="#191970" stroke="#191970" points="2282.7891,-389.5951 2290.6798,-396.6652 2288.9203,-386.2175 2282.7891,-389.5951"/>
</g>
<!-- Node254&#45;&gt;Node221 -->
<g id="edge96" class="edge">
<title>Node254&#45;&gt;Node221</title>
<path fill="none" stroke="#191970" d="M2336.2673,-393.893C2371.9677,-382.7157 2424.1652,-366.3735 2462.02,-354.5218"/>
<polygon fill="#191970" stroke="#191970" points="2335.1584,-390.5725 2326.661,-396.9005 2337.25,-397.2528 2335.1584,-390.5725"/>
</g>
<!-- Node254&#45;&gt;Node222 -->
<g id="edge98" class="edge">
<title>Node254&#45;&gt;Node222</title>
<path fill="none" stroke="#191970" d="M2257.555,-393.7484C2218.3045,-380.7297 2158.2632,-360.815 2122.888,-349.0817"/>
<polygon fill="#191970" stroke="#191970" points="2256.4649,-397.0743 2267.0583,-396.9005 2258.6687,-390.4303 2256.4649,-397.0743"/>
</g>
<!-- Node261&#45;&gt;Node53 -->
<g id="edge109" class="edge">
<title>Node261&#45;&gt;Node53</title>
<path fill="none" stroke="#191970" d="M2273.754,-528.1063C2316.6536,-515.6159 2376.7918,-497.0679 2385,-489 2440.4366,-434.511 2388.1152,-379.0448 2443,-324 2517.9394,-248.8421 2643.5371,-221.1669 2717.4972,-211.1091"/>
<polygon fill="#191970" stroke="#191970" points="2272.7085,-524.7652 2264.0756,-530.9071 2274.6544,-531.4893 2272.7085,-524.7652"/>
</g>
<!-- Node261&#45;&gt;Node253 -->
<g id="edge110" class="edge">
<title>Node261&#45;&gt;Node253</title>
<path fill="none" stroke="#191970" d="M2246.6689,-523.5785C2259.2923,-510.7639 2276.1785,-493.6218 2286.5614,-483.0817"/>
<polygon fill="#191970" stroke="#191970" points="2243.9805,-521.3203 2239.4562,-530.9005 2248.9673,-526.2327 2243.9805,-521.3203"/>
</g>
<!-- Node261&#45;&gt;Node254 -->
<g id="edge111" class="edge">
<title>Node261&#45;&gt;Node254</title>
<path fill="none" stroke="#191970" d="M2280.1489,-528.3711C2315.5081,-518.6869 2358.3848,-504.2533 2369,-489 2376.8701,-477.6912 2375.3403,-470.2322 2369,-458 2358.7221,-438.1709 2336.9091,-424.3546 2319.7901,-416.0608"/>
<polygon fill="#191970" stroke="#191970" points="2279.166,-525.0109 2270.4082,-530.9734 2280.9728,-531.7737 2279.166,-525.0109"/>
</g>
<!-- Node261&#45;&gt;Node259 -->
<g id="edge112" class="edge">
<title>Node261&#45;&gt;Node259</title>
<path fill="none" stroke="#191970" d="M2211.5177,-523.9892C2199.3726,-513.1395 2183.6082,-499.0566 2171.8154,-488.5218"/>
<polygon fill="#191970" stroke="#191970" points="2209.4649,-526.8485 2219.2543,-530.9005 2214.1284,-521.6282 2209.4649,-526.8485"/>
</g>
</g>
</svg>
