<?xml version="1.0" encoding="UTF-8" standalone="no"?>
<!DOCTYPE svg PUBLIC "-//W3C//DTD SVG 1.1//EN"
 "http://www.w3.org/Graphics/SVG/1.1/DTD/svg11.dtd">
<!-- Generated by graphviz version 2.40.1 (20161225.0304)
 -->
<!-- Title: include/tvm/runtime/container/optional.h Pages: 1 -->
<svg width="3624pt" height="832pt"
 viewBox="0.00 0.00 3624.00 832.00" xmlns="http://www.w3.org/2000/svg" xmlns:xlink="http://www.w3.org/1999/xlink">
<g id="graph0" class="graph" transform="scale(1 1) rotate(0) translate(4 828)">
<title>include/tvm/runtime/container/optional.h</title>
<polygon fill="#ffffff" stroke="transparent" points="-4,4 -4,-828 3620,-828 3620,4 -4,4"/>
<!-- Node17 -->
<g id="node1" class="node">
<title>Node17</title>
<polygon fill="#bfbfbf" stroke="#000000" points="1302.5,-793.5 1302.5,-823.5 1419.5,-823.5 1419.5,-793.5 1302.5,-793.5"/>
<text text-anchor="start" x="1310.5" y="-811.5" font-family="Helvetica,sans-Serif" font-size="10.00" fill="#000000">include/tvm/runtime</text>
<text text-anchor="middle" x="1361" y="-800.5" font-family="Helvetica,sans-Serif" font-size="10.00" fill="#000000">/container/optional.h</text>
</g>
<!-- Node18 -->
<g id="node2" class="node">
<title>Node18</title>
<g id="a_node2"><a xlink:href="builder_8h.html" target="_top" xlink:title="include/tvm/meta_schedule\l/builder.h">
<polygon fill="#ffffff" stroke="#000000" points="1370,-268.5 1370,-298.5 1522,-298.5 1522,-268.5 1370,-268.5"/>
<text text-anchor="start" x="1378" y="-286.5" font-family="Helvetica,sans-Serif" font-size="10.00" fill="#000000">include/tvm/meta_schedule</text>
<text text-anchor="middle" x="1446" y="-275.5" font-family="Helvetica,sans-Serif" font-size="10.00" fill="#000000">/builder.h</text>
</a>
</g>
</g>
<!-- Node17&#45;&gt;Node18 -->
<g id="edge1" class="edge">
<title>Node17&#45;&gt;Node18</title>
<path fill="none" stroke="#191970" d="M1292.171,-806.4896C1091.9944,-800.3866 519.0618,-781.0137 438,-757 367.2786,-736.0495 294,-748.2594 294,-674.5 294,-674.5 294,-674.5 294,-540.5 294,-387.209 426.9258,-387.3522 571,-335 644.9697,-308.1216 1170.7939,-291.0531 1369.8757,-285.4921"/>
<polygon fill="#191970" stroke="#191970" points="1292.1683,-809.991 1302.2698,-806.7958 1292.3805,-802.9942 1292.1683,-809.991"/>
</g>
<!-- Node20 -->
<g id="node4" class="node">
<title>Node20</title>
<g id="a_node4"><a xlink:href="task__scheduler_8h.html" target="_top" xlink:title="include/tvm/meta_schedule\l/task_scheduler.h">
<polygon fill="#ffffff" stroke="#000000" points="2650,-.5 2650,-30.5 2802,-30.5 2802,-.5 2650,-.5"/>
<text text-anchor="start" x="2658" y="-18.5" font-family="Helvetica,sans-Serif" font-size="10.00" fill="#000000">include/tvm/meta_schedule</text>
<text text-anchor="middle" x="2726" y="-7.5" font-family="Helvetica,sans-Serif" font-size="10.00" fill="#000000">/task_scheduler.h</text>
</a>
</g>
</g>
<!-- Node17&#45;&gt;Node20 -->
<g id="edge25" class="edge">
<title>Node17&#45;&gt;Node20</title>
<path fill="none" stroke="#191970" d="M1292.2134,-807.4666C1031.0097,-803.3257 112.5346,-786.7055 58,-757 18.6393,-735.5599 0,-719.3212 0,-674.5 0,-674.5 0,-674.5 0,-149.5 0,-3.0149 507.9285,-78.0005 654,-67 1053.4085,-36.921 2325.1018,-20.21 2649.8973,-16.364"/>
<polygon fill="#191970" stroke="#191970" points="1292.2727,-810.9679 1302.3267,-807.6259 1292.383,-803.9688 1292.2727,-810.9679"/>
</g>
<!-- Node21 -->
<g id="node5" class="node">
<title>Node21</title>
<g id="a_node5"><a xlink:href="tune__context_8h.html" target="_top" xlink:title="include/tvm/meta_schedule\l/tune_context.h">
<polygon fill="#ffffff" stroke="#000000" points="1974,-134.5 1974,-164.5 2126,-164.5 2126,-134.5 1974,-134.5"/>
<text text-anchor="start" x="1982" y="-152.5" font-family="Helvetica,sans-Serif" font-size="10.00" fill="#000000">include/tvm/meta_schedule</text>
<text text-anchor="middle" x="2050" y="-141.5" font-family="Helvetica,sans-Serif" font-size="10.00" fill="#000000">/tune_context.h</text>
</a>
</g>
</g>
<!-- Node17&#45;&gt;Node21 -->
<g id="edge26" class="edge">
<title>Node17&#45;&gt;Node21</title>
<path fill="none" stroke="#191970" d="M1292.0481,-807.2748C1057.0115,-802.8491 295.9071,-786.3803 190,-757 115.9325,-736.4525 38,-751.3648 38,-674.5 38,-674.5 38,-674.5 38,-283.5 38,-252.9574 -129.0564,-259.0083 479,-201 774.2563,-172.8327 1700.7973,-155.3684 1973.667,-150.7397"/>
<polygon fill="#191970" stroke="#191970" points="1292.114,-810.7765 1302.1777,-807.4642 1292.2449,-803.7778 1292.114,-810.7765"/>
</g>
<!-- Node22 -->
<g id="node6" class="node">
<title>Node22</title>
<g id="a_node6"><a xlink:href="mutator_8h.html" target="_top" xlink:title="include/tvm/meta_schedule\l/mutator.h">
<polygon fill="#ffffff" stroke="#000000" points="2298,-525.5 2298,-555.5 2450,-555.5 2450,-525.5 2298,-525.5"/>
<text text-anchor="start" x="2306" y="-543.5" font-family="Helvetica,sans-Serif" font-size="10.00" fill="#000000">include/tvm/meta_schedule</text>
<text text-anchor="middle" x="2374" y="-532.5" font-family="Helvetica,sans-Serif" font-size="10.00" fill="#000000">/mutator.h</text>
</a>
</g>
</g>
<!-- Node17&#45;&gt;Node22 -->
<g id="edge8" class="edge">
<title>Node17&#45;&gt;Node22</title>
<path fill="none" stroke="#191970" d="M1429.7516,-807.9497C1600.1422,-805.981 2038.258,-797.0575 2178,-757 2238.2163,-739.7388 2258.7489,-735.3132 2302,-690 2340.389,-649.7807 2361.8176,-585.2325 2370.0395,-555.8985"/>
<polygon fill="#191970" stroke="#191970" points="1429.6096,-804.451 1419.6491,-808.0618 1429.6874,-811.4505 1429.6096,-804.451"/>
</g>
<!-- Node24 -->
<g id="node8" class="node">
<title>Node24</title>
<g id="a_node8"><a xlink:href="profiler_8h.html" target="_top" xlink:title="include/tvm/meta_schedule\l/profiler.h">
<polygon fill="#ffffff" stroke="#000000" points="1796,-268.5 1796,-298.5 1948,-298.5 1948,-268.5 1796,-268.5"/>
<text text-anchor="start" x="1804" y="-286.5" font-family="Helvetica,sans-Serif" font-size="10.00" fill="#000000">include/tvm/meta_schedule</text>
<text text-anchor="middle" x="1872" y="-275.5" font-family="Helvetica,sans-Serif" font-size="10.00" fill="#000000">/profiler.h</text>
</a>
</g>
</g>
<!-- Node17&#45;&gt;Node24 -->
<g id="edge11" class="edge">
<title>Node17&#45;&gt;Node24</title>
<path fill="none" stroke="#191970" d="M1429.849,-801.6931C1595.8183,-784.5819 2007.1888,-737.718 2046,-690 2088.0876,-638.2536 2005.23,-642.9625 1951,-556 1896.3956,-468.4372 1878.256,-341.6935 1873.4678,-298.5389"/>
<polygon fill="#191970" stroke="#191970" points="1429.3433,-798.2265 1419.7526,-802.7285 1430.0575,-805.19 1429.3433,-798.2265"/>
</g>
<!-- Node25 -->
<g id="node9" class="node">
<title>Node25</title>
<g id="a_node9"><a xlink:href="runner_8h.html" target="_top" xlink:title="include/tvm/meta_schedule\l/runner.h">
<polygon fill="#ffffff" stroke="#000000" points="3360,-525.5 3360,-555.5 3512,-555.5 3512,-525.5 3360,-525.5"/>
<text text-anchor="start" x="3368" y="-543.5" font-family="Helvetica,sans-Serif" font-size="10.00" fill="#000000">include/tvm/meta_schedule</text>
<text text-anchor="middle" x="3436" y="-532.5" font-family="Helvetica,sans-Serif" font-size="10.00" fill="#000000">/runner.h</text>
</a>
</g>
</g>
<!-- Node17&#45;&gt;Node25 -->
<g id="edge12" class="edge">
<title>Node17&#45;&gt;Node25</title>
<path fill="none" stroke="#191970" d="M1429.9083,-807.3167C1786.8407,-800.8559 3411.7876,-767.2607 3483,-690 3518.7725,-651.1892 3473.3362,-585.3462 3449.2297,-555.7299"/>
<polygon fill="#191970" stroke="#191970" points="1429.6562,-803.8206 1419.7208,-807.4999 1429.7822,-810.8194 1429.6562,-803.8206"/>
</g>
<!-- Node27 -->
<g id="node11" class="node">
<title>Node27</title>
<g id="a_node11"><a xlink:href="search__strategy_8h.html" target="_top" xlink:title="include/tvm/meta_schedule\l/search_strategy.h">
<polygon fill="#ffffff" stroke="#000000" points="2924,-201.5 2924,-231.5 3076,-231.5 3076,-201.5 2924,-201.5"/>
<text text-anchor="start" x="2932" y="-219.5" font-family="Helvetica,sans-Serif" font-size="10.00" fill="#000000">include/tvm/meta_schedule</text>
<text text-anchor="middle" x="3000" y="-208.5" font-family="Helvetica,sans-Serif" font-size="10.00" fill="#000000">/search_strategy.h</text>
</a>
</g>
</g>
<!-- Node17&#45;&gt;Node27 -->
<g id="edge24" class="edge">
<title>Node17&#45;&gt;Node27</title>
<path fill="none" stroke="#191970" d="M1430.1481,-807.9903C1716.3388,-805.6525 2809.1257,-794.4112 3152,-757 3343.7133,-736.0821 3578,-867.3511 3578,-674.5 3578,-674.5 3578,-674.5 3578,-540.5 3578,-418.9916 3184.4125,-277.3926 3046.8106,-231.6012"/>
<polygon fill="#191970" stroke="#191970" points="1429.8819,-804.4923 1419.9105,-808.073 1429.9384,-811.492 1429.8819,-804.4923"/>
</g>
<!-- Node28 -->
<g id="node12" class="node">
<title>Node28</title>
<g id="a_node12"><a xlink:href="schedule__rule_8h.html" target="_top" xlink:title="include/tvm/meta_schedule\l/schedule_rule.h">
<polygon fill="#ffffff" stroke="#000000" points="2052,-525.5 2052,-555.5 2204,-555.5 2204,-525.5 2052,-525.5"/>
<text text-anchor="start" x="2060" y="-543.5" font-family="Helvetica,sans-Serif" font-size="10.00" fill="#000000">include/tvm/meta_schedule</text>
<text text-anchor="middle" x="2128" y="-532.5" font-family="Helvetica,sans-Serif" font-size="10.00" fill="#000000">/schedule_rule.h</text>
</a>
</g>
</g>
<!-- Node17&#45;&gt;Node28 -->
<g id="edge22" class="edge">
<title>Node17&#45;&gt;Node28</title>
<path fill="none" stroke="#191970" d="M1429.9436,-805.6784C1584.7347,-798.9986 1955.9385,-780.963 2079,-757 2173.9164,-738.5175 2229.1175,-768.1991 2286,-690 2310.8507,-655.8365 2250.215,-594.8543 2247,-592 2228.4824,-575.5597 2203.9072,-563.7393 2181.8991,-555.6039"/>
<polygon fill="#191970" stroke="#191970" points="1429.463,-802.1957 1419.6221,-806.1208 1429.7628,-809.1892 1429.463,-802.1957"/>
</g>
<!-- Node29 -->
<g id="node13" class="node">
<title>Node29</title>
<g id="a_node13"><a xlink:href="object__path_8h.html" target="_top" xlink:title="include/tvm/node/object\l_path.h">
<polygon fill="#ffffff" stroke="#000000" points="1581,-726.5 1581,-756.5 1715,-756.5 1715,-726.5 1581,-726.5"/>
<text text-anchor="start" x="1589" y="-744.5" font-family="Helvetica,sans-Serif" font-size="10.00" fill="#000000">include/tvm/node/object</text>
<text text-anchor="middle" x="1648" y="-733.5" font-family="Helvetica,sans-Serif" font-size="10.00" fill="#000000">_path.h</text>
</a>
</g>
</g>
<!-- Node17&#45;&gt;Node29 -->
<g id="edge27" class="edge">
<title>Node17&#45;&gt;Node29</title>
<path fill="none" stroke="#191970" d="M1429.8015,-792.4383C1476.4953,-781.5377 1537.8201,-767.2214 1583.563,-756.5428"/>
<polygon fill="#191970" stroke="#191970" points="1428.7137,-789.0981 1419.7713,-794.7799 1430.3052,-795.9148 1428.7137,-789.0981"/>
</g>
<!-- Node109 -->
<g id="node27" class="node">
<title>Node109</title>
<g id="a_node27"><a xlink:href="relax_2dataflow__pattern_8h.html" target="_top" xlink:title="A pattern language for matching dataflow properties. ">
<polygon fill="#ffffff" stroke="#000000" points="270.5,-335.5 270.5,-365.5 417.5,-365.5 417.5,-335.5 270.5,-335.5"/>
<text text-anchor="start" x="278.5" y="-353.5" font-family="Helvetica,sans-Serif" font-size="10.00" fill="#000000">include/tvm/relax/dataflow</text>
<text text-anchor="middle" x="344" y="-342.5" font-family="Helvetica,sans-Serif" font-size="10.00" fill="#000000">_pattern.h</text>
</a>
</g>
</g>
<!-- Node17&#45;&gt;Node109 -->
<g id="edge80" class="edge">
<title>Node17&#45;&gt;Node109</title>
<path fill="none" stroke="#191970" d="M1291.9768,-807.4041C1059.8652,-803.4348 319.7785,-788.363 280,-757 250.0129,-733.3569 256,-712.6867 256,-674.5 256,-674.5 256,-674.5 256,-473.5 256,-427.5509 297.1224,-386.9449 323.1452,-365.849"/>
<polygon fill="#191970" stroke="#191970" points="1292.2567,-810.9092 1302.3146,-807.5792 1292.3754,-803.9102 1292.2567,-810.9092"/>
</g>
<!-- Node110 -->
<g id="node28" class="node">
<title>Node110</title>
<g id="a_node28"><a xlink:href="relax_2dataflow__matcher_8h.html" target="_top" xlink:title="A pattern matcher for matching dataflow properties. ">
<polygon fill="#ffffff" stroke="#000000" points="66.5,-268.5 66.5,-298.5 213.5,-298.5 213.5,-268.5 66.5,-268.5"/>
<text text-anchor="start" x="74.5" y="-286.5" font-family="Helvetica,sans-Serif" font-size="10.00" fill="#000000">include/tvm/relax/dataflow</text>
<text text-anchor="middle" x="140" y="-275.5" font-family="Helvetica,sans-Serif" font-size="10.00" fill="#000000">_matcher.h</text>
</a>
</g>
</g>
<!-- Node17&#45;&gt;Node110 -->
<g id="edge79" class="edge">
<title>Node17&#45;&gt;Node110</title>
<path fill="none" stroke="#191970" d="M1292.0877,-808.1606C1065.0391,-806.6477 349.5483,-798.5953 255,-757 207.3916,-736.0553 172,-726.5119 172,-674.5 172,-674.5 172,-674.5 172,-412 172,-369.9276 155.6479,-322.3419 146.3222,-298.6242"/>
<polygon fill="#191970" stroke="#191970" points="1292.184,-811.6612 1302.2063,-808.2258 1292.2291,-804.6614 1292.184,-811.6612"/>
</g>
<!-- Node104 -->
<g id="node30" class="node">
<title>Node104</title>
<g id="a_node30"><a xlink:href="nested__msg_8h.html" target="_top" xlink:title="Helper container to store nested message for robust tuple&#45;aware analysis. ">
<polygon fill="#ffffff" stroke="#000000" points="626,-335.5 626,-365.5 764,-365.5 764,-335.5 626,-335.5"/>
<text text-anchor="start" x="634" y="-353.5" font-family="Helvetica,sans-Serif" font-size="10.00" fill="#000000">include/tvm/relax/nested</text>
<text text-anchor="middle" x="695" y="-342.5" font-family="Helvetica,sans-Serif" font-size="10.00" fill="#000000">_msg.h</text>
</a>
</g>
</g>
<!-- Node17&#45;&gt;Node104 -->
<g id="edge81" class="edge">
<title>Node17&#45;&gt;Node104</title>
<path fill="none" stroke="#191970" d="M1292.2111,-805.9073C1074.8671,-796.9788 413.8033,-763.9002 356,-690 247.849,-551.7314 547.5166,-411.0313 656.8328,-365.6116"/>
<polygon fill="#191970" stroke="#191970" points="1292.0873,-809.4051 1302.2212,-806.3143 1292.3717,-802.4109 1292.0873,-809.4051"/>
</g>
<!-- Node245 -->
<g id="node35" class="node">
<title>Node245</title>
<g id="a_node35"><a xlink:href="array_8h.html" target="_top" xlink:title="Runtime Array container types. ">
<polygon fill="#ffffff" stroke="#000000" points="1303,-726.5 1303,-756.5 1419,-756.5 1419,-726.5 1303,-726.5"/>
<text text-anchor="start" x="1311" y="-744.5" font-family="Helvetica,sans-Serif" font-size="10.00" fill="#000000">include/tvm/runtime</text>
<text text-anchor="middle" x="1361" y="-733.5" font-family="Helvetica,sans-Serif" font-size="10.00" fill="#000000">/container/array.h</text>
</a>
</g>
</g>
<!-- Node17&#45;&gt;Node245 -->
<g id="edge82" class="edge">
<title>Node17&#45;&gt;Node245</title>
<path fill="none" stroke="#191970" d="M1361,-783.0249C1361,-774.128 1361,-764.4287 1361,-756.6432"/>
<polygon fill="#191970" stroke="#191970" points="1357.5001,-783.2966 1361,-793.2967 1364.5001,-783.2967 1357.5001,-783.2966"/>
</g>
<!-- Node257 -->
<g id="node43" class="node">
<title>Node257</title>
<g id="a_node43"><a xlink:href="map_8h.html" target="_top" xlink:title="Runtime Map container types. ">
<polygon fill="#ffffff" stroke="#000000" points="635,-726.5 635,-756.5 751,-756.5 751,-726.5 635,-726.5"/>
<text text-anchor="start" x="643" y="-744.5" font-family="Helvetica,sans-Serif" font-size="10.00" fill="#000000">include/tvm/runtime</text>
<text text-anchor="middle" x="693" y="-733.5" font-family="Helvetica,sans-Serif" font-size="10.00" fill="#000000">/container/map.h</text>
</a>
</g>
</g>
<!-- Node17&#45;&gt;Node257 -->
<g id="edge133" class="edge">
<title>Node17&#45;&gt;Node257</title>
<path fill="none" stroke="#191970" d="M1292.3277,-801.6122C1160.5776,-788.3978 874.4899,-759.7033 751.3236,-747.3498"/>
<polygon fill="#191970" stroke="#191970" points="1292.0055,-805.0974 1302.3049,-802.6129 1292.7042,-798.1323 1292.0055,-805.0974"/>
</g>
<!-- Node258 -->
<g id="node44" class="node">
<title>Node258</title>
<g id="a_node44"><a xlink:href="ndarray_8h.html" target="_top" xlink:title="A device&#45;independent managed NDArray abstraction. ">
<polygon fill="#ffffff" stroke="#000000" points="2537,-726.5 2537,-756.5 2653,-756.5 2653,-726.5 2537,-726.5"/>
<text text-anchor="start" x="2545" y="-744.5" font-family="Helvetica,sans-Serif" font-size="10.00" fill="#000000">include/tvm/runtime</text>
<text text-anchor="middle" x="2595" y="-733.5" font-family="Helvetica,sans-Serif" font-size="10.00" fill="#000000">/ndarray.h</text>
</a>
</g>
</g>
<!-- Node17&#45;&gt;Node258 -->
<g id="edge145" class="edge">
<title>Node17&#45;&gt;Node258</title>
<path fill="none" stroke="#191970" d="M1429.7508,-806.622C1644.0182,-800.5788 2297.9578,-780.6451 2509,-757 2518.0461,-755.9865 2527.5759,-754.5966 2536.8659,-753.0625"/>
<polygon fill="#191970" stroke="#191970" points="1429.479,-803.1282 1419.5812,-806.9077 1429.6756,-810.1254 1429.479,-803.1282"/>
</g>
<!-- Node19 -->
<g id="node3" class="node">
<title>Node19</title>
<g id="a_node3"><a xlink:href="measure__callback_8h.html" target="_top" xlink:title="include/tvm/meta_schedule\l/measure_callback.h">
<polygon fill="#ffffff" stroke="#000000" points="3028,-67.5 3028,-97.5 3180,-97.5 3180,-67.5 3028,-67.5"/>
<text text-anchor="start" x="3036" y="-85.5" font-family="Helvetica,sans-Serif" font-size="10.00" fill="#000000">include/tvm/meta_schedule</text>
<text text-anchor="middle" x="3104" y="-74.5" font-family="Helvetica,sans-Serif" font-size="10.00" fill="#000000">/measure_callback.h</text>
</a>
</g>
</g>
<!-- Node18&#45;&gt;Node19 -->
<g id="edge2" class="edge">
<title>Node18&#45;&gt;Node19</title>
<path fill="none" stroke="#191970" d="M1476.168,-262.5878C1504.918,-243.6478 1550.0677,-216.4194 1593,-201 1751.1055,-144.2154 1798.0532,-152.7243 1965,-134 2171.7932,-110.8066 2807.1858,-90.9726 3027.6846,-84.6243"/>
<polygon fill="#191970" stroke="#191970" points="1474.1675,-259.715 1467.7927,-268.1774 1478.0534,-265.5374 1474.1675,-259.715"/>
</g>
<!-- Node18&#45;&gt;Node20 -->
<g id="edge4" class="edge">
<title>Node18&#45;&gt;Node20</title>
<path fill="none" stroke="#191970" d="M1462.9046,-259.9372C1477.114,-241.6327 1498.9215,-216.7848 1523,-201 1597.5339,-152.1388 1625.1947,-154.1881 1712,-134 2056.4019,-53.9032 2479.827,-26.6793 2649.9537,-18.564"/>
<polygon fill="#191970" stroke="#191970" points="1459.7996,-258.2408 1456.5627,-268.3291 1465.3842,-262.4612 1459.7996,-258.2408"/>
</g>
<!-- Node18&#45;&gt;Node21 -->
<g id="edge5" class="edge">
<title>Node18&#45;&gt;Node21</title>
<path fill="none" stroke="#191970" d="M1496.0438,-265.0065C1547.9191,-246.4581 1631.674,-218.2409 1706,-201 1797.0331,-179.8837 1903.7099,-165.478 1973.853,-157.386"/>
<polygon fill="#191970" stroke="#191970" points="1494.6477,-261.7891 1486.4222,-268.4668 1497.0166,-268.376 1494.6477,-261.7891"/>
</g>
<!-- Node19&#45;&gt;Node20 -->
<g id="edge3" class="edge">
<title>Node19&#45;&gt;Node20</title>
<path fill="none" stroke="#191970" d="M3017.7452,-67.2114C2952.8034,-55.7006 2864.6106,-40.0685 2802.2412,-29.0136"/>
<polygon fill="#191970" stroke="#191970" points="3017.5034,-70.7231 3027.9608,-69.0221 3018.7251,-63.8305 3017.5034,-70.7231"/>
</g>
<!-- Node21&#45;&gt;Node19 -->
<g id="edge6" class="edge">
<title>Node21&#45;&gt;Node19</title>
<path fill="none" stroke="#191970" d="M2136.4711,-144.0033C2338.1299,-131.1843 2836.9073,-99.4784 3027.9082,-87.337"/>
<polygon fill="#191970" stroke="#191970" points="2135.9829,-140.5271 2126.2251,-144.6546 2136.427,-147.513 2135.9829,-140.5271"/>
</g>
<!-- Node21&#45;&gt;Node20 -->
<g id="edge7" class="edge">
<title>Node21&#45;&gt;Node20</title>
<path fill="none" stroke="#191970" d="M2136.0709,-132.4386C2269.3514,-106.0191 2523.4874,-55.643 2650.2193,-30.5216"/>
<polygon fill="#191970" stroke="#191970" points="2135.0332,-129.0761 2125.9046,-134.4538 2136.3943,-135.9425 2135.0332,-129.0761"/>
</g>
<!-- Node23 -->
<g id="node7" class="node">
<title>Node23</title>
<g id="a_node7"><a xlink:href="space__generator_8h.html" target="_top" xlink:title="include/tvm/meta_schedule\l/space_generator.h">
<polygon fill="#ffffff" stroke="#000000" points="2052,-268.5 2052,-298.5 2204,-298.5 2204,-268.5 2052,-268.5"/>
<text text-anchor="start" x="2060" y="-286.5" font-family="Helvetica,sans-Serif" font-size="10.00" fill="#000000">include/tvm/meta_schedule</text>
<text text-anchor="middle" x="2128" y="-275.5" font-family="Helvetica,sans-Serif" font-size="10.00" fill="#000000">/space_generator.h</text>
</a>
</g>
</g>
<!-- Node22&#45;&gt;Node23 -->
<g id="edge9" class="edge">
<title>Node22&#45;&gt;Node23</title>
<path fill="none" stroke="#191970" d="M2352.3467,-517.8784C2303.1657,-466.4983 2184.0966,-342.1049 2142.5749,-298.7267"/>
<polygon fill="#191970" stroke="#191970" points="2349.9051,-520.3893 2359.3483,-525.1931 2354.9619,-515.5489 2349.9051,-520.3893"/>
</g>
<!-- Node23&#45;&gt;Node21 -->
<g id="edge10" class="edge">
<title>Node23&#45;&gt;Node21</title>
<path fill="none" stroke="#191970" d="M2113.9888,-259.4294C2098.0019,-231.9647 2072.3372,-187.8742 2058.8835,-164.7614"/>
<polygon fill="#191970" stroke="#191970" points="2111.1484,-261.5073 2119.204,-268.389 2117.1982,-257.9857 2111.1484,-261.5073"/>
</g>
<!-- Node25&#45;&gt;Node19 -->
<g id="edge18" class="edge">
<title>Node25&#45;&gt;Node19</title>
<path fill="none" stroke="#191970" d="M3444.7304,-515.6565C3452.9474,-490.0255 3464,-448.7238 3464,-412 3464,-412 3464,-412 3464,-350.5 3464,-221.2987 3382.8577,-196.8978 3270,-134 3240.6114,-117.6212 3205.3326,-105.7402 3174.8696,-97.5462"/>
<polygon fill="#191970" stroke="#191970" points="3441.3563,-514.7119 3441.5319,-525.3053 3448.0008,-516.9146 3441.3563,-514.7119"/>
</g>
<!-- Node25&#45;&gt;Node20 -->
<g id="edge20" class="edge">
<title>Node25&#45;&gt;Node20</title>
<path fill="none" stroke="#191970" d="M3453.1799,-517.1331C3458.8429,-508.6061 3464.7673,-498.6757 3469,-489 3519.1601,-374.3369 3540,-341.6545 3540,-216.5 3540,-216.5 3540,-216.5 3540,-149.5 3540,-124.3786 3626.5009,-131.5785 3291,-67 3118.1104,-33.7216 2911.1971,-21.8075 2802.0646,-17.6475"/>
<polygon fill="#191970" stroke="#191970" points="3450.2469,-515.2212 3447.455,-525.4416 3456.0111,-519.1929 3450.2469,-515.2212"/>
</g>
<!-- Node25&#45;&gt;Node21 -->
<g id="edge21" class="edge">
<title>Node25&#45;&gt;Node21</title>
<path fill="none" stroke="#191970" d="M3432.8908,-515.4297C3429.9552,-489.5629 3426,-448.0261 3426,-412 3426,-412 3426,-412 3426,-350.5 3426,-185.019 3246.0684,-238.9593 3085,-201 2992.6281,-179.2306 2349.4122,-158.3609 2126.1358,-151.6965"/>
<polygon fill="#191970" stroke="#191970" points="3429.4301,-515.9705 3434.0719,-525.4944 3436.3824,-515.1546 3429.4301,-515.9705"/>
</g>
<!-- Node26 -->
<g id="node10" class="node">
<title>Node26</title>
<g id="a_node10"><a xlink:href="meta__schedule_2cost__model_8h.html" target="_top" xlink:title="include/tvm/meta_schedule\l/cost_model.h">
<polygon fill="#ffffff" stroke="#000000" points="3208,-458.5 3208,-488.5 3360,-488.5 3360,-458.5 3208,-458.5"/>
<text text-anchor="start" x="3216" y="-476.5" font-family="Helvetica,sans-Serif" font-size="10.00" fill="#000000">include/tvm/meta_schedule</text>
<text text-anchor="middle" x="3284" y="-465.5" font-family="Helvetica,sans-Serif" font-size="10.00" fill="#000000">/cost_model.h</text>
</a>
</g>
</g>
<!-- Node25&#45;&gt;Node26 -->
<g id="edge13" class="edge">
<title>Node25&#45;&gt;Node26</title>
<path fill="none" stroke="#191970" d="M3392.4718,-521.3132C3368.9083,-510.9267 3340.216,-498.2794 3318.2605,-488.6017"/>
<polygon fill="#191970" stroke="#191970" points="3391.326,-524.6331 3401.8882,-525.4639 3394.1495,-518.2277 3391.326,-524.6331"/>
</g>
<!-- Node25&#45;&gt;Node27 -->
<g id="edge19" class="edge">
<title>Node25&#45;&gt;Node27</title>
<path fill="none" stroke="#191970" d="M3419.6345,-517.0338C3406.9224,-499.6866 3388.2654,-476.0453 3369,-458 3262.4377,-358.1862 3225.9216,-343.5838 3101,-268 3078.771,-254.5504 3052.6129,-241.2784 3032.4876,-231.5767"/>
<polygon fill="#191970" stroke="#191970" points="3417.0263,-519.4012 3425.7118,-525.4685 3422.7057,-515.3091 3417.0263,-519.4012"/>
</g>
<!-- Node26&#45;&gt;Node20 -->
<g id="edge17" class="edge">
<title>Node26&#45;&gt;Node20</title>
<path fill="none" stroke="#191970" d="M3300.7464,-449.9339C3330.1563,-406.1637 3388,-308.3953 3388,-216.5 3388,-216.5 3388,-216.5 3388,-149.5 3388,-53.7563 3281.7223,-90.8627 3189,-67 3117.8218,-48.6818 2914.3385,-30.4157 2802.2899,-21.3609"/>
<polygon fill="#191970" stroke="#191970" points="3297.69,-448.2029 3294.9333,-458.4329 3303.4677,-452.1549 3297.69,-448.2029"/>
</g>
<!-- Node26&#45;&gt;Node27 -->
<g id="edge14" class="edge">
<title>Node26&#45;&gt;Node27</title>
<path fill="none" stroke="#191970" d="M3262.3625,-450.6213C3224.9096,-411.4885 3144.9031,-329.9336 3071,-268 3055.3607,-254.8936 3036.6407,-241.3977 3022.3501,-231.5109"/>
<polygon fill="#191970" stroke="#191970" points="3260.2567,-453.4847 3269.6912,-458.3057 3265.3224,-448.6535 3260.2567,-453.4847"/>
</g>
<!-- Node27&#45;&gt;Node19 -->
<g id="edge15" class="edge">
<title>Node27&#45;&gt;Node19</title>
<path fill="none" stroke="#191970" d="M3018.1261,-193.1452C3039.3986,-165.7365 3074.0604,-121.076 3092.1553,-97.7614"/>
<polygon fill="#191970" stroke="#191970" points="3015.0943,-191.3431 3011.728,-201.389 3020.6242,-195.635 3015.0943,-191.3431"/>
</g>
<!-- Node27&#45;&gt;Node21 -->
<g id="edge16" class="edge">
<title>Node27&#45;&gt;Node21</title>
<path fill="none" stroke="#191970" d="M2913.6868,-210.4126C2729.574,-197.4278 2300.8867,-167.1941 2126.1686,-154.8719"/>
<polygon fill="#191970" stroke="#191970" points="2913.6419,-213.9181 2923.8634,-211.1304 2914.1344,-206.9354 2913.6419,-213.9181"/>
</g>
<!-- Node28&#45;&gt;Node23 -->
<g id="edge23" class="edge">
<title>Node28&#45;&gt;Node23</title>
<path fill="none" stroke="#191970" d="M2128,-514.956C2128,-461.9283 2128,-341.3033 2128,-298.7267"/>
<polygon fill="#191970" stroke="#191970" points="2124.5001,-515.1931 2128,-525.1931 2131.5001,-515.1932 2124.5001,-515.1931"/>
</g>
<!-- Node30 -->
<g id="node14" class="node">
<title>Node30</title>
<g id="a_node14"><a xlink:href="structural__equal_8h.html" target="_top" xlink:title="Structural equality comparison. ">
<polygon fill="#ffffff" stroke="#000000" points="1716.5,-659.5 1716.5,-689.5 1867.5,-689.5 1867.5,-659.5 1716.5,-659.5"/>
<text text-anchor="start" x="1724.5" y="-677.5" font-family="Helvetica,sans-Serif" font-size="10.00" fill="#000000">include/tvm/node/structural</text>
<text text-anchor="middle" x="1792" y="-666.5" font-family="Helvetica,sans-Serif" font-size="10.00" fill="#000000">_equal.h</text>
</a>
</g>
</g>
<!-- Node29&#45;&gt;Node30 -->
<g id="edge28" class="edge">
<title>Node29&#45;&gt;Node30</title>
<path fill="none" stroke="#191970" d="M1689.5017,-722.1902C1711.6856,-711.8685 1738.6081,-699.3421 1759.2932,-689.7177"/>
<polygon fill="#191970" stroke="#191970" points="1687.9066,-719.072 1680.3164,-726.4639 1690.8596,-725.4187 1687.9066,-719.072"/>
</g>
<!-- Node31 -->
<g id="node15" class="node">
<title>Node31</title>
<g id="a_node15"><a xlink:href="ir_2attrs_8h.html" target="_top" xlink:title="Helpers for attribute objects. ">
<polygon fill="#ffffff" stroke="#ff0000" points="1764.5,-598 1764.5,-617 1883.5,-617 1883.5,-598 1764.5,-598"/>
<text text-anchor="middle" x="1824" y="-605" font-family="Helvetica,sans-Serif" font-size="10.00" fill="#000000">include/tvm/ir/attrs.h</text>
</a>
</g>
</g>
<!-- Node30&#45;&gt;Node31 -->
<g id="edge29" class="edge">
<title>Node30&#45;&gt;Node31</title>
<path fill="none" stroke="#191970" d="M1803.6268,-650.1564C1809.1058,-638.6846 1815.326,-625.6613 1819.4364,-617.055"/>
<polygon fill="#191970" stroke="#191970" points="1800.4129,-648.7646 1799.2613,-659.2967 1806.7294,-651.7815 1800.4129,-648.7646"/>
</g>
<!-- Node210 -->
<g id="node23" class="node">
<title>Node210</title>
<g id="a_node23"><a xlink:href="node_8h.html" target="_top" xlink:title="Definitions and helper macros for IR/AST nodes. ">
<polygon fill="#ffffff" stroke="#ff0000" points="1516.5,-531 1516.5,-550 1653.5,-550 1653.5,-531 1516.5,-531"/>
<text text-anchor="middle" x="1585" y="-538" font-family="Helvetica,sans-Serif" font-size="10.00" fill="#000000">include/tvm/node/node.h</text>
</a>
</g>
</g>
<!-- Node30&#45;&gt;Node210 -->
<g id="edge42" class="edge">
<title>Node30&#45;&gt;Node210</title>
<path fill="none" stroke="#191970" d="M1774.1969,-651.4372C1759.2194,-633.3022 1736.3904,-608.4375 1712,-592 1683.0953,-572.5202 1645.682,-558.47 1618.9644,-550.0145"/>
<polygon fill="#191970" stroke="#191970" points="1771.4958,-653.6634 1780.5033,-659.2415 1776.9404,-649.2637 1771.4958,-653.6634"/>
</g>
<!-- Node240 -->
<g id="node32" class="node">
<title>Node240</title>
<g id="a_node32"><a xlink:href="reflection_8h.html" target="_top" xlink:title="Reflection and serialization of compiler IR/AST nodes. ">
<polygon fill="#ffffff" stroke="#ff0000" points="2560.5,-598 2560.5,-617 2719.5,-617 2719.5,-598 2560.5,-598"/>
<text text-anchor="middle" x="2640" y="-605" font-family="Helvetica,sans-Serif" font-size="10.00" fill="#000000">include/tvm/node/reflection.h</text>
</a>
</g>
</g>
<!-- Node30&#45;&gt;Node240 -->
<g id="edge58" class="edge">
<title>Node30&#45;&gt;Node240</title>
<path fill="none" stroke="#191970" d="M1878.1286,-658.9537C2132.9618,-627.7468 2423.0879,-614.7234 2560.3563,-609.913"/>
<polygon fill="#191970" stroke="#191970" points="1877.4293,-655.5134 1867.9345,-660.2142 1878.2884,-662.4605 1877.4293,-655.5134"/>
</g>
<!-- Node32 -->
<g id="node16" class="node">
<title>Node32</title>
<g id="a_node16"><a xlink:href="ir_2function_8h.html" target="_top" xlink:title="Function nodes. ">
<polygon fill="#ffffff" stroke="#ff0000" points="1286,-531 1286,-550 1422,-550 1422,-531 1286,-531"/>
<text text-anchor="middle" x="1354" y="-538" font-family="Helvetica,sans-Serif" font-size="10.00" fill="#000000">include/tvm/ir/function.h</text>
</a>
</g>
</g>
<!-- Node31&#45;&gt;Node32 -->
<g id="edge30" class="edge">
<title>Node31&#45;&gt;Node32</title>
<path fill="none" stroke="#191970" d="M1754.3919,-597.5771C1664.6061,-584.7779 1509.4905,-562.6657 1420.9943,-550.0502"/>
<polygon fill="#191970" stroke="#191970" points="1754.0803,-601.068 1764.4742,-599.0144 1755.0682,-594.1381 1754.0803,-601.068"/>
</g>
<!-- Node33 -->
<g id="node17" class="node">
<title>Node33</title>
<g id="a_node17"><a xlink:href="ir_2module_8h.html" target="_top" xlink:title="IRModule that holds the functions and type definitions. ">
<polygon fill="#ffffff" stroke="#ff0000" points="1520.5,-341 1520.5,-360 1653.5,-360 1653.5,-341 1520.5,-341"/>
<text text-anchor="middle" x="1587" y="-348" font-family="Helvetica,sans-Serif" font-size="10.00" fill="#000000">include/tvm/ir/module.h</text>
</a>
</g>
</g>
<!-- Node32&#45;&gt;Node33 -->
<g id="edge31" class="edge">
<title>Node32&#45;&gt;Node33</title>
<path fill="none" stroke="#191970" d="M1373.7855,-524.3659C1420.6977,-486.1113 1537.5554,-390.8197 1575.1491,-360.1638"/>
<polygon fill="#191970" stroke="#191970" points="1371.4129,-521.7844 1365.8748,-530.8167 1375.8367,-527.2094 1371.4129,-521.7844"/>
</g>
<!-- Node193 -->
<g id="node22" class="node">
<title>Node193</title>
<g id="a_node22"><a xlink:href="tir_2function_8h.html" target="_top" xlink:title="TIR Function. ">
<polygon fill="#ffffff" stroke="#ff0000" points="1188,-402.5 1188,-421.5 1328,-421.5 1328,-402.5 1188,-402.5"/>
<text text-anchor="middle" x="1258" y="-409.5" font-family="Helvetica,sans-Serif" font-size="10.00" fill="#000000">include/tvm/tir/function.h</text>
</a>
</g>
</g>
<!-- Node32&#45;&gt;Node193 -->
<g id="edge41" class="edge">
<title>Node32&#45;&gt;Node193</title>
<path fill="none" stroke="#191970" d="M1340.5551,-522.5035C1319.9753,-494.9566 1281.3621,-443.2711 1265.2993,-421.7705"/>
<polygon fill="#191970" stroke="#191970" points="1337.9954,-524.9252 1346.7844,-530.8416 1343.6033,-520.7356 1337.9954,-524.9252"/>
</g>
<!-- Node33&#45;&gt;Node18 -->
<g id="edge34" class="edge">
<title>Node33&#45;&gt;Node18</title>
<path fill="none" stroke="#191970" d="M1557.7076,-336.5809C1534.315,-325.4653 1501.5954,-309.9177 1477.613,-298.5218"/>
<polygon fill="#191970" stroke="#191970" points="1556.2638,-339.7699 1566.7981,-340.9005 1559.2681,-333.4473 1556.2638,-339.7699"/>
</g>
<!-- Node33&#45;&gt;Node21 -->
<g id="edge40" class="edge">
<title>Node33&#45;&gt;Node21</title>
<path fill="none" stroke="#191970" d="M1634.9359,-337.6277C1657.3344,-329.5908 1682.9725,-317.2238 1701,-299 1734.4501,-265.1856 1706.4841,-230.2383 1744,-201 1778.8962,-173.8034 1894.9791,-160.3055 1973.7047,-154.1236"/>
<polygon fill="#191970" stroke="#191970" points="1633.5861,-334.3896 1625.2402,-340.9162 1635.8345,-341.0187 1633.5861,-334.3896"/>
</g>
<!-- Node33&#45;&gt;Node23 -->
<g id="edge39" class="edge">
<title>Node33&#45;&gt;Node23</title>
<path fill="none" stroke="#191970" d="M1663.6309,-341.0097C1766.6495,-328.2514 1948.7219,-305.7026 2051.6147,-292.9599"/>
<polygon fill="#191970" stroke="#191970" points="1663.1023,-337.5483 1653.6083,-342.2509 1663.9627,-344.4952 1663.1023,-337.5483"/>
</g>
<!-- Node33&#45;&gt;Node24 -->
<g id="edge38" class="edge">
<title>Node33&#45;&gt;Node24</title>
<path fill="none" stroke="#191970" d="M1637.2951,-338.6762C1684.8334,-327.5006 1756.3644,-310.6845 1807.9586,-298.5553"/>
<polygon fill="#191970" stroke="#191970" points="1636.4645,-335.276 1627.5309,-340.9717 1638.0665,-342.0902 1636.4645,-335.276"/>
</g>
<!-- Node37 -->
<g id="node18" class="node">
<title>Node37</title>
<g id="a_node18"><a xlink:href="ir_2transform_8h.html" target="_top" xlink:title="include/tvm/ir/transform.h">
<polygon fill="#ffffff" stroke="#ff0000" points="550,-274 550,-293 694,-293 694,-274 550,-274"/>
<text text-anchor="middle" x="622" y="-281" font-family="Helvetica,sans-Serif" font-size="10.00" fill="#000000">include/tvm/ir/transform.h</text>
</a>
</g>
</g>
<!-- Node33&#45;&gt;Node37 -->
<g id="edge32" class="edge">
<title>Node33&#45;&gt;Node37</title>
<path fill="none" stroke="#191970" d="M1510.2588,-345.1719C1328.1274,-332.5265 871.786,-300.8427 694.2541,-288.5166"/>
<polygon fill="#191970" stroke="#191970" points="1510.0725,-348.6673 1520.2909,-345.8684 1510.5574,-341.6841 1510.0725,-348.6673"/>
</g>
<!-- Node59 -->
<g id="node20" class="node">
<title>Node59</title>
<g id="a_node20"><a xlink:href="database_8h.html" target="_top" xlink:title="include/tvm/meta_schedule\l/database.h">
<polygon fill="#ffffff" stroke="#ff0000" points="2754,-268.5 2754,-298.5 2906,-298.5 2906,-268.5 2754,-268.5"/>
<text text-anchor="start" x="2762" y="-286.5" font-family="Helvetica,sans-Serif" font-size="10.00" fill="#000000">include/tvm/meta_schedule</text>
<text text-anchor="middle" x="2830" y="-275.5" font-family="Helvetica,sans-Serif" font-size="10.00" fill="#000000">/database.h</text>
</a>
</g>
</g>
<!-- Node33&#45;&gt;Node59 -->
<g id="edge35" class="edge">
<title>Node33&#45;&gt;Node59</title>
<path fill="none" stroke="#191970" d="M1664.1353,-346.3423C1887.3263,-334.3119 2531.9633,-299.5647 2753.8758,-287.6032"/>
<polygon fill="#191970" stroke="#191970" points="1663.6262,-342.8645 1653.8291,-346.8978 1664.003,-349.8544 1663.6262,-342.8645"/>
</g>
<!-- Node60 -->
<g id="node21" class="node">
<title>Node60</title>
<g id="a_node21"><a xlink:href="extracted__task_8h.html" target="_top" xlink:title="include/tvm/meta_schedule\l/extracted_task.h">
<polygon fill="#ffffff" stroke="#000000" points="1540,-268.5 1540,-298.5 1692,-298.5 1692,-268.5 1540,-268.5"/>
<text text-anchor="start" x="1548" y="-286.5" font-family="Helvetica,sans-Serif" font-size="10.00" fill="#000000">include/tvm/meta_schedule</text>
<text text-anchor="middle" x="1616" y="-275.5" font-family="Helvetica,sans-Serif" font-size="10.00" fill="#000000">/extracted_task.h</text>
</a>
</g>
</g>
<!-- Node33&#45;&gt;Node60 -->
<g id="edge37" class="edge">
<title>Node33&#45;&gt;Node60</title>
<path fill="none" stroke="#191970" d="M1595.2537,-331.4311C1599.7713,-320.9939 1605.2889,-308.2463 1609.498,-298.5218"/>
<polygon fill="#191970" stroke="#191970" points="1591.9153,-330.333 1591.155,-340.9005 1598.3393,-333.1136 1591.9153,-330.333"/>
</g>
<!-- Node39 -->
<g id="node19" class="node">
<title>Node39</title>
<g id="a_node19"><a xlink:href="relax_2transform_8h.html" target="_top" xlink:title="Relax specific transformation passes. ">
<polygon fill="#ffffff" stroke="#ff0000" points="512,-207 512,-226 674,-226 674,-207 512,-207"/>
<text text-anchor="middle" x="593" y="-214" font-family="Helvetica,sans-Serif" font-size="10.00" fill="#000000">include/tvm/relax/transform.h</text>
</a>
</g>
</g>
<!-- Node37&#45;&gt;Node39 -->
<g id="edge33" class="edge">
<title>Node37&#45;&gt;Node39</title>
<path fill="none" stroke="#191970" d="M613.7168,-264.3628C608.2983,-251.8444 601.4512,-236.0252 597.1473,-226.0817"/>
<polygon fill="#191970" stroke="#191970" points="610.6607,-266.1136 617.845,-273.9005 617.0847,-263.333 610.6607,-266.1136"/>
</g>
<!-- Node59&#45;&gt;Node27 -->
<g id="edge36" class="edge">
<title>Node59&#45;&gt;Node27</title>
<path fill="none" stroke="#191970" d="M2877.6318,-264.7275C2904.1796,-254.2645 2936.7995,-241.4084 2961.6823,-231.6017"/>
<polygon fill="#191970" stroke="#191970" points="2876.1715,-261.5409 2868.1513,-268.4639 2878.7382,-268.0534 2876.1715,-261.5409"/>
</g>
<!-- Node211 -->
<g id="node24" class="node">
<title>Node211</title>
<g id="a_node24"><a xlink:href="ir_2adt_8h.html" target="_top" xlink:title="Algebraic data type definitions. ">
<polygon fill="#ffffff" stroke="#ff0000" points="1587,-402.5 1587,-421.5 1699,-421.5 1699,-402.5 1587,-402.5"/>
<text text-anchor="middle" x="1643" y="-409.5" font-family="Helvetica,sans-Serif" font-size="10.00" fill="#000000">include/tvm/ir/adt.h</text>
</a>
</g>
</g>
<!-- Node210&#45;&gt;Node211 -->
<g id="edge43" class="edge">
<title>Node210&#45;&gt;Node211</title>
<path fill="none" stroke="#191970" d="M1601.4775,-523.2349C1609.6602,-513.7881 1619.0447,-501.4873 1625,-489 1635.8146,-466.3237 1640.3657,-436.7203 1642.0819,-421.681"/>
<polygon fill="#191970" stroke="#191970" points="1598.8113,-520.9652 1594.7124,-530.735 1604.0092,-525.6537 1598.8113,-520.9652"/>
</g>
<!-- Node236 -->
<g id="node25" class="node">
<title>Node236</title>
<g id="a_node25"><a xlink:href="ir_2type_8h.html" target="_top" xlink:title="IR/AST nodes for the unified type system in TVM. ">
<polygon fill="#ffffff" stroke="#ff0000" points="1498,-464 1498,-483 1616,-483 1616,-464 1498,-464"/>
<text text-anchor="middle" x="1557" y="-471" font-family="Helvetica,sans-Serif" font-size="10.00" fill="#000000">include/tvm/ir/type.h</text>
</a>
</g>
</g>
<!-- Node210&#45;&gt;Node236 -->
<g id="edge45" class="edge">
<title>Node210&#45;&gt;Node236</title>
<path fill="none" stroke="#191970" d="M1577.0024,-521.3628C1571.7708,-508.8444 1565.1598,-493.0252 1561.0043,-483.0817"/>
<polygon fill="#191970" stroke="#191970" points="1573.9029,-523.0234 1580.9883,-530.9005 1580.3616,-520.3242 1573.9029,-523.0234"/>
</g>
<!-- Node91 -->
<g id="node26" class="node">
<title>Node91</title>
<g id="a_node26"><a xlink:href="relax_2expr_8h.html" target="_top" xlink:title="include/tvm/relax/expr.h">
<polygon fill="#ffffff" stroke="#ff0000" points="588.5,-402.5 588.5,-421.5 723.5,-421.5 723.5,-402.5 588.5,-402.5"/>
<text text-anchor="middle" x="656" y="-409.5" font-family="Helvetica,sans-Serif" font-size="10.00" fill="#000000">include/tvm/relax/expr.h</text>
</a>
</g>
</g>
<!-- Node210&#45;&gt;Node91 -->
<g id="edge48" class="edge">
<title>Node210&#45;&gt;Node91</title>
<path fill="none" stroke="#191970" d="M1533.4066,-528.7739C1453.5647,-511.0215 1295.0729,-477.3486 1159,-458 1004.0307,-435.9645 820.6227,-422.2939 723.7776,-416.0364"/>
<polygon fill="#191970" stroke="#191970" points="1532.6893,-532.1998 1543.2115,-530.9619 1534.2139,-525.3678 1532.6893,-532.1998"/>
</g>
<!-- Node226 -->
<g id="node31" class="node">
<title>Node226</title>
<g id="a_node31"><a xlink:href="tir_2expr_8h.html" target="_top" xlink:title="TIR expressions. ">
<polygon fill="#ffffff" stroke="#ff0000" points="1028.5,-464 1028.5,-483 1149.5,-483 1149.5,-464 1028.5,-464"/>
<text text-anchor="middle" x="1089" y="-471" font-family="Helvetica,sans-Serif" font-size="10.00" fill="#000000">include/tvm/tir/expr.h</text>
</a>
</g>
</g>
<!-- Node210&#45;&gt;Node226 -->
<g id="edge55" class="edge">
<title>Node210&#45;&gt;Node226</title>
<path fill="none" stroke="#191970" d="M1506.3415,-529.8748C1407.3191,-516.4987 1239.3491,-493.8093 1149.6729,-481.6957"/>
<polygon fill="#191970" stroke="#191970" points="1505.9153,-533.3489 1516.2939,-531.2191 1506.8525,-526.4119 1505.9153,-533.3489"/>
</g>
<!-- Node211&#45;&gt;Node33 -->
<g id="edge44" class="edge">
<title>Node211&#45;&gt;Node33</title>
<path fill="none" stroke="#191970" d="M1627.4299,-394.9007C1617.2553,-383.7268 1604.3332,-369.5356 1595.8734,-360.2449"/>
<polygon fill="#191970" stroke="#191970" points="1624.9294,-397.3531 1634.25,-402.3906 1630.1052,-392.6402 1624.9294,-397.3531"/>
</g>
<!-- Node236&#45;&gt;Node33 -->
<g id="edge47" class="edge">
<title>Node236&#45;&gt;Node33</title>
<path fill="none" stroke="#191970" d="M1561.7347,-454.0879C1568.2518,-427.3678 1579.7377,-380.2756 1584.6569,-360.1068"/>
<polygon fill="#191970" stroke="#191970" points="1558.3234,-453.3038 1559.354,-463.8484 1565.124,-454.9626 1558.3234,-453.3038"/>
</g>
<!-- Node236&#45;&gt;Node211 -->
<g id="edge46" class="edge">
<title>Node236&#45;&gt;Node211</title>
<path fill="none" stroke="#191970" d="M1578.7188,-457.9685C1594.7509,-446.5037 1616.0604,-431.265 1629.6569,-421.5419"/>
<polygon fill="#191970" stroke="#191970" points="1576.5357,-455.2268 1570.4375,-463.8906 1580.6076,-460.9207 1576.5357,-455.2268"/>
</g>
<!-- Node91&#45;&gt;Node39 -->
<g id="edge54" class="edge">
<title>Node91&#45;&gt;Node39</title>
<path fill="none" stroke="#191970" d="M631.3906,-396.7448C603.415,-377.7873 559.2658,-342.5561 541,-299 535.6717,-286.2942 535.6967,-280.7162 541,-268 548.4339,-250.1749 565.3721,-235.3614 577.9074,-226.2672"/>
<polygon fill="#191970" stroke="#191970" points="629.5755,-399.7402 639.852,-402.3179 633.4259,-393.8943 629.5755,-399.7402"/>
</g>
<!-- Node91&#45;&gt;Node109 -->
<g id="edge49" class="edge">
<title>Node91&#45;&gt;Node109</title>
<path fill="none" stroke="#191970" d="M597.7251,-400.5131C546.7732,-390.4697 472.5343,-375.8361 417.513,-364.9905"/>
<polygon fill="#191970" stroke="#191970" points="597.1042,-403.958 607.5923,-402.4581 598.458,-397.0902 597.1042,-403.958"/>
</g>
<!-- Node91&#45;&gt;Node104 -->
<g id="edge53" class="edge">
<title>Node91&#45;&gt;Node104</title>
<path fill="none" stroke="#191970" d="M667.5389,-393.8041C673.2459,-384.8045 680.0513,-374.073 685.4595,-365.5446"/>
<polygon fill="#191970" stroke="#191970" points="664.4934,-392.0711 662.0938,-402.3906 670.405,-395.8199 664.4934,-392.0711"/>
</g>
<!-- Node109&#45;&gt;Node39 -->
<g id="edge52" class="edge">
<title>Node109&#45;&gt;Node39</title>
<path fill="none" stroke="#191970" d="M318.083,-328.3544C300.7012,-310.8402 283.5736,-286.3635 299,-268 325.748,-236.1593 434.5191,-224.0008 511.9503,-219.3604"/>
<polygon fill="#191970" stroke="#191970" points="315.8054,-331.019 325.4538,-335.3962 320.6409,-325.9576 315.8054,-331.019"/>
</g>
<!-- Node109&#45;&gt;Node110 -->
<g id="edge50" class="edge">
<title>Node109&#45;&gt;Node110</title>
<path fill="none" stroke="#191970" d="M288.5117,-332.2759C256.3608,-321.7165 216.3645,-308.5805 185.9813,-298.6017"/>
<polygon fill="#191970" stroke="#191970" points="287.6256,-335.6687 298.2184,-335.4639 289.8098,-329.0182 287.6256,-335.6687"/>
</g>
<!-- Node111 -->
<g id="node29" class="node">
<title>Node111</title>
<g id="a_node29"><a xlink:href="relax_2dataflow__pattern__functor_8h.html" target="_top" xlink:title="Functors and visitors for dataflow patterns. ">
<polygon fill="#ffffff" stroke="#000000" points="308.5,-268.5 308.5,-298.5 455.5,-298.5 455.5,-268.5 308.5,-268.5"/>
<text text-anchor="start" x="316.5" y="-286.5" font-family="Helvetica,sans-Serif" font-size="10.00" fill="#000000">include/tvm/relax/dataflow</text>
<text text-anchor="middle" x="382" y="-275.5" font-family="Helvetica,sans-Serif" font-size="10.00" fill="#000000">_pattern_functor.h</text>
</a>
</g>
</g>
<!-- Node109&#45;&gt;Node111 -->
<g id="edge51" class="edge">
<title>Node109&#45;&gt;Node111</title>
<path fill="none" stroke="#191970" d="M357.6212,-326.4837C362.8868,-317.1996 368.753,-306.8565 373.4113,-298.6432"/>
<polygon fill="#191970" stroke="#191970" points="354.5118,-324.8716 352.6228,-335.2967 360.6007,-328.325 354.5118,-324.8716"/>
</g>
<!-- Node226&#45;&gt;Node193 -->
<g id="edge57" class="edge">
<title>Node226&#45;&gt;Node193</title>
<path fill="none" stroke="#191970" d="M1124.8599,-460.4504C1156.898,-448.7916 1203.0814,-431.9852 1231.7792,-421.5419"/>
<polygon fill="#191970" stroke="#191970" points="1123.6065,-457.1819 1115.4063,-463.8906 1126.0003,-463.7599 1123.6065,-457.1819"/>
</g>
<!-- Node226&#45;&gt;Node91 -->
<g id="edge56" class="edge">
<title>Node226&#45;&gt;Node91</title>
<path fill="none" stroke="#191970" d="M1018.1427,-463.436C936.4178,-451.8284 803.064,-432.8878 723.0047,-421.5168"/>
<polygon fill="#191970" stroke="#191970" points="1017.9444,-466.9429 1028.3373,-464.8839 1018.9288,-460.0124 1017.9444,-466.9429"/>
</g>
<!-- Node240&#45;&gt;Node18 -->
<g id="edge59" class="edge">
<title>Node240&#45;&gt;Node18</title>
<path fill="none" stroke="#191970" d="M2629.3109,-588.7225C2608.2355,-552.3674 2561.1056,-474.4863 2535,-458 2533.9206,-457.3183 1811.2627,-335.1885 1810,-335 1686.3423,-316.5399 1654.5417,-318.2212 1531,-299 1528.1838,-298.5618 1525.3175,-298.1034 1522.4239,-297.6299"/>
<polygon fill="#191970" stroke="#191970" points="2626.506,-590.8658 2634.5253,-597.7898 2632.5741,-587.3762 2626.506,-590.8658"/>
</g>
<!-- Node240&#45;&gt;Node19 -->
<g id="edge64" class="edge">
<title>Node240&#45;&gt;Node19</title>
<path fill="none" stroke="#191970" d="M2729.838,-601.564C2874.858,-591.5686 3145.9535,-571.0018 3161,-556 3194.3061,-522.7928 3217.5945,-174.6855 3194,-134 3184.3367,-117.3368 3167.0285,-105.6061 3150.1542,-97.5956"/>
<polygon fill="#191970" stroke="#191970" points="2729.3567,-598.0887 2719.6198,-602.2652 2729.8359,-605.0723 2729.3567,-598.0887"/>
</g>
<!-- Node240&#45;&gt;Node20 -->
<g id="edge76" class="edge">
<title>Node240&#45;&gt;Node20</title>
<path fill="none" stroke="#191970" d="M2729.854,-604.7255C2947.7256,-597.6657 3488.6912,-578.0127 3521,-556 3604.1546,-499.3449 3616,-451.1205 3616,-350.5 3616,-350.5 3616,-350.5 3616,-149.5 3616,-39.2256 3489.8827,-89.8423 3382,-67 3273.242,-43.9724 2950.6926,-26.1921 2802.2839,-18.9903"/>
<polygon fill="#191970" stroke="#191970" points="2729.6086,-601.2315 2719.7267,-605.0521 2729.8343,-608.2279 2729.6086,-601.2315"/>
</g>
<!-- Node240&#45;&gt;Node21 -->
<g id="edge77" class="edge">
<title>Node240&#45;&gt;Node21</title>
<path fill="none" stroke="#191970" d="M2655.1935,-589.9353C2674.6827,-565.5424 2706,-519.2306 2706,-473.5 2706,-473.5 2706,-473.5 2706,-412 2706,-288.3348 2299.0766,-196.635 2126.2136,-163.2597"/>
<polygon fill="#191970" stroke="#191970" points="2652.295,-587.9487 2648.6283,-597.8888 2657.6935,-592.4048 2652.295,-587.9487"/>
</g>
<!-- Node240&#45;&gt;Node22 -->
<g id="edge70" class="edge">
<title>Node240&#45;&gt;Node22</title>
<path fill="none" stroke="#191970" d="M2592.2199,-595.4652C2547.8516,-584.2897 2481.6244,-567.6084 2433.772,-555.5553"/>
<polygon fill="#191970" stroke="#191970" points="2591.6191,-598.9231 2602.1712,-597.9717 2593.329,-592.1351 2591.6191,-598.9231"/>
</g>
<!-- Node240&#45;&gt;Node23 -->
<g id="edge75" class="edge">
<title>Node240&#45;&gt;Node23</title>
<path fill="none" stroke="#191970" d="M2646.6356,-588.2353C2654.9156,-562.4376 2668,-515.0911 2668,-473.5 2668,-473.5 2668,-473.5 2668,-412 2668,-317.8005 2353.0748,-292.5355 2204.2235,-285.855"/>
<polygon fill="#191970" stroke="#191970" points="2643.2587,-587.2991 2643.4333,-597.8925 2649.9029,-589.5023 2643.2587,-587.2991"/>
</g>
<!-- Node240&#45;&gt;Node24 -->
<g id="edge71" class="edge">
<title>Node240&#45;&gt;Node24</title>
<path fill="none" stroke="#191970" d="M2641.8559,-587.8301C2645.4834,-536.4203 2647.1718,-397.6997 2568,-335 2522.1628,-298.6995 2101.286,-303.6394 2043,-299 2011.9476,-296.5283 1977.7529,-293.4917 1948.1555,-290.7634"/>
<polygon fill="#191970" stroke="#191970" points="2638.3571,-587.6745 2641.0337,-597.9256 2645.334,-588.2427 2638.3571,-587.6745"/>
</g>
<!-- Node240&#45;&gt;Node25 -->
<g id="edge72" class="edge">
<title>Node240&#45;&gt;Node25</title>
<path fill="none" stroke="#191970" d="M2729.7526,-599.9454C2887.5953,-586.6597 3212.1202,-559.3442 3359.8043,-546.9135"/>
<polygon fill="#191970" stroke="#191970" points="2729.2717,-596.4735 2719.6005,-600.8 2729.8589,-603.4488 2729.2717,-596.4735"/>
</g>
<!-- Node240&#45;&gt;Node26 -->
<g id="edge60" class="edge">
<title>Node240&#45;&gt;Node26</title>
<path fill="none" stroke="#191970" d="M2730.0194,-602.2835C2876.1055,-593.3486 3152.7147,-574.3044 3194,-556 3227.9102,-540.9655 3257.5158,-507.9337 3272.8558,-488.5359"/>
<polygon fill="#191970" stroke="#191970" points="2729.5009,-598.8085 2719.7318,-602.9092 2729.9259,-605.7956 2729.5009,-598.8085"/>
</g>
<!-- Node240&#45;&gt;Node27 -->
<g id="edge74" class="edge">
<title>Node240&#45;&gt;Node27</title>
<path fill="none" stroke="#191970" d="M2700.4597,-595.6705C2786.51,-574.9202 2934,-523.143 2934,-412 2934,-412 2934,-412 2934,-350.5 2934,-312.3133 2940.2437,-301.8074 2958,-268 2965.0814,-254.5173 2976.0266,-241.2464 2984.9683,-231.5534"/>
<polygon fill="#191970" stroke="#191970" points="2699.4802,-592.3051 2690.5404,-597.9911 2701.0748,-599.121 2699.4802,-592.3051"/>
</g>
<!-- Node240&#45;&gt;Node28 -->
<g id="edge73" class="edge">
<title>Node240&#45;&gt;Node28</title>
<path fill="none" stroke="#191970" d="M2557.0725,-596.6482C2459.5216,-583.8827 2298.9127,-562.8655 2204.3204,-550.4872"/>
<polygon fill="#191970" stroke="#191970" points="2556.817,-600.1445 2567.1866,-597.9717 2557.7253,-593.2037 2556.817,-600.1445"/>
</g>
<!-- Node240&#45;&gt;Node59 -->
<g id="edge61" class="edge">
<title>Node240&#45;&gt;Node59</title>
<path fill="none" stroke="#191970" d="M2671.2411,-593.2476C2687.5933,-584.4691 2706.8842,-571.8512 2720,-556 2788.3003,-473.4553 2818.5658,-342.9668 2827.2372,-298.7377"/>
<polygon fill="#191970" stroke="#191970" points="2669.3276,-590.2951 2662.0216,-597.968 2672.5178,-596.5259 2669.3276,-590.2951"/>
</g>
<!-- Node240&#45;&gt;Node60 -->
<g id="edge62" class="edge">
<title>Node240&#45;&gt;Node60</title>
<path fill="none" stroke="#191970" d="M2636.3901,-587.9588C2629.3309,-555.5716 2610.5112,-491.0689 2568,-458 2498.5771,-403.9968 1905.9069,-321.6036 1692.3249,-293.3825"/>
<polygon fill="#191970" stroke="#191970" points="2633.0022,-588.8639 2638.4161,-597.9711 2639.8631,-587.4755 2633.0022,-588.8639"/>
</g>
<!-- Node240&#45;&gt;Node210 -->
<g id="edge78" class="edge">
<title>Node240&#45;&gt;Node210</title>
<path fill="none" stroke="#191970" d="M2550.058,-601.788C2343.299,-588.6574 1837.8208,-556.5559 1653.6037,-544.8568"/>
<polygon fill="#191970" stroke="#191970" points="2550.0693,-605.2957 2560.2711,-602.4366 2550.513,-598.3098 2550.0693,-605.2957"/>
</g>
<!-- Node180 -->
<g id="node33" class="node">
<title>Node180</title>
<g id="a_node33"><a xlink:href="feature__extractor_8h.html" target="_top" xlink:title="include/tvm/meta_schedule\l/feature_extractor.h">
<polygon fill="#ffffff" stroke="#000000" points="2374,-458.5 2374,-488.5 2526,-488.5 2526,-458.5 2374,-458.5"/>
<text text-anchor="start" x="2382" y="-476.5" font-family="Helvetica,sans-Serif" font-size="10.00" fill="#000000">include/tvm/meta_schedule</text>
<text text-anchor="middle" x="2450" y="-465.5" font-family="Helvetica,sans-Serif" font-size="10.00" fill="#000000">/feature_extractor.h</text>
</a>
</g>
</g>
<!-- Node240&#45;&gt;Node180 -->
<g id="edge63" class="edge">
<title>Node240&#45;&gt;Node180</title>
<path fill="none" stroke="#191970" d="M2608.0523,-593.7145C2587.7839,-584.3346 2561.4362,-570.9427 2540,-556 2510.6133,-535.5152 2480.8036,-506.1227 2463.9364,-488.5109"/>
<polygon fill="#191970" stroke="#191970" points="2606.6285,-596.9119 2617.1809,-597.8594 2609.5226,-590.5382 2606.6285,-596.9119"/>
</g>
<!-- Node179 -->
<g id="node34" class="node">
<title>Node179</title>
<g id="a_node34"><a xlink:href="measure__candidate_8h.html" target="_top" xlink:title="include/tvm/meta_schedule\l/measure_candidate.h">
<polygon fill="#ffffff" stroke="#000000" points="3000,-525.5 3000,-555.5 3152,-555.5 3152,-525.5 3000,-525.5"/>
<text text-anchor="start" x="3008" y="-543.5" font-family="Helvetica,sans-Serif" font-size="10.00" fill="#000000">include/tvm/meta_schedule</text>
<text text-anchor="middle" x="3076" y="-532.5" font-family="Helvetica,sans-Serif" font-size="10.00" fill="#000000">/measure_candidate.h</text>
</a>
</g>
</g>
<!-- Node240&#45;&gt;Node179 -->
<g id="edge65" class="edge">
<title>Node240&#45;&gt;Node179</title>
<path fill="none" stroke="#191970" d="M2711.9307,-596.4464C2791.3961,-584.235 2918.8217,-564.6535 2999.9139,-552.1921"/>
<polygon fill="#191970" stroke="#191970" points="2711.3575,-592.9933 2702.0051,-597.9717 2712.4208,-599.9121 2711.3575,-592.9933"/>
</g>
<!-- Node179&#45;&gt;Node19 -->
<g id="edge68" class="edge">
<title>Node179&#45;&gt;Node19</title>
<path fill="none" stroke="#191970" d="M3084.7304,-515.6565C3092.9474,-490.0255 3104,-448.7238 3104,-412 3104,-412 3104,-412 3104,-216.5 3104,-173.4618 3104,-122.6482 3104,-97.7729"/>
<polygon fill="#191970" stroke="#191970" points="3081.3563,-514.7119 3081.5319,-525.3053 3088.0008,-516.9146 3081.3563,-514.7119"/>
</g>
<!-- Node179&#45;&gt;Node26 -->
<g id="edge66" class="edge">
<title>Node179&#45;&gt;Node26</title>
<path fill="none" stroke="#191970" d="M3132.5763,-522.2759C3165.3577,-511.7165 3206.1382,-498.5805 3237.1171,-488.6017"/>
<polygon fill="#191970" stroke="#191970" points="3131.1245,-519.0664 3122.6793,-525.4639 3133.2708,-525.7292 3131.1245,-519.0664"/>
</g>
<!-- Node179&#45;&gt;Node27 -->
<g id="edge69" class="edge">
<title>Node179&#45;&gt;Node27</title>
<path fill="none" stroke="#191970" d="M3070.0013,-515.1246C3064.4335,-489.3215 3057,-448.1107 3057,-412 3057,-412 3057,-412 3057,-350.5 3057,-304.2355 3027.8729,-255.6406 3011.2614,-231.6882"/>
<polygon fill="#191970" stroke="#191970" points="3066.6513,-516.1828 3072.2462,-525.1799 3073.4831,-514.6575 3066.6513,-516.1828"/>
</g>
<!-- Node179&#45;&gt;Node180 -->
<g id="edge67" class="edge">
<title>Node179&#45;&gt;Node180</title>
<path fill="none" stroke="#191970" d="M2989.7416,-531.2679C2866.81,-518.1107 2643.1741,-494.1752 2526.0932,-481.6442"/>
<polygon fill="#191970" stroke="#191970" points="2989.5502,-534.7673 2999.866,-532.3515 2990.2952,-527.807 2989.5502,-534.7673"/>
</g>
<!-- Node245&#45;&gt;Node18 -->
<g id="edge88" class="edge">
<title>Node245&#45;&gt;Node18</title>
<path fill="none" stroke="#191970" d="M1292.76,-738.6494C1192.7488,-733.5033 1012.0486,-720.2453 955,-690 854.1789,-636.5479 776.4761,-549.2497 845,-458 908.489,-373.455 1222.8121,-316.6028 1369.8783,-294.2021"/>
<polygon fill="#191970" stroke="#191970" points="1292.6076,-742.1461 1302.7704,-739.1513 1292.9582,-735.1549 1292.6076,-742.1461"/>
</g>
<!-- Node245&#45;&gt;Node19 -->
<g id="edge93" class="edge">
<title>Node245&#45;&gt;Node19</title>
<path fill="none" stroke="#191970" d="M1429.3901,-735.7854C1470.665,-732.5087 1524.3242,-728.5521 1572,-726 1809.5722,-713.2825 2411.404,-748.5469 2642,-690 2671.8606,-682.4186 2674.3007,-667.1907 2704,-659 2911.0877,-601.8876 2973.1639,-652.1196 3186,-623 3336.436,-602.4178 3424.7367,-673.4223 3521,-556 3625.0765,-429.0471 3538.6341,-313.4127 3419,-201 3378.1099,-162.5781 3363.6565,-155.9056 3312,-134 3270.0447,-116.2083 3220.6146,-103.6515 3180.4703,-95.3935"/>
<polygon fill="#191970" stroke="#191970" points="1428.8635,-732.3163 1419.1744,-736.6026 1429.4217,-739.294 1428.8635,-732.3163"/>
</g>
<!-- Node245&#45;&gt;Node20 -->
<g id="edge100" class="edge">
<title>Node245&#45;&gt;Node20</title>
<path fill="none" stroke="#191970" d="M1292.7329,-739.5936C1113.1114,-734.2195 636.6254,-717.5226 571,-690 356.6616,-600.1088 242,-515.925 242,-283.5 242,-283.5 242,-283.5 242,-149.5 242,-87.637 2232.9187,-29.1408 2649.9617,-17.5661"/>
<polygon fill="#191970" stroke="#191970" points="1292.7535,-743.0956 1302.8529,-739.8937 1292.9611,-736.0987 1292.7535,-743.0956"/>
</g>
<!-- Node245&#45;&gt;Node21 -->
<g id="edge101" class="edge">
<title>Node245&#45;&gt;Node21</title>
<path fill="none" stroke="#191970" d="M1378.6175,-718.6125C1405.5391,-685.3214 1460.2331,-624.0291 1521,-592 1586.2477,-557.6091 1619.2074,-593.0203 1683,-556 1725.8594,-531.1277 1758,-523.0536 1758,-473.5 1758,-473.5 1758,-473.5 1758,-283.5 1758,-233.2305 1902.7616,-187.3189 1988.4311,-164.55"/>
<polygon fill="#191970" stroke="#191970" points="1375.8769,-716.4355 1372.3846,-726.4382 1381.3525,-720.7966 1375.8769,-716.4355"/>
</g>
<!-- Node245&#45;&gt;Node23 -->
<g id="edge99" class="edge">
<title>Node245&#45;&gt;Node23</title>
<path fill="none" stroke="#191970" d="M1428.7782,-728.6409C1454.2416,-720.9763 1481.8653,-708.8991 1502,-690 1536.68,-657.4482 1508.1055,-622.0186 1545,-592 1604.9069,-543.2578 1643.7445,-585.7876 1715,-556 1800.5964,-520.2174 2035.7694,-350.8213 2107.1712,-298.7587"/>
<polygon fill="#191970" stroke="#191970" points="1427.8138,-725.2763 1419.145,-731.3675 1429.7202,-732.0118 1427.8138,-725.2763"/>
</g>
<!-- Node245&#45;&gt;Node24 -->
<g id="edge95" class="edge">
<title>Node245&#45;&gt;Node24</title>
<path fill="none" stroke="#191970" d="M1377.5974,-718.0752C1402.6784,-684.5499 1453.5601,-623.4684 1512,-592 1580.3823,-555.1779 1618.2895,-598.9483 1683,-556 1784.937,-488.3446 1847.8693,-345.2471 1866.3131,-298.5698"/>
<polygon fill="#191970" stroke="#191970" points="1374.6085,-716.2319 1371.5047,-726.3619 1380.2482,-720.3785 1374.6085,-716.2319"/>
</g>
<!-- Node245&#45;&gt;Node25 -->
<g id="edge96" class="edge">
<title>Node245&#45;&gt;Node25</title>
<path fill="none" stroke="#191970" d="M1429.3918,-735.8182C1470.6674,-732.553 1524.3266,-728.5972 1572,-726 1796.9197,-713.7465 2363.8321,-732.7059 2585,-690 2624.8927,-682.297 2631.3045,-667.662 2671,-659 2857.9379,-618.208 2911.176,-653.9077 3100,-623 3202.6977,-606.1899 3320.2808,-574.3475 3385.5661,-555.5182"/>
<polygon fill="#191970" stroke="#191970" points="1428.8664,-732.3489 1419.176,-736.6322 1429.4225,-739.3268 1428.8664,-732.3489"/>
</g>
<!-- Node245&#45;&gt;Node26 -->
<g id="edge89" class="edge">
<title>Node245&#45;&gt;Node26</title>
<path fill="none" stroke="#191970" d="M1429.3953,-735.8818C1470.6722,-732.6392 1524.3314,-728.6848 1572,-726 1775.8338,-714.5198 2289.044,-726.0094 2490,-690 2533.717,-682.1663 2541.4615,-667.7717 2585,-659 2776.0415,-620.511 2832.2626,-667.4746 3022,-623 3058.3198,-614.4866 3064.1723,-602.3915 3100,-592 3182.9644,-567.9369 3235.8639,-622.4991 3291,-556 3306.5971,-537.1885 3298.3924,-506.9803 3291.1197,-488.8071"/>
<polygon fill="#191970" stroke="#191970" points="1428.8721,-732.4122 1419.1792,-736.6897 1429.424,-739.3904 1428.8721,-732.4122"/>
</g>
<!-- Node245&#45;&gt;Node27 -->
<g id="edge98" class="edge">
<title>Node245&#45;&gt;Node27</title>
<path fill="none" stroke="#191970" d="M1429.4024,-736.0028C1470.6817,-732.8031 1524.3411,-728.8512 1572,-726 1744.9866,-715.651 2187.0534,-746.1512 2351,-690 2373.6311,-682.2489 2372.4921,-667.1019 2395,-659 2590.0346,-588.7959 2666.2962,-696.7966 2860,-623 2967.521,-582.0371 3010,-527.0596 3010,-412 3010,-412 3010,-412 3010,-350.5 3010,-307.3421 3004.7777,-256.5818 3001.8809,-231.7453"/>
<polygon fill="#191970" stroke="#191970" points="1428.8834,-732.5326 1419.1855,-736.799 1429.4273,-739.5114 1428.8834,-732.5326"/>
</g>
<!-- Node245&#45;&gt;Node28 -->
<g id="edge97" class="edge">
<title>Node245&#45;&gt;Node28</title>
<path fill="none" stroke="#191970" d="M1429.1518,-724.419C1498.9852,-707.1235 1610.7951,-680.0038 1708,-659 1789.875,-641.3087 1812.1575,-644.9312 1893,-623 1964.152,-603.6977 2044.7679,-573.5116 2090.68,-555.5013"/>
<polygon fill="#191970" stroke="#191970" points="1428.023,-721.0929 1419.1598,-726.8976 1429.7084,-727.887 1428.023,-721.0929"/>
</g>
<!-- Node245&#45;&gt;Node30 -->
<g id="edge102" class="edge">
<title>Node245&#45;&gt;Node30</title>
<path fill="none" stroke="#191970" d="M1429.3508,-730.8747C1507.5441,-718.7194 1635.213,-698.8729 1716.3417,-686.2613"/>
<polygon fill="#191970" stroke="#191970" points="1428.4702,-727.4695 1419.1266,-732.4641 1429.5456,-734.3864 1428.4702,-727.4695"/>
</g>
<!-- Node245&#45;&gt;Node32 -->
<g id="edge84" class="edge">
<title>Node245&#45;&gt;Node32</title>
<path fill="none" stroke="#191970" d="M1342.649,-718.1072C1336.99,-709.6951 1331.3671,-699.8434 1328,-690 1313.8767,-648.7116 1310.025,-633.9619 1322,-592 1326.5641,-576.0068 1337.6838,-560.1378 1345.5286,-550.3318"/>
<polygon fill="#191970" stroke="#191970" points="1339.8201,-720.1686 1348.4664,-726.2917 1345.5257,-716.1131 1339.8201,-720.1686"/>
</g>
<!-- Node245&#45;&gt;Node33 -->
<g id="edge85" class="edge">
<title>Node245&#45;&gt;Node33</title>
<path fill="none" stroke="#191970" d="M1292.7999,-734.0468C1237.7863,-726.4631 1166.7399,-712.5653 1149,-690 1140.4848,-679.1686 1141.2329,-670.3798 1149,-659 1173.7525,-622.7341 1210.2793,-654.371 1241,-623 1273.4653,-589.8475 1246.9278,-560.3376 1277,-525 1354.8508,-433.5181 1493.3505,-380.3167 1555.4023,-360.0348"/>
<polygon fill="#191970" stroke="#191970" points="1292.494,-737.537 1302.8691,-735.3901 1293.4197,-730.5984 1292.494,-737.537"/>
</g>
<!-- Node245&#45;&gt;Node37 -->
<g id="edge86" class="edge">
<title>Node245&#45;&gt;Node37</title>
<path fill="none" stroke="#191970" d="M1292.5208,-738.6842C1145.3665,-732.1921 808.5861,-714.8061 763,-690 708.6219,-660.4097 612.005,-529.7227 580,-422 565.6164,-373.5874 599.7113,-315.8166 615.0254,-293.2278"/>
<polygon fill="#191970" stroke="#191970" points="1292.6382,-742.1926 1302.7816,-739.1328 1292.944,-735.1993 1292.6382,-742.1926"/>
</g>
<!-- Node245&#45;&gt;Node59 -->
<g id="edge90" class="edge">
<title>Node245&#45;&gt;Node59</title>
<path fill="none" stroke="#191970" d="M1429.4053,-736.0506C1470.6856,-732.8678 1524.3451,-728.917 1572,-726 1735.2236,-716.009 2149.0904,-732.5008 2307,-690 2335.9842,-682.199 2338.1319,-667.2203 2367,-659 2465.8277,-630.8583 2740.6811,-677.1689 2828,-623 2890.0286,-584.5201 2896,-546.4948 2896,-473.5 2896,-473.5 2896,-473.5 2896,-412 2896,-366.8567 2863.3706,-321.6677 2843.9969,-298.8155"/>
<polygon fill="#191970" stroke="#191970" points="1428.8879,-732.5801 1419.1882,-736.8422 1429.4287,-739.5592 1428.8879,-732.5801"/>
</g>
<!-- Node245&#45;&gt;Node60 -->
<g id="edge91" class="edge">
<title>Node245&#45;&gt;Node60</title>
<path fill="none" stroke="#191970" d="M1293.0136,-732.4755C1236.4671,-723.7838 1161.5664,-709.1432 1138,-690 1102.5417,-661.1968 1081.1105,-629.6384 1107,-592 1132.3534,-555.141 1175.6466,-592.859 1201,-556 1240.1829,-499.0356 1136.993,-456.915 1179,-402 1201.268,-372.8894 1423.0221,-323.3018 1541.7863,-298.5228"/>
<polygon fill="#191970" stroke="#191970" points="1292.5758,-735.949 1302.9854,-733.9764 1293.6178,-729.0269 1292.5758,-735.949"/>
</g>
<!-- Node245&#45;&gt;Node211 -->
<g id="edge83" class="edge">
<title>Node245&#45;&gt;Node211</title>
<path fill="none" stroke="#191970" d="M1366.1873,-716.164C1374.5756,-682.1005 1394.5496,-622.3203 1436,-592 1518.4466,-531.6915 1596.6669,-633.6819 1663,-556 1696.7637,-516.4598 1663.2385,-447.3114 1648.8547,-421.8087"/>
<polygon fill="#191970" stroke="#191970" points="1362.698,-715.719 1363.8584,-726.2501 1369.5185,-717.2939 1362.698,-715.719"/>
</g>
<!-- Node245&#45;&gt;Node236 -->
<g id="edge87" class="edge">
<title>Node245&#45;&gt;Node236</title>
<path fill="none" stroke="#191970" d="M1353.2717,-716.3373C1345.1686,-684.768 1336.5684,-630.1523 1360,-592 1378.5158,-561.8517 1400.3757,-573.7174 1431,-556 1473.096,-531.6458 1520.5358,-499.1301 1543.332,-483.169"/>
<polygon fill="#191970" stroke="#191970" points="1349.9303,-717.3868 1355.9537,-726.1028 1356.6803,-715.533 1349.9303,-717.3868"/>
</g>
<!-- Node245&#45;&gt;Node91 -->
<g id="edge104" class="edge">
<title>Node245&#45;&gt;Node91</title>
<path fill="none" stroke="#191970" d="M1292.5879,-740.328C1165.1583,-737.2892 896.699,-726.6155 812,-690 698.2082,-640.8077 664.1146,-464.8582 657.3691,-421.6394"/>
<polygon fill="#191970" stroke="#191970" points="1292.5463,-743.8279 1302.624,-740.5585 1292.707,-736.8297 1292.5463,-743.8279"/>
</g>
<!-- Node245&#45;&gt;Node109 -->
<g id="edge103" class="edge">
<title>Node245&#45;&gt;Node109</title>
<path fill="none" stroke="#191970" d="M1292.7465,-739.8158C1121.0484,-735.1464 680.6738,-720.3318 622,-690 474.4738,-613.7353 376.6091,-421.1675 350.806,-365.6794"/>
<polygon fill="#191970" stroke="#191970" points="1292.8368,-743.3194 1302.9272,-740.0893 1293.0248,-736.3219 1292.8368,-743.3194"/>
</g>
<!-- Node245&#45;&gt;Node104 -->
<g id="edge105" class="edge">
<title>Node245&#45;&gt;Node104</title>
<path fill="none" stroke="#191970" d="M1292.6992,-737.6038C1180.275,-730.5996 961.3775,-714.3081 888,-690 832.2122,-671.5189 807.7366,-671.1214 774,-623 716.6533,-541.2014 772.7802,-493.6362 733,-402 727.1594,-388.5459 717.2389,-375.2741 708.9987,-365.5736"/>
<polygon fill="#191970" stroke="#191970" points="1292.7131,-741.1112 1302.9094,-738.2326 1293.1435,-734.1244 1292.7131,-741.1112"/>
</g>
<!-- Node245&#45;&gt;Node226 -->
<g id="edge131" class="edge">
<title>Node245&#45;&gt;Node226</title>
<path fill="none" stroke="#191970" d="M1292.5678,-739.2992C1208.9234,-735.1698 1074.0386,-723.3885 1038,-690 1005.6262,-660.0068 1011.9891,-634.9818 1022,-592 1032.4003,-547.346 1065.5144,-502.3186 1080.944,-483.1276"/>
<polygon fill="#191970" stroke="#191970" points="1292.6027,-742.8046 1302.7557,-739.777 1292.9307,-735.8123 1292.6027,-742.8046"/>
</g>
<!-- Node245&#45;&gt;Node180 -->
<g id="edge92" class="edge">
<title>Node245&#45;&gt;Node180</title>
<path fill="none" stroke="#191970" d="M1429.4068,-736.0755C1470.6877,-732.9015 1524.3472,-728.9512 1572,-726 1611.6411,-723.545 2258.3715,-718.5327 2286,-690 2337.0214,-637.3088 2245.2165,-583.8435 2289,-525 2299.949,-510.2849 2338.591,-497.6615 2375.2716,-488.5954"/>
<polygon fill="#191970" stroke="#191970" points="1428.8903,-732.6049 1419.1895,-736.8647 1429.4294,-739.5841 1428.8903,-732.6049"/>
</g>
<!-- Node245&#45;&gt;Node179 -->
<g id="edge94" class="edge">
<title>Node245&#45;&gt;Node179</title>
<path fill="none" stroke="#191970" d="M1429.3998,-735.9601C1470.6783,-732.7452 1524.3376,-728.7925 1572,-726 1937.5008,-704.586 2031.3497,-732.5187 2395,-690 2467.8104,-681.4869 2484.3744,-668.9677 2557,-659 2651.7799,-645.9916 2898.3689,-661.3828 2986,-623 3019.9773,-608.1178 3049.5583,-575.0301 3064.876,-555.5816"/>
<polygon fill="#191970" stroke="#191970" points="1428.8794,-732.4901 1419.1833,-736.7604 1429.4261,-739.4687 1428.8794,-732.4901"/>
</g>
<!-- Node246 -->
<g id="node36" class="node">
<title>Node246</title>
<g id="a_node36"><a xlink:href="papi_8h.html" target="_top" xlink:title="include/tvm/runtime\l/contrib/papi.h">
<polygon fill="#ffffff" stroke="#000000" points="854,-458.5 854,-488.5 970,-488.5 970,-458.5 854,-458.5"/>
<text text-anchor="start" x="862" y="-476.5" font-family="Helvetica,sans-Serif" font-size="10.00" fill="#000000">include/tvm/runtime</text>
<text text-anchor="middle" x="912" y="-465.5" font-family="Helvetica,sans-Serif" font-size="10.00" fill="#000000">/contrib/papi.h</text>
</a>
</g>
</g>
<!-- Node245&#45;&gt;Node246 -->
<g id="edge106" class="edge">
<title>Node245&#45;&gt;Node246</title>
<path fill="none" stroke="#191970" d="M1292.7043,-736.6711C1205.3529,-729.6012 1059.6651,-714.5404 1012,-690 938.5014,-652.1592 913.9083,-632.6724 883,-556 873.634,-532.7664 888.3886,-505.2102 900.0616,-488.5552"/>
<polygon fill="#191970" stroke="#191970" points="1292.5501,-740.1698 1302.796,-737.4734 1293.1049,-733.1918 1292.5501,-740.1698"/>
</g>
<!-- Node247 -->
<g id="node37" class="node">
<title>Node247</title>
<g id="a_node37"><a xlink:href="packed__func_8h.html" target="_top" xlink:title="Type&#45;erased function used across TVM API. ">
<polygon fill="#ffffff" stroke="#ff0000" points="2161,-659.5 2161,-689.5 2277,-689.5 2277,-659.5 2161,-659.5"/>
<text text-anchor="start" x="2169" y="-677.5" font-family="Helvetica,sans-Serif" font-size="10.00" fill="#000000">include/tvm/runtime</text>
<text text-anchor="middle" x="2219" y="-666.5" font-family="Helvetica,sans-Serif" font-size="10.00" fill="#000000">/packed_func.h</text>
</a>
</g>
</g>
<!-- Node245&#45;&gt;Node247 -->
<g id="edge107" class="edge">
<title>Node245&#45;&gt;Node247</title>
<path fill="none" stroke="#191970" d="M1429.4018,-736.4828C1578.2222,-725.5464 1927.5352,-699.7597 2046,-690 2084.3178,-686.8432 2127.3803,-682.9861 2160.9565,-679.9093"/>
<polygon fill="#191970" stroke="#191970" points="1428.7558,-733.0207 1419.0391,-737.2441 1429.2687,-740.0019 1428.7558,-733.0207"/>
</g>
<!-- Node225 -->
<g id="node41" class="node">
<title>Node225</title>
<g id="a_node41"><a xlink:href="buffer_8h.html" target="_top" xlink:title="Symbolic n&#45;dimensional array, to represent a memory buffer. ">
<polygon fill="#ffffff" stroke="#ff0000" points="1064,-531 1064,-550 1192,-550 1192,-531 1064,-531"/>
<text text-anchor="middle" x="1128" y="-538" font-family="Helvetica,sans-Serif" font-size="10.00" fill="#000000">include/tvm/tir/buffer.h</text>
</a>
</g>
</g>
<!-- Node245&#45;&gt;Node225 -->
<g id="edge128" class="edge">
<title>Node245&#45;&gt;Node225</title>
<path fill="none" stroke="#191970" d="M1292.5565,-735.4138C1220.2934,-727.8876 1112.1853,-713.1589 1078,-690 1038.768,-663.4222 1012.0346,-632.8802 1036,-592 1048.4047,-570.84 1073.03,-557.7216 1093.6838,-550.0237"/>
<polygon fill="#191970" stroke="#191970" points="1292.6419,-738.9405 1302.9452,-736.4721 1293.3514,-731.9765 1292.6419,-738.9405"/>
</g>
<!-- Node231 -->
<g id="node42" class="node">
<title>Node231</title>
<g id="a_node42"><a xlink:href="index__map_8h.html" target="_top" xlink:title="Defines a remapping of buffer indices. ">
<polygon fill="#ffffff" stroke="#ff0000" points="1158,-659.5 1158,-689.5 1276,-689.5 1276,-659.5 1158,-659.5"/>
<text text-anchor="start" x="1166" y="-677.5" font-family="Helvetica,sans-Serif" font-size="10.00" fill="#000000">include/tvm/tir/index</text>
<text text-anchor="middle" x="1217" y="-666.5" font-family="Helvetica,sans-Serif" font-size="10.00" fill="#000000">_map.h</text>
</a>
</g>
</g>
<!-- Node245&#45;&gt;Node231 -->
<g id="edge132" class="edge">
<title>Node245&#45;&gt;Node231</title>
<path fill="none" stroke="#191970" d="M1319.4983,-722.1902C1297.3144,-711.8685 1270.3919,-699.3421 1249.7068,-689.7177"/>
<polygon fill="#191970" stroke="#191970" points="1318.1404,-725.4187 1328.6836,-726.4639 1321.0934,-719.072 1318.1404,-725.4187"/>
</g>
<!-- Node247&#45;&gt;Node18 -->
<g id="edge109" class="edge">
<title>Node247&#45;&gt;Node18</title>
<path fill="none" stroke="#191970" d="M2167.0324,-655.7739C2111.6875,-634.8703 2022.4066,-598.3598 1951,-556 1812.2361,-473.6825 1808.7155,-404.272 1663,-335 1638.2153,-323.2175 1574.3464,-308.6936 1522.2749,-298.0765"/>
<polygon fill="#191970" stroke="#191970" points="2166.0308,-659.1362 2176.6231,-659.3682 2168.4874,-652.5814 2166.0308,-659.1362"/>
</g>
<!-- Node247&#45;&gt;Node19 -->
<g id="edge113" class="edge">
<title>Node247&#45;&gt;Node19</title>
<path fill="none" stroke="#191970" d="M2287.2668,-670.0679C2448.2454,-659.482 2840.1131,-632.8746 2867,-623 2889.1154,-614.8778 2888.1065,-600.7027 2910,-592 2966.4546,-569.5591 3140.9706,-601.6986 3181,-556 3190.0783,-545.636 3181.061,-538.7776 3181,-525 3180.7778,-474.7763 3180,-462.2242 3180,-412 3180,-412 3180,-412 3180,-216.5 3180,-168.0913 3142.0081,-121.1499 3119.7472,-97.8"/>
<polygon fill="#191970" stroke="#191970" points="2286.7528,-666.594 2277.0036,-670.7416 2287.2114,-673.5789 2286.7528,-666.594"/>
</g>
<!-- Node247&#45;&gt;Node20 -->
<g id="edge120" class="edge">
<title>Node247&#45;&gt;Node20</title>
<path fill="none" stroke="#191970" d="M2287.339,-661.3139C2292.6286,-660.4695 2297.8948,-659.685 2303,-659 2350.0801,-652.6825 2696.8563,-657.9747 2729,-623 2738.3232,-612.8557 2729.055,-605.7777 2729,-592 2728.3333,-425.1071 2726,-383.3942 2726,-216.5 2726,-216.5 2726,-216.5 2726,-149.5 2726,-106.4618 2726,-55.6482 2726,-30.7729"/>
<polygon fill="#191970" stroke="#191970" points="2286.4662,-657.9108 2277.1743,-663.001 2287.6124,-664.8163 2286.4662,-657.9108"/>
</g>
<!-- Node247&#45;&gt;Node21 -->
<g id="edge121" class="edge">
<title>Node247&#45;&gt;Node21</title>
<path fill="none" stroke="#191970" d="M2205.5682,-650.495C2193.9639,-631.893 2175.5292,-606.8606 2153,-592 2102.9544,-558.9892 2061.3916,-602.0474 2023,-556 1923.5834,-436.7584 2014.5004,-223.15 2042.4469,-164.6622"/>
<polygon fill="#191970" stroke="#191970" points="2202.7027,-652.5218 2210.8517,-659.2927 2208.7037,-648.9178 2202.7027,-652.5218"/>
</g>
<!-- Node247&#45;&gt;Node22 -->
<g id="edge114" class="edge">
<title>Node247&#45;&gt;Node22</title>
<path fill="none" stroke="#191970" d="M2258.9748,-654.6781C2274.4669,-646.0416 2291.844,-635.1175 2306,-623 2329.8301,-602.6015 2351.8319,-573.1814 2364.0339,-555.5408"/>
<polygon fill="#191970" stroke="#191970" points="2257.2285,-651.6436 2250.1098,-659.4906 2260.5682,-657.7956 2257.2285,-651.6436"/>
</g>
<!-- Node247&#45;&gt;Node23 -->
<g id="edge119" class="edge">
<title>Node247&#45;&gt;Node23</title>
<path fill="none" stroke="#191970" d="M2217.1594,-649.3158C2214.4713,-630.9147 2207.9167,-606.7032 2192,-592 2141.9566,-545.7719 2085.1387,-609.5324 2043,-556 1978.6301,-474.2254 2077.0646,-343.2436 2114.5179,-298.8123"/>
<polygon fill="#191970" stroke="#191970" points="2213.6966,-649.8383 2218.3368,-659.3629 2220.649,-649.0235 2213.6966,-649.8383"/>
</g>
<!-- Node247&#45;&gt;Node24 -->
<g id="edge115" class="edge">
<title>Node247&#45;&gt;Node24</title>
<path fill="none" stroke="#191970" d="M2197.2029,-652.3149C2177.6007,-633.5961 2147.1702,-607.4493 2116,-592 2056.8923,-562.7037 2021.0695,-600.0929 1972,-556 1951.5712,-537.6431 1893.4193,-352.9446 1876.6056,-298.5166"/>
<polygon fill="#191970" stroke="#191970" points="2194.8063,-654.8665 2204.4131,-659.3343 2199.6893,-649.8508 2194.8063,-654.8665"/>
</g>
<!-- Node247&#45;&gt;Node25 -->
<g id="edge116" class="edge">
<title>Node247&#45;&gt;Node25</title>
<path fill="none" stroke="#191970" d="M2287.4277,-671.7189C2455.0515,-664.6488 2882.7861,-644.9832 3024,-623 3080.1312,-614.2619 3092.4522,-603.8956 3148,-592 3219.5205,-576.6839 3301.7054,-562.3035 3359.9278,-552.6522"/>
<polygon fill="#191970" stroke="#191970" points="2287.0905,-668.2299 2277.2461,-672.1463 2287.3841,-675.2237 2287.0905,-668.2299"/>
</g>
<!-- Node247&#45;&gt;Node26 -->
<g id="edge110" class="edge">
<title>Node247&#45;&gt;Node26</title>
<path fill="none" stroke="#191970" d="M2287.1429,-672.0145C2411.4011,-666.9065 2682.9401,-653.0853 2910,-623 2982.6713,-613.3711 2999.9373,-605.4458 3072,-592 3159.9253,-575.5945 3207.1274,-619.6163 3270,-556 3287.5647,-538.2275 3287.8467,-507.095 3286.1406,-488.5778"/>
<polygon fill="#191970" stroke="#191970" points="2286.8668,-668.5227 2277.0167,-672.4248 2287.1502,-675.517 2286.8668,-668.5227"/>
</g>
<!-- Node247&#45;&gt;Node27 -->
<g id="edge118" class="edge">
<title>Node247&#45;&gt;Node27</title>
<path fill="none" stroke="#191970" d="M2287.4339,-666.9519C2312.4549,-664.2928 2340.9959,-661.3766 2367,-659 2469.3298,-649.6476 2737.893,-672.3922 2828,-623 2927.5591,-568.4266 2972,-525.5353 2972,-412 2972,-412 2972,-412 2972,-350.5 2972,-306.5323 2986.6225,-256.1326 2994.7334,-231.5584"/>
<polygon fill="#191970" stroke="#191970" points="2286.8795,-663.4912 2277.3082,-668.0343 2287.6236,-670.4515 2286.8795,-663.4912"/>
</g>
<!-- Node247&#45;&gt;Node28 -->
<g id="edge117" class="edge">
<title>Node247&#45;&gt;Node28</title>
<path fill="none" stroke="#191970" d="M2230.2022,-649.8089C2236.291,-632.4315 2240.6347,-609.2829 2230,-592 2219.4999,-574.9359 2201.4082,-563.3202 2183.3496,-555.5099"/>
<polygon fill="#191970" stroke="#191970" points="2226.8793,-648.697 2226.5156,-659.2856 2233.4031,-651.2349 2226.8793,-648.697"/>
</g>
<!-- Node247&#45;&gt;Node31 -->
<g id="edge108" class="edge">
<title>Node247&#45;&gt;Node31</title>
<path fill="none" stroke="#191970" d="M2150.6962,-662.9143C2074.1677,-649.9335 1951.5259,-629.131 1880.2824,-617.0466"/>
<polygon fill="#191970" stroke="#191970" points="2150.2719,-666.3922 2160.7164,-664.6139 2151.4426,-659.4908 2150.2719,-666.3922"/>
</g>
<!-- Node247&#45;&gt;Node59 -->
<g id="edge111" class="edge">
<title>Node247&#45;&gt;Node59</title>
<path fill="none" stroke="#191970" d="M2287.0932,-664.2226C2300.9412,-662.3248 2315.4234,-660.4783 2329,-659 2432.474,-647.7328 2708.1408,-678.8085 2796,-623 2856.7179,-584.4318 2858,-545.4317 2858,-473.5 2858,-473.5 2858,-473.5 2858,-412 2858,-370.2165 2843.692,-322.5067 2835.5319,-298.6947"/>
<polygon fill="#191970" stroke="#191970" points="2286.5649,-660.7623 2277.1437,-665.609 2287.5311,-667.6953 2286.5649,-660.7623"/>
</g>
<!-- Node247&#45;&gt;Node240 -->
<g id="edge122" class="edge">
<title>Node247&#45;&gt;Node240</title>
<path fill="none" stroke="#191970" d="M2287.2166,-663.6437C2368.4303,-650.7189 2502.7679,-629.3398 2580.1224,-617.0292"/>
<polygon fill="#191970" stroke="#191970" points="2286.4218,-660.226 2277.0962,-665.2543 2287.5221,-667.139 2286.4218,-660.226"/>
</g>
<!-- Node247&#45;&gt;Node180 -->
<g id="edge112" class="edge">
<title>Node247&#45;&gt;Node180</title>
<path fill="none" stroke="#191970" d="M2234.4608,-650.8736C2239.2803,-642.4082 2244.0904,-632.5828 2247,-623 2259.7075,-581.1478 2227.7742,-558.4125 2256,-525 2271.4884,-506.6655 2326.4787,-493.1509 2373.9756,-484.5777"/>
<polygon fill="#191970" stroke="#191970" points="2231.459,-649.0739 2229.3169,-659.4499 2237.462,-652.6744 2231.459,-649.0739"/>
</g>
<!-- Node248 -->
<g id="node38" class="node">
<title>Node248</title>
<g id="a_node38"><a xlink:href="device__api_8h.html" target="_top" xlink:title="Abstract device memory management API. ">
<polygon fill="#ffffff" stroke="#ff0000" points="1554,-592.5 1554,-622.5 1670,-622.5 1670,-592.5 1554,-592.5"/>
<text text-anchor="start" x="1562" y="-610.5" font-family="Helvetica,sans-Serif" font-size="10.00" fill="#000000">include/tvm/runtime</text>
<text text-anchor="middle" x="1612" y="-599.5" font-family="Helvetica,sans-Serif" font-size="10.00" fill="#000000">/device_api.h</text>
</a>
</g>
</g>
<!-- Node247&#45;&gt;Node248 -->
<g id="edge123" class="edge">
<title>Node247&#45;&gt;Node248</title>
<path fill="none" stroke="#191970" d="M2150.6037,-666.9505C2030.2277,-653.6635 1782.6215,-626.333 1670.0255,-613.9048"/>
<polygon fill="#191970" stroke="#191970" points="2150.4746,-670.4574 2160.7983,-668.0758 2151.2427,-663.4997 2150.4746,-670.4574"/>
</g>
<!-- Node249 -->
<g id="node39" class="node">
<title>Node249</title>
<g id="a_node39"><a xlink:href="profiling_8h.html" target="_top" xlink:title="Runtime profiling including timers. ">
<polygon fill="#ffffff" stroke="#000000" points="892,-525.5 892,-555.5 1008,-555.5 1008,-525.5 892,-525.5"/>
<text text-anchor="start" x="900" y="-543.5" font-family="Helvetica,sans-Serif" font-size="10.00" fill="#000000">include/tvm/runtime</text>
<text text-anchor="middle" x="950" y="-532.5" font-family="Helvetica,sans-Serif" font-size="10.00" fill="#000000">/profiling.h</text>
</a>
</g>
</g>
<!-- Node247&#45;&gt;Node249 -->
<g id="edge126" class="edge">
<title>Node247&#45;&gt;Node249</title>
<path fill="none" stroke="#191970" d="M2162.8141,-656.5323C2098.4035,-636.8168 1989.2908,-606.1 1893,-592 1524.1456,-537.988 1426.116,-591.2676 1055,-556 1039.7744,-554.5531 1023.3843,-552.4151 1008.1853,-550.1862"/>
<polygon fill="#191970" stroke="#191970" points="2161.7851,-659.8776 2172.3724,-659.4779 2163.8467,-653.188 2161.7851,-659.8776"/>
</g>
<!-- Node252 -->
<g id="node40" class="node">
<title>Node252</title>
<g id="a_node40"><a xlink:href="vm_2executable_8h.html" target="_top" xlink:title="The Relay virtual machine executable. ">
<polygon fill="#ffffff" stroke="#ff0000" points="1116,-592.5 1116,-622.5 1232,-622.5 1232,-592.5 1116,-592.5"/>
<text text-anchor="start" x="1124" y="-610.5" font-family="Helvetica,sans-Serif" font-size="10.00" fill="#000000">include/tvm/runtime</text>
<text text-anchor="middle" x="1174" y="-599.5" font-family="Helvetica,sans-Serif" font-size="10.00" fill="#000000">/vm/executable.h</text>
</a>
</g>
</g>
<!-- Node247&#45;&gt;Node252 -->
<g id="edge127" class="edge">
<title>Node247&#45;&gt;Node252</title>
<path fill="none" stroke="#191970" d="M2150.8814,-667.9159C2119.0389,-664.9616 2080.5976,-661.571 2046,-659 1739.7477,-636.2423 1372.3807,-617.2642 1232.2082,-610.3258"/>
<polygon fill="#191970" stroke="#191970" points="2150.6927,-671.4135 2160.9747,-668.8582 2151.3434,-664.4438 2150.6927,-671.4135"/>
</g>
<!-- Node248&#45;&gt;Node249 -->
<g id="edge124" class="edge">
<title>Node248&#45;&gt;Node249</title>
<path fill="none" stroke="#191970" d="M1543.5908,-602.3794C1438.3985,-594.2337 1230.666,-577.071 1055,-556 1039.8147,-554.1785 1023.4387,-551.9088 1008.2404,-549.673"/>
<polygon fill="#191970" stroke="#191970" points="1543.5138,-605.8838 1553.7533,-603.163 1544.052,-598.9045 1543.5138,-605.8838"/>
</g>
<!-- Node249&#45;&gt;Node246 -->
<g id="edge125" class="edge">
<title>Node249&#45;&gt;Node246</title>
<path fill="none" stroke="#191970" d="M936.3788,-516.4837C931.1132,-507.1996 925.247,-496.8565 920.5887,-488.6432"/>
<polygon fill="#191970" stroke="#191970" points="933.3993,-518.325 941.3772,-525.2967 939.4882,-514.8716 933.3993,-518.325"/>
</g>
<!-- Node225&#45;&gt;Node193 -->
<g id="edge130" class="edge">
<title>Node225&#45;&gt;Node193</title>
<path fill="none" stroke="#191970" d="M1145.1287,-523.569C1172.7058,-496.31 1226.0801,-443.5516 1248.1155,-421.7705"/>
<polygon fill="#191970" stroke="#191970" points="1142.4227,-521.3225 1137.7711,-530.8416 1147.3436,-526.3009 1142.4227,-521.3225"/>
</g>
<!-- Node225&#45;&gt;Node226 -->
<g id="edge129" class="edge">
<title>Node225&#45;&gt;Node226</title>
<path fill="none" stroke="#191970" d="M1117.2953,-522.1099C1109.9433,-509.4795 1100.4812,-493.2241 1094.5774,-483.0817"/>
<polygon fill="#191970" stroke="#191970" points="1114.3566,-524.0188 1122.4123,-530.9005 1120.4064,-520.4973 1114.3566,-524.0188"/>
</g>
<!-- Node257&#45;&gt;Node18 -->
<g id="edge136" class="edge">
<title>Node257&#45;&gt;Node18</title>
<path fill="none" stroke="#191970" d="M624.6722,-729.8458C581.2712,-720.9397 530.7601,-707.2658 517,-690 414.8395,-561.8112 478.4812,-422.6452 617,-335 679.6802,-295.3403 1177.1005,-286.164 1369.9618,-284.0896"/>
<polygon fill="#191970" stroke="#191970" points="624.1726,-733.315 634.6642,-731.8396 625.5425,-726.4503 624.1726,-733.315"/>
</g>
<!-- Node257&#45;&gt;Node21 -->
<g id="edge138" class="edge">
<title>Node257&#45;&gt;Node21</title>
<path fill="none" stroke="#191970" d="M624.7971,-731.0551C574.2162,-722.0598 510.7549,-707.7377 491,-690 467.3509,-668.7657 472.5752,-654.0956 466,-623 456.9818,-580.3512 459.2583,-568.5055 462,-525 466.5646,-452.5695 449.3622,-249.8876 503,-201 530.4638,-175.9684 1665.9746,-155.7368 1973.742,-150.7055"/>
<polygon fill="#191970" stroke="#191970" points="624.2727,-734.5164 634.7247,-732.7826 625.4728,-727.62 624.2727,-734.5164"/>
</g>
<!-- Node257&#45;&gt;Node28 -->
<g id="edge137" class="edge">
<title>Node257&#45;&gt;Node28</title>
<path fill="none" stroke="#191970" d="M761.2471,-728.9026C850.3709,-712.5091 1011.2675,-683.1102 1149,-659 1324.8277,-628.2212 1367.9557,-614.7603 1545,-592 1726.1521,-568.7116 1940.3391,-552.7369 2051.86,-545.2867"/>
<polygon fill="#191970" stroke="#191970" points="760.4694,-725.4869 751.268,-730.739 761.7363,-732.3713 760.4694,-725.4869"/>
</g>
<!-- Node257&#45;&gt;Node32 -->
<g id="edge134" class="edge">
<title>Node257&#45;&gt;Node32</title>
<path fill="none" stroke="#191970" d="M734.7298,-722.0885C773.4652,-704.4485 832.9691,-678.3071 886,-659 982.4439,-623.8874 1007.5528,-617.3886 1107,-592 1173.6352,-574.9882 1251.4383,-559.4725 1301.6487,-550.0163"/>
<polygon fill="#191970" stroke="#191970" points="732.9839,-719.0383 725.3459,-726.3808 735.8956,-725.404 732.9839,-719.0383"/>
</g>
<!-- Node257&#45;&gt;Node33 -->
<g id="edge135" class="edge">
<title>Node257&#45;&gt;Node33</title>
<path fill="none" stroke="#191970" d="M695.74,-716.2678C697.9865,-699.6991 701.825,-677.7115 708,-659 741.8803,-556.3354 748.1883,-506.1185 845,-458 963.3819,-399.1605 1361.0458,-366.015 1520.2651,-354.8332"/>
<polygon fill="#191970" stroke="#191970" points="692.2555,-715.9268 694.4851,-726.2844 699.2012,-716.7971 692.2555,-715.9268"/>
</g>
<!-- Node257&#45;&gt;Node91 -->
<g id="edge139" class="edge">
<title>Node257&#45;&gt;Node91</title>
<path fill="none" stroke="#191970" d="M624.9816,-727.4988C587.7577,-718.3073 547.0068,-705.1943 536,-690 468.308,-596.5545 604.9179,-458.9755 645.2491,-421.6436"/>
<polygon fill="#191970" stroke="#191970" points="624.3119,-730.9373 634.8526,-729.8676 625.9454,-724.1306 624.3119,-730.9373"/>
</g>
<!-- Node257&#45;&gt;Node226 -->
<g id="edge144" class="edge">
<title>Node257&#45;&gt;Node226</title>
<path fill="none" stroke="#191970" d="M692.9496,-715.9299C693.9929,-698.7146 697.5379,-676.1185 708,-659 759.0843,-575.4139 794.7591,-567.5415 883,-525 929.1576,-502.7471 985.9229,-489.4765 1028.1685,-481.9944"/>
<polygon fill="#191970" stroke="#191970" points="689.4366,-716.2357 692.5777,-726.3542 696.4321,-716.4853 689.4366,-716.2357"/>
</g>
<!-- Node257&#45;&gt;Node246 -->
<g id="edge140" class="edge">
<title>Node257&#45;&gt;Node246</title>
<path fill="none" stroke="#191970" d="M624.7611,-729.6127C576.206,-717.7969 523.2861,-695.9767 546,-659 613.5812,-548.9821 768.9331,-501.7647 853.8942,-483.5706"/>
<polygon fill="#191970" stroke="#191970" points="624.1766,-733.0698 634.7081,-731.914 625.7544,-726.25 624.1766,-733.0698"/>
</g>
<!-- Node257&#45;&gt;Node247 -->
<g id="edge141" class="edge">
<title>Node257&#45;&gt;Node247</title>
<path fill="none" stroke="#191970" d="M761.3545,-740.1377C959.9405,-735.913 1553.9561,-721.3861 2046,-690 2084.3697,-687.5525 2127.4323,-683.6982 2160.9957,-680.4454"/>
<polygon fill="#191970" stroke="#191970" points="761.0013,-736.6443 751.0774,-740.3546 761.1491,-743.6427 761.0013,-736.6443"/>
</g>
<!-- Node257&#45;&gt;Node249 -->
<g id="edge142" class="edge">
<title>Node257&#45;&gt;Node249</title>
<path fill="none" stroke="#191970" d="M700.4304,-716.5203C707.046,-698.2666 718.4361,-674.1513 736,-659 773.0369,-627.0507 796.8049,-645.9495 840,-623 875.8375,-603.9595 912.586,-573.8264 933.232,-555.7295"/>
<polygon fill="#191970" stroke="#191970" points="697.0381,-715.6267 697.1568,-726.2208 703.6706,-717.8649 697.0381,-715.6267"/>
</g>
<!-- Node257&#45;&gt;Node252 -->
<g id="edge143" class="edge">
<title>Node257&#45;&gt;Node252</title>
<path fill="none" stroke="#191970" d="M757.0648,-723.6524C852.5803,-697.0431 1030.6279,-647.4415 1119.9564,-622.5558"/>
<polygon fill="#191970" stroke="#191970" points="755.9357,-720.3336 747.2418,-726.389 757.8143,-727.0768 755.9357,-720.3336"/>
</g>
<!-- Node258&#45;&gt;Node18 -->
<g id="edge147" class="edge">
<title>Node258&#45;&gt;Node18</title>
<path fill="none" stroke="#191970" d="M2526.6611,-739.6656C2324.2542,-733.9529 1739.9431,-715.3353 1708,-690 1672.4121,-661.7739 1712.3806,-622.805 1679,-592 1621.9241,-539.328 1564.7753,-608.9959 1508,-556 1432.8086,-485.8138 1439.6339,-344.9955 1444.2013,-298.6625"/>
<polygon fill="#191970" stroke="#191970" points="2526.7733,-743.17 2536.8675,-739.9518 2526.9696,-736.1728 2526.7733,-743.17"/>
</g>
<!-- Node258&#45;&gt;Node193 -->
<g id="edge161" class="edge">
<title>Node258&#45;&gt;Node193</title>
<path fill="none" stroke="#191970" d="M2526.8442,-736.0802C2420.7051,-727.2173 2220.9472,-708.727 2152,-690 2028.5169,-656.4603 1748.3316,-492.0924 1625,-458 1524.115,-430.1125 1402.915,-419.0891 1328.1697,-414.7603"/>
<polygon fill="#191970" stroke="#191970" points="2526.5607,-739.5686 2536.8159,-736.9075 2527.1396,-732.5926 2526.5607,-739.5686"/>
</g>
<!-- Node258&#45;&gt;Node240 -->
<g id="edge149" class="edge">
<title>Node258&#45;&gt;Node240</title>
<path fill="none" stroke="#191970" d="M2603.3452,-716.6499C2613.4165,-686.6597 2629.8591,-637.6972 2636.7747,-617.1042"/>
<polygon fill="#191970" stroke="#191970" points="2599.9402,-715.795 2600.0746,-726.389 2606.5761,-718.0235 2599.9402,-715.795"/>
</g>
<!-- Node258&#45;&gt;Node180 -->
<g id="edge148" class="edge">
<title>Node258&#45;&gt;Node180</title>
<path fill="none" stroke="#191970" d="M2581.9684,-717.414C2552.6277,-663.1844 2482.0809,-532.7944 2458.1212,-488.5103"/>
<polygon fill="#191970" stroke="#191970" points="2578.9517,-719.1936 2586.7887,-726.3233 2585.1084,-715.8625 2578.9517,-719.1936"/>
</g>
<!-- Node258&#45;&gt;Node247 -->
<g id="edge156" class="edge">
<title>Node258&#45;&gt;Node247</title>
<path fill="none" stroke="#191970" d="M2526.4235,-729.2802C2455.0305,-716.5586 2344.4276,-696.8501 2277.1649,-684.8645"/>
<polygon fill="#191970" stroke="#191970" points="2526.2036,-732.7961 2536.6625,-731.1048 2527.4316,-725.9047 2526.2036,-732.7961"/>
</g>
<!-- Node258&#45;&gt;Node248 -->
<g id="edge155" class="edge">
<title>Node258&#45;&gt;Node248</title>
<path fill="none" stroke="#191970" d="M2526.764,-740.9807C2326.2956,-738.9985 1748.5214,-729.8535 1674,-690 1646.3513,-675.2137 1627.5309,-642.0908 1618.3892,-622.6104"/>
<polygon fill="#191970" stroke="#191970" points="2526.8406,-744.4815 2536.8738,-741.0777 2526.9079,-737.4818 2526.8406,-744.4815"/>
</g>
<!-- Node46 -->
<g id="node45" class="node">
<title>Node46</title>
<g id="a_node45"><a xlink:href="search__task_8h.html" target="_top" xlink:title="Meta information and hardware parameters for a search task. ">
<polygon fill="#ffffff" stroke="#ff0000" points="2713,-659.5 2713,-689.5 2865,-689.5 2865,-659.5 2713,-659.5"/>
<text text-anchor="start" x="2721" y="-677.5" font-family="Helvetica,sans-Serif" font-size="10.00" fill="#000000">include/tvm/auto_scheduler</text>
<text text-anchor="middle" x="2789" y="-666.5" font-family="Helvetica,sans-Serif" font-size="10.00" fill="#000000">/search_task.h</text>
</a>
</g>
</g>
<!-- Node258&#45;&gt;Node46 -->
<g id="edge146" class="edge">
<title>Node258&#45;&gt;Node46</title>
<path fill="none" stroke="#191970" d="M2648.164,-723.1392C2678.6709,-712.6033 2716.5034,-699.5375 2745.2727,-689.6017"/>
<polygon fill="#191970" stroke="#191970" points="2646.847,-719.8912 2638.5374,-726.4639 2649.1321,-726.5077 2646.847,-719.8912"/>
</g>
<!-- Node259 -->
<g id="node46" class="node">
<title>Node259</title>
<g id="a_node46"><a xlink:href="structural__hash_8h.html" target="_top" xlink:title="Structural hash class. ">
<polygon fill="#ffffff" stroke="#000000" points="1885.5,-659.5 1885.5,-689.5 2036.5,-689.5 2036.5,-659.5 1885.5,-659.5"/>
<text text-anchor="start" x="1893.5" y="-677.5" font-family="Helvetica,sans-Serif" font-size="10.00" fill="#000000">include/tvm/node/structural</text>
<text text-anchor="middle" x="1961" y="-666.5" font-family="Helvetica,sans-Serif" font-size="10.00" fill="#000000">_hash.h</text>
</a>
</g>
</g>
<!-- Node258&#45;&gt;Node259 -->
<g id="edge150" class="edge">
<title>Node258&#45;&gt;Node259</title>
<path fill="none" stroke="#191970" d="M2526.9199,-734.9869C2429.7186,-725.5933 2245.5911,-707.4483 2089,-690 2072.0924,-688.1161 2053.9424,-685.9846 2036.7779,-683.9187"/>
<polygon fill="#191970" stroke="#191970" points="2526.6179,-738.474 2536.9079,-735.9509 2527.2904,-731.5063 2526.6179,-738.474"/>
</g>
<!-- Node260 -->
<g id="node47" class="node">
<title>Node260</title>
<g id="a_node47"><a xlink:href="runtime_2debug_8h.html" target="_top" xlink:title="Helpers for debugging at runtime. ">
<polygon fill="#ffffff" stroke="#000000" points="2883,-659.5 2883,-689.5 2999,-689.5 2999,-659.5 2883,-659.5"/>
<text text-anchor="start" x="2891" y="-677.5" font-family="Helvetica,sans-Serif" font-size="10.00" fill="#000000">include/tvm/runtime</text>
<text text-anchor="middle" x="2941" y="-666.5" font-family="Helvetica,sans-Serif" font-size="10.00" fill="#000000">/debug.h</text>
</a>
</g>
</g>
<!-- Node258&#45;&gt;Node260 -->
<g id="edge154" class="edge">
<title>Node258&#45;&gt;Node260</title>
<path fill="none" stroke="#191970" d="M2663.03,-729.8207C2719.6248,-719.8941 2802.2339,-704.9171 2874,-690 2876.9223,-689.3926 2879.9129,-688.756 2882.9304,-688.1017"/>
<polygon fill="#191970" stroke="#191970" points="2662.3728,-726.3824 2653.1253,-731.553 2663.5788,-733.2778 2662.3728,-726.3824"/>
</g>
<!-- Node261 -->
<g id="node48" class="node">
<title>Node261</title>
<g id="a_node48"><a xlink:href="relax__vm_2memory__manager_8h.html" target="_top" xlink:title="Abstract device memory management API. ">
<polygon fill="#ffffff" stroke="#ff0000" points="3017.5,-659.5 3017.5,-689.5 3184.5,-689.5 3184.5,-659.5 3017.5,-659.5"/>
<text text-anchor="start" x="3025.5" y="-677.5" font-family="Helvetica,sans-Serif" font-size="10.00" fill="#000000">include/tvm/runtime</text>
<text text-anchor="middle" x="3101" y="-666.5" font-family="Helvetica,sans-Serif" font-size="10.00" fill="#000000">/relax_vm/memory_manager.h</text>
</a>
</g>
</g>
<!-- Node258&#45;&gt;Node261 -->
<g id="edge157" class="edge">
<title>Node258&#45;&gt;Node261</title>
<path fill="none" stroke="#191970" d="M2663.178,-733.8679C2745.1547,-724.4903 2886.851,-707.6416 3008,-690 3011.0776,-689.5518 3014.2106,-689.0848 3017.3739,-688.6042"/>
<polygon fill="#191970" stroke="#191970" points="2662.7769,-730.3908 2653.238,-735.0018 2663.5703,-737.3457 2662.7769,-730.3908"/>
</g>
<!-- Node262 -->
<g id="node49" class="node">
<title>Node262</title>
<g id="a_node49"><a xlink:href="serializer_8h.html" target="_top" xlink:title="Serializer extension to support TVM data types Include this file to enable serialization of DLDataTyp...">
<polygon fill="#ffffff" stroke="#000000" points="3202,-659.5 3202,-689.5 3318,-689.5 3318,-659.5 3202,-659.5"/>
<text text-anchor="start" x="3210" y="-677.5" font-family="Helvetica,sans-Serif" font-size="10.00" fill="#000000">include/tvm/runtime</text>
<text text-anchor="middle" x="3260" y="-666.5" font-family="Helvetica,sans-Serif" font-size="10.00" fill="#000000">/serializer.h</text>
</a>
</g>
</g>
<!-- Node258&#45;&gt;Node262 -->
<g id="edge158" class="edge">
<title>Node258&#45;&gt;Node262</title>
<path fill="none" stroke="#191970" d="M2663.3061,-738.5867C2773.6314,-733.3431 2997.3389,-719.9414 3185,-690 3190.4628,-689.1284 3196.1444,-688.0544 3201.836,-686.8817"/>
<polygon fill="#191970" stroke="#191970" points="2663.1351,-735.0907 2653.3095,-739.0542 2663.4622,-742.0831 2663.1351,-735.0907"/>
</g>
<!-- Node263 -->
<g id="node50" class="node">
<title>Node263</title>
<g id="a_node50"><a xlink:href="vm_2memory__manager_8h.html" target="_top" xlink:title="Abstract device memory management API. ">
<polygon fill="#ffffff" stroke="#ff0000" points="3336.5,-659.5 3336.5,-689.5 3473.5,-689.5 3473.5,-659.5 3336.5,-659.5"/>
<text text-anchor="start" x="3344.5" y="-677.5" font-family="Helvetica,sans-Serif" font-size="10.00" fill="#000000">include/tvm/runtime</text>
<text text-anchor="middle" x="3405" y="-666.5" font-family="Helvetica,sans-Serif" font-size="10.00" fill="#000000">/vm/memory_manager.h</text>
</a>
</g>
</g>
<!-- Node258&#45;&gt;Node263 -->
<g id="edge160" class="edge">
<title>Node258&#45;&gt;Node263</title>
<path fill="none" stroke="#191970" d="M2663.3247,-739.5638C2793.1465,-735.25 3084.1943,-722.5346 3327,-690 3330.0105,-689.5966 3333.0796,-689.1481 3336.1751,-688.6651"/>
<polygon fill="#191970" stroke="#191970" points="2663.0169,-736.0719 2653.1363,-739.896 2663.2451,-743.0682 2663.0169,-736.0719"/>
</g>
<!-- Node259&#45;&gt;Node31 -->
<g id="edge151" class="edge">
<title>Node259&#45;&gt;Node31</title>
<path fill="none" stroke="#191970" d="M1921.1969,-655.0343C1895.7268,-642.5781 1863.7952,-626.9619 1843.6379,-617.1039"/>
<polygon fill="#191970" stroke="#191970" points="1919.7336,-658.2147 1930.2545,-659.4639 1922.8089,-651.9264 1919.7336,-658.2147"/>
</g>
<!-- Node259&#45;&gt;Node210 -->
<g id="edge152" class="edge">
<title>Node259&#45;&gt;Node210</title>
<path fill="none" stroke="#191970" d="M1947.9707,-650.7605C1936.1938,-631.6896 1917.0368,-605.8765 1893,-592 1872.6051,-580.226 1738.015,-560.7109 1653.6355,-549.3863"/>
<polygon fill="#191970" stroke="#191970" points="1945.0397,-652.68 1953.1483,-659.4992 1951.062,-649.1118 1945.0397,-652.68"/>
</g>
<!-- Node259&#45;&gt;Node240 -->
<g id="edge153" class="edge">
<title>Node259&#45;&gt;Node240</title>
<path fill="none" stroke="#191970" d="M2046.6868,-666.0449C2179.1079,-652.9783 2431.6022,-628.0636 2560.2975,-615.3646"/>
<polygon fill="#191970" stroke="#191970" points="2046.194,-662.5764 2036.5861,-667.0416 2046.8815,-669.5426 2046.194,-662.5764"/>
</g>
<!-- Node262&#45;&gt;Node258 -->
<g id="edge159" class="edge">
<title>Node262&#45;&gt;Node258</title>
<path fill="none" stroke="#191970" d="M3195.6774,-691.134C2995.0765,-722.3374 2760.3426,-735.1034 2653.2816,-739.515"/>
<polygon fill="#191970" stroke="#191970" points="3196.4737,-694.5518 3205.807,-689.5378 3195.384,-687.6371 3196.4737,-694.5518"/>
</g>
</g>
</svg>
