<?xml version="1.0" encoding="UTF-8" standalone="no"?>
<!DOCTYPE svg PUBLIC "-//W3C//DTD SVG 1.1//EN"
 "http://www.w3.org/Graphics/SVG/1.1/DTD/svg11.dtd">
<!-- Generated by graphviz version 2.40.1 (20161225.0304)
 -->
<!-- Title: include/tvm/runtime/container/optional.h Pages: 1 -->
<svg width="3960pt" height="642pt"
 viewBox="0.00 0.00 3959.71 642.00" xmlns="http://www.w3.org/2000/svg" xmlns:xlink="http://www.w3.org/1999/xlink">
<g id="graph0" class="graph" transform="scale(1 1) rotate(0) translate(4 638)">
<title>include/tvm/runtime/container/optional.h</title>
<polygon fill="#ffffff" stroke="transparent" points="-4,4 -4,-638 3955.7148,-638 3955.7148,4 -4,4"/>
<!-- Node17 -->
<g id="node1" class="node">
<title>Node17</title>
<polygon fill="#bfbfbf" stroke="#000000" points="1387.3864,-603.5 1387.3864,-633.5 1504.3864,-633.5 1504.3864,-603.5 1387.3864,-603.5"/>
<text text-anchor="start" x="1395.3864" y="-621.5" font-family="Helvetica,sans-Serif" font-size="10.00" fill="#000000">include/tvm/runtime</text>
<text text-anchor="middle" x="1445.8864" y="-610.5" font-family="Helvetica,sans-Serif" font-size="10.00" fill="#000000">/container/optional.h</text>
</g>
<!-- Node18 -->
<g id="node2" class="node">
<title>Node18</title>
<g id="a_node2"><a xlink:href="builder_8h.html" target="_top" xlink:title="include/tvm/meta_schedule\l/builder.h">
<polygon fill="#ffffff" stroke="#000000" points="1173.8864,-268.5 1173.8864,-298.5 1325.8864,-298.5 1325.8864,-268.5 1173.8864,-268.5"/>
<text text-anchor="start" x="1181.8864" y="-286.5" font-family="Helvetica,sans-Serif" font-size="10.00" fill="#000000">include/tvm/meta_schedule</text>
<text text-anchor="middle" x="1249.8864" y="-275.5" font-family="Helvetica,sans-Serif" font-size="10.00" fill="#000000">/builder.h</text>
</a>
</g>
</g>
<!-- Node17&#45;&gt;Node18 -->
<g id="edge1" class="edge">
<title>Node17&#45;&gt;Node18</title>
<path fill="none" stroke="#191970" d="M1431.8526,-594.5136C1393.9141,-529.6697 1290.0727,-352.1857 1258.8699,-298.8544"/>
<polygon fill="#191970" stroke="#191970" points="1428.8845,-596.3715 1436.9554,-603.2352 1434.9264,-592.8365 1428.8845,-596.3715"/>
</g>
<!-- Node20 -->
<g id="node4" class="node">
<title>Node20</title>
<g id="a_node4"><a xlink:href="task__scheduler_8h.html" target="_top" xlink:title="include/tvm/meta_schedule\l/task_scheduler.h">
<polygon fill="#ffffff" stroke="#000000" points="2596.8864,-.5 2596.8864,-30.5 2748.8864,-30.5 2748.8864,-.5 2596.8864,-.5"/>
<text text-anchor="start" x="2604.8864" y="-18.5" font-family="Helvetica,sans-Serif" font-size="10.00" fill="#000000">include/tvm/meta_schedule</text>
<text text-anchor="middle" x="2672.8864" y="-7.5" font-family="Helvetica,sans-Serif" font-size="10.00" fill="#000000">/task_scheduler.h</text>
</a>
</g>
</g>
<!-- Node17&#45;&gt;Node20 -->
<g id="edge25" class="edge">
<title>Node17&#45;&gt;Node20</title>
<path fill="none" stroke="#191970" d="M1376.5744,-617.6675C1107.845,-614.2082 146.8385,-599.5996 90.8864,-567 53.6401,-545.299 39.8864,-527.6071 39.8864,-484.5 39.8864,-484.5 39.8864,-484.5 39.8864,-149.5 39.8864,-137.4851 -215.8617,-137.3988 572.8864,-67 977.682,-30.8705 2269.3462,-18.6154 2596.8373,-16.0489"/>
<polygon fill="#191970" stroke="#191970" points="1376.9265,-621.1721 1386.9704,-617.8001 1377.0159,-614.1727 1376.9265,-621.1721"/>
</g>
<!-- Node21 -->
<g id="node5" class="node">
<title>Node21</title>
<g id="a_node5"><a xlink:href="tune__context_8h.html" target="_top" xlink:title="include/tvm/meta_schedule\l/tune_context.h">
<polygon fill="#ffffff" stroke="#000000" points="1929.8864,-134.5 1929.8864,-164.5 2081.8864,-164.5 2081.8864,-134.5 1929.8864,-134.5"/>
<text text-anchor="start" x="1937.8864" y="-152.5" font-family="Helvetica,sans-Serif" font-size="10.00" fill="#000000">include/tvm/meta_schedule</text>
<text text-anchor="middle" x="2005.8864" y="-141.5" font-family="Helvetica,sans-Serif" font-size="10.00" fill="#000000">/tune_context.h</text>
</a>
</g>
</g>
<!-- Node17&#45;&gt;Node21 -->
<g id="edge26" class="edge">
<title>Node17&#45;&gt;Node21</title>
<path fill="none" stroke="#191970" d="M1377.1726,-617.483C1115.1625,-613.3881 190.7475,-596.8758 135.8864,-567 96.5235,-545.5641 77.8864,-529.3212 77.8864,-484.5 77.8864,-484.5 77.8864,-484.5 77.8864,-283.5 77.8864,-227.579 120.7819,-221.3048 172.8864,-201 255.8262,-168.6789 1593.3015,-153.5211 1929.6143,-150.2095"/>
<polygon fill="#191970" stroke="#191970" points="1377.2623,-620.9847 1387.3155,-617.6404 1377.371,-613.9855 1377.2623,-620.9847"/>
</g>
<!-- Node22 -->
<g id="node6" class="node">
<title>Node22</title>
<g id="a_node6"><a xlink:href="mutator_8h.html" target="_top" xlink:title="include/tvm/meta_schedule\l/mutator.h">
<polygon fill="#ffffff" stroke="#000000" points="1855.8864,-335.5 1855.8864,-365.5 2007.8864,-365.5 2007.8864,-335.5 1855.8864,-335.5"/>
<text text-anchor="start" x="1863.8864" y="-353.5" font-family="Helvetica,sans-Serif" font-size="10.00" fill="#000000">include/tvm/meta_schedule</text>
<text text-anchor="middle" x="1931.8864" y="-342.5" font-family="Helvetica,sans-Serif" font-size="10.00" fill="#000000">/mutator.h</text>
</a>
</g>
</g>
<!-- Node17&#45;&gt;Node22 -->
<g id="edge8" class="edge">
<title>Node17&#45;&gt;Node22</title>
<path fill="none" stroke="#191970" d="M1514.482,-611.1975C1580.7901,-603.0393 1675.5408,-588.1428 1705.8864,-567 1776.4332,-517.8478 1741.4667,-457.7947 1806.8864,-402 1826.3518,-385.3985 1851.9024,-373.5977 1874.8274,-365.5193"/>
<polygon fill="#191970" stroke="#191970" points="1514.0166,-607.7282 1504.5077,-612.4006 1514.8549,-614.6778 1514.0166,-607.7282"/>
</g>
<!-- Node24 -->
<g id="node8" class="node">
<title>Node24</title>
<g id="a_node8"><a xlink:href="profiler_8h.html" target="_top" xlink:title="include/tvm/meta_schedule\l/profiler.h">
<polygon fill="#ffffff" stroke="#000000" points="1003.8864,-268.5 1003.8864,-298.5 1155.8864,-298.5 1155.8864,-268.5 1003.8864,-268.5"/>
<text text-anchor="start" x="1011.8864" y="-286.5" font-family="Helvetica,sans-Serif" font-size="10.00" fill="#000000">include/tvm/meta_schedule</text>
<text text-anchor="middle" x="1079.8864" y="-275.5" font-family="Helvetica,sans-Serif" font-size="10.00" fill="#000000">/profiler.h</text>
</a>
</g>
</g>
<!-- Node17&#45;&gt;Node24 -->
<g id="edge11" class="edge">
<title>Node17&#45;&gt;Node24</title>
<path fill="none" stroke="#191970" d="M1377.1836,-614.204C1181.7172,-601.2879 633.1966,-559.9649 580.8864,-500 568.1022,-485.345 570.8706,-421.9978 587.8864,-402 614.9134,-370.2367 872.5065,-320.4021 1003.7763,-296.7767"/>
<polygon fill="#191970" stroke="#191970" points="1377.1242,-617.7075 1387.3319,-614.8699 1377.5826,-610.7225 1377.1242,-617.7075"/>
</g>
<!-- Node25 -->
<g id="node9" class="node">
<title>Node25</title>
<g id="a_node9"><a xlink:href="runner_8h.html" target="_top" xlink:title="include/tvm/meta_schedule\l/runner.h">
<polygon fill="#ffffff" stroke="#000000" points="3277.8864,-335.5 3277.8864,-365.5 3429.8864,-365.5 3429.8864,-335.5 3277.8864,-335.5"/>
<text text-anchor="start" x="3285.8864" y="-353.5" font-family="Helvetica,sans-Serif" font-size="10.00" fill="#000000">include/tvm/meta_schedule</text>
<text text-anchor="middle" x="3353.8864" y="-342.5" font-family="Helvetica,sans-Serif" font-size="10.00" fill="#000000">/runner.h</text>
</a>
</g>
</g>
<!-- Node17&#45;&gt;Node25 -->
<g id="edge12" class="edge">
<title>Node17&#45;&gt;Node25</title>
<path fill="none" stroke="#191970" d="M1514.5515,-618.383C1909.6864,-617.5508 3877.6066,-611.1897 3920.8864,-567 4072.1217,-412.5851 3616.9639,-366.626 3430.0836,-354.4575"/>
<polygon fill="#191970" stroke="#191970" points="1514.4067,-614.8832 1504.4139,-618.4039 1514.4211,-621.8832 1514.4067,-614.8832"/>
</g>
<!-- Node27 -->
<g id="node11" class="node">
<title>Node27</title>
<g id="a_node11"><a xlink:href="search__strategy_8h.html" target="_top" xlink:title="include/tvm/meta_schedule\l/search_strategy.h">
<polygon fill="#ffffff" stroke="#000000" points="2482.8864,-201.5 2482.8864,-231.5 2634.8864,-231.5 2634.8864,-201.5 2482.8864,-201.5"/>
<text text-anchor="start" x="2490.8864" y="-219.5" font-family="Helvetica,sans-Serif" font-size="10.00" fill="#000000">include/tvm/meta_schedule</text>
<text text-anchor="middle" x="2558.8864" y="-208.5" font-family="Helvetica,sans-Serif" font-size="10.00" fill="#000000">/search_strategy.h</text>
</a>
</g>
</g>
<!-- Node17&#45;&gt;Node27 -->
<g id="edge24" class="edge">
<title>Node17&#45;&gt;Node27</title>
<path fill="none" stroke="#191970" d="M1514.8957,-617.8537C1903.6155,-613.8785 3805.5057,-589.8703 3887.8864,-500 3982.9888,-396.2514 3384.9944,-445.5435 3268.8864,-366 3227.1329,-337.3954 3253.8318,-294.782 3210.8864,-268 3198.7979,-260.4612 2804.7291,-233.0767 2635.196,-221.6075"/>
<polygon fill="#191970" stroke="#191970" points="1514.6092,-614.3563 1504.6452,-617.9574 1514.6802,-621.3559 1514.6092,-614.3563"/>
</g>
<!-- Node28 -->
<g id="node12" class="node">
<title>Node28</title>
<g id="a_node12"><a xlink:href="schedule__rule_8h.html" target="_top" xlink:title="include/tvm/meta_schedule\l/schedule_rule.h">
<polygon fill="#ffffff" stroke="#000000" points="1533.8864,-335.5 1533.8864,-365.5 1685.8864,-365.5 1685.8864,-335.5 1533.8864,-335.5"/>
<text text-anchor="start" x="1541.8864" y="-353.5" font-family="Helvetica,sans-Serif" font-size="10.00" fill="#000000">include/tvm/meta_schedule</text>
<text text-anchor="middle" x="1609.8864" y="-342.5" font-family="Helvetica,sans-Serif" font-size="10.00" fill="#000000">/schedule_rule.h</text>
</a>
</g>
</g>
<!-- Node17&#45;&gt;Node28 -->
<g id="edge22" class="edge">
<title>Node17&#45;&gt;Node28</title>
<path fill="none" stroke="#191970" d="M1514.7208,-610.6177C1574.3184,-602.5062 1654.6507,-588.0683 1678.8864,-567 1734.2353,-518.8848 1721.2273,-460.4162 1676.8864,-402 1665.7986,-387.3925 1649.5647,-374.7716 1635.8537,-365.68"/>
<polygon fill="#191970" stroke="#191970" points="1514.0525,-607.1756 1504.6005,-611.962 1514.9743,-614.1147 1514.0525,-607.1756"/>
</g>
<!-- Node29 -->
<g id="node13" class="node">
<title>Node29</title>
<g id="a_node13"><a xlink:href="object__path_8h.html" target="_top" xlink:title="include/tvm/node/object\l_path.h">
<polygon fill="#ffffff" stroke="#000000" points="2272.8864,-536.5 2272.8864,-566.5 2406.8864,-566.5 2406.8864,-536.5 2272.8864,-536.5"/>
<text text-anchor="start" x="2280.8864" y="-554.5" font-family="Helvetica,sans-Serif" font-size="10.00" fill="#000000">include/tvm/node/object</text>
<text text-anchor="middle" x="2339.8864" y="-543.5" font-family="Helvetica,sans-Serif" font-size="10.00" fill="#000000">_path.h</text>
</a>
</g>
</g>
<!-- Node17&#45;&gt;Node29 -->
<g id="edge27" class="edge">
<title>Node17&#45;&gt;Node29</title>
<path fill="none" stroke="#191970" d="M1514.6922,-613.3434C1681.7394,-600.8242 2107.1308,-568.9437 2272.5996,-556.5427"/>
<polygon fill="#191970" stroke="#191970" points="1514.2547,-609.8663 1504.5443,-614.1039 1514.7779,-616.8467 1514.2547,-609.8663"/>
</g>
<!-- Node114 -->
<g id="node21" class="node">
<title>Node114</title>
<g id="a_node21"><a xlink:href="relax_2dataflow__matcher_8h.html" target="_top" xlink:title="A pattern matcher for matching dataflow properties. ">
<polygon fill="#ffffff" stroke="#000000" points="182.3864,-201.5 182.3864,-231.5 329.3864,-231.5 329.3864,-201.5 182.3864,-201.5"/>
<text text-anchor="start" x="190.3864" y="-219.5" font-family="Helvetica,sans-Serif" font-size="10.00" fill="#000000">include/tvm/relax/dataflow</text>
<text text-anchor="middle" x="255.8864" y="-208.5" font-family="Helvetica,sans-Serif" font-size="10.00" fill="#000000">_matcher.h</text>
</a>
</g>
</g>
<!-- Node17&#45;&gt;Node114 -->
<g id="edge52" class="edge">
<title>Node17&#45;&gt;Node114</title>
<path fill="none" stroke="#191970" d="M1376.8906,-616.917C1145.1535,-611.3906 403.3751,-591.929 298.8864,-567 212.1057,-546.2958 115.8864,-573.7163 115.8864,-484.5 115.8864,-484.5 115.8864,-484.5 115.8864,-350.5 115.8864,-292.631 179.0847,-252.0338 220.5585,-231.6223"/>
<polygon fill="#191970" stroke="#191970" points="1377.1297,-620.4236 1387.21,-617.1619 1377.2959,-613.4255 1377.1297,-620.4236"/>
</g>
<!-- Node113 -->
<g id="node22" class="node">
<title>Node113</title>
<g id="a_node22"><a xlink:href="relax_2dataflow__pattern_8h.html" target="_top" xlink:title="A pattern language for matching dataflow properties. ">
<polygon fill="#ffffff" stroke="#000000" points="182.3864,-268.5 182.3864,-298.5 329.3864,-298.5 329.3864,-268.5 182.3864,-268.5"/>
<text text-anchor="start" x="190.3864" y="-286.5" font-family="Helvetica,sans-Serif" font-size="10.00" fill="#000000">include/tvm/relax/dataflow</text>
<text text-anchor="middle" x="255.8864" y="-275.5" font-family="Helvetica,sans-Serif" font-size="10.00" fill="#000000">_pattern.h</text>
</a>
</g>
</g>
<!-- Node17&#45;&gt;Node113 -->
<g id="edge53" class="edge">
<title>Node17&#45;&gt;Node113</title>
<path fill="none" stroke="#191970" d="M1377.0777,-616.9644C1143.0781,-611.5233 390.0373,-592.1337 344.8864,-567 257.8775,-518.5656 257.5314,-464.8981 245.8864,-366 243.1194,-342.5008 248.0017,-315.2519 251.8681,-298.7017"/>
<polygon fill="#191970" stroke="#191970" points="1377.0873,-620.4654 1387.1656,-617.1977 1377.2492,-613.4673 1377.0873,-620.4654"/>
</g>
<!-- Node108 -->
<g id="node25" class="node">
<title>Node108</title>
<g id="a_node25"><a xlink:href="nested__msg_8h.html" target="_top" xlink:title="Helper container to store nested message for robust tuple&#45;aware analysis. ">
<polygon fill="#ffffff" stroke="#000000" points="347.8864,-268.5 347.8864,-298.5 485.8864,-298.5 485.8864,-268.5 347.8864,-268.5"/>
<text text-anchor="start" x="355.8864" y="-286.5" font-family="Helvetica,sans-Serif" font-size="10.00" fill="#000000">include/tvm/relax/nested</text>
<text text-anchor="middle" x="416.8864" y="-275.5" font-family="Helvetica,sans-Serif" font-size="10.00" fill="#000000">_msg.h</text>
</a>
</g>
</g>
<!-- Node17&#45;&gt;Node108 -->
<g id="edge57" class="edge">
<title>Node17&#45;&gt;Node108</title>
<path fill="none" stroke="#191970" d="M1376.9362,-617.9482C1124.8559,-615.0326 267.8864,-596.8581 267.8864,-484.5 267.8864,-484.5 267.8864,-484.5 267.8864,-417.5 267.8864,-376.7508 278.9278,-363.6686 307.8864,-335 324.4706,-318.5819 347.2858,-306.6959 367.7582,-298.5087"/>
<polygon fill="#191970" stroke="#191970" points="1377.0278,-621.4493 1387.0662,-618.0609 1377.1058,-614.4498 1377.0278,-621.4493"/>
</g>
<!-- Node241 -->
<g id="node26" class="node">
<title>Node241</title>
<g id="a_node26"><a xlink:href="array_8h.html" target="_top" xlink:title="Runtime Array container types. ">
<polygon fill="#ffffff" stroke="#000000" points="1121.8864,-536.5 1121.8864,-566.5 1237.8864,-566.5 1237.8864,-536.5 1121.8864,-536.5"/>
<text text-anchor="start" x="1129.8864" y="-554.5" font-family="Helvetica,sans-Serif" font-size="10.00" fill="#000000">include/tvm/runtime</text>
<text text-anchor="middle" x="1179.8864" y="-543.5" font-family="Helvetica,sans-Serif" font-size="10.00" fill="#000000">/container/array.h</text>
</a>
</g>
</g>
<!-- Node17&#45;&gt;Node241 -->
<g id="edge58" class="edge">
<title>Node17&#45;&gt;Node241</title>
<path fill="none" stroke="#191970" d="M1377.3211,-601.2298C1334.1387,-590.353 1279.0067,-576.4664 1237.9826,-566.1332"/>
<polygon fill="#191970" stroke="#191970" points="1376.6303,-604.665 1387.1823,-603.7136 1378.3401,-597.877 1376.6303,-604.665"/>
</g>
<!-- Node255 -->
<g id="node43" class="node">
<title>Node255</title>
<g id="a_node43"><a xlink:href="map_8h.html" target="_top" xlink:title="Runtime Map container types. ">
<polygon fill="#ffffff" stroke="#000000" points="1553.8864,-536.5 1553.8864,-566.5 1669.8864,-566.5 1669.8864,-536.5 1553.8864,-536.5"/>
<text text-anchor="start" x="1561.8864" y="-554.5" font-family="Helvetica,sans-Serif" font-size="10.00" fill="#000000">include/tvm/runtime</text>
<text text-anchor="middle" x="1611.8864" y="-543.5" font-family="Helvetica,sans-Serif" font-size="10.00" fill="#000000">/container/map.h</text>
</a>
</g>
</g>
<!-- Node17&#45;&gt;Node255 -->
<g id="edge127" class="edge">
<title>Node17&#45;&gt;Node255</title>
<path fill="none" stroke="#191970" d="M1492.7389,-599.5897C1518.5999,-589.1518 1550.2795,-576.3654 1574.4703,-566.6017"/>
<polygon fill="#191970" stroke="#191970" points="1491.1032,-596.4754 1483.1401,-603.4639 1493.7232,-602.9667 1491.1032,-596.4754"/>
</g>
<!-- Node256 -->
<g id="node44" class="node">
<title>Node256</title>
<g id="a_node44"><a xlink:href="ndarray_8h.html" target="_top" xlink:title="A device&#45;independent managed NDArray abstraction. ">
<polygon fill="#ffffff" stroke="#000000" points="2993.8864,-536.5 2993.8864,-566.5 3109.8864,-566.5 3109.8864,-536.5 2993.8864,-536.5"/>
<text text-anchor="start" x="3001.8864" y="-554.5" font-family="Helvetica,sans-Serif" font-size="10.00" fill="#000000">include/tvm/runtime</text>
<text text-anchor="middle" x="3051.8864" y="-543.5" font-family="Helvetica,sans-Serif" font-size="10.00" fill="#000000">/ndarray.h</text>
</a>
</g>
</g>
<!-- Node17&#45;&gt;Node256 -->
<g id="edge139" class="edge">
<title>Node17&#45;&gt;Node256</title>
<path fill="none" stroke="#191970" d="M1514.796,-615.6252C1781.8146,-604.4856 2745.7259,-564.2726 2993.4969,-553.9359"/>
<polygon fill="#191970" stroke="#191970" points="1514.316,-612.1421 1504.4707,-616.056 1514.6079,-619.136 1514.316,-612.1421"/>
</g>
<!-- Node19 -->
<g id="node3" class="node">
<title>Node19</title>
<g id="a_node3"><a xlink:href="measure__callback_8h.html" target="_top" xlink:title="include/tvm/meta_schedule\l/measure_callback.h">
<polygon fill="#ffffff" stroke="#000000" points="2596.8864,-67.5 2596.8864,-97.5 2748.8864,-97.5 2748.8864,-67.5 2596.8864,-67.5"/>
<text text-anchor="start" x="2604.8864" y="-85.5" font-family="Helvetica,sans-Serif" font-size="10.00" fill="#000000">include/tvm/meta_schedule</text>
<text text-anchor="middle" x="2672.8864" y="-74.5" font-family="Helvetica,sans-Serif" font-size="10.00" fill="#000000">/measure_callback.h</text>
</a>
</g>
</g>
<!-- Node18&#45;&gt;Node19 -->
<g id="edge2" class="edge">
<title>Node18&#45;&gt;Node19</title>
<path fill="none" stroke="#191970" d="M1256.8315,-258.2744C1267.9339,-223.3636 1293.3235,-161.5176 1339.8864,-134 1394.1867,-101.9098 2321.5882,-87.139 2596.6118,-83.4513"/>
<polygon fill="#191970" stroke="#191970" points="1253.3816,-257.5912 1253.837,-268.1762 1260.0819,-259.6176 1253.3816,-257.5912"/>
</g>
<!-- Node18&#45;&gt;Node20 -->
<g id="edge4" class="edge">
<title>Node18&#45;&gt;Node20</title>
<path fill="none" stroke="#191970" d="M1249.9025,-258.0091C1251.5039,-222.6983 1260.4179,-160.2846 1301.8864,-134 1411.6084,-64.4532 2324.526,-27.5441 2596.6329,-18.0154"/>
<polygon fill="#191970" stroke="#191970" points="1246.3917,-258.3462 1249.6076,-268.4412 1253.3889,-258.5441 1246.3917,-258.3462"/>
</g>
<!-- Node18&#45;&gt;Node21 -->
<g id="edge5" class="edge">
<title>Node18&#45;&gt;Node21</title>
<path fill="none" stroke="#191970" d="M1281.7996,-263.095C1314.1912,-243.5038 1366.4712,-214.8972 1415.8864,-201 1510.4744,-174.3988 1792.684,-158.8122 1929.6435,-152.6208"/>
<polygon fill="#191970" stroke="#191970" points="1279.9053,-260.151 1273.2099,-268.362 1283.5644,-266.1185 1279.9053,-260.151"/>
</g>
<!-- Node19&#45;&gt;Node20 -->
<g id="edge3" class="edge">
<title>Node19&#45;&gt;Node20</title>
<path fill="none" stroke="#191970" d="M2672.8864,-57.0249C2672.8864,-48.128 2672.8864,-38.4287 2672.8864,-30.6432"/>
<polygon fill="#191970" stroke="#191970" points="2669.3865,-57.2966 2672.8864,-67.2967 2676.3865,-57.2967 2669.3865,-57.2966"/>
</g>
<!-- Node21&#45;&gt;Node19 -->
<g id="edge6" class="edge">
<title>Node21&#45;&gt;Node19</title>
<path fill="none" stroke="#191970" d="M2092.0979,-140.8401C2223.4384,-127.647 2471.5538,-102.7238 2596.6672,-90.1562"/>
<polygon fill="#191970" stroke="#191970" points="2091.6749,-137.3649 2082.0748,-141.8469 2092.3746,-144.3298 2091.6749,-137.3649"/>
</g>
<!-- Node21&#45;&gt;Node20 -->
<g id="edge7" class="edge">
<title>Node21&#45;&gt;Node20</title>
<path fill="none" stroke="#191970" d="M2090.8114,-132.4386C2222.3175,-106.0191 2473.0699,-55.643 2598.1147,-30.5216"/>
<polygon fill="#191970" stroke="#191970" points="2089.8952,-129.0527 2080.7805,-134.4538 2091.274,-135.9155 2089.8952,-129.0527"/>
</g>
<!-- Node23 -->
<g id="node7" class="node">
<title>Node23</title>
<g id="a_node7"><a xlink:href="space__generator_8h.html" target="_top" xlink:title="include/tvm/meta_schedule\l/space_generator.h">
<polygon fill="#ffffff" stroke="#000000" points="1751.8864,-268.5 1751.8864,-298.5 1903.8864,-298.5 1903.8864,-268.5 1751.8864,-268.5"/>
<text text-anchor="start" x="1759.8864" y="-286.5" font-family="Helvetica,sans-Serif" font-size="10.00" fill="#000000">include/tvm/meta_schedule</text>
<text text-anchor="middle" x="1827.8864" y="-275.5" font-family="Helvetica,sans-Serif" font-size="10.00" fill="#000000">/space_generator.h</text>
</a>
</g>
</g>
<!-- Node22&#45;&gt;Node23 -->
<g id="edge9" class="edge">
<title>Node22&#45;&gt;Node23</title>
<path fill="none" stroke="#191970" d="M1899.7474,-329.7951C1884.1641,-319.7558 1865.7803,-307.9124 1851.508,-298.7177"/>
<polygon fill="#191970" stroke="#191970" points="1898.2447,-332.9904 1908.5468,-335.4639 1902.0358,-327.1058 1898.2447,-332.9904"/>
</g>
<!-- Node23&#45;&gt;Node21 -->
<g id="edge10" class="edge">
<title>Node23&#45;&gt;Node21</title>
<path fill="none" stroke="#191970" d="M1856.1433,-262.2279C1892.3476,-234.973 1954.2002,-188.4098 1985.8869,-164.5558"/>
<polygon fill="#191970" stroke="#191970" points="1853.8435,-259.5784 1847.9593,-268.389 1858.0535,-265.1708 1853.8435,-259.5784"/>
</g>
<!-- Node25&#45;&gt;Node19 -->
<g id="edge18" class="edge">
<title>Node25&#45;&gt;Node19</title>
<path fill="none" stroke="#191970" d="M3347.0397,-325.5892C3340.8552,-307.3712 3330.0452,-283.2704 3312.8864,-268 3181.2988,-150.8939 3109.7623,-180.5973 2939.8864,-134 2876.3764,-116.5791 2802.7995,-102.8518 2748.9856,-93.9657"/>
<polygon fill="#191970" stroke="#191970" points="3343.7449,-326.7794 3350.0851,-335.2677 3350.4222,-324.6783 3343.7449,-326.7794"/>
</g>
<!-- Node25&#45;&gt;Node20 -->
<g id="edge20" class="edge">
<title>Node25&#45;&gt;Node20</title>
<path fill="none" stroke="#191970" d="M3362.2388,-325.7902C3370.4903,-299.1433 3381.8864,-255.3153 3381.8864,-216.5 3381.8864,-216.5 3381.8864,-216.5 3381.8864,-149.5 3381.8864,-85.6517 2932.2161,-38.5122 2749.0984,-21.9628"/>
<polygon fill="#191970" stroke="#191970" points="3358.8647,-324.8506 3359.153,-335.4416 3365.5322,-326.9824 3358.8647,-324.8506"/>
</g>
<!-- Node25&#45;&gt;Node21 -->
<g id="edge21" class="edge">
<title>Node25&#45;&gt;Node21</title>
<path fill="none" stroke="#191970" d="M3339.6054,-326.6149C3326.635,-307.2708 3305.6237,-281.1485 3279.8864,-268 3173.1276,-213.4598 2340.491,-166.6387 2082.1016,-153.3013"/>
<polygon fill="#191970" stroke="#191970" points="3336.7903,-328.7077 3345.1496,-335.2171 3342.6741,-324.9155 3336.7903,-328.7077"/>
</g>
<!-- Node26 -->
<g id="node10" class="node">
<title>Node26</title>
<g id="a_node10"><a xlink:href="meta__schedule_2cost__model_8h.html" target="_top" xlink:title="include/tvm/meta_schedule\l/cost_model.h">
<polygon fill="#ffffff" stroke="#000000" points="2915.8864,-268.5 2915.8864,-298.5 3067.8864,-298.5 3067.8864,-268.5 2915.8864,-268.5"/>
<text text-anchor="start" x="2923.8864" y="-286.5" font-family="Helvetica,sans-Serif" font-size="10.00" fill="#000000">include/tvm/meta_schedule</text>
<text text-anchor="middle" x="2991.8864" y="-275.5" font-family="Helvetica,sans-Serif" font-size="10.00" fill="#000000">/cost_model.h</text>
</a>
</g>
</g>
<!-- Node25&#45;&gt;Node26 -->
<g id="edge13" class="edge">
<title>Node25&#45;&gt;Node26</title>
<path fill="none" stroke="#191970" d="M3267.6128,-334.5322C3206.9207,-323.2992 3126.4435,-308.4042 3068.1106,-297.6078"/>
<polygon fill="#191970" stroke="#191970" points="3267.0879,-337.9944 3277.5579,-336.3729 3268.3619,-331.1113 3267.0879,-337.9944"/>
</g>
<!-- Node25&#45;&gt;Node27 -->
<g id="edge19" class="edge">
<title>Node25&#45;&gt;Node27</title>
<path fill="none" stroke="#191970" d="M3328.5928,-328.8727C3302.2167,-306.8168 3262.2148,-274.8836 3243.8864,-268 3188.0988,-247.0478 2801.8565,-227.4191 2635.1797,-219.8195"/>
<polygon fill="#191970" stroke="#191970" points="3326.3976,-331.5997 3336.302,-335.3618 3330.9054,-326.2443 3326.3976,-331.5997"/>
</g>
<!-- Node26&#45;&gt;Node20 -->
<g id="edge17" class="edge">
<title>Node26&#45;&gt;Node20</title>
<path fill="none" stroke="#191970" d="M2989.2886,-258.3061C2984.6943,-225.7974 2972.321,-169.2437 2939.8864,-134 2888.0293,-77.6516 2804.4539,-46.5487 2744.6198,-30.514"/>
<polygon fill="#191970" stroke="#191970" points="2985.8314,-258.8654 2990.5661,-268.3434 2992.7754,-257.9815 2985.8314,-258.8654"/>
</g>
<!-- Node26&#45;&gt;Node27 -->
<g id="edge14" class="edge">
<title>Node26&#45;&gt;Node27</title>
<path fill="none" stroke="#191970" d="M2905.5333,-270.1382C2826.4563,-257.9023 2710.5439,-239.9666 2634.9007,-228.262"/>
<polygon fill="#191970" stroke="#191970" points="2905.0538,-273.6056 2915.4714,-271.676 2906.1243,-266.6879 2905.0538,-273.6056"/>
</g>
<!-- Node27&#45;&gt;Node19 -->
<g id="edge15" class="edge">
<title>Node27&#45;&gt;Node19</title>
<path fill="none" stroke="#191970" d="M2578.4535,-193.5001C2601.744,-166.1235 2639.9821,-121.177 2659.9028,-97.7614"/>
<polygon fill="#191970" stroke="#191970" points="2575.5561,-191.5044 2571.7421,-201.389 2580.8877,-196.0403 2575.5561,-191.5044"/>
</g>
<!-- Node27&#45;&gt;Node21 -->
<g id="edge16" class="edge">
<title>Node27&#45;&gt;Node21</title>
<path fill="none" stroke="#191970" d="M2472.7281,-206.0613C2365.5412,-193.0748 2184.2093,-171.1051 2081.946,-158.7152"/>
<polygon fill="#191970" stroke="#191970" points="2472.516,-209.5611 2482.8644,-207.2894 2473.358,-202.6119 2472.516,-209.5611"/>
</g>
<!-- Node28&#45;&gt;Node23 -->
<g id="edge23" class="edge">
<title>Node28&#45;&gt;Node23</title>
<path fill="none" stroke="#191970" d="M1668.7389,-332.4123C1703.1715,-321.8298 1746.1413,-308.6235 1778.7496,-298.6017"/>
<polygon fill="#191970" stroke="#191970" points="1667.3404,-329.1805 1658.8099,-335.4639 1669.3969,-335.8716 1667.3404,-329.1805"/>
</g>
<!-- Node30 -->
<g id="node14" class="node">
<title>Node30</title>
<g id="a_node14"><a xlink:href="script__printer_8h.html" target="_top" xlink:title="include/tvm/node/script\l_printer.h">
<polygon fill="#ffffff" stroke="#ff0000" points="2482.3864,-335.5 2482.3864,-365.5 2613.3864,-365.5 2613.3864,-335.5 2482.3864,-335.5"/>
<text text-anchor="start" x="2490.3864" y="-353.5" font-family="Helvetica,sans-Serif" font-size="10.00" fill="#000000">include/tvm/node/script</text>
<text text-anchor="middle" x="2547.8864" y="-342.5" font-family="Helvetica,sans-Serif" font-size="10.00" fill="#000000">_printer.h</text>
</a>
</g>
</g>
<!-- Node29&#45;&gt;Node30 -->
<g id="edge28" class="edge">
<title>Node29&#45;&gt;Node30</title>
<path fill="none" stroke="#191970" d="M2417.5813,-547.1795C2530.0948,-540.1181 2727.3678,-524.398 2748.8864,-500 2801.4582,-440.3935 2676.5405,-389.7031 2600.7503,-365.5748"/>
<polygon fill="#191970" stroke="#191970" points="2417.0644,-543.7047 2407.2996,-547.8155 2417.4966,-550.6914 2417.0644,-543.7047"/>
</g>
<!-- Node235 -->
<g id="node15" class="node">
<title>Node235</title>
<g id="a_node15"><a xlink:href="structural__equal_8h.html" target="_top" xlink:title="Structural equality comparison. ">
<polygon fill="#ffffff" stroke="#ff0000" points="2264.3864,-469.5 2264.3864,-499.5 2415.3864,-499.5 2415.3864,-469.5 2264.3864,-469.5"/>
<text text-anchor="start" x="2272.3864" y="-487.5" font-family="Helvetica,sans-Serif" font-size="10.00" fill="#000000">include/tvm/node/structural</text>
<text text-anchor="middle" x="2339.8864" y="-476.5" font-family="Helvetica,sans-Serif" font-size="10.00" fill="#000000">_equal.h</text>
</a>
</g>
</g>
<!-- Node29&#45;&gt;Node235 -->
<g id="edge29" class="edge">
<title>Node29&#45;&gt;Node235</title>
<path fill="none" stroke="#191970" d="M2339.8864,-526.0249C2339.8864,-517.128 2339.8864,-507.4287 2339.8864,-499.6432"/>
<polygon fill="#191970" stroke="#191970" points="2336.3865,-526.2966 2339.8864,-536.2967 2343.3865,-526.2967 2336.3865,-526.2966"/>
</g>
<!-- Node236 -->
<g id="node16" class="node">
<title>Node236</title>
<g id="a_node16"><a xlink:href="reflection_8h.html" target="_top" xlink:title="Reflection and serialization of compiler IR/AST nodes. ">
<polygon fill="#ffffff" stroke="#ff0000" points="2353.3864,-408 2353.3864,-427 2512.3864,-427 2512.3864,-408 2353.3864,-408"/>
<text text-anchor="middle" x="2432.8864" y="-415" font-family="Helvetica,sans-Serif" font-size="10.00" fill="#000000">include/tvm/node/reflection.h</text>
</a>
</g>
</g>
<!-- Node235&#45;&gt;Node236 -->
<g id="edge30" class="edge">
<title>Node235&#45;&gt;Node236</title>
<path fill="none" stroke="#191970" d="M2369.4359,-463.2117C2386.2967,-451.0646 2406.6024,-436.4358 2419.6235,-427.055"/>
<polygon fill="#191970" stroke="#191970" points="2367.0574,-460.6115 2360.9896,-469.2967 2371.1491,-466.2911 2367.0574,-460.6115"/>
</g>
<!-- Node236&#45;&gt;Node18 -->
<g id="edge31" class="edge">
<title>Node236&#45;&gt;Node18</title>
<path fill="none" stroke="#191970" d="M2342.9758,-407.5917C2266.658,-398.239 2163.6959,-383.1233 2125.8864,-366 2106.0317,-357.0081 2108.1849,-342.9394 2087.8864,-335 2018.0618,-307.6895 1519.1676,-291.012 1326.003,-285.517"/>
<polygon fill="#191970" stroke="#191970" points="2342.7376,-411.0883 2353.0859,-408.8162 2343.5793,-404.1391 2342.7376,-411.0883"/>
</g>
<!-- Node236&#45;&gt;Node19 -->
<g id="edge37" class="edge">
<title>Node236&#45;&gt;Node19</title>
<path fill="none" stroke="#191970" d="M2497.2884,-406.3573C2506.8644,-404.8193 2516.6253,-403.3176 2525.8864,-402 2593.4543,-392.3873 2780.0735,-411.5617 2830.8864,-366 2858.9005,-340.881 2849.8864,-321.1265 2849.8864,-283.5 2849.8864,-283.5 2849.8864,-283.5 2849.8864,-216.5 2849.8864,-153.4837 2777.6878,-116.3021 2725.513,-97.6598"/>
<polygon fill="#191970" stroke="#191970" points="2496.7122,-402.905 2487.4049,-407.967 2497.8375,-409.8139 2496.7122,-402.905"/>
</g>
<!-- Node236&#45;&gt;Node20 -->
<g id="edge49" class="edge">
<title>Node236&#45;&gt;Node20</title>
<path fill="none" stroke="#191970" d="M2522.9782,-414.3208C2766.6108,-405.5378 3421.4441,-380.6258 3438.8864,-366 3467.7181,-341.8239 3457.8864,-321.1265 3457.8864,-283.5 3457.8864,-283.5 3457.8864,-283.5 3457.8864,-149.5 3457.8864,-37.1274 3328.7145,-90.7782 3218.8864,-67 3131.2971,-48.0366 2877.2806,-29.1145 2748.9651,-20.4273"/>
<polygon fill="#191970" stroke="#191970" points="2522.6052,-410.8318 2512.7376,-414.6892 2522.857,-417.8273 2522.6052,-410.8318"/>
</g>
<!-- Node236&#45;&gt;Node21 -->
<g id="edge50" class="edge">
<title>Node236&#45;&gt;Node21</title>
<path fill="none" stroke="#191970" d="M2416.6458,-400.1099C2388.0069,-370.1774 2325.6895,-308.2627 2263.8864,-268 2193.0579,-221.8575 2101.3393,-184.3565 2048.5076,-164.6273"/>
<polygon fill="#191970" stroke="#191970" points="2414.3824,-402.8097 2423.802,-407.6597 2419.4628,-397.9942 2414.3824,-402.8097"/>
</g>
<!-- Node236&#45;&gt;Node22 -->
<g id="edge43" class="edge">
<title>Node236&#45;&gt;Node22</title>
<path fill="none" stroke="#191970" d="M2343.2359,-407.467C2259.8662,-397.8524 2132.2744,-382.4128 2021.8864,-366 2017.3385,-365.3238 2012.666,-364.6019 2007.9555,-363.8533"/>
<polygon fill="#191970" stroke="#191970" points="2342.8453,-410.945 2353.1796,-408.6103 2343.6449,-403.9909 2342.8453,-410.945"/>
</g>
<!-- Node236&#45;&gt;Node23 -->
<g id="edge48" class="edge">
<title>Node236&#45;&gt;Node23</title>
<path fill="none" stroke="#191970" d="M2391.6612,-405.1323C2333.0088,-387.832 2221.9268,-356.1568 2125.8864,-335 2050.8987,-318.4809 1964.3317,-304.028 1903.8895,-294.6719"/>
<polygon fill="#191970" stroke="#191970" points="2390.7189,-408.5034 2401.3011,-407.9857 2392.7057,-401.7913 2390.7189,-408.5034"/>
</g>
<!-- Node236&#45;&gt;Node24 -->
<g id="edge44" class="edge">
<title>Node236&#45;&gt;Node24</title>
<path fill="none" stroke="#191970" d="M2343.0669,-409.5337C2256.5029,-400.8844 2132.3079,-385.6373 2087.8864,-366 2067.9515,-357.1874 2070.2661,-342.7286 2049.8864,-335 1957.8665,-300.1032 1262.7007,-309.854 1164.8864,-299 1162.0537,-298.6857 1159.1733,-298.3326 1156.2679,-297.9483"/>
<polygon fill="#191970" stroke="#191970" points="2342.8695,-413.0311 2353.1649,-410.5299 2343.5568,-406.0649 2342.8695,-413.0311"/>
</g>
<!-- Node236&#45;&gt;Node25 -->
<g id="edge45" class="edge">
<title>Node236&#45;&gt;Node25</title>
<path fill="none" stroke="#191970" d="M2522.577,-411.7834C2727.4335,-398.7171 3213.4516,-367.6596 3230.8864,-366 3246.099,-364.552 3262.3345,-362.7149 3277.8553,-360.8159"/>
<polygon fill="#191970" stroke="#191970" points="2522.2029,-408.3001 2512.446,-412.4296 2522.6485,-415.2859 2522.2029,-408.3001"/>
</g>
<!-- Node236&#45;&gt;Node26 -->
<g id="edge32" class="edge">
<title>Node236&#45;&gt;Node26</title>
<path fill="none" stroke="#191970" d="M2522.4946,-406.8553C2648.4847,-391.88 2862.8853,-366.3606 2863.8864,-366 2907.1668,-350.4109 2950.7457,-317.9003 2974.2229,-298.6726"/>
<polygon fill="#191970" stroke="#191970" points="2521.9762,-403.3921 2512.4592,-408.048 2522.8024,-410.3432 2521.9762,-403.3921"/>
</g>
<!-- Node236&#45;&gt;Node27 -->
<g id="edge47" class="edge">
<title>Node236&#45;&gt;Node27</title>
<path fill="none" stroke="#191970" d="M2440.0389,-398.1219C2446.973,-380.7035 2458.5355,-354.8794 2472.8864,-335 2486.3159,-316.3971 2495.6832,-317.0191 2509.8864,-299 2527.1083,-277.1513 2542.7131,-248.7002 2551.4817,-231.5586"/>
<polygon fill="#191970" stroke="#191970" points="2436.6579,-397.1628 2436.336,-407.7527 2443.1916,-399.6749 2436.6579,-397.1628"/>
</g>
<!-- Node236&#45;&gt;Node28 -->
<g id="edge46" class="edge">
<title>Node236&#45;&gt;Node28</title>
<path fill="none" stroke="#191970" d="M2343.2301,-410.2011C2180.289,-396.9362 1838.3826,-369.1018 1685.9936,-356.6958"/>
<polygon fill="#191970" stroke="#191970" points="2342.9749,-413.6918 2353.2259,-411.0149 2343.5429,-406.7149 2342.9749,-413.6918"/>
</g>
<!-- Node236&#45;&gt;Node30 -->
<g id="edge51" class="edge">
<title>Node236&#45;&gt;Node30</title>
<path fill="none" stroke="#191970" d="M2458.0604,-402.8334C2477.039,-391.7763 2502.9773,-376.6644 2522.1028,-365.5218"/>
<polygon fill="#191970" stroke="#191970" points="2456.2417,-399.8423 2449.3631,-407.9005 2459.7656,-405.8906 2456.2417,-399.8423"/>
</g>
<!-- Node63 -->
<g id="node17" class="node">
<title>Node63</title>
<g id="a_node17"><a xlink:href="database_8h.html" target="_top" xlink:title="include/tvm/meta_schedule\l/database.h">
<polygon fill="#ffffff" stroke="#ff0000" points="2102.8864,-268.5 2102.8864,-298.5 2254.8864,-298.5 2254.8864,-268.5 2102.8864,-268.5"/>
<text text-anchor="start" x="2110.8864" y="-286.5" font-family="Helvetica,sans-Serif" font-size="10.00" fill="#000000">include/tvm/meta_schedule</text>
<text text-anchor="middle" x="2178.8864" y="-275.5" font-family="Helvetica,sans-Serif" font-size="10.00" fill="#000000">/database.h</text>
</a>
</g>
</g>
<!-- Node236&#45;&gt;Node63 -->
<g id="edge33" class="edge">
<title>Node236&#45;&gt;Node63</title>
<path fill="none" stroke="#191970" d="M2402.48,-403.4873C2380.9261,-393.4035 2351.4173,-379.2917 2325.8864,-366 2282.7959,-343.5665 2233.7791,-315.5376 2204.64,-298.6024"/>
<polygon fill="#191970" stroke="#191970" points="2401.2378,-406.7697 2411.7805,-407.8196 2404.1936,-400.4244 2401.2378,-406.7697"/>
</g>
<!-- Node64 -->
<g id="node18" class="node">
<title>Node64</title>
<g id="a_node18"><a xlink:href="extracted__task_8h.html" target="_top" xlink:title="include/tvm/meta_schedule\l/extracted_task.h">
<polygon fill="#ffffff" stroke="#000000" points="795.8864,-268.5 795.8864,-298.5 947.8864,-298.5 947.8864,-268.5 795.8864,-268.5"/>
<text text-anchor="start" x="803.8864" y="-286.5" font-family="Helvetica,sans-Serif" font-size="10.00" fill="#000000">include/tvm/meta_schedule</text>
<text text-anchor="middle" x="871.8864" y="-275.5" font-family="Helvetica,sans-Serif" font-size="10.00" fill="#000000">/extracted_task.h</text>
</a>
</g>
</g>
<!-- Node236&#45;&gt;Node64 -->
<g id="edge35" class="edge">
<title>Node236&#45;&gt;Node64</title>
<path fill="none" stroke="#191970" d="M2343.0161,-411.7635C2246.4994,-404.4912 2100.2119,-389.9331 2049.8864,-366 2031.7137,-357.3577 2035.4624,-342.7377 2016.8864,-335 1911.9962,-291.3089 1108.1464,-308.1124 994.8864,-299 979.6543,-297.7745 963.4101,-296.0365 947.8869,-294.1646"/>
<polygon fill="#191970" stroke="#191970" points="2342.8383,-415.2598 2353.0696,-412.5083 2343.3556,-408.279 2342.8383,-415.2598"/>
</g>
<!-- Node180 -->
<g id="node19" class="node">
<title>Node180</title>
<g id="a_node19"><a xlink:href="feature__extractor_8h.html" target="_top" xlink:title="include/tvm/meta_schedule\l/feature_extractor.h">
<polygon fill="#ffffff" stroke="#000000" points="2348.8864,-268.5 2348.8864,-298.5 2500.8864,-298.5 2500.8864,-268.5 2348.8864,-268.5"/>
<text text-anchor="start" x="2356.8864" y="-286.5" font-family="Helvetica,sans-Serif" font-size="10.00" fill="#000000">include/tvm/meta_schedule</text>
<text text-anchor="middle" x="2424.8864" y="-275.5" font-family="Helvetica,sans-Serif" font-size="10.00" fill="#000000">/feature_extractor.h</text>
</a>
</g>
</g>
<!-- Node236&#45;&gt;Node180 -->
<g id="edge36" class="edge">
<title>Node236&#45;&gt;Node180</title>
<path fill="none" stroke="#191970" d="M2431.7038,-397.6918C2430.0918,-370.6902 2427.2396,-322.915 2425.7886,-298.611"/>
<polygon fill="#191970" stroke="#191970" points="2428.2213,-398.0894 2432.3111,-407.8631 2435.2088,-397.6722 2428.2213,-398.0894"/>
</g>
<!-- Node179 -->
<g id="node20" class="node">
<title>Node179</title>
<g id="a_node20"><a xlink:href="measure__candidate_8h.html" target="_top" xlink:title="include/tvm/meta_schedule\l/measure_candidate.h">
<polygon fill="#ffffff" stroke="#000000" points="2669.8864,-335.5 2669.8864,-365.5 2821.8864,-365.5 2821.8864,-335.5 2669.8864,-335.5"/>
<text text-anchor="start" x="2677.8864" y="-353.5" font-family="Helvetica,sans-Serif" font-size="10.00" fill="#000000">include/tvm/meta_schedule</text>
<text text-anchor="middle" x="2745.8864" y="-342.5" font-family="Helvetica,sans-Serif" font-size="10.00" fill="#000000">/measure_candidate.h</text>
</a>
</g>
</g>
<!-- Node236&#45;&gt;Node179 -->
<g id="edge38" class="edge">
<title>Node236&#45;&gt;Node179</title>
<path fill="none" stroke="#191970" d="M2487.4688,-405.8162C2539.6737,-394.6414 2618.653,-377.7353 2675.5532,-365.5553"/>
<polygon fill="#191970" stroke="#191970" points="2486.4451,-402.456 2477.3993,-407.9717 2487.9104,-409.3009 2486.4451,-402.456"/>
</g>
<!-- Node63&#45;&gt;Node27 -->
<g id="edge34" class="edge">
<title>Node63&#45;&gt;Node27</title>
<path fill="none" stroke="#191970" d="M2265.2115,-268.2795C2330.6458,-256.7424 2419.7257,-241.0362 2482.567,-229.9563"/>
<polygon fill="#191970" stroke="#191970" points="2264.5683,-264.8389 2255.328,-270.0221 2265.7838,-271.7325 2264.5683,-264.8389"/>
</g>
<!-- Node179&#45;&gt;Node19 -->
<g id="edge41" class="edge">
<title>Node179&#45;&gt;Node19</title>
<path fill="none" stroke="#191970" d="M2739.048,-325.3947C2724.1139,-270.5679 2688.9626,-141.5194 2676.975,-97.5103"/>
<polygon fill="#191970" stroke="#191970" points="2735.7473,-326.5947 2741.7525,-335.3233 2742.5012,-324.7549 2735.7473,-326.5947"/>
</g>
<!-- Node179&#45;&gt;Node26 -->
<g id="edge39" class="edge">
<title>Node179&#45;&gt;Node26</title>
<path fill="none" stroke="#191970" d="M2810.8019,-332.8198C2849.9025,-322.1704 2899.1682,-308.7525 2936.4384,-298.6017"/>
<polygon fill="#191970" stroke="#191970" points="2809.8224,-329.459 2801.0936,-335.4639 2811.6619,-336.213 2809.8224,-329.459"/>
</g>
<!-- Node179&#45;&gt;Node27 -->
<g id="edge42" class="edge">
<title>Node179&#45;&gt;Node27</title>
<path fill="none" stroke="#191970" d="M2716.2008,-329.2279C2678.1659,-301.973 2613.186,-255.4098 2579.8971,-231.5558"/>
<polygon fill="#191970" stroke="#191970" points="2714.6315,-332.4092 2724.7986,-335.389 2718.7088,-326.7192 2714.6315,-332.4092"/>
</g>
<!-- Node179&#45;&gt;Node180 -->
<g id="edge40" class="edge">
<title>Node179&#45;&gt;Node180</title>
<path fill="none" stroke="#191970" d="M2663.7443,-333.3551C2612.2303,-322.6029 2546.4452,-308.8721 2496.9618,-298.5438"/>
<polygon fill="#191970" stroke="#191970" points="2663.3436,-336.8468 2673.8478,-335.4639 2664.7739,-329.9945 2663.3436,-336.8468"/>
</g>
<!-- Node113&#45;&gt;Node114 -->
<g id="edge54" class="edge">
<title>Node113&#45;&gt;Node114</title>
<path fill="none" stroke="#191970" d="M255.8864,-258.0249C255.8864,-249.128 255.8864,-239.4287 255.8864,-231.6432"/>
<polygon fill="#191970" stroke="#191970" points="252.3865,-258.2966 255.8864,-268.2967 259.3865,-258.2967 252.3865,-258.2966"/>
</g>
<!-- Node115 -->
<g id="node23" class="node">
<title>Node115</title>
<g id="a_node23"><a xlink:href="relax_2dataflow__pattern__functor_8h.html" target="_top" xlink:title="Functors and visitors for dataflow patterns. ">
<polygon fill="#ffffff" stroke="#000000" points="347.3864,-201.5 347.3864,-231.5 494.3864,-231.5 494.3864,-201.5 347.3864,-201.5"/>
<text text-anchor="start" x="355.3864" y="-219.5" font-family="Helvetica,sans-Serif" font-size="10.00" fill="#000000">include/tvm/relax/dataflow</text>
<text text-anchor="middle" x="420.8864" y="-208.5" font-family="Helvetica,sans-Serif" font-size="10.00" fill="#000000">_pattern_functor.h</text>
</a>
</g>
</g>
<!-- Node113&#45;&gt;Node115 -->
<g id="edge55" class="edge">
<title>Node113&#45;&gt;Node115</title>
<path fill="none" stroke="#191970" d="M302.4567,-264.5897C328.1619,-254.1518 359.6507,-241.3654 383.6957,-231.6017"/>
<polygon fill="#191970" stroke="#191970" points="300.8641,-261.4587 292.9156,-268.4639 303.4977,-267.9444 300.8641,-261.4587"/>
</g>
<!-- Node49 -->
<g id="node24" class="node">
<title>Node49</title>
<g id="a_node24"><a xlink:href="relax_2transform_8h.html" target="_top" xlink:title="Relax specific transformation passes. ">
<polygon fill="#ffffff" stroke="#ff0000" points="512.8864,-207 512.8864,-226 674.8864,-226 674.8864,-207 512.8864,-207"/>
<text text-anchor="middle" x="593.8864" y="-214" font-family="Helvetica,sans-Serif" font-size="10.00" fill="#000000">include/tvm/relax/transform.h</text>
</a>
</g>
</g>
<!-- Node113&#45;&gt;Node49 -->
<g id="edge56" class="edge">
<title>Node113&#45;&gt;Node49</title>
<path fill="none" stroke="#191970" d="M339.4576,-266.9341C404.401,-254.0607 492.1808,-236.6606 545.8224,-226.0275"/>
<polygon fill="#191970" stroke="#191970" points="338.7729,-263.5017 329.6443,-268.8794 340.134,-270.3681 338.7729,-263.5017"/>
</g>
<!-- Node241&#45;&gt;Node18 -->
<g id="edge77" class="edge">
<title>Node241&#45;&gt;Node18</title>
<path fill="none" stroke="#191970" d="M1183.3326,-526.3586C1189.3526,-485.4906 1203.3364,-402.4307 1225.8864,-335 1230.0786,-322.4644 1236.4577,-308.9417 1241.5858,-298.8998"/>
<polygon fill="#191970" stroke="#191970" points="1179.8347,-526.0948 1181.8772,-536.4908 1186.7635,-527.0901 1179.8347,-526.0948"/>
</g>
<!-- Node241&#45;&gt;Node19 -->
<g id="edge82" class="edge">
<title>Node241&#45;&gt;Node19</title>
<path fill="none" stroke="#191970" d="M1206.8488,-529.7892C1255.7105,-487.8046 1353.8864,-390.1739 1353.8864,-283.5 1353.8864,-283.5 1353.8864,-283.5 1353.8864,-216.5 1353.8864,-153.5984 2315.863,-100.404 2596.7527,-86.2124"/>
<polygon fill="#191970" stroke="#191970" points="1204.5516,-527.1481 1199.1723,-536.2757 1209.0696,-532.4949 1204.5516,-527.1481"/>
</g>
<!-- Node241&#45;&gt;Node20 -->
<g id="edge89" class="edge">
<title>Node241&#45;&gt;Node20</title>
<path fill="none" stroke="#191970" d="M1111.4956,-550.347C917.3269,-546.6768 371.9708,-533.4768 298.8864,-500 214.7316,-461.4523 153.8864,-443.0632 153.8864,-350.5 153.8864,-350.5 153.8864,-350.5 153.8864,-149.5 153.8864,-86.7165 2176.1623,-28.8641 2596.8115,-17.5095"/>
<polygon fill="#191970" stroke="#191970" points="1111.5127,-553.8478 1121.5762,-550.5349 1111.6432,-546.849 1111.5127,-553.8478"/>
</g>
<!-- Node241&#45;&gt;Node21 -->
<g id="edge90" class="edge">
<title>Node241&#45;&gt;Node21</title>
<path fill="none" stroke="#191970" d="M1111.7066,-550.8229C960.1897,-548.6099 605.9617,-539.2493 569.8864,-500 562.31,-491.757 561.1116,-434.9797 572.8864,-402 585.3798,-367.0078 593.5056,-357.7445 622.8864,-335 654.017,-310.9009 749.2842,-279.6599 786.8864,-268 921.1063,-226.3804 956.6409,-219.9172 1095.8864,-201 1256.2129,-179.2189 1741.0878,-159.373 1929.6857,-152.2696"/>
<polygon fill="#191970" stroke="#191970" points="1111.7754,-554.3241 1121.8234,-550.9644 1111.8734,-547.3248 1111.7754,-554.3241"/>
</g>
<!-- Node241&#45;&gt;Node23 -->
<g id="edge88" class="edge">
<title>Node241&#45;&gt;Node23</title>
<path fill="none" stroke="#191970" d="M1203.4241,-529.3405C1252.6289,-484.4271 1371.7992,-382.8751 1491.8864,-335 1537.7971,-316.6968 1667.4725,-300.2977 1751.644,-291.1467"/>
<polygon fill="#191970" stroke="#191970" points="1200.8555,-526.9479 1195.8688,-536.2959 1205.5965,-532.0979 1200.8555,-526.9479"/>
</g>
<!-- Node241&#45;&gt;Node24 -->
<g id="edge84" class="edge">
<title>Node241&#45;&gt;Node24</title>
<path fill="none" stroke="#191970" d="M1182.2155,-526.1598C1184.872,-483.0715 1184.5535,-394.4307 1144.8864,-335 1134.9754,-320.1509 1119.4154,-307.604 1106.0043,-298.6129"/>
<polygon fill="#191970" stroke="#191970" points="1178.7108,-526.1004 1181.4782,-536.3274 1185.6924,-526.6067 1178.7108,-526.1004"/>
</g>
<!-- Node241&#45;&gt;Node25 -->
<g id="edge85" class="edge">
<title>Node241&#45;&gt;Node25</title>
<path fill="none" stroke="#191970" d="M1248.0696,-548.4811C1321.3878,-545.2637 1441.3819,-540.0815 1544.8864,-536 1764.639,-527.3346 2318.3886,-543.897 2533.8864,-500 2571.6572,-492.3061 2577.2858,-477.4864 2614.8864,-469 2814.0599,-424.0467 2872.0756,-469.9577 3072.8864,-433 3159.8934,-416.987 3258.4403,-384.6288 3312.6449,-365.5422"/>
<polygon fill="#191970" stroke="#191970" points="1247.8771,-544.9861 1238.0404,-548.9217 1248.1844,-551.9793 1247.8771,-544.9861"/>
</g>
<!-- Node241&#45;&gt;Node26 -->
<g id="edge78" class="edge">
<title>Node241&#45;&gt;Node26</title>
<path fill="none" stroke="#191970" d="M1248.072,-548.5409C1321.3923,-545.3739 1441.388,-540.2336 1544.8864,-536 1646.5467,-531.8416 2363.1841,-531.6349 2459.8864,-500 2483.3181,-492.3346 2483.3006,-478.8835 2505.8864,-469 2508.7366,-467.7528 2939.3706,-367.8303 2941.8864,-366 2965.3161,-348.9544 2979.9131,-317.2709 2986.9155,-298.5179"/>
<polygon fill="#191970" stroke="#191970" points="1247.882,-545.0458 1238.0425,-548.9744 1248.1843,-552.0392 1247.882,-545.0458"/>
</g>
<!-- Node241&#45;&gt;Node27 -->
<g id="edge87" class="edge">
<title>Node241&#45;&gt;Node27</title>
<path fill="none" stroke="#191970" d="M1248.1838,-539.8162C1279.8378,-532.1112 1316.7941,-519.6804 1345.8864,-500 1424.1342,-447.0668 1400.3048,-385.9058 1479.8864,-335 1581.4984,-270.0021 1623.7334,-286.7692 1742.8864,-268 1884.07,-245.7605 2308.0562,-226.6423 2482.5674,-219.4961"/>
<polygon fill="#191970" stroke="#191970" points="1247.0589,-536.4841 1238.1095,-542.1549 1248.6419,-543.3028 1247.0589,-536.4841"/>
</g>
<!-- Node241&#45;&gt;Node28 -->
<g id="edge86" class="edge">
<title>Node241&#45;&gt;Node28</title>
<path fill="none" stroke="#191970" d="M1248.36,-549.0597C1338.6245,-544.6011 1491.2233,-532.3883 1535.8864,-500 1581.8382,-466.6772 1600.8038,-396.7458 1607.1697,-365.7959"/>
<polygon fill="#191970" stroke="#191970" points="1248.0341,-545.5712 1238.2113,-549.5414 1248.366,-552.5633 1248.0341,-545.5712"/>
</g>
<!-- Node241&#45;&gt;Node235 -->
<g id="edge91" class="edge">
<title>Node241&#45;&gt;Node235</title>
<path fill="none" stroke="#191970" d="M1248.1375,-548.4801C1476.8778,-538.3262 2204.8678,-505.7331 2254.8864,-500 2257.867,-499.6584 2260.9006,-499.2755 2263.9608,-498.86"/>
<polygon fill="#191970" stroke="#191970" points="1247.7838,-544.9922 1237.9488,-548.9322 1248.0942,-551.9853 1247.7838,-544.9922"/>
</g>
<!-- Node241&#45;&gt;Node63 -->
<g id="edge79" class="edge">
<title>Node241&#45;&gt;Node63</title>
<path fill="none" stroke="#191970" d="M1248.1698,-544.8696C1289.8758,-538.3457 1342.8858,-525.4477 1383.8864,-500 1465.8451,-449.131 1438.9334,-378.7831 1524.8864,-335 1550.2736,-322.0682 1935.6376,-297.8825 2102.6486,-287.941"/>
<polygon fill="#191970" stroke="#191970" points="1247.4787,-541.4336 1238.0972,-546.3567 1248.5012,-548.3585 1247.4787,-541.4336"/>
</g>
<!-- Node241&#45;&gt;Node64 -->
<g id="edge80" class="edge">
<title>Node241&#45;&gt;Node64</title>
<path fill="none" stroke="#191970" d="M1111.3933,-550.7031C961.7562,-548.2506 616.1646,-538.4414 580.8864,-500 568.3464,-486.3356 571.4013,-424.1504 587.8864,-402 636.9281,-336.1048 729.502,-306.6177 795.6291,-293.575"/>
<polygon fill="#191970" stroke="#191970" points="1111.7676,-554.2093 1121.8215,-550.8673 1111.8779,-547.2102 1111.7676,-554.2093"/>
</g>
<!-- Node241&#45;&gt;Node180 -->
<g id="edge81" class="edge">
<title>Node241&#45;&gt;Node180</title>
<path fill="none" stroke="#191970" d="M1247.9691,-545.6486C1342.3628,-536.9804 1507.8182,-519.623 1564.8864,-500 1702.2062,-452.7824 1708.4981,-378.9875 1846.8864,-335 2024.1689,-278.6497 2078.6342,-315.9135 2263.8864,-299 2291.5711,-296.4724 2321.9212,-293.5817 2348.7349,-290.9867"/>
<polygon fill="#191970" stroke="#191970" points="1247.584,-542.1691 1237.9424,-546.5612 1248.2185,-549.1403 1247.584,-542.1691"/>
</g>
<!-- Node241&#45;&gt;Node179 -->
<g id="edge83" class="edge">
<title>Node241&#45;&gt;Node179</title>
<path fill="none" stroke="#191970" d="M1248.0733,-548.5737C1321.3948,-545.4342 1441.3915,-540.3168 1544.8864,-536 1642.55,-531.9264 2331.3286,-531.4297 2423.8864,-500 2446.5378,-492.3083 2446.9897,-480.6436 2467.8864,-469 2547.6328,-424.5654 2647.403,-385.79 2703.1363,-365.5086"/>
<polygon fill="#191970" stroke="#191970" points="1247.8847,-545.0784 1238.0437,-549.0032 1248.1843,-552.072 1247.8847,-545.0784"/>
</g>
<!-- Node241&#45;&gt;Node113 -->
<g id="edge92" class="edge">
<title>Node241&#45;&gt;Node113</title>
<path fill="none" stroke="#191970" d="M1111.7807,-550.7422C924.2343,-548.177 409.7374,-537.7423 343.8864,-500 281.6434,-464.3255 274.794,-434.6275 253.8864,-366 246.9971,-343.3864 249.8194,-315.6509 252.6964,-298.7902"/>
<polygon fill="#191970" stroke="#191970" points="1111.7499,-554.242 1121.7957,-550.8759 1111.8434,-547.2427 1111.7499,-554.242"/>
</g>
<!-- Node241&#45;&gt;Node108 -->
<g id="edge97" class="edge">
<title>Node241&#45;&gt;Node108</title>
<path fill="none" stroke="#191970" d="M1111.4663,-551.0377C929.7495,-549.2573 444.8509,-540.7034 385.8864,-500 321.5436,-455.5839 285.3457,-402.4486 324.8864,-335 334.6991,-318.2615 352.1589,-306.555 369.2506,-298.5832"/>
<polygon fill="#191970" stroke="#191970" points="1111.6686,-554.5397 1121.7011,-551.1339 1111.7344,-547.54 1111.6686,-554.5397"/>
</g>
<!-- Node43 -->
<g id="node27" class="node">
<title>Node43</title>
<g id="a_node27"><a xlink:href="ir_2adt_8h.html" target="_top" xlink:title="Algebraic data type definitions. ">
<polygon fill="#ffffff" stroke="#ff0000" points="596.8864,-408 596.8864,-427 708.8864,-427 708.8864,-408 596.8864,-408"/>
<text text-anchor="middle" x="652.8864" y="-415" font-family="Helvetica,sans-Serif" font-size="10.00" fill="#000000">include/tvm/ir/adt.h</text>
</a>
</g>
</g>
<!-- Node241&#45;&gt;Node43 -->
<g id="edge59" class="edge">
<title>Node241&#45;&gt;Node43</title>
<path fill="none" stroke="#191970" d="M1111.452,-550.5957C963.7297,-547.9329 625.468,-537.7372 590.8864,-500 568.3717,-475.4308 611.3031,-443.0125 636.4645,-427.1208"/>
<polygon fill="#191970" stroke="#191970" points="1111.6926,-554.1003 1121.7519,-550.7747 1111.8142,-547.1013 1111.6926,-554.1003"/>
</g>
<!-- Node44 -->
<g id="node28" class="node">
<title>Node44</title>
<g id="a_node28"><a xlink:href="ir_2module_8h.html" target="_top" xlink:title="IRModule that holds the functions and type definitions. ">
<polygon fill="#ffffff" stroke="#ff0000" points="844.3864,-341 844.3864,-360 977.3864,-360 977.3864,-341 844.3864,-341"/>
<text text-anchor="middle" x="910.8864" y="-348" font-family="Helvetica,sans-Serif" font-size="10.00" fill="#000000">include/tvm/ir/module.h</text>
</a>
</g>
</g>
<!-- Node241&#45;&gt;Node44 -->
<g id="edge72" class="edge">
<title>Node241&#45;&gt;Node44</title>
<path fill="none" stroke="#191970" d="M1111.5949,-547.2369C1006.1224,-539.9488 813.5219,-523.5634 792.8864,-500 783.6462,-489.4487 775.4524,-429.7995 793.8864,-402 808.4817,-379.9895 834.7893,-367.3138 858.7666,-360.0505"/>
<polygon fill="#191970" stroke="#191970" points="1111.6172,-550.7465 1121.8321,-547.9347 1112.0933,-543.7627 1111.6172,-550.7465"/>
</g>
<!-- Node48 -->
<g id="node29" class="node">
<title>Node48</title>
<g id="a_node29"><a xlink:href="ir_2transform_8h.html" target="_top" xlink:title="include/tvm/ir/transform.h">
<polygon fill="#ffffff" stroke="#ff0000" points="541.8864,-274 541.8864,-293 685.8864,-293 685.8864,-274 541.8864,-274"/>
<text text-anchor="middle" x="613.8864" y="-281" font-family="Helvetica,sans-Serif" font-size="10.00" fill="#000000">include/tvm/ir/transform.h</text>
</a>
</g>
</g>
<!-- Node241&#45;&gt;Node48 -->
<g id="edge73" class="edge">
<title>Node241&#45;&gt;Node48</title>
<path fill="none" stroke="#191970" d="M1111.7533,-549.2245C933.672,-542.948 466.4876,-524.2379 443.8864,-500 388.5678,-440.6754 462.828,-390.6027 521.8864,-335 541.744,-316.3044 569.6521,-301.9255 589.5124,-293.1717"/>
<polygon fill="#191970" stroke="#191970" points="1111.6758,-552.7239 1121.7922,-549.5759 1111.9208,-545.7281 1111.6758,-552.7239"/>
</g>
<!-- Node196 -->
<g id="node30" class="node">
<title>Node196</title>
<g id="a_node30"><a xlink:href="ir_2function_8h.html" target="_top" xlink:title="Function nodes. ">
<polygon fill="#ffffff" stroke="#ff0000" points="1018.8864,-408 1018.8864,-427 1154.8864,-427 1154.8864,-408 1018.8864,-408"/>
<text text-anchor="middle" x="1086.8864" y="-415" font-family="Helvetica,sans-Serif" font-size="10.00" fill="#000000">include/tvm/ir/function.h</text>
</a>
</g>
</g>
<!-- Node241&#45;&gt;Node196 -->
<g id="edge69" class="edge">
<title>Node241&#45;&gt;Node196</title>
<path fill="none" stroke="#191970" d="M1111.6207,-542.1772C1062.4808,-533.9042 1002.253,-520.0046 986.8864,-500 962.5503,-468.3185 1020.0363,-440.9087 1057.5796,-427.0777"/>
<polygon fill="#191970" stroke="#191970" points="1111.1674,-545.6494 1121.6008,-543.8071 1112.2957,-538.7409 1111.1674,-545.6494"/>
</g>
<!-- Node232 -->
<g id="node32" class="node">
<title>Node232</title>
<g id="a_node32"><a xlink:href="ir_2type_8h.html" target="_top" xlink:title="IR/AST nodes for the unified type system in TVM. ">
<polygon fill="#ffffff" stroke="#ff0000" points="599.8864,-475 599.8864,-494 717.8864,-494 717.8864,-475 599.8864,-475"/>
<text text-anchor="middle" x="658.8864" y="-482" font-family="Helvetica,sans-Serif" font-size="10.00" fill="#000000">include/tvm/ir/type.h</text>
</a>
</g>
</g>
<!-- Node241&#45;&gt;Node232 -->
<g id="edge74" class="edge">
<title>Node241&#45;&gt;Node232</title>
<path fill="none" stroke="#191970" d="M1111.5195,-545.6719C1023.4204,-537.697 865.67,-521.8422 731.8864,-500 721.6569,-498.3299 710.692,-496.1899 700.4502,-494.0369"/>
<polygon fill="#191970" stroke="#191970" points="1111.3776,-549.1732 1121.6506,-546.582 1112.0039,-542.2012 1111.3776,-549.1732"/>
</g>
<!-- Node95 -->
<g id="node33" class="node">
<title>Node95</title>
<g id="a_node33"><a xlink:href="relax_2expr_8h.html" target="_top" xlink:title="include/tvm/relax/expr.h">
<polygon fill="#ffffff" stroke="#ff0000" points="334.3864,-341 334.3864,-360 469.3864,-360 469.3864,-341 334.3864,-341"/>
<text text-anchor="middle" x="401.8864" y="-348" font-family="Helvetica,sans-Serif" font-size="10.00" fill="#000000">include/tvm/relax/expr.h</text>
</a>
</g>
</g>
<!-- Node241&#45;&gt;Node95 -->
<g id="edge93" class="edge">
<title>Node241&#45;&gt;Node95</title>
<path fill="none" stroke="#191970" d="M1111.5443,-549.4031C926.9324,-543.4163 430.3978,-525.049 405.8864,-500 368.1153,-461.4004 389.0816,-386.8318 398.2719,-360.2256"/>
<polygon fill="#191970" stroke="#191970" points="1111.5676,-552.9056 1121.6751,-549.7294 1111.793,-545.9092 1111.5676,-552.9056"/>
</g>
<!-- Node242 -->
<g id="node34" class="node">
<title>Node242</title>
<g id="a_node34"><a xlink:href="papi_8h.html" target="_top" xlink:title="include/tvm/runtime\l/contrib/papi.h">
<polygon fill="#ffffff" stroke="#000000" points="3085.8864,-268.5 3085.8864,-298.5 3201.8864,-298.5 3201.8864,-268.5 3085.8864,-268.5"/>
<text text-anchor="start" x="3093.8864" y="-286.5" font-family="Helvetica,sans-Serif" font-size="10.00" fill="#000000">include/tvm/runtime</text>
<text text-anchor="middle" x="3143.8864" y="-275.5" font-family="Helvetica,sans-Serif" font-size="10.00" fill="#000000">/contrib/papi.h</text>
</a>
</g>
</g>
<!-- Node241&#45;&gt;Node242 -->
<g id="edge98" class="edge">
<title>Node241&#45;&gt;Node242</title>
<path fill="none" stroke="#191970" d="M1248.0707,-548.5099C1321.3899,-545.3167 1441.3848,-540.1546 1544.8864,-536 1650.6546,-531.7544 2398.1046,-538.0407 2496.8864,-500 2516.9066,-492.2903 2514.4366,-478.0526 2533.8864,-469 2617.7528,-429.9658 2649.7245,-457.6453 2738.8864,-433 2776.0397,-422.7304 2783.0764,-413.4388 2819.8864,-402 2884.9452,-381.7828 2904.6315,-388.6425 2968.8864,-366 3022.8999,-346.9664 3082.5917,-316.6911 3116.4389,-298.5912"/>
<polygon fill="#191970" stroke="#191970" points="1247.8794,-545.0148 1238.0414,-548.9471 1248.1844,-552.0081 1247.8794,-545.0148"/>
</g>
<!-- Node243 -->
<g id="node35" class="node">
<title>Node243</title>
<g id="a_node35"><a xlink:href="metadata__base_8h.html" target="_top" xlink:title="Defines types which can be used in Metadata. ">
<polygon fill="#ffffff" stroke="#ff0000" points="2623.8864,-469.5 2623.8864,-499.5 2739.8864,-499.5 2739.8864,-469.5 2623.8864,-469.5"/>
<text text-anchor="start" x="2631.8864" y="-487.5" font-family="Helvetica,sans-Serif" font-size="10.00" fill="#000000">include/tvm/runtime</text>
<text text-anchor="middle" x="2681.8864" y="-476.5" font-family="Helvetica,sans-Serif" font-size="10.00" fill="#000000">/metadata_base.h</text>
</a>
</g>
</g>
<!-- Node241&#45;&gt;Node243 -->
<g id="edge99" class="edge">
<title>Node241&#45;&gt;Node243</title>
<path fill="none" stroke="#191970" d="M1248.0675,-548.4283C1321.3841,-545.1665 1441.3767,-539.9472 1544.8864,-536 2018.1461,-517.9529 2139.8559,-558.0669 2609.8864,-500 2614.4548,-499.4356 2619.1621,-498.7235 2623.879,-497.9162"/>
<polygon fill="#191970" stroke="#191970" points="1247.8728,-544.9334 1238.0386,-548.8752 1248.1845,-551.9265 1247.8728,-544.9334"/>
</g>
<!-- Node245 -->
<g id="node36" class="node">
<title>Node245</title>
<g id="a_node36"><a xlink:href="packed__func_8h.html" target="_top" xlink:title="Type&#45;erased function used across TVM API. ">
<polygon fill="#ffffff" stroke="#ff0000" points="2129.8864,-469.5 2129.8864,-499.5 2245.8864,-499.5 2245.8864,-469.5 2129.8864,-469.5"/>
<text text-anchor="start" x="2137.8864" y="-487.5" font-family="Helvetica,sans-Serif" font-size="10.00" fill="#000000">include/tvm/runtime</text>
<text text-anchor="middle" x="2187.8864" y="-476.5" font-family="Helvetica,sans-Serif" font-size="10.00" fill="#000000">/packed_func.h</text>
</a>
</g>
</g>
<!-- Node241&#45;&gt;Node245 -->
<g id="edge100" class="edge">
<title>Node241&#45;&gt;Node245</title>
<path fill="none" stroke="#191970" d="M1248.0612,-546.9685C1435.2861,-534.524 1955.0282,-499.9777 2129.7402,-488.3649"/>
<polygon fill="#191970" stroke="#191970" points="1247.8148,-543.4771 1238.069,-547.6327 1248.2791,-550.4617 1247.8148,-543.4771"/>
</g>
<!-- Node221 -->
<g id="node40" class="node">
<title>Node221</title>
<g id="a_node40"><a xlink:href="buffer_8h.html" target="_top" xlink:title="Symbolic n&#45;dimensional array, to represent a memory buffer. ">
<polygon fill="#ffffff" stroke="#ff0000" points="811.8864,-475 811.8864,-494 939.8864,-494 939.8864,-475 811.8864,-475"/>
<text text-anchor="middle" x="875.8864" y="-482" font-family="Helvetica,sans-Serif" font-size="10.00" fill="#000000">include/tvm/tir/buffer.h</text>
</a>
</g>
</g>
<!-- Node241&#45;&gt;Node221 -->
<g id="edge120" class="edge">
<title>Node241&#45;&gt;Node221</title>
<path fill="none" stroke="#191970" d="M1111.6625,-536.4638C1052.7429,-523.4782 969.4003,-505.11 919.2057,-494.0473"/>
<polygon fill="#191970" stroke="#191970" points="1111.1129,-539.9266 1121.6319,-538.661 1112.6195,-533.0907 1111.1129,-539.9266"/>
</g>
<!-- Node222 -->
<g id="node41" class="node">
<title>Node222</title>
<g id="a_node41"><a xlink:href="tir_2expr_8h.html" target="_top" xlink:title="TIR expressions. ">
<polygon fill="#ffffff" stroke="#ff0000" points="803.3864,-408 803.3864,-427 924.3864,-427 924.3864,-408 803.3864,-408"/>
<text text-anchor="middle" x="863.8864" y="-415" font-family="Helvetica,sans-Serif" font-size="10.00" fill="#000000">include/tvm/tir/expr.h</text>
</a>
</g>
</g>
<!-- Node241&#45;&gt;Node222 -->
<g id="edge125" class="edge">
<title>Node241&#45;&gt;Node222</title>
<path fill="none" stroke="#191970" d="M1111.7315,-546.9883C1008.6353,-539.4612 822.8531,-522.8797 802.8864,-500 781.1016,-475.037 823.1743,-442.7972 847.8117,-427.0325"/>
<polygon fill="#191970" stroke="#191970" points="1111.5208,-550.4821 1121.7465,-547.71 1112.024,-543.5002 1111.5208,-550.4821"/>
</g>
<!-- Node227 -->
<g id="node42" class="node">
<title>Node227</title>
<g id="a_node42"><a xlink:href="index__map_8h.html" target="_top" xlink:title="Defines a remapping of buffer indices. ">
<polygon fill="#ffffff" stroke="#ff0000" points="995.8864,-469.5 995.8864,-499.5 1113.8864,-499.5 1113.8864,-469.5 995.8864,-469.5"/>
<text text-anchor="start" x="1003.8864" y="-487.5" font-family="Helvetica,sans-Serif" font-size="10.00" fill="#000000">include/tvm/tir/index</text>
<text text-anchor="middle" x="1054.8864" y="-476.5" font-family="Helvetica,sans-Serif" font-size="10.00" fill="#000000">_map.h</text>
</a>
</g>
</g>
<!-- Node241&#45;&gt;Node227 -->
<g id="edge126" class="edge">
<title>Node241&#45;&gt;Node227</title>
<path fill="none" stroke="#191970" d="M1142.8251,-531.6352C1123.7708,-521.422 1100.9129,-509.1702 1083.2777,-499.7177"/>
<polygon fill="#191970" stroke="#191970" points="1141.3667,-534.8245 1151.834,-536.4639 1144.6737,-528.6549 1141.3667,-534.8245"/>
</g>
<!-- Node43&#45;&gt;Node44 -->
<g id="edge60" class="edge">
<title>Node43&#45;&gt;Node44</title>
<path fill="none" stroke="#191970" d="M699.4909,-405.3973C749.5102,-392.4078 827.9526,-372.0371 873.9042,-360.1039"/>
<polygon fill="#191970" stroke="#191970" points="698.3767,-402.0705 689.5775,-407.9717 700.1363,-408.8457 698.3767,-402.0705"/>
</g>
<!-- Node44&#45;&gt;Node18 -->
<g id="edge63" class="edge">
<title>Node44&#45;&gt;Node18</title>
<path fill="none" stroke="#191970" d="M967.629,-338.8769C974.122,-337.5619 980.6471,-336.2471 986.8864,-335 1049.7341,-322.4381 1121.0949,-308.4838 1173.6107,-298.2727"/>
<polygon fill="#191970" stroke="#191970" points="966.6017,-335.5139 957.4981,-340.9337 967.9946,-342.374 966.6017,-335.5139"/>
</g>
<!-- Node44&#45;&gt;Node21 -->
<g id="edge68" class="edge">
<title>Node44&#45;&gt;Node21</title>
<path fill="none" stroke="#191970" d="M926.1472,-333.3352C945.7407,-311.6999 979.0915,-276.3221 994.8864,-268 1157.4886,-182.3275 1723.2802,-157.6443 1929.7356,-151.4"/>
<polygon fill="#191970" stroke="#191970" points="923.4575,-331.0918 919.3766,-340.8692 928.6641,-335.7708 923.4575,-331.0918"/>
</g>
<!-- Node44&#45;&gt;Node23 -->
<g id="edge67" class="edge">
<title>Node44&#45;&gt;Node23</title>
<path fill="none" stroke="#191970" d="M962.0562,-339.0468C970.3252,-337.4899 978.8188,-336.0644 986.8864,-335 1267.3261,-298.0011 1603.9561,-287.5128 1751.8725,-284.5955"/>
<polygon fill="#191970" stroke="#191970" points="961.2638,-335.6355 952.125,-340.9956 962.6118,-342.5045 961.2638,-335.6355"/>
</g>
<!-- Node44&#45;&gt;Node24 -->
<g id="edge66" class="edge">
<title>Node44&#45;&gt;Node24</title>
<path fill="none" stroke="#191970" d="M944.5111,-337.1695C972.6361,-326.0194 1012.7398,-310.1203 1041.9957,-298.5218"/>
<polygon fill="#191970" stroke="#191970" points="943.1062,-333.9614 935.1,-340.9005 945.686,-340.4687 943.1062,-333.9614"/>
</g>
<!-- Node44&#45;&gt;Node63 -->
<g id="edge64" class="edge">
<title>Node44&#45;&gt;Node63</title>
<path fill="none" stroke="#191970" d="M961.1742,-339.0501C969.7161,-337.4487 978.5265,-336.0082 986.8864,-335 1395.7899,-285.6852 1501.5049,-318.9805 1912.8864,-299 1976.8795,-295.8919 2049.4878,-291.61 2102.6586,-288.3342"/>
<polygon fill="#191970" stroke="#191970" points="960.4505,-335.6253 951.313,-340.9877 961.8002,-342.494 960.4505,-335.6253"/>
</g>
<!-- Node44&#45;&gt;Node64 -->
<g id="edge65" class="edge">
<title>Node44&#45;&gt;Node64</title>
<path fill="none" stroke="#191970" d="M900.1645,-332.0804C894.0212,-321.5264 886.4089,-308.4489 880.6304,-298.5218"/>
<polygon fill="#191970" stroke="#191970" points="897.2431,-334.0188 905.2987,-340.9005 903.2928,-330.4973 897.2431,-334.0188"/>
</g>
<!-- Node44&#45;&gt;Node48 -->
<g id="edge61" class="edge">
<title>Node44&#45;&gt;Node48</title>
<path fill="none" stroke="#191970" d="M858.6727,-338.7211C801.1675,-325.7486 709.7984,-305.1367 656.459,-293.1039"/>
<polygon fill="#191970" stroke="#191970" points="858.1239,-342.1852 868.649,-340.9717 859.6643,-335.3568 858.1239,-342.1852"/>
</g>
<!-- Node48&#45;&gt;Node49 -->
<g id="edge62" class="edge">
<title>Node48&#45;&gt;Node49</title>
<path fill="none" stroke="#191970" d="M608.0614,-263.9863C604.3427,-251.5286 599.6852,-235.9258 596.7466,-226.0817"/>
<polygon fill="#191970" stroke="#191970" points="604.8067,-265.3195 611.0209,-273.9005 611.5143,-263.3172 604.8067,-265.3195"/>
</g>
<!-- Node196&#45;&gt;Node44 -->
<g id="edge70" class="edge">
<title>Node196&#45;&gt;Node44</title>
<path fill="none" stroke="#191970" d="M1052.0769,-404.2487C1017.8648,-391.2247 966.4863,-371.6659 936.0562,-360.0817"/>
<polygon fill="#191970" stroke="#191970" points="1051.079,-407.6137 1061.6699,-407.9005 1053.5694,-401.0717 1051.079,-407.6137"/>
</g>
<!-- Node201 -->
<g id="node31" class="node">
<title>Node201</title>
<g id="a_node31"><a xlink:href="tir_2function_8h.html" target="_top" xlink:title="TIR Function. ">
<polygon fill="#ffffff" stroke="#ff0000" points="995.8864,-341 995.8864,-360 1135.8864,-360 1135.8864,-341 995.8864,-341"/>
<text text-anchor="middle" x="1065.8864" y="-348" font-family="Helvetica,sans-Serif" font-size="10.00" fill="#000000">include/tvm/tir/function.h</text>
</a>
</g>
</g>
<!-- Node196&#45;&gt;Node201 -->
<g id="edge71" class="edge">
<title>Node196&#45;&gt;Node201</title>
<path fill="none" stroke="#191970" d="M1080.7702,-397.9863C1076.8655,-385.5286 1071.9751,-369.9258 1068.8896,-360.0817"/>
<polygon fill="#191970" stroke="#191970" points="1077.5469,-399.4051 1083.8776,-407.9005 1084.2265,-397.3114 1077.5469,-399.4051"/>
</g>
<!-- Node232&#45;&gt;Node43 -->
<g id="edge75" class="edge">
<title>Node232&#45;&gt;Node43</title>
<path fill="none" stroke="#191970" d="M657.105,-464.6079C655.9951,-452.214 654.6171,-436.8263 653.7445,-427.0817"/>
<polygon fill="#191970" stroke="#191970" points="653.6487,-465.2526 658.0268,-474.9005 660.6208,-464.6282 653.6487,-465.2526"/>
</g>
<!-- Node232&#45;&gt;Node44 -->
<g id="edge76" class="edge">
<title>Node232&#45;&gt;Node44</title>
<path fill="none" stroke="#191970" d="M677.6851,-467.9656C702.0325,-446.7896 743.4166,-411.6669 760.8864,-402 796.0599,-382.5368 839.902,-368.5231 871.0848,-360.0736"/>
<polygon fill="#191970" stroke="#191970" points="675.0791,-465.5947 669.8507,-474.8096 679.6844,-470.8664 675.0791,-465.5947"/>
</g>
<!-- Node95&#45;&gt;Node113 -->
<g id="edge94" class="edge">
<title>Node95&#45;&gt;Node113</title>
<path fill="none" stroke="#191970" d="M371.8776,-336.7289C347.6344,-325.6035 313.5637,-309.9683 288.6204,-298.5218"/>
<polygon fill="#191970" stroke="#191970" points="370.4197,-339.9107 380.9682,-340.9005 373.3393,-333.5486 370.4197,-339.9107"/>
</g>
<!-- Node95&#45;&gt;Node49 -->
<g id="edge96" class="edge">
<title>Node95&#45;&gt;Node49</title>
<path fill="none" stroke="#191970" d="M430.7273,-336.3275C449.5276,-326.6583 474.3008,-313.0904 494.8864,-299 499.502,-295.8407 557.3305,-247.2638 582.4097,-226.1626"/>
<polygon fill="#191970" stroke="#191970" points="429.0928,-333.232 421.7589,-340.8782 432.2603,-339.4744 429.0928,-333.232"/>
</g>
<!-- Node95&#45;&gt;Node108 -->
<g id="edge95" class="edge">
<title>Node95&#45;&gt;Node108</title>
<path fill="none" stroke="#191970" d="M406.2288,-331.1042C408.5516,-320.7287 411.3689,-308.145 413.5233,-298.5218"/>
<polygon fill="#191970" stroke="#191970" points="402.8049,-330.3774 404.0356,-340.9005 409.6358,-331.9068 402.8049,-330.3774"/>
</g>
<!-- Node245&#45;&gt;Node18 -->
<g id="edge101" class="edge">
<title>Node245&#45;&gt;Node18</title>
<path fill="none" stroke="#191970" d="M2126.0565,-466.2623C2101.5303,-457.806 2073.5821,-446.5905 2049.8864,-433 2030.9795,-422.1561 2031.6226,-411.2491 2011.8864,-402 1936.0378,-366.4545 1908.0918,-386.5472 1826.8864,-366 1782.1884,-354.6902 1773.024,-344.4036 1727.8864,-335 1587.7504,-305.8053 1420.8506,-292.614 1325.9387,-287.0865"/>
<polygon fill="#191970" stroke="#191970" points="2125.0307,-469.6099 2135.6248,-469.4831 2127.2639,-462.9756 2125.0307,-469.6099"/>
</g>
<!-- Node245&#45;&gt;Node19 -->
<g id="edge105" class="edge">
<title>Node245&#45;&gt;Node19</title>
<path fill="none" stroke="#191970" d="M2256.096,-468.9553C2374.5274,-449.4763 2416.1164,-482.8803 2520.8864,-433 2539.0554,-424.3499 2535.6526,-410.5128 2553.8864,-402 2614.7273,-373.5952 2805.7306,-412.7917 2853.8864,-366 2928.1993,-293.7921 2909.1868,-201.8634 2830.8864,-134 2807.9944,-114.1594 2777.301,-101.9305 2749.0568,-94.4071"/>
<polygon fill="#191970" stroke="#191970" points="2255.1739,-465.5631 2245.9225,-470.7266 2256.3746,-472.4594 2255.1739,-465.5631"/>
</g>
<!-- Node245&#45;&gt;Node20 -->
<g id="edge112" class="edge">
<title>Node245&#45;&gt;Node20</title>
<path fill="none" stroke="#191970" d="M2256.1872,-468.9569C2484.4407,-435.6935 2546.6291,-461.6549 2771.8864,-433 2846.7731,-423.4737 2863.996,-411.4965 2938.8864,-402 2996.6723,-394.6724 3414.6253,-400.0483 3461.8864,-366 3494.0641,-342.8183 3495.8864,-323.1584 3495.8864,-283.5 3495.8864,-283.5 3495.8864,-283.5 3495.8864,-149.5 3495.8864,-126.8258 3598.555,-139.9302 3342.8864,-67 3233.2231,-35.7182 2900.3129,-22.18 2749.0856,-17.5281"/>
<polygon fill="#191970" stroke="#191970" points="2255.628,-465.5014 2246.2479,-470.4272 2256.6525,-472.4261 2255.628,-465.5014"/>
</g>
<!-- Node245&#45;&gt;Node21 -->
<g id="edge113" class="edge">
<title>Node245&#45;&gt;Node21</title>
<path fill="none" stroke="#191970" d="M2174.6377,-460.1136C2139.2315,-394.9428 2043.1428,-218.0764 2014.2282,-164.8544"/>
<polygon fill="#191970" stroke="#191970" points="2171.744,-462.1191 2179.5933,-469.2352 2177.8949,-458.7774 2171.744,-462.1191"/>
</g>
<!-- Node245&#45;&gt;Node22 -->
<g id="edge106" class="edge">
<title>Node245&#45;&gt;Node22</title>
<path fill="none" stroke="#191970" d="M2165.9646,-462.2782C2146.8098,-443.9336 2117.5011,-418.3455 2087.8864,-402 2058.9211,-386.0129 2024.1754,-373.94 1994.8349,-365.5166"/>
<polygon fill="#191970" stroke="#191970" points="2163.6734,-464.9325 2173.278,-469.4051 2168.5589,-459.9192 2163.6734,-464.9325"/>
</g>
<!-- Node245&#45;&gt;Node23 -->
<g id="edge111" class="edge">
<title>Node245&#45;&gt;Node23</title>
<path fill="none" stroke="#191970" d="M2145.2891,-465.0104C2127.1137,-456.0774 2105.9701,-444.8462 2087.8864,-433 2069.6542,-421.0565 2069.699,-411.0842 2049.8864,-402 1966.5943,-363.8101 1913.3045,-429.1244 1846.8864,-366 1828.562,-348.5843 1826.2841,-317.3291 1826.7622,-298.693"/>
<polygon fill="#191970" stroke="#191970" points="2143.9652,-468.2579 2154.4913,-469.4633 2147.0143,-461.9569 2143.9652,-468.2579"/>
</g>
<!-- Node245&#45;&gt;Node24 -->
<g id="edge107" class="edge">
<title>Node245&#45;&gt;Node24</title>
<path fill="none" stroke="#191970" d="M2119.6114,-477.2168C2075.9035,-470.4023 2019.1176,-457.4264 1973.8864,-433 1956.1803,-423.4381 1959.2586,-410.2098 1940.8864,-402 1856.1701,-364.1435 1616.8344,-378.4719 1524.8864,-366 1391.1611,-347.8614 1236.5714,-316.9275 1149.3035,-298.5312"/>
<polygon fill="#191970" stroke="#191970" points="2119.1692,-480.6895 2129.5755,-478.6996 2120.1996,-473.7657 2119.1692,-480.6895"/>
</g>
<!-- Node245&#45;&gt;Node25 -->
<g id="edge108" class="edge">
<title>Node245&#45;&gt;Node25</title>
<path fill="none" stroke="#191970" d="M2255.9207,-468.9738C2430.2436,-441.5609 2477.4657,-452.9515 2648.8864,-433 2746.5309,-421.6352 2770.2866,-413.7422 2867.8864,-402 3028.8505,-382.6345 3069.7793,-384.1366 3230.8864,-366 3246.0719,-364.2905 3262.2952,-362.337 3277.8128,-360.4063"/>
<polygon fill="#191970" stroke="#191970" points="2255.2206,-465.5411 2245.8957,-470.5706 2256.3218,-472.4539 2255.2206,-465.5411"/>
</g>
<!-- Node245&#45;&gt;Node26 -->
<g id="edge102" class="edge">
<title>Node245&#45;&gt;Node26</title>
<path fill="none" stroke="#191970" d="M2256.0557,-468.9707C2388.9186,-447.7562 2433.7185,-484.0982 2553.8864,-433 2573.9443,-424.4709 2571.8029,-410.4685 2591.8864,-402 2721.7268,-347.2507 2779.525,-426.2915 2906.8864,-366 2939.2284,-350.6897 2966.8734,-318.0789 2981.2652,-298.7584"/>
<polygon fill="#191970" stroke="#191970" points="2255.1954,-465.5661 2245.913,-470.6738 2256.3546,-472.4695 2255.1954,-465.5661"/>
</g>
<!-- Node245&#45;&gt;Node27 -->
<g id="edge110" class="edge">
<title>Node245&#45;&gt;Node27</title>
<path fill="none" stroke="#191970" d="M2197.9489,-459.9225C2217.8802,-414.4669 2266.8615,-317.4057 2339.8864,-268 2363.0974,-252.2964 2429.0993,-238.0161 2482.6263,-228.4976"/>
<polygon fill="#191970" stroke="#191970" points="2194.6491,-458.7373 2193.9274,-469.3075 2201.0832,-461.4944 2194.6491,-458.7373"/>
</g>
<!-- Node245&#45;&gt;Node28 -->
<g id="edge109" class="edge">
<title>Node245&#45;&gt;Node28</title>
<path fill="none" stroke="#191970" d="M2119.843,-467.9149C2089.1836,-459.3049 2052.9675,-447.5237 2021.8864,-433 1998.8788,-422.2489 1997.6809,-410.8748 1973.8864,-402 1960.5436,-397.0234 1788.8385,-373.9486 1686.0992,-360.4336"/>
<polygon fill="#191970" stroke="#191970" points="2119.0181,-471.3179 2129.5885,-470.5983 2120.8765,-464.5691 2119.0181,-471.3179"/>
</g>
<!-- Node245&#45;&gt;Node236 -->
<g id="edge114" class="edge">
<title>Node245&#45;&gt;Node236</title>
<path fill="none" stroke="#191970" d="M2252.5884,-466.806C2299.2309,-454.0507 2360.3771,-437.3291 2398.1283,-427.0053"/>
<polygon fill="#191970" stroke="#191970" points="2251.5918,-463.4499 2242.8692,-469.4639 2253.4383,-470.202 2251.5918,-463.4499"/>
</g>
<!-- Node245&#45;&gt;Node63 -->
<g id="edge103" class="edge">
<title>Node245&#45;&gt;Node63</title>
<path fill="none" stroke="#191970" d="M2186.7602,-459.348C2184.8643,-417.0061 2181.0923,-332.7637 2179.5585,-298.5088"/>
<polygon fill="#191970" stroke="#191970" points="2183.2661,-459.5589 2187.21,-469.3923 2190.259,-459.2457 2183.2661,-459.5589"/>
</g>
<!-- Node245&#45;&gt;Node180 -->
<g id="edge104" class="edge">
<title>Node245&#45;&gt;Node180</title>
<path fill="none" stroke="#191970" d="M2228.3579,-464.4226C2244.4058,-455.6877 2262.6314,-444.7612 2277.8864,-433 2333.235,-390.328 2388.2482,-327.5702 2412.2955,-298.8584"/>
<polygon fill="#191970" stroke="#191970" points="2226.3794,-461.5109 2219.1997,-469.3021 2229.6709,-467.6887 2226.3794,-461.5109"/>
</g>
<!-- Node246 -->
<g id="node37" class="node">
<title>Node246</title>
<g id="a_node37"><a xlink:href="device__api_8h.html" target="_top" xlink:title="Abstract device memory management API. ">
<polygon fill="#ffffff" stroke="#ff0000" points="2947.8864,-402.5 2947.8864,-432.5 3063.8864,-432.5 3063.8864,-402.5 2947.8864,-402.5"/>
<text text-anchor="start" x="2955.8864" y="-420.5" font-family="Helvetica,sans-Serif" font-size="10.00" fill="#000000">include/tvm/runtime</text>
<text text-anchor="middle" x="3005.8864" y="-409.5" font-family="Helvetica,sans-Serif" font-size="10.00" fill="#000000">/device_api.h</text>
</a>
</g>
</g>
<!-- Node245&#45;&gt;Node246 -->
<g id="edge115" class="edge">
<title>Node245&#45;&gt;Node246</title>
<path fill="none" stroke="#191970" d="M2256.3873,-468.9451C2539.1396,-429.4434 2615.2467,-460.6039 2895.8864,-433 2912.7765,-431.3387 2931.0527,-428.988 2947.7662,-426.6181"/>
<polygon fill="#191970" stroke="#191970" points="2255.6522,-465.5142 2246.2411,-470.3804 2256.6327,-472.4452 2255.6522,-465.5142"/>
</g>
<!-- Node247 -->
<g id="node38" class="node">
<title>Node247</title>
<g id="a_node38"><a xlink:href="profiling_8h.html" target="_top" xlink:title="Runtime profiling including timers. ">
<polygon fill="#ffffff" stroke="#000000" points="3105.8864,-335.5 3105.8864,-365.5 3221.8864,-365.5 3221.8864,-335.5 3105.8864,-335.5"/>
<text text-anchor="start" x="3113.8864" y="-353.5" font-family="Helvetica,sans-Serif" font-size="10.00" fill="#000000">include/tvm/runtime</text>
<text text-anchor="middle" x="3163.8864" y="-342.5" font-family="Helvetica,sans-Serif" font-size="10.00" fill="#000000">/profiling.h</text>
</a>
</g>
</g>
<!-- Node245&#45;&gt;Node247 -->
<g id="edge118" class="edge">
<title>Node245&#45;&gt;Node247</title>
<path fill="none" stroke="#191970" d="M2255.8991,-468.9756C2405.2627,-444.9327 2448.2472,-466.0561 2591.8864,-433 2631.4811,-423.888 2638.2879,-411.0952 2677.8864,-402 2718.7167,-392.6219 2985.8085,-367.0617 3105.7458,-355.8696"/>
<polygon fill="#191970" stroke="#191970" points="2255.201,-465.5434 2245.9048,-470.6257 2256.3413,-472.4499 2255.201,-465.5434"/>
</g>
<!-- Node250 -->
<g id="node39" class="node">
<title>Node250</title>
<g id="a_node39"><a xlink:href="vm_2executable_8h.html" target="_top" xlink:title="The Relay virtual machine executable. ">
<polygon fill="#ffffff" stroke="#ff0000" points="1815.8864,-402.5 1815.8864,-432.5 1931.8864,-432.5 1931.8864,-402.5 1815.8864,-402.5"/>
<text text-anchor="start" x="1823.8864" y="-420.5" font-family="Helvetica,sans-Serif" font-size="10.00" fill="#000000">include/tvm/runtime</text>
<text text-anchor="middle" x="1873.8864" y="-409.5" font-family="Helvetica,sans-Serif" font-size="10.00" fill="#000000">/vm/executable.h</text>
</a>
</g>
</g>
<!-- Node245&#45;&gt;Node250 -->
<g id="edge119" class="edge">
<title>Node245&#45;&gt;Node250</title>
<path fill="none" stroke="#191970" d="M2119.6287,-470.0189C2071.1451,-459.7221 2004.5114,-445.5483 1945.8864,-433 1941.3853,-432.0366 1936.7263,-431.0376 1932.0428,-430.0321"/>
<polygon fill="#191970" stroke="#191970" points="2119.1807,-473.5018 2129.6896,-472.1554 2120.6348,-466.6545 2119.1807,-473.5018"/>
</g>
<!-- Node246&#45;&gt;Node247 -->
<g id="edge116" class="edge">
<title>Node246&#45;&gt;Node247</title>
<path fill="none" stroke="#191970" d="M3050.8066,-398.4516C3075.3612,-388.0392 3105.35,-375.3224 3128.2735,-365.6017"/>
<polygon fill="#191970" stroke="#191970" points="3049.1847,-395.3376 3041.3447,-402.4639 3051.9176,-401.7821 3049.1847,-395.3376"/>
</g>
<!-- Node247&#45;&gt;Node242 -->
<g id="edge117" class="edge">
<title>Node247&#45;&gt;Node242</title>
<path fill="none" stroke="#191970" d="M3156.4567,-325.6103C3153.7537,-316.5553 3150.7819,-306.5998 3148.4068,-298.6432"/>
<polygon fill="#191970" stroke="#191970" points="3153.1339,-326.7156 3159.3481,-335.2967 3159.8415,-324.7133 3153.1339,-326.7156"/>
</g>
<!-- Node221&#45;&gt;Node201 -->
<g id="edge124" class="edge">
<title>Node221&#45;&gt;Node201</title>
<path fill="none" stroke="#191970" d="M897.762,-469.072C937.3736,-441.1354 1019.8812,-382.9458 1052.3459,-360.0496"/>
<polygon fill="#191970" stroke="#191970" points="895.7056,-466.2393 889.5508,-474.8631 899.7401,-471.9598 895.7056,-466.2393"/>
</g>
<!-- Node221&#45;&gt;Node222 -->
<g id="edge121" class="edge">
<title>Node221&#45;&gt;Node222</title>
<path fill="none" stroke="#191970" d="M872.3914,-464.9863C870.1602,-452.5286 867.3657,-436.9258 865.6025,-427.0817"/>
<polygon fill="#191970" stroke="#191970" points="868.9589,-465.6742 874.1671,-474.9005 875.8492,-464.4401 868.9589,-465.6742"/>
</g>
<!-- Node222&#45;&gt;Node201 -->
<g id="edge123" class="edge">
<title>Node222&#45;&gt;Node201</title>
<path fill="none" stroke="#191970" d="M902.3314,-404.7484C941.5819,-391.7297 1001.6232,-371.815 1036.9984,-360.0817"/>
<polygon fill="#191970" stroke="#191970" points="901.2177,-401.4303 892.8281,-407.9005 903.4215,-408.0743 901.2177,-401.4303"/>
</g>
<!-- Node222&#45;&gt;Node95 -->
<g id="edge122" class="edge">
<title>Node222&#45;&gt;Node95</title>
<path fill="none" stroke="#191970" d="M793.0525,-407.2275C704.4553,-394.379 553.9528,-372.5529 467.7485,-360.0514"/>
<polygon fill="#191970" stroke="#191970" points="792.6141,-410.7005 803.0129,-408.672 793.6188,-403.773 792.6141,-410.7005"/>
</g>
<!-- Node255&#45;&gt;Node18 -->
<g id="edge130" class="edge">
<title>Node255&#45;&gt;Node18</title>
<path fill="none" stroke="#191970" d="M1583.3385,-530.3651C1512.7058,-478.0735 1331.0927,-343.6196 1270.1615,-298.5103"/>
<polygon fill="#191970" stroke="#191970" points="1581.2668,-533.1861 1591.3865,-536.3233 1585.4319,-527.5601 1581.2668,-533.1861"/>
</g>
<!-- Node255&#45;&gt;Node21 -->
<g id="edge132" class="edge">
<title>Node255&#45;&gt;Node21</title>
<path fill="none" stroke="#191970" d="M1589.55,-529.1696C1551.2179,-488.0798 1481.0721,-398.8568 1524.8864,-335 1573.8775,-263.5983 1823.6144,-194.1554 1942.6362,-164.5036"/>
<polygon fill="#191970" stroke="#191970" points="1587.095,-531.6669 1596.5259,-536.4947 1592.1641,-526.8394 1587.095,-531.6669"/>
</g>
<!-- Node255&#45;&gt;Node28 -->
<g id="edge131" class="edge">
<title>Node255&#45;&gt;Node28</title>
<path fill="none" stroke="#191970" d="M1657.1424,-531.0543C1669.3364,-523.1896 1681.0361,-512.917 1687.8864,-500 1694.3417,-487.828 1691.8403,-482.1983 1687.8864,-469 1675.4465,-427.4751 1643.2443,-387.0372 1624.3327,-365.8186"/>
<polygon fill="#191970" stroke="#191970" points="1655.0378,-528.234 1648.2381,-536.3589 1658.6205,-534.2477 1655.0378,-528.234"/>
</g>
<!-- Node255&#45;&gt;Node44 -->
<g id="edge129" class="edge">
<title>Node255&#45;&gt;Node44</title>
<path fill="none" stroke="#191970" d="M1543.5529,-543.0531C1481.5195,-534.6473 1387.7962,-520.0991 1307.8864,-500 1266.042,-489.4752 1257.7034,-479.6335 1215.8864,-469 1125.81,-446.0948 1094.2178,-472.0723 1009.8864,-433 970.9102,-414.9416 934.7108,-377.5646 919.0471,-360.0047"/>
<polygon fill="#191970" stroke="#191970" points="1543.2346,-546.5416 1553.6107,-544.3998 1544.1636,-539.6036 1543.2346,-546.5416"/>
</g>
<!-- Node255&#45;&gt;Node196 -->
<g id="edge128" class="edge">
<title>Node255&#45;&gt;Node196</title>
<path fill="none" stroke="#191970" d="M1548.8528,-533.6815C1487.4917,-516.5046 1391.5211,-490.0859 1307.8864,-469 1246.1924,-453.4457 1174.3845,-437.0204 1129.7768,-427.0134"/>
<polygon fill="#191970" stroke="#191970" points="1548.1973,-537.1326 1558.7709,-536.4618 1550.0868,-530.3925 1548.1973,-537.1326"/>
</g>
<!-- Node255&#45;&gt;Node95 -->
<g id="edge133" class="edge">
<title>Node255&#45;&gt;Node95</title>
<path fill="none" stroke="#191970" d="M1543.645,-548.6157C1318.642,-539.0345 613.2156,-508.4 590.8864,-500 508.6554,-469.0654 434.1542,-388.2824 410.0353,-360.2499"/>
<polygon fill="#191970" stroke="#191970" points="1543.535,-552.1141 1553.6747,-549.0424 1543.8326,-545.1204 1543.535,-552.1141"/>
</g>
<!-- Node255&#45;&gt;Node242 -->
<g id="edge134" class="edge">
<title>Node255&#45;&gt;Node242</title>
<path fill="none" stroke="#191970" d="M1680.2535,-550.4157C1864.9519,-547.0511 2370.9808,-534.8343 2533.8864,-500 2571.5807,-491.9398 2577.7332,-479.2696 2614.8864,-469 2704.0483,-444.3547 2729.7407,-453.7603 2819.8864,-433 2846.2413,-426.9305 3030.2886,-379.2122 3053.8864,-366 3085.6975,-348.1892 3115.3899,-317.0699 3131.4505,-298.5654"/>
<polygon fill="#191970" stroke="#191970" points="1680.0628,-546.9185 1670.1271,-550.5972 1680.1882,-553.9174 1680.0628,-546.9185"/>
</g>
<!-- Node255&#45;&gt;Node245 -->
<g id="edge135" class="edge">
<title>Node255&#45;&gt;Node245</title>
<path fill="none" stroke="#191970" d="M1680.0468,-543.5716C1794.3053,-530.2811 2022.4837,-503.7395 2129.6955,-491.2687"/>
<polygon fill="#191970" stroke="#191970" points="1679.5478,-540.106 1670.0192,-544.738 1680.3567,-547.0591 1679.5478,-540.106"/>
</g>
<!-- Node255&#45;&gt;Node247 -->
<g id="edge136" class="edge">
<title>Node255&#45;&gt;Node247</title>
<path fill="none" stroke="#191970" d="M1680.3192,-549.794C1945.687,-543.0603 2895.1289,-517.8271 2956.8864,-500 3041.8557,-475.4725 3120.1043,-398.3815 3150.5048,-365.5478"/>
<polygon fill="#191970" stroke="#191970" points="1679.9617,-546.3018 1670.0535,-550.0539 1680.1389,-553.2996 1679.9617,-546.3018"/>
</g>
<!-- Node255&#45;&gt;Node250 -->
<g id="edge137" class="edge">
<title>Node255&#45;&gt;Node250</title>
<path fill="none" stroke="#191970" d="M1656.5787,-532.353C1677.7794,-523.0057 1703.3457,-511.3487 1725.8864,-500 1769.6337,-477.9745 1819.0805,-449.7012 1848.3076,-432.6241"/>
<polygon fill="#191970" stroke="#191970" points="1654.9257,-529.256 1647.1716,-536.4757 1657.7356,-535.6673 1654.9257,-529.256"/>
</g>
<!-- Node255&#45;&gt;Node222 -->
<g id="edge138" class="edge">
<title>Node255&#45;&gt;Node222</title>
<path fill="none" stroke="#191970" d="M1543.5506,-541.7368C1476.3333,-531.9363 1370.8594,-516.0303 1279.8864,-500 1209.8406,-487.6572 1192.6761,-482.7173 1122.8864,-469 1041.1225,-452.9291 1020.5784,-449.4326 938.8864,-433 929.3709,-431.0859 919.1837,-429.0031 909.4816,-427.0034"/>
<polygon fill="#191970" stroke="#191970" points="1543.1932,-545.2216 1553.5928,-543.1971 1544.2005,-538.2944 1543.1932,-545.2216"/>
</g>
<!-- Node256&#45;&gt;Node18 -->
<g id="edge141" class="edge">
<title>Node256&#45;&gt;Node18</title>
<path fill="none" stroke="#191970" d="M2983.4182,-549.0919C2797.7932,-542.343 2287.7144,-522.2761 2120.8864,-500 1979.4446,-481.1137 1934.9522,-495.9415 1806.8864,-433 1765.5688,-412.6933 1762.2304,-396.6593 1727.8864,-366 1712.8748,-352.5989 1713.1381,-343.4744 1694.8864,-335 1631.136,-305.4002 1435.5698,-291.9251 1326.1065,-286.5608"/>
<polygon fill="#191970" stroke="#191970" points="2983.4737,-552.5961 2993.5938,-549.4603 2983.727,-545.6007 2983.4737,-552.5961"/>
</g>
<!-- Node256&#45;&gt;Node236 -->
<g id="edge143" class="edge">
<title>Node256&#45;&gt;Node236</title>
<path fill="none" stroke="#191970" d="M3033.3103,-528.9079C3015.817,-509.3875 2987.7463,-482.2855 2956.8864,-469 2879.0131,-435.4746 2638.8645,-423.4943 2512.501,-419.4384"/>
<polygon fill="#191970" stroke="#191970" points="3030.7089,-531.2501 3039.9181,-536.4886 3035.9857,-526.6505 3030.7089,-531.2501"/>
</g>
<!-- Node256&#45;&gt;Node180 -->
<g id="edge142" class="edge">
<title>Node256&#45;&gt;Node180</title>
<path fill="none" stroke="#191970" d="M3040.2101,-527.4078C3030.0927,-508.9264 3013.7961,-484.0987 2992.8864,-469 2867.634,-378.5562 2797.4753,-438.1923 2660.8864,-366 2641.3104,-355.6534 2641.6908,-344.9023 2621.8864,-335 2584.1022,-316.1077 2538.6669,-303.6313 2500.9567,-295.6976"/>
<polygon fill="#191970" stroke="#191970" points="3037.186,-529.1774 3044.9293,-536.4087 3043.3855,-525.927 3037.186,-529.1774"/>
</g>
<!-- Node256&#45;&gt;Node201 -->
<g id="edge154" class="edge">
<title>Node256&#45;&gt;Node201</title>
<path fill="none" stroke="#191970" d="M2983.6819,-549.886C2763.3336,-544.4656 2071.9926,-525.7956 1849.8864,-500 1561.1897,-466.4705 1219.264,-387.5238 1105.1396,-360.0925"/>
<polygon fill="#191970" stroke="#191970" points="2983.7322,-553.3881 2993.8149,-550.134 2983.9036,-546.3902 2983.7322,-553.3881"/>
</g>
<!-- Node256&#45;&gt;Node243 -->
<g id="edge148" class="edge">
<title>Node256&#45;&gt;Node243</title>
<path fill="none" stroke="#191970" d="M2983.6303,-539.1401C2913.6891,-526.4751 2806.1037,-506.9934 2740.0713,-495.0362"/>
<polygon fill="#191970" stroke="#191970" points="2983.2033,-542.6196 2993.6669,-540.9575 2984.4506,-535.7316 2983.2033,-542.6196"/>
</g>
<!-- Node256&#45;&gt;Node245 -->
<g id="edge149" class="edge">
<title>Node256&#45;&gt;Node245</title>
<path fill="none" stroke="#191970" d="M2983.5634,-548.5185C2817.2406,-541.0294 2394.7146,-520.552 2254.8864,-500 2252.0515,-499.5833 2249.1592,-499.1085 2246.2453,-498.5902"/>
<polygon fill="#191970" stroke="#191970" points="2983.5217,-552.0201 2993.6685,-548.9717 2983.8354,-545.0271 2983.5217,-552.0201"/>
</g>
<!-- Node256&#45;&gt;Node246 -->
<g id="edge147" class="edge">
<title>Node256&#45;&gt;Node246</title>
<path fill="none" stroke="#191970" d="M3063.4741,-526.4898C3069.5714,-509.5937 3074.2252,-487.1468 3065.8864,-469 3058.8935,-453.7821 3044.939,-441.3725 3032.2463,-432.5507"/>
<polygon fill="#191970" stroke="#191970" points="3060.0529,-525.6197 3059.5945,-536.2046 3066.5537,-528.2159 3060.0529,-525.6197"/>
</g>
<!-- Node40 -->
<g id="node45" class="node">
<title>Node40</title>
<g id="a_node45"><a xlink:href="search__task_8h.html" target="_top" xlink:title="Meta information and hardware parameters for a search task. ">
<polygon fill="#ffffff" stroke="#ff0000" points="3726.8864,-469.5 3726.8864,-499.5 3878.8864,-499.5 3878.8864,-469.5 3726.8864,-469.5"/>
<text text-anchor="start" x="3734.8864" y="-487.5" font-family="Helvetica,sans-Serif" font-size="10.00" fill="#000000">include/tvm/auto_scheduler</text>
<text text-anchor="middle" x="3802.8864" y="-476.5" font-family="Helvetica,sans-Serif" font-size="10.00" fill="#000000">/search_task.h</text>
</a>
</g>
</g>
<!-- Node256&#45;&gt;Node40 -->
<g id="edge140" class="edge">
<title>Node256&#45;&gt;Node40</title>
<path fill="none" stroke="#191970" d="M3120.213,-548.5469C3241.1208,-542.8024 3500.5271,-528.1456 3717.8864,-500 3720.7129,-499.634 3723.588,-499.237 3726.489,-498.8155"/>
<polygon fill="#191970" stroke="#191970" points="3119.8234,-545.0612 3109.9986,-549.0266 3120.1518,-552.0535 3119.8234,-545.0612"/>
</g>
<!-- Node257 -->
<g id="node46" class="node">
<title>Node257</title>
<g id="a_node46"><a xlink:href="structural__hash_8h.html" target="_top" xlink:title="Structural hash class. ">
<polygon fill="#ffffff" stroke="#ff0000" points="2796.3864,-469.5 2796.3864,-499.5 2947.3864,-499.5 2947.3864,-469.5 2796.3864,-469.5"/>
<text text-anchor="start" x="2804.3864" y="-487.5" font-family="Helvetica,sans-Serif" font-size="10.00" fill="#000000">include/tvm/node/structural</text>
<text text-anchor="middle" x="2871.8864" y="-476.5" font-family="Helvetica,sans-Serif" font-size="10.00" fill="#000000">_hash.h</text>
</a>
</g>
</g>
<!-- Node256&#45;&gt;Node257 -->
<g id="edge144" class="edge">
<title>Node256&#45;&gt;Node257</title>
<path fill="none" stroke="#191970" d="M3001.8222,-532.865C2973.6464,-522.3773 2938.9202,-509.4515 2912.4581,-499.6017"/>
<polygon fill="#191970" stroke="#191970" points="3000.8981,-536.2556 3011.4909,-536.4639 3003.34,-529.6953 3000.8981,-536.2556"/>
</g>
<!-- Node258 -->
<g id="node47" class="node">
<title>Node258</title>
<g id="a_node47"><a xlink:href="runtime_2debug_8h.html" target="_top" xlink:title="Helpers for debugging at runtime. ">
<polygon fill="#ffffff" stroke="#000000" points="3117.8864,-469.5 3117.8864,-499.5 3233.8864,-499.5 3233.8864,-469.5 3117.8864,-469.5"/>
<text text-anchor="start" x="3125.8864" y="-487.5" font-family="Helvetica,sans-Serif" font-size="10.00" fill="#000000">include/tvm/runtime</text>
<text text-anchor="middle" x="3175.8864" y="-476.5" font-family="Helvetica,sans-Serif" font-size="10.00" fill="#000000">/debug.h</text>
</a>
</g>
</g>
<!-- Node256&#45;&gt;Node258 -->
<g id="edge146" class="edge">
<title>Node256&#45;&gt;Node258</title>
<path fill="none" stroke="#191970" d="M3088.6512,-531.6352C3107.5531,-521.422 3130.2281,-509.1702 3147.7223,-499.7177"/>
<polygon fill="#191970" stroke="#191970" points="3086.8485,-528.6309 3079.7144,-536.4639 3090.1761,-534.7894 3086.8485,-528.6309"/>
</g>
<!-- Node259 -->
<g id="node48" class="node">
<title>Node259</title>
<g id="a_node48"><a xlink:href="relax__vm_2memory__manager_8h.html" target="_top" xlink:title="Abstract device memory management API. ">
<polygon fill="#ffffff" stroke="#ff0000" points="3252.3864,-469.5 3252.3864,-499.5 3419.3864,-499.5 3419.3864,-469.5 3252.3864,-469.5"/>
<text text-anchor="start" x="3260.3864" y="-487.5" font-family="Helvetica,sans-Serif" font-size="10.00" fill="#000000">include/tvm/runtime</text>
<text text-anchor="middle" x="3335.8864" y="-476.5" font-family="Helvetica,sans-Serif" font-size="10.00" fill="#000000">/relax_vm/memory_manager.h</text>
</a>
</g>
</g>
<!-- Node256&#45;&gt;Node259 -->
<g id="edge150" class="edge">
<title>Node256&#45;&gt;Node259</title>
<path fill="none" stroke="#191970" d="M3119.9688,-535.4383C3166.1744,-524.5377 3226.8583,-510.2214 3272.1229,-499.5428"/>
<polygon fill="#191970" stroke="#191970" points="3118.9725,-532.0772 3110.0434,-537.7799 3120.5799,-538.8902 3118.9725,-532.0772"/>
</g>
<!-- Node260 -->
<g id="node49" class="node">
<title>Node260</title>
<g id="a_node49"><a xlink:href="serializer_8h.html" target="_top" xlink:title="Serializer extension to support TVM data types Include this file to enable serialization of DLDataTyp...">
<polygon fill="#ffffff" stroke="#000000" points="3436.8864,-469.5 3436.8864,-499.5 3552.8864,-499.5 3552.8864,-469.5 3436.8864,-469.5"/>
<text text-anchor="start" x="3444.8864" y="-487.5" font-family="Helvetica,sans-Serif" font-size="10.00" fill="#000000">include/tvm/runtime</text>
<text text-anchor="middle" x="3494.8864" y="-476.5" font-family="Helvetica,sans-Serif" font-size="10.00" fill="#000000">/serializer.h</text>
</a>
</g>
</g>
<!-- Node256&#45;&gt;Node260 -->
<g id="edge151" class="edge">
<title>Node256&#45;&gt;Node260</title>
<path fill="none" stroke="#191970" d="M3120.2274,-543.3643C3194.3515,-534.6008 3315.8214,-519.2827 3419.8864,-500 3425.3258,-498.9921 3430.9925,-497.8319 3436.6755,-496.6092"/>
<polygon fill="#191970" stroke="#191970" points="3119.6116,-539.9125 3110.0891,-544.5571 3120.4296,-546.8645 3119.6116,-539.9125"/>
</g>
<!-- Node261 -->
<g id="node50" class="node">
<title>Node261</title>
<g id="a_node50"><a xlink:href="vm_2memory__manager_8h.html" target="_top" xlink:title="Abstract device memory management API. ">
<polygon fill="#ffffff" stroke="#ff0000" points="3571.3864,-469.5 3571.3864,-499.5 3708.3864,-499.5 3708.3864,-469.5 3571.3864,-469.5"/>
<text text-anchor="start" x="3579.3864" y="-487.5" font-family="Helvetica,sans-Serif" font-size="10.00" fill="#000000">include/tvm/runtime</text>
<text text-anchor="middle" x="3639.8864" y="-476.5" font-family="Helvetica,sans-Serif" font-size="10.00" fill="#000000">/vm/memory_manager.h</text>
</a>
</g>
</g>
<!-- Node256&#45;&gt;Node261 -->
<g id="edge153" class="edge">
<title>Node256&#45;&gt;Node261</title>
<path fill="none" stroke="#191970" d="M3120.3216,-546.6777C3218.4446,-539.2902 3404.6262,-523.5104 3561.8864,-500 3564.8905,-499.5509 3567.9542,-499.0645 3571.0453,-498.5506"/>
<polygon fill="#191970" stroke="#191970" points="3119.9517,-543.1955 3110.2401,-547.4305 3120.473,-550.1761 3119.9517,-543.1955"/>
</g>
<!-- Node257&#45;&gt;Node236 -->
<g id="edge145" class="edge">
<title>Node257&#45;&gt;Node236</title>
<path fill="none" stroke="#191970" d="M2785.9726,-471.3879C2700.4513,-458.3356 2571.2709,-438.6202 2495.1628,-427.0046"/>
<polygon fill="#191970" stroke="#191970" points="2785.506,-474.8571 2795.9196,-472.906 2786.5622,-467.9372 2785.506,-474.8571"/>
</g>
<!-- Node260&#45;&gt;Node256 -->
<g id="edge152" class="edge">
<title>Node260&#45;&gt;Node256</title>
<path fill="none" stroke="#191970" d="M3430.2841,-501.3811C3314.9022,-522.2908 3183.7865,-538.0897 3109.9702,-545.9686"/>
<polygon fill="#191970" stroke="#191970" points="3431.1256,-504.7852 3440.3308,-499.5398 3429.8637,-497.8999 3431.1256,-504.7852"/>
</g>
</g>
</svg>
