<?xml version="1.0" encoding="UTF-8" standalone="no"?>
<!DOCTYPE svg PUBLIC "-//W3C//DTD SVG 1.1//EN"
 "http://www.w3.org/Graphics/SVG/1.1/DTD/svg11.dtd">
<!-- Generated by graphviz version 2.40.1 (20161225.0304)
 -->
<!-- Title: include/tvm/support/random_engine.h Pages: 1 -->
<svg width="1357pt" height="508pt"
 viewBox="0.00 0.00 1356.82 508.00" xmlns="http://www.w3.org/2000/svg" xmlns:xlink="http://www.w3.org/1999/xlink">
<g id="graph0" class="graph" transform="scale(1 1) rotate(0) translate(4 504)">
<title>include/tvm/support/random_engine.h</title>
<polygon fill="#ffffff" stroke="transparent" points="-4,4 -4,-504 1352.8169,-504 1352.8169,4 -4,4"/>
<!-- Node4 -->
<g id="node1" class="node">
<title>Node4</title>
<polygon fill="#bfbfbf" stroke="#000000" points="33,-469.5 33,-499.5 147,-499.5 147,-469.5 33,-469.5"/>
<text text-anchor="start" x="41" y="-487.5" font-family="Helvetica,sans-Serif" font-size="10.00" fill="#000000">include/tvm/support</text>
<text text-anchor="middle" x="90" y="-476.5" font-family="Helvetica,sans-Serif" font-size="10.00" fill="#000000">/random_engine.h</text>
</g>
<!-- Node5 -->
<g id="node2" class="node">
<title>Node5</title>
<g id="a_node2"><a xlink:href="mutator_8h.html" target="_top" xlink:title="include/tvm/meta_schedule\l/mutator.h">
<polygon fill="#ffffff" stroke="#000000" points="66,-335.5 66,-365.5 218,-365.5 218,-335.5 66,-335.5"/>
<text text-anchor="start" x="74" y="-353.5" font-family="Helvetica,sans-Serif" font-size="10.00" fill="#000000">include/tvm/meta_schedule</text>
<text text-anchor="middle" x="142" y="-342.5" font-family="Helvetica,sans-Serif" font-size="10.00" fill="#000000">/mutator.h</text>
</a>
</g>
</g>
<!-- Node4&#45;&gt;Node5 -->
<g id="edge1" class="edge">
<title>Node4&#45;&gt;Node5</title>
<path fill="none" stroke="#191970" d="M99.6215,-459.706C110.297,-432.1962 127.1869,-388.6723 136.0777,-365.7614"/>
<polygon fill="#191970" stroke="#191970" points="96.2189,-458.8001 95.864,-469.389 102.7447,-461.3325 96.2189,-458.8001"/>
</g>
<!-- Node7 -->
<g id="node4" class="node">
<title>Node7</title>
<g id="a_node4"><a xlink:href="tune__context_8h.html" target="_top" xlink:title="include/tvm/meta_schedule\l/tune_context.h">
<polygon fill="#ffffff" stroke="#000000" points="610,-134.5 610,-164.5 762,-164.5 762,-134.5 610,-134.5"/>
<text text-anchor="start" x="618" y="-152.5" font-family="Helvetica,sans-Serif" font-size="10.00" fill="#000000">include/tvm/meta_schedule</text>
<text text-anchor="middle" x="686" y="-141.5" font-family="Helvetica,sans-Serif" font-size="10.00" fill="#000000">/tune_context.h</text>
</a>
</g>
</g>
<!-- Node4&#45;&gt;Node7 -->
<g id="edge8" class="edge">
<title>Node4&#45;&gt;Node7</title>
<path fill="none" stroke="#191970" d="M74.3939,-460.3922C59.0773,-434.3699 38,-391.1714 38,-350.5 38,-350.5 38,-350.5 38,-283.5 38,-225.7009 438.4671,-175.9647 609.7607,-157.3345"/>
<polygon fill="#191970" stroke="#191970" points="71.5416,-462.4383 79.7265,-469.1658 77.5234,-458.8025 71.5416,-462.4383"/>
</g>
<!-- Node9 -->
<g id="node6" class="node">
<title>Node9</title>
<g id="a_node6"><a xlink:href="task__scheduler_8h.html" target="_top" xlink:title="include/tvm/meta_schedule\l/task_scheduler.h">
<polygon fill="#ffffff" stroke="#000000" points="662,-.5 662,-30.5 814,-30.5 814,-.5 662,-.5"/>
<text text-anchor="start" x="670" y="-18.5" font-family="Helvetica,sans-Serif" font-size="10.00" fill="#000000">include/tvm/meta_schedule</text>
<text text-anchor="middle" x="738" y="-7.5" font-family="Helvetica,sans-Serif" font-size="10.00" fill="#000000">/task_scheduler.h</text>
</a>
</g>
</g>
<!-- Node4&#45;&gt;Node9 -->
<g id="edge7" class="edge">
<title>Node4&#45;&gt;Node9</title>
<path fill="none" stroke="#191970" d="M63.4003,-462.7509C36.8587,-438.4389 0,-396.4113 0,-350.5 0,-350.5 0,-350.5 0,-149.5 0,-82.7623 473.243,-36.9816 661.8007,-21.3896"/>
<polygon fill="#191970" stroke="#191970" points="61.111,-465.3988 70.9133,-469.4195 65.7578,-460.1636 61.111,-465.3988"/>
</g>
<!-- Node10 -->
<g id="node7" class="node">
<title>Node10</title>
<g id="a_node7"><a xlink:href="tir_2schedule_2schedule_8h.html" target="_top" xlink:title="include/tvm/tir/schedule\l/schedule.h">
<polygon fill="#ffffff" stroke="#000000" points="623,-402.5 623,-432.5 757,-432.5 757,-402.5 623,-402.5"/>
<text text-anchor="start" x="631" y="-420.5" font-family="Helvetica,sans-Serif" font-size="10.00" fill="#000000">include/tvm/tir/schedule</text>
<text text-anchor="middle" x="690" y="-409.5" font-family="Helvetica,sans-Serif" font-size="10.00" fill="#000000">/schedule.h</text>
</a>
</g>
</g>
<!-- Node4&#45;&gt;Node10 -->
<g id="edge9" class="edge">
<title>Node4&#45;&gt;Node10</title>
<path fill="none" stroke="#191970" d="M157.3795,-476.976C272.817,-464.0854 507.1018,-437.9236 622.5724,-425.0294"/>
<polygon fill="#191970" stroke="#191970" points="156.8085,-473.5179 147.2587,-478.1061 157.5854,-480.4746 156.8085,-473.5179"/>
</g>
<!-- Node6 -->
<g id="node3" class="node">
<title>Node6</title>
<g id="a_node3"><a xlink:href="space__generator_8h.html" target="_top" xlink:title="include/tvm/meta_schedule\l/space_generator.h">
<polygon fill="#ffffff" stroke="#000000" points="406,-268.5 406,-298.5 558,-298.5 558,-268.5 406,-268.5"/>
<text text-anchor="start" x="414" y="-286.5" font-family="Helvetica,sans-Serif" font-size="10.00" fill="#000000">include/tvm/meta_schedule</text>
<text text-anchor="middle" x="482" y="-275.5" font-family="Helvetica,sans-Serif" font-size="10.00" fill="#000000">/space_generator.h</text>
</a>
</g>
</g>
<!-- Node5&#45;&gt;Node6 -->
<g id="edge2" class="edge">
<title>Node5&#45;&gt;Node6</title>
<path fill="none" stroke="#191970" d="M228.3408,-333.4858C283.1033,-322.6944 353.2941,-308.8626 405.952,-298.4859"/>
<polygon fill="#191970" stroke="#191970" points="227.4372,-330.0964 218.3026,-335.4639 228.7907,-336.9644 227.4372,-330.0964"/>
</g>
<!-- Node6&#45;&gt;Node7 -->
<g id="edge3" class="edge">
<title>Node6&#45;&gt;Node7</title>
<path fill="none" stroke="#191970" d="M513.6001,-262.7431C554.9782,-235.5633 626.5343,-188.5608 663.0792,-164.5558"/>
<polygon fill="#191970" stroke="#191970" points="511.4414,-259.9734 505.0048,-268.389 515.2846,-265.8241 511.4414,-259.9734"/>
</g>
<!-- Node8 -->
<g id="node5" class="node">
<title>Node8</title>
<g id="a_node5"><a xlink:href="measure__callback_8h.html" target="_top" xlink:title="include/tvm/meta_schedule\l/measure_callback.h">
<polygon fill="#ffffff" stroke="#000000" points="714,-67.5 714,-97.5 866,-97.5 866,-67.5 714,-67.5"/>
<text text-anchor="start" x="722" y="-85.5" font-family="Helvetica,sans-Serif" font-size="10.00" fill="#000000">include/tvm/meta_schedule</text>
<text text-anchor="middle" x="790" y="-74.5" font-family="Helvetica,sans-Serif" font-size="10.00" fill="#000000">/measure_callback.h</text>
</a>
</g>
</g>
<!-- Node7&#45;&gt;Node8 -->
<g id="edge4" class="edge">
<title>Node7&#45;&gt;Node8</title>
<path fill="none" stroke="#191970" d="M718.139,-128.7951C733.7223,-118.7558 752.1061,-106.9124 766.3784,-97.7177"/>
<polygon fill="#191970" stroke="#191970" points="715.8506,-126.1058 709.3396,-134.4639 719.6417,-131.9904 715.8506,-126.1058"/>
</g>
<!-- Node7&#45;&gt;Node9 -->
<g id="edge6" class="edge">
<title>Node7&#45;&gt;Node9</title>
<path fill="none" stroke="#191970" d="M689.4915,-124.3214C692.3604,-107.6139 697.2409,-85.4491 705,-67 710.5165,-53.8833 719.2994,-40.3878 726.4179,-30.5039"/>
<polygon fill="#191970" stroke="#191970" points="685.9998,-123.9932 687.8866,-134.4187 692.913,-125.092 685.9998,-123.9932"/>
</g>
<!-- Node8&#45;&gt;Node9 -->
<g id="edge5" class="edge">
<title>Node8&#45;&gt;Node9</title>
<path fill="none" stroke="#191970" d="M772.0335,-59.3509C764.6583,-49.8482 756.3266,-39.1132 749.7529,-30.6432"/>
<polygon fill="#191970" stroke="#191970" points="769.3042,-61.5427 778.2004,-67.2967 774.8341,-57.2508 769.3042,-61.5427"/>
</g>
<!-- Node10&#45;&gt;Node5 -->
<g id="edge23" class="edge">
<title>Node10&#45;&gt;Node5</title>
<path fill="none" stroke="#191970" d="M612.6472,-410.5561C520.5433,-401.9047 362.1717,-385.8176 227,-366 224.1801,-365.5866 221.3105,-365.1491 218.4143,-364.6935"/>
<polygon fill="#191970" stroke="#191970" points="612.439,-414.0518 622.7213,-411.4975 613.0904,-407.0822 612.439,-414.0518"/>
</g>
<!-- Node10&#45;&gt;Node6 -->
<g id="edge31" class="edge">
<title>Node10&#45;&gt;Node6</title>
<path fill="none" stroke="#191970" d="M654.2187,-397.3221C638.7654,-388.2273 620.6737,-377.0603 605,-366 587.1916,-353.4333 584.8084,-347.5667 567,-335 548.2502,-321.769 526.04,-308.3853 509.0258,-298.5788"/>
<polygon fill="#191970" stroke="#191970" points="652.5714,-400.4131 662.9742,-402.4212 656.0942,-394.3641 652.5714,-400.4131"/>
</g>
<!-- Node11 -->
<g id="node8" class="node">
<title>Node11</title>
<g id="a_node8"><a xlink:href="meta__schedule_2cost__model_8h.html" target="_top" xlink:title="include/tvm/meta_schedule\l/cost_model.h">
<polygon fill="#ffffff" stroke="#000000" points="1064,-268.5 1064,-298.5 1216,-298.5 1216,-268.5 1064,-268.5"/>
<text text-anchor="start" x="1072" y="-286.5" font-family="Helvetica,sans-Serif" font-size="10.00" fill="#000000">include/tvm/meta_schedule</text>
<text text-anchor="middle" x="1140" y="-275.5" font-family="Helvetica,sans-Serif" font-size="10.00" fill="#000000">/cost_model.h</text>
</a>
</g>
</g>
<!-- Node10&#45;&gt;Node11 -->
<g id="edge10" class="edge">
<title>Node10&#45;&gt;Node11</title>
<path fill="none" stroke="#191970" d="M767.2286,-414.1365C934.9109,-406.4596 1318.8763,-386.7039 1338,-366 1379.1233,-321.4788 1287.9336,-300.2217 1216.0442,-290.6429"/>
<polygon fill="#191970" stroke="#191970" points="767.0583,-410.6406 757.2278,-414.5918 767.3767,-417.6333 767.0583,-410.6406"/>
</g>
<!-- Node12 -->
<g id="node9" class="node">
<title>Node12</title>
<g id="a_node9"><a xlink:href="search__strategy_8h.html" target="_top" xlink:title="include/tvm/meta_schedule\l/search_strategy.h">
<polygon fill="#ffffff" stroke="#000000" points="714,-201.5 714,-231.5 866,-231.5 866,-201.5 714,-201.5"/>
<text text-anchor="start" x="722" y="-219.5" font-family="Helvetica,sans-Serif" font-size="10.00" fill="#000000">include/tvm/meta_schedule</text>
<text text-anchor="middle" x="790" y="-208.5" font-family="Helvetica,sans-Serif" font-size="10.00" fill="#000000">/search_strategy.h</text>
</a>
</g>
</g>
<!-- Node10&#45;&gt;Node12 -->
<g id="edge30" class="edge">
<title>Node10&#45;&gt;Node12</title>
<path fill="none" stroke="#191970" d="M739.5809,-397.6683C753.2028,-389.8219 766.5388,-379.4054 775,-366 801.7322,-323.6473 796.8036,-260.7299 792.6685,-231.9182"/>
<polygon fill="#191970" stroke="#191970" points="737.7991,-394.6522 730.6364,-402.459 741.1042,-400.8228 737.7991,-394.6522"/>
</g>
<!-- Node13 -->
<g id="node10" class="node">
<title>Node13</title>
<g id="a_node10"><a xlink:href="database_8h.html" target="_top" xlink:title="include/tvm/meta_schedule\l/database.h">
<polygon fill="#ffffff" stroke="#000000" points="614,-335.5 614,-365.5 766,-365.5 766,-335.5 614,-335.5"/>
<text text-anchor="start" x="622" y="-353.5" font-family="Helvetica,sans-Serif" font-size="10.00" fill="#000000">include/tvm/meta_schedule</text>
<text text-anchor="middle" x="690" y="-342.5" font-family="Helvetica,sans-Serif" font-size="10.00" fill="#000000">/database.h</text>
</a>
</g>
</g>
<!-- Node10&#45;&gt;Node13 -->
<g id="edge15" class="edge">
<title>Node10&#45;&gt;Node13</title>
<path fill="none" stroke="#191970" d="M690,-392.0249C690,-383.128 690,-373.4287 690,-365.6432"/>
<polygon fill="#191970" stroke="#191970" points="686.5001,-392.2966 690,-402.2967 693.5001,-392.2967 686.5001,-392.2966"/>
</g>
<!-- Node15 -->
<g id="node12" class="node">
<title>Node15</title>
<g id="a_node12"><a xlink:href="measure__candidate_8h.html" target="_top" xlink:title="include/tvm/meta_schedule\l/measure_candidate.h">
<polygon fill="#ffffff" stroke="#000000" points="822,-335.5 822,-365.5 974,-365.5 974,-335.5 822,-335.5"/>
<text text-anchor="start" x="830" y="-353.5" font-family="Helvetica,sans-Serif" font-size="10.00" fill="#000000">include/tvm/meta_schedule</text>
<text text-anchor="middle" x="898" y="-342.5" font-family="Helvetica,sans-Serif" font-size="10.00" fill="#000000">/measure_candidate.h</text>
</a>
</g>
</g>
<!-- Node10&#45;&gt;Node15 -->
<g id="edge18" class="edge">
<title>Node10&#45;&gt;Node15</title>
<path fill="none" stroke="#191970" d="M746.5763,-399.2759C779.3577,-388.7165 820.1382,-375.5805 851.1171,-365.6017"/>
<polygon fill="#191970" stroke="#191970" points="745.1245,-396.0664 736.6793,-402.4639 747.2708,-402.7292 745.1245,-396.0664"/>
</g>
<!-- Node17 -->
<g id="node14" class="node">
<title>Node17</title>
<g id="a_node14"><a xlink:href="postproc_8h.html" target="_top" xlink:title="include/tvm/meta_schedule\l/postproc.h">
<polygon fill="#ffffff" stroke="#000000" points="236,-335.5 236,-365.5 388,-365.5 388,-335.5 236,-335.5"/>
<text text-anchor="start" x="244" y="-353.5" font-family="Helvetica,sans-Serif" font-size="10.00" fill="#000000">include/tvm/meta_schedule</text>
<text text-anchor="middle" x="312" y="-342.5" font-family="Helvetica,sans-Serif" font-size="10.00" fill="#000000">/postproc.h</text>
</a>
</g>
</g>
<!-- Node10&#45;&gt;Node17 -->
<g id="edge24" class="edge">
<title>Node10&#45;&gt;Node17</title>
<path fill="none" stroke="#191970" d="M612.7696,-404.0638C553.6761,-393.7495 470.1698,-379.1017 397,-366 394.1946,-365.4977 391.3373,-364.9845 388.4515,-364.4649"/>
<polygon fill="#191970" stroke="#191970" points="612.3209,-407.5383 622.7737,-405.8093 613.5241,-400.6425 612.3209,-407.5383"/>
</g>
<!-- Node18 -->
<g id="node15" class="node">
<title>Node18</title>
<g id="a_node15"><a xlink:href="thread__bind_8h.html" target="_top" xlink:title="include/tvm/meta_schedule\l/schedule/cuda/thread_bind.h">
<polygon fill="#ffffff" stroke="#000000" points="992.5,-335.5 992.5,-365.5 1151.5,-365.5 1151.5,-335.5 992.5,-335.5"/>
<text text-anchor="start" x="1000.5" y="-353.5" font-family="Helvetica,sans-Serif" font-size="10.00" fill="#000000">include/tvm/meta_schedule</text>
<text text-anchor="middle" x="1072" y="-342.5" font-family="Helvetica,sans-Serif" font-size="10.00" fill="#000000">/schedule/cuda/thread_bind.h</text>
</a>
</g>
</g>
<!-- Node10&#45;&gt;Node18 -->
<g id="edge26" class="edge">
<title>Node10&#45;&gt;Node18</title>
<path fill="none" stroke="#191970" d="M767.2678,-403.9478C832.7359,-392.4652 926.2432,-376.0647 992.3735,-364.4659"/>
<polygon fill="#191970" stroke="#191970" points="766.6596,-400.501 757.4146,-405.676 767.8689,-407.3957 766.6596,-400.501"/>
</g>
<!-- Node19 -->
<g id="node16" class="node">
<title>Node19</title>
<g id="a_node16"><a xlink:href="winograd_8h.html" target="_top" xlink:title="include/tvm/meta_schedule\l/schedule/generic/winograd.h">
<polygon fill="#ffffff" stroke="#000000" points="1169.5,-335.5 1169.5,-365.5 1328.5,-365.5 1328.5,-335.5 1169.5,-335.5"/>
<text text-anchor="start" x="1177.5" y="-353.5" font-family="Helvetica,sans-Serif" font-size="10.00" fill="#000000">include/tvm/meta_schedule</text>
<text text-anchor="middle" x="1249" y="-342.5" font-family="Helvetica,sans-Serif" font-size="10.00" fill="#000000">/schedule/generic/winograd.h</text>
</a>
</g>
</g>
<!-- Node10&#45;&gt;Node19 -->
<g id="edge27" class="edge">
<title>Node10&#45;&gt;Node19</title>
<path fill="none" stroke="#191970" d="M767.4729,-410.5967C860.9713,-401.9039 1022.8539,-385.6973 1161,-366 1163.7644,-365.6058 1166.5751,-365.1905 1169.4119,-364.7589"/>
<polygon fill="#191970" stroke="#191970" points="766.886,-407.136 757.251,-411.5424 767.531,-414.1062 766.886,-407.136"/>
</g>
<!-- Node20 -->
<g id="node17" class="node">
<title>Node20</title>
<g id="a_node17"><a xlink:href="schedule__rule_8h.html" target="_top" xlink:title="include/tvm/meta_schedule\l/schedule_rule.h">
<polygon fill="#ffffff" stroke="#000000" points="406,-335.5 406,-365.5 558,-365.5 558,-335.5 406,-335.5"/>
<text text-anchor="start" x="414" y="-353.5" font-family="Helvetica,sans-Serif" font-size="10.00" fill="#000000">include/tvm/meta_schedule</text>
<text text-anchor="middle" x="482" y="-342.5" font-family="Helvetica,sans-Serif" font-size="10.00" fill="#000000">/schedule_rule.h</text>
</a>
</g>
</g>
<!-- Node10&#45;&gt;Node20 -->
<g id="edge28" class="edge">
<title>Node10&#45;&gt;Node20</title>
<path fill="none" stroke="#191970" d="M633.4237,-399.2759C600.6423,-388.7165 559.8618,-375.5805 528.8829,-365.6017"/>
<polygon fill="#191970" stroke="#191970" points="632.7292,-402.7292 643.3207,-402.4639 634.8755,-396.0664 632.7292,-402.7292"/>
</g>
<!-- Node11&#45;&gt;Node9 -->
<g id="edge14" class="edge">
<title>Node11&#45;&gt;Node9</title>
<path fill="none" stroke="#191970" d="M1118.0676,-261.2687C1074.9326,-218.5848 974.5727,-124.3147 875,-67 848.3533,-51.662 816.2897,-39.3179 789.8829,-30.5641"/>
<polygon fill="#191970" stroke="#191970" points="1115.6512,-263.8018 1125.2058,-268.38 1120.5916,-258.8427 1115.6512,-263.8018"/>
</g>
<!-- Node11&#45;&gt;Node12 -->
<g id="edge11" class="edge">
<title>Node11&#45;&gt;Node12</title>
<path fill="none" stroke="#191970" d="M1053.4753,-266.9367C996.0556,-255.9449 921.3919,-241.6522 866.2137,-231.0895"/>
<polygon fill="#191970" stroke="#191970" points="1053.1438,-270.4367 1063.6235,-268.8794 1054.4599,-263.5616 1053.1438,-270.4367"/>
</g>
<!-- Node12&#45;&gt;Node7 -->
<g id="edge13" class="edge">
<title>Node12&#45;&gt;Node7</title>
<path fill="none" stroke="#191970" d="M757.861,-195.7951C742.2777,-185.7558 723.8939,-173.9124 709.6216,-164.7177"/>
<polygon fill="#191970" stroke="#191970" points="756.3583,-198.9904 766.6604,-201.4639 760.1494,-193.1058 756.3583,-198.9904"/>
</g>
<!-- Node12&#45;&gt;Node8 -->
<g id="edge12" class="edge">
<title>Node12&#45;&gt;Node8</title>
<path fill="none" stroke="#191970" d="M790,-191.3415C790,-163.8131 790,-120.5714 790,-97.7614"/>
<polygon fill="#191970" stroke="#191970" points="786.5001,-191.3889 790,-201.389 793.5001,-191.389 786.5001,-191.3889"/>
</g>
<!-- Node13&#45;&gt;Node12 -->
<g id="edge16" class="edge">
<title>Node13&#45;&gt;Node12</title>
<path fill="none" stroke="#191970" d="M651.9011,-330.2911C626.398,-314.0689 600.3089,-290.3837 617,-268 629.1295,-251.7336 673.257,-238.7457 713.9056,-229.8819"/>
<polygon fill="#191970" stroke="#191970" points="650.1011,-333.2928 660.4648,-335.4937 653.7356,-327.3103 650.1011,-333.2928"/>
</g>
<!-- Node14 -->
<g id="node11" class="node">
<title>Node14</title>
<g id="a_node11"><a xlink:href="tuning__api_8h.html" target="_top" xlink:title="Relax Tuning Pass APIs. ">
<polygon fill="#ffffff" stroke="#000000" points="626,-268.5 626,-298.5 762,-298.5 762,-268.5 626,-268.5"/>
<text text-anchor="start" x="634" y="-286.5" font-family="Helvetica,sans-Serif" font-size="10.00" fill="#000000">include/tvm/relax/tuning</text>
<text text-anchor="middle" x="694" y="-275.5" font-family="Helvetica,sans-Serif" font-size="10.00" fill="#000000">_api.h</text>
</a>
</g>
</g>
<!-- Node13&#45;&gt;Node14 -->
<g id="edge17" class="edge">
<title>Node13&#45;&gt;Node14</title>
<path fill="none" stroke="#191970" d="M691.5209,-325.0249C692.0521,-316.128 692.6311,-306.4287 693.0959,-298.6432"/>
<polygon fill="#191970" stroke="#191970" points="688.0099,-325.1058 690.9077,-335.2967 694.9975,-325.5231 688.0099,-325.1058"/>
</g>
<!-- Node15&#45;&gt;Node8 -->
<g id="edge21" class="edge">
<title>Node15&#45;&gt;Node8</title>
<path fill="none" stroke="#191970" d="M958.4824,-331.0446C972.9233,-323.4055 986.5789,-313.0054 995,-299 1002.0997,-287.1923 1000.5884,-280.5935 995,-268 958.4965,-185.739 865.4944,-124.4676 818.3373,-97.5675"/>
<polygon fill="#191970" stroke="#191970" points="956.8884,-327.9278 949.4291,-335.4517 959.9523,-334.2217 956.8884,-327.9278"/>
</g>
<!-- Node15&#45;&gt;Node11 -->
<g id="edge19" class="edge">
<title>Node15&#45;&gt;Node11</title>
<path fill="none" stroke="#191970" d="M962.3495,-332.6842C1000.7352,-322.0568 1048.9447,-308.7095 1085.4536,-298.6017"/>
<polygon fill="#191970" stroke="#191970" points="961.0131,-329.4225 952.3095,-335.4639 962.8809,-336.1687 961.0131,-329.4225"/>
</g>
<!-- Node15&#45;&gt;Node12 -->
<g id="edge22" class="edge">
<title>Node15&#45;&gt;Node12</title>
<path fill="none" stroke="#191970" d="M946.4739,-330.4609C959.355,-322.6413 971.7001,-312.2917 979,-299 985.6324,-286.9236 987.3642,-278.9484 979,-268 964.9348,-249.5894 912.3042,-236.1879 866.1435,-227.6786"/>
<polygon fill="#191970" stroke="#191970" points="944.5385,-327.5334 937.5259,-335.4754 947.9606,-333.6399 944.5385,-327.5334"/>
</g>
<!-- Node16 -->
<g id="node13" class="node">
<title>Node16</title>
<g id="a_node13"><a xlink:href="feature__extractor_8h.html" target="_top" xlink:title="include/tvm/meta_schedule\l/feature_extractor.h">
<polygon fill="#ffffff" stroke="#000000" points="818,-268.5 818,-298.5 970,-298.5 970,-268.5 818,-268.5"/>
<text text-anchor="start" x="826" y="-286.5" font-family="Helvetica,sans-Serif" font-size="10.00" fill="#000000">include/tvm/meta_schedule</text>
<text text-anchor="middle" x="894" y="-275.5" font-family="Helvetica,sans-Serif" font-size="10.00" fill="#000000">/feature_extractor.h</text>
</a>
</g>
</g>
<!-- Node15&#45;&gt;Node16 -->
<g id="edge20" class="edge">
<title>Node15&#45;&gt;Node16</title>
<path fill="none" stroke="#191970" d="M896.4791,-325.0249C895.9479,-316.128 895.3689,-306.4287 894.9041,-298.6432"/>
<polygon fill="#191970" stroke="#191970" points="893.0025,-325.5231 897.0923,-335.2967 899.9901,-325.1058 893.0025,-325.5231"/>
</g>
<!-- Node17&#45;&gt;Node6 -->
<g id="edge25" class="edge">
<title>Node17&#45;&gt;Node6</title>
<path fill="none" stroke="#191970" d="M359.6318,-331.7275C386.1796,-321.2645 418.7995,-308.4084 443.6823,-298.6017"/>
<polygon fill="#191970" stroke="#191970" points="358.1715,-328.5409 350.1513,-335.4639 360.7382,-335.0534 358.1715,-328.5409"/>
</g>
<!-- Node20&#45;&gt;Node6 -->
<g id="edge29" class="edge">
<title>Node20&#45;&gt;Node6</title>
<path fill="none" stroke="#191970" d="M482,-325.0249C482,-316.128 482,-306.4287 482,-298.6432"/>
<polygon fill="#191970" stroke="#191970" points="478.5001,-325.2966 482,-335.2967 485.5001,-325.2967 478.5001,-325.2966"/>
</g>
</g>
</svg>
