<?xml version="1.0" encoding="UTF-8" standalone="no"?>
<!DOCTYPE svg PUBLIC "-//W3C//DTD SVG 1.1//EN"
 "http://www.w3.org/Graphics/SVG/1.1/DTD/svg11.dtd">
<!-- Generated by graphviz version 2.40.1 (20161225.0304)
 -->
<!-- Title: include/tvm/runtime/relax_vm/executable.h Pages: 1 -->
<svg width="2380pt" height="587pt"
 viewBox="0.00 0.00 2380.00 587.00" xmlns="http://www.w3.org/2000/svg" xmlns:xlink="http://www.w3.org/1999/xlink">
<g id="graph0" class="graph" transform="scale(1 1) rotate(0) translate(4 583)">
<title>include/tvm/runtime/relax_vm/executable.h</title>
<polygon fill="#ffffff" stroke="transparent" points="-4,4 -4,-583 2376,-583 2376,4 -4,4"/>
<!-- Node0 -->
<g id="node1" class="node">
<title>Node0</title>
<polygon fill="#bfbfbf" stroke="#000000" points="1648.5,-548.5 1648.5,-578.5 1779.5,-578.5 1779.5,-548.5 1648.5,-548.5"/>
<text text-anchor="start" x="1656.5" y="-566.5" font-family="Helvetica,sans-Serif" font-size="10.00" fill="#000000">include/tvm/runtime</text>
<text text-anchor="middle" x="1714" y="-555.5" font-family="Helvetica,sans-Serif" font-size="10.00" fill="#000000">/relax_vm/executable.h</text>
</g>
<!-- Node1 -->
<g id="node2" class="node">
<title>Node1</title>
<g id="a_node2"><a xlink:href="closure_8h.html" target="_top" xlink:title="Runtime Closure container types. ">
<polygon fill="#ffffff" stroke="#000000" points="1651,-425.5 1651,-455.5 1777,-455.5 1777,-425.5 1651,-425.5"/>
<text text-anchor="start" x="1659" y="-443.5" font-family="Helvetica,sans-Serif" font-size="10.00" fill="#000000">tvm/runtime/container</text>
<text text-anchor="middle" x="1714" y="-432.5" font-family="Helvetica,sans-Serif" font-size="10.00" fill="#000000">/closure.h</text>
</a>
</g>
</g>
<!-- Node0&#45;&gt;Node1 -->
<g id="edge1" class="edge">
<title>Node0&#45;&gt;Node1</title>
<path fill="none" stroke="#191970" d="M1714,-548.4178C1714,-527.8539 1714,-490.7363 1714,-465.8546"/>
<polygon fill="#191970" stroke="#191970" points="1717.5001,-465.7055 1714,-455.7056 1710.5001,-465.7056 1717.5001,-465.7055"/>
</g>
<!-- Node6 -->
<g id="node7" class="node">
<title>Node6</title>
<g id="a_node7"><a xlink:href="object_8h.html" target="_top" xlink:title="A managed object in the TVM runtime. ">
<polygon fill="#ffffff" stroke="#000000" points="769.5,-123.5 769.5,-142.5 888.5,-142.5 888.5,-123.5 769.5,-123.5"/>
<text text-anchor="middle" x="829" y="-130.5" font-family="Helvetica,sans-Serif" font-size="10.00" fill="#000000">tvm/runtime/object.h</text>
</a>
</g>
</g>
<!-- Node0&#45;&gt;Node6 -->
<g id="edge23" class="edge">
<title>Node0&#45;&gt;Node6</title>
<path fill="none" stroke="#191970" d="M1648.2988,-562.1802C1338.4306,-555.5332 38,-522.7384 38,-440.5 38,-440.5 38,-440.5 38,-373.5 38,-223.4119 565.8882,-158.0435 759.1734,-139.1394"/>
<polygon fill="#191970" stroke="#191970" points="759.6049,-142.6141 769.2222,-138.1691 758.9321,-135.6465 759.6049,-142.6141"/>
</g>
<!-- Node11 -->
<g id="node12" class="node">
<title>Node11</title>
<polygon fill="#ffffff" stroke="#bfbfbf" points="246,-62 246,-81 290,-81 290,-62 246,-62"/>
<text text-anchor="middle" x="268" y="-69" font-family="Helvetica,sans-Serif" font-size="10.00" fill="#000000">string</text>
</g>
<!-- Node0&#45;&gt;Node11 -->
<g id="edge109" class="edge">
<title>Node0&#45;&gt;Node11</title>
<path fill="none" stroke="#191970" d="M1648.4195,-563.1907C1400.2964,-561.7123 519.0608,-553.5856 242,-512 131.0906,-495.353 0,-552.6518 0,-440.5 0,-440.5 0,-440.5 0,-189 0,-138.036 164.611,-94.7844 235.8145,-78.4595"/>
<polygon fill="#191970" stroke="#191970" points="236.6272,-81.8642 245.6114,-76.2486 235.0862,-75.0359 236.6272,-81.8642"/>
</g>
<!-- Node18 -->
<g id="node19" class="node">
<title>Node18</title>
<g id="a_node19"><a xlink:href="registry_8h.html" target="_top" xlink:title="This file defines the TVM global function registry. ">
<polygon fill="#ffffff" stroke="#000000" points="1412.5,-492.5 1412.5,-511.5 1537.5,-511.5 1537.5,-492.5 1412.5,-492.5"/>
<text text-anchor="middle" x="1475" y="-499.5" font-family="Helvetica,sans-Serif" font-size="10.00" fill="#000000">tvm/runtime/registry.h</text>
</a>
</g>
</g>
<!-- Node0&#45;&gt;Node18 -->
<g id="edge24" class="edge">
<title>Node0&#45;&gt;Node18</title>
<path fill="none" stroke="#191970" d="M1655.534,-548.4554C1614.4319,-537.8789 1560.1617,-523.914 1521.8919,-514.0663"/>
<polygon fill="#191970" stroke="#191970" points="1522.5933,-510.6329 1512.0365,-511.5303 1520.8488,-517.412 1522.5933,-510.6329"/>
</g>
<!-- Node22 -->
<g id="node23" class="node">
<title>Node22</title>
<polygon fill="#ffffff" stroke="#bfbfbf" points="1785.5,-235.5 1785.5,-254.5 1832.5,-254.5 1832.5,-235.5 1785.5,-235.5"/>
<text text-anchor="middle" x="1809" y="-242.5" font-family="Helvetica,sans-Serif" font-size="10.00" fill="#000000">vector</text>
</g>
<!-- Node0&#45;&gt;Node22 -->
<g id="edge111" class="edge">
<title>Node0&#45;&gt;Node22</title>
<path fill="none" stroke="#191970" d="M1779.692,-549.9959C1866.896,-530.1464 2010,-490.0277 2010,-440.5 2010,-440.5 2010,-440.5 2010,-373.5 2010,-334.1517 1899.2716,-282.4244 1842.184,-258.3704"/>
<polygon fill="#191970" stroke="#191970" points="1843.4237,-255.0953 1832.8467,-254.4813 1840.7322,-261.5572 1843.4237,-255.0953"/>
</g>
<!-- Node25 -->
<g id="node26" class="node">
<title>Node25</title>
<polygon fill="#ffffff" stroke="#bfbfbf" points="1850.5,-235.5 1850.5,-254.5 1943.5,-254.5 1943.5,-235.5 1850.5,-235.5"/>
<text text-anchor="middle" x="1897" y="-242.5" font-family="Helvetica,sans-Serif" font-size="10.00" fill="#000000">unordered_map</text>
</g>
<!-- Node0&#45;&gt;Node25 -->
<g id="edge110" class="edge">
<title>Node0&#45;&gt;Node25</title>
<path fill="none" stroke="#191970" d="M1779.6439,-556.5294C1827.6754,-549.6603 1893.5144,-536.4939 1947,-512 1984.8226,-494.679 2002.8033,-492.906 2022,-456 2042.1032,-417.3511 2041.3923,-397.9423 2024,-358 2004.246,-312.6341 1955.8954,-278.223 1924.8769,-259.8756"/>
<polygon fill="#191970" stroke="#191970" points="1926.2737,-256.6419 1915.8578,-254.7029 1922.7911,-262.7141 1926.2737,-256.6419"/>
</g>
<!-- Node41 -->
<g id="node42" class="node">
<title>Node41</title>
<g id="a_node42"><a xlink:href="relax__vm_2bytecode_8h.html" target="_top" xlink:title="The bytecode for the virtual machine. ">
<polygon fill="#ffffff" stroke="#000000" points="2190.5,-297 2190.5,-316 2267.5,-316 2267.5,-297 2190.5,-297"/>
<text text-anchor="middle" x="2229" y="-304" font-family="Helvetica,sans-Serif" font-size="10.00" fill="#000000">./bytecode.h</text>
</a>
</g>
</g>
<!-- Node0&#45;&gt;Node41 -->
<g id="edge112" class="edge">
<title>Node0&#45;&gt;Node41</title>
<path fill="none" stroke="#191970" d="M1779.5237,-562.0602C1916.0106,-558.3821 2220.7618,-546.3712 2252,-512 2299.8567,-459.3434 2259.8222,-365.04 2239.3057,-325.1423"/>
<polygon fill="#191970" stroke="#191970" points="2242.3551,-323.4219 2234.5755,-316.2295 2236.1719,-326.7034 2242.3551,-323.4219"/>
</g>
<!-- Node2 -->
<g id="node3" class="node">
<title>Node2</title>
<g id="a_node3"><a xlink:href="runtime_2container_2base_8h.html" target="_top" xlink:title="Base utilities for common POD(plain old data) container types. ">
<polygon fill="#ffffff" stroke="#000000" points="1672.5,-235.5 1672.5,-254.5 1727.5,-254.5 1727.5,-235.5 1672.5,-235.5"/>
<text text-anchor="middle" x="1700" y="-242.5" font-family="Helvetica,sans-Serif" font-size="10.00" fill="#000000">./base.h</text>
</a>
</g>
</g>
<!-- Node1&#45;&gt;Node2 -->
<g id="edge2" class="edge">
<title>Node1&#45;&gt;Node2</title>
<path fill="none" stroke="#191970" d="M1712.9247,-425.4841C1710.4305,-390.654 1704.2499,-304.3473 1701.4363,-265.0563"/>
<polygon fill="#191970" stroke="#191970" points="1704.9137,-264.6143 1700.7082,-254.8898 1697.9315,-265.1143 1704.9137,-264.6143"/>
</g>
<!-- Node3 -->
<g id="node4" class="node">
<title>Node3</title>
<polygon fill="#ffffff" stroke="#bfbfbf" points="1489.5,-179.5 1489.5,-198.5 1578.5,-198.5 1578.5,-179.5 1489.5,-179.5"/>
<text text-anchor="middle" x="1534" y="-186.5" font-family="Helvetica,sans-Serif" font-size="10.00" fill="#000000">dmlc/logging.h</text>
</g>
<!-- Node2&#45;&gt;Node3 -->
<g id="edge3" class="edge">
<title>Node2&#45;&gt;Node3</title>
<path fill="none" stroke="#191970" d="M1672.2153,-235.6269C1644.7317,-226.3553 1602.4657,-212.0969 1571.9081,-201.7883"/>
<polygon fill="#191970" stroke="#191970" points="1573.0259,-198.4716 1562.4317,-198.5914 1570.7883,-205.1044 1573.0259,-198.4716"/>
</g>
<!-- Node4 -->
<g id="node5" class="node">
<title>Node4</title>
<polygon fill="#ffffff" stroke="#bfbfbf" points="1475.5,-62 1475.5,-81 1600.5,-81 1600.5,-62 1475.5,-62"/>
<text text-anchor="middle" x="1538" y="-69" font-family="Helvetica,sans-Serif" font-size="10.00" fill="#000000">tvm/runtime/logging.h</text>
</g>
<!-- Node2&#45;&gt;Node4 -->
<g id="edge4" class="edge">
<title>Node2&#45;&gt;Node4</title>
<path fill="none" stroke="#191970" d="M1727.7307,-236.8944C1756.28,-227.9226 1797.8525,-212.8896 1807,-199 1825.5785,-170.7904 1828.5221,-149.0334 1807,-123 1782.5269,-93.397 1681.8123,-80.6473 1610.8306,-75.269"/>
<polygon fill="#191970" stroke="#191970" points="1610.8128,-71.7587 1600.5863,-74.5279 1610.3076,-78.7404 1610.8128,-71.7587"/>
</g>
<!-- Node5 -->
<g id="node6" class="node">
<title>Node5</title>
<g id="a_node6"><a xlink:href="runtime_2memory_8h.html" target="_top" xlink:title="Runtime memory management. ">
<polygon fill="#ffffff" stroke="#000000" points="1635.5,-179.5 1635.5,-198.5 1764.5,-198.5 1764.5,-179.5 1635.5,-179.5"/>
<text text-anchor="middle" x="1700" y="-186.5" font-family="Helvetica,sans-Serif" font-size="10.00" fill="#000000">tvm/runtime/memory.h</text>
</a>
</g>
</g>
<!-- Node2&#45;&gt;Node5 -->
<g id="edge5" class="edge">
<title>Node2&#45;&gt;Node5</title>
<path fill="none" stroke="#191970" d="M1700,-235.2455C1700,-227.9382 1700,-217.6944 1700,-208.7046"/>
<polygon fill="#191970" stroke="#191970" points="1703.5001,-208.6426 1700,-198.6427 1696.5001,-208.6427 1703.5001,-208.6426"/>
</g>
<!-- Node2&#45;&gt;Node6 -->
<g id="edge19" class="edge">
<title>Node2&#45;&gt;Node6</title>
<path fill="none" stroke="#191970" d="M1684.4426,-235.281C1656.1803,-217.7077 1598.3606,-182.1654 1588,-179 1523.2059,-159.2038 1074.2617,-141.5768 898.9302,-135.3698"/>
<polygon fill="#191970" stroke="#191970" points="898.9001,-131.8667 888.7831,-135.0126 898.6537,-138.8624 898.9001,-131.8667"/>
</g>
<!-- Node13 -->
<g id="node14" class="node">
<title>Node13</title>
<polygon fill="#ffffff" stroke="#bfbfbf" points="1967.5,-62 1967.5,-81 2012.5,-81 2012.5,-62 1967.5,-62"/>
<text text-anchor="middle" x="1990" y="-69" font-family="Helvetica,sans-Serif" font-size="10.00" fill="#000000">utility</text>
</g>
<!-- Node2&#45;&gt;Node13 -->
<g id="edge22" class="edge">
<title>Node2&#45;&gt;Node13</title>
<path fill="none" stroke="#191970" d="M1727.604,-237.625C1753.8678,-229.993 1794.0106,-216.7025 1826,-199 1884.3016,-166.7368 1943.8733,-114.6307 1972.5132,-88.1296"/>
<polygon fill="#191970" stroke="#191970" points="1975.1453,-90.4601 1980.0593,-81.0738 1970.3644,-85.347 1975.1453,-90.4601"/>
</g>
<!-- Node16 -->
<g id="node17" class="node">
<title>Node16</title>
<polygon fill="#ffffff" stroke="#bfbfbf" points="1898,-179.5 1898,-198.5 1962,-198.5 1962,-179.5 1898,-179.5"/>
<text text-anchor="middle" x="1930" y="-186.5" font-family="Helvetica,sans-Serif" font-size="10.00" fill="#000000">algorithm</text>
</g>
<!-- Node2&#45;&gt;Node16 -->
<g id="edge20" class="edge">
<title>Node2&#45;&gt;Node16</title>
<path fill="none" stroke="#191970" d="M1727.7434,-238.2451C1767.5927,-228.5426 1841.352,-210.5838 1887.932,-199.2426"/>
<polygon fill="#191970" stroke="#191970" points="1888.8342,-202.6253 1897.7223,-196.8589 1887.1782,-195.824 1888.8342,-202.6253"/>
</g>
<!-- Node17 -->
<g id="node18" class="node">
<title>Node17</title>
<polygon fill="#ffffff" stroke="#bfbfbf" points="1388.5,-179.5 1388.5,-198.5 1471.5,-198.5 1471.5,-179.5 1388.5,-179.5"/>
<text text-anchor="middle" x="1430" y="-186.5" font-family="Helvetica,sans-Serif" font-size="10.00" fill="#000000">initializer_list</text>
</g>
<!-- Node2&#45;&gt;Node17 -->
<g id="edge21" class="edge">
<title>Node2&#45;&gt;Node17</title>
<path fill="none" stroke="#191970" d="M1672.3741,-239.2702C1627.6174,-229.9873 1538.5506,-211.5142 1481.7456,-199.7324"/>
<polygon fill="#191970" stroke="#191970" points="1482.3816,-196.2899 1471.8791,-197.686 1480.9599,-203.144 1482.3816,-196.2899"/>
</g>
<!-- Node5&#45;&gt;Node6 -->
<g id="edge6" class="edge">
<title>Node5&#45;&gt;Node6</title>
<path fill="none" stroke="#191970" d="M1635.3698,-180.4562C1630.5113,-179.9251 1625.6805,-179.4317 1621,-179 1354.7354,-154.4439 1036.8288,-140.6774 898.741,-135.4582"/>
<polygon fill="#191970" stroke="#191970" points="898.8396,-131.9595 888.7155,-135.0824 898.5773,-138.9546 898.8396,-131.9595"/>
</g>
<!-- Node12 -->
<g id="node13" class="node">
<title>Node12</title>
<polygon fill="#ffffff" stroke="#bfbfbf" points="794.5,-62 794.5,-81 863.5,-81 863.5,-62 794.5,-62"/>
<text text-anchor="middle" x="829" y="-69" font-family="Helvetica,sans-Serif" font-size="10.00" fill="#000000">type_traits</text>
</g>
<!-- Node5&#45;&gt;Node12 -->
<g id="edge17" class="edge">
<title>Node5&#45;&gt;Node12</title>
<path fill="none" stroke="#191970" d="M1635.4617,-179.9448C1543.637,-167.0939 1369.9924,-142.9135 1222,-123 1095.8979,-106.032 946.9311,-86.7079 873.9174,-77.2836"/>
<polygon fill="#191970" stroke="#191970" points="874.0734,-73.7748 863.7077,-75.9664 873.1777,-80.7172 874.0734,-73.7748"/>
</g>
<!-- Node5&#45;&gt;Node13 -->
<g id="edge18" class="edge">
<title>Node5&#45;&gt;Node13</title>
<path fill="none" stroke="#191970" d="M1723.7319,-179.3845C1775.5219,-158.4006 1898.7405,-108.4758 1957.6074,-84.6246"/>
<polygon fill="#191970" stroke="#191970" points="1959.1977,-87.7567 1967.1515,-80.7576 1956.569,-81.269 1959.1977,-87.7567"/>
</g>
<!-- Node15 -->
<g id="node16" class="node">
<title>Node15</title>
<polygon fill="#ffffff" stroke="#bfbfbf" points="1675.5,-123.5 1675.5,-142.5 1724.5,-142.5 1724.5,-123.5 1675.5,-123.5"/>
<text text-anchor="middle" x="1700" y="-130.5" font-family="Helvetica,sans-Serif" font-size="10.00" fill="#000000">cstdlib</text>
</g>
<!-- Node5&#45;&gt;Node15 -->
<g id="edge16" class="edge">
<title>Node5&#45;&gt;Node15</title>
<path fill="none" stroke="#191970" d="M1700,-179.2455C1700,-171.9382 1700,-161.6944 1700,-152.7046"/>
<polygon fill="#191970" stroke="#191970" points="1703.5001,-152.6426 1700,-142.6427 1696.5001,-152.6427 1703.5001,-152.6426"/>
</g>
<!-- Node6&#45;&gt;Node4 -->
<g id="edge11" class="edge">
<title>Node6&#45;&gt;Node4</title>
<path fill="none" stroke="#191970" d="M888.5334,-127.836C1017.9607,-116.6092 1324.6018,-90.0106 1465.2349,-77.8118"/>
<polygon fill="#191970" stroke="#191970" points="1465.8156,-81.2746 1475.4757,-76.9235 1465.2106,-74.3008 1465.8156,-81.2746"/>
</g>
<!-- Node7 -->
<g id="node8" class="node">
<title>Node7</title>
<g id="a_node8"><a xlink:href="c__runtime__api_8h.html" target="_top" xlink:title="tvm/runtime/c_runtime\l_api.h">
<polygon fill="#ffffff" stroke="#000000" points="441.5,-56.5 441.5,-86.5 570.5,-86.5 570.5,-56.5 441.5,-56.5"/>
<text text-anchor="start" x="449.5" y="-74.5" font-family="Helvetica,sans-Serif" font-size="10.00" fill="#000000">tvm/runtime/c_runtime</text>
<text text-anchor="middle" x="506" y="-63.5" font-family="Helvetica,sans-Serif" font-size="10.00" fill="#000000">_api.h</text>
</a>
</g>
</g>
<!-- Node6&#45;&gt;Node7 -->
<g id="edge7" class="edge">
<title>Node6&#45;&gt;Node7</title>
<path fill="none" stroke="#191970" d="M778.8856,-123.4581C725.8443,-113.3589 641.5497,-97.309 580.6754,-85.7184"/>
<polygon fill="#191970" stroke="#191970" points="581.2141,-82.2581 570.7359,-83.8259 579.9048,-89.1346 581.2141,-82.2581"/>
</g>
<!-- Node6&#45;&gt;Node11 -->
<g id="edge12" class="edge">
<title>Node6&#45;&gt;Node11</title>
<path fill="none" stroke="#191970" d="M769.4943,-126.4766C651.3638,-113.5265 390.8216,-84.9644 299.9883,-75.0067"/>
<polygon fill="#191970" stroke="#191970" points="300.3383,-71.5242 290.0165,-73.9136 299.5755,-78.4825 300.3383,-71.5242"/>
</g>
<!-- Node6&#45;&gt;Node12 -->
<g id="edge13" class="edge">
<title>Node6&#45;&gt;Node12</title>
<path fill="none" stroke="#191970" d="M829,-123.3906C829,-114.8657 829,-102.1392 829,-91.4235"/>
<polygon fill="#191970" stroke="#191970" points="832.5001,-91.2448 829,-81.2449 825.5001,-91.2449 832.5001,-91.2448"/>
</g>
<!-- Node6&#45;&gt;Node13 -->
<g id="edge14" class="edge">
<title>Node6&#45;&gt;Node13</title>
<path fill="none" stroke="#191970" d="M888.5724,-129.8444C1097.997,-118.7508 1796.3959,-81.7555 1956.9128,-73.2527"/>
<polygon fill="#191970" stroke="#191970" points="1957.3122,-76.7365 1967.113,-72.7124 1956.9418,-69.7463 1957.3122,-76.7365"/>
</g>
<!-- Node14 -->
<g id="node15" class="node">
<title>Node14</title>
<polygon fill="#ffffff" stroke="#bfbfbf" points="696,-62 696,-81 746,-81 746,-62 696,-62"/>
<text text-anchor="middle" x="721" y="-69" font-family="Helvetica,sans-Serif" font-size="10.00" fill="#000000">atomic</text>
</g>
<!-- Node6&#45;&gt;Node14 -->
<g id="edge15" class="edge">
<title>Node6&#45;&gt;Node14</title>
<path fill="none" stroke="#191970" d="M812.125,-123.3906C794.5302,-113.3713 766.7434,-97.5483 746.4759,-86.0071"/>
<polygon fill="#191970" stroke="#191970" points="748.1783,-82.9489 737.7565,-81.0419 744.7144,-89.0318 748.1783,-82.9489"/>
</g>
<!-- Node8 -->
<g id="node9" class="node">
<title>Node8</title>
<polygon fill="#ffffff" stroke="#bfbfbf" points="366.5,-.5 366.5,-19.5 459.5,-19.5 459.5,-.5 366.5,-.5"/>
<text text-anchor="middle" x="413" y="-7.5" font-family="Helvetica,sans-Serif" font-size="10.00" fill="#000000">dlpack/dlpack.h</text>
</g>
<!-- Node7&#45;&gt;Node8 -->
<g id="edge8" class="edge">
<title>Node7&#45;&gt;Node8</title>
<path fill="none" stroke="#191970" d="M483.0112,-56.2977C468.8034,-46.9022 450.6215,-34.8787 436.3475,-25.4395"/>
<polygon fill="#191970" stroke="#191970" points="437.8845,-22.2598 427.6128,-19.6633 434.0233,-28.0986 437.8845,-22.2598"/>
</g>
<!-- Node9 -->
<g id="node10" class="node">
<title>Node9</title>
<polygon fill="#ffffff" stroke="#bfbfbf" points="478,-.5 478,-19.5 534,-19.5 534,-.5 478,-.5"/>
<text text-anchor="middle" x="506" y="-7.5" font-family="Helvetica,sans-Serif" font-size="10.00" fill="#000000">stddef.h</text>
</g>
<!-- Node7&#45;&gt;Node9 -->
<g id="edge9" class="edge">
<title>Node7&#45;&gt;Node9</title>
<path fill="none" stroke="#191970" d="M506,-56.2977C506,-48.3834 506,-38.6043 506,-30.0759"/>
<polygon fill="#191970" stroke="#191970" points="509.5001,-29.8469 506,-19.8469 502.5001,-29.847 509.5001,-29.8469"/>
</g>
<!-- Node10 -->
<g id="node11" class="node">
<title>Node10</title>
<polygon fill="#ffffff" stroke="#bfbfbf" points="552.5,-.5 552.5,-19.5 605.5,-19.5 605.5,-.5 552.5,-.5"/>
<text text-anchor="middle" x="579" y="-7.5" font-family="Helvetica,sans-Serif" font-size="10.00" fill="#000000">stdint.h</text>
</g>
<!-- Node7&#45;&gt;Node10 -->
<g id="edge10" class="edge">
<title>Node7&#45;&gt;Node10</title>
<path fill="none" stroke="#191970" d="M524.0449,-56.2977C534.8114,-47.2274 548.4851,-35.7077 559.4995,-26.4285"/>
<polygon fill="#191970" stroke="#191970" points="561.9191,-28.9667 567.3118,-19.8469 557.4089,-23.6132 561.9191,-28.9667"/>
</g>
<!-- Node18&#45;&gt;Node11 -->
<g id="edge105" class="edge">
<title>Node18&#45;&gt;Node11</title>
<path fill="none" stroke="#191970" d="M1412.3289,-500.3958C1221.3111,-495.3093 648.1717,-478.5389 463,-456 288.4236,-434.7507 76,-549.3648 76,-373.5 76,-373.5 76,-373.5 76,-189 76,-114.8382 181.5053,-86.0597 236.0964,-76.1329"/>
<polygon fill="#191970" stroke="#191970" points="236.7093,-79.5789 245.9752,-74.4413 235.5279,-72.6793 236.7093,-79.5789"/>
</g>
<!-- Node18&#45;&gt;Node12 -->
<g id="edge106" class="edge">
<title>Node18&#45;&gt;Node12</title>
<path fill="none" stroke="#191970" d="M1412.3065,-498.8668C1159.4361,-485.8229 228,-433.6909 228,-373.5 228,-373.5 228,-373.5 228,-306.5 228,-232.5227 271.6786,-217.2497 335,-179 498.567,-80.1962 566.586,-118.8825 755,-87 764.6054,-85.3746 774.8611,-83.3889 784.5827,-81.3884"/>
<polygon fill="#191970" stroke="#191970" points="785.403,-84.7925 794.4706,-79.3127 783.9649,-77.9418 785.403,-84.7925"/>
</g>
<!-- Node18&#45;&gt;Node13 -->
<g id="edge107" class="edge">
<title>Node18&#45;&gt;Node13</title>
<path fill="none" stroke="#191970" d="M1537.7188,-495.0322C1741.5174,-471.5565 2372,-392.02 2372,-306.5 2372,-306.5 2372,-306.5 2372,-189 2372,-141.1711 2330.7505,-142.3262 2287,-123 2239.8574,-102.1754 2089.4458,-82.9094 2022.5791,-75.1309"/>
<polygon fill="#191970" stroke="#191970" points="2022.9277,-71.648 2012.5933,-73.9827 2022.128,-78.6022 2022.9277,-71.648"/>
</g>
<!-- Node19 -->
<g id="node20" class="node">
<title>Node19</title>
<g id="a_node20"><a xlink:href="packed__func_8h.html" target="_top" xlink:title="Type&#45;erased function used across TVM API. ">
<polygon fill="#ffffff" stroke="#000000" points="1268,-425.5 1268,-455.5 1384,-455.5 1384,-425.5 1268,-425.5"/>
<text text-anchor="start" x="1276" y="-443.5" font-family="Helvetica,sans-Serif" font-size="10.00" fill="#000000">tvm/runtime/packed</text>
<text text-anchor="middle" x="1326" y="-432.5" font-family="Helvetica,sans-Serif" font-size="10.00" fill="#000000">_func.h</text>
</a>
</g>
</g>
<!-- Node18&#45;&gt;Node19 -->
<g id="edge25" class="edge">
<title>Node18&#45;&gt;Node19</title>
<path fill="none" stroke="#191970" d="M1451.7188,-492.3906C1430.4331,-483.6049 1398.3358,-470.3567 1371.9016,-459.446"/>
<polygon fill="#191970" stroke="#191970" points="1373.0284,-456.1247 1362.4495,-455.5446 1370.3577,-462.5952 1373.0284,-456.1247"/>
</g>
<!-- Node18&#45;&gt;Node22 -->
<g id="edge108" class="edge">
<title>Node18&#45;&gt;Node22</title>
<path fill="none" stroke="#191970" d="M1537.7742,-496.333C1615.2996,-488.71 1742.2835,-474.0082 1786,-456 1832.4385,-436.8706 1854.3405,-433.8221 1877,-389 1900.0463,-343.4128 1854.406,-288.6207 1827.2204,-261.6563"/>
<polygon fill="#191970" stroke="#191970" points="1829.429,-258.9246 1819.793,-254.5202 1824.5792,-263.9724 1829.429,-258.9246"/>
</g>
<!-- Node19&#45;&gt;Node4 -->
<g id="edge48" class="edge">
<title>Node19&#45;&gt;Node4</title>
<path fill="none" stroke="#191970" d="M1384.3673,-437.3699C1517.1014,-429.9199 1833.4767,-410.1695 1877,-389 1950.7884,-353.1098 1973.6185,-331.2221 2004,-255 2017.6348,-220.7927 1999.0836,-202.8194 1971,-179 1917.0119,-133.2093 1719.3583,-98.0024 1610.7299,-81.6111"/>
<polygon fill="#191970" stroke="#191970" points="1611.231,-78.1472 1600.8236,-80.1313 1610.1967,-85.0704 1611.231,-78.1472"/>
</g>
<!-- Node19&#45;&gt;Node6 -->
<g id="edge96" class="edge">
<title>Node19&#45;&gt;Node6</title>
<path fill="none" stroke="#191970" d="M1267.743,-429.9926C1165.4599,-410.6205 959.0163,-367.1141 902,-322 848.2729,-279.4885 834.0432,-192.2593 830.3099,-152.9664"/>
<polygon fill="#191970" stroke="#191970" points="833.7839,-152.5035 829.4833,-142.8208 826.807,-153.072 833.7839,-152.5035"/>
</g>
<!-- Node19&#45;&gt;Node7 -->
<g id="edge26" class="edge">
<title>Node19&#45;&gt;Node7</title>
<path fill="none" stroke="#191970" d="M1267.8453,-438.9352C1066.7171,-433.3305 407.8722,-413.2939 316,-389 237.1194,-368.1414 152,-388.0919 152,-306.5 152,-306.5 152,-306.5 152,-189 152,-130.6399 327.4944,-96.2114 431.3545,-80.9462"/>
<polygon fill="#191970" stroke="#191970" points="432.0849,-84.3772 441.4826,-79.4848 431.0852,-77.4489 432.0849,-84.3772"/>
</g>
<!-- Node19&#45;&gt;Node11 -->
<g id="edge100" class="edge">
<title>Node19&#45;&gt;Node11</title>
<path fill="none" stroke="#191970" d="M1267.9909,-439.328C1040.6498,-434.5531 220.4465,-415.5494 172,-389 132.6941,-367.4597 114,-351.3212 114,-306.5 114,-306.5 114,-306.5 114,-189 114,-128.0332 191.2296,-94.4897 236.307,-80.1037"/>
<polygon fill="#191970" stroke="#191970" points="237.3929,-83.4317 245.9356,-77.1648 235.3494,-76.7366 237.3929,-83.4317"/>
</g>
<!-- Node19&#45;&gt;Node12 -->
<g id="edge102" class="edge">
<title>Node19&#45;&gt;Node12</title>
<path fill="none" stroke="#191970" d="M1267.9583,-434.9106C1182.7745,-426.2084 1028.3358,-408.3942 976,-389 923.7398,-369.6339 909.1594,-361.6575 870,-322 804.3913,-255.5567 785.4025,-232.855 760,-143 757.5818,-134.4464 756.0155,-130.9458 760,-123 768.0248,-106.9968 783.6431,-94.6956 797.9934,-86.135"/>
<polygon fill="#191970" stroke="#191970" points="800.1066,-88.9649 807.1479,-81.0484 796.7067,-82.846 800.1066,-88.9649"/>
</g>
<!-- Node19&#45;&gt;Node13 -->
<g id="edge103" class="edge">
<title>Node19&#45;&gt;Node13</title>
<path fill="none" stroke="#191970" d="M1384.2567,-436.9007C1583.2179,-424.1363 2227.5335,-378.7432 2300,-322 2329.4546,-298.9363 2334,-282.41 2334,-245 2334,-245 2334,-245 2334,-189 2334,-140.1111 2290.6197,-142.9801 2246,-123 2170.6394,-89.2546 2072.9284,-77.4581 2022.8166,-73.4601"/>
<polygon fill="#191970" stroke="#191970" points="2022.8139,-69.9504 2012.5822,-72.7004 2022.2956,-76.9312 2022.8139,-69.9504"/>
</g>
<!-- Node20 -->
<g id="node21" class="node">
<title>Node20</title>
<g id="a_node21"><a xlink:href="array_8h.html" target="_top" xlink:title="Runtime Array container types. ">
<polygon fill="#ffffff" stroke="#000000" points="1522,-358.5 1522,-388.5 1648,-388.5 1648,-358.5 1522,-358.5"/>
<text text-anchor="start" x="1530" y="-376.5" font-family="Helvetica,sans-Serif" font-size="10.00" fill="#000000">tvm/runtime/container</text>
<text text-anchor="middle" x="1585" y="-365.5" font-family="Helvetica,sans-Serif" font-size="10.00" fill="#000000">/array.h</text>
</a>
</g>
</g>
<!-- Node19&#45;&gt;Node20 -->
<g id="edge27" class="edge">
<title>Node19&#45;&gt;Node20</title>
<path fill="none" stroke="#191970" d="M1384.1247,-425.4639C1423.476,-415.2842 1475.6146,-401.7966 1516.911,-391.1138"/>
<polygon fill="#191970" stroke="#191970" points="1517.8171,-394.4947 1526.6218,-388.6017 1516.0639,-387.7177 1517.8171,-394.4947"/>
</g>
<!-- Node21 -->
<g id="node22" class="node">
<title>Node21</title>
<polygon fill="#ffffff" stroke="#bfbfbf" points="1558,-235.5 1558,-254.5 1616,-254.5 1616,-235.5 1558,-235.5"/>
<text text-anchor="middle" x="1587" y="-242.5" font-family="Helvetica,sans-Serif" font-size="10.00" fill="#000000">memory</text>
</g>
<!-- Node19&#45;&gt;Node21 -->
<g id="edge99" class="edge">
<title>Node19&#45;&gt;Node21</title>
<path fill="none" stroke="#191970" d="M1336.2556,-425.2834C1348.2849,-407.9968 1369.349,-379.413 1391,-358 1425.6998,-323.6817 1435.8373,-315.5792 1478,-291 1500.6203,-277.8132 1527.7404,-266.3532 1549.27,-258.17"/>
<polygon fill="#191970" stroke="#191970" points="1550.5824,-261.4161 1558.7323,-254.6463 1548.1395,-254.8562 1550.5824,-261.4161"/>
</g>
<!-- Node19&#45;&gt;Node22 -->
<g id="edge104" class="edge">
<title>Node19&#45;&gt;Node22</title>
<path fill="none" stroke="#191970" d="M1384.1144,-435.6455C1465.863,-428.1116 1610.0808,-412.034 1657,-389 1718.7738,-358.6734 1772.3071,-294.4517 1796.0058,-263.0503"/>
<polygon fill="#191970" stroke="#191970" points="1798.995,-264.8949 1802.131,-254.7748 1793.3685,-260.7304 1798.995,-264.8949"/>
</g>
<!-- Node24 -->
<g id="node25" class="node">
<title>Node24</title>
<g id="a_node25"><a xlink:href="map_8h.html" target="_top" xlink:title="Runtime Map container types. ">
<polygon fill="#ffffff" stroke="#000000" points="1742,-358.5 1742,-388.5 1868,-388.5 1868,-358.5 1742,-358.5"/>
<text text-anchor="start" x="1750" y="-376.5" font-family="Helvetica,sans-Serif" font-size="10.00" fill="#000000">tvm/runtime/container</text>
<text text-anchor="middle" x="1805" y="-365.5" font-family="Helvetica,sans-Serif" font-size="10.00" fill="#000000">/map.h</text>
</a>
</g>
</g>
<!-- Node19&#45;&gt;Node24 -->
<g id="edge37" class="edge">
<title>Node19&#45;&gt;Node24</title>
<path fill="none" stroke="#191970" d="M1384.2559,-432.3515C1471.579,-420.1372 1636.3155,-397.0947 1731.693,-383.7538"/>
<polygon fill="#191970" stroke="#191970" points="1732.4168,-387.1867 1741.8355,-382.3351 1731.447,-380.2542 1732.4168,-387.1867"/>
</g>
<!-- Node26 -->
<g id="node27" class="node">
<title>Node26</title>
<g id="a_node27"><a xlink:href="data__type_8h.html" target="_top" xlink:title="tvm/runtime/data_type.h">
<polygon fill="#ffffff" stroke="#000000" points="486,-123.5 486,-142.5 624,-142.5 624,-123.5 486,-123.5"/>
<text text-anchor="middle" x="555" y="-130.5" font-family="Helvetica,sans-Serif" font-size="10.00" fill="#000000">tvm/runtime/data_type.h</text>
</a>
</g>
</g>
<!-- Node19&#45;&gt;Node26 -->
<g id="edge43" class="edge">
<title>Node19&#45;&gt;Node26</title>
<path fill="none" stroke="#191970" d="M1267.7603,-439.4302C1098.9351,-435.9529 611.4472,-423.1539 456,-389 376.2762,-371.4836 331.0005,-389.429 285,-322 263.2092,-290.0583 263.0143,-266.8079 285,-235 310.5265,-198.0694 432.5999,-162.865 503.5578,-145.0638"/>
<polygon fill="#191970" stroke="#191970" points="504.7741,-148.3683 513.6385,-142.5655 503.0902,-141.5738 504.7741,-148.3683"/>
</g>
<!-- Node27 -->
<g id="node28" class="node">
<title>Node27</title>
<g id="a_node28"><a xlink:href="runtime_2module_8h.html" target="_top" xlink:title="Runtime container of the functions generated by TVM, This is used to support dynamically link...">
<polygon fill="#ffffff" stroke="#000000" points="1218,-364 1218,-383 1344,-383 1344,-364 1218,-364"/>
<text text-anchor="middle" x="1281" y="-371" font-family="Helvetica,sans-Serif" font-size="10.00" fill="#000000">tvm/runtime/module.h</text>
</a>
</g>
</g>
<!-- Node19&#45;&gt;Node27 -->
<g id="edge49" class="edge">
<title>Node19&#45;&gt;Node27</title>
<path fill="none" stroke="#191970" d="M1310.028,-425.2967C1302.2405,-415.4658 1293.4805,-402.6026 1287.4065,-392.1545"/>
<polygon fill="#191970" stroke="#191970" points="1290.3368,-390.2128 1282.5256,-383.055 1284.1682,-393.5217 1290.3368,-390.2128"/>
</g>
<!-- Node34 -->
<g id="node35" class="node">
<title>Node34</title>
<g id="a_node35"><a xlink:href="ndarray_8h.html" target="_top" xlink:title="A device&#45;independent managed NDArray abstraction. ">
<polygon fill="#ffffff" stroke="#000000" points="576.5,-364 576.5,-383 701.5,-383 701.5,-364 576.5,-364"/>
<text text-anchor="middle" x="639" y="-371" font-family="Helvetica,sans-Serif" font-size="10.00" fill="#000000">tvm/runtime/ndarray.h</text>
</a>
</g>
</g>
<!-- Node19&#45;&gt;Node34 -->
<g id="edge77" class="edge">
<title>Node19&#45;&gt;Node34</title>
<path fill="none" stroke="#191970" d="M1267.7163,-437.8034C1158.8738,-432.275 917.493,-417.6898 716,-389 708.2164,-387.8917 700.0331,-386.4964 692.0249,-384.9996"/>
<polygon fill="#191970" stroke="#191970" points="692.501,-381.5269 682.0182,-383.0634 691.1712,-388.3994 692.501,-381.5269"/>
</g>
<!-- Node38 -->
<g id="node39" class="node">
<title>Node38</title>
<polygon fill="#ffffff" stroke="#bfbfbf" points="294.5,-297 294.5,-316 359.5,-316 359.5,-297 294.5,-297"/>
<text text-anchor="middle" x="327" y="-304" font-family="Helvetica,sans-Serif" font-size="10.00" fill="#000000">functional</text>
</g>
<!-- Node19&#45;&gt;Node38 -->
<g id="edge97" class="edge">
<title>Node19&#45;&gt;Node38</title>
<path fill="none" stroke="#191970" d="M1267.9574,-438.5029C1114.5691,-432.9152 701.0519,-415.7579 567,-389 489.4732,-373.525 402.7214,-339.2141 357.7617,-320.0735"/>
<polygon fill="#191970" stroke="#191970" points="358.8693,-316.74 348.3,-316.0057 356.1045,-323.1709 358.8693,-316.74"/>
</g>
<!-- Node39 -->
<g id="node40" class="node">
<title>Node39</title>
<polygon fill="#ffffff" stroke="#bfbfbf" points="1400,-364 1400,-383 1444,-383 1444,-364 1400,-364"/>
<text text-anchor="middle" x="1422" y="-371" font-family="Helvetica,sans-Serif" font-size="10.00" fill="#000000">limits</text>
</g>
<!-- Node19&#45;&gt;Node39 -->
<g id="edge98" class="edge">
<title>Node19&#45;&gt;Node39</title>
<path fill="none" stroke="#191970" d="M1347.7839,-425.2967C1363.322,-414.4524 1384.1471,-399.9182 1399.7824,-389.006"/>
<polygon fill="#191970" stroke="#191970" points="1402.1121,-391.6483 1408.3093,-383.055 1398.1058,-385.908 1402.1121,-391.6483"/>
</g>
<!-- Node40 -->
<g id="node41" class="node">
<title>Node40</title>
<polygon fill="#ffffff" stroke="#bfbfbf" points="1462.5,-364 1462.5,-383 1503.5,-383 1503.5,-364 1462.5,-364"/>
<text text-anchor="middle" x="1483" y="-371" font-family="Helvetica,sans-Serif" font-size="10.00" fill="#000000">tuple</text>
</g>
<!-- Node19&#45;&gt;Node40 -->
<g id="edge101" class="edge">
<title>Node19&#45;&gt;Node40</title>
<path fill="none" stroke="#191970" d="M1365.8709,-425.4151C1391.0949,-415.6063 1424.2508,-402.2222 1453,-389 1453.9853,-388.5468 1454.9849,-388.0782 1455.9916,-387.5987"/>
<polygon fill="#191970" stroke="#191970" points="1457.6387,-390.6888 1465.0472,-383.1148 1454.5325,-384.4157 1457.6387,-390.6888"/>
</g>
<!-- Node20&#45;&gt;Node2 -->
<g id="edge33" class="edge">
<title>Node20&#45;&gt;Node2</title>
<path fill="none" stroke="#191970" d="M1573.1611,-358.4898C1560.8134,-340.8786 1545.1671,-311.4867 1560,-291 1566.2283,-282.3977 1623.2755,-265.6022 1662.5974,-254.8611"/>
<polygon fill="#191970" stroke="#191970" points="1663.6798,-258.1941 1672.4181,-252.2031 1661.8509,-251.4372 1663.6798,-258.1941"/>
</g>
<!-- Node20&#45;&gt;Node12 -->
<g id="edge30" class="edge">
<title>Node20&#45;&gt;Node12</title>
<path fill="none" stroke="#191970" d="M1569.6366,-358.2074C1554.3832,-341.1017 1535.128,-312.9205 1549,-291 1568.9866,-259.4172 1591.4782,-271.5296 1625,-255 1642.4711,-246.385 1646.0209,-242.4972 1664,-235 1711.478,-215.202 1743.8083,-240.6484 1774,-199 1796.1802,-168.4032 1751.8207,-132.8212 1734,-123 1658.3152,-81.2893 1046.26,-73.2416 873.9771,-71.7972"/>
<polygon fill="#191970" stroke="#191970" points="873.7709,-68.2956 863.743,-71.7149 873.7145,-75.2953 873.7709,-68.2956"/>
</g>
<!-- Node20&#45;&gt;Node13 -->
<g id="edge31" class="edge">
<title>Node20&#45;&gt;Node13</title>
<path fill="none" stroke="#191970" d="M1648.1777,-365.6726C1721.023,-356.063 1835.8871,-338.9469 1876,-322 1922.9266,-302.1744 1937.7496,-295.2315 1969,-255 2006.5265,-206.6887 2018.2362,-183.3112 2008,-123 2006.1145,-111.8909 2002.0941,-99.9848 1998.3302,-90.4217"/>
<polygon fill="#191970" stroke="#191970" points="2001.5309,-89.0029 1994.4599,-81.1129 1995.0673,-91.6903 2001.5309,-89.0029"/>
</g>
<!-- Node20&#45;&gt;Node16 -->
<g id="edge28" class="edge">
<title>Node20&#45;&gt;Node16</title>
<path fill="none" stroke="#191970" d="M1648.1025,-362.3468C1743.383,-344.077 1916.7373,-304.7733 1953,-255 1963.4331,-240.6797 1954.4822,-221.2238 1944.8653,-207.1494"/>
<polygon fill="#191970" stroke="#191970" points="1947.4221,-204.7221 1938.6466,-198.7857 1941.8047,-208.8989 1947.4221,-204.7221"/>
</g>
<!-- Node20&#45;&gt;Node21 -->
<g id="edge29" class="edge">
<title>Node20&#45;&gt;Node21</title>
<path fill="none" stroke="#191970" d="M1533.5709,-358.4517C1515.9705,-350.5673 1498.1689,-338.9122 1488,-322 1480.9003,-310.1923 1480.5893,-302.615 1488,-291 1495.1095,-279.8571 1523.8621,-267.2007 1548.5622,-257.9881"/>
<polygon fill="#191970" stroke="#191970" points="1549.9211,-261.2183 1558.1242,-254.513 1547.5301,-254.6393 1549.9211,-261.2183"/>
</g>
<!-- Node20&#45;&gt;Node22 -->
<g id="edge32" class="edge">
<title>Node20&#45;&gt;Node22</title>
<path fill="none" stroke="#191970" d="M1614.5251,-358.3804C1633.8677,-348.3392 1659.6185,-334.7128 1682,-322 1718.5416,-301.2442 1760.0315,-275.7065 1785.3575,-259.8887"/>
<polygon fill="#191970" stroke="#191970" points="1787.3002,-262.8018 1793.9176,-254.5277 1783.5848,-256.8692 1787.3002,-262.8018"/>
</g>
<!-- Node23 -->
<g id="node24" class="node">
<title>Node23</title>
<g id="a_node24"><a xlink:href="optional_8h.html" target="_top" xlink:title="Runtime Optional container types. ">
<polygon fill="#ffffff" stroke="#000000" points="1568.5,-297 1568.5,-316 1639.5,-316 1639.5,-297 1568.5,-297"/>
<text text-anchor="middle" x="1604" y="-304" font-family="Helvetica,sans-Serif" font-size="10.00" fill="#000000">./optional.h</text>
</a>
</g>
</g>
<!-- Node20&#45;&gt;Node23 -->
<g id="edge34" class="edge">
<title>Node20&#45;&gt;Node23</title>
<path fill="none" stroke="#191970" d="M1589.3114,-358.2967C1592.0418,-348.6685 1595.597,-336.1318 1598.5258,-325.8038"/>
<polygon fill="#191970" stroke="#191970" points="1601.9293,-326.6305 1601.2904,-316.055 1595.1948,-324.7207 1601.9293,-326.6305"/>
</g>
<!-- Node23&#45;&gt;Node2 -->
<g id="edge36" class="edge">
<title>Node23&#45;&gt;Node2</title>
<path fill="none" stroke="#191970" d="M1619,-296.8906C1634.3581,-287.0519 1658.4521,-271.6167 1676.3745,-260.1351"/>
<polygon fill="#191970" stroke="#191970" points="1678.573,-262.8833 1685.1053,-254.5419 1674.797,-256.9891 1678.573,-262.8833"/>
</g>
<!-- Node23&#45;&gt;Node13 -->
<g id="edge35" class="edge">
<title>Node23&#45;&gt;Node13</title>
<path fill="none" stroke="#191970" d="M1628.9194,-296.9965C1664.5105,-283.4007 1726.7537,-259.5333 1737,-255 1755.1766,-246.9581 1758.1552,-241.3196 1777,-235 1860.1436,-207.1179 1910.1028,-262.1015 1971,-199 1998.8648,-170.1266 1997.0179,-119.1552 1993.4096,-91.2031"/>
<polygon fill="#191970" stroke="#191970" points="1996.8357,-90.4486 1991.891,-81.0784 1989.9131,-91.487 1996.8357,-90.4486"/>
</g>
<!-- Node24&#45;&gt;Node2 -->
<g id="edge41" class="edge">
<title>Node24&#45;&gt;Node2</title>
<path fill="none" stroke="#191970" d="M1792.5428,-358.2548C1773.0081,-334.3481 1735.2632,-288.1554 1714.524,-262.7747"/>
<polygon fill="#191970" stroke="#191970" points="1716.9931,-260.2648 1707.9553,-254.7358 1711.5725,-264.694 1716.9931,-260.2648"/>
</g>
<!-- Node24&#45;&gt;Node13 -->
<g id="edge40" class="edge">
<title>Node24&#45;&gt;Node13</title>
<path fill="none" stroke="#191970" d="M1868.41,-370.581C1990.047,-364.4089 2246.8339,-348.3926 2277,-322 2303.5285,-298.79 2296,-280.2487 2296,-245 2296,-245 2296,-245 2296,-189 2296,-130.8621 2101.0651,-90.6772 2022.3696,-76.8232"/>
<polygon fill="#191970" stroke="#191970" points="2022.951,-73.3719 2012.5009,-75.1172 2021.7585,-80.2696 2022.951,-73.3719"/>
</g>
<!-- Node24&#45;&gt;Node16 -->
<g id="edge38" class="edge">
<title>Node24&#45;&gt;Node16</title>
<path fill="none" stroke="#191970" d="M1868.1008,-363.7758C1914.3873,-355.2031 1971.5782,-341.0977 1986,-322 2009.3018,-291.1433 2002.5243,-269.958 1986,-235 1979.9754,-222.2547 1968.4968,-211.8542 1957.4926,-204.1874"/>
<polygon fill="#191970" stroke="#191970" points="1959.1828,-201.1127 1948.8824,-198.6324 1955.3879,-206.9948 1959.1828,-201.1127"/>
</g>
<!-- Node24&#45;&gt;Node23 -->
<g id="edge42" class="edge">
<title>Node24&#45;&gt;Node23</title>
<path fill="none" stroke="#191970" d="M1759.8917,-358.4639C1724.5424,-346.6808 1675.897,-330.4657 1642.3953,-319.2984"/>
<polygon fill="#191970" stroke="#191970" points="1643.1095,-315.8472 1632.5159,-316.0053 1640.8959,-322.488 1643.1095,-315.8472"/>
</g>
<!-- Node24&#45;&gt;Node25 -->
<g id="edge39" class="edge">
<title>Node24&#45;&gt;Node25</title>
<path fill="none" stroke="#191970" d="M1831.7015,-358.3975C1845.4609,-349.4094 1861.5083,-336.8621 1872,-322 1884.118,-304.8341 1890.6085,-281.4576 1893.9116,-264.9784"/>
<polygon fill="#191970" stroke="#191970" points="1897.4108,-265.2917 1895.719,-254.8328 1890.5193,-264.0639 1897.4108,-265.2917"/>
</g>
<!-- Node26&#45;&gt;Node4 -->
<g id="edge45" class="edge">
<title>Node26&#45;&gt;Node4</title>
<path fill="none" stroke="#191970" d="M624.1227,-128.6754C803.4055,-117.4589 1282.1072,-87.5096 1465.302,-76.0482"/>
<polygon fill="#191970" stroke="#191970" points="1465.6094,-79.536 1475.3713,-75.4183 1465.1722,-72.5496 1465.6094,-79.536"/>
</g>
<!-- Node26&#45;&gt;Node7 -->
<g id="edge44" class="edge">
<title>Node26&#45;&gt;Node7</title>
<path fill="none" stroke="#191970" d="M547.3438,-123.3906C541.2034,-115.6839 532.3272,-104.5434 524.3721,-94.5589"/>
<polygon fill="#191970" stroke="#191970" points="526.9556,-92.1847 517.9867,-86.5446 521.4808,-96.5467 526.9556,-92.1847"/>
</g>
<!-- Node26&#45;&gt;Node11 -->
<g id="edge46" class="edge">
<title>Node26&#45;&gt;Node11</title>
<path fill="none" stroke="#191970" d="M510.4711,-123.4581C452.1407,-110.9587 351.2719,-89.344 299.9658,-78.3498"/>
<polygon fill="#191970" stroke="#191970" points="300.609,-74.9083 290.0976,-76.2352 299.1423,-81.7529 300.609,-74.9083"/>
</g>
<!-- Node26&#45;&gt;Node12 -->
<g id="edge47" class="edge">
<title>Node26&#45;&gt;Node12</title>
<path fill="none" stroke="#191970" d="M597.5119,-123.4581C648.2433,-112.0713 732.6782,-93.1197 784.3396,-81.5241"/>
<polygon fill="#191970" stroke="#191970" points="785.2245,-84.9127 794.2152,-79.3075 783.6914,-78.0826 785.2245,-84.9127"/>
</g>
<!-- Node27&#45;&gt;Node5 -->
<g id="edge69" class="edge">
<title>Node27&#45;&gt;Node5</title>
<path fill="none" stroke="#191970" d="M1290.5515,-363.7579C1311.4332,-342.4938 1359.6397,-293.6051 1364,-291 1412.8063,-261.8399 1568.8617,-221.0241 1649.9726,-201.0174"/>
<polygon fill="#191970" stroke="#191970" points="1651.0771,-204.3502 1659.9543,-198.567 1649.4082,-197.552 1651.0771,-204.3502"/>
</g>
<!-- Node27&#45;&gt;Node6 -->
<g id="edge70" class="edge">
<title>Node27&#45;&gt;Node6</title>
<path fill="none" stroke="#191970" d="M1217.7738,-370.4541C1131.6987,-365.2307 983.2704,-352.0656 939,-322 877.5647,-280.2771 845.7915,-191.9679 834.2197,-152.6253"/>
<polygon fill="#191970" stroke="#191970" points="837.5626,-151.5839 831.4837,-142.9066 830.8245,-153.4809 837.5626,-151.5839"/>
</g>
<!-- Node27&#45;&gt;Node7 -->
<g id="edge51" class="edge">
<title>Node27&#45;&gt;Node7</title>
<path fill="none" stroke="#191970" d="M1217.815,-367.5715C1133.278,-359.0273 988.2906,-342.0549 939,-322 877.6482,-297.0377 873.2625,-271.5132 818,-235 737.8072,-182.0147 718.9186,-166.0849 633,-123 608.6994,-110.8142 580.792,-99.247 557.3379,-90.1738"/>
<polygon fill="#191970" stroke="#191970" points="558.5088,-86.8744 547.9183,-86.5704 556.0077,-93.4123 558.5088,-86.8744"/>
</g>
<!-- Node27&#45;&gt;Node11 -->
<g id="edge73" class="edge">
<title>Node27&#45;&gt;Node11</title>
<path fill="none" stroke="#191970" d="M1217.7276,-369.5834C1141.7385,-363.8126 1010.8949,-350.4641 902,-322 659.1965,-258.5334 383.6328,-128.3356 296.1732,-85.5023"/>
<polygon fill="#191970" stroke="#191970" points="297.6603,-82.3333 287.142,-81.0616 294.5715,-88.615 297.6603,-82.3333"/>
</g>
<!-- Node27&#45;&gt;Node19 -->
<g id="edge76" class="edge">
<title>Node27&#45;&gt;Node19</title>
<path fill="none" stroke="#191970" d="M1292.3095,-383.055C1299.8382,-391.7473 1309.2396,-404.9456 1316.3834,-416.5001"/>
<polygon fill="#191970" stroke="#191970" points="1313.4674,-418.4463 1321.5496,-425.2967 1319.5034,-414.9013 1313.4674,-418.4463"/>
</g>
<!-- Node27&#45;&gt;Node21 -->
<g id="edge71" class="edge">
<title>Node27&#45;&gt;Node21</title>
<path fill="none" stroke="#191970" d="M1296.656,-363.9023C1313.382,-353.6214 1340.645,-336.7857 1364,-322 1385.4571,-308.4158 1388.7625,-301.2449 1412,-291 1424.4525,-285.51 1500.2296,-266.3757 1547.8976,-254.5841"/>
<polygon fill="#191970" stroke="#191970" points="1549.0304,-257.9096 1557.9004,-252.1153 1547.353,-251.1135 1549.0304,-257.9096"/>
</g>
<!-- Node27&#45;&gt;Node22 -->
<g id="edge75" class="edge">
<title>Node27&#45;&gt;Node22</title>
<path fill="none" stroke="#191970" d="M1344.1112,-364.5922C1359.4547,-362.4306 1375.8163,-360.1291 1391,-358 1505.6559,-341.9227 1544.5678,-371.9835 1649,-322 1667.1512,-313.3125 1664.8533,-301.5323 1682,-291 1697.9569,-281.1984 1743.436,-265.7222 1775.3892,-255.4671"/>
<polygon fill="#191970" stroke="#191970" points="1776.7658,-258.7021 1785.2339,-252.3348 1774.6434,-252.0316 1776.7658,-258.7021"/>
</g>
<!-- Node27&#45;&gt;Node25 -->
<g id="edge74" class="edge">
<title>Node27&#45;&gt;Node25</title>
<path fill="none" stroke="#191970" d="M1344.0901,-364.4374C1359.4343,-362.281 1375.8015,-360.0206 1391,-358 1518.871,-341 1553.4582,-351.6523 1679,-322 1747.1703,-305.8986 1823.7016,-275.9683 1865.5171,-258.545"/>
<polygon fill="#191970" stroke="#191970" points="1867.0195,-261.7102 1874.8825,-254.6093 1864.3075,-255.2569 1867.0195,-261.7102"/>
</g>
<!-- Node28 -->
<g id="node29" class="node">
<title>Node28</title>
<polygon fill="#ffffff" stroke="#bfbfbf" points="486,-235.5 486,-254.5 548,-254.5 548,-235.5 486,-235.5"/>
<text text-anchor="middle" x="517" y="-242.5" font-family="Helvetica,sans-Serif" font-size="10.00" fill="#000000">dmlc/io.h</text>
</g>
<!-- Node27&#45;&gt;Node28 -->
<g id="edge50" class="edge">
<title>Node27&#45;&gt;Node28</title>
<path fill="none" stroke="#191970" d="M1217.886,-368.8486C1130.3362,-361.8166 967.2986,-346.6237 830,-322 731.3286,-304.3039 617.4867,-273.6702 558.0203,-256.8702"/>
<polygon fill="#191970" stroke="#191970" points="558.8349,-253.4632 548.2591,-254.0985 556.9228,-260.197 558.8349,-253.4632"/>
</g>
<!-- Node29 -->
<g id="node30" class="node">
<title>Node29</title>
<g id="a_node30"><a xlink:href="string_8h.html" target="_top" xlink:title="Runtime String container types. ">
<polygon fill="#ffffff" stroke="#000000" points="948,-291.5 948,-321.5 1074,-321.5 1074,-291.5 948,-291.5"/>
<text text-anchor="start" x="956" y="-309.5" font-family="Helvetica,sans-Serif" font-size="10.00" fill="#000000">tvm/runtime/container</text>
<text text-anchor="middle" x="1011" y="-298.5" font-family="Helvetica,sans-Serif" font-size="10.00" fill="#000000">/string.h</text>
</a>
</g>
</g>
<!-- Node27&#45;&gt;Node29 -->
<g id="edge52" class="edge">
<title>Node27&#45;&gt;Node29</title>
<path fill="none" stroke="#191970" d="M1242.6023,-363.9717C1200.7491,-353.5859 1132.8822,-336.7449 1081.4077,-323.9715"/>
<polygon fill="#191970" stroke="#191970" points="1082.2194,-320.5669 1071.6708,-321.5553 1080.5335,-327.3608 1082.2194,-320.5669"/>
</g>
<!-- Node33 -->
<g id="node34" class="node">
<title>Node33</title>
<polygon fill="#ffffff" stroke="#bfbfbf" points="1274,-297 1274,-316 1322,-316 1322,-297 1274,-297"/>
<text text-anchor="middle" x="1298" y="-304" font-family="Helvetica,sans-Serif" font-size="10.00" fill="#000000">mutex</text>
</g>
<!-- Node27&#45;&gt;Node33 -->
<g id="edge72" class="edge">
<title>Node27&#45;&gt;Node33</title>
<path fill="none" stroke="#191970" d="M1283.4357,-363.9005C1285.9352,-354.0495 1289.8945,-338.4451 1293.0545,-325.9912"/>
<polygon fill="#191970" stroke="#191970" points="1296.5019,-326.6353 1295.5688,-316.0817 1289.7169,-324.9137 1296.5019,-326.6353"/>
</g>
<!-- Node29&#45;&gt;Node2 -->
<g id="edge54" class="edge">
<title>Node29&#45;&gt;Node2</title>
<path fill="none" stroke="#191970" d="M1074.1231,-292.3668C1077.1173,-291.8678 1080.0876,-291.408 1083,-291 1322.0851,-257.507 1384.7729,-278.9666 1625,-255 1637.1317,-253.7897 1650.3248,-252.1425 1662.2152,-250.5344"/>
<polygon fill="#191970" stroke="#191970" points="1662.8436,-253.9809 1672.2695,-249.1432 1661.8841,-247.0469 1662.8436,-253.9809"/>
</g>
<!-- Node29&#45;&gt;Node3 -->
<g id="edge53" class="edge">
<title>Node29&#45;&gt;Node3</title>
<path fill="none" stroke="#191970" d="M1074.1612,-292.6094C1077.1452,-292.0455 1080.1029,-291.5056 1083,-291 1201.3914,-270.3377 1234.2589,-283.5478 1351,-255 1405.7279,-241.6169 1466.8364,-217.6506 1502.7716,-202.5764"/>
<polygon fill="#191970" stroke="#191970" points="1504.3708,-205.7002 1512.2134,-198.5767 1501.6403,-199.2546 1504.3708,-205.7002"/>
</g>
<!-- Node29&#45;&gt;Node4 -->
<g id="edge55" class="edge">
<title>Node29&#45;&gt;Node4</title>
<path fill="none" stroke="#191970" d="M1073.0284,-291.488C1123.5251,-278.9399 1188.1654,-262.0053 1199,-255 1262.8913,-213.6897 1243.1537,-162.7944 1308,-123 1334.0736,-106.9993 1408.1518,-92.121 1465.2634,-82.5125"/>
<polygon fill="#191970" stroke="#191970" points="1466.0603,-85.9282 1475.3531,-80.8396 1464.9153,-79.0225 1466.0603,-85.9282"/>
</g>
<!-- Node29&#45;&gt;Node5 -->
<g id="edge56" class="edge">
<title>Node29&#45;&gt;Node5</title>
<path fill="none" stroke="#191970" d="M1074.1492,-292.5383C1077.1364,-291.9934 1080.0981,-291.477 1083,-291 1222.0454,-268.1446 1259.3498,-280.1421 1398,-255 1434.0617,-248.4608 1442.2711,-243.1642 1478,-235 1533.1153,-222.4059 1596.2706,-209.4631 1641.0927,-200.5276"/>
<polygon fill="#191970" stroke="#191970" points="1641.8107,-203.9535 1650.9364,-198.5709 1640.4459,-197.0878 1641.8107,-203.9535"/>
</g>
<!-- Node29&#45;&gt;Node6 -->
<g id="edge57" class="edge">
<title>Node29&#45;&gt;Node6</title>
<path fill="none" stroke="#191970" d="M1067.8554,-291.4687C1110.5505,-279.6092 1162.7083,-263.6682 1169,-255 1174.2214,-247.8063 1174.306,-242.1315 1169,-235 1136.6776,-191.5577 988.5238,-159.6943 898.7903,-143.9832"/>
<polygon fill="#191970" stroke="#191970" points="899.1353,-140.4911 888.6857,-142.239 897.9445,-147.3891 899.1353,-140.4911"/>
</g>
<!-- Node29&#45;&gt;Node11 -->
<g id="edge63" class="edge">
<title>Node29&#45;&gt;Node11</title>
<path fill="none" stroke="#191970" d="M947.9891,-296.4387C800.0791,-272.0239 435.2076,-206.9306 330,-143 308.1684,-129.7338 289.9851,-106.2069 279.0718,-89.7769"/>
<polygon fill="#191970" stroke="#191970" points="281.8394,-87.607 273.5138,-81.0545 275.936,-91.3688 281.8394,-87.607"/>
</g>
<!-- Node29&#45;&gt;Node12 -->
<g id="edge65" class="edge">
<title>Node29&#45;&gt;Node12</title>
<path fill="none" stroke="#191970" d="M1074.1638,-291.5809C1120.7131,-279.9491 1177.0923,-264.2637 1184,-255 1189.3136,-247.8741 1188.2774,-242.7921 1184,-235 1121.6579,-121.4331 954.8434,-86.3208 874.0667,-75.8083"/>
<polygon fill="#191970" stroke="#191970" points="874.0767,-72.2832 863.7242,-74.5362 873.2221,-79.2309 874.0767,-72.2832"/>
</g>
<!-- Node29&#45;&gt;Node13 -->
<g id="edge67" class="edge">
<title>Node29&#45;&gt;Node13</title>
<path fill="none" stroke="#191970" d="M1074.1014,-292.3224C1132.0325,-279.142 1210.9498,-260.7096 1225,-255 1286.2934,-230.0921 1294.3156,-209.552 1353,-179 1406.637,-151.0758 1418.595,-138.6699 1477,-123 1568.4534,-98.4633 1859.1264,-79.3081 1957.2695,-73.3981"/>
<polygon fill="#191970" stroke="#191970" points="1957.7006,-76.8787 1967.4746,-72.7897 1957.284,-69.8911 1957.7006,-76.8787"/>
</g>
<!-- Node29&#45;&gt;Node16 -->
<g id="edge58" class="edge">
<title>Node29&#45;&gt;Node16</title>
<path fill="none" stroke="#191970" d="M1074.1396,-292.4786C1077.1294,-291.9497 1080.0942,-291.453 1083,-291 1245.8122,-265.6189 1289.0789,-279.6722 1452,-255 1495.5217,-248.4092 1505.5566,-242.0887 1549,-235 1671.277,-215.048 1816.9421,-199.8105 1887.5005,-192.9658"/>
<polygon fill="#191970" stroke="#191970" points="1888.141,-196.4204 1897.7597,-191.9785 1887.4704,-189.4526 1888.141,-196.4204"/>
</g>
<!-- Node29&#45;&gt;Node17 -->
<g id="edge61" class="edge">
<title>Node29&#45;&gt;Node17</title>
<path fill="none" stroke="#191970" d="M1074.174,-292.6805C1077.1546,-292.0976 1080.1081,-291.5342 1083,-291 1186.041,-271.9655 1217.1808,-289.8499 1316,-255 1350.6889,-242.7665 1386.7891,-219.8525 1408.8342,-204.5078"/>
<polygon fill="#191970" stroke="#191970" points="1410.9716,-207.2828 1417.1053,-198.644 1406.9231,-201.5723 1410.9716,-207.2828"/>
</g>
<!-- Node29&#45;&gt;Node21 -->
<g id="edge62" class="edge">
<title>Node29&#45;&gt;Node21</title>
<path fill="none" stroke="#191970" d="M1074.1291,-292.4088C1077.1217,-291.8986 1080.09,-291.4249 1083,-291 1286.3564,-261.3076 1340.8948,-286.3645 1544,-255 1545.2782,-254.8026 1546.5748,-254.5878 1547.8817,-254.3587"/>
<polygon fill="#191970" stroke="#191970" points="1548.8342,-257.7385 1557.9712,-252.3753 1547.4839,-250.87 1548.8342,-257.7385"/>
</g>
<!-- Node29&#45;&gt;Node22 -->
<g id="edge68" class="edge">
<title>Node29&#45;&gt;Node22</title>
<path fill="none" stroke="#191970" d="M1074.1174,-292.3258C1077.1132,-291.8377 1080.0853,-291.3915 1083,-291 1371.5158,-252.248 1447.2476,-283.0477 1737,-255 1749.5328,-253.7868 1763.2332,-252.0003 1775.2873,-250.2717"/>
<polygon fill="#191970" stroke="#191970" points="1776.003,-253.7041 1785.3858,-248.7833 1774.9823,-246.7789 1776.003,-253.7041"/>
</g>
<!-- Node29&#45;&gt;Node25 -->
<g id="edge66" class="edge">
<title>Node29&#45;&gt;Node25</title>
<path fill="none" stroke="#191970" d="M1074.1138,-292.2983C1077.1105,-291.8176 1080.0838,-291.3804 1083,-291 1414.605,-247.7418 1504.7113,-292.4005 1840.2554,-255.0629"/>
<polygon fill="#191970" stroke="#191970" points="1840.7105,-258.5338 1850.2548,-253.9341 1839.9253,-251.578 1840.7105,-258.5338"/>
</g>
<!-- Node30 -->
<g id="node31" class="node">
<title>Node30</title>
<polygon fill="#ffffff" stroke="#bfbfbf" points="946.5,-235.5 946.5,-254.5 999.5,-254.5 999.5,-235.5 946.5,-235.5"/>
<text text-anchor="middle" x="973" y="-242.5" font-family="Helvetica,sans-Serif" font-size="10.00" fill="#000000">cstddef</text>
</g>
<!-- Node29&#45;&gt;Node30 -->
<g id="edge59" class="edge">
<title>Node29&#45;&gt;Node30</title>
<path fill="none" stroke="#191970" d="M1001.6067,-291.2977C996.3869,-282.8498 989.8543,-272.2773 984.35,-263.369"/>
<polygon fill="#191970" stroke="#191970" points="987.3182,-261.5143 979.0843,-254.8469 981.3632,-265.1938 987.3182,-261.5143"/>
</g>
<!-- Node31 -->
<g id="node32" class="node">
<title>Node31</title>
<polygon fill="#ffffff" stroke="#bfbfbf" points="1018,-235.5 1018,-254.5 1068,-254.5 1068,-235.5 1018,-235.5"/>
<text text-anchor="middle" x="1043" y="-242.5" font-family="Helvetica,sans-Serif" font-size="10.00" fill="#000000">cstring</text>
</g>
<!-- Node29&#45;&gt;Node31 -->
<g id="edge60" class="edge">
<title>Node29&#45;&gt;Node31</title>
<path fill="none" stroke="#191970" d="M1018.9101,-291.2977C1023.2132,-283.0277 1028.5758,-272.7215 1033.1482,-263.9339"/>
<polygon fill="#191970" stroke="#191970" points="1036.3654,-265.3335 1037.8764,-254.8469 1030.1557,-262.1024 1036.3654,-265.3335"/>
</g>
<!-- Node32 -->
<g id="node33" class="node">
<title>Node32</title>
<polygon fill="#ffffff" stroke="#bfbfbf" points="1086.5,-235.5 1086.5,-254.5 1159.5,-254.5 1159.5,-235.5 1086.5,-235.5"/>
<text text-anchor="middle" x="1123" y="-242.5" font-family="Helvetica,sans-Serif" font-size="10.00" fill="#000000">string_view</text>
</g>
<!-- Node29&#45;&gt;Node32 -->
<g id="edge64" class="edge">
<title>Node29&#45;&gt;Node32</title>
<path fill="none" stroke="#191970" d="M1038.3983,-291.4554C1056.1022,-281.734 1079.0195,-269.15 1096.5358,-259.5317"/>
<polygon fill="#191970" stroke="#191970" points="1098.5631,-262.4115 1105.644,-254.5303 1095.1939,-256.2756 1098.5631,-262.4115"/>
</g>
<!-- Node34&#45;&gt;Node6 -->
<g id="edge86" class="edge">
<title>Node34&#45;&gt;Node6</title>
<path fill="none" stroke="#191970" d="M642.5454,-363.8896C654.1343,-333.5271 693.5411,-238.176 752,-179 765.0503,-165.7896 782.6505,-154.9051 797.73,-147.0461"/>
<polygon fill="#191970" stroke="#191970" points="799.3485,-150.15 806.7302,-142.5499 796.2202,-143.8879 799.3485,-150.15"/>
</g>
<!-- Node34&#45;&gt;Node7 -->
<g id="edge78" class="edge">
<title>Node34&#45;&gt;Node7</title>
<path fill="none" stroke="#191970" d="M625.3157,-363.9966C586.9936,-337.3171 481.1297,-263.1374 477,-255 450.4502,-202.6847 462.1207,-179.7484 477,-123 479.5228,-113.3784 484.2931,-103.6592 489.2472,-95.2958"/>
<polygon fill="#191970" stroke="#191970" points="492.2183,-97.1459 494.5974,-86.8216 486.2993,-93.4089 492.2183,-97.1459"/>
</g>
<!-- Node34&#45;&gt;Node13 -->
<g id="edge94" class="edge">
<title>Node34&#45;&gt;Node13</title>
<path fill="none" stroke="#191970" d="M656.2752,-363.9206C701.2475,-339.3294 826.1684,-273.2288 937,-235 1322.723,-101.9538 1825.3868,-76.799 1957.2053,-72.3836"/>
<polygon fill="#191970" stroke="#191970" points="1957.5487,-75.8746 1967.4324,-72.0585 1957.3262,-68.8781 1957.5487,-75.8746"/>
</g>
<!-- Node34&#45;&gt;Node14 -->
<g id="edge92" class="edge">
<title>Node34&#45;&gt;Node14</title>
<path fill="none" stroke="#191970" d="M640.1404,-363.6125C643.6294,-334.7226 655.206,-248.1232 676,-179 685.6669,-146.8652 701.6968,-111.2458 711.787,-90.146"/>
<polygon fill="#191970" stroke="#191970" points="714.9921,-91.5578 716.2092,-81.0331 708.6945,-88.5017 714.9921,-91.5578"/>
</g>
<!-- Node34&#45;&gt;Node22 -->
<g id="edge95" class="edge">
<title>Node34&#45;&gt;Node22</title>
<path fill="none" stroke="#191970" d="M701.8949,-372.6367C833.4233,-370.0819 1133.1271,-360.1299 1227,-322 1247.1936,-313.7976 1244.7606,-299.0888 1265,-291 1362.6813,-251.9611 1632.4088,-266.241 1737,-255 1749.5193,-253.6545 1763.2167,-251.8388 1775.2722,-250.1238"/>
<polygon fill="#191970" stroke="#191970" points="1775.9797,-253.5579 1785.3728,-248.657 1774.9736,-246.6305 1775.9797,-253.5579"/>
</g>
<!-- Node34&#45;&gt;Node23 -->
<g id="edge79" class="edge">
<title>Node34&#45;&gt;Node23</title>
<path fill="none" stroke="#191970" d="M701.5728,-369.1556C882.0296,-356.6264 1400.5802,-320.6234 1558.0831,-309.688"/>
<polygon fill="#191970" stroke="#191970" points="1558.6261,-313.1588 1568.3597,-308.9745 1558.1412,-306.1756 1558.6261,-313.1588"/>
</g>
<!-- Node34&#45;&gt;Node26 -->
<g id="edge85" class="edge">
<title>Node34&#45;&gt;Node26</title>
<path fill="none" stroke="#191970" d="M630.4136,-363.9494C622.0008,-354.107 609.397,-337.9865 602,-322 575.0949,-263.8521 562.2689,-188.2334 557.4206,-152.8671"/>
<polygon fill="#191970" stroke="#191970" points="560.8811,-152.3364 556.119,-142.8721 553.9397,-153.2404 560.8811,-152.3364"/>
</g>
<!-- Node34&#45;&gt;Node29 -->
<g id="edge84" class="edge">
<title>Node34&#45;&gt;Node29</title>
<path fill="none" stroke="#191970" d="M691.9035,-363.9717C756.2744,-352.378 865.3079,-332.7403 937.7301,-319.6965"/>
<polygon fill="#191970" stroke="#191970" points="938.4765,-323.1184 947.6977,-317.9012 937.2357,-316.2293 938.4765,-323.1184"/>
</g>
<!-- Node35 -->
<g id="node36" class="node">
<title>Node35</title>
<g id="a_node36"><a xlink:href="shape__tuple_8h.html" target="_top" xlink:title="Runtime ShapeTuple container types. ">
<polygon fill="#ffffff" stroke="#000000" points="1092,-291.5 1092,-321.5 1218,-321.5 1218,-291.5 1092,-291.5"/>
<text text-anchor="start" x="1100" y="-309.5" font-family="Helvetica,sans-Serif" font-size="10.00" fill="#000000">tvm/runtime/container</text>
<text text-anchor="middle" x="1155" y="-298.5" font-family="Helvetica,sans-Serif" font-size="10.00" fill="#000000">/shape_tuple.h</text>
</a>
</g>
</g>
<!-- Node34&#45;&gt;Node35 -->
<g id="edge80" class="edge">
<title>Node34&#45;&gt;Node35</title>
<path fill="none" stroke="#191970" d="M701.7665,-368.145C785.9955,-360.5314 940.4155,-345.0753 1081.7011,-322.1213"/>
<polygon fill="#191970" stroke="#191970" points="1082.5487,-325.5291 1091.8498,-320.4557 1081.415,-318.6215 1082.5487,-325.5291"/>
</g>
<!-- Node36 -->
<g id="node37" class="node">
<title>Node36</title>
<g id="a_node37"><a xlink:href="serializer_8h.html" target="_top" xlink:title="Serializer extension to support TVM data types Include this file to enable serialization of DLDataTyp...">
<polygon fill="#ffffff" stroke="#000000" points="378,-297 378,-316 512,-316 512,-297 378,-297"/>
<text text-anchor="middle" x="445" y="-304" font-family="Helvetica,sans-Serif" font-size="10.00" fill="#000000">tvm/runtime/serializer.h</text>
</a>
</g>
</g>
<!-- Node34&#45;&gt;Node36 -->
<g id="edge87" class="edge">
<title>Node34&#45;&gt;Node36</title>
<path fill="none" stroke="#191970" d="M606.3039,-363.9005C570.3389,-352.2584 513.1683,-332.5805 477.3483,-319.5641"/>
<polygon fill="#191970" stroke="#191970" points="478.4405,-316.2368 467.8468,-316.0817 476.0315,-322.8092 478.4405,-316.2368"/>
</g>
<!-- Node34&#45;&gt;Node38 -->
<g id="edge93" class="edge">
<title>Node34&#45;&gt;Node38</title>
<path fill="none" stroke="#191970" d="M576.398,-364.5637C521.2389,-355.9805 439.0021,-341.4497 369,-322 366.1917,-321.2197 363.305,-320.3355 360.423,-319.3944"/>
<polygon fill="#191970" stroke="#191970" points="361.3586,-316.0144 350.7638,-316.0447 359.065,-322.6281 361.3586,-316.0144"/>
</g>
<!-- Node35&#45;&gt;Node2 -->
<g id="edge83" class="edge">
<title>Node35&#45;&gt;Node2</title>
<path fill="none" stroke="#191970" d="M1218.3551,-293.1864C1222.963,-292.3903 1227.5473,-291.6502 1232,-291 1405.5574,-265.657 1450.7,-274.5948 1625,-255 1637.1156,-253.638 1650.3043,-251.9491 1662.1956,-250.3495"/>
<polygon fill="#191970" stroke="#191970" points="1662.817,-253.7972 1672.2519,-248.9771 1661.8704,-246.8615 1662.817,-253.7972"/>
</g>
<!-- Node35&#45;&gt;Node13 -->
<g id="edge81" class="edge">
<title>Node35&#45;&gt;Node13</title>
<path fill="none" stroke="#191970" d="M1213.7002,-291.403C1252.3825,-280.7637 1298.9331,-266.4333 1316,-255 1352.6875,-230.4225 1341.9395,-201.3925 1380,-179 1480.1128,-120.0996 1845.654,-84.0551 1957.3561,-74.2357"/>
<polygon fill="#191970" stroke="#191970" points="1957.6964,-77.7195 1967.3561,-73.3675 1957.0908,-70.7457 1957.6964,-77.7195"/>
</g>
<!-- Node35&#45;&gt;Node22 -->
<g id="edge82" class="edge">
<title>Node35&#45;&gt;Node22</title>
<path fill="none" stroke="#191970" d="M1218.3407,-293.084C1222.952,-292.312 1227.5409,-291.6052 1232,-291 1454.9696,-260.7364 1513.2155,-278.4905 1737,-255 1749.5226,-253.6855 1763.2207,-251.8767 1775.2758,-250.1585"/>
<polygon fill="#191970" stroke="#191970" points="1775.9853,-253.5921 1785.376,-248.6866 1774.9758,-246.6653 1775.9853,-253.5921"/>
</g>
<!-- Node36&#45;&gt;Node7 -->
<g id="edge90" class="edge">
<title>Node36&#45;&gt;Node7</title>
<path fill="none" stroke="#191970" d="M442.1614,-296.7212C434.4577,-268.2444 415.575,-183.5632 444,-123 449.6763,-110.9059 459.7425,-100.6694 470.1346,-92.5873"/>
<polygon fill="#191970" stroke="#191970" points="472.404,-95.2657 478.4611,-86.5731 468.3052,-89.5911 472.404,-95.2657"/>
</g>
<!-- Node36&#45;&gt;Node28 -->
<g id="edge88" class="edge">
<title>Node36&#45;&gt;Node28</title>
<path fill="none" stroke="#191970" d="M456.25,-296.8906C467.386,-287.3786 484.646,-272.6357 497.9268,-261.2917"/>
<polygon fill="#191970" stroke="#191970" points="500.2608,-263.9011 505.5914,-254.7449 495.7144,-258.5784 500.2608,-263.9011"/>
</g>
<!-- Node36&#45;&gt;Node34 -->
<g id="edge91" class="edge">
<title>Node36&#45;&gt;Node34</title>
<path fill="none" stroke="#191970" d="M477.641,-316.0817C513.5845,-327.7156 570.7551,-347.3928 606.5969,-360.416"/>
<polygon fill="#191970" stroke="#191970" points="605.5114,-363.7458 616.1051,-363.9005 607.9201,-357.1732 605.5114,-363.7458"/>
</g>
<!-- Node37 -->
<g id="node38" class="node">
<title>Node37</title>
<polygon fill="#ffffff" stroke="#bfbfbf" points="294.5,-235.5 294.5,-254.5 391.5,-254.5 391.5,-235.5 294.5,-235.5"/>
<text text-anchor="middle" x="343" y="-242.5" font-family="Helvetica,sans-Serif" font-size="10.00" fill="#000000">dmlc/serializer.h</text>
</g>
<!-- Node36&#45;&gt;Node37 -->
<g id="edge89" class="edge">
<title>Node36&#45;&gt;Node37</title>
<path fill="none" stroke="#191970" d="M429.0625,-296.8906C412.5949,-286.9616 386.6742,-271.333 367.5796,-259.8201"/>
<polygon fill="#191970" stroke="#191970" points="369.1966,-256.7081 358.8256,-254.5419 365.5822,-262.7027 369.1966,-256.7081"/>
</g>
<!-- Node41&#45;&gt;Node4 -->
<g id="edge114" class="edge">
<title>Node41&#45;&gt;Node4</title>
<path fill="none" stroke="#191970" d="M2222.5556,-296.7854C2204.4644,-269.7917 2152.9082,-194.8243 2128,-179 2042.9069,-124.9402 1748.936,-91.1536 1610.7958,-77.9033"/>
<polygon fill="#191970" stroke="#191970" points="1611.0094,-74.4079 1600.7234,-76.9471 1610.3478,-81.3766 1611.0094,-74.4079"/>
</g>
<!-- Node41&#45;&gt;Node22 -->
<g id="edge116" class="edge">
<title>Node41&#45;&gt;Node22</title>
<path fill="none" stroke="#191970" d="M2190.4687,-303.4546C2122.184,-297.609 1975.4241,-283.0281 1842.6155,-254.8182"/>
<polygon fill="#191970" stroke="#191970" points="1843.1856,-251.3608 1832.6725,-252.6747 1841.7103,-258.2036 1843.1856,-251.3608"/>
</g>
<!-- Node41&#45;&gt;Node26 -->
<g id="edge113" class="edge">
<title>Node41&#45;&gt;Node26</title>
<path fill="none" stroke="#191970" d="M2215.0206,-296.8423C2177.5863,-271.613 2071.1081,-203.9604 1971,-179 1840.3838,-146.4329 894.5114,-148.2796 760,-143 718.4908,-141.3707 672.2735,-139.1515 634.2448,-137.2176"/>
<polygon fill="#191970" stroke="#191970" points="634.421,-133.7221 624.2552,-136.7066 634.0633,-140.713 634.421,-133.7221"/>
</g>
<!-- Node42 -->
<g id="node43" class="node">
<title>Node42</title>
<polygon fill="#ffffff" stroke="#bfbfbf" points="2208,-235.5 2208,-254.5 2268,-254.5 2268,-235.5 2208,-235.5"/>
<text text-anchor="middle" x="2238" y="-242.5" font-family="Helvetica,sans-Serif" font-size="10.00" fill="#000000">iostream</text>
</g>
<!-- Node41&#45;&gt;Node42 -->
<g id="edge115" class="edge">
<title>Node41&#45;&gt;Node42</title>
<path fill="none" stroke="#191970" d="M2230.4063,-296.8906C2231.6538,-288.3657 2233.5162,-275.6392 2235.0844,-264.9235"/>
<polygon fill="#191970" stroke="#191970" points="2238.589,-265.1463 2236.5739,-254.7449 2231.6627,-264.1326 2238.589,-265.1463"/>
</g>
</g>
</svg>
