<?xml version="1.0" encoding="UTF-8" standalone="no"?>
<!DOCTYPE svg PUBLIC "-//W3C//DTD SVG 1.1//EN"
 "http://www.w3.org/Graphics/SVG/1.1/DTD/svg11.dtd">
<!-- Generated by graphviz version 2.40.1 (20161225.0304)
 -->
<!-- Title: include/tvm/runtime/relax_vm/memory_manager.h Pages: 1 -->
<svg width="1576pt" height="453pt"
 viewBox="0.00 0.00 1576.00 453.00" xmlns="http://www.w3.org/2000/svg" xmlns:xlink="http://www.w3.org/1999/xlink">
<g id="graph0" class="graph" transform="scale(1 1) rotate(0) translate(4 449)">
<title>include/tvm/runtime/relax_vm/memory_manager.h</title>
<polygon fill="#ffffff" stroke="transparent" points="-4,4 -4,-449 1572,-449 1572,4 -4,4"/>
<!-- Node0 -->
<g id="node1" class="node">
<title>Node0</title>
<polygon fill="#bfbfbf" stroke="#000000" points="1309.5,-414.5 1309.5,-444.5 1476.5,-444.5 1476.5,-414.5 1309.5,-414.5"/>
<text text-anchor="start" x="1317.5" y="-432.5" font-family="Helvetica,sans-Serif" font-size="10.00" fill="#000000">include/tvm/runtime</text>
<text text-anchor="middle" x="1393" y="-421.5" font-family="Helvetica,sans-Serif" font-size="10.00" fill="#000000">/relax_vm/memory_manager.h</text>
</g>
<!-- Node1 -->
<g id="node2" class="node">
<title>Node1</title>
<g id="a_node2"><a xlink:href="c__runtime__api_8h.html" target="_top" xlink:title="tvm/runtime/c_runtime\l_api.h">
<polygon fill="#ffffff" stroke="#000000" points="1140.5,-56.5 1140.5,-86.5 1269.5,-86.5 1269.5,-56.5 1140.5,-56.5"/>
<text text-anchor="start" x="1148.5" y="-74.5" font-family="Helvetica,sans-Serif" font-size="10.00" fill="#000000">tvm/runtime/c_runtime</text>
<text text-anchor="middle" x="1205" y="-63.5" font-family="Helvetica,sans-Serif" font-size="10.00" fill="#000000">_api.h</text>
</a>
</g>
</g>
<!-- Node0&#45;&gt;Node1 -->
<g id="edge1" class="edge">
<title>Node0&#45;&gt;Node1</title>
<path fill="none" stroke="#191970" d="M1416.9651,-414.4062C1446.2645,-393.8786 1492,-354.1967 1492,-306.5 1492,-306.5 1492,-306.5 1492,-189 1492,-143.1012 1364.6945,-106.2209 1279.6578,-86.7058"/>
<polygon fill="#191970" stroke="#191970" points="1280.2919,-83.2609 1269.7663,-84.4699 1278.7485,-90.0886 1280.2919,-83.2609"/>
</g>
<!-- Node5 -->
<g id="node6" class="node">
<title>Node5</title>
<g id="a_node6"><a xlink:href="ndarray_8h.html" target="_top" xlink:title="A device&#45;independent managed NDArray abstraction. ">
<polygon fill="#ffffff" stroke="#000000" points="908.5,-358.5 908.5,-377.5 1033.5,-377.5 1033.5,-358.5 908.5,-358.5"/>
<text text-anchor="middle" x="971" y="-365.5" font-family="Helvetica,sans-Serif" font-size="10.00" fill="#000000">tvm/runtime/ndarray.h</text>
</a>
</g>
</g>
<!-- Node0&#45;&gt;Node5 -->
<g id="edge5" class="edge">
<title>Node0&#45;&gt;Node5</title>
<path fill="none" stroke="#191970" d="M1309.3742,-417.3128C1231.8062,-406.0085 1117.5373,-389.3555 1043.683,-378.5924"/>
<polygon fill="#191970" stroke="#191970" points="1043.9384,-375.0927 1033.5381,-377.114 1042.9288,-382.0196 1043.9384,-375.0927"/>
</g>
<!-- Node20 -->
<g id="node21" class="node">
<title>Node20</title>
<polygon fill="#ffffff" stroke="#bfbfbf" points="28.5,-235.5 28.5,-254.5 75.5,-254.5 75.5,-235.5 28.5,-235.5"/>
<text text-anchor="middle" x="52" y="-242.5" font-family="Helvetica,sans-Serif" font-size="10.00" fill="#000000">vector</text>
</g>
<!-- Node0&#45;&gt;Node20 -->
<g id="edge67" class="edge">
<title>Node0&#45;&gt;Node20</title>
<path fill="none" stroke="#191970" d="M1309.0806,-428.5675C1065.1157,-424.8705 359.9604,-406.923 148,-322 115.3223,-308.9075 84.9412,-280.7715 67.4369,-262.3799"/>
<polygon fill="#191970" stroke="#191970" points="69.6978,-259.6698 60.3385,-254.7045 64.5586,-264.4226 69.6978,-259.6698"/>
</g>
<!-- Node24 -->
<g id="node25" class="node">
<title>Node24</title>
<polygon fill="#ffffff" stroke="#bfbfbf" points="847,-235.5 847,-254.5 905,-254.5 905,-235.5 847,-235.5"/>
<text text-anchor="middle" x="876" y="-242.5" font-family="Helvetica,sans-Serif" font-size="10.00" fill="#000000">memory</text>
</g>
<!-- Node0&#45;&gt;Node24 -->
<g id="edge64" class="edge">
<title>Node0&#45;&gt;Node24</title>
<path fill="none" stroke="#191970" d="M1309.4992,-426.2202C1176.4635,-420.2005 928.3305,-405.4183 899,-378 868.02,-349.0397 869.3474,-294.5572 872.7862,-265.1111"/>
<polygon fill="#191970" stroke="#191970" points="876.3054,-265.2094 874.1965,-254.8265 869.3703,-264.2583 876.3054,-265.2094"/>
</g>
<!-- Node26 -->
<g id="node27" class="node">
<title>Node26</title>
<polygon fill="#ffffff" stroke="#bfbfbf" points="1233.5,-235.5 1233.5,-254.5 1326.5,-254.5 1326.5,-235.5 1233.5,-235.5"/>
<text text-anchor="middle" x="1280" y="-242.5" font-family="Helvetica,sans-Serif" font-size="10.00" fill="#000000">unordered_map</text>
</g>
<!-- Node0&#45;&gt;Node26 -->
<g id="edge66" class="edge">
<title>Node0&#45;&gt;Node26</title>
<path fill="none" stroke="#191970" d="M1405.4461,-414.2484C1426.0921,-386.993 1462.4638,-329.2087 1434,-291 1422.1025,-275.0293 1375.5926,-262.567 1336.7687,-254.6661"/>
<polygon fill="#191970" stroke="#191970" points="1337.0629,-251.1568 1326.5749,-252.658 1335.7099,-258.0248 1337.0629,-251.1568"/>
</g>
<!-- Node31 -->
<g id="node32" class="node">
<title>Node31</title>
<polygon fill="#ffffff" stroke="#bfbfbf" points="1360.5,-297 1360.5,-316 1425.5,-316 1425.5,-297 1360.5,-297"/>
<text text-anchor="middle" x="1393" y="-304" font-family="Helvetica,sans-Serif" font-size="10.00" fill="#000000">functional</text>
</g>
<!-- Node0&#45;&gt;Node31 -->
<g id="edge63" class="edge">
<title>Node0&#45;&gt;Node31</title>
<path fill="none" stroke="#191970" d="M1393,-414.4178C1393,-392.2662 1393,-350.9061 1393,-326.3234"/>
<polygon fill="#191970" stroke="#191970" points="1396.5001,-326.0492 1393,-316.0493 1389.5001,-326.0493 1396.5001,-326.0492"/>
</g>
<!-- Node32 -->
<g id="node33" class="node">
<title>Node32</title>
<polygon fill="#ffffff" stroke="#bfbfbf" points="1520,-358.5 1520,-377.5 1568,-377.5 1568,-358.5 1520,-358.5"/>
<text text-anchor="middle" x="1544" y="-365.5" font-family="Helvetica,sans-Serif" font-size="10.00" fill="#000000">mutex</text>
</g>
<!-- Node0&#45;&gt;Node32 -->
<g id="edge65" class="edge">
<title>Node0&#45;&gt;Node32</title>
<path fill="none" stroke="#191970" d="M1429.9388,-414.4554C1454.802,-404.329 1487.2918,-391.0964 1511.2336,-381.3453"/>
<polygon fill="#191970" stroke="#191970" points="1512.6593,-384.5438 1520.6004,-377.5303 1510.0188,-378.0609 1512.6593,-384.5438"/>
</g>
<!-- Node2 -->
<g id="node3" class="node">
<title>Node2</title>
<polygon fill="#ffffff" stroke="#bfbfbf" points="1065.5,-.5 1065.5,-19.5 1158.5,-19.5 1158.5,-.5 1065.5,-.5"/>
<text text-anchor="middle" x="1112" y="-7.5" font-family="Helvetica,sans-Serif" font-size="10.00" fill="#000000">dlpack/dlpack.h</text>
</g>
<!-- Node1&#45;&gt;Node2 -->
<g id="edge2" class="edge">
<title>Node1&#45;&gt;Node2</title>
<path fill="none" stroke="#191970" d="M1182.0112,-56.2977C1167.8034,-46.9022 1149.6215,-34.8787 1135.3475,-25.4395"/>
<polygon fill="#191970" stroke="#191970" points="1136.8845,-22.2598 1126.6128,-19.6633 1133.0233,-28.0986 1136.8845,-22.2598"/>
</g>
<!-- Node3 -->
<g id="node4" class="node">
<title>Node3</title>
<polygon fill="#ffffff" stroke="#bfbfbf" points="1177,-.5 1177,-19.5 1233,-19.5 1233,-.5 1177,-.5"/>
<text text-anchor="middle" x="1205" y="-7.5" font-family="Helvetica,sans-Serif" font-size="10.00" fill="#000000">stddef.h</text>
</g>
<!-- Node1&#45;&gt;Node3 -->
<g id="edge3" class="edge">
<title>Node1&#45;&gt;Node3</title>
<path fill="none" stroke="#191970" d="M1205,-56.2977C1205,-48.3834 1205,-38.6043 1205,-30.0759"/>
<polygon fill="#191970" stroke="#191970" points="1208.5001,-29.8469 1205,-19.8469 1201.5001,-29.847 1208.5001,-29.8469"/>
</g>
<!-- Node4 -->
<g id="node5" class="node">
<title>Node4</title>
<polygon fill="#ffffff" stroke="#bfbfbf" points="1251.5,-.5 1251.5,-19.5 1304.5,-19.5 1304.5,-.5 1251.5,-.5"/>
<text text-anchor="middle" x="1278" y="-7.5" font-family="Helvetica,sans-Serif" font-size="10.00" fill="#000000">stdint.h</text>
</g>
<!-- Node1&#45;&gt;Node4 -->
<g id="edge4" class="edge">
<title>Node1&#45;&gt;Node4</title>
<path fill="none" stroke="#191970" d="M1223.0449,-56.2977C1233.8114,-47.2274 1247.4851,-35.7077 1258.4995,-26.4285"/>
<polygon fill="#191970" stroke="#191970" points="1260.9191,-28.9667 1266.3118,-19.8469 1256.4089,-23.6132 1260.9191,-28.9667"/>
</g>
<!-- Node5&#45;&gt;Node1 -->
<g id="edge6" class="edge">
<title>Node5&#45;&gt;Node1</title>
<path fill="none" stroke="#191970" d="M1033.5143,-361.0668C1104.5667,-352.6283 1215.7698,-337.5677 1255,-322 1304.3831,-302.4033 1329.0937,-301.9297 1354,-255 1389.1709,-188.7292 1298.1158,-123.5262 1243.1857,-91.6646"/>
<polygon fill="#191970" stroke="#191970" points="1244.7993,-88.5559 1234.3757,-86.6589 1241.3413,-94.6421 1244.7993,-88.5559"/>
</g>
<!-- Node6 -->
<g id="node7" class="node">
<title>Node6</title>
<g id="a_node7"><a xlink:href="optional_8h.html" target="_top" xlink:title="Runtime Optional container types. ">
<polygon fill="#ffffff" stroke="#000000" points="441,-291.5 441,-321.5 567,-321.5 567,-291.5 441,-291.5"/>
<text text-anchor="start" x="449" y="-309.5" font-family="Helvetica,sans-Serif" font-size="10.00" fill="#000000">tvm/runtime/container</text>
<text text-anchor="middle" x="504" y="-298.5" font-family="Helvetica,sans-Serif" font-size="10.00" fill="#000000">/optional.h</text>
</a>
</g>
</g>
<!-- Node5&#45;&gt;Node6 -->
<g id="edge7" class="edge">
<title>Node5&#45;&gt;Node6</title>
<path fill="none" stroke="#191970" d="M908.4843,-362.5913C832.4493,-355.5947 700.0284,-342.0672 577.1142,-322.0911"/>
<polygon fill="#191970" stroke="#191970" points="577.5856,-318.6217 567.1504,-320.454 576.4506,-325.5291 577.5856,-318.6217"/>
</g>
<!-- Node7 -->
<g id="node8" class="node">
<title>Node7</title>
<polygon fill="#ffffff" stroke="#bfbfbf" points="157.5,-62 157.5,-81 202.5,-81 202.5,-62 157.5,-62"/>
<text text-anchor="middle" x="180" y="-69" font-family="Helvetica,sans-Serif" font-size="10.00" fill="#000000">utility</text>
</g>
<!-- Node5&#45;&gt;Node7 -->
<g id="edge61" class="edge">
<title>Node5&#45;&gt;Node7</title>
<path fill="none" stroke="#191970" d="M908.4916,-366.0222C729.0559,-360.1323 220.5457,-341.8773 148,-322 76.4881,-302.406 0,-319.1477 0,-245 0,-245 0,-245 0,-189 0,-119.5221 95.1984,-88.9552 147.1308,-77.4494"/>
<polygon fill="#191970" stroke="#191970" points="148.1346,-80.8151 157.2029,-75.3363 146.6973,-73.9642 148.1346,-80.8151"/>
</g>
<!-- Node12 -->
<g id="node13" class="node">
<title>Node12</title>
<g id="a_node13"><a xlink:href="object_8h.html" target="_top" xlink:title="A managed object in the TVM runtime. ">
<polygon fill="#ffffff" stroke="#000000" points="738.5,-123.5 738.5,-142.5 857.5,-142.5 857.5,-123.5 738.5,-123.5"/>
<text text-anchor="middle" x="798" y="-130.5" font-family="Helvetica,sans-Serif" font-size="10.00" fill="#000000">tvm/runtime/object.h</text>
</a>
</g>
</g>
<!-- Node5&#45;&gt;Node12 -->
<g id="edge53" class="edge">
<title>Node5&#45;&gt;Node12</title>
<path fill="none" stroke="#191970" d="M968.4368,-358.2276C962.0536,-335.1419 943.7819,-276.0869 914,-235 887.8135,-198.8733 846.6661,-166.6204 821.0664,-148.4662"/>
<polygon fill="#191970" stroke="#191970" points="822.9169,-145.4899 812.7099,-142.6496 818.9179,-151.2352 822.9169,-145.4899"/>
</g>
<!-- Node15 -->
<g id="node16" class="node">
<title>Node15</title>
<polygon fill="#ffffff" stroke="#bfbfbf" points="999,-62 999,-81 1049,-81 1049,-62 999,-62"/>
<text text-anchor="middle" x="1024" y="-69" font-family="Helvetica,sans-Serif" font-size="10.00" fill="#000000">atomic</text>
</g>
<!-- Node5&#45;&gt;Node15 -->
<g id="edge59" class="edge">
<title>Node5&#45;&gt;Node15</title>
<path fill="none" stroke="#191970" d="M1030.1396,-358.4551C1123.8117,-341.975 1299.376,-305.0764 1335,-255 1410.9219,-148.2772 1155.8008,-93.534 1059.3926,-77.0078"/>
<polygon fill="#191970" stroke="#191970" points="1059.6858,-73.5082 1049.2452,-75.3096 1058.5303,-80.4122 1059.6858,-73.5082"/>
</g>
<!-- Node19 -->
<g id="node20" class="node">
<title>Node19</title>
<g id="a_node20"><a xlink:href="shape__tuple_8h.html" target="_top" xlink:title="Runtime ShapeTuple container types. ">
<polygon fill="#ffffff" stroke="#000000" points="250,-291.5 250,-321.5 376,-321.5 376,-291.5 250,-291.5"/>
<text text-anchor="start" x="258" y="-309.5" font-family="Helvetica,sans-Serif" font-size="10.00" fill="#000000">tvm/runtime/container</text>
<text text-anchor="middle" x="313" y="-298.5" font-family="Helvetica,sans-Serif" font-size="10.00" fill="#000000">/shape_tuple.h</text>
</a>
</g>
</g>
<!-- Node5&#45;&gt;Node19 -->
<g id="edge27" class="edge">
<title>Node5&#45;&gt;Node19</title>
<path fill="none" stroke="#191970" d="M908.2573,-363.5536C807.645,-356.2191 604.0455,-340.5369 432,-322 417.2734,-320.4133 401.5486,-318.5125 386.5158,-316.5944"/>
<polygon fill="#191970" stroke="#191970" points="386.6058,-313.077 376.2399,-315.2673 385.7092,-320.0194 386.6058,-313.077"/>
</g>
<!-- Node5&#45;&gt;Node20 -->
<g id="edge62" class="edge">
<title>Node5&#45;&gt;Node20</title>
<path fill="none" stroke="#191970" d="M908.2253,-366.6459C755.3762,-362.9306 367.1878,-350.8684 241,-322 180.8579,-308.2411 115.0893,-277.5747 79.1738,-259.3672"/>
<polygon fill="#191970" stroke="#191970" points="80.3593,-256.0415 69.8649,-254.5866 77.1614,-262.2684 80.3593,-256.0415"/>
</g>
<!-- Node21 -->
<g id="node22" class="node">
<title>Node21</title>
<g id="a_node22"><a xlink:href="string_8h.html" target="_top" xlink:title="Runtime String container types. ">
<polygon fill="#ffffff" stroke="#000000" points="585,-291.5 585,-321.5 711,-321.5 711,-291.5 585,-291.5"/>
<text text-anchor="start" x="593" y="-309.5" font-family="Helvetica,sans-Serif" font-size="10.00" fill="#000000">tvm/runtime/container</text>
<text text-anchor="middle" x="648" y="-298.5" font-family="Helvetica,sans-Serif" font-size="10.00" fill="#000000">/string.h</text>
</a>
</g>
</g>
<!-- Node5&#45;&gt;Node21 -->
<g id="edge31" class="edge">
<title>Node5&#45;&gt;Node21</title>
<path fill="none" stroke="#191970" d="M920.8856,-358.4581C867.4247,-348.279 782.2139,-332.0547 721.235,-320.4441"/>
<polygon fill="#191970" stroke="#191970" points="721.764,-316.982 711.2858,-318.5498 720.4547,-323.8585 721.764,-316.982"/>
</g>
<!-- Node27 -->
<g id="node28" class="node">
<title>Node27</title>
<g id="a_node28"><a xlink:href="data__type_8h.html" target="_top" xlink:title="tvm/runtime/data_type.h">
<polygon fill="#ffffff" stroke="#000000" points="914,-123.5 914,-142.5 1052,-142.5 1052,-123.5 914,-123.5"/>
<text text-anchor="middle" x="983" y="-130.5" font-family="Helvetica,sans-Serif" font-size="10.00" fill="#000000">tvm/runtime/data_type.h</text>
</a>
</g>
</g>
<!-- Node5&#45;&gt;Node27 -->
<g id="edge48" class="edge">
<title>Node5&#45;&gt;Node27</title>
<path fill="none" stroke="#191970" d="M971.4853,-358.4967C973.2755,-323.4391 979.5323,-200.9096 981.994,-152.7"/>
<polygon fill="#191970" stroke="#191970" points="985.4941,-152.7871 982.5087,-142.6216 978.5032,-152.4301 985.4941,-152.7871"/>
</g>
<!-- Node28 -->
<g id="node29" class="node">
<title>Node28</title>
<g id="a_node29"><a xlink:href="serializer_8h.html" target="_top" xlink:title="Serializer extension to support TVM data types Include this file to enable serialization of DLDataTyp...">
<polygon fill="#ffffff" stroke="#000000" points="999,-297 999,-316 1133,-316 1133,-297 999,-297"/>
<text text-anchor="middle" x="1066" y="-304" font-family="Helvetica,sans-Serif" font-size="10.00" fill="#000000">tvm/runtime/serializer.h</text>
</a>
</g>
</g>
<!-- Node5&#45;&gt;Node28 -->
<g id="edge54" class="edge">
<title>Node5&#45;&gt;Node28</title>
<path fill="none" stroke="#191970" d="M980.7813,-358.3906C994.2423,-348.4165 1018.2712,-332.6908 1037.4984,-321.1633"/>
<polygon fill="#191970" stroke="#191970" points="1039.3639,-324.1268 1046.2112,-316.0419 1035.8166,-318.0921 1039.3639,-324.1268"/>
</g>
<!-- Node5&#45;&gt;Node31 -->
<g id="edge60" class="edge">
<title>Node5&#45;&gt;Node31</title>
<path fill="none" stroke="#191970" d="M1033.6811,-364.0906C1108.6688,-358.5482 1237.6684,-346.2599 1346,-322 1349.6524,-321.1821 1353.4228,-320.1937 1357.1651,-319.1165"/>
<polygon fill="#191970" stroke="#191970" points="1358.3805,-322.4045 1366.9058,-316.1141 1356.3185,-315.7151 1358.3805,-322.4045"/>
</g>
<!-- Node6&#45;&gt;Node7 -->
<g id="edge8" class="edge">
<title>Node6&#45;&gt;Node7</title>
<path fill="none" stroke="#191970" d="M440.6731,-297.907C344.0532,-284.6498 170.4605,-260.1917 166,-255 125.6522,-208.0389 154.4094,-127.0301 170.7711,-90.427"/>
<polygon fill="#191970" stroke="#191970" points="173.9508,-91.8896 174.9895,-81.3458 167.6023,-88.9406 173.9508,-91.8896"/>
</g>
<!-- Node8 -->
<g id="node9" class="node">
<title>Node8</title>
<g id="a_node9"><a xlink:href="runtime_2container_2base_8h.html" target="_top" xlink:title="Base utilities for common POD(plain old data) container types. ">
<polygon fill="#ffffff" stroke="#000000" points="545.5,-235.5 545.5,-254.5 600.5,-254.5 600.5,-235.5 545.5,-235.5"/>
<text text-anchor="middle" x="573" y="-242.5" font-family="Helvetica,sans-Serif" font-size="10.00" fill="#000000">./base.h</text>
</a>
</g>
</g>
<!-- Node6&#45;&gt;Node8 -->
<g id="edge9" class="edge">
<title>Node6&#45;&gt;Node8</title>
<path fill="none" stroke="#191970" d="M521.0562,-291.2977C531.1329,-282.3163 543.904,-270.9334 554.2611,-261.702"/>
<polygon fill="#191970" stroke="#191970" points="556.8159,-264.1135 561.9522,-254.8469 552.1583,-258.8879 556.8159,-264.1135"/>
</g>
<!-- Node8&#45;&gt;Node7 -->
<g id="edge26" class="edge">
<title>Node8&#45;&gt;Node7</title>
<path fill="none" stroke="#191970" d="M545.4428,-241.3222C473.8291,-231.6876 286.5913,-205.9765 275,-199 231.8186,-173.0102 201.9092,-119.2394 188.3049,-90.5338"/>
<polygon fill="#191970" stroke="#191970" points="191.3751,-88.8313 184.0361,-81.19 185.0081,-91.7402 191.3751,-88.8313"/>
</g>
<!-- Node9 -->
<g id="node10" class="node">
<title>Node9</title>
<polygon fill="#ffffff" stroke="#bfbfbf" points="508.5,-179.5 508.5,-198.5 597.5,-198.5 597.5,-179.5 508.5,-179.5"/>
<text text-anchor="middle" x="553" y="-186.5" font-family="Helvetica,sans-Serif" font-size="10.00" fill="#000000">dmlc/logging.h</text>
</g>
<!-- Node8&#45;&gt;Node9 -->
<g id="edge10" class="edge">
<title>Node8&#45;&gt;Node9</title>
<path fill="none" stroke="#191970" d="M569.5163,-235.2455C566.8492,-227.7776 563.0867,-217.2427 559.8263,-208.1137"/>
<polygon fill="#191970" stroke="#191970" points="563.1033,-206.8829 556.4438,-198.6427 556.5111,-209.2373 563.1033,-206.8829"/>
</g>
<!-- Node10 -->
<g id="node11" class="node">
<title>Node10</title>
<polygon fill="#ffffff" stroke="#bfbfbf" points="683.5,-62 683.5,-81 808.5,-81 808.5,-62 683.5,-62"/>
<text text-anchor="middle" x="746" y="-69" font-family="Helvetica,sans-Serif" font-size="10.00" fill="#000000">tvm/runtime/logging.h</text>
</g>
<!-- Node8&#45;&gt;Node10 -->
<g id="edge11" class="edge">
<title>Node8&#45;&gt;Node10</title>
<path fill="none" stroke="#191970" d="M545.3273,-236.4839C514.9614,-225.617 472.6755,-205.0649 490,-179 530.5049,-118.06 612.9856,-91.5927 673.4197,-80.1429"/>
<polygon fill="#191970" stroke="#191970" points="674.0741,-83.5815 683.2968,-78.367 672.8352,-76.692 674.0741,-83.5815"/>
</g>
<!-- Node11 -->
<g id="node12" class="node">
<title>Node11</title>
<g id="a_node12"><a xlink:href="runtime_2memory_8h.html" target="_top" xlink:title="Runtime memory management. ">
<polygon fill="#ffffff" stroke="#000000" points="284.5,-179.5 284.5,-198.5 413.5,-198.5 413.5,-179.5 284.5,-179.5"/>
<text text-anchor="middle" x="349" y="-186.5" font-family="Helvetica,sans-Serif" font-size="10.00" fill="#000000">tvm/runtime/memory.h</text>
</a>
</g>
</g>
<!-- Node8&#45;&gt;Node11 -->
<g id="edge12" class="edge">
<title>Node8&#45;&gt;Node11</title>
<path fill="none" stroke="#191970" d="M545.0832,-238.0208C508.0118,-228.753 441.9776,-212.2444 396.8717,-200.9679"/>
<polygon fill="#191970" stroke="#191970" points="397.5687,-197.5345 387.0184,-198.5046 395.8709,-204.3255 397.5687,-197.5345"/>
</g>
<!-- Node8&#45;&gt;Node12 -->
<g id="edge23" class="edge">
<title>Node8&#45;&gt;Node12</title>
<path fill="none" stroke="#191970" d="M547.6039,-235.3925C519.2891,-223.2843 479.8326,-201.3417 499,-179 513.7523,-161.8046 644.4601,-146.8909 728.105,-138.9953"/>
<polygon fill="#191970" stroke="#191970" points="728.6815,-142.4569 738.3138,-138.0443 728.0322,-135.487 728.6815,-142.4569"/>
</g>
<!-- Node17 -->
<g id="node18" class="node">
<title>Node17</title>
<polygon fill="#ffffff" stroke="#bfbfbf" points="616,-179.5 616,-198.5 680,-198.5 680,-179.5 616,-179.5"/>
<text text-anchor="middle" x="648" y="-186.5" font-family="Helvetica,sans-Serif" font-size="10.00" fill="#000000">algorithm</text>
</g>
<!-- Node8&#45;&gt;Node17 -->
<g id="edge24" class="edge">
<title>Node8&#45;&gt;Node17</title>
<path fill="none" stroke="#191970" d="M586.064,-235.2455C597.3562,-226.814 613.8845,-214.4729 627.0271,-204.6598"/>
<polygon fill="#191970" stroke="#191970" points="629.1669,-207.4301 635.0857,-198.6427 624.9789,-201.8211 629.1669,-207.4301"/>
</g>
<!-- Node18 -->
<g id="node19" class="node">
<title>Node18</title>
<polygon fill="#ffffff" stroke="#bfbfbf" points="698.5,-179.5 698.5,-198.5 781.5,-198.5 781.5,-179.5 698.5,-179.5"/>
<text text-anchor="middle" x="740" y="-186.5" font-family="Helvetica,sans-Serif" font-size="10.00" fill="#000000">initializer_list</text>
</g>
<!-- Node8&#45;&gt;Node18 -->
<g id="edge25" class="edge">
<title>Node8&#45;&gt;Node18</title>
<path fill="none" stroke="#191970" d="M600.5767,-235.7527C628.2466,-226.4742 671.0795,-212.1111 701.9687,-201.753"/>
<polygon fill="#191970" stroke="#191970" points="703.1752,-205.04 711.5436,-198.5423 700.9497,-198.4032 703.1752,-205.04"/>
</g>
<!-- Node11&#45;&gt;Node7 -->
<g id="edge22" class="edge">
<title>Node11&#45;&gt;Node7</title>
<path fill="none" stroke="#191970" d="M335.17,-179.3845C305.9553,-159.0724 237.7377,-111.6431 202.2849,-86.9939"/>
<polygon fill="#191970" stroke="#191970" points="204.2296,-84.0832 194.0211,-81.2484 200.2336,-89.8306 204.2296,-84.0832"/>
</g>
<!-- Node11&#45;&gt;Node12 -->
<g id="edge13" class="edge">
<title>Node11&#45;&gt;Node12</title>
<path fill="none" stroke="#191970" d="M413.8089,-180.9169C497.3549,-170.4969 642.0767,-152.447 728.0481,-141.7245"/>
<polygon fill="#191970" stroke="#191970" points="728.7432,-145.165 738.2331,-140.4542 727.8768,-138.2188 728.7432,-145.165"/>
</g>
<!-- Node14 -->
<g id="node15" class="node">
<title>Node14</title>
<polygon fill="#ffffff" stroke="#bfbfbf" points="448.5,-62 448.5,-81 517.5,-81 517.5,-62 448.5,-62"/>
<text text-anchor="middle" x="483" y="-69" font-family="Helvetica,sans-Serif" font-size="10.00" fill="#000000">type_traits</text>
</g>
<!-- Node11&#45;&gt;Node14 -->
<g id="edge21" class="edge">
<title>Node11&#45;&gt;Node14</title>
<path fill="none" stroke="#191970" d="M347.0047,-179.397C344.6955,-165.4964 342.6409,-139.6181 355,-123 374.5423,-96.7233 409.7161,-83.8245 438.2528,-77.509"/>
<polygon fill="#191970" stroke="#191970" points="439.3091,-80.8669 448.4248,-75.4676 437.9316,-74.0038 439.3091,-80.8669"/>
</g>
<!-- Node16 -->
<g id="node17" class="node">
<title>Node16</title>
<polygon fill="#ffffff" stroke="#bfbfbf" points="364.5,-123.5 364.5,-142.5 413.5,-142.5 413.5,-123.5 364.5,-123.5"/>
<text text-anchor="middle" x="389" y="-130.5" font-family="Helvetica,sans-Serif" font-size="10.00" fill="#000000">cstdlib</text>
</g>
<!-- Node11&#45;&gt;Node16 -->
<g id="edge20" class="edge">
<title>Node11&#45;&gt;Node16</title>
<path fill="none" stroke="#191970" d="M355.9675,-179.2455C361.5311,-171.4564 369.478,-160.3308 376.1829,-150.9439"/>
<polygon fill="#191970" stroke="#191970" points="379.148,-152.8144 382.1124,-142.6427 373.4519,-148.7457 379.148,-152.8144"/>
</g>
<!-- Node12&#45;&gt;Node1 -->
<g id="edge14" class="edge">
<title>Node12&#45;&gt;Node1</title>
<path fill="none" stroke="#191970" d="M857.6172,-123.9915C929.7795,-113.0874 1051.3622,-94.7155 1129.8681,-82.8528"/>
<polygon fill="#191970" stroke="#191970" points="1130.8087,-86.2505 1140.1735,-81.2956 1129.7628,-79.3291 1130.8087,-86.2505"/>
</g>
<!-- Node12&#45;&gt;Node7 -->
<g id="edge18" class="edge">
<title>Node12&#45;&gt;Node7</title>
<path fill="none" stroke="#191970" d="M738.4631,-127.0752C610.3278,-114.3239 311.9935,-84.6353 212.7584,-74.7599"/>
<polygon fill="#191970" stroke="#191970" points="213.0192,-71.2687 202.7217,-73.7611 212.326,-78.2343 213.0192,-71.2687"/>
</g>
<!-- Node12&#45;&gt;Node10 -->
<g id="edge15" class="edge">
<title>Node12&#45;&gt;Node10</title>
<path fill="none" stroke="#191970" d="M789.875,-123.3906C782.1358,-114.2376 770.3013,-100.2409 760.8728,-89.09"/>
<polygon fill="#191970" stroke="#191970" points="763.3689,-86.6213 754.2396,-81.2449 758.0235,-91.1409 763.3689,-86.6213"/>
</g>
<!-- Node13 -->
<g id="node14" class="node">
<title>Node13</title>
<polygon fill="#ffffff" stroke="#bfbfbf" points="864,-62 864,-81 908,-81 908,-62 864,-62"/>
<text text-anchor="middle" x="886" y="-69" font-family="Helvetica,sans-Serif" font-size="10.00" fill="#000000">string</text>
</g>
<!-- Node12&#45;&gt;Node13 -->
<g id="edge16" class="edge">
<title>Node12&#45;&gt;Node13</title>
<path fill="none" stroke="#191970" d="M811.75,-123.3906C825.6991,-113.6421 847.5098,-98.3994 863.8897,-86.9521"/>
<polygon fill="#191970" stroke="#191970" points="866.1548,-89.6392 872.3466,-81.0419 862.1449,-83.9015 866.1548,-89.6392"/>
</g>
<!-- Node12&#45;&gt;Node14 -->
<g id="edge17" class="edge">
<title>Node12&#45;&gt;Node14</title>
<path fill="none" stroke="#191970" d="M749.1269,-123.4581C688.6465,-111.65 586.4994,-91.707 527.9099,-80.2681"/>
<polygon fill="#191970" stroke="#191970" points="528.3314,-76.7844 517.846,-78.3033 526.99,-83.6547 528.3314,-76.7844"/>
</g>
<!-- Node12&#45;&gt;Node15 -->
<g id="edge19" class="edge">
<title>Node12&#45;&gt;Node15</title>
<path fill="none" stroke="#191970" d="M833.3125,-123.3906C875.7475,-111.8431 946.5125,-92.5862 988.8672,-81.0605"/>
<polygon fill="#191970" stroke="#191970" points="990.0027,-84.3788 998.7328,-78.3758 988.1646,-77.6245 990.0027,-84.3788"/>
</g>
<!-- Node19&#45;&gt;Node7 -->
<g id="edge28" class="edge">
<title>Node19&#45;&gt;Node7</title>
<path fill="none" stroke="#191970" d="M249.9715,-297.2255C202.4241,-288.7887 142.9237,-274.6455 128,-255 92.5123,-208.2839 105.4184,-177.1465 128,-123 133.9239,-108.7957 145.8831,-96.5036 156.8403,-87.4942"/>
<polygon fill="#191970" stroke="#191970" points="159.13,-90.1482 164.9074,-81.2672 154.8528,-84.607 159.13,-90.1482"/>
</g>
<!-- Node19&#45;&gt;Node8 -->
<g id="edge30" class="edge">
<title>Node19&#45;&gt;Node8</title>
<path fill="none" stroke="#191970" d="M376.2707,-291.534C426.0175,-279.767 493.6505,-263.7692 535.2613,-253.9267"/>
<polygon fill="#191970" stroke="#191970" points="536.3272,-257.2712 545.2529,-251.5632 534.7158,-250.4592 536.3272,-257.2712"/>
</g>
<!-- Node19&#45;&gt;Node20 -->
<g id="edge29" class="edge">
<title>Node19&#45;&gt;Node20</title>
<path fill="none" stroke="#191970" d="M249.9189,-292.4685C205.1951,-282.3893 143.8123,-268.2911 90,-255 88.5513,-254.6422 87.0726,-254.2725 85.5798,-253.8956"/>
<polygon fill="#191970" stroke="#191970" points="86.2449,-250.4528 75.6883,-251.3525 84.5018,-257.2323 86.2449,-250.4528"/>
</g>
<!-- Node21&#45;&gt;Node7 -->
<g id="edge46" class="edge">
<title>Node21&#45;&gt;Node7</title>
<path fill="none" stroke="#191970" d="M584.8519,-292.5319C581.8643,-291.9887 578.9023,-291.4744 576,-291 505.3777,-279.4555 314.2235,-296.603 256,-255 201.3549,-215.9539 185.8675,-130.1007 181.5851,-91.2678"/>
<polygon fill="#191970" stroke="#191970" points="185.0612,-90.8506 180.6176,-81.2327 178.0935,-91.5224 185.0612,-90.8506"/>
</g>
<!-- Node21&#45;&gt;Node8 -->
<g id="edge33" class="edge">
<title>Node21&#45;&gt;Node8</title>
<path fill="none" stroke="#191970" d="M629.4607,-291.2977C618.3992,-282.2274 604.3509,-270.7077 593.0347,-261.4285"/>
<polygon fill="#191970" stroke="#191970" points="594.9604,-258.4813 585.0084,-254.8469 590.5219,-263.8942 594.9604,-258.4813"/>
</g>
<!-- Node21&#45;&gt;Node9 -->
<g id="edge32" class="edge">
<title>Node21&#45;&gt;Node9</title>
<path fill="none" stroke="#191970" d="M641.7446,-291.2304C635.0511,-276.0026 623.4223,-252.4305 609,-235 599.5067,-223.5266 586.8212,-212.8295 575.9245,-204.6435"/>
<polygon fill="#191970" stroke="#191970" points="577.8136,-201.6899 567.6642,-198.6499 573.7026,-207.3556 577.8136,-201.6899"/>
</g>
<!-- Node21&#45;&gt;Node10 -->
<g id="edge34" class="edge">
<title>Node21&#45;&gt;Node10</title>
<path fill="none" stroke="#191970" d="M682.995,-291.4914C717.3866,-274.6026 767.8369,-243.5762 790,-199 793.9574,-191.0406 794.4076,-186.7192 790,-179 774.3903,-151.6623 744.6097,-170.3377 729,-143 719.6582,-126.6394 726.7483,-105.3654 734.4228,-90.2886"/>
<polygon fill="#191970" stroke="#191970" points="737.5714,-91.8286 739.3837,-81.3899 731.4573,-88.4201 737.5714,-91.8286"/>
</g>
<!-- Node21&#45;&gt;Node11 -->
<g id="edge35" class="edge">
<title>Node21&#45;&gt;Node11</title>
<path fill="none" stroke="#191970" d="M614.0048,-291.325C591.7105,-281.261 561.9853,-267.63 536,-255 518.4802,-246.4846 515.0346,-242.3626 497,-235 463.7643,-221.4315 424.9726,-209.5117 395.4432,-201.2075"/>
<polygon fill="#191970" stroke="#191970" points="396.3772,-197.8344 385.8054,-198.5327 394.5052,-204.5795 396.3772,-197.8344"/>
</g>
<!-- Node21&#45;&gt;Node12 -->
<g id="edge36" class="edge">
<title>Node21&#45;&gt;Node12</title>
<path fill="none" stroke="#191970" d="M701.8375,-291.4952C744.7401,-276.1978 801.2557,-247.6528 824,-199 831.5298,-182.8928 822.2971,-163.9617 812.8138,-150.5148"/>
<polygon fill="#191970" stroke="#191970" points="815.5777,-148.3673 806.7195,-142.555 810.0197,-152.6228 815.5777,-148.3673"/>
</g>
<!-- Node21&#45;&gt;Node13 -->
<g id="edge42" class="edge">
<title>Node21&#45;&gt;Node13</title>
<path fill="none" stroke="#191970" d="M711.3727,-294.4249C740.4073,-286.6458 774.0492,-274.2656 800,-255 855.0218,-214.1525 876.1014,-129.239 883.0371,-90.9587"/>
<polygon fill="#191970" stroke="#191970" points="886.4927,-91.5143 884.6967,-81.0729 879.5893,-90.3554 886.4927,-91.5143"/>
</g>
<!-- Node21&#45;&gt;Node14 -->
<g id="edge44" class="edge">
<title>Node21&#45;&gt;Node14</title>
<path fill="none" stroke="#191970" d="M584.8497,-292.5448C581.8628,-291.9982 578.9015,-291.4796 576,-291 507.5767,-279.6891 312.1241,-306.7904 266,-255 255.2921,-242.9766 258.0435,-208.5732 275,-179 308.9542,-119.7818 387.8661,-91.9972 438.1423,-79.8888"/>
<polygon fill="#191970" stroke="#191970" points="439.1373,-83.2515 448.1016,-77.6043 437.5722,-76.4287 439.1373,-83.2515"/>
</g>
<!-- Node21&#45;&gt;Node17 -->
<g id="edge37" class="edge">
<title>Node21&#45;&gt;Node17</title>
<path fill="none" stroke="#191970" d="M648,-291.1389C648,-269.9692 648,-231.8174 648,-208.6112"/>
<polygon fill="#191970" stroke="#191970" points="651.5001,-208.5594 648,-198.5595 644.5001,-208.5595 651.5001,-208.5594"/>
</g>
<!-- Node21&#45;&gt;Node18 -->
<g id="edge40" class="edge">
<title>Node21&#45;&gt;Node18</title>
<path fill="none" stroke="#191970" d="M660.0274,-291.1389C677.1302,-269.2957 708.3893,-229.3724 726.3429,-206.4424"/>
<polygon fill="#191970" stroke="#191970" points="729.106,-208.5909 732.5151,-198.5595 723.5944,-204.2754 729.106,-208.5909"/>
</g>
<!-- Node21&#45;&gt;Node20 -->
<g id="edge47" class="edge">
<title>Node21&#45;&gt;Node20</title>
<path fill="none" stroke="#191970" d="M584.8658,-292.4436C581.8745,-291.9241 578.9079,-291.4389 576,-291 575.6182,-290.9424 201.1397,-258.085 85.5621,-247.9446"/>
<polygon fill="#191970" stroke="#191970" points="85.7815,-244.4505 75.5138,-247.063 85.1696,-251.4237 85.7815,-244.4505"/>
</g>
<!-- Node22 -->
<g id="node23" class="node">
<title>Node22</title>
<polygon fill="#ffffff" stroke="#bfbfbf" points="275.5,-235.5 275.5,-254.5 328.5,-254.5 328.5,-235.5 275.5,-235.5"/>
<text text-anchor="middle" x="302" y="-242.5" font-family="Helvetica,sans-Serif" font-size="10.00" fill="#000000">cstddef</text>
</g>
<!-- Node21&#45;&gt;Node22 -->
<g id="edge38" class="edge">
<title>Node21&#45;&gt;Node22</title>
<path fill="none" stroke="#191970" d="M584.8281,-292.6691C581.8469,-292.0892 578.8928,-291.5296 576,-291 473.8511,-272.2978 444.3343,-277.049 338.4476,-254.8715"/>
<polygon fill="#191970" stroke="#191970" points="339.1567,-251.4441 328.6475,-252.7885 337.7013,-258.2911 339.1567,-251.4441"/>
</g>
<!-- Node23 -->
<g id="node24" class="node">
<title>Node23</title>
<polygon fill="#ffffff" stroke="#bfbfbf" points="347,-235.5 347,-254.5 397,-254.5 397,-235.5 347,-235.5"/>
<text text-anchor="middle" x="372" y="-242.5" font-family="Helvetica,sans-Serif" font-size="10.00" fill="#000000">cstring</text>
</g>
<!-- Node21&#45;&gt;Node23 -->
<g id="edge39" class="edge">
<title>Node21&#45;&gt;Node23</title>
<path fill="none" stroke="#191970" d="M584.7865,-292.879C581.8165,-292.243 578.876,-291.6141 576,-291 503.5693,-275.5345 482.5814,-274.0147 407.1738,-255.1616"/>
<polygon fill="#191970" stroke="#191970" points="407.7436,-251.6958 397.1913,-252.645 406.0323,-258.4834 407.7436,-251.6958"/>
</g>
<!-- Node21&#45;&gt;Node24 -->
<g id="edge41" class="edge">
<title>Node21&#45;&gt;Node24</title>
<path fill="none" stroke="#191970" d="M703.7751,-291.4554C745.1082,-280.3063 800.4003,-265.392 837.057,-255.5044"/>
<polygon fill="#191970" stroke="#191970" points="838.1314,-258.8397 846.8748,-252.8561 836.3084,-252.0813 838.1314,-258.8397"/>
</g>
<!-- Node25 -->
<g id="node26" class="node">
<title>Node25</title>
<polygon fill="#ffffff" stroke="#bfbfbf" points="415.5,-235.5 415.5,-254.5 488.5,-254.5 488.5,-235.5 415.5,-235.5"/>
<text text-anchor="middle" x="452" y="-242.5" font-family="Helvetica,sans-Serif" font-size="10.00" fill="#000000">string_view</text>
</g>
<!-- Node21&#45;&gt;Node25 -->
<g id="edge43" class="edge">
<title>Node21&#45;&gt;Node25</title>
<path fill="none" stroke="#191970" d="M600.053,-291.4554C566.9196,-281.059 523.3517,-267.3884 492.0692,-257.5727"/>
<polygon fill="#191970" stroke="#191970" points="492.9622,-254.1848 482.373,-254.5303 490.8665,-260.8637 492.9622,-254.1848"/>
</g>
<!-- Node21&#45;&gt;Node26 -->
<g id="edge45" class="edge">
<title>Node21&#45;&gt;Node26</title>
<path fill="none" stroke="#191970" d="M711.3796,-300.6513C811.9976,-291.3171 1014.4614,-272.3342 1186,-255 1197.9912,-253.7883 1210.838,-252.4488 1223.0629,-251.1547"/>
<polygon fill="#191970" stroke="#191970" points="1223.5791,-254.6196 1233.1531,-250.082 1222.8391,-247.6588 1223.5791,-254.6196"/>
</g>
<!-- Node27&#45;&gt;Node1 -->
<g id="edge49" class="edge">
<title>Node27&#45;&gt;Node1</title>
<path fill="none" stroke="#191970" d="M1017.6875,-123.3906C1050.584,-114.2774 1100.8127,-100.3627 1140.9781,-89.2358"/>
<polygon fill="#191970" stroke="#191970" points="1141.9901,-92.5874 1150.6927,-86.5446 1140.1212,-85.8414 1141.9901,-92.5874"/>
</g>
<!-- Node27&#45;&gt;Node10 -->
<g id="edge50" class="edge">
<title>Node27&#45;&gt;Node10</title>
<path fill="none" stroke="#191970" d="M946.2288,-123.4581C904.8894,-112.7308 837.6767,-95.2895 792.6678,-83.61"/>
<polygon fill="#191970" stroke="#191970" points="793.416,-80.1883 782.8575,-81.0643 791.6578,-86.9639 793.416,-80.1883"/>
</g>
<!-- Node27&#45;&gt;Node13 -->
<g id="edge51" class="edge">
<title>Node27&#45;&gt;Node13</title>
<path fill="none" stroke="#191970" d="M967.8438,-123.3906C952.3257,-113.5519 927.9807,-98.1167 909.8716,-86.6351"/>
<polygon fill="#191970" stroke="#191970" points="911.3696,-83.4407 901.0498,-81.0419 907.6213,-89.3526 911.3696,-83.4407"/>
</g>
<!-- Node27&#45;&gt;Node14 -->
<g id="edge52" class="edge">
<title>Node27&#45;&gt;Node14</title>
<path fill="none" stroke="#191970" d="M913.7398,-124.481C809.5236,-111.6624 615.2872,-87.7713 527.7785,-77.0078"/>
<polygon fill="#191970" stroke="#191970" points="528.0015,-73.5089 517.649,-75.7618 527.1469,-80.4565 528.0015,-73.5089"/>
</g>
<!-- Node28&#45;&gt;Node1 -->
<g id="edge57" class="edge">
<title>Node28&#45;&gt;Node1</title>
<path fill="none" stroke="#191970" d="M1117.6611,-296.9837C1142.275,-289.7046 1169.811,-277.0048 1186,-255 1220.5494,-208.039 1215.5719,-135.0835 1209.8111,-96.8445"/>
<polygon fill="#191970" stroke="#191970" points="1213.2011,-95.8904 1208.1195,-86.5938 1206.2945,-97.0302 1213.2011,-95.8904"/>
</g>
<!-- Node28&#45;&gt;Node5 -->
<g id="edge58" class="edge">
<title>Node28&#45;&gt;Node5</title>
<path fill="none" stroke="#191970" d="M1056.3098,-316.0419C1042.8965,-325.99 1018.8807,-341.7122 999.6319,-353.2585"/>
<polygon fill="#191970" stroke="#191970" points="997.7514,-350.304 990.9063,-358.3906 1001.3003,-356.3377 997.7514,-350.304"/>
</g>
<!-- Node29 -->
<g id="node30" class="node">
<title>Node29</title>
<polygon fill="#ffffff" stroke="#bfbfbf" points="1115,-235.5 1115,-254.5 1177,-254.5 1177,-235.5 1115,-235.5"/>
<text text-anchor="middle" x="1146" y="-242.5" font-family="Helvetica,sans-Serif" font-size="10.00" fill="#000000">dmlc/io.h</text>
</g>
<!-- Node28&#45;&gt;Node29 -->
<g id="edge55" class="edge">
<title>Node28&#45;&gt;Node29</title>
<path fill="none" stroke="#191970" d="M1078.5,-296.8906C1091.0636,-287.2324 1110.6423,-272.1812 1125.4849,-260.771"/>
<polygon fill="#191970" stroke="#191970" points="1127.7928,-263.4115 1133.5878,-254.5419 1123.5265,-257.8618 1127.7928,-263.4115"/>
</g>
<!-- Node30 -->
<g id="node31" class="node">
<title>Node30</title>
<polygon fill="#ffffff" stroke="#bfbfbf" points="999.5,-235.5 999.5,-254.5 1096.5,-254.5 1096.5,-235.5 999.5,-235.5"/>
<text text-anchor="middle" x="1048" y="-242.5" font-family="Helvetica,sans-Serif" font-size="10.00" fill="#000000">dmlc/serializer.h</text>
</g>
<!-- Node28&#45;&gt;Node30 -->
<g id="edge56" class="edge">
<title>Node28&#45;&gt;Node30</title>
<path fill="none" stroke="#191970" d="M1063.1875,-296.8906C1060.6661,-288.276 1056.889,-275.3708 1053.7324,-264.5858"/>
<polygon fill="#191970" stroke="#191970" points="1057.0203,-263.3591 1050.8522,-254.7449 1050.3021,-265.3254 1057.0203,-263.3591"/>
</g>
</g>
</svg>
