<?xml version="1.0" encoding="UTF-8" standalone="no"?>
<!DOCTYPE svg PUBLIC "-//W3C//DTD SVG 1.1//EN"
 "http://www.w3.org/Graphics/SVG/1.1/DTD/svg11.dtd">
<!-- Generated by graphviz version 2.40.1 (20161225.0304)
 -->
<!-- Title: include/tvm/relay/op.h Pages: 1 -->
<svg width="619pt" height="162pt"
 viewBox="0.00 0.00 618.50 162.00" xmlns="http://www.w3.org/2000/svg" xmlns:xlink="http://www.w3.org/1999/xlink">
<g id="graph0" class="graph" transform="scale(1 1) rotate(0) translate(4 158)">
<title>include/tvm/relay/op.h</title>
<polygon fill="#ffffff" stroke="transparent" points="-4,4 -4,-158 614.5,-158 614.5,4 -4,4"/>
<!-- Node81 -->
<g id="node1" class="node">
<title>Node81</title>
<polygon fill="#bfbfbf" stroke="#000000" points="221.5,-134.5 221.5,-153.5 347.5,-153.5 347.5,-134.5 221.5,-134.5"/>
<text text-anchor="middle" x="284.5" y="-141.5" font-family="Helvetica,sans-Serif" font-size="10.00" fill="#000000">include/tvm/relay/op.h</text>
</g>
<!-- Node82 -->
<g id="node2" class="node">
<title>Node82</title>
<g id="a_node2"><a xlink:href="relax_2expr__functor_8h.html" target="_top" xlink:title="A more powerful visitor which enables defining arbitrary function signatures with type based dispatch...">
<polygon fill="#ffffff" stroke="#000000" points="0,-67.5 0,-97.5 127,-97.5 127,-67.5 0,-67.5"/>
<text text-anchor="start" x="8" y="-85.5" font-family="Helvetica,sans-Serif" font-size="10.00" fill="#000000">include/tvm/relax/expr</text>
<text text-anchor="middle" x="63.5" y="-74.5" font-family="Helvetica,sans-Serif" font-size="10.00" fill="#000000">_functor.h</text>
</a>
</g>
</g>
<!-- Node81&#45;&gt;Node82 -->
<g id="edge1" class="edge">
<title>Node81&#45;&gt;Node82</title>
<path fill="none" stroke="#191970" d="M239.9498,-131.6025C204.6339,-121.7748 155.1452,-108.0031 117.5627,-97.5446"/>
<polygon fill="#191970" stroke="#191970" points="239.3965,-135.0815 249.9688,-134.3906 241.2732,-128.3377 239.3965,-135.0815"/>
</g>
<!-- Node83 -->
<g id="node3" class="node">
<title>Node83</title>
<g id="a_node3"><a xlink:href="relay_2expr__functor_8h.html" target="_top" xlink:title="A more powerful visitor which enables defining arbitrary function signatures with type based dispatch...">
<polygon fill="#ffffff" stroke="#000000" points="145,-67.5 145,-97.5 272,-97.5 272,-67.5 145,-67.5"/>
<text text-anchor="start" x="153" y="-85.5" font-family="Helvetica,sans-Serif" font-size="10.00" fill="#000000">include/tvm/relay/expr</text>
<text text-anchor="middle" x="208.5" y="-74.5" font-family="Helvetica,sans-Serif" font-size="10.00" fill="#000000">_functor.h</text>
</a>
</g>
</g>
<!-- Node81&#45;&gt;Node83 -->
<g id="edge2" class="edge">
<title>Node81&#45;&gt;Node83</title>
<path fill="none" stroke="#191970" d="M264.7752,-128.0385C253.1455,-118.6276 238.5183,-106.7911 227.0917,-97.5446"/>
<polygon fill="#191970" stroke="#191970" points="262.6496,-130.8209 272.625,-134.3906 267.053,-125.3793 262.6496,-130.8209"/>
</g>
<!-- Node84 -->
<g id="node4" class="node">
<title>Node84</title>
<g id="a_node4"><a xlink:href="pattern__functor_8h.html" target="_top" xlink:title="A more powerful visitor on ADT patterns that enables defining arbitrary function signatures with type...">
<polygon fill="#ffffff" stroke="#000000" points="290.5,-67.5 290.5,-97.5 430.5,-97.5 430.5,-67.5 290.5,-67.5"/>
<text text-anchor="start" x="298.5" y="-85.5" font-family="Helvetica,sans-Serif" font-size="10.00" fill="#000000">include/tvm/relay/pattern</text>
<text text-anchor="middle" x="360.5" y="-74.5" font-family="Helvetica,sans-Serif" font-size="10.00" fill="#000000">_functor.h</text>
</a>
</g>
</g>
<!-- Node81&#45;&gt;Node84 -->
<g id="edge3" class="edge">
<title>Node81&#45;&gt;Node84</title>
<path fill="none" stroke="#191970" d="M304.2248,-128.0385C315.8545,-118.6276 330.4817,-106.7911 341.9083,-97.5446"/>
<polygon fill="#191970" stroke="#191970" points="301.947,-125.3793 296.375,-134.3906 306.3504,-130.8209 301.947,-125.3793"/>
</g>
<!-- Node85 -->
<g id="node5" class="node">
<title>Node85</title>
<g id="a_node5"><a xlink:href="relay_2transform_8h.html" target="_top" xlink:title="Relay specific transformation passes. ">
<polygon fill="#ffffff" stroke="#000000" points="448.5,-73 448.5,-92 610.5,-92 610.5,-73 448.5,-73"/>
<text text-anchor="middle" x="529.5" y="-80" font-family="Helvetica,sans-Serif" font-size="10.00" fill="#000000">include/tvm/relay/transform.h</text>
</a>
</g>
</g>
<!-- Node81&#45;&gt;Node85 -->
<g id="edge4" class="edge">
<title>Node81&#45;&gt;Node85</title>
<path fill="none" stroke="#191970" d="M332.3533,-131.9878C378.8503,-120.3162 448.5365,-102.8235 491.3984,-92.0643"/>
<polygon fill="#191970" stroke="#191970" points="331.3594,-128.6287 322.5124,-134.4581 333.0637,-135.418 331.3594,-128.6287"/>
</g>
<!-- Node86 -->
<g id="node6" class="node">
<title>Node86</title>
<g id="a_node6"><a xlink:href="relay_2qnn_2transform_8h.html" target="_top" xlink:title="include/tvm/relay/qnn\l/transform.h">
<polygon fill="#ffffff" stroke="#000000" points="468,-.5 468,-30.5 591,-30.5 591,-.5 468,-.5"/>
<text text-anchor="start" x="476" y="-18.5" font-family="Helvetica,sans-Serif" font-size="10.00" fill="#000000">include/tvm/relay/qnn</text>
<text text-anchor="middle" x="529.5" y="-7.5" font-family="Helvetica,sans-Serif" font-size="10.00" fill="#000000">/transform.h</text>
</a>
</g>
</g>
<!-- Node85&#45;&gt;Node86 -->
<g id="edge5" class="edge">
<title>Node85&#45;&gt;Node86</title>
<path fill="none" stroke="#191970" d="M529.5,-62.7758C529.5,-52.4641 529.5,-40.0437 529.5,-30.5218"/>
<polygon fill="#191970" stroke="#191970" points="526.0001,-62.9005 529.5,-72.9005 533.0001,-62.9006 526.0001,-62.9005"/>
</g>
</g>
</svg>
