<?xml version="1.0" encoding="UTF-8" standalone="no"?>
<!DOCTYPE svg PUBLIC "-//W3C//DTD SVG 1.1//EN"
 "http://www.w3.org/Graphics/SVG/1.1/DTD/svg11.dtd">
<!-- Generated by graphviz version 2.40.1 (20161225.0304)
 -->
<!-- Title: include/tvm/runtime/relax_vm/bytecode.h Pages: 1 -->
<svg width="282pt" height="173pt"
 viewBox="0.00 0.00 282.00 173.00" xmlns="http://www.w3.org/2000/svg" xmlns:xlink="http://www.w3.org/1999/xlink">
<g id="graph0" class="graph" transform="scale(1 1) rotate(0) translate(4 169)">
<title>include/tvm/runtime/relax_vm/bytecode.h</title>
<polygon fill="#ffffff" stroke="transparent" points="-4,4 -4,-169 278,-169 278,4 -4,4"/>
<!-- Node11 -->
<g id="node1" class="node">
<title>Node11</title>
<polygon fill="#bfbfbf" stroke="#000000" points="73,-134.5 73,-164.5 195,-164.5 195,-134.5 73,-134.5"/>
<text text-anchor="start" x="81" y="-152.5" font-family="Helvetica,sans-Serif" font-size="10.00" fill="#000000">include/tvm/runtime</text>
<text text-anchor="middle" x="134" y="-141.5" font-family="Helvetica,sans-Serif" font-size="10.00" fill="#000000">/relax_vm/bytecode.h</text>
</g>
<!-- Node12 -->
<g id="node2" class="node">
<title>Node12</title>
<g id="a_node2"><a xlink:href="exec__builder_8h.html" target="_top" xlink:title="include/tvm/relax/exec\l_builder.h">
<polygon fill="#ffffff" stroke="#000000" points="0,-.5 0,-30.5 128,-30.5 128,-.5 0,-.5"/>
<text text-anchor="start" x="8" y="-18.5" font-family="Helvetica,sans-Serif" font-size="10.00" fill="#000000">include/tvm/relax/exec</text>
<text text-anchor="middle" x="64" y="-7.5" font-family="Helvetica,sans-Serif" font-size="10.00" fill="#000000">_builder.h</text>
</a>
</g>
</g>
<!-- Node11&#45;&gt;Node12 -->
<g id="edge1" class="edge">
<title>Node11&#45;&gt;Node12</title>
<path fill="none" stroke="#191970" d="M89.6427,-129.1431C77.4947,-121.2467 65.8084,-110.9341 59,-98 47.838,-76.7952 53.3667,-48.148 58.5599,-30.7921"/>
<polygon fill="#191970" stroke="#191970" points="88.1324,-132.3188 98.5069,-134.4687 91.7375,-126.3185 88.1324,-132.3188"/>
</g>
<!-- Node13 -->
<g id="node3" class="node">
<title>Node13</title>
<g id="a_node3"><a xlink:href="relax__vm_2executable_8h.html" target="_top" xlink:title="include/tvm/runtime\l/relax_vm/executable.h">
<polygon fill="#ffffff" stroke="#000000" points="68.5,-67.5 68.5,-97.5 199.5,-97.5 199.5,-67.5 68.5,-67.5"/>
<text text-anchor="start" x="76.5" y="-85.5" font-family="Helvetica,sans-Serif" font-size="10.00" fill="#000000">include/tvm/runtime</text>
<text text-anchor="middle" x="134" y="-74.5" font-family="Helvetica,sans-Serif" font-size="10.00" fill="#000000">/relax_vm/executable.h</text>
</a>
</g>
</g>
<!-- Node11&#45;&gt;Node13 -->
<g id="edge2" class="edge">
<title>Node11&#45;&gt;Node13</title>
<path fill="none" stroke="#191970" d="M134,-124.0249C134,-115.128 134,-105.4287 134,-97.6432"/>
<polygon fill="#191970" stroke="#191970" points="130.5001,-124.2966 134,-134.2967 137.5001,-124.2967 130.5001,-124.2966"/>
</g>
<!-- Node14 -->
<g id="node4" class="node">
<title>Node14</title>
<g id="a_node4"><a xlink:href="runtime_2relax__vm_2vm_8h.html" target="_top" xlink:title="include/tvm/runtime\l/relax_vm/vm.h">
<polygon fill="#ffffff" stroke="#000000" points="158,-.5 158,-30.5 274,-30.5 274,-.5 158,-.5"/>
<text text-anchor="start" x="166" y="-18.5" font-family="Helvetica,sans-Serif" font-size="10.00" fill="#000000">include/tvm/runtime</text>
<text text-anchor="middle" x="216" y="-7.5" font-family="Helvetica,sans-Serif" font-size="10.00" fill="#000000">/relax_vm/vm.h</text>
</a>
</g>
</g>
<!-- Node11&#45;&gt;Node14 -->
<g id="edge5" class="edge">
<title>Node11&#45;&gt;Node14</title>
<path fill="none" stroke="#191970" d="M177.3792,-128.9825C189.608,-121.0418 201.5866,-110.7443 209,-98 221.1426,-77.1259 220.3627,-48.1193 218.3917,-30.6438"/>
<polygon fill="#191970" stroke="#191970" points="175.243,-126.1837 168.4921,-134.3492 178.8616,-132.1759 175.243,-126.1837"/>
</g>
<!-- Node13&#45;&gt;Node12 -->
<g id="edge3" class="edge">
<title>Node13&#45;&gt;Node12</title>
<path fill="none" stroke="#191970" d="M110.7133,-60.2113C100.5681,-50.5009 88.9386,-39.3698 79.8212,-30.6432"/>
<polygon fill="#191970" stroke="#191970" points="108.4716,-62.9105 118.1159,-67.2967 113.3118,-57.8536 108.4716,-62.9105"/>
</g>
<!-- Node13&#45;&gt;Node14 -->
<g id="edge4" class="edge">
<title>Node13&#45;&gt;Node14</title>
<path fill="none" stroke="#191970" d="M160.5817,-60.7808C172.6278,-50.9383 186.5767,-39.541 197.4666,-30.6432"/>
<polygon fill="#191970" stroke="#191970" points="158.1363,-58.2591 152.6071,-67.2967 162.5654,-63.6797 158.1363,-58.2591"/>
</g>
</g>
</svg>
