<?xml version="1.0" encoding="UTF-8" standalone="no"?>
<!DOCTYPE svg PUBLIC "-//W3C//DTD SVG 1.1//EN"
 "http://www.w3.org/Graphics/SVG/1.1/DTD/svg11.dtd">
<!-- Generated by graphviz version 2.40.1 (20161225.0304)
 -->
<!-- Title: include/tvm/relax/utils.h Pages: 1 -->
<svg width="801pt" height="296pt"
 viewBox="0.00 0.00 801.19 296.00" xmlns="http://www.w3.org/2000/svg" xmlns:xlink="http://www.w3.org/1999/xlink">
<g id="graph0" class="graph" transform="scale(1 1) rotate(0) translate(4 292)">
<title>include/tvm/relax/utils.h</title>
<polygon fill="#ffffff" stroke="transparent" points="-4,4 -4,-292 797.1907,-292 797.1907,4 -4,4"/>
<!-- Node61 -->
<g id="node1" class="node">
<title>Node61</title>
<polygon fill="#bfbfbf" stroke="#000000" points="197.7644,-268.5 197.7644,-287.5 332.7644,-287.5 332.7644,-268.5 197.7644,-268.5"/>
<text text-anchor="middle" x="265.2644" y="-275.5" font-family="Helvetica,sans-Serif" font-size="10.00" fill="#000000">include/tvm/relax/utils.h</text>
</g>
<!-- Node62 -->
<g id="node2" class="node">
<title>Node62</title>
<g id="a_node2"><a xlink:href="binding__rewrite_8h.html" target="_top" xlink:title="An IR rewriter to easily add/remove/replace bindings (statements). ">
<polygon fill="#ffffff" stroke="#000000" points="114.7644,-.5 114.7644,-30.5 255.7644,-30.5 255.7644,-.5 114.7644,-.5"/>
<text text-anchor="start" x="122.7644" y="-18.5" font-family="Helvetica,sans-Serif" font-size="10.00" fill="#000000">include/tvm/relax/binding</text>
<text text-anchor="middle" x="185.2644" y="-7.5" font-family="Helvetica,sans-Serif" font-size="10.00" fill="#000000">_rewrite.h</text>
</a>
</g>
</g>
<!-- Node61&#45;&gt;Node62 -->
<g id="edge1" class="edge">
<title>Node61&#45;&gt;Node62</title>
<path fill="none" stroke="#191970" d="M226.9617,-264.7978C166.8401,-241.7391 52.3298,-187.8275 5.2644,-98 -19.8633,-50.042 54.0602,-29.8675 114.6668,-21.4425"/>
<polygon fill="#191970" stroke="#191970" points="225.8836,-268.1314 236.4759,-268.3628 228.3398,-261.5765 225.8836,-268.1314"/>
</g>
<!-- Node63 -->
<g id="node3" class="node">
<title>Node63</title>
<g id="a_node3"><a xlink:href="block__builder_8h.html" target="_top" xlink:title="The utility for constructing Relax binding blocks. ">
<polygon fill="#ffffff" stroke="#000000" points="559.7644,-201.5 559.7644,-231.5 690.7644,-231.5 690.7644,-201.5 559.7644,-201.5"/>
<text text-anchor="start" x="567.7644" y="-219.5" font-family="Helvetica,sans-Serif" font-size="10.00" fill="#000000">include/tvm/relax/block</text>
<text text-anchor="middle" x="625.2644" y="-208.5" font-family="Helvetica,sans-Serif" font-size="10.00" fill="#000000">_builder.h</text>
</a>
</g>
</g>
<!-- Node61&#45;&gt;Node63 -->
<g id="edge2" class="edge">
<title>Node61&#45;&gt;Node63</title>
<path fill="none" stroke="#191970" d="M331.2371,-266.7297C396.1413,-255.6419 494.6699,-238.8099 559.5015,-227.7345"/>
<polygon fill="#191970" stroke="#191970" points="330.3872,-263.3241 321.1194,-268.4581 331.566,-270.2241 330.3872,-263.3241"/>
</g>
<!-- Node64 -->
<g id="node4" class="node">
<title>Node64</title>
<g id="a_node4"><a xlink:href="relax_2expr__functor_8h.html" target="_top" xlink:title="A more powerful visitor which enables defining arbitrary function signatures with type based dispatch...">
<polygon fill="#ffffff" stroke="#000000" points="576.7644,-.5 576.7644,-30.5 703.7644,-30.5 703.7644,-.5 576.7644,-.5"/>
<text text-anchor="start" x="584.7644" y="-18.5" font-family="Helvetica,sans-Serif" font-size="10.00" fill="#000000">include/tvm/relax/expr</text>
<text text-anchor="middle" x="640.2644" y="-7.5" font-family="Helvetica,sans-Serif" font-size="10.00" fill="#000000">_functor.h</text>
</a>
</g>
</g>
<!-- Node63&#45;&gt;Node64 -->
<g id="edge3" class="edge">
<title>Node63&#45;&gt;Node64</title>
<path fill="none" stroke="#191970" d="M700.8888,-199.6923C735.1307,-190.5126 770.3788,-178.3139 781.2644,-165 800.2468,-141.7831 787.4835,-127.9364 789.2644,-98 790.0826,-84.2465 797.2587,-78.2214 789.2644,-67 778.7832,-52.2877 739.4963,-39.0552 703.8961,-29.688"/>
<polygon fill="#191970" stroke="#191970" points="699.5966,-196.412 690.8024,-202.3206 701.3618,-203.1858 699.5966,-196.412"/>
</g>
<!-- Node65 -->
<g id="node5" class="node">
<title>Node65</title>
<g id="a_node5"><a xlink:href="struct__info_8h.html" target="_top" xlink:title="include/tvm/relax/struct\l_info.h">
<polygon fill="#ffffff" stroke="#000000" points="478.7644,-134.5 478.7644,-164.5 611.7644,-164.5 611.7644,-134.5 478.7644,-134.5"/>
<text text-anchor="start" x="486.7644" y="-152.5" font-family="Helvetica,sans-Serif" font-size="10.00" fill="#000000">include/tvm/relax/struct</text>
<text text-anchor="middle" x="545.2644" y="-141.5" font-family="Helvetica,sans-Serif" font-size="10.00" fill="#000000">_info.h</text>
</a>
</g>
</g>
<!-- Node63&#45;&gt;Node65 -->
<g id="edge4" class="edge">
<title>Node63&#45;&gt;Node65</title>
<path fill="none" stroke="#191970" d="M599.3311,-194.7808C587.5788,-184.9383 573.9701,-173.541 563.3458,-164.6432"/>
<polygon fill="#191970" stroke="#191970" points="597.1974,-197.5592 607.1112,-201.2967 601.6919,-192.1927 597.1974,-197.5592"/>
</g>
<!-- Node71 -->
<g id="node11" class="node">
<title>Node71</title>
<g id="a_node11"><a xlink:href="relax_2frame_8h.html" target="_top" xlink:title="include/tvm/script\l/ir_builder/relax/frame.h">
<polygon fill="#ffffff" stroke="#000000" points="638.2644,-134.5 638.2644,-164.5 772.2644,-164.5 772.2644,-134.5 638.2644,-134.5"/>
<text text-anchor="start" x="646.2644" y="-152.5" font-family="Helvetica,sans-Serif" font-size="10.00" fill="#000000">include/tvm/script</text>
<text text-anchor="middle" x="705.2644" y="-141.5" font-family="Helvetica,sans-Serif" font-size="10.00" fill="#000000">/ir_builder/relax/frame.h</text>
</a>
</g>
</g>
<!-- Node63&#45;&gt;Node71 -->
<g id="edge13" class="edge">
<title>Node63&#45;&gt;Node71</title>
<path fill="none" stroke="#191970" d="M651.1978,-194.7808C662.9501,-184.9383 676.5588,-173.541 687.183,-164.6432"/>
<polygon fill="#191970" stroke="#191970" points="648.8369,-192.1927 643.4177,-201.2967 653.3314,-197.5592 648.8369,-192.1927"/>
</g>
<!-- Node65&#45;&gt;Node64 -->
<g id="edge7" class="edge">
<title>Node65&#45;&gt;Node64</title>
<path fill="none" stroke="#191970" d="M586.1812,-129.0991C598.7792,-120.9969 611.5978,-110.5745 620.2644,-98 634.3988,-77.4922 638.5875,-48.1071 639.8021,-30.5029"/>
<polygon fill="#191970" stroke="#191970" points="584.2833,-126.1567 577.5485,-134.3355 587.9137,-132.1417 584.2833,-126.1567"/>
</g>
<!-- Node66 -->
<g id="node6" class="node">
<title>Node66</title>
<g id="a_node6"><a xlink:href="relax_2analysis_8h.html" target="_top" xlink:title="The set of Relax specific analysis on IR. ">
<polygon fill="#ffffff" stroke="#000000" points="305.7644,-73 305.7644,-92 460.7644,-92 460.7644,-73 305.7644,-73"/>
<text text-anchor="middle" x="383.2644" y="-80" font-family="Helvetica,sans-Serif" font-size="10.00" fill="#000000">include/tvm/relax/analysis.h</text>
</a>
</g>
</g>
<!-- Node65&#45;&gt;Node66 -->
<g id="edge5" class="edge">
<title>Node65&#45;&gt;Node66</title>
<path fill="none" stroke="#191970" d="M499.3828,-130.5243C469.0761,-117.99 430.6352,-102.0916 406.4858,-92.1039"/>
<polygon fill="#191970" stroke="#191970" points="498.3299,-133.8763 508.9085,-134.4639 501.0053,-127.4077 498.3299,-133.8763"/>
</g>
<!-- Node67 -->
<g id="node7" class="node">
<title>Node67</title>
<g id="a_node7"><a xlink:href="nested__msg_8h.html" target="_top" xlink:title="Helper container to store nested message for robust tuple&#45;aware analysis. ">
<polygon fill="#ffffff" stroke="#000000" points="14.2644,-67.5 14.2644,-97.5 152.2644,-97.5 152.2644,-67.5 14.2644,-67.5"/>
<text text-anchor="start" x="22.2644" y="-85.5" font-family="Helvetica,sans-Serif" font-size="10.00" fill="#000000">include/tvm/relax/nested</text>
<text text-anchor="middle" x="83.2644" y="-74.5" font-family="Helvetica,sans-Serif" font-size="10.00" fill="#000000">_msg.h</text>
</a>
</g>
</g>
<!-- Node65&#45;&gt;Node67 -->
<g id="edge8" class="edge">
<title>Node65&#45;&gt;Node67</title>
<path fill="none" stroke="#191970" d="M468.2965,-140.6203C390.6166,-131.3199 267.3124,-115.6302 161.2644,-98 158.4043,-97.5245 155.4886,-97.0227 152.5456,-96.5022"/>
<polygon fill="#191970" stroke="#191970" points="468.1339,-144.1256 478.4779,-141.834 468.9625,-137.1749 468.1339,-144.1256"/>
</g>
<!-- Node68 -->
<g id="node8" class="node">
<title>Node68</title>
<g id="a_node8"><a xlink:href="relax_2op__attr__types_8h.html" target="_top" xlink:title="Data structures that can appear in operator attributes. ">
<polygon fill="#ffffff" stroke="#000000" points="170.7644,-67.5 170.7644,-97.5 287.7644,-97.5 287.7644,-67.5 170.7644,-67.5"/>
<text text-anchor="start" x="178.7644" y="-85.5" font-family="Helvetica,sans-Serif" font-size="10.00" fill="#000000">include/tvm/relax/op</text>
<text text-anchor="middle" x="229.2644" y="-74.5" font-family="Helvetica,sans-Serif" font-size="10.00" fill="#000000">_attr_types.h</text>
</a>
</g>
</g>
<!-- Node65&#45;&gt;Node68 -->
<g id="edge9" class="edge">
<title>Node65&#45;&gt;Node68</title>
<path fill="none" stroke="#191970" d="M468.642,-134.1347C419.3496,-124.1309 353.9539,-110.6371 296.2644,-98 293.582,-97.4124 290.8408,-96.8053 288.073,-96.1869"/>
<polygon fill="#191970" stroke="#191970" points="468.0968,-137.5953 478.5927,-136.1512 469.4871,-130.7347 468.0968,-137.5953"/>
</g>
<!-- Node69 -->
<g id="node9" class="node">
<title>Node69</title>
<g id="a_node9"><a xlink:href="struct__info__functor_8h.html" target="_top" xlink:title="Functors and visitors for struct info. ">
<polygon fill="#ffffff" stroke="#000000" points="478.7644,-67.5 478.7644,-97.5 611.7644,-97.5 611.7644,-67.5 478.7644,-67.5"/>
<text text-anchor="start" x="486.7644" y="-85.5" font-family="Helvetica,sans-Serif" font-size="10.00" fill="#000000">include/tvm/relax/struct</text>
<text text-anchor="middle" x="545.2644" y="-74.5" font-family="Helvetica,sans-Serif" font-size="10.00" fill="#000000">_info_functor.h</text>
</a>
</g>
</g>
<!-- Node65&#45;&gt;Node69 -->
<g id="edge10" class="edge">
<title>Node65&#45;&gt;Node69</title>
<path fill="none" stroke="#191970" d="M545.2644,-124.0249C545.2644,-115.128 545.2644,-105.4287 545.2644,-97.6432"/>
<polygon fill="#191970" stroke="#191970" points="541.7645,-124.2966 545.2644,-134.2967 548.7645,-124.2967 541.7645,-124.2966"/>
</g>
<!-- Node70 -->
<g id="node10" class="node">
<title>Node70</title>
<g id="a_node10"><a xlink:href="relax_2ir_8h.html" target="_top" xlink:title="include/tvm/script\l/ir_builder/relax/ir.h">
<polygon fill="#ffffff" stroke="#000000" points="668.7644,-67.5 668.7644,-97.5 779.7644,-97.5 779.7644,-67.5 668.7644,-67.5"/>
<text text-anchor="start" x="676.7644" y="-85.5" font-family="Helvetica,sans-Serif" font-size="10.00" fill="#000000">include/tvm/script</text>
<text text-anchor="middle" x="724.2644" y="-74.5" font-family="Helvetica,sans-Serif" font-size="10.00" fill="#000000">/ir_builder/relax/ir.h</text>
</a>
</g>
</g>
<!-- Node65&#45;&gt;Node70 -->
<g id="edge12" class="edge">
<title>Node65&#45;&gt;Node70</title>
<path fill="none" stroke="#191970" d="M595.0505,-130.865C623.0698,-120.3773 657.6031,-107.4515 683.9181,-97.6017"/>
<polygon fill="#191970" stroke="#191970" points="593.574,-127.6804 585.4355,-134.4639 596.0279,-134.2362 593.574,-127.6804"/>
</g>
<!-- Node66&#45;&gt;Node62 -->
<g id="edge6" class="edge">
<title>Node66&#45;&gt;Node62</title>
<path fill="none" stroke="#191970" d="M345.1575,-69.6052C312.1519,-58.4367 264.3823,-42.2722 229.6571,-30.5218"/>
<polygon fill="#191970" stroke="#191970" points="344.3016,-73.0105 354.8959,-72.9005 346.5453,-66.3798 344.3016,-73.0105"/>
</g>
<!-- Node69&#45;&gt;Node64 -->
<g id="edge11" class="edge">
<title>Node69&#45;&gt;Node64</title>
<path fill="none" stroke="#191970" d="M575.2576,-61.3469C589.3932,-51.3776 605.9339,-39.7121 618.7928,-30.6432"/>
<polygon fill="#191970" stroke="#191970" points="572.9763,-58.6729 566.8214,-67.2967 577.0107,-64.3934 572.9763,-58.6729"/>
</g>
<!-- Node71&#45;&gt;Node70 -->
<g id="edge14" class="edge">
<title>Node71&#45;&gt;Node70</title>
<path fill="none" stroke="#191970" d="M712.3227,-124.6103C714.8905,-115.5553 717.7137,-105.5998 719.9701,-97.6432"/>
<polygon fill="#191970" stroke="#191970" points="708.9369,-123.7211 709.5758,-134.2967 715.6714,-125.6309 708.9369,-123.7211"/>
</g>
</g>
</svg>
