<?xml version="1.0" encoding="UTF-8" standalone="no"?>
<!DOCTYPE svg PUBLIC "-//W3C//DTD SVG 1.1//EN"
 "http://www.w3.org/Graphics/SVG/1.1/DTD/svg11.dtd">
<!-- Generated by graphviz version 2.40.1 (20161225.0304)
 -->
<!-- Title: include/tvm/relay/op_attr_types.h Pages: 1 -->
<svg width="479pt" height="173pt"
 viewBox="0.00 0.00 478.50 173.00" xmlns="http://www.w3.org/2000/svg" xmlns:xlink="http://www.w3.org/1999/xlink">
<g id="graph0" class="graph" transform="scale(1 1) rotate(0) translate(4 169)">
<title>include/tvm/relay/op_attr_types.h</title>
<polygon fill="#ffffff" stroke="transparent" points="-4,4 -4,-169 474.5,-169 474.5,4 -4,4"/>
<!-- Node91 -->
<g id="node1" class="node">
<title>Node91</title>
<polygon fill="#bfbfbf" stroke="#000000" points="173,-134.5 173,-164.5 290,-164.5 290,-134.5 173,-134.5"/>
<text text-anchor="start" x="181" y="-152.5" font-family="Helvetica,sans-Serif" font-size="10.00" fill="#000000">include/tvm/relay/op</text>
<text text-anchor="middle" x="231.5" y="-141.5" font-family="Helvetica,sans-Serif" font-size="10.00" fill="#000000">_attr_types.h</text>
</g>
<!-- Node92 -->
<g id="node2" class="node">
<title>Node92</title>
<g id="a_node2"><a xlink:href="relax_2analysis_8h.html" target="_top" xlink:title="The set of Relax specific analysis on IR. ">
<polygon fill="#ffffff" stroke="#000000" points="0,-73 0,-92 155,-92 155,-73 0,-73"/>
<text text-anchor="middle" x="77.5" y="-80" font-family="Helvetica,sans-Serif" font-size="10.00" fill="#000000">include/tvm/relax/analysis.h</text>
</a>
</g>
</g>
<!-- Node91&#45;&gt;Node92 -->
<g id="edge1" class="edge">
<title>Node91&#45;&gt;Node92</title>
<path fill="none" stroke="#191970" d="M187.5096,-130.3613C158.7579,-117.8525 122.4321,-102.0484 99.5747,-92.1039"/>
<polygon fill="#191970" stroke="#191970" points="186.3733,-133.6838 196.9394,-134.4639 189.166,-127.265 186.3733,-133.6838"/>
</g>
<!-- Node94 -->
<g id="node4" class="node">
<title>Node94</title>
<g id="a_node4"><a xlink:href="op__strategy_8h.html" target="_top" xlink:title="The Relay operator Strategy and related data structure. ">
<polygon fill="#ffffff" stroke="#000000" points="173,-67.5 173,-97.5 290,-97.5 290,-67.5 173,-67.5"/>
<text text-anchor="start" x="181" y="-85.5" font-family="Helvetica,sans-Serif" font-size="10.00" fill="#000000">include/tvm/relay/op</text>
<text text-anchor="middle" x="231.5" y="-74.5" font-family="Helvetica,sans-Serif" font-size="10.00" fill="#000000">_strategy.h</text>
</a>
</g>
</g>
<!-- Node91&#45;&gt;Node94 -->
<g id="edge3" class="edge">
<title>Node91&#45;&gt;Node94</title>
<path fill="none" stroke="#191970" d="M231.5,-124.0249C231.5,-115.128 231.5,-105.4287 231.5,-97.6432"/>
<polygon fill="#191970" stroke="#191970" points="228.0001,-124.2966 231.5,-134.2967 235.0001,-124.2967 228.0001,-124.2966"/>
</g>
<!-- Node95 -->
<g id="node5" class="node">
<title>Node95</title>
<g id="a_node5"><a xlink:href="relay_2transform_8h.html" target="_top" xlink:title="Relay specific transformation passes. ">
<polygon fill="#ffffff" stroke="#000000" points="308.5,-73 308.5,-92 470.5,-92 470.5,-73 308.5,-73"/>
<text text-anchor="middle" x="389.5" y="-80" font-family="Helvetica,sans-Serif" font-size="10.00" fill="#000000">include/tvm/relay/transform.h</text>
</a>
</g>
</g>
<!-- Node91&#45;&gt;Node95 -->
<g id="edge4" class="edge">
<title>Node91&#45;&gt;Node95</title>
<path fill="none" stroke="#191970" d="M276.2487,-130.5243C305.8072,-117.99 343.2989,-102.0916 366.8519,-92.1039"/>
<polygon fill="#191970" stroke="#191970" points="274.7983,-127.3376 266.9583,-134.4639 277.5312,-133.7821 274.7983,-127.3376"/>
</g>
<!-- Node93 -->
<g id="node3" class="node">
<title>Node93</title>
<g id="a_node3"><a xlink:href="binding__rewrite_8h.html" target="_top" xlink:title="An IR rewriter to easily add/remove/replace bindings (statements). ">
<polygon fill="#ffffff" stroke="#000000" points="7,-.5 7,-30.5 148,-30.5 148,-.5 7,-.5"/>
<text text-anchor="start" x="15" y="-18.5" font-family="Helvetica,sans-Serif" font-size="10.00" fill="#000000">include/tvm/relax/binding</text>
<text text-anchor="middle" x="77.5" y="-7.5" font-family="Helvetica,sans-Serif" font-size="10.00" fill="#000000">_rewrite.h</text>
</a>
</g>
</g>
<!-- Node92&#45;&gt;Node93 -->
<g id="edge2" class="edge">
<title>Node92&#45;&gt;Node93</title>
<path fill="none" stroke="#191970" d="M77.5,-62.7758C77.5,-52.4641 77.5,-40.0437 77.5,-30.5218"/>
<polygon fill="#191970" stroke="#191970" points="74.0001,-62.9005 77.5,-72.9005 81.0001,-62.9006 74.0001,-62.9005"/>
</g>
<!-- Node96 -->
<g id="node6" class="node">
<title>Node96</title>
<g id="a_node6"><a xlink:href="relay_2qnn_2transform_8h.html" target="_top" xlink:title="include/tvm/relay/qnn\l/transform.h">
<polygon fill="#ffffff" stroke="#000000" points="328,-.5 328,-30.5 451,-30.5 451,-.5 328,-.5"/>
<text text-anchor="start" x="336" y="-18.5" font-family="Helvetica,sans-Serif" font-size="10.00" fill="#000000">include/tvm/relay/qnn</text>
<text text-anchor="middle" x="389.5" y="-7.5" font-family="Helvetica,sans-Serif" font-size="10.00" fill="#000000">/transform.h</text>
</a>
</g>
</g>
<!-- Node95&#45;&gt;Node96 -->
<g id="edge5" class="edge">
<title>Node95&#45;&gt;Node96</title>
<path fill="none" stroke="#191970" d="M389.5,-62.7758C389.5,-52.4641 389.5,-40.0437 389.5,-30.5218"/>
<polygon fill="#191970" stroke="#191970" points="386.0001,-62.9005 389.5,-72.9005 393.0001,-62.9006 386.0001,-62.9005"/>
</g>
</g>
</svg>
