<?xml version="1.0" encoding="UTF-8" standalone="no"?>
<!DOCTYPE svg PUBLIC "-//W3C//DTD SVG 1.1//EN"
 "http://www.w3.org/Graphics/SVG/1.1/DTD/svg11.dtd">
<!-- Generated by graphviz version 2.40.1 (20161225.0304)
 -->
<!-- Title: include/tvm/relax/dataflow_pattern.h Pages: 1 -->
<svg width="501pt" height="162pt"
 viewBox="0.00 0.00 500.50 162.00" xmlns="http://www.w3.org/2000/svg" xmlns:xlink="http://www.w3.org/1999/xlink">
<g id="graph0" class="graph" transform="scale(1 1) rotate(0) translate(4 158)">
<title>include/tvm/relax/dataflow_pattern.h</title>
<polygon fill="#ffffff" stroke="transparent" points="-4,4 -4,-158 496.5,-158 496.5,4 -4,4"/>
<!-- Node88 -->
<g id="node1" class="node">
<title>Node88</title>
<polygon fill="#bfbfbf" stroke="#000000" points="165,-123.5 165,-153.5 312,-153.5 312,-123.5 165,-123.5"/>
<text text-anchor="start" x="173" y="-141.5" font-family="Helvetica,sans-Serif" font-size="10.00" fill="#000000">include/tvm/relax/dataflow</text>
<text text-anchor="middle" x="238.5" y="-130.5" font-family="Helvetica,sans-Serif" font-size="10.00" fill="#000000">_pattern.h</text>
</g>
<!-- Node89 -->
<g id="node2" class="node">
<title>Node89</title>
<g id="a_node2"><a xlink:href="relax_2dataflow__matcher_8h.html" target="_top" xlink:title="A pattern matcher for matching dataflow properties. ">
<polygon fill="#ffffff" stroke="#000000" points="0,-56.5 0,-86.5 147,-86.5 147,-56.5 0,-56.5"/>
<text text-anchor="start" x="8" y="-74.5" font-family="Helvetica,sans-Serif" font-size="10.00" fill="#000000">include/tvm/relax/dataflow</text>
<text text-anchor="middle" x="73.5" y="-63.5" font-family="Helvetica,sans-Serif" font-size="10.00" fill="#000000">_matcher.h</text>
</a>
</g>
</g>
<!-- Node88&#45;&gt;Node89 -->
<g id="edge1" class="edge">
<title>Node88&#45;&gt;Node89</title>
<path fill="none" stroke="#191970" d="M191.9298,-119.5897C166.2245,-109.1518 134.7358,-96.3654 110.6907,-86.6017"/>
<polygon fill="#191970" stroke="#191970" points="190.8887,-122.9444 201.4708,-123.4639 193.5223,-116.4587 190.8887,-122.9444"/>
</g>
<!-- Node90 -->
<g id="node3" class="node">
<title>Node90</title>
<g id="a_node3"><a xlink:href="relax_2dataflow__pattern__functor_8h.html" target="_top" xlink:title="Functors and visitors for dataflow patterns. ">
<polygon fill="#ffffff" stroke="#000000" points="165,-56.5 165,-86.5 312,-86.5 312,-56.5 165,-56.5"/>
<text text-anchor="start" x="173" y="-74.5" font-family="Helvetica,sans-Serif" font-size="10.00" fill="#000000">include/tvm/relax/dataflow</text>
<text text-anchor="middle" x="238.5" y="-63.5" font-family="Helvetica,sans-Serif" font-size="10.00" fill="#000000">_pattern_functor.h</text>
</a>
</g>
</g>
<!-- Node88&#45;&gt;Node90 -->
<g id="edge2" class="edge">
<title>Node88&#45;&gt;Node90</title>
<path fill="none" stroke="#191970" d="M238.5,-113.0249C238.5,-104.128 238.5,-94.4287 238.5,-86.6432"/>
<polygon fill="#191970" stroke="#191970" points="235.0001,-113.2966 238.5,-123.2967 242.0001,-113.2967 235.0001,-113.2966"/>
</g>
<!-- Node91 -->
<g id="node4" class="node">
<title>Node91</title>
<g id="a_node4"><a xlink:href="relax_2transform_8h.html" target="_top" xlink:title="Relax specific transformation passes. ">
<polygon fill="#ffffff" stroke="#000000" points="330.5,-62 330.5,-81 492.5,-81 492.5,-62 330.5,-62"/>
<text text-anchor="middle" x="411.5" y="-69" font-family="Helvetica,sans-Serif" font-size="10.00" fill="#000000">include/tvm/relax/transform.h</text>
</a>
</g>
</g>
<!-- Node88&#45;&gt;Node91 -->
<g id="edge3" class="edge">
<title>Node88&#45;&gt;Node91</title>
<path fill="none" stroke="#191970" d="M286.687,-119.838C319.2803,-107.2151 360.9688,-91.0699 386.9565,-81.0053"/>
<polygon fill="#191970" stroke="#191970" points="285.3856,-116.5886 277.3246,-123.4639 287.9137,-123.1162 285.3856,-116.5886"/>
</g>
<!-- Node92 -->
<g id="node5" class="node">
<title>Node92</title>
<g id="a_node5"><a xlink:href="backend_8h.html" target="_top" xlink:title="Relax backend specific transformation passes. ">
<polygon fill="#ffffff" stroke="#000000" points="334,-.5 334,-19.5 489,-19.5 489,-.5 334,-.5"/>
<text text-anchor="middle" x="411.5" y="-7.5" font-family="Helvetica,sans-Serif" font-size="10.00" fill="#000000">include/tvm/relax/backend.h</text>
</a>
</g>
</g>
<!-- Node91&#45;&gt;Node92 -->
<g id="edge4" class="edge">
<title>Node91&#45;&gt;Node92</title>
<path fill="none" stroke="#191970" d="M411.5,-51.7462C411.5,-41.0519 411.5,-28.314 411.5,-19.7449"/>
<polygon fill="#191970" stroke="#191970" points="408.0001,-51.8906 411.5,-61.8906 415.0001,-51.8907 408.0001,-51.8906"/>
</g>
</g>
</svg>
