<?xml version="1.0" encoding="UTF-8" standalone="no"?>
<!DOCTYPE svg PUBLIC "-//W3C//DTD SVG 1.1//EN"
 "http://www.w3.org/Graphics/SVG/1.1/DTD/svg11.dtd">
<!-- Generated by graphviz version 2.40.1 (20161225.0304)
 -->
<!-- Title: include/tvm/runtime/relax_vm/executable.h Pages: 1 -->
<svg width="270pt" height="106pt"
 viewBox="0.00 0.00 270.00 106.00" xmlns="http://www.w3.org/2000/svg" xmlns:xlink="http://www.w3.org/1999/xlink">
<g id="graph0" class="graph" transform="scale(1 1) rotate(0) translate(4 102)">
<title>include/tvm/runtime/relax_vm/executable.h</title>
<polygon fill="#ffffff" stroke="transparent" points="-4,4 -4,-102 266,-102 266,4 -4,4"/>
<!-- Node43 -->
<g id="node1" class="node">
<title>Node43</title>
<polygon fill="#bfbfbf" stroke="#000000" points="68.5,-67.5 68.5,-97.5 199.5,-97.5 199.5,-67.5 68.5,-67.5"/>
<text text-anchor="start" x="76.5" y="-85.5" font-family="Helvetica,sans-Serif" font-size="10.00" fill="#000000">include/tvm/runtime</text>
<text text-anchor="middle" x="134" y="-74.5" font-family="Helvetica,sans-Serif" font-size="10.00" fill="#000000">/relax_vm/executable.h</text>
</g>
<!-- Node44 -->
<g id="node2" class="node">
<title>Node44</title>
<g id="a_node2"><a xlink:href="exec__builder_8h.html" target="_top" xlink:title="include/tvm/relax/exec\l_builder.h">
<polygon fill="#ffffff" stroke="#000000" points="0,-.5 0,-30.5 128,-30.5 128,-.5 0,-.5"/>
<text text-anchor="start" x="8" y="-18.5" font-family="Helvetica,sans-Serif" font-size="10.00" fill="#000000">include/tvm/relax/exec</text>
<text text-anchor="middle" x="64" y="-7.5" font-family="Helvetica,sans-Serif" font-size="10.00" fill="#000000">_builder.h</text>
</a>
</g>
</g>
<!-- Node43&#45;&gt;Node44 -->
<g id="edge1" class="edge">
<title>Node43&#45;&gt;Node44</title>
<path fill="none" stroke="#191970" d="M110.7133,-60.2113C100.5681,-50.5009 88.9386,-39.3698 79.8212,-30.6432"/>
<polygon fill="#191970" stroke="#191970" points="108.4716,-62.9105 118.1159,-67.2967 113.3118,-57.8536 108.4716,-62.9105"/>
</g>
<!-- Node45 -->
<g id="node3" class="node">
<title>Node45</title>
<g id="a_node3"><a xlink:href="runtime_2relax__vm_2vm_8h.html" target="_top" xlink:title="include/tvm/runtime\l/relax_vm/vm.h">
<polygon fill="#ffffff" stroke="#000000" points="146,-.5 146,-30.5 262,-30.5 262,-.5 146,-.5"/>
<text text-anchor="start" x="154" y="-18.5" font-family="Helvetica,sans-Serif" font-size="10.00" fill="#000000">include/tvm/runtime</text>
<text text-anchor="middle" x="204" y="-7.5" font-family="Helvetica,sans-Serif" font-size="10.00" fill="#000000">/relax_vm/vm.h</text>
</a>
</g>
</g>
<!-- Node43&#45;&gt;Node45 -->
<g id="edge2" class="edge">
<title>Node43&#45;&gt;Node45</title>
<path fill="none" stroke="#191970" d="M157.2867,-60.2113C167.4319,-50.5009 179.0614,-39.3698 188.1788,-30.6432"/>
<polygon fill="#191970" stroke="#191970" points="154.6882,-57.8536 149.8841,-67.2967 159.5284,-62.9105 154.6882,-57.8536"/>
</g>
</g>
</svg>
