<?xml version="1.0" encoding="UTF-8" standalone="no"?>
<!DOCTYPE svg PUBLIC "-//W3C//DTD SVG 1.1//EN"
 "http://www.w3.org/Graphics/SVG/1.1/DTD/svg11.dtd">
<!-- Generated by graphviz version 2.40.1 (20161225.0304)
 -->
<!-- Title: include/tvm/relax/type.h Pages: 1 -->
<svg width="2638pt" height="363pt"
 viewBox="0.00 0.00 2638.00 363.00" xmlns="http://www.w3.org/2000/svg" xmlns:xlink="http://www.w3.org/1999/xlink">
<g id="graph0" class="graph" transform="scale(1 1) rotate(0) translate(4 359)">
<title>include/tvm/relax/type.h</title>
<polygon fill="#ffffff" stroke="transparent" points="-4,4 -4,-359 2634,-359 2634,4 -4,4"/>
<!-- Node68 -->
<g id="node1" class="node">
<title>Node68</title>
<polygon fill="#bfbfbf" stroke="#000000" points="1543.5,-335.5 1543.5,-354.5 1679.5,-354.5 1679.5,-335.5 1543.5,-335.5"/>
<text text-anchor="middle" x="1611.5" y="-342.5" font-family="Helvetica,sans-Serif" font-size="10.00" fill="#000000">include/tvm/relax/type.h</text>
</g>
<!-- Node69 -->
<g id="node2" class="node">
<title>Node69</title>
<g id="a_node2"><a xlink:href="type__functor_8h.html" target="_top" xlink:title="A way to defined arbitrary function signature with dispatch on types. ">
<polygon fill="#ffffff" stroke="#000000" points="1426,-268.5 1426,-298.5 1535,-298.5 1535,-268.5 1426,-268.5"/>
<text text-anchor="start" x="1434" y="-286.5" font-family="Helvetica,sans-Serif" font-size="10.00" fill="#000000">include/tvm/ir/type</text>
<text text-anchor="middle" x="1480.5" y="-275.5" font-family="Helvetica,sans-Serif" font-size="10.00" fill="#000000">_functor.h</text>
</a>
</g>
</g>
<!-- Node68&#45;&gt;Node69 -->
<g id="edge1" class="edge">
<title>Node68&#45;&gt;Node69</title>
<path fill="none" stroke="#191970" d="M1581.7933,-331.0537C1561.1557,-321.3651 1533.6763,-308.4644 1512.5462,-298.5446"/>
<polygon fill="#191970" stroke="#191970" points="1580.4917,-334.3092 1591.0313,-335.3906 1583.4665,-327.9727 1580.4917,-334.3092"/>
</g>
<!-- Node70 -->
<g id="node3" class="node">
<title>Node70</title>
<g id="a_node3"><a xlink:href="relax_2dataflow__pattern_8h.html" target="_top" xlink:title="A pattern language for matching dataflow properties. ">
<polygon fill="#ffffff" stroke="#000000" points="200,-201.5 200,-231.5 347,-231.5 347,-201.5 200,-201.5"/>
<text text-anchor="start" x="208" y="-219.5" font-family="Helvetica,sans-Serif" font-size="10.00" fill="#000000">include/tvm/relax/dataflow</text>
<text text-anchor="middle" x="273.5" y="-208.5" font-family="Helvetica,sans-Serif" font-size="10.00" fill="#000000">_pattern.h</text>
</a>
</g>
</g>
<!-- Node68&#45;&gt;Node70 -->
<g id="edge2" class="edge">
<title>Node68&#45;&gt;Node70</title>
<path fill="none" stroke="#191970" d="M1601.6584,-326.6775C1590.5377,-308.0895 1570.5414,-280.3506 1544.5,-268 1427.7878,-212.6471 511.1944,-243.1097 382.5,-232 371.0741,-231.0136 359.0165,-229.6382 347.2511,-228.1102"/>
<polygon fill="#191970" stroke="#191970" points="1598.6567,-328.4793 1606.6498,-335.4337 1604.7381,-325.0127 1598.6567,-328.4793"/>
</g>
<!-- Node75 -->
<g id="node8" class="node">
<title>Node75</title>
<g id="a_node8"><a xlink:href="relax_2expr_8h.html" target="_top" xlink:title="include/tvm/relax/expr.h">
<polygon fill="#ffffff" stroke="#000000" points="1592,-274 1592,-293 1727,-293 1727,-274 1592,-274"/>
<text text-anchor="middle" x="1659.5" y="-281" font-family="Helvetica,sans-Serif" font-size="10.00" fill="#000000">include/tvm/relax/expr.h</text>
</a>
</g>
</g>
<!-- Node68&#45;&gt;Node75 -->
<g id="edge7" class="edge">
<title>Node68&#45;&gt;Node75</title>
<path fill="none" stroke="#191970" d="M1625.3564,-327.2465C1633.9956,-316.1775 1644.7837,-302.3552 1651.8943,-293.2449"/>
<polygon fill="#191970" stroke="#191970" points="1622.3936,-325.354 1619,-335.3906 1627.9119,-329.6609 1622.3936,-325.354"/>
</g>
<!-- Node89 -->
<g id="node22" class="node">
<title>Node89</title>
<g id="a_node22"><a xlink:href="struct__info_8h.html" target="_top" xlink:title="include/tvm/relax/struct\l_info.h">
<polygon fill="#ffffff" stroke="#000000" points="2022,-134.5 2022,-164.5 2155,-164.5 2155,-134.5 2022,-134.5"/>
<text text-anchor="start" x="2030" y="-152.5" font-family="Helvetica,sans-Serif" font-size="10.00" fill="#000000">include/tvm/relax/struct</text>
<text text-anchor="middle" x="2088.5" y="-141.5" font-family="Helvetica,sans-Serif" font-size="10.00" fill="#000000">_info.h</text>
</a>
</g>
</g>
<!-- Node68&#45;&gt;Node89 -->
<g id="edge41" class="edge">
<title>Node68&#45;&gt;Node89</title>
<path fill="none" stroke="#191970" d="M1689.7596,-340.8083C1827.7693,-331.6026 2105.4439,-304.344 2164.5,-232 2184.5733,-207.4101 2148.2733,-180.6875 2119.2499,-164.5171"/>
<polygon fill="#191970" stroke="#191970" points="1689.4178,-337.323 1679.6665,-341.4659 1689.8729,-344.3082 1689.4178,-337.323"/>
</g>
<!-- Node71 -->
<g id="node4" class="node">
<title>Node71</title>
<g id="a_node4"><a xlink:href="relax_2dataflow__matcher_8h.html" target="_top" xlink:title="A pattern matcher for matching dataflow properties. ">
<polygon fill="#ffffff" stroke="#000000" points="0,-134.5 0,-164.5 147,-164.5 147,-134.5 0,-134.5"/>
<text text-anchor="start" x="8" y="-152.5" font-family="Helvetica,sans-Serif" font-size="10.00" fill="#000000">include/tvm/relax/dataflow</text>
<text text-anchor="middle" x="73.5" y="-141.5" font-family="Helvetica,sans-Serif" font-size="10.00" fill="#000000">_matcher.h</text>
</a>
</g>
</g>
<!-- Node70&#45;&gt;Node71 -->
<g id="edge3" class="edge">
<title>Node70&#45;&gt;Node71</title>
<path fill="none" stroke="#191970" d="M219.0997,-198.2759C187.5792,-187.7165 148.3671,-174.5805 118.5797,-164.6017"/>
<polygon fill="#191970" stroke="#191970" points="218.0222,-201.6061 228.6161,-201.4639 220.2458,-194.9686 218.0222,-201.6061"/>
</g>
<!-- Node72 -->
<g id="node5" class="node">
<title>Node72</title>
<g id="a_node5"><a xlink:href="relax_2dataflow__pattern__functor_8h.html" target="_top" xlink:title="Functors and visitors for dataflow patterns. ">
<polygon fill="#ffffff" stroke="#000000" points="165,-134.5 165,-164.5 312,-164.5 312,-134.5 165,-134.5"/>
<text text-anchor="start" x="173" y="-152.5" font-family="Helvetica,sans-Serif" font-size="10.00" fill="#000000">include/tvm/relax/dataflow</text>
<text text-anchor="middle" x="238.5" y="-141.5" font-family="Helvetica,sans-Serif" font-size="10.00" fill="#000000">_pattern_functor.h</text>
</a>
</g>
</g>
<!-- Node70&#45;&gt;Node72 -->
<g id="edge4" class="edge">
<title>Node70&#45;&gt;Node72</title>
<path fill="none" stroke="#191970" d="M260.8024,-192.1932C255.9918,-182.9844 250.6565,-172.771 246.4106,-164.6432"/>
<polygon fill="#191970" stroke="#191970" points="257.8255,-194.0537 265.558,-201.2967 264.03,-190.8126 257.8255,-194.0537"/>
</g>
<!-- Node73 -->
<g id="node6" class="node">
<title>Node73</title>
<g id="a_node6"><a xlink:href="relax_2transform_8h.html" target="_top" xlink:title="Relax specific transformation passes. ">
<polygon fill="#ffffff" stroke="#000000" points="330.5,-140 330.5,-159 492.5,-159 492.5,-140 330.5,-140"/>
<text text-anchor="middle" x="411.5" y="-147" font-family="Helvetica,sans-Serif" font-size="10.00" fill="#000000">include/tvm/relax/transform.h</text>
</a>
</g>
</g>
<!-- Node70&#45;&gt;Node73 -->
<g id="edge5" class="edge">
<title>Node70&#45;&gt;Node73</title>
<path fill="none" stroke="#191970" d="M313.5936,-197.0343C339.2497,-184.5781 371.4143,-168.9619 391.7188,-159.1039"/>
<polygon fill="#191970" stroke="#191970" points="311.9371,-193.9478 304.4699,-201.4639 314.9944,-200.2448 311.9371,-193.9478"/>
</g>
<!-- Node74 -->
<g id="node7" class="node">
<title>Node74</title>
<g id="a_node7"><a xlink:href="backend_8h.html" target="_top" xlink:title="Relax backend specific transformation passes. ">
<polygon fill="#ffffff" stroke="#000000" points="334,-73 334,-92 489,-92 489,-73 334,-73"/>
<text text-anchor="middle" x="411.5" y="-80" font-family="Helvetica,sans-Serif" font-size="10.00" fill="#000000">include/tvm/relax/backend.h</text>
</a>
</g>
</g>
<!-- Node73&#45;&gt;Node74 -->
<g id="edge6" class="edge">
<title>Node73&#45;&gt;Node74</title>
<path fill="none" stroke="#191970" d="M411.5,-129.6079C411.5,-117.214 411.5,-101.8263 411.5,-92.0817"/>
<polygon fill="#191970" stroke="#191970" points="408.0001,-129.9005 411.5,-139.9005 415.0001,-129.9006 408.0001,-129.9005"/>
</g>
<!-- Node75&#45;&gt;Node70 -->
<g id="edge32" class="edge">
<title>Node75&#45;&gt;Node70</title>
<path fill="none" stroke="#191970" d="M1605.82,-272.1033C1596.4191,-270.4658 1586.7025,-268.9997 1577.5,-268 1039.9811,-209.6079 899.3726,-287.039 361.5,-232 356.8703,-231.5263 352.1172,-230.9507 347.3331,-230.3037"/>
<polygon fill="#191970" stroke="#191970" points="1605.3921,-275.5829 1615.8578,-273.9335 1606.6478,-268.6965 1605.3921,-275.5829"/>
</g>
<!-- Node75&#45;&gt;Node73 -->
<g id="edge38" class="edge">
<title>Node75&#45;&gt;Node73</title>
<path fill="none" stroke="#191970" d="M1605.8193,-272.1097C1596.4184,-270.4715 1586.7021,-269.0035 1577.5,-268 1512.1349,-260.8719 440.2816,-279.196 394.5,-232 375.1539,-212.0563 393.889,-176.272 404.8352,-159.1464"/>
<polygon fill="#191970" stroke="#191970" points="1605.3914,-275.5894 1615.857,-273.9402 1606.6472,-268.7029 1605.3914,-275.5894"/>
</g>
<!-- Node76 -->
<g id="node9" class="node">
<title>Node76</title>
<g id="a_node9"><a xlink:href="relax_2analysis_8h.html" target="_top" xlink:title="The set of Relax specific analysis on IR. ">
<polygon fill="#ffffff" stroke="#000000" points="2429,-73 2429,-92 2584,-92 2584,-73 2429,-73"/>
<text text-anchor="middle" x="2506.5" y="-80" font-family="Helvetica,sans-Serif" font-size="10.00" fill="#000000">include/tvm/relax/analysis.h</text>
</a>
</g>
</g>
<!-- Node75&#45;&gt;Node76 -->
<g id="edge8" class="edge">
<title>Node75&#45;&gt;Node76</title>
<path fill="none" stroke="#191970" d="M1737.5057,-279.9404C1868.742,-273.3402 2127.9404,-257.5077 2215.5,-232 2330.0154,-198.6396 2452.4715,-119.4107 2492.7818,-92.0149"/>
<polygon fill="#191970" stroke="#191970" points="1736.9448,-276.4639 1727.131,-280.4564 1737.2925,-283.4553 1736.9448,-276.4639"/>
</g>
<!-- Node77 -->
<g id="node10" class="node">
<title>Node77</title>
<g id="a_node10"><a xlink:href="binding__rewrite_8h.html" target="_top" xlink:title="An IR rewriter to easily add/remove/replace bindings (statements). ">
<polygon fill="#ffffff" stroke="#000000" points="2489,-.5 2489,-30.5 2630,-30.5 2630,-.5 2489,-.5"/>
<text text-anchor="start" x="2497" y="-18.5" font-family="Helvetica,sans-Serif" font-size="10.00" fill="#000000">include/tvm/relax/binding</text>
<text text-anchor="middle" x="2559.5" y="-7.5" font-family="Helvetica,sans-Serif" font-size="10.00" fill="#000000">_rewrite.h</text>
</a>
</g>
</g>
<!-- Node75&#45;&gt;Node77 -->
<g id="edge19" class="edge">
<title>Node75&#45;&gt;Node77</title>
<path fill="none" stroke="#191970" d="M1737.4234,-279.8616C1878.0951,-272.8018 2168.9939,-255.8188 2267.5,-232 2419.7634,-195.1827 2506.2928,-228.1328 2593.5,-98 2607.9022,-76.5086 2589.0453,-47.9487 2574.1931,-30.6882"/>
<polygon fill="#191970" stroke="#191970" points="1736.9637,-276.38 1727.1501,-280.3729 1737.3118,-283.3714 1736.9637,-276.38"/>
</g>
<!-- Node78 -->
<g id="node11" class="node">
<title>Node78</title>
<g id="a_node11"><a xlink:href="create_8h.html" target="_top" xlink:title="Attributes for tensor creation operators. ">
<polygon fill="#ffffff" stroke="#000000" points="403.5,-201.5 403.5,-231.5 531.5,-231.5 531.5,-201.5 403.5,-201.5"/>
<text text-anchor="start" x="411.5" y="-219.5" font-family="Helvetica,sans-Serif" font-size="10.00" fill="#000000">include/tvm/relax/attrs</text>
<text text-anchor="middle" x="467.5" y="-208.5" font-family="Helvetica,sans-Serif" font-size="10.00" fill="#000000">/create.h</text>
</a>
</g>
</g>
<!-- Node75&#45;&gt;Node78 -->
<g id="edge10" class="edge">
<title>Node75&#45;&gt;Node78</title>
<path fill="none" stroke="#191970" d="M1605.8156,-272.143C1596.4152,-270.5011 1586.6999,-269.0232 1577.5,-268 1119.1594,-217.0252 998.2409,-288.1053 540.5,-232 537.6708,-231.6532 534.7888,-231.2516 531.8839,-230.8071"/>
<polygon fill="#191970" stroke="#191970" points="1605.3872,-275.6226 1615.8532,-273.9753 1606.6443,-268.7364 1605.3872,-275.6226"/>
</g>
<!-- Node79 -->
<g id="node12" class="node">
<title>Node79</title>
<g id="a_node12"><a xlink:href="datatype_8h.html" target="_top" xlink:title="Attributes for datatype operators. ">
<polygon fill="#ffffff" stroke="#000000" points="549.5,-201.5 549.5,-231.5 677.5,-231.5 677.5,-201.5 549.5,-201.5"/>
<text text-anchor="start" x="557.5" y="-219.5" font-family="Helvetica,sans-Serif" font-size="10.00" fill="#000000">include/tvm/relax/attrs</text>
<text text-anchor="middle" x="613.5" y="-208.5" font-family="Helvetica,sans-Serif" font-size="10.00" fill="#000000">/datatype.h</text>
</a>
</g>
</g>
<!-- Node75&#45;&gt;Node79 -->
<g id="edge11" class="edge">
<title>Node75&#45;&gt;Node79</title>
<path fill="none" stroke="#191970" d="M1605.4864,-272.1304C1596.1875,-270.5061 1586.5912,-269.0372 1577.5,-268 1183.7315,-223.074 1079.7406,-281.3335 686.5,-232 683.6718,-231.6452 680.7906,-231.2369 677.8864,-230.7869"/>
<polygon fill="#191970" stroke="#191970" points="1604.9564,-275.5914 1615.4219,-273.941 1606.2114,-268.7048 1604.9564,-275.5914"/>
</g>
<!-- Node80 -->
<g id="node13" class="node">
<title>Node80</title>
<g id="a_node13"><a xlink:href="relax_2attrs_2image_8h.html" target="_top" xlink:title="Attributes for image operators. ">
<polygon fill="#ffffff" stroke="#000000" points="695.5,-201.5 695.5,-231.5 823.5,-231.5 823.5,-201.5 695.5,-201.5"/>
<text text-anchor="start" x="703.5" y="-219.5" font-family="Helvetica,sans-Serif" font-size="10.00" fill="#000000">include/tvm/relax/attrs</text>
<text text-anchor="middle" x="759.5" y="-208.5" font-family="Helvetica,sans-Serif" font-size="10.00" fill="#000000">/image.h</text>
</a>
</g>
</g>
<!-- Node75&#45;&gt;Node80 -->
<g id="edge12" class="edge">
<title>Node75&#45;&gt;Node80</title>
<path fill="none" stroke="#191970" d="M1604.8612,-272.0834C1595.7566,-270.4945 1586.3859,-269.0494 1577.5,-268 1248.2903,-229.1214 1161.2536,-274.5635 832.5,-232 829.6732,-231.634 826.7932,-231.2165 823.8899,-230.7589"/>
<polygon fill="#191970" stroke="#191970" points="1604.5226,-275.5791 1614.9874,-273.9249 1605.7751,-268.6921 1604.5226,-275.5791"/>
</g>
<!-- Node81 -->
<g id="node14" class="node">
<title>Node81</title>
<g id="a_node14"><a xlink:href="index_8h.html" target="_top" xlink:title="Attributes for indexing operators. ">
<polygon fill="#ffffff" stroke="#000000" points="841.5,-201.5 841.5,-231.5 969.5,-231.5 969.5,-201.5 841.5,-201.5"/>
<text text-anchor="start" x="849.5" y="-219.5" font-family="Helvetica,sans-Serif" font-size="10.00" fill="#000000">include/tvm/relax/attrs</text>
<text text-anchor="middle" x="905.5" y="-208.5" font-family="Helvetica,sans-Serif" font-size="10.00" fill="#000000">/index.h</text>
</a>
</g>
</g>
<!-- Node75&#45;&gt;Node81 -->
<g id="edge13" class="edge">
<title>Node75&#45;&gt;Node81</title>
<path fill="none" stroke="#191970" d="M1604.5289,-272.1171C1595.5267,-270.5391 1586.2751,-269.0886 1577.5,-268 1312.8262,-235.166 1242.7894,-267.7964 978.5,-232 975.6754,-231.6174 972.7972,-231.1861 969.8954,-230.7173"/>
<polygon fill="#191970" stroke="#191970" points="1604.0829,-275.5933 1614.548,-273.9403 1605.3363,-268.7064 1604.0829,-275.5933"/>
</g>
<!-- Node82 -->
<g id="node15" class="node">
<title>Node82</title>
<g id="a_node15"><a xlink:href="linear__algebra_8h.html" target="_top" xlink:title="Attributes for linear algebra operators. ">
<polygon fill="#ffffff" stroke="#000000" points="987.5,-201.5 987.5,-231.5 1115.5,-231.5 1115.5,-201.5 987.5,-201.5"/>
<text text-anchor="start" x="995.5" y="-219.5" font-family="Helvetica,sans-Serif" font-size="10.00" fill="#000000">include/tvm/relax/attrs</text>
<text text-anchor="middle" x="1051.5" y="-208.5" font-family="Helvetica,sans-Serif" font-size="10.00" fill="#000000">/linear_algebra.h</text>
</a>
</g>
</g>
<!-- Node75&#45;&gt;Node82 -->
<g id="edge14" class="edge">
<title>Node75&#45;&gt;Node82</title>
<path fill="none" stroke="#191970" d="M1603.5828,-272.1002C1594.8763,-270.5657 1585.9635,-269.1329 1577.5,-268 1377.3172,-241.205 1324.3701,-261.0355 1124.5,-232 1121.551,-231.5716 1118.5427,-231.0951 1115.5095,-230.5825"/>
<polygon fill="#191970" stroke="#191970" points="1603.2044,-275.5888 1613.6696,-273.9366 1604.4582,-268.702 1603.2044,-275.5888"/>
</g>
<!-- Node83 -->
<g id="node16" class="node">
<title>Node83</title>
<g id="a_node16"><a xlink:href="manipulate_8h.html" target="_top" xlink:title="Attributes for tensor manipulation operators. ">
<polygon fill="#ffffff" stroke="#000000" points="1133.5,-201.5 1133.5,-231.5 1261.5,-231.5 1261.5,-201.5 1133.5,-201.5"/>
<text text-anchor="start" x="1141.5" y="-219.5" font-family="Helvetica,sans-Serif" font-size="10.00" fill="#000000">include/tvm/relax/attrs</text>
<text text-anchor="middle" x="1197.5" y="-208.5" font-family="Helvetica,sans-Serif" font-size="10.00" fill="#000000">/manipulate.h</text>
</a>
</g>
</g>
<!-- Node75&#45;&gt;Node83 -->
<g id="edge15" class="edge">
<title>Node75&#45;&gt;Node83</title>
<path fill="none" stroke="#191970" d="M1602.3129,-272.1598C1594.0047,-270.6668 1585.5436,-269.2303 1577.5,-268 1441.6999,-247.2291 1406.0589,-254.2906 1270.5,-232 1267.5596,-231.5165 1264.5583,-230.9948 1261.5307,-230.4455"/>
<polygon fill="#191970" stroke="#191970" points="1601.8654,-275.6361 1612.3329,-273.999 1603.1291,-268.7511 1601.8654,-275.6361"/>
</g>
<!-- Node84 -->
<g id="node17" class="node">
<title>Node84</title>
<g id="a_node17"><a xlink:href="relax_2attrs_2nn_8h.html" target="_top" xlink:title="Attributes for neural network operators. ">
<polygon fill="#ffffff" stroke="#000000" points="1279.5,-207 1279.5,-226 1431.5,-226 1431.5,-207 1279.5,-207"/>
<text text-anchor="middle" x="1355.5" y="-214" font-family="Helvetica,sans-Serif" font-size="10.00" fill="#000000">include/tvm/relax/attrs/nn.h</text>
</a>
</g>
</g>
<!-- Node75&#45;&gt;Node84 -->
<g id="edge16" class="edge">
<title>Node75&#45;&gt;Node84</title>
<path fill="none" stroke="#191970" d="M1606.4208,-271.8016C1547.5825,-258.834 1453.7856,-238.1616 1399.076,-226.1039"/>
<polygon fill="#191970" stroke="#191970" points="1605.7481,-275.2373 1616.2671,-273.9717 1607.2548,-268.4013 1605.7481,-275.2373"/>
</g>
<!-- Node85 -->
<g id="node18" class="node">
<title>Node85</title>
<g id="a_node18"><a xlink:href="set_8h.html" target="_top" xlink:title="Attributes for set operators. ">
<polygon fill="#ffffff" stroke="#000000" points="1449.5,-201.5 1449.5,-231.5 1577.5,-231.5 1577.5,-201.5 1449.5,-201.5"/>
<text text-anchor="start" x="1457.5" y="-219.5" font-family="Helvetica,sans-Serif" font-size="10.00" fill="#000000">include/tvm/relax/attrs</text>
<text text-anchor="middle" x="1513.5" y="-208.5" font-family="Helvetica,sans-Serif" font-size="10.00" fill="#000000">/set.h</text>
</a>
</g>
</g>
<!-- Node75&#45;&gt;Node85 -->
<g id="edge17" class="edge">
<title>Node75&#45;&gt;Node85</title>
<path fill="none" stroke="#191970" d="M1629.4912,-269.7289C1605.248,-258.6035 1571.1772,-242.9683 1546.234,-231.5218"/>
<polygon fill="#191970" stroke="#191970" points="1628.0333,-272.9107 1638.5818,-273.9005 1630.9529,-266.5486 1628.0333,-272.9107"/>
</g>
<!-- Node86 -->
<g id="node19" class="node">
<title>Node86</title>
<g id="a_node19"><a xlink:href="statistical_8h.html" target="_top" xlink:title="Attributes for statistical operators. ">
<polygon fill="#ffffff" stroke="#000000" points="1595.5,-201.5 1595.5,-231.5 1723.5,-231.5 1723.5,-201.5 1595.5,-201.5"/>
<text text-anchor="start" x="1603.5" y="-219.5" font-family="Helvetica,sans-Serif" font-size="10.00" fill="#000000">include/tvm/relax/attrs</text>
<text text-anchor="middle" x="1659.5" y="-208.5" font-family="Helvetica,sans-Serif" font-size="10.00" fill="#000000">/statistical.h</text>
</a>
</g>
</g>
<!-- Node75&#45;&gt;Node86 -->
<g id="edge18" class="edge">
<title>Node75&#45;&gt;Node86</title>
<path fill="none" stroke="#191970" d="M1659.5,-263.7758C1659.5,-253.4641 1659.5,-241.0437 1659.5,-231.5218"/>
<polygon fill="#191970" stroke="#191970" points="1656.0001,-263.9005 1659.5,-273.9005 1663.0001,-263.9006 1656.0001,-263.9005"/>
</g>
<!-- Node87 -->
<g id="node20" class="node">
<title>Node87</title>
<g id="a_node20"><a xlink:href="block__builder_8h.html" target="_top" xlink:title="The utility for constructing Relax binding blocks. ">
<polygon fill="#ffffff" stroke="#000000" points="1856,-201.5 1856,-231.5 1987,-231.5 1987,-201.5 1856,-201.5"/>
<text text-anchor="start" x="1864" y="-219.5" font-family="Helvetica,sans-Serif" font-size="10.00" fill="#000000">include/tvm/relax/block</text>
<text text-anchor="middle" x="1921.5" y="-208.5" font-family="Helvetica,sans-Serif" font-size="10.00" fill="#000000">_builder.h</text>
</a>
</g>
</g>
<!-- Node75&#45;&gt;Node87 -->
<g id="edge20" class="edge">
<title>Node75&#45;&gt;Node87</title>
<path fill="none" stroke="#191970" d="M1706.5616,-271.4652C1750.2627,-260.2897 1815.4941,-243.6084 1862.6268,-231.5553"/>
<polygon fill="#191970" stroke="#191970" points="1705.581,-268.1032 1696.76,-273.9717 1707.3154,-274.885 1705.581,-268.1032"/>
</g>
<!-- Node88 -->
<g id="node21" class="node">
<title>Node88</title>
<g id="a_node21"><a xlink:href="relax_2expr__functor_8h.html" target="_top" xlink:title="A more powerful visitor which enables defining arbitrary function signatures with type based dispatch...">
<polygon fill="#ffffff" stroke="#000000" points="1904,-.5 1904,-30.5 2031,-30.5 2031,-.5 1904,-.5"/>
<text text-anchor="start" x="1912" y="-18.5" font-family="Helvetica,sans-Serif" font-size="10.00" fill="#000000">include/tvm/relax/expr</text>
<text text-anchor="middle" x="1967.5" y="-7.5" font-family="Helvetica,sans-Serif" font-size="10.00" fill="#000000">_functor.h</text>
</a>
</g>
</g>
<!-- Node75&#45;&gt;Node88 -->
<g id="edge33" class="edge">
<title>Node75&#45;&gt;Node88</title>
<path fill="none" stroke="#191970" d="M1689.6494,-268.9481C1704.6722,-260.2241 1721.8568,-247.7506 1732.5,-232 1774.6899,-169.5642 1718.8826,-120.941 1771.5,-67 1789.9253,-48.1112 1854.0497,-33.6766 1903.9938,-24.9614"/>
<polygon fill="#191970" stroke="#191970" points="1687.7315,-266.0083 1680.6527,-273.8913 1691.1023,-272.1433 1687.7315,-266.0083"/>
</g>
<!-- Node75&#45;&gt;Node89 -->
<g id="edge37" class="edge">
<title>Node75&#45;&gt;Node89</title>
<path fill="none" stroke="#191970" d="M1737.2272,-276.8031C1822.0763,-268.5868 1951.8247,-253.1048 1996.5,-232 2005.3746,-227.8076 2048.5734,-187.4514 2072.4887,-164.7766"/>
<polygon fill="#191970" stroke="#191970" points="1736.7331,-273.3343 1727.1111,-277.769 1737.3985,-280.3026 1736.7331,-273.3343"/>
</g>
<!-- Node90 -->
<g id="node23" class="node">
<title>Node90</title>
<g id="a_node23"><a xlink:href="nested__msg_8h.html" target="_top" xlink:title="Helper container to store nested message for robust tuple&#45;aware analysis. ">
<polygon fill="#ffffff" stroke="#000000" points="2137.5,-67.5 2137.5,-97.5 2275.5,-97.5 2275.5,-67.5 2137.5,-67.5"/>
<text text-anchor="start" x="2145.5" y="-85.5" font-family="Helvetica,sans-Serif" font-size="10.00" fill="#000000">include/tvm/relax/nested</text>
<text text-anchor="middle" x="2206.5" y="-74.5" font-family="Helvetica,sans-Serif" font-size="10.00" fill="#000000">_msg.h</text>
</a>
</g>
</g>
<!-- Node75&#45;&gt;Node90 -->
<g id="edge35" class="edge">
<title>Node75&#45;&gt;Node90</title>
<path fill="none" stroke="#191970" d="M1737.1699,-280.338C1870.6806,-274.2105 2132.5168,-258.8994 2164.5,-232 2204.9397,-197.9883 2208.0757,-128.4229 2207.3243,-97.6824"/>
<polygon fill="#191970" stroke="#191970" points="1736.8343,-276.8495 1727.0028,-280.7982 1737.1509,-283.8423 1736.8343,-276.8495"/>
</g>
<!-- Node91 -->
<g id="node24" class="node">
<title>Node91</title>
<g id="a_node24"><a xlink:href="relax_2op__attr__types_8h.html" target="_top" xlink:title="Data structures that can appear in operator attributes. ">
<polygon fill="#ffffff" stroke="#000000" points="2294,-67.5 2294,-97.5 2411,-97.5 2411,-67.5 2294,-67.5"/>
<text text-anchor="start" x="2302" y="-85.5" font-family="Helvetica,sans-Serif" font-size="10.00" fill="#000000">include/tvm/relax/op</text>
<text text-anchor="middle" x="2352.5" y="-74.5" font-family="Helvetica,sans-Serif" font-size="10.00" fill="#000000">_attr_types.h</text>
</a>
</g>
</g>
<!-- Node75&#45;&gt;Node91 -->
<g id="edge36" class="edge">
<title>Node75&#45;&gt;Node91</title>
<path fill="none" stroke="#191970" d="M1737.284,-279.8736C1875.3822,-272.8612 2152.4192,-255.991 2189.5,-232 2231.6184,-204.7497 2208.7987,-168.1988 2245.5,-134 2262.77,-117.9076 2285.9964,-105.908 2306.3962,-97.5592"/>
<polygon fill="#191970" stroke="#191970" points="1736.9949,-276.3836 1727.1833,-280.3815 1737.3465,-283.3748 1736.9949,-276.3836"/>
</g>
<!-- Node93 -->
<g id="node26" class="node">
<title>Node93</title>
<g id="a_node26"><a xlink:href="relax_2ir_8h.html" target="_top" xlink:title="include/tvm/script\l/ir_builder/relax/ir.h">
<polygon fill="#ffffff" stroke="#000000" points="1780,-67.5 1780,-97.5 1891,-97.5 1891,-67.5 1780,-67.5"/>
<text text-anchor="start" x="1788" y="-85.5" font-family="Helvetica,sans-Serif" font-size="10.00" fill="#000000">include/tvm/script</text>
<text text-anchor="middle" x="1835.5" y="-74.5" font-family="Helvetica,sans-Serif" font-size="10.00" fill="#000000">/ir_builder/relax/ir.h</text>
</a>
</g>
</g>
<!-- Node75&#45;&gt;Node93 -->
<g id="edge40" class="edge">
<title>Node75&#45;&gt;Node93</title>
<path fill="none" stroke="#191970" d="M1702.7673,-270.4306C1723.9054,-262.2274 1748.4027,-249.7736 1765.5,-232 1798.4743,-197.7215 1787.8894,-176.8664 1808.5,-134 1814.4493,-121.6264 1821.6976,-107.8651 1827.1857,-97.6827"/>
<polygon fill="#191970" stroke="#191970" points="1701.5056,-267.1654 1693.3302,-273.9044 1703.9237,-273.7345 1701.5056,-267.1654"/>
</g>
<!-- Node94 -->
<g id="node27" class="node">
<title>Node94</title>
<g id="a_node27"><a xlink:href="relax_2frame_8h.html" target="_top" xlink:title="include/tvm/script\l/ir_builder/relax/frame.h">
<polygon fill="#ffffff" stroke="#000000" points="1817.5,-134.5 1817.5,-164.5 1951.5,-164.5 1951.5,-134.5 1817.5,-134.5"/>
<text text-anchor="start" x="1825.5" y="-152.5" font-family="Helvetica,sans-Serif" font-size="10.00" fill="#000000">include/tvm/script</text>
<text text-anchor="middle" x="1884.5" y="-141.5" font-family="Helvetica,sans-Serif" font-size="10.00" fill="#000000">/ir_builder/relax/frame.h</text>
</a>
</g>
</g>
<!-- Node75&#45;&gt;Node94 -->
<g id="edge39" class="edge">
<title>Node75&#45;&gt;Node94</title>
<path fill="none" stroke="#191970" d="M1710.9927,-271.2049C1739.6701,-262.8991 1775.1885,-250.1076 1803.5,-232 1832.4154,-213.5062 1858.8424,-182.9089 1873.2038,-164.6293"/>
<polygon fill="#191970" stroke="#191970" points="1709.8444,-267.8916 1701.1575,-273.957 1711.7308,-274.6327 1709.8444,-267.8916"/>
</g>
<!-- Node95 -->
<g id="node28" class="node">
<title>Node95</title>
<g id="a_node28"><a xlink:href="ir__functor_8h.html" target="_top" xlink:title="A generic functor for working with Relax IR nodes. ">
<polygon fill="#ffffff" stroke="#000000" points="2043.5,-201.5 2043.5,-231.5 2155.5,-231.5 2155.5,-201.5 2043.5,-201.5"/>
<text text-anchor="start" x="2051.5" y="-219.5" font-family="Helvetica,sans-Serif" font-size="10.00" fill="#000000">include/tvm/relax/ir</text>
<text text-anchor="middle" x="2099.5" y="-208.5" font-family="Helvetica,sans-Serif" font-size="10.00" fill="#000000">_functor.h</text>
</a>
</g>
</g>
<!-- Node75&#45;&gt;Node95 -->
<g id="edge34" class="edge">
<title>Node75&#45;&gt;Node95</title>
<path fill="none" stroke="#191970" d="M1737.5858,-274.464C1812.6663,-265.3439 1929.2174,-250.0523 2029.5,-232 2034.0326,-231.1841 2038.7172,-230.2802 2043.4153,-229.3309"/>
<polygon fill="#191970" stroke="#191970" points="1736.781,-271.0357 1727.2728,-275.7096 1737.6204,-277.9852 1736.781,-271.0357"/>
</g>
<!-- Node76&#45;&gt;Node77 -->
<g id="edge9" class="edge">
<title>Node76&#45;&gt;Node77</title>
<path fill="none" stroke="#191970" d="M2520.3098,-65.0423C2528.7837,-54.33 2539.5239,-40.7528 2547.6171,-30.5218"/>
<polygon fill="#191970" stroke="#191970" points="2517.5527,-62.8863 2514.0936,-72.9005 2523.0427,-67.2291 2517.5527,-62.8863"/>
</g>
<!-- Node87&#45;&gt;Node88 -->
<g id="edge21" class="edge">
<title>Node87&#45;&gt;Node88</title>
<path fill="none" stroke="#191970" d="M1943.8335,-193.6413C1950.5312,-185.3061 1957.018,-175.3658 1960.5,-165 1964.8873,-151.9394 1964.0957,-147.3003 1960.5,-134 1955.6658,-116.1187 1944.3342,-115.8813 1939.5,-98 1935.9043,-84.6997 1936.1048,-80.3529 1939.5,-67 1942.8104,-53.9806 1950.1513,-40.6952 1956.4861,-30.8796"/>
<polygon fill="#191970" stroke="#191970" points="1941.0312,-191.5321 1937.1689,-201.3979 1946.3406,-196.094 1941.0312,-191.5321"/>
</g>
<!-- Node87&#45;&gt;Node89 -->
<g id="edge22" class="edge">
<title>Node87&#45;&gt;Node89</title>
<path fill="none" stroke="#191970" d="M1968.2912,-197.7275C1994.3706,-187.2645 2026.4148,-174.4084 2050.8585,-164.6017"/>
<polygon fill="#191970" stroke="#191970" points="1966.9558,-194.492 1958.9781,-201.4639 1969.5622,-200.9887 1966.9558,-194.492"/>
</g>
<!-- Node87&#45;&gt;Node94 -->
<g id="edge30" class="edge">
<title>Node87&#45;&gt;Node94</title>
<path fill="none" stroke="#191970" d="M1908.2373,-192.4837C1903.1103,-183.1996 1897.3984,-172.8565 1892.8626,-164.6432"/>
<polygon fill="#191970" stroke="#191970" points="1905.206,-194.2348 1913.1041,-201.2967 1911.3337,-190.8508 1905.206,-194.2348"/>
</g>
<!-- Node89&#45;&gt;Node76 -->
<g id="edge23" class="edge">
<title>Node89&#45;&gt;Node76</title>
<path fill="none" stroke="#191970" d="M2165.1341,-138.1553C2232.4798,-128.0561 2333.0903,-112.6543 2420.5,-98 2431.5721,-96.1438 2443.4291,-94.0655 2454.692,-92.0487"/>
<polygon fill="#191970" stroke="#191970" points="2164.4033,-134.7256 2155.0319,-139.6679 2165.4399,-141.6484 2164.4033,-134.7256"/>
</g>
<!-- Node89&#45;&gt;Node88 -->
<g id="edge24" class="edge">
<title>Node89&#45;&gt;Node88</title>
<path fill="none" stroke="#191970" d="M2096.208,-124.3021C2099.9729,-106.7913 2101.608,-83.6933 2090.5,-67 2076.9698,-46.6666 2053.7018,-34.3459 2031.02,-26.887"/>
<polygon fill="#191970" stroke="#191970" points="2092.7194,-123.825 2093.6835,-134.3759 2099.5095,-125.5267 2092.7194,-123.825"/>
</g>
<!-- Node89&#45;&gt;Node90 -->
<g id="edge25" class="edge">
<title>Node89&#45;&gt;Node90</title>
<path fill="none" stroke="#191970" d="M2123.9773,-129.3561C2141.865,-119.1995 2163.2023,-107.0843 2179.6986,-97.7177"/>
<polygon fill="#191970" stroke="#191970" points="2121.9494,-126.4827 2114.9815,-134.4639 2125.4057,-132.5699 2121.9494,-126.4827"/>
</g>
<!-- Node89&#45;&gt;Node91 -->
<g id="edge26" class="edge">
<title>Node89&#45;&gt;Node91</title>
<path fill="none" stroke="#191970" d="M2157.7036,-131.937C2200.0573,-121.1881 2253.6569,-107.5852 2293.906,-97.3704"/>
<polygon fill="#191970" stroke="#191970" points="2156.5785,-128.6115 2147.7468,-134.4639 2158.3005,-135.3964 2156.5785,-128.6115"/>
</g>
<!-- Node92 -->
<g id="node25" class="node">
<title>Node92</title>
<g id="a_node25"><a xlink:href="struct__info__functor_8h.html" target="_top" xlink:title="Functors and visitors for struct info. ">
<polygon fill="#ffffff" stroke="#000000" points="1948,-67.5 1948,-97.5 2081,-97.5 2081,-67.5 1948,-67.5"/>
<text text-anchor="start" x="1956" y="-85.5" font-family="Helvetica,sans-Serif" font-size="10.00" fill="#000000">include/tvm/relax/struct</text>
<text text-anchor="middle" x="2014.5" y="-74.5" font-family="Helvetica,sans-Serif" font-size="10.00" fill="#000000">_info_functor.h</text>
</a>
</g>
</g>
<!-- Node89&#45;&gt;Node92 -->
<g id="edge27" class="edge">
<title>Node89&#45;&gt;Node92</title>
<path fill="none" stroke="#191970" d="M2064.1976,-127.4965C2053.399,-117.7193 2040.9582,-106.4554 2031.2253,-97.6432"/>
<polygon fill="#191970" stroke="#191970" points="2061.9461,-130.1794 2071.7083,-134.2967 2066.6444,-124.9903 2061.9461,-130.1794"/>
</g>
<!-- Node89&#45;&gt;Node93 -->
<g id="edge29" class="edge">
<title>Node89&#45;&gt;Node93</title>
<path fill="none" stroke="#191970" d="M2021.8879,-131.8596C1981.1919,-121.0824 1929.7457,-107.4583 1891.2176,-97.2553"/>
<polygon fill="#191970" stroke="#191970" points="2021.1591,-135.2872 2031.7219,-134.4639 2022.9511,-128.5205 2021.1591,-135.2872"/>
</g>
<!-- Node92&#45;&gt;Node88 -->
<g id="edge28" class="edge">
<title>Node92&#45;&gt;Node88</title>
<path fill="none" stroke="#191970" d="M1998.0588,-59.0626C1991.443,-49.6315 1984.0045,-39.0276 1978.1228,-30.6432"/>
<polygon fill="#191970" stroke="#191970" points="1995.2268,-61.1201 2003.835,-67.2967 2000.9574,-57.1001 1995.2268,-61.1201"/>
</g>
<!-- Node94&#45;&gt;Node93 -->
<g id="edge31" class="edge">
<title>Node94&#45;&gt;Node93</title>
<path fill="none" stroke="#191970" d="M1867.3592,-126.0626C1860.4619,-116.6315 1852.7068,-106.0276 1846.5749,-97.6432"/>
<polygon fill="#191970" stroke="#191970" points="1864.6528,-128.2911 1873.3811,-134.2967 1870.303,-124.1588 1864.6528,-128.2911"/>
</g>
</g>
</svg>
