<?xml version="1.0" encoding="UTF-8" standalone="no"?>
<!DOCTYPE svg PUBLIC "-//W3C//DTD SVG 1.1//EN"
 "http://www.w3.org/Graphics/SVG/1.1/DTD/svg11.dtd">
<!-- Generated by graphviz version 2.40.1 (20161225.0304)
 -->
<!-- Title: include/tvm/relax/expr.h Pages: 1 -->
<svg width="2379pt" height="296pt"
 viewBox="0.00 0.00 2378.50 296.00" xmlns="http://www.w3.org/2000/svg" xmlns:xlink="http://www.w3.org/1999/xlink">
<g id="graph0" class="graph" transform="scale(1 1) rotate(0) translate(4 292)">
<title>include/tvm/relax/expr.h</title>
<polygon fill="#ffffff" stroke="transparent" points="-4,4 -4,-292 2374.5,-292 2374.5,4 -4,4"/>
<!-- Node85 -->
<g id="node1" class="node">
<title>Node85</title>
<polygon fill="#bfbfbf" stroke="#000000" points="1272,-268.5 1272,-287.5 1407,-287.5 1407,-268.5 1272,-268.5"/>
<text text-anchor="middle" x="1339.5" y="-275.5" font-family="Helvetica,sans-Serif" font-size="10.00" fill="#000000">include/tvm/relax/expr.h</text>
</g>
<!-- Node86 -->
<g id="node2" class="node">
<title>Node86</title>
<g id="a_node2"><a xlink:href="relax_2analysis_8h.html" target="_top" xlink:title="The set of Relax specific analysis on IR. ">
<polygon fill="#ffffff" stroke="#000000" points="46,-73 46,-92 201,-92 201,-73 46,-73"/>
<text text-anchor="middle" x="123.5" y="-80" font-family="Helvetica,sans-Serif" font-size="10.00" fill="#000000">include/tvm/relax/analysis.h</text>
</a>
</g>
</g>
<!-- Node85&#45;&gt;Node86 -->
<g id="edge1" class="edge">
<title>Node85&#45;&gt;Node86</title>
<path fill="none" stroke="#191970" d="M1261.6593,-276.6136C989.4049,-271.5824 95.1853,-253.4512 74.5,-232 35.2542,-191.3011 91.5136,-118.6733 114.4882,-92.3615"/>
<polygon fill="#191970" stroke="#191970" points="1261.7873,-280.1164 1271.85,-276.8011 1261.9162,-273.1176 1261.7873,-280.1164"/>
</g>
<!-- Node87 -->
<g id="node3" class="node">
<title>Node87</title>
<g id="a_node3"><a xlink:href="binding__rewrite_8h.html" target="_top" xlink:title="An IR rewriter to easily add/remove/replace bindings (statements). ">
<polygon fill="#ffffff" stroke="#000000" points="0,-.5 0,-30.5 141,-30.5 141,-.5 0,-.5"/>
<text text-anchor="start" x="8" y="-18.5" font-family="Helvetica,sans-Serif" font-size="10.00" fill="#000000">include/tvm/relax/binding</text>
<text text-anchor="middle" x="70.5" y="-7.5" font-family="Helvetica,sans-Serif" font-size="10.00" fill="#000000">_rewrite.h</text>
</a>
</g>
</g>
<!-- Node85&#45;&gt;Node87 -->
<g id="edge12" class="edge">
<title>Node85&#45;&gt;Node87</title>
<path fill="none" stroke="#191970" d="M1261.6648,-276.5334C987.2575,-271.1956 80.1182,-252.0631 57.5,-232 2.1969,-182.9443 15.2368,-137.8009 36.5,-67 40.5677,-53.4555 49.4802,-40.1865 57.1597,-30.51"/>
<polygon fill="#191970" stroke="#191970" points="1261.8672,-280.0379 1271.9332,-276.7324 1262.003,-273.0392 1261.8672,-280.0379"/>
</g>
<!-- Node88 -->
<g id="node4" class="node">
<title>Node88</title>
<g id="a_node4"><a xlink:href="create_8h.html" target="_top" xlink:title="Attributes for tensor creation operators. ">
<polygon fill="#ffffff" stroke="#000000" points="83.5,-201.5 83.5,-231.5 211.5,-231.5 211.5,-201.5 83.5,-201.5"/>
<text text-anchor="start" x="91.5" y="-219.5" font-family="Helvetica,sans-Serif" font-size="10.00" fill="#000000">include/tvm/relax/attrs</text>
<text text-anchor="middle" x="147.5" y="-208.5" font-family="Helvetica,sans-Serif" font-size="10.00" fill="#000000">/create.h</text>
</a>
</g>
</g>
<!-- Node85&#45;&gt;Node88 -->
<g id="edge3" class="edge">
<title>Node85&#45;&gt;Node88</title>
<path fill="none" stroke="#191970" d="M1261.536,-276.502C1042.1502,-272.0151 422.3873,-257.3996 220.5,-232 217.6719,-231.6442 214.7908,-231.2351 211.8867,-230.7844"/>
<polygon fill="#191970" stroke="#191970" points="1261.608,-280.0041 1271.677,-276.708 1261.7502,-273.0056 1261.608,-280.0041"/>
</g>
<!-- Node89 -->
<g id="node5" class="node">
<title>Node89</title>
<g id="a_node5"><a xlink:href="datatype_8h.html" target="_top" xlink:title="Attributes for datatype operators. ">
<polygon fill="#ffffff" stroke="#000000" points="229.5,-201.5 229.5,-231.5 357.5,-231.5 357.5,-201.5 229.5,-201.5"/>
<text text-anchor="start" x="237.5" y="-219.5" font-family="Helvetica,sans-Serif" font-size="10.00" fill="#000000">include/tvm/relax/attrs</text>
<text text-anchor="middle" x="293.5" y="-208.5" font-family="Helvetica,sans-Serif" font-size="10.00" fill="#000000">/datatype.h</text>
</a>
</g>
</g>
<!-- Node85&#45;&gt;Node89 -->
<g id="edge4" class="edge">
<title>Node85&#45;&gt;Node89</title>
<path fill="none" stroke="#191970" d="M1261.8301,-275.9541C1062.9867,-270.4552 539.0851,-254.2529 366.5,-232 363.6731,-231.6355 360.7929,-231.2192 357.8895,-230.7626"/>
<polygon fill="#191970" stroke="#191970" points="1261.8111,-279.4548 1271.9036,-276.2312 1262.0037,-272.4574 1261.8111,-279.4548"/>
</g>
<!-- Node90 -->
<g id="node6" class="node">
<title>Node90</title>
<g id="a_node6"><a xlink:href="relax_2attrs_2image_8h.html" target="_top" xlink:title="Attributes for image operators. ">
<polygon fill="#ffffff" stroke="#000000" points="375.5,-201.5 375.5,-231.5 503.5,-231.5 503.5,-201.5 375.5,-201.5"/>
<text text-anchor="start" x="383.5" y="-219.5" font-family="Helvetica,sans-Serif" font-size="10.00" fill="#000000">include/tvm/relax/attrs</text>
<text text-anchor="middle" x="439.5" y="-208.5" font-family="Helvetica,sans-Serif" font-size="10.00" fill="#000000">/image.h</text>
</a>
</g>
</g>
<!-- Node85&#45;&gt;Node90 -->
<g id="edge5" class="edge">
<title>Node85&#45;&gt;Node90</title>
<path fill="none" stroke="#191970" d="M1261.7997,-275.2059C1084.8073,-268.593 655.9086,-251.0981 512.5,-232 509.6746,-231.6237 506.7957,-231.1977 503.8933,-230.7331"/>
<polygon fill="#191970" stroke="#191970" points="1261.6953,-278.7043 1271.8186,-275.5786 1261.9557,-271.7092 1261.6953,-278.7043"/>
</g>
<!-- Node91 -->
<g id="node7" class="node">
<title>Node91</title>
<g id="a_node7"><a xlink:href="index_8h.html" target="_top" xlink:title="Attributes for indexing operators. ">
<polygon fill="#ffffff" stroke="#000000" points="521.5,-201.5 521.5,-231.5 649.5,-231.5 649.5,-201.5 521.5,-201.5"/>
<text text-anchor="start" x="529.5" y="-219.5" font-family="Helvetica,sans-Serif" font-size="10.00" fill="#000000">include/tvm/relax/attrs</text>
<text text-anchor="middle" x="585.5" y="-208.5" font-family="Helvetica,sans-Serif" font-size="10.00" fill="#000000">/index.h</text>
</a>
</g>
</g>
<!-- Node85&#45;&gt;Node91 -->
<g id="edge6" class="edge">
<title>Node85&#45;&gt;Node91</title>
<path fill="none" stroke="#191970" d="M1261.9936,-276.3367C1135.2325,-272.8171 875.9024,-262.2673 658.5,-232 655.5486,-231.5891 652.5382,-231.1269 649.5033,-230.626"/>
<polygon fill="#191970" stroke="#191970" points="1261.906,-279.8356 1271.997,-276.6075 1262.0954,-272.8381 1261.906,-279.8356"/>
</g>
<!-- Node92 -->
<g id="node8" class="node">
<title>Node92</title>
<g id="a_node8"><a xlink:href="linear__algebra_8h.html" target="_top" xlink:title="Attributes for linear algebra operators. ">
<polygon fill="#ffffff" stroke="#000000" points="667.5,-201.5 667.5,-231.5 795.5,-231.5 795.5,-201.5 667.5,-201.5"/>
<text text-anchor="start" x="675.5" y="-219.5" font-family="Helvetica,sans-Serif" font-size="10.00" fill="#000000">include/tvm/relax/attrs</text>
<text text-anchor="middle" x="731.5" y="-208.5" font-family="Helvetica,sans-Serif" font-size="10.00" fill="#000000">/linear_algebra.h</text>
</a>
</g>
</g>
<!-- Node85&#45;&gt;Node92 -->
<g id="edge7" class="edge">
<title>Node85&#45;&gt;Node92</title>
<path fill="none" stroke="#191970" d="M1261.4777,-274.3156C1156.9879,-268.6922 966.0257,-255.9987 804.5,-232 801.5524,-231.5621 798.5453,-231.0777 795.513,-230.5588"/>
<polygon fill="#191970" stroke="#191970" points="1261.4528,-277.8191 1271.6242,-274.854 1261.8238,-270.8289 1261.4528,-277.8191"/>
</g>
<!-- Node93 -->
<g id="node9" class="node">
<title>Node93</title>
<g id="a_node9"><a xlink:href="manipulate_8h.html" target="_top" xlink:title="Attributes for tensor manipulation operators. ">
<polygon fill="#ffffff" stroke="#000000" points="813.5,-201.5 813.5,-231.5 941.5,-231.5 941.5,-201.5 813.5,-201.5"/>
<text text-anchor="start" x="821.5" y="-219.5" font-family="Helvetica,sans-Serif" font-size="10.00" fill="#000000">include/tvm/relax/attrs</text>
<text text-anchor="middle" x="877.5" y="-208.5" font-family="Helvetica,sans-Serif" font-size="10.00" fill="#000000">/manipulate.h</text>
</a>
</g>
</g>
<!-- Node85&#45;&gt;Node93 -->
<g id="edge8" class="edge">
<title>Node85&#45;&gt;Node93</title>
<path fill="none" stroke="#191970" d="M1261.4499,-270.8902C1182.6967,-263.2193 1057.74,-249.6876 950.5,-232 947.5598,-231.5151 944.5587,-230.9921 941.5313,-230.442"/>
<polygon fill="#191970" stroke="#191970" points="1261.482,-274.4095 1271.7723,-271.8878 1262.1554,-267.442 1261.482,-274.4095"/>
</g>
<!-- Node94 -->
<g id="node10" class="node">
<title>Node94</title>
<g id="a_node10"><a xlink:href="relax_2attrs_2nn_8h.html" target="_top" xlink:title="Attributes for neural network operators. ">
<polygon fill="#ffffff" stroke="#000000" points="959.5,-207 959.5,-226 1111.5,-226 1111.5,-207 959.5,-207"/>
<text text-anchor="middle" x="1035.5" y="-214" font-family="Helvetica,sans-Serif" font-size="10.00" fill="#000000">include/tvm/relax/attrs/nn.h</text>
</a>
</g>
</g>
<!-- Node85&#45;&gt;Node94 -->
<g id="edge9" class="edge">
<title>Node85&#45;&gt;Node94</title>
<path fill="none" stroke="#191970" d="M1282.2862,-266.4255C1224.6092,-254.7573 1136.6298,-236.9588 1082.7771,-226.0643"/>
<polygon fill="#191970" stroke="#191970" points="1281.8381,-269.9057 1292.3335,-268.4581 1283.2261,-263.0447 1281.8381,-269.9057"/>
</g>
<!-- Node95 -->
<g id="node11" class="node">
<title>Node95</title>
<g id="a_node11"><a xlink:href="set_8h.html" target="_top" xlink:title="Attributes for set operators. ">
<polygon fill="#ffffff" stroke="#000000" points="1129.5,-201.5 1129.5,-231.5 1257.5,-231.5 1257.5,-201.5 1129.5,-201.5"/>
<text text-anchor="start" x="1137.5" y="-219.5" font-family="Helvetica,sans-Serif" font-size="10.00" fill="#000000">include/tvm/relax/attrs</text>
<text text-anchor="middle" x="1193.5" y="-208.5" font-family="Helvetica,sans-Serif" font-size="10.00" fill="#000000">/set.h</text>
</a>
</g>
</g>
<!-- Node85&#45;&gt;Node95 -->
<g id="edge10" class="edge">
<title>Node85&#45;&gt;Node95</title>
<path fill="none" stroke="#191970" d="M1307.3242,-264.4465C1284.2238,-254.7159 1253.0849,-241.5991 1229.2156,-231.5446"/>
<polygon fill="#191970" stroke="#191970" points="1306.113,-267.7341 1316.6875,-268.3906 1308.8304,-261.2831 1306.113,-267.7341"/>
</g>
<!-- Node96 -->
<g id="node12" class="node">
<title>Node96</title>
<g id="a_node12"><a xlink:href="statistical_8h.html" target="_top" xlink:title="Attributes for statistical operators. ">
<polygon fill="#ffffff" stroke="#000000" points="1275.5,-201.5 1275.5,-231.5 1403.5,-231.5 1403.5,-201.5 1275.5,-201.5"/>
<text text-anchor="start" x="1283.5" y="-219.5" font-family="Helvetica,sans-Serif" font-size="10.00" fill="#000000">include/tvm/relax/attrs</text>
<text text-anchor="middle" x="1339.5" y="-208.5" font-family="Helvetica,sans-Serif" font-size="10.00" fill="#000000">/statistical.h</text>
</a>
</g>
</g>
<!-- Node85&#45;&gt;Node96 -->
<g id="edge11" class="edge">
<title>Node85&#45;&gt;Node96</title>
<path fill="none" stroke="#191970" d="M1339.5,-258.3693C1339.5,-249.681 1339.5,-239.6241 1339.5,-231.5446"/>
<polygon fill="#191970" stroke="#191970" points="1336.0001,-258.3906 1339.5,-268.3906 1343.0001,-258.3907 1336.0001,-258.3906"/>
</g>
<!-- Node97 -->
<g id="node13" class="node">
<title>Node97</title>
<g id="a_node13"><a xlink:href="block__builder_8h.html" target="_top" xlink:title="The utility for constructing Relax binding blocks. ">
<polygon fill="#ffffff" stroke="#000000" points="1595,-201.5 1595,-231.5 1726,-231.5 1726,-201.5 1595,-201.5"/>
<text text-anchor="start" x="1603" y="-219.5" font-family="Helvetica,sans-Serif" font-size="10.00" fill="#000000">include/tvm/relax/block</text>
<text text-anchor="middle" x="1660.5" y="-208.5" font-family="Helvetica,sans-Serif" font-size="10.00" fill="#000000">_builder.h</text>
</a>
</g>
</g>
<!-- Node85&#45;&gt;Node97 -->
<g id="edge13" class="edge">
<title>Node85&#45;&gt;Node97</title>
<path fill="none" stroke="#191970" d="M1399.8843,-266.5225C1448.6349,-257.2446 1518.994,-243.8282 1580.5,-232 1585.0846,-231.1183 1589.8165,-230.2064 1594.5817,-229.2867"/>
<polygon fill="#191970" stroke="#191970" points="1398.9899,-263.1298 1389.8204,-268.4374 1400.2984,-270.0064 1398.9899,-263.1298"/>
</g>
<!-- Node98 -->
<g id="node14" class="node">
<title>Node98</title>
<g id="a_node14"><a xlink:href="relax_2expr__functor_8h.html" target="_top" xlink:title="A more powerful visitor which enables defining arbitrary function signatures with type based dispatch...">
<polygon fill="#ffffff" stroke="#000000" points="1404,-.5 1404,-30.5 1531,-30.5 1531,-.5 1404,-.5"/>
<text text-anchor="start" x="1412" y="-18.5" font-family="Helvetica,sans-Serif" font-size="10.00" fill="#000000">include/tvm/relax/expr</text>
<text text-anchor="middle" x="1467.5" y="-7.5" font-family="Helvetica,sans-Serif" font-size="10.00" fill="#000000">_functor.h</text>
</a>
</g>
</g>
<!-- Node85&#45;&gt;Node98 -->
<g id="edge30" class="edge">
<title>Node85&#45;&gt;Node98</title>
<path fill="none" stroke="#191970" d="M1376.2246,-264.0781C1390.1789,-256.7767 1404.6036,-246.3092 1412.5,-232 1419.1568,-219.9371 1419.9338,-212.6002 1412.5,-201 1349.9072,-103.3255 1114.2867,-156.1659 1188.5,-67 1215.3621,-34.7257 1330.201,-22.5975 1403.9134,-18.0964"/>
<polygon fill="#191970" stroke="#191970" points="1374.686,-260.9343 1367.1959,-268.4275 1377.724,-267.2407 1374.686,-260.9343"/>
</g>
<!-- Node99 -->
<g id="node15" class="node">
<title>Node99</title>
<g id="a_node15"><a xlink:href="struct__info_8h.html" target="_top" xlink:title="include/tvm/relax/struct\l_info.h">
<polygon fill="#ffffff" stroke="#000000" points="1441,-134.5 1441,-164.5 1574,-164.5 1574,-134.5 1441,-134.5"/>
<text text-anchor="start" x="1449" y="-152.5" font-family="Helvetica,sans-Serif" font-size="10.00" fill="#000000">include/tvm/relax/struct</text>
<text text-anchor="middle" x="1507.5" y="-141.5" font-family="Helvetica,sans-Serif" font-size="10.00" fill="#000000">_info.h</text>
</a>
</g>
</g>
<!-- Node85&#45;&gt;Node99 -->
<g id="edge34" class="edge">
<title>Node85&#45;&gt;Node99</title>
<path fill="none" stroke="#191970" d="M1394.7639,-266.0218C1429.8022,-257.3861 1470.8319,-245.0032 1483.5,-232 1501.2996,-213.7296 1506.0284,-183.0573 1507.2063,-164.7032"/>
<polygon fill="#191970" stroke="#191970" points="1393.5006,-262.7257 1384.596,-268.4666 1395.1371,-269.5317 1393.5006,-262.7257"/>
</g>
<!-- Node100 -->
<g id="node16" class="node">
<title>Node100</title>
<g id="a_node16"><a xlink:href="nested__msg_8h.html" target="_top" xlink:title="Helper container to store nested message for robust tuple&#45;aware analysis. ">
<polygon fill="#ffffff" stroke="#000000" points="1197.5,-67.5 1197.5,-97.5 1335.5,-97.5 1335.5,-67.5 1197.5,-67.5"/>
<text text-anchor="start" x="1205.5" y="-85.5" font-family="Helvetica,sans-Serif" font-size="10.00" fill="#000000">include/tvm/relax/nested</text>
<text text-anchor="middle" x="1266.5" y="-74.5" font-family="Helvetica,sans-Serif" font-size="10.00" fill="#000000">_msg.h</text>
</a>
</g>
</g>
<!-- Node85&#45;&gt;Node100 -->
<g id="edge32" class="edge">
<title>Node85&#45;&gt;Node100</title>
<path fill="none" stroke="#191970" d="M1400.6491,-265.0095C1418.0872,-258.1736 1435.1465,-247.7795 1445.5,-232 1453.0584,-220.4805 1452.0208,-213.137 1445.5,-201 1417.1016,-148.1424 1353.6244,-114.9003 1310.4232,-97.5074"/>
<polygon fill="#191970" stroke="#191970" points="1399.2126,-261.8055 1390.9625,-268.4528 1401.5572,-268.4012 1399.2126,-261.8055"/>
</g>
<!-- Node101 -->
<g id="node17" class="node">
<title>Node101</title>
<g id="a_node17"><a xlink:href="relax_2op__attr__types_8h.html" target="_top" xlink:title="Data structures that can appear in operator attributes. ">
<polygon fill="#ffffff" stroke="#000000" points="1544,-67.5 1544,-97.5 1661,-97.5 1661,-67.5 1544,-67.5"/>
<text text-anchor="start" x="1552" y="-85.5" font-family="Helvetica,sans-Serif" font-size="10.00" fill="#000000">include/tvm/relax/op</text>
<text text-anchor="middle" x="1602.5" y="-74.5" font-family="Helvetica,sans-Serif" font-size="10.00" fill="#000000">_attr_types.h</text>
</a>
</g>
</g>
<!-- Node85&#45;&gt;Node101 -->
<g id="edge33" class="edge">
<title>Node85&#45;&gt;Node101</title>
<path fill="none" stroke="#191970" d="M1408.6885,-266.3195C1439.8342,-259.2389 1476.3041,-248.3265 1506.5,-232 1546.1103,-210.5833 1559.2313,-203.5515 1582.5,-165 1595.2943,-143.8024 1599.9094,-114.8969 1601.5704,-97.5291"/>
<polygon fill="#191970" stroke="#191970" points="1407.8,-262.931 1398.7781,-268.4857 1409.2949,-269.7695 1407.8,-262.931"/>
</g>
<!-- Node103 -->
<g id="node19" class="node">
<title>Node103</title>
<g id="a_node19"><a xlink:href="relax_2ir_8h.html" target="_top" xlink:title="include/tvm/script\l/ir_builder/relax/ir.h">
<polygon fill="#ffffff" stroke="#000000" points="1718,-67.5 1718,-97.5 1829,-97.5 1829,-67.5 1718,-67.5"/>
<text text-anchor="start" x="1726" y="-85.5" font-family="Helvetica,sans-Serif" font-size="10.00" fill="#000000">include/tvm/script</text>
<text text-anchor="middle" x="1773.5" y="-74.5" font-family="Helvetica,sans-Serif" font-size="10.00" fill="#000000">/ir_builder/relax/ir.h</text>
</a>
</g>
</g>
<!-- Node85&#45;&gt;Node103 -->
<g id="edge37" class="edge">
<title>Node85&#45;&gt;Node103</title>
<path fill="none" stroke="#191970" d="M1417.3618,-275.1994C1521.1607,-270.4854 1698.6312,-258.7202 1757.5,-232 1797.6007,-213.7986 1812.78,-205.3157 1830.5,-165 1836.0439,-152.3868 1836.0932,-146.5914 1830.5,-134 1823.8406,-119.0083 1810.4221,-106.5339 1798.2767,-97.6187"/>
<polygon fill="#191970" stroke="#191970" points="1417.08,-271.7083 1407.2445,-275.6471 1417.3896,-278.7015 1417.08,-271.7083"/>
</g>
<!-- Node104 -->
<g id="node20" class="node">
<title>Node104</title>
<g id="a_node20"><a xlink:href="relax_2frame_8h.html" target="_top" xlink:title="include/tvm/script\l/ir_builder/relax/frame.h">
<polygon fill="#ffffff" stroke="#000000" points="1687.5,-134.5 1687.5,-164.5 1821.5,-164.5 1821.5,-134.5 1687.5,-134.5"/>
<text text-anchor="start" x="1695.5" y="-152.5" font-family="Helvetica,sans-Serif" font-size="10.00" fill="#000000">include/tvm/script</text>
<text text-anchor="middle" x="1754.5" y="-141.5" font-family="Helvetica,sans-Serif" font-size="10.00" fill="#000000">/ir_builder/relax/frame.h</text>
</a>
</g>
</g>
<!-- Node85&#45;&gt;Node104 -->
<g id="edge36" class="edge">
<title>Node85&#45;&gt;Node104</title>
<path fill="none" stroke="#191970" d="M1417.6542,-273.6552C1526.0165,-266.9192 1711.2727,-252.5554 1734.5,-232 1753.5934,-215.103 1756.0145,-183.3672 1755.5773,-164.5647"/>
<polygon fill="#191970" stroke="#191970" points="1417.1825,-270.1774 1407.4156,-274.2832 1417.6111,-277.1643 1417.1825,-270.1774"/>
</g>
<!-- Node105 -->
<g id="node21" class="node">
<title>Node105</title>
<g id="a_node21"><a xlink:href="relax_2dataflow__pattern_8h.html" target="_top" xlink:title="A pattern language for matching dataflow properties. ">
<polygon fill="#ffffff" stroke="#000000" points="1878,-201.5 1878,-231.5 2025,-231.5 2025,-201.5 1878,-201.5"/>
<text text-anchor="start" x="1886" y="-219.5" font-family="Helvetica,sans-Serif" font-size="10.00" fill="#000000">include/tvm/relax/dataflow</text>
<text text-anchor="middle" x="1951.5" y="-208.5" font-family="Helvetica,sans-Serif" font-size="10.00" fill="#000000">_pattern.h</text>
</a>
</g>
</g>
<!-- Node85&#45;&gt;Node105 -->
<g id="edge25" class="edge">
<title>Node85&#45;&gt;Node105</title>
<path fill="none" stroke="#191970" d="M1417.3863,-273.282C1519.9358,-266.5854 1705.7201,-252.781 1863.5,-232 1868.114,-231.3923 1872.8552,-230.7142 1877.6302,-229.9904"/>
<polygon fill="#191970" stroke="#191970" points="1416.8725,-269.8078 1407.1196,-273.9467 1417.3249,-276.7932 1416.8725,-269.8078"/>
</g>
<!-- Node108 -->
<g id="node24" class="node">
<title>Node108</title>
<g id="a_node24"><a xlink:href="relax_2transform_8h.html" target="_top" xlink:title="Relax specific transformation passes. ">
<polygon fill="#ffffff" stroke="#000000" points="2208.5,-140 2208.5,-159 2370.5,-159 2370.5,-140 2208.5,-140"/>
<text text-anchor="middle" x="2289.5" y="-147" font-family="Helvetica,sans-Serif" font-size="10.00" fill="#000000">include/tvm/relax/transform.h</text>
</a>
</g>
</g>
<!-- Node85&#45;&gt;Node108 -->
<g id="edge35" class="edge">
<title>Node85&#45;&gt;Node108</title>
<path fill="none" stroke="#191970" d="M1417.3486,-275.4556C1586.5672,-269.5487 1977.2791,-253.7346 2033.5,-232 2054.1525,-224.0159 2052.5845,-210.6771 2072.5,-201 2101.3188,-186.9967 2183.5692,-169.5752 2238.1212,-159.0077"/>
<polygon fill="#191970" stroke="#191970" points="1417.1327,-271.9609 1407.26,-275.8052 1417.3752,-278.9567 1417.1327,-271.9609"/>
</g>
<!-- Node110 -->
<g id="node26" class="node">
<title>Node110</title>
<g id="a_node26"><a xlink:href="ir__functor_8h.html" target="_top" xlink:title="A generic functor for working with Relax IR nodes. ">
<polygon fill="#ffffff" stroke="#000000" points="2081.5,-201.5 2081.5,-231.5 2193.5,-231.5 2193.5,-201.5 2081.5,-201.5"/>
<text text-anchor="start" x="2089.5" y="-219.5" font-family="Helvetica,sans-Serif" font-size="10.00" fill="#000000">include/tvm/relax/ir</text>
<text text-anchor="middle" x="2137.5" y="-208.5" font-family="Helvetica,sans-Serif" font-size="10.00" fill="#000000">_functor.h</text>
</a>
</g>
</g>
<!-- Node85&#45;&gt;Node110 -->
<g id="edge31" class="edge">
<title>Node85&#45;&gt;Node110</title>
<path fill="none" stroke="#191970" d="M1417.2353,-277.0294C1550.812,-274.4835 1832.2475,-265.2741 2067.5,-232 2072.0601,-231.355 2076.7642,-230.5727 2081.4756,-229.7062"/>
<polygon fill="#191970" stroke="#191970" points="1417.0341,-273.5324 1407.1,-277.2151 1417.1625,-280.5312 1417.0341,-273.5324"/>
</g>
<!-- Node86&#45;&gt;Node87 -->
<g id="edge2" class="edge">
<title>Node86&#45;&gt;Node87</title>
<path fill="none" stroke="#191970" d="M109.6902,-65.0423C101.2163,-54.33 90.4761,-40.7528 82.3829,-30.5218"/>
<polygon fill="#191970" stroke="#191970" points="106.9573,-67.2291 115.9064,-72.9005 112.4473,-62.8863 106.9573,-67.2291"/>
</g>
<!-- Node97&#45;&gt;Node98 -->
<g id="edge14" class="edge">
<title>Node97&#45;&gt;Node98</title>
<path fill="none" stroke="#191970" d="M1665.9568,-190.9494C1673.3408,-153.3871 1684.0207,-85.6873 1669.5,-67 1652.5123,-45.1379 1583.6773,-31.0124 1531.0365,-23.1848"/>
<polygon fill="#191970" stroke="#191970" points="1662.4525,-190.6195 1663.8939,-201.1158 1669.3127,-192.0116 1662.4525,-190.6195"/>
</g>
<!-- Node97&#45;&gt;Node99 -->
<g id="edge15" class="edge">
<title>Node97&#45;&gt;Node99</title>
<path fill="none" stroke="#191970" d="M1617.0014,-197.4516C1593.2238,-187.0392 1564.184,-174.3224 1541.9859,-164.6017"/>
<polygon fill="#191970" stroke="#191970" points="1615.5996,-200.6586 1626.1638,-201.4639 1618.4076,-194.2464 1615.5996,-200.6586"/>
</g>
<!-- Node97&#45;&gt;Node104 -->
<g id="edge23" class="edge">
<title>Node97&#45;&gt;Node104</title>
<path fill="none" stroke="#191970" d="M1690.1775,-195.3469C1704.1643,-185.3776 1720.5308,-173.7121 1733.2544,-164.6432"/>
<polygon fill="#191970" stroke="#191970" points="1687.9418,-192.6423 1681.8301,-201.2967 1692.0047,-198.3426 1687.9418,-192.6423"/>
</g>
<!-- Node99&#45;&gt;Node86 -->
<g id="edge16" class="edge">
<title>Node99&#45;&gt;Node86</title>
<path fill="none" stroke="#191970" d="M1430.6356,-145.779C1188.7024,-134.0669 444.5147,-98.0405 201.2966,-86.2662"/>
<polygon fill="#191970" stroke="#191970" points="1430.5892,-149.2807 1440.7468,-146.2685 1430.9278,-142.2889 1430.5892,-149.2807"/>
</g>
<!-- Node99&#45;&gt;Node98 -->
<g id="edge17" class="edge">
<title>Node99&#45;&gt;Node98</title>
<path fill="none" stroke="#191970" d="M1506.1376,-124.1856C1504.6843,-107.5829 1501.685,-85.5883 1495.5,-67 1491.1945,-54.0603 1483.7247,-40.5565 1477.5829,-30.6245"/>
<polygon fill="#191970" stroke="#191970" points="1502.6524,-124.5158 1506.8873,-134.2274 1509.6329,-123.9946 1502.6524,-124.5158"/>
</g>
<!-- Node99&#45;&gt;Node100 -->
<g id="edge18" class="edge">
<title>Node99&#45;&gt;Node100</title>
<path fill="none" stroke="#191970" d="M1443.4164,-131.6842C1405.1893,-121.0568 1357.179,-107.7095 1320.821,-97.6017"/>
<polygon fill="#191970" stroke="#191970" points="1442.8428,-135.1574 1453.4149,-134.4639 1444.7178,-128.4132 1442.8428,-135.1574"/>
</g>
<!-- Node99&#45;&gt;Node101 -->
<g id="edge19" class="edge">
<title>Node99&#45;&gt;Node101</title>
<path fill="none" stroke="#191970" d="M1537.4932,-128.3469C1551.6288,-118.3776 1568.1695,-106.7121 1581.0283,-97.6432"/>
<polygon fill="#191970" stroke="#191970" points="1535.2118,-125.6729 1529.057,-134.2967 1539.2463,-131.3934 1535.2118,-125.6729"/>
</g>
<!-- Node102 -->
<g id="node18" class="node">
<title>Node102</title>
<g id="a_node18"><a xlink:href="struct__info__functor_8h.html" target="_top" xlink:title="Functors and visitors for struct info. ">
<polygon fill="#ffffff" stroke="#000000" points="1354,-67.5 1354,-97.5 1487,-97.5 1487,-67.5 1354,-67.5"/>
<text text-anchor="start" x="1362" y="-85.5" font-family="Helvetica,sans-Serif" font-size="10.00" fill="#000000">include/tvm/relax/struct</text>
<text text-anchor="middle" x="1420.5" y="-74.5" font-family="Helvetica,sans-Serif" font-size="10.00" fill="#000000">_info_functor.h</text>
</a>
</g>
</g>
<!-- Node99&#45;&gt;Node102 -->
<g id="edge20" class="edge">
<title>Node99&#45;&gt;Node102</title>
<path fill="none" stroke="#191970" d="M1479.6656,-128.0643C1466.8018,-118.1577 1451.8285,-106.6265 1440.1635,-97.6432"/>
<polygon fill="#191970" stroke="#191970" points="1477.6999,-130.9681 1487.7584,-134.2967 1481.971,-125.4221 1477.6999,-130.9681"/>
</g>
<!-- Node99&#45;&gt;Node103 -->
<g id="edge22" class="edge">
<title>Node99&#45;&gt;Node103</title>
<path fill="none" stroke="#191970" d="M1576.925,-132.0132C1620.7696,-120.9697 1676.6673,-106.8902 1717.6389,-96.5703"/>
<polygon fill="#191970" stroke="#191970" points="1576.0378,-128.6273 1567.1956,-134.4639 1577.7476,-135.4153 1576.0378,-128.6273"/>
</g>
<!-- Node102&#45;&gt;Node98 -->
<g id="edge21" class="edge">
<title>Node102&#45;&gt;Node98</title>
<path fill="none" stroke="#191970" d="M1436.9412,-59.0626C1443.557,-49.6315 1450.9955,-39.0276 1456.8772,-30.6432"/>
<polygon fill="#191970" stroke="#191970" points="1434.0426,-57.1001 1431.165,-67.2967 1439.7732,-61.1201 1434.0426,-57.1001"/>
</g>
<!-- Node104&#45;&gt;Node103 -->
<g id="edge24" class="edge">
<title>Node104&#45;&gt;Node103</title>
<path fill="none" stroke="#191970" d="M1761.5583,-124.6103C1764.1261,-115.5553 1766.9493,-105.5998 1769.2057,-97.6432"/>
<polygon fill="#191970" stroke="#191970" points="1758.1725,-123.7211 1758.8114,-134.2967 1764.9069,-125.6309 1758.1725,-123.7211"/>
</g>
<!-- Node106 -->
<g id="node22" class="node">
<title>Node106</title>
<g id="a_node22"><a xlink:href="relax_2dataflow__matcher_8h.html" target="_top" xlink:title="A pattern matcher for matching dataflow properties. ">
<polygon fill="#ffffff" stroke="#000000" points="1878,-134.5 1878,-164.5 2025,-164.5 2025,-134.5 1878,-134.5"/>
<text text-anchor="start" x="1886" y="-152.5" font-family="Helvetica,sans-Serif" font-size="10.00" fill="#000000">include/tvm/relax/dataflow</text>
<text text-anchor="middle" x="1951.5" y="-141.5" font-family="Helvetica,sans-Serif" font-size="10.00" fill="#000000">_matcher.h</text>
</a>
</g>
</g>
<!-- Node105&#45;&gt;Node106 -->
<g id="edge26" class="edge">
<title>Node105&#45;&gt;Node106</title>
<path fill="none" stroke="#191970" d="M1951.5,-191.0249C1951.5,-182.128 1951.5,-172.4287 1951.5,-164.6432"/>
<polygon fill="#191970" stroke="#191970" points="1948.0001,-191.2966 1951.5,-201.2967 1955.0001,-191.2967 1948.0001,-191.2966"/>
</g>
<!-- Node107 -->
<g id="node23" class="node">
<title>Node107</title>
<g id="a_node23"><a xlink:href="relax_2dataflow__pattern__functor_8h.html" target="_top" xlink:title="Functors and visitors for dataflow patterns. ">
<polygon fill="#ffffff" stroke="#000000" points="2043,-134.5 2043,-164.5 2190,-164.5 2190,-134.5 2043,-134.5"/>
<text text-anchor="start" x="2051" y="-152.5" font-family="Helvetica,sans-Serif" font-size="10.00" fill="#000000">include/tvm/relax/dataflow</text>
<text text-anchor="middle" x="2116.5" y="-141.5" font-family="Helvetica,sans-Serif" font-size="10.00" fill="#000000">_pattern_functor.h</text>
</a>
</g>
</g>
<!-- Node105&#45;&gt;Node107 -->
<g id="edge27" class="edge">
<title>Node105&#45;&gt;Node107</title>
<path fill="none" stroke="#191970" d="M1998.0702,-197.5897C2023.7755,-187.1518 2055.2642,-174.3654 2079.3093,-164.6017"/>
<polygon fill="#191970" stroke="#191970" points="1996.4777,-194.4587 1988.5292,-201.4639 1999.1113,-200.9444 1996.4777,-194.4587"/>
</g>
<!-- Node105&#45;&gt;Node108 -->
<g id="edge28" class="edge">
<title>Node105&#45;&gt;Node108</title>
<path fill="none" stroke="#191970" d="M2035.0712,-199.9341C2100.0146,-187.0607 2187.7944,-169.6606 2241.436,-159.0275"/>
<polygon fill="#191970" stroke="#191970" points="2034.3864,-196.5017 2025.2579,-201.8794 2035.7476,-203.3681 2034.3864,-196.5017"/>
</g>
<!-- Node109 -->
<g id="node25" class="node">
<title>Node109</title>
<g id="a_node25"><a xlink:href="backend_8h.html" target="_top" xlink:title="Relax backend specific transformation passes. ">
<polygon fill="#ffffff" stroke="#000000" points="2212,-73 2212,-92 2367,-92 2367,-73 2212,-73"/>
<text text-anchor="middle" x="2289.5" y="-80" font-family="Helvetica,sans-Serif" font-size="10.00" fill="#000000">include/tvm/relax/backend.h</text>
</a>
</g>
</g>
<!-- Node108&#45;&gt;Node109 -->
<g id="edge29" class="edge">
<title>Node108&#45;&gt;Node109</title>
<path fill="none" stroke="#191970" d="M2289.5,-129.6079C2289.5,-117.214 2289.5,-101.8263 2289.5,-92.0817"/>
<polygon fill="#191970" stroke="#191970" points="2286.0001,-129.9005 2289.5,-139.9005 2293.0001,-129.9006 2286.0001,-129.9005"/>
</g>
</g>
</svg>
