<?xml version="1.0" encoding="UTF-8" standalone="no"?>
<!DOCTYPE svg PUBLIC "-//W3C//DTD SVG 1.1//EN"
 "http://www.w3.org/Graphics/SVG/1.1/DTD/svg11.dtd">
<!-- Generated by graphviz version 2.40.1 (20161225.0304)
 -->
<!-- Title: include/tvm/runtime/relax_vm/vm.h Pages: 1 -->
<svg width="2608pt" height="654pt"
 viewBox="0.00 0.00 2608.03 654.00" xmlns="http://www.w3.org/2000/svg" xmlns:xlink="http://www.w3.org/1999/xlink">
<g id="graph0" class="graph" transform="scale(1 1) rotate(0) translate(4 650)">
<title>include/tvm/runtime/relax_vm/vm.h</title>
<polygon fill="#ffffff" stroke="transparent" points="-4,4 -4,-650 2604.0256,-650 2604.0256,4 -4,4"/>
<!-- Node0 -->
<g id="node1" class="node">
<title>Node0</title>
<polygon fill="#bfbfbf" stroke="#000000" points="550.0256,-615.5 550.0256,-645.5 666.0256,-645.5 666.0256,-615.5 550.0256,-615.5"/>
<text text-anchor="start" x="558.0256" y="-633.5" font-family="Helvetica,sans-Serif" font-size="10.00" fill="#000000">include/tvm/runtime</text>
<text text-anchor="middle" x="608.0256" y="-622.5" font-family="Helvetica,sans-Serif" font-size="10.00" fill="#000000">/relax_vm/vm.h</text>
</g>
<!-- Node1 -->
<g id="node2" class="node">
<title>Node1</title>
<polygon fill="#ffffff" stroke="#bfbfbf" points="2258.0256,-235.5 2258.0256,-254.5 2316.0256,-254.5 2316.0256,-235.5 2258.0256,-235.5"/>
<text text-anchor="middle" x="2287.0256" y="-242.5" font-family="Helvetica,sans-Serif" font-size="10.00" fill="#000000">memory</text>
</g>
<!-- Node0&#45;&gt;Node1 -->
<g id="edge1" class="edge">
<title>Node0&#45;&gt;Node1</title>
<path fill="none" stroke="#191970" d="M666.1321,-629.7275C978.896,-625.1972 2448.0256,-599.045 2448.0256,-507.5 2448.0256,-507.5 2448.0256,-507.5 2448.0256,-440.5 2448.0256,-356.3789 2358.104,-288.8017 2312.6651,-260.0237"/>
<polygon fill="#191970" stroke="#191970" points="2314.2972,-256.9179 2303.9511,-254.6356 2310.6158,-262.8717 2314.2972,-256.9179"/>
</g>
<!-- Node2 -->
<g id="node3" class="node">
<title>Node2</title>
<polygon fill="#ffffff" stroke="#bfbfbf" points="2335.0256,-62 2335.0256,-81 2379.0256,-81 2379.0256,-62 2335.0256,-62"/>
<text text-anchor="middle" x="2357.0256" y="-69" font-family="Helvetica,sans-Serif" font-size="10.00" fill="#000000">string</text>
</g>
<!-- Node0&#45;&gt;Node2 -->
<g id="edge2" class="edge">
<title>Node0&#45;&gt;Node2</title>
<path fill="none" stroke="#191970" d="M666.0276,-630.0292C993.8505,-626.9973 2600.0256,-607.0623 2600.0256,-507.5 2600.0256,-507.5 2600.0256,-507.5 2600.0256,-189 2600.0256,-152.1996 2580.5714,-143.5237 2550.0256,-123 2500.3484,-89.6222 2429.9394,-77.8421 2389.3266,-73.709"/>
<polygon fill="#191970" stroke="#191970" points="2389.4679,-70.2072 2379.1888,-72.7742 2388.8251,-77.1777 2389.4679,-70.2072"/>
</g>
<!-- Node3 -->
<g id="node4" class="node">
<title>Node3</title>
<polygon fill="#ffffff" stroke="#bfbfbf" points="658.5256,-235.5 658.5256,-254.5 705.5256,-254.5 705.5256,-235.5 658.5256,-235.5"/>
<text text-anchor="middle" x="682.0256" y="-242.5" font-family="Helvetica,sans-Serif" font-size="10.00" fill="#000000">vector</text>
</g>
<!-- Node0&#45;&gt;Node3 -->
<g id="edge3" class="edge">
<title>Node0&#45;&gt;Node3</title>
<path fill="none" stroke="#191970" d="M573.1208,-615.4122C517.8711,-589.949 409.9027,-533.5365 345.0256,-456 297.5496,-399.2601 271.256,-343.8516 323.0256,-291 368.0042,-245.0813 546.3021,-263.4215 610.0256,-255 622.5084,-253.3503 636.1977,-251.4675 648.257,-249.784"/>
<polygon fill="#191970" stroke="#191970" points="648.9466,-253.2216 658.3636,-248.3666 647.9744,-246.2894 648.9466,-253.2216"/>
</g>
<!-- Node4 -->
<g id="node5" class="node">
<title>Node4</title>
<g id="a_node5"><a xlink:href="relax__vm_2bytecode_8h.html" target="_top" xlink:title="The bytecode for the virtual machine. ">
<polygon fill="#ffffff" stroke="#000000" points="104.5256,-297 104.5256,-316 181.5256,-316 181.5256,-297 104.5256,-297"/>
<text text-anchor="middle" x="143.0256" y="-304" font-family="Helvetica,sans-Serif" font-size="10.00" fill="#000000">./bytecode.h</text>
</a>
</g>
</g>
<!-- Node0&#45;&gt;Node4 -->
<g id="edge4" class="edge">
<title>Node0&#45;&gt;Node4</title>
<path fill="none" stroke="#191970" d="M549.9516,-627.308C435.2143,-620.5074 187.9372,-603.2106 158.0256,-579 131.9706,-557.911 134.0256,-541.0202 134.0256,-507.5 134.0256,-507.5 134.0256,-507.5 134.0256,-440.5 134.0256,-399.8786 138.1938,-352.4859 140.8569,-326.3515"/>
<polygon fill="#191970" stroke="#191970" points="144.3555,-326.5483 141.922,-316.2367 137.394,-325.8152 144.3555,-326.5483"/>
</g>
<!-- Node13 -->
<g id="node14" class="node">
<title>Node13</title>
<g id="a_node14"><a xlink:href="relax__vm_2executable_8h.html" target="_top" xlink:title="./executable.h">
<polygon fill="#ffffff" stroke="#000000" points="1107.0256,-559.5 1107.0256,-578.5 1193.0256,-578.5 1193.0256,-559.5 1107.0256,-559.5"/>
<text text-anchor="middle" x="1150.0256" y="-566.5" font-family="Helvetica,sans-Serif" font-size="10.00" fill="#000000">./executable.h</text>
</a>
</g>
</g>
<!-- Node0&#45;&gt;Node13 -->
<g id="edge16" class="edge">
<title>Node0&#45;&gt;Node13</title>
<path fill="none" stroke="#191970" d="M666.029,-623.9184C771.7694,-611.9202 994.3841,-586.6604 1096.6246,-575.0593"/>
<polygon fill="#191970" stroke="#191970" points="1097.1813,-578.5187 1106.7229,-573.9135 1096.392,-571.5633 1097.1813,-578.5187"/>
</g>
<!-- Node44 -->
<g id="node45" class="node">
<title>Node44</title>
<g id="a_node45"><a xlink:href="relax__vm_2memory__manager_8h.html" target="_top" xlink:title="Abstract device memory management API. ">
<polygon fill="#ffffff" stroke="#000000" points="437.5256,-431 437.5256,-450 558.5256,-450 558.5256,-431 437.5256,-431"/>
<text text-anchor="middle" x="498.0256" y="-438" font-family="Helvetica,sans-Serif" font-size="10.00" fill="#000000">./memory_manager.h</text>
</a>
</g>
</g>
<!-- Node0&#45;&gt;Node44 -->
<g id="edge122" class="edge">
<title>Node0&#45;&gt;Node44</title>
<path fill="none" stroke="#191970" d="M599.2097,-615.2727C579.1795,-580.6751 530.3081,-496.2608 508.6537,-458.8577"/>
<polygon fill="#191970" stroke="#191970" points="511.5799,-456.9265 503.5405,-450.0258 505.5219,-460.4337 511.5799,-456.9265"/>
</g>
<!-- Node4&#45;&gt;Node3 -->
<g id="edge15" class="edge">
<title>Node4&#45;&gt;Node3</title>
<path fill="none" stroke="#191970" d="M171.9331,-296.9241C179.684,-294.666 188.111,-292.4863 196.0256,-291 377.5469,-256.912 426.4961,-275.7109 610.0256,-255 622.5375,-253.5881 636.2333,-251.7577 648.2895,-250.0496"/>
<polygon fill="#191970" stroke="#191970" points="648.993,-253.4844 658.3914,-248.5936 647.9944,-246.556 648.993,-253.4844"/>
</g>
<!-- Node5 -->
<g id="node6" class="node">
<title>Node5</title>
<g id="a_node6"><a xlink:href="data__type_8h.html" target="_top" xlink:title="tvm/runtime/data_type.h">
<polygon fill="#ffffff" stroke="#000000" points="745.0256,-123.5 745.0256,-142.5 883.0256,-142.5 883.0256,-123.5 745.0256,-123.5"/>
<text text-anchor="middle" x="814.0256" y="-130.5" font-family="Helvetica,sans-Serif" font-size="10.00" fill="#000000">tvm/runtime/data_type.h</text>
</a>
</g>
</g>
<!-- Node4&#45;&gt;Node5 -->
<g id="edge5" class="edge">
<title>Node4&#45;&gt;Node5</title>
<path fill="none" stroke="#191970" d="M175.222,-296.9504C182.0798,-294.9538 189.2855,-292.8839 196.0256,-291 382.0836,-238.9937 428.5787,-225.7541 616.0256,-179 665.1112,-166.7568 721.3096,-153.8013 761.2636,-144.7702"/>
<polygon fill="#191970" stroke="#191970" points="762.0721,-148.1758 771.0571,-142.5615 760.5321,-141.3473 762.0721,-148.1758"/>
</g>
<!-- Node10 -->
<g id="node11" class="node">
<title>Node10</title>
<polygon fill="#ffffff" stroke="#bfbfbf" points="804.5256,-62 804.5256,-81 929.5256,-81 929.5256,-62 804.5256,-62"/>
<text text-anchor="middle" x="867.0256" y="-69" font-family="Helvetica,sans-Serif" font-size="10.00" fill="#000000">tvm/runtime/logging.h</text>
</g>
<!-- Node4&#45;&gt;Node10 -->
<g id="edge13" class="edge">
<title>Node4&#45;&gt;Node10</title>
<path fill="none" stroke="#191970" d="M150.2135,-296.6274C174.0731,-264.7364 254.4631,-164.1678 348.0256,-123 426.1188,-88.6387 670.4849,-76.9589 794.0041,-73.1875"/>
<polygon fill="#191970" stroke="#191970" points="794.2365,-76.6823 804.1285,-72.8879 794.0293,-69.6853 794.2365,-76.6823"/>
</g>
<!-- Node12 -->
<g id="node13" class="node">
<title>Node12</title>
<polygon fill="#ffffff" stroke="#bfbfbf" points="113.0256,-235.5 113.0256,-254.5 173.0256,-254.5 173.0256,-235.5 113.0256,-235.5"/>
<text text-anchor="middle" x="143.0256" y="-242.5" font-family="Helvetica,sans-Serif" font-size="10.00" fill="#000000">iostream</text>
</g>
<!-- Node4&#45;&gt;Node12 -->
<g id="edge14" class="edge">
<title>Node4&#45;&gt;Node12</title>
<path fill="none" stroke="#191970" d="M143.0256,-296.8906C143.0256,-288.3657 143.0256,-275.6392 143.0256,-264.9235"/>
<polygon fill="#191970" stroke="#191970" points="146.5257,-264.7448 143.0256,-254.7449 139.5257,-264.7449 146.5257,-264.7448"/>
</g>
<!-- Node5&#45;&gt;Node2 -->
<g id="edge11" class="edge">
<title>Node5&#45;&gt;Node2</title>
<path fill="none" stroke="#191970" d="M883.1975,-129.2808C921.2147,-127.2935 969.2153,-124.877 1012.0256,-123 1442.132,-104.1417 1549.8355,-103.8428 1980.0256,-87 2107.7553,-81.9991 2259.8084,-75.6162 2324.889,-72.8638"/>
<polygon fill="#191970" stroke="#191970" points="2325.0873,-76.3586 2334.9303,-72.4387 2324.7912,-69.3649 2325.0873,-76.3586"/>
</g>
<!-- Node6 -->
<g id="node7" class="node">
<title>Node6</title>
<g id="a_node7"><a xlink:href="c__runtime__api_8h.html" target="_top" xlink:title="tvm/runtime/c_runtime\l_api.h">
<polygon fill="#ffffff" stroke="#000000" points="373.5256,-56.5 373.5256,-86.5 502.5256,-86.5 502.5256,-56.5 373.5256,-56.5"/>
<text text-anchor="start" x="381.5256" y="-74.5" font-family="Helvetica,sans-Serif" font-size="10.00" fill="#000000">tvm/runtime/c_runtime</text>
<text text-anchor="middle" x="438.0256" y="-63.5" font-family="Helvetica,sans-Serif" font-size="10.00" fill="#000000">_api.h</text>
</a>
</g>
</g>
<!-- Node5&#45;&gt;Node6 -->
<g id="edge6" class="edge">
<title>Node5&#45;&gt;Node6</title>
<path fill="none" stroke="#191970" d="M755.6881,-123.4581C690.4158,-112.7819 584.4861,-95.4557 513.0874,-83.7774"/>
<polygon fill="#191970" stroke="#191970" points="513.2466,-80.257 502.8127,-82.0968 512.1166,-87.1652 513.2466,-80.257"/>
</g>
<!-- Node5&#45;&gt;Node10 -->
<g id="edge10" class="edge">
<title>Node5&#45;&gt;Node10</title>
<path fill="none" stroke="#191970" d="M822.3068,-123.3906C830.1948,-114.2376 842.257,-100.2409 851.8667,-89.09"/>
<polygon fill="#191970" stroke="#191970" points="854.7506,-91.1049 858.6275,-81.2449 849.448,-86.5352 854.7506,-91.1049"/>
</g>
<!-- Node11 -->
<g id="node12" class="node">
<title>Node11</title>
<polygon fill="#ffffff" stroke="#bfbfbf" points="1252.5256,-62 1252.5256,-81 1321.5256,-81 1321.5256,-62 1252.5256,-62"/>
<text text-anchor="middle" x="1287.0256" y="-69" font-family="Helvetica,sans-Serif" font-size="10.00" fill="#000000">type_traits</text>
</g>
<!-- Node5&#45;&gt;Node11 -->
<g id="edge12" class="edge">
<title>Node5&#45;&gt;Node11</title>
<path fill="none" stroke="#191970" d="M883.0569,-124.0245C981.5381,-111.2198 1159.5884,-88.0695 1242.4145,-77.3004"/>
<polygon fill="#191970" stroke="#191970" points="1243.0405,-80.7485 1252.5057,-75.9883 1242.1379,-73.807 1243.0405,-80.7485"/>
</g>
<!-- Node7 -->
<g id="node8" class="node">
<title>Node7</title>
<polygon fill="#ffffff" stroke="#bfbfbf" points="298.5256,-.5 298.5256,-19.5 391.5256,-19.5 391.5256,-.5 298.5256,-.5"/>
<text text-anchor="middle" x="345.0256" y="-7.5" font-family="Helvetica,sans-Serif" font-size="10.00" fill="#000000">dlpack/dlpack.h</text>
</g>
<!-- Node6&#45;&gt;Node7 -->
<g id="edge7" class="edge">
<title>Node6&#45;&gt;Node7</title>
<path fill="none" stroke="#191970" d="M415.0368,-56.2977C400.8289,-46.9022 382.6471,-34.8787 368.373,-25.4395"/>
<polygon fill="#191970" stroke="#191970" points="369.9101,-22.2598 359.6383,-19.6633 366.0489,-28.0986 369.9101,-22.2598"/>
</g>
<!-- Node8 -->
<g id="node9" class="node">
<title>Node8</title>
<polygon fill="#ffffff" stroke="#bfbfbf" points="410.0256,-.5 410.0256,-19.5 466.0256,-19.5 466.0256,-.5 410.0256,-.5"/>
<text text-anchor="middle" x="438.0256" y="-7.5" font-family="Helvetica,sans-Serif" font-size="10.00" fill="#000000">stddef.h</text>
</g>
<!-- Node6&#45;&gt;Node8 -->
<g id="edge8" class="edge">
<title>Node6&#45;&gt;Node8</title>
<path fill="none" stroke="#191970" d="M438.0256,-56.2977C438.0256,-48.3834 438.0256,-38.6043 438.0256,-30.0759"/>
<polygon fill="#191970" stroke="#191970" points="441.5257,-29.8469 438.0256,-19.8469 434.5257,-29.847 441.5257,-29.8469"/>
</g>
<!-- Node9 -->
<g id="node10" class="node">
<title>Node9</title>
<polygon fill="#ffffff" stroke="#bfbfbf" points="484.5256,-.5 484.5256,-19.5 537.5256,-19.5 537.5256,-.5 484.5256,-.5"/>
<text text-anchor="middle" x="511.0256" y="-7.5" font-family="Helvetica,sans-Serif" font-size="10.00" fill="#000000">stdint.h</text>
</g>
<!-- Node6&#45;&gt;Node9 -->
<g id="edge9" class="edge">
<title>Node6&#45;&gt;Node9</title>
<path fill="none" stroke="#191970" d="M456.0705,-56.2977C466.837,-47.2274 480.5107,-35.7077 491.5251,-26.4285"/>
<polygon fill="#191970" stroke="#191970" points="493.9446,-28.9667 499.3373,-19.8469 489.4345,-23.6132 493.9446,-28.9667"/>
</g>
<!-- Node13&#45;&gt;Node2 -->
<g id="edge118" class="edge">
<title>Node13&#45;&gt;Node2</title>
<path fill="none" stroke="#191970" d="M1193.0549,-567.6883C1429.6944,-559.9195 2562.0256,-515.3355 2562.0256,-373.5 2562.0256,-373.5 2562.0256,-373.5 2562.0256,-189 2562.0256,-110.4117 2447.2216,-83.6434 2389.4395,-75.1476"/>
<polygon fill="#191970" stroke="#191970" points="2389.737,-71.6557 2379.3544,-73.7655 2388.7866,-78.5909 2389.737,-71.6557"/>
</g>
<!-- Node13&#45;&gt;Node3 -->
<g id="edge120" class="edge">
<title>Node13&#45;&gt;Node3</title>
<path fill="none" stroke="#191970" d="M1106.6518,-567.3646C962.9287,-561.2265 504.5785,-535.6827 384.0256,-456 321.2469,-414.5048 295.283,-346.5716 346.0256,-291 385.9502,-247.2759 551.3688,-263.0727 610.0256,-255 622.4994,-253.2833 636.1867,-251.3857 648.2469,-249.7091"/>
<polygon fill="#191970" stroke="#191970" points="648.9328,-253.1475 658.355,-248.3026 647.968,-246.2142 648.9328,-253.1475"/>
</g>
<!-- Node13&#45;&gt;Node4 -->
<g id="edge121" class="edge">
<title>Node13&#45;&gt;Node4</title>
<path fill="none" stroke="#191970" d="M1107.0122,-567.8693C935.5208,-563.2174 308.109,-544.7716 272.0256,-523 196.7381,-477.574 160.1571,-370.0456 147.9089,-325.9149"/>
<polygon fill="#191970" stroke="#191970" points="151.2616,-324.9031 145.3104,-316.1375 144.4964,-326.701 151.2616,-324.9031"/>
</g>
<!-- Node14 -->
<g id="node15" class="node">
<title>Node14</title>
<g id="a_node15"><a xlink:href="closure_8h.html" target="_top" xlink:title="Runtime Closure container types. ">
<polygon fill="#ffffff" stroke="#000000" points="1232.0256,-492.5 1232.0256,-522.5 1358.0256,-522.5 1358.0256,-492.5 1232.0256,-492.5"/>
<text text-anchor="start" x="1240.0256" y="-510.5" font-family="Helvetica,sans-Serif" font-size="10.00" fill="#000000">tvm/runtime/container</text>
<text text-anchor="middle" x="1295.0256" y="-499.5" font-family="Helvetica,sans-Serif" font-size="10.00" fill="#000000">/closure.h</text>
</a>
</g>
</g>
<!-- Node13&#45;&gt;Node14 -->
<g id="edge17" class="edge">
<title>Node13&#45;&gt;Node14</title>
<path fill="none" stroke="#191970" d="M1172.6818,-559.3906C1193.3052,-550.6435 1224.3579,-537.4728 1250.0174,-526.5897"/>
<polygon fill="#191970" stroke="#191970" points="1251.7151,-529.6715 1259.5546,-522.5446 1248.9817,-523.2272 1251.7151,-529.6715"/>
</g>
<!-- Node18 -->
<g id="node19" class="node">
<title>Node18</title>
<g id="a_node19"><a xlink:href="object_8h.html" target="_top" xlink:title="A managed object in the TVM runtime. ">
<polygon fill="#ffffff" stroke="#000000" points="1020.5256,-123.5 1020.5256,-142.5 1139.5256,-142.5 1139.5256,-123.5 1020.5256,-123.5"/>
<text text-anchor="middle" x="1080.0256" y="-130.5" font-family="Helvetica,sans-Serif" font-size="10.00" fill="#000000">tvm/runtime/object.h</text>
</a>
</g>
</g>
<!-- Node13&#45;&gt;Node18 -->
<g id="edge36" class="edge">
<title>Node13&#45;&gt;Node18</title>
<path fill="none" stroke="#191970" d="M1123.6137,-559.4103C1082.0422,-542.4168 1006.0256,-502.8223 1006.0256,-440.5 1006.0256,-440.5 1006.0256,-440.5 1006.0256,-373.5 1006.0256,-287.4997 1049.7859,-191.5461 1070.0035,-151.8042"/>
<polygon fill="#191970" stroke="#191970" points="1073.204,-153.2353 1074.7037,-142.7472 1066.9908,-150.011 1073.204,-153.2353"/>
</g>
<!-- Node24 -->
<g id="node25" class="node">
<title>Node24</title>
<g id="a_node25"><a xlink:href="registry_8h.html" target="_top" xlink:title="This file defines the TVM global function registry. ">
<polygon fill="#ffffff" stroke="#000000" points="1573.5256,-498 1573.5256,-517 1698.5256,-517 1698.5256,-498 1573.5256,-498"/>
<text text-anchor="middle" x="1636.0256" y="-505" font-family="Helvetica,sans-Serif" font-size="10.00" fill="#000000">tvm/runtime/registry.h</text>
</a>
</g>
</g>
<!-- Node13&#45;&gt;Node24 -->
<g id="edge37" class="edge">
<title>Node13&#45;&gt;Node24</title>
<path fill="none" stroke="#191970" d="M1193.1548,-563.5423C1276.5641,-552.9874 1460.7777,-529.6764 1563.3985,-516.6905"/>
<polygon fill="#191970" stroke="#191970" points="1563.8906,-520.1562 1573.3721,-515.4284 1563.0118,-513.2116 1563.8906,-520.1562"/>
</g>
<!-- Node29 -->
<g id="node30" class="node">
<title>Node29</title>
<polygon fill="#ffffff" stroke="#bfbfbf" points="1794.5256,-235.5 1794.5256,-254.5 1887.5256,-254.5 1887.5256,-235.5 1794.5256,-235.5"/>
<text text-anchor="middle" x="1841.0256" y="-242.5" font-family="Helvetica,sans-Serif" font-size="10.00" fill="#000000">unordered_map</text>
</g>
<!-- Node13&#45;&gt;Node29 -->
<g id="edge119" class="edge">
<title>Node13&#45;&gt;Node29</title>
<path fill="none" stroke="#191970" d="M1193.2203,-568.2614C1364.4589,-564.2908 1991.4937,-539.5238 2099.0256,-389 2155.1416,-310.4484 1989.3217,-269.5678 1897.5459,-253.4228"/>
<polygon fill="#191970" stroke="#191970" points="1897.9998,-249.9497 1887.5523,-251.7107 1896.8177,-256.8492 1897.9998,-249.9497"/>
</g>
<!-- Node15 -->
<g id="node16" class="node">
<title>Node15</title>
<g id="a_node16"><a xlink:href="runtime_2container_2base_8h.html" target="_top" xlink:title="Base utilities for common POD(plain old data) container types. ">
<polygon fill="#ffffff" stroke="#000000" points="1568.5256,-235.5 1568.5256,-254.5 1623.5256,-254.5 1623.5256,-235.5 1568.5256,-235.5"/>
<text text-anchor="middle" x="1596.0256" y="-242.5" font-family="Helvetica,sans-Serif" font-size="10.00" fill="#000000">./base.h</text>
</a>
</g>
</g>
<!-- Node14&#45;&gt;Node15 -->
<g id="edge18" class="edge">
<title>Node14&#45;&gt;Node15</title>
<path fill="none" stroke="#191970" d="M1358.2033,-497.0719C1454.4833,-479.6571 1630.2559,-441.3375 1663.0256,-389 1690.3112,-345.4212 1642.3001,-288.9272 1614.207,-261.4537"/>
<polygon fill="#191970" stroke="#191970" points="1616.5532,-258.855 1606.8907,-254.5092 1611.7341,-263.9322 1616.5532,-258.855"/>
</g>
<!-- Node15&#45;&gt;Node10 -->
<g id="edge20" class="edge">
<title>Node15&#45;&gt;Node10</title>
<path fill="none" stroke="#191970" d="M1620.4967,-235.3462C1635.7362,-227.9011 1654.0868,-215.9799 1663.0256,-199 1680.4985,-165.809 1624.6488,-123.8947 1623.0256,-123 1561.5245,-89.1003 1061.9653,-93.3243 992.0256,-87 975.0033,-85.4607 956.7232,-83.4166 939.5402,-81.3192"/>
<polygon fill="#191970" stroke="#191970" points="939.9226,-77.8399 929.5676,-80.0816 939.0604,-84.7866 939.9226,-77.8399"/>
</g>
<!-- Node16 -->
<g id="node17" class="node">
<title>Node16</title>
<polygon fill="#ffffff" stroke="#bfbfbf" points="1378.5256,-179.5 1378.5256,-198.5 1467.5256,-198.5 1467.5256,-179.5 1378.5256,-179.5"/>
<text text-anchor="middle" x="1423.0256" y="-186.5" font-family="Helvetica,sans-Serif" font-size="10.00" fill="#000000">dmlc/logging.h</text>
</g>
<!-- Node15&#45;&gt;Node16 -->
<g id="edge19" class="edge">
<title>Node15&#45;&gt;Node16</title>
<path fill="none" stroke="#191970" d="M1568.2301,-236.0026C1539.4924,-226.7002 1494.3866,-212.0995 1462.0741,-201.64"/>
<polygon fill="#191970" stroke="#191970" points="1463.0809,-198.2872 1452.489,-198.5373 1460.9251,-204.9469 1463.0809,-198.2872"/>
</g>
<!-- Node17 -->
<g id="node18" class="node">
<title>Node17</title>
<g id="a_node18"><a xlink:href="runtime_2memory_8h.html" target="_top" xlink:title="Runtime memory management. ">
<polygon fill="#ffffff" stroke="#000000" points="1524.5256,-179.5 1524.5256,-198.5 1653.5256,-198.5 1653.5256,-179.5 1524.5256,-179.5"/>
<text text-anchor="middle" x="1589.0256" y="-186.5" font-family="Helvetica,sans-Serif" font-size="10.00" fill="#000000">tvm/runtime/memory.h</text>
</a>
</g>
</g>
<!-- Node15&#45;&gt;Node17 -->
<g id="edge21" class="edge">
<title>Node15&#45;&gt;Node17</title>
<path fill="none" stroke="#191970" d="M1594.8062,-235.2455C1593.8928,-227.9382 1592.6124,-217.6944 1591.4886,-208.7046"/>
<polygon fill="#191970" stroke="#191970" points="1594.9443,-208.1313 1590.2309,-198.6427 1587.9984,-208.9996 1594.9443,-208.1313"/>
</g>
<!-- Node15&#45;&gt;Node18 -->
<g id="edge32" class="edge">
<title>Node15&#45;&gt;Node18</title>
<path fill="none" stroke="#191970" d="M1579.4561,-235.3379C1549.3612,-217.8593 1487.8218,-182.4687 1477.0256,-179 1417.85,-159.9877 1247.0591,-145.0568 1149.8622,-137.8064"/>
<polygon fill="#191970" stroke="#191970" points="1150.0583,-134.3115 1139.8277,-137.0657 1149.5429,-141.2925 1150.0583,-134.3115"/>
</g>
<!-- Node19 -->
<g id="node20" class="node">
<title>Node19</title>
<polygon fill="#ffffff" stroke="#bfbfbf" points="1925.5256,-62 1925.5256,-81 1970.5256,-81 1970.5256,-62 1925.5256,-62"/>
<text text-anchor="middle" x="1948.0256" y="-69" font-family="Helvetica,sans-Serif" font-size="10.00" fill="#000000">utility</text>
</g>
<!-- Node15&#45;&gt;Node19 -->
<g id="edge35" class="edge">
<title>Node15&#45;&gt;Node19</title>
<path fill="none" stroke="#191970" d="M1617.5916,-235.3594C1637.9179,-226.2071 1669.179,-211.9607 1696.0256,-199 1778.4708,-159.198 1874.709,-109.6292 1920.7605,-85.7148"/>
<polygon fill="#191970" stroke="#191970" points="1922.5446,-88.7321 1929.8027,-81.0138 1919.3156,-82.5213 1922.5446,-88.7321"/>
</g>
<!-- Node22 -->
<g id="node23" class="node">
<title>Node22</title>
<polygon fill="#ffffff" stroke="#bfbfbf" points="1862.0256,-179.5 1862.0256,-198.5 1926.0256,-198.5 1926.0256,-179.5 1862.0256,-179.5"/>
<text text-anchor="middle" x="1894.0256" y="-186.5" font-family="Helvetica,sans-Serif" font-size="10.00" fill="#000000">algorithm</text>
</g>
<!-- Node15&#45;&gt;Node22 -->
<g id="edge33" class="edge">
<title>Node15&#45;&gt;Node22</title>
<path fill="none" stroke="#191970" d="M1623.5265,-239.832C1675.8016,-230.0085 1789.8135,-208.5835 1851.821,-196.9311"/>
<polygon fill="#191970" stroke="#191970" points="1852.4922,-200.3663 1861.6737,-195.0795 1851.1993,-193.4867 1852.4922,-200.3663"/>
</g>
<!-- Node23 -->
<g id="node24" class="node">
<title>Node23</title>
<polygon fill="#ffffff" stroke="#bfbfbf" points="1277.5256,-179.5 1277.5256,-198.5 1360.5256,-198.5 1360.5256,-179.5 1277.5256,-179.5"/>
<text text-anchor="middle" x="1319.0256" y="-186.5" font-family="Helvetica,sans-Serif" font-size="10.00" fill="#000000">initializer_list</text>
</g>
<!-- Node15&#45;&gt;Node23 -->
<g id="edge34" class="edge">
<title>Node15&#45;&gt;Node23</title>
<path fill="none" stroke="#191970" d="M1568.453,-239.4258C1522.4961,-230.1348 1429.5136,-211.3369 1370.9691,-199.5012"/>
<polygon fill="#191970" stroke="#191970" points="1371.3092,-195.9992 1360.8139,-197.4482 1369.9221,-202.8604 1371.3092,-195.9992"/>
</g>
<!-- Node17&#45;&gt;Node11 -->
<g id="edge30" class="edge">
<title>Node17&#45;&gt;Node11</title>
<path fill="none" stroke="#191970" d="M1564.5674,-179.484C1510.9618,-158.6275 1383.0015,-108.8416 1321.365,-84.8605"/>
<polygon fill="#191970" stroke="#191970" points="1322.3005,-81.469 1311.7119,-81.1048 1319.7623,-87.9926 1322.3005,-81.469"/>
</g>
<!-- Node17&#45;&gt;Node18 -->
<g id="edge22" class="edge">
<title>Node17&#45;&gt;Node18</title>
<path fill="none" stroke="#191970" d="M1524.3686,-180.7122C1519.5163,-180.1219 1514.6942,-179.5452 1510.0256,-179 1383.0098,-164.1686 1234.6612,-148.71 1149.5932,-140.0242"/>
<polygon fill="#191970" stroke="#191970" points="1149.8419,-136.5315 1139.5385,-138.9991 1149.1319,-143.4954 1149.8419,-136.5315"/>
</g>
<!-- Node17&#45;&gt;Node19 -->
<g id="edge31" class="edge">
<title>Node17&#45;&gt;Node19</title>
<path fill="none" stroke="#191970" d="M1618.0999,-179.484C1684.4448,-157.7695 1846.6003,-104.6963 1915.8359,-82.0356"/>
<polygon fill="#191970" stroke="#191970" points="1916.9391,-85.3573 1925.3542,-78.9203 1914.7616,-78.7046 1916.9391,-85.3573"/>
</g>
<!-- Node21 -->
<g id="node22" class="node">
<title>Node21</title>
<polygon fill="#ffffff" stroke="#bfbfbf" points="1564.5256,-123.5 1564.5256,-142.5 1613.5256,-142.5 1613.5256,-123.5 1564.5256,-123.5"/>
<text text-anchor="middle" x="1589.0256" y="-130.5" font-family="Helvetica,sans-Serif" font-size="10.00" fill="#000000">cstdlib</text>
</g>
<!-- Node17&#45;&gt;Node21 -->
<g id="edge29" class="edge">
<title>Node17&#45;&gt;Node21</title>
<path fill="none" stroke="#191970" d="M1589.0256,-179.2455C1589.0256,-171.9382 1589.0256,-161.6944 1589.0256,-152.7046"/>
<polygon fill="#191970" stroke="#191970" points="1592.5257,-152.6426 1589.0256,-142.6427 1585.5257,-152.6427 1592.5257,-152.6426"/>
</g>
<!-- Node18&#45;&gt;Node2 -->
<g id="edge25" class="edge">
<title>Node18&#45;&gt;Node2</title>
<path fill="none" stroke="#191970" d="M1139.9051,-130.1162C1364.8656,-119.2822 2155.2753,-81.2162 2324.8406,-73.05"/>
<polygon fill="#191970" stroke="#191970" points="2325.0618,-76.5435 2334.8819,-72.5664 2324.7251,-69.5516 2325.0618,-76.5435"/>
</g>
<!-- Node18&#45;&gt;Node6 -->
<g id="edge23" class="edge">
<title>Node18&#45;&gt;Node6</title>
<path fill="none" stroke="#191970" d="M1020.4917,-127.297C903.0621,-116.0479 641.8274,-91.0231 512.9234,-78.6748"/>
<polygon fill="#191970" stroke="#191970" points="513.0356,-75.1696 502.7474,-77.7 512.3681,-82.1377 513.0356,-75.1696"/>
</g>
<!-- Node18&#45;&gt;Node10 -->
<g id="edge24" class="edge">
<title>Node18&#45;&gt;Node10</title>
<path fill="none" stroke="#191970" d="M1046.7443,-123.3906C1009.855,-112.7395 950.2499,-95.5296 909.8931,-83.8772"/>
<polygon fill="#191970" stroke="#191970" points="910.6516,-80.4533 900.0731,-81.0419 908.7097,-87.1786 910.6516,-80.4533"/>
</g>
<!-- Node18&#45;&gt;Node11 -->
<g id="edge26" class="edge">
<title>Node18&#45;&gt;Node11</title>
<path fill="none" stroke="#191970" d="M1112.3693,-123.3906C1148.1435,-112.7621 1205.9002,-95.6025 1245.1161,-83.9514"/>
<polygon fill="#191970" stroke="#191970" points="1246.3199,-87.245 1254.9089,-81.0419 1244.3262,-80.5349 1246.3199,-87.245"/>
</g>
<!-- Node18&#45;&gt;Node19 -->
<g id="edge27" class="edge">
<title>Node18&#45;&gt;Node19</title>
<path fill="none" stroke="#191970" d="M1139.6867,-128.7729C1308.4501,-116.8155 1785.3912,-83.0231 1915.1076,-73.8323"/>
<polygon fill="#191970" stroke="#191970" points="1915.4821,-77.3147 1925.2097,-73.1166 1914.9873,-70.3322 1915.4821,-77.3147"/>
</g>
<!-- Node20 -->
<g id="node21" class="node">
<title>Node20</title>
<polygon fill="#ffffff" stroke="#bfbfbf" points="1001.0256,-62 1001.0256,-81 1051.0256,-81 1051.0256,-62 1001.0256,-62"/>
<text text-anchor="middle" x="1026.0256" y="-69" font-family="Helvetica,sans-Serif" font-size="10.00" fill="#000000">atomic</text>
</g>
<!-- Node18&#45;&gt;Node20 -->
<g id="edge28" class="edge">
<title>Node18&#45;&gt;Node20</title>
<path fill="none" stroke="#191970" d="M1071.5881,-123.3906C1063.4724,-114.1478 1051.0201,-99.966 1041.1832,-88.7628"/>
<polygon fill="#191970" stroke="#191970" points="1043.8101,-86.45 1034.582,-81.2449 1038.55,-91.0686 1043.8101,-86.45"/>
</g>
<!-- Node24&#45;&gt;Node2 -->
<g id="edge114" class="edge">
<title>Node24&#45;&gt;Node2</title>
<path fill="none" stroke="#191970" d="M1698.8218,-504.6514C1901.3221,-494.6396 2524.0256,-457.0591 2524.0256,-373.5 2524.0256,-373.5 2524.0256,-373.5 2524.0256,-189 2524.0256,-123.6349 2437.3919,-91.4738 2388.9209,-78.5952"/>
<polygon fill="#191970" stroke="#191970" points="2389.755,-75.1961 2379.2019,-76.1348 2388.037,-81.982 2389.755,-75.1961"/>
</g>
<!-- Node24&#45;&gt;Node3 -->
<g id="edge117" class="edge">
<title>Node24&#45;&gt;Node3</title>
<path fill="none" stroke="#191970" d="M1573.2658,-503.5413C1518.7599,-500.1852 1437.6973,-495.3905 1367.0256,-492 1314.8805,-489.4983 473.3491,-481.9064 428.0256,-456 360.1472,-417.2015 315.8909,-350.1442 367.0256,-291 368.1769,-289.6684 567.2241,-261.2906 648.2761,-249.7836"/>
<polygon fill="#191970" stroke="#191970" points="649.0422,-253.2101 658.4512,-248.3397 648.0586,-246.2795 649.0422,-253.2101"/>
</g>
<!-- Node24&#45;&gt;Node11 -->
<g id="edge115" class="edge">
<title>Node24&#45;&gt;Node11</title>
<path fill="none" stroke="#191970" d="M1639.0144,-497.8958C1650.1414,-463.7966 1692.5615,-347.572 1770.0256,-291 1823.3008,-252.0931 1864.8008,-298.9195 1914.0256,-255 1940.1741,-231.6697 1956.971,-206.3212 1935.0256,-179 1888.5651,-121.1587 1844.3366,-159.5926 1772.0256,-143 1734.6207,-134.417 1725.7774,-129.8984 1688.0256,-123 1559.696,-99.5503 1406.3392,-83.0048 1331.9373,-75.6986"/>
<polygon fill="#191970" stroke="#191970" points="1331.837,-72.1724 1321.5452,-74.688 1331.1594,-79.1396 1331.837,-72.1724"/>
</g>
<!-- Node24&#45;&gt;Node19 -->
<g id="edge116" class="edge">
<title>Node24&#45;&gt;Node19</title>
<path fill="none" stroke="#191970" d="M1698.7372,-501.6522C1849.3202,-486.8659 2227.1824,-445.1317 2340.0256,-389 2378.8723,-369.6764 2390.3846,-360.1631 2411.0256,-322 2454.2113,-242.154 2447.1133,-161.7555 2365.0256,-123 2296.8649,-90.8198 2066.9997,-77.034 1980.9277,-72.9155"/>
<polygon fill="#191970" stroke="#191970" points="1980.8488,-69.4082 1970.6969,-72.4394 1980.5234,-76.4006 1980.8488,-69.4082"/>
</g>
<!-- Node25 -->
<g id="node26" class="node">
<title>Node25</title>
<g id="a_node26"><a xlink:href="packed__func_8h.html" target="_top" xlink:title="Type&#45;erased function used across TVM API. ">
<polygon fill="#ffffff" stroke="#000000" points="1400.0256,-425.5 1400.0256,-455.5 1516.0256,-455.5 1516.0256,-425.5 1400.0256,-425.5"/>
<text text-anchor="start" x="1408.0256" y="-443.5" font-family="Helvetica,sans-Serif" font-size="10.00" fill="#000000">tvm/runtime/packed</text>
<text text-anchor="middle" x="1458.0256" y="-432.5" font-family="Helvetica,sans-Serif" font-size="10.00" fill="#000000">_func.h</text>
</a>
</g>
</g>
<!-- Node24&#45;&gt;Node25 -->
<g id="edge38" class="edge">
<title>Node24&#45;&gt;Node25</title>
<path fill="none" stroke="#191970" d="M1610.5225,-497.9005C1583.7495,-487.8231 1540.9806,-471.7247 1507.5401,-459.1375"/>
<polygon fill="#191970" stroke="#191970" points="1508.5261,-455.7689 1497.9341,-455.5218 1506.0601,-462.3202 1508.5261,-455.7689"/>
</g>
<!-- Node25&#45;&gt;Node1 -->
<g id="edge108" class="edge">
<title>Node25&#45;&gt;Node1</title>
<path fill="none" stroke="#191970" d="M1516.2602,-439.9864C1691.9208,-438.0006 2208.4011,-428.8032 2272.0256,-389 2311.6295,-364.224 2320.7585,-336.4656 2310.0256,-291 2307.7549,-281.3814 2303.148,-271.4809 2298.6496,-263.3404"/>
<polygon fill="#191970" stroke="#191970" points="2301.6586,-261.5524 2293.5653,-254.7151 2295.6283,-265.1071 2301.6586,-261.5524"/>
</g>
<!-- Node25&#45;&gt;Node2 -->
<g id="edge109" class="edge">
<title>Node25&#45;&gt;Node2</title>
<path fill="none" stroke="#191970" d="M1516.3414,-439.4017C1700.9497,-435.6063 2264.8117,-421.4556 2340.0256,-389 2459.4454,-337.4691 2530.8266,-233.3764 2462.0256,-123 2446.2373,-97.6712 2413.9595,-84.45 2389.3352,-77.7832"/>
<polygon fill="#191970" stroke="#191970" points="2389.8683,-74.3098 2379.3209,-75.311 2388.1906,-81.1058 2389.8683,-74.3098"/>
</g>
<!-- Node25&#45;&gt;Node3 -->
<g id="edge113" class="edge">
<title>Node25&#45;&gt;Node3</title>
<path fill="none" stroke="#191970" d="M1399.913,-436.9434C1285.8987,-429.5747 1036.7946,-411.439 954.0256,-389 852.9497,-361.5979 747.2073,-291.747 703.1909,-260.5082"/>
<polygon fill="#191970" stroke="#191970" points="705.1598,-257.6132 694.9942,-254.628 701.0795,-263.301 705.1598,-257.6132"/>
</g>
<!-- Node25&#45;&gt;Node5 -->
<g id="edge56" class="edge">
<title>Node25&#45;&gt;Node5</title>
<path fill="none" stroke="#191970" d="M1399.6386,-433.4291C1293.032,-417.948 1064.0526,-372.54 914.0256,-255 875.4331,-224.7644 841.9153,-177.158 825.2463,-151.2599"/>
<polygon fill="#191970" stroke="#191970" points="828.1867,-149.3611 819.8892,-142.7731 822.2674,-153.0976 828.1867,-149.3611"/>
</g>
<!-- Node25&#45;&gt;Node6 -->
<g id="edge39" class="edge">
<title>Node25&#45;&gt;Node6</title>
<path fill="none" stroke="#191970" d="M1399.8442,-438.7406C1209.6123,-432.8135 607.2142,-412.6179 414.0256,-389 236.4007,-367.2848 38.0256,-423.9473 38.0256,-245 38.0256,-245 38.0256,-245 38.0256,-189 38.0256,-143.2481 75.3917,-141.9699 117.0256,-123 159.7543,-103.5312 282.5371,-87.6149 363.2645,-78.8572"/>
<polygon fill="#191970" stroke="#191970" points="363.8121,-82.3187 373.3823,-77.7731 363.0663,-75.3585 363.8121,-82.3187"/>
</g>
<!-- Node25&#45;&gt;Node10 -->
<g id="edge57" class="edge">
<title>Node25&#45;&gt;Node10</title>
<path fill="none" stroke="#191970" d="M1399.9977,-439.1303C1203.9768,-434.2677 573.7853,-416.6318 487.0256,-389 406.273,-363.2814 362.0256,-329.7492 362.0256,-245 362.0256,-245 362.0256,-245 362.0256,-189 362.0256,-101.3468 654.2876,-79.0559 794.1364,-73.4071"/>
<polygon fill="#191970" stroke="#191970" points="794.4846,-76.8963 804.3423,-73.0135 794.2148,-69.9015 794.4846,-76.8963"/>
</g>
<!-- Node25&#45;&gt;Node11 -->
<g id="edge111" class="edge">
<title>Node25&#45;&gt;Node11</title>
<path fill="none" stroke="#191970" d="M1469.1935,-425.3231C1483.6948,-406.7036 1510.7577,-375.4655 1541.0256,-358 1594.0668,-327.3936 1616.7995,-343.8015 1674.0256,-322 1702.8151,-311.032 1706.9998,-301.3268 1736.0256,-291 1807.4031,-265.6052 1938.2143,-298.5857 1897.0256,-235 1880.4774,-209.4534 1676.2643,-131.4597 1647.0256,-123 1536.41,-90.9954 1400.6799,-78.4536 1331.7678,-73.887"/>
<polygon fill="#191970" stroke="#191970" points="1331.8981,-70.3883 1321.6958,-73.2452 1331.4529,-77.3741 1331.8981,-70.3883"/>
</g>
<!-- Node25&#45;&gt;Node18 -->
<g id="edge105" class="edge">
<title>Node25&#45;&gt;Node18</title>
<path fill="none" stroke="#191970" d="M1399.9304,-429.4107C1332.0361,-414.2203 1218.8321,-381.7527 1139.0256,-322 1089.0232,-284.5622 1080.6997,-260.7109 1071.0256,-199 1068.5909,-183.4694 1071.2796,-165.8226 1074.337,-152.6862"/>
<polygon fill="#191970" stroke="#191970" points="1077.7634,-153.4165 1076.8877,-142.8579 1070.9878,-151.6581 1077.7634,-153.4165"/>
</g>
<!-- Node25&#45;&gt;Node19 -->
<g id="edge112" class="edge">
<title>Node25&#45;&gt;Node19</title>
<path fill="none" stroke="#191970" d="M1516.2694,-439.7576C1695.8887,-437.0806 2233.2855,-426.0297 2302.0256,-389 2372.4565,-351.0595 2410.0256,-325 2410.0256,-245 2410.0256,-245 2410.0256,-245 2410.0256,-189 2410.0256,-100.2847 2086.0145,-77.7533 1980.6786,-72.7724"/>
<polygon fill="#191970" stroke="#191970" points="1980.7689,-69.273 1970.6215,-72.3193 1980.4539,-76.2659 1980.7689,-69.273"/>
</g>
<!-- Node26 -->
<g id="node27" class="node">
<title>Node26</title>
<g id="a_node27"><a xlink:href="array_8h.html" target="_top" xlink:title="Runtime Array container types. ">
<polygon fill="#ffffff" stroke="#000000" points="1817.0256,-358.5 1817.0256,-388.5 1943.0256,-388.5 1943.0256,-358.5 1817.0256,-358.5"/>
<text text-anchor="start" x="1825.0256" y="-376.5" font-family="Helvetica,sans-Serif" font-size="10.00" fill="#000000">tvm/runtime/container</text>
<text text-anchor="middle" x="1880.0256" y="-365.5" font-family="Helvetica,sans-Serif" font-size="10.00" fill="#000000">/array.h</text>
</a>
</g>
</g>
<!-- Node25&#45;&gt;Node26 -->
<g id="edge40" class="edge">
<title>Node25&#45;&gt;Node26</title>
<path fill="none" stroke="#191970" d="M1516.2598,-431.2543C1592.0109,-419.2275 1724.381,-398.2113 1806.8385,-385.1197"/>
<polygon fill="#191970" stroke="#191970" points="1807.5605,-388.549 1816.888,-383.5242 1806.4628,-381.6356 1807.5605,-388.549"/>
</g>
<!-- Node28 -->
<g id="node29" class="node">
<title>Node28</title>
<g id="a_node29"><a xlink:href="map_8h.html" target="_top" xlink:title="Runtime Map container types. ">
<polygon fill="#ffffff" stroke="#000000" points="1964.0256,-358.5 1964.0256,-388.5 2090.0256,-388.5 2090.0256,-358.5 1964.0256,-358.5"/>
<text text-anchor="start" x="1972.0256" y="-376.5" font-family="Helvetica,sans-Serif" font-size="10.00" fill="#000000">tvm/runtime/container</text>
<text text-anchor="middle" x="2027.0256" y="-365.5" font-family="Helvetica,sans-Serif" font-size="10.00" fill="#000000">/map.h</text>
</a>
</g>
</g>
<!-- Node25&#45;&gt;Node28 -->
<g id="edge50" class="edge">
<title>Node25&#45;&gt;Node28</title>
<path fill="none" stroke="#191970" d="M1516.0674,-436.3396C1608.6317,-429.2803 1795.2385,-413.3117 1952.0256,-389 1952.6209,-388.9077 1953.2187,-388.8138 1953.8186,-388.7184"/>
<polygon fill="#191970" stroke="#191970" points="1954.404,-392.1692 1963.6826,-387.0547 1953.2398,-385.2666 1954.404,-392.1692"/>
</g>
<!-- Node30 -->
<g id="node31" class="node">
<title>Node30</title>
<g id="a_node31"><a xlink:href="runtime_2module_8h.html" target="_top" xlink:title="Runtime container of the functions generated by TVM, This is used to support dynamically link...">
<polygon fill="#ffffff" stroke="#000000" points="1330.0256,-364 1330.0256,-383 1456.0256,-383 1456.0256,-364 1330.0256,-364"/>
<text text-anchor="middle" x="1393.0256" y="-371" font-family="Helvetica,sans-Serif" font-size="10.00" fill="#000000">tvm/runtime/module.h</text>
</a>
</g>
</g>
<!-- Node25&#45;&gt;Node30 -->
<g id="edge58" class="edge">
<title>Node25&#45;&gt;Node30</title>
<path fill="none" stroke="#191970" d="M1437.5152,-425.2967C1426.3511,-415.0605 1413.151,-401.5366 1403.8811,-390.8746"/>
<polygon fill="#191970" stroke="#191970" points="1406.4781,-388.5231 1397.4034,-383.055 1401.0874,-392.9887 1406.4781,-388.5231"/>
</g>
<!-- Node37 -->
<g id="node38" class="node">
<title>Node37</title>
<g id="a_node38"><a xlink:href="ndarray_8h.html" target="_top" xlink:title="A device&#45;independent managed NDArray abstraction. ">
<polygon fill="#ffffff" stroke="#000000" points="558.5256,-364 558.5256,-383 683.5256,-383 683.5256,-364 558.5256,-364"/>
<text text-anchor="middle" x="621.0256" y="-371" font-family="Helvetica,sans-Serif" font-size="10.00" fill="#000000">tvm/runtime/ndarray.h</text>
</a>
</g>
</g>
<!-- Node25&#45;&gt;Node37 -->
<g id="edge86" class="edge">
<title>Node25&#45;&gt;Node37</title>
<path fill="none" stroke="#191970" d="M1399.8943,-437.5945C1277.0887,-431.1835 982.2853,-414.3533 736.0256,-389 722.3186,-387.5888 707.7267,-385.8252 693.7013,-383.9983"/>
<polygon fill="#191970" stroke="#191970" points="693.9827,-380.5051 683.6095,-382.661 693.063,-387.4444 693.9827,-380.5051"/>
</g>
<!-- Node41 -->
<g id="node42" class="node">
<title>Node41</title>
<polygon fill="#ffffff" stroke="#bfbfbf" points="390.5256,-297 390.5256,-316 455.5256,-316 455.5256,-297 390.5256,-297"/>
<text text-anchor="middle" x="423.0256" y="-304" font-family="Helvetica,sans-Serif" font-size="10.00" fill="#000000">functional</text>
</g>
<!-- Node25&#45;&gt;Node41 -->
<g id="edge106" class="edge">
<title>Node25&#45;&gt;Node41</title>
<path fill="none" stroke="#191970" d="M1399.7976,-438.9507C1211.9411,-433.7103 629.4405,-415.4841 549.0256,-389 506.337,-374.9408 464.1686,-342.5672 441.0677,-322.8119"/>
<polygon fill="#191970" stroke="#191970" points="443.2879,-320.1041 433.4538,-316.1619 438.6831,-325.3763 443.2879,-320.1041"/>
</g>
<!-- Node42 -->
<g id="node43" class="node">
<title>Node42</title>
<polygon fill="#ffffff" stroke="#bfbfbf" points="1550.0256,-364 1550.0256,-383 1594.0256,-383 1594.0256,-364 1550.0256,-364"/>
<text text-anchor="middle" x="1572.0256" y="-371" font-family="Helvetica,sans-Serif" font-size="10.00" fill="#000000">limits</text>
</g>
<!-- Node25&#45;&gt;Node42 -->
<g id="edge107" class="edge">
<title>Node25&#45;&gt;Node42</title>
<path fill="none" stroke="#191970" d="M1483.6094,-425.4639C1502.4786,-414.3741 1528.0277,-399.3584 1546.8094,-388.32"/>
<polygon fill="#191970" stroke="#191970" points="1548.8367,-391.1883 1555.6846,-383.1039 1545.2898,-385.1534 1548.8367,-391.1883"/>
</g>
<!-- Node43 -->
<g id="node44" class="node">
<title>Node43</title>
<polygon fill="#ffffff" stroke="#bfbfbf" points="1612.5256,-364 1612.5256,-383 1653.5256,-383 1653.5256,-364 1612.5256,-364"/>
<text text-anchor="middle" x="1633.0256" y="-371" font-family="Helvetica,sans-Serif" font-size="10.00" fill="#000000">tuple</text>
</g>
<!-- Node25&#45;&gt;Node43 -->
<g id="edge110" class="edge">
<title>Node25&#45;&gt;Node43</title>
<path fill="none" stroke="#191970" d="M1505.6702,-425.3927C1534.2688,-415.8786 1571.1626,-402.8139 1603.0256,-389 1604.0475,-388.5569 1605.083,-388.0943 1606.1244,-387.6173"/>
<polygon fill="#191970" stroke="#191970" points="1607.9868,-390.6037 1615.4506,-383.0843 1604.9267,-384.308 1607.9868,-390.6037"/>
</g>
<!-- Node26&#45;&gt;Node1 -->
<g id="edge42" class="edge">
<title>Node26&#45;&gt;Node1</title>
<path fill="none" stroke="#191970" d="M1943.3083,-359.2516C1983.3765,-349.7669 2036.1051,-336.43 2082.0256,-322 2144.0131,-302.5211 2214.6028,-274.7317 2254.6808,-258.4099"/>
<polygon fill="#191970" stroke="#191970" points="2256.0202,-261.6436 2263.9502,-254.6176 2253.3695,-255.1648 2256.0202,-261.6436"/>
</g>
<!-- Node26&#45;&gt;Node3 -->
<g id="edge45" class="edge">
<title>Node26&#45;&gt;Node3</title>
<path fill="none" stroke="#191970" d="M1816.8837,-368.9445C1773.5883,-365.832 1714.8317,-361.6298 1663.0256,-358 1430.1586,-341.6841 1370.9836,-348.2432 1139.0256,-322 1047.201,-311.6112 822.6289,-278.4876 715.6874,-254.8598"/>
<polygon fill="#191970" stroke="#191970" points="716.2396,-251.3964 705.7138,-252.604 714.6953,-258.2239 716.2396,-251.3964"/>
</g>
<!-- Node26&#45;&gt;Node11 -->
<g id="edge43" class="edge">
<title>Node26&#45;&gt;Node11</title>
<path fill="none" stroke="#191970" d="M1896.9502,-358.4039C1933.4489,-324.031 2012.7752,-238.3259 1968.0256,-179 1913.4685,-106.6721 1860.957,-140.2919 1772.0256,-123 1611.8469,-91.8547 1417.9873,-78.4166 1331.9258,-73.6758"/>
<polygon fill="#191970" stroke="#191970" points="1331.9036,-70.1696 1321.73,-73.1273 1331.5275,-77.1595 1331.9036,-70.1696"/>
</g>
<!-- Node26&#45;&gt;Node15 -->
<g id="edge46" class="edge">
<title>Node26&#45;&gt;Node15</title>
<path fill="none" stroke="#191970" d="M1846.612,-358.3816C1790.9836,-333.2117 1680.2069,-283.0891 1626.5542,-258.8131"/>
<polygon fill="#191970" stroke="#191970" points="1627.7807,-255.5265 1617.227,-254.5929 1624.895,-261.9041 1627.7807,-255.5265"/>
</g>
<!-- Node26&#45;&gt;Node19 -->
<g id="edge44" class="edge">
<title>Node26&#45;&gt;Node19</title>
<path fill="none" stroke="#191970" d="M1923.2569,-358.4284C1986.1244,-335.5344 2097.7347,-290.866 2120.0256,-255 2165.095,-182.4831 2040.9646,-113.6875 1979.8175,-85.2368"/>
<polygon fill="#191970" stroke="#191970" points="1981.1308,-81.989 1970.5801,-81.0227 1978.2254,-88.3576 1981.1308,-81.989"/>
</g>
<!-- Node26&#45;&gt;Node22 -->
<g id="edge41" class="edge">
<title>Node26&#45;&gt;Node22</title>
<path fill="none" stroke="#191970" d="M1888.7235,-358.4198C1900.8119,-336.502 1922.099,-294.1756 1930.0256,-255 1931.7884,-246.2877 1932.9229,-243.4034 1930.0256,-235 1926.3068,-224.2144 1918.9042,-214.0249 1911.7737,-205.9904"/>
<polygon fill="#191970" stroke="#191970" points="1914.3047,-203.5729 1904.8804,-198.7321 1909.2289,-208.3934 1914.3047,-203.5729"/>
</g>
<!-- Node27 -->
<g id="node28" class="node">
<title>Node27</title>
<g id="a_node28"><a xlink:href="optional_8h.html" target="_top" xlink:title="Runtime Optional container types. ">
<polygon fill="#ffffff" stroke="#000000" points="1778.5256,-297 1778.5256,-316 1849.5256,-316 1849.5256,-297 1778.5256,-297"/>
<text text-anchor="middle" x="1814.0256" y="-304" font-family="Helvetica,sans-Serif" font-size="10.00" fill="#000000">./optional.h</text>
</a>
</g>
</g>
<!-- Node26&#45;&gt;Node27 -->
<g id="edge47" class="edge">
<title>Node26&#45;&gt;Node27</title>
<path fill="none" stroke="#191970" d="M1865.0491,-358.2967C1854.766,-347.8578 1841.1148,-333.9997 1830.5203,-323.2446"/>
<polygon fill="#191970" stroke="#191970" points="1832.9491,-320.7228 1823.4379,-316.055 1827.9622,-325.6352 1832.9491,-320.7228"/>
</g>
<!-- Node27&#45;&gt;Node15 -->
<g id="edge49" class="edge">
<title>Node27&#45;&gt;Node15</title>
<path fill="none" stroke="#191970" d="M1779.9631,-296.8906C1740.1365,-285.6552 1674.4399,-267.1215 1633.2863,-255.5116"/>
<polygon fill="#191970" stroke="#191970" points="1634.2101,-252.1357 1623.6354,-252.789 1632.3094,-258.8727 1634.2101,-252.1357"/>
</g>
<!-- Node27&#45;&gt;Node19 -->
<g id="edge48" class="edge">
<title>Node27&#45;&gt;Node19</title>
<path fill="none" stroke="#191970" d="M1843.9914,-296.9636C1888.2568,-282.8089 1966.1415,-257.6167 1968.0256,-255 2004.1563,-204.8198 1974.4599,-126.0375 1957.6414,-90.2765"/>
<polygon fill="#191970" stroke="#191970" points="1960.6492,-88.4597 1953.113,-81.0128 1954.3604,-91.534 1960.6492,-88.4597"/>
</g>
<!-- Node28&#45;&gt;Node15 -->
<g id="edge54" class="edge">
<title>Node28&#45;&gt;Node15</title>
<path fill="none" stroke="#191970" d="M2002.0759,-358.434C1970.0729,-339.7807 1912.3224,-308.3559 1859.0256,-291 1781.2994,-265.6888 1685.8553,-253.4209 1633.9882,-248.2373"/>
<polygon fill="#191970" stroke="#191970" points="1634.1987,-244.7414 1623.9088,-247.2649 1633.5264,-251.7091 1634.1987,-244.7414"/>
</g>
<!-- Node28&#45;&gt;Node19 -->
<g id="edge53" class="edge">
<title>Node28&#45;&gt;Node19</title>
<path fill="none" stroke="#191970" d="M2048.6201,-358.4628C2075.2832,-338.4279 2119.279,-300.203 2137.0256,-255 2142.9188,-239.9891 2141.1351,-198.4901 2132.0256,-179 2104.0489,-119.1432 2025.5599,-90.4838 1980.6499,-78.6245"/>
<polygon fill="#191970" stroke="#191970" points="1981.3575,-75.1936 1970.8061,-76.1522 1979.6523,-81.9828 1981.3575,-75.1936"/>
</g>
<!-- Node28&#45;&gt;Node22 -->
<g id="edge51" class="edge">
<title>Node28&#45;&gt;Node22</title>
<path fill="none" stroke="#191970" d="M2031.1554,-358.2909C2034.9853,-341.0111 2038.6471,-312.4336 2028.0256,-291 2006.9348,-248.4402 1958.6457,-218.8192 1926.1737,-202.8553"/>
<polygon fill="#191970" stroke="#191970" points="1927.5958,-199.656 1917.0612,-198.5277 1924.5928,-205.9792 1927.5958,-199.656"/>
</g>
<!-- Node28&#45;&gt;Node27 -->
<g id="edge55" class="edge">
<title>Node28&#45;&gt;Node27</title>
<path fill="none" stroke="#191970" d="M1979.2242,-358.4639C1941.4416,-346.5792 1889.3251,-330.1858 1853.7985,-319.0108"/>
<polygon fill="#191970" stroke="#191970" points="1854.8333,-315.6672 1844.2439,-316.0053 1852.7328,-322.3447 1854.8333,-315.6672"/>
</g>
<!-- Node28&#45;&gt;Node29 -->
<g id="edge52" class="edge">
<title>Node28&#45;&gt;Node29</title>
<path fill="none" stroke="#191970" d="M2027.4608,-358.2312C2027.1277,-339.8109 2023.693,-309.0719 2006.0256,-291 1990.8534,-275.4805 1939.3414,-262.7041 1897.8621,-254.5881"/>
<polygon fill="#191970" stroke="#191970" points="1898.311,-251.1107 1887.8325,-252.6766 1897.0005,-257.9869 1898.311,-251.1107"/>
</g>
<!-- Node30&#45;&gt;Node1 -->
<g id="edge80" class="edge">
<title>Node30&#45;&gt;Node1</title>
<path fill="none" stroke="#191970" d="M1456.037,-366.8708C1482.3111,-364.1144 1513.144,-360.8898 1541.0256,-358 1697.0083,-341.8329 1736.9069,-345.0259 1892.0256,-322 2023.437,-302.4932 2177.555,-269.4833 2248.1481,-253.7915"/>
<polygon fill="#191970" stroke="#191970" points="2248.9469,-257.1995 2257.9447,-251.6057 2247.4225,-250.3674 2248.9469,-257.1995"/>
</g>
<!-- Node30&#45;&gt;Node2 -->
<g id="edge82" class="edge">
<title>Node30&#45;&gt;Node2</title>
<path fill="none" stroke="#191970" d="M1456.1082,-366.7864C1582.3596,-353.3156 1854.4868,-324.0932 1859.0256,-322 1877.299,-313.5726 1874.9569,-301.6583 1892.0256,-291 1930.3242,-267.085 1945.6393,-273.0524 1987.0256,-255 2118.3448,-197.7194 2270.0745,-118.0676 2330.3544,-85.8615"/>
<polygon fill="#191970" stroke="#191970" points="2332.0632,-88.9168 2339.2267,-81.1107 2328.7588,-82.7458 2332.0632,-88.9168"/>
</g>
<!-- Node30&#45;&gt;Node3 -->
<g id="edge84" class="edge">
<title>Node30&#45;&gt;Node3</title>
<path fill="none" stroke="#191970" d="M1329.8743,-370.6886C1218.0701,-365.0509 990.1054,-350.4004 916.0256,-322 894.027,-313.5663 894.4959,-300.6998 873.0256,-291 810.2111,-262.622 786.677,-272.4915 715.6269,-254.9454"/>
<polygon fill="#191970" stroke="#191970" points="716.3182,-251.5093 705.7617,-252.4103 714.5759,-258.2891 716.3182,-251.5093"/>
</g>
<!-- Node30&#45;&gt;Node6 -->
<g id="edge60" class="edge">
<title>Node30&#45;&gt;Node6</title>
<path fill="none" stroke="#191970" d="M1333.9461,-363.9923C1282.1014,-355.0645 1204.9097,-340.3492 1139.0256,-322 886.7457,-251.7381 594.6435,-135.7592 483.8233,-90.4586"/>
<polygon fill="#191970" stroke="#191970" points="484.8712,-87.1056 474.2908,-86.5533 482.2174,-93.5831 484.8712,-87.1056"/>
</g>
<!-- Node30&#45;&gt;Node17 -->
<g id="edge78" class="edge">
<title>Node30&#45;&gt;Node17</title>
<path fill="none" stroke="#191970" d="M1408.2951,-363.8667C1423.3372,-354.086 1446.665,-338.1247 1465.0256,-322 1508.074,-284.1937 1552.4053,-233.1488 1574.5656,-206.636"/>
<polygon fill="#191970" stroke="#191970" points="1577.5075,-208.5715 1581.197,-198.6398 1572.1193,-204.103 1577.5075,-208.5715"/>
</g>
<!-- Node30&#45;&gt;Node18 -->
<g id="edge79" class="edge">
<title>Node30&#45;&gt;Node18</title>
<path fill="none" stroke="#191970" d="M1379.0329,-363.8837C1364.3846,-353.7261 1340.8064,-337.1188 1321.0256,-322 1303.7085,-308.7643 1302.757,-300.2591 1283.0256,-291 1207.5899,-255.6012 1156.796,-315.0515 1099.0256,-255 1072.7583,-227.6957 1073.7053,-179.9382 1076.8089,-152.9863"/>
<polygon fill="#191970" stroke="#191970" points="1080.3105,-153.2117 1078.198,-142.8296 1073.3751,-152.2631 1080.3105,-153.2117"/>
</g>
<!-- Node30&#45;&gt;Node25 -->
<g id="edge85" class="edge">
<title>Node30&#45;&gt;Node25</title>
<path fill="none" stroke="#191970" d="M1407.1873,-383.055C1417.6114,-392.0055 1431.4473,-405.7336 1442.1813,-417.5252"/>
<polygon fill="#191970" stroke="#191970" points="1439.7968,-420.1129 1449.0369,-425.2967 1445.0462,-415.4821 1439.7968,-420.1129"/>
</g>
<!-- Node30&#45;&gt;Node29 -->
<g id="edge83" class="edge">
<title>Node30&#45;&gt;Node29</title>
<path fill="none" stroke="#191970" d="M1422.1182,-363.9788C1471.0261,-348.0925 1572.9244,-315.5077 1660.0256,-291 1704.102,-278.5982 1754.6305,-265.8807 1791.0792,-256.9698"/>
<polygon fill="#191970" stroke="#191970" points="1792.0816,-260.3281 1800.9692,-254.5609 1790.425,-253.527 1792.0816,-260.3281"/>
</g>
<!-- Node31 -->
<g id="node32" class="node">
<title>Node31</title>
<polygon fill="#ffffff" stroke="#bfbfbf" points="724.0256,-235.5 724.0256,-254.5 786.0256,-254.5 786.0256,-235.5 724.0256,-235.5"/>
<text text-anchor="middle" x="755.0256" y="-242.5" font-family="Helvetica,sans-Serif" font-size="10.00" fill="#000000">dmlc/io.h</text>
</g>
<!-- Node30&#45;&gt;Node31 -->
<g id="edge59" class="edge">
<title>Node30&#45;&gt;Node31</title>
<path fill="none" stroke="#191970" d="M1329.833,-365.091C1264.1381,-355.9741 1158.4625,-340.2558 1068.0256,-322 969.7619,-302.1643 855.7571,-272.3854 796.1561,-256.2915"/>
<polygon fill="#191970" stroke="#191970" points="796.9393,-252.8776 786.372,-253.6403 795.1085,-259.6339 796.9393,-252.8776"/>
</g>
<!-- Node32 -->
<g id="node33" class="node">
<title>Node32</title>
<g id="a_node33"><a xlink:href="string_8h.html" target="_top" xlink:title="Runtime String container types. ">
<polygon fill="#ffffff" stroke="#000000" points="1330.0256,-291.5 1330.0256,-321.5 1456.0256,-321.5 1456.0256,-291.5 1330.0256,-291.5"/>
<text text-anchor="start" x="1338.0256" y="-309.5" font-family="Helvetica,sans-Serif" font-size="10.00" fill="#000000">tvm/runtime/container</text>
<text text-anchor="middle" x="1393.0256" y="-298.5" font-family="Helvetica,sans-Serif" font-size="10.00" fill="#000000">/string.h</text>
</a>
</g>
</g>
<!-- Node30&#45;&gt;Node32 -->
<g id="edge61" class="edge">
<title>Node30&#45;&gt;Node32</title>
<path fill="none" stroke="#191970" d="M1393.0256,-363.9005C1393.0256,-355.5099 1393.0256,-342.9451 1393.0256,-331.7085"/>
<polygon fill="#191970" stroke="#191970" points="1396.5257,-331.5217 1393.0256,-321.5218 1389.5257,-331.5218 1396.5257,-331.5217"/>
</g>
<!-- Node36 -->
<g id="node37" class="node">
<title>Node36</title>
<polygon fill="#ffffff" stroke="#bfbfbf" points="816.0256,-297 816.0256,-316 864.0256,-316 864.0256,-297 816.0256,-297"/>
<text text-anchor="middle" x="840.0256" y="-304" font-family="Helvetica,sans-Serif" font-size="10.00" fill="#000000">mutex</text>
</g>
<!-- Node30&#45;&gt;Node36 -->
<g id="edge81" class="edge">
<title>Node30&#45;&gt;Node36</title>
<path fill="none" stroke="#191970" d="M1329.6386,-369.4455C1211.5103,-361.5119 962.0697,-342.8774 878.0256,-322 875.3936,-321.3462 872.7043,-320.5442 870.0328,-319.6524"/>
<polygon fill="#191970" stroke="#191970" points="871.1634,-316.3388 860.5705,-316.1347 868.7241,-322.9 871.1634,-316.3388"/>
</g>
<!-- Node32&#45;&gt;Node1 -->
<g id="edge71" class="edge">
<title>Node32&#45;&gt;Node1</title>
<path fill="none" stroke="#191970" d="M1456.2461,-302.1509C1629.3256,-290.2445 2107.3174,-257.3625 2247.7461,-247.7021"/>
<polygon fill="#191970" stroke="#191970" points="2248.2866,-251.1733 2258.0228,-246.9952 2247.8061,-244.1898 2248.2866,-251.1733"/>
</g>
<!-- Node32&#45;&gt;Node2 -->
<g id="edge72" class="edge">
<title>Node32&#45;&gt;Node2</title>
<path fill="none" stroke="#191970" d="M1456.1827,-298.8296C1521.8037,-290.3081 1627.256,-275.0627 1717.0256,-255 1748.1858,-248.036 1755.1664,-243.1958 1786.0256,-235 1851.8706,-217.5123 1869.2803,-216.859 1935.0256,-199 2081.8017,-159.1297 2254.9992,-104.3281 2325.1497,-81.8028"/>
<polygon fill="#191970" stroke="#191970" points="2326.2886,-85.1131 2334.7366,-78.7192 2324.1452,-78.4493 2326.2886,-85.1131"/>
</g>
<!-- Node32&#45;&gt;Node3 -->
<g id="edge77" class="edge">
<title>Node32&#45;&gt;Node3</title>
<path fill="none" stroke="#191970" d="M1330.0133,-296.7745C1314.6665,-294.64 1298.2787,-292.5557 1283.0256,-291 1034.6977,-265.6723 965.7556,-299.0754 715.775,-254.696"/>
<polygon fill="#191970" stroke="#191970" points="716.1201,-251.2019 705.6582,-252.8753 714.8802,-258.0913 716.1201,-251.2019"/>
</g>
<!-- Node32&#45;&gt;Node10 -->
<g id="edge64" class="edge">
<title>Node32&#45;&gt;Node10</title>
<path fill="none" stroke="#191970" d="M1329.908,-297.1317C1249.8748,-284.992 1119.7434,-264.2845 1099.0256,-255 1005.7897,-213.2175 917.3493,-125.5484 882.5631,-88.5509"/>
<polygon fill="#191970" stroke="#191970" points="884.9824,-86.0127 875.6123,-81.0678 879.8536,-90.7767 884.9824,-86.0127"/>
</g>
<!-- Node32&#45;&gt;Node11 -->
<g id="edge74" class="edge">
<title>Node32&#45;&gt;Node11</title>
<path fill="none" stroke="#191970" d="M1391.7736,-291.3811C1389.6698,-275.3752 1384.0442,-250.3483 1369.0256,-235 1335.9887,-201.238 1296.1873,-237.6465 1269.0256,-199 1246.0012,-166.2403 1264.0079,-116.9057 1276.9002,-90.2278"/>
<polygon fill="#191970" stroke="#191970" points="1280.0809,-91.6944 1281.4947,-81.1943 1273.8416,-88.521 1280.0809,-91.6944"/>
</g>
<!-- Node32&#45;&gt;Node15 -->
<g id="edge63" class="edge">
<title>Node32&#45;&gt;Node15</title>
<path fill="none" stroke="#191970" d="M1442.6849,-291.4554C1478.5331,-280.595 1526.1745,-266.1618 1558.7848,-256.2823"/>
<polygon fill="#191970" stroke="#191970" points="1559.8374,-259.6206 1568.393,-253.3714 1557.8077,-252.9213 1559.8374,-259.6206"/>
</g>
<!-- Node32&#45;&gt;Node16 -->
<g id="edge62" class="edge">
<title>Node32&#45;&gt;Node16</title>
<path fill="none" stroke="#191970" d="M1412.8109,-291.1477C1423.0402,-281.9184 1434.5121,-269.2204 1440.0256,-255 1446.0245,-239.5274 1440.348,-221.1989 1433.9883,-207.7876"/>
<polygon fill="#191970" stroke="#191970" points="1436.9218,-205.8456 1429.1739,-198.6192 1430.7243,-209.1 1436.9218,-205.8456"/>
</g>
<!-- Node32&#45;&gt;Node17 -->
<g id="edge65" class="edge">
<title>Node32&#45;&gt;Node17</title>
<path fill="none" stroke="#191970" d="M1418.2479,-291.3795C1455.9923,-268.7521 1526.7334,-226.3435 1564.2283,-203.8657"/>
<polygon fill="#191970" stroke="#191970" points="1566.227,-206.7483 1573.0042,-198.6046 1562.6277,-200.7445 1566.227,-206.7483"/>
</g>
<!-- Node32&#45;&gt;Node18 -->
<g id="edge66" class="edge">
<title>Node32&#45;&gt;Node18</title>
<path fill="none" stroke="#191970" d="M1364.7044,-291.2756C1345.7886,-281.0755 1320.3738,-267.3103 1298.0256,-255 1228.2434,-216.5615 1146.3632,-170.4715 1105.6754,-147.5014"/>
<polygon fill="#191970" stroke="#191970" points="1107.3708,-144.4393 1096.9423,-142.5691 1103.9283,-150.5344 1107.3708,-144.4393"/>
</g>
<!-- Node32&#45;&gt;Node19 -->
<g id="edge76" class="edge">
<title>Node32&#45;&gt;Node19</title>
<path fill="none" stroke="#191970" d="M1456.2387,-293.393C1524.4889,-279.1724 1624.649,-258.0734 1633.0256,-255 1657.7597,-245.9248 1819.4644,-156.6063 1842.0256,-143 1871.9642,-124.9445 1905.1867,-102.042 1926.3202,-87.0909"/>
<polygon fill="#191970" stroke="#191970" points="1928.4719,-89.8555 1934.5924,-81.2074 1924.4148,-84.1511 1928.4719,-89.8555"/>
</g>
<!-- Node32&#45;&gt;Node22 -->
<g id="edge67" class="edge">
<title>Node32&#45;&gt;Node22</title>
<path fill="none" stroke="#191970" d="M1456.2768,-296.3278C1511.8411,-286.9739 1594.7131,-272.007 1666.0256,-255 1732.9178,-239.0472 1809.4851,-215.847 1854.6888,-201.627"/>
<polygon fill="#191970" stroke="#191970" points="1855.9085,-204.9123 1864.3892,-198.5618 1853.7993,-198.2376 1855.9085,-204.9123"/>
</g>
<!-- Node32&#45;&gt;Node23 -->
<g id="edge70" class="edge">
<title>Node32&#45;&gt;Node23</title>
<path fill="none" stroke="#191970" d="M1400.0477,-291.4389C1406.0539,-276.1609 1412.2495,-252.3554 1402.0256,-235 1393.231,-220.071 1377.6539,-209.6447 1362.3514,-202.541"/>
<polygon fill="#191970" stroke="#191970" points="1363.4946,-199.224 1352.9221,-198.5368 1360.7585,-205.6672 1363.4946,-199.224"/>
</g>
<!-- Node32&#45;&gt;Node29 -->
<g id="edge75" class="edge">
<title>Node32&#45;&gt;Node29</title>
<path fill="none" stroke="#191970" d="M1456.1172,-298.6982C1532.7889,-289.0799 1666.0493,-271.9221 1780.0256,-255 1781.4852,-254.7833 1782.9639,-254.561 1784.4556,-254.3344"/>
<polygon fill="#191970" stroke="#191970" points="1785.0762,-257.7801 1794.4215,-252.7886 1784.0032,-250.8628 1785.0762,-257.7801"/>
</g>
<!-- Node33 -->
<g id="node34" class="node">
<title>Node33</title>
<polygon fill="#ffffff" stroke="#bfbfbf" points="1306.5256,-235.5 1306.5256,-254.5 1359.5256,-254.5 1359.5256,-235.5 1306.5256,-235.5"/>
<text text-anchor="middle" x="1333.0256" y="-242.5" font-family="Helvetica,sans-Serif" font-size="10.00" fill="#000000">cstddef</text>
</g>
<!-- Node32&#45;&gt;Node33 -->
<g id="edge68" class="edge">
<title>Node32&#45;&gt;Node33</title>
<path fill="none" stroke="#191970" d="M1378.1941,-291.2977C1369.6052,-282.4941 1358.7653,-271.3833 1349.8577,-262.2529"/>
<polygon fill="#191970" stroke="#191970" points="1352.1208,-259.5606 1342.6323,-254.8469 1347.1103,-264.4489 1352.1208,-259.5606"/>
</g>
<!-- Node34 -->
<g id="node35" class="node">
<title>Node34</title>
<polygon fill="#ffffff" stroke="#bfbfbf" points="1108.0256,-235.5 1108.0256,-254.5 1158.0256,-254.5 1158.0256,-235.5 1108.0256,-235.5"/>
<text text-anchor="middle" x="1133.0256" y="-242.5" font-family="Helvetica,sans-Serif" font-size="10.00" fill="#000000">cstring</text>
</g>
<!-- Node32&#45;&gt;Node34 -->
<g id="edge69" class="edge">
<title>Node32&#45;&gt;Node34</title>
<path fill="none" stroke="#191970" d="M1329.7678,-292.9654C1284.5576,-283.0624 1222.3602,-268.9698 1168.0256,-255 1167.9261,-254.9744 1167.8265,-254.9488 1167.7267,-254.9231"/>
<polygon fill="#191970" stroke="#191970" points="1168.7824,-251.5826 1158.2169,-252.371 1166.968,-258.3434 1168.7824,-251.5826"/>
</g>
<!-- Node35 -->
<g id="node36" class="node">
<title>Node35</title>
<polygon fill="#ffffff" stroke="#bfbfbf" points="1176.5256,-235.5 1176.5256,-254.5 1249.5256,-254.5 1249.5256,-235.5 1176.5256,-235.5"/>
<text text-anchor="middle" x="1213.0256" y="-242.5" font-family="Helvetica,sans-Serif" font-size="10.00" fill="#000000">string_view</text>
</g>
<!-- Node32&#45;&gt;Node35 -->
<g id="edge73" class="edge">
<title>Node32&#45;&gt;Node35</title>
<path fill="none" stroke="#191970" d="M1348.9926,-291.4554C1318.8274,-281.149 1279.2448,-267.6249 1250.5725,-257.8286"/>
<polygon fill="#191970" stroke="#191970" points="1251.5137,-254.4515 1240.9192,-254.5303 1249.2505,-261.0756 1251.5137,-254.4515"/>
</g>
<!-- Node37&#45;&gt;Node3 -->
<g id="edge104" class="edge">
<title>Node37&#45;&gt;Node3</title>
<path fill="none" stroke="#191970" d="M641.938,-363.9632C657.818,-355.4557 678.495,-341.3465 688.0256,-322 696.8841,-304.0177 693.3499,-280.7783 688.8762,-264.5545"/>
<polygon fill="#191970" stroke="#191970" points="692.0885,-263.0987 685.7697,-254.5943 685.406,-265.1829 692.0885,-263.0987"/>
</g>
<!-- Node37&#45;&gt;Node5 -->
<g id="edge94" class="edge">
<title>Node37&#45;&gt;Node5</title>
<path fill="none" stroke="#191970" d="M630.0179,-363.7645C638.3465,-354.03 650.1566,-338.2123 655.0256,-322 663.6249,-293.3665 651.4915,-284.7951 649.0256,-255 648.2924,-246.1414 644.6974,-242.764 649.0256,-235 675.0062,-188.3952 732.028,-160.4082 771.7174,-145.8452"/>
<polygon fill="#191970" stroke="#191970" points="772.8897,-149.1431 781.1542,-142.5138 770.5594,-142.5424 772.8897,-149.1431"/>
</g>
<!-- Node37&#45;&gt;Node6 -->
<g id="edge87" class="edge">
<title>Node37&#45;&gt;Node6</title>
<path fill="none" stroke="#191970" d="M558.2891,-368.3056C420.6562,-356.7843 103.7102,-329.5137 95.0256,-322 68.3688,-298.9373 76.0256,-280.2487 76.0256,-245 76.0256,-245 76.0256,-245 76.0256,-189 76.0256,-129.1505 257.2995,-95.1661 363.2934,-80.4104"/>
<polygon fill="#191970" stroke="#191970" points="363.8731,-83.8638 373.3072,-79.0422 362.9254,-76.9282 363.8731,-83.8638"/>
</g>
<!-- Node37&#45;&gt;Node18 -->
<g id="edge95" class="edge">
<title>Node37&#45;&gt;Node18</title>
<path fill="none" stroke="#191970" d="M636.9924,-363.7544C699.8566,-325.4014 927.6569,-186.5881 944.0256,-179 973.5017,-165.3357 1008.2197,-153.6606 1035.1997,-145.4915"/>
<polygon fill="#191970" stroke="#191970" points="1036.5477,-148.7422 1045.1342,-142.5355 1034.5513,-142.0329 1036.5477,-148.7422"/>
</g>
<!-- Node37&#45;&gt;Node19 -->
<g id="edge103" class="edge">
<title>Node37&#45;&gt;Node19</title>
<path fill="none" stroke="#191970" d="M683.7475,-371.9556C852.8755,-367.4273 1315.6256,-352.5368 1465.0256,-322 1505.2421,-313.7799 1513.1144,-304.0715 1552.0256,-291 1602.3925,-274.0801 1616.8872,-275.2122 1666.0256,-255 1762.0423,-215.5052 1787.6403,-204.8544 1871.0256,-143 1893.7333,-126.1556 1917.1681,-103.5006 1932.1268,-88.2443"/>
<polygon fill="#191970" stroke="#191970" points="1934.6882,-90.6305 1939.1278,-81.0107 1929.6582,-85.7622 1934.6882,-90.6305"/>
</g>
<!-- Node37&#45;&gt;Node20 -->
<g id="edge101" class="edge">
<title>Node37&#45;&gt;Node20</title>
<path fill="none" stroke="#191970" d="M571.2491,-363.9321C546.8519,-356.6105 519.2903,-343.8883 503.0256,-322 479.8659,-290.833 474.1411,-267.7352 495.0256,-235 558.552,-135.4259 623.3781,-158.5129 736.0256,-123 737.5503,-122.5193 913.8508,-91.329 990.7872,-77.7278"/>
<polygon fill="#191970" stroke="#191970" points="991.7172,-81.1178 1000.9553,-75.9304 990.4987,-74.2246 991.7172,-81.1178"/>
</g>
<!-- Node37&#45;&gt;Node27 -->
<g id="edge88" class="edge">
<title>Node37&#45;&gt;Node27</title>
<path fill="none" stroke="#191970" d="M683.9048,-369.9686C896.2805,-358.0414 1583.9688,-319.4202 1768.2417,-309.0713"/>
<polygon fill="#191970" stroke="#191970" points="1768.6091,-312.5562 1778.3971,-308.5009 1768.2165,-305.5673 1768.6091,-312.5562"/>
</g>
<!-- Node37&#45;&gt;Node32 -->
<g id="edge93" class="edge">
<title>Node37&#45;&gt;Node32</title>
<path fill="none" stroke="#191970" d="M683.6679,-369.9327C801.3215,-362.9428 1063.2877,-346.0051 1283.0256,-322 1294.9331,-320.6992 1307.5375,-319.1172 1319.7998,-317.467"/>
<polygon fill="#191970" stroke="#191970" points="1320.5647,-320.895 1329.9969,-316.0696 1319.6142,-313.9598 1320.5647,-320.895"/>
</g>
<!-- Node38 -->
<g id="node39" class="node">
<title>Node38</title>
<g id="a_node39"><a xlink:href="shape__tuple_8h.html" target="_top" xlink:title="Runtime ShapeTuple container types. ">
<polygon fill="#ffffff" stroke="#000000" points="1148.0256,-291.5 1148.0256,-321.5 1274.0256,-321.5 1274.0256,-291.5 1148.0256,-291.5"/>
<text text-anchor="start" x="1156.0256" y="-309.5" font-family="Helvetica,sans-Serif" font-size="10.00" fill="#000000">tvm/runtime/container</text>
<text text-anchor="middle" x="1211.0256" y="-298.5" font-family="Helvetica,sans-Serif" font-size="10.00" fill="#000000">/shape_tuple.h</text>
</a>
</g>
</g>
<!-- Node37&#45;&gt;Node38 -->
<g id="edge89" class="edge">
<title>Node37&#45;&gt;Node38</title>
<path fill="none" stroke="#191970" d="M683.6073,-366.3933C793.5444,-353.9089 1020.7609,-328.1063 1137.8038,-314.815"/>
<polygon fill="#191970" stroke="#191970" points="1138.2101,-318.2915 1147.7513,-313.6854 1137.4202,-311.3362 1138.2101,-318.2915"/>
</g>
<!-- Node39 -->
<g id="node40" class="node">
<title>Node39</title>
<g id="a_node40"><a xlink:href="serializer_8h.html" target="_top" xlink:title="Serializer extension to support TVM data types Include this file to enable serialization of DLDataTyp...">
<polygon fill="#ffffff" stroke="#000000" points="512.0256,-297 512.0256,-316 646.0256,-316 646.0256,-297 512.0256,-297"/>
<text text-anchor="middle" x="579.0256" y="-304" font-family="Helvetica,sans-Serif" font-size="10.00" fill="#000000">tvm/runtime/serializer.h</text>
</a>
</g>
</g>
<!-- Node37&#45;&gt;Node39 -->
<g id="edge96" class="edge">
<title>Node37&#45;&gt;Node39</title>
<path fill="none" stroke="#191970" d="M610.1074,-363.9005C601.8607,-353.8505 591.397,-337.8122 584.6429,-325.2403"/>
<polygon fill="#191970" stroke="#191970" points="587.6913,-323.508 580.1348,-316.0817 581.4109,-326.5994 587.6913,-323.508"/>
</g>
<!-- Node37&#45;&gt;Node41 -->
<g id="edge102" class="edge">
<title>Node37&#45;&gt;Node41</title>
<path fill="none" stroke="#191970" d="M592.657,-363.9005C558.1048,-352.2086 499.6019,-332.4122 461.1408,-319.3976"/>
<polygon fill="#191970" stroke="#191970" points="461.9358,-315.9717 451.3415,-316.0817 459.692,-322.6024 461.9358,-315.9717"/>
</g>
<!-- Node38&#45;&gt;Node3 -->
<g id="edge91" class="edge">
<title>Node38&#45;&gt;Node3</title>
<path fill="none" stroke="#191970" d="M1147.8077,-303.7996C1054.9239,-298.9826 876.1601,-286.4811 715.7322,-254.7752"/>
<polygon fill="#191970" stroke="#191970" points="716.1737,-251.2941 705.6806,-252.7584 714.7966,-258.1573 716.1737,-251.2941"/>
</g>
<!-- Node38&#45;&gt;Node15 -->
<g id="edge92" class="edge">
<title>Node38&#45;&gt;Node15</title>
<path fill="none" stroke="#191970" d="M1274.1694,-296.4134C1354.9645,-283.5072 1492.3442,-261.5621 1558.3843,-251.0128"/>
<polygon fill="#191970" stroke="#191970" points="1559.0285,-254.4544 1568.3512,-249.4207 1557.9243,-247.542 1559.0285,-254.4544"/>
</g>
<!-- Node38&#45;&gt;Node19 -->
<g id="edge90" class="edge">
<title>Node38&#45;&gt;Node19</title>
<path fill="none" stroke="#191970" d="M1150.0649,-291.4993C1114.6165,-279.6909 1080.2981,-260.8865 1099.0256,-235 1197.3148,-99.1376 1770.7433,-75.886 1915.0665,-72.1687"/>
<polygon fill="#191970" stroke="#191970" points="1915.5445,-75.6582 1925.4565,-71.9163 1915.3744,-68.6603 1915.5445,-75.6582"/>
</g>
<!-- Node39&#45;&gt;Node6 -->
<g id="edge99" class="edge">
<title>Node39&#45;&gt;Node6</title>
<path fill="none" stroke="#191970" d="M553.9317,-296.8928C535.1787,-288.5012 510.2525,-274.5796 495.0256,-255 457.8402,-207.1851 444.7291,-134.8834 440.2485,-96.8857"/>
<polygon fill="#191970" stroke="#191970" points="443.7021,-96.2639 439.1591,-86.6925 436.7417,-97.0078 443.7021,-96.2639"/>
</g>
<!-- Node39&#45;&gt;Node31 -->
<g id="edge97" class="edge">
<title>Node39&#45;&gt;Node31</title>
<path fill="none" stroke="#191970" d="M606.5256,-296.8906C636.4902,-286.42 684.5939,-269.6111 717.8954,-257.9745"/>
<polygon fill="#191970" stroke="#191970" points="719.433,-261.1448 727.7187,-254.5419 717.1238,-254.5366 719.433,-261.1448"/>
</g>
<!-- Node39&#45;&gt;Node37 -->
<g id="edge100" class="edge">
<title>Node39&#45;&gt;Node37</title>
<path fill="none" stroke="#191970" d="M589.9291,-316.0817C598.1732,-326.1246 608.6378,-342.1614 615.3962,-354.7374"/>
<polygon fill="#191970" stroke="#191970" points="612.3507,-356.4756 619.9086,-363.9005 618.6306,-353.383 612.3507,-356.4756"/>
</g>
<!-- Node40 -->
<g id="node41" class="node">
<title>Node40</title>
<polygon fill="#ffffff" stroke="#bfbfbf" points="504.5256,-235.5 504.5256,-254.5 601.5256,-254.5 601.5256,-235.5 504.5256,-235.5"/>
<text text-anchor="middle" x="553.0256" y="-242.5" font-family="Helvetica,sans-Serif" font-size="10.00" fill="#000000">dmlc/serializer.h</text>
</g>
<!-- Node39&#45;&gt;Node40 -->
<g id="edge98" class="edge">
<title>Node39&#45;&gt;Node40</title>
<path fill="none" stroke="#191970" d="M574.9631,-296.8906C571.2832,-288.1862 565.7514,-275.1015 561.1635,-264.2494"/>
<polygon fill="#191970" stroke="#191970" points="564.2631,-262.5927 557.1453,-254.7449 557.8156,-265.3185 564.2631,-262.5927"/>
</g>
<!-- Node44&#45;&gt;Node1 -->
<g id="edge126" class="edge">
<title>Node44&#45;&gt;Node1</title>
<path fill="none" stroke="#191970" d="M558.9594,-439.2664C842.6102,-433.4314 2023.1318,-408.0896 2099.0256,-389 2163.9851,-372.6607 2183.4173,-365.8807 2234.0256,-322 2253.0901,-305.4697 2268.5476,-280.6148 2277.7469,-263.6452"/>
<polygon fill="#191970" stroke="#191970" points="2280.8978,-265.1724 2282.4201,-254.6875 2274.6916,-261.9346 2280.8978,-265.1724"/>
</g>
<!-- Node44&#45;&gt;Node3 -->
<g id="edge129" class="edge">
<title>Node44&#45;&gt;Node3</title>
<path fill="none" stroke="#191970" d="M480.3943,-430.9914C438.0188,-406.9726 337.1139,-342.1322 381.0256,-291 383.2022,-288.4654 569.7898,-261.2275 648.0638,-249.8988"/>
<polygon fill="#191970" stroke="#191970" points="648.9631,-253.3053 658.3593,-248.4101 647.9613,-246.3773 648.9631,-253.3053"/>
</g>
<!-- Node44&#45;&gt;Node6 -->
<g id="edge123" class="edge">
<title>Node44&#45;&gt;Node6</title>
<path fill="none" stroke="#191970" d="M437.4589,-436.9573C304.741,-427.5365 .0256,-396.1454 .0256,-306.5 .0256,-306.5 .0256,-306.5 .0256,-189 .0256,-157.7875 -.3833,-142.4532 24.0256,-123 49.9782,-102.3164 250.9689,-84.8522 363.0651,-76.5991"/>
<polygon fill="#191970" stroke="#191970" points="363.5766,-80.0712 373.2956,-75.8533 363.0676,-73.0898 363.5766,-80.0712"/>
</g>
<!-- Node44&#45;&gt;Node29 -->
<g id="edge128" class="edge">
<title>Node44&#45;&gt;Node29</title>
<path fill="none" stroke="#191970" d="M558.6249,-439.2569C757.1166,-434.9112 1379.9007,-419.0085 1465.0256,-389 1487.2451,-381.1671 1486.9701,-368.5701 1508.0256,-358 1555.5108,-334.1618 1572.052,-340.0487 1622.0256,-322 1656.3361,-309.6083 1663.7483,-303.4834 1698.0256,-291 1731.7828,-278.706 1770.6178,-266.323 1799.2906,-257.5068"/>
<polygon fill="#191970" stroke="#191970" points="1800.4442,-260.8141 1808.9838,-254.5431 1798.3974,-254.12 1800.4442,-260.8141"/>
</g>
<!-- Node44&#45;&gt;Node36 -->
<g id="edge127" class="edge">
<title>Node44&#45;&gt;Node36</title>
<path fill="none" stroke="#191970" d="M547.3496,-430.9657C587.2266,-422.4193 644.3694,-408.2562 692.0256,-389 738.5402,-370.2051 788.7627,-339.8384 817.1097,-321.6589"/>
<polygon fill="#191970" stroke="#191970" points="819.0228,-324.5898 825.5121,-316.2148 815.2165,-318.7151 819.0228,-324.5898"/>
</g>
<!-- Node44&#45;&gt;Node37 -->
<g id="edge124" class="edge">
<title>Node44&#45;&gt;Node37</title>
<path fill="none" stroke="#191970" d="M515.6485,-430.9005C536.2906,-419.6564 570.6935,-400.9166 594.5496,-387.9219"/>
<polygon fill="#191970" stroke="#191970" points="596.3279,-390.9388 603.4353,-383.0817 592.9794,-384.7916 596.3279,-390.9388"/>
</g>
<!-- Node44&#45;&gt;Node41 -->
<g id="edge125" class="edge">
<title>Node44&#45;&gt;Node41</title>
<path fill="none" stroke="#191970" d="M492.6317,-430.8631C480.2532,-408.7466 449.6296,-354.0326 433.441,-325.109"/>
<polygon fill="#191970" stroke="#191970" points="436.3088,-323.0664 428.3705,-316.0496 430.2004,-326.4852 436.3088,-323.0664"/>
</g>
</g>
</svg>
