<?xml version="1.0" encoding="UTF-8" standalone="no"?>
<!DOCTYPE svg PUBLIC "-//W3C//DTD SVG 1.1//EN"
 "http://www.w3.org/Graphics/SVG/1.1/DTD/svg11.dtd">
<!-- Generated by graphviz version 2.40.1 (20161225.0304)
 -->
<!-- Title: include/tvm/runtime/memory.h Pages: 1 -->
<svg width="3351pt" height="787pt"
 viewBox="0.00 0.00 3351.02 787.00" xmlns="http://www.w3.org/2000/svg" xmlns:xlink="http://www.w3.org/1999/xlink">
<g id="graph0" class="graph" transform="scale(1 1) rotate(0) translate(4 783)">
<title>include/tvm/runtime/memory.h</title>
<polygon fill="#ffffff" stroke="transparent" points="-4,4 -4,-783 3347.0243,-783 3347.0243,4 -4,4"/>
<!-- Node12 -->
<g id="node1" class="node">
<title>Node12</title>
<polygon fill="#bfbfbf" stroke="#000000" points="1738.0243,-748.5 1738.0243,-778.5 1854.0243,-778.5 1854.0243,-748.5 1738.0243,-748.5"/>
<text text-anchor="start" x="1746.0243" y="-766.5" font-family="Helvetica,sans-Serif" font-size="10.00" fill="#000000">include/tvm/runtime</text>
<text text-anchor="middle" x="1796.0243" y="-755.5" font-family="Helvetica,sans-Serif" font-size="10.00" fill="#000000">/memory.h</text>
</g>
<!-- Node13 -->
<g id="node2" class="node">
<title>Node13</title>
<g id="a_node2"><a xlink:href="node_8h.html" target="_top" xlink:title="Definitions and helper macros for IR/AST nodes. ">
<polygon fill="#ffffff" stroke="#000000" points="916.5243,-620 916.5243,-639 1053.5243,-639 1053.5243,-620 916.5243,-620"/>
<text text-anchor="middle" x="985.0243" y="-627" font-family="Helvetica,sans-Serif" font-size="10.00" fill="#000000">include/tvm/node/node.h</text>
</a>
</g>
</g>
<!-- Node12&#45;&gt;Node13 -->
<g id="edge1" class="edge">
<title>Node12&#45;&gt;Node13</title>
<path fill="none" stroke="#191970" d="M1727.712,-752.2129C1571.0466,-726.3274 1188.1956,-663.0696 1042.5499,-639.0048"/>
<polygon fill="#191970" stroke="#191970" points="1727.2624,-755.686 1737.6992,-753.8631 1728.4036,-748.7796 1727.2624,-755.686"/>
</g>
<!-- Node232 -->
<g id="node42" class="node">
<title>Node232</title>
<g id="a_node42"><a xlink:href="reflection_8h.html" target="_top" xlink:title="Reflection and serialization of compiler IR/AST nodes. ">
<polygon fill="#ffffff" stroke="#000000" points="2482.5243,-687 2482.5243,-706 2641.5243,-706 2641.5243,-687 2482.5243,-687"/>
<text text-anchor="middle" x="2562.0243" y="-694" font-family="Helvetica,sans-Serif" font-size="10.00" fill="#000000">include/tvm/node/reflection.h</text>
</a>
</g>
</g>
<!-- Node12&#45;&gt;Node232 -->
<g id="edge92" class="edge">
<title>Node12&#45;&gt;Node232</title>
<path fill="none" stroke="#191970" d="M1864.524,-757.5085C2006.3325,-745.1049 2331.3957,-716.6725 2482.3209,-703.4715"/>
<polygon fill="#191970" stroke="#191970" points="1863.8845,-754.051 1854.2276,-758.4091 1864.4945,-761.0244 1863.8845,-754.051"/>
</g>
<!-- Node237 -->
<g id="node48" class="node">
<title>Node237</title>
<g id="a_node48"><a xlink:href="runtime_2container_2base_8h.html" target="_top" xlink:title="Base utilities for common POD(plain old data) container types. ">
<polygon fill="#ffffff" stroke="#ff0000" points="1738.0243,-681.5 1738.0243,-711.5 1854.0243,-711.5 1854.0243,-681.5 1738.0243,-681.5"/>
<text text-anchor="start" x="1746.0243" y="-699.5" font-family="Helvetica,sans-Serif" font-size="10.00" fill="#000000">include/tvm/runtime</text>
<text text-anchor="middle" x="1796.0243" y="-688.5" font-family="Helvetica,sans-Serif" font-size="10.00" fill="#000000">/container/base.h</text>
</a>
</g>
</g>
<!-- Node12&#45;&gt;Node237 -->
<g id="edge118" class="edge">
<title>Node12&#45;&gt;Node237</title>
<path fill="none" stroke="#191970" d="M1796.0243,-738.0249C1796.0243,-729.128 1796.0243,-719.4287 1796.0243,-711.6432"/>
<polygon fill="#191970" stroke="#191970" points="1792.5244,-738.2966 1796.0243,-748.2967 1799.5244,-738.2967 1792.5244,-738.2966"/>
</g>
<!-- Node263 -->
<g id="node49" class="node">
<title>Node263</title>
<g id="a_node49"><a xlink:href="string_8h.html" target="_top" xlink:title="Runtime String container types. ">
<polygon fill="#ffffff" stroke="#ff0000" points="1987.0243,-475 1987.0243,-505 2103.0243,-505 2103.0243,-475 1987.0243,-475"/>
<text text-anchor="start" x="1995.0243" y="-493" font-family="Helvetica,sans-Serif" font-size="10.00" fill="#000000">include/tvm/runtime</text>
<text text-anchor="middle" x="2045.0243" y="-482" font-family="Helvetica,sans-Serif" font-size="10.00" fill="#000000">/container/string.h</text>
</a>
</g>
</g>
<!-- Node12&#45;&gt;Node263 -->
<g id="edge135" class="edge">
<title>Node12&#45;&gt;Node263</title>
<path fill="none" stroke="#191970" d="M1826.5002,-742.3782C1838.3949,-733.5565 1851.8336,-722.845 1863.0243,-712 1935.8558,-641.4185 2007.9026,-542.7686 2034.3899,-505.2752"/>
<polygon fill="#191970" stroke="#191970" points="1824.1926,-739.7288 1818.1661,-748.4427 1828.3113,-745.3889 1824.1926,-739.7288"/>
</g>
<!-- Node246 -->
<g id="node50" class="node">
<title>Node246</title>
<g id="a_node50"><a xlink:href="runtime_2module_8h.html" target="_top" xlink:title="Runtime container of the functions generated by TVM, This is used to support dynamically link...">
<polygon fill="#ffffff" stroke="#ff0000" points="759.0243,-402.5 759.0243,-432.5 875.0243,-432.5 875.0243,-402.5 759.0243,-402.5"/>
<text text-anchor="start" x="767.0243" y="-420.5" font-family="Helvetica,sans-Serif" font-size="10.00" fill="#000000">include/tvm/runtime</text>
<text text-anchor="middle" x="817.0243" y="-409.5" font-family="Helvetica,sans-Serif" font-size="10.00" fill="#000000">/module.h</text>
</a>
</g>
</g>
<!-- Node12&#45;&gt;Node246 -->
<g id="edge136" class="edge">
<title>Node12&#45;&gt;Node246</title>
<path fill="none" stroke="#191970" d="M1727.6552,-760.496C1442.5591,-747.2807 358.6164,-689.9335 260.0243,-578 190.7632,-499.3664 602.7782,-442.4561 758.8887,-423.9616"/>
<polygon fill="#191970" stroke="#191970" points="1727.705,-764.0019 1737.8554,-760.9657 1728.027,-757.0093 1727.705,-764.0019"/>
</g>
<!-- Node14 -->
<g id="node3" class="node">
<title>Node14</title>
<g id="a_node3"><a xlink:href="auto__scheduler_2cost__model_8h.html" target="_top" xlink:title="Cost models that estimate the performance of programs. ">
<polygon fill="#ffffff" stroke="#000000" points="269.0243,-547.5 269.0243,-577.5 421.0243,-577.5 421.0243,-547.5 269.0243,-547.5"/>
<text text-anchor="start" x="277.0243" y="-565.5" font-family="Helvetica,sans-Serif" font-size="10.00" fill="#000000">include/tvm/auto_scheduler</text>
<text text-anchor="middle" x="345.0243" y="-554.5" font-family="Helvetica,sans-Serif" font-size="10.00" fill="#000000">/cost_model.h</text>
</a>
</g>
</g>
<!-- Node13&#45;&gt;Node14 -->
<g id="edge2" class="edge">
<title>Node13&#45;&gt;Node14</title>
<path fill="none" stroke="#191970" d="M906.3075,-624.3826C798.5111,-616.8767 599.0528,-601.2081 430.0243,-578 427.2008,-577.6123 424.3281,-577.1968 421.4292,-576.7597"/>
<polygon fill="#191970" stroke="#191970" points="906.2317,-627.8856 916.4492,-625.0835 906.7143,-620.9023 906.2317,-627.8856"/>
</g>
<!-- Node15 -->
<g id="node4" class="node">
<title>Node15</title>
<g id="a_node4"><a xlink:href="search__policy_8h.html" target="_top" xlink:title="The base class of search policies, including the abstract definition of search policy and other suppo...">
<polygon fill="#ffffff" stroke="#ff0000" points="439.0243,-547.5 439.0243,-577.5 591.0243,-577.5 591.0243,-547.5 439.0243,-547.5"/>
<text text-anchor="start" x="447.0243" y="-565.5" font-family="Helvetica,sans-Serif" font-size="10.00" fill="#000000">include/tvm/auto_scheduler</text>
<text text-anchor="middle" x="515.0243" y="-554.5" font-family="Helvetica,sans-Serif" font-size="10.00" fill="#000000">/search_policy.h</text>
</a>
</g>
</g>
<!-- Node13&#45;&gt;Node15 -->
<g id="edge3" class="edge">
<title>Node13&#45;&gt;Node15</title>
<path fill="none" stroke="#191970" d="M906.1573,-620.0602C828.2255,-610.471 705.6859,-594.6912 600.0243,-578 597.2092,-577.5553 594.3437,-577.0912 591.4509,-576.6131"/>
<polygon fill="#191970" stroke="#191970" points="906.0271,-623.5703 916.3789,-621.3138 906.8794,-616.6224 906.0271,-623.5703"/>
</g>
<!-- Node17 -->
<g id="node5" class="node">
<title>Node17</title>
<g id="a_node5"><a xlink:href="transform__step_8h.html" target="_top" xlink:title="Transformation steps. These steps are used to manipulate LoopState. They are similar to the schedule ...">
<polygon fill="#ffffff" stroke="#ff0000" points="609.0243,-547.5 609.0243,-577.5 761.0243,-577.5 761.0243,-547.5 609.0243,-547.5"/>
<text text-anchor="start" x="617.0243" y="-565.5" font-family="Helvetica,sans-Serif" font-size="10.00" fill="#000000">include/tvm/auto_scheduler</text>
<text text-anchor="middle" x="685.0243" y="-554.5" font-family="Helvetica,sans-Serif" font-size="10.00" fill="#000000">/transform_step.h</text>
</a>
</g>
</g>
<!-- Node13&#45;&gt;Node17 -->
<g id="edge4" class="edge">
<title>Node13&#45;&gt;Node17</title>
<path fill="none" stroke="#191970" d="M932.3959,-617.7463C882.357,-606.571 806.8597,-589.7099 752.4364,-577.5553"/>
<polygon fill="#191970" stroke="#191970" points="931.8378,-621.2078 942.3603,-619.9717 933.3636,-614.3761 931.8378,-621.2078"/>
</g>
<!-- Node24 -->
<g id="node6" class="node">
<title>Node24</title>
<g id="a_node6"><a xlink:href="ir_2adt_8h.html" target="_top" xlink:title="Algebraic data type definitions. ">
<polygon fill="#ffffff" stroke="#ff0000" points="1433.0243,-341 1433.0243,-360 1545.0243,-360 1545.0243,-341 1433.0243,-341"/>
<text text-anchor="middle" x="1489.0243" y="-348" font-family="Helvetica,sans-Serif" font-size="10.00" fill="#000000">include/tvm/ir/adt.h</text>
</a>
</g>
</g>
<!-- Node13&#45;&gt;Node24 -->
<g id="edge5" class="edge">
<title>Node13&#45;&gt;Node24</title>
<path fill="none" stroke="#191970" d="M1063.6978,-625.4621C1130.6557,-620.0523 1228.5002,-607.4254 1309.0243,-578 1363.1476,-558.2221 1382.1637,-554.4404 1420.0243,-511 1461.4747,-463.4408 1481.119,-387.2102 1487.0284,-360.2958"/>
<polygon fill="#191970" stroke="#191970" points="1063.3374,-621.9794 1053.6368,-626.2395 1063.8767,-628.9586 1063.3374,-621.9794"/>
</g>
<!-- Node182 -->
<g id="node7" class="node">
<title>Node182</title>
<g id="a_node7"><a xlink:href="ir_2expr_8h.html" target="_top" xlink:title="Base expr nodes in TVM. ">
<polygon fill="#ffffff" stroke="#ff0000" points="1293.5243,-408 1293.5243,-427 1410.5243,-427 1410.5243,-408 1293.5243,-408"/>
<text text-anchor="middle" x="1352.0243" y="-415" font-family="Helvetica,sans-Serif" font-size="10.00" fill="#000000">include/tvm/ir/expr.h</text>
</a>
</g>
</g>
<!-- Node13&#45;&gt;Node182 -->
<g id="edge6" class="edge">
<title>Node13&#45;&gt;Node182</title>
<path fill="none" stroke="#191970" d="M1063.9343,-619.6563C1123.43,-610.9352 1198.9197,-596.6883 1224.0243,-578 1268.3821,-544.9793 1247.8571,-510.8319 1284.0243,-469 1299.0371,-451.6358 1320.7987,-436.4191 1335.633,-427.1149"/>
<polygon fill="#191970" stroke="#191970" points="1063.183,-616.2282 1053.782,-621.1142 1064.178,-623.1571 1063.183,-616.2282"/>
</g>
<!-- Node83 -->
<g id="node18" class="node">
<title>Node83</title>
<g id="a_node18"><a xlink:href="relax_2expr_8h.html" target="_top" xlink:title="include/tvm/relax/expr.h">
<polygon fill="#ffffff" stroke="#ff0000" points="615.5243,-207 615.5243,-226 750.5243,-226 750.5243,-207 615.5243,-207"/>
<text text-anchor="middle" x="683.0243" y="-214" font-family="Helvetica,sans-Serif" font-size="10.00" fill="#000000">include/tvm/relax/expr.h</text>
</a>
</g>
</g>
<!-- Node13&#45;&gt;Node83 -->
<g id="edge74" class="edge">
<title>Node13&#45;&gt;Node83</title>
<path fill="none" stroke="#191970" d="M914.6645,-617.7982C879.5519,-609.9653 837.3596,-597.4299 803.0243,-578 785.511,-568.0894 785.0426,-560.3937 770.0243,-547 703.5363,-487.7042 617.0243,-506.5878 617.0243,-417.5 617.0243,-417.5 617.0243,-417.5 617.0243,-350.5 617.0243,-299.1534 656.5059,-247.074 674.396,-226.1112"/>
<polygon fill="#191970" stroke="#191970" points="914.3295,-621.306 924.8413,-619.9825 915.7985,-614.4618 914.3295,-621.306"/>
</g>
<!-- Node104 -->
<g id="node19" class="node">
<title>Node104</title>
<g id="a_node19"><a xlink:href="ir__functor_8h.html" target="_top" xlink:title="A generic functor for working with Relax IR nodes. ">
<polygon fill="#ffffff" stroke="#000000" points="272.0243,-134.5 272.0243,-164.5 384.0243,-164.5 384.0243,-134.5 272.0243,-134.5"/>
<text text-anchor="start" x="280.0243" y="-152.5" font-family="Helvetica,sans-Serif" font-size="10.00" fill="#000000">include/tvm/relax/ir</text>
<text text-anchor="middle" x="328.0243" y="-141.5" font-family="Helvetica,sans-Serif" font-size="10.00" fill="#000000">_functor.h</text>
</a>
</g>
</g>
<!-- Node13&#45;&gt;Node104 -->
<g id="edge75" class="edge">
<title>Node13&#45;&gt;Node104</title>
<path fill="none" stroke="#191970" d="M906.1517,-627.3265C705.7298,-621.4509 187.5199,-603.9279 114.0243,-578 65.6428,-560.9319 47.969,-554.0255 20.0243,-511 -3.073,-475.4376 1.0243,-459.9049 1.0243,-417.5 1.0243,-417.5 1.0243,-417.5 1.0243,-283.5 1.0243,-225.6752 178.3169,-180.3545 271.811,-160.475"/>
<polygon fill="#191970" stroke="#191970" points="906.216,-630.8297 916.3137,-627.6224 906.4198,-623.8327 906.216,-630.8297"/>
</g>
<!-- Node95 -->
<g id="node20" class="node">
<title>Node95</title>
<g id="a_node20"><a xlink:href="struct__info_8h.html" target="_top" xlink:title="include/tvm/relax/struct\l_info.h">
<polygon fill="#ffffff" stroke="#ff0000" points="950.5243,-134.5 950.5243,-164.5 1083.5243,-164.5 1083.5243,-134.5 950.5243,-134.5"/>
<text text-anchor="start" x="958.5243" y="-152.5" font-family="Helvetica,sans-Serif" font-size="10.00" fill="#000000">include/tvm/relax/struct</text>
<text text-anchor="middle" x="1017.0243" y="-141.5" font-family="Helvetica,sans-Serif" font-size="10.00" fill="#000000">_info.h</text>
</a>
</g>
</g>
<!-- Node13&#45;&gt;Node95 -->
<g id="edge76" class="edge">
<title>Node13&#45;&gt;Node95</title>
<path fill="none" stroke="#191970" d="M973.4519,-610.8822C968.239,-601.4149 962.6686,-589.5022 960.0243,-578 956.9375,-564.5725 959.3606,-560.7618 960.0243,-547 964.2515,-459.3612 979.0243,-438.2406 979.0243,-350.5 979.0243,-350.5 979.0243,-350.5 979.0243,-283.5 979.0243,-239.0065 998.6552,-189.2478 1009.6976,-164.778"/>
<polygon fill="#191970" stroke="#191970" points="970.5573,-612.8665 978.6172,-619.7432 976.6049,-609.3412 970.5573,-612.8665"/>
</g>
<!-- Node190 -->
<g id="node21" class="node">
<title>Node190</title>
<g id="a_node21"><a xlink:href="script_2ir__builder_2base_8h.html" target="_top" xlink:title="include/tvm/script\l/ir_builder/base.h">
<polygon fill="#ffffff" stroke="#ff0000" points="1159.0243,-335.5 1159.0243,-365.5 1263.0243,-365.5 1263.0243,-335.5 1159.0243,-335.5"/>
<text text-anchor="start" x="1167.0243" y="-353.5" font-family="Helvetica,sans-Serif" font-size="10.00" fill="#000000">include/tvm/script</text>
<text text-anchor="middle" x="1211.0243" y="-342.5" font-family="Helvetica,sans-Serif" font-size="10.00" fill="#000000">/ir_builder/base.h</text>
</a>
</g>
</g>
<!-- Node13&#45;&gt;Node190 -->
<g id="edge78" class="edge">
<title>Node13&#45;&gt;Node190</title>
<path fill="none" stroke="#191970" d="M1053.8204,-618.0508C1099.2827,-609.0725 1153.2874,-595.2271 1169.0243,-578 1225.098,-516.6167 1217.9506,-405.7568 1213.1602,-365.5671"/>
<polygon fill="#191970" stroke="#191970" points="1053.1271,-614.6199 1043.9694,-619.9479 1054.4509,-621.4936 1053.1271,-614.6199"/>
</g>
<!-- Node191 -->
<g id="node22" class="node">
<title>Node191</title>
<g id="a_node22"><a xlink:href="ir_2frame_8h.html" target="_top" xlink:title="include/tvm/script\l/ir_builder/ir/frame.h">
<polygon fill="#ffffff" stroke="#ff0000" points="1153.0243,-268.5 1153.0243,-298.5 1269.0243,-298.5 1269.0243,-268.5 1153.0243,-268.5"/>
<text text-anchor="start" x="1161.0243" y="-286.5" font-family="Helvetica,sans-Serif" font-size="10.00" fill="#000000">include/tvm/script</text>
<text text-anchor="middle" x="1211.0243" y="-275.5" font-family="Helvetica,sans-Serif" font-size="10.00" fill="#000000">/ir_builder/ir/frame.h</text>
</a>
</g>
</g>
<!-- Node13&#45;&gt;Node191 -->
<g id="edge79" class="edge">
<title>Node13&#45;&gt;Node191</title>
<path fill="none" stroke="#191970" d="M1037.6672,-617.3595C1074.5378,-607.7181 1119.2409,-593.3451 1131.0243,-578 1197.002,-492.08 1100.5932,-431.3943 1150.0243,-335 1157.74,-319.954 1171.9555,-307.5524 1184.7233,-298.692"/>
<polygon fill="#191970" stroke="#191970" points="1036.3342,-614.0874 1027.5094,-619.9503 1038.0642,-620.8702 1036.3342,-614.0874"/>
</g>
<!-- Node192 -->
<g id="node23" class="node">
<title>Node192</title>
<g id="a_node23"><a xlink:href="ir_2ir_8h.html" target="_top" xlink:title="include/tvm/script\l/ir_builder/ir/ir.h">
<polygon fill="#ffffff" stroke="#ff0000" points="1159.0243,-201.5 1159.0243,-231.5 1263.0243,-231.5 1263.0243,-201.5 1159.0243,-201.5"/>
<text text-anchor="start" x="1167.0243" y="-219.5" font-family="Helvetica,sans-Serif" font-size="10.00" fill="#000000">include/tvm/script</text>
<text text-anchor="middle" x="1211.0243" y="-208.5" font-family="Helvetica,sans-Serif" font-size="10.00" fill="#000000">/ir_builder/ir/ir.h</text>
</a>
</g>
</g>
<!-- Node13&#45;&gt;Node192 -->
<g id="edge80" class="edge">
<title>Node13&#45;&gt;Node192</title>
<path fill="none" stroke="#191970" d="M1043.3661,-616.6077C1063.9241,-608.958 1084.9126,-596.9 1097.0243,-578 1104.4581,-566.3998 1097.2371,-560.7761 1097.0243,-547 1096.1354,-489.4239 1093.0243,-475.083 1093.0243,-417.5 1093.0243,-417.5 1093.0243,-417.5 1093.0243,-350.5 1093.0243,-295.9431 1148.7978,-253.066 1183.6562,-231.5956"/>
<polygon fill="#191970" stroke="#191970" points="1042,-613.3757 1033.6681,-619.9202 1044.2626,-620 1042,-613.3757"/>
</g>
<!-- Node215 -->
<g id="node24" class="node">
<title>Node215</title>
<g id="a_node24"><a xlink:href="doc_8h.html" target="_top" xlink:title="include/tvm/script\l/printer/doc.h">
<polygon fill="#ffffff" stroke="#000000" points="151.0243,-335.5 151.0243,-365.5 255.0243,-365.5 255.0243,-335.5 151.0243,-335.5"/>
<text text-anchor="start" x="159.0243" y="-353.5" font-family="Helvetica,sans-Serif" font-size="10.00" fill="#000000">include/tvm/script</text>
<text text-anchor="middle" x="203.0243" y="-342.5" font-family="Helvetica,sans-Serif" font-size="10.00" fill="#000000">/printer/doc.h</text>
</a>
</g>
</g>
<!-- Node13&#45;&gt;Node215 -->
<g id="edge81" class="edge">
<title>Node13&#45;&gt;Node215</title>
<path fill="none" stroke="#191970" d="M906.2117,-626.8526C717.0638,-620.1373 251.2171,-601.3076 227.0243,-578 167.6759,-520.8232 188.7692,-406.871 198.8917,-365.746"/>
<polygon fill="#191970" stroke="#191970" points="906.2493,-630.356 916.3665,-627.2109 906.4962,-623.3603 906.2493,-630.356"/>
</g>
<!-- Node173 -->
<g id="node25" class="node">
<title>Node173</title>
<g id="a_node25"><a xlink:href="ir__docsifier_8h.html" target="_top" xlink:title="include/tvm/script\l/printer/ir_docsifier.h">
<polygon fill="#ffffff" stroke="#000000" points="102.0243,-268.5 102.0243,-298.5 218.0243,-298.5 218.0243,-268.5 102.0243,-268.5"/>
<text text-anchor="start" x="110.0243" y="-286.5" font-family="Helvetica,sans-Serif" font-size="10.00" fill="#000000">include/tvm/script</text>
<text text-anchor="middle" x="160.0243" y="-275.5" font-family="Helvetica,sans-Serif" font-size="10.00" fill="#000000">/printer/ir_docsifier.h</text>
</a>
</g>
</g>
<!-- Node13&#45;&gt;Node173 -->
<g id="edge82" class="edge">
<title>Node13&#45;&gt;Node173</title>
<path fill="none" stroke="#191970" d="M906.2496,-626.7548C712.9917,-619.6946 229.1071,-599.9158 202.0243,-578 125.9026,-516.4012 155.4855,-462.9935 142.0243,-366 140.1304,-352.353 139.7189,-348.5835 142.0243,-335 144.148,-322.4873 148.9803,-308.9635 153.1036,-298.9154"/>
<polygon fill="#191970" stroke="#191970" points="906.2193,-630.2559 916.3399,-627.1215 906.4736,-623.2606 906.2193,-630.2559"/>
</g>
<!-- Node174 -->
<g id="node26" class="node">
<title>Node174</title>
<g id="a_node26"><a xlink:href="printer_8h.html" target="_top" xlink:title="include/tvm/script\l/printer/printer.h">
<polygon fill="#ffffff" stroke="#000000" points="169.0243,-201.5 169.0243,-231.5 273.0243,-231.5 273.0243,-201.5 169.0243,-201.5"/>
<text text-anchor="start" x="177.0243" y="-219.5" font-family="Helvetica,sans-Serif" font-size="10.00" fill="#000000">include/tvm/script</text>
<text text-anchor="middle" x="221.0243" y="-208.5" font-family="Helvetica,sans-Serif" font-size="10.00" fill="#000000">/printer/printer.h</text>
</a>
</g>
</g>
<!-- Node13&#45;&gt;Node174 -->
<g id="edge85" class="edge">
<title>Node13&#45;&gt;Node174</title>
<path fill="none" stroke="#191970" d="M906.2437,-626.7593C722.9598,-620.001 281.7999,-601.3772 260.0243,-578 186.4021,-498.9625 282.7292,-441.3828 264.0243,-335 257.2404,-296.4168 238.9204,-253.8543 228.5135,-231.7409"/>
<polygon fill="#191970" stroke="#191970" points="906.2364,-630.2612 916.3578,-627.1298 906.4927,-623.2659 906.2364,-630.2612"/>
</g>
<!-- Node37 -->
<g id="node27" class="node">
<title>Node37</title>
<g id="a_node27"><a xlink:href="target_8h.html" target="_top" xlink:title="Compilation target object. ">
<polygon fill="#ffffff" stroke="#ff0000" points="1639.5243,-335.5 1639.5243,-365.5 1746.5243,-365.5 1746.5243,-335.5 1639.5243,-335.5"/>
<text text-anchor="start" x="1647.5243" y="-353.5" font-family="Helvetica,sans-Serif" font-size="10.00" fill="#000000">include/tvm/target</text>
<text text-anchor="middle" x="1693.0243" y="-342.5" font-family="Helvetica,sans-Serif" font-size="10.00" fill="#000000">/target.h</text>
</a>
</g>
</g>
<!-- Node13&#45;&gt;Node37 -->
<g id="edge87" class="edge">
<title>Node13&#45;&gt;Node37</title>
<path fill="none" stroke="#191970" d="M1063.8101,-627.7746C1206.9521,-623.8392 1503.889,-611.7672 1601.0243,-578 1651.9053,-560.3122 1676.5521,-558.4647 1702.0243,-511 1727.6264,-463.2934 1709.2568,-395.7202 1698.8574,-365.7877"/>
<polygon fill="#191970" stroke="#191970" points="1063.6769,-624.2768 1053.7745,-628.044 1063.8649,-631.2743 1063.6769,-624.2768"/>
</g>
<!-- Node76 -->
<g id="node31" class="node">
<title>Node76</title>
<g id="a_node31"><a xlink:href="tag_8h.html" target="_top" xlink:title="Target tag registry. ">
<polygon fill="#ffffff" stroke="#000000" points="1558.5243,-268.5 1558.5243,-298.5 1665.5243,-298.5 1665.5243,-268.5 1558.5243,-268.5"/>
<text text-anchor="start" x="1566.5243" y="-286.5" font-family="Helvetica,sans-Serif" font-size="10.00" fill="#000000">include/tvm/target</text>
<text text-anchor="middle" x="1612.0243" y="-275.5" font-family="Helvetica,sans-Serif" font-size="10.00" fill="#000000">/tag.h</text>
</a>
</g>
</g>
<!-- Node13&#45;&gt;Node76 -->
<g id="edge86" class="edge">
<title>Node13&#45;&gt;Node76</title>
<path fill="none" stroke="#191970" d="M1063.8322,-623.2534C1157.0985,-615.0564 1306.2724,-599.1864 1358.0243,-578 1492.9913,-522.7468 1581.0277,-351.0747 1605.244,-298.7761"/>
<polygon fill="#191970" stroke="#191970" points="1063.2469,-619.791 1053.5871,-624.1428 1063.8524,-626.7647 1063.2469,-619.791"/>
</g>
<!-- Node218 -->
<g id="node32" class="node">
<title>Node218</title>
<g id="a_node32"><a xlink:href="tir_2expr_8h.html" target="_top" xlink:title="TIR expressions. ">
<polygon fill="#ffffff" stroke="#ff0000" points="715.5243,-274 715.5243,-293 836.5243,-293 836.5243,-274 715.5243,-274"/>
<text text-anchor="middle" x="776.0243" y="-281" font-family="Helvetica,sans-Serif" font-size="10.00" fill="#000000">include/tvm/tir/expr.h</text>
</a>
</g>
</g>
<!-- Node13&#45;&gt;Node218 -->
<g id="edge90" class="edge">
<title>Node13&#45;&gt;Node218</title>
<path fill="none" stroke="#191970" d="M936.4193,-617.1298C907.5087,-608.5757 870.7877,-595.5592 841.0243,-578 831.3285,-572.2799 771.3746,-520.2953 765.0243,-511 718.942,-443.5463 676.7413,-408.6796 712.0243,-335 721.1407,-315.9628 741.1069,-301.7246 756.3309,-293.0993"/>
<polygon fill="#191970" stroke="#191970" points="935.7175,-620.5698 946.2954,-619.9696 937.652,-613.8424 935.7175,-620.5698"/>
</g>
<!-- Node219 -->
<g id="node33" class="node">
<title>Node219</title>
<g id="a_node33"><a xlink:href="relay_2base_8h.html" target="_top" xlink:title="Base classes for the Relay IR. ">
<polygon fill="#ffffff" stroke="#ff0000" points="796.5243,-207 796.5243,-226 933.5243,-226 933.5243,-207 796.5243,-207"/>
<text text-anchor="middle" x="865.0243" y="-214" font-family="Helvetica,sans-Serif" font-size="10.00" fill="#000000">include/tvm/relay/base.h</text>
</a>
</g>
</g>
<!-- Node13&#45;&gt;Node219 -->
<g id="edge77" class="edge">
<title>Node13&#45;&gt;Node219</title>
<path fill="none" stroke="#191970" d="M960.8759,-613.9908C948.8004,-604.9555 935.0784,-592.4913 927.0243,-578 891.7598,-514.5497 870.131,-277.3738 865.8216,-226.2506"/>
<polygon fill="#191970" stroke="#191970" points="959.0909,-617.0156 969.2731,-619.9437 963.1393,-611.305 959.0909,-617.0156"/>
</g>
<!-- Node225 -->
<g id="node34" class="node">
<title>Node225</title>
<g id="a_node34"><a xlink:href="var_8h.html" target="_top" xlink:title="Variables in the TIR. ">
<polygon fill="#ffffff" stroke="#ff0000" points="721.5243,-341 721.5243,-360 836.5243,-360 836.5243,-341 721.5243,-341"/>
<text text-anchor="middle" x="779.0243" y="-348" font-family="Helvetica,sans-Serif" font-size="10.00" fill="#000000">include/tvm/tir/var.h</text>
</a>
</g>
</g>
<!-- Node13&#45;&gt;Node225 -->
<g id="edge91" class="edge">
<title>Node13&#45;&gt;Node225</title>
<path fill="none" stroke="#191970" d="M953.3986,-615.588C898.4512,-589.3296 787.6285,-526.5676 750.0243,-433 739.6073,-407.08 759.1462,-375.8004 770.9608,-360.2559"/>
<polygon fill="#191970" stroke="#191970" points="952.1227,-618.8552 962.6638,-619.9218 955.0886,-612.5145 952.1227,-618.8552"/>
</g>
<!-- Node227 -->
<g id="node35" class="node">
<title>Node227</title>
<g id="a_node35"><a xlink:href="ir_2span_8h.html" target="_top" xlink:title="Span information for debugging purposes. ">
<polygon fill="#ffffff" stroke="#ff0000" points="969.5243,-553 969.5243,-572 1088.5243,-572 1088.5243,-553 969.5243,-553"/>
<text text-anchor="middle" x="1029.0243" y="-560" font-family="Helvetica,sans-Serif" font-size="10.00" fill="#000000">include/tvm/ir/span.h</text>
</a>
</g>
</g>
<!-- Node13&#45;&gt;Node227 -->
<g id="edge55" class="edge">
<title>Node13&#45;&gt;Node227</title>
<path fill="none" stroke="#191970" d="M996.8582,-611.4803C1005.1863,-598.7989 1016.0059,-582.3235 1022.7319,-572.0817"/>
<polygon fill="#191970" stroke="#191970" points="993.8923,-609.6206 991.3285,-619.9005 999.7434,-613.4631 993.8923,-609.6206"/>
</g>
<!-- Node228 -->
<g id="node36" class="node">
<title>Node228</title>
<g id="a_node36"><a xlink:href="ir_2type_8h.html" target="_top" xlink:title="IR/AST nodes for the unified type system in TVM. ">
<polygon fill="#ffffff" stroke="#ff0000" points="1293.0243,-480.5 1293.0243,-499.5 1411.0243,-499.5 1411.0243,-480.5 1293.0243,-480.5"/>
<text text-anchor="middle" x="1352.0243" y="-487.5" font-family="Helvetica,sans-Serif" font-size="10.00" fill="#000000">include/tvm/ir/type.h</text>
</a>
</g>
</g>
<!-- Node13&#45;&gt;Node228 -->
<g id="edge63" class="edge">
<title>Node13&#45;&gt;Node228</title>
<path fill="none" stroke="#191970" d="M1063.9928,-621.755C1138.0109,-613.4067 1242.4443,-598.5042 1278.0243,-578 1311.577,-558.6642 1336.7731,-518.0976 1347.0095,-499.5823"/>
<polygon fill="#191970" stroke="#191970" points="1063.3142,-618.3087 1053.7608,-622.8894 1064.0856,-625.2661 1063.3142,-618.3087"/>
</g>
<!-- Node167 -->
<g id="node37" class="node">
<title>Node167</title>
<g id="a_node37"><a xlink:href="arg__info_8h.html" target="_top" xlink:title="include/tvm/meta_schedule\l/arg_info.h">
<polygon fill="#ffffff" stroke="#000000" points="2799.0243,-402.5 2799.0243,-432.5 2951.0243,-432.5 2951.0243,-402.5 2799.0243,-402.5"/>
<text text-anchor="start" x="2807.0243" y="-420.5" font-family="Helvetica,sans-Serif" font-size="10.00" fill="#000000">include/tvm/meta_schedule</text>
<text text-anchor="middle" x="2875.0243" y="-409.5" font-family="Helvetica,sans-Serif" font-size="10.00" fill="#000000">/arg_info.h</text>
</a>
</g>
</g>
<!-- Node13&#45;&gt;Node167 -->
<g id="edge64" class="edge">
<title>Node13&#45;&gt;Node167</title>
<path fill="none" stroke="#191970" d="M1064.0577,-625.9299C1200.9683,-619.3305 1491.0163,-603.5217 1735.0243,-578 2137.3139,-535.9231 2615.9858,-460.0703 2798.8712,-430.1383"/>
<polygon fill="#191970" stroke="#191970" points="1063.4938,-622.4527 1053.6725,-626.4269 1063.8285,-629.4447 1063.4938,-622.4527"/>
</g>
<!-- Node231 -->
<g id="node40" class="node">
<title>Node231</title>
<g id="a_node40"><a xlink:href="ir__docsifier__functor_8h.html" target="_top" xlink:title="include/tvm/script\l/printer/ir_docsifier\l_functor.h">
<polygon fill="#ffffff" stroke="#000000" points="29.0243,-469.5 29.0243,-510.5 137.0243,-510.5 137.0243,-469.5 29.0243,-469.5"/>
<text text-anchor="start" x="37.0243" y="-498.5" font-family="Helvetica,sans-Serif" font-size="10.00" fill="#000000">include/tvm/script</text>
<text text-anchor="start" x="37.0243" y="-487.5" font-family="Helvetica,sans-Serif" font-size="10.00" fill="#000000">/printer/ir_docsifier</text>
<text text-anchor="middle" x="83.0243" y="-476.5" font-family="Helvetica,sans-Serif" font-size="10.00" fill="#000000">_functor.h</text>
</a>
</g>
</g>
<!-- Node13&#45;&gt;Node231 -->
<g id="edge83" class="edge">
<title>Node13&#45;&gt;Node231</title>
<path fill="none" stroke="#191970" d="M906.2638,-628.3191C711.2049,-624.8752 216.6649,-612.7837 151.0243,-578 123.2161,-563.2641 103.252,-531.6173 92.4168,-510.5687"/>
<polygon fill="#191970" stroke="#191970" points="906.3831,-631.8216 916.4423,-628.4957 906.5046,-624.8227 906.3831,-631.8216"/>
</g>
<!-- Node36 -->
<g id="node41" class="node">
<title>Node36</title>
<g id="a_node41"><a xlink:href="target__kind_8h.html" target="_top" xlink:title="Target kind registry. ">
<polygon fill="#ffffff" stroke="#000000" points="1585.5243,-475 1585.5243,-505 1692.5243,-505 1692.5243,-475 1585.5243,-475"/>
<text text-anchor="start" x="1593.5243" y="-493" font-family="Helvetica,sans-Serif" font-size="10.00" fill="#000000">include/tvm/target</text>
<text text-anchor="middle" x="1639.0243" y="-482" font-family="Helvetica,sans-Serif" font-size="10.00" fill="#000000">/target_kind.h</text>
</a>
</g>
</g>
<!-- Node13&#45;&gt;Node36 -->
<g id="edge88" class="edge">
<title>Node13&#45;&gt;Node36</title>
<path fill="none" stroke="#191970" d="M1063.7469,-626.0863C1213.3101,-619.0912 1527.5532,-601.7644 1571.0243,-578 1601.0105,-561.6074 1622.0383,-525.815 1632.1609,-505.2854"/>
<polygon fill="#191970" stroke="#191970" points="1063.5306,-622.5925 1053.7035,-626.552 1063.8549,-629.5849 1063.5306,-622.5925"/>
</g>
<!-- Node182&#45;&gt;Node24 -->
<g id="edge7" class="edge">
<title>Node182&#45;&gt;Node24</title>
<path fill="none" stroke="#191970" d="M1380.853,-403.4013C1407.4603,-390.389 1446.2532,-371.4173 1469.432,-360.0817"/>
<polygon fill="#191970" stroke="#191970" points="1379.0987,-400.3631 1371.6531,-407.9005 1382.1741,-406.6513 1379.0987,-400.3631"/>
</g>
<!-- Node48 -->
<g id="node8" class="node">
<title>Node48</title>
<g id="a_node8"><a xlink:href="database_8h.html" target="_top" xlink:title="include/tvm/meta_schedule\l/database.h">
<polygon fill="#ffffff" stroke="#ff0000" points="2443.0243,-268.5 2443.0243,-298.5 2595.0243,-298.5 2595.0243,-268.5 2443.0243,-268.5"/>
<text text-anchor="start" x="2451.0243" y="-286.5" font-family="Helvetica,sans-Serif" font-size="10.00" fill="#000000">include/tvm/meta_schedule</text>
<text text-anchor="middle" x="2519.0243" y="-275.5" font-family="Helvetica,sans-Serif" font-size="10.00" fill="#000000">/database.h</text>
</a>
</g>
</g>
<!-- Node182&#45;&gt;Node48 -->
<g id="edge8" class="edge">
<title>Node182&#45;&gt;Node48</title>
<path fill="none" stroke="#191970" d="M1420.7614,-412.0739C1592.3476,-398.0731 2053.0954,-357.6732 2434.0243,-299 2436.8412,-298.5661 2439.7081,-298.1113 2442.6022,-297.641"/>
<polygon fill="#191970" stroke="#191970" points="1420.2945,-408.6002 1410.6109,-412.8988 1420.8615,-415.5772 1420.2945,-408.6002"/>
</g>
<!-- Node47 -->
<g id="node12" class="node">
<title>Node47</title>
<g id="a_node12"><a xlink:href="tune__context_8h.html" target="_top" xlink:title="include/tvm/meta_schedule\l/tune_context.h">
<polygon fill="#ffffff" stroke="#000000" points="2474.0243,-134.5 2474.0243,-164.5 2626.0243,-164.5 2626.0243,-134.5 2474.0243,-134.5"/>
<text text-anchor="start" x="2482.0243" y="-152.5" font-family="Helvetica,sans-Serif" font-size="10.00" fill="#000000">include/tvm/meta_schedule</text>
<text text-anchor="middle" x="2550.0243" y="-141.5" font-family="Helvetica,sans-Serif" font-size="10.00" fill="#000000">/tune_context.h</text>
</a>
</g>
</g>
<!-- Node182&#45;&gt;Node47 -->
<g id="edge26" class="edge">
<title>Node182&#45;&gt;Node47</title>
<path fill="none" stroke="#191970" d="M1364.7321,-399.4065C1378.0064,-381.4427 1400.1878,-353.9229 1424.0243,-335 1473.6992,-295.5649 1490.7612,-290.5962 1550.0243,-268 1667.164,-223.3363 1700.1678,-220.3934 1824.0243,-201 2059.0306,-164.2027 2340.9911,-153.6751 2473.7723,-150.6801"/>
<polygon fill="#191970" stroke="#191970" points="1361.6626,-397.6784 1358.6408,-407.8332 1367.3357,-401.7792 1361.6626,-397.6784"/>
</g>
<!-- Node171 -->
<g id="node13" class="node">
<title>Node171</title>
<g id="a_node13"><a xlink:href="runner_8h.html" target="_top" xlink:title="include/tvm/meta_schedule\l/runner.h">
<polygon fill="#ffffff" stroke="#000000" points="2689.0243,-335.5 2689.0243,-365.5 2841.0243,-365.5 2841.0243,-335.5 2689.0243,-335.5"/>
<text text-anchor="start" x="2697.0243" y="-353.5" font-family="Helvetica,sans-Serif" font-size="10.00" fill="#000000">include/tvm/meta_schedule</text>
<text text-anchor="middle" x="2765.0243" y="-342.5" font-family="Helvetica,sans-Serif" font-size="10.00" fill="#000000">/runner.h</text>
</a>
</g>
</g>
<!-- Node182&#45;&gt;Node171 -->
<g id="edge15" class="edge">
<title>Node182&#45;&gt;Node171</title>
<path fill="none" stroke="#191970" d="M1421.1723,-414.2212C1658.7688,-402.9551 2440.7212,-365.8774 2688.7962,-354.1145"/>
<polygon fill="#191970" stroke="#191970" points="1420.7632,-410.7366 1410.9402,-414.7064 1421.0948,-417.7287 1420.7632,-410.7366"/>
</g>
<!-- Node181 -->
<g id="node15" class="node">
<title>Node181</title>
<g id="a_node15"><a xlink:href="schedule__rule_8h.html" target="_top" xlink:title="include/tvm/meta_schedule\l/schedule_rule.h">
<polygon fill="#ffffff" stroke="#000000" points="2215.0243,-335.5 2215.0243,-365.5 2367.0243,-365.5 2367.0243,-335.5 2215.0243,-335.5"/>
<text text-anchor="start" x="2223.0243" y="-353.5" font-family="Helvetica,sans-Serif" font-size="10.00" fill="#000000">include/tvm/meta_schedule</text>
<text text-anchor="middle" x="2291.0243" y="-342.5" font-family="Helvetica,sans-Serif" font-size="10.00" fill="#000000">/schedule_rule.h</text>
</a>
</g>
</g>
<!-- Node182&#45;&gt;Node181 -->
<g id="edge23" class="edge">
<title>Node182&#45;&gt;Node181</title>
<path fill="none" stroke="#191970" d="M1420.8405,-412.8138C1550.9639,-403.9225 1842.0133,-383.8916 2087.0243,-366 2129.3565,-362.9088 2176.6191,-359.326 2214.985,-356.3843"/>
<polygon fill="#191970" stroke="#191970" points="1420.3652,-409.338 1410.627,-413.5113 1420.8422,-416.3217 1420.3652,-409.338"/>
</g>
<!-- Node212 -->
<g id="node17" class="node">
<title>Node212</title>
<g id="a_node17"><a xlink:href="exec__builder_8h.html" target="_top" xlink:title="include/tvm/relax/exec\l_builder.h">
<polygon fill="#ffffff" stroke="#000000" points="1765.0243,-335.5 1765.0243,-365.5 1893.0243,-365.5 1893.0243,-335.5 1765.0243,-335.5"/>
<text text-anchor="start" x="1773.0243" y="-353.5" font-family="Helvetica,sans-Serif" font-size="10.00" fill="#000000">include/tvm/relax/exec</text>
<text text-anchor="middle" x="1829.0243" y="-342.5" font-family="Helvetica,sans-Serif" font-size="10.00" fill="#000000">_builder.h</text>
</a>
</g>
</g>
<!-- Node182&#45;&gt;Node212 -->
<g id="edge27" class="edge">
<title>Node182&#45;&gt;Node212</title>
<path fill="none" stroke="#191970" d="M1420.8138,-410.4783C1501.4185,-401.8469 1638.8668,-385.8705 1756.0243,-366 1758.9623,-365.5017 1761.9616,-364.9678 1764.9875,-364.4088"/>
<polygon fill="#191970" stroke="#191970" points="1420.3628,-407.0064 1410.7894,-411.5452 1421.1037,-413.9671 1420.3628,-407.0064"/>
</g>
<!-- Node182&#45;&gt;Node83 -->
<g id="edge28" class="edge">
<title>Node182&#45;&gt;Node83</title>
<path fill="none" stroke="#191970" d="M1348.6722,-397.7718C1341.887,-364.6111 1323.1448,-298.3533 1278.0243,-268 1232.6367,-237.4669 841.3923,-238.036 787.0243,-232 772.3281,-230.3684 756.5201,-228.2175 741.7751,-226.0394"/>
<polygon fill="#191970" stroke="#191970" points="1345.2424,-398.4714 1350.5357,-407.6492 1352.121,-397.1736 1345.2424,-398.4714"/>
</g>
<!-- Node182&#45;&gt;Node190 -->
<g id="edge31" class="edge">
<title>Node182&#45;&gt;Node190</title>
<path fill="none" stroke="#191970" d="M1322.7319,-403.5809C1299.3393,-392.4653 1266.6197,-376.9177 1242.6373,-365.5218"/>
<polygon fill="#191970" stroke="#191970" points="1321.2881,-406.7699 1331.8225,-407.9005 1324.2925,-400.4473 1321.2881,-406.7699"/>
</g>
<!-- Node182&#45;&gt;Node191 -->
<g id="edge34" class="edge">
<title>Node182&#45;&gt;Node191</title>
<path fill="none" stroke="#191970" d="M1335.9979,-399.9832C1320.1808,-382.9359 1295.0866,-356.5265 1272.0243,-335 1258.3462,-322.2328 1242.1307,-308.6093 1229.8577,-298.5831"/>
<polygon fill="#191970" stroke="#191970" points="1333.6143,-402.5612 1342.9679,-407.5374 1338.759,-397.8144 1333.6143,-402.5612"/>
</g>
<!-- Node182&#45;&gt;Node192 -->
<g id="edge35" class="edge">
<title>Node182&#45;&gt;Node192</title>
<path fill="none" stroke="#191970" d="M1356.9347,-398.0329C1363.4871,-367.2216 1371.2455,-306.7493 1343.0243,-268 1324.4876,-242.5479 1291.4876,-229.6729 1263.1218,-223.1609"/>
<polygon fill="#191970" stroke="#191970" points="1353.4851,-397.416 1354.6441,-407.9472 1360.3054,-398.9918 1353.4851,-397.416"/>
</g>
<!-- Node182&#45;&gt;Node215 -->
<g id="edge36" class="edge">
<title>Node182&#45;&gt;Node215</title>
<path fill="none" stroke="#191970" d="M1283.1724,-413.4851C1072.7396,-401.2145 441.1349,-364.3846 255.1162,-353.5376"/>
<polygon fill="#191970" stroke="#191970" points="1283.2788,-416.9972 1293.4656,-414.0853 1283.6864,-410.0091 1283.2788,-416.9972"/>
</g>
<!-- Node182&#45;&gt;Node37 -->
<g id="edge39" class="edge">
<title>Node182&#45;&gt;Node37</title>
<path fill="none" stroke="#191970" d="M1410.4923,-406.0122C1474.7446,-393.3878 1577.0816,-373.2805 1639.3573,-361.0445"/>
<polygon fill="#191970" stroke="#191970" points="1409.6568,-402.6093 1400.5192,-407.9717 1411.0064,-409.478 1409.6568,-402.6093"/>
</g>
<!-- Node182&#45;&gt;Node218 -->
<g id="edge50" class="edge">
<title>Node182&#45;&gt;Node218</title>
<path fill="none" stroke="#191970" d="M1301.3104,-405.702C1188.803,-379.5284 920.1417,-317.0273 817.1636,-293.0706"/>
<polygon fill="#191970" stroke="#191970" points="1300.5286,-409.1135 1311.0616,-407.9705 1302.1148,-402.2955 1300.5286,-409.1135"/>
</g>
<!-- Node182&#45;&gt;Node225 -->
<g id="edge53" class="edge">
<title>Node182&#45;&gt;Node225</title>
<path fill="none" stroke="#191970" d="M1283.3871,-409.4744C1169.3817,-396.1439 943.0294,-369.6769 836.7171,-357.2459"/>
<polygon fill="#191970" stroke="#191970" points="1283.0573,-412.9595 1293.3961,-410.6447 1283.8703,-406.0069 1283.0573,-412.9595"/>
</g>
<!-- Node49 -->
<g id="node9" class="node">
<title>Node49</title>
<g id="a_node9"><a xlink:href="search__strategy_8h.html" target="_top" xlink:title="include/tvm/meta_schedule\l/search_strategy.h">
<polygon fill="#ffffff" stroke="#000000" points="2765.0243,-201.5 2765.0243,-231.5 2917.0243,-231.5 2917.0243,-201.5 2765.0243,-201.5"/>
<text text-anchor="start" x="2773.0243" y="-219.5" font-family="Helvetica,sans-Serif" font-size="10.00" fill="#000000">include/tvm/meta_schedule</text>
<text text-anchor="middle" x="2841.0243" y="-208.5" font-family="Helvetica,sans-Serif" font-size="10.00" fill="#000000">/search_strategy.h</text>
</a>
</g>
</g>
<!-- Node48&#45;&gt;Node49 -->
<g id="edge9" class="edge">
<title>Node48&#45;&gt;Node49</title>
<path fill="none" stroke="#191970" d="M2601.0996,-266.4222C2652.8219,-255.6601 2718.9835,-241.8936 2768.7244,-231.5438"/>
<polygon fill="#191970" stroke="#191970" points="2600.3647,-263.0001 2591.2874,-268.4639 2601.7908,-269.8533 2600.3647,-263.0001"/>
</g>
<!-- Node45 -->
<g id="node10" class="node">
<title>Node45</title>
<g id="a_node10"><a xlink:href="measure__callback_8h.html" target="_top" xlink:title="include/tvm/meta_schedule\l/measure_callback.h">
<polygon fill="#ffffff" stroke="#000000" points="2687.0243,-67.5 2687.0243,-97.5 2839.0243,-97.5 2839.0243,-67.5 2687.0243,-67.5"/>
<text text-anchor="start" x="2695.0243" y="-85.5" font-family="Helvetica,sans-Serif" font-size="10.00" fill="#000000">include/tvm/meta_schedule</text>
<text text-anchor="middle" x="2763.0243" y="-74.5" font-family="Helvetica,sans-Serif" font-size="10.00" fill="#000000">/measure_callback.h</text>
</a>
</g>
</g>
<!-- Node49&#45;&gt;Node45 -->
<g id="edge10" class="edge">
<title>Node49&#45;&gt;Node45</title>
<path fill="none" stroke="#191970" d="M2827.0131,-192.4294C2811.0262,-164.9647 2785.3615,-120.8742 2771.9078,-97.7614"/>
<polygon fill="#191970" stroke="#191970" points="2824.1728,-194.5073 2832.2284,-201.389 2830.2225,-190.9857 2824.1728,-194.5073"/>
</g>
<!-- Node49&#45;&gt;Node47 -->
<g id="edge12" class="edge">
<title>Node49&#45;&gt;Node47</title>
<path fill="none" stroke="#191970" d="M2765.6819,-199.1531C2719.1145,-188.4314 2659.9421,-174.8075 2615.3637,-164.5438"/>
<polygon fill="#191970" stroke="#191970" points="2765.1879,-202.6309 2775.7183,-201.4639 2766.7585,-195.8093 2765.1879,-202.6309"/>
</g>
<!-- Node46 -->
<g id="node11" class="node">
<title>Node46</title>
<g id="a_node11"><a xlink:href="task__scheduler_8h.html" target="_top" xlink:title="include/tvm/meta_schedule\l/task_scheduler.h">
<polygon fill="#ffffff" stroke="#000000" points="2635.0243,-.5 2635.0243,-30.5 2787.0243,-30.5 2787.0243,-.5 2635.0243,-.5"/>
<text text-anchor="start" x="2643.0243" y="-18.5" font-family="Helvetica,sans-Serif" font-size="10.00" fill="#000000">include/tvm/meta_schedule</text>
<text text-anchor="middle" x="2711.0243" y="-7.5" font-family="Helvetica,sans-Serif" font-size="10.00" fill="#000000">/task_scheduler.h</text>
</a>
</g>
</g>
<!-- Node45&#45;&gt;Node46 -->
<g id="edge11" class="edge">
<title>Node45&#45;&gt;Node46</title>
<path fill="none" stroke="#191970" d="M2745.0579,-59.3509C2737.6826,-49.8482 2729.351,-39.1132 2722.7773,-30.6432"/>
<polygon fill="#191970" stroke="#191970" points="2742.3285,-61.5427 2751.2247,-67.2967 2747.8584,-57.2508 2742.3285,-61.5427"/>
</g>
<!-- Node47&#45;&gt;Node45 -->
<g id="edge13" class="edge">
<title>Node47&#45;&gt;Node45</title>
<path fill="none" stroke="#191970" d="M2607.527,-131.4123C2641.1698,-120.8298 2683.1541,-107.6235 2715.0145,-97.6017"/>
<polygon fill="#191970" stroke="#191970" points="2606.3147,-128.1245 2597.8257,-134.4639 2608.4151,-134.802 2606.3147,-128.1245"/>
</g>
<!-- Node47&#45;&gt;Node46 -->
<g id="edge14" class="edge">
<title>Node47&#45;&gt;Node46</title>
<path fill="none" stroke="#191970" d="M2574.5725,-127.5568C2593.5774,-110.7219 2620.6782,-87.0469 2645.0243,-67 2660.2833,-54.4356 2677.9566,-40.6862 2691.1725,-30.5569"/>
<polygon fill="#191970" stroke="#191970" points="2572.1075,-125.065 2566.9549,-134.3224 2576.7559,-130.2988 2572.1075,-125.065"/>
</g>
<!-- Node171&#45;&gt;Node49 -->
<g id="edge20" class="edge">
<title>Node171&#45;&gt;Node49</title>
<path fill="none" stroke="#191970" d="M2773.1287,-325.5837C2779.123,-308.729 2788.1205,-286.2928 2799.0243,-268 2806.8219,-254.9184 2817.7447,-241.635 2826.4968,-231.8358"/>
<polygon fill="#191970" stroke="#191970" points="2769.7399,-324.6753 2769.7943,-335.27 2776.3587,-326.9538 2769.7399,-324.6753"/>
</g>
<!-- Node171&#45;&gt;Node45 -->
<g id="edge19" class="edge">
<title>Node171&#45;&gt;Node45</title>
<path fill="none" stroke="#191970" d="M2762.5397,-325.1476C2760.3229,-301.1754 2757.2447,-264.1824 2756.0243,-232 2754.1635,-182.9268 2758.8657,-124.8269 2761.4545,-97.7766"/>
<polygon fill="#191970" stroke="#191970" points="2759.0625,-325.5552 2763.4878,-335.1816 2766.0314,-324.8966 2759.0625,-325.5552"/>
</g>
<!-- Node171&#45;&gt;Node46 -->
<g id="edge21" class="edge">
<title>Node171&#45;&gt;Node46</title>
<path fill="none" stroke="#191970" d="M2753.5975,-326.2144C2733.5014,-282.0117 2692.5824,-184.941 2678.0243,-98 2675.749,-84.4114 2674.1515,-80.2223 2678.0243,-67 2681.9645,-53.548 2690.615,-40.2761 2698.0708,-30.5751"/>
<polygon fill="#191970" stroke="#191970" points="2750.4218,-327.6858 2757.7794,-335.3092 2756.7816,-324.7614 2750.4218,-327.6858"/>
</g>
<!-- Node171&#45;&gt;Node47 -->
<g id="edge22" class="edge">
<title>Node171&#45;&gt;Node47</title>
<path fill="none" stroke="#191970" d="M2728.8071,-330.1528C2714.5339,-321.3921 2698.3919,-310.5188 2685.0243,-299 2641.1255,-261.1725 2638.1154,-243.7775 2599.0243,-201 2587.702,-188.6099 2574.5805,-174.8496 2564.767,-164.6718"/>
<polygon fill="#191970" stroke="#191970" points="2727.0366,-333.1722 2737.4111,-335.3215 2730.6413,-327.1717 2727.0366,-333.1722"/>
</g>
<!-- Node168 -->
<g id="node14" class="node">
<title>Node168</title>
<g id="a_node14"><a xlink:href="meta__schedule_2cost__model_8h.html" target="_top" xlink:title="include/tvm/meta_schedule\l/cost_model.h">
<polygon fill="#ffffff" stroke="#000000" points="3087.0243,-268.5 3087.0243,-298.5 3239.0243,-298.5 3239.0243,-268.5 3087.0243,-268.5"/>
<text text-anchor="start" x="3095.0243" y="-286.5" font-family="Helvetica,sans-Serif" font-size="10.00" fill="#000000">include/tvm/meta_schedule</text>
<text text-anchor="middle" x="3163.0243" y="-275.5" font-family="Helvetica,sans-Serif" font-size="10.00" fill="#000000">/cost_model.h</text>
</a>
</g>
</g>
<!-- Node171&#45;&gt;Node168 -->
<g id="edge16" class="edge">
<title>Node171&#45;&gt;Node168</title>
<path fill="none" stroke="#191970" d="M2851.443,-335.9521C2921.6636,-324.1311 3019.7565,-307.618 3087.0149,-296.2956"/>
<polygon fill="#191970" stroke="#191970" points="2850.572,-332.5494 2841.2918,-337.661 2851.7341,-339.4523 2850.572,-332.5494"/>
</g>
<!-- Node168&#45;&gt;Node49 -->
<g id="edge17" class="edge">
<title>Node168&#45;&gt;Node49</title>
<path fill="none" stroke="#191970" d="M3080.9491,-266.4222C3029.2268,-255.6601 2963.0652,-241.8936 2913.3243,-231.5438"/>
<polygon fill="#191970" stroke="#191970" points="3080.2579,-269.8533 3090.7613,-268.4639 3081.684,-263.0001 3080.2579,-269.8533"/>
</g>
<!-- Node168&#45;&gt;Node46 -->
<g id="edge18" class="edge">
<title>Node168&#45;&gt;Node46</title>
<path fill="none" stroke="#191970" d="M3136.3982,-261.8484C3083.85,-219.8999 2961.9941,-126.4588 2848.0243,-67 2819.7515,-52.2499 2786.2741,-39.5848 2759.4899,-30.5053"/>
<polygon fill="#191970" stroke="#191970" points="3134.5261,-264.8335 3144.5166,-268.3607 3138.9062,-259.3732 3134.5261,-264.8335"/>
</g>
<!-- Node52 -->
<g id="node16" class="node">
<title>Node52</title>
<g id="a_node16"><a xlink:href="space__generator_8h.html" target="_top" xlink:title="include/tvm/meta_schedule\l/space_generator.h">
<polygon fill="#ffffff" stroke="#000000" points="2273.0243,-268.5 2273.0243,-298.5 2425.0243,-298.5 2425.0243,-268.5 2273.0243,-268.5"/>
<text text-anchor="start" x="2281.0243" y="-286.5" font-family="Helvetica,sans-Serif" font-size="10.00" fill="#000000">include/tvm/meta_schedule</text>
<text text-anchor="middle" x="2349.0243" y="-275.5" font-family="Helvetica,sans-Serif" font-size="10.00" fill="#000000">/space_generator.h</text>
</a>
</g>
</g>
<!-- Node181&#45;&gt;Node52 -->
<g id="edge24" class="edge">
<title>Node181&#45;&gt;Node52</title>
<path fill="none" stroke="#191970" d="M2310.8149,-327.6385C2319.1022,-318.0653 2328.509,-307.1987 2335.9153,-298.6432"/>
<polygon fill="#191970" stroke="#191970" points="2308.0843,-325.4453 2304.1854,-335.2967 2313.3767,-330.0268 2308.0843,-325.4453"/>
</g>
<!-- Node52&#45;&gt;Node47 -->
<g id="edge25" class="edge">
<title>Node52&#45;&gt;Node47</title>
<path fill="none" stroke="#191970" d="M2380.1597,-262.7431C2420.9294,-235.5633 2491.4331,-188.5608 2527.4406,-164.5558"/>
<polygon fill="#191970" stroke="#191970" points="2378.0699,-259.9297 2371.6909,-268.389 2381.9529,-265.7541 2378.0699,-259.9297"/>
</g>
<!-- Node83&#45;&gt;Node104 -->
<g id="edge29" class="edge">
<title>Node83&#45;&gt;Node104</title>
<path fill="none" stroke="#191970" d="M622.5833,-205.0928C555.8226,-192.4929 449.1924,-172.3683 384.1932,-160.1009"/>
<polygon fill="#191970" stroke="#191970" points="622.0629,-208.5563 632.5385,-206.9717 623.3611,-201.6777 622.0629,-208.5563"/>
</g>
<!-- Node83&#45;&gt;Node95 -->
<g id="edge30" class="edge">
<title>Node83&#45;&gt;Node95</title>
<path fill="none" stroke="#191970" d="M740.6708,-204.9362C798.9836,-193.2387 889.0406,-175.1734 950.3823,-162.8683"/>
<polygon fill="#191970" stroke="#191970" points="739.64,-201.5732 730.5237,-206.9717 741.0168,-208.4364 739.64,-201.5732"/>
</g>
<!-- Node190&#45;&gt;Node191 -->
<g id="edge32" class="edge">
<title>Node190&#45;&gt;Node191</title>
<path fill="none" stroke="#191970" d="M1211.0243,-325.0249C1211.0243,-316.128 1211.0243,-306.4287 1211.0243,-298.6432"/>
<polygon fill="#191970" stroke="#191970" points="1207.5244,-325.2966 1211.0243,-335.2967 1214.5244,-325.2967 1207.5244,-325.2966"/>
</g>
<!-- Node191&#45;&gt;Node192 -->
<g id="edge33" class="edge">
<title>Node191&#45;&gt;Node192</title>
<path fill="none" stroke="#191970" d="M1211.0243,-258.0249C1211.0243,-249.128 1211.0243,-239.4287 1211.0243,-231.6432"/>
<polygon fill="#191970" stroke="#191970" points="1207.5244,-258.2966 1211.0243,-268.2967 1214.5244,-258.2967 1207.5244,-258.2966"/>
</g>
<!-- Node215&#45;&gt;Node173 -->
<g id="edge37" class="edge">
<title>Node215&#45;&gt;Node173</title>
<path fill="none" stroke="#191970" d="M187.7969,-326.7735C181.7909,-317.4154 175.0693,-306.9421 169.7431,-298.6432"/>
<polygon fill="#191970" stroke="#191970" points="184.9202,-328.7712 193.267,-335.2967 190.8113,-324.9903 184.9202,-328.7712"/>
</g>
<!-- Node173&#45;&gt;Node174 -->
<g id="edge38" class="edge">
<title>Node173&#45;&gt;Node174</title>
<path fill="none" stroke="#191970" d="M180.8386,-260.6385C189.5545,-251.0653 199.4479,-240.1987 207.2373,-231.6432"/>
<polygon fill="#191970" stroke="#191970" points="178.0104,-258.5459 173.8662,-268.2967 183.1865,-263.2585 178.0104,-258.5459"/>
</g>
<!-- Node37&#45;&gt;Node48 -->
<g id="edge44" class="edge">
<title>Node37&#45;&gt;Node48</title>
<path fill="none" stroke="#191970" d="M1757.1285,-335.0419C2056.3414,-291.7227 2137.6852,-333.7434 2434.0243,-299 2436.855,-298.6681 2439.7337,-298.3001 2442.6377,-297.9032"/>
<polygon fill="#191970" stroke="#191970" points="1756.2336,-331.6357 1746.8481,-336.5512 1757.2505,-338.5614 1756.2336,-331.6357"/>
</g>
<!-- Node37&#45;&gt;Node47 -->
<g id="edge48" class="edge">
<title>Node37&#45;&gt;Node47</title>
<path fill="none" stroke="#191970" d="M1693.4404,-325.2936C1695.1303,-306.8808 1700.4676,-282.6645 1716.0243,-268 1770.8962,-216.2752 2278.6964,-170.9783 2473.9917,-155.3262"/>
<polygon fill="#191970" stroke="#191970" points="1689.9427,-325.1506 1692.8172,-335.348 1696.9293,-325.5837 1689.9427,-325.1506"/>
</g>
<!-- Node37&#45;&gt;Node52 -->
<g id="edge47" class="edge">
<title>Node37&#45;&gt;Node52</title>
<path fill="none" stroke="#191970" d="M1757.022,-335.049C1870.4235,-317.6369 2140.079,-297.839 2272.8485,-288.6407"/>
<polygon fill="#191970" stroke="#191970" points="1756.1892,-331.6376 1746.8671,-336.6723 1757.2943,-338.5498 1756.1892,-331.6376"/>
</g>
<!-- Node44 -->
<g id="node28" class="node">
<title>Node44</title>
<g id="a_node28"><a xlink:href="builder_8h.html" target="_top" xlink:title="include/tvm/meta_schedule\l/builder.h">
<polygon fill="#ffffff" stroke="#000000" points="2035.0243,-201.5 2035.0243,-231.5 2187.0243,-231.5 2187.0243,-201.5 2035.0243,-201.5"/>
<text text-anchor="start" x="2043.0243" y="-219.5" font-family="Helvetica,sans-Serif" font-size="10.00" fill="#000000">include/tvm/meta_schedule</text>
<text text-anchor="middle" x="2111.0243" y="-208.5" font-family="Helvetica,sans-Serif" font-size="10.00" fill="#000000">/builder.h</text>
</a>
</g>
</g>
<!-- Node37&#45;&gt;Node44 -->
<g id="edge40" class="edge">
<title>Node37&#45;&gt;Node44</title>
<path fill="none" stroke="#191970" d="M1703.609,-326.3962C1713.3289,-307.2897 1729.6275,-281.6157 1752.0243,-268 1798.2272,-239.912 1944.0228,-226.332 2034.9818,-220.4358"/>
<polygon fill="#191970" stroke="#191970" points="1700.4444,-324.9009 1699.2481,-335.428 1706.7481,-327.9446 1700.4444,-324.9009"/>
</g>
<!-- Node50 -->
<g id="node29" class="node">
<title>Node50</title>
<g id="a_node29"><a xlink:href="extracted__task_8h.html" target="_top" xlink:title="include/tvm/meta_schedule\l/extracted_task.h">
<polygon fill="#ffffff" stroke="#000000" points="1931.0243,-268.5 1931.0243,-298.5 2083.0243,-298.5 2083.0243,-268.5 1931.0243,-268.5"/>
<text text-anchor="start" x="1939.0243" y="-286.5" font-family="Helvetica,sans-Serif" font-size="10.00" fill="#000000">include/tvm/meta_schedule</text>
<text text-anchor="middle" x="2007.0243" y="-275.5" font-family="Helvetica,sans-Serif" font-size="10.00" fill="#000000">/extracted_task.h</text>
</a>
</g>
</g>
<!-- Node37&#45;&gt;Node50 -->
<g id="edge45" class="edge">
<title>Node37&#45;&gt;Node50</title>
<path fill="none" stroke="#191970" d="M1756.5401,-334.9306C1820.9488,-320.4964 1883.3908,-307.7565 1930.7944,-298.3405"/>
<polygon fill="#191970" stroke="#191970" points="1755.5943,-331.5559 1746.6071,-337.1667 1757.1317,-338.385 1755.5943,-331.5559"/>
</g>
<!-- Node51 -->
<g id="node30" class="node">
<title>Node51</title>
<g id="a_node30"><a xlink:href="profiler_8h.html" target="_top" xlink:title="include/tvm/meta_schedule\l/profiler.h">
<polygon fill="#ffffff" stroke="#000000" points="1761.0243,-268.5 1761.0243,-298.5 1913.0243,-298.5 1913.0243,-268.5 1761.0243,-268.5"/>
<text text-anchor="start" x="1769.0243" y="-286.5" font-family="Helvetica,sans-Serif" font-size="10.00" fill="#000000">include/tvm/meta_schedule</text>
<text text-anchor="middle" x="1837.0243" y="-275.5" font-family="Helvetica,sans-Serif" font-size="10.00" fill="#000000">/profiler.h</text>
</a>
</g>
</g>
<!-- Node37&#45;&gt;Node51 -->
<g id="edge46" class="edge">
<title>Node37&#45;&gt;Node51</title>
<path fill="none" stroke="#191970" d="M1734.526,-331.1902C1756.71,-320.8685 1783.6324,-308.3421 1804.3176,-298.7177"/>
<polygon fill="#191970" stroke="#191970" points="1732.9309,-328.072 1725.3408,-335.4639 1735.8839,-334.4187 1732.9309,-328.072"/>
</g>
<!-- Node37&#45;&gt;Node76 -->
<g id="edge49" class="edge">
<title>Node37&#45;&gt;Node76</title>
<path fill="none" stroke="#191970" d="M1666.7668,-328.7808C1654.8677,-318.9383 1641.0888,-307.541 1630.3318,-298.6432"/>
<polygon fill="#191970" stroke="#191970" points="1664.7078,-331.6198 1674.6442,-335.2967 1669.1694,-326.2259 1664.7078,-331.6198"/>
</g>
<!-- Node44&#45;&gt;Node45 -->
<g id="edge41" class="edge">
<title>Node44&#45;&gt;Node45</title>
<path fill="none" stroke="#191970" d="M2180.6813,-199.0101C2251.8837,-181.4287 2365.7893,-154.1207 2465.0243,-134 2540.1501,-118.7676 2626.5119,-104.159 2686.8585,-94.4171"/>
<polygon fill="#191970" stroke="#191970" points="2179.7902,-195.625 2170.9238,-201.4246 2181.4717,-202.42 2179.7902,-195.625"/>
</g>
<!-- Node44&#45;&gt;Node46 -->
<g id="edge42" class="edge">
<title>Node44&#45;&gt;Node46</title>
<path fill="none" stroke="#191970" d="M2156.99,-197.5863C2199.8896,-180.1998 2265.8442,-154.1451 2324.0243,-134 2441.8825,-93.1911 2582.3537,-52.0041 2657.4201,-30.5821"/>
<polygon fill="#191970" stroke="#191970" points="2155.6117,-194.3684 2147.6654,-201.3761 2158.2473,-200.8533 2155.6117,-194.3684"/>
</g>
<!-- Node44&#45;&gt;Node47 -->
<g id="edge43" class="edge">
<title>Node44&#45;&gt;Node47</title>
<path fill="none" stroke="#191970" d="M2197.1654,-201.6202C2198.4604,-201.411 2199.7474,-201.2041 2201.0243,-201 2294.7659,-186.0136 2402.933,-170.2953 2473.6923,-160.2252"/>
<polygon fill="#191970" stroke="#191970" points="2196.4158,-198.1962 2187.1115,-203.2638 2197.5452,-205.1045 2196.4158,-198.1962"/>
</g>
<!-- Node218&#45;&gt;Node83 -->
<g id="edge51" class="edge">
<title>Node218&#45;&gt;Node83</title>
<path fill="none" stroke="#191970" d="M754.5235,-268.0102C736.5577,-255.067 711.5067,-237.0195 696.3243,-226.0817"/>
<polygon fill="#191970" stroke="#191970" points="752.5401,-270.8949 762.6997,-273.9005 756.6319,-265.2153 752.5401,-270.8949"/>
</g>
<!-- Node218&#45;&gt;Node219 -->
<g id="edge52" class="edge">
<title>Node218&#45;&gt;Node219</title>
<path fill="none" stroke="#191970" d="M797.071,-267.6559C814.2286,-254.7395 837.8991,-236.9201 852.2965,-226.0817"/>
<polygon fill="#191970" stroke="#191970" points="794.6601,-265.0899 788.7759,-273.9005 798.8702,-270.6824 794.6601,-265.0899"/>
</g>
<!-- Node225&#45;&gt;Node218 -->
<g id="edge54" class="edge">
<title>Node225&#45;&gt;Node218</title>
<path fill="none" stroke="#191970" d="M778.1337,-330.6079C777.5787,-318.214 776.8897,-302.8263 776.4534,-293.0817"/>
<polygon fill="#191970" stroke="#191970" points="774.6506,-331.0671 778.5945,-340.9005 781.6436,-330.754 774.6506,-331.0671"/>
</g>
<!-- Node227&#45;&gt;Node182 -->
<g id="edge56" class="edge">
<title>Node227&#45;&gt;Node182</title>
<path fill="none" stroke="#191970" d="M1059.516,-548.8118C1124.4494,-519.6622 1274.9969,-452.0789 1330.7534,-427.0489"/>
<polygon fill="#191970" stroke="#191970" points="1057.9068,-545.6976 1050.2173,-552.9861 1060.7736,-552.0837 1057.9068,-545.6976"/>
</g>
<!-- Node227&#45;&gt;Node83 -->
<g id="edge60" class="edge">
<title>Node227&#45;&gt;Node83</title>
<path fill="none" stroke="#191970" d="M980.9784,-550.0882C920.9103,-532.5352 817.7635,-495.4404 750.0243,-433 687.2464,-375.1326 682.7558,-259.8087 682.8445,-226.014"/>
<polygon fill="#191970" stroke="#191970" points="980.3789,-553.5569 990.9558,-552.9395 982.3024,-546.8264 980.3789,-553.5569"/>
</g>
<!-- Node227&#45;&gt;Node95 -->
<g id="edge61" class="edge">
<title>Node227&#45;&gt;Node95</title>
<path fill="none" stroke="#191970" d="M1034.8542,-542.783C1042.5194,-515.0717 1055.0243,-462.9058 1055.0243,-417.5 1055.0243,-417.5 1055.0243,-417.5 1055.0243,-283.5 1055.0243,-239.0065 1035.3935,-189.2478 1024.3511,-164.778"/>
<polygon fill="#191970" stroke="#191970" points="1031.3849,-542.1861 1032.0069,-552.7627 1038.1163,-544.1067 1031.3849,-542.1861"/>
</g>
<!-- Node227&#45;&gt;Node219 -->
<g id="edge62" class="edge">
<title>Node227&#45;&gt;Node219</title>
<path fill="none" stroke="#191970" d="M1020.0662,-543.6005C989.8113,-479.7701 892.0599,-273.5384 869.6375,-226.2327"/>
<polygon fill="#191970" stroke="#191970" points="1017.021,-545.3476 1024.4669,-552.8849 1023.3464,-542.3494 1017.021,-545.3476"/>
</g>
<!-- Node227&#45;&gt;Node228 -->
<g id="edge57" class="edge">
<title>Node227&#45;&gt;Node228</title>
<path fill="none" stroke="#191970" d="M1081.4086,-550.7419C1144.9817,-536.4724 1250.9331,-512.6908 1309.6282,-499.5162"/>
<polygon fill="#191970" stroke="#191970" points="1080.5738,-547.3421 1071.5831,-552.9473 1082.1069,-554.1722 1080.5738,-547.3421"/>
</g>
<!-- Node228&#45;&gt;Node24 -->
<g id="edge58" class="edge">
<title>Node228&#45;&gt;Node24</title>
<path fill="none" stroke="#191970" d="M1372.8856,-474.0934C1386.7803,-463.1255 1405.1488,-447.8919 1420.0243,-433 1444.5687,-408.4286 1469.8717,-376.0114 1481.8741,-360.1203"/>
<polygon fill="#191970" stroke="#191970" points="1370.6194,-471.4221 1364.8835,-480.33 1374.9225,-476.9433 1370.6194,-471.4221"/>
</g>
<!-- Node228&#45;&gt;Node182 -->
<g id="edge59" class="edge">
<title>Node228&#45;&gt;Node182</title>
<path fill="none" stroke="#191970" d="M1352.0243,-470.1054C1352.0243,-456.1237 1352.0243,-438.0346 1352.0243,-427.1228"/>
<polygon fill="#191970" stroke="#191970" points="1348.5244,-470.2223 1352.0243,-480.2223 1355.5244,-470.2224 1348.5244,-470.2223"/>
</g>
<!-- Node167&#45;&gt;Node48 -->
<g id="edge66" class="edge">
<title>Node167&#45;&gt;Node48</title>
<path fill="none" stroke="#191970" d="M2793.2019,-400.0468C2757.8432,-391.4461 2716.3376,-379.9124 2680.0243,-366 2630.019,-346.8419 2575.2065,-316.6079 2544.1713,-298.5495"/>
<polygon fill="#191970" stroke="#191970" points="2792.4622,-403.4685 2803.0024,-402.3943 2794.0928,-396.6611 2792.4622,-403.4685"/>
</g>
<!-- Node167&#45;&gt;Node49 -->
<g id="edge73" class="edge">
<title>Node167&#45;&gt;Node49</title>
<path fill="none" stroke="#191970" d="M2868.5933,-392.3399C2864.0762,-375.8011 2857.5181,-353.8198 2850.0243,-335 2843.4067,-318.3805 2836.1343,-316.41 2832.0243,-299 2828.8589,-285.5908 2830.834,-281.7263 2832.0243,-268 2833.0908,-255.7022 2835.5642,-241.9361 2837.6487,-231.7326"/>
<polygon fill="#191970" stroke="#191970" points="2865.2996,-393.5726 2871.2562,-402.3344 2872.0636,-391.7703 2865.2996,-393.5726"/>
</g>
<!-- Node167&#45;&gt;Node171 -->
<g id="edge72" class="edge">
<title>Node167&#45;&gt;Node171</title>
<path fill="none" stroke="#191970" d="M2841.4925,-397.0761C2824.9127,-386.9774 2805.2455,-374.9983 2790.0087,-365.7177"/>
<polygon fill="#191970" stroke="#191970" points="2839.977,-400.2511 2850.3382,-402.4639 2843.6184,-394.2727 2839.977,-400.2511"/>
</g>
<!-- Node167&#45;&gt;Node168 -->
<g id="edge65" class="edge">
<title>Node167&#45;&gt;Node168</title>
<path fill="none" stroke="#191970" d="M2961.4149,-402.4246C3034.1168,-389.409 3127.3264,-371.81 3134.0243,-366 3153.7503,-348.8891 3160.0606,-317.5292 3162.0779,-298.7915"/>
<polygon fill="#191970" stroke="#191970" points="2960.5332,-399.0266 2951.3036,-404.229 2961.763,-405.9177 2960.5332,-399.0266"/>
</g>
<!-- Node169 -->
<g id="node38" class="node">
<title>Node169</title>
<g id="a_node38"><a xlink:href="measure__candidate_8h.html" target="_top" xlink:title="include/tvm/meta_schedule\l/measure_candidate.h">
<polygon fill="#ffffff" stroke="#000000" points="2973.0243,-335.5 2973.0243,-365.5 3125.0243,-365.5 3125.0243,-335.5 2973.0243,-335.5"/>
<text text-anchor="start" x="2981.0243" y="-353.5" font-family="Helvetica,sans-Serif" font-size="10.00" fill="#000000">include/tvm/meta_schedule</text>
<text text-anchor="middle" x="3049.0243" y="-342.5" font-family="Helvetica,sans-Serif" font-size="10.00" fill="#000000">/measure_candidate.h</text>
</a>
</g>
</g>
<!-- Node167&#45;&gt;Node169 -->
<g id="edge67" class="edge">
<title>Node167&#45;&gt;Node169</title>
<path fill="none" stroke="#191970" d="M2923.4197,-398.865C2950.6564,-388.3773 2984.2251,-375.4515 3009.805,-365.6017"/>
<polygon fill="#191970" stroke="#191970" points="2922.1477,-395.6042 2914.0733,-402.4639 2924.6631,-402.1367 2922.1477,-395.6042"/>
</g>
<!-- Node169&#45;&gt;Node49 -->
<g id="edge71" class="edge">
<title>Node169&#45;&gt;Node49</title>
<path fill="none" stroke="#191970" d="M3040.6694,-325.9571C3033.225,-307.5634 3020.6068,-283.066 3002.0243,-268 2977.861,-248.4091 2946.1049,-236.2124 2917.1864,-228.6453"/>
<polygon fill="#191970" stroke="#191970" points="3037.4528,-327.3456 3044.2778,-335.4492 3043.9959,-324.8581 3037.4528,-327.3456"/>
</g>
<!-- Node169&#45;&gt;Node45 -->
<g id="edge70" class="edge">
<title>Node169&#45;&gt;Node45</title>
<path fill="none" stroke="#191970" d="M3047.199,-325.192C3044.8999,-307.8121 3039.7136,-284.9164 3028.0243,-268 2968.9626,-182.5274 2856.8721,-123.7154 2799.2398,-97.6676"/>
<polygon fill="#191970" stroke="#191970" points="3043.7266,-325.6361 3048.2898,-335.1979 3050.6854,-324.8774 3043.7266,-325.6361"/>
</g>
<!-- Node169&#45;&gt;Node168 -->
<g id="edge68" class="edge">
<title>Node169&#45;&gt;Node168</title>
<path fill="none" stroke="#191970" d="M3083.299,-330.3561C3100.5804,-320.1995 3121.1944,-308.0843 3137.1315,-298.7177"/>
<polygon fill="#191970" stroke="#191970" points="3081.456,-327.3795 3074.6082,-335.4639 3085.0029,-333.4144 3081.456,-327.3795"/>
</g>
<!-- Node170 -->
<g id="node39" class="node">
<title>Node170</title>
<g id="a_node39"><a xlink:href="feature__extractor_8h.html" target="_top" xlink:title="include/tvm/meta_schedule\l/feature_extractor.h">
<polygon fill="#ffffff" stroke="#000000" points="2841.0243,-268.5 2841.0243,-298.5 2993.0243,-298.5 2993.0243,-268.5 2841.0243,-268.5"/>
<text text-anchor="start" x="2849.0243" y="-286.5" font-family="Helvetica,sans-Serif" font-size="10.00" fill="#000000">include/tvm/meta_schedule</text>
<text text-anchor="middle" x="2917.0243" y="-275.5" font-family="Helvetica,sans-Serif" font-size="10.00" fill="#000000">/feature_extractor.h</text>
</a>
</g>
</g>
<!-- Node169&#45;&gt;Node170 -->
<g id="edge69" class="edge">
<title>Node169&#45;&gt;Node170</title>
<path fill="none" stroke="#191970" d="M3010.4354,-330.9132C2990.2056,-320.645 2965.7976,-308.2561 2947.0056,-298.7177"/>
<polygon fill="#191970" stroke="#191970" points="3008.8997,-334.0587 3019.401,-335.4639 3012.068,-327.8168 3008.8997,-334.0587"/>
</g>
<!-- Node231&#45;&gt;Node173 -->
<g id="edge84" class="edge">
<title>Node231&#45;&gt;Node173</title>
<path fill="none" stroke="#191970" d="M82.7966,-459.2073C83.7482,-426.6422 88.7407,-374.6014 109.0243,-335 116.3096,-320.7765 128.9181,-307.9908 139.7752,-298.7168"/>
<polygon fill="#191970" stroke="#191970" points="79.2927,-459.3971 82.6125,-469.4583 86.2916,-459.5228 79.2927,-459.3971"/>
</g>
<!-- Node36&#45;&gt;Node37 -->
<g id="edge89" class="edge">
<title>Node36&#45;&gt;Node37</title>
<path fill="none" stroke="#191970" d="M1648.5367,-465.4265C1659.6998,-436.5884 1677.8626,-389.6677 1687.1499,-365.6758"/>
<polygon fill="#191970" stroke="#191970" points="1645.2521,-464.2163 1644.9061,-474.8055 1651.7801,-466.7433 1645.2521,-464.2163"/>
</g>
<!-- Node232&#45;&gt;Node13 -->
<g id="edge115" class="edge">
<title>Node232&#45;&gt;Node13</title>
<path fill="none" stroke="#191970" d="M2472.172,-692.6826C2187.0129,-680.5674 1306.355,-643.152 1053.5338,-632.4107"/>
<polygon fill="#191970" stroke="#191970" points="2472.3291,-696.1923 2482.4687,-693.12 2472.6263,-689.1986 2472.3291,-696.1923"/>
</g>
<!-- Node232&#45;&gt;Node48 -->
<g id="edge99" class="edge">
<title>Node232&#45;&gt;Node48</title>
<path fill="none" stroke="#191970" d="M2610.3966,-683.5752C2631.6837,-675.6355 2655.3583,-663.3651 2671.0243,-645 2695.807,-615.9476 2695.0243,-600.6867 2695.0243,-562.5 2695.0243,-562.5 2695.0243,-562.5 2695.0243,-490 2695.0243,-449.4604 2695.7352,-434.1377 2671.0243,-402 2651.6018,-376.7399 2634.6958,-384.8755 2609.0243,-366 2580.3348,-344.9055 2550.5406,-315.9677 2533.447,-298.5656"/>
<polygon fill="#191970" stroke="#191970" points="2609.1049,-680.319 2600.8214,-686.9247 2611.4163,-686.9264 2609.1049,-680.319"/>
</g>
<!-- Node232&#45;&gt;Node49 -->
<g id="edge111" class="edge">
<title>Node232&#45;&gt;Node49</title>
<path fill="none" stroke="#191970" d="M2652.0299,-693.9365C2791.99,-689.0415 3054.8825,-675.9551 3143.0243,-645 3205.479,-623.0661 3267.0243,-628.6943 3267.0243,-562.5 3267.0243,-562.5 3267.0243,-562.5 3267.0243,-350.5 3267.0243,-312.8735 3275.933,-293.2361 3248.0243,-268 3223.9875,-246.2649 3028.4172,-229.4046 2917.3615,-221.4734"/>
<polygon fill="#191970" stroke="#191970" points="2651.6322,-690.4479 2641.7581,-694.2887 2651.8722,-697.4438 2651.6322,-690.4479"/>
</g>
<!-- Node232&#45;&gt;Node45 -->
<g id="edge102" class="edge">
<title>Node232&#45;&gt;Node45</title>
<path fill="none" stroke="#191970" d="M2651.7914,-692.2693C2816.354,-684.0774 3154.1088,-665.0808 3204.0243,-645 3257.797,-623.3675 3305.0243,-620.4608 3305.0243,-562.5 3305.0243,-562.5 3305.0243,-562.5 3305.0243,-350.5 3305.0243,-149.9141 3097.6671,-202.1809 2909.0243,-134 2874.5205,-121.5293 2835.3031,-107.7157 2806.2084,-97.5368"/>
<polygon fill="#191970" stroke="#191970" points="2651.5016,-688.7793 2641.6869,-692.7695 2651.8478,-695.7707 2651.5016,-688.7793"/>
</g>
<!-- Node232&#45;&gt;Node46 -->
<g id="edge113" class="edge">
<title>Node232&#45;&gt;Node46</title>
<path fill="none" stroke="#191970" d="M2651.8363,-693.1604C2826.836,-686.168 3201.1397,-668.6551 3255.0243,-645 3304.1133,-623.4502 3343.0243,-616.1109 3343.0243,-562.5 3343.0243,-562.5 3343.0243,-562.5 3343.0243,-149.5 3343.0243,-93.2791 2955.351,-42.9264 2787.2583,-23.7362"/>
<polygon fill="#191970" stroke="#191970" points="2651.4729,-689.672 2641.6195,-693.5657 2651.7504,-696.6665 2651.4729,-689.672"/>
</g>
<!-- Node232&#45;&gt;Node47 -->
<g id="edge114" class="edge">
<title>Node232&#45;&gt;Node47</title>
<path fill="none" stroke="#191970" d="M2620.2513,-684.083C2645.3763,-676.3113 2673.6175,-664.0337 2694.0243,-645 2723.6831,-617.3369 2733.0243,-603.0572 2733.0243,-562.5 2733.0243,-562.5 2733.0243,-562.5 2733.0243,-490 2733.0243,-447.0381 2712.5181,-440.2847 2693.0243,-402 2668.7366,-354.3001 2586.2391,-211.8095 2558.9041,-164.7622"/>
<polygon fill="#191970" stroke="#191970" points="2619.0565,-680.7855 2610.436,-686.945 2621.016,-687.5057 2619.0565,-680.7855"/>
</g>
<!-- Node232&#45;&gt;Node171 -->
<g id="edge109" class="edge">
<title>Node232&#45;&gt;Node171</title>
<path fill="none" stroke="#191970" d="M2628.423,-685.0522C2674.3276,-675.8647 2730.0704,-661.7586 2747.0243,-645 2774.1824,-618.1549 2771.0243,-600.6867 2771.0243,-562.5 2771.0243,-562.5 2771.0243,-562.5 2771.0243,-490 2771.0243,-444.6691 2767.8228,-391.1287 2766.097,-365.5603"/>
<polygon fill="#191970" stroke="#191970" points="2627.6383,-681.6393 2618.4963,-686.9942 2628.9823,-688.509 2627.6383,-681.6393"/>
</g>
<!-- Node232&#45;&gt;Node168 -->
<g id="edge98" class="edge">
<title>Node232&#45;&gt;Node168</title>
<path fill="none" stroke="#191970" d="M2651.8993,-690.7612C2772.8937,-682.4079 2981.4826,-665.6239 3055.0243,-645 3137.4308,-621.8901 3229.0243,-648.0856 3229.0243,-562.5 3229.0243,-562.5 3229.0243,-562.5 3229.0243,-417.5 3229.0243,-370.3026 3195.6658,-322.4861 3176.3804,-298.7859"/>
<polygon fill="#191970" stroke="#191970" points="2651.645,-687.2703 2641.9076,-691.4456 2652.1234,-694.2539 2651.645,-687.2703"/>
</g>
<!-- Node232&#45;&gt;Node181 -->
<g id="edge110" class="edge">
<title>Node232&#45;&gt;Node181</title>
<path fill="none" stroke="#191970" d="M2471.8877,-692.4867C2347.6724,-686.0171 2136.4543,-671.271 2113.0243,-645 2103.8539,-634.7175 2105.7054,-625.6731 2113.0243,-614 2211.1209,-457.5449 2388.9278,-589.4551 2487.0243,-433 2494.3433,-421.3269 2495.4382,-412.9103 2487.0243,-402 2479.2492,-391.918 2417.6034,-376.7722 2365.4928,-365.5124"/>
<polygon fill="#191970" stroke="#191970" points="2471.9852,-695.9962 2482.1513,-693.0128 2472.3436,-689.0054 2471.9852,-695.9962"/>
</g>
<!-- Node232&#45;&gt;Node52 -->
<g id="edge112" class="edge">
<title>Node232&#45;&gt;Node52</title>
<path fill="none" stroke="#191970" d="M2593.3208,-682.3118C2608.9987,-673.6679 2626.9526,-661.1559 2638.0243,-645 2659.2947,-613.9625 2657.0243,-600.1265 2657.0243,-562.5 2657.0243,-562.5 2657.0243,-562.5 2657.0243,-490 2657.0243,-446.8522 2643.531,-435.2432 2616.0243,-402 2611.9649,-397.0939 2528.7414,-337.8043 2523.0243,-335 2490.3561,-318.9756 2451.747,-306.9276 2419.2077,-298.5297"/>
<polygon fill="#191970" stroke="#191970" points="2591.6704,-679.225 2584.4221,-686.9525 2594.9073,-685.4317 2591.6704,-679.225"/>
</g>
<!-- Node232&#45;&gt;Node212 -->
<g id="edge116" class="edge">
<title>Node232&#45;&gt;Node212</title>
<path fill="none" stroke="#191970" d="M2472.1635,-693.2407C2319.4164,-687.008 2021.744,-671.6006 1982.0243,-645 1929.8431,-610.0538 1855.5838,-421.0661 1834.6878,-365.7304"/>
<polygon fill="#191970" stroke="#191970" points="2472.3252,-696.7499 2482.4581,-693.6558 2472.6073,-689.7556 2472.3252,-696.7499"/>
</g>
<!-- Node232&#45;&gt;Node44 -->
<g id="edge97" class="edge">
<title>Node232&#45;&gt;Node44</title>
<path fill="none" stroke="#191970" d="M2472.1129,-691.607C2356.2944,-684.3689 2167.2517,-669.0173 2146.0243,-645 2136.9001,-634.6765 2138.0902,-625.2639 2146.0243,-614 2224.3078,-502.8635 2321.4465,-587.196 2434.0243,-511 2481.5061,-478.863 2533.6842,-450.4487 2503.0243,-402 2483.0378,-370.4172 2459.9267,-383.7306 2427.0243,-366 2403.6735,-353.4166 2400.1508,-346.0235 2376.0243,-335 2328.4673,-313.2709 2312.1265,-319.4941 2264.0243,-299 2216.9657,-278.9505 2165.1495,-249.2839 2135.5058,-231.5247"/>
<polygon fill="#191970" stroke="#191970" points="2472.1964,-695.1187 2482.3927,-692.2402 2472.6268,-688.1319 2472.1964,-695.1187"/>
</g>
<!-- Node232&#45;&gt;Node50 -->
<g id="edge100" class="edge">
<title>Node232&#45;&gt;Node50</title>
<path fill="none" stroke="#191970" d="M2472.3065,-691.907C2335.572,-684.2387 2087.2106,-667.4312 2053.0243,-645 1995.962,-607.5586 1995.2486,-577.0402 1978.0243,-511 1957.626,-432.7896 1987.8133,-335.5641 2001.1871,-298.659"/>
<polygon fill="#191970" stroke="#191970" points="2472.1782,-695.4051 2482.357,-692.4654 2472.5667,-688.4159 2472.1782,-695.4051"/>
</g>
<!-- Node232&#45;&gt;Node51 -->
<g id="edge108" class="edge">
<title>Node232&#45;&gt;Node51</title>
<path fill="none" stroke="#191970" d="M2472.0105,-693.501C2312.3288,-687.5143 1992.1422,-672.2575 1949.0243,-645 1919.9005,-626.589 1919.5472,-611.1131 1910.0243,-578 1880.1589,-474.1506 1950.6576,-431.4959 1902.0243,-335 1894.2486,-319.5718 1879.4804,-307.2916 1865.9837,-298.5982"/>
<polygon fill="#191970" stroke="#191970" points="2472.1689,-697.0092 2482.2917,-693.882 2472.4282,-690.014 2472.1689,-697.0092"/>
</g>
<!-- Node232&#45;&gt;Node167 -->
<g id="edge96" class="edge">
<title>Node232&#45;&gt;Node167</title>
<path fill="none" stroke="#191970" d="M2645.6866,-685.4093C2699.8444,-676.711 2764.042,-663.0541 2785.0243,-645 2851.8328,-587.5154 2869.4672,-473.7543 2873.7511,-432.7128"/>
<polygon fill="#191970" stroke="#191970" points="2645.0402,-681.9679 2635.7037,-686.9757 2646.1254,-688.8832 2645.0402,-681.9679"/>
</g>
<!-- Node232&#45;&gt;Node169 -->
<g id="edge103" class="edge">
<title>Node232&#45;&gt;Node169</title>
<path fill="none" stroke="#191970" d="M2651.9479,-691.9638C2780.007,-684.7068 3002.6441,-668.8334 3031.0243,-645 3060.2671,-620.4423 3055.0243,-600.6867 3055.0243,-562.5 3055.0243,-562.5 3055.0243,-562.5 3055.0243,-490 3055.0243,-444.6691 3051.8228,-391.1287 3050.097,-365.5603"/>
<polygon fill="#191970" stroke="#191970" points="2651.5464,-688.4807 2641.7577,-692.5344 2651.9378,-695.4698 2651.5464,-688.4807"/>
</g>
<!-- Node232&#45;&gt;Node170 -->
<g id="edge101" class="edge">
<title>Node232&#45;&gt;Node170</title>
<path fill="none" stroke="#191970" d="M2651.6901,-688.4313C2784.2524,-673.9874 3017.0243,-637.8911 3017.0243,-562.5 3017.0243,-562.5 3017.0243,-562.5 3017.0243,-490 3017.0243,-469.0378 2949.4123,-342.9297 2925.3783,-298.7643"/>
<polygon fill="#191970" stroke="#191970" points="2651.1108,-684.9732 2641.5395,-689.5164 2651.8549,-691.9335 2651.1108,-684.9732"/>
</g>
<!-- Node233 -->
<g id="node43" class="node">
<title>Node233</title>
<g id="a_node43"><a xlink:href="env__func_8h.html" target="_top" xlink:title="Serializable global function used in IR. ">
<polygon fill="#ffffff" stroke="#ff0000" points="1749.5243,-475 1749.5243,-505 1854.5243,-505 1854.5243,-475 1749.5243,-475"/>
<text text-anchor="start" x="1757.5243" y="-493" font-family="Helvetica,sans-Serif" font-size="10.00" fill="#000000">include/tvm/ir/env</text>
<text text-anchor="middle" x="1802.0243" y="-482" font-family="Helvetica,sans-Serif" font-size="10.00" fill="#000000">_func.h</text>
</a>
</g>
</g>
<!-- Node232&#45;&gt;Node233 -->
<g id="edge93" class="edge">
<title>Node232&#45;&gt;Node233</title>
<path fill="none" stroke="#191970" d="M2472.146,-693.7709C2303.8305,-688.0312 1953.7126,-672.8827 1906.0243,-645 1850.6339,-612.614 1818.7122,-537.6032 1807.0909,-505.2764"/>
<polygon fill="#191970" stroke="#191970" points="2472.1172,-697.2718 2482.2295,-694.1109 2472.3532,-690.2758 2472.1172,-697.2718"/>
</g>
<!-- Node234 -->
<g id="node44" class="node">
<title>Node234</title>
<g id="a_node44"><a xlink:href="instrument_8h.html" target="_top" xlink:title="include/tvm/ir/instrument.h">
<polygon fill="#ffffff" stroke="#ff0000" points="2328.5243,-408 2328.5243,-427 2477.5243,-427 2477.5243,-408 2328.5243,-408"/>
<text text-anchor="middle" x="2403.0243" y="-415" font-family="Helvetica,sans-Serif" font-size="10.00" fill="#000000">include/tvm/ir/instrument.h</text>
</a>
</g>
</g>
<!-- Node232&#45;&gt;Node234 -->
<g id="edge95" class="edge">
<title>Node232&#45;&gt;Node234</title>
<path fill="none" stroke="#191970" d="M2472.1183,-693.3771C2338.676,-687.8041 2101.0396,-673.9115 2075.0243,-645 1978.4899,-537.7188 2256.0646,-454.4323 2362.9714,-427.095"/>
<polygon fill="#191970" stroke="#191970" points="2472.1948,-696.8831 2482.3299,-693.7958 2472.4817,-689.8889 2472.1948,-696.8831"/>
</g>
<!-- Node177 -->
<g id="node45" class="node">
<title>Node177</title>
<g id="a_node45"><a xlink:href="mutator_8h.html" target="_top" xlink:title="include/tvm/meta_schedule\l/mutator.h">
<polygon fill="#ffffff" stroke="#000000" points="2155.0243,-614.5 2155.0243,-644.5 2307.0243,-644.5 2307.0243,-614.5 2155.0243,-614.5"/>
<text text-anchor="start" x="2163.0243" y="-632.5" font-family="Helvetica,sans-Serif" font-size="10.00" fill="#000000">include/tvm/meta_schedule</text>
<text text-anchor="middle" x="2231.0243" y="-621.5" font-family="Helvetica,sans-Serif" font-size="10.00" fill="#000000">/mutator.h</text>
</a>
</g>
</g>
<!-- Node232&#45;&gt;Node177 -->
<g id="edge104" class="edge">
<title>Node232&#45;&gt;Node177</title>
<path fill="none" stroke="#191970" d="M2504.9917,-684.9556C2449.7924,-673.7823 2365.8254,-656.786 2305.4023,-644.5553"/>
<polygon fill="#191970" stroke="#191970" points="2504.456,-688.4181 2514.9516,-686.9717 2505.8448,-681.5572 2504.456,-688.4181"/>
</g>
<!-- Node178 -->
<g id="node46" class="node">
<title>Node178</title>
<g id="a_node46"><a xlink:href="postproc_8h.html" target="_top" xlink:title="include/tvm/meta_schedule\l/postproc.h">
<polygon fill="#ffffff" stroke="#000000" points="2325.0243,-614.5 2325.0243,-644.5 2477.0243,-644.5 2477.0243,-614.5 2325.0243,-614.5"/>
<text text-anchor="start" x="2333.0243" y="-632.5" font-family="Helvetica,sans-Serif" font-size="10.00" fill="#000000">include/tvm/meta_schedule</text>
<text text-anchor="middle" x="2401.0243" y="-621.5" font-family="Helvetica,sans-Serif" font-size="10.00" fill="#000000">/postproc.h</text>
</a>
</g>
</g>
<!-- Node232&#45;&gt;Node178 -->
<g id="edge106" class="edge">
<title>Node232&#45;&gt;Node178</title>
<path fill="none" stroke="#191970" d="M2529.6397,-683.0231C2502.8643,-671.8806 2464.8707,-656.0696 2437.1214,-644.5218"/>
<polygon fill="#191970" stroke="#191970" points="2528.3798,-686.2898 2538.957,-686.9005 2531.0693,-679.827 2528.3798,-686.2898"/>
</g>
<!-- Node235 -->
<g id="node47" class="node">
<title>Node235</title>
<g id="a_node47"><a xlink:href="instruction_8h.html" target="_top" xlink:title="include/tvm/tir/schedule\l/instruction.h">
<polygon fill="#ffffff" stroke="#ff0000" points="2495.0243,-614.5 2495.0243,-644.5 2629.0243,-644.5 2629.0243,-614.5 2495.0243,-614.5"/>
<text text-anchor="start" x="2503.0243" y="-632.5" font-family="Helvetica,sans-Serif" font-size="10.00" fill="#000000">include/tvm/tir/schedule</text>
<text text-anchor="middle" x="2562.0243" y="-621.5" font-family="Helvetica,sans-Serif" font-size="10.00" fill="#000000">/instruction.h</text>
</a>
</g>
</g>
<!-- Node232&#45;&gt;Node235 -->
<g id="edge117" class="edge">
<title>Node232&#45;&gt;Node235</title>
<path fill="none" stroke="#191970" d="M2562.0243,-676.7758C2562.0243,-666.4641 2562.0243,-654.0437 2562.0243,-644.5218"/>
<polygon fill="#191970" stroke="#191970" points="2558.5244,-676.9005 2562.0243,-686.9005 2565.5244,-676.9006 2558.5244,-676.9005"/>
</g>
<!-- Node233&#45;&gt;Node95 -->
<g id="edge94" class="edge">
<title>Node233&#45;&gt;Node95</title>
<path fill="none" stroke="#191970" d="M1772.7764,-469.0851C1695.3505,-414.8605 1476.9218,-269.2277 1272.0243,-201 1209.6755,-180.2388 1135.8265,-166.4411 1083.6905,-158.3979"/>
<polygon fill="#191970" stroke="#191970" points="1770.8991,-472.0438 1781.0911,-474.9375 1774.9281,-466.3196 1770.8991,-472.0438"/>
</g>
<!-- Node177&#45;&gt;Node52 -->
<g id="edge105" class="edge">
<title>Node177&#45;&gt;Node52</title>
<path fill="none" stroke="#191970" d="M2314.1691,-612.3341C2363.9797,-601.5166 2422.136,-587.7939 2446.0243,-578 2499.3411,-556.1409 2528.6996,-561.1817 2557.0243,-511 2580.8371,-468.8121 2582.4931,-443.2093 2557.0243,-402 2538.2152,-371.5662 2516.3449,-383.2923 2485.0243,-366 2444.8925,-343.8429 2399.6225,-315.7319 2372.7523,-298.7049"/>
<polygon fill="#191970" stroke="#191970" points="2313.3677,-608.9264 2304.3309,-614.4568 2314.8441,-615.7689 2313.3677,-608.9264"/>
</g>
<!-- Node178&#45;&gt;Node52 -->
<g id="edge107" class="edge">
<title>Node178&#45;&gt;Node52</title>
<path fill="none" stroke="#191970" d="M2484.2488,-612.3363C2533.5502,-601.3262 2587.8042,-587.387 2595.0243,-578 2642.715,-515.9974 2634.0518,-469.7906 2595.0243,-402 2579.1265,-374.3854 2560.1932,-382.6482 2533.0243,-366 2511.3707,-352.7314 2507.6925,-346.4496 2485.0243,-335 2456.404,-320.544 2422.7095,-307.7564 2396.0192,-298.5397"/>
<polygon fill="#191970" stroke="#191970" points="2483.4793,-608.9218 2474.47,-614.497 2484.9897,-615.7569 2483.4793,-608.9218"/>
</g>
<!-- Node237&#45;&gt;Node263 -->
<g id="edge119" class="edge">
<title>Node237&#45;&gt;Node263</title>
<path fill="none" stroke="#191970" d="M1808.2687,-672.3657C1825.8631,-639.8465 1861.174,-582.0107 1906.0243,-547 1930.4904,-527.9015 1962.2458,-514.2421 1989.227,-505.0919"/>
<polygon fill="#191970" stroke="#191970" points="1805.1722,-670.7344 1803.5841,-681.2095 1811.358,-674.011 1805.1722,-670.7344"/>
</g>
<!-- Node263&#45;&gt;Node24 -->
<g id="edge120" class="edge">
<title>Node263&#45;&gt;Node24</title>
<path fill="none" stroke="#191970" d="M1976.8258,-472.889C1858.76,-443.2664 1620.0271,-383.3685 1527.1791,-360.073"/>
<polygon fill="#191970" stroke="#191970" points="1976.2839,-476.3615 1986.835,-475.4003 1977.9874,-469.5719 1976.2839,-476.3615"/>
</g>
<!-- Node263&#45;&gt;Node182 -->
<g id="edge121" class="edge">
<title>Node263&#45;&gt;Node182</title>
<path fill="none" stroke="#191970" d="M1976.5212,-481.8026C1942.6774,-477.8163 1901.2195,-473.0281 1864.0243,-469 1699.9329,-451.2293 1506.0237,-432.2858 1410.7969,-423.1176"/>
<polygon fill="#191970" stroke="#191970" points="1976.4254,-485.3155 1986.7669,-483.0123 1977.2463,-478.3638 1976.4254,-485.3155"/>
</g>
<!-- Node263&#45;&gt;Node48 -->
<g id="edge125" class="edge">
<title>Node263&#45;&gt;Node48</title>
<path fill="none" stroke="#191970" d="M2101.2895,-471.642C2138.4768,-459.091 2183.4823,-442.9812 2201.0243,-433 2219.9684,-422.2211 2219.598,-411.8833 2239.0243,-402 2295.136,-373.4528 2317.7987,-389.9422 2376.0243,-366 2421.3533,-347.3609 2469.9297,-316.8124 2497.1901,-298.5812"/>
<polygon fill="#191970" stroke="#191970" points="2099.9005,-468.4161 2091.5326,-474.9145 2102.1265,-475.0528 2099.9005,-468.4161"/>
</g>
<!-- Node263&#45;&gt;Node45 -->
<g id="edge128" class="edge">
<title>Node263&#45;&gt;Node45</title>
<path fill="none" stroke="#191970" d="M2068.4331,-467.7227C2079.3326,-457.2639 2092.4249,-444.5779 2104.0243,-433 2140.1732,-396.9182 2220.107,-294.075 2264.0243,-268 2337.5966,-224.3181 2556.9561,-200.0191 2635.0243,-165 2676.2736,-146.4968 2719.5277,-115.9027 2743.7037,-97.6262"/>
<polygon fill="#191970" stroke="#191970" points="2065.7414,-465.4541 2060.9368,-474.8969 2070.5814,-470.5113 2065.7414,-465.4541"/>
</g>
<!-- Node263&#45;&gt;Node47 -->
<g id="edge132" class="edge">
<title>Node263&#45;&gt;Node47</title>
<path fill="none" stroke="#191970" d="M2058.8771,-466.1835C2086.2052,-421.1867 2151.3757,-323.251 2231.0243,-268 2308.3299,-214.3743 2412.9004,-181.6104 2480.8993,-164.5049"/>
<polygon fill="#191970" stroke="#191970" points="2055.7638,-464.57 2053.6284,-474.9474 2061.7691,-468.1667 2055.7638,-464.57"/>
</g>
<!-- Node263&#45;&gt;Node171 -->
<g id="edge130" class="edge">
<title>Node263&#45;&gt;Node171</title>
<path fill="none" stroke="#191970" d="M2106.3389,-472.0964C2162.5846,-455.6562 2237.4343,-433.7285 2239.0243,-433 2262.1123,-422.4224 2263.0857,-410.4783 2287.0243,-402 2359.1127,-376.4686 2572.923,-361.1004 2688.6224,-354.4277"/>
<polygon fill="#191970" stroke="#191970" points="2105.0455,-468.828 2096.4288,-474.9926 2107.0091,-475.5469 2105.0455,-468.828"/>
</g>
<!-- Node263&#45;&gt;Node168 -->
<g id="edge124" class="edge">
<title>Node263&#45;&gt;Node168</title>
<path fill="none" stroke="#191970" d="M2113.1352,-488.0991C2296.5417,-482.6069 2797.8691,-465.031 2960.0243,-433 3050.752,-415.0783 3100.4849,-439.1846 3157.0243,-366 3171.9497,-346.6806 3169.6982,-316.639 3166.5011,-298.6351"/>
<polygon fill="#191970" stroke="#191970" points="2112.9701,-484.6023 2103.0783,-488.3976 2113.1778,-491.5992 2112.9701,-484.6023"/>
</g>
<!-- Node263&#45;&gt;Node181 -->
<g id="edge131" class="edge">
<title>Node263&#45;&gt;Node181</title>
<path fill="none" stroke="#191970" d="M2088.2429,-470.6854C2110.8613,-460.188 2138.8112,-446.5985 2163.0243,-433 2185.1669,-420.5644 2189.6809,-415.7621 2211.0243,-402 2230.0431,-389.7369 2251.6172,-375.8499 2267.5649,-365.5892"/>
<polygon fill="#191970" stroke="#191970" points="2086.5219,-467.6246 2078.9022,-474.986 2089.4494,-473.983 2086.5219,-467.6246"/>
</g>
<!-- Node263&#45;&gt;Node44 -->
<g id="edge123" class="edge">
<title>Node263&#45;&gt;Node44</title>
<path fill="none" stroke="#191970" d="M2051.3328,-464.8786C2060.4678,-428.3863 2077.8379,-358.5632 2092.0243,-299 2097.6092,-275.5514 2103.8361,-248.2883 2107.5903,-231.7213"/>
<polygon fill="#191970" stroke="#191970" points="2047.9152,-464.1182 2048.8793,-474.669 2054.7052,-465.8198 2047.9152,-464.1182"/>
</g>
<!-- Node263&#45;&gt;Node50 -->
<g id="edge126" class="edge">
<title>Node263&#45;&gt;Node50</title>
<path fill="none" stroke="#191970" d="M2040.3866,-464.7974C2032.4049,-421.4233 2016.3051,-333.9334 2009.8227,-298.7067"/>
<polygon fill="#191970" stroke="#191970" points="2036.978,-465.6142 2042.2301,-474.8156 2043.8624,-464.3472 2036.978,-465.6142"/>
</g>
<!-- Node263&#45;&gt;Node51 -->
<g id="edge129" class="edge">
<title>Node263&#45;&gt;Node51</title>
<path fill="none" stroke="#191970" d="M2032.4917,-465.5739C2014.5662,-432.5429 1978.8764,-373.3624 1935.0243,-335 1917.5206,-319.6874 1894.6697,-307.3447 1875.4369,-298.5853"/>
<polygon fill="#191970" stroke="#191970" points="2029.4807,-467.366 2037.2716,-474.546 2035.6586,-464.0746 2029.4807,-467.366"/>
</g>
<!-- Node263&#45;&gt;Node218 -->
<g id="edge134" class="edge">
<title>Node263&#45;&gt;Node218</title>
<path fill="none" stroke="#191970" d="M1976.5821,-481.1858C1942.7528,-477.0521 1901.2896,-472.3179 1864.0243,-469 1607.21,-446.1345 1539.9548,-471.5607 1285.0243,-433 1160.2148,-414.1214 1130.0107,-402.0018 1009.0243,-366 931.7001,-342.9907 842.2874,-309.2835 800.2426,-293"/>
<polygon fill="#191970" stroke="#191970" points="1976.4697,-484.6984 1986.8226,-482.4472 1977.3255,-477.7509 1976.4697,-484.6984"/>
</g>
<!-- Node263&#45;&gt;Node170 -->
<g id="edge127" class="edge">
<title>Node263&#45;&gt;Node170</title>
<path fill="none" stroke="#191970" d="M2105.2019,-472.1465C2109.1955,-471.055 2113.1632,-469.9964 2117.0243,-469 2187.601,-450.7867 2210.559,-462.9191 2277.0243,-433 2298.5078,-423.3293 2297.8626,-409.995 2320.0243,-402 2431.0684,-361.9398 2745.2209,-420.3308 2850.0243,-366 2878.691,-351.139 2899.4741,-318.0435 2909.756,-298.588"/>
<polygon fill="#191970" stroke="#191970" points="2103.9633,-468.8582 2095.2678,-474.9112 2105.8401,-475.6019 2103.9633,-468.8582"/>
</g>
<!-- Node263&#45;&gt;Node234 -->
<g id="edge122" class="edge">
<title>Node263&#45;&gt;Node234</title>
<path fill="none" stroke="#191970" d="M2103.7862,-472.3107C2108.2515,-471.1354 2112.701,-470.0167 2117.0243,-469 2128.2586,-466.358 2269.5778,-441.1766 2349.2605,-427.0302"/>
<polygon fill="#191970" stroke="#191970" points="2102.7641,-468.9613 2094.0287,-474.9565 2104.5962,-475.7174 2102.7641,-468.9613"/>
</g>
<!-- Node263&#45;&gt;Node246 -->
<g id="edge133" class="edge">
<title>Node263&#45;&gt;Node246</title>
<path fill="none" stroke="#191970" d="M1976.6097,-480.8571C1942.787,-476.6447 1901.3213,-471.9393 1864.0243,-469 1482.2072,-438.9093 1385.2784,-456.9084 1003.0243,-433 960.1733,-430.3199 911.8528,-426.2618 875.2038,-422.9702"/>
<polygon fill="#191970" stroke="#191970" points="1976.489,-484.3694 1986.8479,-482.146 1977.3634,-477.4243 1976.489,-484.3694"/>
</g>
</g>
</svg>
