<?xml version="1.0" encoding="UTF-8" standalone="no"?>
<!DOCTYPE svg PUBLIC "-//W3C//DTD SVG 1.1//EN"
 "http://www.w3.org/Graphics/SVG/1.1/DTD/svg11.dtd">
<!-- Generated by graphviz version 2.40.1 (20161225.0304)
 -->
<!-- Title: include/tvm/script/ir_builder/base.h Pages: 1 -->
<svg width="387pt" height="307pt"
 viewBox="0.00 0.00 386.50 307.00" xmlns="http://www.w3.org/2000/svg" xmlns:xlink="http://www.w3.org/1999/xlink">
<g id="graph0" class="graph" transform="scale(1 1) rotate(0) translate(4 303)">
<title>include/tvm/script/ir_builder/base.h</title>
<polygon fill="#ffffff" stroke="transparent" points="-4,4 -4,-303 382.5,-303 382.5,4 -4,4"/>
<!-- Node56 -->
<g id="node1" class="node">
<title>Node56</title>
<polygon fill="#bfbfbf" stroke="#000000" points="142.5,-268.5 142.5,-298.5 246.5,-298.5 246.5,-268.5 142.5,-268.5"/>
<text text-anchor="start" x="150.5" y="-286.5" font-family="Helvetica,sans-Serif" font-size="10.00" fill="#000000">include/tvm/script</text>
<text text-anchor="middle" x="194.5" y="-275.5" font-family="Helvetica,sans-Serif" font-size="10.00" fill="#000000">/ir_builder/base.h</text>
</g>
<!-- Node57 -->
<g id="node2" class="node">
<title>Node57</title>
<g id="a_node2"><a xlink:href="ir_2frame_8h.html" target="_top" xlink:title="include/tvm/script\l/ir_builder/ir/frame.h">
<polygon fill="#ffffff" stroke="#000000" points="136.5,-201.5 136.5,-231.5 252.5,-231.5 252.5,-201.5 136.5,-201.5"/>
<text text-anchor="start" x="144.5" y="-219.5" font-family="Helvetica,sans-Serif" font-size="10.00" fill="#000000">include/tvm/script</text>
<text text-anchor="middle" x="194.5" y="-208.5" font-family="Helvetica,sans-Serif" font-size="10.00" fill="#000000">/ir_builder/ir/frame.h</text>
</a>
</g>
</g>
<!-- Node56&#45;&gt;Node57 -->
<g id="edge1" class="edge">
<title>Node56&#45;&gt;Node57</title>
<path fill="none" stroke="#191970" d="M194.5,-258.0249C194.5,-249.128 194.5,-239.4287 194.5,-231.6432"/>
<polygon fill="#191970" stroke="#191970" points="191.0001,-258.2966 194.5,-268.2967 198.0001,-258.2967 191.0001,-258.2966"/>
</g>
<!-- Node59 -->
<g id="node4" class="node">
<title>Node59</title>
<g id="a_node4"><a xlink:href="relax_2frame_8h.html" target="_top" xlink:title="include/tvm/script\l/ir_builder/relax/frame.h">
<polygon fill="#ffffff" stroke="#000000" points="36.5,-67.5 36.5,-97.5 170.5,-97.5 170.5,-67.5 36.5,-67.5"/>
<text text-anchor="start" x="44.5" y="-85.5" font-family="Helvetica,sans-Serif" font-size="10.00" fill="#000000">include/tvm/script</text>
<text text-anchor="middle" x="103.5" y="-74.5" font-family="Helvetica,sans-Serif" font-size="10.00" fill="#000000">/ir_builder/relax/frame.h</text>
</a>
</g>
</g>
<!-- Node56&#45;&gt;Node59 -->
<g id="edge8" class="edge">
<title>Node56&#45;&gt;Node59</title>
<path fill="none" stroke="#191970" d="M154.5341,-263.4C120.2895,-243.6473 73.4359,-209.9433 53.5,-165 47.9134,-152.4057 48.3217,-146.7676 53.5,-134 59.4014,-119.4495 71.6061,-106.7464 82.4796,-97.5969"/>
<polygon fill="#191970" stroke="#191970" points="152.9496,-266.5241 163.3843,-268.3592 156.3715,-260.4175 152.9496,-266.5241"/>
</g>
<!-- Node60 -->
<g id="node5" class="node">
<title>Node60</title>
<g id="a_node5"><a xlink:href="relax_2ir_8h.html" target="_top" xlink:title="include/tvm/script\l/ir_builder/relax/ir.h">
<polygon fill="#ffffff" stroke="#000000" points="0,-.5 0,-30.5 111,-30.5 111,-.5 0,-.5"/>
<text text-anchor="start" x="8" y="-18.5" font-family="Helvetica,sans-Serif" font-size="10.00" fill="#000000">include/tvm/script</text>
<text text-anchor="middle" x="55.5" y="-7.5" font-family="Helvetica,sans-Serif" font-size="10.00" fill="#000000">/ir_builder/relax/ir.h</text>
</a>
</g>
</g>
<!-- Node56&#45;&gt;Node60 -->
<g id="edge9" class="edge">
<title>Node56&#45;&gt;Node60</title>
<path fill="none" stroke="#191970" d="M132.8324,-267.1973C112.2512,-259.2993 90.5088,-247.9593 74.5,-232 20.4995,-178.1663 8.7098,-140.8989 27.5,-67 30.8104,-53.9806 38.1513,-40.6952 44.4861,-30.8796"/>
<polygon fill="#191970" stroke="#191970" points="131.9018,-270.5826 142.496,-270.6954 134.2844,-264.0006 131.9018,-270.5826"/>
</g>
<!-- Node61 -->
<g id="node6" class="node">
<title>Node61</title>
<g id="a_node6"><a xlink:href="tir_2frame_8h.html" target="_top" xlink:title="include/tvm/script\l/ir_builder/tir/frame.h">
<polygon fill="#ffffff" stroke="#000000" points="222.5,-134.5 222.5,-164.5 342.5,-164.5 342.5,-134.5 222.5,-134.5"/>
<text text-anchor="start" x="230.5" y="-152.5" font-family="Helvetica,sans-Serif" font-size="10.00" fill="#000000">include/tvm/script</text>
<text text-anchor="middle" x="282.5" y="-141.5" font-family="Helvetica,sans-Serif" font-size="10.00" fill="#000000">/ir_builder/tir/frame.h</text>
</a>
</g>
</g>
<!-- Node56&#45;&gt;Node61 -->
<g id="edge10" class="edge">
<title>Node56&#45;&gt;Node61</title>
<path fill="none" stroke="#191970" d="M230.5197,-262.5891C241.9167,-254.3726 253.5911,-244.0098 261.5,-232 275.1562,-211.2629 279.9326,-182.2135 281.6027,-164.6924"/>
<polygon fill="#191970" stroke="#191970" points="228.2181,-259.922 221.9253,-268.4456 232.16,-265.7066 228.2181,-259.922"/>
</g>
<!-- Node62 -->
<g id="node7" class="node">
<title>Node62</title>
<g id="a_node7"><a xlink:href="tir_2ir_8h.html" target="_top" xlink:title="include/tvm/script\l/ir_builder/tir/ir.h">
<polygon fill="#ffffff" stroke="#000000" points="274.5,-67.5 274.5,-97.5 378.5,-97.5 378.5,-67.5 274.5,-67.5"/>
<text text-anchor="start" x="282.5" y="-85.5" font-family="Helvetica,sans-Serif" font-size="10.00" fill="#000000">include/tvm/script</text>
<text text-anchor="middle" x="326.5" y="-74.5" font-family="Helvetica,sans-Serif" font-size="10.00" fill="#000000">/ir_builder/tir/ir.h</text>
</a>
</g>
</g>
<!-- Node56&#45;&gt;Node62 -->
<g id="edge11" class="edge">
<title>Node56&#45;&gt;Node62</title>
<path fill="none" stroke="#191970" d="M242.0566,-263.8783C280.4474,-245.01 331.283,-212.3357 351.5,-165 361.1992,-142.2905 348.01,-114.5828 337.4077,-97.7538"/>
<polygon fill="#191970" stroke="#191970" points="240.1193,-260.9238 232.5906,-268.3783 243.1247,-267.2458 240.1193,-260.9238"/>
</g>
<!-- Node58 -->
<g id="node3" class="node">
<title>Node58</title>
<g id="a_node3"><a xlink:href="ir_2ir_8h.html" target="_top" xlink:title="include/tvm/script\l/ir_builder/ir/ir.h">
<polygon fill="#ffffff" stroke="#000000" points="62.5,-134.5 62.5,-164.5 166.5,-164.5 166.5,-134.5 62.5,-134.5"/>
<text text-anchor="start" x="70.5" y="-152.5" font-family="Helvetica,sans-Serif" font-size="10.00" fill="#000000">include/tvm/script</text>
<text text-anchor="middle" x="114.5" y="-141.5" font-family="Helvetica,sans-Serif" font-size="10.00" fill="#000000">/ir_builder/ir/ir.h</text>
</a>
</g>
</g>
<!-- Node57&#45;&gt;Node58 -->
<g id="edge2" class="edge">
<title>Node57&#45;&gt;Node58</title>
<path fill="none" stroke="#191970" d="M168.5667,-194.7808C156.8144,-184.9383 143.2056,-173.541 132.5814,-164.6432"/>
<polygon fill="#191970" stroke="#191970" points="166.433,-197.5592 176.3468,-201.2967 170.9275,-192.1927 166.433,-197.5592"/>
</g>
<!-- Node57&#45;&gt;Node59 -->
<g id="edge5" class="edge">
<title>Node57&#45;&gt;Node59</title>
<path fill="none" stroke="#191970" d="M193.3292,-191.2522C191.4703,-173.9001 186.8448,-151.0127 175.5,-134 165.2683,-118.6564 148.8085,-106.3815 134.2076,-97.6698"/>
<polygon fill="#191970" stroke="#191970" points="189.8431,-191.5656 194.1645,-201.2391 196.8188,-190.9821 189.8431,-191.5656"/>
</g>
<!-- Node57&#45;&gt;Node61 -->
<g id="edge6" class="edge">
<title>Node57&#45;&gt;Node61</title>
<path fill="none" stroke="#191970" d="M222.6543,-195.0643C235.666,-185.1577 250.8114,-173.6265 262.6105,-164.6432"/>
<polygon fill="#191970" stroke="#191970" points="220.3048,-192.4542 214.4686,-201.2967 224.5452,-198.0237 220.3048,-192.4542"/>
</g>
<!-- Node58&#45;&gt;Node59 -->
<g id="edge3" class="edge">
<title>Node58&#45;&gt;Node59</title>
<path fill="none" stroke="#191970" d="M110.3656,-124.3179C108.8919,-115.3414 107.2785,-105.5143 105.9862,-97.6432"/>
<polygon fill="#191970" stroke="#191970" points="106.93,-124.9958 112.0039,-134.2967 113.8375,-123.8617 106.93,-124.9958"/>
</g>
<!-- Node59&#45;&gt;Node60 -->
<g id="edge4" class="edge">
<title>Node59&#45;&gt;Node60</title>
<path fill="none" stroke="#191970" d="M86.709,-59.0626C79.9524,-49.6315 72.3556,-39.0276 66.3488,-30.6432"/>
<polygon fill="#191970" stroke="#191970" points="83.939,-61.2059 92.6081,-67.2967 89.6294,-57.1292 83.939,-61.2059"/>
</g>
<!-- Node61&#45;&gt;Node62 -->
<g id="edge7" class="edge">
<title>Node61&#45;&gt;Node62</title>
<path fill="none" stroke="#191970" d="M298.0816,-125.7735C304.2272,-116.4154 311.1052,-105.9421 316.5552,-97.6432"/>
<polygon fill="#191970" stroke="#191970" points="295.0481,-124.0167 292.4843,-134.2967 300.8992,-127.8592 295.0481,-124.0167"/>
</g>
</g>
</svg>
