<?xml version="1.0" encoding="UTF-8" standalone="no"?>
<!DOCTYPE svg PUBLIC "-//W3C//DTD SVG 1.1//EN"
 "http://www.w3.org/Graphics/SVG/1.1/DTD/svg11.dtd">
<!-- Generated by graphviz version 2.40.1 (20161225.0304)
 -->
<!-- Title: include/tvm/relax/struct_info.h Pages: 1 -->
<svg width="773pt" height="173pt"
 viewBox="0.00 0.00 773.00 173.00" xmlns="http://www.w3.org/2000/svg" xmlns:xlink="http://www.w3.org/1999/xlink">
<g id="graph0" class="graph" transform="scale(1 1) rotate(0) translate(4 169)">
<title>include/tvm/relax/struct_info.h</title>
<polygon fill="#ffffff" stroke="transparent" points="-4,4 -4,-169 769,-169 769,4 -4,4"/>
<!-- Node90 -->
<g id="node1" class="node">
<title>Node90</title>
<polygon fill="#bfbfbf" stroke="#000000" points="287,-134.5 287,-164.5 420,-164.5 420,-134.5 287,-134.5"/>
<text text-anchor="start" x="295" y="-152.5" font-family="Helvetica,sans-Serif" font-size="10.00" fill="#000000">include/tvm/relax/struct</text>
<text text-anchor="middle" x="353.5" y="-141.5" font-family="Helvetica,sans-Serif" font-size="10.00" fill="#000000">_info.h</text>
</g>
<!-- Node91 -->
<g id="node2" class="node">
<title>Node91</title>
<g id="a_node2"><a xlink:href="relax_2analysis_8h.html" target="_top" xlink:title="The set of Relax specific analysis on IR. ">
<polygon fill="#ffffff" stroke="#000000" points="0,-73 0,-92 155,-92 155,-73 0,-73"/>
<text text-anchor="middle" x="77.5" y="-80" font-family="Helvetica,sans-Serif" font-size="10.00" fill="#000000">include/tvm/relax/analysis.h</text>
</a>
</g>
</g>
<!-- Node90&#45;&gt;Node91 -->
<g id="edge1" class="edge">
<title>Node90&#45;&gt;Node91</title>
<path fill="none" stroke="#191970" d="M281.5986,-132.0457C228.9327,-119.2608 159.4508,-102.3939 116.6561,-92.0053"/>
<polygon fill="#191970" stroke="#191970" points="281.0168,-135.506 291.5602,-134.4639 282.6681,-128.7036 281.0168,-135.506"/>
</g>
<!-- Node93 -->
<g id="node4" class="node">
<title>Node93</title>
<g id="a_node4"><a xlink:href="relax_2expr__functor_8h.html" target="_top" xlink:title="A more powerful visitor which enables defining arbitrary function signatures with type based dispatch...">
<polygon fill="#ffffff" stroke="#000000" points="336,-.5 336,-30.5 463,-30.5 463,-.5 336,-.5"/>
<text text-anchor="start" x="344" y="-18.5" font-family="Helvetica,sans-Serif" font-size="10.00" fill="#000000">include/tvm/relax/expr</text>
<text text-anchor="middle" x="399.5" y="-7.5" font-family="Helvetica,sans-Serif" font-size="10.00" fill="#000000">_functor.h</text>
</a>
</g>
</g>
<!-- Node90&#45;&gt;Node93 -->
<g id="edge3" class="edge">
<title>Node90&#45;&gt;Node93</title>
<path fill="none" stroke="#191970" d="M276.8886,-135.4702C227.2063,-122.8667 176.2261,-101.0254 202.5,-67 218.8393,-45.8402 284.6379,-31.7067 335.7492,-23.6831"/>
<polygon fill="#191970" stroke="#191970" points="276.2415,-138.9146 286.7845,-137.8686 277.8903,-132.1116 276.2415,-138.9146"/>
</g>
<!-- Node94 -->
<g id="node5" class="node">
<title>Node94</title>
<g id="a_node5"><a xlink:href="nested__msg_8h.html" target="_top" xlink:title="Helper container to store nested message for robust tuple&#45;aware analysis. ">
<polygon fill="#ffffff" stroke="#000000" points="211.5,-67.5 211.5,-97.5 349.5,-97.5 349.5,-67.5 211.5,-67.5"/>
<text text-anchor="start" x="219.5" y="-85.5" font-family="Helvetica,sans-Serif" font-size="10.00" fill="#000000">include/tvm/relax/nested</text>
<text text-anchor="middle" x="280.5" y="-74.5" font-family="Helvetica,sans-Serif" font-size="10.00" fill="#000000">_msg.h</text>
</a>
</g>
</g>
<!-- Node90&#45;&gt;Node94 -->
<g id="edge4" class="edge">
<title>Node90&#45;&gt;Node94</title>
<path fill="none" stroke="#191970" d="M329.526,-127.4965C318.8733,-117.7193 306.6007,-106.4554 296.9993,-97.6432"/>
<polygon fill="#191970" stroke="#191970" points="327.2011,-130.1134 336.9352,-134.2967 331.9344,-124.9562 327.2011,-130.1134"/>
</g>
<!-- Node95 -->
<g id="node6" class="node">
<title>Node95</title>
<g id="a_node6"><a xlink:href="relax_2op__attr__types_8h.html" target="_top" xlink:title="Data structures that can appear in operator attributes. ">
<polygon fill="#ffffff" stroke="#000000" points="368,-67.5 368,-97.5 485,-97.5 485,-67.5 368,-67.5"/>
<text text-anchor="start" x="376" y="-85.5" font-family="Helvetica,sans-Serif" font-size="10.00" fill="#000000">include/tvm/relax/op</text>
<text text-anchor="middle" x="426.5" y="-74.5" font-family="Helvetica,sans-Serif" font-size="10.00" fill="#000000">_attr_types.h</text>
</a>
</g>
</g>
<!-- Node90&#45;&gt;Node95 -->
<g id="edge5" class="edge">
<title>Node90&#45;&gt;Node95</title>
<path fill="none" stroke="#191970" d="M377.474,-127.4965C388.1267,-117.7193 400.3993,-106.4554 410.0007,-97.6432"/>
<polygon fill="#191970" stroke="#191970" points="375.0656,-124.9562 370.0648,-134.2967 379.7989,-130.1134 375.0656,-124.9562"/>
</g>
<!-- Node96 -->
<g id="node7" class="node">
<title>Node96</title>
<g id="a_node7"><a xlink:href="struct__info__functor_8h.html" target="_top" xlink:title="Functors and visitors for struct info. ">
<polygon fill="#ffffff" stroke="#000000" points="503,-67.5 503,-97.5 636,-97.5 636,-67.5 503,-67.5"/>
<text text-anchor="start" x="511" y="-85.5" font-family="Helvetica,sans-Serif" font-size="10.00" fill="#000000">include/tvm/relax/struct</text>
<text text-anchor="middle" x="569.5" y="-74.5" font-family="Helvetica,sans-Serif" font-size="10.00" fill="#000000">_info_functor.h</text>
</a>
</g>
</g>
<!-- Node90&#45;&gt;Node96 -->
<g id="edge6" class="edge">
<title>Node90&#45;&gt;Node96</title>
<path fill="none" stroke="#191970" d="M411.8126,-131.4123C445.9292,-120.8298 488.5048,-107.6235 520.814,-97.6017"/>
<polygon fill="#191970" stroke="#191970" points="410.4888,-128.1583 401.9746,-134.4639 412.5626,-134.8441 410.4888,-128.1583"/>
</g>
<!-- Node97 -->
<g id="node8" class="node">
<title>Node97</title>
<g id="a_node8"><a xlink:href="relax_2ir_8h.html" target="_top" xlink:title="include/tvm/script\l/ir_builder/relax/ir.h">
<polygon fill="#ffffff" stroke="#000000" points="654,-67.5 654,-97.5 765,-97.5 765,-67.5 654,-67.5"/>
<text text-anchor="start" x="662" y="-85.5" font-family="Helvetica,sans-Serif" font-size="10.00" fill="#000000">include/tvm/script</text>
<text text-anchor="middle" x="709.5" y="-74.5" font-family="Helvetica,sans-Serif" font-size="10.00" fill="#000000">/ir_builder/relax/ir.h</text>
</a>
</g>
</g>
<!-- Node90&#45;&gt;Node97 -->
<g id="edge8" class="edge">
<title>Node90&#45;&gt;Node97</title>
<path fill="none" stroke="#191970" d="M430.1165,-137.3433C489.1622,-127.6472 572.7422,-113.2109 645.5,-98 648.1857,-97.4385 650.9303,-96.8461 653.6992,-96.2334"/>
<polygon fill="#191970" stroke="#191970" points="429.426,-133.9097 420.122,-138.9778 430.5558,-140.8179 429.426,-133.9097"/>
</g>
<!-- Node92 -->
<g id="node3" class="node">
<title>Node92</title>
<g id="a_node3"><a xlink:href="binding__rewrite_8h.html" target="_top" xlink:title="An IR rewriter to easily add/remove/replace bindings (statements). ">
<polygon fill="#ffffff" stroke="#000000" points="7,-.5 7,-30.5 148,-30.5 148,-.5 7,-.5"/>
<text text-anchor="start" x="15" y="-18.5" font-family="Helvetica,sans-Serif" font-size="10.00" fill="#000000">include/tvm/relax/binding</text>
<text text-anchor="middle" x="77.5" y="-7.5" font-family="Helvetica,sans-Serif" font-size="10.00" fill="#000000">_rewrite.h</text>
</a>
</g>
</g>
<!-- Node91&#45;&gt;Node92 -->
<g id="edge2" class="edge">
<title>Node91&#45;&gt;Node92</title>
<path fill="none" stroke="#191970" d="M77.5,-62.7758C77.5,-52.4641 77.5,-40.0437 77.5,-30.5218"/>
<polygon fill="#191970" stroke="#191970" points="74.0001,-62.9005 77.5,-72.9005 81.0001,-62.9006 74.0001,-62.9005"/>
</g>
<!-- Node96&#45;&gt;Node93 -->
<g id="edge7" class="edge">
<title>Node96&#45;&gt;Node93</title>
<path fill="none" stroke="#191970" d="M521.8682,-63.7275C495.3204,-53.2645 462.7005,-40.4084 437.8177,-30.6017"/>
<polygon fill="#191970" stroke="#191970" points="520.7618,-67.0534 531.3487,-67.4639 523.3285,-60.5409 520.7618,-67.0534"/>
</g>
</g>
</svg>
