<?xml version="1.0" encoding="UTF-8" standalone="no"?>
<!DOCTYPE svg PUBLIC "-//W3C//DTD SVG 1.1//EN"
 "http://www.w3.org/Graphics/SVG/1.1/DTD/svg11.dtd">
<!-- Generated by graphviz version 2.40.1 (20161225.0304)
 -->
<!-- Title: include/tvm/relax/struct_info_functor.h Pages: 1 -->
<svg width="3373pt" height="968pt"
 viewBox="0.00 0.00 3373.00 968.00" xmlns="http://www.w3.org/2000/svg" xmlns:xlink="http://www.w3.org/1999/xlink">
<g id="graph0" class="graph" transform="scale(1 1) rotate(0) translate(4 964)">
<title>include/tvm/relax/struct_info_functor.h</title>
<polygon fill="#ffffff" stroke="transparent" points="-4,4 -4,-964 3369,-964 3369,4 -4,4"/>
<!-- Node0 -->
<g id="node1" class="node">
<title>Node0</title>
<polygon fill="#bfbfbf" stroke="#000000" points="170.5,-929.5 170.5,-959.5 303.5,-959.5 303.5,-929.5 170.5,-929.5"/>
<text text-anchor="start" x="178.5" y="-947.5" font-family="Helvetica,sans-Serif" font-size="10.00" fill="#000000">include/tvm/relax/struct</text>
<text text-anchor="middle" x="237" y="-936.5" font-family="Helvetica,sans-Serif" font-size="10.00" fill="#000000">_info_functor.h</text>
</g>
<!-- Node1 -->
<g id="node2" class="node">
<title>Node1</title>
<g id="a_node2"><a xlink:href="functor_8h.html" target="_top" xlink:title="Defines the Functor data structures. ">
<polygon fill="#ffffff" stroke="#000000" points="500.5,-185 500.5,-204 609.5,-204 609.5,-185 500.5,-185"/>
<text text-anchor="middle" x="555" y="-192" font-family="Helvetica,sans-Serif" font-size="10.00" fill="#000000">tvm/node/functor.h</text>
</a>
</g>
</g>
<!-- Node0&#45;&gt;Node1 -->
<g id="edge1" class="edge">
<title>Node0&#45;&gt;Node1</title>
<path fill="none" stroke="#191970" d="M237,-929.2899C237,-906.892 237,-863.7188 237,-827 237,-827 237,-827 237,-547 237,-375.4832 447.1308,-249.8867 525.7663,-208.8906"/>
<polygon fill="#191970" stroke="#191970" points="527.8082,-211.7768 535.1077,-204.0977 524.6127,-205.5487 527.8082,-211.7768"/>
</g>
<!-- Node11 -->
<g id="node12" class="node">
<title>Node11</title>
<polygon fill="#ffffff" stroke="#bfbfbf" points="487.5,-62 487.5,-81 532.5,-81 532.5,-62 487.5,-62"/>
<text text-anchor="middle" x="510" y="-69" font-family="Helvetica,sans-Serif" font-size="10.00" fill="#000000">utility</text>
</g>
<!-- Node0&#45;&gt;Node11 -->
<g id="edge188" class="edge">
<title>Node0&#45;&gt;Node11</title>
<path fill="none" stroke="#191970" d="M183.221,-929.4489C113.2961,-908.2548 0,-867.6437 0,-827 0,-827 0,-827 0,-194.5 0,-95.8984 364.8117,-76.1002 477.3457,-72.3386"/>
<polygon fill="#191970" stroke="#191970" points="477.5425,-75.8343 487.4279,-72.0226 477.3231,-68.8377 477.5425,-75.8343"/>
</g>
<!-- Node14 -->
<g id="node15" class="node">
<title>Node14</title>
<g id="a_node15"><a xlink:href="struct__info_8h.html" target="_top" xlink:title="tvm/relax/struct_info.h">
<polygon fill="#ffffff" stroke="#000000" points="1314,-873.5 1314,-892.5 1442,-892.5 1442,-873.5 1314,-873.5"/>
<text text-anchor="middle" x="1378" y="-880.5" font-family="Helvetica,sans-Serif" font-size="10.00" fill="#000000">tvm/relax/struct_info.h</text>
</a>
</g>
</g>
<!-- Node0&#45;&gt;Node14 -->
<g id="edge16" class="edge">
<title>Node0&#45;&gt;Node14</title>
<path fill="none" stroke="#191970" d="M303.6953,-940.9051C503.1468,-930.1547 1094.131,-898.3006 1303.4658,-887.0174"/>
<polygon fill="#191970" stroke="#191970" points="1303.9405,-890.497 1313.7376,-886.4637 1303.5637,-883.5071 1303.9405,-890.497"/>
</g>
<!-- Node2 -->
<g id="node3" class="node">
<title>Node2</title>
<polygon fill="#ffffff" stroke="#bfbfbf" points="576.5,-123.5 576.5,-142.5 665.5,-142.5 665.5,-123.5 576.5,-123.5"/>
<text text-anchor="middle" x="621" y="-130.5" font-family="Helvetica,sans-Serif" font-size="10.00" fill="#000000">dmlc/logging.h</text>
</g>
<!-- Node1&#45;&gt;Node2 -->
<g id="edge2" class="edge">
<title>Node1&#45;&gt;Node2</title>
<path fill="none" stroke="#191970" d="M565.3125,-184.8906C575.4242,-175.4683 591.0442,-160.9134 603.1707,-149.6137"/>
<polygon fill="#191970" stroke="#191970" points="605.612,-152.1228 610.5421,-142.7449 600.8399,-147.0015 605.612,-152.1228"/>
</g>
<!-- Node3 -->
<g id="node4" class="node">
<title>Node3</title>
<g id="a_node4"><a xlink:href="object_8h.html" target="_top" xlink:title="A managed object in the TVM runtime. ">
<polygon fill="#ffffff" stroke="#000000" points="1365.5,-123.5 1365.5,-142.5 1484.5,-142.5 1484.5,-123.5 1365.5,-123.5"/>
<text text-anchor="middle" x="1425" y="-130.5" font-family="Helvetica,sans-Serif" font-size="10.00" fill="#000000">tvm/runtime/object.h</text>
</a>
</g>
</g>
<!-- Node1&#45;&gt;Node3 -->
<g id="edge3" class="edge">
<title>Node1&#45;&gt;Node3</title>
<path fill="none" stroke="#191970" d="M588.7747,-184.976C598.1677,-182.6602 608.4207,-180.4389 618,-179 689.8029,-168.2149 1172.9518,-144.8032 1355.4149,-136.2298"/>
<polygon fill="#191970" stroke="#191970" points="1355.6114,-139.7245 1365.4364,-135.7596 1355.2833,-132.7322 1355.6114,-139.7245"/>
</g>
<!-- Node10 -->
<g id="node11" class="node">
<title>Node10</title>
<polygon fill="#ffffff" stroke="#bfbfbf" points="1192.5,-62 1192.5,-81 1261.5,-81 1261.5,-62 1192.5,-62"/>
<text text-anchor="middle" x="1227" y="-69" font-family="Helvetica,sans-Serif" font-size="10.00" fill="#000000">type_traits</text>
</g>
<!-- Node1&#45;&gt;Node10 -->
<g id="edge13" class="edge">
<title>Node1&#45;&gt;Node10</title>
<path fill="none" stroke="#191970" d="M586.1093,-184.9173C636.3288,-169.7675 738.5799,-140.2388 827,-123 954.5657,-98.1292 1107.4379,-82.2493 1181.851,-75.3977"/>
<polygon fill="#191970" stroke="#191970" points="1182.6064,-78.8436 1192.2484,-74.4524 1181.9725,-71.8723 1182.6064,-78.8436"/>
</g>
<!-- Node1&#45;&gt;Node11 -->
<g id="edge14" class="edge">
<title>Node1&#45;&gt;Node11</title>
<path fill="none" stroke="#191970" d="M551.4689,-184.8484C544.0426,-164.5499 526.6915,-117.1235 516.9505,-90.4981"/>
<polygon fill="#191970" stroke="#191970" points="520.2375,-89.2954 513.5147,-81.1068 513.6636,-91.7006 520.2375,-89.2954"/>
</g>
<!-- Node13 -->
<g id="node14" class="node">
<title>Node13</title>
<polygon fill="#ffffff" stroke="#bfbfbf" points="1679.5,-123.5 1679.5,-142.5 1726.5,-142.5 1726.5,-123.5 1679.5,-123.5"/>
<text text-anchor="middle" x="1703" y="-130.5" font-family="Helvetica,sans-Serif" font-size="10.00" fill="#000000">vector</text>
</g>
<!-- Node1&#45;&gt;Node13 -->
<g id="edge15" class="edge">
<title>Node1&#45;&gt;Node13</title>
<path fill="none" stroke="#191970" d="M588.4327,-184.9565C597.9144,-182.6107 608.2981,-180.3789 618,-179 1003.3454,-124.2326 1104.1648,-160.2567 1493,-143 1555.2238,-140.2385 1627.803,-136.7152 1669.284,-134.6727"/>
<polygon fill="#191970" stroke="#191970" points="1669.5669,-138.1631 1679.3823,-134.1745 1669.2219,-131.1716 1669.5669,-138.1631"/>
</g>
<!-- Node4 -->
<g id="node5" class="node">
<title>Node4</title>
<g id="a_node5"><a xlink:href="c__runtime__api_8h.html" target="_top" xlink:title="tvm/runtime/c_runtime\l_api.h">
<polygon fill="#ffffff" stroke="#000000" points="2048.5,-56.5 2048.5,-86.5 2177.5,-86.5 2177.5,-56.5 2048.5,-56.5"/>
<text text-anchor="start" x="2056.5" y="-74.5" font-family="Helvetica,sans-Serif" font-size="10.00" fill="#000000">tvm/runtime/c_runtime</text>
<text text-anchor="middle" x="2113" y="-63.5" font-family="Helvetica,sans-Serif" font-size="10.00" fill="#000000">_api.h</text>
</a>
</g>
</g>
<!-- Node3&#45;&gt;Node4 -->
<g id="edge4" class="edge">
<title>Node3&#45;&gt;Node4</title>
<path fill="none" stroke="#191970" d="M1484.5526,-127.6766C1609.9489,-116.4675 1900.9376,-90.4562 2038.4557,-78.1635"/>
<polygon fill="#191970" stroke="#191970" points="2038.8379,-81.6434 2048.4865,-77.2668 2038.2146,-74.6712 2038.8379,-81.6434"/>
</g>
<!-- Node8 -->
<g id="node9" class="node">
<title>Node8</title>
<polygon fill="#ffffff" stroke="#bfbfbf" points="2313.5,-62 2313.5,-81 2438.5,-81 2438.5,-62 2313.5,-62"/>
<text text-anchor="middle" x="2376" y="-69" font-family="Helvetica,sans-Serif" font-size="10.00" fill="#000000">tvm/runtime/logging.h</text>
</g>
<!-- Node3&#45;&gt;Node8 -->
<g id="edge8" class="edge">
<title>Node3&#45;&gt;Node8</title>
<path fill="none" stroke="#191970" d="M1484.7972,-129.8293C1613.3505,-122.9162 1925.5784,-105.6082 2187,-87 2225.4075,-84.2661 2268.1692,-80.7951 2303.2903,-77.8311"/>
<polygon fill="#191970" stroke="#191970" points="2303.7875,-81.3016 2313.4561,-76.9693 2303.1961,-74.3266 2303.7875,-81.3016"/>
</g>
<!-- Node9 -->
<g id="node10" class="node">
<title>Node9</title>
<polygon fill="#ffffff" stroke="#bfbfbf" points="2982,-62 2982,-81 3026,-81 3026,-62 2982,-62"/>
<text text-anchor="middle" x="3004" y="-69" font-family="Helvetica,sans-Serif" font-size="10.00" fill="#000000">string</text>
</g>
<!-- Node3&#45;&gt;Node9 -->
<g id="edge9" class="edge">
<title>Node3&#45;&gt;Node9</title>
<path fill="none" stroke="#191970" d="M1484.6571,-130.5282C1534.266,-128.4816 1606.7268,-125.5126 1670,-123 2189.6464,-102.3643 2823.2051,-78.3379 2971.7649,-72.7182"/>
<polygon fill="#191970" stroke="#191970" points="2972.1369,-76.2067 2981.9974,-72.3312 2971.8723,-69.2117 2972.1369,-76.2067"/>
</g>
<!-- Node3&#45;&gt;Node10 -->
<g id="edge10" class="edge">
<title>Node3&#45;&gt;Node10</title>
<path fill="none" stroke="#191970" d="M1394.0625,-123.3906C1359.9163,-112.7846 1304.8326,-95.6753 1267.3265,-84.0257"/>
<polygon fill="#191970" stroke="#191970" points="1268.3084,-80.6658 1257.7203,-81.0419 1266.232,-87.3507 1268.3084,-80.6658"/>
</g>
<!-- Node3&#45;&gt;Node11 -->
<g id="edge11" class="edge">
<title>Node3&#45;&gt;Node11</title>
<path fill="none" stroke="#191970" d="M1365.3173,-128.9885C1189.5336,-117.1736 677.615,-82.7659 542.8351,-73.7069"/>
<polygon fill="#191970" stroke="#191970" points="542.9412,-70.2063 532.729,-73.0277 542.4717,-77.1905 542.9412,-70.2063"/>
</g>
<!-- Node12 -->
<g id="node13" class="node">
<title>Node12</title>
<polygon fill="#ffffff" stroke="#bfbfbf" points="1679,-62 1679,-81 1729,-81 1729,-62 1679,-62"/>
<text text-anchor="middle" x="1704" y="-69" font-family="Helvetica,sans-Serif" font-size="10.00" fill="#000000">atomic</text>
</g>
<!-- Node3&#45;&gt;Node12 -->
<g id="edge12" class="edge">
<title>Node3&#45;&gt;Node12</title>
<path fill="none" stroke="#191970" d="M1468.2876,-123.4581C1523.5603,-111.2744 1618.1232,-90.4298 1669.056,-79.2027"/>
<polygon fill="#191970" stroke="#191970" points="1669.9224,-82.5958 1678.9345,-77.0252 1668.4155,-75.7599 1669.9224,-82.5958"/>
</g>
<!-- Node5 -->
<g id="node6" class="node">
<title>Node5</title>
<polygon fill="#ffffff" stroke="#bfbfbf" points="1973.5,-.5 1973.5,-19.5 2066.5,-19.5 2066.5,-.5 1973.5,-.5"/>
<text text-anchor="middle" x="2020" y="-7.5" font-family="Helvetica,sans-Serif" font-size="10.00" fill="#000000">dlpack/dlpack.h</text>
</g>
<!-- Node4&#45;&gt;Node5 -->
<g id="edge5" class="edge">
<title>Node4&#45;&gt;Node5</title>
<path fill="none" stroke="#191970" d="M2090.0112,-56.2977C2075.8034,-46.9022 2057.6215,-34.8787 2043.3475,-25.4395"/>
<polygon fill="#191970" stroke="#191970" points="2044.8845,-22.2598 2034.6128,-19.6633 2041.0233,-28.0986 2044.8845,-22.2598"/>
</g>
<!-- Node6 -->
<g id="node7" class="node">
<title>Node6</title>
<polygon fill="#ffffff" stroke="#bfbfbf" points="2085,-.5 2085,-19.5 2141,-19.5 2141,-.5 2085,-.5"/>
<text text-anchor="middle" x="2113" y="-7.5" font-family="Helvetica,sans-Serif" font-size="10.00" fill="#000000">stddef.h</text>
</g>
<!-- Node4&#45;&gt;Node6 -->
<g id="edge6" class="edge">
<title>Node4&#45;&gt;Node6</title>
<path fill="none" stroke="#191970" d="M2113,-56.2977C2113,-48.3834 2113,-38.6043 2113,-30.0759"/>
<polygon fill="#191970" stroke="#191970" points="2116.5001,-29.8469 2113,-19.8469 2109.5001,-29.847 2116.5001,-29.8469"/>
</g>
<!-- Node7 -->
<g id="node8" class="node">
<title>Node7</title>
<polygon fill="#ffffff" stroke="#bfbfbf" points="2159.5,-.5 2159.5,-19.5 2212.5,-19.5 2212.5,-.5 2159.5,-.5"/>
<text text-anchor="middle" x="2186" y="-7.5" font-family="Helvetica,sans-Serif" font-size="10.00" fill="#000000">stdint.h</text>
</g>
<!-- Node4&#45;&gt;Node7 -->
<g id="edge7" class="edge">
<title>Node4&#45;&gt;Node7</title>
<path fill="none" stroke="#191970" d="M2131.0449,-56.2977C2141.8114,-47.2274 2155.4851,-35.7077 2166.4995,-26.4285"/>
<polygon fill="#191970" stroke="#191970" points="2168.9191,-28.9667 2174.3118,-19.8469 2164.4089,-23.6132 2168.9191,-28.9667"/>
</g>
<!-- Node15 -->
<g id="node16" class="node">
<title>Node15</title>
<g id="a_node16"><a xlink:href="env__func_8h.html" target="_top" xlink:title="Serializable global function used in IR. ">
<polygon fill="#ffffff" stroke="#000000" points="1729,-537.5 1729,-556.5 1831,-556.5 1831,-537.5 1729,-537.5"/>
<text text-anchor="middle" x="1780" y="-544.5" font-family="Helvetica,sans-Serif" font-size="10.00" fill="#000000">tvm/ir/env_func.h</text>
</a>
</g>
</g>
<!-- Node14&#45;&gt;Node15 -->
<g id="edge17" class="edge">
<title>Node14&#45;&gt;Node15</title>
<path fill="none" stroke="#191970" d="M1442.0877,-875.4154C1577.8338,-858.4814 1882,-815.5651 1882,-771 1882,-771 1882,-771 1882,-659 1882,-614.6687 1837.7776,-580.1591 1807.5691,-561.7571"/>
<polygon fill="#191970" stroke="#191970" points="1809.1066,-558.6016 1798.7084,-556.5702 1805.5703,-564.6426 1809.1066,-558.6016"/>
</g>
<!-- Node46 -->
<g id="node31" class="node">
<title>Node46</title>
<g id="a_node31"><a xlink:href="ir_2span_8h.html" target="_top" xlink:title="Span information for debugging purposes. ">
<polygon fill="#ffffff" stroke="#000000" points="1403.5,-425.5 1403.5,-444.5 1484.5,-444.5 1484.5,-425.5 1403.5,-425.5"/>
<text text-anchor="middle" x="1444" y="-432.5" font-family="Helvetica,sans-Serif" font-size="10.00" fill="#000000">tvm/ir/span.h</text>
</a>
</g>
</g>
<!-- Node14&#45;&gt;Node46 -->
<g id="edge78" class="edge">
<title>Node14&#45;&gt;Node46</title>
<path fill="none" stroke="#191970" d="M1384.0751,-873.2297C1395.265,-854.2713 1418,-810.8493 1418,-771 1418,-771 1418,-771 1418,-659 1418,-583.1026 1432.9102,-493.6987 1440.1483,-454.7696"/>
<polygon fill="#191970" stroke="#191970" points="1443.6185,-455.2557 1442.0458,-444.7783 1436.7414,-453.9496 1443.6185,-455.2557"/>
</g>
<!-- Node47 -->
<g id="node32" class="node">
<title>Node47</title>
<g id="a_node32"><a xlink:href="node_8h.html" target="_top" xlink:title="Definitions and helper macros for IR/AST nodes. ">
<polygon fill="#ffffff" stroke="#000000" points="1314.5,-369.5 1314.5,-388.5 1413.5,-388.5 1413.5,-369.5 1314.5,-369.5"/>
<text text-anchor="middle" x="1364" y="-376.5" font-family="Helvetica,sans-Serif" font-size="10.00" fill="#000000">tvm/node/node.h</text>
</a>
</g>
</g>
<!-- Node14&#45;&gt;Node47 -->
<g id="edge95" class="edge">
<title>Node14&#45;&gt;Node47</title>
<path fill="none" stroke="#191970" d="M1369.513,-873.4714C1334.6459,-833.136 1206.2847,-672.3 1250,-537 1269.0251,-478.1169 1319.0758,-422.7047 1346.0938,-395.8728"/>
<polygon fill="#191970" stroke="#191970" points="1348.6478,-398.271 1353.3696,-388.7865 1343.7638,-393.2564 1348.6478,-398.271"/>
</g>
<!-- Node50 -->
<g id="node35" class="node">
<title>Node50</title>
<g id="a_node35"><a xlink:href="block__builder_8h.html" target="_top" xlink:title="The utility for constructing Relax binding blocks. ">
<polygon fill="#ffffff" stroke="#000000" points="1078,-817.5 1078,-836.5 1218,-836.5 1218,-817.5 1078,-817.5"/>
<text text-anchor="middle" x="1148" y="-824.5" font-family="Helvetica,sans-Serif" font-size="10.00" fill="#000000">tvm/relax/block_builder.h</text>
</a>
</g>
</g>
<!-- Node14&#45;&gt;Node50 -->
<g id="edge96" class="edge">
<title>Node14&#45;&gt;Node50</title>
<path fill="none" stroke="#191970" d="M1338.7229,-873.4369C1299.5256,-863.8932 1239.2,-849.2052 1196.9165,-838.9101"/>
<polygon fill="#191970" stroke="#191970" points="1197.6592,-835.4888 1187.1151,-836.5237 1196.0032,-842.2901 1197.6592,-835.4888"/>
</g>
<!-- Node60 -->
<g id="node42" class="node">
<title>Node60</title>
<g id="a_node42"><a xlink:href="relax_2expr_8h.html" target="_top" xlink:title="tvm/relax/expr.h">
<polygon fill="#ffffff" stroke="#000000" points="1099.5,-761.5 1099.5,-780.5 1196.5,-780.5 1196.5,-761.5 1099.5,-761.5"/>
<text text-anchor="middle" x="1148" y="-768.5" font-family="Helvetica,sans-Serif" font-size="10.00" fill="#000000">tvm/relax/expr.h</text>
</a>
</g>
</g>
<!-- Node14&#45;&gt;Node60 -->
<g id="edge186" class="edge">
<title>Node14&#45;&gt;Node60</title>
<path fill="none" stroke="#191970" d="M1358.3903,-873.4509C1317.7376,-853.6548 1224.1183,-808.0663 1176.6756,-784.9638"/>
<polygon fill="#191970" stroke="#191970" points="1178.0831,-781.7563 1167.56,-780.5249 1175.0184,-788.0498 1178.0831,-781.7563"/>
</g>
<!-- Node61 -->
<g id="node43" class="node">
<title>Node61</title>
<g id="a_node43"><a xlink:href="relax_2type_8h.html" target="_top" xlink:title="Relax Types. ">
<polygon fill="#ffffff" stroke="#000000" points="1598,-705.5 1598,-724.5 1696,-724.5 1696,-705.5 1598,-705.5"/>
<text text-anchor="middle" x="1647" y="-712.5" font-family="Helvetica,sans-Serif" font-size="10.00" fill="#000000">tvm/relax/type.h</text>
</a>
</g>
</g>
<!-- Node14&#45;&gt;Node61 -->
<g id="edge187" class="edge">
<title>Node14&#45;&gt;Node61</title>
<path fill="none" stroke="#191970" d="M1393.2333,-873.4862C1437.8859,-845.5991 1568.7134,-763.8927 1622.982,-730.0001"/>
<polygon fill="#191970" stroke="#191970" points="1624.9726,-732.8835 1631.6003,-724.6177 1621.2645,-726.9462 1624.9726,-732.8835"/>
</g>
<!-- Node15&#45;&gt;Node9 -->
<g id="edge76" class="edge">
<title>Node15&#45;&gt;Node9</title>
<path fill="none" stroke="#191970" d="M1831.2493,-545.5041C1983.5612,-540.8265 2431.8256,-525.3212 2576,-501 2845.6902,-455.5052 2930.3682,-468.402 3168,-333 3252.2327,-285.0044 3287.3483,-198.8736 3227,-123 3203.5311,-93.4935 3092.3166,-79.433 3036.3422,-74.1326"/>
<polygon fill="#191970" stroke="#191970" points="3036.5221,-70.6347 3026.2463,-73.2152 3035.8885,-77.6059 3036.5221,-70.6347"/>
</g>
<!-- Node15&#45;&gt;Node11 -->
<g id="edge77" class="edge">
<title>Node15&#45;&gt;Node11</title>
<path fill="none" stroke="#191970" d="M1728.9081,-539.1212C1724.2063,-538.4017 1719.5152,-537.686 1715,-537 1608.3636,-520.7995 1580.8607,-521.671 1475,-501 1229.5461,-453.0712 1173.6459,-415.9349 928,-369 816.0088,-347.6021 781.9302,-369.7555 674,-333 569.0582,-297.2622 512.8105,-305.7871 457,-210 449.0238,-196.3106 460.5216,-130.651 464,-123 470.0469,-109.6993 480.762,-97.3906 490.33,-88.1438"/>
<polygon fill="#191970" stroke="#191970" points="492.9622,-90.479 497.9696,-81.1422 488.2326,-85.3185 492.9622,-90.479"/>
</g>
<!-- Node16 -->
<g id="node17" class="node">
<title>Node16</title>
<g id="a_node17"><a xlink:href="reflection_8h.html" target="_top" xlink:title="Reflection and serialization of compiler IR/AST nodes. ">
<polygon fill="#ffffff" stroke="#000000" points="1963.5,-313.5 1963.5,-332.5 2084.5,-332.5 2084.5,-313.5 1963.5,-313.5"/>
<text text-anchor="middle" x="2024" y="-320.5" font-family="Helvetica,sans-Serif" font-size="10.00" fill="#000000">tvm/node/reflection.h</text>
</a>
</g>
</g>
<!-- Node15&#45;&gt;Node16 -->
<g id="edge18" class="edge">
<title>Node15&#45;&gt;Node16</title>
<path fill="none" stroke="#191970" d="M1790.4844,-537.375C1828.3387,-502.6235 1958.2396,-383.3702 2006.1049,-339.4283"/>
<polygon fill="#191970" stroke="#191970" points="2008.5551,-341.9302 2013.5547,-332.5891 2003.8212,-336.7736 2008.5551,-341.9302"/>
</g>
<!-- Node16&#45;&gt;Node3 -->
<g id="edge56" class="edge">
<title>Node16&#45;&gt;Node3</title>
<path fill="none" stroke="#191970" d="M1963.4993,-319.1421C1901.6604,-313.9648 1803.4135,-302.3006 1722,-277 1615.0698,-243.7697 1498.3377,-177.3696 1449.0687,-147.7983"/>
<polygon fill="#191970" stroke="#191970" points="1450.7722,-144.7383 1440.4041,-142.5584 1447.1499,-150.7282 1450.7722,-144.7383"/>
</g>
<!-- Node16&#45;&gt;Node4 -->
<g id="edge48" class="edge">
<title>Node16&#45;&gt;Node4</title>
<path fill="none" stroke="#191970" d="M2037.7487,-313.4444C2061.3732,-296.0795 2108.878,-256.7826 2127,-210 2141.6167,-172.2664 2131.1242,-124.6441 2122.1152,-96.2104"/>
<polygon fill="#191970" stroke="#191970" points="2125.4096,-95.0258 2118.9125,-86.6569 2118.7726,-97.2508 2125.4096,-95.0258"/>
</g>
<!-- Node16&#45;&gt;Node9 -->
<g id="edge73" class="edge">
<title>Node16&#45;&gt;Node9</title>
<path fill="none" stroke="#191970" d="M2084.7219,-320.7019C2182.0246,-316.3293 2378.6424,-304.6533 2543,-277 2599.0199,-267.5746 2611.1456,-256.3607 2667,-246 2731.7173,-233.9952 2910.4795,-252.1916 2961,-210 2996.4705,-180.3772 3003.1822,-122.0329 3004.1401,-91.3819"/>
<polygon fill="#191970" stroke="#191970" points="3007.6433,-91.1528 3004.2736,-81.1082 3000.6439,-91.0619 3007.6433,-91.1528"/>
</g>
<!-- Node16&#45;&gt;Node10 -->
<g id="edge74" class="edge">
<title>Node16&#45;&gt;Node10</title>
<path fill="none" stroke="#191970" d="M2015.1683,-313.0319C1984.1615,-278.8418 1875.8138,-166.0689 1759,-123 1669.9127,-90.1538 1383.2834,-76.9114 1271.8768,-72.9204"/>
<polygon fill="#191970" stroke="#191970" points="1271.7714,-69.4146 1261.6551,-72.5627 1271.5265,-76.4104 1271.7714,-69.4146"/>
</g>
<!-- Node16&#45;&gt;Node13 -->
<g id="edge75" class="edge">
<title>Node16&#45;&gt;Node13</title>
<path fill="none" stroke="#191970" d="M2007.6403,-313.3167C1955.264,-282.3152 1791.4545,-185.3562 1728.2384,-147.9386"/>
<polygon fill="#191970" stroke="#191970" points="1729.7151,-144.7456 1719.3268,-142.6638 1726.1496,-150.7694 1729.7151,-144.7456"/>
</g>
<!-- Node17 -->
<g id="node18" class="node">
<title>Node17</title>
<g id="a_node18"><a xlink:href="structural__equal_8h.html" target="_top" xlink:title="Structural equality comparison. ">
<polygon fill="#ffffff" stroke="#000000" points="2387.5,-246.5 2387.5,-276.5 2500.5,-276.5 2500.5,-246.5 2387.5,-246.5"/>
<text text-anchor="start" x="2395.5" y="-264.5" font-family="Helvetica,sans-Serif" font-size="10.00" fill="#000000">tvm/node/structural</text>
<text text-anchor="middle" x="2444" y="-253.5" font-family="Helvetica,sans-Serif" font-size="10.00" fill="#000000">_equal.h</text>
</a>
</g>
</g>
<!-- Node16&#45;&gt;Node17 -->
<g id="edge19" class="edge">
<title>Node16&#45;&gt;Node17</title>
<path fill="none" stroke="#191970" d="M2084.7616,-316.5565C2154.5772,-308.7906 2272.4625,-294.568 2373,-277 2374.2933,-276.774 2375.5988,-276.5408 2376.9134,-276.3013"/>
<polygon fill="#191970" stroke="#191970" points="2377.948,-279.6672 2387.1166,-274.3581 2376.6384,-272.7908 2377.948,-279.6672"/>
</g>
<!-- Node32 -->
<g id="node22" class="node">
<title>Node32</title>
<g id="a_node22"><a xlink:href="data__type_8h.html" target="_top" xlink:title="tvm/runtime/data_type.h">
<polygon fill="#ffffff" stroke="#000000" points="2307,-123.5 2307,-142.5 2445,-142.5 2445,-123.5 2307,-123.5"/>
<text text-anchor="middle" x="2376" y="-130.5" font-family="Helvetica,sans-Serif" font-size="10.00" fill="#000000">tvm/runtime/data_type.h</text>
</a>
</g>
</g>
<!-- Node16&#45;&gt;Node32 -->
<g id="edge49" class="edge">
<title>Node16&#45;&gt;Node32</title>
<path fill="none" stroke="#191970" d="M2084.5021,-315.9432C2173.5889,-305.3029 2330.6067,-285.4943 2340,-277 2375.2372,-245.135 2378.3924,-184.4839 2377.3987,-153.0334"/>
<polygon fill="#191970" stroke="#191970" points="2380.8861,-152.69 2376.8967,-142.875 2373.8947,-153.0356 2380.8861,-152.69"/>
</g>
<!-- Node33 -->
<g id="node23" class="node">
<title>Node33</title>
<g id="a_node23"><a xlink:href="structural__hash_8h.html" target="_top" xlink:title="Structural hash class. ">
<polygon fill="#ffffff" stroke="#000000" points="2217.5,-246.5 2217.5,-276.5 2330.5,-276.5 2330.5,-246.5 2217.5,-246.5"/>
<text text-anchor="start" x="2225.5" y="-264.5" font-family="Helvetica,sans-Serif" font-size="10.00" fill="#000000">tvm/node/structural</text>
<text text-anchor="middle" x="2274" y="-253.5" font-family="Helvetica,sans-Serif" font-size="10.00" fill="#000000">_hash.h</text>
</a>
</g>
</g>
<!-- Node16&#45;&gt;Node33 -->
<g id="edge35" class="edge">
<title>Node16&#45;&gt;Node33</title>
<path fill="none" stroke="#191970" d="M2062.7882,-313.4581C2101.3759,-303.9655 2161.3346,-289.2157 2207.5242,-277.8531"/>
<polygon fill="#191970" stroke="#191970" points="2208.581,-281.1975 2217.4554,-275.41 2206.9088,-274.4002 2208.581,-281.1975"/>
</g>
<!-- Node34 -->
<g id="node24" class="node">
<title>Node34</title>
<g id="a_node24"><a xlink:href="ndarray_8h.html" target="_top" xlink:title="A device&#45;independent managed NDArray abstraction. ">
<polygon fill="#ffffff" stroke="#ff0000" points="1921.5,-185 1921.5,-204 2046.5,-204 2046.5,-185 1921.5,-185"/>
<text text-anchor="middle" x="1984" y="-192" font-family="Helvetica,sans-Serif" font-size="10.00" fill="#000000">tvm/runtime/ndarray.h</text>
</a>
</g>
</g>
<!-- Node16&#45;&gt;Node34 -->
<g id="edge55" class="edge">
<title>Node16&#45;&gt;Node34</title>
<path fill="none" stroke="#191970" d="M2020.9935,-313.3416C2014.4493,-292.3184 1998.8046,-242.0598 1990.1024,-214.1038"/>
<polygon fill="#191970" stroke="#191970" points="1993.3555,-212.7783 1987.0414,-204.2705 1986.6718,-214.8589 1993.3555,-212.7783"/>
</g>
<!-- Node21 -->
<g id="node26" class="node">
<title>Node21</title>
<g id="a_node26"><a xlink:href="runtime_2memory_8h.html" target="_top" xlink:title="Runtime memory management. ">
<polygon fill="#ffffff" stroke="#000000" points="945.5,-185 945.5,-204 1074.5,-204 1074.5,-185 945.5,-185"/>
<text text-anchor="middle" x="1010" y="-192" font-family="Helvetica,sans-Serif" font-size="10.00" fill="#000000">tvm/runtime/memory.h</text>
</a>
</g>
</g>
<!-- Node16&#45;&gt;Node21 -->
<g id="edge50" class="edge">
<title>Node16&#45;&gt;Node21</title>
<path fill="none" stroke="#191970" d="M1963.3605,-316.6762C1883.1314,-308.2034 1737.3356,-292.4388 1613,-277 1394.434,-249.8605 1340.1938,-239.9852 1122,-210 1109.8775,-208.3341 1097.018,-206.5604 1084.4991,-204.8303"/>
<polygon fill="#191970" stroke="#191970" points="1084.938,-201.3578 1074.5528,-203.455 1083.9791,-208.2918 1084.938,-201.3578"/>
</g>
<!-- Node40 -->
<g id="node28" class="node">
<title>Node40</title>
<g id="a_node28"><a xlink:href="packed__func_8h.html" target="_top" xlink:title="Type&#45;erased function used across TVM API. ">
<polygon fill="#ffffff" stroke="#ff0000" points="1731,-246.5 1731,-276.5 1847,-276.5 1847,-246.5 1731,-246.5"/>
<text text-anchor="start" x="1739" y="-264.5" font-family="Helvetica,sans-Serif" font-size="10.00" fill="#000000">tvm/runtime/packed</text>
<text text-anchor="middle" x="1789" y="-253.5" font-family="Helvetica,sans-Serif" font-size="10.00" fill="#000000">_func.h</text>
</a>
</g>
</g>
<!-- Node16&#45;&gt;Node40 -->
<g id="edge57" class="edge">
<title>Node16&#45;&gt;Node40</title>
<path fill="none" stroke="#191970" d="M1987.5391,-313.4581C1952.6148,-304.3183 1899.0672,-290.3048 1856.3804,-279.1336"/>
<polygon fill="#191970" stroke="#191970" points="1857.1771,-275.7243 1846.6167,-276.5784 1855.4048,-282.4962 1857.1771,-275.7243"/>
</g>
<!-- Node17&#45;&gt;Node1 -->
<g id="edge20" class="edge">
<title>Node17&#45;&gt;Node1</title>
<path fill="none" stroke="#191970" d="M2387.4785,-251.7431C2372.121,-249.4568 2355.4615,-247.3085 2340,-246 1958.613,-213.7242 997.4672,-260.0242 618,-210 611.3225,-209.1197 604.3271,-207.805 597.5268,-206.3068"/>
<polygon fill="#191970" stroke="#191970" points="598.2985,-202.8929 587.7627,-204.0097 596.6954,-209.7068 598.2985,-202.8929"/>
</g>
<!-- Node17&#45;&gt;Node9 -->
<g id="edge34" class="edge">
<title>Node17&#45;&gt;Node9</title>
<path fill="none" stroke="#191970" d="M2500.5276,-248.8858C2505.4161,-247.878 2510.2913,-246.9022 2515,-246 2611.4469,-227.5214 2639.7244,-240.7101 2733,-210 2830.1908,-178.0008 2935.4183,-115.1572 2980.905,-86.4472"/>
<polygon fill="#191970" stroke="#191970" points="2982.8755,-89.3419 2989.4335,-81.0207 2979.1176,-83.4361 2982.8755,-89.3419"/>
</g>
<!-- Node18 -->
<g id="node19" class="node">
<title>Node18</title>
<g id="a_node19"><a xlink:href="object__path_8h.html" target="_top" xlink:title="tvm/node/object_path.h">
<polygon fill="#ffffff" stroke="#ff0000" points="2445,-185 2445,-204 2577,-204 2577,-185 2445,-185"/>
<text text-anchor="middle" x="2511" y="-192" font-family="Helvetica,sans-Serif" font-size="10.00" fill="#000000">tvm/node/object_path.h</text>
</a>
</g>
</g>
<!-- Node17&#45;&gt;Node18 -->
<g id="edge21" class="edge">
<title>Node17&#45;&gt;Node18</title>
<path fill="none" stroke="#191970" d="M2459.2033,-246.2967C2469.6422,-235.8578 2483.5003,-221.9997 2494.2554,-211.2446"/>
<polygon fill="#191970" stroke="#191970" points="2496.8488,-213.601 2501.445,-204.055 2491.899,-208.6512 2496.8488,-213.601"/>
</g>
<!-- Node31 -->
<g id="node20" class="node">
<title>Node31</title>
<g id="a_node20"><a xlink:href="array_8h.html" target="_top" xlink:title="Runtime Array container types. ">
<polygon fill="#ffffff" stroke="#ff0000" points="1131,-179.5 1131,-209.5 1257,-209.5 1257,-179.5 1131,-179.5"/>
<text text-anchor="start" x="1139" y="-197.5" font-family="Helvetica,sans-Serif" font-size="10.00" fill="#000000">tvm/runtime/container</text>
<text text-anchor="middle" x="1194" y="-186.5" font-family="Helvetica,sans-Serif" font-size="10.00" fill="#000000">/array.h</text>
</a>
</g>
</g>
<!-- Node17&#45;&gt;Node31 -->
<g id="edge24" class="edge">
<title>Node17&#45;&gt;Node31</title>
<path fill="none" stroke="#191970" d="M2387.456,-251.9914C2372.0985,-249.7046 2355.4447,-247.4939 2340,-246 1936.2546,-206.9461 1449.5641,-197.4364 1267.4656,-195.1804"/>
<polygon fill="#191970" stroke="#191970" points="1267.2492,-191.6776 1257.2078,-195.0571 1267.1649,-198.6771 1267.2492,-191.6776"/>
</g>
<!-- Node17&#45;&gt;Node32 -->
<g id="edge29" class="edge">
<title>Node17&#45;&gt;Node32</title>
<path fill="none" stroke="#191970" d="M2435.9325,-246.2548C2423.4472,-222.6612 2399.4755,-177.3619 2385.9395,-151.7828"/>
<polygon fill="#191970" stroke="#191970" points="2388.9229,-149.9374 2381.152,-142.7358 2382.7358,-153.2116 2388.9229,-149.9374"/>
</g>
<!-- Node18&#45;&gt;Node3 -->
<g id="edge22" class="edge">
<title>Node18&#45;&gt;Node3</title>
<path fill="none" stroke="#191970" d="M2444.7006,-190.7455C2251.8542,-179.8246 1692.3453,-148.1397 1494.9518,-136.9614"/>
<polygon fill="#191970" stroke="#191970" points="1494.89,-133.4523 1484.708,-136.3813 1494.4941,-140.4411 1494.89,-133.4523"/>
</g>
<!-- Node18&#45;&gt;Node9 -->
<g id="edge23" class="edge">
<title>Node18&#45;&gt;Node9</title>
<path fill="none" stroke="#191970" d="M2539.1547,-184.9146C2567.6152,-175.0452 2612.737,-158.904 2651,-143 2670.4629,-134.9103 2673.8641,-129.2285 2694,-123 2792.4192,-92.5565 2914.3116,-79.0042 2971.5009,-73.9883"/>
<polygon fill="#191970" stroke="#191970" points="2972.0592,-77.4537 2981.7284,-73.1227 2971.4688,-70.4786 2972.0592,-77.4537"/>
</g>
<!-- Node31&#45;&gt;Node10 -->
<g id="edge26" class="edge">
<title>Node31&#45;&gt;Node10</title>
<path fill="none" stroke="#191970" d="M1198.0464,-179.4178C1204.0165,-157.1659 1215.1867,-115.5314 1221.7708,-90.9908"/>
<polygon fill="#191970" stroke="#191970" points="1225.2271,-91.6147 1224.438,-81.0493 1218.4662,-89.8007 1225.2271,-91.6147"/>
</g>
<!-- Node31&#45;&gt;Node11 -->
<g id="edge27" class="edge">
<title>Node31&#45;&gt;Node11</title>
<path fill="none" stroke="#191970" d="M1193.5666,-179.4596C1192.2019,-162.7779 1187.2422,-136.4485 1170,-123 1120.192,-84.151 669.201,-74.0463 542.7986,-71.9669"/>
<polygon fill="#191970" stroke="#191970" points="542.6457,-68.4641 532.5914,-71.805 542.5346,-75.4633 542.6457,-68.4641"/>
</g>
<!-- Node31&#45;&gt;Node13 -->
<g id="edge28" class="edge">
<title>Node31&#45;&gt;Node13</title>
<path fill="none" stroke="#191970" d="M1257.1798,-186.8663C1366.074,-173.7091 1585.4889,-147.1983 1669.3569,-137.0649"/>
<polygon fill="#191970" stroke="#191970" points="1669.847,-140.5313 1679.3549,-135.8569 1669.0072,-133.5818 1669.847,-140.5313"/>
</g>
<!-- Node28 -->
<g id="node21" class="node">
<title>Node28</title>
<polygon fill="#ffffff" stroke="#bfbfbf" points="1103,-123.5 1103,-142.5 1161,-142.5 1161,-123.5 1103,-123.5"/>
<text text-anchor="middle" x="1132" y="-130.5" font-family="Helvetica,sans-Serif" font-size="10.00" fill="#000000">memory</text>
</g>
<!-- Node31&#45;&gt;Node28 -->
<g id="edge25" class="edge">
<title>Node31&#45;&gt;Node28</title>
<path fill="none" stroke="#191970" d="M1178.6742,-179.2977C1169.7093,-170.4052 1158.3712,-159.1586 1149.1149,-149.9769"/>
<polygon fill="#191970" stroke="#191970" points="1151.4915,-147.4045 1141.927,-142.8469 1146.5618,-152.3742 1151.4915,-147.4045"/>
</g>
<!-- Node32&#45;&gt;Node4 -->
<g id="edge30" class="edge">
<title>Node32&#45;&gt;Node4</title>
<path fill="none" stroke="#191970" d="M2335.1948,-123.4581C2295.7951,-114.2449 2235.2168,-100.0792 2187.2589,-88.8647"/>
<polygon fill="#191970" stroke="#191970" points="2187.7632,-85.3883 2177.2289,-86.5193 2186.1693,-92.2044 2187.7632,-85.3883"/>
</g>
<!-- Node32&#45;&gt;Node8 -->
<g id="edge31" class="edge">
<title>Node32&#45;&gt;Node8</title>
<path fill="none" stroke="#191970" d="M2376,-123.3906C2376,-114.8657 2376,-102.1392 2376,-91.4235"/>
<polygon fill="#191970" stroke="#191970" points="2379.5001,-91.2448 2376,-81.2449 2372.5001,-91.2449 2379.5001,-91.2448"/>
</g>
<!-- Node32&#45;&gt;Node9 -->
<g id="edge32" class="edge">
<title>Node32&#45;&gt;Node9</title>
<path fill="none" stroke="#191970" d="M2445.0034,-126.2425C2579.9803,-113.0242 2874.2696,-84.2045 2971.8469,-74.6488"/>
<polygon fill="#191970" stroke="#191970" points="2972.3613,-78.1152 2981.9726,-73.6571 2971.679,-71.1485 2972.3613,-78.1152"/>
</g>
<!-- Node32&#45;&gt;Node10 -->
<g id="edge33" class="edge">
<title>Node32&#45;&gt;Node10</title>
<path fill="none" stroke="#191970" d="M2306.6555,-124.0038C2303.0545,-123.6393 2299.4862,-123.3014 2296,-123 2092.1417,-105.3741 1447.7806,-79.9565 1271.7911,-73.2012"/>
<polygon fill="#191970" stroke="#191970" points="1271.7264,-69.6963 1261.5997,-72.8108 1271.4583,-76.6912 1271.7264,-69.6963"/>
</g>
<!-- Node33&#45;&gt;Node1 -->
<g id="edge36" class="edge">
<title>Node33&#45;&gt;Node1</title>
<path fill="none" stroke="#191970" d="M2217.2126,-259.2503C2136.8123,-256.0979 1985.1917,-250.2736 1856,-246 1580.9231,-236.9005 890.7174,-247.0854 618,-210 611.5546,-209.1235 604.8111,-207.8537 598.2321,-206.4126"/>
<polygon fill="#191970" stroke="#191970" points="598.6301,-202.9112 588.0955,-204.039 597.0341,-209.7268 598.6301,-202.9112"/>
</g>
<!-- Node33&#45;&gt;Node9 -->
<g id="edge47" class="edge">
<title>Node33&#45;&gt;Node9</title>
<path fill="none" stroke="#191970" d="M2330.6248,-252.7901C2346.2812,-250.4776 2363.2867,-248.0543 2379,-246 2519.1602,-227.6761 2564.743,-264.8976 2695,-210 2715.085,-201.5351 2714.205,-190.0367 2733,-179 2814.0184,-131.4246 2920.027,-96.3229 2972.1884,-80.6192"/>
<polygon fill="#191970" stroke="#191970" points="2973.2908,-83.9429 2981.8794,-77.7391 2971.2966,-77.233 2973.2908,-83.9429"/>
</g>
<!-- Node33&#45;&gt;Node32 -->
<g id="edge37" class="edge">
<title>Node33&#45;&gt;Node32</title>
<path fill="none" stroke="#191970" d="M2286.9638,-246.3147C2295.5868,-236.1312 2307.1041,-222.3697 2317,-210 2333.0063,-189.9925 2350.8258,-166.5702 2362.6501,-150.8583"/>
<polygon fill="#191970" stroke="#191970" points="2365.6577,-152.6817 2368.8603,-142.5825 2360.0587,-148.4803 2365.6577,-152.6817"/>
</g>
<!-- Node33&#45;&gt;Node34 -->
<g id="edge38" class="edge">
<title>Node33&#45;&gt;Node34</title>
<path fill="none" stroke="#191970" d="M2217.3966,-248.4227C2164.5466,-236.2125 2086.3611,-218.1489 2035.2966,-206.3513"/>
<polygon fill="#191970" stroke="#191970" points="2035.9921,-202.9198 2025.4608,-204.0789 2034.4163,-209.7402 2035.9921,-202.9198"/>
</g>
<!-- Node39 -->
<g id="node25" class="node">
<title>Node39</title>
<polygon fill="#ffffff" stroke="#bfbfbf" points="2221.5,-123.5 2221.5,-142.5 2286.5,-142.5 2286.5,-123.5 2221.5,-123.5"/>
<text text-anchor="middle" x="2254" y="-130.5" font-family="Helvetica,sans-Serif" font-size="10.00" fill="#000000">functional</text>
</g>
<!-- Node33&#45;&gt;Node39 -->
<g id="edge46" class="edge">
<title>Node33&#45;&gt;Node39</title>
<path fill="none" stroke="#191970" d="M2271.6272,-246.2548C2268.0038,-222.9744 2261.0912,-178.5607 2257.0835,-152.8117"/>
<polygon fill="#191970" stroke="#191970" points="2260.5116,-152.0785 2255.5153,-142.7358 2253.5949,-153.1551 2260.5116,-152.0785"/>
</g>
<!-- Node34&#45;&gt;Node3 -->
<g id="edge41" class="edge">
<title>Node34&#45;&gt;Node3</title>
<path fill="none" stroke="#191970" d="M1921.2327,-187.5945C1815.993,-176.0162 1604.7155,-152.7719 1494.8931,-140.6895"/>
<polygon fill="#191970" stroke="#191970" points="1495.2334,-137.2059 1484.9106,-139.5912 1494.4678,-144.1639 1495.2334,-137.2059"/>
</g>
<!-- Node34&#45;&gt;Node4 -->
<g id="edge39" class="edge">
<title>Node34&#45;&gt;Node4</title>
<path fill="none" stroke="#191970" d="M1994.1224,-184.8484C2014.5359,-165.3843 2061.1095,-120.977 2089.5242,-93.8839"/>
<polygon fill="#191970" stroke="#191970" points="2092.1981,-96.1704 2097.0203,-86.7365 2087.3676,-91.1042 2092.1981,-96.1704"/>
</g>
<!-- Node34&#45;&gt;Node11 -->
<g id="edge44" class="edge">
<title>Node34&#45;&gt;Node11</title>
<path fill="none" stroke="#191970" d="M1958.2943,-184.9116C1913.6276,-168.7534 1818.464,-136.5397 1735,-123 1614.4836,-103.4496 726.0731,-77.5773 542.9546,-72.4174"/>
<polygon fill="#191970" stroke="#191970" points="542.9569,-68.9161 532.8625,-72.1339 542.7603,-75.9134 542.9569,-68.9161"/>
</g>
<!-- Node34&#45;&gt;Node12 -->
<g id="edge42" class="edge">
<title>Node34&#45;&gt;Node12</title>
<path fill="none" stroke="#191970" d="M1978.3624,-184.9391C1968.6848,-169.4076 1947.3818,-138.8414 1921,-123 1863.5319,-88.4922 1784.5515,-77.1046 1739.4357,-73.3479"/>
<polygon fill="#191970" stroke="#191970" points="1739.5007,-69.843 1729.2665,-72.5836 1738.976,-76.8233 1739.5007,-69.843"/>
</g>
<!-- Node34&#45;&gt;Node13 -->
<g id="edge45" class="edge">
<title>Node34&#45;&gt;Node13</title>
<path fill="none" stroke="#191970" d="M1940.4021,-184.9581C1884.1563,-172.6481 1787.5142,-151.4969 1736.614,-140.3568"/>
<polygon fill="#191970" stroke="#191970" points="1737.2904,-136.9221 1726.7733,-138.2031 1735.7938,-143.7602 1737.2904,-136.9221"/>
</g>
<!-- Node34&#45;&gt;Node32 -->
<g id="edge40" class="edge">
<title>Node34&#45;&gt;Node32</title>
<path fill="none" stroke="#191970" d="M2044.8199,-184.9581C2115.1658,-173.9217 2230.8077,-155.7789 2305.1527,-144.1151"/>
<polygon fill="#191970" stroke="#191970" points="2306.0233,-147.5214 2315.36,-142.5137 2304.9383,-140.606 2306.0233,-147.5214"/>
</g>
<!-- Node34&#45;&gt;Node39 -->
<g id="edge43" class="edge">
<title>Node34&#45;&gt;Node39</title>
<path fill="none" stroke="#191970" d="M2025.8913,-184.9581C2076.3323,-173.4688 2160.5855,-154.2778 2211.3589,-142.7127"/>
<polygon fill="#191970" stroke="#191970" points="2212.3811,-146.0696 2221.354,-140.436 2210.8264,-139.2444 2212.3811,-146.0696"/>
</g>
<!-- Node21&#45;&gt;Node3 -->
<g id="edge51" class="edge">
<title>Node21&#45;&gt;Node3</title>
<path fill="none" stroke="#191970" d="M1056.2873,-184.9544C1067.0069,-182.8728 1078.3839,-180.7666 1089,-179 1180.7032,-163.7395 1287.1043,-149.8047 1355.1876,-141.3655"/>
<polygon fill="#191970" stroke="#191970" points="1355.8666,-144.8083 1365.3627,-140.1098 1355.0092,-137.861 1355.8666,-144.8083"/>
</g>
<!-- Node21&#45;&gt;Node10 -->
<g id="edge53" class="edge">
<title>Node21&#45;&gt;Node10</title>
<path fill="none" stroke="#191970" d="M1019.0123,-184.994C1033.5772,-170.0821 1063.7276,-141.0357 1094,-123 1122.1045,-106.2559 1156.6252,-93.0776 1183.4534,-84.2444"/>
<polygon fill="#191970" stroke="#191970" points="1184.8783,-87.4629 1193.3295,-81.0733 1182.7383,-80.7981 1184.8783,-87.4629"/>
</g>
<!-- Node21&#45;&gt;Node11 -->
<g id="edge54" class="edge">
<title>Node21&#45;&gt;Node11</title>
<path fill="none" stroke="#191970" d="M988.4378,-184.9803C953.2213,-169.7837 880.8746,-140.0261 817,-123 718.8835,-96.8466 599.4172,-81.3417 542.7937,-74.9427"/>
<polygon fill="#191970" stroke="#191970" points="542.9761,-71.4415 532.6514,-73.8185 542.2049,-78.3989 542.9761,-71.4415"/>
</g>
<!-- Node22 -->
<g id="node27" class="node">
<title>Node22</title>
<polygon fill="#ffffff" stroke="#bfbfbf" points="985.5,-123.5 985.5,-142.5 1034.5,-142.5 1034.5,-123.5 985.5,-123.5"/>
<text text-anchor="middle" x="1010" y="-130.5" font-family="Helvetica,sans-Serif" font-size="10.00" fill="#000000">cstdlib</text>
</g>
<!-- Node21&#45;&gt;Node22 -->
<g id="edge52" class="edge">
<title>Node21&#45;&gt;Node22</title>
<path fill="none" stroke="#191970" d="M1010,-184.8906C1010,-176.3657 1010,-163.6392 1010,-152.9235"/>
<polygon fill="#191970" stroke="#191970" points="1013.5001,-152.7448 1010,-142.7449 1006.5001,-152.7449 1013.5001,-152.7448"/>
</g>
<!-- Node40&#45;&gt;Node3 -->
<g id="edge65" class="edge">
<title>Node40&#45;&gt;Node3</title>
<path fill="none" stroke="#191970" d="M1759.0109,-246.3542C1722.7522,-228.4774 1659.5447,-198.6961 1603,-179 1562.6724,-164.9528 1515.8785,-153.024 1480.3923,-144.8363"/>
<polygon fill="#191970" stroke="#191970" points="1480.7587,-141.3302 1470.2312,-142.5225 1479.2045,-148.1555 1480.7587,-141.3302"/>
</g>
<!-- Node40&#45;&gt;Node4 -->
<g id="edge58" class="edge">
<title>Node40&#45;&gt;Node4</title>
<path fill="none" stroke="#191970" d="M1847.2429,-253.1947C1920.5943,-242.2822 2039.0335,-222.9836 2055,-210 2073.3161,-195.1056 2094.7474,-131.959 2105.7175,-96.2931"/>
<polygon fill="#191970" stroke="#191970" points="2109.102,-97.1923 2108.6473,-86.6073 2102.4018,-95.1656 2109.102,-97.1923"/>
</g>
<!-- Node40&#45;&gt;Node8 -->
<g id="edge63" class="edge">
<title>Node40&#45;&gt;Node8</title>
<path fill="none" stroke="#191970" d="M1847.0293,-257.909C1906.7206,-252.6802 2001.5134,-240.0546 2078,-210 2144.4352,-183.895 2148.3958,-153.3547 2213,-123 2249.3915,-105.9012 2292.9184,-92.4764 2325.8352,-83.6259"/>
<polygon fill="#191970" stroke="#191970" points="2326.9134,-86.9613 2335.6904,-81.027 2325.1285,-80.1926 2326.9134,-86.9613"/>
</g>
<!-- Node40&#45;&gt;Node9 -->
<g id="edge69" class="edge">
<title>Node40&#45;&gt;Node9</title>
<path fill="none" stroke="#191970" d="M1847.0036,-258.829C2018.331,-250.7888 2514.6232,-226.3612 2586,-210 2686.075,-187.0605 2702.4357,-154.9758 2800,-123 2859.8716,-103.3776 2931.673,-86.8179 2972.1486,-78.1017"/>
<polygon fill="#191970" stroke="#191970" points="2972.9272,-81.5145 2981.978,-76.007 2971.4681,-74.6682 2972.9272,-81.5145"/>
</g>
<!-- Node40&#45;&gt;Node10 -->
<g id="edge70" class="edge">
<title>Node40&#45;&gt;Node10</title>
<path fill="none" stroke="#191970" d="M1788.1329,-246.279C1785.5574,-216.8933 1775.3536,-152.6373 1735,-123 1698.0256,-95.8445 1388.6961,-78.9323 1271.6413,-73.4532"/>
<polygon fill="#191970" stroke="#191970" points="1271.7319,-69.9538 1261.5809,-72.9884 1271.4087,-76.9463 1271.7319,-69.9538"/>
</g>
<!-- Node40&#45;&gt;Node11 -->
<g id="edge71" class="edge">
<title>Node40&#45;&gt;Node11</title>
<path fill="none" stroke="#191970" d="M1730.9406,-260.2831C1481.5434,-254.9211 512.7811,-232.6624 491,-210 459.8734,-177.6139 483.6842,-119.6654 499.2663,-90.043"/>
<polygon fill="#191970" stroke="#191970" points="502.3982,-91.611 504.1439,-81.161 496.2625,-88.2415 502.3982,-91.611"/>
</g>
<!-- Node40&#45;&gt;Node13 -->
<g id="edge72" class="edge">
<title>Node40&#45;&gt;Node13</title>
<path fill="none" stroke="#191970" d="M1778.797,-246.2548C1762.867,-222.4524 1732.1519,-176.5584 1715.1192,-151.1084"/>
<polygon fill="#191970" stroke="#191970" points="1717.9864,-149.0997 1709.5158,-142.7358 1712.169,-152.993 1717.9864,-149.0997"/>
</g>
<!-- Node40&#45;&gt;Node31 -->
<g id="edge59" class="edge">
<title>Node40&#45;&gt;Node31</title>
<path fill="none" stroke="#191970" d="M1730.8655,-254.9538C1621.8996,-242.6836 1387.1645,-216.2513 1267.4528,-202.7712"/>
<polygon fill="#191970" stroke="#191970" points="1267.6135,-199.2672 1257.2846,-201.6262 1266.8302,-206.2233 1267.6135,-199.2672"/>
</g>
<!-- Node40&#45;&gt;Node28 -->
<g id="edge68" class="edge">
<title>Node40&#45;&gt;Node28</title>
<path fill="none" stroke="#191970" d="M1730.9838,-250.1529C1599.5956,-224.4551 1282.1281,-162.363 1171.1152,-140.6504"/>
<polygon fill="#191970" stroke="#191970" points="1171.5156,-137.1624 1161.0297,-138.6778 1170.1719,-144.0323 1171.5156,-137.1624"/>
</g>
<!-- Node40&#45;&gt;Node32 -->
<g id="edge62" class="edge">
<title>Node40&#45;&gt;Node32</title>
<path fill="none" stroke="#191970" d="M1847.0113,-259.5331C1927.7174,-255.613 2077.84,-244.0101 2201,-210 2256.0383,-194.8014 2316.1262,-165.2613 2349.6268,-147.5158"/>
<polygon fill="#191970" stroke="#191970" points="2351.58,-150.4399 2358.7399,-142.6305 2348.2727,-144.2705 2351.58,-150.4399"/>
</g>
<!-- Node40&#45;&gt;Node34 -->
<g id="edge64" class="edge">
<title>Node40&#45;&gt;Node34</title>
<path fill="none" stroke="#191970" d="M1832.7618,-246.4639C1867.0559,-234.6808 1914.2491,-218.4657 1946.7508,-207.2984"/>
<polygon fill="#191970" stroke="#191970" points="1948.0154,-210.5649 1956.3354,-204.0053 1945.7407,-203.9447 1948.0154,-210.5649"/>
</g>
<!-- Node40&#45;&gt;Node39 -->
<g id="edge66" class="edge">
<title>Node40&#45;&gt;Node39</title>
<path fill="none" stroke="#191970" d="M1847.2773,-257.5803C1938.3015,-250.7814 2109.5431,-235.0774 2165,-210 2195.3976,-196.2544 2223.2251,-168.7187 2239.395,-150.5759"/>
<polygon fill="#191970" stroke="#191970" points="2242.4629,-152.379 2246.3566,-142.5256 2237.1681,-147.8002 2242.4629,-152.379"/>
</g>
<!-- Node41 -->
<g id="node29" class="node">
<title>Node41</title>
<g id="a_node29"><a xlink:href="map_8h.html" target="_top" xlink:title="Runtime Map container types. ">
<polygon fill="#ffffff" stroke="#ff0000" points="66,-179.5 66,-209.5 192,-209.5 192,-179.5 66,-179.5"/>
<text text-anchor="start" x="74" y="-197.5" font-family="Helvetica,sans-Serif" font-size="10.00" fill="#000000">tvm/runtime/container</text>
<text text-anchor="middle" x="129" y="-186.5" font-family="Helvetica,sans-Serif" font-size="10.00" fill="#000000">/map.h</text>
</a>
</g>
</g>
<!-- Node40&#45;&gt;Node41 -->
<g id="edge60" class="edge">
<title>Node40&#45;&gt;Node41</title>
<path fill="none" stroke="#191970" d="M1730.897,-260.9904C1529.4846,-258.9108 842.6435,-249.2043 277,-210 252.6444,-208.3119 226.1029,-205.758 202.3081,-203.2075"/>
<polygon fill="#191970" stroke="#191970" points="202.6129,-199.7201 192.2929,-202.1172 201.8553,-206.679 202.6129,-199.7201"/>
</g>
<!-- Node44 -->
<g id="node30" class="node">
<title>Node44</title>
<polygon fill="#ffffff" stroke="#bfbfbf" points="286,-185 286,-204 330,-204 330,-185 286,-185"/>
<text text-anchor="middle" x="308" y="-192" font-family="Helvetica,sans-Serif" font-size="10.00" fill="#000000">limits</text>
</g>
<!-- Node40&#45;&gt;Node44 -->
<g id="edge67" class="edge">
<title>Node40&#45;&gt;Node44</title>
<path fill="none" stroke="#191970" d="M1730.8719,-260.5849C1545.1728,-257.3758 949.6146,-244.8748 458,-210 417.2361,-207.1082 370.4146,-201.9802 340.0785,-198.4181"/>
<polygon fill="#191970" stroke="#191970" points="340.4158,-194.9336 330.0728,-197.2297 339.5901,-201.8848 340.4158,-194.9336"/>
</g>
<!-- Node41&#45;&gt;Node11 -->
<g id="edge61" class="edge">
<title>Node41&#45;&gt;Node11</title>
<path fill="none" stroke="#191970" d="M140.5412,-179.4685C154.2337,-162.7949 178.6759,-136.4729 206,-123 253.3955,-99.6302 408.5071,-81.6751 476.9934,-74.6832"/>
<polygon fill="#191970" stroke="#191970" points="477.6117,-78.1388 487.2115,-73.656 476.9115,-71.1739 477.6117,-78.1388"/>
</g>
<!-- Node46&#45;&gt;Node3 -->
<g id="edge93" class="edge">
<title>Node46&#45;&gt;Node3</title>
<path fill="none" stroke="#191970" d="M1443.3894,-425.294C1440.7037,-382.6065 1429.913,-211.0908 1426.2351,-152.632"/>
<polygon fill="#191970" stroke="#191970" points="1429.72,-152.2798 1425.5989,-142.5193 1422.7338,-152.7194 1429.72,-152.2798"/>
</g>
<!-- Node46&#45;&gt;Node9 -->
<g id="edge94" class="edge">
<title>Node46&#45;&gt;Node9</title>
<path fill="none" stroke="#191970" d="M1484.8,-431.8898C1719.6938,-413.6275 2893.1477,-317.4439 3009,-210 3037.8871,-183.2095 3033.899,-161.598 3026,-123 3023.6852,-111.6888 3018.7841,-99.79 3014.1942,-90.2826"/>
<polygon fill="#191970" stroke="#191970" points="3017.3072,-88.6827 3009.6452,-81.3654 3011.0718,-91.8638 3017.3072,-88.6827"/>
</g>
<!-- Node46&#45;&gt;Node47 -->
<g id="edge79" class="edge">
<title>Node46&#45;&gt;Node47</title>
<path fill="none" stroke="#191970" d="M1430.0651,-425.2455C1417.9053,-416.7337 1400.0536,-404.2375 1385.9715,-394.3801"/>
<polygon fill="#191970" stroke="#191970" points="1387.9747,-391.51 1377.7752,-388.6427 1383.9605,-397.2447 1387.9747,-391.51"/>
</g>
<!-- Node47&#45;&gt;Node3 -->
<g id="edge88" class="edge">
<title>Node47&#45;&gt;Node3</title>
<path fill="none" stroke="#191970" d="M1366.3913,-369.3565C1375.4633,-332.771 1407.8634,-202.1083 1420.1914,-152.3922"/>
<polygon fill="#191970" stroke="#191970" points="1423.6155,-153.1253 1422.6253,-142.5768 1416.8213,-151.4405 1423.6155,-153.1253"/>
</g>
<!-- Node47&#45;&gt;Node4 -->
<g id="edge86" class="edge">
<title>Node47&#45;&gt;Node4</title>
<path fill="none" stroke="#191970" d="M1413.5562,-377.376C1489.7174,-373.9693 1639.6674,-363.6428 1763,-333 1908.8599,-296.7602 1975.4291,-319.8529 2078,-210 2106.9432,-179.002 2112.8365,-127.6191 2113.5591,-96.9151"/>
<polygon fill="#191970" stroke="#191970" points="2117.0609,-96.6368 2113.6246,-86.6147 2110.061,-96.5923 2117.0609,-96.6368"/>
</g>
<!-- Node47&#45;&gt;Node9 -->
<g id="edge89" class="edge">
<title>Node47&#45;&gt;Node9</title>
<path fill="none" stroke="#191970" d="M1413.689,-377.6369C1543.5239,-373.7798 1903.5398,-361.1881 2202,-333 2388.1686,-315.4173 2434.3038,-306.2442 2619,-277 2782.7668,-251.0697 2860.2956,-318.122 2986,-210 3019.8904,-180.8498 3014.3034,-121.8558 3008.5223,-91.1201"/>
<polygon fill="#191970" stroke="#191970" points="3011.9186,-90.2609 3006.4564,-81.1826 3005.0651,-91.6857 3011.9186,-90.2609"/>
</g>
<!-- Node47&#45;&gt;Node10 -->
<g id="edge90" class="edge">
<title>Node47&#45;&gt;Node10</title>
<path fill="none" stroke="#191970" d="M1340.2495,-369.4373C1308.2086,-356.5508 1249.3458,-332.9275 1199,-313 1184.4097,-307.225 944.8441,-222.9619 936,-210 872.9412,-117.5816 1085.9421,-85.0377 1182.2115,-75.2187"/>
<polygon fill="#191970" stroke="#191970" points="1182.6403,-78.6935 1192.2509,-74.234 1181.957,-71.7269 1182.6403,-78.6935"/>
</g>
<!-- Node47&#45;&gt;Node11 -->
<g id="edge91" class="edge">
<title>Node47&#45;&gt;Node11</title>
<path fill="none" stroke="#191970" d="M1322.8849,-369.4191C1221.9754,-346.1198 953.8461,-285.5123 728,-246 671.6276,-236.1375 510.5319,-253.2027 473,-210 442.8068,-175.2448 475.5661,-118.4025 496.066,-89.539"/>
<polygon fill="#191970" stroke="#191970" points="499.0848,-91.3421 502.1957,-81.2143 493.448,-87.1916 499.0848,-91.3421"/>
</g>
<!-- Node47&#45;&gt;Node13 -->
<g id="edge92" class="edge">
<title>Node47&#45;&gt;Node13</title>
<path fill="none" stroke="#191970" d="M1377.2892,-369.3565C1429.0827,-331.7718 1617.6973,-194.9011 1681.6354,-148.5035"/>
<polygon fill="#191970" stroke="#191970" points="1683.7647,-151.2828 1689.8027,-142.5768 1679.6535,-145.6173 1683.7647,-151.2828"/>
</g>
<!-- Node47&#45;&gt;Node16 -->
<g id="edge80" class="edge">
<title>Node47&#45;&gt;Node16</title>
<path fill="none" stroke="#191970" d="M1413.7774,-375.9972C1514.8222,-369.7008 1751.1933,-353.9486 1949,-333 1950.4696,-332.8444 1951.9549,-332.6831 1953.4516,-332.517"/>
<polygon fill="#191970" stroke="#191970" points="1953.9205,-335.9862 1963.4515,-331.3589 1953.1152,-329.0326 1953.9205,-335.9862"/>
</g>
<!-- Node47&#45;&gt;Node17 -->
<g id="edge84" class="edge">
<title>Node47&#45;&gt;Node17</title>
<path fill="none" stroke="#191970" d="M1413.5234,-377.1609C1561.2401,-371.5005 1997.2136,-353.4795 2138,-333 2223.6608,-320.5394 2320.6855,-296.0585 2382.0816,-279.2442"/>
<polygon fill="#191970" stroke="#191970" points="2383.286,-282.5428 2391.996,-276.5107 2381.4254,-275.7946 2383.286,-282.5428"/>
</g>
<!-- Node47&#45;&gt;Node33 -->
<g id="edge85" class="edge">
<title>Node47&#45;&gt;Node33</title>
<path fill="none" stroke="#191970" d="M1413.6368,-377.9031C1556.0163,-374.4354 1963.8921,-362.1657 2094,-333 2144.7511,-321.6234 2199.8861,-297.892 2235.5797,-280.8889"/>
<polygon fill="#191970" stroke="#191970" points="2237.18,-284.0029 2244.6659,-276.5054 2234.1384,-277.6982 2237.18,-284.0029"/>
</g>
<!-- Node47&#45;&gt;Node21 -->
<g id="edge87" class="edge">
<title>Node47&#45;&gt;Node21</title>
<path fill="none" stroke="#191970" d="M1352.755,-369.3977C1336.392,-355.7267 1304.7215,-330.3861 1275,-313 1196.9435,-267.3396 1098.1182,-227.47 1045.9869,-207.7059"/>
<polygon fill="#191970" stroke="#191970" points="1047.0993,-204.385 1036.5073,-204.139 1044.6341,-210.9365 1047.0993,-204.385"/>
</g>
<!-- Node48 -->
<g id="node33" class="node">
<title>Node48</title>
<g id="a_node33"><a xlink:href="repr__printer_8h.html" target="_top" xlink:title="Printer class to print repr string of each AST/IR nodes. ">
<polygon fill="#ffffff" stroke="#000000" points="683.5,-313.5 683.5,-332.5 814.5,-332.5 814.5,-313.5 683.5,-313.5"/>
<text text-anchor="middle" x="749" y="-320.5" font-family="Helvetica,sans-Serif" font-size="10.00" fill="#000000">tvm/node/repr_printer.h</text>
</a>
</g>
</g>
<!-- Node47&#45;&gt;Node48 -->
<g id="edge81" class="edge">
<title>Node47&#45;&gt;Node48</title>
<path fill="none" stroke="#191970" d="M1314.4525,-374.4884C1207.1566,-364.7183 952.713,-341.5495 824.9534,-329.9161"/>
<polygon fill="#191970" stroke="#191970" points="825.1341,-326.4181 814.8579,-328.9968 824.4993,-333.3893 825.1341,-326.4181"/>
</g>
<!-- Node48&#45;&gt;Node1 -->
<g id="edge82" class="edge">
<title>Node48&#45;&gt;Node1</title>
<path fill="none" stroke="#191970" d="M749.1924,-313.2729C748.9674,-297.0761 746.1094,-264.5323 728,-246 719.131,-236.9239 652.2256,-218.7154 604.277,-206.5648"/>
<polygon fill="#191970" stroke="#191970" points="604.9126,-203.1157 594.3607,-204.0694 603.2042,-209.904 604.9126,-203.1157"/>
</g>
<!-- Node49 -->
<g id="node34" class="node">
<title>Node49</title>
<polygon fill="#ffffff" stroke="#bfbfbf" points="659,-252 659,-271 719,-271 719,-252 659,-252"/>
<text text-anchor="middle" x="689" y="-259" font-family="Helvetica,sans-Serif" font-size="10.00" fill="#000000">iostream</text>
</g>
<!-- Node48&#45;&gt;Node49 -->
<g id="edge83" class="edge">
<title>Node48&#45;&gt;Node49</title>
<path fill="none" stroke="#191970" d="M739.625,-313.3906C730.5201,-304.0581 716.5026,-289.6902 705.5243,-278.4374"/>
<polygon fill="#191970" stroke="#191970" points="707.9957,-275.9586 698.5072,-271.2449 702.9852,-280.8468 707.9957,-275.9586"/>
</g>
<!-- Node50&#45;&gt;Node3 -->
<g id="edge185" class="edge">
<title>Node50&#45;&gt;Node3</title>
<path fill="none" stroke="#191970" d="M1077.8366,-821.2954C983.422,-811.5269 811.9852,-786.3329 679,-725 635.6221,-704.9941 593.0449,-695.7201 603,-649 621.2041,-563.5668 643.6572,-543.1874 705,-481 850.1664,-333.8349 918.0388,-334.574 1083,-210 1100.6697,-196.6563 1101.7031,-187.8491 1122,-179 1162.726,-161.2442 1279.262,-147.0786 1355.3671,-139.3752"/>
<polygon fill="#191970" stroke="#191970" points="1355.7603,-142.8535 1365.363,-138.377 1355.0646,-135.8881 1355.7603,-142.8535"/>
</g>
<!-- Node51 -->
<g id="node36" class="node">
<title>Node51</title>
<g id="a_node36"><a xlink:href="analyzer_8h.html" target="_top" xlink:title="Algebra expression simplifications. ">
<polygon fill="#ffffff" stroke="#ff0000" points="688.5,-705.5 688.5,-724.5 803.5,-724.5 803.5,-705.5 688.5,-705.5"/>
<text text-anchor="middle" x="746" y="-712.5" font-family="Helvetica,sans-Serif" font-size="10.00" fill="#000000">tvm/arith/analyzer.h</text>
</a>
</g>
</g>
<!-- Node50&#45;&gt;Node51 -->
<g id="edge97" class="edge">
<title>Node50&#45;&gt;Node51</title>
<path fill="none" stroke="#191970" d="M1113.7257,-817.4509C1040.8917,-797.1589 870.7848,-749.7659 790.0425,-727.2706"/>
<polygon fill="#191970" stroke="#191970" points="790.76,-723.8372 780.1875,-724.5249 788.8813,-730.5804 790.76,-723.8372"/>
</g>
<!-- Node50&#45;&gt;Node60 -->
<g id="edge132" class="edge">
<title>Node50&#45;&gt;Node60</title>
<path fill="none" stroke="#191970" d="M1148,-817.2455C1148,-809.9382 1148,-799.6944 1148,-790.7046"/>
<polygon fill="#191970" stroke="#191970" points="1151.5001,-790.6426 1148,-780.6427 1144.5001,-790.6427 1151.5001,-790.6426"/>
</g>
<!-- Node90 -->
<g id="node50" class="node">
<title>Node90</title>
<g id="a_node50"><a xlink:href="relax_2utils_8h.html" target="_top" xlink:title="Utility classes and functions for working with the Relax IR. ">
<polygon fill="#ffffff" stroke="#ff0000" points="2544.5,-123.5 2544.5,-142.5 2641.5,-142.5 2641.5,-123.5 2544.5,-123.5"/>
<text text-anchor="middle" x="2593" y="-130.5" font-family="Helvetica,sans-Serif" font-size="10.00" fill="#000000">tvm/relax/utils.h</text>
</a>
</g>
</g>
<!-- Node50&#45;&gt;Node90 -->
<g id="edge181" class="edge">
<title>Node50&#45;&gt;Node90</title>
<path fill="none" stroke="#191970" d="M1218.0313,-823.5611C1591,-804.7964 3327,-711.621 3327,-603 3327,-603 3327,-603 3327,-379 3327,-236.8509 2825.8298,-161.654 2651.7363,-139.8208"/>
<polygon fill="#191970" stroke="#191970" points="2652.083,-136.337 2641.7282,-138.5794 2651.2213,-143.2838 2652.083,-136.337"/>
</g>
<!-- Node51&#45;&gt;Node13 -->
<g id="edge131" class="edge">
<title>Node51&#45;&gt;Node13</title>
<path fill="none" stroke="#191970" d="M762.9443,-705.3985C794.2289,-687.5979 863.0636,-648.0896 920,-613 1223.947,-425.6789 1280.3162,-345.7834 1596,-179 1620.0312,-166.3037 1648.325,-154.2585 1669.7803,-145.6809"/>
<polygon fill="#191970" stroke="#191970" points="1671.1015,-148.9222 1679.117,-141.9939 1668.5304,-142.4115 1671.1015,-148.9222"/>
</g>
<!-- Node51&#45;&gt;Node28 -->
<g id="edge130" class="edge">
<title>Node51&#45;&gt;Node28</title>
<path fill="none" stroke="#191970" d="M688.4679,-709.97C645.4832,-703.1295 596.0509,-687.0017 608,-649 612.7755,-633.8127 922.8246,-187.9369 936,-179 961.2497,-161.8732 1043.2147,-146.7128 1092.7968,-138.8019"/>
<polygon fill="#191970" stroke="#191970" points="1093.5161,-142.232 1102.8535,-137.2257 1092.4322,-135.3164 1093.5161,-142.232"/>
</g>
<!-- Node51&#45;&gt;Node44 -->
<g id="edge129" class="edge">
<title>Node51&#45;&gt;Node44</title>
<path fill="none" stroke="#191970" d="M688.3786,-713.0233C595.508,-709.0252 417.5158,-697.7689 362,-669 302.4875,-638.16 285.0448,-619.5675 261,-557 213.201,-432.6212 275.4274,-268.4141 299.3511,-213.3824"/>
<polygon fill="#191970" stroke="#191970" points="302.5948,-214.7019 303.4597,-204.1424 296.1986,-211.8578 302.5948,-214.7019"/>
</g>
<!-- Node52 -->
<g id="node37" class="node">
<title>Node52</title>
<g id="a_node37"><a xlink:href="int__set_8h.html" target="_top" xlink:title="Integer set. ">
<polygon fill="#ffffff" stroke="#ff0000" points="898.5,-649.5 898.5,-668.5 1005.5,-668.5 1005.5,-649.5 898.5,-649.5"/>
<text text-anchor="middle" x="952" y="-656.5" font-family="Helvetica,sans-Serif" font-size="10.00" fill="#000000">tvm/arith/int_set.h</text>
</a>
</g>
</g>
<!-- Node51&#45;&gt;Node52 -->
<g id="edge98" class="edge">
<title>Node51&#45;&gt;Node52</title>
<path fill="none" stroke="#191970" d="M781.4127,-705.3733C816.2605,-695.9001 869.5882,-681.4032 907.3293,-671.1435"/>
<polygon fill="#191970" stroke="#191970" points="908.3178,-674.5019 917.0494,-668.5011 906.4815,-667.747 908.3178,-674.5019"/>
</g>
<!-- Node53 -->
<g id="node38" class="node">
<title>Node53</title>
<g id="a_node38"><a xlink:href="ir_2expr_8h.html" target="_top" xlink:title="Base expr nodes in TVM. ">
<polygon fill="#ffffff" stroke="#ff0000" points="1259.5,-537.5 1259.5,-556.5 1338.5,-556.5 1338.5,-537.5 1259.5,-537.5"/>
<text text-anchor="middle" x="1299" y="-544.5" font-family="Helvetica,sans-Serif" font-size="10.00" fill="#000000">tvm/ir/expr.h</text>
</a>
</g>
</g>
<!-- Node51&#45;&gt;Node53 -->
<g id="edge125" class="edge">
<title>Node51&#45;&gt;Node53</title>
<path fill="none" stroke="#191970" d="M803.6119,-709.0716C858.4948,-702.501 943.0327,-689.9634 1014,-669 1112.2337,-639.9822 1221.9188,-586.6846 1271.7398,-561.2436"/>
<polygon fill="#191970" stroke="#191970" points="1273.5913,-564.2272 1280.8846,-556.5422 1270.3908,-558.0017 1273.5913,-564.2272"/>
</g>
<!-- Node58 -->
<g id="node41" class="node">
<title>Node58</title>
<g id="a_node41"><a xlink:href="with_8h.html" target="_top" xlink:title="RAII wrapper function to enter and exit a context object similar to python&#39;s with syntax...">
<polygon fill="#ffffff" stroke="#ff0000" points="627.5,-185 627.5,-204 736.5,-204 736.5,-185 627.5,-185"/>
<text text-anchor="middle" x="682" y="-192" font-family="Helvetica,sans-Serif" font-size="10.00" fill="#000000">tvm/support/with.h</text>
</a>
</g>
</g>
<!-- Node51&#45;&gt;Node58 -->
<g id="edge126" class="edge">
<title>Node51&#45;&gt;Node58</title>
<path fill="none" stroke="#191970" d="M688.4165,-711.9878C589.3771,-706.2133 395.3873,-692.0712 375,-669 302.4403,-586.888 590.2065,-286.8419 664.7633,-211.668"/>
<polygon fill="#191970" stroke="#191970" points="667.458,-213.9223 672.0363,-204.3677 662.4989,-208.9818 667.458,-213.9223"/>
</g>
<!-- Node52&#45;&gt;Node53 -->
<g id="edge99" class="edge">
<title>Node52&#45;&gt;Node53</title>
<path fill="none" stroke="#191970" d="M981.585,-649.4509C1044.07,-629.2829 1189.4965,-582.3441 1259.6971,-559.6857"/>
<polygon fill="#191970" stroke="#191970" points="1261.0484,-562.9274 1269.4899,-556.5249 1258.8982,-556.2658 1261.0484,-562.9274"/>
</g>
<!-- Node55 -->
<g id="node40" class="node">
<title>Node55</title>
<g id="a_node40"><a xlink:href="tir_2expr_8h.html" target="_top" xlink:title="TIR expressions. ">
<polygon fill="#ffffff" stroke="#ff0000" points="828.5,-593.5 828.5,-612.5 911.5,-612.5 911.5,-593.5 828.5,-593.5"/>
<text text-anchor="middle" x="870" y="-600.5" font-family="Helvetica,sans-Serif" font-size="10.00" fill="#000000">tvm/tir/expr.h</text>
</a>
</g>
</g>
<!-- Node52&#45;&gt;Node55 -->
<g id="edge113" class="edge">
<title>Node52&#45;&gt;Node55</title>
<path fill="none" stroke="#191970" d="M937.7167,-649.2455C925.253,-640.7337 906.9549,-628.2375 892.5208,-618.3801"/>
<polygon fill="#191970" stroke="#191970" points="894.3515,-615.392 884.1196,-612.6427 890.4038,-621.1726 894.3515,-615.392"/>
</g>
<!-- Node53&#45;&gt;Node3 -->
<g id="edge109" class="edge">
<title>Node53&#45;&gt;Node3</title>
<path fill="none" stroke="#191970" d="M1297.8621,-537.1421C1295.0243,-509.8636 1288.9607,-431.2822 1305,-369 1327.5089,-281.5959 1386.0878,-189.4281 1412.1606,-151.2271"/>
<polygon fill="#191970" stroke="#191970" points="1415.2387,-152.9293 1418.0471,-142.7135 1409.481,-148.9483 1415.2387,-152.9293"/>
</g>
<!-- Node53&#45;&gt;Node9 -->
<g id="edge111" class="edge">
<title>Node53&#45;&gt;Node9</title>
<path fill="none" stroke="#191970" d="M1338.7918,-543.442C1419.5731,-536.141 1608.5764,-518.6622 1767,-501 2251.0911,-447.0302 2386.346,-482.2711 2850,-333 2950.778,-300.555 3011.3065,-306.8821 3054,-210 3069.6018,-174.5956 3072.062,-158.6374 3057,-123 3050.9501,-108.6858 3038.7603,-96.3878 3027.595,-87.4027"/>
<polygon fill="#191970" stroke="#191970" points="3029.4656,-84.4295 3019.3753,-81.1989 3025.2486,-90.0168 3029.4656,-84.4295"/>
</g>
<!-- Node53&#45;&gt;Node10 -->
<g id="edge112" class="edge">
<title>Node53&#45;&gt;Node10</title>
<path fill="none" stroke="#191970" d="M1274.7647,-537.4572C1197.1622,-505.3925 954.6601,-393.1374 865,-210 847.9979,-175.2719 839.6571,-152.2035 865,-123 885.5569,-99.3116 1090.1228,-81.5047 1182.3342,-74.6164"/>
<polygon fill="#191970" stroke="#191970" points="1182.7622,-78.0944 1192.4779,-73.8689 1182.2477,-71.1133 1182.7622,-78.0944"/>
</g>
<!-- Node53&#45;&gt;Node44 -->
<g id="edge110" class="edge">
<title>Node53&#45;&gt;Node44</title>
<path fill="none" stroke="#191970" d="M1259.4848,-541.2822C1110.2488,-519.0565 582.7351,-434.5904 451,-333 416.0295,-306.0317 434.3422,-277.111 403,-246 392.9499,-236.0241 361.7178,-219.9052 337.7802,-208.3572"/>
<polygon fill="#191970" stroke="#191970" points="339.2323,-205.1721 328.6997,-204.0252 336.2182,-211.49 339.2323,-205.1721"/>
</g>
<!-- Node53&#45;&gt;Node46 -->
<g id="edge100" class="edge">
<title>Node53&#45;&gt;Node46</title>
<path fill="none" stroke="#191970" d="M1311.3626,-537.4509C1336.296,-518.1921 1392.8333,-474.5218 1423.4236,-450.8935"/>
<polygon fill="#191970" stroke="#191970" points="1425.8941,-453.4078 1431.6687,-444.5249 1421.6151,-447.8679 1425.8941,-453.4078"/>
</g>
<!-- Node53&#45;&gt;Node47 -->
<g id="edge108" class="edge">
<title>Node53&#45;&gt;Node47</title>
<path fill="none" stroke="#191970" d="M1302.6809,-537.4862C1313.0449,-510.6994 1342.621,-434.2565 1356.5602,-398.2289"/>
<polygon fill="#191970" stroke="#191970" points="1359.8533,-399.4171 1360.1975,-388.8279 1353.3249,-396.8912 1359.8533,-399.4171"/>
</g>
<!-- Node54 -->
<g id="node39" class="node">
<title>Node54</title>
<g id="a_node39"><a xlink:href="ir_2type_8h.html" target="_top" xlink:title="IR/AST nodes for the unified type system in TVM. ">
<polygon fill="#ffffff" stroke="#000000" points="1555,-481.5 1555,-500.5 1635,-500.5 1635,-481.5 1555,-481.5"/>
<text text-anchor="middle" x="1595" y="-488.5" font-family="Helvetica,sans-Serif" font-size="10.00" fill="#000000">tvm/ir/type.h</text>
</a>
</g>
</g>
<!-- Node53&#45;&gt;Node54 -->
<g id="edge101" class="edge">
<title>Node53&#45;&gt;Node54</title>
<path fill="none" stroke="#191970" d="M1338.6127,-539.5057C1391.8155,-529.4403 1486.3835,-511.5491 1544.5985,-500.5354"/>
<polygon fill="#191970" stroke="#191970" points="1545.4994,-503.9272 1554.6744,-498.6292 1544.1981,-497.0492 1545.4994,-503.9272"/>
</g>
<!-- Node54&#45;&gt;Node3 -->
<g id="edge106" class="edge">
<title>Node54&#45;&gt;Node3</title>
<path fill="none" stroke="#191970" d="M1590.4529,-481.4244C1567.5978,-433.2941 1465.1372,-217.5242 1434.0022,-151.9577"/>
<polygon fill="#191970" stroke="#191970" points="1437.092,-150.3049 1429.6408,-142.773 1430.7687,-153.3076 1437.092,-150.3049"/>
</g>
<!-- Node54&#45;&gt;Node9 -->
<g id="edge107" class="edge">
<title>Node54&#45;&gt;Node9</title>
<path fill="none" stroke="#191970" d="M1635.1071,-489.3299C1723.8452,-485.2393 1943.3405,-472.9426 2125,-445 2331.0033,-413.3129 2908.9917,-377.5213 3033,-210 3056.1027,-178.7908 3052.9008,-159.9611 3041,-123 3036.9183,-110.3232 3028.4324,-98.1274 3020.616,-88.7887"/>
<polygon fill="#191970" stroke="#191970" points="3023.0294,-86.2355 3013.7714,-81.0837 3017.7961,-90.8844 3023.0294,-86.2355"/>
</g>
<!-- Node54&#45;&gt;Node31 -->
<g id="edge104" class="edge">
<title>Node54&#45;&gt;Node31</title>
<path fill="none" stroke="#191970" d="M1585.4498,-481.1221C1572.3476,-467.7787 1547.8186,-443.5335 1525,-425 1421.0794,-340.5946 1287.7672,-253.7017 1226.9242,-215.1127"/>
<polygon fill="#191970" stroke="#191970" points="1228.4635,-211.945 1218.1409,-209.5586 1224.7223,-217.8614 1228.4635,-211.945"/>
</g>
<!-- Node54&#45;&gt;Node32 -->
<g id="edge105" class="edge">
<title>Node54&#45;&gt;Node32</title>
<path fill="none" stroke="#191970" d="M1635.1404,-488.0729C1790.6437,-476.1227 2352.0688,-427.1382 2500,-333 2566.1378,-290.9123 2635.1456,-240.0761 2586,-179 2569.5141,-158.512 2507.5464,-146.6413 2455.1641,-140.109"/>
<polygon fill="#191970" stroke="#191970" points="2455.5157,-136.6262 2445.1703,-138.9117 2454.6829,-143.5765 2455.5157,-136.6262"/>
</g>
<!-- Node54&#45;&gt;Node46 -->
<g id="edge102" class="edge">
<title>Node54&#45;&gt;Node46</title>
<path fill="none" stroke="#191970" d="M1569.0422,-481.3733C1544.2593,-472.1822 1506.7254,-458.2624 1479.246,-448.0713"/>
<polygon fill="#191970" stroke="#191970" points="1480.2121,-444.6968 1469.6191,-444.5011 1477.7781,-451.26 1480.2121,-444.6968"/>
</g>
<!-- Node54&#45;&gt;Node47 -->
<g id="edge103" class="edge">
<title>Node54&#45;&gt;Node47</title>
<path fill="none" stroke="#191970" d="M1582.3703,-481.4454C1563.6421,-467.605 1527.046,-441.8011 1493,-425 1465.3294,-411.3451 1432.563,-399.7134 1406.9778,-391.5627"/>
<polygon fill="#191970" stroke="#191970" points="1407.7862,-388.1484 1397.1973,-388.5042 1405.6969,-394.8294 1407.7862,-388.1484"/>
</g>
<!-- Node55&#45;&gt;Node1 -->
<g id="edge115" class="edge">
<title>Node55&#45;&gt;Node1</title>
<path fill="none" stroke="#191970" d="M852.9474,-593.3669C838.4136,-584.763 817.3443,-571.3346 801,-557 679.63,-450.5536 590.4096,-271.4222 563.4623,-213.3119"/>
<polygon fill="#191970" stroke="#191970" points="566.6337,-211.8309 559.2884,-204.1956 560.269,-214.7449 566.6337,-211.8309"/>
</g>
<!-- Node55&#45;&gt;Node4 -->
<g id="edge117" class="edge">
<title>Node55&#45;&gt;Node4</title>
<path fill="none" stroke="#191970" d="M883.5139,-593.4109C903.9559,-579.2913 944.3576,-552.8691 982,-537 1156.8535,-463.2859 1207.637,-460.7257 1394,-425 1658.3498,-374.3243 2475.2327,-455.315 2586,-210 2591.6699,-197.443 2593.6056,-190.4883 2586,-179 2585.4503,-178.1697 2454.9582,-123.2709 2454,-123 2364.3541,-97.6522 2257.7085,-84.092 2187.8455,-77.3544"/>
<polygon fill="#191970" stroke="#191970" points="2188.0953,-73.8625 2177.8112,-76.4092 2187.4388,-80.8317 2188.0953,-73.8625"/>
</g>
<!-- Node55&#45;&gt;Node9 -->
<g id="edge123" class="edge">
<title>Node55&#45;&gt;Node9</title>
<path fill="none" stroke="#191970" d="M911.604,-593.8621C913.0866,-593.5663 914.5554,-593.278 916,-593 1063.8053,-564.5603 1100.527,-554.6928 1250,-537 1478.7373,-509.9248 1537.7441,-523.2617 1767,-501 2051.5834,-473.3658 2809.8075,-454.4517 3034,-277 3089.4483,-233.1118 3105.9158,-186.1037 3074,-123 3065.7671,-106.7219 3049.6967,-94.3323 3035.0285,-85.7891"/>
<polygon fill="#191970" stroke="#191970" points="3036.6165,-82.6686 3026.1592,-80.9665 3033.2726,-88.8183 3036.6165,-82.6686"/>
</g>
<!-- Node55&#45;&gt;Node11 -->
<g id="edge124" class="edge">
<title>Node55&#45;&gt;Node11</title>
<path fill="none" stroke="#191970" d="M832.6947,-593.4536C719.4614,-562.1017 381.1087,-450.2496 277,-210 239.3708,-123.1638 404.6573,-87.2877 477.2676,-75.8951"/>
<polygon fill="#191970" stroke="#191970" points="477.9055,-79.3386 487.273,-74.3887 476.8633,-72.4166 477.9055,-79.3386"/>
</g>
<!-- Node55&#45;&gt;Node31 -->
<g id="edge118" class="edge">
<title>Node55&#45;&gt;Node31</title>
<path fill="none" stroke="#191970" d="M871.5078,-593.2139C877.1085,-559.3416 899.2317,-445.0118 953,-369 1005.0288,-295.4473 1098.0257,-241.1208 1152.019,-213.9632"/>
<polygon fill="#191970" stroke="#191970" points="1153.5746,-217.0986 1160.9827,-209.5243 1150.468,-210.8257 1153.5746,-217.0986"/>
</g>
<!-- Node55&#45;&gt;Node32 -->
<g id="edge120" class="edge">
<title>Node55&#45;&gt;Node32</title>
<path fill="none" stroke="#191970" d="M891.1645,-593.3903C925.4069,-578.3461 995.4439,-549.6475 1058,-537 1313.7606,-485.2907 1384.0887,-524.0963 1644,-501 1858.377,-481.95 1912.4969,-479.1 2125,-445 2308.5513,-415.5458 2368.294,-428.1451 2528,-333 2594.0861,-293.6291 2655.7943,-238.4689 2607,-179 2587.9054,-155.7282 2514.3664,-144.0094 2455.3238,-138.2524"/>
<polygon fill="#191970" stroke="#191970" points="2455.5174,-134.7553 2445.2356,-137.312 2454.8676,-141.7251 2455.5174,-134.7553"/>
</g>
<!-- Node55&#45;&gt;Node41 -->
<g id="edge119" class="edge">
<title>Node55&#45;&gt;Node41</title>
<path fill="none" stroke="#191970" d="M828.2608,-598.9357C756.3691,-591.5658 612.3379,-575.0767 565,-557 395.2542,-492.1798 346.5285,-466.2517 223,-333 192.9772,-300.614 200.5372,-282.0288 175,-246 167.8877,-235.9657 159.0882,-225.7029 151.096,-217.0062"/>
<polygon fill="#191970" stroke="#191970" points="153.4527,-214.403 144.0547,-209.5112 148.3509,-219.1959 153.4527,-214.403"/>
</g>
<!-- Node55&#45;&gt;Node44 -->
<g id="edge122" class="edge">
<title>Node55&#45;&gt;Node44</title>
<path fill="none" stroke="#191970" d="M847.6958,-593.3966C779.1541,-563.0919 567.9086,-463.7005 430,-333 394.967,-299.7981 397.5048,-281.6808 365,-246 353.4363,-233.3064 339.0866,-220.3545 327.6781,-210.6148"/>
<polygon fill="#191970" stroke="#191970" points="329.8803,-207.8936 319.9726,-204.14 325.3771,-213.2529 329.8803,-207.8936"/>
</g>
<!-- Node55&#45;&gt;Node47 -->
<g id="edge116" class="edge">
<title>Node55&#45;&gt;Node47</title>
<path fill="none" stroke="#191970" d="M872.935,-593.0651C877.6486,-578.7512 888.2255,-552.363 906,-537 1023.4258,-435.5053 1209.5283,-398.2359 1304.2924,-385.3365"/>
<polygon fill="#191970" stroke="#191970" points="1304.8221,-388.7971 1314.2797,-384.0216 1303.9083,-381.857 1304.8221,-388.7971"/>
</g>
<!-- Node55&#45;&gt;Node49 -->
<g id="edge121" class="edge">
<title>Node55&#45;&gt;Node49</title>
<path fill="none" stroke="#191970" d="M858.8875,-593.1368C823.0861,-560.4983 710.9461,-451.3227 674,-333 668.5852,-315.6587 673.9254,-295.3395 679.6807,-280.8035"/>
<polygon fill="#191970" stroke="#191970" points="683.007,-281.9317 683.7969,-271.3663 676.5908,-279.133 683.007,-281.9317"/>
</g>
<!-- Node55&#45;&gt;Node53 -->
<g id="edge114" class="edge">
<title>Node55&#45;&gt;Node53</title>
<path fill="none" stroke="#191970" d="M911.5241,-597.5796C990.9354,-587.2136 1164.0047,-564.6218 1249.3653,-553.4791"/>
<polygon fill="#191970" stroke="#191970" points="1249.8653,-556.9436 1259.3281,-552.1786 1248.9592,-550.0025 1249.8653,-556.9436"/>
</g>
<!-- Node58&#45;&gt;Node11 -->
<g id="edge128" class="edge">
<title>Node58&#45;&gt;Node11</title>
<path fill="none" stroke="#191970" d="M683.9248,-184.924C686.3516,-169.916 688.6112,-140.7404 674,-123 657.2175,-102.6233 585.3086,-85.8149 542.4803,-77.3743"/>
<polygon fill="#191970" stroke="#191970" points="543.0078,-73.9117 532.5267,-75.4598 541.6856,-80.7857 543.0078,-73.9117"/>
</g>
<!-- Node58&#45;&gt;Node39 -->
<g id="edge127" class="edge">
<title>Node58&#45;&gt;Node39</title>
<path fill="none" stroke="#191970" d="M736.9754,-190.7306C788.4065,-187.3026 867.3801,-182.2906 936,-179 1437.273,-154.9618 2046.365,-138.365 2211.173,-134.0888"/>
<polygon fill="#191970" stroke="#191970" points="2211.4741,-137.5823 2221.3803,-133.825 2211.2931,-130.5846 2211.4741,-137.5823"/>
</g>
<!-- Node60&#45;&gt;Node3 -->
<g id="edge173" class="edge">
<title>Node60&#45;&gt;Node3</title>
<path fill="none" stroke="#191970" d="M1142.393,-761.4834C1131.8226,-742.6141 1110,-698.8343 1110,-659 1110,-659 1110,-659 1110,-603 1110,-391.522 1332.7852,-203.3337 1403.6379,-148.8313"/>
<polygon fill="#191970" stroke="#191970" points="1406.0204,-151.4168 1411.8659,-142.5804 1401.7858,-145.8429 1406.0204,-151.4168"/>
</g>
<!-- Node60&#45;&gt;Node31 -->
<g id="edge171" class="edge">
<title>Node60&#45;&gt;Node31</title>
<path fill="none" stroke="#191970" d="M1132.202,-761.329C1120.2889,-753.1642 1104.5825,-740.3628 1096,-725 1018.372,-586.0446 1015.1199,-522.5603 1057,-369 1074.7323,-303.9816 1132.2252,-246.3232 1166.8432,-216.3375"/>
<polygon fill="#191970" stroke="#191970" points="1169.3384,-218.8104 1174.6957,-209.6698 1164.8076,-213.4745 1169.3384,-218.8104"/>
</g>
<!-- Node60&#45;&gt;Node41 -->
<g id="edge172" class="edge">
<title>Node60&#45;&gt;Node41</title>
<path fill="none" stroke="#191970" d="M1099.4395,-769.5484C943.8231,-764.1985 459.798,-741.941 324,-669 229.4997,-618.2412 161,-598.2696 161,-491 161,-491 161,-491 161,-323 161,-286.0223 148.3684,-244.7857 138.9776,-219.2382"/>
<polygon fill="#191970" stroke="#191970" points="142.1477,-217.7275 135.3222,-209.6242 135.6047,-220.2153 142.1477,-217.7275"/>
</g>
<!-- Node60&#45;&gt;Node46 -->
<g id="edge134" class="edge">
<title>Node60&#45;&gt;Node46</title>
<path fill="none" stroke="#191970" d="M1160.2161,-761.2281C1171.2446,-752.2154 1187.7283,-738.2632 1201,-725 1296.8274,-629.234 1395.9754,-499.541 1430.8924,-452.7497"/>
<polygon fill="#191970" stroke="#191970" points="1433.8441,-454.6456 1436.9993,-444.5315 1428.2255,-450.4704 1433.8441,-454.6456"/>
</g>
<!-- Node60&#45;&gt;Node47 -->
<g id="edge135" class="edge">
<title>Node60&#45;&gt;Node47</title>
<path fill="none" stroke="#191970" d="M1148,-761.4116C1148,-742.0538 1148,-696.9167 1148,-659 1148,-659 1148,-659 1148,-603 1148,-497.5793 1273.5023,-422.7225 1333.178,-393.0872"/>
<polygon fill="#191970" stroke="#191970" points="1335.0328,-396.0775 1342.4994,-388.5608 1331.975,-389.7806 1335.0328,-396.0775"/>
</g>
<!-- Node60&#45;&gt;Node53 -->
<g id="edge133" class="edge">
<title>Node60&#45;&gt;Node53</title>
<path fill="none" stroke="#191970" d="M1154.4883,-761.375C1177.6241,-727.0543 1256.3196,-610.3139 1286.8007,-565.097"/>
<polygon fill="#191970" stroke="#191970" points="1289.8484,-566.8375 1292.5359,-556.5891 1284.044,-562.9247 1289.8484,-566.8375"/>
</g>
<!-- Node60&#45;&gt;Node55 -->
<g id="edge174" class="edge">
<title>Node60&#45;&gt;Node55</title>
<path fill="none" stroke="#191970" d="M1099.4336,-764.9101C1041.1984,-755.0378 944.5164,-730.0499 889,-669 877.6062,-656.4705 873.0067,-637.5283 871.1696,-623.1458"/>
<polygon fill="#191970" stroke="#191970" points="874.6187,-622.4331 870.2115,-612.7984 867.6485,-623.0786 874.6187,-622.4331"/>
</g>
<!-- Node60&#45;&gt;Node61 -->
<g id="edge136" class="edge">
<title>Node60&#45;&gt;Node61</title>
<path fill="none" stroke="#191970" d="M1196.7548,-765.5285C1288.7729,-755.2018 1487.7347,-732.8735 1587.4714,-721.6806"/>
<polygon fill="#191970" stroke="#191970" points="1588.131,-725.1286 1597.6783,-720.5351 1587.3503,-718.1723 1588.131,-725.1286"/>
</g>
<!-- Node75 -->
<g id="node48" class="node">
<title>Node75</title>
<g id="a_node48"><a xlink:href="relay_2expr_8h.html" target="_top" xlink:title="Relay expression language. ">
<polygon fill="#ffffff" stroke="#ff0000" points="1910.5,-649.5 1910.5,-668.5 2007.5,-668.5 2007.5,-649.5 1910.5,-649.5"/>
<text text-anchor="middle" x="1959" y="-656.5" font-family="Helvetica,sans-Serif" font-size="10.00" fill="#000000">tvm/relay/expr.h</text>
</a>
</g>
</g>
<!-- Node60&#45;&gt;Node75 -->
<g id="edge165" class="edge">
<title>Node60&#45;&gt;Node75</title>
<path fill="none" stroke="#191970" d="M1196.779,-769.7848C1294.0803,-766.7429 1518.9423,-756.6144 1705,-725 1782.1116,-711.8974 1870.0255,-686.6877 1919.5766,-671.5011"/>
<polygon fill="#191970" stroke="#191970" points="1920.7334,-674.8071 1929.2555,-668.5123 1918.668,-668.1187 1920.7334,-674.8071"/>
</g>
<!-- Node88 -->
<g id="node49" class="node">
<title>Node88</title>
<g id="a_node49"><a xlink:href="tir_2op_8h.html" target="_top" xlink:title="Common operators defined for Expr. ">
<polygon fill="#ffffff" stroke="#ff0000" points="617,-649.5 617,-668.5 691,-668.5 691,-649.5 617,-649.5"/>
<text text-anchor="middle" x="654" y="-656.5" font-family="Helvetica,sans-Serif" font-size="10.00" fill="#000000">tvm/tir/op.h</text>
</a>
</g>
</g>
<!-- Node60&#45;&gt;Node88 -->
<g id="edge175" class="edge">
<title>Node60&#45;&gt;Node88</title>
<path fill="none" stroke="#191970" d="M1099.3131,-767.3777C1040.6127,-762.0919 939.4416,-750.0308 856,-725 835.4249,-718.8279 832.1418,-712.4659 812,-705 775.3789,-691.4257 732.8141,-679.2315 701.0964,-670.8143"/>
<polygon fill="#191970" stroke="#191970" points="701.7618,-667.3705 691.2009,-668.2172 699.9848,-674.1412 701.7618,-667.3705"/>
</g>
<!-- Node61&#45;&gt;Node9 -->
<g id="edge164" class="edge">
<title>Node61&#45;&gt;Node9</title>
<path fill="none" stroke="#191970" d="M1696.0299,-712.822C1918.0681,-702.7696 2830.7193,-659.368 3113,-613 3227.2465,-594.2336 3365,-662.7776 3365,-547 3365,-547 3365,-547 3365,-194.5 3365,-149.7163 3333.6746,-143.7727 3294,-123 3249.4784,-99.6896 3102.3632,-81.8144 3036.4442,-74.7701"/>
<polygon fill="#191970" stroke="#191970" points="3036.5328,-71.2602 3026.2216,-73.6953 3035.8008,-78.2218 3036.5328,-71.2602"/>
</g>
<!-- Node61&#45;&gt;Node15 -->
<g id="edge147" class="edge">
<title>Node61&#45;&gt;Node15</title>
<path fill="none" stroke="#191970" d="M1651.7632,-705.1763C1658.3985,-691.8944 1671.1751,-667.7186 1685,-649 1708.9878,-616.5211 1742.0625,-583.0501 1762.1891,-563.6772"/>
<polygon fill="#191970" stroke="#191970" points="1764.6418,-566.1746 1769.4681,-556.7429 1759.8135,-561.1063 1764.6418,-566.1746"/>
</g>
<!-- Node61&#45;&gt;Node54 -->
<g id="edge151" class="edge">
<title>Node61&#45;&gt;Node54</title>
<path fill="none" stroke="#191970" d="M1637.7218,-705.3043C1629.9589,-696.5584 1619.3232,-682.9589 1614,-669 1593.297,-614.7104 1592.6994,-544.7819 1593.8829,-511.0115"/>
<polygon fill="#191970" stroke="#191970" points="1597.3955,-510.8057 1594.3458,-500.6593 1590.4025,-510.4929 1597.3955,-510.8057"/>
</g>
<!-- Node61&#45;&gt;Node55 -->
<g id="edge163" class="edge">
<title>Node61&#45;&gt;Node55</title>
<path fill="none" stroke="#191970" d="M1597.8057,-707.9089C1458.8385,-687.8776 1064.2102,-630.9943 921.9384,-610.4866"/>
<polygon fill="#191970" stroke="#191970" points="922.1365,-606.9791 911.7394,-609.0165 921.1378,-613.9075 922.1365,-606.9791"/>
</g>
<!-- Node62 -->
<g id="node44" class="node">
<title>Node62</title>
<g id="a_node44"><a xlink:href="ir_2attrs_8h.html" target="_top" xlink:title="Helpers for attribute objects. ">
<polygon fill="#ffffff" stroke="#ff0000" points="1914,-593.5 1914,-612.5 1994,-612.5 1994,-593.5 1914,-593.5"/>
<text text-anchor="middle" x="1954" y="-600.5" font-family="Helvetica,sans-Serif" font-size="10.00" fill="#000000">tvm/ir/attrs.h</text>
</a>
</g>
</g>
<!-- Node61&#45;&gt;Node62 -->
<g id="edge137" class="edge">
<title>Node61&#45;&gt;Node62</title>
<path fill="none" stroke="#191970" d="M1695.4856,-705.4952C1731.7895,-697.6571 1782.3299,-685.2026 1825,-669 1862.7461,-654.6671 1903.8669,-632.3645 1929.2948,-617.7188"/>
<polygon fill="#191970" stroke="#191970" points="1931.3526,-620.5707 1938.2321,-612.5132 1927.8294,-614.5219 1931.3526,-620.5707"/>
</g>
<!-- Node63 -->
<g id="node45" class="node">
<title>Node63</title>
<g id="a_node45"><a xlink:href="tensor__type_8h.html" target="_top" xlink:title="Polymorphic tensor types. ">
<polygon fill="#ffffff" stroke="#000000" points="1446,-593.5 1446,-612.5 1562,-612.5 1562,-593.5 1446,-593.5"/>
<text text-anchor="middle" x="1504" y="-600.5" font-family="Helvetica,sans-Serif" font-size="10.00" fill="#000000">tvm/ir/tensor_type.h</text>
</a>
</g>
</g>
<!-- Node61&#45;&gt;Node63 -->
<g id="edge148" class="edge">
<title>Node61&#45;&gt;Node63</title>
<path fill="none" stroke="#191970" d="M1630.4,-705.33C1615.6634,-696.495 1593.7742,-682.7496 1576,-669 1556.0427,-653.5616 1534.961,-633.7727 1520.8043,-619.9063"/>
<polygon fill="#191970" stroke="#191970" points="1522.8982,-617.0541 1513.3301,-612.504 1517.9724,-622.0277 1522.8982,-617.0541"/>
</g>
<!-- Node64 -->
<g id="node46" class="node">
<title>Node64</title>
<g id="a_node46"><a xlink:href="type__relation_8h.html" target="_top" xlink:title="Type relation and function for type inference(checking). ">
<polygon fill="#ffffff" stroke="#ff0000" points="1694,-649.5 1694,-668.5 1816,-668.5 1816,-649.5 1694,-649.5"/>
<text text-anchor="middle" x="1755" y="-656.5" font-family="Helvetica,sans-Serif" font-size="10.00" fill="#000000">tvm/ir/type_relation.h</text>
</a>
</g>
</g>
<!-- Node61&#45;&gt;Node64 -->
<g id="edge152" class="edge">
<title>Node61&#45;&gt;Node64</title>
<path fill="none" stroke="#191970" d="M1665.8122,-705.2455C1682.8473,-696.4125 1708.1575,-683.2887 1727.4681,-673.2758"/>
<polygon fill="#191970" stroke="#191970" points="1729.137,-676.353 1736.4034,-668.6427 1725.9147,-670.1388 1729.137,-676.353"/>
</g>
<!-- Node71 -->
<g id="node47" class="node">
<title>Node71</title>
<g id="a_node47"><a xlink:href="registry_8h.html" target="_top" xlink:title="This file defines the TVM global function registry. ">
<polygon fill="#ffffff" stroke="#000000" points="1629.5,-313.5 1629.5,-332.5 1754.5,-332.5 1754.5,-313.5 1629.5,-313.5"/>
<text text-anchor="middle" x="1692" y="-320.5" font-family="Helvetica,sans-Serif" font-size="10.00" fill="#000000">tvm/runtime/registry.h</text>
</a>
</g>
</g>
<!-- Node61&#45;&gt;Node71 -->
<g id="edge157" class="edge">
<title>Node61&#45;&gt;Node71</title>
<path fill="none" stroke="#191970" d="M1648.2026,-705.1925C1651.9236,-673.9675 1663,-574.0444 1663,-491 1663,-491 1663,-491 1663,-435 1663,-401.5134 1675.2995,-364.1413 1683.8785,-342.1469"/>
<polygon fill="#191970" stroke="#191970" points="1687.2072,-343.2517 1687.721,-332.6693 1680.7201,-340.6216 1687.2072,-343.2517"/>
</g>
<!-- Node62&#45;&gt;Node9 -->
<g id="edge143" class="edge">
<title>Node62&#45;&gt;Node9</title>
<path fill="none" stroke="#191970" d="M1994.2389,-601.6842C2213.1586,-594.2676 3251,-555.6958 3251,-491 3251,-491 3251,-491 3251,-379 3251,-265.2083 3333.8379,-196.5373 3247,-123 3215.4765,-96.3048 3095.0492,-80.723 3036.4331,-74.5711"/>
<polygon fill="#191970" stroke="#191970" points="3036.5465,-71.0646 3026.2429,-73.5316 3035.8361,-78.0285 3036.5465,-71.0646"/>
</g>
<!-- Node62&#45;&gt;Node10 -->
<g id="edge144" class="edge">
<title>Node62&#45;&gt;Node10</title>
<path fill="none" stroke="#191970" d="M1941.4879,-593.4471C1921.3359,-578.6159 1879.8992,-550.3693 1840,-537 1715.1783,-495.1751 1673.9499,-531.9613 1546,-501 1397.0922,-464.9673 991.1726,-346.19 921,-210 902.8721,-174.8176 910.0017,-148.8171 940,-123 975.6565,-92.3134 1110.8151,-79.0392 1182.2018,-74.0688"/>
<polygon fill="#191970" stroke="#191970" points="1182.5088,-77.5562 1192.2521,-73.3947 1182.0402,-70.5719 1182.5088,-77.5562"/>
</g>
<!-- Node62&#45;&gt;Node11 -->
<g id="edge145" class="edge">
<title>Node62&#45;&gt;Node11</title>
<path fill="none" stroke="#191970" d="M1913.8996,-598.5507C1748.7645,-579.49 1106.3988,-498.0769 604,-333 546.1661,-313.9971 521.497,-320.5877 479,-277 456.4701,-253.8919 457.3461,-241.6434 451,-210 443.3842,-172.0257 439.186,-157.8904 456,-123 462.8122,-108.8641 475.2669,-96.5758 486.4995,-87.5512"/>
<polygon fill="#191970" stroke="#191970" points="488.8804,-90.1385 494.7374,-81.3097 484.6531,-84.5591 488.8804,-90.1385"/>
</g>
<!-- Node62&#45;&gt;Node13 -->
<g id="edge146" class="edge">
<title>Node62&#45;&gt;Node13</title>
<path fill="none" stroke="#191970" d="M1994.1052,-601.0504C2145.81,-593.151 2676,-560.5673 2676,-491 2676,-491 2676,-491 2676,-379 2676,-284.4628 2598.2146,-279.9923 2510,-246 2385.7742,-198.1313 2042.2995,-237.304 1912,-210 1894.2744,-206.2856 1790.567,-166.7721 1736.2126,-145.8439"/>
<polygon fill="#191970" stroke="#191970" points="1737.2593,-142.4964 1726.6696,-142.1653 1734.7415,-149.028 1737.2593,-142.4964"/>
</g>
<!-- Node62&#45;&gt;Node17 -->
<g id="edge139" class="edge">
<title>Node62&#45;&gt;Node17</title>
<path fill="none" stroke="#191970" d="M1994.4102,-600.2933C2135.8354,-590.289 2600,-552.7505 2600,-491 2600,-491 2600,-491 2600,-435 2600,-364.5559 2528.0095,-309.7538 2481.8379,-281.8502"/>
<polygon fill="#191970" stroke="#191970" points="2483.3697,-278.6905 2472.9768,-276.6315 2479.8173,-284.7221 2483.3697,-278.6905"/>
</g>
<!-- Node62&#45;&gt;Node33 -->
<g id="edge140" class="edge">
<title>Node62&#45;&gt;Node33</title>
<path fill="none" stroke="#191970" d="M1994.0813,-599.388C2123.8254,-587.1649 2524,-545.0811 2524,-491 2524,-491 2524,-491 2524,-435 2524,-345.5073 2414.5391,-298.4829 2340.4774,-276.9083"/>
<polygon fill="#191970" stroke="#191970" points="2341.3038,-273.5049 2330.7289,-274.1547 2339.4009,-280.2413 2341.3038,-273.5049"/>
</g>
<!-- Node62&#45;&gt;Node39 -->
<g id="edge142" class="edge">
<title>Node62&#45;&gt;Node39</title>
<path fill="none" stroke="#191970" d="M1994.2724,-601.6646C2111.4183,-597.5068 2450.523,-583.4586 2558,-557 2619.0866,-541.9617 2652.4846,-552.9267 2688,-501 2772.7483,-377.0903 2713.6313,-258.0326 2586,-179 2476.3278,-111.0882 2425.0502,-165.3215 2298,-143 2297.5371,-142.9187 2297.0717,-142.8357 2296.6042,-142.7511"/>
<polygon fill="#191970" stroke="#191970" points="2297.0918,-139.2801 2286.6049,-140.7885 2295.7436,-146.149 2297.0918,-139.2801"/>
</g>
<!-- Node62&#45;&gt;Node40 -->
<g id="edge141" class="edge">
<title>Node62&#45;&gt;Node40</title>
<path fill="none" stroke="#191970" d="M1945.0938,-593.3544C1929.0625,-574.945 1897,-532.8901 1897,-491 1897,-491 1897,-491 1897,-379 1897,-336.0721 1857.4419,-302.0672 1826.2076,-281.9083"/>
<polygon fill="#191970" stroke="#191970" points="1827.9991,-278.9008 1817.6585,-276.5938 1824.3034,-284.8458 1827.9991,-278.9008"/>
</g>
<!-- Node62&#45;&gt;Node53 -->
<g id="edge138" class="edge">
<title>Node62&#45;&gt;Node53</title>
<path fill="none" stroke="#191970" d="M1913.5211,-599.5392C1799.1728,-589.7629 1473.9359,-561.9564 1348.8576,-551.2626"/>
<polygon fill="#191970" stroke="#191970" points="1349.0543,-547.7668 1338.7925,-550.4021 1348.458,-554.7413 1349.0543,-547.7668"/>
</g>
<!-- Node63&#45;&gt;Node53 -->
<g id="edge149" class="edge">
<title>Node63&#45;&gt;Node53</title>
<path fill="none" stroke="#191970" d="M1468.7592,-593.3733C1434.0806,-583.9001 1381.0117,-569.4032 1343.4538,-559.1435"/>
<polygon fill="#191970" stroke="#191970" points="1344.3498,-555.7601 1333.7809,-556.5011 1342.5051,-562.5126 1344.3498,-555.7601"/>
</g>
<!-- Node63&#45;&gt;Node54 -->
<g id="edge150" class="edge">
<title>Node63&#45;&gt;Node54</title>
<path fill="none" stroke="#191970" d="M1511.7586,-593.4509C1527.0706,-574.6054 1561.3748,-532.3849 1580.8285,-508.4419"/>
<polygon fill="#191970" stroke="#191970" points="1583.6715,-510.4931 1587.261,-500.5249 1578.2387,-506.079 1583.6715,-510.4931"/>
</g>
<!-- Node64&#45;&gt;Node8 -->
<g id="edge156" class="edge">
<title>Node64&#45;&gt;Node8</title>
<path fill="none" stroke="#191970" d="M1816.1915,-654.4778C2049.613,-637.0289 2871,-573.7288 2871,-547 2871,-547 2871,-547 2871,-261.5 2871,-103.5707 2682.6562,-201.5974 2536,-143 2532.7605,-141.7057 2452,-105.5494 2406.4861,-85.1604"/>
<polygon fill="#191970" stroke="#191970" points="2407.9065,-81.9616 2397.3495,-81.0672 2405.0445,-88.3498 2407.9065,-81.9616"/>
</g>
<!-- Node64&#45;&gt;Node15 -->
<g id="edge154" class="edge">
<title>Node64&#45;&gt;Node15</title>
<path fill="none" stroke="#191970" d="M1757.1315,-649.4509C1761.2274,-631.1013 1770.2699,-590.5908 1775.6765,-566.3693"/>
<polygon fill="#191970" stroke="#191970" points="1779.1112,-567.0472 1777.8739,-556.5249 1772.2794,-565.5222 1779.1112,-567.0472"/>
</g>
<!-- Node64&#45;&gt;Node54 -->
<g id="edge155" class="edge">
<title>Node64&#45;&gt;Node54</title>
<path fill="none" stroke="#191970" d="M1745.9393,-649.4862C1719.9901,-622.2396 1645.1116,-543.6172 1611.5806,-508.4096"/>
<polygon fill="#191970" stroke="#191970" points="1613.791,-505.6555 1604.3599,-500.8279 1608.722,-510.4831 1613.791,-505.6555"/>
</g>
<!-- Node64&#45;&gt;Node62 -->
<g id="edge153" class="edge">
<title>Node64&#45;&gt;Node62</title>
<path fill="none" stroke="#191970" d="M1789.2093,-649.3733C1822.7297,-639.9404 1873.9505,-625.5265 1910.381,-615.2747"/>
<polygon fill="#191970" stroke="#191970" points="1911.5591,-618.5792 1920.2371,-612.5011 1909.6628,-611.8409 1911.5591,-618.5792"/>
</g>
<!-- Node71&#45;&gt;Node9 -->
<g id="edge159" class="edge">
<title>Node71&#45;&gt;Node9</title>
<path fill="none" stroke="#191970" d="M1754.7536,-320.6444C1940.2842,-313.5252 2475.4608,-291.8138 2510,-277 2528.4938,-269.068 2524.8883,-254.7695 2543,-246 2640.8704,-198.6124 2681.5559,-243.519 2785,-210 2846.4592,-190.0854 2859.7904,-178.1447 2914,-143 2940.1896,-126.021 2967.9722,-103.0999 2985.6254,-87.8353"/>
<polygon fill="#191970" stroke="#191970" points="2988.2007,-90.2329 2993.4264,-81.0165 2983.5938,-84.9625 2988.2007,-90.2329"/>
</g>
<!-- Node71&#45;&gt;Node10 -->
<g id="edge160" class="edge">
<title>Node71&#45;&gt;Node10</title>
<path fill="none" stroke="#191970" d="M1685.4737,-313.064C1663.1323,-279.9302 1585.9408,-172.5226 1493,-123 1455.2701,-102.896 1337.0079,-85.3765 1271.6018,-76.9074"/>
<polygon fill="#191970" stroke="#191970" points="1271.9417,-73.4225 1261.5788,-75.6269 1271.0545,-80.366 1271.9417,-73.4225"/>
</g>
<!-- Node71&#45;&gt;Node11 -->
<g id="edge161" class="edge">
<title>Node71&#45;&gt;Node11</title>
<path fill="none" stroke="#191970" d="M1629.2431,-313.8112C1566.2325,-304.5701 1466.3741,-289.8843 1380,-277 1182.6165,-247.5567 1129.5209,-258.7525 936,-210 824.7624,-181.9766 802.2778,-157.8922 693,-123 640.9183,-106.3704 579.6163,-89.699 542.8325,-80.0026"/>
<polygon fill="#191970" stroke="#191970" points="543.2495,-76.4936 532.6887,-77.3417 541.4734,-83.2645 543.2495,-76.4936"/>
</g>
<!-- Node71&#45;&gt;Node13 -->
<g id="edge162" class="edge">
<title>Node71&#45;&gt;Node13</title>
<path fill="none" stroke="#191970" d="M1692.5606,-313.3167C1694.2777,-283.6573 1699.49,-193.6278 1701.835,-153.1229"/>
<polygon fill="#191970" stroke="#191970" points="1705.3434,-153.0773 1702.4273,-142.8917 1698.3551,-152.6726 1705.3434,-153.0773"/>
</g>
<!-- Node71&#45;&gt;Node40 -->
<g id="edge158" class="edge">
<title>Node71&#45;&gt;Node40</title>
<path fill="none" stroke="#191970" d="M1707.1563,-313.3906C1720.284,-305.0673 1739.7289,-292.7389 1756.3715,-282.1872"/>
<polygon fill="#191970" stroke="#191970" points="1758.6997,-284.8553 1765.2711,-276.5446 1754.9514,-278.9433 1758.6997,-284.8553"/>
</g>
<!-- Node75&#45;&gt;Node9 -->
<g id="edge169" class="edge">
<title>Node75&#45;&gt;Node9</title>
<path fill="none" stroke="#191970" d="M2007.6422,-657.4928C2176.7774,-652.1227 2738.6944,-633.1653 2918,-613 3084.4285,-594.2829 3289,-714.4777 3289,-547 3289,-547 3289,-547 3289,-379 3289,-264.9093 3361.3681,-191.3269 3270,-123 3233.3219,-95.5714 3098.5273,-80.0719 3036.1103,-74.2242"/>
<polygon fill="#191970" stroke="#191970" points="3036.3138,-70.7283 3026.0373,-73.3058 3035.6781,-77.6994 3036.3138,-70.7283"/>
</g>
<!-- Node75&#45;&gt;Node11 -->
<g id="edge170" class="edge">
<title>Node75&#45;&gt;Node11</title>
<path fill="none" stroke="#191970" d="M1910.3372,-654.9128C1884.9224,-652.8937 1853.3012,-650.5618 1825,-649 1378.2824,-624.3477 1263.7997,-661.1413 819,-613 623.5143,-591.8423 560.3813,-600.8614 391,-501 213.3765,-396.2793 -52.9112,-353.4594 57,-179 102.4744,-106.8197 380.9492,-80.5843 477.2618,-73.6004"/>
<polygon fill="#191970" stroke="#191970" points="477.5734,-77.0872 487.3034,-72.8947 477.0826,-70.1044 477.5734,-77.0872"/>
</g>
<!-- Node75&#45;&gt;Node39 -->
<g id="edge168" class="edge">
<title>Node75&#45;&gt;Node39</title>
<path fill="none" stroke="#191970" d="M2007.6508,-658.7036C2187.0386,-657.3222 2805.194,-649.9041 2885,-613 2921.5296,-596.1079 2947,-587.2462 2947,-547 2947,-547 2947,-547 2947,-379 2947,-271.4849 2797.935,-231.8658 2621,-179 2482.6012,-137.6483 2440.4292,-167.044 2298,-143 2297.5365,-142.9218 2297.0706,-142.8417 2296.6026,-142.7599"/>
<polygon fill="#191970" stroke="#191970" points="2297.0772,-139.2872 2286.5964,-140.8375 2295.7565,-146.1615 2297.0772,-139.2872"/>
</g>
<!-- Node75&#45;&gt;Node53 -->
<g id="edge167" class="edge">
<title>Node75&#45;&gt;Node53</title>
<path fill="none" stroke="#191970" d="M1910.3076,-650.7019C1836.8004,-638.1783 1693.1019,-613.7098 1571,-593 1493.3709,-579.8333 1403.2693,-564.6064 1348.7313,-555.3958"/>
<polygon fill="#191970" stroke="#191970" points="1349.0858,-551.9061 1338.6426,-553.692 1347.9201,-558.8084 1349.0858,-551.9061"/>
</g>
<!-- Node75&#45;&gt;Node62 -->
<g id="edge166" class="edge">
<title>Node75&#45;&gt;Node62</title>
<path fill="none" stroke="#191970" d="M1958.1291,-649.2455C1957.4766,-641.9382 1956.562,-631.6944 1955.7593,-622.7046"/>
<polygon fill="#191970" stroke="#191970" points="1959.2365,-622.2918 1954.861,-612.6427 1952.2642,-622.9143 1959.2365,-622.2918"/>
</g>
<!-- Node88&#45;&gt;Node10 -->
<g id="edge180" class="edge">
<title>Node88&#45;&gt;Node10</title>
<path fill="none" stroke="#191970" d="M617.8299,-649.4426C530.0694,-625.1923 313,-558.3986 313,-491 313,-491 313,-491 313,-435 313,-320.1027 203.8618,-267.6126 277,-179 335.4008,-108.2429 1001.5304,-79.521 1182.0915,-73.0042"/>
<polygon fill="#191970" stroke="#191970" points="1182.4262,-76.4946 1192.2953,-72.641 1182.1771,-69.499 1182.4262,-76.4946"/>
</g>
<!-- Node88&#45;&gt;Node44 -->
<g id="edge179" class="edge">
<title>Node88&#45;&gt;Node44</title>
<path fill="none" stroke="#191970" d="M646.4755,-649.375C612.9343,-606.404 473.9197,-427.6047 365,-277 349.1614,-255.0997 331.57,-229.4206 320.1769,-212.6003"/>
<polygon fill="#191970" stroke="#191970" points="323.0329,-210.5755 314.5356,-204.2474 317.232,-214.4934 323.0329,-210.5755"/>
</g>
<!-- Node88&#45;&gt;Node53 -->
<g id="edge176" class="edge">
<title>Node88&#45;&gt;Node53</title>
<path fill="none" stroke="#191970" d="M691.0097,-652.614C742.3972,-643.7438 838.2687,-627.1834 920,-613 1038.0717,-592.5101 1176.813,-568.3207 1249.249,-555.6829"/>
<polygon fill="#191970" stroke="#191970" points="1250.1953,-559.0708 1259.4448,-553.904 1248.992,-552.175 1250.1953,-559.0708"/>
</g>
<!-- Node88&#45;&gt;Node54 -->
<g id="edge177" class="edge">
<title>Node88&#45;&gt;Node54</title>
<path fill="none" stroke="#191970" d="M676.8165,-649.4569C708.529,-636.2886 767.8097,-612.0182 819,-593 890.8052,-566.323 906.9709,-552.4368 982,-537 1089.14,-514.9566 1417.7372,-498.721 1544.4409,-493.1258"/>
<polygon fill="#191970" stroke="#191970" points="1544.8014,-496.6135 1554.6387,-492.6793 1544.4951,-489.6202 1544.8014,-496.6135"/>
</g>
<!-- Node88&#45;&gt;Node55 -->
<g id="edge178" class="edge">
<title>Node88&#45;&gt;Node55</title>
<path fill="none" stroke="#191970" d="M691.1317,-649.3733C727.8267,-639.8598 784.0639,-625.2797 823.6651,-615.0127"/>
<polygon fill="#191970" stroke="#191970" points="824.5512,-618.3988 833.3528,-612.5011 822.7944,-611.6228 824.5512,-618.3988"/>
</g>
<!-- Node90&#45;&gt;Node8 -->
<g id="edge182" class="edge">
<title>Node90&#45;&gt;Node8</title>
<path fill="none" stroke="#191970" d="M2559.0938,-123.3906C2521.4321,-112.7169 2460.5298,-95.4566 2419.4115,-83.8033"/>
<polygon fill="#191970" stroke="#191970" points="2420.2436,-80.4013 2409.6682,-81.0419 2418.3349,-87.1361 2420.2436,-80.4013"/>
</g>
<!-- Node90&#45;&gt;Node9 -->
<g id="edge183" class="edge">
<title>Node90&#45;&gt;Node9</title>
<path fill="none" stroke="#191970" d="M2641.8311,-125.1972C2646.6178,-124.4479 2651.4025,-123.7051 2656,-123 2771.8924,-105.2273 2909.6663,-85.1492 2971.3324,-76.2177"/>
<polygon fill="#191970" stroke="#191970" points="2972.2001,-79.6287 2981.5957,-74.7324 2971.1974,-72.7009 2972.2001,-79.6287"/>
</g>
<!-- Node90&#45;&gt;Node10 -->
<g id="edge184" class="edge">
<title>Node90&#45;&gt;Node10</title>
<path fill="none" stroke="#191970" d="M2544.4554,-129.1506C2517.7711,-127.1245 2484.0732,-124.7125 2454,-123 2216.8954,-109.4982 1463.2719,-80.4954 1271.6542,-73.1949"/>
<polygon fill="#191970" stroke="#191970" points="1271.781,-69.6972 1261.6551,-72.8142 1271.5146,-76.6922 1271.781,-69.6972"/>
</g>
</g>
</svg>
