<?xml version="1.0" encoding="UTF-8" standalone="no"?>
<!DOCTYPE svg PUBLIC "-//W3C//DTD SVG 1.1//EN"
 "http://www.w3.org/Graphics/SVG/1.1/DTD/svg11.dtd">
<!-- Generated by graphviz version 2.40.1 (20161225.0304)
 -->
<!-- Title: include/tvm/relax/type_analysis.h Pages: 1 -->
<svg width="3268pt" height="867pt"
 viewBox="0.00 0.00 3268.00 867.00" xmlns="http://www.w3.org/2000/svg" xmlns:xlink="http://www.w3.org/1999/xlink">
<g id="graph0" class="graph" transform="scale(1 1) rotate(0) translate(4 863)">
<title>include/tvm/relax/type_analysis.h</title>
<polygon fill="#ffffff" stroke="transparent" points="-4,4 -4,-863 3264,-863 3264,4 -4,4"/>
<!-- Node0 -->
<g id="node1" class="node">
<title>Node0</title>
<polygon fill="#bfbfbf" stroke="#000000" points="654.5,-828.5 654.5,-858.5 781.5,-858.5 781.5,-828.5 654.5,-828.5"/>
<text text-anchor="start" x="662.5" y="-846.5" font-family="Helvetica,sans-Serif" font-size="10.00" fill="#000000">include/tvm/relax/type</text>
<text text-anchor="middle" x="718" y="-835.5" font-family="Helvetica,sans-Serif" font-size="10.00" fill="#000000">_analysis.h</text>
</g>
<!-- Node1 -->
<g id="node2" class="node">
<title>Node1</title>
<g id="a_node2"><a xlink:href="ir_2type_8h.html" target="_top" xlink:title="IR/AST nodes for the unified type system in TVM. ">
<polygon fill="#ffffff" stroke="#000000" points="678,-772.5 678,-791.5 758,-791.5 758,-772.5 678,-772.5"/>
<text text-anchor="middle" x="718" y="-779.5" font-family="Helvetica,sans-Serif" font-size="10.00" fill="#000000">tvm/ir/type.h</text>
</a>
</g>
</g>
<!-- Node0&#45;&gt;Node1 -->
<g id="edge1" class="edge">
<title>Node0&#45;&gt;Node1</title>
<path fill="none" stroke="#191970" d="M718,-828.2977C718,-820.3834 718,-810.6043 718,-802.0759"/>
<polygon fill="#191970" stroke="#191970" points="721.5001,-801.8469 718,-791.8469 714.5001,-801.847 721.5001,-801.8469"/>
</g>
<!-- Node2 -->
<g id="node3" class="node">
<title>Node2</title>
<g id="a_node3"><a xlink:href="source__map_8h.html" target="_top" xlink:title="A map from source names to source code. ">
<polygon fill="#ffffff" stroke="#000000" points="2210.5,-716.5 2210.5,-735.5 2327.5,-735.5 2327.5,-716.5 2210.5,-716.5"/>
<text text-anchor="middle" x="2269" y="-723.5" font-family="Helvetica,sans-Serif" font-size="10.00" fill="#000000">tvm/ir/source_map.h</text>
</a>
</g>
</g>
<!-- Node1&#45;&gt;Node2 -->
<g id="edge2" class="edge">
<title>Node1&#45;&gt;Node2</title>
<path fill="none" stroke="#191970" d="M758.2923,-780.5452C967.6981,-772.9845 1932.3454,-738.1552 2199.9737,-728.4922"/>
<polygon fill="#191970" stroke="#191970" points="2200.4562,-731.9772 2210.3234,-728.1186 2200.2036,-724.9818 2200.4562,-731.9772"/>
</g>
<!-- Node3 -->
<g id="node4" class="node">
<title>Node3</title>
<g id="a_node4"><a xlink:href="node_8h.html" target="_top" xlink:title="Definitions and helper macros for IR/AST nodes. ">
<polygon fill="#ffffff" stroke="#000000" points="1234.5,-660.5 1234.5,-679.5 1333.5,-679.5 1333.5,-660.5 1234.5,-660.5"/>
<text text-anchor="middle" x="1284" y="-667.5" font-family="Helvetica,sans-Serif" font-size="10.00" fill="#000000">tvm/node/node.h</text>
</a>
</g>
</g>
<!-- Node1&#45;&gt;Node3 -->
<g id="edge164" class="edge">
<title>Node1&#45;&gt;Node3</title>
<path fill="none" stroke="#191970" d="M758.2516,-774.035C856.804,-754.5335 1110.528,-704.3266 1225.6475,-681.5468"/>
<polygon fill="#191970" stroke="#191970" points="1226.5536,-684.9354 1235.6839,-679.5608 1225.1947,-678.0686 1226.5536,-684.9354"/>
</g>
<!-- Node8 -->
<g id="node9" class="node">
<title>Node8</title>
<g id="a_node9"><a xlink:href="object_8h.html" target="_top" xlink:title="A managed object in the TVM runtime. ">
<polygon fill="#ffffff" stroke="#000000" points="1092.5,-123.5 1092.5,-142.5 1211.5,-142.5 1211.5,-123.5 1092.5,-123.5"/>
<text text-anchor="middle" x="1152" y="-130.5" font-family="Helvetica,sans-Serif" font-size="10.00" fill="#000000">tvm/runtime/object.h</text>
</a>
</g>
</g>
<!-- Node1&#45;&gt;Node8 -->
<g id="edge167" class="edge">
<title>Node1&#45;&gt;Node8</title>
<path fill="none" stroke="#191970" d="M677.7005,-779.5506C578.6257,-773.2956 325.2573,-755.821 243,-736 165.4123,-717.3042 76,-749.8084 76,-670 76,-670 76,-670 76,-558 76,-339.9309 850.1755,-186.0223 1085.1689,-144.3279"/>
<polygon fill="#191970" stroke="#191970" points="1086.0476,-147.7271 1095.2875,-142.543 1084.8315,-140.8335 1086.0476,-147.7271"/>
</g>
<!-- Node14 -->
<g id="node15" class="node">
<title>Node14</title>
<polygon fill="#ffffff" stroke="#bfbfbf" points="282,-62 282,-81 326,-81 326,-62 282,-62"/>
<text text-anchor="middle" x="304" y="-69" font-family="Helvetica,sans-Serif" font-size="10.00" fill="#000000">string</text>
</g>
<!-- Node1&#45;&gt;Node14 -->
<g id="edge168" class="edge">
<title>Node1&#45;&gt;Node14</title>
<path fill="none" stroke="#191970" d="M677.5904,-781.723C557.5614,-780.4749 204.815,-773.6172 97,-736 47.7665,-718.8222 0,-722.1441 0,-670 0,-670 0,-670 0,-189 0,-150.5305 22.9249,-142.6453 56,-123 92.2154,-101.4895 213.1124,-83.3325 271.6677,-75.5562"/>
<polygon fill="#191970" stroke="#191970" points="272.3792,-78.993 281.8413,-74.2265 271.472,-72.0521 272.3792,-78.993"/>
</g>
<!-- Node32 -->
<g id="node32" class="node">
<title>Node32</title>
<g id="a_node32"><a xlink:href="array_8h.html" target="_top" xlink:title="Runtime Array container types. ">
<polygon fill="#ffffff" stroke="#000000" points="2517,-358.5 2517,-388.5 2643,-388.5 2643,-358.5 2517,-358.5"/>
<text text-anchor="start" x="2525" y="-376.5" font-family="Helvetica,sans-Serif" font-size="10.00" fill="#000000">tvm/runtime/container</text>
<text text-anchor="middle" x="2580" y="-365.5" font-family="Helvetica,sans-Serif" font-size="10.00" fill="#000000">/array.h</text>
</a>
</g>
</g>
<!-- Node1&#45;&gt;Node32 -->
<g id="edge165" class="edge">
<title>Node1&#45;&gt;Node32</title>
<path fill="none" stroke="#191970" d="M758.2377,-781.2616C1077.1462,-775.2822 3184,-733.3809 3184,-670 3184,-670 3184,-670 3184,-502 3184,-384.209 2790.9348,-412.6902 2653.4291,-389.0742"/>
<polygon fill="#191970" stroke="#191970" points="2653.6937,-385.5613 2643.214,-387.1188 2652.3776,-392.4365 2653.6937,-385.5613"/>
</g>
<!-- Node33 -->
<g id="node33" class="node">
<title>Node33</title>
<g id="a_node33"><a xlink:href="data__type_8h.html" target="_top" xlink:title="tvm/runtime/data_type.h">
<polygon fill="#ffffff" stroke="#000000" points="484,-297 484,-316 622,-316 622,-297 484,-297"/>
<text text-anchor="middle" x="553" y="-304" font-family="Helvetica,sans-Serif" font-size="10.00" fill="#000000">tvm/runtime/data_type.h</text>
</a>
</g>
</g>
<!-- Node1&#45;&gt;Node33 -->
<g id="edge166" class="edge">
<title>Node1&#45;&gt;Node33</title>
<path fill="none" stroke="#191970" d="M677.7484,-778.3161C548.4406,-765.9478 152,-723.6532 152,-670 152,-670 152,-670 152,-614 152,-519.8415 433.9296,-367.3921 524.9982,-320.6042"/>
<polygon fill="#191970" stroke="#191970" points="526.6163,-323.7079 533.9287,-316.0411 523.4313,-317.4745 526.6163,-323.7079"/>
</g>
<!-- Node2&#45;&gt;Node3 -->
<g id="edge3" class="edge">
<title>Node2&#45;&gt;Node3</title>
<path fill="none" stroke="#191970" d="M2210.3336,-722.6646C2035.6196,-712.7317 1519.971,-683.4156 1343.7964,-673.3996"/>
<polygon fill="#191970" stroke="#191970" points="1343.8601,-669.8977 1333.6775,-672.8243 1343.4627,-676.8864 1343.8601,-669.8977"/>
</g>
<!-- Node2&#45;&gt;Node8 -->
<g id="edge152" class="edge">
<title>Node2&#45;&gt;Node8</title>
<path fill="none" stroke="#191970" d="M2243.2736,-716.4776C2109.7598,-666.8324 1495.5664,-435.6221 1328,-322 1255.1318,-272.5901 1190.501,-187.7828 1164.3417,-150.9493"/>
<polygon fill="#191970" stroke="#191970" points="1167.144,-148.8493 1158.5383,-142.6692 1161.4117,-152.867 1167.144,-148.8493"/>
</g>
<!-- Node2&#45;&gt;Node14 -->
<g id="edge161" class="edge">
<title>Node2&#45;&gt;Node14</title>
<path fill="none" stroke="#191970" d="M2210.4729,-724.6336C1858.4683,-716.2286 38,-670.0513 38,-614 38,-614 38,-614 38,-189 38,-152.1996 57.1828,-143.1139 88,-123 118.127,-103.3365 219.1376,-84.9707 271.66,-76.4624"/>
<polygon fill="#191970" stroke="#191970" points="272.4622,-79.8787 281.7859,-74.847 271.3594,-72.9661 272.4622,-79.8787"/>
</g>
<!-- Node16 -->
<g id="node17" class="node">
<title>Node16</title>
<polygon fill="#ffffff" stroke="#bfbfbf" points="2522.5,-62 2522.5,-81 2567.5,-81 2567.5,-62 2522.5,-62"/>
<text text-anchor="middle" x="2545" y="-69" font-family="Helvetica,sans-Serif" font-size="10.00" fill="#000000">utility</text>
</g>
<!-- Node2&#45;&gt;Node16 -->
<g id="edge162" class="edge">
<title>Node2&#45;&gt;Node16</title>
<path fill="none" stroke="#191970" d="M2327.6573,-718.2136C2540.5434,-688.3421 3260,-572.6575 3260,-373.5 3260,-373.5 3260,-373.5 3260,-189 3260,-130.8389 3202.4421,-140.5753 3147,-123 3039.3441,-88.8727 2686.8776,-75.7201 2577.603,-72.4024"/>
<polygon fill="#191970" stroke="#191970" points="2577.6129,-68.9013 2567.5135,-72.1033 2577.4054,-75.8982 2577.6129,-68.9013"/>
</g>
<!-- Node18 -->
<g id="node19" class="node">
<title>Node18</title>
<polygon fill="#ffffff" stroke="#bfbfbf" points="2312.5,-235.5 2312.5,-254.5 2359.5,-254.5 2359.5,-235.5 2312.5,-235.5"/>
<text text-anchor="middle" x="2336" y="-242.5" font-family="Helvetica,sans-Serif" font-size="10.00" fill="#000000">vector</text>
</g>
<!-- Node2&#45;&gt;Node18 -->
<g id="edge163" class="edge">
<title>Node2&#45;&gt;Node18</title>
<path fill="none" stroke="#191970" d="M2327.667,-721.1224C2392.8387,-712.117 2489,-686.539 2489,-614 2489,-614 2489,-614 2489,-440.5 2489,-364.0669 2455.9043,-347.1068 2404,-291 2392.4397,-278.5037 2376.8647,-267.6549 2363.5375,-259.6363"/>
<polygon fill="#191970" stroke="#191970" points="2365.1558,-256.5291 2354.7471,-254.5518 2361.6509,-262.5885 2365.1558,-256.5291"/>
</g>
<!-- Node41 -->
<g id="node40" class="node">
<title>Node41</title>
<g id="a_node40"><a xlink:href="packed__func_8h.html" target="_top" xlink:title="Type&#45;erased function used across TVM API. ">
<polygon fill="#ffffff" stroke="#000000" points="2161,-425.5 2161,-455.5 2277,-455.5 2277,-425.5 2161,-425.5"/>
<text text-anchor="start" x="2169" y="-443.5" font-family="Helvetica,sans-Serif" font-size="10.00" fill="#000000">tvm/runtime/packed</text>
<text text-anchor="middle" x="2219" y="-432.5" font-family="Helvetica,sans-Serif" font-size="10.00" fill="#000000">_func.h</text>
</a>
</g>
</g>
<!-- Node2&#45;&gt;Node41 -->
<g id="edge153" class="edge">
<title>Node2&#45;&gt;Node41</title>
<path fill="none" stroke="#191970" d="M2269,-716.4116C2269,-697.0538 2269,-651.9167 2269,-614 2269,-614 2269,-614 2269,-558 2269,-523.1628 2250.1606,-486.8213 2235.6102,-463.9485"/>
<polygon fill="#191970" stroke="#191970" points="2238.5235,-462.0086 2230.0966,-455.5869 2232.6796,-465.862 2238.5235,-462.0086"/>
</g>
<!-- Node50 -->
<g id="node49" class="node">
<title>Node50</title>
<g id="a_node49"><a xlink:href="registry_8h.html" target="_top" xlink:title="This file defines the TVM global function registry. ">
<polygon fill="#ffffff" stroke="#000000" points="2297.5,-492.5 2297.5,-511.5 2422.5,-511.5 2422.5,-492.5 2297.5,-492.5"/>
<text text-anchor="middle" x="2360" y="-499.5" font-family="Helvetica,sans-Serif" font-size="10.00" fill="#000000">tvm/runtime/registry.h</text>
</a>
</g>
</g>
<!-- Node2&#45;&gt;Node50 -->
<g id="edge154" class="edge">
<title>Node2&#45;&gt;Node50</title>
<path fill="none" stroke="#191970" d="M2310.1985,-716.3939C2329.4492,-709.6178 2350.5964,-698.3627 2362,-680 2392.8952,-630.2506 2376.9571,-556.6241 2366.5905,-521.7261"/>
<polygon fill="#191970" stroke="#191970" points="2369.8205,-520.3291 2363.487,-511.8358 2363.1416,-522.425 2369.8205,-520.3291"/>
</g>
<!-- Node51 -->
<g id="node50" class="node">
<title>Node51</title>
<polygon fill="#ffffff" stroke="#bfbfbf" points="2297.5,-660.5 2297.5,-679.5 2352.5,-679.5 2352.5,-660.5 2297.5,-660.5"/>
<text text-anchor="middle" x="2325" y="-667.5" font-family="Helvetica,sans-Serif" font-size="10.00" fill="#000000">fstream</text>
</g>
<!-- Node2&#45;&gt;Node51 -->
<g id="edge160" class="edge">
<title>Node2&#45;&gt;Node51</title>
<path fill="none" stroke="#191970" d="M2278.7545,-716.2455C2286.8648,-708.1352 2298.5925,-696.4075 2308.2081,-686.7919"/>
<polygon fill="#191970" stroke="#191970" points="2310.7611,-689.1887 2315.3573,-679.6427 2305.8113,-684.2389 2310.7611,-689.1887"/>
</g>
<!-- Node4 -->
<g id="node5" class="node">
<title>Node4</title>
<g id="a_node5"><a xlink:href="reflection_8h.html" target="_top" xlink:title="Reflection and serialization of compiler IR/AST nodes. ">
<polygon fill="#ffffff" stroke="#000000" points="1096.5,-492.5 1096.5,-511.5 1217.5,-511.5 1217.5,-492.5 1096.5,-492.5"/>
<text text-anchor="middle" x="1157" y="-499.5" font-family="Helvetica,sans-Serif" font-size="10.00" fill="#000000">tvm/node/reflection.h</text>
</a>
</g>
</g>
<!-- Node3&#45;&gt;Node4 -->
<g id="edge4" class="edge">
<title>Node3&#45;&gt;Node4</title>
<path fill="none" stroke="#191970" d="M1276.808,-660.4862C1256.2978,-633.3545 1197.277,-555.2798 1170.4995,-519.8576"/>
<polygon fill="#191970" stroke="#191970" points="1173.2518,-517.6944 1164.4294,-511.8279 1167.6678,-521.9157 1173.2518,-517.6944"/>
</g>
<!-- Node5 -->
<g id="node6" class="node">
<title>Node5</title>
<g id="a_node6"><a xlink:href="structural__equal_8h.html" target="_top" xlink:title="Structural equality comparison. ">
<polygon fill="#ffffff" stroke="#000000" points="1100.5,-425.5 1100.5,-455.5 1213.5,-455.5 1213.5,-425.5 1100.5,-425.5"/>
<text text-anchor="start" x="1108.5" y="-443.5" font-family="Helvetica,sans-Serif" font-size="10.00" fill="#000000">tvm/node/structural</text>
<text text-anchor="middle" x="1157" y="-432.5" font-family="Helvetica,sans-Serif" font-size="10.00" fill="#000000">_equal.h</text>
</a>
</g>
</g>
<!-- Node3&#45;&gt;Node5 -->
<g id="edge143" class="edge">
<title>Node3&#45;&gt;Node5</title>
<path fill="none" stroke="#191970" d="M1282.9087,-660.1957C1279.327,-631.709 1265.786,-547.4589 1226,-492 1217.3759,-479.9785 1205.1062,-469.5545 1193.2991,-461.2896"/>
<polygon fill="#191970" stroke="#191970" points="1195.1062,-458.288 1184.8422,-455.6611 1191.2278,-464.1154 1195.1062,-458.288"/>
</g>
<!-- Node3&#45;&gt;Node8 -->
<g id="edge147" class="edge">
<title>Node3&#45;&gt;Node8</title>
<path fill="none" stroke="#191970" d="M1296.5499,-660.4082C1318.136,-642.7155 1360,-602.6472 1360,-558 1360,-558 1360,-558 1360,-502 1360,-398.9924 1263.3149,-412.4357 1214,-322 1182.5228,-264.2758 1163.5724,-187.8719 1155.9268,-152.5026"/>
<polygon fill="#191970" stroke="#191970" points="1159.3152,-151.6071 1153.8401,-142.5367 1152.4638,-153.0418 1159.3152,-151.6071"/>
</g>
<!-- Node9 -->
<g id="node10" class="node">
<title>Node9</title>
<g id="a_node10"><a xlink:href="c__runtime__api_8h.html" target="_top" xlink:title="tvm/runtime/c_runtime\l_api.h">
<polygon fill="#ffffff" stroke="#000000" points="714.5,-56.5 714.5,-86.5 843.5,-86.5 843.5,-56.5 714.5,-56.5"/>
<text text-anchor="start" x="722.5" y="-74.5" font-family="Helvetica,sans-Serif" font-size="10.00" fill="#000000">tvm/runtime/c_runtime</text>
<text text-anchor="middle" x="779" y="-63.5" font-family="Helvetica,sans-Serif" font-size="10.00" fill="#000000">_api.h</text>
</a>
</g>
</g>
<!-- Node3&#45;&gt;Node9 -->
<g id="edge145" class="edge">
<title>Node3&#45;&gt;Node9</title>
<path fill="none" stroke="#191970" d="M1234.3383,-668.3095C1136.9071,-664.4585 914.066,-653.0127 729,-624 511.7242,-589.9378 383.787,-684.2158 247,-512 97.6414,-323.9565 408.9025,-233.7149 622,-123 648.9831,-108.9809 680.5387,-97.7417 708.2538,-89.3839"/>
<polygon fill="#191970" stroke="#191970" points="709.2792,-92.7306 717.883,-86.548 707.3015,-86.0158 709.2792,-92.7306"/>
</g>
<!-- Node3&#45;&gt;Node14 -->
<g id="edge148" class="edge">
<title>Node3&#45;&gt;Node14</title>
<path fill="none" stroke="#191970" d="M1234.281,-669.1578C1054.6238,-665.8898 445.3173,-652.7753 363,-624 203.1747,-568.1306 76,-542.809 76,-373.5 76,-373.5 76,-373.5 76,-189 76,-102.0732 208.5702,-79.3944 271.5337,-73.5253"/>
<polygon fill="#191970" stroke="#191970" points="272.0527,-76.994 281.7233,-72.6663 271.4646,-70.0188 272.0527,-76.994"/>
</g>
<!-- Node15 -->
<g id="node16" class="node">
<title>Node15</title>
<polygon fill="#ffffff" stroke="#bfbfbf" points="2168.5,-62 2168.5,-81 2237.5,-81 2237.5,-62 2168.5,-62"/>
<text text-anchor="middle" x="2203" y="-69" font-family="Helvetica,sans-Serif" font-size="10.00" fill="#000000">type_traits</text>
</g>
<!-- Node3&#45;&gt;Node15 -->
<g id="edge149" class="edge">
<title>Node3&#45;&gt;Node15</title>
<path fill="none" stroke="#191970" d="M1333.6201,-665.1167C1414.428,-657.0823 1579.4601,-640.3329 1719,-624 1982.4717,-593.1612 2047.7714,-580.8493 2311,-548 2332.0742,-545.3701 3054.051,-470.0238 3070,-456 3121.485,-410.7297 3108,-375.0573 3108,-306.5 3108,-306.5 3108,-306.5 3108,-245 3108,-170.1259 3023.6906,-203.6771 2953,-179 2864.637,-148.1537 2842.0545,-139.8958 2750,-123 2565.4876,-89.1345 2341.6376,-76.9077 2247.7907,-73.0594"/>
<polygon fill="#191970" stroke="#191970" points="2247.6605,-69.5515 2237.5292,-72.651 2247.3821,-76.546 2247.6605,-69.5515"/>
</g>
<!-- Node3&#45;&gt;Node16 -->
<g id="edge150" class="edge">
<title>Node3&#45;&gt;Node16</title>
<path fill="none" stroke="#191970" d="M1333.8534,-667.7856C1637.195,-653.669 3222,-570.491 3222,-373.5 3222,-373.5 3222,-373.5 3222,-189 3222,-114.943 3140.7067,-141.5094 3069,-123 2975.1692,-98.7798 2677.3263,-79.3526 2577.7684,-73.3928"/>
<polygon fill="#191970" stroke="#191970" points="2577.8845,-69.8937 2567.6948,-72.7954 2577.47,-76.8814 2577.8845,-69.8937"/>
</g>
<!-- Node3&#45;&gt;Node18 -->
<g id="edge151" class="edge">
<title>Node3&#45;&gt;Node18</title>
<path fill="none" stroke="#191970" d="M1333.6284,-663.9768C1458.9001,-648.1046 1778,-603.2344 1778,-558 1778,-558 1778,-558 1778,-440.5 1778,-252.5267 2015.5586,-405.4354 2184,-322 2204.7899,-311.702 2205.8196,-302.4465 2226,-291 2250.7809,-276.944 2280.7108,-264.7058 2303.0905,-256.3936"/>
<polygon fill="#191970" stroke="#191970" points="2304.2918,-259.681 2312.4887,-252.9681 2301.8947,-253.1042 2304.2918,-259.681"/>
</g>
<!-- Node22 -->
<g id="node23" class="node">
<title>Node22</title>
<g id="a_node23"><a xlink:href="runtime_2memory_8h.html" target="_top" xlink:title="Runtime memory management. ">
<polygon fill="#ffffff" stroke="#000000" points="2064.5,-179.5 2064.5,-198.5 2193.5,-198.5 2193.5,-179.5 2064.5,-179.5"/>
<text text-anchor="middle" x="2129" y="-186.5" font-family="Helvetica,sans-Serif" font-size="10.00" fill="#000000">tvm/runtime/memory.h</text>
</a>
</g>
</g>
<!-- Node3&#45;&gt;Node22 -->
<g id="edge146" class="edge">
<title>Node3&#45;&gt;Node22</title>
<path fill="none" stroke="#191970" d="M1333.7471,-665.0305C1404.4823,-657.6772 1538.0813,-642.7276 1651,-624 1936.6589,-576.6234 2003.7183,-541.5974 2289,-492 2401.7657,-472.3952 2431.4755,-476.9448 2544,-456 2673.6246,-431.8722 2750.9681,-492.2253 2833,-389 2913.6148,-287.5579 2648.8637,-236.6989 2642,-235 2561.0314,-214.9589 2325.6266,-199.6979 2203.881,-192.8936"/>
<polygon fill="#191970" stroke="#191970" points="2203.7105,-189.3789 2193.5322,-192.3203 2203.3232,-196.3682 2203.7105,-189.3789"/>
</g>
<!-- Node34 -->
<g id="node34" class="node">
<title>Node34</title>
<g id="a_node34"><a xlink:href="structural__hash_8h.html" target="_top" xlink:title="Structural hash class. ">
<polygon fill="#ffffff" stroke="#000000" points="802.5,-425.5 802.5,-455.5 915.5,-455.5 915.5,-425.5 802.5,-425.5"/>
<text text-anchor="start" x="810.5" y="-443.5" font-family="Helvetica,sans-Serif" font-size="10.00" fill="#000000">tvm/node/structural</text>
<text text-anchor="middle" x="859" y="-432.5" font-family="Helvetica,sans-Serif" font-size="10.00" fill="#000000">_hash.h</text>
</a>
</g>
</g>
<!-- Node3&#45;&gt;Node34 -->
<g id="edge144" class="edge">
<title>Node3&#45;&gt;Node34</title>
<path fill="none" stroke="#191970" d="M1266.2794,-660.4309C1202.4773,-625.9777 983.6353,-507.803 895.858,-460.4033"/>
<polygon fill="#191970" stroke="#191970" points="897.5061,-457.3156 887.044,-455.6438 894.18,-463.475 897.5061,-457.3156"/>
</g>
<!-- Node47 -->
<g id="node46" class="node">
<title>Node47</title>
<g id="a_node46"><a xlink:href="repr__printer_8h.html" target="_top" xlink:title="Printer class to print repr string of each AST/IR nodes. ">
<polygon fill="#ffffff" stroke="#000000" points="738.5,-604.5 738.5,-623.5 869.5,-623.5 869.5,-604.5 738.5,-604.5"/>
<text text-anchor="middle" x="804" y="-611.5" font-family="Helvetica,sans-Serif" font-size="10.00" fill="#000000">tvm/node/repr_printer.h</text>
</a>
</g>
</g>
<!-- Node3&#45;&gt;Node47 -->
<g id="edge132" class="edge">
<title>Node3&#45;&gt;Node47</title>
<path fill="none" stroke="#191970" d="M1234.4395,-664.2179C1150.2614,-654.3972 978.8487,-634.399 879.6136,-622.8216"/>
<polygon fill="#191970" stroke="#191970" points="879.9895,-619.3418 869.6512,-621.6593 879.1783,-626.2946 879.9895,-619.3418"/>
</g>
<!-- Node4&#45;&gt;Node5 -->
<g id="edge5" class="edge">
<title>Node4&#45;&gt;Node5</title>
<path fill="none" stroke="#191970" d="M1157,-492.3906C1157,-485.2234 1157,-475.0862 1157,-465.671"/>
<polygon fill="#191970" stroke="#191970" points="1160.5001,-465.5446 1157,-455.5446 1153.5001,-465.5446 1160.5001,-465.5446"/>
</g>
<!-- Node4&#45;&gt;Node8 -->
<g id="edge95" class="edge">
<title>Node4&#45;&gt;Node8</title>
<path fill="none" stroke="#191970" d="M1139.1917,-492.4694C1110.6408,-475.9472 1056.0961,-438.9113 1039,-389 1007.1209,-295.9305 1096.3803,-189.9192 1135.0802,-149.6745"/>
<polygon fill="#191970" stroke="#191970" points="1137.5893,-152.1148 1142.0952,-142.5258 1132.593,-147.212 1137.5893,-152.1148"/>
</g>
<!-- Node4&#45;&gt;Node9 -->
<g id="edge91" class="edge">
<title>Node4&#45;&gt;Node9</title>
<path fill="none" stroke="#191970" d="M1096.1176,-500.0623C982.731,-495.8357 743.6733,-483.8425 666,-456 568.3852,-421.0094 522.0254,-414.4208 475,-322 468.7519,-309.7204 468.7269,-303.2668 475,-291 528.3985,-186.5811 657.2003,-120.4209 728.8279,-90.3855"/>
<polygon fill="#191970" stroke="#191970" points="730.2051,-93.6036 738.1179,-86.5582 727.5386,-87.1313 730.2051,-93.6036"/>
</g>
<!-- Node4&#45;&gt;Node14 -->
<g id="edge129" class="edge">
<title>Node4&#45;&gt;Node14</title>
<path fill="none" stroke="#191970" d="M1096.4866,-501.0519C941.8045,-498.189 534.9374,-487.7777 404,-456 274.2,-424.4983 190,-378.5679 190,-245 190,-245 190,-245 190,-189 190,-157.7875 193.8944,-146.8744 214,-123 229.4754,-104.6236 253.2741,-91.4111 272.5126,-82.9725"/>
<polygon fill="#191970" stroke="#191970" points="273.9238,-86.1763 281.8111,-79.1023 271.2339,-79.7137 273.9238,-86.1763"/>
</g>
<!-- Node4&#45;&gt;Node15 -->
<g id="edge130" class="edge">
<title>Node4&#45;&gt;Node15</title>
<path fill="none" stroke="#191970" d="M1217.558,-501.5595C1449.5555,-499.6285 2281.826,-490.4043 2544,-456 2756.825,-428.0717 2886.3435,-498.845 3008,-322 3099.9046,-188.4037 2429.6697,-98.4118 2247.7442,-76.624"/>
<polygon fill="#191970" stroke="#191970" points="2248.0535,-73.1362 2237.7105,-75.4324 2247.2279,-80.0873 2248.0535,-73.1362"/>
</g>
<!-- Node4&#45;&gt;Node18 -->
<g id="edge131" class="edge">
<title>Node4&#45;&gt;Node18</title>
<path fill="none" stroke="#191970" d="M1189.8991,-492.4754C1280.556,-466.605 1541.9782,-394.532 1764,-358 1933.5773,-330.0974 1988.0947,-382.3697 2149,-322 2171.0583,-313.724 2170.9621,-301.6051 2192,-291 2211.547,-281.1465 2266.7642,-264.6022 2302.8643,-254.2709"/>
<polygon fill="#191970" stroke="#191970" points="2303.8327,-257.6344 2312.4939,-251.5324 2301.9179,-250.9013 2303.8327,-257.6344"/>
</g>
<!-- Node4&#45;&gt;Node22 -->
<g id="edge93" class="edge">
<title>Node4&#45;&gt;Node22</title>
<path fill="none" stroke="#191970" d="M1217.6943,-501.3558C1387.0247,-499.1642 1878.9032,-490.1083 2286,-456 2521.2832,-436.287 2656.9295,-566.1687 2813,-389 2859.1737,-336.5844 2769.9553,-313.7288 2732,-291 2675.5656,-257.2054 2658.8433,-250.8412 2595,-235 2522.8849,-217.1064 2316.166,-201.3131 2203.8352,-193.7438"/>
<polygon fill="#191970" stroke="#191970" points="2203.8091,-190.2343 2193.5978,-193.0591 2203.3419,-197.2187 2203.8091,-190.2343"/>
</g>
<!-- Node4&#45;&gt;Node33 -->
<g id="edge92" class="edge">
<title>Node4&#45;&gt;Node33</title>
<path fill="none" stroke="#191970" d="M1096.0273,-497.4694C965.8169,-486.6103 666.3751,-454.9562 592,-389 573.1738,-372.3048 562.6959,-344.5695 557.4541,-325.9196"/>
<polygon fill="#191970" stroke="#191970" points="560.8213,-324.9595 554.9493,-316.1408 554.0402,-326.6965 560.8213,-324.9595"/>
</g>
<!-- Node4&#45;&gt;Node34 -->
<g id="edge68" class="edge">
<title>Node4&#45;&gt;Node34</title>
<path fill="none" stroke="#191970" d="M1110.7645,-492.4581C1061.105,-482.2096 981.7522,-465.8331 925.4187,-454.2072"/>
<polygon fill="#191970" stroke="#191970" points="926.0331,-450.7603 915.5321,-452.1669 924.6182,-457.6159 926.0331,-450.7603"/>
</g>
<!-- Node35 -->
<g id="node35" class="node">
<title>Node35</title>
<g id="a_node35"><a xlink:href="ndarray_8h.html" target="_top" xlink:title="A device&#45;independent managed NDArray abstraction. ">
<polygon fill="#ffffff" stroke="#000000" points="866.5,-364 866.5,-383 991.5,-383 991.5,-364 866.5,-364"/>
<text text-anchor="middle" x="929" y="-371" font-family="Helvetica,sans-Serif" font-size="10.00" fill="#000000">tvm/runtime/ndarray.h</text>
</a>
</g>
</g>
<!-- Node4&#45;&gt;Node35 -->
<g id="edge94" class="edge">
<title>Node4&#45;&gt;Node35</title>
<path fill="none" stroke="#191970" d="M1101.6777,-492.4354C1071.7461,-485.5242 1035.0637,-474.132 1006,-456 978.8585,-439.0673 955.0152,-410.1726 941.3043,-391.4635"/>
<polygon fill="#191970" stroke="#191970" points="944.0682,-389.3109 935.4173,-383.1943 938.3657,-393.3706 944.0682,-389.3109"/>
</g>
<!-- Node4&#45;&gt;Node41 -->
<g id="edge96" class="edge">
<title>Node4&#45;&gt;Node41</title>
<path fill="none" stroke="#191970" d="M1217.5258,-498.495C1402.0058,-487.8118 1956.4701,-455.703 2150.8042,-444.4492"/>
<polygon fill="#191970" stroke="#191970" points="2151.1047,-447.9377 2160.8856,-443.8654 2150.6999,-440.9495 2151.1047,-447.9377"/>
</g>
<!-- Node6 -->
<g id="node7" class="node">
<title>Node6</title>
<g id="a_node7"><a xlink:href="functor_8h.html" target="_top" xlink:title="Defines the Functor data structures. ">
<polygon fill="#ffffff" stroke="#000000" points="1590.5,-297 1590.5,-316 1699.5,-316 1699.5,-297 1590.5,-297"/>
<text text-anchor="middle" x="1645" y="-304" font-family="Helvetica,sans-Serif" font-size="10.00" fill="#000000">tvm/node/functor.h</text>
</a>
</g>
</g>
<!-- Node5&#45;&gt;Node6 -->
<g id="edge6" class="edge">
<title>Node5&#45;&gt;Node6</title>
<path fill="none" stroke="#191970" d="M1176.8006,-425.1884C1206.3547,-402.4668 1259.6511,-362.049 1270,-358 1399.5804,-307.3019 1444.0148,-346.4219 1581,-322 1586.8402,-320.9588 1592.9424,-319.7029 1598.9603,-318.362"/>
<polygon fill="#191970" stroke="#191970" points="1599.9955,-321.715 1608.9475,-316.0482 1598.4155,-314.8956 1599.9955,-321.715"/>
</g>
<!-- Node5&#45;&gt;Node14 -->
<g id="edge67" class="edge">
<title>Node5&#45;&gt;Node14</title>
<path fill="none" stroke="#191970" d="M1100.2482,-436.5733C966.9901,-427.1722 641.7084,-403.107 594,-389 565.5943,-380.6007 561.9673,-370.2555 535,-358 494.6494,-339.6623 472.2701,-354.3754 442,-322 417.5187,-295.816 418,-280.846 418,-245 418,-245 418,-245 418,-189 418,-140.5473 367.4485,-104.5212 333.6708,-85.8573"/>
<polygon fill="#191970" stroke="#191970" points="335.1172,-82.6624 324.6445,-81.0577 331.8307,-88.843 335.1172,-82.6624"/>
</g>
<!-- Node19 -->
<g id="node20" class="node">
<title>Node19</title>
<g id="a_node20"><a xlink:href="object__path_8h.html" target="_top" xlink:title="tvm/node/object_path.h">
<polygon fill="#ffffff" stroke="#000000" points="1048,-364 1048,-383 1180,-383 1180,-364 1048,-364"/>
<text text-anchor="middle" x="1114" y="-371" font-family="Helvetica,sans-Serif" font-size="10.00" fill="#000000">tvm/node/object_path.h</text>
</a>
</g>
</g>
<!-- Node5&#45;&gt;Node19 -->
<g id="edge21" class="edge">
<title>Node5&#45;&gt;Node19</title>
<path fill="none" stroke="#191970" d="M1147.2426,-425.2967C1140.8032,-415.2631 1132.3365,-402.0709 1125.5595,-391.5113"/>
<polygon fill="#191970" stroke="#191970" points="1128.4791,-389.5804 1120.1323,-383.055 1122.588,-393.3613 1128.4791,-389.5804"/>
</g>
<!-- Node5&#45;&gt;Node32 -->
<g id="edge54" class="edge">
<title>Node5&#45;&gt;Node32</title>
<path fill="none" stroke="#191970" d="M1213.6466,-439.1128C1390.1255,-434.5873 1945.6994,-418.8006 2405,-389 2438.5067,-386.826 2475.5571,-383.6555 2506.9074,-380.7475"/>
<polygon fill="#191970" stroke="#191970" points="2507.2439,-384.2314 2516.874,-379.8142 2506.5912,-377.2619 2507.2439,-384.2314"/>
</g>
<!-- Node5&#45;&gt;Node33 -->
<g id="edge62" class="edge">
<title>Node5&#45;&gt;Node33</title>
<path fill="none" stroke="#191970" d="M1100.3293,-436.6492C996.5238,-429.1583 779.9227,-411.3792 708,-389 657.5712,-373.3088 604.4084,-341.0708 575.3085,-321.8689"/>
<polygon fill="#191970" stroke="#191970" points="576.9964,-318.7869 566.74,-316.1301 573.101,-324.6029 576.9964,-318.7869"/>
</g>
<!-- Node7 -->
<g id="node8" class="node">
<title>Node7</title>
<polygon fill="#ffffff" stroke="#bfbfbf" points="1741.5,-179.5 1741.5,-198.5 1830.5,-198.5 1830.5,-179.5 1741.5,-179.5"/>
<text text-anchor="middle" x="1786" y="-186.5" font-family="Helvetica,sans-Serif" font-size="10.00" fill="#000000">dmlc/logging.h</text>
</g>
<!-- Node6&#45;&gt;Node7 -->
<g id="edge7" class="edge">
<title>Node6&#45;&gt;Node7</title>
<path fill="none" stroke="#191970" d="M1681.0517,-296.9061C1724.5615,-284.9682 1792.8243,-264.9456 1800,-255 1809.9118,-241.2621 1804.1562,-221.9819 1797.2721,-207.8062"/>
<polygon fill="#191970" stroke="#191970" points="1800.3227,-206.0889 1792.5046,-198.9385 1794.1573,-209.4037 1800.3227,-206.0889"/>
</g>
<!-- Node6&#45;&gt;Node8 -->
<g id="edge8" class="edge">
<title>Node6&#45;&gt;Node8</title>
<path fill="none" stroke="#191970" d="M1645.4068,-296.8063C1645.5482,-282.1519 1643.9248,-254.0504 1631,-235 1605.1828,-196.9469 1587.2847,-194.5243 1544,-179 1486.3576,-158.3262 1318.1168,-144.0972 1221.8147,-137.3915"/>
<polygon fill="#191970" stroke="#191970" points="1221.7995,-133.8823 1211.5831,-136.6886 1221.3197,-140.8659 1221.7995,-133.8823"/>
</g>
<!-- Node6&#45;&gt;Node15 -->
<g id="edge18" class="edge">
<title>Node6&#45;&gt;Node15</title>
<path fill="none" stroke="#191970" d="M1681.4772,-296.9804C1716.4076,-287.5219 1770.3894,-272.0046 1816,-255 1873.0406,-233.734 1887.4246,-227.9059 1941,-199 1996.229,-169.2019 2003.6855,-150.6922 2060,-123 2092.5141,-107.0115 2131.289,-93.3583 2160.2545,-84.1351"/>
<polygon fill="#191970" stroke="#191970" points="2161.5687,-87.3911 2170.0645,-81.0609 2159.4754,-80.7114 2161.5687,-87.3911"/>
</g>
<!-- Node6&#45;&gt;Node16 -->
<g id="edge19" class="edge">
<title>Node6&#45;&gt;Node16</title>
<path fill="none" stroke="#191970" d="M1699.7601,-300.434C1822.0459,-286.8847 2106.7703,-255.3176 2108,-255 2130.3766,-249.2199 2134.1256,-242.4589 2156,-235 2214.3674,-215.0973 2232.3523,-220.9 2290,-199 2377.6906,-165.6869 2475.2999,-111.8203 2520.0824,-86.0897"/>
<polygon fill="#191970" stroke="#191970" points="2521.9071,-89.0776 2528.814,-81.0436 2518.4046,-83.0169 2521.9071,-89.0776"/>
</g>
<!-- Node6&#45;&gt;Node18 -->
<g id="edge20" class="edge">
<title>Node6&#45;&gt;Node18</title>
<path fill="none" stroke="#191970" d="M1699.818,-300.0845C1725.6445,-297.1508 1756.8877,-293.7292 1785,-291 1980.8176,-271.9897 2216.2575,-253.9348 2302.3681,-247.4901"/>
<polygon fill="#191970" stroke="#191970" points="2302.6381,-250.9798 2312.3499,-246.7451 2302.1171,-243.9992 2302.6381,-250.9798"/>
</g>
<!-- Node8&#45;&gt;Node9 -->
<g id="edge9" class="edge">
<title>Node8&#45;&gt;Node9</title>
<path fill="none" stroke="#191970" d="M1094.128,-123.4581C1029.474,-112.798 924.6084,-95.5078 853.7832,-83.8302"/>
<polygon fill="#191970" stroke="#191970" points="854.0256,-80.323 843.5894,-82.1495 852.8868,-87.2297 854.0256,-80.323"/>
</g>
<!-- Node13 -->
<g id="node14" class="node">
<title>Node13</title>
<polygon fill="#ffffff" stroke="#bfbfbf" points="1317.5,-62 1317.5,-81 1442.5,-81 1442.5,-62 1317.5,-62"/>
<text text-anchor="middle" x="1380" y="-69" font-family="Helvetica,sans-Serif" font-size="10.00" fill="#000000">tvm/runtime/logging.h</text>
</g>
<!-- Node8&#45;&gt;Node13 -->
<g id="edge13" class="edge">
<title>Node8&#45;&gt;Node13</title>
<path fill="none" stroke="#191970" d="M1187.625,-123.3906C1227.3631,-112.6718 1291.7268,-95.3105 1334.9349,-83.6557"/>
<polygon fill="#191970" stroke="#191970" points="1335.8818,-87.0255 1344.6252,-81.0419 1334.0587,-80.267 1335.8818,-87.0255"/>
</g>
<!-- Node8&#45;&gt;Node14 -->
<g id="edge14" class="edge">
<title>Node8&#45;&gt;Node14</title>
<path fill="none" stroke="#191970" d="M1092.3703,-128.6754C926.4269,-116.6406 463.1256,-83.0404 336.3975,-73.8496"/>
<polygon fill="#191970" stroke="#191970" points="336.4172,-70.3419 326.1902,-73.1093 335.9108,-77.3236 336.4172,-70.3419"/>
</g>
<!-- Node8&#45;&gt;Node15 -->
<g id="edge15" class="edge">
<title>Node8&#45;&gt;Node15</title>
<path fill="none" stroke="#191970" d="M1211.7264,-124.503C1216.5502,-123.9466 1221.3533,-123.4357 1226,-123 1584.4789,-89.3869 2019.1659,-76.1288 2158.0652,-72.563"/>
<polygon fill="#191970" stroke="#191970" points="2158.4039,-76.0557 2168.3122,-72.3039 2158.2269,-69.0579 2158.4039,-76.0557"/>
</g>
<!-- Node8&#45;&gt;Node16 -->
<g id="edge16" class="edge">
<title>Node8&#45;&gt;Node16</title>
<path fill="none" stroke="#191970" d="M1211.6544,-130.7034C1376.4524,-124.3138 1851.9087,-105.5733 2247,-87 2343.3015,-82.4729 2457.0651,-76.3369 2512.0152,-73.3234"/>
<polygon fill="#191970" stroke="#191970" points="2512.4057,-76.8074 2522.1985,-72.7638 2512.0215,-69.8179 2512.4057,-76.8074"/>
</g>
<!-- Node17 -->
<g id="node18" class="node">
<title>Node17</title>
<polygon fill="#ffffff" stroke="#bfbfbf" points="1026,-62 1026,-81 1076,-81 1076,-62 1026,-62"/>
<text text-anchor="middle" x="1051" y="-69" font-family="Helvetica,sans-Serif" font-size="10.00" fill="#000000">atomic</text>
</g>
<!-- Node8&#45;&gt;Node17 -->
<g id="edge17" class="edge">
<title>Node8&#45;&gt;Node17</title>
<path fill="none" stroke="#191970" d="M1136.2188,-123.3906C1119.9125,-113.4616 1094.246,-97.833 1075.3386,-86.3201"/>
<polygon fill="#191970" stroke="#191970" points="1077.0319,-83.2533 1066.6704,-81.0419 1073.3913,-89.2322 1077.0319,-83.2533"/>
</g>
<!-- Node10 -->
<g id="node11" class="node">
<title>Node10</title>
<polygon fill="#ffffff" stroke="#bfbfbf" points="639.5,-.5 639.5,-19.5 732.5,-19.5 732.5,-.5 639.5,-.5"/>
<text text-anchor="middle" x="686" y="-7.5" font-family="Helvetica,sans-Serif" font-size="10.00" fill="#000000">dlpack/dlpack.h</text>
</g>
<!-- Node9&#45;&gt;Node10 -->
<g id="edge10" class="edge">
<title>Node9&#45;&gt;Node10</title>
<path fill="none" stroke="#191970" d="M756.0112,-56.2977C741.8034,-46.9022 723.6215,-34.8787 709.3475,-25.4395"/>
<polygon fill="#191970" stroke="#191970" points="710.8845,-22.2598 700.6128,-19.6633 707.0233,-28.0986 710.8845,-22.2598"/>
</g>
<!-- Node11 -->
<g id="node12" class="node">
<title>Node11</title>
<polygon fill="#ffffff" stroke="#bfbfbf" points="751,-.5 751,-19.5 807,-19.5 807,-.5 751,-.5"/>
<text text-anchor="middle" x="779" y="-7.5" font-family="Helvetica,sans-Serif" font-size="10.00" fill="#000000">stddef.h</text>
</g>
<!-- Node9&#45;&gt;Node11 -->
<g id="edge11" class="edge">
<title>Node9&#45;&gt;Node11</title>
<path fill="none" stroke="#191970" d="M779,-56.2977C779,-48.3834 779,-38.6043 779,-30.0759"/>
<polygon fill="#191970" stroke="#191970" points="782.5001,-29.8469 779,-19.8469 775.5001,-29.847 782.5001,-29.8469"/>
</g>
<!-- Node12 -->
<g id="node13" class="node">
<title>Node12</title>
<polygon fill="#ffffff" stroke="#bfbfbf" points="825.5,-.5 825.5,-19.5 878.5,-19.5 878.5,-.5 825.5,-.5"/>
<text text-anchor="middle" x="852" y="-7.5" font-family="Helvetica,sans-Serif" font-size="10.00" fill="#000000">stdint.h</text>
</g>
<!-- Node9&#45;&gt;Node12 -->
<g id="edge12" class="edge">
<title>Node9&#45;&gt;Node12</title>
<path fill="none" stroke="#191970" d="M797.0449,-56.2977C807.8114,-47.2274 821.4851,-35.7077 832.4995,-26.4285"/>
<polygon fill="#191970" stroke="#191970" points="834.9191,-28.9667 840.3118,-19.8469 830.4089,-23.6132 834.9191,-28.9667"/>
</g>
<!-- Node19&#45;&gt;Node8 -->
<g id="edge52" class="edge">
<title>Node19&#45;&gt;Node8</title>
<path fill="none" stroke="#191970" d="M1114.6096,-363.6871C1116.5199,-334.9992 1123.1681,-248.8929 1138,-179 1139.8796,-170.1425 1142.6798,-160.5327 1145.283,-152.3983"/>
<polygon fill="#191970" stroke="#191970" points="1148.6598,-153.3357 1148.4977,-142.7421 1142.0181,-151.1246 1148.6598,-153.3357"/>
</g>
<!-- Node19&#45;&gt;Node14 -->
<g id="edge53" class="edge">
<title>Node19&#45;&gt;Node14</title>
<path fill="none" stroke="#191970" d="M1100.5989,-363.7713C1077.2379,-347.1426 1027.1366,-312.9291 981,-291 929.3023,-266.4277 548.7101,-139.8303 494,-123 438.9112,-106.0532 373.9486,-89.0847 336.0284,-79.4776"/>
<polygon fill="#191970" stroke="#191970" points="336.6331,-76.0205 326.0808,-76.9692 334.9215,-82.8081 336.6331,-76.0205"/>
</g>
<!-- Node20 -->
<g id="node21" class="node">
<title>Node20</title>
<g id="a_node21"><a xlink:href="optional_8h.html" target="_top" xlink:title="Runtime Optional container types. ">
<polygon fill="#ffffff" stroke="#000000" points="2014,-291.5 2014,-321.5 2140,-321.5 2140,-291.5 2014,-291.5"/>
<text text-anchor="start" x="2022" y="-309.5" font-family="Helvetica,sans-Serif" font-size="10.00" fill="#000000">tvm/runtime/container</text>
<text text-anchor="middle" x="2077" y="-298.5" font-family="Helvetica,sans-Serif" font-size="10.00" fill="#000000">/optional.h</text>
</a>
</g>
</g>
<!-- Node19&#45;&gt;Node20 -->
<g id="edge22" class="edge">
<title>Node19&#45;&gt;Node20</title>
<path fill="none" stroke="#191970" d="M1180.3575,-366.1716C1208.0424,-363.3054 1240.551,-360.1878 1270,-358 1593.946,-333.9338 1677.6538,-362.1638 2000,-322 2001.1164,-321.8609 2002.2407,-321.7147 2003.3714,-321.5619"/>
<polygon fill="#191970" stroke="#191970" points="2004.2986,-324.9625 2013.6738,-320.0272 2003.2672,-318.0389 2004.2986,-324.9625"/>
</g>
<!-- Node26 -->
<g id="node27" class="node">
<title>Node26</title>
<g id="a_node27"><a xlink:href="string_8h.html" target="_top" xlink:title="Runtime String container types. ">
<polygon fill="#ffffff" stroke="#ff0000" points="1446,-291.5 1446,-321.5 1572,-321.5 1572,-291.5 1446,-291.5"/>
<text text-anchor="start" x="1454" y="-309.5" font-family="Helvetica,sans-Serif" font-size="10.00" fill="#000000">tvm/runtime/container</text>
<text text-anchor="middle" x="1509" y="-298.5" font-family="Helvetica,sans-Serif" font-size="10.00" fill="#000000">/string.h</text>
</a>
</g>
</g>
<!-- Node19&#45;&gt;Node26 -->
<g id="edge36" class="edge">
<title>Node19&#45;&gt;Node26</title>
<path fill="none" stroke="#191970" d="M1162.1841,-363.9273C1172.6618,-361.912 1183.6941,-359.8404 1194,-358 1276.7192,-343.2279 1371.9645,-327.8865 1435.8738,-317.8332"/>
<polygon fill="#191970" stroke="#191970" points="1436.519,-321.2749 1445.855,-316.2661 1435.4331,-314.3596 1436.519,-321.2749"/>
</g>
<!-- Node20&#45;&gt;Node16 -->
<g id="edge23" class="edge">
<title>Node20&#45;&gt;Node16</title>
<path fill="none" stroke="#191970" d="M2139.583,-291.4114C2175.2863,-282.1788 2220.6318,-269.3918 2260,-255 2280.1751,-247.6246 2283.4525,-241.2636 2304,-235 2397.0948,-206.6213 2445.3409,-261.4341 2520,-199 2551.3158,-172.8119 2550.849,-119.9308 2547.8858,-91.1852"/>
<polygon fill="#191970" stroke="#191970" points="2551.3435,-90.6272 2546.6423,-81.1325 2544.3965,-91.4866 2551.3435,-90.6272"/>
</g>
<!-- Node21 -->
<g id="node22" class="node">
<title>Node21</title>
<g id="a_node22"><a xlink:href="runtime_2container_2base_8h.html" target="_top" xlink:title="Base utilities for common POD(plain old data) container types. ">
<polygon fill="#ffffff" stroke="#000000" points="2008.5,-235.5 2008.5,-254.5 2063.5,-254.5 2063.5,-235.5 2008.5,-235.5"/>
<text text-anchor="middle" x="2036" y="-242.5" font-family="Helvetica,sans-Serif" font-size="10.00" fill="#000000">./base.h</text>
</a>
</g>
</g>
<!-- Node20&#45;&gt;Node21 -->
<g id="edge24" class="edge">
<title>Node20&#45;&gt;Node21</title>
<path fill="none" stroke="#191970" d="M2066.8652,-291.2977C2061.2332,-282.8498 2054.1849,-272.2773 2048.246,-263.369"/>
<polygon fill="#191970" stroke="#191970" points="2051.0238,-261.226 2042.5646,-254.8469 2045.1995,-265.1089 2051.0238,-261.226"/>
</g>
<!-- Node21&#45;&gt;Node7 -->
<g id="edge25" class="edge">
<title>Node21&#45;&gt;Node7</title>
<path fill="none" stroke="#191970" d="M2008.2904,-238.7931C1967.4102,-229.6359 1890.1975,-212.3402 1838.4149,-200.7409"/>
<polygon fill="#191970" stroke="#191970" points="1838.939,-197.2717 1828.4157,-198.5011 1837.4088,-204.1024 1838.939,-197.2717"/>
</g>
<!-- Node21&#45;&gt;Node8 -->
<g id="edge32" class="edge">
<title>Node21&#45;&gt;Node8</title>
<path fill="none" stroke="#191970" d="M2026.2344,-235.386C2010.0902,-220.1981 1976.1155,-191.1344 1941,-179 1874.0915,-155.8794 1402.3307,-140.1424 1221.9234,-134.9095"/>
<polygon fill="#191970" stroke="#191970" points="1221.8479,-131.4059 1211.7513,-134.6166 1221.6464,-138.403 1221.8479,-131.4059"/>
</g>
<!-- Node21&#45;&gt;Node13 -->
<g id="edge26" class="edge">
<title>Node21&#45;&gt;Node13</title>
<path fill="none" stroke="#191970" d="M2029.7551,-235.0689C2019.8705,-220.2576 1999.1394,-192.6633 1974,-179 1884.8425,-130.543 1590.6674,-93.8826 1452.6688,-78.9002"/>
<polygon fill="#191970" stroke="#191970" points="1452.925,-75.4076 1442.6076,-77.8163 1452.1751,-82.3674 1452.925,-75.4076"/>
</g>
<!-- Node21&#45;&gt;Node16 -->
<g id="edge35" class="edge">
<title>Node21&#45;&gt;Node16</title>
<path fill="none" stroke="#191970" d="M2063.5384,-238.1864C2107.7272,-227.1382 2190.7709,-205.8593 2203,-199 2246.0551,-174.8504 2240.0814,-145.541 2284,-123 2323.538,-102.7072 2451.1258,-83.8209 2512.0389,-75.6942"/>
<polygon fill="#191970" stroke="#191970" points="2512.7988,-79.1244 2522.2563,-74.3488 2511.8849,-72.1843 2512.7988,-79.1244"/>
</g>
<!-- Node21&#45;&gt;Node22 -->
<g id="edge27" class="edge">
<title>Node21&#45;&gt;Node22</title>
<path fill="none" stroke="#191970" d="M2052.1994,-235.2455C2066.6018,-226.5731 2087.8732,-213.7645 2104.3799,-203.825"/>
<polygon fill="#191970" stroke="#191970" points="2106.225,-206.7996 2112.9863,-198.6427 2102.614,-200.8028 2106.225,-206.7996"/>
</g>
<!-- Node24 -->
<g id="node25" class="node">
<title>Node24</title>
<polygon fill="#ffffff" stroke="#bfbfbf" points="2352,-179.5 2352,-198.5 2416,-198.5 2416,-179.5 2352,-179.5"/>
<text text-anchor="middle" x="2384" y="-186.5" font-family="Helvetica,sans-Serif" font-size="10.00" fill="#000000">algorithm</text>
</g>
<!-- Node21&#45;&gt;Node24 -->
<g id="edge33" class="edge">
<title>Node21&#45;&gt;Node24</title>
<path fill="none" stroke="#191970" d="M2063.5979,-240.559C2124.2749,-230.7948 2269.6106,-207.4075 2341.8129,-195.7887"/>
<polygon fill="#191970" stroke="#191970" points="2342.5994,-199.2073 2351.9163,-194.1629 2341.4872,-192.2962 2342.5994,-199.2073"/>
</g>
<!-- Node25 -->
<g id="node26" class="node">
<title>Node25</title>
<polygon fill="#ffffff" stroke="#bfbfbf" points="1848.5,-179.5 1848.5,-198.5 1931.5,-198.5 1931.5,-179.5 1848.5,-179.5"/>
<text text-anchor="middle" x="1890" y="-186.5" font-family="Helvetica,sans-Serif" font-size="10.00" fill="#000000">initializer_list</text>
</g>
<!-- Node21&#45;&gt;Node25 -->
<g id="edge34" class="edge">
<title>Node21&#45;&gt;Node25</title>
<path fill="none" stroke="#191970" d="M2010.9017,-235.3733C1987.0445,-226.2226 1950.9665,-212.3844 1924.429,-202.2057"/>
<polygon fill="#191970" stroke="#191970" points="1925.361,-198.8145 1914.7708,-198.5011 1922.8541,-205.3503 1925.361,-198.8145"/>
</g>
<!-- Node22&#45;&gt;Node8 -->
<g id="edge28" class="edge">
<title>Node22&#45;&gt;Node8</title>
<path fill="none" stroke="#191970" d="M2064.1512,-184.6926C2036.3901,-182.8807 2003.6086,-180.7835 1974,-179 1695.4465,-162.2206 1363.6646,-144.2795 1221.8617,-136.7082"/>
<polygon fill="#191970" stroke="#191970" points="1221.7488,-133.1973 1211.5765,-136.1595 1221.3758,-140.1874 1221.7488,-133.1973"/>
</g>
<!-- Node22&#45;&gt;Node15 -->
<g id="edge30" class="edge">
<title>Node22&#45;&gt;Node15</title>
<path fill="none" stroke="#191970" d="M2135.0699,-179.1332C2143.0354,-166.207 2157.4754,-142.8504 2170,-123 2176.9565,-111.9746 2184.83,-99.6802 2191.1412,-89.8695"/>
<polygon fill="#191970" stroke="#191970" points="2194.1584,-91.6487 2196.6326,-81.3468 2188.2741,-87.8573 2194.1584,-91.6487"/>
</g>
<!-- Node22&#45;&gt;Node16 -->
<g id="edge31" class="edge">
<title>Node22&#45;&gt;Node16</title>
<path fill="none" stroke="#191970" d="M2137.1188,-179.4837C2150.3276,-164.7025 2178.0252,-136.5233 2208,-123 2262.1205,-98.5833 2438.4023,-80.8061 2512.1225,-74.2585"/>
<polygon fill="#191970" stroke="#191970" points="2512.5714,-77.7327 2522.2284,-73.3745 2511.9614,-70.7594 2512.5714,-77.7327"/>
</g>
<!-- Node23 -->
<g id="node24" class="node">
<title>Node23</title>
<polygon fill="#ffffff" stroke="#bfbfbf" points="2068.5,-123.5 2068.5,-142.5 2117.5,-142.5 2117.5,-123.5 2068.5,-123.5"/>
<text text-anchor="middle" x="2093" y="-130.5" font-family="Helvetica,sans-Serif" font-size="10.00" fill="#000000">cstdlib</text>
</g>
<!-- Node22&#45;&gt;Node23 -->
<g id="edge29" class="edge">
<title>Node22&#45;&gt;Node23</title>
<path fill="none" stroke="#191970" d="M2122.7293,-179.2455C2117.7736,-171.5367 2110.717,-160.5598 2104.7224,-151.2348"/>
<polygon fill="#191970" stroke="#191970" points="2107.5506,-149.1618 2099.1989,-142.6427 2101.6624,-152.9471 2107.5506,-149.1618"/>
</g>
<!-- Node26&#45;&gt;Node7 -->
<g id="edge37" class="edge">
<title>Node26&#45;&gt;Node7</title>
<path fill="none" stroke="#191970" d="M1492.7298,-291.4778C1477.9318,-276.0123 1460.4522,-251.8579 1475,-235 1491.4906,-215.8909 1646.5295,-200.3799 1731.2822,-193.2444"/>
<polygon fill="#191970" stroke="#191970" points="1731.5795,-196.7319 1741.2554,-192.4161 1731,-189.7559 1731.5795,-196.7319"/>
</g>
<!-- Node26&#45;&gt;Node8 -->
<g id="edge41" class="edge">
<title>Node26&#45;&gt;Node8</title>
<path fill="none" stroke="#191970" d="M1565.2224,-291.4107C1599.5675,-279.2971 1633.6142,-260.1624 1615,-235 1568.8027,-172.5513 1339.036,-146.7411 1221.5046,-137.4901"/>
<polygon fill="#191970" stroke="#191970" points="1221.7602,-133.9995 1211.5214,-136.7229 1221.2238,-140.9789 1221.7602,-133.9995"/>
</g>
<!-- Node26&#45;&gt;Node13 -->
<g id="edge39" class="edge">
<title>Node26&#45;&gt;Node13</title>
<path fill="none" stroke="#191970" d="M1559.5822,-291.4164C1589.2114,-281.4458 1622.4537,-267.8842 1631,-255 1635.9135,-247.5926 1635.236,-242.8147 1631,-235 1586.3698,-152.6644 1480.3257,-105.2604 1421.355,-84.3856"/>
<polygon fill="#191970" stroke="#191970" points="1422.2088,-80.9779 1411.614,-81.0275 1419.9273,-87.5957 1422.2088,-80.9779"/>
</g>
<!-- Node26&#45;&gt;Node14 -->
<g id="edge47" class="edge">
<title>Node26&#45;&gt;Node14</title>
<path fill="none" stroke="#191970" d="M1456.3031,-291.4345C1364.8642,-265.69 1170.6152,-212.7475 1004,-179 748.499,-127.2489 436.056,-87.4809 336.2527,-75.3453"/>
<polygon fill="#191970" stroke="#191970" points="336.551,-71.856 326.203,-74.1296 335.7102,-78.8053 336.551,-71.856"/>
</g>
<!-- Node26&#45;&gt;Node15 -->
<g id="edge48" class="edge">
<title>Node26&#45;&gt;Node15</title>
<path fill="none" stroke="#191970" d="M1562.0838,-291.4774C1588.3542,-282.8365 1619.9372,-270.5801 1646,-255 1690.0687,-228.6562 1687.2581,-202.318 1733,-179 1877.217,-105.482 2071.757,-81.692 2158.2898,-74.4527"/>
<polygon fill="#191970" stroke="#191970" points="2158.6085,-77.9385 2168.2965,-73.6497 2158.0485,-70.9609 2158.6085,-77.9385"/>
</g>
<!-- Node26&#45;&gt;Node16 -->
<g id="edge50" class="edge">
<title>Node26&#45;&gt;Node16</title>
<path fill="none" stroke="#191970" d="M1572.2143,-292.5281C1575.5165,-291.9705 1578.7932,-291.4559 1582,-291 1798.6302,-260.2058 1863.7185,-318.8606 2073,-255 2090.1361,-249.7711 2091.5273,-242.0455 2108,-235 2159.587,-212.9358 2176.1307,-217.7853 2229,-199 2311.9856,-169.5138 2330.2641,-155.7917 2412,-123 2446.2337,-109.2657 2485.6618,-94.0768 2512.6469,-83.7769"/>
<polygon fill="#191970" stroke="#191970" points="2514.2449,-86.9135 2522.3431,-80.0819 2511.7522,-80.3723 2514.2449,-86.9135"/>
</g>
<!-- Node26&#45;&gt;Node18 -->
<g id="edge51" class="edge">
<title>Node26&#45;&gt;Node18</title>
<path fill="none" stroke="#191970" d="M1572.2069,-292.4753C1575.5111,-291.9315 1578.7902,-291.4343 1582,-291 1847.6137,-255.0646 1916.4934,-271.7979 2184,-255 2224.6096,-252.4499 2271.3103,-249.353 2302.1116,-247.2876"/>
<polygon fill="#191970" stroke="#191970" points="2302.5644,-250.7651 2312.3073,-246.6026 2302.0952,-243.7809 2302.5644,-250.7651"/>
</g>
<!-- Node26&#45;&gt;Node21 -->
<g id="edge38" class="edge">
<title>Node26&#45;&gt;Node21</title>
<path fill="none" stroke="#191970" d="M1572.2305,-292.6368C1575.5285,-292.0508 1578.7998,-291.5004 1582,-291 1662.0779,-278.4794 1904.1805,-256.587 1998.1465,-248.3027"/>
<polygon fill="#191970" stroke="#191970" points="1998.678,-251.7696 2008.3329,-247.4068 1998.0647,-244.7965 1998.678,-251.7696"/>
</g>
<!-- Node26&#45;&gt;Node22 -->
<g id="edge40" class="edge">
<title>Node26&#45;&gt;Node22</title>
<path fill="none" stroke="#191970" d="M1572.2882,-292.9615C1575.5712,-292.2907 1578.8235,-291.6333 1582,-291 1756.4831,-256.2136 1963.0267,-218.6866 2065.1904,-200.3673"/>
<polygon fill="#191970" stroke="#191970" points="2066.1155,-203.7574 2075.3415,-198.5487 2064.881,-196.8671 2066.1155,-203.7574"/>
</g>
<!-- Node26&#45;&gt;Node24 -->
<g id="edge42" class="edge">
<title>Node26&#45;&gt;Node24</title>
<path fill="none" stroke="#191970" d="M1572.2116,-292.5091C1575.5146,-291.9564 1578.7921,-291.4481 1582,-291 1814.0718,-258.5852 1876.3603,-290.3712 2108,-255 2113.8362,-254.1088 2265.7471,-217.5311 2341.6529,-199.2219"/>
<polygon fill="#191970" stroke="#191970" points="2342.9357,-202.5129 2351.836,-196.7652 2341.294,-195.7081 2342.9357,-202.5129"/>
</g>
<!-- Node26&#45;&gt;Node25 -->
<g id="edge45" class="edge">
<title>Node26&#45;&gt;Node25</title>
<path fill="none" stroke="#191970" d="M1572.0717,-292.4454C1624.9119,-280.476 1696.0541,-263.8523 1724,-255 1772.2294,-239.7226 1826.396,-217.1168 1859.3506,-202.7251"/>
<polygon fill="#191970" stroke="#191970" points="1861.1223,-205.7695 1868.8669,-198.5396 1858.304,-199.3619 1861.1223,-205.7695"/>
</g>
<!-- Node27 -->
<g id="node28" class="node">
<title>Node27</title>
<polygon fill="#ffffff" stroke="#bfbfbf" points="1552.5,-235.5 1552.5,-254.5 1605.5,-254.5 1605.5,-235.5 1552.5,-235.5"/>
<text text-anchor="middle" x="1579" y="-242.5" font-family="Helvetica,sans-Serif" font-size="10.00" fill="#000000">cstddef</text>
</g>
<!-- Node26&#45;&gt;Node27 -->
<g id="edge43" class="edge">
<title>Node26&#45;&gt;Node27</title>
<path fill="none" stroke="#191970" d="M1526.3034,-291.2977C1536.5262,-282.3163 1549.4823,-270.9334 1559.9896,-261.702"/>
<polygon fill="#191970" stroke="#191970" points="1562.5897,-264.0766 1567.7921,-254.8469 1557.9695,-258.8178 1562.5897,-264.0766"/>
</g>
<!-- Node28 -->
<g id="node29" class="node">
<title>Node28</title>
<polygon fill="#ffffff" stroke="#bfbfbf" points="1484,-235.5 1484,-254.5 1534,-254.5 1534,-235.5 1484,-235.5"/>
<text text-anchor="middle" x="1509" y="-242.5" font-family="Helvetica,sans-Serif" font-size="10.00" fill="#000000">cstring</text>
</g>
<!-- Node26&#45;&gt;Node28 -->
<g id="edge44" class="edge">
<title>Node26&#45;&gt;Node28</title>
<path fill="none" stroke="#191970" d="M1509,-291.2977C1509,-283.3834 1509,-273.6043 1509,-265.0759"/>
<polygon fill="#191970" stroke="#191970" points="1512.5001,-264.8469 1509,-254.8469 1505.5001,-264.847 1512.5001,-264.8469"/>
</g>
<!-- Node29 -->
<g id="node30" class="node">
<title>Node29</title>
<polygon fill="#ffffff" stroke="#bfbfbf" points="2528,-235.5 2528,-254.5 2586,-254.5 2586,-235.5 2528,-235.5"/>
<text text-anchor="middle" x="2557" y="-242.5" font-family="Helvetica,sans-Serif" font-size="10.00" fill="#000000">memory</text>
</g>
<!-- Node26&#45;&gt;Node29 -->
<g id="edge46" class="edge">
<title>Node26&#45;&gt;Node29</title>
<path fill="none" stroke="#191970" d="M1572.1961,-292.3917C1575.5031,-291.8697 1578.7858,-291.4 1582,-291 1992.2296,-239.9477 2104.9838,-315.1675 2517.5612,-254.8916"/>
<polygon fill="#191970" stroke="#191970" points="2518.2935,-258.3214 2527.6738,-253.3959 2517.2693,-251.3968 2518.2935,-258.3214"/>
</g>
<!-- Node31 -->
<g id="node31" class="node">
<title>Node31</title>
<polygon fill="#ffffff" stroke="#bfbfbf" points="2416.5,-235.5 2416.5,-254.5 2509.5,-254.5 2509.5,-235.5 2416.5,-235.5"/>
<text text-anchor="middle" x="2463" y="-242.5" font-family="Helvetica,sans-Serif" font-size="10.00" fill="#000000">unordered_map</text>
</g>
<!-- Node26&#45;&gt;Node31 -->
<g id="edge49" class="edge">
<title>Node26&#45;&gt;Node31</title>
<path fill="none" stroke="#191970" d="M1572.1997,-292.4204C1575.5058,-291.8909 1578.7872,-291.4118 1582,-291 1929.3029,-246.4892 2019.8632,-281.5322 2369,-255 2381.0176,-254.0867 2393.8757,-252.8745 2406.1032,-251.61"/>
<polygon fill="#191970" stroke="#191970" points="2406.6181,-255.0752 2416.1937,-250.541 2405.8806,-248.1141 2406.6181,-255.0752"/>
</g>
<!-- Node32&#45;&gt;Node15 -->
<g id="edge57" class="edge">
<title>Node32&#45;&gt;Node15</title>
<path fill="none" stroke="#191970" d="M2597.2847,-358.1841C2606.5463,-348.7871 2617.0463,-335.9121 2622,-322 2628.2767,-304.3721 2615.3846,-235.481 2615,-235 2539.7617,-140.8961 2471.5826,-188.4495 2360,-143 2314.6976,-124.5475 2263.2967,-100.5376 2232.0181,-85.5719"/>
<polygon fill="#191970" stroke="#191970" points="2233.1325,-82.2244 2222.603,-81.0493 2230.1015,-88.5342 2233.1325,-82.2244"/>
</g>
<!-- Node32&#45;&gt;Node16 -->
<g id="edge58" class="edge">
<title>Node32&#45;&gt;Node16</title>
<path fill="none" stroke="#191970" d="M2643.2557,-359.8186C2731.2723,-338.9251 2880,-296.0649 2880,-245 2880,-245 2880,-245 2880,-189 2880,-125.3138 2661.6855,-87.8785 2577.5341,-75.8144"/>
<polygon fill="#191970" stroke="#191970" points="2577.89,-72.3301 2567.5005,-74.4056 2576.9167,-79.2621 2577.89,-72.3301"/>
</g>
<!-- Node32&#45;&gt;Node18 -->
<g id="edge59" class="edge">
<title>Node32&#45;&gt;Node18</title>
<path fill="none" stroke="#191970" d="M2579.2145,-358.2649C2577.3992,-339.5853 2571.4431,-308.2852 2552,-291 2538.4448,-278.9492 2426.9179,-259.5813 2369.6569,-250.297"/>
<polygon fill="#191970" stroke="#191970" points="2370.0613,-246.8172 2359.6324,-248.6849 2368.9498,-253.7284 2370.0613,-246.8172"/>
</g>
<!-- Node32&#45;&gt;Node20 -->
<g id="edge61" class="edge">
<title>Node32&#45;&gt;Node20</title>
<path fill="none" stroke="#191970" d="M2516.804,-365.0822C2423.5327,-352.6584 2249.4124,-329.4655 2150.5405,-316.2957"/>
<polygon fill="#191970" stroke="#191970" points="2150.7077,-312.7871 2140.3331,-314.936 2149.7834,-319.7258 2150.7077,-312.7871"/>
</g>
<!-- Node32&#45;&gt;Node21 -->
<g id="edge60" class="edge">
<title>Node32&#45;&gt;Node21</title>
<path fill="none" stroke="#191970" d="M2516.8596,-367.3969C2483.5998,-364.3112 2442.1154,-360.666 2405,-358 2368.7605,-355.3969 1776.9741,-348.3889 1752,-322 1691.2017,-257.7575 1682.3053,-315.1747 1994,-255 1995.2833,-254.7522 1996.5867,-254.4918 1997.9014,-254.2217"/>
<polygon fill="#191970" stroke="#191970" points="1999.0338,-257.5571 2008.0585,-252.0068 1997.5424,-250.7178 1999.0338,-257.5571"/>
</g>
<!-- Node32&#45;&gt;Node24 -->
<g id="edge55" class="edge">
<title>Node32&#45;&gt;Node24</title>
<path fill="none" stroke="#191970" d="M2589.5887,-358.4025C2595.3064,-348.4813 2602.0162,-334.9794 2605,-322 2613.7202,-284.0682 2621.9945,-263.0386 2595,-235 2572.0978,-211.2119 2480.8149,-198.3812 2426.0965,-192.6913"/>
<polygon fill="#191970" stroke="#191970" points="2426.2999,-189.1942 2416.0006,-191.6791 2425.6015,-196.1593 2426.2999,-189.1942"/>
</g>
<!-- Node32&#45;&gt;Node29 -->
<g id="edge56" class="edge">
<title>Node32&#45;&gt;Node29</title>
<path fill="none" stroke="#191970" d="M2585.6552,-358.2284C2591.0273,-341.3839 2597.2883,-313.6627 2590,-291 2586.6054,-280.4445 2579.7942,-270.2592 2573.2369,-262.1676"/>
<polygon fill="#191970" stroke="#191970" points="2575.8431,-259.8307 2566.6492,-254.5654 2570.553,-264.4149 2575.8431,-259.8307"/>
</g>
<!-- Node33&#45;&gt;Node9 -->
<g id="edge63" class="edge">
<title>Node33&#45;&gt;Node9</title>
<path fill="none" stroke="#191970" d="M562.1394,-296.9967C595.2185,-262.6002 709.2767,-143.9999 757.3563,-94.0056"/>
<polygon fill="#191970" stroke="#191970" points="760.0748,-96.2282 764.4838,-86.5943 755.0293,-91.376 760.0748,-96.2282"/>
</g>
<!-- Node33&#45;&gt;Node13 -->
<g id="edge64" class="edge">
<title>Node33&#45;&gt;Node13</title>
<path fill="none" stroke="#191970" d="M576.095,-296.9887C649.1764,-267.2219 882.4083,-174.7543 1083,-123 1158.4447,-103.5347 1246.5927,-89.2913 1307.149,-80.7799"/>
<polygon fill="#191970" stroke="#191970" points="1307.9503,-84.2024 1317.374,-79.3604 1306.9876,-77.2689 1307.9503,-84.2024"/>
</g>
<!-- Node33&#45;&gt;Node14 -->
<g id="edge65" class="edge">
<title>Node33&#45;&gt;Node14</title>
<path fill="none" stroke="#191970" d="M551.4864,-296.8804C546.2118,-266.5941 525.8227,-172.2992 470,-123 432.1233,-89.5496 372.7638,-77.8249 336.2376,-73.716"/>
<polygon fill="#191970" stroke="#191970" points="336.4289,-70.2178 326.1309,-72.7082 335.7343,-77.1832 336.4289,-70.2178"/>
</g>
<!-- Node33&#45;&gt;Node15 -->
<g id="edge66" class="edge">
<title>Node33&#45;&gt;Node15</title>
<path fill="none" stroke="#191970" d="M597.4246,-296.9435C608.3674,-294.791 620.0797,-292.6562 631,-291 782.1117,-268.0814 821.4519,-274.8284 973,-255 1349.0271,-205.8011 1440.6828,-177.3496 1816,-123 1939.7157,-105.0848 2086.0344,-86.2534 2158.1779,-77.1243"/>
<polygon fill="#191970" stroke="#191970" points="2158.7898,-80.5749 2168.2722,-75.849 2157.9124,-73.6301 2158.7898,-80.5749"/>
</g>
<!-- Node34&#45;&gt;Node6 -->
<g id="edge69" class="edge">
<title>Node34&#45;&gt;Node6</title>
<path fill="none" stroke="#191970" d="M915.8233,-435.5182C997.0159,-427.7456 1141.6493,-411.2825 1189,-389 1207.802,-380.1521 1204.9647,-366.3342 1224,-358 1370.0834,-294.041 1423.8021,-348.8314 1581,-322 1586.9199,-320.9896 1593.1052,-319.7411 1599.1976,-318.395"/>
<polygon fill="#191970" stroke="#191970" points="1600.3438,-321.7224 1609.2998,-316.0619 1598.7686,-314.902 1600.3438,-321.7224"/>
</g>
<!-- Node34&#45;&gt;Node14 -->
<g id="edge90" class="edge">
<title>Node34&#45;&gt;Node14</title>
<path fill="none" stroke="#191970" d="M802.3186,-432.7424C693.5178,-416.761 461.1007,-377.0003 404,-322 335.766,-256.2759 312.9251,-137.9779 306.3463,-91.2551"/>
<polygon fill="#191970" stroke="#191970" points="309.8021,-90.6887 305.0343,-81.2273 302.8613,-91.5969 309.8021,-90.6887"/>
</g>
<!-- Node34&#45;&gt;Node33 -->
<g id="edge70" class="edge">
<title>Node34&#45;&gt;Node33</title>
<path fill="none" stroke="#191970" d="M802.0854,-436.7342C754.0788,-431.4926 684.9278,-418.9597 632,-389 603.6731,-372.9656 579.1939,-343.5768 565.2736,-324.5504"/>
<polygon fill="#191970" stroke="#191970" points="567.9555,-322.2814 559.3177,-316.1465 562.2444,-326.3291 567.9555,-322.2814"/>
</g>
<!-- Node34&#45;&gt;Node35 -->
<g id="edge71" class="edge">
<title>Node34&#45;&gt;Node35</title>
<path fill="none" stroke="#191970" d="M874.8841,-425.2967C885.7904,-414.8578 900.269,-400.9997 911.5056,-390.2446"/>
<polygon fill="#191970" stroke="#191970" points="914.2131,-392.498 919.0172,-383.055 909.3729,-387.4411 914.2131,-392.498"/>
</g>
<!-- Node40 -->
<g id="node39" class="node">
<title>Node40</title>
<polygon fill="#ffffff" stroke="#bfbfbf" points="640.5,-297 640.5,-316 705.5,-316 705.5,-297 640.5,-297"/>
<text text-anchor="middle" x="673" y="-304" font-family="Helvetica,sans-Serif" font-size="10.00" fill="#000000">functional</text>
</g>
<!-- Node34&#45;&gt;Node40 -->
<g id="edge89" class="edge">
<title>Node34&#45;&gt;Node40</title>
<path fill="none" stroke="#191970" d="M815.092,-425.4767C793.144,-416.7683 766.8839,-404.4525 746,-389 721.2562,-370.6915 698.7713,-342.7953 685.4851,-324.6034"/>
<polygon fill="#191970" stroke="#191970" points="688.0646,-322.1919 679.4125,-316.077 682.3629,-326.2528 688.0646,-322.1919"/>
</g>
<!-- Node35&#45;&gt;Node8 -->
<g id="edge80" class="edge">
<title>Node35&#45;&gt;Node8</title>
<path fill="none" stroke="#191970" d="M940.8191,-363.7627C952.123,-354.0269 969.1546,-338.2083 981,-322 1023.1045,-264.3878 1002.7131,-228.6146 1054,-179 1069.2994,-164.1995 1090.243,-153.4913 1108.8421,-146.1513"/>
<polygon fill="#191970" stroke="#191970" points="1110.1677,-149.3925 1118.3122,-142.6162 1107.7196,-142.8345 1110.1677,-149.3925"/>
</g>
<!-- Node35&#45;&gt;Node9 -->
<g id="edge72" class="edge">
<title>Node35&#45;&gt;Node9</title>
<path fill="none" stroke="#191970" d="M887.8114,-363.9376C864.6404,-356.4072 837.1936,-343.4804 821,-322 769.5446,-253.7458 771.932,-145.2343 776.1251,-96.5624"/>
<polygon fill="#191970" stroke="#191970" points="779.6107,-96.8787 777.0849,-86.5894 772.6429,-96.208 779.6107,-96.8787"/>
</g>
<!-- Node35&#45;&gt;Node16 -->
<g id="edge87" class="edge">
<title>Node35&#45;&gt;Node16</title>
<path fill="none" stroke="#191970" d="M988.8187,-363.9684C1005.0621,-361.6817 1022.6737,-359.4768 1039,-358 1137.5674,-349.0843 1837.7388,-360.2937 1929,-322 1947.5557,-314.2139 1943.8729,-299.7376 1962,-291 2062.3303,-242.6393 2102.433,-283.8837 2210,-255 2233.1152,-248.7931 2237.0144,-241.6708 2260,-235 2343.7995,-210.6799 2375.278,-238.6625 2453,-199 2485.2026,-182.5666 2490.9365,-172.3835 2512,-143 2523.5372,-126.9057 2532.5831,-106.1346 2538.2635,-91.1312"/>
<polygon fill="#191970" stroke="#191970" points="2541.6822,-91.9693 2541.7924,-81.375 2535.0996,-89.5882 2541.6822,-91.9693"/>
</g>
<!-- Node35&#45;&gt;Node17 -->
<g id="edge85" class="edge">
<title>Node35&#45;&gt;Node17</title>
<path fill="none" stroke="#191970" d="M889.2697,-363.9314C867.4055,-356.4166 842.1158,-343.5076 829,-322 821.8266,-310.2369 823.6915,-303.714 829,-291 869.6108,-193.7366 976.6271,-117.581 1025.7266,-86.5902"/>
<polygon fill="#191970" stroke="#191970" points="1027.8136,-89.4143 1034.4649,-81.1675 1024.1225,-83.4665 1027.8136,-89.4143"/>
</g>
<!-- Node35&#45;&gt;Node18 -->
<g id="edge88" class="edge">
<title>Node35&#45;&gt;Node18</title>
<path fill="none" stroke="#191970" d="M988.5308,-363.9929C1004.8534,-361.6918 1022.5765,-359.4736 1039,-358 1141.2229,-348.828 1864.9647,-355.4333 1962,-322 1984.2747,-314.3253 1983.1328,-299.7686 2005,-291 2011.8908,-288.2368 2219.4818,-260.4698 2302.3342,-249.4615"/>
<polygon fill="#191970" stroke="#191970" points="2302.8026,-252.9301 2312.2549,-248.1442 2301.8812,-245.991 2302.8026,-252.9301"/>
</g>
<!-- Node35&#45;&gt;Node20 -->
<g id="edge73" class="edge">
<title>Node35&#45;&gt;Node20</title>
<path fill="none" stroke="#191970" d="M988.5293,-363.9761C1004.8519,-361.675 1022.5754,-359.4609 1039,-358 1464.7298,-320.1318 1575.5637,-372.3361 2000,-322 2001.1172,-321.8675 2002.2423,-321.7275 2003.3737,-321.5805"/>
<polygon fill="#191970" stroke="#191970" points="2004.2862,-324.9849 2013.6811,-320.0873 2003.2826,-318.0572 2004.2862,-324.9849"/>
</g>
<!-- Node35&#45;&gt;Node26 -->
<g id="edge78" class="edge">
<title>Node35&#45;&gt;Node26</title>
<path fill="none" stroke="#191970" d="M991.7794,-364.3131C1007.2077,-362.1494 1023.6908,-359.9169 1039,-358 1179.1343,-340.4536 1343.1977,-323.2305 1435.7302,-313.8216"/>
<polygon fill="#191970" stroke="#191970" points="1436.2344,-317.2885 1445.83,-312.7968 1435.5277,-310.3242 1436.2344,-317.2885"/>
</g>
<!-- Node35&#45;&gt;Node33 -->
<g id="edge79" class="edge">
<title>Node35&#45;&gt;Node33</title>
<path fill="none" stroke="#191970" d="M871.2384,-363.958C811.147,-353.928 714.3665,-337.4844 631,-322 624.251,-320.7465 617.1815,-319.3952 610.1704,-318.0314"/>
<polygon fill="#191970" stroke="#191970" points="610.471,-314.5238 599.9844,-316.0343 609.1241,-321.393 610.471,-314.5238"/>
</g>
<!-- Node36 -->
<g id="node36" class="node">
<title>Node36</title>
<g id="a_node36"><a xlink:href="shape__tuple_8h.html" target="_top" xlink:title="Runtime ShapeTuple container types. ">
<polygon fill="#ffffff" stroke="#000000" points="1794,-291.5 1794,-321.5 1920,-321.5 1920,-291.5 1794,-291.5"/>
<text text-anchor="start" x="1802" y="-309.5" font-family="Helvetica,sans-Serif" font-size="10.00" fill="#000000">tvm/runtime/container</text>
<text text-anchor="middle" x="1857" y="-298.5" font-family="Helvetica,sans-Serif" font-size="10.00" fill="#000000">/shape_tuple.h</text>
</a>
</g>
</g>
<!-- Node35&#45;&gt;Node36 -->
<g id="edge74" class="edge">
<title>Node35&#45;&gt;Node36</title>
<path fill="none" stroke="#191970" d="M989.6935,-363.9921C1005.6967,-361.7472 1022.9717,-359.5569 1039,-358 1335.8103,-329.1686 1411.7231,-345.5382 1709,-322 1733.3379,-320.0729 1759.8747,-317.4565 1783.6707,-314.9222"/>
<polygon fill="#191970" stroke="#191970" points="1784.1192,-318.3942 1793.6868,-313.8434 1783.3695,-311.4345 1784.1192,-318.3942"/>
</g>
<!-- Node37 -->
<g id="node37" class="node">
<title>Node37</title>
<g id="a_node37"><a xlink:href="serializer_8h.html" target="_top" xlink:title="Serializer extension to support TVM data types Include this file to enable serialization of DLDataTyp...">
<polygon fill="#ffffff" stroke="#ff0000" points="838,-297 838,-316 972,-316 972,-297 838,-297"/>
<text text-anchor="middle" x="905" y="-304" font-family="Helvetica,sans-Serif" font-size="10.00" fill="#000000">tvm/runtime/serializer.h</text>
</a>
</g>
</g>
<!-- Node35&#45;&gt;Node37 -->
<g id="edge81" class="edge">
<title>Node35&#45;&gt;Node37</title>
<path fill="none" stroke="#191970" d="M920.6608,-363.9005C915.224,-354.0495 909.2027,-338.4451 905.7865,-325.9912"/>
<polygon fill="#191970" stroke="#191970" points="909.1637,-325.0577 903.5351,-316.0817 902.3376,-326.6086 909.1637,-325.0577"/>
</g>
<!-- Node35&#45;&gt;Node40 -->
<g id="edge86" class="edge">
<title>Node35&#45;&gt;Node40</title>
<path fill="none" stroke="#191970" d="M892.5933,-363.9717C845.8432,-351.7363 764.8611,-330.5418 715.3878,-317.5937"/>
<polygon fill="#191970" stroke="#191970" points="716.1931,-314.1866 705.6328,-315.0406 714.4207,-320.9585 716.1931,-314.1866"/>
</g>
<!-- Node36&#45;&gt;Node16 -->
<g id="edge75" class="edge">
<title>Node36&#45;&gt;Node16</title>
<path fill="none" stroke="#191970" d="M1920.41,-293.5231C1925.005,-292.648 1929.5714,-291.7981 1934,-291 2034.0983,-272.9605 2060.6192,-276.6457 2160,-255 2192.4508,-247.932 2199.6455,-242.4964 2232,-235 2317.0054,-215.3046 2348.4267,-240.8372 2425,-199 2474.1309,-172.1564 2514.6805,-117.9428 2533.5657,-89.6365"/>
<polygon fill="#191970" stroke="#191970" points="2536.5961,-91.3967 2539.1209,-81.1071 2530.7305,-87.5765 2536.5961,-91.3967"/>
</g>
<!-- Node36&#45;&gt;Node18 -->
<g id="edge76" class="edge">
<title>Node36&#45;&gt;Node18</title>
<path fill="none" stroke="#191970" d="M1920.2563,-297.8786C1937.0702,-295.6131 1955.22,-293.1911 1972,-291 2093.4552,-275.1409 2237.8272,-257.1524 2302.1595,-249.1817"/>
<polygon fill="#191970" stroke="#191970" points="2302.6476,-252.6481 2312.1417,-247.9458 2301.7874,-245.7012 2302.6476,-252.6481"/>
</g>
<!-- Node36&#45;&gt;Node21 -->
<g id="edge77" class="edge">
<title>Node36&#45;&gt;Node21</title>
<path fill="none" stroke="#191970" d="M1900.7883,-291.4554C1930.7859,-281.149 1970.1487,-267.6249 1998.6616,-257.8286"/>
<polygon fill="#191970" stroke="#191970" points="1999.9413,-261.0898 2008.2614,-254.5303 1997.6667,-254.4696 1999.9413,-261.0898"/>
</g>
<!-- Node37&#45;&gt;Node9 -->
<g id="edge83" class="edge">
<title>Node37&#45;&gt;Node9</title>
<path fill="none" stroke="#191970" d="M900.4939,-296.768C887.5927,-269.0994 849.0557,-187.7982 812,-123 806.679,-113.6954 800.4238,-103.7218 794.7982,-95.0534"/>
<polygon fill="#191970" stroke="#191970" points="797.6448,-93.0118 789.2293,-86.5751 791.794,-96.8548 797.6448,-93.0118"/>
</g>
<!-- Node37&#45;&gt;Node35 -->
<g id="edge84" class="edge">
<title>Node37&#45;&gt;Node35</title>
<path fill="none" stroke="#191970" d="M913.3294,-316.0817C918.7655,-325.9258 924.788,-341.5286 928.2073,-353.9863"/>
<polygon fill="#191970" stroke="#191970" points="924.8315,-354.9257 930.462,-363.9005 931.6572,-353.3733 924.8315,-354.9257"/>
</g>
<!-- Node38 -->
<g id="node38" class="node">
<title>Node38</title>
<polygon fill="#ffffff" stroke="#bfbfbf" points="902,-235.5 902,-254.5 964,-254.5 964,-235.5 902,-235.5"/>
<text text-anchor="middle" x="933" y="-242.5" font-family="Helvetica,sans-Serif" font-size="10.00" fill="#000000">dmlc/io.h</text>
</g>
<!-- Node37&#45;&gt;Node38 -->
<g id="edge82" class="edge">
<title>Node37&#45;&gt;Node38</title>
<path fill="none" stroke="#191970" d="M909.375,-296.8906C913.3788,-288.0965 919.4183,-274.8312 924.3885,-263.9145"/>
<polygon fill="#191970" stroke="#191970" points="927.6051,-265.2963 928.5633,-254.7449 921.2343,-262.3957 927.6051,-265.2963"/>
</g>
<!-- Node41&#45;&gt;Node8 -->
<g id="edge120" class="edge">
<title>Node41&#45;&gt;Node8</title>
<path fill="none" stroke="#191970" d="M2160.9469,-436.9053C1992.8131,-425.7988 1508.4252,-388.6964 1366,-322 1365.2658,-321.6562 1222.6251,-195.4855 1170.6588,-149.5094"/>
<polygon fill="#191970" stroke="#191970" points="1172.6717,-146.6171 1162.863,-142.612 1168.0333,-151.8597 1172.6717,-146.6171"/>
</g>
<!-- Node41&#45;&gt;Node9 -->
<g id="edge97" class="edge">
<title>Node41&#45;&gt;Node9</title>
<path fill="none" stroke="#191970" d="M2160.7485,-439.6027C1908.0099,-435.5428 916.4072,-417.8313 857,-389 751.5497,-337.8233 765.4695,-162.6153 774.7941,-96.7775"/>
<polygon fill="#191970" stroke="#191970" points="778.2626,-97.2481 776.2872,-86.8391 771.3402,-96.208 778.2626,-97.2481"/>
</g>
<!-- Node41&#45;&gt;Node13 -->
<g id="edge106" class="edge">
<title>Node41&#45;&gt;Node13</title>
<path fill="none" stroke="#191970" d="M2160.7969,-433.1264C1975.0993,-409.4741 1408.0897,-336.2242 1395,-322 1335.0496,-256.8537 1360.8232,-137.293 1374.0024,-90.7529"/>
<polygon fill="#191970" stroke="#191970" points="1377.3972,-91.6154 1376.8786,-81.0333 1370.6849,-89.6291 1377.3972,-91.6154"/>
</g>
<!-- Node41&#45;&gt;Node14 -->
<g id="edge124" class="edge">
<title>Node41&#45;&gt;Node14</title>
<path fill="none" stroke="#191970" d="M2160.7812,-439.5053C1898.1792,-434.889 830.3622,-414.6855 683,-389 677.02,-387.9577 479.1401,-326.4392 475,-322 450.959,-296.2221 456,-280.2487 456,-245 456,-245 456,-245 456,-189 456,-128.8142 380.4821,-95.0962 335.9054,-80.4359"/>
<polygon fill="#191970" stroke="#191970" points="336.6915,-77.0142 326.1021,-77.3534 334.5918,-83.6918 336.6915,-77.0142"/>
</g>
<!-- Node41&#45;&gt;Node15 -->
<g id="edge126" class="edge">
<title>Node41&#45;&gt;Node15</title>
<path fill="none" stroke="#191970" d="M2277.1031,-439.8213C2419.562,-437.5561 2777.2322,-428.0031 2813,-389 2859.3191,-338.4913 2770.4484,-320.1949 2732,-291 2662.5787,-238.2866 2651.064,-213.4641 2571,-179 2498.8634,-147.9483 2472.9409,-166.4896 2398,-143 2376.3377,-136.2101 2372.1767,-131.1795 2351,-123 2314.4046,-108.8651 2272.0782,-94.314 2242.0882,-84.3002"/>
<polygon fill="#191970" stroke="#191970" points="2243.0102,-80.9184 2232.4167,-81.0853 2240.8021,-87.5611 2243.0102,-80.9184"/>
</g>
<!-- Node41&#45;&gt;Node16 -->
<g id="edge127" class="edge">
<title>Node41&#45;&gt;Node16</title>
<path fill="none" stroke="#191970" d="M2277.3392,-438.2449C2480.6981,-429.6199 3146,-394.6652 3146,-306.5 3146,-306.5 3146,-306.5 3146,-189 3146,-130.6328 2703.7604,-85.9405 2577.9971,-74.411"/>
<polygon fill="#191970" stroke="#191970" points="2578.1015,-70.9062 2567.826,-73.4879 2577.4687,-77.8775 2578.1015,-70.9062"/>
</g>
<!-- Node41&#45;&gt;Node18 -->
<g id="edge128" class="edge">
<title>Node41&#45;&gt;Node18</title>
<path fill="none" stroke="#191970" d="M2227.5599,-425.2041C2238.3947,-407.0418 2258.6165,-376.8443 2283,-358 2315.1384,-333.1625 2344.6405,-355.9091 2367,-322 2379.43,-303.1494 2365.031,-278.5286 2351.9885,-262.2628"/>
<polygon fill="#191970" stroke="#191970" points="2354.5957,-259.9263 2345.441,-254.5933 2349.2719,-264.4713 2354.5957,-259.9263"/>
</g>
<!-- Node41&#45;&gt;Node29 -->
<g id="edge123" class="edge">
<title>Node41&#45;&gt;Node29</title>
<path fill="none" stroke="#191970" d="M2277.233,-439.6588C2416.8058,-437.0404 2761.4447,-426.7769 2796,-389 2805.2992,-378.8338 2803.3718,-369.6397 2796,-358 2773.2029,-322.0047 2657.7619,-278.7839 2596.048,-257.7514"/>
<polygon fill="#191970" stroke="#191970" points="2596.8601,-254.3316 2586.2659,-254.4501 2594.6217,-260.964 2596.8601,-254.3316"/>
</g>
<!-- Node41&#45;&gt;Node32 -->
<g id="edge98" class="edge">
<title>Node41&#45;&gt;Node32</title>
<path fill="none" stroke="#191970" d="M2277.0009,-429.7353C2339.4666,-418.1419 2438.9931,-399.6703 2506.802,-387.0852"/>
<polygon fill="#191970" stroke="#191970" points="2507.7914,-390.4615 2516.9848,-385.1953 2506.514,-383.579 2507.7914,-390.4615"/>
</g>
<!-- Node41&#45;&gt;Node33 -->
<g id="edge105" class="edge">
<title>Node41&#45;&gt;Node33</title>
<path fill="none" stroke="#191970" d="M2160.9757,-440.2163C1904.1013,-438.7262 875.884,-430.2159 738,-389 712.5856,-381.4032 710.8088,-369.6938 687,-358 655.9193,-342.7346 619.1054,-328.8697 591.9362,-319.3815"/>
<polygon fill="#191970" stroke="#191970" points="592.9861,-316.0414 582.3914,-316.0894 590.7037,-322.6588 592.9861,-316.0414"/>
</g>
<!-- Node41&#45;&gt;Node35 -->
<g id="edge119" class="edge">
<title>Node41&#45;&gt;Node35</title>
<path fill="none" stroke="#191970" d="M2160.8514,-439.944C1988.9936,-437.8751 1468.5703,-428.5465 1039,-389 1026.0684,-387.8095 1012.3292,-386.1729 999.1019,-384.4073"/>
<polygon fill="#191970" stroke="#191970" points="999.4914,-380.928 989.1087,-383.0371 998.5405,-387.8631 999.4914,-380.928"/>
</g>
<!-- Node41&#45;&gt;Node40 -->
<g id="edge121" class="edge">
<title>Node41&#45;&gt;Node40</title>
<path fill="none" stroke="#191970" d="M2160.8639,-439.3792C1900.3091,-434.233 849.9004,-412.1275 784,-389 773.6898,-385.3817 721.9197,-345.1966 692.8635,-322.2764"/>
<polygon fill="#191970" stroke="#191970" points="694.9993,-319.5033 684.9846,-316.0454 690.6571,-324.9938 694.9993,-319.5033"/>
</g>
<!-- Node42 -->
<g id="node41" class="node">
<title>Node42</title>
<g id="a_node41"><a xlink:href="map_8h.html" target="_top" xlink:title="Runtime Map container types. ">
<polygon fill="#ffffff" stroke="#000000" points="2661,-358.5 2661,-388.5 2787,-388.5 2787,-358.5 2661,-358.5"/>
<text text-anchor="start" x="2669" y="-376.5" font-family="Helvetica,sans-Serif" font-size="10.00" fill="#000000">tvm/runtime/container</text>
<text text-anchor="middle" x="2724" y="-365.5" font-family="Helvetica,sans-Serif" font-size="10.00" fill="#000000">/map.h</text>
</a>
</g>
</g>
<!-- Node41&#45;&gt;Node42 -->
<g id="edge99" class="edge">
<title>Node41&#45;&gt;Node42</title>
<path fill="none" stroke="#191970" d="M2277.0262,-435.3412C2358.3859,-427.7224 2511.1489,-412.0135 2650.8159,-389.1069"/>
<polygon fill="#191970" stroke="#191970" points="2651.5545,-392.5323 2660.8481,-387.4452 2650.4105,-385.6264 2651.5545,-392.5323"/>
</g>
<!-- Node43 -->
<g id="node42" class="node">
<title>Node43</title>
<g id="a_node42"><a xlink:href="runtime_2module_8h.html" target="_top" xlink:title="Runtime container of the functions generated by TVM, This is used to support dynamically link...">
<polygon fill="#ffffff" stroke="#000000" points="2110,-364 2110,-383 2236,-383 2236,-364 2110,-364"/>
<text text-anchor="middle" x="2173" y="-371" font-family="Helvetica,sans-Serif" font-size="10.00" fill="#000000">tvm/runtime/module.h</text>
</a>
</g>
</g>
<!-- Node41&#45;&gt;Node43 -->
<g id="edge107" class="edge">
<title>Node41&#45;&gt;Node43</title>
<path fill="none" stroke="#191970" d="M2202.8011,-425.2967C2194.7851,-415.3645 2185.7301,-402.3371 2179.4932,-391.8321"/>
<polygon fill="#191970" stroke="#191970" points="2182.5527,-390.1321 2174.6682,-383.055 2176.4184,-393.5043 2182.5527,-390.1321"/>
</g>
<!-- Node45 -->
<g id="node44" class="node">
<title>Node45</title>
<polygon fill="#ffffff" stroke="#bfbfbf" points="2292,-364 2292,-383 2336,-383 2336,-364 2292,-364"/>
<text text-anchor="middle" x="2314" y="-371" font-family="Helvetica,sans-Serif" font-size="10.00" fill="#000000">limits</text>
</g>
<!-- Node41&#45;&gt;Node45 -->
<g id="edge122" class="edge">
<title>Node41&#45;&gt;Node45</title>
<path fill="none" stroke="#191970" d="M2240.557,-425.2967C2255.9332,-414.4524 2276.5414,-399.9182 2292.0138,-389.006"/>
<polygon fill="#191970" stroke="#191970" points="2294.297,-391.6787 2300.4519,-383.055 2290.2626,-385.9582 2294.297,-391.6787"/>
</g>
<!-- Node46 -->
<g id="node45" class="node">
<title>Node46</title>
<polygon fill="#ffffff" stroke="#bfbfbf" points="2354.5,-364 2354.5,-383 2395.5,-383 2395.5,-364 2354.5,-364"/>
<text text-anchor="middle" x="2375" y="-371" font-family="Helvetica,sans-Serif" font-size="10.00" fill="#000000">tuple</text>
</g>
<!-- Node41&#45;&gt;Node46 -->
<g id="edge125" class="edge">
<title>Node41&#45;&gt;Node46</title>
<path fill="none" stroke="#191970" d="M2258.2655,-425.4911C2283.3216,-415.6589 2316.356,-402.2218 2345,-389 2345.9847,-388.5455 2346.9838,-388.0757 2347.99,-387.5952"/>
<polygon fill="#191970" stroke="#191970" points="2349.6388,-390.6843 2357.0434,-383.1065 2346.5294,-384.4129 2349.6388,-390.6843"/>
</g>
<!-- Node42&#45;&gt;Node16 -->
<g id="edge102" class="edge">
<title>Node42&#45;&gt;Node16</title>
<path fill="none" stroke="#191970" d="M2787.2544,-359.5654C2843.8674,-342.9258 2918,-308.9313 2918,-245 2918,-245 2918,-245 2918,-189 2918,-140.8193 2876.0703,-142.4728 2832,-123 2786.7128,-102.9895 2643.0678,-83.4907 2577.8171,-75.4048"/>
<polygon fill="#191970" stroke="#191970" points="2578.0305,-71.9049 2567.679,-74.1624 2577.1789,-78.8529 2578.0305,-71.9049"/>
</g>
<!-- Node42&#45;&gt;Node20 -->
<g id="edge104" class="edge">
<title>Node42&#45;&gt;Node20</title>
<path fill="none" stroke="#191970" d="M2660.8648,-359.45C2657.8738,-358.9287 2654.9075,-358.4415 2652,-358 2557.2364,-343.6116 2283.1027,-321.9754 2150.5253,-311.9534"/>
<polygon fill="#191970" stroke="#191970" points="2150.6924,-308.4562 2140.4574,-311.1941 2150.1659,-315.4363 2150.6924,-308.4562"/>
</g>
<!-- Node42&#45;&gt;Node21 -->
<g id="edge103" class="edge">
<title>Node42&#45;&gt;Node21</title>
<path fill="none" stroke="#191970" d="M2660.889,-359.2769C2657.8915,-358.8019 2654.9173,-358.3718 2652,-358 2604.1787,-351.905 1818.3737,-356.7882 1785,-322 1730.0883,-264.7609 1764.4592,-302.0464 1994,-255 1995.4686,-254.699 1996.964,-254.384 1998.4732,-254.059"/>
<polygon fill="#191970" stroke="#191970" points="1999.501,-257.4155 2008.4928,-251.8121 1997.9692,-250.5852 1999.501,-257.4155"/>
</g>
<!-- Node42&#45;&gt;Node24 -->
<g id="edge100" class="edge">
<title>Node42&#45;&gt;Node24</title>
<path fill="none" stroke="#191970" d="M2716.5908,-358.0757C2701.728,-328.9198 2665.3369,-265.8823 2615,-235 2583.9922,-215.9763 2484.5006,-201.1758 2426.6993,-193.9176"/>
<polygon fill="#191970" stroke="#191970" points="2426.7706,-190.4 2416.4176,-192.6508 2425.9145,-197.3475 2426.7706,-190.4"/>
</g>
<!-- Node42&#45;&gt;Node31 -->
<g id="edge101" class="edge">
<title>Node42&#45;&gt;Node31</title>
<path fill="none" stroke="#191970" d="M2698.8978,-358.4249C2669.6564,-341.1421 2619.6464,-312.4397 2575,-291 2549.7453,-278.8724 2520.4301,-266.9046 2498.1273,-258.2173"/>
<polygon fill="#191970" stroke="#191970" points="2499.3122,-254.923 2488.7227,-254.5862 2496.7909,-261.4532 2499.3122,-254.923"/>
</g>
<!-- Node43&#45;&gt;Node8 -->
<g id="edge112" class="edge">
<title>Node43&#45;&gt;Node8</title>
<path fill="none" stroke="#191970" d="M2109.7669,-370.426C1936.8034,-361.8382 1466.7314,-337.2263 1437,-322 1363.4062,-284.3106 1387.453,-223.8645 1318,-179 1289.2128,-160.4044 1252.9342,-149.2395 1221.6398,-142.5789"/>
<polygon fill="#191970" stroke="#191970" points="1222.1645,-139.1144 1211.6703,-140.571 1220.7824,-145.9766 1222.1645,-139.1144"/>
</g>
<!-- Node43&#45;&gt;Node9 -->
<g id="edge109" class="edge">
<title>Node43&#45;&gt;Node9</title>
<path fill="none" stroke="#191970" d="M2109.9435,-371.9196C1949.8065,-367.4908 1530.5455,-353.1893 1395,-322 1277.242,-294.9037 940.1878,-144.6282 821.2109,-90.7382"/>
<polygon fill="#191970" stroke="#191970" points="822.5861,-87.5188 812.0333,-86.5764 819.6951,-93.8939 822.5861,-87.5188"/>
</g>
<!-- Node43&#45;&gt;Node14 -->
<g id="edge115" class="edge">
<title>Node43&#45;&gt;Node14</title>
<path fill="none" stroke="#191970" d="M2109.9503,-371.6376C1936.4223,-366.2175 1454.3085,-349.0976 1298,-322 1249.6369,-313.6158 1239.3325,-303.9968 1192,-291 902.6078,-211.537 829.9222,-192.5962 538,-123 466.1126,-105.8616 381.3041,-87.7074 336.1312,-78.2016"/>
<polygon fill="#191970" stroke="#191970" points="336.827,-74.7715 326.3213,-76.1422 335.3888,-81.6221 336.827,-74.7715"/>
</g>
<!-- Node43&#45;&gt;Node18 -->
<g id="edge117" class="edge">
<title>Node43&#45;&gt;Node18</title>
<path fill="none" stroke="#191970" d="M2183.1966,-363.9193C2200.2279,-348.0851 2235.7765,-315.7478 2268,-291 2282.236,-280.0667 2298.9219,-268.7581 2312.2021,-260.0895"/>
<polygon fill="#191970" stroke="#191970" points="2314.2803,-262.9138 2320.78,-254.5469 2310.4813,-257.0343 2314.2803,-262.9138"/>
</g>
<!-- Node43&#45;&gt;Node22 -->
<g id="edge111" class="edge">
<title>Node43&#45;&gt;Node22</title>
<path fill="none" stroke="#191970" d="M2191.8109,-363.9033C2210.404,-354.1505 2239.4086,-338.2098 2263,-322 2280.9641,-309.6568 2282.8357,-303.0465 2301,-291 2329.4985,-272.0998 2351.3614,-284.2961 2369,-255 2373.5849,-247.3848 2374.663,-241.8515 2369,-235 2348.2935,-209.9478 2266.4001,-198.4057 2203.98,-193.1759"/>
<polygon fill="#191970" stroke="#191970" points="2203.9969,-189.6662 2193.7502,-192.3599 2203.4402,-196.6441 2203.9969,-189.6662"/>
</g>
<!-- Node43&#45;&gt;Node26 -->
<g id="edge110" class="edge">
<title>Node43&#45;&gt;Node26</title>
<path fill="none" stroke="#191970" d="M2109.7269,-370.5309C2003.0521,-364.9672 1780.5444,-350.9651 1582.2438,-321.9029"/>
<polygon fill="#191970" stroke="#191970" points="1582.6271,-318.4216 1572.2221,-320.4182 1581.6011,-325.346 1582.6271,-318.4216"/>
</g>
<!-- Node43&#45;&gt;Node29 -->
<g id="edge113" class="edge">
<title>Node43&#45;&gt;Node29</title>
<path fill="none" stroke="#191970" d="M2234.1851,-363.9856C2281.1962,-355.6803 2347.2952,-341.828 2403,-322 2450.5185,-305.0859 2502.3014,-277.0159 2532.0822,-259.8449"/>
<polygon fill="#191970" stroke="#191970" points="2534.0667,-262.7394 2540.9449,-254.6808 2530.5426,-256.6912 2534.0667,-262.7394"/>
</g>
<!-- Node43&#45;&gt;Node31 -->
<g id="edge116" class="edge">
<title>Node43&#45;&gt;Node31</title>
<path fill="none" stroke="#191970" d="M2234.3472,-363.9901C2273.7386,-356.2749 2325.165,-343.1322 2367,-322 2398.0909,-306.295 2428.5163,-279.3646 2446.5143,-261.8757"/>
<polygon fill="#191970" stroke="#191970" points="2449.2344,-264.1074 2453.867,-254.579 2444.3036,-259.1387 2449.2344,-264.1074"/>
</g>
<!-- Node43&#45;&gt;Node38 -->
<g id="edge108" class="edge">
<title>Node43&#45;&gt;Node38</title>
<path fill="none" stroke="#191970" d="M2109.9488,-371.4629C1930.315,-365.4225 1418.1572,-346.4929 1252,-322 1150.766,-307.0773 1034.5584,-275.1915 974.2197,-257.4908"/>
<polygon fill="#191970" stroke="#191970" points="974.9042,-254.0436 964.3223,-254.5672 972.9211,-260.7568 974.9042,-254.0436"/>
</g>
<!-- Node43&#45;&gt;Node41 -->
<g id="edge118" class="edge">
<title>Node43&#45;&gt;Node41</title>
<path fill="none" stroke="#191970" d="M2184.4521,-383.055C2192.1105,-391.7473 2201.7089,-404.9456 2209.0252,-416.5001"/>
<polygon fill="#191970" stroke="#191970" points="2206.1654,-418.5358 2214.3227,-425.2967 2212.162,-414.9245 2206.1654,-418.5358"/>
</g>
<!-- Node44 -->
<g id="node43" class="node">
<title>Node44</title>
<polygon fill="#ffffff" stroke="#bfbfbf" points="2310,-297 2310,-316 2358,-316 2358,-297 2310,-297"/>
<text text-anchor="middle" x="2334" y="-304" font-family="Helvetica,sans-Serif" font-size="10.00" fill="#000000">mutex</text>
</g>
<!-- Node43&#45;&gt;Node44 -->
<g id="edge114" class="edge">
<title>Node43&#45;&gt;Node44</title>
<path fill="none" stroke="#191970" d="M2196.0674,-363.9005C2223.6846,-352.4077 2270.1196,-333.0838 2301.3963,-320.068"/>
<polygon fill="#191970" stroke="#191970" points="2303.0877,-323.1552 2310.9754,-316.0817 2300.3982,-316.6924 2303.0877,-323.1552"/>
</g>
<!-- Node47&#45;&gt;Node6 -->
<g id="edge133" class="edge">
<title>Node47&#45;&gt;Node6</title>
<path fill="none" stroke="#191970" d="M869.776,-605.005C959.8634,-591.4111 1125.7546,-561.7926 1260,-512 1405.3108,-458.1031 1564.2154,-359.1311 1622.2115,-321.5306"/>
<polygon fill="#191970" stroke="#191970" points="1624.1696,-324.4322 1630.6356,-316.0392 1620.3469,-318.5681 1624.1696,-324.4322"/>
</g>
<!-- Node47&#45;&gt;Node14 -->
<g id="edge142" class="edge">
<title>Node47&#45;&gt;Node14</title>
<path fill="none" stroke="#191970" d="M738.4444,-606.3469C610.7078,-590.729 333.4254,-553.1662 247,-512 148.7801,-465.2158 114,-415.2929 114,-306.5 114,-306.5 114,-306.5 114,-189 114,-115.7342 217.4585,-86.6153 271.6884,-76.3846"/>
<polygon fill="#191970" stroke="#191970" points="272.5989,-79.7778 281.8327,-74.5828 271.3747,-72.8856 272.5989,-79.7778"/>
</g>
<!-- Node48 -->
<g id="node47" class="node">
<title>Node48</title>
<g id="a_node47"><a xlink:href="script__printer_8h.html" target="_top" xlink:title="tvm/node/script_printer.h">
<polygon fill="#ffffff" stroke="#000000" points="734.5,-548.5 734.5,-567.5 873.5,-567.5 873.5,-548.5 734.5,-548.5"/>
<text text-anchor="middle" x="804" y="-555.5" font-family="Helvetica,sans-Serif" font-size="10.00" fill="#000000">tvm/node/script_printer.h</text>
</a>
</g>
</g>
<!-- Node47&#45;&gt;Node48 -->
<g id="edge134" class="edge">
<title>Node47&#45;&gt;Node48</title>
<path fill="none" stroke="#191970" d="M804,-604.2455C804,-596.9382 804,-586.6944 804,-577.7046"/>
<polygon fill="#191970" stroke="#191970" points="807.5001,-577.6426 804,-567.6427 800.5001,-577.6427 807.5001,-577.6426"/>
</g>
<!-- Node49 -->
<g id="node48" class="node">
<title>Node49</title>
<polygon fill="#ffffff" stroke="#bfbfbf" points="256,-492.5 256,-511.5 316,-511.5 316,-492.5 256,-492.5"/>
<text text-anchor="middle" x="286" y="-499.5" font-family="Helvetica,sans-Serif" font-size="10.00" fill="#000000">iostream</text>
</g>
<!-- Node47&#45;&gt;Node49 -->
<g id="edge141" class="edge">
<title>Node47&#45;&gt;Node49</title>
<path fill="none" stroke="#191970" d="M758.8669,-604.4687C674.5483,-586.6218 487.3906,-546.8185 330,-512 328.7523,-511.724 327.4849,-511.4425 326.2055,-511.1575"/>
<polygon fill="#191970" stroke="#191970" points="326.8101,-507.7062 316.2863,-508.9314 325.2772,-514.5363 326.8101,-507.7062"/>
</g>
<!-- Node48&#45;&gt;Node4 -->
<g id="edge137" class="edge">
<title>Node48&#45;&gt;Node4</title>
<path fill="none" stroke="#191970" d="M864.2818,-548.4369C925.9642,-538.6516 1021.7365,-523.4582 1086.7984,-513.1368"/>
<polygon fill="#191970" stroke="#191970" points="1087.6388,-516.5473 1096.9669,-511.5237 1086.542,-509.6338 1087.6388,-516.5473"/>
</g>
<!-- Node48&#45;&gt;Node6 -->
<g id="edge135" class="edge">
<title>Node48&#45;&gt;Node6</title>
<path fill="none" stroke="#191970" d="M873.8317,-555.0402C976.807,-549.8927 1163.9016,-537.3281 1226,-512 1328.5792,-470.161 1321.973,-405.6191 1422,-358 1487.4203,-326.8558 1510.4549,-338.5278 1581,-322 1585.9515,-320.8399 1591.1147,-319.615 1596.2665,-318.3828"/>
<polygon fill="#191970" stroke="#191970" points="1597.1956,-321.7592 1606.1009,-316.0193 1595.5598,-314.953 1597.1956,-321.7592"/>
</g>
<!-- Node48&#45;&gt;Node14 -->
<g id="edge140" class="edge">
<title>Node48&#45;&gt;Node14</title>
<path fill="none" stroke="#191970" d="M734.2864,-553.502C635.2972,-544.9787 450.1387,-521.0544 307,-456 219.8662,-416.399 152,-402.2107 152,-306.5 152,-306.5 152,-306.5 152,-189 152,-128.8142 227.5179,-95.0962 272.0946,-80.4359"/>
<polygon fill="#191970" stroke="#191970" points="273.4082,-83.6918 281.8979,-77.3534 271.3085,-77.0142 273.4082,-83.6918"/>
</g>
<!-- Node48&#45;&gt;Node19 -->
<g id="edge136" class="edge">
<title>Node48&#45;&gt;Node19</title>
<path fill="none" stroke="#191970" d="M820.2305,-548.3402C871.1841,-518.0146 1028.1962,-424.5671 1089.3047,-388.1977"/>
<polygon fill="#191970" stroke="#191970" points="1091.127,-391.1862 1097.9302,-383.0641 1087.5469,-385.1709 1091.127,-391.1862"/>
</g>
<!-- Node48&#45;&gt;Node33 -->
<g id="edge138" class="edge">
<title>Node48&#45;&gt;Node33</title>
<path fill="none" stroke="#191970" d="M780.0876,-548.4928C731.1434,-527.6869 619.7244,-473.149 567,-389 555.1113,-370.0255 552.4634,-343.9939 552.2386,-326.2808"/>
<polygon fill="#191970" stroke="#191970" points="555.7389,-326.2734 552.3593,-316.2321 548.7394,-326.1893 555.7389,-326.2734"/>
</g>
<!-- Node48&#45;&gt;Node49 -->
<g id="edge139" class="edge">
<title>Node48&#45;&gt;Node49</title>
<path fill="none" stroke="#191970" d="M734.1703,-554.0011C641.4061,-548.0557 472.6323,-535.034 330,-512 328.7385,-511.7963 327.4591,-511.5779 326.1692,-511.3476"/>
<polygon fill="#191970" stroke="#191970" points="326.6847,-507.8821 316.1981,-509.3927 325.3379,-514.7513 326.6847,-507.8821"/>
</g>
<!-- Node50&#45;&gt;Node14 -->
<g id="edge156" class="edge">
<title>Node50&#45;&gt;Node14</title>
<path fill="none" stroke="#191970" d="M2297.3188,-501.6211C2043.5654,-499.8611 1091.869,-491.0164 793,-456 659.8853,-440.4039 228,-379.0252 228,-245 228,-245 228,-245 228,-189 228,-147.4563 261.9099,-108.986 284.4281,-88.0193"/>
<polygon fill="#191970" stroke="#191970" points="287.0192,-90.3968 292.125,-81.1133 282.3444,-85.1865 287.0192,-90.3968"/>
</g>
<!-- Node50&#45;&gt;Node15 -->
<g id="edge157" class="edge">
<title>Node50&#45;&gt;Node15</title>
<path fill="none" stroke="#191970" d="M2422.5738,-493.5008C2427.4506,-492.9523 2432.3028,-492.4433 2437,-492 2504.4849,-485.6311 2993.0111,-498.2724 3046,-456 3075.8514,-432.1858 3070,-411.6867 3070,-373.5 3070,-373.5 3070,-373.5 3070,-306.5 3070,-134.2895 2424.7377,-84.3121 2247.5456,-73.8346"/>
<polygon fill="#191970" stroke="#191970" points="2247.7079,-70.3382 2237.5224,-73.2548 2247.3036,-77.3265 2247.7079,-70.3382"/>
</g>
<!-- Node50&#45;&gt;Node16 -->
<g id="edge158" class="edge">
<title>Node50&#45;&gt;Node16</title>
<path fill="none" stroke="#191970" d="M2422.7703,-500.8904C2585.7719,-497.5941 3013.7614,-486.1422 3070,-456 3143.6471,-416.5274 3184,-390.0582 3184,-306.5 3184,-306.5 3184,-306.5 3184,-189 3184,-183.708 3193.4694,-166.2336 3020,-123 2857.4181,-82.4799 2655.668,-73.8407 2577.7875,-71.9989"/>
<polygon fill="#191970" stroke="#191970" points="2577.71,-68.4966 2567.6373,-71.7815 2577.56,-75.495 2577.71,-68.4966"/>
</g>
<!-- Node50&#45;&gt;Node18 -->
<g id="edge159" class="edge">
<title>Node50&#45;&gt;Node18</title>
<path fill="none" stroke="#191970" d="M2366.2777,-492.4551C2380.5081,-469.6977 2413.3579,-410.2441 2405,-358 2400.0489,-327.0515 2399.5609,-317.6093 2383,-291 2376.0008,-279.7541 2365.6928,-269.2538 2356.5124,-261.133"/>
<polygon fill="#191970" stroke="#191970" points="2358.7423,-258.435 2348.8466,-254.6501 2354.2221,-263.7799 2358.7423,-258.435"/>
</g>
<!-- Node50&#45;&gt;Node41 -->
<g id="edge155" class="edge">
<title>Node50&#45;&gt;Node41</title>
<path fill="none" stroke="#191970" d="M2337.9688,-492.3906C2317.9143,-483.6435 2287.7182,-470.4728 2262.7666,-459.5897"/>
<polygon fill="#191970" stroke="#191970" points="2264.0578,-456.3345 2253.4925,-455.5446 2261.2592,-462.7507 2264.0578,-456.3345"/>
</g>
</g>
</svg>
